<?xml version="1.0" encoding="UTF-8"?>
<svg xmlns="http://www.w3.org/2000/svg" xmlns:xlink="http://www.w3.org/1999/xlink" width="504pt" height="396pt" viewBox="0 0 504 396">
<defs>
<clipPath id="clip-0">
<path clip-rule="nonzero" d="M 14.945312 14.945312 L 489.058594 14.945312 L 489.058594 342.6875 L 14.945312 342.6875 Z M 14.945312 14.945312 "/>
</clipPath>
<clipPath id="clip-1">
<path clip-rule="nonzero" d="M 149 14.945312 L 152 14.945312 L 152 342.6875 L 149 342.6875 Z M 149 14.945312 "/>
</clipPath>
</defs>
<rect x="-50.4" y="-39.6" width="604.8" height="475.2" fill="rgb(100%, 100%, 100%)" fill-opacity="1"/>
<rect x="-50.4" y="-39.6" width="604.8" height="475.2" fill="rgb(95.294118%, 95.294118%, 95.294118%)" fill-opacity="1"/>
<path fill="none" stroke-width="2.909941" stroke-linecap="round" stroke-linejoin="round" stroke="rgb(95.294118%, 95.294118%, 95.294118%)" stroke-opacity="1" stroke-miterlimit="10" d="M 0 396 L 504 396 L 504 0 L 0 0 Z M 0 396 "/>
<g clip-path="url(#clip-0)">
<path fill-rule="nonzero" fill="rgb(95.294118%, 95.294118%, 95.294118%)" fill-opacity="1" stroke-width="2.909941" stroke-linecap="round" stroke-linejoin="round" stroke="rgb(95.294118%, 95.294118%, 95.294118%)" stroke-opacity="1" stroke-miterlimit="10" d="M 14.945312 342.6875 L 489.058594 342.6875 L 489.058594 14.945312 L 14.945312 14.945312 Z M 14.945312 342.6875 "/>
</g>
<path fill="none" stroke-width="2.560748" stroke-linecap="butt" stroke-linejoin="round" stroke="rgb(56.078431%, 16.470588%, 26.27451%)" stroke-opacity="1" stroke-miterlimit="10" d="M 36.496094 327.136719 L 37.109375 327.113281 L 37.726562 327.089844 L 38.339844 327.066406 L 39.574219 327.011719 L 40.1875 326.988281 L 40.804688 326.957031 L 41.421875 326.929688 L 42.035156 326.898438 L 42.652344 326.867188 L 43.265625 326.835938 L 43.882812 326.804688 L 44.5 326.769531 L 45.113281 326.734375 L 46.347656 326.664062 L 46.960938 326.625 L 47.578125 326.585938 L 48.195312 326.542969 L 48.808594 326.503906 L 49.425781 326.460938 L 50.039062 326.414062 L 50.65625 326.371094 L 51.273438 326.320312 L 51.886719 326.273438 L 53.121094 326.171875 L 53.734375 326.121094 L 54.351562 326.066406 L 54.964844 326.007812 L 56.199219 325.890625 L 56.8125 325.828125 L 58.046875 325.703125 L 58.660156 325.636719 L 59.277344 325.566406 L 59.890625 325.496094 L 60.507812 325.425781 L 61.125 325.347656 L 61.738281 325.273438 L 62.355469 325.195312 L 62.972656 325.113281 L 63.585938 325.03125 L 64.203125 324.945312 L 64.816406 324.855469 L 65.433594 324.765625 L 66.050781 324.671875 L 66.664062 324.578125 L 67.28125 324.480469 L 67.898438 324.378906 L 68.511719 324.273438 L 69.128906 324.167969 L 69.742188 324.058594 L 70.359375 323.949219 L 70.976562 323.832031 L 71.589844 323.714844 L 72.824219 323.472656 L 73.4375 323.34375 L 74.054688 323.214844 L 74.667969 323.078125 L 75.285156 322.941406 L 75.902344 322.800781 L 76.515625 322.65625 L 77.132812 322.507812 L 77.75 322.355469 L 78.363281 322.199219 L 78.980469 322.039062 L 79.59375 321.878906 L 80.210938 321.710938 L 80.828125 321.539062 L 81.441406 321.363281 L 82.058594 321.183594 L 82.675781 320.996094 L 83.289062 320.808594 L 83.90625 320.613281 L 84.519531 320.417969 L 85.136719 320.214844 L 85.753906 320.007812 L 86.367188 319.792969 L 86.984375 319.574219 L 87.601562 319.351562 L 88.214844 319.125 L 88.832031 318.890625 L 89.449219 318.652344 L 90.0625 318.410156 L 90.679688 318.160156 L 91.292969 317.90625 L 91.910156 317.644531 L 92.527344 317.378906 L 93.140625 317.105469 L 93.757812 316.828125 L 94.375 316.542969 L 94.988281 316.25 L 95.605469 315.953125 L 96.21875 315.648438 L 96.835938 315.339844 L 97.453125 315.023438 L 98.066406 314.699219 L 98.683594 314.367188 L 99.300781 314.03125 L 99.914062 313.683594 L 100.53125 313.332031 L 101.144531 312.972656 L 101.761719 312.605469 L 102.378906 312.234375 L 102.992188 311.851562 L 103.609375 311.460938 L 104.226562 311.0625 L 104.839844 310.660156 L 105.457031 310.246094 L 106.070312 309.824219 L 106.6875 309.394531 L 107.304688 308.953125 L 107.917969 308.507812 L 108.535156 308.050781 L 109.152344 307.589844 L 109.765625 307.117188 L 110.382812 306.632812 L 110.996094 306.140625 L 111.613281 305.640625 L 112.230469 305.132812 L 112.84375 304.613281 L 113.460938 304.085938 L 114.078125 303.546875 L 114.691406 303 L 115.308594 302.441406 L 115.921875 301.871094 L 116.539062 301.296875 L 117.15625 300.707031 L 117.769531 300.109375 L 118.386719 299.5 L 119.003906 298.882812 L 119.617188 298.25 L 120.234375 297.609375 L 120.847656 296.960938 L 121.464844 296.296875 L 122.082031 295.625 L 122.695312 294.941406 L 123.3125 294.246094 L 123.929688 293.539062 L 124.542969 292.820312 L 125.160156 292.089844 L 125.773438 291.347656 L 126.390625 290.597656 L 127.007812 289.832031 L 127.621094 289.054688 L 128.238281 288.265625 L 128.855469 287.464844 L 129.46875 286.652344 L 130.085938 285.828125 L 130.703125 284.992188 L 131.316406 284.144531 L 131.933594 283.28125 L 132.546875 282.40625 L 133.164062 281.519531 L 133.78125 280.621094 L 134.394531 279.710938 L 135.011719 278.785156 L 135.628906 277.847656 L 136.242188 276.894531 L 136.859375 275.933594 L 137.472656 274.957031 L 138.089844 273.96875 L 138.707031 272.964844 L 139.320312 271.949219 L 139.9375 270.921875 L 140.554688 269.878906 L 141.167969 268.824219 L 141.785156 267.757812 L 142.398438 266.675781 L 143.015625 265.582031 L 143.632812 264.472656 L 144.246094 263.351562 L 144.863281 262.21875 L 145.480469 261.070312 L 146.09375 259.910156 L 146.710938 258.738281 L 147.324219 257.550781 L 147.941406 256.347656 L 148.558594 255.132812 L 149.171875 253.90625 L 149.789062 252.667969 L 150.40625 251.414062 L 151.019531 250.144531 L 151.636719 248.867188 L 152.25 247.574219 L 152.867188 246.265625 L 153.484375 244.949219 L 154.097656 243.617188 L 154.714844 242.273438 L 155.332031 240.914062 L 155.945312 239.542969 L 156.5625 238.160156 L 157.175781 236.765625 L 157.792969 235.359375 L 158.410156 233.9375 L 159.023438 232.503906 L 159.640625 231.058594 L 160.257812 229.601562 L 160.871094 228.132812 L 161.488281 226.652344 L 162.101562 225.160156 L 162.71875 223.65625 L 163.335938 222.140625 L 163.949219 220.613281 L 164.566406 219.074219 L 165.183594 217.527344 L 165.796875 215.964844 L 166.414062 214.394531 L 167.027344 212.8125 L 167.644531 211.222656 L 168.261719 209.621094 L 168.875 208.007812 L 169.492188 206.386719 L 170.109375 204.753906 L 170.722656 203.113281 L 171.339844 201.460938 L 171.957031 199.804688 L 172.570312 198.136719 L 173.1875 196.457031 L 173.800781 194.773438 L 174.417969 193.078125 L 175.035156 191.378906 L 175.648438 189.667969 L 176.265625 187.953125 L 176.882812 186.230469 L 177.496094 184.5 L 178.113281 182.761719 L 178.726562 181.019531 L 179.34375 179.269531 L 179.960938 177.515625 L 180.574219 175.753906 L 181.191406 173.988281 L 181.808594 172.214844 L 182.421875 170.441406 L 183.039062 168.660156 L 183.652344 166.875 L 184.886719 163.296875 L 185.5 161.5 L 186.734375 157.90625 L 187.347656 156.101562 L 187.964844 154.300781 L 188.578125 152.496094 L 189.195312 150.6875 L 189.8125 148.882812 L 190.425781 147.074219 L 191.042969 145.265625 L 191.660156 143.460938 L 192.273438 141.65625 L 192.890625 139.851562 L 193.503906 138.046875 L 194.738281 134.445312 L 195.351562 132.648438 L 195.96875 130.855469 L 196.585938 129.066406 L 197.199219 127.277344 L 197.816406 125.496094 L 198.429688 123.71875 L 199.046875 121.945312 L 199.664062 120.175781 L 200.277344 118.414062 L 200.894531 116.660156 L 201.511719 114.910156 L 202.125 113.167969 L 202.742188 111.433594 L 203.355469 109.707031 L 203.972656 107.988281 L 204.589844 106.277344 L 205.203125 104.578125 L 205.820312 102.886719 L 206.4375 101.203125 L 207.050781 99.53125 L 207.667969 97.871094 L 208.28125 96.222656 L 208.898438 94.585938 L 209.515625 92.957031 L 210.128906 91.34375 L 210.746094 89.742188 L 211.363281 88.152344 L 211.976562 86.578125 L 212.59375 85.019531 L 213.210938 83.472656 L 213.824219 81.941406 L 214.441406 80.421875 L 215.054688 78.921875 L 215.671875 77.4375 L 216.289062 75.96875 L 216.902344 74.515625 L 217.519531 73.082031 L 218.136719 71.664062 L 218.75 70.265625 L 219.367188 68.882812 L 219.980469 67.519531 L 220.597656 66.175781 L 221.214844 64.851562 L 221.828125 63.546875 L 222.445312 62.261719 L 223.0625 60.996094 L 223.675781 59.753906 L 224.292969 58.53125 L 224.90625 57.332031 L 225.523438 56.152344 L 226.140625 54.996094 L 226.753906 53.859375 L 227.371094 52.75 L 227.988281 51.660156 L 228.601562 50.59375 L 229.21875 49.554688 L 229.832031 48.535156 L 230.449219 47.542969 L 231.066406 46.574219 L 231.679688 45.628906 L 232.296875 44.710938 L 232.914062 43.820312 L 233.527344 42.953125 L 234.144531 42.109375 L 234.757812 41.296875 L 235.375 40.507812 L 235.992188 39.742188 L 236.605469 39.007812 L 237.222656 38.300781 L 237.839844 37.617188 L 238.453125 36.964844 L 239.070312 36.339844 L 239.683594 35.742188 L 240.300781 35.171875 L 240.917969 34.628906 L 241.53125 34.117188 L 242.148438 33.628906 L 242.765625 33.175781 L 243.378906 32.746094 L 243.996094 32.347656 L 244.609375 31.980469 L 245.226562 31.636719 L 245.84375 31.328125 L 246.457031 31.046875 L 247.074219 30.792969 L 247.691406 30.570312 L 248.304688 30.378906 L 248.921875 30.214844 L 249.535156 30.078125 L 250.152344 29.976562 L 250.769531 29.902344 L 251.382812 29.855469 L 252 29.839844 L 252.617188 29.855469 L 253.230469 29.902344 L 253.847656 29.976562 L 254.464844 30.078125 L 255.078125 30.214844 L 255.695312 30.378906 L 256.308594 30.570312 L 256.925781 30.792969 L 257.542969 31.046875 L 258.15625 31.328125 L 258.773438 31.636719 L 259.390625 31.980469 L 260.003906 32.347656 L 260.621094 32.746094 L 261.234375 33.175781 L 261.851562 33.628906 L 262.46875 34.117188 L 263.082031 34.628906 L 263.699219 35.171875 L 264.316406 35.742188 L 264.929688 36.339844 L 265.546875 36.964844 L 266.160156 37.617188 L 266.777344 38.300781 L 267.394531 39.007812 L 268.007812 39.742188 L 268.625 40.507812 L 269.242188 41.296875 L 269.855469 42.109375 L 270.472656 42.953125 L 271.085938 43.820312 L 271.703125 44.710938 L 272.320312 45.628906 L 272.933594 46.574219 L 273.550781 47.542969 L 274.167969 48.535156 L 274.78125 49.554688 L 275.398438 50.59375 L 276.011719 51.660156 L 276.628906 52.75 L 277.246094 53.859375 L 277.859375 54.996094 L 278.476562 56.152344 L 279.09375 57.332031 L 279.707031 58.53125 L 280.324219 59.753906 L 280.9375 60.996094 L 281.554688 62.261719 L 282.171875 63.546875 L 282.785156 64.851562 L 283.402344 66.175781 L 284.019531 67.519531 L 284.632812 68.882812 L 285.25 70.265625 L 285.863281 71.664062 L 286.480469 73.082031 L 287.097656 74.515625 L 287.710938 75.96875 L 288.328125 77.4375 L 288.945312 78.921875 L 289.558594 80.421875 L 290.175781 81.941406 L 290.789062 83.472656 L 291.40625 85.019531 L 292.023438 86.578125 L 292.636719 88.152344 L 293.253906 89.742188 L 293.871094 91.34375 L 294.484375 92.957031 L 295.101562 94.585938 L 295.71875 96.222656 L 296.332031 97.871094 L 296.949219 99.53125 L 297.5625 101.203125 L 298.179688 102.886719 L 298.796875 104.578125 L 299.410156 106.277344 L 300.027344 107.988281 L 300.644531 109.707031 L 301.257812 111.433594 L 301.875 113.167969 L 302.488281 114.910156 L 303.105469 116.660156 L 303.722656 118.414062 L 304.335938 120.175781 L 304.953125 121.945312 L 305.570312 123.71875 L 306.183594 125.496094 L 306.800781 127.277344 L 307.414062 129.066406 L 308.03125 130.855469 L 308.648438 132.648438 L 309.261719 134.445312 L 310.496094 138.046875 L 311.109375 139.851562 L 311.726562 141.65625 L 312.339844 143.460938 L 312.957031 145.265625 L 313.574219 147.074219 L 314.1875 148.882812 L 314.804688 150.6875 L 315.421875 152.496094 L 316.035156 154.300781 L 316.652344 156.101562 L 317.265625 157.90625 L 318.5 161.5 L 319.113281 163.296875 L 320.347656 166.875 L 320.960938 168.660156 L 321.578125 170.441406 L 322.191406 172.214844 L 322.808594 173.988281 L 323.425781 175.753906 L 324.039062 177.515625 L 324.65625 179.269531 L 325.273438 181.019531 L 325.886719 182.761719 L 326.503906 184.5 L 327.117188 186.230469 L 327.734375 187.953125 L 328.351562 189.667969 L 328.964844 191.378906 L 329.582031 193.078125 L 330.199219 194.773438 L 330.8125 196.457031 L 331.429688 198.136719 L 332.042969 199.804688 L 332.660156 201.460938 L 333.277344 203.113281 L 333.890625 204.753906 L 334.507812 206.386719 L 335.125 208.007812 L 335.738281 209.621094 L 336.355469 211.222656 L 336.972656 212.8125 L 337.585938 214.394531 L 338.203125 215.964844 L 338.816406 217.527344 L 339.433594 219.074219 L 340.050781 220.613281 L 340.664062 222.140625 L 341.28125 223.65625 L 341.898438 225.160156 L 342.511719 226.652344 L 343.128906 228.132812 L 343.742188 229.601562 L 344.359375 231.058594 L 344.976562 232.503906 L 345.589844 233.9375 L 346.207031 235.359375 L 346.824219 236.765625 L 347.4375 238.160156 L 348.054688 239.542969 L 348.667969 240.914062 L 349.285156 242.273438 L 349.902344 243.617188 L 350.515625 244.949219 L 351.132812 246.265625 L 351.75 247.574219 L 352.363281 248.867188 L 352.980469 250.144531 L 353.59375 251.414062 L 354.210938 252.667969 L 354.828125 253.90625 L 355.441406 255.132812 L 356.058594 256.347656 L 356.675781 257.550781 L 357.289062 258.738281 L 357.90625 259.910156 L 358.519531 261.070312 L 359.136719 262.21875 L 359.753906 263.351562 L 360.367188 264.472656 L 360.984375 265.582031 L 361.601562 266.675781 L 362.214844 267.757812 L 362.832031 268.824219 L 363.445312 269.878906 L 364.0625 270.921875 L 364.679688 271.949219 L 365.292969 272.964844 L 365.910156 273.96875 L 366.527344 274.957031 L 367.140625 275.933594 L 367.757812 276.894531 L 368.371094 277.847656 L 368.988281 278.785156 L 369.605469 279.710938 L 370.21875 280.621094 L 370.835938 281.519531 L 371.453125 282.40625 L 372.066406 283.28125 L 372.683594 284.144531 L 373.296875 284.992188 L 373.914062 285.828125 L 374.53125 286.652344 L 375.144531 287.464844 L 375.761719 288.265625 L 376.378906 289.054688 L 376.992188 289.832031 L 377.609375 290.597656 L 378.226562 291.347656 L 378.839844 292.089844 L 379.457031 292.820312 L 380.070312 293.539062 L 380.6875 294.246094 L 381.304688 294.941406 L 381.917969 295.625 L 382.535156 296.296875 L 383.152344 296.960938 L 383.765625 297.609375 L 384.382812 298.25 L 384.996094 298.882812 L 385.613281 299.5 L 386.230469 300.109375 L 386.84375 300.707031 L 387.460938 301.296875 L 388.078125 301.871094 L 388.691406 302.441406 L 389.308594 303 L 389.921875 303.546875 L 390.539062 304.085938 L 391.15625 304.613281 L 391.769531 305.132812 L 392.386719 305.640625 L 393.003906 306.140625 L 393.617188 306.632812 L 394.234375 307.117188 L 394.847656 307.589844 L 395.464844 308.050781 L 396.082031 308.507812 L 396.695312 308.953125 L 397.3125 309.394531 L 397.929688 309.824219 L 398.542969 310.246094 L 399.160156 310.660156 L 399.773438 311.0625 L 400.390625 311.460938 L 401.007812 311.851562 L 401.621094 312.234375 L 402.238281 312.605469 L 402.855469 312.972656 L 403.46875 313.332031 L 404.085938 313.683594 L 404.699219 314.03125 L 405.316406 314.367188 L 405.933594 314.699219 L 406.546875 315.023438 L 407.164062 315.339844 L 407.78125 315.648438 L 408.394531 315.953125 L 409.011719 316.25 L 409.625 316.542969 L 410.242188 316.828125 L 410.859375 317.105469 L 411.472656 317.378906 L 412.089844 317.644531 L 412.707031 317.90625 L 413.320312 318.160156 L 413.9375 318.410156 L 414.550781 318.652344 L 415.167969 318.890625 L 415.785156 319.125 L 416.398438 319.351562 L 417.015625 319.574219 L 417.632812 319.792969 L 418.246094 320.007812 L 418.863281 320.214844 L 419.480469 320.417969 L 420.09375 320.613281 L 420.710938 320.808594 L 421.324219 320.996094 L 421.941406 321.183594 L 422.558594 321.363281 L 423.171875 321.539062 L 423.789062 321.710938 L 424.40625 321.878906 L 425.019531 322.039062 L 425.636719 322.199219 L 426.25 322.355469 L 426.867188 322.507812 L 427.484375 322.65625 L 428.097656 322.800781 L 428.714844 322.941406 L 429.332031 323.078125 L 429.945312 323.214844 L 430.5625 323.34375 L 431.175781 323.472656 L 432.410156 323.714844 L 433.023438 323.832031 L 433.640625 323.949219 L 434.257812 324.058594 L 434.871094 324.167969 L 435.488281 324.273438 L 436.101562 324.378906 L 436.71875 324.480469 L 437.335938 324.578125 L 437.949219 324.671875 L 438.566406 324.765625 L 439.183594 324.855469 L 439.796875 324.945312 L 440.414062 325.03125 L 441.027344 325.113281 L 441.644531 325.195312 L 442.261719 325.273438 L 442.875 325.347656 L 443.492188 325.425781 L 444.109375 325.496094 L 444.722656 325.566406 L 445.339844 325.636719 L 445.953125 325.703125 L 447.1875 325.828125 L 447.800781 325.890625 L 449.035156 326.007812 L 449.648438 326.066406 L 450.265625 326.121094 L 450.878906 326.171875 L 452.113281 326.273438 L 452.726562 326.320312 L 453.34375 326.371094 L 453.960938 326.414062 L 454.574219 326.460938 L 455.191406 326.503906 L 455.804688 326.542969 L 456.421875 326.585938 L 457.039062 326.625 L 457.652344 326.664062 L 458.886719 326.734375 L 459.5 326.769531 L 460.117188 326.804688 L 460.734375 326.835938 L 461.347656 326.867188 L 461.964844 326.898438 L 462.578125 326.929688 L 463.195312 326.957031 L 463.8125 326.988281 L 464.425781 327.011719 L 465.660156 327.066406 L 466.273438 327.089844 L 466.890625 327.113281 L 467.503906 327.136719 "/>
<path fill-rule="nonzero" fill="rgb(56.078431%, 16.470588%, 26.27451%)" fill-opacity="0.501961" d="M 36.496094 327.136719 L 37.109375 327.113281 L 37.726562 327.089844 L 38.339844 327.066406 L 39.574219 327.011719 L 40.1875 326.988281 L 40.804688 326.957031 L 41.421875 326.929688 L 42.035156 326.898438 L 42.652344 326.867188 L 43.265625 326.835938 L 43.882812 326.804688 L 44.5 326.769531 L 45.113281 326.734375 L 46.347656 326.664062 L 46.960938 326.625 L 47.578125 326.585938 L 48.195312 326.542969 L 48.808594 326.503906 L 49.425781 326.460938 L 50.039062 326.414062 L 50.65625 326.371094 L 51.273438 326.320312 L 51.886719 326.273438 L 53.121094 326.171875 L 53.734375 326.121094 L 54.351562 326.066406 L 54.964844 326.007812 L 56.199219 325.890625 L 56.8125 325.828125 L 58.046875 325.703125 L 58.660156 325.636719 L 59.277344 325.566406 L 59.890625 325.496094 L 60.507812 325.425781 L 61.125 325.347656 L 61.738281 325.273438 L 62.355469 325.195312 L 62.972656 325.113281 L 63.585938 325.03125 L 64.203125 324.945312 L 64.816406 324.855469 L 65.433594 324.765625 L 66.050781 324.671875 L 66.664062 324.578125 L 67.28125 324.480469 L 67.898438 324.378906 L 68.511719 324.273438 L 69.128906 324.167969 L 69.742188 324.058594 L 70.359375 323.949219 L 70.976562 323.832031 L 71.589844 323.714844 L 72.824219 323.472656 L 73.4375 323.34375 L 74.054688 323.214844 L 74.667969 323.078125 L 75.285156 322.941406 L 75.902344 322.800781 L 76.515625 322.65625 L 77.132812 322.507812 L 77.75 322.355469 L 78.363281 322.199219 L 78.980469 322.039062 L 79.59375 321.878906 L 80.210938 321.710938 L 80.828125 321.539062 L 81.441406 321.363281 L 82.058594 321.183594 L 82.675781 320.996094 L 83.289062 320.808594 L 83.90625 320.613281 L 84.519531 320.417969 L 85.136719 320.214844 L 85.753906 320.007812 L 86.367188 319.792969 L 86.984375 319.574219 L 87.601562 319.351562 L 88.214844 319.125 L 88.832031 318.890625 L 89.449219 318.652344 L 90.0625 318.410156 L 90.679688 318.160156 L 91.292969 317.90625 L 91.910156 317.644531 L 92.527344 317.378906 L 93.140625 317.105469 L 93.757812 316.828125 L 94.375 316.542969 L 94.988281 316.25 L 95.605469 315.953125 L 96.21875 315.648438 L 96.835938 315.339844 L 97.453125 315.023438 L 98.066406 314.699219 L 98.683594 314.367188 L 99.300781 314.03125 L 99.914062 313.683594 L 100.53125 313.332031 L 101.144531 312.972656 L 101.761719 312.605469 L 102.378906 312.234375 L 102.992188 311.851562 L 103.609375 311.460938 L 104.226562 311.0625 L 104.839844 310.660156 L 105.457031 310.246094 L 106.070312 309.824219 L 106.6875 309.394531 L 107.304688 308.953125 L 107.917969 308.507812 L 108.535156 308.050781 L 109.152344 307.589844 L 109.765625 307.117188 L 110.382812 306.632812 L 110.996094 306.140625 L 111.613281 305.640625 L 112.230469 305.132812 L 112.84375 304.613281 L 113.460938 304.085938 L 114.078125 303.546875 L 114.691406 303 L 115.308594 302.441406 L 115.921875 301.871094 L 116.539062 301.296875 L 117.15625 300.707031 L 117.769531 300.109375 L 118.386719 299.5 L 119.003906 298.882812 L 119.617188 298.25 L 120.234375 297.609375 L 120.847656 296.960938 L 121.464844 296.296875 L 122.082031 295.625 L 122.695312 294.941406 L 123.3125 294.246094 L 123.929688 293.539062 L 124.542969 292.820312 L 125.160156 292.089844 L 125.773438 291.347656 L 126.390625 290.597656 L 127.007812 289.832031 L 127.621094 289.054688 L 128.238281 288.265625 L 128.855469 287.464844 L 129.46875 286.652344 L 130.085938 285.828125 L 130.703125 284.992188 L 131.316406 284.144531 L 131.933594 283.28125 L 132.546875 282.40625 L 133.164062 281.519531 L 133.78125 280.621094 L 134.394531 279.710938 L 135.011719 278.785156 L 135.628906 277.847656 L 136.242188 276.894531 L 136.859375 275.933594 L 137.472656 274.957031 L 138.089844 273.96875 L 138.707031 272.964844 L 139.320312 271.949219 L 139.9375 270.921875 L 140.554688 269.878906 L 141.167969 268.824219 L 141.785156 267.757812 L 142.398438 266.675781 L 143.015625 265.582031 L 143.632812 264.472656 L 144.246094 263.351562 L 144.863281 262.21875 L 145.480469 261.070312 L 146.09375 259.910156 L 146.710938 258.738281 L 147.324219 257.550781 L 147.941406 256.347656 L 148.558594 255.132812 L 149.171875 253.90625 L 149.789062 252.667969 L 150.40625 251.414062 L 150.40625 327.789062 L 36.496094 327.789062 Z M 36.496094 327.136719 "/>
<g clip-path="url(#clip-1)">
<path fill="none" stroke-width="1.920561" stroke-linecap="butt" stroke-linejoin="round" stroke="rgb(0%, 0%, 0%)" stroke-opacity="1" stroke-dasharray="7.682244 7.682244" stroke-miterlimit="10" d="M 150.722656 342.6875 L 150.722656 14.945312 "/>
</g>
<path fill-rule="nonzero" fill="rgb(10.196078%, 10.196078%, 10.196078%)" fill-opacity="1" d="M 118.4375 367.253906 L 118.4375 365.851562 L 125.859375 365.851562 L 125.859375 367.253906 Z M 118.4375 367.253906 "/>
<path fill-rule="nonzero" fill="rgb(10.196078%, 10.196078%, 10.196078%)" fill-opacity="1" d="M 134.0625 356.386719 L 134.523438 356.402344 L 134.964844 356.441406 L 135.386719 356.511719 L 135.785156 356.609375 L 136.167969 356.730469 L 136.53125 356.882812 L 136.875 357.058594 L 137.199219 357.265625 L 137.5 357.5 L 137.785156 357.761719 L 138.050781 358.042969 L 138.289062 358.339844 L 138.5 358.652344 L 138.683594 358.984375 L 138.835938 359.328125 L 138.960938 359.6875 L 139.058594 360.066406 L 139.128906 360.457031 L 139.171875 360.863281 L 139.1875 361.289062 L 139.179688 361.648438 L 139.15625 362.007812 L 139.117188 362.359375 L 139.066406 362.707031 L 138.996094 363.050781 L 138.914062 363.390625 L 138.816406 363.726562 L 138.703125 364.058594 L 138.574219 364.382812 L 138.429688 364.703125 L 138.269531 365.027344 L 138.09375 365.355469 L 137.898438 365.6875 L 137.6875 366.03125 L 137.457031 366.378906 L 137.210938 366.730469 L 136.945312 367.089844 L 136.664062 367.453125 L 136.367188 367.828125 L 136.050781 368.203125 L 135.710938 368.605469 L 135.332031 369.039062 L 134.914062 369.515625 L 134.457031 370.027344 L 133.957031 370.578125 L 133.417969 371.164062 L 132.839844 371.789062 L 132.222656 372.449219 L 131.566406 373.152344 L 130.871094 373.886719 L 139.691406 373.886719 L 139.464844 375.316406 L 128.964844 375.316406 L 128.964844 373.945312 L 129.710938 373.148438 L 130.414062 372.394531 L 131.070312 371.683594 L 131.683594 371.015625 L 132.257812 370.386719 L 132.78125 369.804688 L 133.265625 369.261719 L 133.707031 368.765625 L 134.101562 368.308594 L 134.453125 367.894531 L 134.78125 367.503906 L 135.085938 367.125 L 135.371094 366.753906 L 135.636719 366.394531 L 135.882812 366.046875 L 136.105469 365.710938 L 136.3125 365.386719 L 136.496094 365.074219 L 136.660156 364.769531 L 136.804688 364.480469 L 136.9375 364.1875 L 137.058594 363.890625 L 137.164062 363.589844 L 137.253906 363.285156 L 137.332031 362.976562 L 137.394531 362.664062 L 137.441406 362.34375 L 137.476562 362.023438 L 137.5 361.699219 L 137.507812 361.371094 L 137.496094 361.046875 L 137.46875 360.738281 L 137.417969 360.441406 L 137.347656 360.15625 L 137.261719 359.886719 L 137.152344 359.632812 L 137.027344 359.386719 L 136.878906 359.160156 L 136.710938 358.941406 L 136.527344 358.738281 L 136.328125 358.554688 L 136.121094 358.386719 L 135.898438 358.242188 L 135.660156 358.113281 L 135.414062 358.003906 L 135.152344 357.917969 L 134.878906 357.847656 L 134.589844 357.800781 L 134.289062 357.769531 L 133.976562 357.761719 L 133.722656 357.765625 L 133.472656 357.78125 L 133.230469 357.808594 L 132.992188 357.84375 L 132.761719 357.894531 L 132.535156 357.953125 L 132.3125 358.019531 L 132.097656 358.101562 L 131.886719 358.191406 L 131.683594 358.292969 L 131.488281 358.402344 L 131.292969 358.527344 L 131.101562 358.660156 L 130.910156 358.804688 L 130.722656 358.957031 L 130.535156 359.121094 L 130.351562 359.296875 L 130.167969 359.484375 L 129.984375 359.679688 L 129.804688 359.886719 L 128.6875 359.046875 L 128.910156 358.78125 L 129.140625 358.527344 L 129.375 358.289062 L 129.609375 358.066406 L 129.847656 357.859375 L 130.089844 357.664062 L 130.335938 357.484375 L 130.585938 357.320312 L 130.839844 357.167969 L 131.09375 357.03125 L 131.359375 356.910156 L 131.632812 356.800781 L 131.914062 356.703125 L 132.199219 356.621094 L 132.492188 356.550781 L 132.792969 356.492188 L 133.101562 356.445312 L 133.414062 356.414062 L 133.734375 356.394531 Z M 134.0625 356.386719 "/>
<path fill-rule="nonzero" fill="rgb(10.196078%, 10.196078%, 10.196078%)" fill-opacity="1" d="M 252 356.386719 L 252.5625 356.414062 L 253.097656 356.488281 L 253.605469 356.609375 L 254.082031 356.78125 L 254.535156 357.003906 L 254.957031 357.273438 L 255.351562 357.59375 L 255.71875 357.964844 L 256.058594 358.382812 L 256.367188 358.851562 L 256.648438 359.363281 L 256.902344 359.917969 L 257.125 360.519531 L 257.316406 361.167969 L 257.480469 361.863281 L 257.613281 362.601562 L 257.71875 363.386719 L 257.792969 364.21875 L 257.835938 365.097656 L 257.851562 366.019531 L 257.835938 366.9375 L 257.792969 367.8125 L 257.714844 368.640625 L 257.609375 369.425781 L 257.472656 370.164062 L 257.308594 370.859375 L 257.109375 371.507812 L 256.882812 372.113281 L 256.628906 372.671875 L 256.339844 373.1875 L 256.03125 373.652344 L 255.691406 374.066406 L 255.324219 374.429688 L 254.933594 374.746094 L 254.511719 375.015625 L 254.066406 375.234375 L 253.589844 375.40625 L 253.085938 375.527344 L 252.558594 375.601562 L 252 375.625 L 251.4375 375.601562 L 250.902344 375.527344 L 250.394531 375.40625 L 249.917969 375.234375 L 249.464844 375.015625 L 249.042969 374.746094 L 248.648438 374.429688 L 248.28125 374.066406 L 247.941406 373.652344 L 247.632812 373.1875 L 247.351562 372.671875 L 247.097656 372.113281 L 246.875 371.503906 L 246.683594 370.855469 L 246.519531 370.15625 L 246.386719 369.414062 L 246.28125 368.628906 L 246.207031 367.792969 L 246.164062 366.914062 L 246.148438 365.992188 L 246.164062 365.070312 L 246.207031 364.191406 L 246.28125 363.359375 L 246.386719 362.574219 L 246.519531 361.835938 L 246.683594 361.140625 L 246.875 360.492188 L 247.097656 359.890625 L 247.351562 359.335938 L 247.632812 358.824219 L 247.941406 358.359375 L 248.28125 357.945312 L 248.648438 357.582031 L 249.042969 357.265625 L 249.464844 356.996094 L 249.917969 356.777344 L 250.394531 356.605469 L 250.902344 356.484375 L 251.4375 356.414062 Z M 252 357.730469 L 251.207031 357.816406 L 250.5 358.0625 L 249.871094 358.476562 L 249.328125 359.054688 L 248.871094 359.796875 L 248.496094 360.707031 L 248.203125 361.78125 L 247.996094 363.019531 L 247.871094 364.421875 L 247.828125 365.992188 L 247.871094 367.566406 L 247.996094 368.976562 L 248.203125 370.21875 L 248.496094 371.296875 L 248.871094 372.207031 L 249.328125 372.953125 L 249.871094 373.535156 L 250.5 373.949219 L 251.207031 374.195312 L 252 374.28125 L 252.398438 374.261719 L 252.777344 374.199219 L 253.136719 374.097656 L 253.472656 373.957031 L 253.792969 373.777344 L 254.089844 373.554688 L 254.367188 373.292969 L 254.625 372.988281 L 254.863281 372.648438 L 255.078125 372.265625 L 255.28125 371.839844 L 255.464844 371.371094 L 255.621094 370.855469 L 255.761719 370.296875 L 255.878906 369.695312 L 255.972656 369.046875 L 256.046875 368.359375 L 256.101562 367.621094 L 256.132812 366.84375 L 256.144531 366.019531 L 256.132812 365.195312 L 256.101562 364.417969 L 256.046875 363.683594 L 255.972656 362.992188 L 255.878906 362.34375 L 255.761719 361.742188 L 255.621094 361.183594 L 255.464844 360.671875 L 255.28125 360.203125 L 255.078125 359.777344 L 254.863281 359.386719 L 254.625 359.039062 L 254.367188 358.734375 L 254.089844 358.46875 L 253.792969 358.242188 L 253.472656 358.058594 L 253.136719 357.914062 L 252.777344 357.8125 L 252.398438 357.753906 Z M 252 357.730469 "/>
<path fill-rule="nonzero" fill="rgb(10.196078%, 10.196078%, 10.196078%)" fill-opacity="1" d="M 374.738281 356.386719 L 375.199219 356.402344 L 375.640625 356.441406 L 376.0625 356.511719 L 376.464844 356.609375 L 376.847656 356.730469 L 377.210938 356.882812 L 377.550781 357.058594 L 377.875 357.265625 L 378.179688 357.5 L 378.464844 357.761719 L 378.730469 358.042969 L 378.96875 358.339844 L 379.179688 358.652344 L 379.359375 358.984375 L 379.515625 359.328125 L 379.640625 359.6875 L 379.738281 360.066406 L 379.808594 360.457031 L 379.851562 360.863281 L 379.863281 361.289062 L 379.855469 361.648438 L 379.832031 362.007812 L 379.796875 362.359375 L 379.742188 362.707031 L 379.675781 363.050781 L 379.59375 363.390625 L 379.492188 363.726562 L 379.378906 364.058594 L 379.25 364.382812 L 379.109375 364.703125 L 378.949219 365.027344 L 378.769531 365.355469 L 378.578125 365.6875 L 378.363281 366.03125 L 378.136719 366.378906 L 377.886719 366.730469 L 377.625 367.089844 L 377.34375 367.453125 L 377.042969 367.828125 L 376.726562 368.203125 L 376.390625 368.605469 L 376.011719 369.039062 L 375.589844 369.515625 L 375.132812 370.027344 L 374.636719 370.578125 L 374.097656 371.164062 L 373.519531 371.789062 L 372.902344 372.449219 L 372.246094 373.152344 L 371.546875 373.886719 L 380.367188 373.886719 L 380.144531 375.316406 L 369.644531 375.316406 L 369.644531 373.945312 L 370.390625 373.148438 L 371.089844 372.394531 L 371.75 371.683594 L 372.363281 371.015625 L 372.933594 370.386719 L 373.460938 369.804688 L 373.945312 369.261719 L 374.382812 368.765625 L 374.78125 368.308594 L 375.132812 367.894531 L 375.457031 367.503906 L 375.765625 367.125 L 376.050781 366.753906 L 376.316406 366.394531 L 376.558594 366.046875 L 376.785156 365.710938 L 376.988281 365.386719 L 377.175781 365.074219 L 377.339844 364.769531 L 377.484375 364.480469 L 377.617188 364.1875 L 377.734375 363.890625 L 377.839844 363.589844 L 377.933594 363.285156 L 378.007812 362.976562 L 378.070312 362.664062 L 378.121094 362.34375 L 378.15625 362.023438 L 378.175781 361.699219 L 378.183594 361.371094 L 378.175781 361.046875 L 378.144531 360.738281 L 378.097656 360.441406 L 378.027344 360.15625 L 377.9375 359.886719 L 377.832031 359.632812 L 377.703125 359.386719 L 377.558594 359.160156 L 377.390625 358.941406 L 377.203125 358.738281 L 377.007812 358.554688 L 376.796875 358.386719 L 376.574219 358.242188 L 376.339844 358.113281 L 376.089844 358.003906 L 375.828125 357.917969 L 375.554688 357.847656 L 375.269531 357.800781 L 374.96875 357.769531 L 374.65625 357.761719 L 374.402344 357.765625 L 374.152344 357.78125 L 373.910156 357.808594 L 373.671875 357.84375 L 373.4375 357.894531 L 373.210938 357.953125 L 372.988281 358.019531 L 372.773438 358.101562 L 372.5625 358.191406 L 372.359375 358.292969 L 372.164062 358.402344 L 371.972656 358.527344 L 371.78125 358.660156 L 371.589844 358.804688 L 371.402344 358.957031 L 371.214844 359.121094 L 371.027344 359.296875 L 370.847656 359.484375 L 370.664062 359.679688 L 370.484375 359.886719 L 369.363281 359.046875 L 369.589844 358.78125 L 369.820312 358.527344 L 370.050781 358.289062 L 370.285156 358.066406 L 370.527344 357.859375 L 370.769531 357.664062 L 371.015625 357.484375 L 371.261719 357.320312 L 371.515625 357.167969 L 371.773438 357.03125 L 372.039062 356.910156 L 372.3125 356.800781 L 372.59375 356.703125 L 372.878906 356.621094 L 373.171875 356.550781 L 373.472656 356.492188 L 373.777344 356.445312 L 374.09375 356.414062 L 374.414062 356.394531 Z M 374.738281 356.386719 "/>
</svg>
