<?xml version="1.0" encoding="UTF-8"?>
<svg xmlns="http://www.w3.org/2000/svg" xmlns:xlink="http://www.w3.org/1999/xlink" width="432pt" height="396pt" viewBox="0 0 432 396">
<defs>
<clipPath id="clip-0">
<path clip-rule="nonzero" d="M 15.941406 15.941406 L 416.0625 15.941406 L 416.0625 339.015625 L 15.941406 339.015625 Z M 15.941406 15.941406 "/>
</clipPath>
<clipPath id="clip-1">
<path clip-rule="nonzero" d="M 195 15.941406 L 198 15.941406 L 198 339.015625 L 195 339.015625 Z M 195 15.941406 "/>
</clipPath>
</defs>
<rect x="-43.2" y="-39.6" width="518.4" height="475.2" fill="rgb(100%, 100%, 100%)" fill-opacity="1"/>
<rect x="-43.2" y="-39.6" width="518.4" height="475.2" fill="rgb(95.294118%, 95.294118%, 95.294118%)" fill-opacity="1"/>
<path fill="none" stroke-width="3.103937" stroke-linecap="round" stroke-linejoin="round" stroke="rgb(95.294118%, 95.294118%, 95.294118%)" stroke-opacity="1" stroke-miterlimit="10" d="M 0 396 L 432 396 L 432 0 L 0 0 Z M 0 396 "/>
<g clip-path="url(#clip-0)">
<path fill-rule="nonzero" fill="rgb(95.294118%, 95.294118%, 95.294118%)" fill-opacity="1" stroke-width="3.103937" stroke-linecap="round" stroke-linejoin="round" stroke="rgb(95.294118%, 95.294118%, 95.294118%)" stroke-opacity="1" stroke-miterlimit="10" d="M 15.941406 339.011719 L 416.0625 339.011719 L 416.0625 15.9375 L 15.941406 15.9375 Z M 15.941406 339.011719 "/>
</g>
<path fill-rule="nonzero" fill="rgb(56.078431%, 16.470588%, 26.27451%)" fill-opacity="0.501961" d="M 34.128906 324.328125 L 46.253906 324.328125 L 46.253906 322.167969 L 34.128906 322.167969 Z M 34.128906 324.328125 "/>
<path fill-rule="nonzero" fill="rgb(56.078431%, 16.470588%, 26.27451%)" fill-opacity="0.501961" d="M 58.378906 324.328125 L 70.503906 324.328125 L 70.503906 313.53125 L 58.378906 313.53125 Z M 58.378906 324.328125 "/>
<path fill-rule="nonzero" fill="rgb(56.078431%, 16.470588%, 26.27451%)" fill-opacity="0.501961" d="M 70.503906 324.328125 L 82.628906 324.328125 L 82.628906 296.253906 L 70.503906 296.253906 Z M 70.503906 324.328125 "/>
<path fill-rule="nonzero" fill="rgb(56.078431%, 16.470588%, 26.27451%)" fill-opacity="0.501961" d="M 94.75 324.328125 L 106.875 324.328125 L 106.875 257.382812 L 94.75 257.382812 Z M 94.75 324.328125 "/>
<path fill-rule="nonzero" fill="rgb(56.078431%, 16.470588%, 26.27451%)" fill-opacity="0.501961" d="M 106.875 324.328125 L 119 324.328125 L 119 205.550781 L 106.875 205.550781 Z M 106.875 324.328125 "/>
<path fill-rule="nonzero" fill="rgb(56.078431%, 16.470588%, 26.27451%)" fill-opacity="0.501961" d="M 131.125 324.328125 L 143.25 324.328125 L 143.25 123.488281 L 131.125 123.488281 Z M 131.125 324.328125 "/>
<path fill-rule="nonzero" fill="rgb(56.078431%, 16.470588%, 26.27451%)" fill-opacity="0.501961" d="M 155.375 324.328125 L 167.5 324.328125 L 167.5 30.625 L 155.375 30.625 Z M 155.375 324.328125 "/>
<path fill-rule="nonzero" fill="rgb(56.078431%, 16.470588%, 26.27451%)" fill-opacity="0.501961" d="M 167.5 324.328125 L 179.625 324.328125 L 179.625 69.496094 L 167.5 69.496094 Z M 167.5 324.328125 "/>
<path fill-rule="nonzero" fill="rgb(56.078431%, 16.470588%, 26.27451%)" fill-opacity="0.501961" d="M 191.75 324.328125 L 203.875 324.328125 L 203.875 56.539062 L 191.75 56.539062 Z M 191.75 324.328125 "/>
<path fill-rule="nonzero" fill="rgb(56.078431%, 16.470588%, 26.27451%)" fill-opacity="0.501961" d="M 203.875 324.328125 L 216 324.328125 L 216 119.167969 L 203.875 119.167969 Z M 203.875 324.328125 "/>
<path fill-rule="nonzero" fill="rgb(56.078431%, 16.470588%, 26.27451%)" fill-opacity="0.501961" d="M 228.125 324.328125 L 240.25 324.328125 L 240.25 117.007812 L 228.125 117.007812 Z M 228.125 324.328125 "/>
<path fill-rule="nonzero" fill="rgb(56.078431%, 16.470588%, 26.27451%)" fill-opacity="0.501961" d="M 252.375 324.328125 L 264.5 324.328125 L 264.5 147.242188 L 252.375 147.242188 Z M 252.375 324.328125 "/>
<path fill-rule="nonzero" fill="rgb(56.078431%, 16.470588%, 26.27451%)" fill-opacity="0.501961" d="M 264.5 324.328125 L 276.625 324.328125 L 276.625 194.753906 L 264.5 194.753906 Z M 264.5 324.328125 "/>
<path fill-rule="nonzero" fill="rgb(56.078431%, 16.470588%, 26.27451%)" fill-opacity="0.501961" d="M 288.75 324.328125 L 300.875 324.328125 L 300.875 237.945312 L 288.75 237.945312 Z M 288.75 324.328125 "/>
<path fill-rule="nonzero" fill="rgb(56.078431%, 16.470588%, 26.27451%)" fill-opacity="0.501961" d="M 313 324.328125 L 325.125 324.328125 L 325.125 270.339844 L 313 270.339844 Z M 313 324.328125 "/>
<path fill-rule="nonzero" fill="rgb(56.078431%, 16.470588%, 26.27451%)" fill-opacity="0.501961" d="M 325.125 324.328125 L 337.25 324.328125 L 337.25 300.574219 L 325.125 300.574219 Z M 325.125 324.328125 "/>
<path fill-rule="nonzero" fill="rgb(56.078431%, 16.470588%, 26.27451%)" fill-opacity="0.501961" d="M 349.375 324.328125 L 361.5 324.328125 L 361.5 300.574219 L 349.375 300.574219 Z M 349.375 324.328125 "/>
<path fill-rule="nonzero" fill="rgb(56.078431%, 16.470588%, 26.27451%)" fill-opacity="0.501961" d="M 361.496094 324.328125 L 373.621094 324.328125 L 373.621094 320.007812 L 361.496094 320.007812 Z M 361.496094 324.328125 "/>
<path fill-rule="nonzero" fill="rgb(56.078431%, 16.470588%, 26.27451%)" fill-opacity="0.501961" d="M 385.746094 324.328125 L 397.871094 324.328125 L 397.871094 320.007812 L 385.746094 320.007812 Z M 385.746094 324.328125 "/>
<g clip-path="url(#clip-1)">
<path fill="none" stroke-width="1.920561" stroke-linecap="butt" stroke-linejoin="round" stroke="rgb(56.078431%, 16.470588%, 26.27451%)" stroke-opacity="1" stroke-dasharray="7.682244 7.682244" stroke-miterlimit="10" d="M 196.464844 339.011719 L 196.464844 15.941406 "/>
</g>
<path fill-rule="nonzero" fill="rgb(10.196078%, 10.196078%, 10.196078%)" fill-opacity="1" d="M 113.585938 353.960938 L 113.585938 373.910156 L 111.847656 373.910156 L 111.847656 355.878906 L 106.925781 358.941406 L 106.117188 357.648438 L 112.085938 353.960938 Z M 113.585938 353.960938 "/>
<path fill-rule="nonzero" fill="rgb(10.196078%, 10.196078%, 10.196078%)" fill-opacity="1" d="M 129.367188 355.398438 L 121.269531 355.398438 L 121.269531 362.210938 L 121.597656 362.03125 L 121.933594 361.875 L 122.269531 361.734375 L 122.605469 361.613281 L 122.949219 361.511719 L 123.289062 361.429688 L 123.636719 361.363281 L 123.984375 361.316406 L 124.335938 361.289062 L 124.6875 361.28125 L 125.191406 361.296875 L 125.675781 361.347656 L 126.136719 361.429688 L 126.578125 361.546875 L 126.996094 361.699219 L 127.394531 361.882812 L 127.769531 362.101562 L 128.125 362.355469 L 128.457031 362.640625 L 128.769531 362.960938 L 129.058594 363.300781 L 129.320312 363.667969 L 129.546875 364.058594 L 129.746094 364.476562 L 129.914062 364.917969 L 130.054688 365.382812 L 130.160156 365.871094 L 130.238281 366.386719 L 130.28125 366.925781 L 130.296875 367.488281 L 130.289062 367.875 L 130.265625 368.253906 L 130.226562 368.625 L 130.167969 368.988281 L 130.09375 369.34375 L 130.007812 369.6875 L 129.902344 370.027344 L 129.78125 370.359375 L 129.640625 370.683594 L 129.488281 371 L 129.324219 371.300781 L 129.148438 371.585938 L 128.957031 371.859375 L 128.753906 372.117188 L 128.535156 372.363281 L 128.304688 372.597656 L 128.058594 372.820312 L 127.796875 373.023438 L 127.523438 373.21875 L 127.238281 373.398438 L 126.945312 373.558594 L 126.640625 373.703125 L 126.332031 373.828125 L 126.007812 373.9375 L 125.675781 374.03125 L 125.335938 374.105469 L 124.988281 374.164062 L 124.625 374.207031 L 124.257812 374.230469 L 123.878906 374.238281 L 123.222656 374.214844 L 122.585938 374.144531 L 121.972656 374.023438 L 121.375 373.855469 L 120.800781 373.640625 L 120.25 373.375 L 119.714844 373.0625 L 119.203125 372.703125 L 118.710938 372.296875 L 118.238281 371.839844 L 119.316406 370.789062 L 119.511719 370.988281 L 119.707031 371.175781 L 119.90625 371.351562 L 120.105469 371.519531 L 120.308594 371.675781 L 120.511719 371.820312 L 120.71875 371.953125 L 120.929688 372.078125 L 121.144531 372.1875 L 121.359375 372.289062 L 121.578125 372.382812 L 121.804688 372.460938 L 122.039062 372.535156 L 122.28125 372.597656 L 122.527344 372.648438 L 122.785156 372.691406 L 123.046875 372.726562 L 123.316406 372.75 L 123.59375 372.765625 L 123.878906 372.769531 L 124.292969 372.753906 L 124.695312 372.714844 L 125.074219 372.644531 L 125.4375 372.542969 L 125.78125 372.417969 L 126.109375 372.261719 L 126.417969 372.078125 L 126.710938 371.867188 L 126.984375 371.628906 L 127.238281 371.359375 L 127.472656 371.0625 L 127.679688 370.742188 L 127.863281 370.402344 L 128.023438 370.042969 L 128.160156 369.664062 L 128.269531 369.265625 L 128.355469 368.84375 L 128.417969 368.402344 L 128.457031 367.941406 L 128.46875 367.460938 L 128.457031 366.992188 L 128.421875 366.550781 L 128.363281 366.128906 L 128.285156 365.738281 L 128.183594 365.367188 L 128.058594 365.023438 L 127.910156 364.703125 L 127.738281 364.40625 L 127.542969 364.136719 L 127.328125 363.890625 L 127.097656 363.660156 L 126.851562 363.457031 L 126.589844 363.277344 L 126.308594 363.121094 L 126.015625 362.988281 L 125.703125 362.882812 L 125.375 362.796875 L 125.035156 362.738281 L 124.671875 362.703125 L 124.296875 362.691406 L 124.109375 362.691406 L 123.921875 362.699219 L 123.742188 362.710938 L 123.5625 362.726562 L 123.390625 362.75 L 123.222656 362.777344 L 123.054688 362.808594 L 122.894531 362.84375 L 122.738281 362.882812 L 122.585938 362.929688 L 122.441406 362.976562 L 122.292969 363.027344 L 122.140625 363.082031 L 121.984375 363.144531 L 121.824219 363.214844 L 121.660156 363.289062 L 121.492188 363.371094 L 121.320312 363.457031 L 121.144531 363.550781 L 120.96875 363.648438 L 119.585938 363.648438 L 119.585938 353.960938 L 129.636719 353.960938 Z M 129.367188 355.398438 "/>
<path fill-rule="nonzero" fill="rgb(10.196078%, 10.196078%, 10.196078%)" fill-opacity="1" d="M 246.382812 353.628906 L 246.878906 353.644531 L 247.351562 353.6875 L 247.800781 353.761719 L 248.230469 353.863281 L 248.640625 353.996094 L 249.03125 354.160156 L 249.398438 354.351562 L 249.742188 354.570312 L 250.070312 354.820312 L 250.375 355.101562 L 250.660156 355.402344 L 250.914062 355.722656 L 251.140625 356.058594 L 251.332031 356.410156 L 251.5 356.78125 L 251.632812 357.167969 L 251.738281 357.570312 L 251.8125 357.988281 L 251.859375 358.425781 L 251.875 358.878906 L 251.867188 359.265625 L 251.839844 359.648438 L 251.800781 360.027344 L 251.746094 360.402344 L 251.671875 360.769531 L 251.582031 361.132812 L 251.476562 361.492188 L 251.355469 361.847656 L 251.21875 362.195312 L 251.0625 362.539062 L 250.894531 362.886719 L 250.703125 363.238281 L 250.496094 363.59375 L 250.265625 363.960938 L 250.019531 364.332031 L 249.757812 364.710938 L 249.472656 365.09375 L 249.171875 365.488281 L 248.851562 365.886719 L 248.515625 366.289062 L 248.152344 366.71875 L 247.746094 367.1875 L 247.296875 367.695312 L 246.804688 368.242188 L 246.269531 368.832031 L 245.695312 369.460938 L 245.078125 370.128906 L 244.414062 370.839844 L 243.710938 371.589844 L 242.964844 372.378906 L 252.414062 372.378906 L 252.175781 373.910156 L 240.925781 373.910156 L 240.925781 372.441406 L 241.722656 371.585938 L 242.472656 370.777344 L 243.179688 370.015625 L 243.835938 369.300781 L 244.449219 368.628906 L 245.011719 368.003906 L 245.53125 367.425781 L 246.003906 366.890625 L 246.425781 366.402344 L 246.804688 365.960938 L 247.152344 365.539062 L 247.480469 365.132812 L 247.785156 364.734375 L 248.070312 364.351562 L 248.332031 363.980469 L 248.574219 363.621094 L 248.792969 363.273438 L 248.992188 362.9375 L 249.167969 362.613281 L 249.324219 362.300781 L 249.464844 361.984375 L 249.59375 361.667969 L 249.707031 361.34375 L 249.804688 361.019531 L 249.886719 360.6875 L 249.953125 360.351562 L 250.007812 360.011719 L 250.042969 359.667969 L 250.066406 359.320312 L 250.074219 358.96875 L 250.0625 358.621094 L 250.03125 358.289062 L 249.980469 357.972656 L 249.90625 357.667969 L 249.8125 357.378906 L 249.695312 357.105469 L 249.558594 356.84375 L 249.402344 356.597656 L 249.222656 356.367188 L 249.023438 356.148438 L 248.8125 355.949219 L 248.589844 355.773438 L 248.351562 355.613281 L 248.097656 355.476562 L 247.832031 355.363281 L 247.550781 355.269531 L 247.257812 355.195312 L 246.949219 355.140625 L 246.628906 355.109375 L 246.292969 355.101562 L 246.019531 355.105469 L 245.753906 355.121094 L 245.492188 355.152344 L 245.238281 355.191406 L 244.988281 355.242188 L 244.746094 355.304688 L 244.507812 355.378906 L 244.277344 355.464844 L 244.054688 355.5625 L 243.832031 355.667969 L 243.625 355.789062 L 243.417969 355.921875 L 243.210938 356.0625 L 243.007812 356.21875 L 242.804688 356.382812 L 242.605469 356.558594 L 242.40625 356.746094 L 242.210938 356.945312 L 242.015625 357.15625 L 241.824219 357.378906 L 240.625 356.480469 L 240.867188 356.195312 L 241.109375 355.921875 L 241.359375 355.667969 L 241.613281 355.429688 L 241.867188 355.203125 L 242.128906 354.996094 L 242.390625 354.804688 L 242.660156 354.628906 L 242.929688 354.464844 L 243.203125 354.320312 L 243.488281 354.1875 L 243.78125 354.070312 L 244.082031 353.96875 L 244.390625 353.878906 L 244.703125 353.800781 L 245.027344 353.738281 L 245.355469 353.691406 L 245.691406 353.65625 L 246.035156 353.636719 Z M 246.382812 353.628906 "/>
<path fill-rule="nonzero" fill="rgb(10.196078%, 10.196078%, 10.196078%)" fill-opacity="1" d="M 262.253906 353.628906 L 262.855469 353.65625 L 263.429688 353.734375 L 263.972656 353.867188 L 264.484375 354.050781 L 264.96875 354.289062 L 265.421875 354.582031 L 265.84375 354.921875 L 266.238281 355.320312 L 266.601562 355.769531 L 266.933594 356.269531 L 267.234375 356.816406 L 267.507812 357.414062 L 267.746094 358.058594 L 267.953125 358.75 L 268.125 359.496094 L 268.269531 360.289062 L 268.378906 361.128906 L 268.460938 362.019531 L 268.507812 362.960938 L 268.523438 363.949219 L 268.507812 364.933594 L 268.460938 365.871094 L 268.378906 366.757812 L 268.265625 367.597656 L 268.117188 368.390625 L 267.941406 369.132812 L 267.730469 369.828125 L 267.488281 370.476562 L 267.210938 371.078125 L 266.902344 371.628906 L 266.570312 372.125 L 266.210938 372.570312 L 265.816406 372.960938 L 265.398438 373.300781 L 264.945312 373.585938 L 264.464844 373.820312 L 263.957031 374.003906 L 263.417969 374.136719 L 262.851562 374.214844 L 262.253906 374.238281 L 261.652344 374.214844 L 261.078125 374.136719 L 260.535156 374.003906 L 260.023438 373.820312 L 259.539062 373.585938 L 259.085938 373.300781 L 258.664062 372.960938 L 258.269531 372.570312 L 257.90625 372.125 L 257.574219 371.628906 L 257.273438 371.078125 L 257 370.476562 L 256.761719 369.828125 L 256.554688 369.128906 L 256.382812 368.382812 L 256.238281 367.585938 L 256.128906 366.742188 L 256.046875 365.851562 L 256 364.910156 L 255.984375 363.917969 L 256 362.929688 L 256.046875 361.988281 L 256.128906 361.097656 L 256.238281 360.257812 L 256.382812 359.464844 L 256.554688 358.722656 L 256.761719 358.027344 L 257 357.382812 L 257.273438 356.785156 L 257.574219 356.238281 L 257.90625 355.742188 L 258.269531 355.300781 L 258.664062 354.910156 L 259.085938 354.570312 L 259.539062 354.28125 L 260.023438 354.046875 L 260.535156 353.863281 L 261.078125 353.734375 L 261.652344 353.65625 Z M 262.253906 355.070312 L 261.40625 355.160156 L 260.644531 355.421875 L 259.972656 355.867188 L 259.394531 356.484375 L 258.902344 357.28125 L 258.5 358.253906 L 258.1875 359.40625 L 257.960938 360.734375 L 257.828125 362.238281 L 257.785156 363.917969 L 257.828125 365.605469 L 257.960938 367.117188 L 258.1875 368.449219 L 258.5 369.601562 L 258.902344 370.578125 L 259.394531 371.378906 L 259.972656 372 L 260.644531 372.445312 L 261.40625 372.710938 L 262.253906 372.800781 L 262.679688 372.777344 L 263.085938 372.714844 L 263.472656 372.605469 L 263.832031 372.453125 L 264.175781 372.261719 L 264.492188 372.023438 L 264.789062 371.742188 L 265.066406 371.417969 L 265.320312 371.050781 L 265.554688 370.640625 L 265.769531 370.183594 L 265.964844 369.679688 L 266.136719 369.128906 L 266.285156 368.53125 L 266.410156 367.886719 L 266.511719 367.195312 L 266.589844 366.453125 L 266.648438 365.667969 L 266.683594 364.832031 L 266.695312 363.949219 L 266.683594 363.066406 L 266.648438 362.234375 L 266.589844 361.445312 L 266.511719 360.703125 L 266.410156 360.011719 L 266.285156 359.367188 L 266.136719 358.769531 L 265.964844 358.21875 L 265.769531 357.714844 L 265.554688 357.261719 L 265.320312 356.84375 L 265.066406 356.472656 L 264.789062 356.144531 L 264.492188 355.859375 L 264.175781 355.617188 L 263.832031 355.421875 L 263.472656 355.265625 L 263.085938 355.15625 L 262.679688 355.089844 Z M 262.253906 355.070312 "/>
<path fill-rule="nonzero" fill="rgb(10.196078%, 10.196078%, 10.196078%)" fill-opacity="1" d="M 384.070312 353.628906 L 384.5625 353.644531 L 385.035156 353.6875 L 385.488281 353.761719 L 385.917969 353.863281 L 386.328125 353.996094 L 386.714844 354.160156 L 387.082031 354.351562 L 387.429688 354.570312 L 387.753906 354.820312 L 388.058594 355.101562 L 388.34375 355.402344 L 388.601562 355.722656 L 388.824219 356.058594 L 389.019531 356.410156 L 389.183594 356.78125 L 389.320312 357.167969 L 389.425781 357.570312 L 389.5 357.988281 L 389.546875 358.425781 L 389.558594 358.878906 L 389.550781 359.265625 L 389.527344 359.648438 L 389.488281 360.027344 L 389.429688 360.402344 L 389.359375 360.769531 L 389.269531 361.132812 L 389.164062 361.492188 L 389.042969 361.847656 L 388.902344 362.195312 L 388.75 362.539062 L 388.578125 362.886719 L 388.390625 363.238281 L 388.179688 363.59375 L 387.953125 363.960938 L 387.707031 364.332031 L 387.441406 364.710938 L 387.160156 365.09375 L 386.859375 365.488281 L 386.539062 365.886719 L 386.199219 366.289062 L 385.835938 366.71875 L 385.429688 367.1875 L 384.980469 367.695312 L 384.492188 368.242188 L 383.957031 368.832031 L 383.382812 369.460938 L 382.761719 370.128906 L 382.101562 370.839844 L 381.398438 371.589844 L 380.648438 372.378906 L 390.101562 372.378906 L 389.859375 373.910156 L 378.609375 373.910156 L 378.609375 372.441406 L 379.410156 371.585938 L 380.160156 370.777344 L 380.867188 370.015625 L 381.523438 369.300781 L 382.136719 368.628906 L 382.699219 368.003906 L 383.21875 367.425781 L 383.6875 366.890625 L 384.113281 366.402344 L 384.488281 365.960938 L 384.839844 365.539062 L 385.167969 365.132812 L 385.472656 364.734375 L 385.757812 364.351562 L 386.019531 363.980469 L 386.261719 363.621094 L 386.480469 363.273438 L 386.679688 362.9375 L 386.855469 362.613281 L 387.011719 362.300781 L 387.152344 361.984375 L 387.28125 361.667969 L 387.394531 361.34375 L 387.488281 361.019531 L 387.574219 360.6875 L 387.640625 360.351562 L 387.691406 360.011719 L 387.730469 359.667969 L 387.753906 359.320312 L 387.761719 358.96875 L 387.75 358.621094 L 387.71875 358.289062 L 387.664062 357.972656 L 387.59375 357.667969 L 387.496094 357.378906 L 387.382812 357.105469 L 387.246094 356.84375 L 387.089844 356.597656 L 386.910156 356.367188 L 386.710938 356.148438 L 386.5 355.949219 L 386.273438 355.773438 L 386.035156 355.613281 L 385.785156 355.476562 L 385.519531 355.363281 L 385.238281 355.269531 L 384.945312 355.195312 L 384.636719 355.140625 L 384.316406 355.109375 L 383.980469 355.101562 L 383.707031 355.105469 L 383.441406 355.121094 L 383.179688 355.152344 L 382.925781 355.191406 L 382.675781 355.242188 L 382.433594 355.304688 L 382.195312 355.378906 L 381.964844 355.464844 L 381.738281 355.5625 L 381.519531 355.667969 L 381.3125 355.789062 L 381.105469 355.921875 L 380.898438 356.0625 L 380.695312 356.21875 L 380.492188 356.382812 L 380.292969 356.558594 L 380.09375 356.746094 L 379.898438 356.945312 L 379.703125 357.15625 L 379.511719 357.378906 L 378.308594 356.480469 L 378.550781 356.195312 L 378.796875 355.921875 L 379.046875 355.667969 L 379.300781 355.429688 L 379.554688 355.203125 L 379.816406 354.996094 L 380.078125 354.804688 L 380.34375 354.628906 L 380.617188 354.464844 L 380.890625 354.320312 L 381.175781 354.1875 L 381.46875 354.070312 L 381.769531 353.96875 L 382.074219 353.878906 L 382.390625 353.800781 L 382.710938 353.738281 L 383.039062 353.691406 L 383.375 353.65625 L 383.71875 353.636719 Z M 384.070312 353.628906 "/>
<path fill-rule="nonzero" fill="rgb(10.196078%, 10.196078%, 10.196078%)" fill-opacity="1" d="M 403.839844 355.398438 L 395.738281 355.398438 L 395.738281 362.210938 L 396.070312 362.03125 L 396.40625 361.875 L 396.742188 361.734375 L 397.078125 361.613281 L 397.421875 361.511719 L 397.761719 361.429688 L 398.109375 361.363281 L 398.457031 361.316406 L 398.808594 361.289062 L 399.160156 361.28125 L 399.664062 361.296875 L 400.148438 361.347656 L 400.609375 361.429688 L 401.050781 361.546875 L 401.46875 361.699219 L 401.867188 361.882812 L 402.242188 362.101562 L 402.597656 362.355469 L 402.929688 362.640625 L 403.238281 362.960938 L 403.53125 363.300781 L 403.789062 363.667969 L 404.019531 364.058594 L 404.21875 364.476562 L 404.386719 364.917969 L 404.523438 365.382812 L 404.632812 365.871094 L 404.707031 366.386719 L 404.753906 366.925781 L 404.769531 367.488281 L 404.761719 367.875 L 404.738281 368.253906 L 404.695312 368.625 L 404.640625 368.988281 L 404.566406 369.34375 L 404.476562 369.6875 L 404.375 370.027344 L 404.25 370.359375 L 404.113281 370.683594 L 403.960938 371 L 403.796875 371.300781 L 403.621094 371.585938 L 403.429688 371.859375 L 403.226562 372.117188 L 403.007812 372.363281 L 402.777344 372.597656 L 402.53125 372.820312 L 402.269531 373.023438 L 401.996094 373.21875 L 401.710938 373.398438 L 401.417969 373.558594 L 401.113281 373.703125 L 400.804688 373.828125 L 400.480469 373.9375 L 400.148438 374.03125 L 399.808594 374.105469 L 399.457031 374.164062 L 399.097656 374.207031 L 398.730469 374.230469 L 398.351562 374.238281 L 397.695312 374.214844 L 397.058594 374.144531 L 396.445312 374.023438 L 395.847656 373.855469 L 395.273438 373.640625 L 394.722656 373.375 L 394.1875 373.0625 L 393.675781 372.703125 L 393.183594 372.296875 L 392.710938 371.839844 L 393.789062 370.789062 L 393.984375 370.988281 L 394.179688 371.175781 L 394.375 371.351562 L 394.578125 371.519531 L 394.78125 371.675781 L 394.984375 371.820312 L 395.191406 371.953125 L 395.402344 372.078125 L 395.617188 372.1875 L 395.832031 372.289062 L 396.050781 372.382812 L 396.277344 372.460938 L 396.511719 372.535156 L 396.75 372.597656 L 397 372.648438 L 397.253906 372.691406 L 397.519531 372.726562 L 397.789062 372.75 L 398.066406 372.765625 L 398.351562 372.769531 L 398.765625 372.753906 L 399.167969 372.714844 L 399.546875 372.644531 L 399.910156 372.542969 L 400.253906 372.417969 L 400.582031 372.261719 L 400.890625 372.078125 L 401.183594 371.867188 L 401.457031 371.628906 L 401.710938 371.359375 L 401.945312 371.0625 L 402.152344 370.742188 L 402.335938 370.402344 L 402.496094 370.042969 L 402.632812 369.664062 L 402.742188 369.265625 L 402.828125 368.84375 L 402.890625 368.402344 L 402.929688 367.941406 L 402.941406 367.460938 L 402.929688 366.992188 L 402.894531 366.550781 L 402.835938 366.128906 L 402.757812 365.738281 L 402.65625 365.367188 L 402.53125 365.023438 L 402.382812 364.703125 L 402.210938 364.40625 L 402.015625 364.136719 L 401.800781 363.890625 L 401.570312 363.660156 L 401.324219 363.457031 L 401.0625 363.277344 L 400.78125 363.121094 L 400.488281 362.988281 L 400.175781 362.882812 L 399.847656 362.796875 L 399.503906 362.738281 L 399.144531 362.703125 L 398.769531 362.691406 L 398.582031 362.691406 L 398.394531 362.699219 L 398.214844 362.710938 L 398.035156 362.726562 L 397.863281 362.75 L 397.695312 362.777344 L 397.527344 362.808594 L 397.367188 362.84375 L 397.210938 362.882812 L 397.058594 362.929688 L 396.914062 362.976562 L 396.765625 363.027344 L 396.613281 363.082031 L 396.457031 363.144531 L 396.296875 363.214844 L 396.132812 363.289062 L 395.964844 363.371094 L 395.792969 363.457031 L 395.617188 363.550781 L 395.441406 363.648438 L 394.058594 363.648438 L 394.058594 353.960938 L 404.109375 353.960938 Z M 403.839844 355.398438 "/>
</svg>
