<?xml version="1.0" standalone="no"?>
<!DOCTYPE svg PUBLIC "-//W3C//DTD SVG 20010904//EN"
 "http://www.w3.org/TR/2001/REC-SVG-20010904/DTD/svg10.dtd">
<svg version="1.0" xmlns="http://www.w3.org/2000/svg"
 width="340.000000pt" height="443.000000pt" viewBox="0 0 340.000000 443.000000"
 preserveAspectRatio="xMidYMid meet">

<g transform="translate(0.000000,443.000000) scale(0.100000,-0.100000)"
fill="#264653" stroke="none">
<path d="M2025 4050 c-23 -45 -29 -50 -59 -50 -47 0 -83 -31 -91 -81 -7 -40
-60 -109 -95 -122 -13 -5 -12 -8 4 -21 29 -23 80 -20 113 8 15 13 39 27 53 31
14 4 33 15 43 23 26 23 38 0 25 -46 -5 -19 -7 -55 -3 -79 6 -42 7 -43 44 -43
35 0 39 3 45 30 3 17 3 57 -1 90 -3 33 -4 60 -1 60 18 0 108 -48 136 -71 37
-32 67 -36 100 -13 24 17 29 34 9 34 -25 0 -67 55 -87 115 -11 33 -25 64 -30
69 -6 6 -31 13 -57 16 -41 4 -50 9 -62 35 -16 35 -40 65 -52 65 -5 0 -20 -22
-34 -50z"/>
<path d="M1640 3468 l0 -193 -90 -1 c-50 -1 -90 1 -90 4 0 23 38 102 62 127
32 35 37 78 12 114 l-16 23 -16 -32 c-18 -38 -60 -66 -119 -81 -54 -14 -73
-36 -81 -95 -6 -38 -12 -50 -27 -53 -11 -2 -33 -12 -48 -23 -27 -19 -27 -21
-11 -39 9 -10 31 -23 49 -29 28 -9 33 -16 38 -51 6 -43 40 -89 66 -89 37 -1
102 -40 122 -75 24 -41 43 -35 54 17 6 24 1 39 -24 75 -17 24 -31 48 -31 54 0
5 -7 21 -16 35 -23 34 -8 47 36 34 19 -6 56 -8 83 -4 l47 6 0 -186 0 -186 188
0 c103 0 193 -4 201 -9 12 -8 13 -14 3 -35 -9 -20 -9 -38 0 -76 15 -66 4 -80
-45 -56 -19 9 -39 16 -44 16 -5 0 -22 14 -38 30 -35 36 -91 42 -119 11 -17
-18 -16 -19 3 -26 31 -10 69 -61 86 -117 20 -68 28 -76 89 -83 48 -6 54 -10
64 -40 7 -17 21 -40 31 -49 21 -19 19 -21 61 59 10 19 24 31 40 33 72 8 68 4
115 118 10 26 31 50 56 66 32 21 37 27 25 37 -8 7 -29 14 -48 17 -27 5 -40 0
-72 -25 -21 -17 -47 -31 -56 -31 -10 0 -23 -7 -30 -15 -17 -20 -40 -19 -40 3
0 9 5 34 9 56 6 26 6 47 -2 63 -21 46 5 53 200 53 l173 0 0 193 0 192 93 0
c55 0 92 -4 91 -10 -1 -23 -38 -92 -65 -123 -34 -38 -38 -79 -11 -112 l18 -23
22 37 c22 36 86 75 125 76 33 0 67 45 67 90 0 37 3 43 33 55 17 8 41 21 51 30
24 18 12 35 -44 60 -35 16 -40 22 -40 50 0 46 -33 83 -87 96 -43 11 -103 58
-116 89 -5 13 -8 12 -21 -4 -22 -27 -20 -72 5 -108 12 -16 32 -49 45 -74 28
-53 21 -60 -50 -44 -33 7 -53 7 -67 -1 -46 -24 -49 -12 -49 186 l0 185 -425 0
-425 0 0 -192z m398 53 c2 -13 -4 -41 -14 -63 -15 -33 -15 -42 -3 -66 7 -15
15 -30 17 -34 2 -5 -17 -8 -42 -8 l-46 0 0 -47 c0 -44 -1 -45 -18 -30 -20 19
-77 23 -87 7 -3 -5 -24 -10 -46 -10 l-39 0 0 133 c0 74 3 137 7 141 4 3 66 5
137 4 130 -3 131 -3 134 -27z m332 -112 l0 -141 -37 5 c-21 3 -53 9 -71 13
-22 4 -40 1 -57 -10 l-25 -16 0 45 0 45 -45 0 -45 0 16 25 c11 17 14 35 9 57
-3 18 -9 52 -12 76 l-5 42 136 0 136 0 0 -141z m-135 -223 c11 -3 33 1 49 9
15 8 41 15 57 15 l29 0 0 -140 0 -140 -136 0 -136 0 5 43 c3 23 9 57 13 75 5
24 2 38 -11 52 -18 20 -17 20 28 20 l47 0 0 52 c0 48 1 50 18 36 9 -9 26 -18
37 -22z m-384 10 c29 -12 39 -12 66 -1 l33 14 0 -45 0 -44 46 0 c45 0 45 0 30
-22 -20 -28 -20 -42 0 -83 8 -19 14 -44 12 -57 -3 -23 -5 -23 -140 -26 l-138
-3 0 141 0 140 29 0 c16 0 44 -6 62 -14z"/>
<path fill="#2a9d8f" d="M1115 3020 c-23 -45 -29 -50 -59 -50 -47 0 -83 -31 -91 -81 -7 -40
-60 -109 -95 -122 -13 -5 -12 -8 4 -21 29 -23 80 -20 113 8 15 13 39 27 53 31
14 4 33 15 43 23 26 23 38 0 25 -46 -5 -19 -7 -55 -3 -79 6 -42 7 -43 44 -43
35 0 39 3 45 30 3 17 3 57 -1 90 -3 33 -4 60 -1 60 18 0 108 -48 136 -71 37
-32 67 -36 100 -13 24 17 29 34 9 34 -25 0 -67 55 -87 115 -11 33 -25 64 -30
69 -6 6 -31 13 -57 16 -41 4 -50 9 -62 35 -16 35 -40 65 -52 65 -5 0 -20 -22
-34 -50z"/>
<path fill="#2a9d8f" d="M730 2438 l0 -193 -90 -1 c-50 -1 -90 1 -90 5 0 24 40 104 63 125 32
29 36 78 11 115 l-16 23 -16 -32 c-18 -38 -60 -66 -119 -81 -54 -14 -73 -36
-81 -95 -6 -38 -12 -50 -27 -53 -11 -2 -33 -12 -48 -23 -27 -19 -27 -21 -11
-39 9 -10 31 -23 49 -29 28 -9 33 -16 38 -51 6 -49 38 -85 81 -95 52 -11 86
-33 108 -70 23 -40 42 -33 53 18 6 24 1 39 -24 75 -17 24 -31 48 -31 54 0 5
-7 21 -16 35 -23 34 -8 47 36 34 19 -6 56 -8 83 -4 l47 6 0 -186 0 -186 188 0
c103 0 193 -4 201 -9 12 -8 13 -14 3 -35 -9 -20 -9 -38 0 -76 15 -66 4 -80
-45 -56 -19 9 -39 16 -44 16 -5 0 -22 14 -38 30 -35 36 -91 42 -119 11 -17
-18 -16 -19 3 -26 31 -10 69 -61 86 -117 20 -68 28 -76 89 -83 48 -6 54 -10
64 -40 7 -17 21 -40 31 -49 21 -19 19 -21 61 59 10 19 24 31 40 33 72 8 68 4
115 118 10 26 31 50 56 66 32 21 37 27 25 37 -8 7 -29 14 -48 17 -27 5 -40 0
-72 -25 -21 -17 -47 -31 -56 -31 -10 0 -23 -7 -30 -15 -17 -20 -40 -19 -40 3
0 9 5 34 9 56 6 26 6 47 -2 63 -21 46 5 53 200 53 l173 0 0 193 0 192 93 0
c55 0 92 -4 91 -10 -1 -23 -38 -92 -65 -123 -34 -38 -38 -79 -11 -112 l18 -23
22 37 c22 36 86 75 125 76 33 0 67 45 67 90 0 37 3 43 33 55 17 8 41 21 51 30
24 18 12 35 -44 60 -35 16 -40 22 -40 50 0 46 -33 83 -87 96 -43 11 -103 58
-116 89 -5 13 -8 12 -21 -4 -22 -27 -20 -72 5 -108 12 -16 32 -49 45 -74 28
-53 21 -60 -50 -44 -33 7 -53 7 -67 -1 -46 -24 -49 -12 -49 186 l0 185 -425 0
-425 0 0 -192z m398 53 c2 -13 -4 -41 -14 -63 -15 -33 -15 -42 -3 -66 7 -15
15 -30 17 -34 2 -5 -17 -8 -42 -8 l-46 0 0 -47 c0 -44 -1 -45 -18 -30 -20 19
-77 23 -87 7 -3 -5 -24 -10 -46 -10 l-39 0 0 133 c0 74 3 137 7 141 4 3 66 5
137 4 130 -3 131 -3 134 -27z m332 -112 l0 -141 -37 5 c-21 3 -53 9 -71 13
-22 4 -40 1 -57 -10 l-25 -16 0 45 0 45 -45 0 -45 0 16 25 c11 17 14 35 9 57
-3 18 -9 52 -12 76 l-5 42 136 0 136 0 0 -141z m-135 -223 c11 -3 33 1 49 9
15 8 41 15 57 15 l29 0 0 -140 0 -140 -136 0 -136 0 5 43 c3 23 9 57 13 75 5
24 2 38 -11 52 -18 20 -17 20 28 20 l47 0 0 52 c0 48 1 50 18 36 9 -9 26 -18
37 -22z m-384 10 c29 -12 39 -12 66 -1 l33 14 0 -45 0 -44 46 0 c45 0 45 0 30
-22 -20 -28 -20 -42 0 -83 8 -19 14 -44 12 -57 -3 -23 -5 -23 -140 -26 l-138
-3 0 141 0 140 29 0 c16 0 44 -6 62 -14z"/>
<path d="M2035 2000 c-23 -45 -29 -50 -59 -50 -47 0 -83 -31 -91 -81 -7 -40
-60 -109 -95 -122 -13 -5 -12 -8 4 -21 29 -23 80 -20 113 8 15 13 39 27 53 31
14 4 33 15 43 23 26 23 38 0 25 -46 -5 -19 -7 -55 -3 -79 6 -42 7 -43 44 -43
35 0 39 3 45 30 3 17 3 57 -1 90 -3 33 -4 60 -1 60 18 0 108 -48 136 -71 37
-32 67 -36 100 -13 24 17 29 34 9 34 -25 0 -67 55 -87 115 -11 33 -25 64 -30
69 -6 6 -31 13 -57 16 -41 4 -50 9 -62 35 -16 35 -40 65 -52 65 -5 0 -20 -22
-34 -50z"/>
<path d="M1650 1418 l0 -193 -90 -1 c-50 -1 -90 1 -90 4 0 23 38 102 62 127
32 35 37 78 12 114 l-16 23 -16 -32 c-18 -38 -60 -66 -119 -81 -54 -14 -73
-36 -81 -95 -6 -38 -12 -50 -27 -53 -11 -2 -33 -12 -48 -23 -27 -19 -27 -21
-11 -39 9 -10 31 -23 49 -29 28 -9 33 -16 38 -51 6 -43 40 -89 66 -89 37 -1
102 -40 122 -75 24 -41 43 -35 54 17 6 24 1 39 -24 75 -17 24 -31 48 -31 54 0
5 -7 21 -16 35 -23 34 -8 47 36 34 19 -6 56 -8 83 -4 l47 6 0 -186 0 -186 188
0 c103 0 193 -4 201 -9 12 -8 13 -14 3 -35 -9 -20 -9 -38 0 -76 7 -33 8 -54 2
-60 -14 -14 -92 17 -129 52 -37 34 -93 38 -119 9 -17 -18 -16 -19 3 -26 31
-10 69 -61 86 -117 20 -68 28 -76 89 -83 48 -6 54 -10 64 -40 7 -17 21 -40 31
-49 21 -19 19 -21 61 59 10 19 24 31 40 33 72 8 68 4 115 118 10 26 31 50 56
66 35 23 37 27 23 39 -28 23 -87 17 -123 -14 -18 -15 -41 -27 -51 -27 -9 0
-23 -7 -30 -15 -17 -20 -40 -19 -40 3 0 9 5 34 9 56 6 26 6 47 -2 63 -21 46 5
53 200 53 l173 0 0 193 0 192 93 0 c55 0 92 -4 91 -10 -1 -23 -38 -92 -65
-123 -34 -38 -38 -79 -11 -112 l18 -23 22 37 c22 36 86 75 125 76 33 0 67 45
67 90 0 37 3 43 33 55 17 8 41 21 51 30 24 18 12 35 -44 60 -35 16 -40 22 -40
50 0 46 -33 83 -87 96 -43 11 -103 58 -116 89 -5 13 -8 12 -21 -4 -22 -27 -20
-72 5 -108 12 -16 32 -49 45 -74 28 -53 21 -60 -50 -44 -33 7 -53 7 -67 -1
-46 -24 -49 -12 -49 186 l0 185 -425 0 -425 0 0 -192z m398 53 c2 -13 -4 -41
-14 -63 -15 -33 -15 -42 -3 -66 7 -15 15 -30 17 -34 2 -5 -17 -8 -42 -8 l-46
0 0 -47 c0 -44 -1 -45 -18 -30 -20 19 -77 23 -87 7 -3 -5 -24 -10 -46 -10
l-39 0 0 133 c0 74 3 137 7 141 4 3 66 5 137 4 130 -3 131 -3 134 -27z m332
-112 l0 -141 -37 5 c-21 3 -53 9 -71 13 -22 4 -40 1 -57 -10 l-25 -16 0 45 0
45 -45 0 -45 0 16 25 c11 17 14 35 9 57 -3 18 -9 52 -12 76 l-5 42 136 0 136
0 0 -141z m-135 -223 c11 -3 33 1 49 9 15 8 41 15 57 15 l29 0 0 -140 0 -140
-135 0 -135 0 0 39 c0 22 5 43 10 46 16 10 12 67 -7 87 -15 17 -14 18 30 18
l47 0 0 52 c0 48 1 50 18 36 9 -9 26 -18 37 -22z m-384 10 c29 -12 39 -12 66
-1 l33 14 0 -45 0 -44 46 0 c45 0 45 0 30 -22 -20 -28 -20 -42 0 -83 8 -19 14
-44 12 -57 -3 -23 -5 -23 -140 -26 l-138 -3 0 141 0 140 29 0 c16 0 44 -6 62
-14z"/>
</g>
</svg>
