<?xml version="1.0" encoding="UTF-8"?>
<svg xmlns="http://www.w3.org/2000/svg" xmlns:xlink="http://www.w3.org/1999/xlink" width="792pt" height="489pt" viewBox="0 0 792 489">
<defs>
<clipPath id="clip-0">
<path clip-rule="nonzero" d="M 39.304688 13.449219 L 778.550781 13.449219 L 778.550781 441.195312 L 39.304688 441.195312 Z M 39.304688 13.449219 "/>
</clipPath>
<clipPath id="clip-1">
<path clip-rule="nonzero" d="M 39.304688 420 L 778.550781 420 L 778.550781 424 L 39.304688 424 Z M 39.304688 420 "/>
</clipPath>
<clipPath id="clip-2">
<path clip-rule="nonzero" d="M 39.304688 342 L 778.550781 342 L 778.550781 346 L 39.304688 346 Z M 39.304688 342 "/>
</clipPath>
<clipPath id="clip-3">
<path clip-rule="nonzero" d="M 39.304688 264 L 778.550781 264 L 778.550781 268 L 39.304688 268 Z M 39.304688 264 "/>
</clipPath>
<clipPath id="clip-4">
<path clip-rule="nonzero" d="M 39.304688 187 L 778.550781 187 L 778.550781 190 L 39.304688 190 Z M 39.304688 187 "/>
</clipPath>
<clipPath id="clip-5">
<path clip-rule="nonzero" d="M 39.304688 109 L 778.550781 109 L 778.550781 112 L 39.304688 112 Z M 39.304688 109 "/>
</clipPath>
<clipPath id="clip-6">
<path clip-rule="nonzero" d="M 39.304688 31 L 778.550781 31 L 778.550781 35 L 39.304688 35 Z M 39.304688 31 "/>
</clipPath>
<clipPath id="clip-7">
<path clip-rule="nonzero" d="M 149 13.449219 L 152 13.449219 L 152 441.195312 L 149 441.195312 Z M 149 13.449219 "/>
</clipPath>
<clipPath id="clip-8">
<path clip-rule="nonzero" d="M 321 13.449219 L 325 13.449219 L 325 441.195312 L 321 441.195312 Z M 321 13.449219 "/>
</clipPath>
<clipPath id="clip-9">
<path clip-rule="nonzero" d="M 493 13.449219 L 497 13.449219 L 497 441.195312 L 493 441.195312 Z M 493 13.449219 "/>
</clipPath>
<clipPath id="clip-10">
<path clip-rule="nonzero" d="M 666 13.449219 L 669 13.449219 L 669 441.195312 L 666 441.195312 Z M 666 13.449219 "/>
</clipPath>
</defs>
<rect x="-79.2" y="-48.9" width="950.4" height="586.8" fill="rgb(100%, 100%, 100%)" fill-opacity="1"/>
<rect x="-79.2" y="-48.9" width="950.4" height="586.8" fill="rgb(95.294118%, 95.294118%, 95.294118%)" fill-opacity="1"/>
<path fill="none" stroke-width="2.618947" stroke-linecap="round" stroke-linejoin="round" stroke="rgb(95.294118%, 95.294118%, 95.294118%)" stroke-opacity="1" stroke-miterlimit="10" d="M 0 489 L 792 489 L 792 0 L 0 0 Z M 0 489 "/>
<g clip-path="url(#clip-0)">
<path fill-rule="nonzero" fill="rgb(95.294118%, 95.294118%, 95.294118%)" fill-opacity="1" stroke-width="2.618947" stroke-linecap="round" stroke-linejoin="round" stroke="rgb(95.294118%, 95.294118%, 95.294118%)" stroke-opacity="1" stroke-miterlimit="10" d="M 39.304688 441.195312 L 778.550781 441.195312 L 778.550781 13.449219 L 39.304688 13.449219 Z M 39.304688 441.195312 "/>
</g>
<g clip-path="url(#clip-1)">
<path fill="none" stroke-width="2.618947" stroke-linecap="butt" stroke-linejoin="round" stroke="rgb(92.156863%, 92.156863%, 92.156863%)" stroke-opacity="1" stroke-miterlimit="10" d="M 39.304688 421.753906 L 778.550781 421.753906 "/>
</g>
<g clip-path="url(#clip-2)">
<path fill="none" stroke-width="2.618947" stroke-linecap="butt" stroke-linejoin="round" stroke="rgb(92.156863%, 92.156863%, 92.156863%)" stroke-opacity="1" stroke-miterlimit="10" d="M 39.304688 343.980469 L 778.550781 343.980469 "/>
</g>
<g clip-path="url(#clip-3)">
<path fill="none" stroke-width="2.618947" stroke-linecap="butt" stroke-linejoin="round" stroke="rgb(92.156863%, 92.156863%, 92.156863%)" stroke-opacity="1" stroke-miterlimit="10" d="M 39.304688 266.207031 L 778.550781 266.207031 "/>
</g>
<g clip-path="url(#clip-4)">
<path fill="none" stroke-width="2.618947" stroke-linecap="butt" stroke-linejoin="round" stroke="rgb(92.156863%, 92.156863%, 92.156863%)" stroke-opacity="1" stroke-miterlimit="10" d="M 39.304688 188.4375 L 778.550781 188.4375 "/>
</g>
<g clip-path="url(#clip-5)">
<path fill="none" stroke-width="2.618947" stroke-linecap="butt" stroke-linejoin="round" stroke="rgb(92.156863%, 92.156863%, 92.156863%)" stroke-opacity="1" stroke-miterlimit="10" d="M 39.304688 110.664062 L 778.550781 110.664062 "/>
</g>
<g clip-path="url(#clip-6)">
<path fill="none" stroke-width="2.618947" stroke-linecap="butt" stroke-linejoin="round" stroke="rgb(92.156863%, 92.156863%, 92.156863%)" stroke-opacity="1" stroke-miterlimit="10" d="M 39.304688 32.890625 L 778.550781 32.890625 "/>
</g>
<g clip-path="url(#clip-7)">
<path fill="none" stroke-width="2.618947" stroke-linecap="butt" stroke-linejoin="round" stroke="rgb(92.156863%, 92.156863%, 92.156863%)" stroke-opacity="1" stroke-miterlimit="10" d="M 150.449219 441.195312 L 150.449219 13.449219 "/>
</g>
<g clip-path="url(#clip-8)">
<path fill="none" stroke-width="2.618947" stroke-linecap="butt" stroke-linejoin="round" stroke="rgb(92.156863%, 92.156863%, 92.156863%)" stroke-opacity="1" stroke-miterlimit="10" d="M 322.769531 441.195312 L 322.769531 13.449219 "/>
</g>
<g clip-path="url(#clip-9)">
<path fill="none" stroke-width="2.618947" stroke-linecap="butt" stroke-linejoin="round" stroke="rgb(92.156863%, 92.156863%, 92.156863%)" stroke-opacity="1" stroke-miterlimit="10" d="M 495.085938 441.195312 L 495.085938 13.449219 "/>
</g>
<g clip-path="url(#clip-10)">
<path fill="none" stroke-width="2.618947" stroke-linecap="butt" stroke-linejoin="round" stroke="rgb(92.156863%, 92.156863%, 92.156863%)" stroke-opacity="1" stroke-miterlimit="10" d="M 667.40625 441.195312 L 667.40625 13.449219 "/>
</g>
<path fill-rule="nonzero" fill="rgb(56.078431%, 16.470588%, 26.27451%)" fill-opacity="1" d="M 72.90625 421.753906 L 227.992188 421.753906 L 227.992188 188.4375 L 72.90625 188.4375 Z M 72.90625 421.753906 "/>
<path fill-rule="nonzero" fill="rgb(56.078431%, 16.470588%, 26.27451%)" fill-opacity="1" d="M 245.226562 421.753906 L 400.3125 421.753906 L 400.3125 343.980469 L 245.226562 343.980469 Z M 245.226562 421.753906 "/>
<path fill-rule="nonzero" fill="rgb(56.078431%, 16.470588%, 26.27451%)" fill-opacity="1" d="M 417.542969 421.753906 L 572.628906 421.753906 L 572.628906 32.894531 L 417.542969 32.894531 Z M 417.542969 421.753906 "/>
<path fill-rule="nonzero" fill="rgb(56.078431%, 16.470588%, 26.27451%)" fill-opacity="1" d="M 589.863281 421.753906 L 744.949219 421.753906 L 744.949219 32.894531 L 589.863281 32.894531 Z M 589.863281 421.753906 "/>
<path fill-rule="nonzero" fill="rgb(10.196078%, 10.196078%, 10.196078%)" fill-opacity="1" d="M 20.324219 413.414062 L 20.828125 413.4375 L 21.304688 413.503906 L 21.757812 413.613281 L 22.183594 413.765625 L 22.585938 413.964844 L 22.964844 414.207031 L 23.316406 414.492188 L 23.644531 414.824219 L 23.945312 415.199219 L 24.222656 415.617188 L 24.476562 416.070312 L 24.703125 416.566406 L 24.898438 417.105469 L 25.074219 417.683594 L 25.21875 418.304688 L 25.335938 418.964844 L 25.429688 419.664062 L 25.496094 420.40625 L 25.535156 421.191406 L 25.550781 422.015625 L 25.535156 422.835938 L 25.496094 423.617188 L 25.429688 424.355469 L 25.332031 425.054688 L 25.210938 425.714844 L 25.0625 426.335938 L 24.886719 426.914062 L 24.6875 427.457031 L 24.457031 427.957031 L 24.199219 428.414062 L 23.921875 428.828125 L 23.621094 429.199219 L 23.292969 429.523438 L 22.945312 429.808594 L 22.566406 430.046875 L 22.167969 430.242188 L 21.746094 430.394531 L 21.296875 430.503906 L 20.824219 430.570312 L 20.324219 430.589844 L 19.820312 430.570312 L 19.34375 430.503906 L 18.890625 430.394531 L 18.464844 430.242188 L 18.0625 430.046875 L 17.683594 429.808594 L 17.332031 429.523438 L 17.003906 429.199219 L 16.703125 428.828125 L 16.425781 428.414062 L 16.171875 427.953125 L 15.949219 427.453125 L 15.75 426.914062 L 15.578125 426.332031 L 15.429688 425.710938 L 15.3125 425.046875 L 15.21875 424.34375 L 15.152344 423.597656 L 15.113281 422.816406 L 15.097656 421.992188 L 15.113281 421.164062 L 15.152344 420.382812 L 15.21875 419.640625 L 15.3125 418.9375 L 15.429688 418.277344 L 15.578125 417.660156 L 15.75 417.078125 L 15.949219 416.542969 L 16.171875 416.046875 L 16.425781 415.589844 L 16.703125 415.175781 L 17.003906 414.808594 L 17.332031 414.480469 L 17.683594 414.199219 L 18.0625 413.960938 L 18.464844 413.761719 L 18.890625 413.609375 L 19.34375 413.503906 L 19.820312 413.4375 Z M 20.324219 414.617188 L 19.617188 414.6875 L 18.984375 414.910156 L 18.425781 415.277344 L 17.941406 415.796875 L 17.53125 416.460938 L 17.195312 417.269531 L 16.933594 418.230469 L 16.75 419.335938 L 16.636719 420.589844 L 16.597656 421.992188 L 16.636719 423.394531 L 16.75 424.65625 L 16.933594 425.765625 L 17.195312 426.726562 L 17.53125 427.539062 L 17.941406 428.207031 L 18.425781 428.722656 L 18.984375 429.09375 L 19.617188 429.316406 L 20.324219 429.390625 L 20.679688 429.371094 L 21.019531 429.316406 L 21.339844 429.226562 L 21.640625 429.101562 L 21.925781 428.941406 L 22.191406 428.742188 L 22.4375 428.507812 L 22.667969 428.238281 L 22.878906 427.933594 L 23.074219 427.589844 L 23.253906 427.210938 L 23.417969 426.792969 L 23.558594 426.332031 L 23.683594 425.835938 L 23.785156 425.296875 L 23.871094 424.71875 L 23.9375 424.101562 L 23.988281 423.445312 L 24.015625 422.75 L 24.023438 422.015625 L 24.015625 421.28125 L 23.988281 420.585938 L 23.9375 419.929688 L 23.871094 419.3125 L 23.785156 418.734375 L 23.683594 418.195312 L 23.558594 417.699219 L 23.417969 417.238281 L 23.253906 416.820312 L 23.074219 416.441406 L 22.878906 416.09375 L 22.667969 415.785156 L 22.4375 415.507812 L 22.191406 415.273438 L 21.925781 415.070312 L 21.640625 414.90625 L 21.339844 414.78125 L 21.019531 414.6875 L 20.679688 414.632812 Z M 20.324219 414.617188 "/>
<path fill-rule="nonzero" fill="rgb(10.196078%, 10.196078%, 10.196078%)" fill-opacity="1" d="M 22.460938 335.917969 L 22.460938 352.542969 L 21.011719 352.542969 L 21.011719 337.519531 L 16.910156 340.066406 L 16.238281 338.992188 L 21.210938 335.917969 Z M 22.460938 335.917969 "/>
<path fill-rule="nonzero" fill="rgb(10.196078%, 10.196078%, 10.196078%)" fill-opacity="1" d="M 19.960938 257.871094 L 20.375 257.882812 L 20.765625 257.921875 L 21.144531 257.980469 L 21.503906 258.066406 L 21.84375 258.175781 L 22.167969 258.3125 L 22.472656 258.472656 L 22.761719 258.65625 L 23.035156 258.863281 L 23.285156 259.097656 L 23.523438 259.347656 L 23.738281 259.613281 L 23.925781 259.894531 L 24.085938 260.1875 L 24.222656 260.496094 L 24.335938 260.816406 L 24.425781 261.152344 L 24.488281 261.503906 L 24.523438 261.867188 L 24.535156 262.246094 L 24.53125 262.570312 L 24.511719 262.886719 L 24.476562 263.203125 L 24.429688 263.515625 L 24.367188 263.820312 L 24.292969 264.125 L 24.207031 264.421875 L 24.105469 264.71875 L 23.992188 265.007812 L 23.863281 265.296875 L 23.71875 265.582031 L 23.5625 265.878906 L 23.386719 266.175781 L 23.199219 266.480469 L 22.992188 266.789062 L 22.773438 267.105469 L 22.539062 267.425781 L 22.285156 267.753906 L 22.019531 268.082031 L 21.738281 268.421875 L 21.433594 268.777344 L 21.097656 269.167969 L 20.722656 269.59375 L 20.3125 270.050781 L 19.867188 270.539062 L 19.386719 271.0625 L 18.871094 271.621094 L 18.320312 272.214844 L 17.734375 272.839844 L 17.113281 273.496094 L 24.988281 273.496094 L 24.785156 274.769531 L 15.410156 274.769531 L 15.410156 273.546875 L 16.078125 272.835938 L 16.703125 272.164062 L 17.292969 271.527344 L 17.839844 270.929688 L 18.347656 270.371094 L 18.820312 269.851562 L 19.25 269.367188 L 19.644531 268.921875 L 19.996094 268.515625 L 20.3125 268.144531 L 20.601562 267.796875 L 20.875 267.457031 L 21.132812 267.125 L 21.367188 266.804688 L 21.585938 266.496094 L 21.789062 266.195312 L 21.972656 265.90625 L 22.136719 265.625 L 22.28125 265.355469 L 22.410156 265.097656 L 22.53125 264.835938 L 22.636719 264.570312 L 22.730469 264.300781 L 22.8125 264.027344 L 22.878906 263.753906 L 22.9375 263.472656 L 22.980469 263.191406 L 23.011719 262.902344 L 23.03125 262.613281 L 23.035156 262.320312 L 23.027344 262.03125 L 23.003906 261.753906 L 22.957031 261.488281 L 22.898438 261.238281 L 22.816406 260.996094 L 22.722656 260.765625 L 22.609375 260.550781 L 22.476562 260.34375 L 22.328125 260.152344 L 22.160156 259.972656 L 21.984375 259.804688 L 21.800781 259.65625 L 21.601562 259.523438 L 21.390625 259.410156 L 21.167969 259.316406 L 20.933594 259.234375 L 20.691406 259.175781 L 20.433594 259.132812 L 20.167969 259.105469 L 19.886719 259.097656 L 19.660156 259.101562 L 19.4375 259.113281 L 19.21875 259.140625 L 19.007812 259.171875 L 18.800781 259.214844 L 18.597656 259.265625 L 18.398438 259.328125 L 18.207031 259.398438 L 18.019531 259.480469 L 17.835938 259.570312 L 17.664062 259.671875 L 17.488281 259.78125 L 17.320312 259.898438 L 17.148438 260.027344 L 16.980469 260.164062 L 16.8125 260.3125 L 16.648438 260.46875 L 16.484375 260.636719 L 16.324219 260.8125 L 16.160156 260.996094 L 15.160156 260.246094 L 15.363281 260.007812 L 15.566406 259.78125 L 15.777344 259.570312 L 15.984375 259.371094 L 16.199219 259.183594 L 16.417969 259.011719 L 16.636719 258.851562 L 16.859375 258.703125 L 17.082031 258.566406 L 17.3125 258.445312 L 17.550781 258.335938 L 17.792969 258.238281 L 18.042969 258.152344 L 18.300781 258.078125 L 18.5625 258.015625 L 18.828125 257.964844 L 19.105469 257.921875 L 19.382812 257.894531 L 19.671875 257.878906 Z M 19.960938 257.871094 "/>
<path fill-rule="nonzero" fill="rgb(10.196078%, 10.196078%, 10.196078%)" fill-opacity="1" d="M 19.773438 180.097656 L 20.050781 180.105469 L 20.320312 180.121094 L 20.582031 180.148438 L 20.835938 180.1875 L 21.082031 180.238281 L 21.320312 180.296875 L 21.550781 180.367188 L 21.773438 180.453125 L 21.992188 180.542969 L 22.199219 180.648438 L 22.40625 180.761719 L 22.597656 180.886719 L 22.785156 181.015625 L 22.960938 181.152344 L 23.125 181.300781 L 23.28125 181.453125 L 23.425781 181.613281 L 23.558594 181.785156 L 23.683594 181.964844 L 23.800781 182.148438 L 23.902344 182.335938 L 23.996094 182.527344 L 24.078125 182.726562 L 24.152344 182.929688 L 24.210938 183.136719 L 24.261719 183.347656 L 24.300781 183.566406 L 24.328125 183.789062 L 24.34375 184.015625 L 24.347656 184.25 L 24.339844 184.566406 L 24.3125 184.875 L 24.265625 185.171875 L 24.203125 185.453125 L 24.117188 185.722656 L 24.015625 185.984375 L 23.894531 186.230469 L 23.757812 186.464844 L 23.601562 186.6875 L 23.425781 186.898438 L 23.238281 187.089844 L 23.042969 187.269531 L 22.835938 187.433594 L 22.617188 187.578125 L 22.386719 187.710938 L 22.148438 187.828125 L 21.894531 187.933594 L 21.632812 188.019531 L 21.359375 188.089844 L 21.074219 188.148438 L 21.394531 188.175781 L 21.703125 188.21875 L 21.996094 188.285156 L 22.28125 188.375 L 22.554688 188.480469 L 22.816406 188.609375 L 23.066406 188.757812 L 23.304688 188.925781 L 23.535156 189.113281 L 23.75 189.324219 L 23.953125 189.546875 L 24.136719 189.789062 L 24.296875 190.042969 L 24.4375 190.316406 L 24.554688 190.605469 L 24.652344 190.910156 L 24.726562 191.234375 L 24.78125 191.570312 L 24.8125 191.925781 L 24.824219 192.300781 L 24.816406 192.585938 L 24.796875 192.867188 L 24.765625 193.140625 L 24.71875 193.40625 L 24.660156 193.667969 L 24.589844 193.921875 L 24.507812 194.171875 L 24.410156 194.410156 L 24.296875 194.644531 L 24.175781 194.875 L 24.039062 195.09375 L 23.890625 195.304688 L 23.734375 195.507812 L 23.5625 195.699219 L 23.378906 195.878906 L 23.1875 196.054688 L 22.984375 196.214844 L 22.765625 196.371094 L 22.539062 196.515625 L 22.300781 196.648438 L 22.054688 196.769531 L 21.804688 196.875 L 21.546875 196.96875 L 21.28125 197.050781 L 21.003906 197.117188 L 20.722656 197.175781 L 20.4375 197.21875 L 20.140625 197.25 L 19.835938 197.269531 L 19.523438 197.273438 L 18.953125 197.253906 L 18.40625 197.1875 L 17.875 197.082031 L 17.367188 196.929688 L 16.878906 196.738281 L 16.414062 196.5 L 15.96875 196.21875 L 15.539062 195.898438 L 15.136719 195.53125 L 14.75 195.125 L 15.675781 194.300781 L 15.84375 194.480469 L 16.015625 194.648438 L 16.1875 194.808594 L 16.363281 194.960938 L 16.535156 195.097656 L 16.710938 195.230469 L 16.890625 195.347656 L 17.066406 195.460938 L 17.246094 195.558594 L 17.425781 195.648438 L 17.613281 195.726562 L 17.800781 195.792969 L 17.996094 195.851562 L 18.195312 195.90625 L 18.398438 195.949219 L 18.605469 195.984375 L 18.816406 196.011719 L 19.03125 196.03125 L 19.25 196.046875 L 19.472656 196.050781 L 19.828125 196.039062 L 20.164062 196.007812 L 20.484375 195.957031 L 20.789062 195.886719 L 21.082031 195.792969 L 21.355469 195.679688 L 21.613281 195.546875 L 21.859375 195.394531 L 22.085938 195.21875 L 22.300781 195.023438 L 22.496094 194.8125 L 22.667969 194.589844 L 22.824219 194.351562 L 22.957031 194.101562 L 23.066406 193.835938 L 23.160156 193.558594 L 23.230469 193.269531 L 23.285156 192.96875 L 23.3125 192.652344 L 23.324219 192.324219 L 23.285156 191.660156 L 23.175781 191.0625 L 22.988281 190.539062 L 22.722656 190.085938 L 22.386719 189.699219 L 21.972656 189.382812 L 21.488281 189.140625 L 20.925781 188.964844 L 20.285156 188.859375 L 19.574219 188.824219 L 18.472656 188.824219 L 18.675781 187.648438 L 19.472656 187.648438 L 19.753906 187.640625 L 20.027344 187.613281 L 20.292969 187.574219 L 20.546875 187.511719 L 20.792969 187.4375 L 21.03125 187.34375 L 21.261719 187.234375 L 21.484375 187.105469 L 21.695312 186.960938 L 21.898438 186.800781 L 22.089844 186.617188 L 22.257812 186.421875 L 22.410156 186.207031 L 22.539062 185.984375 L 22.648438 185.742188 L 22.738281 185.488281 L 22.808594 185.21875 L 22.859375 184.933594 L 22.890625 184.636719 L 22.898438 184.324219 L 22.890625 184.054688 L 22.863281 183.796875 L 22.820312 183.550781 L 22.757812 183.316406 L 22.679688 183.09375 L 22.585938 182.882812 L 22.472656 182.679688 L 22.339844 182.492188 L 22.191406 182.316406 L 22.023438 182.148438 L 21.84375 181.992188 L 21.652344 181.851562 L 21.449219 181.726562 L 21.234375 181.621094 L 21.003906 181.53125 L 20.765625 181.457031 L 20.519531 181.398438 L 20.257812 181.355469 L 19.984375 181.332031 L 19.699219 181.324219 L 19.492188 181.328125 L 19.285156 181.339844 L 19.085938 181.359375 L 18.886719 181.382812 L 18.691406 181.417969 L 18.503906 181.460938 L 18.316406 181.507812 L 18.132812 181.5625 L 17.953125 181.628906 L 17.773438 181.699219 L 17.597656 181.773438 L 17.421875 181.859375 L 17.246094 181.953125 L 17.070312 182.054688 L 16.894531 182.167969 L 16.714844 182.289062 L 16.539062 182.421875 L 16.359375 182.5625 L 16.179688 182.714844 L 16 182.875 L 15.222656 181.972656 L 15.425781 181.789062 L 15.628906 181.613281 L 15.832031 181.449219 L 16.039062 181.292969 L 16.25 181.148438 L 16.460938 181.015625 L 16.671875 180.890625 L 16.886719 180.773438 L 17.105469 180.667969 L 17.324219 180.574219 L 17.546875 180.484375 L 17.773438 180.402344 L 18.007812 180.332031 L 18.246094 180.269531 L 18.488281 180.21875 L 18.734375 180.175781 L 18.988281 180.140625 L 19.246094 180.117188 L 19.507812 180.105469 Z M 19.773438 180.097656 "/>
<path fill-rule="nonzero" fill="rgb(10.196078%, 10.196078%, 10.196078%)" fill-opacity="1" d="M 25.925781 113.652344 L 25.925781 114.851562 L 23.675781 114.851562 L 23.675781 119.226562 L 22.25 119.226562 L 22.25 114.851562 L 14.972656 114.851562 L 14.972656 113.777344 L 20.050781 102.328125 L 21.273438 102.828125 L 16.523438 113.652344 L 22.25 113.652344 L 22.425781 108.777344 L 23.675781 108.777344 L 23.675781 113.652344 Z M 25.925781 113.652344 "/>
<path fill-rule="nonzero" fill="rgb(10.196078%, 10.196078%, 10.196078%)" fill-opacity="1" d="M 24.363281 26.03125 L 17.613281 26.03125 L 17.613281 31.703125 L 17.886719 31.558594 L 18.167969 31.425781 L 18.445312 31.308594 L 18.726562 31.210938 L 19.011719 31.125 L 19.296875 31.054688 L 19.585938 31 L 19.875 30.960938 L 20.167969 30.9375 L 20.460938 30.929688 L 20.882812 30.945312 L 21.285156 30.984375 L 21.671875 31.054688 L 22.039062 31.152344 L 22.386719 31.28125 L 22.71875 31.433594 L 23.03125 31.617188 L 23.324219 31.824219 L 23.601562 32.0625 L 23.863281 32.328125 L 24.105469 32.617188 L 24.320312 32.921875 L 24.511719 33.246094 L 24.679688 33.59375 L 24.816406 33.960938 L 24.933594 34.347656 L 25.023438 34.757812 L 25.085938 35.1875 L 25.125 35.636719 L 25.136719 36.105469 L 25.128906 36.425781 L 25.109375 36.742188 L 25.078125 37.050781 L 25.027344 37.351562 L 24.96875 37.648438 L 24.894531 37.9375 L 24.804688 38.222656 L 24.703125 38.496094 L 24.589844 38.765625 L 24.460938 39.03125 L 24.328125 39.28125 L 24.179688 39.519531 L 24.019531 39.746094 L 23.851562 39.960938 L 23.667969 40.167969 L 23.476562 40.363281 L 23.269531 40.546875 L 23.054688 40.71875 L 22.828125 40.878906 L 22.585938 41.03125 L 22.34375 41.164062 L 22.089844 41.28125 L 21.832031 41.386719 L 21.5625 41.476562 L 21.285156 41.554688 L 21.003906 41.617188 L 20.710938 41.667969 L 20.410156 41.703125 L 20.101562 41.722656 L 19.785156 41.730469 L 19.242188 41.710938 L 18.710938 41.648438 L 18.199219 41.550781 L 17.703125 41.410156 L 17.222656 41.230469 L 16.761719 41.011719 L 16.320312 40.75 L 15.890625 40.449219 L 15.480469 40.109375 L 15.085938 39.730469 L 15.988281 38.855469 L 16.148438 39.019531 L 16.3125 39.175781 L 16.476562 39.324219 L 16.644531 39.464844 L 16.8125 39.59375 L 16.984375 39.714844 L 17.15625 39.824219 L 17.332031 39.925781 L 17.507812 40.019531 L 17.6875 40.105469 L 17.871094 40.179688 L 18.058594 40.25 L 18.253906 40.308594 L 18.453125 40.359375 L 18.660156 40.40625 L 18.875 40.441406 L 19.09375 40.46875 L 19.320312 40.488281 L 19.550781 40.5 L 19.785156 40.503906 L 20.132812 40.492188 L 20.46875 40.457031 L 20.785156 40.398438 L 21.085938 40.316406 L 21.375 40.210938 L 21.648438 40.082031 L 21.90625 39.929688 L 22.148438 39.753906 L 22.375 39.554688 L 22.585938 39.328125 L 22.78125 39.082031 L 22.957031 38.816406 L 23.109375 38.535156 L 23.242188 38.234375 L 23.355469 37.917969 L 23.449219 37.585938 L 23.519531 37.234375 L 23.570312 36.867188 L 23.601562 36.480469 L 23.613281 36.078125 L 23.601562 35.691406 L 23.574219 35.320312 L 23.527344 34.972656 L 23.460938 34.644531 L 23.375 34.335938 L 23.269531 34.050781 L 23.148438 33.78125 L 23.003906 33.535156 L 22.84375 33.308594 L 22.660156 33.105469 L 22.46875 32.914062 L 22.265625 32.746094 L 22.046875 32.59375 L 21.8125 32.464844 L 21.566406 32.355469 L 21.308594 32.265625 L 21.035156 32.195312 L 20.75 32.144531 L 20.449219 32.113281 L 20.136719 32.105469 L 19.980469 32.105469 L 19.824219 32.113281 L 19.671875 32.125 L 19.523438 32.136719 L 19.378906 32.15625 L 19.238281 32.175781 L 19.101562 32.203125 L 18.96875 32.234375 L 18.839844 32.265625 L 18.710938 32.304688 L 18.589844 32.34375 L 18.464844 32.386719 L 18.339844 32.433594 L 18.207031 32.484375 L 18.074219 32.542969 L 17.9375 32.605469 L 17.796875 32.671875 L 17.65625 32.746094 L 17.511719 32.824219 L 17.363281 32.90625 L 16.210938 32.90625 L 16.210938 24.828125 L 24.585938 24.828125 Z M 24.363281 26.03125 "/>
<path fill-rule="nonzero" fill="rgb(10.196078%, 10.196078%, 10.196078%)" fill-opacity="1" d="M 152.585938 456.363281 L 152.585938 472.988281 L 151.136719 472.988281 L 151.136719 457.964844 L 147.035156 460.511719 L 146.363281 459.4375 L 151.335938 456.363281 Z M 152.585938 456.363281 "/>
<path fill-rule="nonzero" fill="rgb(10.196078%, 10.196078%, 10.196078%)" fill-opacity="1" d="M 322.40625 456.089844 L 322.816406 456.101562 L 323.210938 456.136719 L 323.585938 456.199219 L 323.945312 456.285156 L 324.285156 456.394531 L 324.609375 456.527344 L 324.917969 456.6875 L 325.207031 456.871094 L 325.476562 457.082031 L 325.730469 457.3125 L 325.96875 457.566406 L 326.179688 457.832031 L 326.367188 458.109375 L 326.53125 458.40625 L 326.667969 458.714844 L 326.78125 459.035156 L 326.867188 459.371094 L 326.929688 459.722656 L 326.96875 460.085938 L 326.980469 460.464844 L 326.972656 460.785156 L 326.953125 461.105469 L 326.917969 461.421875 L 326.871094 461.730469 L 326.8125 462.039062 L 326.738281 462.339844 L 326.648438 462.640625 L 326.546875 462.933594 L 326.433594 463.226562 L 326.304688 463.511719 L 326.164062 463.800781 L 326.003906 464.09375 L 325.832031 464.394531 L 325.640625 464.695312 L 325.4375 465.007812 L 325.214844 465.320312 L 324.980469 465.644531 L 324.730469 465.96875 L 324.460938 466.300781 L 324.179688 466.636719 L 323.878906 466.996094 L 323.539062 467.386719 L 322.757812 468.265625 L 322.3125 468.757812 L 321.832031 469.28125 L 321.316406 469.839844 L 320.765625 470.429688 L 320.179688 471.054688 L 319.554688 471.714844 L 327.429688 471.714844 L 327.230469 472.988281 L 317.855469 472.988281 L 317.855469 471.761719 L 318.519531 471.050781 L 319.148438 470.378906 L 319.734375 469.742188 L 320.285156 469.148438 L 320.792969 468.589844 L 321.261719 468.066406 L 321.695312 467.582031 L 322.085938 467.140625 L 322.441406 466.730469 L 322.753906 466.363281 L 323.046875 466.011719 L 323.320312 465.671875 L 323.574219 465.34375 L 323.8125 465.023438 L 324.03125 464.714844 L 324.230469 464.414062 L 324.414062 464.121094 L 324.578125 463.84375 L 324.726562 463.574219 L 324.855469 463.3125 L 324.972656 463.050781 L 325.082031 462.785156 L 325.175781 462.515625 L 325.253906 462.246094 L 325.324219 461.96875 L 325.378906 461.691406 L 325.425781 461.40625 L 325.457031 461.121094 L 325.472656 460.832031 L 325.480469 460.539062 L 325.472656 460.25 L 325.445312 459.972656 L 325.402344 459.707031 L 325.339844 459.453125 L 325.261719 459.214844 L 325.164062 458.984375 L 325.050781 458.765625 L 324.921875 458.5625 L 324.773438 458.367188 L 324.605469 458.1875 L 324.429688 458.023438 L 324.242188 457.871094 L 324.042969 457.742188 L 323.832031 457.628906 L 323.613281 457.53125 L 323.378906 457.453125 L 323.132812 457.390625 L 322.878906 457.347656 L 322.609375 457.320312 L 322.332031 457.3125 L 322.101562 457.316406 L 321.878906 457.332031 L 321.664062 457.355469 L 321.449219 457.390625 L 321.242188 457.433594 L 321.039062 457.484375 L 320.84375 457.546875 L 320.652344 457.617188 L 320.464844 457.699219 L 320.28125 457.789062 L 320.105469 457.886719 L 319.933594 457.996094 L 319.761719 458.117188 L 319.59375 458.242188 L 319.425781 458.382812 L 319.257812 458.527344 L 319.09375 458.6875 L 318.929688 458.851562 L 318.765625 459.027344 L 318.605469 459.214844 L 317.605469 458.464844 L 317.808594 458.222656 L 318.011719 458 L 318.21875 457.785156 L 318.429688 457.585938 L 318.644531 457.402344 L 318.859375 457.226562 L 319.078125 457.066406 L 319.300781 456.917969 L 319.527344 456.785156 L 319.753906 456.664062 L 319.992188 456.554688 L 320.238281 456.457031 L 320.488281 456.371094 L 320.742188 456.296875 L 321.003906 456.230469 L 321.273438 456.179688 L 321.546875 456.140625 L 321.828125 456.109375 L 322.113281 456.09375 Z M 322.40625 456.089844 "/>
<path fill-rule="nonzero" fill="rgb(10.196078%, 10.196078%, 10.196078%)" fill-opacity="1" d="M 494.535156 456.089844 L 494.8125 456.09375 L 495.082031 456.109375 L 495.34375 456.136719 L 495.597656 456.175781 L 495.84375 456.226562 L 496.082031 456.285156 L 496.3125 456.359375 L 496.535156 456.441406 L 496.753906 456.535156 L 496.960938 456.636719 L 497.167969 456.75 L 497.363281 456.875 L 497.546875 457.003906 L 497.722656 457.140625 L 497.886719 457.289062 L 498.042969 457.441406 L 498.1875 457.605469 L 498.320312 457.773438 L 498.445312 457.953125 L 498.5625 458.136719 L 498.667969 458.324219 L 498.757812 458.519531 L 498.84375 458.714844 L 498.914062 458.917969 L 498.972656 459.125 L 499.023438 459.339844 L 499.0625 459.554688 L 499.089844 459.777344 L 499.105469 460.003906 L 499.113281 460.238281 L 499.101562 460.558594 L 499.074219 460.863281 L 499.027344 461.160156 L 498.964844 461.441406 L 498.878906 461.714844 L 498.777344 461.972656 L 498.660156 462.21875 L 498.519531 462.453125 L 498.363281 462.675781 L 498.1875 462.886719 L 498 463.082031 L 497.804688 463.257812 L 497.597656 463.421875 L 497.378906 463.566406 L 497.148438 463.699219 L 496.910156 463.816406 L 496.65625 463.921875 L 496.394531 464.007812 L 496.121094 464.082031 L 495.835938 464.136719 L 496.15625 464.164062 L 496.464844 464.207031 L 496.761719 464.273438 L 497.042969 464.363281 L 497.316406 464.46875 L 497.578125 464.597656 L 497.828125 464.746094 L 498.070312 464.914062 L 498.296875 465.101562 L 498.511719 465.3125 L 498.714844 465.535156 L 498.898438 465.777344 L 499.058594 466.03125 L 499.199219 466.304688 L 499.316406 466.59375 L 499.414062 466.898438 L 499.488281 467.222656 L 499.542969 467.5625 L 499.574219 467.917969 L 499.585938 468.289062 L 499.578125 468.574219 L 499.558594 468.855469 L 499.527344 469.128906 L 499.484375 469.394531 L 499.425781 469.65625 L 499.351562 469.910156 L 499.269531 470.160156 L 499.171875 470.398438 L 499.058594 470.632812 L 498.9375 470.863281 L 498.800781 471.082031 L 498.652344 471.292969 L 498.496094 471.496094 L 498.324219 471.6875 L 498.144531 471.871094 L 497.949219 472.042969 L 497.746094 472.207031 L 497.527344 472.359375 L 497.300781 472.503906 L 497.0625 472.636719 L 496.816406 472.757812 L 496.566406 472.863281 L 496.308594 472.957031 L 496.042969 473.039062 L 495.769531 473.105469 L 495.488281 473.164062 L 495.199219 473.207031 L 494.902344 473.238281 L 494.597656 473.257812 L 494.285156 473.261719 L 493.714844 473.242188 L 493.167969 473.175781 L 492.640625 473.070312 L 492.128906 472.917969 L 491.644531 472.726562 L 491.175781 472.488281 L 490.730469 472.210938 L 490.300781 471.886719 L 489.898438 471.519531 L 489.511719 471.113281 L 490.4375 470.289062 L 490.605469 470.46875 L 490.777344 470.636719 L 490.949219 470.796875 L 491.125 470.949219 L 491.300781 471.089844 L 491.472656 471.21875 L 491.652344 471.339844 L 491.828125 471.449219 L 492.007812 471.546875 L 492.1875 471.636719 L 492.375 471.714844 L 492.566406 471.78125 L 492.757812 471.84375 L 492.957031 471.894531 L 493.160156 471.9375 L 493.367188 471.972656 L 493.578125 472 L 493.792969 472.023438 L 494.011719 472.035156 L 494.238281 472.039062 L 494.589844 472.027344 L 494.925781 471.996094 L 495.246094 471.945312 L 495.550781 471.875 L 495.84375 471.78125 L 496.117188 471.667969 L 496.375 471.535156 L 496.621094 471.382812 L 496.847656 471.207031 L 497.0625 471.011719 L 497.257812 470.800781 L 497.429688 470.578125 L 497.585938 470.339844 L 497.71875 470.089844 L 497.832031 469.824219 L 497.921875 469.550781 L 497.996094 469.257812 L 498.046875 468.957031 L 498.078125 468.640625 L 498.085938 468.3125 L 498.050781 467.648438 L 497.9375 467.054688 L 497.75 466.527344 L 497.488281 466.074219 L 497.148438 465.6875 L 496.738281 465.371094 L 496.25 465.128906 L 495.6875 464.953125 L 495.050781 464.847656 L 494.335938 464.8125 L 493.238281 464.8125 L 493.4375 463.636719 L 494.238281 463.636719 L 494.515625 463.628906 L 494.789062 463.605469 L 495.054688 463.5625 L 495.308594 463.5 L 495.554688 463.425781 L 495.792969 463.332031 L 496.023438 463.222656 L 496.246094 463.09375 L 496.457031 462.949219 L 496.660156 462.789062 L 496.851562 462.605469 L 497.023438 462.410156 L 497.171875 462.199219 L 497.300781 461.972656 L 497.410156 461.730469 L 497.5 461.476562 L 497.570312 461.207031 L 497.621094 460.925781 L 497.652344 460.625 L 497.660156 460.3125 L 497.652344 460.042969 L 497.625 459.785156 L 497.582031 459.539062 L 497.523438 459.304688 L 497.441406 459.082031 L 497.347656 458.871094 L 497.234375 458.667969 L 497.101562 458.480469 L 496.953125 458.304688 L 496.785156 458.136719 L 496.605469 457.980469 L 496.414062 457.839844 L 496.210938 457.71875 L 495.996094 457.609375 L 495.769531 457.519531 L 495.53125 457.445312 L 495.28125 457.386719 L 495.019531 457.347656 L 494.746094 457.320312 L 494.460938 457.3125 L 494.253906 457.316406 L 494.046875 457.328125 L 493.847656 457.347656 L 493.648438 457.371094 L 493.457031 457.40625 L 493.265625 457.449219 L 493.078125 457.496094 L 492.894531 457.554688 L 492.714844 457.617188 L 492.535156 457.6875 L 492.359375 457.761719 L 492.183594 457.847656 L 492.007812 457.941406 L 491.832031 458.042969 L 491.65625 458.15625 L 491.476562 458.277344 L 491.300781 458.410156 L 491.121094 458.550781 L 490.941406 458.703125 L 490.761719 458.863281 L 489.988281 457.964844 L 490.1875 457.777344 L 490.390625 457.601562 L 490.59375 457.4375 L 490.800781 457.28125 L 491.011719 457.136719 L 491.222656 457.003906 L 491.433594 456.878906 L 491.652344 456.761719 L 491.867188 456.65625 L 492.085938 456.5625 L 492.308594 456.472656 L 492.535156 456.390625 L 492.769531 456.320312 L 493.007812 456.257812 L 493.25 456.207031 L 493.496094 456.164062 L 493.75 456.128906 L 494.007812 456.105469 L 494.269531 456.09375 Z M 494.535156 456.089844 "/>
<path fill-rule="nonzero" fill="rgb(10.196078%, 10.196078%, 10.196078%)" fill-opacity="1" d="M 673.003906 467.414062 L 673.003906 468.613281 L 670.753906 468.613281 L 670.753906 472.988281 L 669.328125 472.988281 L 669.328125 468.613281 L 662.054688 468.613281 L 662.054688 467.539062 L 667.128906 456.089844 L 668.355469 456.589844 L 663.605469 467.414062 L 669.328125 467.414062 L 669.503906 462.539062 L 670.753906 462.539062 L 670.753906 467.414062 Z M 673.003906 467.414062 "/>
</svg>
