<?xml version="1.0" encoding="UTF-8"?>
<svg xmlns="http://www.w3.org/2000/svg" xmlns:xlink="http://www.w3.org/1999/xlink" width="792pt" height="324pt" viewBox="0 0 792 324">
<defs>
<clipPath id="clip-0">
<path clip-rule="nonzero" d="M 112.03125 13.949219 L 778.050781 13.949219 L 778.050781 274.359375 L 112.03125 274.359375 Z M 112.03125 13.949219 "/>
</clipPath>
<clipPath id="clip-1">
<path clip-rule="nonzero" d="M 112.03125 261 L 778.050781 261 L 778.050781 264 L 112.03125 264 Z M 112.03125 261 "/>
</clipPath>
<clipPath id="clip-2">
<path clip-rule="nonzero" d="M 112.03125 170 L 778.050781 170 L 778.050781 173 L 112.03125 173 Z M 112.03125 170 "/>
</clipPath>
<clipPath id="clip-3">
<path clip-rule="nonzero" d="M 112.03125 79 L 778.050781 79 L 778.050781 82 L 112.03125 82 Z M 112.03125 79 "/>
</clipPath>
<clipPath id="clip-4">
<path clip-rule="nonzero" d="M 292 13.949219 L 296 13.949219 L 296 274.359375 L 292 274.359375 Z M 292 13.949219 "/>
</clipPath>
<clipPath id="clip-5">
<path clip-rule="nonzero" d="M 595 13.949219 L 598 13.949219 L 598 274.359375 L 595 274.359375 Z M 595 13.949219 "/>
</clipPath>
</defs>
<rect x="-79.2" y="-32.4" width="950.4" height="388.8" fill="rgb(100%, 100%, 100%)" fill-opacity="1"/>
<rect x="-79.2" y="-32.4" width="950.4" height="388.8" fill="rgb(95.294118%, 95.294118%, 95.294118%)" fill-opacity="1"/>
<path fill="none" stroke-width="2.715945" stroke-linecap="round" stroke-linejoin="round" stroke="rgb(95.294118%, 95.294118%, 95.294118%)" stroke-opacity="1" stroke-miterlimit="10" d="M 0 324 L 792 324 L 792 0 L 0 0 Z M 0 324 "/>
<g clip-path="url(#clip-0)">
<path fill-rule="nonzero" fill="rgb(95.294118%, 95.294118%, 95.294118%)" fill-opacity="1" stroke-width="2.715945" stroke-linecap="round" stroke-linejoin="round" stroke="rgb(95.294118%, 95.294118%, 95.294118%)" stroke-opacity="1" stroke-miterlimit="10" d="M 112.03125 274.359375 L 778.050781 274.359375 L 778.050781 13.949219 L 112.03125 13.949219 Z M 112.03125 274.359375 "/>
</g>
<g clip-path="url(#clip-1)">
<path fill="none" stroke-width="2.715945" stroke-linecap="butt" stroke-linejoin="round" stroke="rgb(92.156863%, 92.156863%, 92.156863%)" stroke-opacity="1" stroke-miterlimit="10" d="M 112.03125 262.523438 L 778.050781 262.523438 "/>
</g>
<g clip-path="url(#clip-2)">
<path fill="none" stroke-width="2.715945" stroke-linecap="butt" stroke-linejoin="round" stroke="rgb(92.156863%, 92.156863%, 92.156863%)" stroke-opacity="1" stroke-miterlimit="10" d="M 112.03125 171.46875 L 778.050781 171.46875 "/>
</g>
<g clip-path="url(#clip-3)">
<path fill="none" stroke-width="2.715945" stroke-linecap="butt" stroke-linejoin="round" stroke="rgb(92.156863%, 92.156863%, 92.156863%)" stroke-opacity="1" stroke-miterlimit="10" d="M 112.03125 80.417969 L 778.050781 80.417969 "/>
</g>
<g clip-path="url(#clip-4)">
<path fill="none" stroke-width="2.715945" stroke-linecap="butt" stroke-linejoin="round" stroke="rgb(92.156863%, 92.156863%, 92.156863%)" stroke-opacity="1" stroke-miterlimit="10" d="M 293.675781 274.359375 L 293.675781 13.949219 "/>
</g>
<g clip-path="url(#clip-5)">
<path fill="none" stroke-width="2.715945" stroke-linecap="butt" stroke-linejoin="round" stroke="rgb(92.156863%, 92.156863%, 92.156863%)" stroke-opacity="1" stroke-miterlimit="10" d="M 596.410156 274.359375 L 596.410156 13.949219 "/>
</g>
<path fill-rule="nonzero" fill="rgb(56.078431%, 16.470588%, 26.27451%)" fill-opacity="0.8" stroke-width="1.803865" stroke-linecap="round" stroke-linejoin="round" stroke="rgb(56.078431%, 16.470588%, 26.27451%)" stroke-opacity="0.8" stroke-miterlimit="10" d="M 308.125 66.1875 C 308.125 72.796875 298.210938 72.796875 298.210938 66.1875 C 298.210938 59.578125 308.125 59.578125 308.125 66.1875 "/>
<path fill-rule="nonzero" fill="rgb(56.078431%, 16.470588%, 26.27451%)" fill-opacity="0.8" stroke-width="1.803865" stroke-linecap="round" stroke-linejoin="round" stroke="rgb(56.078431%, 16.470588%, 26.27451%)" stroke-opacity="0.8" stroke-miterlimit="10" d="M 305.125 79.308594 C 305.125 85.917969 295.214844 85.917969 295.214844 79.308594 C 295.214844 72.699219 305.125 72.699219 305.125 79.308594 "/>
<path fill-rule="nonzero" fill="rgb(56.078431%, 16.470588%, 26.27451%)" fill-opacity="0.8" stroke-width="1.803865" stroke-linecap="round" stroke-linejoin="round" stroke="rgb(56.078431%, 16.470588%, 26.27451%)" stroke-opacity="0.8" stroke-miterlimit="10" d="M 296.90625 86.371094 C 296.90625 92.980469 286.996094 92.980469 286.996094 86.371094 C 286.996094 79.761719 296.90625 79.761719 296.90625 86.371094 "/>
<path fill-rule="nonzero" fill="rgb(56.078431%, 16.470588%, 26.27451%)" fill-opacity="0.8" stroke-width="1.803865" stroke-linecap="round" stroke-linejoin="round" stroke="rgb(56.078431%, 16.470588%, 26.27451%)" stroke-opacity="0.8" stroke-miterlimit="10" d="M 299.089844 89.773438 C 299.089844 96.382812 289.175781 96.382812 289.175781 89.773438 C 289.175781 83.164062 299.089844 83.164062 299.089844 89.773438 "/>
<path fill-rule="nonzero" fill="rgb(56.078431%, 16.470588%, 26.27451%)" fill-opacity="0.8" stroke-width="1.803865" stroke-linecap="round" stroke-linejoin="round" stroke="rgb(56.078431%, 16.470588%, 26.27451%)" stroke-opacity="0.8" stroke-miterlimit="10" d="M 305.734375 101.335938 C 305.734375 107.945312 295.820312 107.945312 295.820312 101.335938 C 295.820312 94.726562 305.734375 94.726562 305.734375 101.335938 "/>
<path fill-rule="nonzero" fill="rgb(56.078431%, 16.470588%, 26.27451%)" fill-opacity="0.8" stroke-width="1.803865" stroke-linecap="round" stroke-linejoin="round" stroke="rgb(56.078431%, 16.470588%, 26.27451%)" stroke-opacity="0.8" stroke-miterlimit="10" d="M 303.089844 61.429688 C 303.089844 68.039062 293.179688 68.039062 293.179688 61.429688 C 293.179688 54.820312 303.089844 54.820312 303.089844 61.429688 "/>
<path fill-rule="nonzero" fill="rgb(56.078431%, 16.470588%, 26.27451%)" fill-opacity="0.8" stroke-width="1.803865" stroke-linecap="round" stroke-linejoin="round" stroke="rgb(56.078431%, 16.470588%, 26.27451%)" stroke-opacity="0.8" stroke-miterlimit="10" d="M 286.359375 94.164062 C 286.359375 100.769531 276.449219 100.769531 276.449219 94.164062 C 276.449219 87.554688 286.359375 87.554688 286.359375 94.164062 "/>
<path fill-rule="nonzero" fill="rgb(56.078431%, 16.470588%, 26.27451%)" fill-opacity="0.8" stroke-width="1.803865" stroke-linecap="round" stroke-linejoin="round" stroke="rgb(56.078431%, 16.470588%, 26.27451%)" stroke-opacity="0.8" stroke-miterlimit="10" d="M 297.398438 69.992188 C 297.398438 76.601562 287.484375 76.601562 287.484375 69.992188 C 287.484375 63.386719 297.398438 63.386719 297.398438 69.992188 "/>
<path fill-rule="nonzero" fill="rgb(56.078431%, 16.470588%, 26.27451%)" fill-opacity="0.8" stroke-width="1.803865" stroke-linecap="round" stroke-linejoin="round" stroke="rgb(56.078431%, 16.470588%, 26.27451%)" stroke-opacity="0.8" stroke-miterlimit="10" d="M 296.378906 84.996094 C 296.378906 91.605469 286.464844 91.605469 286.464844 84.996094 C 286.464844 78.386719 296.378906 78.386719 296.378906 84.996094 "/>
<path fill-rule="nonzero" fill="rgb(56.078431%, 16.470588%, 26.27451%)" fill-opacity="0.8" stroke-width="1.803865" stroke-linecap="round" stroke-linejoin="round" stroke="rgb(56.078431%, 16.470588%, 26.27451%)" stroke-opacity="0.8" stroke-miterlimit="10" d="M 302.398438 50.839844 C 302.398438 57.449219 292.484375 57.449219 292.484375 50.839844 C 292.484375 44.230469 302.398438 44.230469 302.398438 50.839844 "/>
<path fill-rule="nonzero" fill="rgb(56.078431%, 16.470588%, 26.27451%)" fill-opacity="0.8" stroke-width="1.803865" stroke-linecap="round" stroke-linejoin="round" stroke="rgb(56.078431%, 16.470588%, 26.27451%)" stroke-opacity="0.8" stroke-miterlimit="10" d="M 589.699219 84.34375 C 589.699219 90.953125 579.785156 90.953125 579.785156 84.34375 C 579.785156 77.734375 589.699219 77.734375 589.699219 84.34375 "/>
<path fill-rule="nonzero" fill="rgb(56.078431%, 16.470588%, 26.27451%)" fill-opacity="0.8" stroke-width="1.803865" stroke-linecap="round" stroke-linejoin="round" stroke="rgb(56.078431%, 16.470588%, 26.27451%)" stroke-opacity="0.8" stroke-miterlimit="10" d="M 610.941406 96.492188 C 610.941406 103.101562 601.027344 103.101562 601.027344 96.492188 C 601.027344 89.882812 610.941406 89.882812 610.941406 96.492188 "/>
<path fill-rule="nonzero" fill="rgb(56.078431%, 16.470588%, 26.27451%)" fill-opacity="0.8" stroke-width="1.803865" stroke-linecap="round" stroke-linejoin="round" stroke="rgb(56.078431%, 16.470588%, 26.27451%)" stroke-opacity="0.8" stroke-miterlimit="10" d="M 608.6875 90.75 C 608.6875 97.359375 598.777344 97.359375 598.777344 90.75 C 598.777344 84.140625 608.6875 84.140625 608.6875 90.75 "/>
<path fill-rule="nonzero" fill="rgb(56.078431%, 16.470588%, 26.27451%)" fill-opacity="0.8" stroke-width="1.803865" stroke-linecap="round" stroke-linejoin="round" stroke="rgb(56.078431%, 16.470588%, 26.27451%)" stroke-opacity="0.8" stroke-miterlimit="10" d="M 605.949219 80.445312 C 605.949219 87.054688 596.035156 87.054688 596.035156 80.445312 C 596.035156 73.839844 605.949219 73.839844 605.949219 80.445312 "/>
<path fill-rule="nonzero" fill="rgb(56.078431%, 16.470588%, 26.27451%)" fill-opacity="0.8" stroke-width="1.803865" stroke-linecap="round" stroke-linejoin="round" stroke="rgb(56.078431%, 16.470588%, 26.27451%)" stroke-opacity="0.8" stroke-miterlimit="10" d="M 599.027344 106.539062 C 599.027344 113.148438 589.113281 113.148438 589.113281 106.539062 C 589.113281 99.929688 599.027344 99.929688 599.027344 106.539062 "/>
<path fill-rule="nonzero" fill="rgb(56.078431%, 16.470588%, 26.27451%)" fill-opacity="0.8" stroke-width="1.803865" stroke-linecap="round" stroke-linejoin="round" stroke="rgb(56.078431%, 16.470588%, 26.27451%)" stroke-opacity="0.8" stroke-miterlimit="10" d="M 599.027344 98.1875 C 599.027344 104.796875 589.113281 104.796875 589.113281 98.1875 C 589.113281 91.578125 599.027344 91.578125 599.027344 98.1875 "/>
<path fill-rule="nonzero" fill="rgb(56.078431%, 16.470588%, 26.27451%)" fill-opacity="0.8" stroke-width="1.803865" stroke-linecap="round" stroke-linejoin="round" stroke="rgb(56.078431%, 16.470588%, 26.27451%)" stroke-opacity="0.8" stroke-miterlimit="10" d="M 593.789062 77.320312 C 593.789062 83.925781 583.875 83.925781 583.875 77.320312 C 583.875 70.710938 593.789062 70.710938 593.789062 77.320312 "/>
<path fill-rule="nonzero" fill="rgb(56.078431%, 16.470588%, 26.27451%)" fill-opacity="0.8" stroke-width="1.803865" stroke-linecap="round" stroke-linejoin="round" stroke="rgb(56.078431%, 16.470588%, 26.27451%)" stroke-opacity="0.8" stroke-miterlimit="10" d="M 602.273438 57.664062 C 602.273438 64.273438 592.363281 64.273438 592.363281 57.664062 C 592.363281 51.058594 602.273438 51.058594 602.273438 57.664062 "/>
<path fill-rule="nonzero" fill="rgb(56.078431%, 16.470588%, 26.27451%)" fill-opacity="0.8" stroke-width="1.803865" stroke-linecap="round" stroke-linejoin="round" stroke="rgb(56.078431%, 16.470588%, 26.27451%)" stroke-opacity="0.8" stroke-miterlimit="10" d="M 600.710938 59.707031 C 600.710938 66.316406 590.800781 66.316406 590.800781 59.707031 C 590.800781 53.101562 600.710938 53.101562 600.710938 59.707031 "/>
<path fill-rule="nonzero" fill="rgb(56.078431%, 16.470588%, 26.27451%)" fill-opacity="0.8" stroke-width="1.803865" stroke-linecap="round" stroke-linejoin="round" stroke="rgb(56.078431%, 16.470588%, 26.27451%)" stroke-opacity="0.8" stroke-miterlimit="10" d="M 587.390625 93.429688 C 587.390625 100.039062 577.480469 100.039062 577.480469 93.429688 C 577.480469 86.820312 587.390625 86.820312 587.390625 93.429688 "/>
<path fill-rule="nonzero" fill="rgb(10.196078%, 10.196078%, 10.196078%)" fill-opacity="1" d="M 72.660156 253.851562 L 73.183594 253.875 L 73.679688 253.941406 L 74.148438 254.058594 L 74.59375 254.21875 L 75.011719 254.421875 L 75.40625 254.675781 L 75.773438 254.972656 L 76.113281 255.316406 L 76.429688 255.703125 L 76.714844 256.140625 L 76.976562 256.613281 L 77.210938 257.128906 L 77.417969 257.6875 L 77.597656 258.289062 L 77.75 258.933594 L 77.875 259.621094 L 77.96875 260.351562 L 78.039062 261.125 L 78.082031 261.9375 L 78.09375 262.796875 L 78.082031 263.648438 L 78.039062 264.460938 L 77.96875 265.230469 L 77.871094 265.957031 L 77.742188 266.644531 L 77.589844 267.289062 L 77.40625 267.890625 L 77.195312 268.453125 L 76.957031 268.972656 L 76.691406 269.453125 L 76.402344 269.882812 L 76.089844 270.265625 L 75.75 270.605469 L 75.382812 270.898438 L 74.992188 271.148438 L 74.578125 271.351562 L 74.136719 271.511719 L 73.671875 271.621094 L 73.179688 271.691406 L 72.660156 271.714844 L 72.136719 271.691406 L 71.640625 271.621094 L 71.171875 271.511719 L 70.726562 271.351562 L 70.308594 271.148438 L 69.914062 270.898438 L 69.546875 270.605469 L 69.207031 270.265625 L 68.894531 269.882812 L 68.605469 269.453125 L 68.34375 268.972656 L 68.109375 268.453125 L 67.902344 267.890625 L 67.722656 267.285156 L 67.570312 266.636719 L 67.445312 265.949219 L 67.351562 265.214844 L 67.28125 264.441406 L 67.242188 263.628906 L 67.226562 262.769531 L 67.242188 261.910156 L 67.28125 261.097656 L 67.351562 260.324219 L 67.445312 259.59375 L 67.570312 258.910156 L 67.722656 258.265625 L 67.902344 257.664062 L 68.109375 257.105469 L 68.34375 256.585938 L 68.605469 256.113281 L 68.894531 255.683594 L 69.207031 255.300781 L 69.546875 254.960938 L 69.914062 254.664062 L 70.308594 254.417969 L 70.726562 254.214844 L 71.171875 254.054688 L 71.640625 253.941406 L 72.136719 253.875 Z M 72.660156 255.097656 L 71.925781 255.175781 L 71.265625 255.40625 L 70.683594 255.789062 L 70.179688 256.328125 L 69.753906 257.015625 L 69.40625 257.859375 L 69.136719 258.859375 L 68.941406 260.007812 L 68.824219 261.3125 L 68.785156 262.769531 L 68.824219 264.230469 L 68.941406 265.539062 L 69.136719 266.695312 L 69.40625 267.695312 L 69.753906 268.542969 L 70.179688 269.234375 L 70.683594 269.773438 L 71.265625 270.15625 L 71.925781 270.386719 L 72.660156 270.464844 L 73.03125 270.445312 L 73.382812 270.390625 L 73.714844 270.296875 L 74.027344 270.164062 L 74.324219 269.996094 L 74.601562 269.792969 L 74.859375 269.546875 L 75.097656 269.265625 L 75.320312 268.949219 L 75.519531 268.59375 L 75.707031 268.199219 L 75.875 267.761719 L 76.023438 267.285156 L 76.152344 266.765625 L 76.261719 266.207031 L 76.351562 265.609375 L 76.417969 264.964844 L 76.46875 264.285156 L 76.5 263.558594 L 76.507812 262.796875 L 76.5 262.03125 L 76.46875 261.308594 L 76.417969 260.625 L 76.351562 259.984375 L 76.261719 259.382812 L 76.152344 258.824219 L 76.023438 258.304688 L 75.875 257.828125 L 75.707031 257.390625 L 75.519531 256.996094 L 75.320312 256.636719 L 75.097656 256.3125 L 74.859375 256.03125 L 74.601562 255.78125 L 74.324219 255.574219 L 74.027344 255.402344 L 73.714844 255.269531 L 73.382812 255.175781 L 73.03125 255.117188 Z M 72.660156 255.097656 "/>
<path fill-rule="nonzero" fill="rgb(10.196078%, 10.196078%, 10.196078%)" fill-opacity="1" d="M 62.558594 164.332031 L 55.539062 164.332031 L 55.539062 170.234375 L 55.828125 170.082031 L 56.117188 169.945312 L 56.40625 169.824219 L 56.699219 169.71875 L 56.996094 169.628906 L 57.292969 169.558594 L 57.59375 169.5 L 57.894531 169.460938 L 58.199219 169.4375 L 58.503906 169.429688 L 58.941406 169.441406 L 59.359375 169.488281 L 59.761719 169.558594 L 60.144531 169.660156 L 60.503906 169.792969 L 60.851562 169.953125 L 61.175781 170.140625 L 61.480469 170.359375 L 61.769531 170.609375 L 62.039062 170.882812 L 62.292969 171.179688 L 62.515625 171.5 L 62.714844 171.839844 L 62.886719 172.199219 L 63.035156 172.582031 L 63.152344 172.984375 L 63.246094 173.410156 L 63.3125 173.855469 L 63.351562 174.320312 L 63.367188 174.808594 L 63.359375 175.144531 L 63.335938 175.472656 L 63.300781 175.792969 L 63.253906 176.109375 L 63.191406 176.414062 L 63.113281 176.714844 L 63.023438 177.011719 L 62.917969 177.296875 L 62.796875 177.578125 L 62.664062 177.851562 L 62.523438 178.113281 L 62.371094 178.359375 L 62.203125 178.597656 L 62.027344 178.820312 L 61.839844 179.035156 L 61.636719 179.238281 L 61.425781 179.429688 L 61.199219 179.609375 L 60.960938 179.777344 L 60.714844 179.933594 L 60.460938 180.070312 L 60.199219 180.195312 L 59.925781 180.304688 L 59.648438 180.398438 L 59.363281 180.476562 L 59.066406 180.542969 L 58.761719 180.59375 L 58.449219 180.632812 L 58.128906 180.652344 L 57.800781 180.660156 L 57.234375 180.640625 L 56.683594 180.578125 L 56.148438 180.472656 L 55.632812 180.328125 L 55.136719 180.140625 L 54.65625 179.910156 L 54.195312 179.640625 L 53.75 179.328125 L 53.324219 178.976562 L 52.914062 178.582031 L 53.847656 177.671875 L 54.015625 177.84375 L 54.1875 178.003906 L 54.359375 178.160156 L 54.53125 178.304688 L 54.707031 178.4375 L 54.886719 178.5625 L 55.066406 178.679688 L 55.246094 178.785156 L 55.429688 178.882812 L 55.617188 178.96875 L 55.808594 179.050781 L 56.003906 179.121094 L 56.207031 179.183594 L 56.417969 179.238281 L 56.632812 179.28125 L 56.851562 179.320312 L 57.082031 179.347656 L 57.316406 179.371094 L 57.554688 179.382812 L 57.800781 179.386719 L 58.164062 179.375 L 58.507812 179.335938 L 58.839844 179.277344 L 59.152344 179.191406 L 59.453125 179.082031 L 59.734375 178.945312 L 60.003906 178.789062 L 60.257812 178.605469 L 60.492188 178.398438 L 60.714844 178.164062 L 60.917969 177.90625 L 61.097656 177.628906 L 61.257812 177.335938 L 61.394531 177.023438 L 61.511719 176.695312 L 61.609375 176.347656 L 61.683594 175.984375 L 61.738281 175.601562 L 61.769531 175.203125 L 61.78125 174.785156 L 61.769531 174.378906 L 61.738281 173.996094 L 61.691406 173.632812 L 61.621094 173.289062 L 61.53125 172.972656 L 61.425781 172.671875 L 61.296875 172.394531 L 61.148438 172.140625 L 60.980469 171.902344 L 60.792969 171.691406 L 60.59375 171.492188 L 60.378906 171.316406 L 60.152344 171.160156 L 59.910156 171.023438 L 59.652344 170.910156 L 59.382812 170.816406 L 59.101562 170.742188 L 58.804688 170.691406 L 58.492188 170.660156 L 58.164062 170.652344 L 58 170.652344 L 57.839844 170.660156 L 57.683594 170.667969 L 57.527344 170.683594 L 57.378906 170.703125 L 57.234375 170.726562 L 57.089844 170.753906 L 56.949219 170.785156 L 56.816406 170.820312 L 56.683594 170.859375 L 56.558594 170.898438 L 56.425781 170.941406 L 56.296875 170.992188 L 56.160156 171.046875 L 56.019531 171.105469 L 55.878906 171.171875 L 55.734375 171.242188 L 55.585938 171.316406 L 55.433594 171.398438 L 55.28125 171.484375 L 54.082031 171.484375 L 54.082031 163.085938 L 62.792969 163.085938 Z M 62.558594 164.332031 "/>
<path fill-rule="nonzero" fill="rgb(10.196078%, 10.196078%, 10.196078%)" fill-opacity="1" d="M 71.839844 162.796875 L 72.363281 162.820312 L 72.859375 162.890625 L 73.332031 163.003906 L 73.777344 163.164062 L 74.195312 163.371094 L 74.585938 163.621094 L 74.953125 163.917969 L 75.292969 164.261719 L 75.609375 164.652344 L 75.898438 165.085938 L 76.160156 165.558594 L 76.394531 166.078125 L 76.601562 166.636719 L 76.78125 167.238281 L 76.929688 167.882812 L 77.054688 168.570312 L 77.152344 169.296875 L 77.21875 170.070312 L 77.261719 170.886719 L 77.277344 171.742188 L 77.261719 172.59375 L 77.21875 173.40625 L 77.148438 174.175781 L 77.050781 174.902344 L 76.925781 175.589844 L 76.769531 176.234375 L 76.585938 176.839844 L 76.378906 177.398438 L 76.136719 177.921875 L 75.871094 178.398438 L 75.582031 178.828125 L 75.269531 179.210938 L 74.929688 179.550781 L 74.566406 179.847656 L 74.175781 180.09375 L 73.757812 180.296875 L 73.316406 180.457031 L 72.851562 180.570312 L 72.359375 180.636719 L 71.839844 180.660156 L 71.320312 180.636719 L 70.824219 180.570312 L 70.351562 180.457031 L 69.90625 180.296875 L 69.488281 180.09375 L 69.097656 179.847656 L 68.730469 179.550781 L 68.390625 179.210938 L 68.074219 178.828125 L 67.785156 178.398438 L 67.523438 177.917969 L 67.289062 177.398438 L 67.082031 176.835938 L 66.902344 176.230469 L 66.753906 175.582031 L 66.628906 174.894531 L 66.53125 174.164062 L 66.460938 173.390625 L 66.421875 172.574219 L 66.40625 171.714844 L 66.421875 170.859375 L 66.460938 170.042969 L 66.53125 169.273438 L 66.628906 168.542969 L 66.753906 167.855469 L 66.902344 167.210938 L 67.082031 166.609375 L 67.289062 166.050781 L 67.523438 165.535156 L 67.785156 165.058594 L 68.074219 164.628906 L 68.390625 164.246094 L 68.730469 163.90625 L 69.097656 163.613281 L 69.488281 163.363281 L 69.90625 163.160156 L 70.351562 163.003906 L 70.824219 162.890625 L 71.320312 162.820312 Z M 71.839844 164.046875 L 71.105469 164.125 L 70.445312 164.351562 L 69.867188 164.738281 L 69.363281 165.273438 L 68.9375 165.964844 L 68.585938 166.808594 L 68.316406 167.804688 L 68.121094 168.957031 L 68.007812 170.257812 L 67.96875 171.714844 L 68.007812 173.179688 L 68.121094 174.488281 L 68.316406 175.640625 L 68.585938 176.640625 L 68.9375 177.488281 L 69.363281 178.179688 L 69.867188 178.71875 L 70.445312 179.105469 L 71.105469 179.335938 L 71.839844 179.414062 L 72.210938 179.394531 L 72.5625 179.335938 L 72.894531 179.242188 L 73.210938 179.113281 L 73.503906 178.945312 L 73.78125 178.738281 L 74.039062 178.496094 L 74.28125 178.214844 L 74.5 177.894531 L 74.703125 177.539062 L 74.890625 177.144531 L 75.058594 176.710938 L 75.207031 176.230469 L 75.332031 175.714844 L 75.441406 175.15625 L 75.53125 174.554688 L 75.601562 173.914062 L 75.648438 173.230469 L 75.679688 172.507812 L 75.691406 171.742188 L 75.679688 170.976562 L 75.648438 170.253906 L 75.601562 169.570312 L 75.53125 168.929688 L 75.441406 168.328125 L 75.332031 167.769531 L 75.207031 167.253906 L 75.058594 166.777344 L 74.890625 166.339844 L 74.703125 165.945312 L 74.5 165.582031 L 74.28125 165.261719 L 74.039062 164.976562 L 73.78125 164.730469 L 73.503906 164.519531 L 73.210938 164.351562 L 72.894531 164.21875 L 72.5625 164.121094 L 72.210938 164.066406 Z M 71.839844 164.046875 "/>
<path fill-rule="nonzero" fill="rgb(10.196078%, 10.196078%, 10.196078%)" fill-opacity="1" d="M 86.140625 162.796875 L 86.664062 162.820312 L 87.160156 162.890625 L 87.632812 163.003906 L 88.074219 163.164062 L 88.496094 163.371094 L 88.886719 163.621094 L 89.253906 163.917969 L 89.59375 164.261719 L 89.910156 164.652344 L 90.199219 165.085938 L 90.460938 165.558594 L 90.695312 166.078125 L 90.898438 166.636719 L 91.078125 167.238281 L 91.230469 167.882812 L 91.355469 168.570312 L 91.453125 169.296875 L 91.519531 170.070312 L 91.5625 170.886719 L 91.574219 171.742188 L 91.5625 172.59375 L 91.519531 173.40625 L 91.449219 174.175781 L 91.351562 174.902344 L 91.222656 175.589844 L 91.070312 176.234375 L 90.886719 176.839844 L 90.675781 177.398438 L 90.4375 177.921875 L 90.171875 178.398438 L 89.882812 178.828125 L 89.570312 179.210938 L 89.230469 179.550781 L 88.867188 179.847656 L 88.476562 180.09375 L 88.058594 180.296875 L 87.617188 180.457031 L 87.152344 180.570312 L 86.660156 180.636719 L 86.140625 180.660156 L 85.617188 180.636719 L 85.121094 180.570312 L 84.652344 180.457031 L 84.207031 180.296875 L 83.789062 180.09375 L 83.394531 179.847656 L 83.03125 179.550781 L 82.6875 179.210938 L 82.375 178.828125 L 82.085938 178.398438 L 81.824219 177.917969 L 81.589844 177.398438 L 81.382812 176.835938 L 81.203125 176.230469 L 81.050781 175.582031 L 80.929688 174.894531 L 80.832031 174.164062 L 80.761719 173.390625 L 80.722656 172.574219 L 80.707031 171.714844 L 80.722656 170.859375 L 80.761719 170.042969 L 80.832031 169.273438 L 80.929688 168.542969 L 81.050781 167.855469 L 81.203125 167.210938 L 81.382812 166.609375 L 81.589844 166.050781 L 81.824219 165.535156 L 82.085938 165.058594 L 82.375 164.628906 L 82.6875 164.246094 L 83.03125 163.90625 L 83.394531 163.613281 L 83.789062 163.363281 L 84.207031 163.160156 L 84.652344 163.003906 L 85.121094 162.890625 L 85.617188 162.820312 Z M 86.140625 164.046875 L 85.40625 164.125 L 84.746094 164.351562 L 84.164062 164.738281 L 83.664062 165.273438 L 83.234375 165.964844 L 82.886719 166.808594 L 82.617188 167.804688 L 82.421875 168.957031 L 82.304688 170.257812 L 82.265625 171.714844 L 82.304688 173.179688 L 82.421875 174.488281 L 82.617188 175.640625 L 82.886719 176.640625 L 83.234375 177.488281 L 83.664062 178.179688 L 84.164062 178.71875 L 84.746094 179.105469 L 85.40625 179.335938 L 86.140625 179.414062 L 86.511719 179.394531 L 86.863281 179.335938 L 87.195312 179.242188 L 87.511719 179.113281 L 87.804688 178.945312 L 88.082031 178.738281 L 88.339844 178.496094 L 88.578125 178.214844 L 88.800781 177.894531 L 89 177.539062 L 89.1875 177.144531 L 89.355469 176.710938 L 89.503906 176.230469 L 89.632812 175.714844 L 89.742188 175.15625 L 89.832031 174.554688 L 89.902344 173.914062 L 89.949219 173.230469 L 89.980469 172.507812 L 89.988281 171.742188 L 89.980469 170.976562 L 89.949219 170.253906 L 89.902344 169.570312 L 89.832031 168.929688 L 89.742188 168.328125 L 89.632812 167.769531 L 89.503906 167.253906 L 89.355469 166.777344 L 89.1875 166.339844 L 89 165.945312 L 88.800781 165.582031 L 88.578125 165.261719 L 88.339844 164.976562 L 88.082031 164.730469 L 87.804688 164.519531 L 87.511719 164.351562 L 87.195312 164.21875 L 86.863281 164.121094 L 86.511719 164.066406 Z M 86.140625 164.046875 "/>
<path fill-rule="nonzero" fill="rgb(10.196078%, 10.196078%, 10.196078%)" fill-opacity="1" d="M 53.433594 72.03125 L 53.433594 89.320312 L 51.925781 89.320312 L 51.925781 73.695312 L 47.660156 76.347656 L 46.960938 75.230469 L 52.132812 72.03125 Z M 53.433594 72.03125 "/>
<path fill-rule="nonzero" fill="rgb(10.196078%, 10.196078%, 10.196078%)" fill-opacity="1" d="M 63.730469 71.746094 L 64.253906 71.769531 L 64.75 71.835938 L 65.21875 71.953125 L 65.664062 72.113281 L 66.082031 72.316406 L 66.476562 72.570312 L 66.839844 72.867188 L 67.183594 73.210938 L 67.496094 73.597656 L 67.785156 74.035156 L 68.046875 74.507812 L 68.28125 75.023438 L 68.488281 75.582031 L 68.667969 76.183594 L 68.820312 76.828125 L 68.941406 77.515625 L 69.039062 78.246094 L 69.109375 79.015625 L 69.148438 79.832031 L 69.164062 80.6875 L 69.148438 81.542969 L 69.105469 82.351562 L 69.039062 83.121094 L 68.9375 83.851562 L 68.8125 84.539062 L 68.65625 85.183594 L 68.476562 85.785156 L 68.265625 86.347656 L 68.027344 86.867188 L 67.757812 87.34375 L 67.472656 87.773438 L 67.15625 88.160156 L 66.816406 88.5 L 66.453125 88.792969 L 66.0625 89.042969 L 65.648438 89.246094 L 65.207031 89.402344 L 64.738281 89.515625 L 64.246094 89.585938 L 63.730469 89.605469 L 63.207031 89.585938 L 62.710938 89.515625 L 62.238281 89.402344 L 61.796875 89.246094 L 61.375 89.042969 L 60.984375 88.792969 L 60.617188 88.5 L 60.277344 88.160156 L 59.960938 87.773438 L 59.671875 87.34375 L 59.410156 86.867188 L 59.175781 86.347656 L 58.972656 85.78125 L 58.792969 85.179688 L 58.640625 84.53125 L 58.515625 83.839844 L 58.417969 83.109375 L 58.351562 82.335938 L 58.308594 81.519531 L 58.296875 80.664062 L 58.308594 79.804688 L 58.351562 78.992188 L 58.417969 78.21875 L 58.515625 77.488281 L 58.640625 76.800781 L 58.792969 76.15625 L 58.972656 75.554688 L 59.175781 74.996094 L 59.410156 74.480469 L 59.671875 74.007812 L 59.960938 73.578125 L 60.277344 73.191406 L 60.617188 72.855469 L 60.984375 72.558594 L 61.375 72.3125 L 61.796875 72.105469 L 62.238281 71.949219 L 62.710938 71.835938 L 63.207031 71.769531 Z M 63.730469 72.992188 L 62.992188 73.070312 L 62.335938 73.300781 L 61.753906 73.683594 L 61.25 74.21875 L 60.824219 74.910156 L 60.476562 75.753906 L 60.203125 76.75 L 60.011719 77.902344 L 59.894531 79.207031 L 59.855469 80.664062 L 59.894531 82.125 L 60.011719 83.433594 L 60.203125 84.589844 L 60.476562 85.589844 L 60.824219 86.433594 L 61.25 87.128906 L 61.753906 87.667969 L 62.335938 88.050781 L 62.992188 88.28125 L 63.730469 88.359375 L 64.101562 88.339844 L 64.453125 88.285156 L 64.785156 88.191406 L 65.097656 88.058594 L 65.394531 87.890625 L 65.671875 87.683594 L 65.929688 87.441406 L 66.167969 87.160156 L 66.386719 86.84375 L 66.589844 86.488281 L 66.777344 86.09375 L 66.945312 85.65625 L 67.09375 85.179688 L 67.222656 84.660156 L 67.332031 84.101562 L 67.417969 83.5 L 67.488281 82.859375 L 67.539062 82.175781 L 67.566406 81.453125 L 67.578125 80.6875 L 67.566406 79.925781 L 67.539062 79.203125 L 67.488281 78.519531 L 67.417969 77.878906 L 67.332031 77.277344 L 67.222656 76.71875 L 67.09375 76.199219 L 66.945312 75.722656 L 66.777344 75.285156 L 66.589844 74.890625 L 66.386719 74.53125 L 66.167969 74.207031 L 65.929688 73.921875 L 65.671875 73.675781 L 65.394531 73.46875 L 65.097656 73.296875 L 64.785156 73.164062 L 64.453125 73.070312 L 64.101562 73.011719 Z M 63.730469 72.992188 "/>
<path fill-rule="nonzero" fill="rgb(10.196078%, 10.196078%, 10.196078%)" fill-opacity="1" d="M 78.03125 71.746094 L 78.550781 71.769531 L 79.046875 71.835938 L 79.519531 71.953125 L 79.964844 72.113281 L 80.382812 72.316406 L 80.773438 72.570312 L 81.140625 72.867188 L 81.480469 73.210938 L 81.796875 73.597656 L 82.085938 74.035156 L 82.347656 74.507812 L 82.582031 75.023438 L 82.789062 75.582031 L 82.96875 76.183594 L 83.117188 76.828125 L 83.242188 77.515625 L 83.339844 78.246094 L 83.410156 79.015625 L 83.449219 79.832031 L 83.464844 80.6875 L 83.449219 81.542969 L 83.40625 82.351562 L 83.335938 83.121094 L 83.238281 83.851562 L 83.113281 84.539062 L 82.957031 85.183594 L 82.777344 85.785156 L 82.566406 86.347656 L 82.328125 86.867188 L 82.058594 87.34375 L 81.769531 87.773438 L 81.457031 88.160156 L 81.117188 88.5 L 80.753906 88.792969 L 80.363281 89.042969 L 79.949219 89.246094 L 79.507812 89.402344 L 79.039062 89.515625 L 78.546875 89.585938 L 78.03125 89.605469 L 77.507812 89.585938 L 77.011719 89.515625 L 76.539062 89.402344 L 76.09375 89.246094 L 75.675781 89.042969 L 75.285156 88.792969 L 74.917969 88.5 L 74.578125 88.160156 L 74.261719 87.773438 L 73.972656 87.34375 L 73.710938 86.867188 L 73.476562 86.347656 L 73.269531 85.78125 L 73.089844 85.179688 L 72.941406 84.53125 L 72.816406 83.839844 L 72.71875 83.109375 L 72.652344 82.335938 L 72.609375 81.519531 L 72.59375 80.664062 L 72.609375 79.804688 L 72.652344 78.992188 L 72.71875 78.21875 L 72.816406 77.488281 L 72.941406 76.800781 L 73.089844 76.15625 L 73.269531 75.554688 L 73.476562 74.996094 L 73.710938 74.480469 L 73.972656 74.007812 L 74.261719 73.578125 L 74.578125 73.191406 L 74.917969 72.855469 L 75.285156 72.558594 L 75.675781 72.3125 L 76.09375 72.105469 L 76.539062 71.949219 L 77.011719 71.835938 L 77.507812 71.769531 Z M 78.03125 72.992188 L 77.292969 73.070312 L 76.636719 73.300781 L 76.054688 73.683594 L 75.550781 74.21875 L 75.125 74.910156 L 74.773438 75.753906 L 74.503906 76.75 L 74.308594 77.902344 L 74.195312 79.207031 L 74.15625 80.664062 L 74.195312 82.125 L 74.308594 83.433594 L 74.503906 84.589844 L 74.773438 85.589844 L 75.125 86.433594 L 75.550781 87.128906 L 76.054688 87.667969 L 76.636719 88.050781 L 77.292969 88.28125 L 78.03125 88.359375 L 78.398438 88.339844 L 78.75 88.285156 L 79.085938 88.191406 L 79.398438 88.058594 L 79.695312 87.890625 L 79.96875 87.683594 L 80.226562 87.441406 L 80.46875 87.160156 L 80.6875 86.84375 L 80.890625 86.488281 L 81.078125 86.09375 L 81.246094 85.65625 L 81.394531 85.179688 L 81.523438 84.660156 L 81.628906 84.101562 L 81.71875 83.5 L 81.789062 82.859375 L 81.839844 82.175781 L 81.867188 81.453125 L 81.878906 80.6875 L 81.867188 79.925781 L 81.839844 79.203125 L 81.789062 78.519531 L 81.71875 77.878906 L 81.628906 77.277344 L 81.523438 76.71875 L 81.394531 76.199219 L 81.246094 75.722656 L 81.078125 75.285156 L 80.890625 74.890625 L 80.6875 74.53125 L 80.46875 74.207031 L 80.226562 73.921875 L 79.96875 73.675781 L 79.695312 73.46875 L 79.398438 73.296875 L 79.085938 73.164062 L 78.75 73.070312 L 78.398438 73.011719 Z M 78.03125 72.992188 "/>
<path fill-rule="nonzero" fill="rgb(10.196078%, 10.196078%, 10.196078%)" fill-opacity="1" d="M 92.328125 71.746094 L 92.851562 71.769531 L 93.347656 71.835938 L 93.820312 71.953125 L 94.265625 72.113281 L 94.683594 72.316406 L 95.074219 72.570312 L 95.441406 72.867188 L 95.78125 73.210938 L 96.097656 73.597656 L 96.386719 74.035156 L 96.648438 74.507812 L 96.882812 75.023438 L 97.089844 75.582031 L 97.265625 76.183594 L 97.417969 76.828125 L 97.542969 77.515625 L 97.640625 78.246094 L 97.707031 79.015625 L 97.75 79.832031 L 97.761719 80.6875 L 97.75 81.542969 L 97.707031 82.351562 L 97.636719 83.121094 L 97.539062 83.851562 L 97.414062 84.539062 L 97.257812 85.183594 L 97.074219 85.785156 L 96.863281 86.347656 L 96.625 86.867188 L 96.359375 87.34375 L 96.070312 87.773438 L 95.757812 88.160156 L 95.417969 88.5 L 95.054688 88.792969 L 94.664062 89.042969 L 94.246094 89.246094 L 93.804688 89.402344 L 93.339844 89.515625 L 92.847656 89.585938 L 92.328125 89.605469 L 91.808594 89.585938 L 91.308594 89.515625 L 90.839844 89.402344 L 90.394531 89.246094 L 89.976562 89.042969 L 89.582031 88.792969 L 89.21875 88.5 L 88.875 88.160156 L 88.5625 87.773438 L 88.273438 87.34375 L 88.011719 86.867188 L 87.777344 86.347656 L 87.570312 85.78125 L 87.390625 85.179688 L 87.238281 84.53125 L 87.117188 83.839844 L 87.019531 83.109375 L 86.949219 82.335938 L 86.910156 81.519531 L 86.894531 80.664062 L 86.910156 79.804688 L 86.949219 78.992188 L 87.019531 78.21875 L 87.117188 77.488281 L 87.238281 76.800781 L 87.390625 76.15625 L 87.570312 75.554688 L 87.777344 74.996094 L 88.011719 74.480469 L 88.273438 74.007812 L 88.5625 73.578125 L 88.875 73.191406 L 89.21875 72.855469 L 89.582031 72.558594 L 89.976562 72.3125 L 90.394531 72.105469 L 90.839844 71.949219 L 91.308594 71.835938 L 91.808594 71.769531 Z M 92.328125 72.992188 L 91.59375 73.070312 L 90.933594 73.300781 L 90.355469 73.683594 L 89.851562 74.21875 L 89.425781 74.910156 L 89.074219 75.753906 L 88.804688 76.75 L 88.609375 77.902344 L 88.496094 79.207031 L 88.457031 80.664062 L 88.496094 82.125 L 88.609375 83.433594 L 88.804688 84.589844 L 89.074219 85.589844 L 89.425781 86.433594 L 89.851562 87.128906 L 90.355469 87.667969 L 90.933594 88.050781 L 91.59375 88.28125 L 92.328125 88.359375 L 92.699219 88.339844 L 93.050781 88.285156 L 93.382812 88.191406 L 93.699219 88.058594 L 93.992188 87.890625 L 94.269531 87.683594 L 94.527344 87.441406 L 94.765625 87.160156 L 94.988281 86.84375 L 95.191406 86.488281 L 95.378906 86.09375 L 95.546875 85.65625 L 95.695312 85.179688 L 95.820312 84.660156 L 95.929688 84.101562 L 96.019531 83.5 L 96.089844 82.859375 L 96.136719 82.175781 L 96.167969 81.453125 L 96.175781 80.6875 L 96.167969 79.925781 L 96.136719 79.203125 L 96.089844 78.519531 L 96.019531 77.878906 L 95.929688 77.277344 L 95.820312 76.71875 L 95.695312 76.199219 L 95.546875 75.722656 L 95.378906 75.285156 L 95.191406 74.890625 L 94.988281 74.53125 L 94.765625 74.207031 L 94.527344 73.921875 L 94.269531 73.675781 L 93.992188 73.46875 L 93.699219 73.296875 L 93.382812 73.164062 L 93.050781 73.070312 L 92.699219 73.011719 Z M 92.328125 72.992188 "/>
<path fill-rule="nonzero" fill="rgb(10.196078%, 10.196078%, 10.196078%)" fill-opacity="1" d="M 298.9375 307.386719 L 297.378906 302.523438 L 289.890625 302.523438 L 288.332031 307.386719 L 286.746094 307.386719 L 292.699219 289.578125 L 294.648438 289.578125 L 300.578125 307.386719 Z M 290.332031 301.199219 L 296.964844 301.199219 L 293.660156 290.851562 Z M 290.332031 301.199219 "/>
<path fill-rule="nonzero" fill="rgb(10.196078%, 10.196078%, 10.196078%)" fill-opacity="1" d="M 598.671875 297.949219 L 599.03125 298 L 599.375 298.066406 L 599.703125 298.152344 L 600.019531 298.257812 L 600.324219 298.378906 L 600.613281 298.515625 L 600.890625 298.671875 L 601.152344 298.847656 L 601.402344 299.039062 L 601.636719 299.25 L 601.855469 299.472656 L 602.046875 299.71875 L 602.21875 299.984375 L 602.367188 300.273438 L 602.496094 300.582031 L 602.597656 300.914062 L 602.675781 301.265625 L 602.734375 301.636719 L 602.769531 302.03125 L 602.78125 302.449219 L 602.761719 302.933594 L 602.714844 303.394531 L 602.628906 303.832031 L 602.511719 304.242188 L 602.359375 304.625 L 602.171875 304.984375 L 601.953125 305.316406 L 601.699219 305.625 L 601.410156 305.90625 L 601.089844 306.164062 L 600.738281 306.398438 L 600.363281 306.605469 L 599.957031 306.789062 L 599.527344 306.949219 L 599.070312 307.082031 L 598.585938 307.191406 L 598.074219 307.277344 L 597.539062 307.339844 L 596.972656 307.375 L 596.382812 307.386719 L 591.523438 307.386719 L 591.523438 289.578125 L 595.5 289.578125 L 596.105469 289.589844 L 596.679688 289.621094 L 597.226562 289.679688 L 597.746094 289.757812 L 598.238281 289.855469 L 598.699219 289.980469 L 599.132812 290.125 L 599.535156 290.292969 L 599.910156 290.484375 L 600.257812 290.695312 L 600.578125 290.929688 L 600.867188 291.1875 L 601.121094 291.464844 L 601.339844 291.765625 L 601.527344 292.085938 L 601.679688 292.429688 L 601.796875 292.796875 L 601.882812 293.183594 L 601.929688 293.59375 L 601.949219 294.023438 L 601.9375 294.34375 L 601.914062 294.652344 L 601.867188 294.949219 L 601.804688 295.234375 L 601.722656 295.503906 L 601.621094 295.765625 L 601.503906 296.011719 L 601.367188 296.246094 L 601.210938 296.464844 L 601.039062 296.675781 L 600.855469 296.871094 L 600.660156 297.050781 L 600.453125 297.214844 L 600.234375 297.367188 L 600.003906 297.5 L 599.761719 297.621094 L 599.507812 297.726562 L 599.242188 297.816406 L 598.964844 297.890625 Z M 593.082031 290.878906 L 593.082031 297.402344 L 596.671875 297.402344 L 596.996094 297.394531 L 597.308594 297.367188 L 597.609375 297.324219 L 597.898438 297.265625 L 598.171875 297.1875 L 598.433594 297.09375 L 598.679688 296.984375 L 598.917969 296.855469 L 599.140625 296.707031 L 599.347656 296.546875 L 599.542969 296.363281 L 599.714844 296.164062 L 599.867188 295.957031 L 599.996094 295.734375 L 600.109375 295.5 L 600.199219 295.25 L 600.269531 294.988281 L 600.320312 294.714844 L 600.351562 294.425781 L 600.363281 294.128906 L 600.351562 293.789062 L 600.316406 293.46875 L 600.253906 293.171875 L 600.171875 292.890625 L 600.0625 292.632812 L 599.933594 292.394531 L 599.777344 292.171875 L 599.597656 291.972656 L 599.394531 291.792969 L 599.167969 291.632812 L 598.921875 291.488281 L 598.652344 291.359375 L 598.359375 291.246094 L 598.042969 291.148438 L 597.703125 291.066406 L 597.339844 290.996094 L 596.957031 290.945312 L 596.546875 290.90625 L 596.113281 290.886719 L 595.65625 290.878906 Z M 596.382812 306.085938 L 597.292969 306.050781 L 598.105469 305.941406 L 598.824219 305.757812 L 599.445312 305.503906 L 599.972656 305.175781 L 600.402344 304.777344 L 600.738281 304.304688 L 600.976562 303.757812 L 601.121094 303.140625 L 601.167969 302.449219 L 601.15625 302.074219 L 601.121094 301.71875 L 601.0625 301.382812 L 600.976562 301.066406 L 600.871094 300.769531 L 600.738281 300.496094 L 600.582031 300.238281 L 600.402344 300 L 600.199219 299.785156 L 599.972656 299.585938 L 599.730469 299.410156 L 599.472656 299.25 L 599.199219 299.109375 L 598.910156 298.988281 L 598.609375 298.886719 L 598.289062 298.800781 L 597.953125 298.734375 L 597.601562 298.6875 L 597.234375 298.660156 L 596.851562 298.652344 L 593.082031 298.652344 L 593.082031 306.085938 Z M 596.382812 306.085938 "/>
<path fill-rule="nonzero" fill="rgb(0%, 0%, 0%)" fill-opacity="1" d="M 24.53125 175.164062 L 24.53125 179 L 33.128906 179 L 33.128906 180.679688 L 13.949219 180.679688 L 13.949219 176.03125 L 14 174.734375 L 14.15625 173.570312 L 14.417969 172.546875 L 14.78125 171.660156 L 15.25 170.90625 L 15.824219 170.292969 L 16.5 169.8125 L 17.28125 169.472656 L 18.167969 169.269531 L 19.15625 169.199219 L 19.5625 169.210938 L 19.949219 169.242188 L 20.324219 169.296875 L 20.679688 169.375 L 21.019531 169.472656 L 21.339844 169.59375 L 21.644531 169.734375 L 21.933594 169.898438 L 22.203125 170.085938 L 22.460938 170.292969 L 22.699219 170.519531 L 22.925781 170.769531 L 23.136719 171.039062 L 23.332031 171.328125 L 23.515625 171.636719 L 23.6875 171.964844 L 23.839844 172.3125 L 23.984375 172.683594 L 24.109375 173.074219 L 24.222656 173.484375 L 33.128906 168.21875 L 33.128906 170.207031 Z M 23.160156 175.808594 L 23.121094 174.890625 L 23 174.074219 L 22.800781 173.351562 L 22.519531 172.726562 L 22.160156 172.195312 L 21.71875 171.761719 L 21.199219 171.425781 L 20.597656 171.183594 L 19.917969 171.039062 L 19.15625 170.992188 L 18.773438 171.003906 L 18.414062 171.039062 L 18.074219 171.101562 L 17.753906 171.183594 L 17.453125 171.292969 L 17.175781 171.425781 L 16.917969 171.582031 L 16.683594 171.761719 L 16.46875 171.964844 L 16.273438 172.195312 L 16.089844 172.453125 L 15.929688 172.738281 L 15.785156 173.050781 L 15.664062 173.394531 L 15.558594 173.769531 L 15.472656 174.175781 L 15.40625 174.609375 L 15.359375 175.070312 L 15.328125 175.566406 L 15.320312 176.085938 L 15.320312 179 L 23.160156 179 Z M 23.160156 175.808594 "/>
<path fill-rule="nonzero" fill="rgb(0%, 0%, 0%)" fill-opacity="1" d="M 25.257812 153.910156 L 25.382812 153.910156 L 25.625 153.917969 L 25.742188 153.921875 L 25.863281 153.925781 L 25.980469 153.933594 L 26.09375 153.9375 L 26.210938 153.949219 L 26.324219 153.957031 L 26.4375 153.96875 L 26.4375 163.738281 L 26.992188 163.699219 L 27.519531 163.640625 L 28.019531 163.558594 L 28.488281 163.457031 L 28.925781 163.332031 L 29.339844 163.1875 L 29.71875 163.023438 L 30.074219 162.835938 L 30.398438 162.625 L 30.691406 162.394531 L 30.953125 162.140625 L 31.1875 161.871094 L 31.390625 161.589844 L 31.570312 161.289062 L 31.71875 160.972656 L 31.84375 160.644531 L 31.941406 160.300781 L 32.007812 159.941406 L 32.050781 159.566406 L 32.0625 159.175781 L 32.058594 158.949219 L 32.050781 158.726562 L 32.035156 158.511719 L 32.011719 158.300781 L 31.980469 158.097656 L 31.941406 157.898438 L 31.898438 157.707031 L 31.847656 157.519531 L 31.792969 157.335938 L 31.726562 157.160156 L 31.652344 156.980469 L 31.566406 156.796875 L 31.472656 156.609375 L 31.375 156.421875 L 31.265625 156.230469 L 31.148438 156.035156 L 31.027344 155.835938 L 30.894531 155.636719 L 30.753906 155.433594 L 30.609375 155.226562 L 31.644531 154.472656 L 31.820312 154.691406 L 31.984375 154.910156 L 32.140625 155.132812 L 32.289062 155.355469 L 32.425781 155.578125 L 32.558594 155.800781 L 32.679688 156.027344 L 32.789062 156.253906 L 32.894531 156.484375 L 32.988281 156.710938 L 33.074219 156.945312 L 33.148438 157.179688 L 33.214844 157.421875 L 33.273438 157.671875 L 33.324219 157.921875 L 33.363281 158.179688 L 33.394531 158.441406 L 33.417969 158.710938 L 33.429688 158.980469 L 33.4375 159.257812 L 33.414062 159.828125 L 33.355469 160.375 L 33.257812 160.894531 L 33.117188 161.386719 L 32.9375 161.855469 L 32.71875 162.300781 L 32.460938 162.71875 L 32.164062 163.113281 L 31.824219 163.480469 L 31.449219 163.824219 L 31.035156 164.136719 L 30.589844 164.417969 L 30.117188 164.667969 L 29.609375 164.878906 L 29.074219 165.0625 L 28.507812 165.210938 L 27.910156 165.328125 L 27.28125 165.410156 L 26.621094 165.460938 L 25.933594 165.476562 L 25.472656 165.46875 L 25.027344 165.449219 L 24.589844 165.414062 L 24.167969 165.363281 L 23.753906 165.300781 L 23.355469 165.222656 L 22.964844 165.132812 L 22.589844 165.027344 L 22.226562 164.910156 L 21.871094 164.777344 L 21.527344 164.625 L 21.199219 164.460938 L 20.886719 164.285156 L 20.589844 164.097656 L 20.3125 163.902344 L 20.046875 163.691406 L 19.800781 163.46875 L 19.570312 163.234375 L 19.355469 162.988281 L 19.15625 162.730469 L 18.96875 162.457031 L 18.804688 162.175781 L 18.65625 161.886719 L 18.527344 161.589844 L 18.421875 161.28125 L 18.332031 160.96875 L 18.265625 160.644531 L 18.214844 160.3125 L 18.183594 159.972656 L 18.175781 159.625 L 18.195312 159.078125 L 18.25 158.558594 L 18.347656 158.066406 L 18.480469 157.597656 L 18.652344 157.160156 L 18.859375 156.746094 L 19.109375 156.363281 L 19.394531 156.003906 L 19.71875 155.671875 L 20.078125 155.367188 L 20.46875 155.089844 L 20.886719 154.84375 L 21.332031 154.625 L 21.808594 154.4375 L 22.3125 154.277344 L 22.84375 154.144531 L 23.40625 154.042969 L 23.996094 153.96875 L 24.613281 153.925781 Z M 24.753906 155.507812 L 24.273438 155.519531 L 23.8125 155.550781 L 23.375 155.601562 L 22.960938 155.671875 L 22.566406 155.765625 L 22.191406 155.878906 L 21.839844 156.015625 L 21.511719 156.171875 L 21.203125 156.347656 L 20.917969 156.542969 L 20.652344 156.753906 L 20.414062 156.988281 L 20.207031 157.238281 L 20.023438 157.511719 L 19.871094 157.804688 L 19.742188 158.117188 L 19.644531 158.449219 L 19.574219 158.800781 L 19.535156 159.175781 L 19.519531 159.566406 L 19.535156 159.925781 L 19.574219 160.265625 L 19.644531 160.597656 L 19.742188 160.910156 L 19.871094 161.210938 L 20.023438 161.5 L 20.207031 161.773438 L 20.414062 162.03125 L 20.652344 162.277344 L 20.917969 162.507812 L 21.214844 162.722656 L 21.539062 162.914062 L 21.890625 163.089844 L 22.273438 163.242188 L 22.683594 163.375 L 23.125 163.488281 L 23.59375 163.582031 L 24.089844 163.65625 L 24.617188 163.707031 L 25.175781 163.738281 L 25.175781 155.507812 Z M 24.753906 155.507812 "/>
<path fill-rule="nonzero" fill="rgb(0%, 0%, 0%)" fill-opacity="1" d="M 18.175781 142.824219 L 18.1875 142.433594 L 18.222656 142.066406 L 18.28125 141.714844 L 18.363281 141.386719 L 18.46875 141.074219 L 18.597656 140.78125 L 18.75 140.507812 L 18.929688 140.253906 L 19.128906 140.015625 L 19.351562 139.800781 L 19.597656 139.597656 L 19.859375 139.417969 L 20.144531 139.257812 L 20.445312 139.117188 L 20.765625 139 L 21.105469 138.90625 L 21.464844 138.832031 L 21.84375 138.777344 L 22.238281 138.746094 L 22.65625 138.734375 L 33.128906 138.734375 L 33.128906 140.359375 L 22.878906 140.359375 L 22.535156 140.367188 L 22.210938 140.386719 L 21.90625 140.421875 L 21.621094 140.472656 L 21.355469 140.535156 L 21.105469 140.613281 L 20.875 140.703125 L 20.667969 140.808594 L 20.476562 140.925781 L 20.304688 141.058594 L 20.148438 141.207031 L 20.011719 141.367188 L 19.890625 141.539062 L 19.785156 141.726562 L 19.695312 141.925781 L 19.621094 142.140625 L 19.566406 142.367188 L 19.523438 142.609375 L 19.5 142.863281 L 19.492188 143.132812 L 19.5 143.410156 L 19.523438 143.679688 L 19.5625 143.945312 L 19.617188 144.203125 L 19.6875 144.453125 L 19.773438 144.699219 L 19.875 144.941406 L 19.992188 145.175781 L 20.125 145.402344 L 20.277344 145.625 L 20.433594 145.835938 L 20.605469 146.046875 L 20.792969 146.253906 L 20.996094 146.460938 L 21.214844 146.667969 L 21.445312 146.871094 L 21.691406 147.070312 L 21.953125 147.273438 L 22.226562 147.46875 L 22.515625 147.667969 L 33.128906 147.667969 L 33.128906 149.292969 L 18.484375 149.292969 L 18.484375 147.890625 L 20.976562 147.722656 L 20.71875 147.539062 L 20.472656 147.351562 L 20.238281 147.15625 L 20.015625 146.953125 L 19.808594 146.742188 L 19.609375 146.527344 L 19.421875 146.304688 L 19.246094 146.074219 L 19.082031 145.839844 L 18.933594 145.59375 L 18.789062 145.347656 L 18.660156 145.089844 L 18.546875 144.828125 L 18.449219 144.5625 L 18.363281 144.285156 L 18.296875 144.007812 L 18.242188 143.71875 L 18.207031 143.425781 L 18.183594 143.128906 Z M 18.175781 142.824219 "/>
<path fill-rule="nonzero" fill="rgb(0%, 0%, 0%)" fill-opacity="1" d="M 12.519531 122.496094 L 33.128906 122.496094 L 33.128906 123.894531 L 30.886719 124.089844 L 31.371094 124.40625 L 31.804688 124.75 L 32.1875 125.121094 L 32.519531 125.519531 L 32.796875 125.945312 L 33.027344 126.398438 L 33.207031 126.878906 L 33.332031 127.390625 L 33.410156 127.925781 L 33.4375 128.488281 L 33.414062 128.988281 L 33.355469 129.464844 L 33.253906 129.921875 L 33.113281 130.355469 L 32.933594 130.769531 L 32.710938 131.160156 L 32.449219 131.535156 L 32.144531 131.882812 L 31.804688 132.210938 L 31.417969 132.519531 L 30.996094 132.796875 L 30.542969 133.042969 L 30.0625 133.261719 L 29.550781 133.453125 L 29.011719 133.613281 L 28.441406 133.742188 L 27.84375 133.84375 L 27.21875 133.917969 L 26.5625 133.960938 L 25.875 133.976562 L 25.425781 133.96875 L 24.988281 133.949219 L 24.5625 133.914062 L 24.144531 133.867188 L 23.742188 133.808594 L 23.34375 133.734375 L 22.960938 133.644531 L 22.585938 133.546875 L 22.222656 133.429688 L 21.871094 133.304688 L 21.53125 133.15625 L 21.207031 133 L 20.898438 132.832031 L 20.605469 132.648438 L 20.324219 132.457031 L 20.0625 132.25 L 19.8125 132.035156 L 19.578125 131.808594 L 19.359375 131.566406 L 19.15625 131.316406 L 18.96875 131.046875 L 18.804688 130.769531 L 18.65625 130.484375 L 18.527344 130.191406 L 18.421875 129.886719 L 18.332031 129.574219 L 18.265625 129.253906 L 18.214844 128.921875 L 18.183594 128.582031 L 18.175781 128.234375 L 18.195312 127.746094 L 18.253906 127.273438 L 18.355469 126.820312 L 18.492188 126.378906 L 18.671875 125.960938 L 18.890625 125.558594 L 19.148438 125.171875 L 19.449219 124.804688 L 19.785156 124.453125 L 20.164062 124.121094 L 12.324219 124.121094 Z M 32.089844 128.234375 L 32.085938 127.960938 L 32.066406 127.695312 L 32.03125 127.4375 L 31.984375 127.1875 L 31.921875 126.949219 L 31.851562 126.71875 L 31.761719 126.496094 L 31.660156 126.28125 L 31.546875 126.078125 L 31.417969 125.882812 L 31.277344 125.691406 L 31.121094 125.5 L 30.953125 125.3125 L 30.769531 125.132812 L 30.574219 124.953125 L 30.359375 124.777344 L 30.136719 124.609375 L 29.898438 124.441406 L 29.644531 124.277344 L 29.375 124.121094 L 21.730469 124.121094 L 21.3125 124.441406 L 20.933594 124.773438 L 20.605469 125.125 L 20.316406 125.484375 L 20.074219 125.863281 L 19.875 126.253906 L 19.71875 126.65625 L 19.609375 127.078125 L 19.542969 127.507812 L 19.519531 127.957031 L 19.535156 128.34375 L 19.585938 128.71875 L 19.667969 129.074219 L 19.785156 129.417969 L 19.933594 129.742188 L 20.113281 130.046875 L 20.328125 130.339844 L 20.578125 130.617188 L 20.859375 130.875 L 21.171875 131.121094 L 21.515625 131.335938 L 21.886719 131.53125 L 22.285156 131.703125 L 22.710938 131.851562 L 23.167969 131.972656 L 23.648438 132.074219 L 24.15625 132.152344 L 24.691406 132.203125 L 25.257812 132.234375 L 25.847656 132.238281 L 26.4375 132.230469 L 27 132.195312 L 27.535156 132.144531 L 28.042969 132.070312 L 28.523438 131.972656 L 28.972656 131.855469 L 29.394531 131.71875 L 29.789062 131.558594 L 30.15625 131.378906 L 30.496094 131.175781 L 30.800781 130.953125 L 31.070312 130.71875 L 31.308594 130.464844 L 31.515625 130.195312 L 31.691406 129.910156 L 31.835938 129.605469 L 31.949219 129.289062 L 32.027344 128.953125 L 32.074219 128.601562 Z M 32.089844 128.234375 "/>
<path fill-rule="nonzero" fill="rgb(0%, 0%, 0%)" fill-opacity="1" d="M 29.878906 107.460938 L 30.101562 107.457031 L 30.3125 107.449219 L 30.511719 107.433594 L 30.695312 107.414062 L 30.867188 107.390625 L 31.027344 107.359375 L 31.171875 107.324219 L 31.304688 107.28125 L 31.425781 107.234375 L 31.53125 107.179688 L 31.628906 107.113281 L 31.722656 107.042969 L 31.8125 106.964844 L 31.894531 106.878906 L 31.972656 106.789062 L 32.046875 106.6875 L 32.113281 106.582031 L 32.175781 106.472656 L 32.234375 106.351562 L 32.289062 106.226562 L 33.4375 106.589844 L 33.394531 106.789062 L 33.34375 106.976562 L 33.285156 107.15625 L 33.21875 107.328125 L 33.148438 107.488281 L 33.070312 107.640625 L 32.984375 107.785156 L 32.890625 107.917969 L 32.789062 108.042969 L 32.679688 108.160156 L 32.5625 108.261719 L 32.433594 108.359375 L 32.289062 108.445312 L 32.136719 108.527344 L 31.972656 108.601562 L 31.796875 108.667969 L 31.609375 108.726562 L 31.40625 108.777344 L 31.195312 108.824219 L 30.972656 108.859375 L 31.441406 109.175781 L 31.859375 109.527344 L 32.226562 109.90625 L 32.546875 110.316406 L 32.820312 110.757812 L 33.042969 111.226562 L 33.214844 111.730469 L 33.335938 112.265625 L 33.410156 112.828125 L 33.4375 113.421875 L 33.425781 113.835938 L 33.386719 114.230469 L 33.328125 114.605469 L 33.246094 114.964844 L 33.140625 115.304688 L 33.011719 115.632812 L 32.859375 115.9375 L 32.683594 116.226562 L 32.484375 116.5 L 32.257812 116.753906 L 32.011719 116.984375 L 31.746094 117.1875 L 31.464844 117.371094 L 31.171875 117.527344 L 30.859375 117.660156 L 30.53125 117.765625 L 30.191406 117.851562 L 29.832031 117.910156 L 29.457031 117.949219 L 29.066406 117.960938 L 28.625 117.945312 L 28.203125 117.894531 L 27.800781 117.816406 L 27.417969 117.703125 L 27.058594 117.558594 L 26.71875 117.386719 L 26.398438 117.175781 L 26.101562 116.9375 L 25.824219 116.667969 L 25.566406 116.363281 L 25.332031 116.027344 L 25.125 115.664062 L 24.9375 115.277344 L 24.777344 114.867188 L 24.644531 114.429688 L 24.53125 113.972656 L 24.445312 113.484375 L 24.386719 112.976562 L 24.347656 112.441406 L 24.335938 111.882812 L 24.335938 109.082031 L 22.90625 109.082031 L 22.566406 109.089844 L 22.242188 109.113281 L 21.9375 109.152344 L 21.652344 109.207031 L 21.390625 109.28125 L 21.144531 109.367188 L 20.917969 109.46875 L 20.710938 109.585938 L 20.527344 109.71875 L 20.359375 109.867188 L 20.207031 110.035156 L 20.066406 110.222656 L 19.945312 110.429688 L 19.839844 110.660156 L 19.75 110.910156 L 19.675781 111.179688 L 19.621094 111.472656 L 19.582031 111.785156 L 19.554688 112.117188 L 19.546875 112.472656 L 19.554688 112.8125 L 19.582031 113.167969 L 19.625 113.535156 L 19.683594 113.914062 L 19.757812 114.304688 L 19.851562 114.710938 L 19.960938 115.125 L 20.085938 115.554688 L 20.226562 115.996094 L 20.386719 116.449219 L 19.15625 116.867188 L 18.96875 116.378906 L 18.804688 115.894531 L 18.65625 115.417969 L 18.527344 114.945312 L 18.421875 114.480469 L 18.332031 114.023438 L 18.265625 113.570312 L 18.214844 113.121094 L 18.183594 112.683594 L 18.175781 112.246094 L 18.222656 111.335938 L 18.363281 110.523438 L 18.59375 109.804688 L 18.917969 109.183594 L 19.335938 108.65625 L 19.847656 108.226562 L 20.453125 107.890625 L 21.152344 107.652344 L 21.941406 107.507812 L 22.824219 107.460938 Z M 32.121094 113.144531 L 32.09375 112.628906 L 32.015625 112.140625 L 31.886719 111.671875 L 31.707031 111.230469 L 31.476562 110.8125 L 31.191406 110.417969 L 30.859375 110.046875 L 30.472656 109.703125 L 30.03125 109.382812 L 29.542969 109.082031 L 25.511719 109.082031 L 25.511719 111.632812 L 25.519531 112.070312 L 25.546875 112.484375 L 25.589844 112.878906 L 25.652344 113.253906 L 25.730469 113.605469 L 25.824219 113.9375 L 25.9375 114.246094 L 26.066406 114.535156 L 26.214844 114.800781 L 26.378906 115.046875 L 26.5625 115.269531 L 26.761719 115.472656 L 26.980469 115.648438 L 27.214844 115.800781 L 27.464844 115.929688 L 27.734375 116.035156 L 28.019531 116.117188 L 28.324219 116.175781 L 28.644531 116.210938 L 28.984375 116.222656 L 29.277344 116.214844 L 29.558594 116.191406 L 29.828125 116.152344 L 30.082031 116.09375 L 30.320312 116.019531 L 30.546875 115.929688 L 30.757812 115.824219 L 30.953125 115.703125 L 31.136719 115.566406 L 31.308594 115.410156 L 31.460938 115.242188 L 31.601562 115.0625 L 31.722656 114.867188 L 31.828125 114.660156 L 31.917969 114.4375 L 31.988281 114.207031 L 32.046875 113.960938 L 32.085938 113.699219 L 32.113281 113.429688 Z M 32.121094 113.144531 "/>
</svg>
