<?xml version="1.0" encoding="UTF-8"?>
<svg xmlns="http://www.w3.org/2000/svg" xmlns:xlink="http://www.w3.org/1999/xlink" width="792pt" height="489pt" viewBox="0 0 792 489">
<defs>
<clipPath id="clip-0">
<path clip-rule="nonzero" d="M 40.800781 13.949219 L 778.050781 13.949219 L 778.050781 439.359375 L 40.800781 439.359375 Z M 40.800781 13.949219 "/>
</clipPath>
<clipPath id="clip-1">
<path clip-rule="nonzero" d="M 40.800781 418 L 778.050781 418 L 778.050781 422 L 40.800781 422 Z M 40.800781 418 "/>
</clipPath>
<clipPath id="clip-2">
<path clip-rule="nonzero" d="M 40.800781 341 L 778.050781 341 L 778.050781 345 L 40.800781 345 Z M 40.800781 341 "/>
</clipPath>
<clipPath id="clip-3">
<path clip-rule="nonzero" d="M 40.800781 263 L 778.050781 263 L 778.050781 267 L 40.800781 267 Z M 40.800781 263 "/>
</clipPath>
<clipPath id="clip-4">
<path clip-rule="nonzero" d="M 40.800781 186 L 778.050781 186 L 778.050781 190 L 40.800781 190 Z M 40.800781 186 "/>
</clipPath>
<clipPath id="clip-5">
<path clip-rule="nonzero" d="M 40.800781 109 L 778.050781 109 L 778.050781 112 L 40.800781 112 Z M 40.800781 109 "/>
</clipPath>
<clipPath id="clip-6">
<path clip-rule="nonzero" d="M 40.800781 31 L 778.050781 31 L 778.050781 35 L 40.800781 35 Z M 40.800781 31 "/>
</clipPath>
<clipPath id="clip-7">
<path clip-rule="nonzero" d="M 150 13.949219 L 154 13.949219 L 154 439.359375 L 150 439.359375 Z M 150 13.949219 "/>
</clipPath>
<clipPath id="clip-8">
<path clip-rule="nonzero" d="M 322 13.949219 L 325 13.949219 L 325 439.359375 L 322 439.359375 Z M 322 13.949219 "/>
</clipPath>
<clipPath id="clip-9">
<path clip-rule="nonzero" d="M 493 13.949219 L 497 13.949219 L 497 439.359375 L 493 439.359375 Z M 493 13.949219 "/>
</clipPath>
<clipPath id="clip-10">
<path clip-rule="nonzero" d="M 665 13.949219 L 669 13.949219 L 669 439.359375 L 665 439.359375 Z M 665 13.949219 "/>
</clipPath>
</defs>
<rect x="-79.2" y="-48.9" width="950.4" height="586.8" fill="rgb(100%, 100%, 100%)" fill-opacity="1"/>
<rect x="-79.2" y="-48.9" width="950.4" height="586.8" fill="rgb(95.294118%, 95.294118%, 95.294118%)" fill-opacity="1"/>
<path fill="none" stroke-width="2.715945" stroke-linecap="round" stroke-linejoin="round" stroke="rgb(95.294118%, 95.294118%, 95.294118%)" stroke-opacity="1" stroke-miterlimit="10" d="M 0 489 L 792 489 L 792 0 L 0 0 Z M 0 489 "/>
<g clip-path="url(#clip-0)">
<path fill-rule="nonzero" fill="rgb(95.294118%, 95.294118%, 95.294118%)" fill-opacity="1" stroke-width="2.715945" stroke-linecap="round" stroke-linejoin="round" stroke="rgb(95.294118%, 95.294118%, 95.294118%)" stroke-opacity="1" stroke-miterlimit="10" d="M 40.800781 439.359375 L 778.050781 439.359375 L 778.050781 13.949219 L 40.800781 13.949219 Z M 40.800781 439.359375 "/>
</g>
<g clip-path="url(#clip-1)">
<path fill="none" stroke-width="2.715945" stroke-linecap="butt" stroke-linejoin="round" stroke="rgb(92.156863%, 92.156863%, 92.156863%)" stroke-opacity="1" stroke-miterlimit="10" d="M 40.800781 420.023438 L 778.050781 420.023438 "/>
</g>
<g clip-path="url(#clip-2)">
<path fill="none" stroke-width="2.715945" stroke-linecap="butt" stroke-linejoin="round" stroke="rgb(92.156863%, 92.156863%, 92.156863%)" stroke-opacity="1" stroke-miterlimit="10" d="M 40.800781 342.675781 L 778.050781 342.675781 "/>
</g>
<g clip-path="url(#clip-3)">
<path fill="none" stroke-width="2.715945" stroke-linecap="butt" stroke-linejoin="round" stroke="rgb(92.156863%, 92.156863%, 92.156863%)" stroke-opacity="1" stroke-miterlimit="10" d="M 40.800781 265.328125 L 778.050781 265.328125 "/>
</g>
<g clip-path="url(#clip-4)">
<path fill="none" stroke-width="2.715945" stroke-linecap="butt" stroke-linejoin="round" stroke="rgb(92.156863%, 92.156863%, 92.156863%)" stroke-opacity="1" stroke-miterlimit="10" d="M 40.800781 187.980469 L 778.050781 187.980469 "/>
</g>
<g clip-path="url(#clip-5)">
<path fill="none" stroke-width="2.715945" stroke-linecap="butt" stroke-linejoin="round" stroke="rgb(92.156863%, 92.156863%, 92.156863%)" stroke-opacity="1" stroke-miterlimit="10" d="M 40.800781 110.632812 L 778.050781 110.632812 "/>
</g>
<g clip-path="url(#clip-6)">
<path fill="none" stroke-width="2.715945" stroke-linecap="butt" stroke-linejoin="round" stroke="rgb(92.156863%, 92.156863%, 92.156863%)" stroke-opacity="1" stroke-miterlimit="10" d="M 40.800781 33.285156 L 778.050781 33.285156 "/>
</g>
<g clip-path="url(#clip-7)">
<path fill="none" stroke-width="2.715945" stroke-linecap="butt" stroke-linejoin="round" stroke="rgb(92.156863%, 92.156863%, 92.156863%)" stroke-opacity="1" stroke-miterlimit="10" d="M 151.644531 439.359375 L 151.644531 13.949219 "/>
</g>
<g clip-path="url(#clip-8)">
<path fill="none" stroke-width="2.715945" stroke-linecap="butt" stroke-linejoin="round" stroke="rgb(92.156863%, 92.156863%, 92.156863%)" stroke-opacity="1" stroke-miterlimit="10" d="M 323.5 439.359375 L 323.5 13.949219 "/>
</g>
<g clip-path="url(#clip-9)">
<path fill="none" stroke-width="2.715945" stroke-linecap="butt" stroke-linejoin="round" stroke="rgb(92.156863%, 92.156863%, 92.156863%)" stroke-opacity="1" stroke-miterlimit="10" d="M 495.351562 439.359375 L 495.351562 13.949219 "/>
</g>
<g clip-path="url(#clip-10)">
<path fill="none" stroke-width="2.715945" stroke-linecap="butt" stroke-linejoin="round" stroke="rgb(92.156863%, 92.156863%, 92.156863%)" stroke-opacity="1" stroke-miterlimit="10" d="M 667.207031 439.359375 L 667.207031 13.949219 "/>
</g>
<path fill-rule="nonzero" fill="rgb(56.078431%, 16.470588%, 26.27451%)" fill-opacity="1" d="M 74.3125 420.023438 L 228.980469 420.023438 L 228.980469 187.980469 L 74.3125 187.980469 Z M 74.3125 420.023438 "/>
<path fill-rule="nonzero" fill="rgb(56.078431%, 16.470588%, 26.27451%)" fill-opacity="1" d="M 246.164062 420.023438 L 400.832031 420.023438 L 400.832031 342.675781 L 246.164062 342.675781 Z M 246.164062 420.023438 "/>
<path fill-rule="nonzero" fill="rgb(56.078431%, 16.470588%, 26.27451%)" fill-opacity="1" d="M 418.019531 420.023438 L 572.6875 420.023438 L 572.6875 33.285156 L 418.019531 33.285156 Z M 418.019531 420.023438 "/>
<path fill-rule="nonzero" fill="rgb(56.078431%, 16.470588%, 26.27451%)" fill-opacity="1" d="M 589.871094 420.023438 L 744.539062 420.023438 L 744.539062 33.285156 L 589.871094 33.285156 Z M 589.871094 420.023438 "/>
<path fill-rule="nonzero" fill="rgb(10.196078%, 10.196078%, 10.196078%)" fill-opacity="1" d="M 21.097656 411.351562 L 21.621094 411.375 L 22.117188 411.441406 L 22.585938 411.558594 L 23.03125 411.71875 L 23.449219 411.921875 L 23.84375 412.175781 L 24.210938 412.472656 L 24.550781 412.816406 L 24.863281 413.203125 L 25.152344 413.640625 L 25.414062 414.113281 L 25.648438 414.628906 L 25.855469 415.1875 L 26.035156 415.789062 L 26.1875 416.433594 L 26.3125 417.121094 L 26.40625 417.851562 L 26.476562 418.625 L 26.519531 419.4375 L 26.53125 420.296875 L 26.519531 421.148438 L 26.476562 421.960938 L 26.40625 422.730469 L 26.308594 423.457031 L 26.179688 424.144531 L 26.027344 424.789062 L 25.84375 425.390625 L 25.632812 425.953125 L 25.394531 426.472656 L 25.128906 426.953125 L 24.839844 427.382812 L 24.527344 427.765625 L 24.1875 428.105469 L 23.820312 428.398438 L 23.429688 428.648438 L 23.015625 428.851562 L 22.574219 429.011719 L 22.109375 429.121094 L 21.617188 429.191406 L 21.097656 429.214844 L 20.574219 429.191406 L 20.078125 429.121094 L 19.609375 429.011719 L 19.164062 428.851562 L 18.746094 428.648438 L 18.351562 428.398438 L 17.984375 428.105469 L 17.644531 427.765625 L 17.332031 427.382812 L 17.042969 426.953125 L 16.78125 426.472656 L 16.546875 425.953125 L 16.339844 425.390625 L 16.160156 424.785156 L 16.007812 424.136719 L 15.882812 423.449219 L 15.789062 422.714844 L 15.71875 421.941406 L 15.675781 421.128906 L 15.664062 420.269531 L 15.675781 419.410156 L 15.71875 418.597656 L 15.789062 417.824219 L 15.882812 417.09375 L 16.007812 416.410156 L 16.160156 415.765625 L 16.339844 415.164062 L 16.546875 414.605469 L 16.78125 414.085938 L 17.042969 413.613281 L 17.332031 413.183594 L 17.644531 412.800781 L 17.984375 412.460938 L 18.351562 412.164062 L 18.746094 411.917969 L 19.164062 411.714844 L 19.609375 411.554688 L 20.078125 411.441406 L 20.574219 411.375 Z M 21.097656 412.597656 L 20.363281 412.675781 L 19.703125 412.90625 L 19.121094 413.289062 L 18.617188 413.828125 L 18.191406 414.515625 L 17.84375 415.359375 L 17.574219 416.359375 L 17.378906 417.507812 L 17.261719 418.8125 L 17.222656 420.269531 L 17.261719 421.730469 L 17.378906 423.039062 L 17.574219 424.195312 L 17.84375 425.195312 L 18.191406 426.042969 L 18.617188 426.734375 L 19.121094 427.273438 L 19.703125 427.65625 L 20.363281 427.886719 L 21.097656 427.964844 L 21.46875 427.945312 L 21.820312 427.890625 L 22.152344 427.796875 L 22.464844 427.664062 L 22.761719 427.496094 L 23.039062 427.292969 L 23.296875 427.046875 L 23.535156 426.765625 L 23.757812 426.449219 L 23.957031 426.09375 L 24.144531 425.699219 L 24.3125 425.261719 L 24.460938 424.785156 L 24.589844 424.265625 L 24.699219 423.707031 L 24.789062 423.109375 L 24.855469 422.464844 L 24.90625 421.785156 L 24.9375 421.058594 L 24.945312 420.296875 L 24.9375 419.53125 L 24.90625 418.808594 L 24.855469 418.125 L 24.789062 417.484375 L 24.699219 416.882812 L 24.589844 416.324219 L 24.460938 415.804688 L 24.3125 415.328125 L 24.144531 414.890625 L 23.957031 414.496094 L 23.757812 414.136719 L 23.535156 413.8125 L 23.296875 413.53125 L 23.039062 413.28125 L 22.761719 413.074219 L 22.464844 412.902344 L 22.152344 412.769531 L 21.820312 412.675781 L 21.46875 412.617188 Z M 21.097656 412.597656 "/>
<path fill-rule="nonzero" fill="rgb(10.196078%, 10.196078%, 10.196078%)" fill-opacity="1" d="M 23.320312 334.289062 L 23.320312 351.578125 L 21.8125 351.578125 L 21.8125 335.953125 L 17.546875 338.605469 L 16.847656 337.488281 L 22.019531 334.289062 Z M 23.320312 334.289062 "/>
<path fill-rule="nonzero" fill="rgb(10.196078%, 10.196078%, 10.196078%)" fill-opacity="1" d="M 20.71875 256.65625 L 21.148438 256.667969 L 21.558594 256.707031 L 21.949219 256.769531 L 22.324219 256.859375 L 22.675781 256.976562 L 23.015625 257.113281 L 23.332031 257.28125 L 23.632812 257.472656 L 23.914062 257.6875 L 24.179688 257.929688 L 24.425781 258.191406 L 24.648438 258.46875 L 24.839844 258.761719 L 25.011719 259.066406 L 25.152344 259.386719 L 25.269531 259.722656 L 25.363281 260.070312 L 25.425781 260.433594 L 25.464844 260.8125 L 25.480469 261.207031 L 25.472656 261.542969 L 25.449219 261.875 L 25.414062 262.203125 L 25.367188 262.523438 L 25.304688 262.84375 L 25.226562 263.160156 L 25.132812 263.46875 L 25.03125 263.777344 L 24.910156 264.078125 L 24.777344 264.378906 L 24.628906 264.675781 L 24.464844 264.984375 L 24.28125 265.292969 L 24.085938 265.609375 L 23.875 265.933594 L 23.644531 266.257812 L 23.398438 266.59375 L 23.136719 266.933594 L 22.859375 267.277344 L 22.566406 267.628906 L 22.25 268 L 21.898438 268.40625 L 21.511719 268.847656 L 21.085938 269.320312 L 20.625 269.832031 L 20.125 270.378906 L 19.585938 270.957031 L 19.015625 271.570312 L 18.402344 272.222656 L 17.757812 272.90625 L 25.945312 272.90625 L 25.738281 274.230469 L 15.988281 274.230469 L 15.988281 272.957031 L 16.679688 272.21875 L 17.332031 271.519531 L 17.945312 270.859375 L 18.515625 270.238281 L 19.042969 269.65625 L 19.53125 269.113281 L 19.980469 268.613281 L 20.390625 268.148438 L 20.757812 267.726562 L 21.085938 267.34375 L 21.386719 266.976562 L 21.671875 266.625 L 21.9375 266.28125 L 22.183594 265.949219 L 22.410156 265.625 L 22.621094 265.3125 L 22.808594 265.011719 L 22.980469 264.722656 L 23.132812 264.441406 L 23.269531 264.171875 L 23.390625 263.898438 L 23.503906 263.621094 L 23.601562 263.34375 L 23.683594 263.058594 L 23.757812 262.773438 L 23.816406 262.480469 L 23.859375 262.1875 L 23.894531 261.890625 L 23.914062 261.589844 L 23.917969 261.285156 L 23.910156 260.984375 L 23.882812 260.695312 L 23.835938 260.421875 L 23.773438 260.15625 L 23.691406 259.90625 L 23.589844 259.667969 L 23.472656 259.441406 L 23.335938 259.230469 L 23.179688 259.027344 L 23.007812 258.839844 L 22.824219 258.667969 L 22.632812 258.511719 L 22.425781 258.375 L 22.207031 258.257812 L 21.976562 258.15625 L 21.734375 258.074219 L 21.476562 258.011719 L 21.210938 257.964844 L 20.933594 257.9375 L 20.644531 257.929688 L 20.40625 257.933594 L 20.175781 257.949219 L 19.949219 257.976562 L 19.726562 258.007812 L 19.511719 258.054688 L 19.300781 258.109375 L 19.09375 258.171875 L 18.894531 258.246094 L 18.699219 258.332031 L 18.511719 258.425781 L 18.328125 258.527344 L 18.148438 258.640625 L 17.972656 258.765625 L 17.796875 258.898438 L 17.621094 259.042969 L 17.445312 259.195312 L 17.273438 259.359375 L 17.105469 259.53125 L 16.9375 259.714844 L 16.769531 259.90625 L 15.730469 259.125 L 15.9375 258.878906 L 16.152344 258.644531 L 16.367188 258.421875 L 16.585938 258.214844 L 16.808594 258.019531 L 17.03125 257.839844 L 17.261719 257.675781 L 17.492188 257.519531 L 17.726562 257.378906 L 17.964844 257.253906 L 18.210938 257.140625 L 18.464844 257.039062 L 18.726562 256.949219 L 18.992188 256.871094 L 19.265625 256.804688 L 19.542969 256.753906 L 19.828125 256.710938 L 20.121094 256.679688 L 20.417969 256.664062 Z M 20.71875 256.65625 "/>
<path fill-rule="nonzero" fill="rgb(10.196078%, 10.196078%, 10.196078%)" fill-opacity="1" d="M 20.527344 179.308594 L 20.8125 179.316406 L 21.09375 179.332031 L 21.363281 179.359375 L 21.628906 179.398438 L 21.882812 179.453125 L 22.132812 179.515625 L 22.371094 179.589844 L 22.605469 179.675781 L 22.832031 179.773438 L 23.046875 179.878906 L 23.261719 180 L 23.464844 180.125 L 23.65625 180.261719 L 23.839844 180.40625 L 24.007812 180.558594 L 24.171875 180.71875 L 24.320312 180.886719 L 24.460938 181.0625 L 24.59375 181.246094 L 24.710938 181.441406 L 24.820312 181.636719 L 24.917969 181.835938 L 25.003906 182.042969 L 25.078125 182.25 L 25.140625 182.46875 L 25.191406 182.6875 L 25.230469 182.914062 L 25.261719 183.144531 L 25.277344 183.382812 L 25.285156 183.625 L 25.273438 183.957031 L 25.246094 184.277344 L 25.195312 184.582031 L 25.128906 184.875 L 25.042969 185.160156 L 24.9375 185.429688 L 24.8125 185.683594 L 24.667969 185.929688 L 24.503906 186.160156 L 24.320312 186.378906 L 24.128906 186.582031 L 23.925781 186.765625 L 23.707031 186.933594 L 23.480469 187.089844 L 23.242188 187.226562 L 22.992188 187.347656 L 22.730469 187.453125 L 22.457031 187.546875 L 22.171875 187.621094 L 21.878906 187.679688 L 22.210938 187.707031 L 22.53125 187.753906 L 22.835938 187.824219 L 23.132812 187.914062 L 23.417969 188.023438 L 23.691406 188.15625 L 23.949219 188.3125 L 24.199219 188.488281 L 24.433594 188.683594 L 24.660156 188.902344 L 24.871094 189.136719 L 25.0625 189.382812 L 25.230469 189.652344 L 25.375 189.933594 L 25.5 190.234375 L 25.597656 190.554688 L 25.675781 190.886719 L 25.734375 191.242188 L 25.765625 191.609375 L 25.777344 191.996094 L 25.769531 192.296875 L 25.75 192.585938 L 25.71875 192.871094 L 25.667969 193.148438 L 25.609375 193.421875 L 25.535156 193.683594 L 25.445312 193.941406 L 25.34375 194.191406 L 25.230469 194.4375 L 25.101562 194.675781 L 24.960938 194.902344 L 24.808594 195.121094 L 24.640625 195.332031 L 24.464844 195.53125 L 24.277344 195.722656 L 24.074219 195.902344 L 23.863281 196.070312 L 23.636719 196.230469 L 23.402344 196.378906 L 23.152344 196.519531 L 22.898438 196.644531 L 22.636719 196.753906 L 22.367188 196.851562 L 22.089844 196.9375 L 21.804688 197.007812 L 21.515625 197.066406 L 21.214844 197.113281 L 20.90625 197.144531 L 20.589844 197.164062 L 20.265625 197.171875 L 19.671875 197.148438 L 19.101562 197.082031 L 18.550781 196.96875 L 18.023438 196.8125 L 17.515625 196.613281 L 17.03125 196.367188 L 16.566406 196.074219 L 16.121094 195.738281 L 15.699219 195.359375 L 15.300781 194.933594 L 16.261719 194.078125 L 16.4375 194.265625 L 16.617188 194.441406 L 16.796875 194.605469 L 16.976562 194.761719 L 17.160156 194.910156 L 17.339844 195.042969 L 17.523438 195.167969 L 17.710938 195.28125 L 17.894531 195.386719 L 18.082031 195.480469 L 18.277344 195.558594 L 18.476562 195.628906 L 18.675781 195.691406 L 18.882812 195.746094 L 19.09375 195.792969 L 19.3125 195.832031 L 19.53125 195.859375 L 19.753906 195.878906 L 19.980469 195.894531 L 20.214844 195.898438 L 20.578125 195.886719 L 20.929688 195.855469 L 21.265625 195.800781 L 21.582031 195.726562 L 21.882812 195.628906 L 22.171875 195.511719 L 22.441406 195.375 L 22.691406 195.214844 L 22.929688 195.035156 L 23.152344 194.832031 L 23.355469 194.609375 L 23.535156 194.378906 L 23.695312 194.128906 L 23.832031 193.871094 L 23.953125 193.597656 L 24.046875 193.308594 L 24.121094 193.007812 L 24.175781 192.691406 L 24.207031 192.363281 L 24.21875 192.023438 L 24.179688 191.332031 L 24.0625 190.710938 L 23.867188 190.167969 L 23.59375 189.691406 L 23.242188 189.292969 L 22.8125 188.964844 L 22.308594 188.710938 L 21.722656 188.527344 L 21.058594 188.417969 L 20.316406 188.382812 L 19.171875 188.382812 L 19.382812 187.160156 L 20.214844 187.160156 L 20.503906 187.152344 L 20.789062 187.125 L 21.0625 187.082031 L 21.328125 187.019531 L 21.585938 186.941406 L 21.832031 186.84375 L 22.070312 186.726562 L 22.300781 186.59375 L 22.523438 186.445312 L 22.734375 186.277344 L 22.933594 186.085938 L 23.109375 185.882812 L 23.265625 185.664062 L 23.402344 185.429688 L 23.515625 185.179688 L 23.609375 184.914062 L 23.683594 184.632812 L 23.734375 184.339844 L 23.765625 184.027344 L 23.777344 183.703125 L 23.765625 183.421875 L 23.738281 183.15625 L 23.695312 182.898438 L 23.628906 182.65625 L 23.546875 182.421875 L 23.449219 182.203125 L 23.328125 181.992188 L 23.191406 181.796875 L 23.039062 181.613281 L 22.867188 181.441406 L 22.675781 181.277344 L 22.476562 181.132812 L 22.265625 181.003906 L 22.042969 180.890625 L 21.804688 180.796875 L 21.558594 180.71875 L 21.296875 180.660156 L 21.027344 180.617188 L 20.742188 180.589844 L 20.449219 180.582031 L 20.230469 180.585938 L 20.019531 180.597656 L 19.808594 180.617188 L 19.601562 180.644531 L 19.402344 180.679688 L 19.203125 180.722656 L 19.007812 180.773438 L 18.816406 180.832031 L 18.628906 180.898438 L 18.445312 180.972656 L 18.261719 181.050781 L 18.082031 181.136719 L 17.898438 181.234375 L 17.714844 181.34375 L 17.527344 181.460938 L 17.34375 181.585938 L 17.160156 181.722656 L 16.972656 181.871094 L 16.785156 182.027344 L 16.601562 182.195312 L 15.792969 181.257812 L 16.003906 181.066406 L 16.214844 180.882812 L 16.425781 180.710938 L 16.640625 180.550781 L 16.859375 180.402344 L 17.078125 180.261719 L 17.300781 180.128906 L 17.523438 180.011719 L 17.75 179.902344 L 17.976562 179.804688 L 18.210938 179.707031 L 18.445312 179.625 L 18.6875 179.550781 L 18.933594 179.488281 L 19.1875 179.433594 L 19.445312 179.386719 L 19.707031 179.351562 L 19.972656 179.328125 L 20.246094 179.3125 Z M 20.527344 179.308594 "/>
<path fill-rule="nonzero" fill="rgb(10.196078%, 10.196078%, 10.196078%)" fill-opacity="1" d="M 26.921875 113.738281 L 26.921875 114.988281 L 24.582031 114.988281 L 24.582031 119.539062 L 23.101562 119.539062 L 23.101562 114.988281 L 15.535156 114.988281 L 15.535156 113.871094 L 20.8125 101.960938 L 22.085938 102.480469 L 17.144531 113.738281 L 23.101562 113.738281 L 23.28125 108.667969 L 24.582031 108.667969 L 24.582031 113.738281 Z M 26.921875 113.738281 "/>
<path fill-rule="nonzero" fill="rgb(10.196078%, 10.196078%, 10.196078%)" fill-opacity="1" d="M 25.296875 26.148438 L 18.277344 26.148438 L 18.277344 32.050781 L 18.5625 31.894531 L 18.851562 31.757812 L 19.144531 31.636719 L 19.4375 31.535156 L 19.734375 31.445312 L 20.03125 31.371094 L 20.328125 31.316406 L 20.632812 31.277344 L 20.933594 31.25 L 21.242188 31.242188 L 21.679688 31.257812 L 22.097656 31.300781 L 22.5 31.375 L 22.878906 31.476562 L 23.242188 31.609375 L 23.585938 31.769531 L 23.914062 31.957031 L 24.21875 32.175781 L 24.507812 32.421875 L 24.777344 32.699219 L 25.027344 32.996094 L 25.253906 33.3125 L 25.453125 33.652344 L 25.625 34.015625 L 25.769531 34.394531 L 25.890625 34.800781 L 25.984375 35.222656 L 26.050781 35.667969 L 26.089844 36.136719 L 26.101562 36.625 L 26.09375 36.960938 L 26.074219 37.289062 L 26.039062 37.609375 L 25.992188 37.921875 L 25.925781 38.230469 L 25.851562 38.53125 L 25.757812 38.824219 L 25.652344 39.113281 L 25.535156 39.394531 L 25.402344 39.667969 L 25.257812 39.925781 L 25.105469 40.175781 L 24.941406 40.410156 L 24.765625 40.636719 L 24.574219 40.851562 L 24.375 41.054688 L 24.160156 41.242188 L 23.9375 41.421875 L 23.699219 41.589844 L 23.449219 41.746094 L 23.195312 41.886719 L 22.933594 42.007812 L 22.664062 42.117188 L 22.386719 42.214844 L 22.097656 42.292969 L 21.804688 42.359375 L 21.5 42.410156 L 21.1875 42.445312 L 20.867188 42.46875 L 20.539062 42.476562 L 19.96875 42.453125 L 19.417969 42.390625 L 18.886719 42.289062 L 18.371094 42.144531 L 17.875 41.957031 L 17.394531 41.726562 L 16.929688 41.457031 L 16.488281 41.144531 L 16.058594 40.789062 L 15.652344 40.394531 L 16.585938 39.484375 L 16.753906 39.65625 L 16.921875 39.820312 L 17.09375 39.972656 L 17.269531 40.117188 L 17.445312 40.253906 L 17.621094 40.378906 L 17.800781 40.492188 L 17.984375 40.601562 L 18.167969 40.699219 L 18.355469 40.785156 L 18.546875 40.863281 L 18.742188 40.933594 L 18.945312 40.996094 L 19.152344 41.050781 L 19.367188 41.097656 L 19.589844 41.136719 L 19.816406 41.164062 L 20.050781 41.183594 L 20.292969 41.199219 L 20.539062 41.203125 L 20.898438 41.1875 L 21.246094 41.152344 L 21.574219 41.089844 L 21.890625 41.007812 L 22.191406 40.894531 L 22.472656 40.761719 L 22.742188 40.601562 L 22.992188 40.417969 L 23.230469 40.210938 L 23.449219 39.980469 L 23.652344 39.722656 L 23.835938 39.445312 L 23.996094 39.152344 L 24.132812 38.839844 L 24.25 38.511719 L 24.347656 38.164062 L 24.421875 37.800781 L 24.472656 37.417969 L 24.507812 37.015625 L 24.515625 36.597656 L 24.507812 36.195312 L 24.476562 35.808594 L 24.429688 35.449219 L 24.359375 35.105469 L 24.269531 34.785156 L 24.160156 34.488281 L 24.03125 34.210938 L 23.882812 33.953125 L 23.714844 33.71875 L 23.527344 33.503906 L 23.328125 33.308594 L 23.117188 33.132812 L 22.886719 32.976562 L 22.648438 32.839844 L 22.390625 32.726562 L 22.121094 32.632812 L 21.839844 32.558594 L 21.539062 32.507812 L 21.226562 32.476562 L 20.902344 32.464844 L 20.738281 32.46875 L 20.578125 32.472656 L 20.417969 32.484375 L 20.265625 32.5 L 19.96875 32.539062 L 19.828125 32.566406 L 19.6875 32.597656 L 19.550781 32.632812 L 19.292969 32.710938 L 19.164062 32.757812 L 19.03125 32.804688 L 18.898438 32.859375 L 18.617188 32.984375 L 18.46875 33.054688 L 18.324219 33.132812 L 18.171875 33.210938 L 18.015625 33.296875 L 16.820312 33.296875 L 16.820312 24.898438 L 25.53125 24.898438 Z M 25.296875 26.148438 "/>
<path fill-rule="nonzero" fill="rgb(10.196078%, 10.196078%, 10.196078%)" fill-opacity="1" d="M 153.871094 455.097656 L 153.871094 472.386719 L 152.359375 472.386719 L 152.359375 456.761719 L 148.097656 459.414062 L 147.394531 458.296875 L 152.570312 455.097656 Z M 153.871094 455.097656 "/>
<path fill-rule="nonzero" fill="rgb(10.196078%, 10.196078%, 10.196078%)" fill-opacity="1" d="M 323.121094 454.8125 L 323.550781 454.824219 L 323.960938 454.863281 L 324.351562 454.925781 L 324.722656 455.015625 L 325.078125 455.128906 L 325.414062 455.269531 L 325.734375 455.4375 L 326.035156 455.625 L 326.316406 455.84375 L 326.582031 456.085938 L 326.828125 456.347656 L 327.046875 456.625 L 327.242188 456.914062 L 327.414062 457.222656 L 327.554688 457.542969 L 327.671875 457.875 L 327.765625 458.226562 L 327.828125 458.589844 L 327.867188 458.96875 L 327.878906 459.359375 L 327.875 459.695312 L 327.851562 460.027344 L 327.816406 460.355469 L 327.769531 460.679688 L 327.707031 461 L 327.628906 461.3125 L 327.535156 461.625 L 327.429688 461.933594 L 327.3125 462.234375 L 327.179688 462.535156 L 327.03125 462.832031 L 326.867188 463.136719 L 326.683594 463.449219 L 326.488281 463.765625 L 326.273438 464.085938 L 326.046875 464.414062 L 325.800781 464.75 L 325.539062 465.085938 L 325.261719 465.433594 L 324.96875 465.785156 L 324.652344 466.15625 L 324.300781 466.558594 L 323.914062 467 L 323.488281 467.476562 L 323.023438 467.988281 L 322.527344 468.53125 L 321.988281 469.113281 L 321.417969 469.726562 L 320.804688 470.375 L 320.160156 471.0625 L 328.347656 471.0625 L 328.140625 472.386719 L 318.390625 472.386719 L 318.390625 471.113281 L 319.082031 470.375 L 319.734375 469.675781 L 320.34375 469.011719 L 320.914062 468.394531 L 321.445312 467.8125 L 321.933594 467.269531 L 322.382812 466.765625 L 322.792969 466.304688 L 323.160156 465.882812 L 323.488281 465.496094 L 323.789062 465.132812 L 324.074219 464.78125 L 324.339844 464.4375 L 324.585938 464.105469 L 324.8125 463.78125 L 325.023438 463.46875 L 325.210938 463.167969 L 325.382812 462.875 L 325.535156 462.597656 L 325.671875 462.324219 L 325.792969 462.054688 L 325.90625 461.777344 L 326.003906 461.496094 L 326.085938 461.214844 L 326.15625 460.929688 L 326.214844 460.636719 L 326.261719 460.34375 L 326.292969 460.046875 L 326.3125 459.746094 L 326.320312 459.4375 L 326.3125 459.140625 L 326.285156 458.851562 L 326.238281 458.574219 L 326.175781 458.3125 L 326.09375 458.0625 L 325.992188 457.824219 L 325.875 457.597656 L 325.738281 457.382812 L 325.582031 457.183594 L 325.410156 456.996094 L 325.226562 456.824219 L 325.03125 456.667969 L 324.828125 456.53125 L 324.609375 456.414062 L 324.378906 456.3125 L 324.132812 456.230469 L 323.878906 456.167969 L 323.613281 456.121094 L 323.335938 456.09375 L 323.042969 456.085938 L 322.808594 456.089844 L 322.578125 456.105469 L 322.351562 456.128906 L 322.128906 456.164062 L 321.914062 456.207031 L 321.703125 456.261719 L 321.496094 456.328125 L 321.296875 456.402344 L 321.101562 456.484375 L 320.914062 456.578125 L 320.730469 456.683594 L 320.550781 456.796875 L 320.375 456.921875 L 320.195312 457.054688 L 320.023438 457.195312 L 319.847656 457.351562 L 319.675781 457.511719 L 319.507812 457.6875 L 319.335938 457.867188 L 319.171875 458.0625 L 318.128906 457.28125 L 318.339844 457.035156 L 318.554688 456.796875 L 318.769531 456.578125 L 318.988281 456.371094 L 319.210938 456.175781 L 319.433594 455.996094 L 319.664062 455.828125 L 319.894531 455.675781 L 320.128906 455.535156 L 320.367188 455.410156 L 320.613281 455.296875 L 320.867188 455.195312 L 321.128906 455.105469 L 321.394531 455.027344 L 321.667969 454.960938 L 321.945312 454.90625 L 322.230469 454.863281 L 322.523438 454.835938 L 322.820312 454.816406 Z M 323.121094 454.8125 "/>
<path fill-rule="nonzero" fill="rgb(10.196078%, 10.196078%, 10.196078%)" fill-opacity="1" d="M 494.78125 454.8125 L 495.070312 454.816406 L 495.347656 454.835938 L 495.621094 454.863281 L 495.882812 454.902344 L 496.140625 454.953125 L 496.386719 455.015625 L 496.628906 455.089844 L 496.859375 455.175781 L 497.085938 455.273438 L 497.304688 455.382812 L 497.515625 455.5 L 497.71875 455.628906 L 497.910156 455.765625 L 498.09375 455.90625 L 498.265625 456.058594 L 498.425781 456.21875 L 498.578125 456.386719 L 498.71875 456.566406 L 498.847656 456.75 L 498.96875 456.941406 L 499.074219 457.136719 L 499.171875 457.339844 L 499.257812 457.542969 L 499.332031 457.753906 L 499.394531 457.96875 L 499.449219 458.191406 L 499.488281 458.417969 L 499.515625 458.648438 L 499.535156 458.886719 L 499.539062 459.128906 L 499.53125 459.460938 L 499.5 459.777344 L 499.453125 460.085938 L 499.386719 460.378906 L 499.296875 460.660156 L 499.191406 460.929688 L 499.066406 461.1875 L 498.921875 461.433594 L 498.761719 461.664062 L 498.578125 461.882812 L 498.382812 462.082031 L 498.179688 462.269531 L 497.964844 462.4375 L 497.738281 462.589844 L 497.5 462.726562 L 497.25 462.851562 L 496.988281 462.957031 L 496.714844 463.046875 L 496.429688 463.125 L 496.132812 463.183594 L 496.464844 463.210938 L 496.785156 463.257812 L 497.09375 463.324219 L 497.390625 463.417969 L 497.671875 463.527344 L 497.945312 463.660156 L 498.207031 463.816406 L 498.453125 463.992188 L 498.691406 464.1875 L 498.914062 464.40625 L 499.128906 464.636719 L 499.316406 464.886719 L 499.484375 465.152344 L 499.628906 465.4375 L 499.753906 465.738281 L 499.855469 466.054688 L 499.933594 466.390625 L 499.988281 466.742188 L 500.023438 467.113281 L 500.035156 467.5 L 500.027344 467.796875 L 500.007812 468.089844 L 499.972656 468.375 L 499.925781 468.652344 L 499.863281 468.921875 L 499.789062 469.1875 L 499.703125 469.445312 L 499.601562 469.695312 L 499.484375 469.941406 L 499.355469 470.175781 L 499.214844 470.40625 L 499.0625 470.625 L 498.898438 470.835938 L 498.722656 471.035156 L 498.53125 471.222656 L 498.332031 471.402344 L 498.117188 471.574219 L 497.894531 471.734375 L 497.65625 471.882812 L 497.40625 472.023438 L 497.152344 472.148438 L 496.890625 472.257812 L 496.625 472.355469 L 496.347656 472.4375 L 496.0625 472.511719 L 495.769531 472.570312 L 495.46875 472.613281 L 495.160156 472.648438 L 494.84375 472.667969 L 494.519531 472.671875 L 493.929688 472.652344 L 493.359375 472.582031 L 492.808594 472.472656 L 492.277344 472.316406 L 491.773438 472.113281 L 491.285156 471.867188 L 490.820312 471.578125 L 490.378906 471.242188 L 489.957031 470.863281 L 489.554688 470.4375 L 490.515625 469.578125 L 490.695312 469.765625 L 490.871094 469.941406 L 491.050781 470.109375 L 491.234375 470.265625 L 491.414062 470.410156 L 491.597656 470.546875 L 491.78125 470.671875 L 491.964844 470.785156 L 492.152344 470.890625 L 492.335938 470.984375 L 492.53125 471.0625 L 492.730469 471.132812 L 492.933594 471.195312 L 493.140625 471.25 L 493.351562 471.296875 L 493.566406 471.332031 L 493.785156 471.363281 L 494.007812 471.382812 L 494.238281 471.394531 L 494.46875 471.398438 L 494.835938 471.386719 L 495.1875 471.355469 L 495.519531 471.304688 L 495.835938 471.230469 L 496.140625 471.132812 L 496.425781 471.015625 L 496.695312 470.878906 L 496.949219 470.71875 L 497.1875 470.535156 L 497.40625 470.332031 L 497.609375 470.113281 L 497.789062 469.878906 L 497.949219 469.632812 L 498.089844 469.371094 L 498.207031 469.097656 L 498.300781 468.8125 L 498.378906 468.507812 L 498.429688 468.195312 L 498.460938 467.867188 L 498.472656 467.523438 L 498.433594 466.832031 L 498.316406 466.214844 L 498.121094 465.667969 L 497.847656 465.195312 L 497.5 464.796875 L 497.070312 464.46875 L 496.5625 464.214844 L 495.976562 464.03125 L 495.3125 463.921875 L 494.574219 463.886719 L 493.429688 463.886719 L 493.636719 462.664062 L 494.46875 462.664062 L 494.761719 462.65625 L 495.042969 462.628906 L 495.320312 462.582031 L 495.585938 462.523438 L 495.839844 462.441406 L 496.089844 462.34375 L 496.328125 462.230469 L 496.558594 462.097656 L 496.777344 461.945312 L 496.992188 461.78125 L 497.1875 461.589844 L 497.367188 461.386719 L 497.523438 461.164062 L 497.65625 460.929688 L 497.769531 460.679688 L 497.863281 460.414062 L 497.9375 460.136719 L 497.988281 459.839844 L 498.019531 459.53125 L 498.03125 459.207031 L 498.023438 458.925781 L 497.996094 458.65625 L 497.949219 458.402344 L 497.886719 458.15625 L 497.804688 457.925781 L 497.703125 457.703125 L 497.585938 457.496094 L 497.449219 457.300781 L 497.292969 457.117188 L 497.121094 456.941406 L 496.933594 456.78125 L 496.734375 456.632812 L 496.519531 456.503906 L 496.296875 456.394531 L 496.0625 456.300781 L 495.8125 456.222656 L 495.554688 456.164062 L 495.28125 456.121094 L 495 456.09375 L 494.703125 456.085938 L 494.488281 456.089844 L 494.273438 456.101562 L 494.0625 456.121094 L 493.859375 456.148438 L 493.65625 456.183594 L 493.457031 456.226562 L 493.261719 456.277344 L 493.074219 456.335938 L 492.886719 456.402344 L 492.703125 456.476562 L 492.519531 456.554688 L 492.335938 456.640625 L 492.152344 456.738281 L 491.96875 456.84375 L 491.785156 456.960938 L 491.601562 457.089844 L 491.414062 457.226562 L 491.230469 457.375 L 491.042969 457.53125 L 490.855469 457.699219 L 490.050781 456.761719 L 490.257812 456.570312 L 490.46875 456.386719 L 490.683594 456.214844 L 490.898438 456.054688 L 491.113281 455.902344 L 491.335938 455.761719 L 491.554688 455.632812 L 491.78125 455.511719 L 492.003906 455.402344 L 492.234375 455.304688 L 492.464844 455.210938 L 492.703125 455.128906 L 492.941406 455.054688 L 493.191406 454.988281 L 493.441406 454.933594 L 493.699219 454.890625 L 493.960938 454.855469 L 494.230469 454.832031 L 494.503906 454.816406 Z M 494.78125 454.8125 "/>
<path fill-rule="nonzero" fill="rgb(10.196078%, 10.196078%, 10.196078%)" fill-opacity="1" d="M 673.03125 466.589844 L 673.03125 467.835938 L 670.691406 467.835938 L 670.691406 472.386719 L 669.207031 472.386719 L 669.207031 467.835938 L 661.644531 467.835938 L 661.644531 466.71875 L 666.921875 454.8125 L 668.195312 455.332031 L 663.253906 466.589844 L 669.207031 466.589844 L 669.390625 461.519531 L 670.691406 461.519531 L 670.691406 466.589844 Z M 673.03125 466.589844 "/>
</svg>
