<?xml version="1.0" encoding="UTF-8"?>
<svg xmlns="http://www.w3.org/2000/svg" xmlns:xlink="http://www.w3.org/1999/xlink" width="792pt" height="374pt" viewBox="0 0 792 374">
<defs>
<clipPath id="clip-0">
<path clip-rule="nonzero" d="M 52.253906 13.449219 L 778.550781 13.449219 L 778.550781 326.195312 L 52.253906 326.195312 Z M 52.253906 13.449219 "/>
</clipPath>
<clipPath id="clip-1">
<path clip-rule="nonzero" d="M 52.253906 310 L 778.550781 310 L 778.550781 314 L 52.253906 314 Z M 52.253906 310 "/>
</clipPath>
<clipPath id="clip-2">
<path clip-rule="nonzero" d="M 52.253906 242 L 778.550781 242 L 778.550781 246 L 52.253906 246 Z M 52.253906 242 "/>
</clipPath>
<clipPath id="clip-3">
<path clip-rule="nonzero" d="M 52.253906 175 L 778.550781 175 L 778.550781 178 L 52.253906 178 Z M 52.253906 175 "/>
</clipPath>
<clipPath id="clip-4">
<path clip-rule="nonzero" d="M 52.253906 107 L 778.550781 107 L 778.550781 111 L 52.253906 111 Z M 52.253906 107 "/>
</clipPath>
<clipPath id="clip-5">
<path clip-rule="nonzero" d="M 52.253906 39 L 778.550781 39 L 778.550781 43 L 52.253906 43 Z M 52.253906 39 "/>
</clipPath>
<clipPath id="clip-6">
<path clip-rule="nonzero" d="M 94 13.449219 L 98 13.449219 L 98 326.195312 L 94 326.195312 Z M 94 13.449219 "/>
</clipPath>
<clipPath id="clip-7">
<path clip-rule="nonzero" d="M 254 13.449219 L 258 13.449219 L 258 326.195312 L 254 326.195312 Z M 254 13.449219 "/>
</clipPath>
<clipPath id="clip-8">
<path clip-rule="nonzero" d="M 414 13.449219 L 417 13.449219 L 417 326.195312 L 414 326.195312 Z M 414 13.449219 "/>
</clipPath>
<clipPath id="clip-9">
<path clip-rule="nonzero" d="M 573 13.449219 L 577 13.449219 L 577 326.195312 L 573 326.195312 Z M 573 13.449219 "/>
</clipPath>
<clipPath id="clip-10">
<path clip-rule="nonzero" d="M 733 13.449219 L 737 13.449219 L 737 326.195312 L 733 326.195312 Z M 733 13.449219 "/>
</clipPath>
<clipPath id="clip-11">
<path clip-rule="nonzero" d="M 412 13.449219 L 415 13.449219 L 415 326.195312 L 412 326.195312 Z M 412 13.449219 "/>
</clipPath>
<clipPath id="clip-12">
<path clip-rule="nonzero" d="M 407 13.449219 L 411 13.449219 L 411 326.195312 L 407 326.195312 Z M 407 13.449219 "/>
</clipPath>
</defs>
<rect x="-79.2" y="-37.4" width="950.4" height="448.8" fill="rgb(100%, 100%, 100%)" fill-opacity="1"/>
<rect x="-79.2" y="-37.4" width="950.4" height="448.8" fill="rgb(95.294118%, 95.294118%, 95.294118%)" fill-opacity="1"/>
<path fill="none" stroke-width="2.618947" stroke-linecap="round" stroke-linejoin="round" stroke="rgb(95.294118%, 95.294118%, 95.294118%)" stroke-opacity="1" stroke-miterlimit="10" d="M 0 374 L 792 374 L 792 0 L 0 0 Z M 0 374 "/>
<g clip-path="url(#clip-0)">
<path fill-rule="nonzero" fill="rgb(95.294118%, 95.294118%, 95.294118%)" fill-opacity="1" stroke-width="2.618947" stroke-linecap="round" stroke-linejoin="round" stroke="rgb(95.294118%, 95.294118%, 95.294118%)" stroke-opacity="1" stroke-miterlimit="10" d="M 52.253906 326.195312 L 778.550781 326.195312 L 778.550781 13.449219 L 52.253906 13.449219 Z M 52.253906 326.195312 "/>
</g>
<g clip-path="url(#clip-1)">
<path fill="none" stroke-width="2.618947" stroke-linecap="butt" stroke-linejoin="round" stroke="rgb(92.156863%, 92.156863%, 92.156863%)" stroke-opacity="1" stroke-miterlimit="10" d="M 52.253906 311.980469 L 778.550781 311.980469 "/>
</g>
<g clip-path="url(#clip-2)">
<path fill="none" stroke-width="2.618947" stroke-linecap="butt" stroke-linejoin="round" stroke="rgb(92.156863%, 92.156863%, 92.156863%)" stroke-opacity="1" stroke-miterlimit="10" d="M 52.253906 244.285156 L 778.550781 244.285156 "/>
</g>
<g clip-path="url(#clip-3)">
<path fill="none" stroke-width="2.618947" stroke-linecap="butt" stroke-linejoin="round" stroke="rgb(92.156863%, 92.156863%, 92.156863%)" stroke-opacity="1" stroke-miterlimit="10" d="M 52.253906 176.59375 L 778.550781 176.59375 "/>
</g>
<g clip-path="url(#clip-4)">
<path fill="none" stroke-width="2.618947" stroke-linecap="butt" stroke-linejoin="round" stroke="rgb(92.156863%, 92.156863%, 92.156863%)" stroke-opacity="1" stroke-miterlimit="10" d="M 52.253906 108.898438 L 778.550781 108.898438 "/>
</g>
<g clip-path="url(#clip-5)">
<path fill="none" stroke-width="2.618947" stroke-linecap="butt" stroke-linejoin="round" stroke="rgb(92.156863%, 92.156863%, 92.156863%)" stroke-opacity="1" stroke-miterlimit="10" d="M 52.253906 41.203125 L 778.550781 41.203125 "/>
</g>
<g clip-path="url(#clip-6)">
<path fill="none" stroke-width="2.618947" stroke-linecap="butt" stroke-linejoin="round" stroke="rgb(92.156863%, 92.156863%, 92.156863%)" stroke-opacity="1" stroke-miterlimit="10" d="M 95.976562 326.195312 L 95.976562 13.449219 "/>
</g>
<g clip-path="url(#clip-7)">
<path fill="none" stroke-width="2.618947" stroke-linecap="butt" stroke-linejoin="round" stroke="rgb(92.156863%, 92.156863%, 92.156863%)" stroke-opacity="1" stroke-miterlimit="10" d="M 255.710938 326.195312 L 255.710938 13.449219 "/>
</g>
<g clip-path="url(#clip-8)">
<path fill="none" stroke-width="2.618947" stroke-linecap="butt" stroke-linejoin="round" stroke="rgb(92.156863%, 92.156863%, 92.156863%)" stroke-opacity="1" stroke-miterlimit="10" d="M 415.445312 326.195312 L 415.445312 13.449219 "/>
</g>
<g clip-path="url(#clip-9)">
<path fill="none" stroke-width="2.618947" stroke-linecap="butt" stroke-linejoin="round" stroke="rgb(92.156863%, 92.156863%, 92.156863%)" stroke-opacity="1" stroke-miterlimit="10" d="M 575.179688 326.195312 L 575.179688 13.449219 "/>
</g>
<g clip-path="url(#clip-10)">
<path fill="none" stroke-width="2.618947" stroke-linecap="butt" stroke-linejoin="round" stroke="rgb(92.156863%, 92.156863%, 92.156863%)" stroke-opacity="1" stroke-miterlimit="10" d="M 734.914062 326.195312 L 734.914062 13.449219 "/>
</g>
<path fill-rule="nonzero" fill="rgb(56.078431%, 16.470588%, 26.27451%)" fill-opacity="0.698039" d="M 85.269531 311.980469 L 107.277344 311.980469 L 107.277344 203.671875 L 85.269531 203.671875 Z M 85.269531 311.980469 "/>
<path fill-rule="nonzero" fill="rgb(56.078431%, 16.470588%, 26.27451%)" fill-opacity="0.698039" d="M 107.277344 311.980469 L 129.285156 311.980469 L 129.285156 68.28125 L 107.277344 68.28125 Z M 107.277344 311.980469 "/>
<path fill-rule="nonzero" fill="rgb(56.078431%, 16.470588%, 26.27451%)" fill-opacity="0.698039" d="M 129.285156 311.980469 L 151.292969 311.980469 L 151.292969 102.128906 L 129.285156 102.128906 Z M 129.285156 311.980469 "/>
<path fill-rule="nonzero" fill="rgb(56.078431%, 16.470588%, 26.27451%)" fill-opacity="0.698039" d="M 151.292969 311.980469 L 173.300781 311.980469 L 173.300781 41.203125 L 151.292969 41.203125 Z M 151.292969 311.980469 "/>
<path fill-rule="nonzero" fill="rgb(56.078431%, 16.470588%, 26.27451%)" fill-opacity="0.698039" d="M 173.304688 311.980469 L 195.3125 311.980469 L 195.3125 47.972656 L 173.304688 47.972656 Z M 173.304688 311.980469 "/>
<path fill-rule="nonzero" fill="rgb(56.078431%, 16.470588%, 26.27451%)" fill-opacity="0.698039" d="M 195.3125 311.980469 L 217.320312 311.980469 L 217.320312 102.128906 L 195.3125 102.128906 Z M 195.3125 311.980469 "/>
<path fill-rule="nonzero" fill="rgb(56.078431%, 16.470588%, 26.27451%)" fill-opacity="0.698039" d="M 217.320312 311.980469 L 239.328125 311.980469 L 239.328125 115.667969 L 217.320312 115.667969 Z M 217.320312 311.980469 "/>
<path fill-rule="nonzero" fill="rgb(56.078431%, 16.470588%, 26.27451%)" fill-opacity="0.698039" d="M 239.332031 311.980469 L 261.339844 311.980469 L 261.339844 102.128906 L 239.332031 102.128906 Z M 239.332031 311.980469 "/>
<path fill-rule="nonzero" fill="rgb(56.078431%, 16.470588%, 26.27451%)" fill-opacity="0.698039" d="M 261.339844 311.980469 L 283.347656 311.980469 L 283.347656 54.742188 L 261.339844 54.742188 Z M 261.339844 311.980469 "/>
<path fill-rule="nonzero" fill="rgb(56.078431%, 16.470588%, 26.27451%)" fill-opacity="0.698039" d="M 283.347656 311.980469 L 305.355469 311.980469 L 305.355469 54.742188 L 283.347656 54.742188 Z M 283.347656 311.980469 "/>
<path fill-rule="nonzero" fill="rgb(56.078431%, 16.470588%, 26.27451%)" fill-opacity="0.698039" d="M 305.355469 311.980469 L 327.363281 311.980469 L 327.363281 102.128906 L 305.355469 102.128906 Z M 305.355469 311.980469 "/>
<path fill-rule="nonzero" fill="rgb(56.078431%, 16.470588%, 26.27451%)" fill-opacity="0.698039" d="M 327.367188 311.980469 L 349.375 311.980469 L 349.375 27.664062 L 327.367188 27.664062 Z M 327.367188 311.980469 "/>
<path fill-rule="nonzero" fill="rgb(56.078431%, 16.470588%, 26.27451%)" fill-opacity="0.698039" d="M 349.375 311.980469 L 371.382812 311.980469 L 371.382812 34.433594 L 349.375 34.433594 Z M 349.375 311.980469 "/>
<path fill-rule="nonzero" fill="rgb(56.078431%, 16.470588%, 26.27451%)" fill-opacity="0.698039" d="M 371.382812 311.980469 L 393.390625 311.980469 L 393.390625 115.667969 L 371.382812 115.667969 Z M 371.382812 311.980469 "/>
<path fill-rule="nonzero" fill="rgb(56.078431%, 16.470588%, 26.27451%)" fill-opacity="0.698039" d="M 393.394531 311.980469 L 415.402344 311.980469 L 415.402344 75.050781 L 393.394531 75.050781 Z M 393.394531 311.980469 "/>
<path fill-rule="nonzero" fill="rgb(56.078431%, 16.470588%, 26.27451%)" fill-opacity="0.698039" d="M 415.402344 311.980469 L 437.410156 311.980469 L 437.410156 81.820312 L 415.402344 81.820312 Z M 415.402344 311.980469 "/>
<path fill-rule="nonzero" fill="rgb(56.078431%, 16.470588%, 26.27451%)" fill-opacity="0.698039" d="M 437.410156 311.980469 L 459.417969 311.980469 L 459.417969 95.359375 L 437.410156 95.359375 Z M 437.410156 311.980469 "/>
<path fill-rule="nonzero" fill="rgb(56.078431%, 16.470588%, 26.27451%)" fill-opacity="0.698039" d="M 459.421875 311.980469 L 481.429688 311.980469 L 481.429688 75.050781 L 459.421875 75.050781 Z M 459.421875 311.980469 "/>
<path fill-rule="nonzero" fill="rgb(56.078431%, 16.470588%, 26.27451%)" fill-opacity="0.698039" d="M 481.429688 311.980469 L 503.4375 311.980469 L 503.4375 102.128906 L 481.429688 102.128906 Z M 481.429688 311.980469 "/>
<path fill-rule="nonzero" fill="rgb(56.078431%, 16.470588%, 26.27451%)" fill-opacity="0.698039" d="M 503.4375 311.980469 L 525.445312 311.980469 L 525.445312 61.511719 L 503.4375 61.511719 Z M 503.4375 311.980469 "/>
<path fill-rule="nonzero" fill="rgb(56.078431%, 16.470588%, 26.27451%)" fill-opacity="0.698039" d="M 525.445312 311.980469 L 547.453125 311.980469 L 547.453125 75.050781 L 525.445312 75.050781 Z M 525.445312 311.980469 "/>
<path fill-rule="nonzero" fill="rgb(56.078431%, 16.470588%, 26.27451%)" fill-opacity="0.698039" d="M 547.457031 311.980469 L 569.464844 311.980469 L 569.464844 81.820312 L 547.457031 81.820312 Z M 547.457031 311.980469 "/>
<path fill-rule="nonzero" fill="rgb(56.078431%, 16.470588%, 26.27451%)" fill-opacity="0.698039" d="M 569.464844 311.980469 L 591.472656 311.980469 L 591.472656 68.28125 L 569.464844 68.28125 Z M 569.464844 311.980469 "/>
<path fill-rule="nonzero" fill="rgb(56.078431%, 16.470588%, 26.27451%)" fill-opacity="0.698039" d="M 591.472656 311.980469 L 613.480469 311.980469 L 613.480469 88.589844 L 591.472656 88.589844 Z M 591.472656 311.980469 "/>
<path fill-rule="nonzero" fill="rgb(56.078431%, 16.470588%, 26.27451%)" fill-opacity="0.698039" d="M 613.484375 311.980469 L 635.492188 311.980469 L 635.492188 81.820312 L 613.484375 81.820312 Z M 613.484375 311.980469 "/>
<path fill-rule="nonzero" fill="rgb(56.078431%, 16.470588%, 26.27451%)" fill-opacity="0.698039" d="M 635.492188 311.980469 L 657.5 311.980469 L 657.5 95.359375 L 635.492188 95.359375 Z M 635.492188 311.980469 "/>
<path fill-rule="nonzero" fill="rgb(56.078431%, 16.470588%, 26.27451%)" fill-opacity="0.698039" d="M 657.5 311.980469 L 679.507812 311.980469 L 679.507812 47.972656 L 657.5 47.972656 Z M 657.5 311.980469 "/>
<path fill-rule="nonzero" fill="rgb(56.078431%, 16.470588%, 26.27451%)" fill-opacity="0.698039" d="M 679.511719 311.980469 L 701.519531 311.980469 L 701.519531 149.515625 L 679.511719 149.515625 Z M 679.511719 311.980469 "/>
<path fill-rule="nonzero" fill="rgb(56.078431%, 16.470588%, 26.27451%)" fill-opacity="0.698039" d="M 701.519531 311.980469 L 723.527344 311.980469 L 723.527344 47.972656 L 701.519531 47.972656 Z M 701.519531 311.980469 "/>
<path fill-rule="nonzero" fill="rgb(56.078431%, 16.470588%, 26.27451%)" fill-opacity="0.698039" d="M 723.527344 311.980469 L 745.535156 311.980469 L 745.535156 190.132812 L 723.527344 190.132812 Z M 723.527344 311.980469 "/>
<g clip-path="url(#clip-11)">
<path fill="none" stroke-width="2.560748" stroke-linecap="butt" stroke-linejoin="round" stroke="rgb(56.078431%, 16.470588%, 26.27451%)" stroke-opacity="1" stroke-dasharray="10.242992 10.242992" stroke-miterlimit="10" d="M 413.703125 326.195312 L 413.703125 13.449219 "/>
</g>
<g clip-path="url(#clip-12)">
<path fill="none" stroke-width="2.560748" stroke-linecap="butt" stroke-linejoin="round" stroke="rgb(16.470588%, 56.078431%, 46.27451%)" stroke-opacity="1" stroke-miterlimit="10" d="M 409.023438 326.195312 L 409.023438 13.449219 "/>
</g>
<path fill-rule="nonzero" fill="rgb(10.196078%, 10.196078%, 10.196078%)" fill-opacity="1" d="M 33.273438 303.644531 L 33.777344 303.664062 L 34.253906 303.730469 L 34.707031 303.839844 L 35.132812 303.996094 L 35.535156 304.191406 L 35.914062 304.433594 L 36.265625 304.71875 L 36.59375 305.050781 L 36.898438 305.425781 L 37.175781 305.84375 L 37.425781 306.296875 L 37.652344 306.792969 L 37.851562 307.332031 L 38.023438 307.910156 L 38.167969 308.53125 L 38.289062 309.191406 L 38.378906 309.890625 L 38.445312 310.632812 L 38.484375 311.417969 L 38.5 312.242188 L 38.484375 313.0625 L 38.445312 313.84375 L 38.378906 314.582031 L 38.285156 315.28125 L 38.160156 315.941406 L 38.011719 316.5625 L 37.839844 317.144531 L 37.636719 317.683594 L 37.40625 318.183594 L 37.148438 318.644531 L 36.871094 319.054688 L 36.570312 319.425781 L 36.246094 319.75 L 35.894531 320.035156 L 35.519531 320.273438 L 35.117188 320.46875 L 34.695312 320.621094 L 34.246094 320.730469 L 33.773438 320.796875 L 33.273438 320.816406 L 32.773438 320.796875 L 32.292969 320.730469 L 31.84375 320.621094 L 31.414062 320.46875 L 31.011719 320.273438 L 30.632812 320.035156 L 30.28125 319.75 L 29.953125 319.425781 L 29.652344 319.054688 L 29.375 318.644531 L 29.121094 318.183594 L 28.898438 317.679688 L 28.699219 317.140625 L 28.527344 316.558594 L 28.378906 315.9375 L 28.261719 315.273438 L 28.167969 314.570312 L 28.101562 313.828125 L 28.0625 313.042969 L 28.050781 312.21875 L 28.0625 311.394531 L 28.101562 310.609375 L 28.167969 309.867188 L 28.261719 309.164062 L 28.378906 308.503906 L 28.527344 307.886719 L 28.699219 307.308594 L 28.898438 306.769531 L 29.121094 306.273438 L 29.375 305.816406 L 29.652344 305.40625 L 29.953125 305.035156 L 30.28125 304.707031 L 30.632812 304.425781 L 31.011719 304.1875 L 31.414062 303.992188 L 31.84375 303.839844 L 32.292969 303.730469 L 32.773438 303.664062 Z M 33.273438 304.84375 L 32.566406 304.917969 L 31.933594 305.136719 L 31.375 305.507812 L 30.890625 306.023438 L 30.480469 306.6875 L 30.144531 307.496094 L 29.886719 308.457031 L 29.699219 309.5625 L 29.585938 310.816406 L 29.550781 312.21875 L 29.585938 313.625 L 29.699219 314.882812 L 29.886719 315.992188 L 30.144531 316.953125 L 30.480469 317.769531 L 30.890625 318.433594 L 31.375 318.953125 L 31.933594 319.320312 L 32.566406 319.542969 L 33.273438 319.617188 L 33.628906 319.597656 L 33.96875 319.546875 L 34.289062 319.457031 L 34.589844 319.328125 L 34.875 319.167969 L 35.140625 318.96875 L 35.386719 318.734375 L 35.617188 318.464844 L 35.832031 318.160156 L 36.023438 317.816406 L 36.203125 317.4375 L 36.367188 317.019531 L 36.507812 316.558594 L 36.632812 316.0625 L 36.738281 315.523438 L 36.824219 314.945312 L 36.890625 314.328125 L 36.9375 313.671875 L 36.964844 312.976562 L 36.972656 312.242188 L 36.964844 311.507812 L 36.9375 310.8125 L 36.890625 310.15625 L 36.824219 309.539062 L 36.738281 308.960938 L 36.632812 308.421875 L 36.507812 307.925781 L 36.367188 307.464844 L 36.203125 307.046875 L 36.023438 306.667969 L 35.832031 306.320312 L 35.617188 306.011719 L 35.386719 305.738281 L 35.140625 305.5 L 34.875 305.300781 L 34.589844 305.132812 L 34.289062 305.007812 L 33.96875 304.914062 L 33.628906 304.859375 Z M 33.273438 304.84375 "/>
<path fill-rule="nonzero" fill="rgb(10.196078%, 10.196078%, 10.196078%)" fill-opacity="1" d="M 23.375 236.222656 L 23.375 252.847656 L 21.925781 252.847656 L 21.925781 237.824219 L 17.824219 240.375 L 17.148438 239.296875 L 22.125 236.222656 Z M 23.375 236.222656 "/>
<path fill-rule="nonzero" fill="rgb(10.196078%, 10.196078%, 10.196078%)" fill-opacity="1" d="M 33.273438 235.949219 L 33.777344 235.96875 L 34.253906 236.035156 L 34.707031 236.148438 L 35.132812 236.300781 L 35.535156 236.5 L 35.914062 236.742188 L 36.265625 237.027344 L 36.59375 237.355469 L 36.898438 237.730469 L 37.175781 238.148438 L 37.425781 238.605469 L 37.652344 239.101562 L 37.851562 239.636719 L 38.023438 240.214844 L 38.167969 240.835938 L 38.289062 241.496094 L 38.378906 242.199219 L 38.445312 242.941406 L 38.484375 243.722656 L 38.5 244.546875 L 38.484375 245.367188 L 38.445312 246.148438 L 38.378906 246.886719 L 38.285156 247.589844 L 38.160156 248.25 L 38.011719 248.867188 L 37.839844 249.449219 L 37.636719 249.988281 L 37.40625 250.488281 L 37.148438 250.949219 L 36.871094 251.363281 L 36.570312 251.730469 L 36.246094 252.058594 L 35.894531 252.339844 L 35.519531 252.578125 L 35.117188 252.777344 L 34.695312 252.929688 L 34.246094 253.035156 L 33.773438 253.101562 L 33.273438 253.125 L 32.773438 253.101562 L 32.292969 253.035156 L 31.84375 252.929688 L 31.414062 252.777344 L 31.011719 252.578125 L 30.632812 252.339844 L 30.28125 252.058594 L 29.953125 251.730469 L 29.652344 251.363281 L 29.375 250.949219 L 29.121094 250.488281 L 28.898438 249.988281 L 28.699219 249.445312 L 28.527344 248.863281 L 28.378906 248.242188 L 28.261719 247.578125 L 28.167969 246.875 L 28.101562 246.132812 L 28.0625 245.347656 L 28.050781 244.523438 L 28.0625 243.699219 L 28.101562 242.914062 L 28.167969 242.171875 L 28.261719 241.472656 L 28.378906 240.8125 L 28.527344 240.191406 L 28.699219 239.613281 L 28.898438 239.074219 L 29.121094 238.578125 L 29.375 238.125 L 29.652344 237.710938 L 29.953125 237.339844 L 30.28125 237.015625 L 30.632812 236.730469 L 31.011719 236.492188 L 31.414062 236.296875 L 31.84375 236.144531 L 32.292969 236.035156 L 32.773438 235.96875 Z M 33.273438 237.148438 L 32.566406 237.222656 L 31.933594 237.445312 L 31.375 237.8125 L 30.890625 238.328125 L 30.480469 238.992188 L 30.144531 239.804688 L 29.886719 240.761719 L 29.699219 241.867188 L 29.585938 243.121094 L 29.550781 244.523438 L 29.585938 245.929688 L 29.699219 247.1875 L 29.886719 248.296875 L 30.144531 249.257812 L 30.480469 250.074219 L 30.890625 250.738281 L 31.375 251.257812 L 31.933594 251.628906 L 32.566406 251.847656 L 33.273438 251.921875 L 33.628906 251.90625 L 33.96875 251.851562 L 34.289062 251.761719 L 34.589844 251.636719 L 34.875 251.472656 L 35.140625 251.277344 L 35.386719 251.042969 L 35.617188 250.773438 L 35.832031 250.464844 L 36.023438 250.125 L 36.203125 249.742188 L 36.367188 249.324219 L 36.507812 248.867188 L 36.632812 248.367188 L 36.738281 247.828125 L 36.824219 247.253906 L 36.890625 246.636719 L 36.9375 245.980469 L 36.964844 245.285156 L 36.972656 244.546875 L 36.964844 243.8125 L 36.9375 243.117188 L 36.890625 242.460938 L 36.824219 241.84375 L 36.738281 241.265625 L 36.632812 240.730469 L 36.507812 240.230469 L 36.367188 239.773438 L 36.203125 239.351562 L 36.023438 238.972656 L 35.832031 238.625 L 35.617188 238.316406 L 35.386719 238.042969 L 35.140625 237.804688 L 34.875 237.605469 L 34.589844 237.441406 L 34.289062 237.3125 L 33.96875 237.222656 L 33.628906 237.167969 Z M 33.273438 237.148438 "/>
<path fill-rule="nonzero" fill="rgb(10.196078%, 10.196078%, 10.196078%)" fill-opacity="1" d="M 20.050781 168.253906 L 20.460938 168.265625 L 20.855469 168.304688 L 21.230469 168.363281 L 21.589844 168.449219 L 21.929688 168.5625 L 22.253906 168.695312 L 22.5625 168.855469 L 22.847656 169.039062 L 23.121094 169.246094 L 23.375 169.480469 L 23.613281 169.730469 L 23.824219 169.996094 L 24.011719 170.277344 L 24.175781 170.570312 L 24.3125 170.878906 L 24.425781 171.203125 L 24.511719 171.539062 L 24.574219 171.886719 L 24.613281 172.25 L 24.625 172.628906 L 24.617188 172.953125 L 24.597656 173.273438 L 24.5625 173.585938 L 24.515625 173.898438 L 24.457031 174.203125 L 24.382812 174.507812 L 24.292969 174.804688 L 24.191406 175.101562 L 24.078125 175.394531 L 23.949219 175.679688 L 23.808594 175.96875 L 23.648438 176.261719 L 23.476562 176.558594 L 23.285156 176.863281 L 23.082031 177.171875 L 22.859375 177.488281 L 22.625 177.808594 L 22.375 178.136719 L 22.105469 178.46875 L 21.824219 178.804688 L 21.523438 179.160156 L 21.183594 179.550781 L 20.808594 179.976562 L 20.402344 180.433594 L 19.957031 180.921875 L 19.476562 181.449219 L 18.960938 182.003906 L 18.410156 182.597656 L 17.820312 183.222656 L 17.199219 183.878906 L 25.074219 183.878906 L 24.875 185.15625 L 15.5 185.15625 L 15.5 183.929688 L 16.164062 183.21875 L 16.792969 182.546875 L 17.378906 181.910156 L 17.925781 181.3125 L 18.4375 180.753906 L 18.90625 180.234375 L 19.339844 179.75 L 19.730469 179.304688 L 20.085938 178.898438 L 20.398438 178.53125 L 20.691406 178.179688 L 20.964844 177.839844 L 21.21875 177.507812 L 21.457031 177.191406 L 21.675781 176.878906 L 21.875 176.578125 L 22.058594 176.289062 L 22.222656 176.007812 L 22.371094 175.738281 L 22.5 175.480469 L 22.617188 175.21875 L 22.722656 174.953125 L 22.816406 174.683594 L 22.898438 174.410156 L 22.96875 174.136719 L 23.023438 173.855469 L 23.066406 173.574219 L 23.097656 173.289062 L 23.117188 172.996094 L 23.125 172.703125 L 23.117188 172.414062 L 23.089844 172.136719 L 23.046875 171.875 L 22.984375 171.621094 L 22.90625 171.378906 L 22.808594 171.152344 L 22.695312 170.933594 L 22.566406 170.730469 L 22.414062 170.535156 L 22.25 170.355469 L 22.074219 170.1875 L 21.886719 170.039062 L 21.6875 169.910156 L 21.476562 169.792969 L 21.253906 169.699219 L 21.023438 169.621094 L 20.777344 169.558594 L 20.523438 169.515625 L 20.253906 169.488281 L 19.972656 169.480469 L 19.746094 169.484375 L 19.523438 169.5 L 19.308594 169.523438 L 19.09375 169.554688 L 18.886719 169.597656 L 18.683594 169.652344 L 18.488281 169.710938 L 18.292969 169.785156 L 18.105469 169.863281 L 17.925781 169.953125 L 17.75 170.054688 L 17.578125 170.164062 L 17.40625 170.28125 L 17.238281 170.410156 L 17.066406 170.546875 L 16.902344 170.695312 L 16.734375 170.851562 L 16.574219 171.019531 L 16.410156 171.195312 L 16.25 171.378906 L 15.25 170.628906 L 15.449219 170.390625 L 15.65625 170.164062 L 15.863281 169.953125 L 16.074219 169.753906 L 16.285156 169.566406 L 16.503906 169.394531 L 16.722656 169.234375 L 16.945312 169.085938 L 17.171875 168.949219 L 17.398438 168.828125 L 17.636719 168.71875 L 17.882812 168.621094 L 18.132812 168.535156 L 18.386719 168.460938 L 18.648438 168.398438 L 18.917969 168.347656 L 19.191406 168.304688 L 19.472656 168.277344 L 19.757812 168.261719 Z M 20.050781 168.253906 "/>
<path fill-rule="nonzero" fill="rgb(10.196078%, 10.196078%, 10.196078%)" fill-opacity="1" d="M 33.273438 168.253906 L 33.777344 168.277344 L 34.253906 168.34375 L 34.707031 168.453125 L 35.132812 168.605469 L 35.535156 168.804688 L 35.914062 169.046875 L 36.265625 169.332031 L 36.59375 169.664062 L 36.898438 170.035156 L 37.175781 170.453125 L 37.425781 170.910156 L 37.652344 171.40625 L 37.851562 171.945312 L 38.023438 172.523438 L 38.167969 173.140625 L 38.289062 173.800781 L 38.378906 174.503906 L 38.445312 175.246094 L 38.484375 176.03125 L 38.5 176.855469 L 38.484375 177.675781 L 38.445312 178.453125 L 38.378906 179.195312 L 38.285156 179.894531 L 38.160156 180.554688 L 38.011719 181.175781 L 37.839844 181.753906 L 37.636719 182.292969 L 37.40625 182.792969 L 37.148438 183.253906 L 36.871094 183.667969 L 36.570312 184.039062 L 36.246094 184.363281 L 35.894531 184.648438 L 35.519531 184.886719 L 35.117188 185.082031 L 34.695312 185.234375 L 34.246094 185.34375 L 33.773438 185.40625 L 33.273438 185.429688 L 32.773438 185.40625 L 32.292969 185.34375 L 31.84375 185.234375 L 31.414062 185.082031 L 31.011719 184.886719 L 30.632812 184.648438 L 30.28125 184.363281 L 29.953125 184.039062 L 29.652344 183.667969 L 29.375 183.253906 L 29.121094 182.792969 L 28.898438 182.292969 L 28.699219 181.753906 L 28.527344 181.171875 L 28.378906 180.546875 L 28.261719 179.886719 L 28.167969 179.183594 L 28.101562 178.4375 L 28.0625 177.65625 L 28.050781 176.828125 L 28.0625 176.003906 L 28.101562 175.222656 L 28.167969 174.480469 L 28.261719 173.777344 L 28.378906 173.117188 L 28.527344 172.496094 L 28.699219 171.917969 L 28.898438 171.382812 L 29.121094 170.886719 L 29.375 170.429688 L 29.652344 170.015625 L 29.953125 169.648438 L 30.28125 169.320312 L 30.632812 169.039062 L 31.011719 168.796875 L 31.414062 168.601562 L 31.84375 168.449219 L 32.292969 168.339844 L 32.773438 168.277344 Z M 33.273438 169.453125 L 32.566406 169.527344 L 31.933594 169.75 L 31.375 170.117188 L 30.890625 170.632812 L 30.480469 171.296875 L 30.144531 172.109375 L 29.886719 173.066406 L 29.699219 174.175781 L 29.585938 175.429688 L 29.550781 176.828125 L 29.585938 178.234375 L 29.699219 179.492188 L 29.886719 180.605469 L 30.144531 181.566406 L 30.480469 182.378906 L 30.890625 183.046875 L 31.375 183.5625 L 31.933594 183.933594 L 32.566406 184.15625 L 33.273438 184.230469 L 33.628906 184.210938 L 33.96875 184.15625 L 34.289062 184.066406 L 34.589844 183.941406 L 34.875 183.78125 L 35.140625 183.582031 L 35.386719 183.347656 L 35.617188 183.078125 L 35.832031 182.773438 L 36.023438 182.429688 L 36.203125 182.050781 L 36.367188 181.628906 L 36.507812 181.171875 L 36.632812 180.671875 L 36.738281 180.136719 L 36.824219 179.558594 L 36.890625 178.941406 L 36.9375 178.285156 L 36.964844 177.589844 L 36.972656 176.855469 L 36.964844 176.121094 L 36.9375 175.421875 L 36.890625 174.765625 L 36.824219 174.152344 L 36.738281 173.574219 L 36.632812 173.035156 L 36.507812 172.539062 L 36.367188 172.078125 L 36.203125 171.660156 L 36.023438 171.28125 L 35.832031 170.933594 L 35.617188 170.621094 L 35.386719 170.347656 L 35.140625 170.113281 L 34.875 169.910156 L 34.589844 169.746094 L 34.289062 169.617188 L 33.96875 169.527344 L 33.628906 169.472656 Z M 33.273438 169.453125 "/>
<path fill-rule="nonzero" fill="rgb(10.196078%, 10.196078%, 10.196078%)" fill-opacity="1" d="M 19.773438 100.5625 L 20.050781 100.566406 L 20.320312 100.582031 L 20.582031 100.609375 L 20.835938 100.648438 L 21.082031 100.699219 L 21.320312 100.757812 L 21.550781 100.832031 L 21.773438 100.914062 L 21.992188 101.007812 L 22.199219 101.109375 L 22.40625 101.222656 L 22.597656 101.347656 L 22.785156 101.476562 L 22.960938 101.613281 L 23.125 101.761719 L 23.28125 101.914062 L 23.425781 102.078125 L 23.558594 102.246094 L 23.683594 102.425781 L 23.800781 102.609375 L 23.902344 102.796875 L 23.996094 102.992188 L 24.078125 103.1875 L 24.152344 103.390625 L 24.210938 103.597656 L 24.261719 103.8125 L 24.300781 104.027344 L 24.328125 104.25 L 24.34375 104.476562 L 24.347656 104.710938 L 24.339844 105.03125 L 24.3125 105.335938 L 24.265625 105.632812 L 24.203125 105.914062 L 24.117188 106.1875 L 24.015625 106.445312 L 23.894531 106.691406 L 23.757812 106.925781 L 23.601562 107.148438 L 23.425781 107.359375 L 23.238281 107.554688 L 23.042969 107.730469 L 22.835938 107.894531 L 22.617188 108.039062 L 22.386719 108.171875 L 22.148438 108.289062 L 21.894531 108.394531 L 21.632812 108.480469 L 21.359375 108.554688 L 21.074219 108.609375 L 21.394531 108.636719 L 21.703125 108.679688 L 21.996094 108.746094 L 22.28125 108.835938 L 22.554688 108.941406 L 22.816406 109.070312 L 23.066406 109.21875 L 23.304688 109.386719 L 23.535156 109.574219 L 23.75 109.785156 L 23.953125 110.007812 L 24.136719 110.25 L 24.296875 110.503906 L 24.4375 110.777344 L 24.554688 111.066406 L 24.652344 111.371094 L 24.726562 111.695312 L 24.78125 112.035156 L 24.8125 112.390625 L 24.824219 112.761719 L 24.816406 113.046875 L 24.796875 113.328125 L 24.765625 113.601562 L 24.71875 113.867188 L 24.660156 114.128906 L 24.589844 114.382812 L 24.507812 114.632812 L 24.410156 114.871094 L 24.296875 115.105469 L 24.175781 115.335938 L 24.039062 115.554688 L 23.890625 115.765625 L 23.734375 115.96875 L 23.5625 116.160156 L 23.378906 116.34375 L 23.1875 116.515625 L 22.984375 116.679688 L 22.765625 116.832031 L 22.539062 116.976562 L 22.300781 117.109375 L 22.054688 117.230469 L 21.804688 117.335938 L 21.546875 117.429688 L 21.28125 117.511719 L 21.003906 117.578125 L 20.722656 117.636719 L 20.4375 117.679688 L 20.140625 117.710938 L 19.835938 117.730469 L 19.523438 117.734375 L 18.953125 117.714844 L 18.40625 117.648438 L 17.875 117.542969 L 17.367188 117.390625 L 16.878906 117.199219 L 16.414062 116.960938 L 15.96875 116.683594 L 15.539062 116.359375 L 15.136719 115.992188 L 14.75 115.585938 L 15.675781 114.761719 L 15.84375 114.941406 L 16.015625 115.109375 L 16.1875 115.269531 L 16.363281 115.421875 L 16.535156 115.5625 L 16.710938 115.691406 L 16.890625 115.8125 L 17.066406 115.921875 L 17.246094 116.019531 L 17.425781 116.109375 L 17.613281 116.1875 L 17.800781 116.253906 L 17.996094 116.316406 L 18.195312 116.367188 L 18.398438 116.410156 L 18.605469 116.445312 L 18.816406 116.472656 L 19.03125 116.496094 L 19.25 116.507812 L 19.472656 116.511719 L 19.828125 116.5 L 20.164062 116.46875 L 20.484375 116.417969 L 20.789062 116.347656 L 21.082031 116.253906 L 21.355469 116.140625 L 21.613281 116.007812 L 21.859375 115.855469 L 22.085938 115.679688 L 22.300781 115.484375 L 22.496094 115.273438 L 22.667969 115.050781 L 22.824219 114.8125 L 22.957031 114.5625 L 23.066406 114.296875 L 23.160156 114.023438 L 23.230469 113.730469 L 23.285156 113.429688 L 23.3125 113.113281 L 23.324219 112.785156 L 23.285156 112.121094 L 23.175781 111.527344 L 22.988281 111 L 22.722656 110.546875 L 22.386719 110.160156 L 21.972656 109.84375 L 21.488281 109.601562 L 20.925781 109.425781 L 20.285156 109.320312 L 19.574219 109.285156 L 18.472656 109.285156 L 18.675781 108.109375 L 19.472656 108.109375 L 19.753906 108.101562 L 20.027344 108.078125 L 20.292969 108.035156 L 20.546875 107.972656 L 20.792969 107.898438 L 21.03125 107.804688 L 21.261719 107.695312 L 21.484375 107.566406 L 21.695312 107.421875 L 21.898438 107.261719 L 22.089844 107.078125 L 22.257812 106.882812 L 22.410156 106.671875 L 22.539062 106.445312 L 22.648438 106.203125 L 22.738281 105.949219 L 22.808594 105.679688 L 22.859375 105.398438 L 22.890625 105.097656 L 22.898438 104.785156 L 22.890625 104.515625 L 22.863281 104.257812 L 22.820312 104.011719 L 22.757812 103.777344 L 22.679688 103.554688 L 22.585938 103.34375 L 22.472656 103.140625 L 22.339844 102.953125 L 22.191406 102.777344 L 22.023438 102.609375 L 21.84375 102.453125 L 21.652344 102.3125 L 21.449219 102.191406 L 21.234375 102.082031 L 21.003906 101.992188 L 20.765625 101.917969 L 20.519531 101.859375 L 20.257812 101.820312 L 19.984375 101.792969 L 19.699219 101.785156 L 19.492188 101.789062 L 19.285156 101.800781 L 19.085938 101.820312 L 18.886719 101.84375 L 18.691406 101.878906 L 18.503906 101.921875 L 18.316406 101.96875 L 18.132812 102.027344 L 17.953125 102.089844 L 17.773438 102.160156 L 17.597656 102.234375 L 17.421875 102.320312 L 17.246094 102.414062 L 17.070312 102.515625 L 16.894531 102.628906 L 16.714844 102.75 L 16.539062 102.882812 L 16.359375 103.023438 L 16.179688 103.175781 L 16 103.335938 L 15.222656 102.4375 L 15.425781 102.25 L 15.628906 102.074219 L 15.832031 101.910156 L 16.039062 101.753906 L 16.25 101.609375 L 16.460938 101.476562 L 16.671875 101.351562 L 16.886719 101.234375 L 17.105469 101.128906 L 17.324219 101.035156 L 17.546875 100.945312 L 17.773438 100.863281 L 18.007812 100.792969 L 18.246094 100.730469 L 18.488281 100.679688 L 18.734375 100.636719 L 18.988281 100.601562 L 19.246094 100.578125 L 19.507812 100.566406 Z M 19.773438 100.5625 "/>
<path fill-rule="nonzero" fill="rgb(10.196078%, 10.196078%, 10.196078%)" fill-opacity="1" d="M 33.273438 100.5625 L 33.777344 100.582031 L 34.253906 100.648438 L 34.707031 100.757812 L 35.132812 100.914062 L 35.535156 101.109375 L 35.914062 101.351562 L 36.265625 101.636719 L 36.59375 101.96875 L 36.898438 102.34375 L 37.175781 102.761719 L 37.425781 103.214844 L 37.652344 103.710938 L 37.851562 104.25 L 38.023438 104.828125 L 38.167969 105.449219 L 38.289062 106.109375 L 38.378906 106.808594 L 38.445312 107.550781 L 38.484375 108.335938 L 38.5 109.160156 L 38.484375 109.980469 L 38.445312 110.761719 L 38.378906 111.5 L 38.285156 112.199219 L 38.160156 112.859375 L 38.011719 113.480469 L 37.839844 114.0625 L 37.636719 114.601562 L 37.40625 115.101562 L 37.148438 115.5625 L 36.871094 115.972656 L 36.570312 116.34375 L 36.246094 116.667969 L 35.894531 116.953125 L 35.519531 117.191406 L 35.117188 117.386719 L 34.695312 117.539062 L 34.246094 117.648438 L 33.773438 117.714844 L 33.273438 117.734375 L 32.773438 117.714844 L 32.292969 117.648438 L 31.84375 117.539062 L 31.414062 117.386719 L 31.011719 117.191406 L 30.632812 116.953125 L 30.28125 116.667969 L 29.953125 116.34375 L 29.652344 115.972656 L 29.375 115.5625 L 29.121094 115.101562 L 28.898438 114.597656 L 28.699219 114.058594 L 28.527344 113.476562 L 28.378906 112.855469 L 28.261719 112.191406 L 28.167969 111.488281 L 28.101562 110.746094 L 28.0625 109.960938 L 28.050781 109.136719 L 28.0625 108.3125 L 28.101562 107.527344 L 28.167969 106.785156 L 28.261719 106.082031 L 28.378906 105.421875 L 28.527344 104.804688 L 28.699219 104.226562 L 28.898438 103.6875 L 29.121094 103.191406 L 29.375 102.734375 L 29.652344 102.324219 L 29.953125 101.953125 L 30.28125 101.625 L 30.632812 101.34375 L 31.011719 101.105469 L 31.414062 100.910156 L 31.84375 100.757812 L 32.292969 100.648438 L 32.773438 100.582031 Z M 33.273438 101.761719 L 32.566406 101.835938 L 31.933594 102.054688 L 31.375 102.425781 L 30.890625 102.941406 L 30.480469 103.605469 L 30.144531 104.414062 L 29.886719 105.375 L 29.699219 106.480469 L 29.585938 107.734375 L 29.550781 109.136719 L 29.585938 110.542969 L 29.699219 111.800781 L 29.886719 112.910156 L 30.144531 113.871094 L 30.480469 114.6875 L 30.890625 115.351562 L 31.375 115.871094 L 31.933594 116.238281 L 32.566406 116.460938 L 33.273438 116.535156 L 33.628906 116.519531 L 33.96875 116.464844 L 34.289062 116.375 L 34.589844 116.246094 L 34.875 116.085938 L 35.140625 115.886719 L 35.386719 115.652344 L 35.617188 115.382812 L 35.832031 115.078125 L 36.023438 114.734375 L 36.203125 114.355469 L 36.367188 113.9375 L 36.507812 113.476562 L 36.632812 112.980469 L 36.738281 112.441406 L 36.824219 111.863281 L 36.890625 111.246094 L 36.9375 110.589844 L 36.964844 109.894531 L 36.972656 109.160156 L 36.964844 108.425781 L 36.9375 107.730469 L 36.890625 107.074219 L 36.824219 106.457031 L 36.738281 105.878906 L 36.632812 105.339844 L 36.507812 104.84375 L 36.367188 104.382812 L 36.203125 103.964844 L 36.023438 103.585938 L 35.832031 103.238281 L 35.617188 102.929688 L 35.386719 102.65625 L 35.140625 102.417969 L 34.875 102.21875 L 34.589844 102.050781 L 34.289062 101.925781 L 33.96875 101.832031 L 33.628906 101.777344 Z M 33.273438 101.761719 "/>
<path fill-rule="nonzero" fill="rgb(10.196078%, 10.196078%, 10.196078%)" fill-opacity="1" d="M 25.523438 44.191406 L 25.523438 45.390625 L 23.273438 45.390625 L 23.273438 49.765625 L 21.847656 49.765625 L 21.847656 45.390625 L 14.574219 45.390625 L 14.574219 44.316406 L 19.648438 32.867188 L 20.875 33.367188 L 16.125 44.191406 L 21.847656 44.191406 L 22.023438 39.316406 L 23.273438 39.316406 L 23.273438 44.191406 Z M 25.523438 44.191406 "/>
<path fill-rule="nonzero" fill="rgb(10.196078%, 10.196078%, 10.196078%)" fill-opacity="1" d="M 33.273438 32.867188 L 33.777344 32.886719 L 34.253906 32.953125 L 34.707031 33.066406 L 35.132812 33.21875 L 35.535156 33.417969 L 35.914062 33.660156 L 36.265625 33.945312 L 36.59375 34.273438 L 36.898438 34.648438 L 37.175781 35.066406 L 37.425781 35.523438 L 37.652344 36.019531 L 37.851562 36.554688 L 38.023438 37.132812 L 38.167969 37.753906 L 38.289062 38.414062 L 38.378906 39.117188 L 38.445312 39.859375 L 38.484375 40.640625 L 38.5 41.464844 L 38.484375 42.285156 L 38.445312 43.066406 L 38.378906 43.804688 L 38.285156 44.507812 L 38.160156 45.167969 L 38.011719 45.785156 L 37.839844 46.367188 L 37.636719 46.90625 L 37.40625 47.40625 L 37.148438 47.867188 L 36.871094 48.28125 L 36.570312 48.648438 L 36.246094 48.976562 L 35.894531 49.257812 L 35.519531 49.496094 L 35.117188 49.695312 L 34.695312 49.847656 L 34.246094 49.953125 L 33.773438 50.019531 L 33.273438 50.042969 L 32.773438 50.019531 L 32.292969 49.953125 L 31.84375 49.847656 L 31.414062 49.695312 L 31.011719 49.496094 L 30.632812 49.257812 L 30.28125 48.976562 L 29.953125 48.648438 L 29.652344 48.28125 L 29.375 47.867188 L 29.121094 47.40625 L 28.898438 46.90625 L 28.699219 46.363281 L 28.527344 45.78125 L 28.378906 45.160156 L 28.261719 44.496094 L 28.167969 43.792969 L 28.101562 43.050781 L 28.0625 42.265625 L 28.050781 41.441406 L 28.0625 40.617188 L 28.101562 39.832031 L 28.167969 39.089844 L 28.261719 38.390625 L 28.378906 37.730469 L 28.527344 37.109375 L 28.699219 36.53125 L 28.898438 35.992188 L 29.121094 35.496094 L 29.375 35.042969 L 29.652344 34.628906 L 29.953125 34.257812 L 30.28125 33.933594 L 30.632812 33.648438 L 31.011719 33.410156 L 31.414062 33.214844 L 31.84375 33.0625 L 32.292969 32.953125 L 32.773438 32.886719 Z M 33.273438 34.066406 L 32.566406 34.140625 L 31.933594 34.363281 L 31.375 34.730469 L 30.890625 35.246094 L 30.480469 35.910156 L 30.144531 36.722656 L 29.886719 37.679688 L 29.699219 38.785156 L 29.585938 40.039062 L 29.550781 41.441406 L 29.585938 42.847656 L 29.699219 44.105469 L 29.886719 45.214844 L 30.144531 46.175781 L 30.480469 46.992188 L 30.890625 47.65625 L 31.375 48.175781 L 31.933594 48.546875 L 32.566406 48.769531 L 33.273438 48.839844 L 33.628906 48.824219 L 33.96875 48.769531 L 34.289062 48.679688 L 34.589844 48.554688 L 34.875 48.390625 L 35.140625 48.195312 L 35.386719 47.960938 L 35.617188 47.691406 L 35.832031 47.382812 L 36.023438 47.042969 L 36.203125 46.660156 L 36.367188 46.242188 L 36.507812 45.785156 L 36.632812 45.285156 L 36.738281 44.746094 L 36.824219 44.171875 L 36.890625 43.554688 L 36.9375 42.898438 L 36.964844 42.203125 L 36.972656 41.464844 L 36.964844 40.730469 L 36.9375 40.035156 L 36.890625 39.378906 L 36.824219 38.761719 L 36.738281 38.183594 L 36.632812 37.648438 L 36.507812 37.148438 L 36.367188 36.691406 L 36.203125 36.269531 L 36.023438 35.890625 L 35.832031 35.542969 L 35.617188 35.234375 L 35.386719 34.960938 L 35.140625 34.722656 L 34.875 34.523438 L 34.589844 34.359375 L 34.289062 34.230469 L 33.96875 34.140625 L 33.628906 34.085938 Z M 33.273438 34.066406 "/>
<path fill-rule="nonzero" fill="rgb(10.196078%, 10.196078%, 10.196078%)" fill-opacity="1" d="M 79.636719 338.527344 L 80.140625 338.546875 L 80.617188 338.613281 L 81.070312 338.722656 L 81.496094 338.878906 L 81.898438 339.074219 L 82.277344 339.316406 L 82.628906 339.601562 L 82.957031 339.933594 L 83.261719 340.308594 L 83.539062 340.726562 L 83.789062 341.179688 L 84.015625 341.675781 L 84.214844 342.214844 L 84.386719 342.792969 L 84.53125 343.414062 L 84.648438 344.074219 L 84.742188 344.773438 L 84.808594 345.515625 L 84.847656 346.300781 L 84.863281 347.125 L 84.847656 347.945312 L 84.808594 348.726562 L 84.742188 349.464844 L 84.644531 350.164062 L 84.523438 350.824219 L 84.375 351.445312 L 84.199219 352.027344 L 84 352.566406 L 83.769531 353.066406 L 83.511719 353.527344 L 83.234375 353.9375 L 82.933594 354.308594 L 82.605469 354.632812 L 82.257812 354.917969 L 81.882812 355.15625 L 81.480469 355.351562 L 81.058594 355.503906 L 80.609375 355.613281 L 80.136719 355.679688 L 79.636719 355.699219 L 79.136719 355.679688 L 78.65625 355.613281 L 78.203125 355.503906 L 77.777344 355.351562 L 77.375 355.15625 L 76.996094 354.917969 L 76.644531 354.632812 L 76.316406 354.308594 L 76.015625 353.9375 L 75.738281 353.527344 L 75.484375 353.066406 L 75.261719 352.5625 L 75.0625 352.023438 L 74.890625 351.441406 L 74.742188 350.820312 L 74.625 350.15625 L 74.53125 349.453125 L 74.464844 348.710938 L 74.425781 347.925781 L 74.414062 347.101562 L 74.425781 346.277344 L 74.464844 345.492188 L 74.53125 344.75 L 74.625 344.046875 L 74.742188 343.386719 L 74.890625 342.769531 L 75.0625 342.191406 L 75.261719 341.652344 L 75.484375 341.15625 L 75.738281 340.699219 L 76.015625 340.289062 L 76.316406 339.917969 L 76.644531 339.589844 L 76.996094 339.308594 L 77.375 339.070312 L 77.777344 338.875 L 78.203125 338.722656 L 78.65625 338.613281 L 79.136719 338.546875 Z M 79.636719 339.726562 L 78.929688 339.800781 L 78.296875 340.019531 L 77.738281 340.390625 L 77.253906 340.90625 L 76.84375 341.570312 L 76.507812 342.378906 L 76.246094 343.339844 L 76.0625 344.445312 L 75.949219 345.699219 L 75.914062 347.101562 L 75.949219 348.507812 L 76.0625 349.765625 L 76.246094 350.875 L 76.507812 351.835938 L 76.84375 352.652344 L 77.253906 353.316406 L 77.738281 353.835938 L 78.296875 354.203125 L 78.929688 354.425781 L 79.636719 354.5 L 79.992188 354.484375 L 80.332031 354.429688 L 80.652344 354.339844 L 80.953125 354.210938 L 81.238281 354.050781 L 81.503906 353.851562 L 81.75 353.617188 L 81.980469 353.347656 L 82.191406 353.042969 L 82.386719 352.699219 L 82.566406 352.320312 L 82.730469 351.902344 L 82.871094 351.441406 L 82.996094 350.945312 L 83.101562 350.40625 L 83.183594 349.828125 L 83.25 349.210938 L 83.300781 348.554688 L 83.328125 347.859375 L 83.335938 347.125 L 83.328125 346.390625 L 83.300781 345.695312 L 83.25 345.039062 L 83.183594 344.421875 L 83.101562 343.84375 L 82.996094 343.304688 L 82.871094 342.808594 L 82.730469 342.347656 L 82.566406 341.929688 L 82.386719 341.550781 L 82.191406 341.203125 L 81.980469 340.894531 L 81.75 340.621094 L 81.503906 340.382812 L 81.238281 340.183594 L 80.953125 340.015625 L 80.652344 339.890625 L 80.332031 339.796875 L 79.992188 339.742188 Z M 79.636719 339.726562 "/>
<path fill-rule="nonzero" fill="rgb(10.196078%, 10.196078%, 10.196078%)" fill-opacity="1" d="M 89.085938 353.324219 L 89.191406 353.328125 L 89.289062 353.339844 L 89.382812 353.355469 L 89.476562 353.382812 L 89.5625 353.414062 L 89.644531 353.453125 L 89.722656 353.496094 L 89.800781 353.550781 L 89.871094 353.609375 L 90.003906 353.742188 L 90.0625 353.8125 L 90.117188 353.886719 L 90.160156 353.964844 L 90.199219 354.042969 L 90.230469 354.128906 L 90.253906 354.214844 L 90.273438 354.308594 L 90.285156 354.402344 L 90.289062 354.5 L 90.285156 354.605469 L 90.273438 354.703125 L 90.253906 354.800781 L 90.230469 354.890625 L 90.199219 354.980469 L 90.160156 355.066406 L 90.117188 355.148438 L 90.0625 355.226562 L 90.003906 355.304688 L 89.9375 355.375 L 89.871094 355.4375 L 89.800781 355.492188 L 89.722656 355.542969 L 89.644531 355.582031 L 89.5625 355.621094 L 89.476562 355.648438 L 89.382812 355.671875 L 89.289062 355.6875 L 89.191406 355.695312 L 89.085938 355.699219 L 88.988281 355.695312 L 88.894531 355.6875 L 88.800781 355.667969 L 88.710938 355.644531 L 88.625 355.613281 L 88.542969 355.574219 L 88.460938 355.527344 L 88.382812 355.476562 L 88.308594 355.417969 L 88.238281 355.351562 L 88.171875 355.277344 L 88.109375 355.203125 L 88.058594 355.125 L 88.011719 355.046875 L 87.976562 354.964844 L 87.941406 354.875 L 87.917969 354.785156 L 87.902344 354.695312 L 87.890625 354.597656 L 87.886719 354.5 L 87.890625 354.402344 L 87.902344 354.308594 L 87.917969 354.214844 L 87.941406 354.128906 L 87.976562 354.042969 L 88.011719 353.964844 L 88.058594 353.886719 L 88.109375 353.8125 L 88.171875 353.742188 L 88.238281 353.675781 L 88.308594 353.609375 L 88.382812 353.550781 L 88.460938 353.496094 L 88.542969 353.453125 L 88.625 353.414062 L 88.710938 353.382812 L 88.800781 353.355469 L 88.894531 353.339844 L 88.988281 353.328125 Z M 89.085938 353.324219 "/>
<path fill-rule="nonzero" fill="rgb(10.196078%, 10.196078%, 10.196078%)" fill-opacity="1" d="M 98.5625 338.527344 L 99.066406 338.546875 L 99.542969 338.613281 L 99.996094 338.722656 L 100.421875 338.878906 L 100.824219 339.074219 L 101.203125 339.316406 L 101.554688 339.601562 L 101.882812 339.933594 L 102.183594 340.308594 L 102.460938 340.726562 L 102.714844 341.179688 L 102.9375 341.675781 L 103.136719 342.214844 L 103.308594 342.792969 L 103.457031 343.414062 L 103.574219 344.074219 L 103.667969 344.773438 L 103.734375 345.515625 L 103.773438 346.300781 L 103.789062 347.125 L 103.773438 347.945312 L 103.734375 348.726562 L 103.664062 349.464844 L 103.570312 350.164062 L 103.449219 350.824219 L 103.300781 351.445312 L 103.125 352.027344 L 102.921875 352.566406 L 102.695312 353.066406 L 102.4375 353.527344 L 102.160156 353.9375 L 101.859375 354.308594 L 101.53125 354.632812 L 101.179688 354.917969 L 100.804688 355.15625 L 100.40625 355.351562 L 99.980469 355.503906 L 99.535156 355.613281 L 99.058594 355.679688 L 98.5625 355.699219 L 98.058594 355.679688 L 97.582031 355.613281 L 97.128906 355.503906 L 96.703125 355.351562 L 96.300781 355.15625 L 95.921875 354.917969 L 95.570312 354.632812 L 95.242188 354.308594 L 94.941406 353.9375 L 94.664062 353.527344 L 94.410156 353.066406 L 94.183594 352.5625 L 93.988281 352.023438 L 93.8125 351.441406 L 93.667969 350.820312 L 93.550781 350.15625 L 93.457031 349.453125 L 93.390625 348.710938 L 93.351562 347.925781 L 93.335938 347.101562 L 93.351562 346.277344 L 93.390625 345.492188 L 93.457031 344.75 L 93.550781 344.046875 L 93.667969 343.386719 L 93.8125 342.769531 L 93.988281 342.191406 L 94.183594 341.652344 L 94.410156 341.15625 L 94.664062 340.699219 L 94.941406 340.289062 L 95.242188 339.917969 L 95.570312 339.589844 L 95.921875 339.308594 L 96.300781 339.070312 L 96.703125 338.875 L 97.128906 338.722656 L 97.582031 338.613281 L 98.058594 338.546875 Z M 98.5625 339.726562 L 97.855469 339.800781 L 97.222656 340.019531 L 96.664062 340.390625 L 96.179688 340.90625 L 95.769531 341.570312 L 95.433594 342.378906 L 95.171875 343.339844 L 94.984375 344.445312 L 94.875 345.699219 L 94.835938 347.101562 L 94.875 348.507812 L 94.984375 349.765625 L 95.171875 350.875 L 95.433594 351.835938 L 95.769531 352.652344 L 96.179688 353.316406 L 96.664062 353.835938 L 97.222656 354.203125 L 97.855469 354.425781 L 98.5625 354.5 L 98.917969 354.484375 L 99.257812 354.429688 L 99.578125 354.339844 L 99.878906 354.210938 L 100.164062 354.050781 L 100.429688 353.851562 L 100.675781 353.617188 L 100.90625 353.347656 L 101.117188 353.042969 L 101.3125 352.699219 L 101.492188 352.320312 L 101.65625 351.902344 L 101.796875 351.441406 L 101.921875 350.945312 L 102.023438 350.40625 L 102.109375 349.828125 L 102.175781 349.210938 L 102.222656 348.554688 L 102.253906 347.859375 L 102.261719 347.125 L 102.253906 346.390625 L 102.222656 345.695312 L 102.175781 345.039062 L 102.109375 344.421875 L 102.023438 343.84375 L 101.921875 343.304688 L 101.796875 342.808594 L 101.65625 342.347656 L 101.492188 341.929688 L 101.3125 341.550781 L 101.117188 341.203125 L 100.90625 340.894531 L 100.675781 340.621094 L 100.429688 340.382812 L 100.164062 340.183594 L 99.878906 340.015625 L 99.578125 339.890625 L 99.257812 339.796875 L 98.917969 339.742188 Z M 98.5625 339.726562 "/>
<path fill-rule="nonzero" fill="rgb(10.196078%, 10.196078%, 10.196078%)" fill-opacity="1" d="M 112.3125 338.527344 L 112.816406 338.546875 L 113.292969 338.613281 L 113.746094 338.722656 L 114.171875 338.878906 L 114.574219 339.074219 L 114.953125 339.316406 L 115.304688 339.601562 L 115.632812 339.933594 L 115.933594 340.308594 L 116.210938 340.726562 L 116.464844 341.179688 L 116.6875 341.675781 L 116.886719 342.214844 L 117.058594 342.792969 L 117.207031 343.414062 L 117.324219 344.074219 L 117.417969 344.773438 L 117.484375 345.515625 L 117.523438 346.300781 L 117.539062 347.125 L 117.523438 347.945312 L 117.484375 348.726562 L 117.414062 349.464844 L 117.320312 350.164062 L 117.199219 350.824219 L 117.050781 351.445312 L 116.875 352.027344 L 116.671875 352.566406 L 116.445312 353.066406 L 116.1875 353.527344 L 115.910156 353.9375 L 115.609375 354.308594 L 115.28125 354.632812 L 114.929688 354.917969 L 114.554688 355.15625 L 114.15625 355.351562 L 113.730469 355.503906 L 113.285156 355.613281 L 112.808594 355.679688 L 112.3125 355.699219 L 111.808594 355.679688 L 111.332031 355.613281 L 110.878906 355.503906 L 110.453125 355.351562 L 110.050781 355.15625 L 109.671875 354.917969 L 109.320312 354.632812 L 108.992188 354.308594 L 108.691406 353.9375 L 108.414062 353.527344 L 108.160156 353.066406 L 107.933594 352.5625 L 107.738281 352.023438 L 107.5625 351.441406 L 107.417969 350.820312 L 107.300781 350.15625 L 107.207031 349.453125 L 107.140625 348.710938 L 107.101562 347.925781 L 107.085938 347.101562 L 107.101562 346.277344 L 107.140625 345.492188 L 107.207031 344.75 L 107.300781 344.046875 L 107.417969 343.386719 L 107.5625 342.769531 L 107.738281 342.191406 L 107.933594 341.652344 L 108.160156 341.15625 L 108.414062 340.699219 L 108.691406 340.289062 L 108.992188 339.917969 L 109.320312 339.589844 L 109.671875 339.308594 L 110.050781 339.070312 L 110.453125 338.875 L 110.878906 338.722656 L 111.332031 338.613281 L 111.808594 338.546875 Z M 112.3125 339.726562 L 111.605469 339.800781 L 110.972656 340.019531 L 110.414062 340.390625 L 109.929688 340.90625 L 109.519531 341.570312 L 109.183594 342.378906 L 108.921875 343.339844 L 108.734375 344.445312 L 108.625 345.699219 L 108.585938 347.101562 L 108.625 348.507812 L 108.734375 349.765625 L 108.921875 350.875 L 109.183594 351.835938 L 109.519531 352.652344 L 109.929688 353.316406 L 110.414062 353.835938 L 110.972656 354.203125 L 111.605469 354.425781 L 112.3125 354.5 L 112.667969 354.484375 L 113.007812 354.429688 L 113.328125 354.339844 L 113.628906 354.210938 L 113.914062 354.050781 L 114.179688 353.851562 L 114.425781 353.617188 L 114.65625 353.347656 L 114.867188 353.042969 L 115.0625 352.699219 L 115.242188 352.320312 L 115.40625 351.902344 L 115.546875 351.441406 L 115.671875 350.945312 L 115.773438 350.40625 L 115.859375 349.828125 L 115.925781 349.210938 L 115.972656 348.554688 L 116.003906 347.859375 L 116.011719 347.125 L 116.003906 346.390625 L 115.972656 345.695312 L 115.925781 345.039062 L 115.859375 344.421875 L 115.773438 343.84375 L 115.671875 343.304688 L 115.546875 342.808594 L 115.40625 342.347656 L 115.242188 341.929688 L 115.0625 341.550781 L 114.867188 341.203125 L 114.65625 340.894531 L 114.425781 340.621094 L 114.179688 340.382812 L 113.914062 340.183594 L 113.628906 340.015625 L 113.328125 339.890625 L 113.007812 339.796875 L 112.667969 339.742188 Z M 112.3125 339.726562 "/>
<path fill-rule="nonzero" fill="rgb(10.196078%, 10.196078%, 10.196078%)" fill-opacity="1" d="M 241.046875 338.527344 L 241.550781 338.546875 L 242.027344 338.613281 L 242.480469 338.722656 L 242.90625 338.878906 L 243.308594 339.074219 L 243.6875 339.316406 L 244.039062 339.601562 L 244.367188 339.933594 L 244.667969 340.308594 L 244.945312 340.726562 L 245.199219 341.179688 L 245.425781 341.675781 L 245.621094 342.214844 L 245.792969 342.792969 L 245.941406 343.414062 L 246.058594 344.074219 L 246.152344 344.773438 L 246.21875 345.515625 L 246.257812 346.300781 L 246.273438 347.125 L 246.257812 347.945312 L 246.21875 348.726562 L 246.148438 349.464844 L 246.054688 350.164062 L 245.933594 350.824219 L 245.785156 351.445312 L 245.609375 352.027344 L 245.40625 352.566406 L 245.179688 353.066406 L 244.921875 353.527344 L 244.644531 353.9375 L 244.34375 354.308594 L 244.015625 354.632812 L 243.664062 354.917969 L 243.289062 355.15625 L 242.890625 355.351562 L 242.464844 355.503906 L 242.019531 355.613281 L 241.542969 355.679688 L 241.046875 355.699219 L 240.542969 355.679688 L 240.066406 355.613281 L 239.613281 355.503906 L 239.1875 355.351562 L 238.785156 355.15625 L 238.40625 354.917969 L 238.054688 354.632812 L 237.726562 354.308594 L 237.425781 353.9375 L 237.148438 353.527344 L 236.894531 353.066406 L 236.667969 352.5625 L 236.472656 352.023438 L 236.300781 351.441406 L 236.152344 350.820312 L 236.035156 350.15625 L 235.941406 349.453125 L 235.875 348.710938 L 235.835938 347.925781 L 235.820312 347.101562 L 235.835938 346.277344 L 235.875 345.492188 L 235.941406 344.75 L 236.035156 344.046875 L 236.152344 343.386719 L 236.300781 342.769531 L 236.472656 342.191406 L 236.667969 341.652344 L 236.894531 341.15625 L 237.148438 340.699219 L 237.425781 340.289062 L 237.726562 339.917969 L 238.054688 339.589844 L 238.40625 339.308594 L 238.785156 339.070312 L 239.1875 338.875 L 239.613281 338.722656 L 240.066406 338.613281 L 240.542969 338.546875 Z M 241.046875 339.726562 L 240.339844 339.800781 L 239.707031 340.019531 L 239.148438 340.390625 L 238.664062 340.90625 L 238.253906 341.570312 L 237.917969 342.378906 L 237.65625 343.339844 L 237.472656 344.445312 L 237.359375 345.699219 L 237.320312 347.101562 L 237.359375 348.507812 L 237.472656 349.765625 L 237.65625 350.875 L 237.917969 351.835938 L 238.253906 352.652344 L 238.664062 353.316406 L 239.148438 353.835938 L 239.707031 354.203125 L 240.339844 354.425781 L 241.046875 354.5 L 241.402344 354.484375 L 241.742188 354.429688 L 242.0625 354.339844 L 242.363281 354.210938 L 242.648438 354.050781 L 242.914062 353.851562 L 243.160156 353.617188 L 243.390625 353.347656 L 243.601562 353.042969 L 243.796875 352.699219 L 243.976562 352.320312 L 244.140625 351.902344 L 244.28125 351.441406 L 244.40625 350.945312 L 244.507812 350.40625 L 244.59375 349.828125 L 244.660156 349.210938 L 244.707031 348.554688 L 244.738281 347.859375 L 244.746094 347.125 L 244.738281 346.390625 L 244.707031 345.695312 L 244.660156 345.039062 L 244.59375 344.421875 L 244.507812 343.84375 L 244.40625 343.304688 L 244.28125 342.808594 L 244.140625 342.347656 L 243.976562 341.929688 L 243.796875 341.550781 L 243.601562 341.203125 L 243.390625 340.894531 L 243.160156 340.621094 L 242.914062 340.382812 L 242.648438 340.183594 L 242.363281 340.015625 L 242.0625 339.890625 L 241.742188 339.796875 L 241.402344 339.742188 Z M 241.046875 339.726562 "/>
<path fill-rule="nonzero" fill="rgb(10.196078%, 10.196078%, 10.196078%)" fill-opacity="1" d="M 250.496094 353.324219 L 250.601562 353.328125 L 250.699219 353.339844 L 250.792969 353.355469 L 250.886719 353.382812 L 250.972656 353.414062 L 251.054688 353.453125 L 251.132812 353.496094 L 251.207031 353.550781 L 251.28125 353.609375 L 251.414062 353.742188 L 251.472656 353.8125 L 251.523438 353.886719 L 251.570312 353.964844 L 251.609375 354.042969 L 251.640625 354.128906 L 251.664062 354.214844 L 251.683594 354.308594 L 251.691406 354.402344 L 251.695312 354.5 L 251.691406 354.605469 L 251.683594 354.703125 L 251.664062 354.800781 L 251.640625 354.890625 L 251.609375 354.980469 L 251.570312 355.066406 L 251.523438 355.148438 L 251.472656 355.226562 L 251.414062 355.304688 L 251.347656 355.375 L 251.28125 355.4375 L 251.207031 355.492188 L 251.132812 355.542969 L 251.054688 355.582031 L 250.972656 355.621094 L 250.886719 355.648438 L 250.792969 355.671875 L 250.699219 355.6875 L 250.601562 355.695312 L 250.496094 355.699219 L 250.398438 355.695312 L 250.304688 355.6875 L 250.210938 355.667969 L 250.121094 355.644531 L 250.035156 355.613281 L 249.949219 355.574219 L 249.871094 355.527344 L 249.792969 355.476562 L 249.71875 355.417969 L 249.648438 355.351562 L 249.582031 355.277344 L 249.519531 355.203125 L 249.46875 355.125 L 249.421875 355.046875 L 249.382812 354.964844 L 249.351562 354.875 L 249.328125 354.785156 L 249.3125 354.695312 L 249.300781 354.597656 L 249.296875 354.5 L 249.300781 354.402344 L 249.3125 354.308594 L 249.328125 354.214844 L 249.351562 354.128906 L 249.382812 354.042969 L 249.421875 353.964844 L 249.46875 353.886719 L 249.519531 353.8125 L 249.582031 353.742188 L 249.648438 353.675781 L 249.71875 353.609375 L 249.792969 353.550781 L 249.871094 353.496094 L 249.949219 353.453125 L 250.035156 353.414062 L 250.121094 353.382812 L 250.210938 353.355469 L 250.304688 353.339844 L 250.398438 353.328125 Z M 250.496094 353.324219 "/>
<path fill-rule="nonzero" fill="rgb(10.196078%, 10.196078%, 10.196078%)" fill-opacity="1" d="M 258.722656 338.527344 L 259.132812 338.539062 L 259.527344 338.574219 L 259.902344 338.636719 L 260.261719 338.722656 L 260.601562 338.832031 L 260.925781 338.964844 L 261.234375 339.125 L 261.523438 339.308594 L 261.792969 339.519531 L 262.046875 339.75 L 262.285156 340.003906 L 262.496094 340.269531 L 262.683594 340.546875 L 262.847656 340.84375 L 262.984375 341.152344 L 263.097656 341.472656 L 263.183594 341.808594 L 263.246094 342.160156 L 263.285156 342.523438 L 263.296875 342.902344 L 263.289062 343.222656 L 263.269531 343.542969 L 263.234375 343.859375 L 263.1875 344.167969 L 263.128906 344.476562 L 263.054688 344.777344 L 262.964844 345.078125 L 262.863281 345.371094 L 262.75 345.664062 L 262.621094 345.949219 L 262.480469 346.238281 L 262.320312 346.53125 L 262.148438 346.832031 L 261.957031 347.132812 L 261.753906 347.445312 L 261.53125 347.757812 L 261.296875 348.082031 L 261.046875 348.40625 L 260.777344 348.738281 L 260.496094 349.074219 L 260.195312 349.433594 L 259.855469 349.824219 L 259.074219 350.703125 L 258.628906 351.195312 L 258.148438 351.71875 L 257.632812 352.277344 L 257.082031 352.867188 L 256.492188 353.492188 L 255.871094 354.152344 L 263.746094 354.152344 L 263.546875 355.425781 L 254.171875 355.425781 L 254.171875 354.199219 L 254.835938 353.488281 L 255.464844 352.816406 L 256.050781 352.179688 L 256.601562 351.585938 L 257.109375 351.027344 L 257.578125 350.503906 L 258.011719 350.019531 L 258.402344 349.578125 L 258.757812 349.167969 L 259.070312 348.800781 L 259.363281 348.449219 L 259.636719 348.109375 L 259.890625 347.78125 L 260.128906 347.460938 L 260.347656 347.152344 L 260.546875 346.851562 L 260.730469 346.558594 L 260.894531 346.28125 L 261.042969 346.011719 L 261.171875 345.75 L 261.289062 345.488281 L 261.398438 345.222656 L 261.492188 344.953125 L 261.570312 344.683594 L 261.640625 344.40625 L 261.695312 344.128906 L 261.742188 343.84375 L 261.773438 343.558594 L 261.789062 343.269531 L 261.796875 342.976562 L 261.789062 342.6875 L 261.761719 342.410156 L 261.71875 342.144531 L 261.65625 341.890625 L 261.578125 341.652344 L 261.480469 341.421875 L 261.367188 341.203125 L 261.238281 341 L 261.089844 340.804688 L 260.921875 340.625 L 260.746094 340.460938 L 260.558594 340.308594 L 260.359375 340.179688 L 260.148438 340.066406 L 259.929688 339.96875 L 259.695312 339.890625 L 259.449219 339.828125 L 259.195312 339.785156 L 258.925781 339.757812 L 258.648438 339.75 L 258.417969 339.753906 L 258.195312 339.769531 L 257.980469 339.792969 L 257.765625 339.828125 L 257.558594 339.871094 L 257.355469 339.921875 L 257.160156 339.984375 L 256.96875 340.054688 L 256.78125 340.136719 L 256.597656 340.226562 L 256.421875 340.324219 L 256.25 340.433594 L 256.078125 340.554688 L 255.910156 340.679688 L 255.742188 340.820312 L 255.574219 340.964844 L 255.410156 341.125 L 255.246094 341.289062 L 255.082031 341.464844 L 254.921875 341.652344 L 253.921875 340.902344 L 254.125 340.660156 L 254.328125 340.4375 L 254.535156 340.222656 L 254.746094 340.023438 L 254.960938 339.839844 L 255.175781 339.664062 L 255.394531 339.503906 L 255.617188 339.355469 L 255.84375 339.222656 L 256.070312 339.101562 L 256.308594 338.992188 L 256.554688 338.894531 L 256.804688 338.808594 L 257.058594 338.734375 L 257.320312 338.667969 L 257.589844 338.617188 L 257.863281 338.578125 L 258.144531 338.546875 L 258.429688 338.53125 Z M 258.722656 338.527344 "/>
<path fill-rule="nonzero" fill="rgb(10.196078%, 10.196078%, 10.196078%)" fill-opacity="1" d="M 275.195312 340 L 268.445312 340 L 268.445312 345.675781 L 268.722656 345.527344 L 269 345.394531 L 269.28125 345.28125 L 269.5625 345.179688 L 269.847656 345.09375 L 270.132812 345.023438 L 270.421875 344.96875 L 270.710938 344.929688 L 271.003906 344.90625 L 271.296875 344.902344 L 271.71875 344.914062 L 272.121094 344.957031 L 272.503906 345.027344 L 272.871094 345.125 L 273.222656 345.25 L 273.554688 345.40625 L 273.867188 345.585938 L 274.160156 345.796875 L 274.4375 346.035156 L 274.695312 346.300781 L 274.9375 346.585938 L 275.15625 346.890625 L 275.347656 347.21875 L 275.511719 347.5625 L 275.652344 347.933594 L 275.769531 348.320312 L 275.855469 348.726562 L 275.921875 349.15625 L 275.960938 349.605469 L 275.972656 350.074219 L 275.964844 350.398438 L 275.945312 350.710938 L 275.910156 351.019531 L 275.863281 351.324219 L 275.804688 351.621094 L 275.730469 351.910156 L 275.640625 352.191406 L 275.539062 352.46875 L 275.425781 352.738281 L 275.296875 353 L 275.160156 353.25 L 275.015625 353.488281 L 274.855469 353.714844 L 274.683594 353.933594 L 274.503906 354.136719 L 274.308594 354.332031 L 274.105469 354.515625 L 273.890625 354.6875 L 273.660156 354.851562 L 273.421875 355 L 273.179688 355.132812 L 272.925781 355.253906 L 272.664062 355.359375 L 272.398438 355.449219 L 272.121094 355.527344 L 271.835938 355.589844 L 271.546875 355.636719 L 271.246094 355.671875 L 270.9375 355.695312 L 270.621094 355.699219 L 270.074219 355.679688 L 269.546875 355.621094 L 269.035156 355.519531 L 268.539062 355.378906 L 268.058594 355.199219 L 267.597656 354.980469 L 267.152344 354.71875 L 266.726562 354.421875 L 266.316406 354.082031 L 265.921875 353.699219 L 266.820312 352.824219 L 266.984375 352.992188 L 267.144531 353.148438 L 267.3125 353.296875 L 267.476562 353.433594 L 267.648438 353.5625 L 267.816406 353.683594 L 267.992188 353.796875 L 268.164062 353.898438 L 268.34375 353.992188 L 268.523438 354.074219 L 268.703125 354.152344 L 268.894531 354.21875 L 269.089844 354.28125 L 269.289062 354.332031 L 269.496094 354.375 L 269.710938 354.410156 L 269.929688 354.4375 L 270.152344 354.460938 L 270.386719 354.472656 L 270.621094 354.476562 L 270.96875 354.464844 L 271.300781 354.429688 L 271.621094 354.371094 L 271.921875 354.289062 L 272.210938 354.183594 L 272.480469 354.050781 L 272.738281 353.898438 L 272.980469 353.722656 L 273.210938 353.523438 L 273.421875 353.300781 L 273.617188 353.050781 L 273.789062 352.785156 L 273.945312 352.503906 L 274.078125 352.203125 L 274.191406 351.886719 L 274.28125 351.554688 L 274.355469 351.203125 L 274.40625 350.835938 L 274.4375 350.453125 L 274.445312 350.050781 L 274.4375 349.660156 L 274.410156 349.292969 L 274.363281 348.941406 L 274.292969 348.613281 L 274.210938 348.308594 L 274.105469 348.019531 L 273.980469 347.753906 L 273.839844 347.507812 L 273.675781 347.28125 L 273.496094 347.074219 L 273.304688 346.886719 L 273.101562 346.714844 L 272.882812 346.566406 L 272.648438 346.433594 L 272.402344 346.324219 L 272.144531 346.234375 L 271.871094 346.164062 L 271.585938 346.117188 L 271.285156 346.085938 L 270.972656 346.074219 L 270.8125 346.078125 L 270.660156 346.082031 L 270.507812 346.09375 L 270.359375 346.109375 L 270.214844 346.125 L 270.074219 346.148438 L 269.9375 346.171875 L 269.804688 346.203125 L 269.671875 346.238281 L 269.546875 346.277344 L 269.425781 346.3125 L 269.300781 346.355469 L 269.171875 346.402344 L 269.042969 346.457031 L 268.910156 346.511719 L 268.773438 346.574219 L 268.492188 346.714844 L 268.34375 346.792969 L 268.195312 346.875 L 267.046875 346.875 L 267.046875 338.800781 L 275.421875 338.800781 Z M 275.195312 340 "/>
<path fill-rule="nonzero" fill="rgb(10.196078%, 10.196078%, 10.196078%)" fill-opacity="1" d="M 399.894531 338.527344 L 400.394531 338.546875 L 400.875 338.613281 L 401.328125 338.722656 L 401.753906 338.878906 L 402.15625 339.074219 L 402.535156 339.316406 L 402.886719 339.601562 L 403.214844 339.933594 L 403.515625 340.308594 L 403.792969 340.726562 L 404.046875 341.179688 L 404.269531 341.675781 L 404.46875 342.214844 L 404.640625 342.792969 L 404.789062 343.414062 L 404.90625 344.074219 L 405 344.773438 L 405.066406 345.515625 L 405.105469 346.300781 L 405.117188 347.125 L 405.105469 347.945312 L 405.066406 348.726562 L 404.996094 349.464844 L 404.902344 350.164062 L 404.78125 350.824219 L 404.632812 351.445312 L 404.457031 352.027344 L 404.253906 352.566406 L 404.023438 353.066406 L 403.769531 353.527344 L 403.492188 353.9375 L 403.191406 354.308594 L 402.863281 354.632812 L 402.511719 354.917969 L 402.136719 355.15625 L 401.738281 355.351562 L 401.3125 355.503906 L 400.863281 355.613281 L 400.390625 355.679688 L 399.894531 355.699219 L 399.390625 355.679688 L 398.914062 355.613281 L 398.460938 355.503906 L 398.035156 355.351562 L 397.632812 355.15625 L 397.253906 354.917969 L 396.902344 354.632812 L 396.574219 354.308594 L 396.269531 353.9375 L 395.992188 353.527344 L 395.742188 353.066406 L 395.515625 352.5625 L 395.316406 352.023438 L 395.144531 351.441406 L 395 350.820312 L 394.882812 350.15625 L 394.789062 349.453125 L 394.722656 348.710938 L 394.683594 347.925781 L 394.667969 347.101562 L 394.683594 346.277344 L 394.722656 345.492188 L 394.789062 344.75 L 394.882812 344.046875 L 395 343.386719 L 395.144531 342.769531 L 395.316406 342.191406 L 395.515625 341.652344 L 395.742188 341.15625 L 395.992188 340.699219 L 396.269531 340.289062 L 396.574219 339.917969 L 396.902344 339.589844 L 397.253906 339.308594 L 397.632812 339.070312 L 398.035156 338.875 L 398.460938 338.722656 L 398.914062 338.613281 L 399.390625 338.546875 Z M 399.894531 339.726562 L 399.1875 339.800781 L 398.554688 340.019531 L 397.992188 340.390625 L 397.511719 340.90625 L 397.101562 341.570312 L 396.765625 342.378906 L 396.503906 343.339844 L 396.316406 344.445312 L 396.207031 345.699219 L 396.167969 347.101562 L 396.207031 348.507812 L 396.316406 349.765625 L 396.503906 350.875 L 396.765625 351.835938 L 397.101562 352.652344 L 397.511719 353.316406 L 397.992188 353.835938 L 398.554688 354.203125 L 399.1875 354.425781 L 399.894531 354.5 L 400.25 354.484375 L 400.585938 354.429688 L 400.90625 354.339844 L 401.210938 354.210938 L 401.492188 354.050781 L 401.761719 353.851562 L 402.007812 353.617188 L 402.238281 353.347656 L 402.449219 353.042969 L 402.644531 352.699219 L 402.824219 352.320312 L 402.984375 351.902344 L 403.128906 351.441406 L 403.25 350.945312 L 403.355469 350.40625 L 403.441406 349.828125 L 403.507812 349.210938 L 403.554688 348.554688 L 403.585938 347.859375 L 403.59375 347.125 L 403.585938 346.390625 L 403.554688 345.695312 L 403.507812 345.039062 L 403.441406 344.421875 L 403.355469 343.84375 L 403.25 343.304688 L 403.128906 342.808594 L 402.984375 342.347656 L 402.824219 341.929688 L 402.644531 341.550781 L 402.449219 341.203125 L 402.238281 340.894531 L 402.007812 340.621094 L 401.761719 340.382812 L 401.492188 340.183594 L 401.210938 340.015625 L 400.90625 339.890625 L 400.585938 339.796875 L 400.25 339.742188 Z M 399.894531 339.726562 "/>
<path fill-rule="nonzero" fill="rgb(10.196078%, 10.196078%, 10.196078%)" fill-opacity="1" d="M 409.34375 353.324219 L 409.445312 353.328125 L 409.546875 353.339844 L 409.640625 353.355469 L 409.730469 353.382812 L 409.820312 353.414062 L 409.902344 353.453125 L 409.980469 353.496094 L 410.054688 353.550781 L 410.125 353.609375 L 410.195312 353.675781 L 410.261719 353.742188 L 410.320312 353.8125 L 410.371094 353.886719 L 410.417969 353.964844 L 410.457031 354.042969 L 410.488281 354.128906 L 410.511719 354.214844 L 410.53125 354.308594 L 410.539062 354.402344 L 410.542969 354.5 L 410.539062 354.605469 L 410.53125 354.703125 L 410.511719 354.800781 L 410.488281 354.890625 L 410.457031 354.980469 L 410.417969 355.066406 L 410.371094 355.148438 L 410.320312 355.226562 L 410.261719 355.304688 L 410.195312 355.375 L 410.125 355.4375 L 410.054688 355.492188 L 409.980469 355.542969 L 409.902344 355.582031 L 409.820312 355.621094 L 409.730469 355.648438 L 409.640625 355.671875 L 409.546875 355.6875 L 409.445312 355.695312 L 409.34375 355.699219 L 409.246094 355.695312 L 409.148438 355.6875 L 409.058594 355.667969 L 408.96875 355.644531 L 408.882812 355.613281 L 408.796875 355.574219 L 408.71875 355.527344 L 408.640625 355.476562 L 408.566406 355.417969 L 408.492188 355.351562 L 408.425781 355.277344 L 408.367188 355.203125 L 408.316406 355.125 L 408.269531 355.046875 L 408.230469 354.964844 L 408.199219 354.875 L 408.175781 354.785156 L 408.15625 354.695312 L 408.148438 354.597656 L 408.144531 354.5 L 408.148438 354.402344 L 408.15625 354.308594 L 408.175781 354.214844 L 408.199219 354.128906 L 408.230469 354.042969 L 408.269531 353.964844 L 408.316406 353.886719 L 408.367188 353.8125 L 408.425781 353.742188 L 408.492188 353.675781 L 408.566406 353.609375 L 408.640625 353.550781 L 408.71875 353.496094 L 408.796875 353.453125 L 408.882812 353.414062 L 408.96875 353.382812 L 409.058594 353.355469 L 409.148438 353.339844 L 409.246094 353.328125 Z M 409.34375 353.324219 "/>
<path fill-rule="nonzero" fill="rgb(10.196078%, 10.196078%, 10.196078%)" fill-opacity="1" d="M 422.070312 340 L 415.320312 340 L 415.320312 345.675781 L 415.59375 345.527344 L 415.871094 345.394531 L 416.152344 345.28125 L 416.433594 345.179688 L 416.71875 345.09375 L 417.003906 345.023438 L 417.292969 344.96875 L 417.582031 344.929688 L 417.875 344.90625 L 418.167969 344.902344 L 418.589844 344.914062 L 418.992188 344.957031 L 419.378906 345.027344 L 419.746094 345.125 L 420.09375 345.25 L 420.425781 345.40625 L 420.738281 345.585938 L 421.03125 345.796875 L 421.308594 346.035156 L 421.570312 346.300781 L 421.8125 346.585938 L 422.027344 346.890625 L 422.21875 347.21875 L 422.386719 347.5625 L 422.523438 347.933594 L 422.640625 348.320312 L 422.730469 348.726562 L 422.792969 349.15625 L 422.832031 349.605469 L 422.84375 350.074219 L 422.835938 350.398438 L 422.816406 350.710938 L 422.78125 351.019531 L 422.734375 351.324219 L 422.675781 351.621094 L 422.601562 351.910156 L 422.511719 352.191406 L 422.410156 352.46875 L 422.296875 352.738281 L 422.167969 353 L 422.03125 353.25 L 421.886719 353.488281 L 421.726562 353.714844 L 421.558594 353.933594 L 421.375 354.136719 L 421.183594 354.332031 L 420.976562 354.515625 L 420.761719 354.6875 L 420.53125 354.851562 L 420.292969 355 L 420.050781 355.132812 L 419.796875 355.253906 L 419.539062 355.359375 L 419.269531 355.449219 L 418.992188 355.527344 L 418.710938 355.589844 L 418.417969 355.636719 L 418.117188 355.671875 L 417.808594 355.695312 L 417.492188 355.699219 L 416.949219 355.679688 L 416.417969 355.621094 L 415.90625 355.519531 L 415.410156 355.378906 L 414.929688 355.199219 L 414.46875 354.980469 L 414.023438 354.71875 L 413.597656 354.421875 L 413.1875 354.082031 L 412.792969 353.699219 L 413.695312 352.824219 L 413.855469 352.992188 L 414.019531 353.148438 L 414.183594 353.296875 L 414.351562 353.433594 L 414.519531 353.5625 L 414.691406 353.683594 L 414.863281 353.796875 L 415.039062 353.898438 L 415.214844 353.992188 L 415.394531 354.074219 L 415.578125 354.152344 L 415.765625 354.21875 L 415.960938 354.28125 L 416.160156 354.332031 L 416.367188 354.375 L 416.582031 354.410156 L 416.800781 354.4375 L 417.027344 354.460938 L 417.257812 354.472656 L 417.492188 354.476562 L 417.839844 354.464844 L 418.175781 354.429688 L 418.492188 354.371094 L 418.792969 354.289062 L 419.082031 354.183594 L 419.355469 354.050781 L 419.613281 353.898438 L 419.855469 353.722656 L 420.082031 353.523438 L 420.292969 353.300781 L 420.488281 353.050781 L 420.664062 352.785156 L 420.816406 352.503906 L 420.949219 352.203125 L 421.0625 351.886719 L 421.15625 351.554688 L 421.226562 351.203125 L 421.277344 350.835938 L 421.308594 350.453125 L 421.320312 350.050781 L 421.308594 349.660156 L 421.28125 349.292969 L 421.234375 348.941406 L 421.167969 348.613281 L 421.082031 348.308594 L 420.976562 348.019531 L 420.851562 347.753906 L 420.710938 347.507812 L 420.550781 347.28125 L 420.367188 347.074219 L 420.175781 346.886719 L 419.972656 346.714844 L 419.753906 346.566406 L 419.519531 346.433594 L 419.273438 346.324219 L 419.015625 346.234375 L 418.742188 346.164062 L 418.457031 346.117188 L 418.15625 346.085938 L 417.84375 346.074219 L 417.53125 346.082031 L 417.378906 346.09375 L 417.230469 346.109375 L 417.085938 346.125 L 416.945312 346.148438 L 416.808594 346.171875 L 416.675781 346.203125 L 416.546875 346.238281 L 416.417969 346.277344 L 416.296875 346.3125 L 416.171875 346.355469 L 416.046875 346.402344 L 415.78125 346.511719 L 415.644531 346.574219 L 415.363281 346.714844 L 415.21875 346.792969 L 415.070312 346.875 L 413.917969 346.875 L 413.917969 338.800781 L 422.292969 338.800781 Z M 422.070312 340 "/>
<path fill-rule="nonzero" fill="rgb(10.196078%, 10.196078%, 10.196078%)" fill-opacity="1" d="M 430.992188 338.527344 L 431.496094 338.546875 L 431.972656 338.613281 L 432.425781 338.722656 L 432.855469 338.878906 L 433.257812 339.074219 L 433.632812 339.316406 L 433.988281 339.601562 L 434.3125 339.933594 L 434.617188 340.308594 L 434.894531 340.726562 L 435.144531 341.179688 L 435.371094 341.675781 L 435.570312 342.214844 L 435.742188 342.792969 L 435.886719 343.414062 L 436.007812 344.074219 L 436.101562 344.773438 L 436.164062 345.515625 L 436.207031 346.300781 L 436.21875 347.125 L 436.207031 347.945312 L 436.164062 348.726562 L 436.097656 349.464844 L 436.003906 350.164062 L 435.882812 350.824219 L 435.734375 351.445312 L 435.558594 352.027344 L 435.355469 352.566406 L 435.125 353.066406 L 434.867188 353.527344 L 434.589844 353.9375 L 434.289062 354.308594 L 433.964844 354.632812 L 433.613281 354.917969 L 433.238281 355.15625 L 432.835938 355.351562 L 432.414062 355.503906 L 431.964844 355.613281 L 431.492188 355.679688 L 430.992188 355.699219 L 430.492188 355.679688 L 430.015625 355.613281 L 429.5625 355.503906 L 429.132812 355.351562 L 428.730469 355.15625 L 428.355469 354.917969 L 428 354.632812 L 427.675781 354.308594 L 427.371094 353.9375 L 427.09375 353.527344 L 426.84375 353.066406 L 426.617188 352.5625 L 426.417969 352.023438 L 426.246094 351.441406 L 426.101562 350.820312 L 425.980469 350.15625 L 425.886719 349.453125 L 425.820312 348.710938 L 425.78125 347.925781 L 425.769531 347.101562 L 425.78125 346.277344 L 425.820312 345.492188 L 425.886719 344.75 L 425.980469 344.046875 L 426.101562 343.386719 L 426.246094 342.769531 L 426.417969 342.191406 L 426.617188 341.652344 L 426.84375 341.15625 L 427.09375 340.699219 L 427.371094 340.289062 L 427.675781 339.917969 L 428 339.589844 L 428.355469 339.308594 L 428.730469 339.070312 L 429.132812 338.875 L 429.5625 338.722656 L 430.015625 338.613281 L 430.492188 338.546875 Z M 430.992188 339.726562 L 430.285156 339.800781 L 429.652344 340.019531 L 429.09375 340.390625 L 428.609375 340.90625 L 428.199219 341.570312 L 427.863281 342.378906 L 427.605469 343.339844 L 427.417969 344.445312 L 427.304688 345.699219 L 427.269531 347.101562 L 427.304688 348.507812 L 427.417969 349.765625 L 427.605469 350.875 L 427.863281 351.835938 L 428.199219 352.652344 L 428.609375 353.316406 L 429.09375 353.835938 L 429.652344 354.203125 L 430.285156 354.425781 L 430.992188 354.5 L 431.351562 354.484375 L 431.6875 354.429688 L 432.007812 354.339844 L 432.308594 354.210938 L 432.59375 354.050781 L 432.859375 353.851562 L 433.109375 353.617188 L 433.335938 353.347656 L 433.550781 353.042969 L 433.742188 352.699219 L 433.925781 352.320312 L 434.085938 351.902344 L 434.226562 351.441406 L 434.351562 350.945312 L 434.457031 350.40625 L 434.542969 349.828125 L 434.609375 349.210938 L 434.65625 348.554688 L 434.683594 347.859375 L 434.695312 347.125 L 434.683594 346.390625 L 434.65625 345.695312 L 434.609375 345.039062 L 434.542969 344.421875 L 434.457031 343.84375 L 434.351562 343.304688 L 434.226562 342.808594 L 434.085938 342.347656 L 433.925781 341.929688 L 433.742188 341.550781 L 433.550781 341.203125 L 433.335938 340.894531 L 433.109375 340.621094 L 432.859375 340.382812 L 432.59375 340.183594 L 432.308594 340.015625 L 432.007812 339.890625 L 431.6875 339.796875 L 431.351562 339.742188 Z M 430.992188 339.726562 "/>
<path fill-rule="nonzero" fill="rgb(10.196078%, 10.196078%, 10.196078%)" fill-opacity="1" d="M 561.039062 338.527344 L 561.542969 338.546875 L 562.019531 338.613281 L 562.472656 338.722656 L 562.902344 338.878906 L 563.304688 339.074219 L 563.679688 339.316406 L 564.035156 339.601562 L 564.359375 339.933594 L 564.664062 340.308594 L 564.941406 340.726562 L 565.191406 341.179688 L 565.417969 341.675781 L 565.617188 342.214844 L 565.789062 342.792969 L 565.933594 343.414062 L 566.054688 344.074219 L 566.148438 344.773438 L 566.214844 345.515625 L 566.253906 346.300781 L 566.265625 347.125 L 566.253906 347.945312 L 566.210938 348.726562 L 566.144531 349.464844 L 566.050781 350.164062 L 565.929688 350.824219 L 565.78125 351.445312 L 565.605469 352.027344 L 565.402344 352.566406 L 565.171875 353.066406 L 564.914062 353.527344 L 564.636719 353.9375 L 564.335938 354.308594 L 564.011719 354.632812 L 563.660156 354.917969 L 563.285156 355.15625 L 562.886719 355.351562 L 562.460938 355.503906 L 562.011719 355.613281 L 561.539062 355.679688 L 561.039062 355.699219 L 560.539062 355.679688 L 560.0625 355.613281 L 559.609375 355.503906 L 559.179688 355.351562 L 558.777344 355.15625 L 558.402344 354.917969 L 558.046875 354.632812 L 557.722656 354.308594 L 557.417969 353.9375 L 557.140625 353.527344 L 556.890625 353.066406 L 556.664062 352.5625 L 556.464844 352.023438 L 556.292969 351.441406 L 556.148438 350.820312 L 556.027344 350.15625 L 555.933594 349.453125 L 555.867188 348.710938 L 555.828125 347.925781 L 555.816406 347.101562 L 555.828125 346.277344 L 555.867188 345.492188 L 555.933594 344.75 L 556.027344 344.046875 L 556.148438 343.386719 L 556.292969 342.769531 L 556.464844 342.191406 L 556.664062 341.652344 L 556.890625 341.15625 L 557.140625 340.699219 L 557.417969 340.289062 L 557.722656 339.917969 L 558.046875 339.589844 L 558.402344 339.308594 L 558.777344 339.070312 L 559.179688 338.875 L 559.609375 338.722656 L 560.0625 338.613281 L 560.539062 338.546875 Z M 561.039062 339.726562 L 560.332031 339.800781 L 559.699219 340.019531 L 559.140625 340.390625 L 558.65625 340.90625 L 558.246094 341.570312 L 557.910156 342.378906 L 557.652344 343.339844 L 557.464844 344.445312 L 557.351562 345.699219 L 557.316406 347.101562 L 557.351562 348.507812 L 557.464844 349.765625 L 557.652344 350.875 L 557.910156 351.835938 L 558.246094 352.652344 L 558.65625 353.316406 L 559.140625 353.835938 L 559.699219 354.203125 L 560.332031 354.425781 L 561.039062 354.5 L 561.398438 354.484375 L 561.734375 354.429688 L 562.054688 354.339844 L 562.355469 354.210938 L 562.640625 354.050781 L 562.90625 353.851562 L 563.15625 353.617188 L 563.386719 353.347656 L 563.597656 353.042969 L 563.789062 352.699219 L 563.972656 352.320312 L 564.132812 351.902344 L 564.277344 351.441406 L 564.398438 350.945312 L 564.503906 350.40625 L 564.589844 349.828125 L 564.65625 349.210938 L 564.703125 348.554688 L 564.730469 347.859375 L 564.742188 347.125 L 564.730469 346.390625 L 564.703125 345.695312 L 564.65625 345.039062 L 564.589844 344.421875 L 564.503906 343.84375 L 564.398438 343.304688 L 564.277344 342.808594 L 564.132812 342.347656 L 563.972656 341.929688 L 563.789062 341.550781 L 563.597656 341.203125 L 563.386719 340.894531 L 563.15625 340.621094 L 562.90625 340.382812 L 562.640625 340.183594 L 562.355469 340.015625 L 562.054688 339.890625 L 561.734375 339.796875 L 561.398438 339.742188 Z M 561.039062 339.726562 "/>
<path fill-rule="nonzero" fill="rgb(10.196078%, 10.196078%, 10.196078%)" fill-opacity="1" d="M 570.492188 353.324219 L 570.59375 353.328125 L 570.691406 353.339844 L 570.789062 353.355469 L 570.878906 353.382812 L 570.964844 353.414062 L 571.050781 353.453125 L 571.128906 353.496094 L 571.203125 353.550781 L 571.273438 353.609375 L 571.40625 353.742188 L 571.46875 353.8125 L 571.519531 353.886719 L 571.566406 353.964844 L 571.601562 354.042969 L 571.636719 354.128906 L 571.660156 354.214844 L 571.675781 354.308594 L 571.6875 354.402344 L 571.691406 354.5 L 571.6875 354.605469 L 571.675781 354.703125 L 571.660156 354.800781 L 571.636719 354.890625 L 571.601562 354.980469 L 571.566406 355.066406 L 571.519531 355.148438 L 571.46875 355.226562 L 571.40625 355.304688 L 571.339844 355.375 L 571.273438 355.4375 L 571.203125 355.492188 L 571.128906 355.542969 L 571.050781 355.582031 L 570.964844 355.621094 L 570.878906 355.648438 L 570.789062 355.671875 L 570.691406 355.6875 L 570.59375 355.695312 L 570.492188 355.699219 L 570.390625 355.695312 L 570.296875 355.6875 L 570.203125 355.667969 L 570.113281 355.644531 L 570.027344 355.613281 L 569.945312 355.574219 L 569.863281 355.527344 L 569.785156 355.476562 L 569.710938 355.417969 L 569.640625 355.351562 L 569.574219 355.277344 L 569.515625 355.203125 L 569.460938 355.125 L 569.417969 355.046875 L 569.378906 354.964844 L 569.347656 354.875 L 569.324219 354.785156 L 569.304688 354.695312 L 569.292969 354.597656 L 569.289062 354.5 L 569.292969 354.402344 L 569.304688 354.308594 L 569.324219 354.214844 L 569.347656 354.128906 L 569.378906 354.042969 L 569.417969 353.964844 L 569.460938 353.886719 L 569.515625 353.8125 L 569.574219 353.742188 L 569.640625 353.675781 L 569.710938 353.609375 L 569.785156 353.550781 L 569.863281 353.496094 L 569.945312 353.453125 L 570.027344 353.414062 L 570.113281 353.382812 L 570.203125 353.355469 L 570.296875 353.339844 L 570.390625 353.328125 Z M 570.492188 353.324219 "/>
<path fill-rule="nonzero" fill="rgb(10.196078%, 10.196078%, 10.196078%)" fill-opacity="1" d="M 583.117188 338.800781 L 583.117188 339.925781 L 576.566406 355.625 L 575.214844 355.175781 L 581.617188 340.027344 L 573.839844 340.027344 L 573.839844 338.800781 Z M 583.117188 338.800781 "/>
<path fill-rule="nonzero" fill="rgb(10.196078%, 10.196078%, 10.196078%)" fill-opacity="1" d="M 594.140625 340 L 587.390625 340 L 587.390625 345.675781 L 587.667969 345.527344 L 587.945312 345.394531 L 588.226562 345.28125 L 588.507812 345.179688 L 588.789062 345.09375 L 589.078125 345.023438 L 589.363281 344.96875 L 589.65625 344.929688 L 589.945312 344.90625 L 590.242188 344.902344 L 590.660156 344.914062 L 591.066406 344.957031 L 591.449219 345.027344 L 591.816406 345.125 L 592.164062 345.25 L 592.496094 345.40625 L 592.808594 345.585938 L 593.105469 345.796875 L 593.382812 346.035156 L 593.640625 346.300781 L 593.882812 346.585938 L 594.101562 346.890625 L 594.292969 347.21875 L 594.457031 347.5625 L 594.597656 347.933594 L 594.710938 348.320312 L 594.800781 348.726562 L 594.863281 349.15625 L 594.902344 349.605469 L 594.914062 350.074219 L 594.910156 350.398438 L 594.890625 350.710938 L 594.855469 351.019531 L 594.808594 351.324219 L 594.746094 351.621094 L 594.671875 351.910156 L 594.585938 352.191406 L 594.484375 352.46875 L 594.371094 352.738281 L 594.242188 353 L 594.105469 353.25 L 593.957031 353.488281 L 593.800781 353.714844 L 593.628906 353.933594 L 593.445312 354.136719 L 593.253906 354.332031 L 593.050781 354.515625 L 592.832031 354.6875 L 592.605469 354.851562 L 592.367188 355 L 592.121094 355.132812 L 591.871094 355.253906 L 591.609375 355.359375 L 591.34375 355.449219 L 591.066406 355.527344 L 590.78125 355.589844 L 590.488281 355.636719 L 590.191406 355.671875 L 589.882812 355.695312 L 589.566406 355.699219 L 589.019531 355.679688 L 588.488281 355.621094 L 587.976562 355.519531 L 587.480469 355.378906 L 587.003906 355.199219 L 586.542969 354.980469 L 586.097656 354.71875 L 585.667969 354.421875 L 585.257812 354.082031 L 584.867188 353.699219 L 585.765625 352.824219 L 585.925781 352.992188 L 586.089844 353.148438 L 586.253906 353.296875 L 586.421875 353.433594 L 586.589844 353.5625 L 586.761719 353.683594 L 586.933594 353.796875 L 587.109375 353.898438 L 587.285156 353.992188 L 587.464844 354.074219 L 587.648438 354.152344 L 587.839844 354.21875 L 588.03125 354.28125 L 588.234375 354.332031 L 588.441406 354.375 L 588.652344 354.410156 L 588.871094 354.4375 L 589.097656 354.460938 L 589.328125 354.472656 L 589.566406 354.476562 L 589.914062 354.464844 L 590.246094 354.429688 L 590.5625 354.371094 L 590.867188 354.289062 L 591.152344 354.183594 L 591.425781 354.050781 L 591.683594 353.898438 L 591.925781 353.722656 L 592.152344 353.523438 L 592.367188 353.300781 L 592.5625 353.050781 L 592.734375 352.785156 L 592.886719 352.503906 L 593.023438 352.203125 L 593.132812 351.886719 L 593.226562 351.554688 L 593.296875 351.203125 L 593.351562 350.835938 L 593.378906 350.453125 L 593.390625 350.050781 L 593.382812 349.660156 L 593.351562 349.292969 L 593.304688 348.941406 L 593.238281 348.613281 L 593.152344 348.308594 L 593.050781 348.019531 L 592.925781 347.753906 L 592.78125 347.507812 L 592.621094 347.28125 L 592.441406 347.074219 L 592.25 346.886719 L 592.042969 346.714844 L 591.824219 346.566406 L 591.59375 346.433594 L 591.347656 346.324219 L 591.089844 346.234375 L 590.816406 346.164062 L 590.527344 346.117188 L 590.230469 346.085938 L 589.914062 346.074219 L 589.601562 346.082031 L 589.453125 346.09375 L 589.304688 346.109375 L 589.160156 346.125 L 589.019531 346.148438 L 588.882812 346.171875 L 588.746094 346.203125 L 588.617188 346.238281 L 588.492188 346.277344 L 588.371094 346.3125 L 588.246094 346.355469 L 588.117188 346.402344 L 587.988281 346.457031 L 587.851562 346.511719 L 587.71875 346.574219 L 587.578125 346.644531 L 587.433594 346.714844 L 587.289062 346.792969 L 587.140625 346.875 L 585.992188 346.875 L 585.992188 338.800781 L 594.367188 338.800781 Z M 594.140625 340 "/>
<path fill-rule="nonzero" fill="rgb(10.196078%, 10.196078%, 10.196078%)" fill-opacity="1" d="M 720.714844 338.800781 L 720.714844 355.425781 L 719.261719 355.425781 L 719.261719 340.402344 L 715.164062 342.949219 L 714.488281 341.875 L 719.464844 338.800781 Z M 720.714844 338.800781 "/>
<path fill-rule="nonzero" fill="rgb(10.196078%, 10.196078%, 10.196078%)" fill-opacity="1" d="M 726.3125 353.324219 L 726.414062 353.328125 L 726.515625 353.339844 L 726.609375 353.355469 L 726.699219 353.382812 L 726.789062 353.414062 L 726.871094 353.453125 L 726.949219 353.496094 L 727.023438 353.550781 L 727.097656 353.609375 L 727.230469 353.742188 L 727.289062 353.8125 L 727.339844 353.886719 L 727.386719 353.964844 L 727.425781 354.042969 L 727.457031 354.128906 L 727.480469 354.214844 L 727.5 354.308594 L 727.507812 354.402344 L 727.511719 354.5 L 727.507812 354.605469 L 727.5 354.703125 L 727.480469 354.800781 L 727.457031 354.890625 L 727.425781 354.980469 L 727.386719 355.066406 L 727.339844 355.148438 L 727.289062 355.226562 L 727.230469 355.304688 L 727.164062 355.375 L 727.097656 355.4375 L 727.023438 355.492188 L 726.949219 355.542969 L 726.871094 355.582031 L 726.789062 355.621094 L 726.699219 355.648438 L 726.609375 355.671875 L 726.515625 355.6875 L 726.414062 355.695312 L 726.3125 355.699219 L 726.214844 355.695312 L 726.117188 355.6875 L 726.027344 355.667969 L 725.9375 355.644531 L 725.851562 355.613281 L 725.765625 355.574219 L 725.6875 355.527344 L 725.609375 355.476562 L 725.535156 355.417969 L 725.464844 355.351562 L 725.394531 355.277344 L 725.335938 355.203125 L 725.285156 355.125 L 725.238281 355.046875 L 725.199219 354.964844 L 725.167969 354.875 L 725.144531 354.785156 L 725.125 354.695312 L 725.117188 354.597656 L 725.113281 354.5 L 725.117188 354.402344 L 725.125 354.308594 L 725.144531 354.214844 L 725.167969 354.128906 L 725.199219 354.042969 L 725.238281 353.964844 L 725.285156 353.886719 L 725.335938 353.8125 L 725.394531 353.742188 L 725.535156 353.609375 L 725.609375 353.550781 L 725.6875 353.496094 L 725.765625 353.453125 L 725.851562 353.414062 L 725.9375 353.382812 L 726.027344 353.355469 L 726.117188 353.339844 L 726.214844 353.328125 Z M 726.3125 353.324219 "/>
<path fill-rule="nonzero" fill="rgb(10.196078%, 10.196078%, 10.196078%)" fill-opacity="1" d="M 735.789062 338.527344 L 736.289062 338.546875 L 736.769531 338.613281 L 737.21875 338.722656 L 737.648438 338.878906 L 738.050781 339.074219 L 738.429688 339.316406 L 738.78125 339.601562 L 739.109375 339.933594 L 739.410156 340.308594 L 739.6875 340.726562 L 739.941406 341.179688 L 740.164062 341.675781 L 740.363281 342.214844 L 740.535156 342.792969 L 740.683594 343.414062 L 740.800781 344.074219 L 740.894531 344.773438 L 740.960938 345.515625 L 741 346.300781 L 741.011719 347.125 L 741 347.945312 L 740.957031 348.726562 L 740.890625 349.464844 L 740.796875 350.164062 L 740.675781 350.824219 L 740.527344 351.445312 L 740.351562 352.027344 L 740.148438 352.566406 L 739.917969 353.066406 L 739.664062 353.527344 L 739.386719 353.9375 L 739.082031 354.308594 L 738.757812 354.632812 L 738.40625 354.917969 L 738.03125 355.15625 L 737.632812 355.351562 L 737.207031 355.503906 L 736.757812 355.613281 L 736.285156 355.679688 L 735.789062 355.699219 L 735.285156 355.679688 L 734.808594 355.613281 L 734.355469 355.503906 L 733.929688 355.351562 L 733.527344 355.15625 L 733.148438 354.917969 L 732.796875 354.632812 L 732.46875 354.308594 L 732.164062 353.9375 L 731.886719 353.527344 L 731.636719 353.066406 L 731.410156 352.5625 L 731.210938 352.023438 L 731.039062 351.441406 L 730.894531 350.820312 L 730.773438 350.15625 L 730.683594 349.453125 L 730.617188 348.710938 L 730.578125 347.925781 L 730.5625 347.101562 L 730.578125 346.277344 L 730.617188 345.492188 L 730.683594 344.75 L 730.773438 344.046875 L 730.894531 343.386719 L 731.039062 342.769531 L 731.210938 342.191406 L 731.410156 341.652344 L 731.636719 341.15625 L 731.886719 340.699219 L 732.164062 340.289062 L 732.46875 339.917969 L 732.796875 339.589844 L 733.148438 339.308594 L 733.527344 339.070312 L 733.929688 338.875 L 734.355469 338.722656 L 734.808594 338.613281 L 735.285156 338.546875 Z M 735.789062 339.726562 L 735.082031 339.800781 L 734.445312 340.019531 L 733.886719 340.390625 L 733.402344 340.90625 L 732.996094 341.570312 L 732.660156 342.378906 L 732.398438 343.339844 L 732.210938 344.445312 L 732.101562 345.699219 L 732.0625 347.101562 L 732.101562 348.507812 L 732.210938 349.765625 L 732.398438 350.875 L 732.660156 351.835938 L 732.996094 352.652344 L 733.402344 353.316406 L 733.886719 353.835938 L 734.445312 354.203125 L 735.082031 354.425781 L 735.789062 354.5 L 736.144531 354.484375 L 736.480469 354.429688 L 736.800781 354.339844 L 737.105469 354.210938 L 737.386719 354.050781 L 737.652344 353.851562 L 737.902344 353.617188 L 738.132812 353.347656 L 738.34375 353.042969 L 738.539062 352.699219 L 738.71875 352.320312 L 738.878906 351.902344 L 739.023438 351.441406 L 739.144531 350.945312 L 739.25 350.40625 L 739.335938 349.828125 L 739.402344 349.210938 L 739.449219 348.554688 L 739.476562 347.859375 L 739.488281 347.125 L 739.476562 346.390625 L 739.449219 345.695312 L 739.402344 345.039062 L 739.335938 344.421875 L 739.25 343.84375 L 739.144531 343.304688 L 739.023438 342.808594 L 738.878906 342.347656 L 738.71875 341.929688 L 738.539062 341.550781 L 738.34375 341.203125 L 738.132812 340.894531 L 737.902344 340.621094 L 737.652344 340.382812 L 737.386719 340.183594 L 737.105469 340.015625 L 736.800781 339.890625 L 736.480469 339.796875 L 736.144531 339.742188 Z M 735.789062 339.726562 "/>
<path fill-rule="nonzero" fill="rgb(10.196078%, 10.196078%, 10.196078%)" fill-opacity="1" d="M 749.539062 338.527344 L 750.039062 338.546875 L 750.519531 338.613281 L 750.96875 338.722656 L 751.398438 338.878906 L 751.800781 339.074219 L 752.179688 339.316406 L 752.53125 339.601562 L 752.859375 339.933594 L 753.160156 340.308594 L 753.4375 340.726562 L 753.691406 341.179688 L 753.914062 341.675781 L 754.113281 342.214844 L 754.285156 342.792969 L 754.433594 343.414062 L 754.550781 344.074219 L 754.644531 344.773438 L 754.710938 345.515625 L 754.75 346.300781 L 754.761719 347.125 L 754.75 347.945312 L 754.707031 348.726562 L 754.640625 349.464844 L 754.546875 350.164062 L 754.425781 350.824219 L 754.277344 351.445312 L 754.101562 352.027344 L 753.898438 352.566406 L 753.667969 353.066406 L 753.414062 353.527344 L 753.136719 353.9375 L 752.832031 354.308594 L 752.507812 354.632812 L 752.15625 354.917969 L 751.78125 355.15625 L 751.382812 355.351562 L 750.957031 355.503906 L 750.507812 355.613281 L 750.035156 355.679688 L 749.539062 355.699219 L 749.035156 355.679688 L 748.558594 355.613281 L 748.105469 355.503906 L 747.679688 355.351562 L 747.277344 355.15625 L 746.898438 354.917969 L 746.546875 354.632812 L 746.21875 354.308594 L 745.914062 353.9375 L 745.636719 353.527344 L 745.386719 353.066406 L 745.160156 352.5625 L 744.960938 352.023438 L 744.789062 351.441406 L 744.644531 350.820312 L 744.523438 350.15625 L 744.433594 349.453125 L 744.367188 348.710938 L 744.328125 347.925781 L 744.3125 347.101562 L 744.328125 346.277344 L 744.367188 345.492188 L 744.433594 344.75 L 744.523438 344.046875 L 744.644531 343.386719 L 744.789062 342.769531 L 744.960938 342.191406 L 745.160156 341.652344 L 745.386719 341.15625 L 745.636719 340.699219 L 745.914062 340.289062 L 746.21875 339.917969 L 746.546875 339.589844 L 746.898438 339.308594 L 747.277344 339.070312 L 747.679688 338.875 L 748.105469 338.722656 L 748.558594 338.613281 L 749.035156 338.546875 Z M 749.539062 339.726562 L 748.832031 339.800781 L 748.195312 340.019531 L 747.636719 340.390625 L 747.152344 340.90625 L 746.746094 341.570312 L 746.410156 342.378906 L 746.148438 343.339844 L 745.960938 344.445312 L 745.851562 345.699219 L 745.8125 347.101562 L 745.851562 348.507812 L 745.960938 349.765625 L 746.148438 350.875 L 746.410156 351.835938 L 746.746094 352.652344 L 747.152344 353.316406 L 747.636719 353.835938 L 748.195312 354.203125 L 748.832031 354.425781 L 749.539062 354.5 L 749.894531 354.484375 L 750.230469 354.429688 L 750.550781 354.339844 L 750.855469 354.210938 L 751.136719 354.050781 L 751.402344 353.851562 L 751.652344 353.617188 L 751.882812 353.347656 L 752.09375 353.042969 L 752.289062 352.699219 L 752.46875 352.320312 L 752.628906 351.902344 L 752.773438 351.441406 L 752.894531 350.945312 L 753 350.40625 L 753.085938 349.828125 L 753.152344 349.210938 L 753.199219 348.554688 L 753.226562 347.859375 L 753.238281 347.125 L 753.226562 346.390625 L 753.199219 345.695312 L 753.152344 345.039062 L 753.085938 344.421875 L 753 343.84375 L 752.894531 343.304688 L 752.773438 342.808594 L 752.628906 342.347656 L 752.46875 341.929688 L 752.289062 341.550781 L 752.09375 341.203125 L 751.882812 340.894531 L 751.652344 340.621094 L 751.402344 340.382812 L 751.136719 340.183594 L 750.855469 340.015625 L 750.550781 339.890625 L 750.230469 339.796875 L 749.894531 339.742188 Z M 749.539062 339.726562 "/>
</svg>
