<?xml version="1.0" encoding="UTF-8"?>
<svg xmlns="http://www.w3.org/2000/svg" xmlns:xlink="http://www.w3.org/1999/xlink" width="792pt" height="374pt" viewBox="0 0 792 374">
<defs>
<clipPath id="clip-0">
<path clip-rule="nonzero" d="M 65.027344 13.449219 L 778.546875 13.449219 L 778.546875 326.195312 L 65.027344 326.195312 Z M 65.027344 13.449219 "/>
</clipPath>
<clipPath id="clip-1">
<path clip-rule="nonzero" d="M 65.027344 310 L 778.546875 310 L 778.546875 314 L 65.027344 314 Z M 65.027344 310 "/>
</clipPath>
<clipPath id="clip-2">
<path clip-rule="nonzero" d="M 65.027344 242 L 778.546875 242 L 778.546875 246 L 65.027344 246 Z M 65.027344 242 "/>
</clipPath>
<clipPath id="clip-3">
<path clip-rule="nonzero" d="M 65.027344 174 L 778.546875 174 L 778.546875 178 L 65.027344 178 Z M 65.027344 174 "/>
</clipPath>
<clipPath id="clip-4">
<path clip-rule="nonzero" d="M 65.027344 106 L 778.546875 106 L 778.546875 110 L 65.027344 110 Z M 65.027344 106 "/>
</clipPath>
<clipPath id="clip-5">
<path clip-rule="nonzero" d="M 65.027344 38 L 778.546875 38 L 778.546875 42 L 65.027344 42 Z M 65.027344 38 "/>
</clipPath>
<clipPath id="clip-6">
<path clip-rule="nonzero" d="M 218 13.449219 L 221 13.449219 L 221 326.195312 L 218 326.195312 Z M 218 13.449219 "/>
</clipPath>
<clipPath id="clip-7">
<path clip-rule="nonzero" d="M 395 13.449219 L 399 13.449219 L 399 326.195312 L 395 326.195312 Z M 395 13.449219 "/>
</clipPath>
<clipPath id="clip-8">
<path clip-rule="nonzero" d="M 573 13.449219 L 576 13.449219 L 576 326.195312 L 573 326.195312 Z M 573 13.449219 "/>
</clipPath>
<clipPath id="clip-9">
<path clip-rule="nonzero" d="M 750 13.449219 L 754 13.449219 L 754 326.195312 L 750 326.195312 Z M 750 13.449219 "/>
</clipPath>
</defs>
<rect x="-79.2" y="-37.4" width="950.4" height="448.8" fill="rgb(100%, 100%, 100%)" fill-opacity="1"/>
<rect x="-79.2" y="-37.4" width="950.4" height="448.8" fill="rgb(95.294118%, 95.294118%, 95.294118%)" fill-opacity="1"/>
<path fill="none" stroke-width="2.618947" stroke-linecap="round" stroke-linejoin="round" stroke="rgb(95.294118%, 95.294118%, 95.294118%)" stroke-opacity="1" stroke-miterlimit="10" d="M 0 374 L 792 374 L 792 0 L 0 0 Z M 0 374 "/>
<g clip-path="url(#clip-0)">
<path fill-rule="nonzero" fill="rgb(95.294118%, 95.294118%, 95.294118%)" fill-opacity="1" stroke-width="2.618947" stroke-linecap="round" stroke-linejoin="round" stroke="rgb(95.294118%, 95.294118%, 95.294118%)" stroke-opacity="1" stroke-miterlimit="10" d="M 65.027344 326.195312 L 778.546875 326.195312 L 778.546875 13.449219 L 65.027344 13.449219 Z M 65.027344 326.195312 "/>
</g>
<g clip-path="url(#clip-1)">
<path fill="none" stroke-width="2.618947" stroke-linecap="butt" stroke-linejoin="round" stroke="rgb(92.156863%, 92.156863%, 92.156863%)" stroke-opacity="1" stroke-miterlimit="10" d="M 65.027344 311.980469 L 778.550781 311.980469 "/>
</g>
<g clip-path="url(#clip-2)">
<path fill="none" stroke-width="2.618947" stroke-linecap="butt" stroke-linejoin="round" stroke="rgb(92.156863%, 92.156863%, 92.156863%)" stroke-opacity="1" stroke-miterlimit="10" d="M 65.027344 243.960938 L 778.550781 243.960938 "/>
</g>
<g clip-path="url(#clip-3)">
<path fill="none" stroke-width="2.618947" stroke-linecap="butt" stroke-linejoin="round" stroke="rgb(92.156863%, 92.156863%, 92.156863%)" stroke-opacity="1" stroke-miterlimit="10" d="M 65.027344 175.945312 L 778.550781 175.945312 "/>
</g>
<g clip-path="url(#clip-4)">
<path fill="none" stroke-width="2.618947" stroke-linecap="butt" stroke-linejoin="round" stroke="rgb(92.156863%, 92.156863%, 92.156863%)" stroke-opacity="1" stroke-miterlimit="10" d="M 65.027344 107.925781 L 778.550781 107.925781 "/>
</g>
<g clip-path="url(#clip-5)">
<path fill="none" stroke-width="2.618947" stroke-linecap="butt" stroke-linejoin="round" stroke="rgb(92.156863%, 92.156863%, 92.156863%)" stroke-opacity="1" stroke-miterlimit="10" d="M 65.027344 39.910156 L 778.550781 39.910156 "/>
</g>
<g clip-path="url(#clip-6)">
<path fill="none" stroke-width="2.618947" stroke-linecap="butt" stroke-linejoin="round" stroke="rgb(92.156863%, 92.156863%, 92.156863%)" stroke-opacity="1" stroke-miterlimit="10" d="M 219.523438 326.195312 L 219.523438 13.449219 "/>
</g>
<g clip-path="url(#clip-7)">
<path fill="none" stroke-width="2.618947" stroke-linecap="butt" stroke-linejoin="round" stroke="rgb(92.156863%, 92.156863%, 92.156863%)" stroke-opacity="1" stroke-miterlimit="10" d="M 397.066406 326.195312 L 397.066406 13.449219 "/>
</g>
<g clip-path="url(#clip-8)">
<path fill="none" stroke-width="2.618947" stroke-linecap="butt" stroke-linejoin="round" stroke="rgb(92.156863%, 92.156863%, 92.156863%)" stroke-opacity="1" stroke-miterlimit="10" d="M 574.605469 326.195312 L 574.605469 13.449219 "/>
</g>
<g clip-path="url(#clip-9)">
<path fill="none" stroke-width="2.618947" stroke-linecap="butt" stroke-linejoin="round" stroke="rgb(92.156863%, 92.156863%, 92.156863%)" stroke-opacity="1" stroke-miterlimit="10" d="M 752.148438 326.195312 L 752.148438 13.449219 "/>
</g>
<path fill-rule="nonzero" fill="rgb(56.078431%, 16.470588%, 26.27451%)" fill-opacity="0.698039" d="M 97.460938 311.980469 L 119.082031 311.980469 L 119.082031 309.257812 L 97.460938 309.257812 Z M 97.460938 311.980469 "/>
<path fill-rule="nonzero" fill="rgb(56.078431%, 16.470588%, 26.27451%)" fill-opacity="0.698039" d="M 119.082031 311.980469 L 140.703125 311.980469 L 140.703125 305.179688 L 119.082031 305.179688 Z M 119.082031 311.980469 "/>
<path fill-rule="nonzero" fill="rgb(56.078431%, 16.470588%, 26.27451%)" fill-opacity="0.698039" d="M 140.707031 311.980469 L 162.328125 311.980469 L 162.328125 310.621094 L 140.707031 310.621094 Z M 140.707031 311.980469 "/>
<path fill-rule="nonzero" fill="rgb(56.078431%, 16.470588%, 26.27451%)" fill-opacity="0.698039" d="M 162.328125 311.980469 L 183.949219 311.980469 L 183.949219 286.132812 L 162.328125 286.132812 Z M 162.328125 311.980469 "/>
<path fill-rule="nonzero" fill="rgb(56.078431%, 16.470588%, 26.27451%)" fill-opacity="0.698039" d="M 183.949219 311.980469 L 205.570312 311.980469 L 205.570312 291.574219 L 183.949219 291.574219 Z M 183.949219 311.980469 "/>
<path fill-rule="nonzero" fill="rgb(56.078431%, 16.470588%, 26.27451%)" fill-opacity="0.698039" d="M 205.570312 311.980469 L 227.191406 311.980469 L 227.191406 269.808594 L 205.570312 269.808594 Z M 205.570312 311.980469 "/>
<path fill-rule="nonzero" fill="rgb(56.078431%, 16.470588%, 26.27451%)" fill-opacity="0.698039" d="M 227.191406 311.980469 L 248.8125 311.980469 L 248.8125 265.726562 L 227.191406 265.726562 Z M 227.191406 311.980469 "/>
<path fill-rule="nonzero" fill="rgb(56.078431%, 16.470588%, 26.27451%)" fill-opacity="0.698039" d="M 248.816406 311.980469 L 270.4375 311.980469 L 270.4375 222.195312 L 248.816406 222.195312 Z M 248.816406 311.980469 "/>
<path fill-rule="nonzero" fill="rgb(56.078431%, 16.470588%, 26.27451%)" fill-opacity="0.698039" d="M 270.4375 311.980469 L 292.058594 311.980469 L 292.058594 189.546875 L 270.4375 189.546875 Z M 270.4375 311.980469 "/>
<path fill-rule="nonzero" fill="rgb(56.078431%, 16.470588%, 26.27451%)" fill-opacity="0.698039" d="M 292.058594 311.980469 L 313.679688 311.980469 L 313.679688 166.421875 L 292.058594 166.421875 Z M 292.058594 311.980469 "/>
<path fill-rule="nonzero" fill="rgb(56.078431%, 16.470588%, 26.27451%)" fill-opacity="0.698039" d="M 313.679688 311.980469 L 335.300781 311.980469 L 335.300781 133.773438 L 313.679688 133.773438 Z M 313.679688 311.980469 "/>
<path fill-rule="nonzero" fill="rgb(56.078431%, 16.470588%, 26.27451%)" fill-opacity="0.698039" d="M 335.300781 311.980469 L 356.921875 311.980469 L 356.921875 106.566406 L 335.300781 106.566406 Z M 335.300781 311.980469 "/>
<path fill-rule="nonzero" fill="rgb(56.078431%, 16.470588%, 26.27451%)" fill-opacity="0.698039" d="M 356.925781 311.980469 L 378.546875 311.980469 L 378.546875 27.664062 L 356.925781 27.664062 Z M 356.925781 311.980469 "/>
<path fill-rule="nonzero" fill="rgb(56.078431%, 16.470588%, 26.27451%)" fill-opacity="0.698039" d="M 378.546875 311.980469 L 400.167969 311.980469 L 400.167969 46.710938 L 378.546875 46.710938 Z M 378.546875 311.980469 "/>
<path fill-rule="nonzero" fill="rgb(56.078431%, 16.470588%, 26.27451%)" fill-opacity="0.698039" d="M 400.167969 311.980469 L 421.789062 311.980469 L 421.789062 75.277344 L 400.167969 75.277344 Z M 400.167969 311.980469 "/>
<path fill-rule="nonzero" fill="rgb(56.078431%, 16.470588%, 26.27451%)" fill-opacity="0.698039" d="M 421.789062 311.980469 L 443.410156 311.980469 L 443.410156 95.683594 L 421.789062 95.683594 Z M 421.789062 311.980469 "/>
<path fill-rule="nonzero" fill="rgb(56.078431%, 16.470588%, 26.27451%)" fill-opacity="0.698039" d="M 443.410156 311.980469 L 465.03125 311.980469 L 465.03125 105.207031 L 443.410156 105.207031 Z M 443.410156 311.980469 "/>
<path fill-rule="nonzero" fill="rgb(56.078431%, 16.470588%, 26.27451%)" fill-opacity="0.698039" d="M 465.035156 311.980469 L 486.65625 311.980469 L 486.65625 118.808594 L 465.035156 118.808594 Z M 465.035156 311.980469 "/>
<path fill-rule="nonzero" fill="rgb(56.078431%, 16.470588%, 26.27451%)" fill-opacity="0.698039" d="M 486.65625 311.980469 L 508.277344 311.980469 L 508.277344 174.585938 L 486.65625 174.585938 Z M 486.65625 311.980469 "/>
<path fill-rule="nonzero" fill="rgb(56.078431%, 16.470588%, 26.27451%)" fill-opacity="0.698039" d="M 508.277344 311.980469 L 529.898438 311.980469 L 529.898438 218.117188 L 508.277344 218.117188 Z M 508.277344 311.980469 "/>
<path fill-rule="nonzero" fill="rgb(56.078431%, 16.470588%, 26.27451%)" fill-opacity="0.698039" d="M 529.898438 311.980469 L 551.519531 311.980469 L 551.519531 237.160156 L 529.898438 237.160156 Z M 529.898438 311.980469 "/>
<path fill-rule="nonzero" fill="rgb(56.078431%, 16.470588%, 26.27451%)" fill-opacity="0.698039" d="M 551.519531 311.980469 L 573.140625 311.980469 L 573.140625 264.367188 L 551.519531 264.367188 Z M 551.519531 311.980469 "/>
<path fill-rule="nonzero" fill="rgb(56.078431%, 16.470588%, 26.27451%)" fill-opacity="0.698039" d="M 573.144531 311.980469 L 594.765625 311.980469 L 594.765625 271.167969 L 573.144531 271.167969 Z M 573.144531 311.980469 "/>
<path fill-rule="nonzero" fill="rgb(56.078431%, 16.470588%, 26.27451%)" fill-opacity="0.698039" d="M 594.765625 311.980469 L 616.386719 311.980469 L 616.386719 291.574219 L 594.765625 291.574219 Z M 594.765625 311.980469 "/>
<path fill-rule="nonzero" fill="rgb(56.078431%, 16.470588%, 26.27451%)" fill-opacity="0.698039" d="M 616.386719 311.980469 L 638.007812 311.980469 L 638.007812 305.179688 L 616.386719 305.179688 Z M 616.386719 311.980469 "/>
<path fill-rule="nonzero" fill="rgb(56.078431%, 16.470588%, 26.27451%)" fill-opacity="0.698039" d="M 638.007812 311.980469 L 659.628906 311.980469 L 659.628906 307.898438 L 638.007812 307.898438 Z M 638.007812 311.980469 "/>
<path fill-rule="nonzero" fill="rgb(56.078431%, 16.470588%, 26.27451%)" fill-opacity="0.698039" d="M 659.628906 311.980469 L 681.25 311.980469 L 681.25 309.257812 L 659.628906 309.257812 Z M 659.628906 311.980469 "/>
<path fill-rule="nonzero" fill="rgb(56.078431%, 16.470588%, 26.27451%)" fill-opacity="0.698039" d="M 702.875 311.980469 L 724.496094 311.980469 L 724.496094 310.621094 L 702.875 310.621094 Z M 702.875 311.980469 "/>
<path fill-rule="nonzero" fill="rgb(56.078431%, 16.470588%, 26.27451%)" fill-opacity="0.698039" d="M 724.496094 311.980469 L 746.117188 311.980469 L 746.117188 310.621094 L 724.496094 310.621094 Z M 724.496094 311.980469 "/>
<path fill-rule="nonzero" fill="rgb(10.196078%, 10.196078%, 10.196078%)" fill-opacity="1" d="M 46.050781 303.644531 L 46.550781 303.664062 L 47.03125 303.730469 L 47.480469 303.839844 L 47.910156 303.996094 L 48.3125 304.191406 L 48.691406 304.433594 L 49.042969 304.71875 L 49.371094 305.050781 L 49.671875 305.425781 L 49.949219 305.84375 L 50.203125 306.296875 L 50.425781 306.792969 L 50.625 307.332031 L 50.796875 307.910156 L 50.941406 308.53125 L 51.0625 309.191406 L 51.15625 309.890625 L 51.222656 310.632812 L 51.261719 311.417969 L 51.273438 312.242188 L 51.261719 313.0625 L 51.21875 313.84375 L 51.152344 314.582031 L 51.058594 315.28125 L 50.9375 315.941406 L 50.789062 316.5625 L 50.613281 317.144531 L 50.410156 317.683594 L 50.179688 318.183594 L 49.925781 318.644531 L 49.648438 319.054688 L 49.34375 319.425781 L 49.019531 319.75 L 48.667969 320.035156 L 48.292969 320.273438 L 47.894531 320.46875 L 47.46875 320.621094 L 47.019531 320.730469 L 46.546875 320.796875 L 46.050781 320.816406 L 45.546875 320.796875 L 45.070312 320.730469 L 44.617188 320.621094 L 44.191406 320.46875 L 43.785156 320.273438 L 43.410156 320.035156 L 43.058594 319.75 L 42.730469 319.425781 L 42.425781 319.054688 L 42.148438 318.644531 L 41.898438 318.183594 L 41.671875 317.679688 L 41.472656 317.140625 L 41.300781 316.558594 L 41.15625 315.9375 L 41.035156 315.273438 L 40.945312 314.570312 L 40.878906 313.828125 L 40.835938 313.042969 L 40.824219 312.21875 L 40.835938 311.394531 L 40.878906 310.609375 L 40.945312 309.867188 L 41.035156 309.164062 L 41.15625 308.503906 L 41.300781 307.886719 L 41.472656 307.308594 L 41.671875 306.769531 L 41.898438 306.273438 L 42.148438 305.816406 L 42.425781 305.40625 L 42.730469 305.035156 L 43.058594 304.707031 L 43.410156 304.425781 L 43.785156 304.1875 L 44.191406 303.992188 L 44.617188 303.839844 L 45.070312 303.730469 L 45.546875 303.664062 Z M 46.050781 304.84375 L 45.34375 304.917969 L 44.707031 305.136719 L 44.148438 305.507812 L 43.664062 306.023438 L 43.253906 306.6875 L 42.921875 307.496094 L 42.660156 308.457031 L 42.472656 309.5625 L 42.363281 310.816406 L 42.324219 312.21875 L 42.363281 313.625 L 42.472656 314.882812 L 42.660156 315.992188 L 42.921875 316.953125 L 43.253906 317.769531 L 43.664062 318.433594 L 44.148438 318.953125 L 44.707031 319.320312 L 45.34375 319.542969 L 46.050781 319.617188 L 46.40625 319.597656 L 46.742188 319.546875 L 47.0625 319.457031 L 47.367188 319.328125 L 47.648438 319.167969 L 47.914062 318.96875 L 48.164062 318.734375 L 48.394531 318.464844 L 48.605469 318.160156 L 48.800781 317.816406 L 48.980469 317.4375 L 49.140625 317.019531 L 49.285156 316.558594 L 49.40625 316.0625 L 49.511719 315.523438 L 49.597656 314.945312 L 49.664062 314.328125 L 49.710938 313.671875 L 49.738281 312.976562 L 49.75 312.242188 L 49.738281 311.507812 L 49.710938 310.8125 L 49.664062 310.15625 L 49.597656 309.539062 L 49.511719 308.960938 L 49.40625 308.421875 L 49.285156 307.925781 L 49.140625 307.464844 L 48.980469 307.046875 L 48.800781 306.667969 L 48.605469 306.320312 L 48.394531 306.011719 L 48.164062 305.738281 L 47.914062 305.5 L 47.648438 305.300781 L 47.367188 305.132812 L 47.0625 305.007812 L 46.742188 304.914062 L 46.40625 304.859375 Z M 46.050781 304.84375 "/>
<path fill-rule="nonzero" fill="rgb(10.196078%, 10.196078%, 10.196078%)" fill-opacity="1" d="M 37.125 237.101562 L 30.375 237.101562 L 30.375 242.773438 L 30.652344 242.628906 L 30.929688 242.496094 L 31.207031 242.378906 L 31.492188 242.277344 L 31.773438 242.195312 L 32.0625 242.125 L 32.347656 242.070312 L 32.636719 242.03125 L 32.929688 242.007812 L 33.222656 242 L 33.644531 242.015625 L 34.046875 242.054688 L 34.433594 242.125 L 34.800781 242.222656 L 35.148438 242.351562 L 35.480469 242.503906 L 35.792969 242.6875 L 36.089844 242.894531 L 36.367188 243.132812 L 36.625 243.398438 L 36.867188 243.683594 L 37.082031 243.992188 L 37.273438 244.316406 L 37.441406 244.664062 L 37.582031 245.03125 L 37.695312 245.417969 L 37.785156 245.828125 L 37.847656 246.253906 L 37.886719 246.703125 L 37.898438 247.175781 L 37.894531 247.496094 L 37.871094 247.8125 L 37.839844 248.121094 L 37.792969 248.421875 L 37.730469 248.71875 L 37.65625 249.007812 L 37.570312 249.289062 L 37.46875 249.566406 L 37.351562 249.835938 L 37.222656 250.101562 L 37.089844 250.347656 L 36.941406 250.585938 L 36.78125 250.816406 L 36.613281 251.03125 L 36.429688 251.238281 L 36.238281 251.433594 L 36.03125 251.613281 L 35.816406 251.789062 L 35.589844 251.949219 L 35.347656 252.101562 L 35.105469 252.234375 L 34.855469 252.351562 L 34.59375 252.457031 L 34.324219 252.546875 L 34.050781 252.625 L 33.765625 252.6875 L 33.472656 252.738281 L 33.171875 252.773438 L 32.867188 252.792969 L 32.550781 252.800781 L 32.003906 252.78125 L 31.472656 252.71875 L 30.960938 252.621094 L 30.464844 252.480469 L 29.988281 252.300781 L 29.527344 252.078125 L 29.082031 251.820312 L 28.652344 251.519531 L 28.242188 251.179688 L 27.847656 250.800781 L 28.75 249.925781 L 28.910156 250.089844 L 29.074219 250.246094 L 29.238281 250.394531 L 29.40625 250.53125 L 29.574219 250.664062 L 29.746094 250.78125 L 29.917969 250.894531 L 30.09375 250.996094 L 30.269531 251.089844 L 30.449219 251.175781 L 30.632812 251.25 L 30.820312 251.320312 L 31.015625 251.378906 L 31.21875 251.429688 L 31.425781 251.476562 L 31.636719 251.511719 L 31.855469 251.539062 L 32.082031 251.558594 L 32.3125 251.570312 L 32.550781 251.574219 L 32.898438 251.5625 L 33.230469 251.527344 L 33.546875 251.46875 L 33.847656 251.386719 L 34.136719 251.28125 L 34.410156 251.152344 L 34.667969 251 L 34.910156 250.824219 L 35.136719 250.621094 L 35.347656 250.398438 L 35.542969 250.152344 L 35.71875 249.886719 L 35.871094 249.601562 L 36.003906 249.304688 L 36.117188 248.988281 L 36.210938 248.652344 L 36.28125 248.304688 L 36.332031 247.9375 L 36.363281 247.550781 L 36.375 247.148438 L 36.363281 246.761719 L 36.335938 246.390625 L 36.289062 246.042969 L 36.222656 245.714844 L 36.136719 245.40625 L 36.03125 245.117188 L 35.910156 244.851562 L 35.765625 244.605469 L 35.605469 244.378906 L 35.425781 244.175781 L 35.234375 243.984375 L 35.027344 243.816406 L 34.808594 243.664062 L 34.578125 243.535156 L 34.332031 243.425781 L 34.070312 243.335938 L 33.796875 243.265625 L 33.511719 243.214844 L 33.210938 243.183594 L 32.898438 243.175781 L 32.742188 243.175781 L 32.585938 243.183594 L 32.433594 243.191406 L 32.289062 243.207031 L 32.144531 243.226562 L 32.003906 243.246094 L 31.730469 243.300781 L 31.601562 243.335938 L 31.472656 243.375 L 31.230469 243.453125 L 31.101562 243.503906 L 30.96875 243.554688 L 30.835938 243.613281 L 30.699219 243.675781 L 30.5625 243.742188 L 30.273438 243.890625 L 30.125 243.976562 L 28.972656 243.976562 L 28.972656 235.898438 L 37.347656 235.898438 Z M 37.125 237.101562 "/>
<path fill-rule="nonzero" fill="rgb(10.196078%, 10.196078%, 10.196078%)" fill-opacity="1" d="M 46.050781 235.625 L 46.550781 235.648438 L 47.03125 235.710938 L 47.480469 235.824219 L 47.910156 235.976562 L 48.3125 236.175781 L 48.691406 236.417969 L 49.042969 236.703125 L 49.371094 237.03125 L 49.671875 237.40625 L 49.949219 237.824219 L 50.203125 238.28125 L 50.425781 238.777344 L 50.625 239.3125 L 50.796875 239.894531 L 50.941406 240.511719 L 51.0625 241.171875 L 51.15625 241.875 L 51.222656 242.617188 L 51.261719 243.398438 L 51.273438 244.226562 L 51.261719 245.042969 L 51.21875 245.824219 L 51.152344 246.566406 L 51.058594 247.265625 L 50.9375 247.925781 L 50.789062 248.542969 L 50.613281 249.125 L 50.410156 249.664062 L 50.179688 250.164062 L 49.925781 250.625 L 49.648438 251.039062 L 49.34375 251.40625 L 49.019531 251.734375 L 48.667969 252.015625 L 48.292969 252.257812 L 47.894531 252.453125 L 47.46875 252.605469 L 47.019531 252.710938 L 46.546875 252.777344 L 46.050781 252.800781 L 45.546875 252.777344 L 45.070312 252.710938 L 44.617188 252.605469 L 44.191406 252.453125 L 43.785156 252.257812 L 43.410156 252.015625 L 43.058594 251.734375 L 42.730469 251.40625 L 42.425781 251.039062 L 42.148438 250.625 L 41.898438 250.164062 L 41.671875 249.664062 L 41.472656 249.121094 L 41.300781 248.539062 L 41.15625 247.917969 L 41.035156 247.253906 L 40.945312 246.550781 L 40.878906 245.808594 L 40.835938 245.023438 L 40.824219 244.199219 L 40.835938 243.375 L 40.878906 242.589844 L 40.945312 241.847656 L 41.035156 241.148438 L 41.15625 240.488281 L 41.300781 239.867188 L 41.472656 239.289062 L 41.671875 238.75 L 41.898438 238.253906 L 42.148438 237.800781 L 42.425781 237.386719 L 42.730469 237.015625 L 43.058594 236.691406 L 43.410156 236.40625 L 43.785156 236.167969 L 44.191406 235.972656 L 44.617188 235.820312 L 45.070312 235.710938 L 45.546875 235.644531 Z M 46.050781 236.824219 L 45.34375 236.898438 L 44.707031 237.121094 L 44.148438 237.488281 L 43.664062 238.003906 L 43.253906 238.667969 L 42.921875 239.480469 L 42.660156 240.4375 L 42.472656 241.542969 L 42.363281 242.796875 L 42.324219 244.199219 L 42.363281 245.605469 L 42.472656 246.863281 L 42.660156 247.972656 L 42.921875 248.9375 L 43.253906 249.75 L 43.664062 250.414062 L 44.148438 250.933594 L 44.707031 251.304688 L 45.34375 251.527344 L 46.050781 251.601562 L 46.40625 251.582031 L 46.742188 251.527344 L 47.0625 251.4375 L 47.367188 251.3125 L 47.648438 251.148438 L 47.914062 250.953125 L 48.164062 250.71875 L 48.394531 250.449219 L 48.605469 250.140625 L 48.800781 249.800781 L 48.980469 249.421875 L 49.140625 249 L 49.285156 248.542969 L 49.40625 248.042969 L 49.511719 247.507812 L 49.597656 246.929688 L 49.664062 246.3125 L 49.710938 245.65625 L 49.738281 244.960938 L 49.75 244.226562 L 49.738281 243.488281 L 49.710938 242.792969 L 49.664062 242.136719 L 49.597656 241.519531 L 49.511719 240.945312 L 49.40625 240.40625 L 49.285156 239.90625 L 49.140625 239.449219 L 48.980469 239.03125 L 48.800781 238.648438 L 48.605469 238.304688 L 48.394531 237.992188 L 48.164062 237.71875 L 47.914062 237.480469 L 47.648438 237.28125 L 47.367188 237.117188 L 47.0625 236.988281 L 46.742188 236.898438 L 46.40625 236.84375 Z M 46.050781 236.824219 "/>
<path fill-rule="nonzero" fill="rgb(10.196078%, 10.196078%, 10.196078%)" fill-opacity="1" d="M 22.398438 167.882812 L 22.398438 184.507812 L 20.949219 184.507812 L 20.949219 169.480469 L 16.847656 172.03125 L 16.175781 170.957031 L 21.148438 167.882812 Z M 22.398438 167.882812 "/>
<path fill-rule="nonzero" fill="rgb(10.196078%, 10.196078%, 10.196078%)" fill-opacity="1" d="M 32.300781 167.605469 L 32.800781 167.628906 L 33.28125 167.695312 L 33.730469 167.804688 L 34.160156 167.957031 L 34.5625 168.15625 L 34.941406 168.398438 L 35.292969 168.683594 L 35.621094 169.015625 L 35.921875 169.390625 L 36.199219 169.808594 L 36.453125 170.261719 L 36.675781 170.757812 L 36.875 171.296875 L 37.046875 171.875 L 37.191406 172.496094 L 37.3125 173.15625 L 37.40625 173.855469 L 37.472656 174.597656 L 37.511719 175.382812 L 37.523438 176.207031 L 37.511719 177.027344 L 37.46875 177.808594 L 37.402344 178.546875 L 37.308594 179.246094 L 37.1875 179.90625 L 37.039062 180.527344 L 36.863281 181.105469 L 36.660156 181.648438 L 36.429688 182.148438 L 36.175781 182.605469 L 35.898438 183.019531 L 35.59375 183.390625 L 35.269531 183.714844 L 34.917969 184 L 34.542969 184.238281 L 34.144531 184.433594 L 33.71875 184.585938 L 33.269531 184.695312 L 32.796875 184.761719 L 32.300781 184.78125 L 31.796875 184.761719 L 31.320312 184.695312 L 30.867188 184.585938 L 30.441406 184.433594 L 30.035156 184.238281 L 29.660156 184 L 29.308594 183.714844 L 28.980469 183.390625 L 28.675781 183.019531 L 28.398438 182.605469 L 28.148438 182.148438 L 27.921875 181.644531 L 27.722656 181.105469 L 27.550781 180.523438 L 27.40625 179.902344 L 27.285156 179.238281 L 27.195312 178.535156 L 27.128906 177.789062 L 27.085938 177.007812 L 27.074219 176.183594 L 27.085938 175.355469 L 27.128906 174.574219 L 27.195312 173.832031 L 27.285156 173.128906 L 27.40625 172.46875 L 27.550781 171.851562 L 27.722656 171.269531 L 27.921875 170.734375 L 28.148438 170.238281 L 28.398438 169.78125 L 28.675781 169.367188 L 28.980469 169 L 29.308594 168.671875 L 29.660156 168.390625 L 30.035156 168.152344 L 30.441406 167.953125 L 30.867188 167.800781 L 31.320312 167.695312 L 31.796875 167.628906 Z M 32.300781 168.808594 L 31.59375 168.878906 L 30.957031 169.101562 L 30.398438 169.46875 L 29.914062 169.988281 L 29.503906 170.652344 L 29.171875 171.460938 L 28.910156 172.421875 L 28.722656 173.527344 L 28.613281 174.78125 L 28.574219 176.183594 L 28.613281 177.585938 L 28.722656 178.847656 L 28.910156 179.957031 L 29.171875 180.917969 L 29.503906 181.730469 L 29.914062 182.398438 L 30.398438 182.914062 L 30.957031 183.285156 L 31.59375 183.507812 L 32.300781 183.582031 L 32.65625 183.5625 L 32.992188 183.511719 L 33.3125 183.417969 L 33.617188 183.292969 L 33.898438 183.132812 L 34.164062 182.933594 L 34.414062 182.699219 L 34.644531 182.429688 L 34.855469 182.125 L 35.050781 181.78125 L 35.230469 181.402344 L 35.390625 180.984375 L 35.535156 180.523438 L 35.65625 180.027344 L 35.761719 179.488281 L 35.847656 178.910156 L 35.914062 178.292969 L 35.960938 177.636719 L 35.988281 176.941406 L 36 176.207031 L 35.988281 175.472656 L 35.960938 174.777344 L 35.914062 174.121094 L 35.847656 173.503906 L 35.761719 172.925781 L 35.65625 172.386719 L 35.535156 171.890625 L 35.390625 171.429688 L 35.230469 171.011719 L 35.050781 170.632812 L 34.855469 170.285156 L 34.644531 169.976562 L 34.414062 169.699219 L 34.164062 169.464844 L 33.898438 169.261719 L 33.617188 169.097656 L 33.3125 168.972656 L 32.992188 168.878906 L 32.65625 168.824219 Z M 32.300781 168.808594 "/>
<path fill-rule="nonzero" fill="rgb(10.196078%, 10.196078%, 10.196078%)" fill-opacity="1" d="M 46.050781 167.605469 L 46.550781 167.628906 L 47.03125 167.695312 L 47.480469 167.804688 L 47.910156 167.957031 L 48.3125 168.15625 L 48.691406 168.398438 L 49.042969 168.683594 L 49.371094 169.015625 L 49.671875 169.390625 L 49.949219 169.808594 L 50.203125 170.261719 L 50.425781 170.757812 L 50.625 171.296875 L 50.796875 171.875 L 50.941406 172.496094 L 51.0625 173.15625 L 51.15625 173.855469 L 51.222656 174.597656 L 51.261719 175.382812 L 51.273438 176.207031 L 51.261719 177.027344 L 51.21875 177.808594 L 51.152344 178.546875 L 51.058594 179.246094 L 50.9375 179.90625 L 50.789062 180.527344 L 50.613281 181.105469 L 50.410156 181.648438 L 50.179688 182.148438 L 49.925781 182.605469 L 49.648438 183.019531 L 49.34375 183.390625 L 49.019531 183.714844 L 48.667969 184 L 48.292969 184.238281 L 47.894531 184.433594 L 47.46875 184.585938 L 47.019531 184.695312 L 46.546875 184.761719 L 46.050781 184.78125 L 45.546875 184.761719 L 45.070312 184.695312 L 44.617188 184.585938 L 44.191406 184.433594 L 43.785156 184.238281 L 43.410156 184 L 43.058594 183.714844 L 42.730469 183.390625 L 42.425781 183.019531 L 42.148438 182.605469 L 41.898438 182.148438 L 41.671875 181.644531 L 41.472656 181.105469 L 41.300781 180.523438 L 41.15625 179.902344 L 41.035156 179.238281 L 40.945312 178.535156 L 40.878906 177.789062 L 40.835938 177.007812 L 40.824219 176.183594 L 40.835938 175.355469 L 40.878906 174.574219 L 40.945312 173.832031 L 41.035156 173.128906 L 41.15625 172.46875 L 41.300781 171.851562 L 41.472656 171.269531 L 41.671875 170.734375 L 41.898438 170.238281 L 42.148438 169.78125 L 42.425781 169.367188 L 42.730469 169 L 43.058594 168.671875 L 43.410156 168.390625 L 43.785156 168.152344 L 44.191406 167.953125 L 44.617188 167.800781 L 45.070312 167.695312 L 45.546875 167.628906 Z M 46.050781 168.808594 L 45.34375 168.878906 L 44.707031 169.101562 L 44.148438 169.46875 L 43.664062 169.988281 L 43.253906 170.652344 L 42.921875 171.460938 L 42.660156 172.421875 L 42.472656 173.527344 L 42.363281 174.78125 L 42.324219 176.183594 L 42.363281 177.585938 L 42.472656 178.847656 L 42.660156 179.957031 L 42.921875 180.917969 L 43.253906 181.730469 L 43.664062 182.398438 L 44.148438 182.914062 L 44.707031 183.285156 L 45.34375 183.507812 L 46.050781 183.582031 L 46.40625 183.5625 L 46.742188 183.511719 L 47.0625 183.417969 L 47.367188 183.292969 L 47.648438 183.132812 L 47.914062 182.933594 L 48.164062 182.699219 L 48.394531 182.429688 L 48.605469 182.125 L 48.800781 181.78125 L 48.980469 181.402344 L 49.140625 180.984375 L 49.285156 180.523438 L 49.40625 180.027344 L 49.511719 179.488281 L 49.597656 178.910156 L 49.664062 178.292969 L 49.710938 177.636719 L 49.738281 176.941406 L 49.75 176.207031 L 49.738281 175.472656 L 49.710938 174.777344 L 49.664062 174.121094 L 49.597656 173.503906 L 49.511719 172.925781 L 49.40625 172.386719 L 49.285156 171.890625 L 49.140625 171.429688 L 48.980469 171.011719 L 48.800781 170.632812 L 48.605469 170.285156 L 48.394531 169.976562 L 48.164062 169.699219 L 47.914062 169.464844 L 47.648438 169.261719 L 47.367188 169.097656 L 47.0625 168.972656 L 46.742188 168.878906 L 46.40625 168.824219 Z M 46.050781 168.808594 "/>
<path fill-rule="nonzero" fill="rgb(10.196078%, 10.196078%, 10.196078%)" fill-opacity="1" d="M 23.972656 99.863281 L 23.972656 116.488281 L 22.523438 116.488281 L 22.523438 101.464844 L 18.425781 104.015625 L 17.75 102.9375 L 22.722656 99.863281 Z M 23.972656 99.863281 "/>
<path fill-rule="nonzero" fill="rgb(10.196078%, 10.196078%, 10.196078%)" fill-opacity="1" d="M 37.125 101.0625 L 30.375 101.0625 L 30.375 106.738281 L 30.652344 106.589844 L 30.929688 106.460938 L 31.207031 106.34375 L 31.492188 106.242188 L 31.773438 106.15625 L 32.0625 106.089844 L 32.347656 106.035156 L 32.636719 105.996094 L 32.929688 105.972656 L 33.222656 105.964844 L 33.644531 105.976562 L 34.046875 106.019531 L 34.433594 106.089844 L 34.800781 106.1875 L 35.148438 106.3125 L 35.480469 106.46875 L 35.792969 106.648438 L 36.089844 106.859375 L 36.367188 107.097656 L 36.625 107.363281 L 36.867188 107.648438 L 37.082031 107.953125 L 37.273438 108.28125 L 37.441406 108.628906 L 37.582031 108.996094 L 37.695312 109.382812 L 37.785156 109.792969 L 37.847656 110.21875 L 37.886719 110.667969 L 37.898438 111.140625 L 37.894531 111.460938 L 37.871094 111.777344 L 37.839844 112.085938 L 37.792969 112.386719 L 37.730469 112.683594 L 37.65625 112.972656 L 37.570312 113.253906 L 37.46875 113.53125 L 37.351562 113.800781 L 37.222656 114.0625 L 37.089844 114.3125 L 36.941406 114.550781 L 36.78125 114.78125 L 36.613281 114.996094 L 36.429688 115.203125 L 36.238281 115.394531 L 36.03125 115.578125 L 35.816406 115.75 L 35.589844 115.914062 L 35.347656 116.0625 L 35.105469 116.195312 L 34.855469 116.316406 L 34.59375 116.421875 L 34.324219 116.511719 L 34.050781 116.589844 L 33.765625 116.652344 L 33.472656 116.699219 L 33.171875 116.734375 L 32.867188 116.757812 L 32.550781 116.765625 L 32.003906 116.742188 L 31.472656 116.683594 L 30.960938 116.582031 L 30.464844 116.445312 L 29.988281 116.265625 L 29.527344 116.042969 L 29.082031 115.785156 L 28.652344 115.484375 L 28.242188 115.144531 L 27.847656 114.765625 L 28.75 113.890625 L 28.910156 114.054688 L 29.074219 114.210938 L 29.238281 114.359375 L 29.40625 114.496094 L 29.574219 114.625 L 29.746094 114.746094 L 29.917969 114.859375 L 30.09375 114.960938 L 30.269531 115.054688 L 30.449219 115.140625 L 30.632812 115.214844 L 30.820312 115.28125 L 31.015625 115.34375 L 31.21875 115.394531 L 31.425781 115.4375 L 31.636719 115.476562 L 31.855469 115.503906 L 32.082031 115.523438 L 32.3125 115.535156 L 32.550781 115.539062 L 32.898438 115.527344 L 33.230469 115.492188 L 33.546875 115.433594 L 33.847656 115.351562 L 34.136719 115.246094 L 34.410156 115.117188 L 34.667969 114.964844 L 34.910156 114.785156 L 35.136719 114.585938 L 35.347656 114.363281 L 35.542969 114.117188 L 35.71875 113.851562 L 35.871094 113.566406 L 36.003906 113.269531 L 36.117188 112.953125 L 36.210938 112.617188 L 36.28125 112.265625 L 36.332031 111.898438 L 36.363281 111.515625 L 36.375 111.113281 L 36.363281 110.722656 L 36.335938 110.355469 L 36.289062 110.007812 L 36.222656 109.679688 L 36.136719 109.371094 L 36.03125 109.082031 L 35.910156 108.816406 L 35.765625 108.570312 L 35.605469 108.34375 L 35.425781 108.140625 L 35.234375 107.949219 L 35.027344 107.777344 L 34.808594 107.628906 L 34.578125 107.5 L 34.332031 107.390625 L 34.070312 107.300781 L 33.796875 107.230469 L 33.511719 107.179688 L 33.210938 107.148438 L 32.898438 107.140625 L 32.742188 107.140625 L 32.585938 107.148438 L 32.433594 107.15625 L 32.144531 107.1875 L 32.003906 107.210938 L 31.730469 107.265625 L 31.601562 107.300781 L 31.472656 107.339844 L 31.351562 107.375 L 31.230469 107.417969 L 31.101562 107.464844 L 30.96875 107.519531 L 30.835938 107.578125 L 30.699219 107.640625 L 30.5625 107.707031 L 30.417969 107.777344 L 30.273438 107.855469 L 30.125 107.9375 L 28.972656 107.9375 L 28.972656 99.863281 L 37.347656 99.863281 Z M 37.125 101.0625 "/>
<path fill-rule="nonzero" fill="rgb(10.196078%, 10.196078%, 10.196078%)" fill-opacity="1" d="M 46.050781 99.589844 L 46.550781 99.609375 L 47.03125 99.675781 L 47.480469 99.785156 L 47.910156 99.941406 L 48.3125 100.140625 L 48.691406 100.382812 L 49.042969 100.667969 L 49.371094 100.996094 L 49.671875 101.371094 L 49.949219 101.789062 L 50.203125 102.246094 L 50.425781 102.742188 L 50.625 103.277344 L 50.796875 103.855469 L 50.941406 104.476562 L 51.0625 105.136719 L 51.15625 105.839844 L 51.222656 106.582031 L 51.261719 107.363281 L 51.273438 108.1875 L 51.261719 109.007812 L 51.21875 109.789062 L 51.152344 110.527344 L 51.058594 111.230469 L 50.9375 111.890625 L 50.789062 112.507812 L 50.613281 113.089844 L 50.410156 113.628906 L 50.179688 114.128906 L 49.925781 114.589844 L 49.648438 115.003906 L 49.34375 115.371094 L 49.019531 115.699219 L 48.667969 115.980469 L 48.292969 116.21875 L 47.894531 116.414062 L 47.46875 116.566406 L 47.019531 116.675781 L 46.546875 116.742188 L 46.050781 116.765625 L 45.546875 116.742188 L 45.070312 116.675781 L 44.617188 116.566406 L 44.191406 116.414062 L 43.785156 116.21875 L 43.410156 115.980469 L 43.058594 115.699219 L 42.730469 115.371094 L 42.425781 115.003906 L 42.148438 114.589844 L 41.898438 114.128906 L 41.671875 113.628906 L 41.472656 113.085938 L 41.300781 112.503906 L 41.15625 111.882812 L 41.035156 111.21875 L 40.945312 110.515625 L 40.878906 109.773438 L 40.835938 108.988281 L 40.824219 108.164062 L 40.835938 107.339844 L 40.878906 106.554688 L 40.945312 105.8125 L 41.035156 105.113281 L 41.15625 104.453125 L 41.300781 103.832031 L 41.472656 103.253906 L 41.671875 102.714844 L 41.898438 102.21875 L 42.148438 101.765625 L 42.425781 101.351562 L 42.730469 100.980469 L 43.058594 100.65625 L 43.410156 100.371094 L 43.785156 100.132812 L 44.191406 99.9375 L 44.617188 99.785156 L 45.070312 99.675781 L 45.546875 99.609375 Z M 46.050781 100.789062 L 45.34375 100.863281 L 44.707031 101.082031 L 44.148438 101.453125 L 43.664062 101.96875 L 43.253906 102.632812 L 42.921875 103.445312 L 42.660156 104.402344 L 42.472656 105.507812 L 42.363281 106.761719 L 42.324219 108.164062 L 42.363281 109.570312 L 42.472656 110.828125 L 42.660156 111.9375 L 42.921875 112.898438 L 43.253906 113.714844 L 43.664062 114.378906 L 44.148438 114.898438 L 44.707031 115.269531 L 45.34375 115.488281 L 46.050781 115.5625 L 46.40625 115.546875 L 46.742188 115.492188 L 47.0625 115.402344 L 47.367188 115.277344 L 47.648438 115.113281 L 47.914062 114.914062 L 48.164062 114.683594 L 48.394531 114.410156 L 48.605469 114.105469 L 48.800781 113.765625 L 48.980469 113.382812 L 49.140625 112.964844 L 49.285156 112.507812 L 49.40625 112.007812 L 49.511719 111.46875 L 49.597656 110.894531 L 49.664062 110.277344 L 49.710938 109.621094 L 49.738281 108.925781 L 49.75 108.1875 L 49.738281 107.453125 L 49.710938 106.757812 L 49.664062 106.101562 L 49.597656 105.484375 L 49.511719 104.90625 L 49.40625 104.371094 L 49.285156 103.871094 L 49.140625 103.414062 L 48.980469 102.992188 L 48.800781 102.613281 L 48.605469 102.265625 L 48.394531 101.957031 L 48.164062 101.683594 L 47.914062 101.445312 L 47.648438 101.246094 L 47.367188 101.082031 L 47.0625 100.953125 L 46.742188 100.863281 L 46.40625 100.808594 Z M 46.050781 100.789062 "/>
<path fill-rule="nonzero" fill="rgb(10.196078%, 10.196078%, 10.196078%)" fill-opacity="1" d="M 19.074219 31.570312 L 19.484375 31.582031 L 19.878906 31.621094 L 20.253906 31.679688 L 20.613281 31.765625 L 20.957031 31.878906 L 21.28125 32.011719 L 21.585938 32.171875 L 21.875 32.355469 L 22.144531 32.5625 L 22.398438 32.796875 L 22.636719 33.046875 L 22.847656 33.3125 L 23.035156 33.59375 L 23.199219 33.886719 L 23.335938 34.195312 L 23.449219 34.519531 L 23.535156 34.855469 L 23.597656 35.203125 L 23.636719 35.566406 L 23.648438 35.945312 L 23.644531 36.269531 L 23.621094 36.589844 L 23.589844 36.902344 L 23.542969 37.214844 L 23.480469 37.519531 L 23.40625 37.824219 L 23.320312 38.121094 L 23.21875 38.417969 L 23.101562 38.710938 L 22.972656 38.996094 L 22.832031 39.285156 L 22.671875 39.578125 L 22.5 39.875 L 22.3125 40.179688 L 22.105469 40.488281 L 21.886719 40.804688 L 21.648438 41.125 L 21.398438 41.453125 L 21.132812 41.785156 L 20.847656 42.121094 L 20.546875 42.476562 L 20.207031 42.867188 L 19.835938 43.292969 L 19.425781 43.75 L 18.980469 44.238281 L 18.5 44.765625 L 17.984375 45.320312 L 17.433594 45.914062 L 16.847656 46.539062 L 16.222656 47.195312 L 24.097656 47.195312 L 23.898438 48.472656 L 14.523438 48.472656 L 14.523438 47.246094 L 15.191406 46.535156 L 15.816406 45.863281 L 16.402344 45.226562 L 16.953125 44.628906 L 17.460938 44.070312 L 17.933594 43.550781 L 18.363281 43.066406 L 18.757812 42.621094 L 19.109375 42.214844 L 19.425781 41.847656 L 19.714844 41.496094 L 19.988281 41.15625 L 20.242188 40.824219 L 20.480469 40.507812 L 20.699219 40.195312 L 20.902344 39.894531 L 21.082031 39.605469 L 21.25 39.324219 L 21.394531 39.054688 L 21.523438 38.796875 L 21.644531 38.535156 L 21.75 38.269531 L 21.84375 38 L 21.925781 37.726562 L 21.992188 37.453125 L 22.050781 37.171875 L 22.09375 36.890625 L 22.125 36.605469 L 22.144531 36.3125 L 22.148438 36.019531 L 22.140625 35.730469 L 22.113281 35.453125 L 22.070312 35.191406 L 22.007812 34.9375 L 21.929688 34.695312 L 21.835938 34.46875 L 21.722656 34.25 L 21.589844 34.046875 L 21.441406 33.851562 L 21.273438 33.671875 L 21.097656 33.503906 L 20.910156 33.355469 L 20.710938 33.226562 L 20.503906 33.109375 L 20.28125 33.015625 L 20.046875 32.9375 L 19.804688 32.875 L 19.546875 32.832031 L 19.277344 32.804688 L 19 32.796875 L 18.773438 32.800781 L 18.550781 32.816406 L 18.332031 32.839844 L 18.121094 32.871094 L 17.910156 32.914062 L 17.710938 32.96875 L 17.511719 33.027344 L 17.320312 33.101562 L 17.132812 33.179688 L 16.949219 33.269531 L 16.773438 33.371094 L 16.601562 33.480469 L 16.429688 33.597656 L 16.261719 33.726562 L 16.09375 33.863281 L 15.925781 34.011719 L 15.761719 34.167969 L 15.597656 34.335938 L 15.433594 34.511719 L 15.273438 34.695312 L 14.273438 33.945312 L 14.476562 33.707031 L 14.679688 33.480469 L 14.886719 33.269531 L 15.097656 33.070312 L 15.3125 32.882812 L 15.527344 32.710938 L 15.75 32.550781 L 15.96875 32.402344 L 16.195312 32.265625 L 16.425781 32.144531 L 16.664062 32.035156 L 16.90625 31.9375 L 17.15625 31.851562 L 17.414062 31.777344 L 17.675781 31.714844 L 17.941406 31.664062 L 18.214844 31.621094 L 18.496094 31.59375 L 18.78125 31.578125 Z M 19.074219 31.570312 "/>
<path fill-rule="nonzero" fill="rgb(10.196078%, 10.196078%, 10.196078%)" fill-opacity="1" d="M 32.300781 31.570312 L 32.800781 31.59375 L 33.28125 31.660156 L 33.730469 31.769531 L 34.160156 31.921875 L 34.5625 32.121094 L 34.941406 32.363281 L 35.292969 32.648438 L 35.621094 32.980469 L 35.921875 33.351562 L 36.199219 33.769531 L 36.453125 34.226562 L 36.675781 34.722656 L 36.875 35.261719 L 37.046875 35.839844 L 37.191406 36.457031 L 37.3125 37.117188 L 37.40625 37.820312 L 37.472656 38.5625 L 37.511719 39.347656 L 37.523438 40.171875 L 37.511719 40.992188 L 37.46875 41.769531 L 37.402344 42.511719 L 37.308594 43.210938 L 37.1875 43.871094 L 37.039062 44.492188 L 36.863281 45.070312 L 36.660156 45.609375 L 36.429688 46.109375 L 36.175781 46.570312 L 35.898438 46.984375 L 35.59375 47.355469 L 35.269531 47.679688 L 34.917969 47.964844 L 34.542969 48.203125 L 34.144531 48.398438 L 33.71875 48.550781 L 33.269531 48.660156 L 32.796875 48.722656 L 32.300781 48.746094 L 31.796875 48.722656 L 31.320312 48.660156 L 30.867188 48.550781 L 30.441406 48.398438 L 30.035156 48.203125 L 29.660156 47.964844 L 29.308594 47.679688 L 28.980469 47.355469 L 28.675781 46.984375 L 28.398438 46.570312 L 28.148438 46.109375 L 27.921875 45.609375 L 27.722656 45.070312 L 27.550781 44.488281 L 27.40625 43.863281 L 27.285156 43.203125 L 27.195312 42.5 L 27.128906 41.753906 L 27.085938 40.972656 L 27.074219 40.144531 L 27.085938 39.320312 L 27.128906 38.539062 L 27.195312 37.796875 L 27.285156 37.09375 L 27.40625 36.433594 L 27.550781 35.8125 L 27.722656 35.234375 L 27.921875 34.699219 L 28.148438 34.203125 L 28.398438 33.746094 L 28.675781 33.332031 L 28.980469 32.964844 L 29.308594 32.636719 L 29.660156 32.355469 L 30.035156 32.113281 L 30.441406 31.917969 L 30.867188 31.765625 L 31.320312 31.65625 L 31.796875 31.59375 Z M 32.300781 32.769531 L 31.59375 32.84375 L 30.957031 33.066406 L 30.398438 33.433594 L 29.914062 33.949219 L 29.503906 34.613281 L 29.171875 35.425781 L 28.910156 36.386719 L 28.722656 37.492188 L 28.613281 38.746094 L 28.574219 40.144531 L 28.613281 41.550781 L 28.722656 42.808594 L 28.910156 43.921875 L 29.171875 44.882812 L 29.503906 45.695312 L 29.914062 46.363281 L 30.398438 46.878906 L 30.957031 47.25 L 31.59375 47.472656 L 32.300781 47.546875 L 32.65625 47.527344 L 32.992188 47.472656 L 33.3125 47.382812 L 33.617188 47.257812 L 33.898438 47.097656 L 34.164062 46.898438 L 34.414062 46.664062 L 34.644531 46.394531 L 34.855469 46.089844 L 35.050781 45.746094 L 35.230469 45.367188 L 35.390625 44.945312 L 35.535156 44.488281 L 35.65625 43.988281 L 35.761719 43.453125 L 35.847656 42.875 L 35.914062 42.257812 L 35.960938 41.601562 L 35.988281 40.90625 L 36 40.171875 L 35.988281 39.4375 L 35.960938 38.738281 L 35.914062 38.082031 L 35.847656 37.46875 L 35.761719 36.890625 L 35.65625 36.351562 L 35.535156 35.855469 L 35.390625 35.394531 L 35.230469 34.976562 L 35.050781 34.597656 L 34.855469 34.25 L 34.644531 33.9375 L 34.414062 33.664062 L 34.164062 33.429688 L 33.898438 33.226562 L 33.617188 33.0625 L 33.3125 32.933594 L 32.992188 32.84375 L 32.65625 32.789062 Z M 32.300781 32.769531 "/>
<path fill-rule="nonzero" fill="rgb(10.196078%, 10.196078%, 10.196078%)" fill-opacity="1" d="M 46.050781 31.570312 L 46.550781 31.59375 L 47.03125 31.660156 L 47.480469 31.769531 L 47.910156 31.921875 L 48.3125 32.121094 L 48.691406 32.363281 L 49.042969 32.648438 L 49.371094 32.980469 L 49.671875 33.351562 L 49.949219 33.769531 L 50.203125 34.226562 L 50.425781 34.722656 L 50.625 35.261719 L 50.796875 35.839844 L 50.941406 36.457031 L 51.0625 37.117188 L 51.15625 37.820312 L 51.222656 38.5625 L 51.261719 39.347656 L 51.273438 40.171875 L 51.261719 40.992188 L 51.21875 41.769531 L 51.152344 42.511719 L 51.058594 43.210938 L 50.9375 43.871094 L 50.789062 44.492188 L 50.613281 45.070312 L 50.410156 45.609375 L 50.179688 46.109375 L 49.925781 46.570312 L 49.648438 46.984375 L 49.34375 47.355469 L 49.019531 47.679688 L 48.667969 47.964844 L 48.292969 48.203125 L 47.894531 48.398438 L 47.46875 48.550781 L 47.019531 48.660156 L 46.546875 48.722656 L 46.050781 48.746094 L 45.546875 48.722656 L 45.070312 48.660156 L 44.617188 48.550781 L 44.191406 48.398438 L 43.785156 48.203125 L 43.410156 47.964844 L 43.058594 47.679688 L 42.730469 47.355469 L 42.425781 46.984375 L 42.148438 46.570312 L 41.898438 46.109375 L 41.671875 45.609375 L 41.472656 45.070312 L 41.300781 44.488281 L 41.15625 43.863281 L 41.035156 43.203125 L 40.945312 42.5 L 40.878906 41.753906 L 40.835938 40.972656 L 40.824219 40.144531 L 40.835938 39.320312 L 40.878906 38.539062 L 40.945312 37.796875 L 41.035156 37.09375 L 41.15625 36.433594 L 41.300781 35.8125 L 41.472656 35.234375 L 41.671875 34.699219 L 41.898438 34.203125 L 42.148438 33.746094 L 42.425781 33.332031 L 42.730469 32.964844 L 43.058594 32.636719 L 43.410156 32.355469 L 43.785156 32.113281 L 44.191406 31.917969 L 44.617188 31.765625 L 45.070312 31.65625 L 45.546875 31.59375 Z M 46.050781 32.769531 L 45.34375 32.84375 L 44.707031 33.066406 L 44.148438 33.433594 L 43.664062 33.949219 L 43.253906 34.613281 L 42.921875 35.425781 L 42.660156 36.386719 L 42.472656 37.492188 L 42.363281 38.746094 L 42.324219 40.144531 L 42.363281 41.550781 L 42.472656 42.808594 L 42.660156 43.921875 L 42.921875 44.882812 L 43.253906 45.695312 L 43.664062 46.363281 L 44.148438 46.878906 L 44.707031 47.25 L 45.34375 47.472656 L 46.050781 47.546875 L 46.40625 47.527344 L 46.742188 47.472656 L 47.0625 47.382812 L 47.367188 47.257812 L 47.648438 47.097656 L 47.914062 46.898438 L 48.164062 46.664062 L 48.394531 46.394531 L 48.605469 46.089844 L 48.800781 45.746094 L 48.980469 45.367188 L 49.140625 44.945312 L 49.285156 44.488281 L 49.40625 43.988281 L 49.511719 43.453125 L 49.597656 42.875 L 49.664062 42.257812 L 49.710938 41.601562 L 49.738281 40.90625 L 49.75 40.171875 L 49.738281 39.4375 L 49.710938 38.738281 L 49.664062 38.082031 L 49.597656 37.46875 L 49.511719 36.890625 L 49.40625 36.351562 L 49.285156 35.855469 L 49.140625 35.394531 L 48.980469 34.976562 L 48.800781 34.597656 L 48.605469 34.25 L 48.394531 33.9375 L 48.164062 33.664062 L 47.914062 33.429688 L 47.648438 33.226562 L 47.367188 33.0625 L 47.0625 32.933594 L 46.742188 32.84375 L 46.40625 32.789062 Z M 46.050781 32.769531 "/>
<path fill-rule="nonzero" fill="rgb(10.196078%, 10.196078%, 10.196078%)" fill-opacity="1" d="M 210.222656 348.226562 L 210.222656 346.976562 L 216.847656 346.976562 L 216.847656 348.226562 Z M 210.222656 348.226562 "/>
<path fill-rule="nonzero" fill="rgb(10.196078%, 10.196078%, 10.196078%)" fill-opacity="1" d="M 224.171875 338.527344 L 224.582031 338.539062 L 224.976562 338.574219 L 225.355469 338.636719 L 225.710938 338.722656 L 226.054688 338.832031 L 226.378906 338.964844 L 226.683594 339.125 L 226.972656 339.308594 L 227.242188 339.519531 L 227.496094 339.75 L 227.734375 340.003906 L 227.949219 340.269531 L 228.136719 340.546875 L 228.296875 340.84375 L 228.433594 341.152344 L 228.546875 341.472656 L 228.636719 341.808594 L 228.699219 342.160156 L 228.734375 342.523438 L 228.746094 342.902344 L 228.742188 343.222656 L 228.71875 343.542969 L 228.6875 343.859375 L 228.640625 344.167969 L 228.578125 344.476562 L 228.503906 344.777344 L 228.417969 345.078125 L 228.316406 345.371094 L 228.199219 345.664062 L 228.074219 345.949219 L 227.929688 346.238281 L 227.773438 346.53125 L 227.597656 346.832031 L 227.410156 347.132812 L 227.203125 347.445312 L 226.984375 347.757812 L 226.746094 348.082031 L 226.496094 348.40625 L 226.230469 348.738281 L 225.949219 349.074219 L 225.644531 349.433594 L 225.304688 349.824219 L 224.933594 350.246094 L 224.523438 350.703125 L 224.078125 351.195312 L 223.597656 351.71875 L 223.082031 352.277344 L 222.53125 352.867188 L 221.945312 353.492188 L 221.324219 354.152344 L 229.199219 354.152344 L 228.996094 355.425781 L 219.621094 355.425781 L 219.621094 354.199219 L 220.289062 353.488281 L 220.914062 352.816406 L 221.503906 352.179688 L 222.050781 351.585938 L 222.558594 351.027344 L 223.03125 350.503906 L 223.460938 350.019531 L 223.855469 349.578125 L 224.207031 349.167969 L 224.523438 348.800781 L 224.8125 348.449219 L 225.085938 348.109375 L 225.339844 347.78125 L 225.578125 347.460938 L 225.796875 347.152344 L 226 346.851562 L 226.179688 346.558594 L 226.347656 346.28125 L 226.492188 346.011719 L 226.621094 345.75 L 226.742188 345.488281 L 226.847656 345.222656 L 226.941406 344.953125 L 227.023438 344.683594 L 227.089844 344.40625 L 227.148438 344.128906 L 227.191406 343.84375 L 227.222656 343.558594 L 227.242188 343.269531 L 227.246094 342.976562 L 227.238281 342.6875 L 227.210938 342.410156 L 227.167969 342.144531 L 227.109375 341.890625 L 227.027344 341.652344 L 226.933594 341.421875 L 226.820312 341.203125 L 226.6875 341 L 226.539062 340.804688 L 226.371094 340.625 L 226.195312 340.460938 L 226.007812 340.308594 L 225.8125 340.179688 L 225.601562 340.066406 L 225.378906 339.96875 L 225.144531 339.890625 L 224.902344 339.828125 L 224.644531 339.785156 L 224.375 339.757812 L 224.097656 339.75 L 223.871094 339.753906 L 223.648438 339.769531 L 223.429688 339.792969 L 223.21875 339.828125 L 223.011719 339.871094 L 222.808594 339.921875 L 222.609375 339.984375 L 222.417969 340.054688 L 222.230469 340.136719 L 222.046875 340.226562 L 221.875 340.324219 L 221.699219 340.433594 L 221.527344 340.554688 L 221.359375 340.679688 L 221.191406 340.820312 L 221.023438 340.964844 L 220.859375 341.125 L 220.695312 341.289062 L 220.535156 341.464844 L 220.371094 341.652344 L 219.371094 340.902344 L 219.574219 340.660156 L 219.777344 340.4375 L 219.984375 340.222656 L 220.195312 340.023438 L 220.410156 339.839844 L 220.625 339.664062 L 220.847656 339.503906 L 221.070312 339.355469 L 221.292969 339.222656 L 221.523438 339.101562 L 221.761719 338.992188 L 222.003906 338.894531 L 222.253906 338.808594 L 222.511719 338.734375 L 222.773438 338.667969 L 223.039062 338.617188 L 223.316406 338.578125 L 223.59375 338.546875 L 223.878906 338.53125 Z M 224.171875 338.527344 "/>
<path fill-rule="nonzero" fill="rgb(10.196078%, 10.196078%, 10.196078%)" fill-opacity="1" d="M 397.066406 338.527344 L 397.566406 338.546875 L 398.042969 338.613281 L 398.496094 338.722656 L 398.925781 338.878906 L 399.328125 339.074219 L 399.703125 339.316406 L 400.058594 339.601562 L 400.382812 339.933594 L 400.6875 340.308594 L 400.964844 340.726562 L 401.214844 341.179688 L 401.441406 341.675781 L 401.640625 342.214844 L 401.8125 342.792969 L 401.957031 343.414062 L 402.078125 344.074219 L 402.171875 344.773438 L 402.238281 345.515625 L 402.277344 346.300781 L 402.289062 347.125 L 402.277344 347.945312 L 402.234375 348.726562 L 402.167969 349.464844 L 402.074219 350.164062 L 401.953125 350.824219 L 401.804688 351.445312 L 401.628906 352.027344 L 401.425781 352.566406 L 401.195312 353.066406 L 400.941406 353.527344 L 400.664062 353.9375 L 400.359375 354.308594 L 400.035156 354.632812 L 399.683594 354.917969 L 399.308594 355.15625 L 398.910156 355.351562 L 398.484375 355.503906 L 398.035156 355.613281 L 397.5625 355.679688 L 397.066406 355.699219 L 396.5625 355.679688 L 396.085938 355.613281 L 395.632812 355.503906 L 395.203125 355.351562 L 394.800781 355.15625 L 394.425781 354.917969 L 394.070312 354.632812 L 393.746094 354.308594 L 393.441406 353.9375 L 393.164062 353.527344 L 392.914062 353.066406 L 392.6875 352.5625 L 392.488281 352.023438 L 392.316406 351.441406 L 392.171875 350.820312 L 392.050781 350.15625 L 391.957031 349.453125 L 391.890625 348.710938 L 391.851562 347.925781 L 391.839844 347.101562 L 391.851562 346.277344 L 391.890625 345.492188 L 391.957031 344.75 L 392.050781 344.046875 L 392.171875 343.386719 L 392.316406 342.769531 L 392.488281 342.191406 L 392.6875 341.652344 L 392.914062 341.15625 L 393.164062 340.699219 L 393.441406 340.289062 L 393.746094 339.917969 L 394.070312 339.589844 L 394.425781 339.308594 L 394.800781 339.070312 L 395.203125 338.875 L 395.632812 338.722656 L 396.085938 338.613281 L 396.5625 338.546875 Z M 397.066406 339.726562 L 396.355469 339.800781 L 395.722656 340.019531 L 395.164062 340.390625 L 394.679688 340.90625 L 394.269531 341.570312 L 393.9375 342.378906 L 393.675781 343.339844 L 393.488281 344.445312 L 393.375 345.699219 L 393.339844 347.101562 L 393.375 348.507812 L 393.488281 349.765625 L 393.675781 350.875 L 393.9375 351.835938 L 394.269531 352.652344 L 394.679688 353.316406 L 395.164062 353.835938 L 395.722656 354.203125 L 396.355469 354.425781 L 397.066406 354.5 L 397.421875 354.484375 L 397.757812 354.429688 L 398.078125 354.339844 L 398.378906 354.210938 L 398.664062 354.050781 L 398.929688 353.851562 L 399.179688 353.617188 L 399.410156 353.347656 L 399.621094 353.042969 L 399.816406 352.699219 L 399.996094 352.320312 L 400.15625 351.902344 L 400.300781 351.441406 L 400.421875 350.945312 L 400.527344 350.40625 L 400.613281 349.828125 L 400.679688 349.210938 L 400.726562 348.554688 L 400.753906 347.859375 L 400.765625 347.125 L 400.753906 346.390625 L 400.726562 345.695312 L 400.679688 345.039062 L 400.613281 344.421875 L 400.527344 343.84375 L 400.421875 343.304688 L 400.300781 342.808594 L 400.15625 342.347656 L 399.996094 341.929688 L 399.816406 341.550781 L 399.621094 341.203125 L 399.410156 340.894531 L 399.179688 340.621094 L 398.929688 340.382812 L 398.664062 340.183594 L 398.378906 340.015625 L 398.078125 339.890625 L 397.757812 339.796875 L 397.421875 339.742188 Z M 397.066406 339.726562 "/>
<path fill-rule="nonzero" fill="rgb(10.196078%, 10.196078%, 10.196078%)" fill-opacity="1" d="M 574.242188 338.527344 L 574.65625 338.539062 L 575.050781 338.574219 L 575.425781 338.636719 L 575.785156 338.722656 L 576.125 338.832031 L 576.449219 338.964844 L 576.753906 339.125 L 577.042969 339.308594 L 577.316406 339.519531 L 577.570312 339.75 L 577.804688 340.003906 L 578.019531 340.269531 L 578.207031 340.546875 L 578.367188 340.84375 L 578.507812 341.152344 L 578.617188 341.472656 L 578.707031 341.808594 L 578.769531 342.160156 L 578.804688 342.523438 L 578.820312 342.902344 L 578.8125 343.222656 L 578.792969 343.542969 L 578.757812 343.859375 L 578.710938 344.167969 L 578.648438 344.476562 L 578.574219 344.777344 L 578.488281 345.078125 L 578.386719 345.371094 L 578.273438 345.664062 L 578.144531 345.949219 L 578 346.238281 L 577.84375 346.53125 L 577.667969 346.832031 L 577.480469 347.132812 L 577.273438 347.445312 L 577.054688 347.757812 L 576.820312 348.082031 L 576.566406 348.40625 L 576.300781 348.738281 L 576.019531 349.074219 L 575.714844 349.433594 L 575.378906 349.824219 L 575.003906 350.246094 L 574.59375 350.703125 L 574.148438 351.195312 L 573.671875 351.71875 L 573.15625 352.277344 L 572.601562 352.867188 L 572.015625 353.492188 L 571.394531 354.152344 L 579.269531 354.152344 L 579.070312 355.425781 L 569.695312 355.425781 L 569.695312 354.199219 L 570.359375 353.488281 L 570.984375 352.816406 L 571.574219 352.179688 L 572.121094 351.585938 L 572.632812 351.027344 L 573.101562 350.503906 L 573.535156 350.019531 L 573.925781 349.578125 L 574.28125 349.167969 L 574.59375 348.800781 L 574.886719 348.449219 L 575.15625 348.109375 L 575.414062 347.78125 L 575.648438 347.460938 L 575.867188 347.152344 L 576.070312 346.851562 L 576.253906 346.558594 L 576.417969 346.28125 L 576.566406 346.011719 L 576.695312 345.75 L 576.8125 345.488281 L 576.917969 345.222656 L 577.011719 344.953125 L 577.09375 344.683594 L 577.164062 344.40625 L 577.21875 344.128906 L 577.261719 343.84375 L 577.292969 343.558594 L 577.3125 343.269531 L 577.320312 342.976562 L 577.308594 342.6875 L 577.285156 342.410156 L 577.242188 342.144531 L 577.179688 341.890625 L 577.101562 341.652344 L 577.003906 341.421875 L 576.890625 341.203125 L 576.757812 341 L 576.609375 340.804688 L 576.445312 340.625 L 576.269531 340.460938 L 576.082031 340.308594 L 575.882812 340.179688 L 575.671875 340.066406 L 575.449219 339.96875 L 575.21875 339.890625 L 574.972656 339.828125 L 574.714844 339.785156 L 574.449219 339.757812 L 574.167969 339.75 L 573.941406 339.753906 L 573.71875 339.769531 L 573.5 339.792969 L 573.289062 339.828125 L 573.082031 339.871094 L 572.878906 339.921875 L 572.679688 339.984375 L 572.488281 340.054688 L 572.300781 340.136719 L 572.117188 340.226562 L 571.945312 340.324219 L 571.773438 340.433594 L 571.601562 340.554688 L 571.429688 340.679688 L 571.261719 340.820312 L 571.097656 340.964844 L 570.929688 341.125 L 570.765625 341.289062 L 570.605469 341.464844 L 570.445312 341.652344 L 569.445312 340.902344 L 569.644531 340.660156 L 569.851562 340.4375 L 570.058594 340.222656 L 570.269531 340.023438 L 570.480469 339.839844 L 570.699219 339.664062 L 570.917969 339.503906 L 571.140625 339.355469 L 571.367188 339.222656 L 571.59375 339.101562 L 571.832031 338.992188 L 572.074219 338.894531 L 572.324219 338.808594 L 572.582031 338.734375 L 572.84375 338.667969 L 573.113281 338.617188 L 573.386719 338.578125 L 573.667969 338.546875 L 573.953125 338.53125 Z M 574.242188 338.527344 "/>
<path fill-rule="nonzero" fill="rgb(10.196078%, 10.196078%, 10.196078%)" fill-opacity="1" d="M 757.75 349.851562 L 757.75 351.050781 L 755.5 351.050781 L 755.5 355.425781 L 754.074219 355.425781 L 754.074219 351.050781 L 746.796875 351.050781 L 746.796875 349.976562 L 751.875 338.527344 L 753.097656 339.027344 L 748.347656 349.851562 L 754.074219 349.851562 L 754.25 344.976562 L 755.5 344.976562 L 755.5 349.851562 Z M 757.75 349.851562 "/>
</svg>
