<?xml version="1.0" encoding="UTF-8"?>
<svg xmlns="http://www.w3.org/2000/svg" xmlns:xlink="http://www.w3.org/1999/xlink" width="792pt" height="432pt" viewBox="0 0 792 432">
<defs>
<clipPath id="clip-0">
<path clip-rule="nonzero" d="M 13.449219 86.472656 L 778.550781 86.472656 L 778.550781 384.195312 L 13.449219 384.195312 Z M 13.449219 86.472656 "/>
</clipPath>
<clipPath id="clip-1">
<path clip-rule="nonzero" d="M 13.449219 369 L 778.550781 369 L 778.550781 372 L 13.449219 372 Z M 13.449219 369 "/>
</clipPath>
<clipPath id="clip-2">
<path clip-rule="nonzero" d="M 13.449219 312 L 778.550781 312 L 778.550781 316 L 13.449219 316 Z M 13.449219 312 "/>
</clipPath>
<clipPath id="clip-3">
<path clip-rule="nonzero" d="M 13.449219 255 L 778.550781 255 L 778.550781 259 L 13.449219 259 Z M 13.449219 255 "/>
</clipPath>
<clipPath id="clip-4">
<path clip-rule="nonzero" d="M 13.449219 198 L 778.550781 198 L 778.550781 202 L 13.449219 202 Z M 13.449219 198 "/>
</clipPath>
<clipPath id="clip-5">
<path clip-rule="nonzero" d="M 13.449219 141 L 778.550781 141 L 778.550781 145 L 13.449219 145 Z M 13.449219 141 "/>
</clipPath>
<clipPath id="clip-6">
<path clip-rule="nonzero" d="M 109 86.472656 L 113 86.472656 L 113 384.195312 L 109 384.195312 Z M 109 86.472656 "/>
</clipPath>
<clipPath id="clip-7">
<path clip-rule="nonzero" d="M 303 86.472656 L 307 86.472656 L 307 384.195312 L 303 384.195312 Z M 303 86.472656 "/>
</clipPath>
<clipPath id="clip-8">
<path clip-rule="nonzero" d="M 497 86.472656 L 500 86.472656 L 500 384.195312 L 497 384.195312 Z M 497 86.472656 "/>
</clipPath>
<clipPath id="clip-9">
<path clip-rule="nonzero" d="M 690 86.472656 L 694 86.472656 L 694 384.195312 L 690 384.195312 Z M 690 86.472656 "/>
</clipPath>
</defs>
<rect x="-79.2" y="-43.2" width="950.4" height="518.4" fill="rgb(100%, 100%, 100%)" fill-opacity="1"/>
<rect x="-79.2" y="-43.2" width="950.4" height="518.4" fill="rgb(95.294118%, 95.294118%, 95.294118%)" fill-opacity="1"/>
<path fill="none" stroke-width="2.618947" stroke-linecap="round" stroke-linejoin="round" stroke="rgb(95.294118%, 95.294118%, 95.294118%)" stroke-opacity="1" stroke-miterlimit="10" d="M 0 432 L 792 432 L 792 0 L 0 0 Z M 0 432 "/>
<g clip-path="url(#clip-0)">
<path fill-rule="nonzero" fill="rgb(95.294118%, 95.294118%, 95.294118%)" fill-opacity="1" stroke-width="2.618947" stroke-linecap="round" stroke-linejoin="round" stroke="rgb(95.294118%, 95.294118%, 95.294118%)" stroke-opacity="1" stroke-miterlimit="10" d="M 13.449219 384.195312 L 778.550781 384.195312 L 778.550781 86.472656 L 13.449219 86.472656 Z M 13.449219 384.195312 "/>
</g>
<g clip-path="url(#clip-1)">
<path fill="none" stroke-width="2.618947" stroke-linecap="butt" stroke-linejoin="round" stroke="rgb(92.156863%, 92.156863%, 92.156863%)" stroke-opacity="1" stroke-miterlimit="10" d="M 13.449219 370.664062 L 778.550781 370.664062 "/>
</g>
<g clip-path="url(#clip-2)">
<path fill="none" stroke-width="2.618947" stroke-linecap="butt" stroke-linejoin="round" stroke="rgb(92.156863%, 92.156863%, 92.156863%)" stroke-opacity="1" stroke-miterlimit="10" d="M 13.449219 313.800781 L 778.550781 313.800781 "/>
</g>
<g clip-path="url(#clip-3)">
<path fill="none" stroke-width="2.618947" stroke-linecap="butt" stroke-linejoin="round" stroke="rgb(92.156863%, 92.156863%, 92.156863%)" stroke-opacity="1" stroke-miterlimit="10" d="M 13.449219 256.941406 L 778.550781 256.941406 "/>
</g>
<g clip-path="url(#clip-4)">
<path fill="none" stroke-width="2.618947" stroke-linecap="butt" stroke-linejoin="round" stroke="rgb(92.156863%, 92.156863%, 92.156863%)" stroke-opacity="1" stroke-miterlimit="10" d="M 13.449219 200.078125 L 778.550781 200.078125 "/>
</g>
<g clip-path="url(#clip-5)">
<path fill="none" stroke-width="2.618947" stroke-linecap="butt" stroke-linejoin="round" stroke="rgb(92.156863%, 92.156863%, 92.156863%)" stroke-opacity="1" stroke-miterlimit="10" d="M 13.449219 143.21875 L 778.550781 143.21875 "/>
</g>
<g clip-path="url(#clip-6)">
<path fill="none" stroke-width="2.618947" stroke-linecap="butt" stroke-linejoin="round" stroke="rgb(92.156863%, 92.156863%, 92.156863%)" stroke-opacity="1" stroke-miterlimit="10" d="M 111.246094 384.195312 L 111.246094 86.472656 "/>
</g>
<g clip-path="url(#clip-7)">
<path fill="none" stroke-width="2.618947" stroke-linecap="butt" stroke-linejoin="round" stroke="rgb(92.156863%, 92.156863%, 92.156863%)" stroke-opacity="1" stroke-miterlimit="10" d="M 304.789062 384.195312 L 304.789062 86.472656 "/>
</g>
<g clip-path="url(#clip-8)">
<path fill="none" stroke-width="2.618947" stroke-linecap="butt" stroke-linejoin="round" stroke="rgb(92.156863%, 92.156863%, 92.156863%)" stroke-opacity="1" stroke-miterlimit="10" d="M 498.335938 384.195312 L 498.335938 86.472656 "/>
</g>
<g clip-path="url(#clip-9)">
<path fill="none" stroke-width="2.618947" stroke-linecap="butt" stroke-linejoin="round" stroke="rgb(92.156863%, 92.156863%, 92.156863%)" stroke-opacity="1" stroke-miterlimit="10" d="M 691.878906 384.195312 L 691.878906 86.472656 "/>
</g>
<path fill-rule="nonzero" fill="rgb(56.078431%, 16.470588%, 26.27451%)" fill-opacity="0.698039" d="M 48.226562 370.664062 L 71.410156 370.664062 L 71.410156 368.390625 L 48.226562 368.390625 Z M 48.226562 370.664062 "/>
<path fill-rule="nonzero" fill="rgb(56.078431%, 16.470588%, 26.27451%)" fill-opacity="0.698039" d="M 71.410156 370.664062 L 94.59375 370.664062 L 94.59375 368.390625 L 71.410156 368.390625 Z M 71.410156 370.664062 "/>
<path fill-rule="nonzero" fill="rgb(56.078431%, 16.470588%, 26.27451%)" fill-opacity="0.698039" d="M 94.597656 370.664062 L 117.78125 370.664062 L 117.78125 369.527344 L 94.597656 369.527344 Z M 94.597656 370.664062 "/>
<path fill-rule="nonzero" fill="rgb(56.078431%, 16.470588%, 26.27451%)" fill-opacity="0.698039" d="M 140.964844 370.664062 L 164.148438 370.664062 L 164.148438 369.527344 L 140.964844 369.527344 Z M 140.964844 370.664062 "/>
<path fill-rule="nonzero" fill="rgb(56.078431%, 16.470588%, 26.27451%)" fill-opacity="0.698039" d="M 187.335938 370.664062 L 210.519531 370.664062 L 210.519531 364.976562 L 187.335938 364.976562 Z M 187.335938 370.664062 "/>
<path fill-rule="nonzero" fill="rgb(56.078431%, 16.470588%, 26.27451%)" fill-opacity="0.698039" d="M 210.519531 370.664062 L 233.703125 370.664062 L 233.703125 369.527344 L 210.519531 369.527344 Z M 210.519531 370.664062 "/>
<path fill-rule="nonzero" fill="rgb(56.078431%, 16.470588%, 26.27451%)" fill-opacity="0.698039" d="M 233.707031 370.664062 L 256.890625 370.664062 L 256.890625 363.839844 L 233.707031 363.839844 Z M 233.707031 370.664062 "/>
<path fill-rule="nonzero" fill="rgb(56.078431%, 16.470588%, 26.27451%)" fill-opacity="0.698039" d="M 256.890625 370.664062 L 280.074219 370.664062 L 280.074219 362.703125 L 256.890625 362.703125 Z M 256.890625 370.664062 "/>
<path fill-rule="nonzero" fill="rgb(56.078431%, 16.470588%, 26.27451%)" fill-opacity="0.698039" d="M 280.074219 370.664062 L 303.257812 370.664062 L 303.257812 349.058594 L 280.074219 349.058594 Z M 280.074219 370.664062 "/>
<path fill-rule="nonzero" fill="rgb(56.078431%, 16.470588%, 26.27451%)" fill-opacity="0.698039" d="M 303.261719 370.664062 L 326.445312 370.664062 L 326.445312 303.566406 L 303.261719 303.566406 Z M 303.261719 370.664062 "/>
<path fill-rule="nonzero" fill="rgb(56.078431%, 16.470588%, 26.27451%)" fill-opacity="0.698039" d="M 326.445312 370.664062 L 349.628906 370.664062 L 349.628906 254.667969 L 326.445312 254.667969 Z M 326.445312 370.664062 "/>
<path fill-rule="nonzero" fill="rgb(56.078431%, 16.470588%, 26.27451%)" fill-opacity="0.698039" d="M 349.628906 370.664062 L 372.8125 370.664062 L 372.8125 181.886719 L 349.628906 181.886719 Z M 349.628906 370.664062 "/>
<path fill-rule="nonzero" fill="rgb(56.078431%, 16.470588%, 26.27451%)" fill-opacity="0.698039" d="M 372.816406 370.664062 L 396 370.664062 L 396 100.007812 L 372.816406 100.007812 Z M 372.816406 370.664062 "/>
<path fill-rule="nonzero" fill="rgb(56.078431%, 16.470588%, 26.27451%)" fill-opacity="0.698039" d="M 396 370.664062 L 419.183594 370.664062 L 419.183594 177.335938 L 396 177.335938 Z M 396 370.664062 "/>
<path fill-rule="nonzero" fill="rgb(56.078431%, 16.470588%, 26.27451%)" fill-opacity="0.698039" d="M 419.183594 370.664062 L 442.367188 370.664062 L 442.367188 252.394531 L 419.183594 252.394531 Z M 419.183594 370.664062 "/>
<path fill-rule="nonzero" fill="rgb(56.078431%, 16.470588%, 26.27451%)" fill-opacity="0.698039" d="M 442.371094 370.664062 L 465.554688 370.664062 L 465.554688 306.980469 L 442.371094 306.980469 Z M 442.371094 370.664062 "/>
<path fill-rule="nonzero" fill="rgb(56.078431%, 16.470588%, 26.27451%)" fill-opacity="0.698039" d="M 465.554688 370.664062 L 488.738281 370.664062 L 488.738281 342.234375 L 465.554688 342.234375 Z M 465.554688 370.664062 "/>
<path fill-rule="nonzero" fill="rgb(56.078431%, 16.470588%, 26.27451%)" fill-opacity="0.698039" d="M 488.738281 370.664062 L 511.921875 370.664062 L 511.921875 354.742188 L 488.738281 354.742188 Z M 488.738281 370.664062 "/>
<path fill-rule="nonzero" fill="rgb(56.078431%, 16.470588%, 26.27451%)" fill-opacity="0.698039" d="M 511.925781 370.664062 L 535.109375 370.664062 L 535.109375 360.429688 L 511.925781 360.429688 Z M 511.925781 370.664062 "/>
<path fill-rule="nonzero" fill="rgb(56.078431%, 16.470588%, 26.27451%)" fill-opacity="0.698039" d="M 535.109375 370.664062 L 558.292969 370.664062 L 558.292969 364.976562 L 535.109375 364.976562 Z M 535.109375 370.664062 "/>
<path fill-rule="nonzero" fill="rgb(56.078431%, 16.470588%, 26.27451%)" fill-opacity="0.698039" d="M 558.292969 370.664062 L 581.476562 370.664062 L 581.476562 367.253906 L 558.292969 367.253906 Z M 558.292969 370.664062 "/>
<path fill-rule="nonzero" fill="rgb(56.078431%, 16.470588%, 26.27451%)" fill-opacity="0.698039" d="M 581.480469 370.664062 L 604.664062 370.664062 L 604.664062 368.390625 L 581.480469 368.390625 Z M 581.480469 370.664062 "/>
<path fill-rule="nonzero" fill="rgb(56.078431%, 16.470588%, 26.27451%)" fill-opacity="0.698039" d="M 627.847656 370.664062 L 651.03125 370.664062 L 651.03125 369.527344 L 627.847656 369.527344 Z M 627.847656 370.664062 "/>
<path fill-rule="nonzero" fill="rgb(56.078431%, 16.470588%, 26.27451%)" fill-opacity="0.698039" d="M 697.402344 370.664062 L 720.585938 370.664062 L 720.585938 369.527344 L 697.402344 369.527344 Z M 697.402344 370.664062 "/>
<path fill-rule="nonzero" fill="rgb(56.078431%, 16.470588%, 26.27451%)" fill-opacity="0.698039" d="M 720.589844 370.664062 L 743.773438 370.664062 L 743.773438 369.527344 L 720.589844 369.527344 Z M 720.589844 370.664062 "/>
<path fill-rule="nonzero" fill="rgb(16.470588%, 56.078431%, 46.27451%)" fill-opacity="0.698039" d="M 71.410156 370.664062 L 94.59375 370.664062 L 94.59375 367.253906 L 71.410156 367.253906 Z M 71.410156 370.664062 "/>
<path fill-rule="nonzero" fill="rgb(16.470588%, 56.078431%, 46.27451%)" fill-opacity="0.698039" d="M 94.597656 370.664062 L 117.78125 370.664062 L 117.78125 366.113281 L 94.597656 366.113281 Z M 94.597656 370.664062 "/>
<path fill-rule="nonzero" fill="rgb(16.470588%, 56.078431%, 46.27451%)" fill-opacity="0.698039" d="M 117.78125 370.664062 L 140.964844 370.664062 L 140.964844 359.292969 L 117.78125 359.292969 Z M 117.78125 370.664062 "/>
<path fill-rule="nonzero" fill="rgb(16.470588%, 56.078431%, 46.27451%)" fill-opacity="0.698039" d="M 140.964844 370.664062 L 164.148438 370.664062 L 164.148438 352.46875 L 140.964844 352.46875 Z M 140.964844 370.664062 "/>
<path fill-rule="nonzero" fill="rgb(16.470588%, 56.078431%, 46.27451%)" fill-opacity="0.698039" d="M 164.152344 370.664062 L 187.335938 370.664062 L 187.335938 347.917969 L 164.152344 347.917969 Z M 164.152344 370.664062 "/>
<path fill-rule="nonzero" fill="rgb(16.470588%, 56.078431%, 46.27451%)" fill-opacity="0.698039" d="M 187.335938 370.664062 L 210.519531 370.664062 L 210.519531 343.371094 L 187.335938 343.371094 Z M 187.335938 370.664062 "/>
<path fill-rule="nonzero" fill="rgb(16.470588%, 56.078431%, 46.27451%)" fill-opacity="0.698039" d="M 210.519531 370.664062 L 233.703125 370.664062 L 233.703125 316.078125 L 210.519531 316.078125 Z M 210.519531 370.664062 "/>
<path fill-rule="nonzero" fill="rgb(16.470588%, 56.078431%, 46.27451%)" fill-opacity="0.698039" d="M 233.707031 370.664062 L 256.890625 370.664062 L 256.890625 299.019531 L 233.707031 299.019531 Z M 233.707031 370.664062 "/>
<path fill-rule="nonzero" fill="rgb(16.470588%, 56.078431%, 46.27451%)" fill-opacity="0.698039" d="M 256.890625 370.664062 L 280.074219 370.664062 L 280.074219 302.429688 L 256.890625 302.429688 Z M 256.890625 370.664062 "/>
<path fill-rule="nonzero" fill="rgb(16.470588%, 56.078431%, 46.27451%)" fill-opacity="0.698039" d="M 280.074219 370.664062 L 303.257812 370.664062 L 303.257812 278.550781 L 280.074219 278.550781 Z M 280.074219 370.664062 "/>
<path fill-rule="nonzero" fill="rgb(16.470588%, 56.078431%, 46.27451%)" fill-opacity="0.698039" d="M 303.261719 370.664062 L 326.445312 370.664062 L 326.445312 255.804688 L 303.261719 255.804688 Z M 303.261719 370.664062 "/>
<path fill-rule="nonzero" fill="rgb(16.470588%, 56.078431%, 46.27451%)" fill-opacity="0.698039" d="M 326.445312 370.664062 L 349.628906 370.664062 L 349.628906 272.863281 L 326.445312 272.863281 Z M 326.445312 370.664062 "/>
<path fill-rule="nonzero" fill="rgb(16.470588%, 56.078431%, 46.27451%)" fill-opacity="0.698039" d="M 349.628906 370.664062 L 372.8125 370.664062 L 372.8125 256.941406 L 349.628906 256.941406 Z M 349.628906 370.664062 "/>
<path fill-rule="nonzero" fill="rgb(16.470588%, 56.078431%, 46.27451%)" fill-opacity="0.698039" d="M 372.816406 370.664062 L 396 370.664062 L 396 251.257812 L 372.816406 251.257812 Z M 372.816406 370.664062 "/>
<path fill-rule="nonzero" fill="rgb(16.470588%, 56.078431%, 46.27451%)" fill-opacity="0.698039" d="M 396 370.664062 L 419.183594 370.664062 L 419.183594 275.136719 L 396 275.136719 Z M 396 370.664062 "/>
<path fill-rule="nonzero" fill="rgb(16.470588%, 56.078431%, 46.27451%)" fill-opacity="0.698039" d="M 419.183594 370.664062 L 442.367188 370.664062 L 442.367188 296.746094 L 419.183594 296.746094 Z M 419.183594 370.664062 "/>
<path fill-rule="nonzero" fill="rgb(16.470588%, 56.078431%, 46.27451%)" fill-opacity="0.698039" d="M 442.371094 370.664062 L 465.554688 370.664062 L 465.554688 322.902344 L 442.371094 322.902344 Z M 442.371094 370.664062 "/>
<path fill-rule="nonzero" fill="rgb(16.470588%, 56.078431%, 46.27451%)" fill-opacity="0.698039" d="M 465.554688 370.664062 L 488.738281 370.664062 L 488.738281 335.410156 L 465.554688 335.410156 Z M 465.554688 370.664062 "/>
<path fill-rule="nonzero" fill="rgb(16.470588%, 56.078431%, 46.27451%)" fill-opacity="0.698039" d="M 488.738281 370.664062 L 511.921875 370.664062 L 511.921875 347.917969 L 488.738281 347.917969 Z M 488.738281 370.664062 "/>
<path fill-rule="nonzero" fill="rgb(16.470588%, 56.078431%, 46.27451%)" fill-opacity="0.698039" d="M 511.925781 370.664062 L 535.109375 370.664062 L 535.109375 347.917969 L 511.925781 347.917969 Z M 511.925781 370.664062 "/>
<path fill-rule="nonzero" fill="rgb(16.470588%, 56.078431%, 46.27451%)" fill-opacity="0.698039" d="M 535.109375 370.664062 L 558.292969 370.664062 L 558.292969 362.703125 L 535.109375 362.703125 Z M 535.109375 370.664062 "/>
<path fill-rule="nonzero" fill="rgb(16.470588%, 56.078431%, 46.27451%)" fill-opacity="0.698039" d="M 558.292969 370.664062 L 581.476562 370.664062 L 581.476562 362.703125 L 558.292969 362.703125 Z M 558.292969 370.664062 "/>
<path fill-rule="nonzero" fill="rgb(16.470588%, 56.078431%, 46.27451%)" fill-opacity="0.698039" d="M 581.480469 370.664062 L 604.664062 370.664062 L 604.664062 368.390625 L 581.480469 368.390625 Z M 581.480469 370.664062 "/>
<path fill-rule="nonzero" fill="rgb(16.470588%, 56.078431%, 46.27451%)" fill-opacity="0.698039" d="M 604.664062 370.664062 L 627.847656 370.664062 L 627.847656 369.527344 L 604.664062 369.527344 Z M 604.664062 370.664062 "/>
<path fill-rule="nonzero" fill="rgb(10.196078%, 10.196078%, 10.196078%)" fill-opacity="1" d="M 111.246094 396.527344 L 111.746094 396.546875 L 112.226562 396.613281 L 112.675781 396.722656 L 113.105469 396.878906 L 113.507812 397.074219 L 113.886719 397.316406 L 114.238281 397.601562 L 114.566406 397.933594 L 114.867188 398.308594 L 115.144531 398.726562 L 115.398438 399.179688 L 115.621094 399.675781 L 115.820312 400.214844 L 115.992188 400.792969 L 116.136719 401.414062 L 116.257812 402.074219 L 116.351562 402.773438 L 116.417969 403.515625 L 116.457031 404.300781 L 116.46875 405.125 L 116.457031 405.945312 L 116.414062 406.726562 L 116.347656 407.464844 L 116.253906 408.164062 L 116.132812 408.824219 L 115.984375 409.445312 L 115.808594 410.027344 L 115.605469 410.566406 L 115.375 411.066406 L 115.121094 411.527344 L 114.84375 411.9375 L 114.539062 412.308594 L 114.214844 412.632812 L 113.863281 412.917969 L 113.488281 413.15625 L 113.089844 413.351562 L 112.664062 413.503906 L 112.214844 413.613281 L 111.742188 413.679688 L 111.246094 413.699219 L 110.742188 413.679688 L 110.265625 413.613281 L 109.8125 413.503906 L 109.386719 413.351562 L 108.980469 413.15625 L 108.605469 412.917969 L 108.253906 412.632812 L 107.925781 412.308594 L 107.621094 411.9375 L 107.34375 411.527344 L 107.09375 411.066406 L 106.867188 410.5625 L 106.667969 410.023438 L 106.496094 409.441406 L 106.351562 408.820312 L 106.230469 408.15625 L 106.140625 407.453125 L 106.074219 406.710938 L 106.03125 405.925781 L 106.019531 405.101562 L 106.03125 404.277344 L 106.074219 403.492188 L 106.140625 402.75 L 106.230469 402.046875 L 106.351562 401.386719 L 106.496094 400.769531 L 106.667969 400.191406 L 106.867188 399.652344 L 107.09375 399.15625 L 107.34375 398.699219 L 107.621094 398.289062 L 107.925781 397.917969 L 108.253906 397.589844 L 108.605469 397.308594 L 108.980469 397.070312 L 109.386719 396.875 L 109.8125 396.722656 L 110.265625 396.613281 L 110.742188 396.546875 Z M 111.246094 397.726562 L 110.539062 397.800781 L 109.902344 398.019531 L 109.34375 398.390625 L 108.859375 398.90625 L 108.449219 399.570312 L 108.117188 400.378906 L 107.855469 401.339844 L 107.667969 402.445312 L 107.558594 403.699219 L 107.519531 405.101562 L 107.558594 406.507812 L 107.667969 407.765625 L 107.855469 408.875 L 108.117188 409.835938 L 108.449219 410.652344 L 108.859375 411.316406 L 109.34375 411.835938 L 109.902344 412.203125 L 110.539062 412.425781 L 111.246094 412.5 L 111.601562 412.484375 L 111.9375 412.429688 L 112.257812 412.339844 L 112.5625 412.210938 L 112.84375 412.050781 L 113.109375 411.851562 L 113.359375 411.617188 L 113.589844 411.347656 L 113.800781 411.042969 L 113.996094 410.699219 L 114.175781 410.320312 L 114.335938 409.902344 L 114.480469 409.441406 L 114.601562 408.945312 L 114.707031 408.40625 L 114.792969 407.828125 L 114.859375 407.210938 L 114.90625 406.554688 L 114.933594 405.859375 L 114.945312 405.125 L 114.933594 404.390625 L 114.90625 403.695312 L 114.859375 403.039062 L 114.792969 402.421875 L 114.707031 401.84375 L 114.601562 401.304688 L 114.480469 400.808594 L 114.335938 400.347656 L 114.175781 399.929688 L 113.996094 399.550781 L 113.800781 399.203125 L 113.589844 398.894531 L 113.359375 398.621094 L 113.109375 398.382812 L 112.84375 398.183594 L 112.5625 398.015625 L 112.257812 397.890625 L 111.9375 397.796875 L 111.601562 397.742188 Z M 111.246094 397.726562 "/>
<path fill-rule="nonzero" fill="rgb(10.196078%, 10.196078%, 10.196078%)" fill-opacity="1" d="M 308.828125 398 L 302.078125 398 L 302.078125 403.675781 L 302.351562 403.527344 L 302.632812 403.394531 L 302.910156 403.28125 L 303.191406 403.179688 L 303.476562 403.09375 L 303.761719 403.023438 L 304.050781 402.96875 L 304.339844 402.929688 L 304.632812 402.90625 L 304.925781 402.902344 L 305.347656 402.914062 L 305.75 402.957031 L 306.136719 403.027344 L 306.503906 403.125 L 306.851562 403.25 L 307.183594 403.40625 L 307.496094 403.585938 L 307.792969 403.796875 L 308.066406 404.035156 L 308.328125 404.300781 L 308.570312 404.585938 L 308.785156 404.890625 L 308.976562 405.21875 L 309.144531 405.5625 L 309.285156 405.933594 L 309.398438 406.320312 L 309.488281 406.726562 L 309.550781 407.15625 L 309.589844 407.605469 L 309.601562 408.074219 L 309.59375 408.398438 L 309.574219 408.710938 L 309.542969 409.019531 L 309.496094 409.324219 L 309.433594 409.621094 L 309.359375 409.910156 L 309.269531 410.191406 L 309.171875 410.46875 L 309.054688 410.738281 L 308.925781 411 L 308.792969 411.25 L 308.644531 411.488281 L 308.484375 411.714844 L 308.316406 411.933594 L 308.132812 412.136719 L 307.941406 412.332031 L 307.734375 412.515625 L 307.519531 412.6875 L 307.292969 412.851562 L 307.050781 413 L 306.808594 413.132812 L 306.554688 413.253906 L 306.296875 413.359375 L 306.027344 413.449219 L 305.753906 413.527344 L 305.46875 413.589844 L 305.175781 413.636719 L 304.875 413.671875 L 304.566406 413.695312 L 304.253906 413.699219 L 303.707031 413.679688 L 303.175781 413.621094 L 302.664062 413.519531 L 302.167969 413.378906 L 301.691406 413.199219 L 301.226562 412.980469 L 300.785156 412.71875 L 300.355469 412.421875 L 299.945312 412.082031 L 299.550781 411.699219 L 300.453125 410.824219 L 300.613281 410.992188 L 300.777344 411.148438 L 300.941406 411.296875 L 301.109375 411.433594 L 301.277344 411.5625 L 301.449219 411.683594 L 301.621094 411.796875 L 301.796875 411.898438 L 301.972656 411.992188 L 302.152344 412.074219 L 302.335938 412.152344 L 302.523438 412.21875 L 302.71875 412.28125 L 302.921875 412.332031 L 303.128906 412.375 L 303.339844 412.410156 L 303.558594 412.4375 L 303.785156 412.460938 L 304.015625 412.472656 L 304.253906 412.476562 L 304.601562 412.464844 L 304.933594 412.429688 L 305.25 412.371094 L 305.550781 412.289062 L 305.839844 412.183594 L 306.113281 412.050781 L 306.371094 411.898438 L 306.613281 411.722656 L 306.839844 411.523438 L 307.050781 411.300781 L 307.246094 411.050781 L 307.421875 410.785156 L 307.574219 410.503906 L 307.707031 410.203125 L 307.820312 409.886719 L 307.914062 409.554688 L 307.984375 409.203125 L 308.035156 408.835938 L 308.066406 408.453125 L 308.078125 408.050781 L 308.066406 407.660156 L 308.039062 407.292969 L 307.992188 406.941406 L 307.925781 406.613281 L 307.839844 406.308594 L 307.734375 406.019531 L 307.613281 405.753906 L 307.46875 405.507812 L 307.308594 405.28125 L 307.128906 405.074219 L 306.933594 404.886719 L 306.730469 404.714844 L 306.511719 404.566406 L 306.277344 404.433594 L 306.035156 404.324219 L 305.773438 404.234375 L 305.5 404.164062 L 305.214844 404.117188 L 304.914062 404.085938 L 304.601562 404.074219 L 304.289062 404.082031 L 304.136719 404.09375 L 303.988281 404.109375 L 303.847656 404.125 L 303.566406 404.171875 L 303.433594 404.203125 L 303.304688 404.238281 L 303.175781 404.277344 L 303.054688 404.3125 L 302.929688 404.355469 L 302.804688 404.402344 L 302.539062 404.511719 L 302.402344 404.574219 L 302.121094 404.714844 L 301.976562 404.792969 L 301.828125 404.875 L 300.675781 404.875 L 300.675781 396.800781 L 309.050781 396.800781 Z M 308.828125 398 "/>
<path fill-rule="nonzero" fill="rgb(10.196078%, 10.196078%, 10.196078%)" fill-opacity="1" d="M 493.597656 396.800781 L 493.597656 413.425781 L 492.148438 413.425781 L 492.148438 398.402344 L 488.046875 400.949219 L 487.371094 399.875 L 492.347656 396.800781 Z M 493.597656 396.800781 "/>
<path fill-rule="nonzero" fill="rgb(10.196078%, 10.196078%, 10.196078%)" fill-opacity="1" d="M 503.496094 396.527344 L 504 396.546875 L 504.476562 396.613281 L 504.929688 396.722656 L 505.355469 396.878906 L 505.757812 397.074219 L 506.136719 397.316406 L 506.488281 397.601562 L 506.816406 397.933594 L 507.121094 398.308594 L 507.398438 398.726562 L 507.648438 399.179688 L 507.875 399.675781 L 508.074219 400.214844 L 508.246094 400.792969 L 508.390625 401.414062 L 508.511719 402.074219 L 508.601562 402.773438 L 508.667969 403.515625 L 508.707031 404.300781 L 508.722656 405.125 L 508.707031 405.945312 L 508.667969 406.726562 L 508.601562 407.464844 L 508.507812 408.164062 L 508.382812 408.824219 L 508.234375 409.445312 L 508.058594 410.027344 L 507.859375 410.566406 L 507.628906 411.066406 L 507.371094 411.527344 L 507.09375 411.9375 L 506.792969 412.308594 L 506.464844 412.632812 L 506.117188 412.917969 L 505.742188 413.15625 L 505.339844 413.351562 L 504.917969 413.503906 L 504.46875 413.613281 L 503.996094 413.679688 L 503.496094 413.699219 L 502.996094 413.679688 L 502.515625 413.613281 L 502.0625 413.503906 L 501.636719 413.351562 L 501.234375 413.15625 L 500.855469 412.917969 L 500.503906 412.632812 L 500.175781 412.308594 L 499.875 411.9375 L 499.597656 411.527344 L 499.34375 411.066406 L 499.121094 410.5625 L 498.921875 410.023438 L 498.75 409.441406 L 498.601562 408.820312 L 498.484375 408.15625 L 498.390625 407.453125 L 498.324219 406.710938 L 498.285156 405.925781 L 498.273438 405.101562 L 498.285156 404.277344 L 498.324219 403.492188 L 498.390625 402.75 L 498.484375 402.046875 L 498.601562 401.386719 L 498.75 400.769531 L 498.921875 400.191406 L 499.121094 399.652344 L 499.34375 399.15625 L 499.597656 398.699219 L 499.875 398.289062 L 500.175781 397.917969 L 500.503906 397.589844 L 500.855469 397.308594 L 501.234375 397.070312 L 501.636719 396.875 L 502.0625 396.722656 L 502.515625 396.613281 L 502.996094 396.546875 Z M 503.496094 397.726562 L 502.789062 397.800781 L 502.15625 398.019531 L 501.597656 398.390625 L 501.113281 398.90625 L 500.703125 399.570312 L 500.367188 400.378906 L 500.105469 401.339844 L 499.921875 402.445312 L 499.808594 403.699219 L 499.773438 405.101562 L 499.808594 406.507812 L 499.921875 407.765625 L 500.105469 408.875 L 500.367188 409.835938 L 500.703125 410.652344 L 501.113281 411.316406 L 501.597656 411.835938 L 502.15625 412.203125 L 502.789062 412.425781 L 503.496094 412.5 L 503.851562 412.484375 L 504.191406 412.429688 L 504.511719 412.339844 L 504.8125 412.210938 L 505.097656 412.050781 L 505.363281 411.851562 L 505.609375 411.617188 L 505.839844 411.347656 L 506.054688 411.042969 L 506.246094 410.699219 L 506.425781 410.320312 L 506.589844 409.902344 L 506.730469 409.441406 L 506.855469 408.945312 L 506.960938 408.40625 L 507.046875 407.828125 L 507.113281 407.210938 L 507.160156 406.554688 L 507.1875 405.859375 L 507.195312 405.125 L 507.1875 404.390625 L 507.160156 403.695312 L 507.113281 403.039062 L 507.046875 402.421875 L 506.960938 401.84375 L 506.855469 401.304688 L 506.730469 400.808594 L 506.589844 400.347656 L 506.425781 399.929688 L 506.246094 399.550781 L 506.054688 399.203125 L 505.839844 398.894531 L 505.609375 398.621094 L 505.363281 398.382812 L 505.097656 398.183594 L 504.8125 398.015625 L 504.511719 397.890625 L 504.191406 397.796875 L 503.851562 397.742188 Z M 503.496094 397.726562 "/>
<path fill-rule="nonzero" fill="rgb(10.196078%, 10.196078%, 10.196078%)" fill-opacity="1" d="M 687.929688 396.800781 L 687.929688 413.425781 L 686.480469 413.425781 L 686.480469 398.402344 L 682.378906 400.949219 L 681.703125 399.875 L 686.679688 396.800781 Z M 687.929688 396.800781 "/>
<path fill-rule="nonzero" fill="rgb(10.196078%, 10.196078%, 10.196078%)" fill-opacity="1" d="M 701.078125 398 L 694.328125 398 L 694.328125 403.675781 L 694.605469 403.527344 L 694.882812 403.394531 L 695.164062 403.28125 L 695.445312 403.179688 L 695.730469 403.09375 L 696.015625 403.023438 L 696.304688 402.96875 L 696.59375 402.929688 L 696.886719 402.90625 L 697.179688 402.902344 L 697.601562 402.914062 L 698.003906 402.957031 L 698.386719 403.027344 L 698.753906 403.125 L 699.105469 403.25 L 699.433594 403.40625 L 699.75 403.585938 L 700.042969 403.796875 L 700.320312 404.035156 L 700.578125 404.300781 L 700.820312 404.585938 L 701.039062 404.890625 L 701.230469 405.21875 L 701.394531 405.5625 L 701.535156 405.933594 L 701.648438 406.320312 L 701.738281 406.726562 L 701.804688 407.15625 L 701.839844 407.605469 L 701.855469 408.074219 L 701.847656 408.398438 L 701.828125 408.710938 L 701.792969 409.019531 L 701.746094 409.324219 L 701.683594 409.621094 L 701.609375 409.910156 L 701.523438 410.191406 L 701.421875 410.46875 L 701.308594 410.738281 L 701.179688 411 L 701.042969 411.25 L 700.894531 411.488281 L 700.738281 411.714844 L 700.566406 411.933594 L 700.386719 412.136719 L 700.191406 412.332031 L 699.988281 412.515625 L 699.769531 412.6875 L 699.542969 412.851562 L 699.304688 413 L 699.058594 413.132812 L 698.808594 413.253906 L 698.546875 413.359375 L 698.28125 413.449219 L 698.003906 413.527344 L 697.71875 413.589844 L 697.429688 413.636719 L 697.128906 413.671875 L 696.820312 413.695312 L 696.503906 413.699219 L 695.957031 413.679688 L 695.429688 413.621094 L 694.914062 413.519531 L 694.421875 413.378906 L 693.941406 413.199219 L 693.480469 412.980469 L 693.035156 412.71875 L 692.609375 412.421875 L 692.199219 412.082031 L 691.804688 411.699219 L 692.703125 410.824219 L 692.863281 410.992188 L 693.027344 411.148438 L 693.191406 411.296875 L 693.359375 411.433594 L 693.527344 411.5625 L 693.699219 411.683594 L 693.875 411.796875 L 694.046875 411.898438 L 694.226562 411.992188 L 694.402344 412.074219 L 694.585938 412.152344 L 694.777344 412.21875 L 694.972656 412.28125 L 695.171875 412.332031 L 695.378906 412.375 L 695.59375 412.410156 L 695.8125 412.4375 L 696.035156 412.460938 L 696.265625 412.472656 L 696.503906 412.476562 L 696.851562 412.464844 L 697.183594 412.429688 L 697.5 412.371094 L 697.804688 412.289062 L 698.089844 412.183594 L 698.363281 412.050781 L 698.621094 411.898438 L 698.863281 411.722656 L 699.089844 411.523438 L 699.304688 411.300781 L 699.5 411.050781 L 699.671875 410.785156 L 699.828125 410.503906 L 699.960938 410.203125 L 700.074219 409.886719 L 700.164062 409.554688 L 700.238281 409.203125 L 700.289062 408.835938 L 700.320312 408.453125 L 700.328125 408.050781 L 700.320312 407.660156 L 700.292969 407.292969 L 700.242188 406.941406 L 700.175781 406.613281 L 700.089844 406.308594 L 699.988281 406.019531 L 699.863281 405.753906 L 699.722656 405.507812 L 699.558594 405.28125 L 699.378906 405.074219 L 699.1875 404.886719 L 698.980469 404.714844 L 698.761719 404.566406 L 698.53125 404.433594 L 698.285156 404.324219 L 698.027344 404.234375 L 697.753906 404.164062 L 697.46875 404.117188 L 697.167969 404.085938 L 696.855469 404.074219 L 696.695312 404.078125 L 696.542969 404.082031 L 696.390625 404.09375 L 696.242188 404.109375 L 696.097656 404.125 L 695.957031 404.148438 L 695.820312 404.171875 L 695.6875 404.203125 L 695.554688 404.238281 L 695.429688 404.277344 L 695.308594 404.3125 L 695.183594 404.355469 L 695.054688 404.402344 L 694.925781 404.457031 L 694.792969 404.511719 L 694.65625 404.574219 L 694.375 404.714844 L 694.226562 404.792969 L 694.078125 404.875 L 692.929688 404.875 L 692.929688 396.800781 L 701.304688 396.800781 Z M 701.078125 398 "/>
<path fill-rule="nonzero" fill="rgb(56.078431%, 16.470588%, 26.27451%)" fill-opacity="0.698039" d="M 300.667969 44.382812 L 314.46875 44.382812 L 314.46875 28.636719 L 300.667969 28.636719 Z M 300.667969 44.382812 "/>
<path fill-rule="nonzero" fill="rgb(16.470588%, 56.078431%, 46.27451%)" fill-opacity="0.698039" d="M 382.929688 44.382812 L 396.730469 44.382812 L 396.730469 28.636719 L 382.929688 28.636719 Z M 382.929688 44.382812 "/>
<path fill-rule="nonzero" fill="rgb(0%, 0%, 0%)" fill-opacity="1" d="M 337.996094 36.066406 L 338.292969 36.109375 L 338.578125 36.167969 L 338.851562 36.238281 L 339.117188 36.324219 L 339.367188 36.425781 L 339.609375 36.539062 L 339.839844 36.671875 L 340.054688 36.816406 L 340.261719 36.972656 L 340.460938 37.148438 L 340.640625 37.335938 L 340.800781 37.539062 L 340.945312 37.757812 L 341.066406 38 L 341.171875 38.253906 L 341.257812 38.53125 L 341.324219 38.820312 L 341.371094 39.132812 L 341.398438 39.460938 L 341.410156 39.804688 L 341.394531 40.210938 L 341.351562 40.59375 L 341.285156 40.953125 L 341.183594 41.292969 L 341.058594 41.613281 L 340.902344 41.914062 L 340.722656 42.191406 L 340.511719 42.445312 L 340.273438 42.679688 L 340.003906 42.894531 L 339.714844 43.085938 L 339.398438 43.257812 L 339.0625 43.410156 L 338.707031 43.542969 L 338.328125 43.65625 L 337.925781 43.746094 L 337.5 43.816406 L 337.054688 43.867188 L 336.585938 43.898438 L 336.097656 43.910156 L 332.058594 43.910156 L 332.058594 29.113281 L 335.363281 29.113281 L 335.863281 29.121094 L 336.34375 29.148438 L 336.796875 29.195312 L 337.226562 29.261719 L 337.636719 29.34375 L 338.019531 29.449219 L 338.378906 29.566406 L 338.714844 29.707031 L 339.027344 29.867188 L 339.3125 30.042969 L 339.582031 30.238281 L 339.820312 30.449219 L 340.03125 30.679688 L 340.214844 30.929688 L 340.367188 31.199219 L 340.492188 31.484375 L 340.59375 31.785156 L 340.664062 32.109375 L 340.703125 32.449219 L 340.71875 32.808594 L 340.710938 33.074219 L 340.6875 33.332031 L 340.648438 33.578125 L 340.597656 33.8125 L 340.53125 34.039062 L 340.445312 34.253906 L 340.347656 34.457031 L 340.234375 34.652344 L 340.105469 34.835938 L 339.960938 35.011719 L 339.8125 35.171875 L 339.648438 35.320312 L 339.476562 35.460938 L 339.296875 35.582031 L 339.105469 35.695312 L 338.902344 35.796875 L 338.691406 35.882812 L 338.46875 35.957031 L 338.238281 36.019531 Z M 333.351562 30.191406 L 333.351562 35.613281 L 336.332031 35.613281 L 336.605469 35.609375 L 336.863281 35.585938 L 337.113281 35.550781 L 337.351562 35.5 L 337.582031 35.4375 L 337.796875 35.359375 L 338.003906 35.265625 L 338.199219 35.160156 L 338.382812 35.039062 L 338.558594 34.902344 L 338.71875 34.75 L 338.863281 34.585938 L 338.988281 34.414062 L 339.097656 34.226562 L 339.191406 34.03125 L 339.265625 33.828125 L 339.324219 33.609375 L 339.367188 33.382812 L 339.390625 33.144531 L 339.402344 32.894531 L 339.390625 32.613281 L 339.359375 32.347656 L 339.3125 32.097656 L 339.242188 31.867188 L 339.152344 31.652344 L 339.042969 31.453125 L 338.914062 31.269531 L 338.765625 31.101562 L 338.597656 30.953125 L 338.40625 30.820312 L 338.203125 30.699219 L 337.980469 30.59375 L 337.738281 30.5 L 337.472656 30.417969 L 337.191406 30.351562 L 336.890625 30.292969 L 336.570312 30.25 L 336.230469 30.21875 L 335.871094 30.199219 L 335.492188 30.191406 Z M 336.097656 42.828125 L 336.851562 42.800781 L 337.527344 42.707031 L 338.121094 42.558594 L 338.640625 42.34375 L 339.078125 42.074219 L 339.433594 41.742188 L 339.710938 41.347656 L 339.910156 40.894531 L 340.03125 40.378906 L 340.070312 39.804688 L 340.058594 39.492188 L 340.03125 39.199219 L 339.980469 38.921875 L 339.910156 38.65625 L 339.820312 38.410156 L 339.710938 38.183594 L 339.582031 37.96875 L 339.433594 37.773438 L 339.265625 37.59375 L 339.078125 37.429688 L 338.875 37.28125 L 338.660156 37.148438 L 338.433594 37.03125 L 338.195312 36.929688 L 337.941406 36.847656 L 337.675781 36.777344 L 337.398438 36.722656 L 337.105469 36.683594 L 336.800781 36.660156 L 336.484375 36.652344 L 333.351562 36.652344 L 333.351562 42.828125 Z M 336.097656 42.828125 "/>
<path fill-rule="nonzero" fill="rgb(0%, 0%, 0%)" fill-opacity="1" d="M 353.050781 29.113281 L 352.902344 30.257812 L 348.558594 30.257812 L 348.558594 43.910156 L 347.285156 43.910156 L 347.285156 30.257812 L 342.898438 30.257812 L 342.898438 29.113281 Z M 353.050781 29.113281 "/>
<path fill-rule="nonzero" fill="rgb(0%, 0%, 0%)" fill-opacity="1" d="M 364.046875 43.910156 L 364.046875 36.671875 L 356.960938 36.671875 L 356.960938 43.910156 L 355.664062 43.910156 L 355.664062 29.113281 L 356.960938 29.113281 L 356.960938 35.570312 L 364.046875 35.570312 L 364.046875 29.113281 L 365.34375 29.113281 L 365.34375 43.910156 Z M 364.046875 43.910156 "/>
<path fill-rule="nonzero" fill="rgb(0%, 0%, 0%)" fill-opacity="1" d="M 422.394531 29.113281 L 422.242188 30.257812 L 417.902344 30.257812 L 417.902344 43.910156 L 416.628906 43.910156 L 416.628906 30.257812 L 412.242188 30.257812 L 412.242188 29.113281 Z M 422.394531 29.113281 "/>
<path fill-rule="nonzero" fill="rgb(0%, 0%, 0%)" fill-opacity="1" d="M 432.914062 37.839844 L 432.914062 38.027344 L 432.910156 38.121094 L 432.90625 38.210938 L 432.902344 38.304688 L 432.894531 38.484375 L 432.886719 38.570312 L 432.878906 38.660156 L 432.871094 38.746094 L 425.332031 38.746094 L 425.363281 39.175781 L 425.410156 39.582031 L 425.472656 39.96875 L 425.550781 40.328125 L 425.644531 40.667969 L 425.757812 40.984375 L 425.886719 41.28125 L 426.03125 41.554688 L 426.191406 41.800781 L 426.371094 42.03125 L 426.566406 42.230469 L 426.773438 42.410156 L 426.992188 42.570312 L 427.222656 42.707031 L 427.464844 42.824219 L 427.71875 42.917969 L 427.984375 42.992188 L 428.261719 43.046875 L 428.550781 43.078125 L 428.855469 43.089844 L 429.027344 43.085938 L 429.199219 43.078125 L 429.367188 43.066406 L 429.527344 43.046875 L 429.683594 43.023438 L 429.839844 42.996094 L 429.988281 42.960938 L 430.132812 42.921875 L 430.273438 42.878906 L 430.410156 42.828125 L 430.546875 42.769531 L 430.691406 42.703125 L 430.832031 42.632812 L 430.980469 42.554688 L 431.125 42.472656 L 431.277344 42.382812 L 431.429688 42.289062 L 431.582031 42.1875 L 431.742188 42.078125 L 431.898438 41.964844 L 432.480469 42.765625 L 432.3125 42.898438 L 432.144531 43.027344 L 431.972656 43.148438 L 431.800781 43.261719 L 431.628906 43.367188 L 431.457031 43.46875 L 431.28125 43.5625 L 431.105469 43.648438 L 430.929688 43.730469 L 430.753906 43.800781 L 430.574219 43.867188 L 430.390625 43.925781 L 430.207031 43.976562 L 430.015625 44.023438 L 429.820312 44.058594 L 429.621094 44.089844 L 429.417969 44.117188 L 429.214844 44.132812 L 429.003906 44.144531 L 428.789062 44.148438 L 428.347656 44.132812 L 427.929688 44.085938 L 427.527344 44.007812 L 427.148438 43.902344 L 426.785156 43.761719 L 426.441406 43.59375 L 426.121094 43.394531 L 425.816406 43.164062 L 425.53125 42.90625 L 425.269531 42.613281 L 425.027344 42.292969 L 424.808594 41.953125 L 424.617188 41.585938 L 424.453125 41.195312 L 424.3125 40.78125 L 424.199219 40.34375 L 424.109375 39.882812 L 424.042969 39.398438 L 424.007812 38.890625 L 423.992188 38.359375 L 424 38.003906 L 424.015625 37.660156 L 424.042969 37.324219 L 424.078125 36.996094 L 424.128906 36.679688 L 424.1875 36.371094 L 424.257812 36.070312 L 424.339844 35.78125 L 424.429688 35.5 L 424.535156 35.226562 L 424.652344 34.960938 L 424.777344 34.707031 L 424.910156 34.464844 L 425.054688 34.238281 L 425.207031 34.023438 L 425.371094 33.820312 L 425.542969 33.628906 L 425.722656 33.449219 L 425.910156 33.285156 L 426.109375 33.128906 L 426.320312 32.988281 L 426.539062 32.859375 L 426.761719 32.746094 L 426.992188 32.648438 L 427.226562 32.5625 L 427.472656 32.496094 L 427.71875 32.441406 L 427.976562 32.40625 L 428.238281 32.382812 L 428.507812 32.375 L 428.929688 32.390625 L 429.332031 32.433594 L 429.710938 32.507812 L 430.070312 32.609375 L 430.410156 32.742188 L 430.726562 32.902344 L 431.023438 33.09375 L 431.300781 33.316406 L 431.554688 33.566406 L 431.792969 33.84375 L 432.003906 34.144531 L 432.195312 34.464844 L 432.363281 34.8125 L 432.511719 35.175781 L 432.632812 35.566406 L 432.734375 35.976562 L 432.8125 36.410156 L 432.871094 36.863281 L 432.902344 37.339844 Z M 431.683594 37.449219 L 431.675781 37.078125 L 431.652344 36.722656 L 431.609375 36.386719 L 431.554688 36.066406 L 431.484375 35.761719 L 431.394531 35.472656 L 431.292969 35.203125 L 431.171875 34.949219 L 431.035156 34.710938 L 430.882812 34.492188 L 430.71875 34.285156 L 430.542969 34.101562 L 430.347656 33.941406 L 430.136719 33.800781 L 429.910156 33.679688 L 429.671875 33.585938 L 429.414062 33.507812 L 429.140625 33.453125 L 428.855469 33.421875 L 428.550781 33.410156 L 428.277344 33.421875 L 428.011719 33.453125 L 427.757812 33.507812 L 427.515625 33.585938 L 427.28125 33.679688 L 427.0625 33.800781 L 426.851562 33.941406 L 426.648438 34.101562 L 426.460938 34.285156 L 426.28125 34.492188 L 426.117188 34.71875 L 425.96875 34.96875 L 425.835938 35.242188 L 425.714844 35.535156 L 425.613281 35.851562 L 425.527344 36.191406 L 425.453125 36.554688 L 425.398438 36.9375 L 425.359375 37.34375 L 425.332031 37.773438 L 431.683594 37.773438 Z M 431.683594 37.449219 "/>
<path fill-rule="nonzero" fill="rgb(0%, 0%, 0%)" fill-opacity="1" d="M 440.367188 32.375 L 440.804688 32.390625 L 441.226562 32.4375 L 441.625 32.515625 L 442.003906 32.625 L 442.363281 32.761719 L 442.703125 32.933594 L 443.023438 33.136719 L 443.324219 33.371094 L 443.605469 33.632812 L 443.867188 33.929688 L 444.109375 34.25 L 444.324219 34.59375 L 444.515625 34.960938 L 444.679688 35.355469 L 444.820312 35.769531 L 444.9375 36.214844 L 445.023438 36.679688 L 445.089844 37.171875 L 445.128906 37.6875 L 445.140625 38.226562 L 445.128906 38.765625 L 445.089844 39.28125 L 445.023438 39.769531 L 444.933594 40.238281 L 444.816406 40.683594 L 444.671875 41.109375 L 444.503906 41.507812 L 444.308594 41.886719 L 444.089844 42.238281 L 443.84375 42.570312 L 443.578125 42.871094 L 443.296875 43.136719 L 442.992188 43.375 L 442.671875 43.578125 L 442.332031 43.753906 L 441.972656 43.894531 L 441.59375 44.003906 L 441.195312 44.082031 L 440.78125 44.132812 L 440.34375 44.148438 L 439.90625 44.132812 L 439.484375 44.085938 L 439.085938 44.007812 L 438.703125 43.898438 L 438.339844 43.757812 L 438 43.585938 L 437.675781 43.382812 L 437.371094 43.152344 L 437.089844 42.886719 L 436.824219 42.589844 L 436.585938 42.265625 L 436.371094 41.914062 L 436.183594 41.539062 L 436.023438 41.144531 L 435.882812 40.722656 L 435.773438 40.28125 L 435.683594 39.8125 L 435.621094 39.320312 L 435.582031 38.808594 L 435.570312 38.273438 L 435.578125 37.917969 L 435.59375 37.574219 L 435.625 37.238281 L 435.664062 36.910156 L 435.71875 36.59375 L 435.78125 36.285156 L 435.855469 35.984375 L 435.945312 35.691406 L 436.042969 35.410156 L 436.15625 35.140625 L 436.277344 34.878906 L 436.40625 34.628906 L 436.550781 34.390625 L 436.699219 34.167969 L 436.863281 33.957031 L 437.03125 33.757812 L 437.214844 33.570312 L 437.40625 33.398438 L 437.605469 33.238281 L 437.816406 33.085938 L 438.039062 32.953125 L 438.265625 32.832031 L 438.5 32.722656 L 438.742188 32.632812 L 438.996094 32.554688 L 439.253906 32.488281 L 439.519531 32.4375 L 439.792969 32.402344 L 440.078125 32.382812 Z M 440.367188 33.433594 L 440.046875 33.445312 L 439.738281 33.480469 L 439.449219 33.542969 L 439.171875 33.628906 L 438.910156 33.742188 L 438.660156 33.875 L 438.429688 34.035156 L 438.210938 34.222656 L 438.007812 34.429688 L 437.816406 34.664062 L 437.644531 34.921875 L 437.492188 35.203125 L 437.355469 35.507812 L 437.238281 35.832031 L 437.136719 36.183594 L 437.054688 36.554688 L 436.992188 36.949219 L 436.945312 37.367188 L 436.917969 37.808594 L 436.910156 38.273438 L 436.917969 38.730469 L 436.945312 39.167969 L 436.988281 39.582031 L 437.050781 39.976562 L 437.132812 40.34375 L 437.230469 40.691406 L 437.34375 41.015625 L 437.476562 41.320312 L 437.628906 41.601562 L 437.796875 41.855469 L 437.984375 42.089844 L 438.1875 42.300781 L 438.40625 42.484375 L 438.640625 42.644531 L 438.886719 42.78125 L 439.148438 42.890625 L 439.425781 42.976562 L 439.71875 43.039062 L 440.023438 43.074219 L 440.34375 43.089844 L 440.664062 43.074219 L 440.972656 43.039062 L 441.261719 42.976562 L 441.539062 42.890625 L 441.804688 42.78125 L 442.050781 42.644531 L 442.28125 42.484375 L 442.5 42.300781 L 442.703125 42.089844 L 442.894531 41.855469 L 443.070312 41.597656 L 443.226562 41.316406 L 443.367188 41.011719 L 443.488281 40.683594 L 443.589844 40.335938 L 443.671875 39.960938 L 443.738281 39.5625 L 443.785156 39.140625 L 443.8125 38.695312 L 443.824219 38.226562 L 443.8125 37.769531 L 443.785156 37.332031 L 443.742188 36.917969 L 443.675781 36.527344 L 443.59375 36.160156 L 443.496094 35.816406 L 443.378906 35.492188 L 443.242188 35.195312 L 443.085938 34.917969 L 442.914062 34.664062 L 442.730469 34.429688 L 442.53125 34.222656 L 442.3125 34.035156 L 442.082031 33.875 L 441.835938 33.742188 L 441.574219 33.628906 L 441.292969 33.542969 L 441 33.480469 L 440.691406 33.445312 Z M 440.367188 33.433594 "/>
<path fill-rule="nonzero" fill="rgb(0%, 0%, 0%)" fill-opacity="1" d="M 453.195312 32.375 L 453.328125 32.375 L 453.457031 32.378906 L 453.699219 32.394531 L 453.8125 32.40625 L 453.921875 32.421875 L 454.027344 32.4375 L 454.128906 32.457031 L 454.226562 32.480469 L 454.320312 32.503906 L 454.082031 33.691406 L 453.988281 33.667969 L 453.890625 33.644531 L 453.792969 33.625 L 453.597656 33.59375 L 453.496094 33.582031 L 453.292969 33.566406 L 453.191406 33.5625 L 453.089844 33.5625 L 452.863281 33.570312 L 452.648438 33.597656 L 452.441406 33.636719 L 452.242188 33.699219 L 452.050781 33.773438 L 451.871094 33.867188 L 451.699219 33.976562 L 451.535156 34.101562 L 451.378906 34.246094 L 451.230469 34.40625 L 451.09375 34.578125 L 450.964844 34.769531 L 450.835938 34.984375 L 450.710938 35.214844 L 450.59375 35.464844 L 450.480469 35.730469 L 450.371094 36.019531 L 450.261719 36.328125 L 450.160156 36.652344 L 450.066406 36.996094 L 450.066406 43.910156 L 448.8125 43.910156 L 448.8125 32.613281 L 449.890625 32.613281 L 450 35.140625 L 450.09375 34.867188 L 450.195312 34.605469 L 450.300781 34.363281 L 450.414062 34.132812 L 450.535156 33.917969 L 450.660156 33.71875 L 450.792969 33.535156 L 450.933594 33.363281 L 451.078125 33.207031 L 451.230469 33.066406 L 451.394531 32.933594 L 451.566406 32.816406 L 451.742188 32.714844 L 451.929688 32.625 L 452.121094 32.546875 L 452.324219 32.484375 L 452.53125 32.4375 L 452.746094 32.402344 L 452.96875 32.382812 Z M 453.195312 32.375 "/>
<path fill-rule="nonzero" fill="rgb(0%, 0%, 0%)" fill-opacity="1" d="M 458.121094 32.613281 L 458.121094 43.910156 L 456.867188 43.910156 L 456.867188 32.613281 Z M 457.472656 27.644531 L 457.558594 27.648438 L 457.640625 27.65625 L 457.71875 27.667969 L 457.792969 27.6875 L 457.863281 27.710938 L 457.929688 27.738281 L 457.992188 27.769531 L 458.054688 27.808594 L 458.164062 27.902344 L 458.214844 27.957031 L 458.257812 28.011719 L 458.296875 28.070312 L 458.332031 28.132812 L 458.359375 28.195312 L 458.382812 28.261719 L 458.402344 28.328125 L 458.414062 28.402344 L 458.421875 28.476562 L 458.425781 28.550781 L 458.421875 28.628906 L 458.414062 28.703125 L 458.402344 28.773438 L 458.382812 28.84375 L 458.359375 28.90625 L 458.332031 28.972656 L 458.296875 29.03125 L 458.257812 29.089844 L 458.214844 29.144531 L 458.164062 29.199219 L 458.109375 29.25 L 458.054688 29.292969 L 457.992188 29.332031 L 457.929688 29.367188 L 457.863281 29.394531 L 457.792969 29.417969 L 457.71875 29.433594 L 457.640625 29.449219 L 457.558594 29.457031 L 457.394531 29.457031 L 457.316406 29.449219 L 457.167969 29.417969 L 457.101562 29.394531 L 457.035156 29.367188 L 456.972656 29.332031 L 456.914062 29.292969 L 456.855469 29.25 L 456.804688 29.199219 L 456.753906 29.144531 L 456.710938 29.089844 L 456.671875 29.03125 L 456.636719 28.972656 L 456.609375 28.90625 L 456.585938 28.84375 L 456.566406 28.773438 L 456.554688 28.703125 L 456.546875 28.628906 L 456.542969 28.550781 L 456.546875 28.476562 L 456.554688 28.402344 L 456.566406 28.328125 L 456.585938 28.261719 L 456.609375 28.195312 L 456.636719 28.132812 L 456.671875 28.070312 L 456.710938 28.011719 L 456.753906 27.957031 L 456.804688 27.902344 L 456.855469 27.855469 L 456.914062 27.808594 L 456.972656 27.769531 L 457.035156 27.738281 L 457.101562 27.710938 L 457.167969 27.6875 L 457.242188 27.667969 L 457.316406 27.65625 L 457.394531 27.648438 Z M 457.472656 27.644531 "/>
<path fill-rule="nonzero" fill="rgb(0%, 0%, 0%)" fill-opacity="1" d="M 466.566406 32.375 L 466.757812 32.378906 L 466.949219 32.386719 L 467.132812 32.398438 L 467.308594 32.417969 L 467.484375 32.445312 L 467.65625 32.476562 L 467.820312 32.511719 L 467.984375 32.554688 L 468.140625 32.601562 L 468.296875 32.65625 L 468.445312 32.710938 L 468.597656 32.773438 L 468.746094 32.84375 L 468.894531 32.917969 L 469.039062 33 L 469.1875 33.089844 L 469.332031 33.1875 L 469.476562 33.292969 L 469.621094 33.402344 L 469.765625 33.519531 L 469.136719 34.339844 L 468.910156 34.167969 L 468.796875 34.089844 L 468.679688 34.015625 L 468.566406 33.945312 L 468.332031 33.820312 L 468.210938 33.765625 L 468.089844 33.714844 L 467.972656 33.671875 L 467.851562 33.628906 L 467.730469 33.59375 L 467.605469 33.5625 L 467.476562 33.53125 L 467.34375 33.507812 L 467.210938 33.488281 L 467.070312 33.472656 L 466.78125 33.457031 L 466.632812 33.453125 L 466.320312 33.46875 L 466.019531 33.503906 L 465.730469 33.566406 L 465.457031 33.65625 L 465.195312 33.769531 L 464.945312 33.90625 L 464.710938 34.070312 L 464.488281 34.257812 L 464.28125 34.46875 L 464.082031 34.707031 L 463.902344 34.964844 L 463.742188 35.246094 L 463.597656 35.550781 L 463.476562 35.875 L 463.371094 36.226562 L 463.285156 36.597656 L 463.21875 36.992188 L 463.171875 37.410156 L 463.140625 37.851562 L 463.132812 38.316406 L 463.140625 38.773438 L 463.167969 39.210938 L 463.214844 39.621094 L 463.28125 40.011719 L 463.363281 40.378906 L 463.46875 40.71875 L 463.585938 41.039062 L 463.726562 41.335938 L 463.886719 41.609375 L 464.0625 41.855469 L 464.257812 42.082031 L 464.46875 42.285156 L 464.691406 42.464844 L 464.925781 42.617188 L 465.175781 42.75 L 465.433594 42.855469 L 465.710938 42.9375 L 465.996094 42.996094 L 466.296875 43.035156 L 466.609375 43.046875 L 466.761719 43.042969 L 466.90625 43.035156 L 467.050781 43.023438 L 467.191406 43.007812 L 467.464844 42.960938 L 467.59375 42.929688 L 467.722656 42.894531 L 467.972656 42.808594 L 468.097656 42.757812 L 468.222656 42.703125 L 468.347656 42.644531 L 468.597656 42.511719 L 468.722656 42.4375 L 468.847656 42.359375 L 469.097656 42.1875 L 469.222656 42.09375 L 469.828125 42.9375 L 469.539062 43.167969 L 469.242188 43.371094 L 468.9375 43.554688 L 468.625 43.710938 L 468.304688 43.84375 L 467.976562 43.953125 L 467.640625 44.039062 L 467.300781 44.097656 L 466.949219 44.132812 L 466.589844 44.148438 L 466.304688 44.140625 L 466.023438 44.117188 L 465.753906 44.085938 L 465.488281 44.035156 L 465.234375 43.972656 L 464.984375 43.898438 L 464.742188 43.808594 L 464.507812 43.703125 L 464.28125 43.585938 L 464.0625 43.457031 L 463.851562 43.3125 L 463.648438 43.15625 L 463.457031 42.988281 L 463.273438 42.804688 L 463.101562 42.613281 L 462.9375 42.410156 L 462.78125 42.191406 L 462.636719 41.960938 L 462.503906 41.722656 L 462.375 41.46875 L 462.265625 41.199219 L 462.167969 40.921875 L 462.078125 40.632812 L 462.003906 40.335938 L 461.9375 40.027344 L 461.886719 39.707031 L 461.847656 39.378906 L 461.816406 39.042969 L 461.800781 38.695312 L 461.792969 38.335938 L 461.800781 37.980469 L 461.816406 37.636719 L 461.847656 37.300781 L 461.886719 36.976562 L 461.9375 36.65625 L 462.003906 36.347656 L 462.078125 36.046875 L 462.167969 35.757812 L 462.265625 35.476562 L 462.375 35.203125 L 462.503906 34.9375 L 462.636719 34.683594 L 462.78125 34.445312 L 462.9375 34.214844 L 463.101562 34 L 463.273438 33.796875 L 463.457031 33.605469 L 463.648438 33.429688 L 463.851562 33.261719 L 464.0625 33.109375 L 464.28125 32.96875 L 464.507812 32.84375 L 464.742188 32.734375 L 464.980469 32.640625 L 465.226562 32.558594 L 465.480469 32.492188 L 465.742188 32.441406 L 466.011719 32.402344 L 466.285156 32.382812 Z M 466.566406 32.375 "/>
<path fill-rule="nonzero" fill="rgb(0%, 0%, 0%)" fill-opacity="1" d="M 480.757812 43.910156 L 479.679688 43.910156 L 479.613281 41.898438 L 479.335938 42.328125 L 479.039062 42.710938 L 478.71875 43.046875 L 478.378906 43.339844 L 478.019531 43.585938 L 477.640625 43.789062 L 477.242188 43.945312 L 476.820312 44.058594 L 476.378906 44.125 L 475.921875 44.148438 L 475.621094 44.136719 L 475.335938 44.109375 L 475.0625 44.066406 L 474.804688 44.003906 L 474.558594 43.925781 L 474.328125 43.828125 L 474.113281 43.710938 L 473.910156 43.578125 L 473.71875 43.429688 L 473.542969 43.261719 L 473.386719 43.070312 L 473.25 42.867188 L 473.125 42.648438 L 473.019531 42.414062 L 472.929688 42.164062 L 472.855469 41.898438 L 472.796875 41.621094 L 472.757812 41.324219 L 472.730469 41.015625 L 472.722656 40.691406 L 472.722656 32.613281 L 473.976562 32.613281 L 473.976562 40.5625 L 473.980469 40.816406 L 473.996094 41.058594 L 474.023438 41.289062 L 474.0625 41.503906 L 474.109375 41.707031 L 474.171875 41.894531 L 474.242188 42.066406 L 474.320312 42.226562 L 474.414062 42.371094 L 474.515625 42.503906 L 474.632812 42.621094 L 474.761719 42.722656 L 474.902344 42.8125 L 475.054688 42.890625 L 475.21875 42.957031 L 475.390625 43.011719 L 475.578125 43.054688 L 475.773438 43.085938 L 475.980469 43.105469 L 476.199219 43.109375 L 476.585938 43.085938 L 476.960938 43.015625 L 477.324219 42.902344 L 477.671875 42.738281 L 478.007812 42.53125 L 478.332031 42.277344 L 478.644531 41.976562 L 478.945312 41.628906 L 479.230469 41.238281 L 479.503906 40.796875 L 479.503906 32.613281 L 480.757812 32.613281 Z M 480.757812 43.910156 "/>
<path fill-rule="nonzero" fill="rgb(0%, 0%, 0%)" fill-opacity="1" d="M 488.101562 32.375 L 488.3125 32.378906 L 488.519531 32.386719 L 488.71875 32.402344 L 488.917969 32.425781 L 489.113281 32.457031 L 489.300781 32.492188 L 489.488281 32.535156 L 489.671875 32.582031 L 489.851562 32.636719 L 490.195312 32.761719 L 490.367188 32.832031 L 490.539062 32.910156 L 490.710938 32.992188 L 490.878906 33.082031 L 491.046875 33.179688 L 491.214844 33.28125 L 491.378906 33.390625 L 491.546875 33.503906 L 491.710938 33.628906 L 491.125 34.449219 L 490.972656 34.34375 L 490.820312 34.246094 L 490.667969 34.152344 L 490.519531 34.066406 L 490.371094 33.984375 L 490.222656 33.910156 L 490.078125 33.839844 L 489.9375 33.777344 L 489.796875 33.722656 L 489.65625 33.671875 L 489.519531 33.621094 L 489.375 33.578125 L 489.230469 33.539062 L 489.082031 33.503906 L 488.933594 33.476562 L 488.78125 33.453125 L 488.625 33.433594 L 488.46875 33.421875 L 488.308594 33.414062 L 488.144531 33.410156 L 487.925781 33.417969 L 487.714844 33.433594 L 487.511719 33.457031 L 487.316406 33.496094 L 487.128906 33.542969 L 486.953125 33.597656 L 486.785156 33.664062 L 486.625 33.742188 L 486.472656 33.832031 L 486.332031 33.929688 L 486.199219 34.035156 L 486.082031 34.152344 L 485.980469 34.273438 L 485.890625 34.398438 L 485.8125 34.535156 L 485.75 34.675781 L 485.703125 34.824219 L 485.667969 34.980469 L 485.648438 35.144531 L 485.640625 35.3125 L 485.644531 35.472656 L 485.664062 35.625 L 485.691406 35.773438 L 485.734375 35.910156 L 485.785156 36.042969 L 485.851562 36.164062 L 485.925781 36.28125 L 486.011719 36.390625 L 486.113281 36.492188 L 486.222656 36.585938 L 486.355469 36.675781 L 486.503906 36.765625 L 486.671875 36.855469 L 486.859375 36.941406 L 487.066406 37.03125 L 487.292969 37.117188 L 487.535156 37.199219 L 487.800781 37.285156 L 488.082031 37.367188 L 488.382812 37.449219 L 488.757812 37.550781 L 489.109375 37.660156 L 489.4375 37.773438 L 489.75 37.890625 L 490.035156 38.011719 L 490.300781 38.140625 L 490.546875 38.273438 L 490.769531 38.410156 L 490.96875 38.554688 L 491.148438 38.703125 L 491.3125 38.859375 L 491.460938 39.03125 L 491.589844 39.214844 L 491.699219 39.410156 L 491.796875 39.621094 L 491.875 39.84375 L 491.933594 40.078125 L 491.976562 40.328125 L 492.003906 40.589844 L 492.011719 40.863281 L 492 41.160156 L 491.964844 41.441406 L 491.90625 41.714844 L 491.824219 41.972656 L 491.71875 42.21875 L 491.59375 42.453125 L 491.441406 42.671875 L 491.265625 42.882812 L 491.066406 43.078125 L 490.84375 43.261719 L 490.605469 43.429688 L 490.355469 43.578125 L 490.09375 43.710938 L 489.820312 43.828125 L 489.535156 43.925781 L 489.234375 44.003906 L 488.925781 44.066406 L 488.605469 44.109375 L 488.273438 44.136719 L 487.929688 44.148438 L 487.671875 44.144531 L 487.425781 44.132812 L 487.179688 44.113281 L 486.945312 44.089844 L 486.714844 44.054688 L 486.492188 44.015625 L 486.273438 43.96875 L 486.0625 43.910156 L 485.859375 43.847656 L 485.660156 43.78125 L 485.46875 43.699219 L 485.28125 43.613281 L 485.09375 43.519531 L 484.910156 43.421875 L 484.734375 43.316406 L 484.558594 43.203125 L 484.386719 43.085938 L 484.21875 42.964844 L 484.050781 42.835938 L 483.890625 42.699219 L 484.582031 41.898438 L 484.734375 42.019531 L 484.886719 42.128906 L 485.035156 42.234375 L 485.191406 42.335938 L 485.34375 42.429688 L 485.496094 42.515625 L 485.652344 42.597656 L 485.804688 42.675781 L 485.960938 42.742188 L 486.113281 42.808594 L 486.441406 42.910156 L 486.785156 42.988281 L 486.964844 43.019531 L 487.144531 43.042969 L 487.328125 43.0625 L 487.519531 43.078125 L 487.710938 43.085938 L 487.90625 43.089844 L 488.152344 43.082031 L 488.390625 43.066406 L 488.613281 43.039062 L 488.832031 43 L 489.035156 42.949219 L 489.234375 42.886719 L 489.417969 42.8125 L 489.59375 42.730469 L 489.761719 42.632812 L 489.917969 42.527344 L 490.066406 42.40625 L 490.195312 42.277344 L 490.3125 42.136719 L 490.414062 41.992188 L 490.5 41.835938 L 490.570312 41.671875 L 490.625 41.5 L 490.664062 41.316406 L 490.6875 41.128906 L 490.695312 40.929688 L 490.691406 40.792969 L 490.683594 40.664062 L 490.671875 40.535156 L 490.652344 40.417969 L 490.628906 40.300781 L 490.601562 40.191406 L 490.566406 40.085938 L 490.527344 39.988281 L 490.484375 39.894531 L 490.433594 39.804688 L 490.378906 39.71875 L 490.316406 39.636719 L 490.246094 39.558594 L 490.167969 39.480469 L 490.085938 39.40625 L 489.992188 39.332031 L 489.890625 39.265625 L 489.785156 39.195312 L 489.671875 39.132812 L 489.550781 39.070312 L 489.417969 39.007812 L 489.277344 38.941406 L 489.121094 38.875 L 488.957031 38.8125 L 488.777344 38.746094 L 488.589844 38.683594 L 488.386719 38.617188 L 488.175781 38.550781 L 487.949219 38.488281 L 487.714844 38.421875 L 487.363281 38.324219 L 487.035156 38.222656 L 486.726562 38.117188 L 486.4375 38.003906 L 486.167969 37.886719 L 485.917969 37.765625 L 485.691406 37.640625 L 485.480469 37.511719 L 485.292969 37.375 L 485.121094 37.234375 L 484.972656 37.085938 L 484.839844 36.929688 L 484.726562 36.765625 L 484.625 36.589844 L 484.539062 36.402344 L 484.46875 36.207031 L 484.414062 36.003906 L 484.375 35.789062 L 484.351562 35.566406 L 484.34375 35.332031 L 484.347656 35.167969 L 484.363281 35.003906 L 484.386719 34.84375 L 484.421875 34.6875 L 484.46875 34.535156 L 484.523438 34.386719 L 484.585938 34.238281 L 484.660156 34.097656 L 484.746094 33.957031 L 484.839844 33.820312 L 484.945312 33.6875 L 485.054688 33.558594 L 485.171875 33.4375 L 485.292969 33.320312 L 485.425781 33.210938 L 485.5625 33.109375 L 485.707031 33.011719 L 485.855469 32.921875 L 486.015625 32.839844 L 486.179688 32.761719 L 486.355469 32.691406 L 486.535156 32.625 L 486.714844 32.566406 L 486.902344 32.515625 L 487.09375 32.472656 L 487.285156 32.4375 L 487.484375 32.410156 L 487.6875 32.390625 L 487.894531 32.378906 Z M 488.101562 32.375 "/>
</svg>
