<?xml version="1.0" encoding="UTF-8"?>
<svg xmlns="http://www.w3.org/2000/svg" xmlns:xlink="http://www.w3.org/1999/xlink" width="792pt" height="374pt" viewBox="0 0 792 374">
<defs>
<clipPath id="clip-0">
<path clip-rule="nonzero" d="M 13.449219 86.472656 L 778.550781 86.472656 L 778.550781 326.195312 L 13.449219 326.195312 Z M 13.449219 86.472656 "/>
</clipPath>
<clipPath id="clip-1">
<path clip-rule="nonzero" d="M 13.449219 313 L 778.550781 313 L 778.550781 317 L 13.449219 317 Z M 13.449219 313 "/>
</clipPath>
<clipPath id="clip-2">
<path clip-rule="nonzero" d="M 13.449219 270 L 778.550781 270 L 778.550781 274 L 13.449219 274 Z M 13.449219 270 "/>
</clipPath>
<clipPath id="clip-3">
<path clip-rule="nonzero" d="M 13.449219 227 L 778.550781 227 L 778.550781 230 L 13.449219 230 Z M 13.449219 227 "/>
</clipPath>
<clipPath id="clip-4">
<path clip-rule="nonzero" d="M 13.449219 184 L 778.550781 184 L 778.550781 187 L 13.449219 187 Z M 13.449219 184 "/>
</clipPath>
<clipPath id="clip-5">
<path clip-rule="nonzero" d="M 13.449219 140 L 778.550781 140 L 778.550781 144 L 13.449219 144 Z M 13.449219 140 "/>
</clipPath>
<clipPath id="clip-6">
<path clip-rule="nonzero" d="M 13.449219 97 L 778.550781 97 L 778.550781 100 L 13.449219 100 Z M 13.449219 97 "/>
</clipPath>
<clipPath id="clip-7">
<path clip-rule="nonzero" d="M 167 86.472656 L 171 86.472656 L 171 326.195312 L 167 326.195312 Z M 167 86.472656 "/>
</clipPath>
<clipPath id="clip-8">
<path clip-rule="nonzero" d="M 376 86.472656 L 380 86.472656 L 380 326.195312 L 376 326.195312 Z M 376 86.472656 "/>
</clipPath>
<clipPath id="clip-9">
<path clip-rule="nonzero" d="M 585 86.472656 L 589 86.472656 L 589 326.195312 L 585 326.195312 Z M 585 86.472656 "/>
</clipPath>
<clipPath id="clip-10">
<path clip-rule="nonzero" d="M 377 86.472656 L 380 86.472656 L 380 326.195312 L 377 326.195312 Z M 377 86.472656 "/>
</clipPath>
<clipPath id="clip-11">
<path clip-rule="nonzero" d="M 381 86.472656 L 384 86.472656 L 384 326.195312 L 381 326.195312 Z M 381 86.472656 "/>
</clipPath>
</defs>
<rect x="-79.2" y="-37.4" width="950.4" height="448.8" fill="rgb(100%, 100%, 100%)" fill-opacity="1"/>
<rect x="-79.2" y="-37.4" width="950.4" height="448.8" fill="rgb(95.294118%, 95.294118%, 95.294118%)" fill-opacity="1"/>
<path fill="none" stroke-width="2.618947" stroke-linecap="round" stroke-linejoin="round" stroke="rgb(95.294118%, 95.294118%, 95.294118%)" stroke-opacity="1" stroke-miterlimit="10" d="M 0 374 L 792 374 L 792 0 L 0 0 Z M 0 374 "/>
<g clip-path="url(#clip-0)">
<path fill-rule="nonzero" fill="rgb(95.294118%, 95.294118%, 95.294118%)" fill-opacity="1" stroke-width="2.618947" stroke-linecap="round" stroke-linejoin="round" stroke="rgb(95.294118%, 95.294118%, 95.294118%)" stroke-opacity="1" stroke-miterlimit="10" d="M 13.449219 326.195312 L 778.550781 326.195312 L 778.550781 86.472656 L 13.449219 86.472656 Z M 13.449219 326.195312 "/>
</g>
<g clip-path="url(#clip-1)">
<path fill="none" stroke-width="2.618947" stroke-linecap="butt" stroke-linejoin="round" stroke="rgb(92.156863%, 92.156863%, 92.156863%)" stroke-opacity="1" stroke-miterlimit="10" d="M 13.449219 315.300781 L 778.550781 315.300781 "/>
</g>
<g clip-path="url(#clip-2)">
<path fill="none" stroke-width="2.618947" stroke-linecap="butt" stroke-linejoin="round" stroke="rgb(92.156863%, 92.156863%, 92.156863%)" stroke-opacity="1" stroke-miterlimit="10" d="M 13.449219 271.972656 L 778.550781 271.972656 "/>
</g>
<g clip-path="url(#clip-3)">
<path fill="none" stroke-width="2.618947" stroke-linecap="butt" stroke-linejoin="round" stroke="rgb(92.156863%, 92.156863%, 92.156863%)" stroke-opacity="1" stroke-miterlimit="10" d="M 13.449219 228.648438 L 778.550781 228.648438 "/>
</g>
<g clip-path="url(#clip-4)">
<path fill="none" stroke-width="2.618947" stroke-linecap="butt" stroke-linejoin="round" stroke="rgb(92.156863%, 92.156863%, 92.156863%)" stroke-opacity="1" stroke-miterlimit="10" d="M 13.449219 185.320312 L 778.550781 185.320312 "/>
</g>
<g clip-path="url(#clip-5)">
<path fill="none" stroke-width="2.618947" stroke-linecap="butt" stroke-linejoin="round" stroke="rgb(92.156863%, 92.156863%, 92.156863%)" stroke-opacity="1" stroke-miterlimit="10" d="M 13.449219 141.996094 L 778.550781 141.996094 "/>
</g>
<g clip-path="url(#clip-6)">
<path fill="none" stroke-width="2.618947" stroke-linecap="butt" stroke-linejoin="round" stroke="rgb(92.156863%, 92.156863%, 92.156863%)" stroke-opacity="1" stroke-miterlimit="10" d="M 13.449219 98.667969 L 778.550781 98.667969 "/>
</g>
<g clip-path="url(#clip-7)">
<path fill="none" stroke-width="2.618947" stroke-linecap="butt" stroke-linejoin="round" stroke="rgb(92.156863%, 92.156863%, 92.156863%)" stroke-opacity="1" stroke-miterlimit="10" d="M 169.25 326.195312 L 169.25 86.472656 "/>
</g>
<g clip-path="url(#clip-8)">
<path fill="none" stroke-width="2.618947" stroke-linecap="butt" stroke-linejoin="round" stroke="rgb(92.156863%, 92.156863%, 92.156863%)" stroke-opacity="1" stroke-miterlimit="10" d="M 378.117188 326.195312 L 378.117188 86.472656 "/>
</g>
<g clip-path="url(#clip-9)">
<path fill="none" stroke-width="2.618947" stroke-linecap="butt" stroke-linejoin="round" stroke="rgb(92.156863%, 92.156863%, 92.156863%)" stroke-opacity="1" stroke-miterlimit="10" d="M 586.980469 326.195312 L 586.980469 86.472656 "/>
</g>
<path fill-rule="nonzero" fill="rgb(56.078431%, 16.470588%, 26.27451%)" fill-opacity="0.698039" d="M 303.261719 288.871094 L 326.445312 288.871094 L 326.445312 286.703125 L 303.261719 286.703125 Z M 303.261719 288.871094 "/>
<path fill-rule="nonzero" fill="rgb(56.078431%, 16.470588%, 26.27451%)" fill-opacity="0.698039" d="M 326.445312 280.636719 L 349.628906 280.636719 L 349.628906 245.976562 L 326.445312 245.976562 Z M 326.445312 280.636719 "/>
<path fill-rule="nonzero" fill="rgb(56.078431%, 16.470588%, 26.27451%)" fill-opacity="0.698039" d="M 349.628906 277.605469 L 372.8125 277.605469 L 372.8125 148.058594 L 349.628906 148.058594 Z M 349.628906 277.605469 "/>
<path fill-rule="nonzero" fill="rgb(56.078431%, 16.470588%, 26.27451%)" fill-opacity="0.698039" d="M 372.816406 280.203125 L 396 280.203125 L 396 97.367188 L 372.816406 97.367188 Z M 372.816406 280.203125 "/>
<path fill-rule="nonzero" fill="rgb(56.078431%, 16.470588%, 26.27451%)" fill-opacity="0.698039" d="M 396 281.9375 L 419.183594 281.9375 L 419.183594 210.882812 L 396 210.882812 Z M 396 281.9375 "/>
<path fill-rule="nonzero" fill="rgb(56.078431%, 16.470588%, 26.27451%)" fill-opacity="0.698039" d="M 419.183594 278.90625 L 442.367188 278.90625 L 442.367188 266.339844 L 419.183594 266.339844 Z M 419.183594 278.90625 "/>
<path fill-rule="nonzero" fill="rgb(56.078431%, 16.470588%, 26.27451%)" fill-opacity="0.698039" d="M 442.371094 285.835938 L 465.554688 285.835938 L 465.554688 285.402344 L 442.371094 285.402344 Z M 442.371094 285.835938 "/>
<path fill-rule="nonzero" fill="rgb(16.470588%, 56.078431%, 46.27451%)" fill-opacity="0.698039" d="M 48.226562 315.300781 L 71.410156 315.300781 L 71.410156 314.867188 L 48.226562 314.867188 Z M 48.226562 315.300781 "/>
<path fill-rule="nonzero" fill="rgb(16.470588%, 56.078431%, 46.27451%)" fill-opacity="0.698039" d="M 94.597656 315.300781 L 117.78125 315.300781 L 117.78125 313.566406 L 94.597656 313.566406 Z M 94.597656 315.300781 "/>
<path fill-rule="nonzero" fill="rgb(16.470588%, 56.078431%, 46.27451%)" fill-opacity="0.698039" d="M 117.78125 315.300781 L 140.964844 315.300781 L 140.964844 313.566406 L 117.78125 313.566406 Z M 117.78125 315.300781 "/>
<path fill-rule="nonzero" fill="rgb(16.470588%, 56.078431%, 46.27451%)" fill-opacity="0.698039" d="M 140.964844 315.300781 L 164.148438 315.300781 L 164.148438 310.96875 L 140.964844 310.96875 Z M 140.964844 315.300781 "/>
<path fill-rule="nonzero" fill="rgb(16.470588%, 56.078431%, 46.27451%)" fill-opacity="0.698039" d="M 164.152344 315.300781 L 187.335938 315.300781 L 187.335938 308.367188 L 164.152344 308.367188 Z M 164.152344 315.300781 "/>
<path fill-rule="nonzero" fill="rgb(16.470588%, 56.078431%, 46.27451%)" fill-opacity="0.698039" d="M 187.335938 315.300781 L 210.519531 315.300781 L 210.519531 307.503906 L 187.335938 307.503906 Z M 187.335938 315.300781 "/>
<path fill-rule="nonzero" fill="rgb(16.470588%, 56.078431%, 46.27451%)" fill-opacity="0.698039" d="M 210.519531 315.300781 L 233.703125 315.300781 L 233.703125 303.601562 L 210.519531 303.601562 Z M 210.519531 315.300781 "/>
<path fill-rule="nonzero" fill="rgb(16.470588%, 56.078431%, 46.27451%)" fill-opacity="0.698039" d="M 233.707031 315.300781 L 256.890625 315.300781 L 256.890625 298.402344 L 233.707031 298.402344 Z M 233.707031 315.300781 "/>
<path fill-rule="nonzero" fill="rgb(16.470588%, 56.078431%, 46.27451%)" fill-opacity="0.698039" d="M 256.890625 315.300781 L 280.074219 315.300781 L 280.074219 290.605469 L 256.890625 290.605469 Z M 256.890625 315.300781 "/>
<path fill-rule="nonzero" fill="rgb(16.470588%, 56.078431%, 46.27451%)" fill-opacity="0.698039" d="M 280.074219 315.300781 L 303.257812 315.300781 L 303.257812 289.738281 L 280.074219 289.738281 Z M 280.074219 315.300781 "/>
<path fill-rule="nonzero" fill="rgb(16.470588%, 56.078431%, 46.27451%)" fill-opacity="0.698039" d="M 303.261719 315.300781 L 326.445312 315.300781 L 326.445312 288.871094 L 303.261719 288.871094 Z M 303.261719 315.300781 "/>
<path fill-rule="nonzero" fill="rgb(16.470588%, 56.078431%, 46.27451%)" fill-opacity="0.698039" d="M 326.445312 315.300781 L 349.628906 315.300781 L 349.628906 280.640625 L 326.445312 280.640625 Z M 326.445312 315.300781 "/>
<path fill-rule="nonzero" fill="rgb(16.470588%, 56.078431%, 46.27451%)" fill-opacity="0.698039" d="M 349.628906 315.300781 L 372.8125 315.300781 L 372.8125 277.605469 L 349.628906 277.605469 Z M 349.628906 315.300781 "/>
<path fill-rule="nonzero" fill="rgb(16.470588%, 56.078431%, 46.27451%)" fill-opacity="0.698039" d="M 372.816406 315.300781 L 396 315.300781 L 396 280.207031 L 372.816406 280.207031 Z M 372.816406 315.300781 "/>
<path fill-rule="nonzero" fill="rgb(16.470588%, 56.078431%, 46.27451%)" fill-opacity="0.698039" d="M 396 315.300781 L 419.183594 315.300781 L 419.183594 281.941406 L 396 281.941406 Z M 396 315.300781 "/>
<path fill-rule="nonzero" fill="rgb(16.470588%, 56.078431%, 46.27451%)" fill-opacity="0.698039" d="M 419.183594 315.300781 L 442.367188 315.300781 L 442.367188 278.90625 L 419.183594 278.90625 Z M 419.183594 315.300781 "/>
<path fill-rule="nonzero" fill="rgb(16.470588%, 56.078431%, 46.27451%)" fill-opacity="0.698039" d="M 442.371094 315.300781 L 465.554688 315.300781 L 465.554688 285.839844 L 442.371094 285.839844 Z M 442.371094 315.300781 "/>
<path fill-rule="nonzero" fill="rgb(16.470588%, 56.078431%, 46.27451%)" fill-opacity="0.698039" d="M 465.554688 315.300781 L 488.738281 315.300781 L 488.738281 283.671875 L 465.554688 283.671875 Z M 465.554688 315.300781 "/>
<path fill-rule="nonzero" fill="rgb(16.470588%, 56.078431%, 46.27451%)" fill-opacity="0.698039" d="M 488.738281 315.300781 L 511.921875 315.300781 L 511.921875 297.96875 L 488.738281 297.96875 Z M 488.738281 315.300781 "/>
<path fill-rule="nonzero" fill="rgb(16.470588%, 56.078431%, 46.27451%)" fill-opacity="0.698039" d="M 511.925781 315.300781 L 535.109375 315.300781 L 535.109375 293.203125 L 511.925781 293.203125 Z M 511.925781 315.300781 "/>
<path fill-rule="nonzero" fill="rgb(16.470588%, 56.078431%, 46.27451%)" fill-opacity="0.698039" d="M 535.109375 315.300781 L 558.292969 315.300781 L 558.292969 305.769531 L 535.109375 305.769531 Z M 535.109375 315.300781 "/>
<path fill-rule="nonzero" fill="rgb(16.470588%, 56.078431%, 46.27451%)" fill-opacity="0.698039" d="M 558.292969 315.300781 L 581.476562 315.300781 L 581.476562 307.933594 L 558.292969 307.933594 Z M 558.292969 315.300781 "/>
<path fill-rule="nonzero" fill="rgb(16.470588%, 56.078431%, 46.27451%)" fill-opacity="0.698039" d="M 581.480469 315.300781 L 604.664062 315.300781 L 604.664062 312.269531 L 581.480469 312.269531 Z M 581.480469 315.300781 "/>
<path fill-rule="nonzero" fill="rgb(16.470588%, 56.078431%, 46.27451%)" fill-opacity="0.698039" d="M 604.664062 315.300781 L 627.847656 315.300781 L 627.847656 313.132812 L 604.664062 313.132812 Z M 604.664062 315.300781 "/>
<path fill-rule="nonzero" fill="rgb(16.470588%, 56.078431%, 46.27451%)" fill-opacity="0.698039" d="M 627.847656 315.300781 L 651.03125 315.300781 L 651.03125 312.703125 L 627.847656 312.703125 Z M 627.847656 315.300781 "/>
<path fill-rule="nonzero" fill="rgb(16.470588%, 56.078431%, 46.27451%)" fill-opacity="0.698039" d="M 651.035156 315.300781 L 674.21875 315.300781 L 674.21875 314 L 651.035156 314 Z M 651.035156 315.300781 "/>
<path fill-rule="nonzero" fill="rgb(16.470588%, 56.078431%, 46.27451%)" fill-opacity="0.698039" d="M 697.402344 315.300781 L 720.585938 315.300781 L 720.585938 314.867188 L 697.402344 314.867188 Z M 697.402344 315.300781 "/>
<path fill-rule="nonzero" fill="rgb(16.470588%, 56.078431%, 46.27451%)" fill-opacity="0.698039" d="M 720.589844 315.300781 L 743.773438 315.300781 L 743.773438 314.433594 L 720.589844 314.433594 Z M 720.589844 315.300781 "/>
<g clip-path="url(#clip-10)">
<path fill="none" stroke-width="2.560748" stroke-linecap="butt" stroke-linejoin="round" stroke="rgb(56.078431%, 16.470588%, 26.27451%)" stroke-opacity="1" stroke-dasharray="10.242992 10.242992" stroke-miterlimit="10" d="M 378.453125 326.195312 L 378.453125 86.472656 "/>
</g>
<g clip-path="url(#clip-11)">
<path fill="none" stroke-width="2.560748" stroke-linecap="butt" stroke-linejoin="round" stroke="rgb(16.470588%, 56.078431%, 46.27451%)" stroke-opacity="1" stroke-dasharray="10.242992 10.242992" stroke-miterlimit="10" d="M 382.550781 326.195312 L 382.550781 86.472656 "/>
</g>
<path fill-rule="nonzero" fill="rgb(10.196078%, 10.196078%, 10.196078%)" fill-opacity="1" d="M 169.25 338.527344 L 169.753906 338.546875 L 170.230469 338.613281 L 170.683594 338.722656 L 171.109375 338.878906 L 171.511719 339.074219 L 171.890625 339.316406 L 172.242188 339.601562 L 172.570312 339.933594 L 172.871094 340.308594 L 173.148438 340.726562 L 173.402344 341.179688 L 173.628906 341.675781 L 173.824219 342.214844 L 174 342.792969 L 174.144531 343.414062 L 174.261719 344.074219 L 174.355469 344.773438 L 174.421875 345.515625 L 174.460938 346.300781 L 174.476562 347.125 L 174.460938 347.945312 L 174.421875 348.726562 L 174.355469 349.464844 L 174.257812 350.164062 L 174.136719 350.824219 L 173.988281 351.445312 L 173.8125 352.027344 L 173.609375 352.566406 L 173.382812 353.066406 L 173.125 353.527344 L 172.847656 353.9375 L 172.546875 354.308594 L 172.21875 354.632812 L 171.871094 354.917969 L 171.492188 355.15625 L 171.09375 355.351562 L 170.667969 355.503906 L 170.222656 355.613281 L 169.746094 355.679688 L 169.25 355.699219 L 168.746094 355.679688 L 168.269531 355.613281 L 167.816406 355.503906 L 167.390625 355.351562 L 166.988281 355.15625 L 166.609375 354.917969 L 166.257812 354.632812 L 165.929688 354.308594 L 165.628906 353.9375 L 165.351562 353.527344 L 165.097656 353.066406 L 164.875 352.5625 L 164.675781 352.023438 L 164.503906 351.441406 L 164.355469 350.820312 L 164.238281 350.15625 L 164.144531 349.453125 L 164.078125 348.710938 L 164.039062 347.925781 L 164.023438 347.101562 L 164.039062 346.277344 L 164.078125 345.492188 L 164.144531 344.75 L 164.238281 344.046875 L 164.355469 343.386719 L 164.503906 342.769531 L 164.675781 342.191406 L 164.875 341.652344 L 165.097656 341.15625 L 165.351562 340.699219 L 165.628906 340.289062 L 165.929688 339.917969 L 166.257812 339.589844 L 166.609375 339.308594 L 166.988281 339.070312 L 167.390625 338.875 L 167.816406 338.722656 L 168.269531 338.613281 L 168.746094 338.546875 Z M 169.25 339.726562 L 168.542969 339.800781 L 167.910156 340.019531 L 167.351562 340.390625 L 166.867188 340.90625 L 166.457031 341.570312 L 166.121094 342.378906 L 165.859375 343.339844 L 165.675781 344.445312 L 165.5625 345.699219 L 165.523438 347.101562 L 165.5625 348.507812 L 165.675781 349.765625 L 165.859375 350.875 L 166.121094 351.835938 L 166.457031 352.652344 L 166.867188 353.316406 L 167.351562 353.835938 L 167.910156 354.203125 L 168.542969 354.425781 L 169.25 354.5 L 169.605469 354.484375 L 169.945312 354.429688 L 170.265625 354.339844 L 170.566406 354.210938 L 170.851562 354.050781 L 171.117188 353.851562 L 171.363281 353.617188 L 171.59375 353.347656 L 171.804688 353.042969 L 172 352.699219 L 172.179688 352.320312 L 172.34375 351.902344 L 172.484375 351.441406 L 172.609375 350.945312 L 172.710938 350.40625 L 172.796875 349.828125 L 172.863281 349.210938 L 172.914062 348.554688 L 172.941406 347.859375 L 172.949219 347.125 L 172.941406 346.390625 L 172.914062 345.695312 L 172.863281 345.039062 L 172.796875 344.421875 L 172.710938 343.84375 L 172.609375 343.304688 L 172.484375 342.808594 L 172.34375 342.347656 L 172.179688 341.929688 L 172 341.550781 L 171.804688 341.203125 L 171.59375 340.894531 L 171.363281 340.621094 L 171.117188 340.382812 L 170.851562 340.183594 L 170.566406 340.015625 L 170.265625 339.890625 L 169.945312 339.796875 L 169.605469 339.742188 Z M 169.25 339.726562 "/>
<path fill-rule="nonzero" fill="rgb(10.196078%, 10.196078%, 10.196078%)" fill-opacity="1" d="M 366.503906 338.800781 L 366.503906 355.425781 L 365.054688 355.425781 L 365.054688 340.402344 L 360.953125 342.949219 L 360.277344 341.875 L 365.253906 338.800781 Z M 366.503906 338.800781 "/>
<path fill-rule="nonzero" fill="rgb(10.196078%, 10.196078%, 10.196078%)" fill-opacity="1" d="M 376.402344 338.527344 L 376.90625 338.546875 L 377.382812 338.613281 L 377.835938 338.722656 L 378.261719 338.878906 L 378.664062 339.074219 L 379.042969 339.316406 L 379.394531 339.601562 L 379.722656 339.933594 L 380.027344 340.308594 L 380.304688 340.726562 L 380.554688 341.179688 L 380.78125 341.675781 L 380.980469 342.214844 L 381.152344 342.792969 L 381.296875 343.414062 L 381.414062 344.074219 L 381.507812 344.773438 L 381.574219 345.515625 L 381.613281 346.300781 L 381.628906 347.125 L 381.613281 347.945312 L 381.574219 348.726562 L 381.507812 349.464844 L 381.410156 350.164062 L 381.289062 350.824219 L 381.140625 351.445312 L 380.964844 352.027344 L 380.765625 352.566406 L 380.535156 353.066406 L 380.277344 353.527344 L 380 353.9375 L 379.699219 354.308594 L 379.371094 354.632812 L 379.023438 354.917969 L 378.648438 355.15625 L 378.246094 355.351562 L 377.824219 355.503906 L 377.375 355.613281 L 376.902344 355.679688 L 376.402344 355.699219 L 375.902344 355.679688 L 375.421875 355.613281 L 374.96875 355.503906 L 374.542969 355.351562 L 374.140625 355.15625 L 373.761719 354.917969 L 373.410156 354.632812 L 373.082031 354.308594 L 372.78125 353.9375 L 372.503906 353.527344 L 372.25 353.066406 L 372.027344 352.5625 L 371.828125 352.023438 L 371.65625 351.441406 L 371.507812 350.820312 L 371.390625 350.15625 L 371.296875 349.453125 L 371.230469 348.710938 L 371.191406 347.925781 L 371.179688 347.101562 L 371.191406 346.277344 L 371.230469 345.492188 L 371.296875 344.75 L 371.390625 344.046875 L 371.507812 343.386719 L 371.65625 342.769531 L 371.828125 342.191406 L 372.027344 341.652344 L 372.25 341.15625 L 372.503906 340.699219 L 372.78125 340.289062 L 373.082031 339.917969 L 373.410156 339.589844 L 373.761719 339.308594 L 374.140625 339.070312 L 374.542969 338.875 L 374.96875 338.722656 L 375.421875 338.613281 L 375.902344 338.546875 Z M 376.402344 339.726562 L 375.695312 339.800781 L 375.0625 340.019531 L 374.503906 340.390625 L 374.019531 340.90625 L 373.609375 341.570312 L 373.273438 342.378906 L 373.011719 343.339844 L 372.828125 344.445312 L 372.714844 345.699219 L 372.679688 347.101562 L 372.714844 348.507812 L 372.828125 349.765625 L 373.011719 350.875 L 373.273438 351.835938 L 373.609375 352.652344 L 374.019531 353.316406 L 374.503906 353.835938 L 375.0625 354.203125 L 375.695312 354.425781 L 376.402344 354.5 L 376.757812 354.484375 L 377.097656 354.429688 L 377.417969 354.339844 L 377.71875 354.210938 L 378.003906 354.050781 L 378.269531 353.851562 L 378.515625 353.617188 L 378.746094 353.347656 L 378.957031 353.042969 L 379.152344 352.699219 L 379.332031 352.320312 L 379.496094 351.902344 L 379.636719 351.441406 L 379.761719 350.945312 L 379.867188 350.40625 L 379.949219 349.828125 L 380.015625 349.210938 L 380.066406 348.554688 L 380.09375 347.859375 L 380.101562 347.125 L 380.09375 346.390625 L 380.066406 345.695312 L 380.015625 345.039062 L 379.949219 344.421875 L 379.867188 343.84375 L 379.761719 343.304688 L 379.636719 342.808594 L 379.496094 342.347656 L 379.332031 341.929688 L 379.152344 341.550781 L 378.957031 341.203125 L 378.746094 340.894531 L 378.515625 340.621094 L 378.269531 340.382812 L 378.003906 340.183594 L 377.71875 340.015625 L 377.417969 339.890625 L 377.097656 339.796875 L 376.757812 339.742188 Z M 376.402344 339.726562 "/>
<path fill-rule="nonzero" fill="rgb(10.196078%, 10.196078%, 10.196078%)" fill-opacity="1" d="M 390.152344 338.527344 L 390.65625 338.546875 L 391.132812 338.613281 L 391.585938 338.722656 L 392.011719 338.878906 L 392.414062 339.074219 L 392.792969 339.316406 L 393.144531 339.601562 L 393.472656 339.933594 L 393.777344 340.308594 L 394.054688 340.726562 L 394.304688 341.179688 L 394.53125 341.675781 L 394.730469 342.214844 L 394.902344 342.792969 L 395.046875 343.414062 L 395.164062 344.074219 L 395.257812 344.773438 L 395.324219 345.515625 L 395.363281 346.300781 L 395.378906 347.125 L 395.363281 347.945312 L 395.324219 348.726562 L 395.257812 349.464844 L 395.160156 350.164062 L 395.039062 350.824219 L 394.890625 351.445312 L 394.714844 352.027344 L 394.515625 352.566406 L 394.285156 353.066406 L 394.027344 353.527344 L 393.75 353.9375 L 393.449219 354.308594 L 393.121094 354.632812 L 392.773438 354.917969 L 392.398438 355.15625 L 391.996094 355.351562 L 391.574219 355.503906 L 391.125 355.613281 L 390.652344 355.679688 L 390.152344 355.699219 L 389.652344 355.679688 L 389.171875 355.613281 L 388.71875 355.503906 L 388.292969 355.351562 L 387.890625 355.15625 L 387.511719 354.917969 L 387.160156 354.632812 L 386.832031 354.308594 L 386.53125 353.9375 L 386.253906 353.527344 L 386 353.066406 L 385.777344 352.5625 L 385.578125 352.023438 L 385.40625 351.441406 L 385.257812 350.820312 L 385.140625 350.15625 L 385.046875 349.453125 L 384.980469 348.710938 L 384.941406 347.925781 L 384.929688 347.101562 L 384.941406 346.277344 L 384.980469 345.492188 L 385.046875 344.75 L 385.140625 344.046875 L 385.257812 343.386719 L 385.40625 342.769531 L 385.578125 342.191406 L 385.777344 341.652344 L 386 341.15625 L 386.253906 340.699219 L 386.53125 340.289062 L 386.832031 339.917969 L 387.160156 339.589844 L 387.511719 339.308594 L 387.890625 339.070312 L 388.292969 338.875 L 388.71875 338.722656 L 389.171875 338.613281 L 389.652344 338.546875 Z M 390.152344 339.726562 L 389.445312 339.800781 L 388.8125 340.019531 L 388.253906 340.390625 L 387.769531 340.90625 L 387.359375 341.570312 L 387.023438 342.378906 L 386.761719 343.339844 L 386.578125 344.445312 L 386.464844 345.699219 L 386.429688 347.101562 L 386.464844 348.507812 L 386.578125 349.765625 L 386.761719 350.875 L 387.023438 351.835938 L 387.359375 352.652344 L 387.769531 353.316406 L 388.253906 353.835938 L 388.8125 354.203125 L 389.445312 354.425781 L 390.152344 354.5 L 390.507812 354.484375 L 390.847656 354.429688 L 391.167969 354.339844 L 391.46875 354.210938 L 391.753906 354.050781 L 392.019531 353.851562 L 392.265625 353.617188 L 392.496094 353.347656 L 392.707031 353.042969 L 392.902344 352.699219 L 393.082031 352.320312 L 393.246094 351.902344 L 393.386719 351.441406 L 393.511719 350.945312 L 393.617188 350.40625 L 393.699219 349.828125 L 393.765625 349.210938 L 393.816406 348.554688 L 393.84375 347.859375 L 393.851562 347.125 L 393.84375 346.390625 L 393.816406 345.695312 L 393.765625 345.039062 L 393.699219 344.421875 L 393.617188 343.84375 L 393.511719 343.304688 L 393.386719 342.808594 L 393.246094 342.347656 L 393.082031 341.929688 L 392.902344 341.550781 L 392.707031 341.203125 L 392.496094 340.894531 L 392.265625 340.621094 L 392.019531 340.382812 L 391.753906 340.183594 L 391.46875 340.015625 L 391.167969 339.890625 L 390.847656 339.796875 L 390.507812 339.742188 Z M 390.152344 339.726562 "/>
<path fill-rule="nonzero" fill="rgb(10.196078%, 10.196078%, 10.196078%)" fill-opacity="1" d="M 572.867188 338.527344 L 573.28125 338.539062 L 573.671875 338.574219 L 574.050781 338.636719 L 574.40625 338.722656 L 574.75 338.832031 L 575.074219 338.964844 L 575.378906 339.125 L 575.667969 339.308594 L 575.9375 339.519531 L 576.191406 339.75 L 576.429688 340.003906 L 576.644531 340.269531 L 576.832031 340.546875 L 576.992188 340.84375 L 577.128906 341.152344 L 577.242188 341.472656 L 577.332031 341.808594 L 577.394531 342.160156 L 577.429688 342.523438 L 577.441406 342.902344 L 577.4375 343.222656 L 577.417969 343.542969 L 577.382812 343.859375 L 577.335938 344.167969 L 577.273438 344.476562 L 577.199219 344.777344 L 577.113281 345.078125 L 577.011719 345.371094 L 576.894531 345.664062 L 576.769531 345.949219 L 576.625 346.238281 L 576.46875 346.53125 L 576.292969 346.832031 L 576.105469 347.132812 L 575.898438 347.445312 L 575.679688 347.757812 L 575.445312 348.082031 L 575.191406 348.40625 L 574.925781 348.738281 L 574.644531 349.074219 L 574.339844 349.433594 L 574.003906 349.824219 L 573.628906 350.246094 L 573.21875 350.703125 L 572.773438 351.195312 L 572.292969 351.71875 L 571.777344 352.277344 L 571.226562 352.867188 L 570.640625 353.492188 L 570.019531 354.152344 L 577.894531 354.152344 L 577.691406 355.425781 L 568.316406 355.425781 L 568.316406 354.199219 L 568.984375 353.488281 L 569.609375 352.816406 L 570.199219 352.179688 L 570.746094 351.585938 L 571.253906 351.027344 L 571.726562 350.503906 L 572.15625 350.019531 L 572.550781 349.578125 L 572.902344 349.167969 L 573.21875 348.800781 L 573.507812 348.449219 L 573.78125 348.109375 L 574.039062 347.78125 L 574.273438 347.460938 L 574.492188 347.152344 L 574.695312 346.851562 L 574.878906 346.558594 L 575.042969 346.28125 L 575.1875 346.011719 L 575.316406 345.75 L 575.4375 345.488281 L 575.542969 345.222656 L 575.636719 344.953125 L 575.71875 344.683594 L 575.785156 344.40625 L 575.84375 344.128906 L 575.886719 343.84375 L 575.917969 343.558594 L 575.9375 343.269531 L 575.941406 342.976562 L 575.933594 342.6875 L 575.90625 342.410156 L 575.863281 342.144531 L 575.804688 341.890625 L 575.722656 341.652344 L 575.628906 341.421875 L 575.515625 341.203125 L 575.382812 341 L 575.234375 340.804688 L 575.066406 340.625 L 574.890625 340.460938 L 574.707031 340.308594 L 574.507812 340.179688 L 574.296875 340.066406 L 574.074219 339.96875 L 573.839844 339.890625 L 573.597656 339.828125 L 573.339844 339.785156 L 573.074219 339.757812 L 572.792969 339.75 L 572.566406 339.753906 L 572.34375 339.769531 L 572.125 339.792969 L 571.914062 339.828125 L 571.707031 339.871094 L 571.503906 339.921875 L 571.304688 339.984375 L 571.113281 340.054688 L 570.925781 340.136719 L 570.742188 340.226562 L 570.570312 340.324219 L 570.394531 340.433594 L 570.226562 340.554688 L 570.054688 340.679688 L 569.886719 340.820312 L 569.71875 340.964844 L 569.554688 341.125 L 569.390625 341.289062 L 569.230469 341.464844 L 569.066406 341.652344 L 568.066406 340.902344 L 568.269531 340.660156 L 568.472656 340.4375 L 568.679688 340.222656 L 568.890625 340.023438 L 569.105469 339.839844 L 569.320312 339.664062 L 569.542969 339.503906 L 569.765625 339.355469 L 569.988281 339.222656 L 570.21875 339.101562 L 570.457031 338.992188 L 570.699219 338.894531 L 570.949219 338.808594 L 571.207031 338.734375 L 571.46875 338.667969 L 571.734375 338.617188 L 572.011719 338.578125 L 572.289062 338.546875 L 572.574219 338.53125 Z M 572.867188 338.527344 "/>
<path fill-rule="nonzero" fill="rgb(10.196078%, 10.196078%, 10.196078%)" fill-opacity="1" d="M 586.09375 338.527344 L 586.59375 338.546875 L 587.074219 338.613281 L 587.527344 338.722656 L 587.953125 338.878906 L 588.355469 339.074219 L 588.734375 339.316406 L 589.085938 339.601562 L 589.414062 339.933594 L 589.714844 340.308594 L 589.992188 340.726562 L 590.246094 341.179688 L 590.46875 341.675781 L 590.667969 342.214844 L 590.839844 342.792969 L 590.988281 343.414062 L 591.105469 344.074219 L 591.199219 344.773438 L 591.265625 345.515625 L 591.304688 346.300781 L 591.316406 347.125 L 591.304688 347.945312 L 591.265625 348.726562 L 591.195312 349.464844 L 591.101562 350.164062 L 590.980469 350.824219 L 590.832031 351.445312 L 590.65625 352.027344 L 590.453125 352.566406 L 590.226562 353.066406 L 589.96875 353.527344 L 589.691406 353.9375 L 589.390625 354.308594 L 589.0625 354.632812 L 588.710938 354.917969 L 588.335938 355.15625 L 587.9375 355.351562 L 587.511719 355.503906 L 587.0625 355.613281 L 586.589844 355.679688 L 586.09375 355.699219 L 585.589844 355.679688 L 585.113281 355.613281 L 584.660156 355.503906 L 584.234375 355.351562 L 583.832031 355.15625 L 583.453125 354.917969 L 583.101562 354.632812 L 582.773438 354.308594 L 582.46875 353.9375 L 582.191406 353.527344 L 581.941406 353.066406 L 581.714844 352.5625 L 581.515625 352.023438 L 581.34375 351.441406 L 581.199219 350.820312 L 581.082031 350.15625 L 580.988281 349.453125 L 580.921875 348.710938 L 580.882812 347.925781 L 580.867188 347.101562 L 580.882812 346.277344 L 580.921875 345.492188 L 580.988281 344.75 L 581.082031 344.046875 L 581.199219 343.386719 L 581.34375 342.769531 L 581.515625 342.191406 L 581.714844 341.652344 L 581.941406 341.15625 L 582.191406 340.699219 L 582.46875 340.289062 L 582.773438 339.917969 L 583.101562 339.589844 L 583.453125 339.308594 L 583.832031 339.070312 L 584.234375 338.875 L 584.660156 338.722656 L 585.113281 338.613281 L 585.589844 338.546875 Z M 586.09375 339.726562 L 585.386719 339.800781 L 584.753906 340.019531 L 584.195312 340.390625 L 583.710938 340.90625 L 583.300781 341.570312 L 582.964844 342.378906 L 582.703125 343.339844 L 582.515625 344.445312 L 582.40625 345.699219 L 582.367188 347.101562 L 582.40625 348.507812 L 582.515625 349.765625 L 582.703125 350.875 L 582.964844 351.835938 L 583.300781 352.652344 L 583.710938 353.316406 L 584.195312 353.835938 L 584.753906 354.203125 L 585.386719 354.425781 L 586.09375 354.5 L 586.449219 354.484375 L 586.789062 354.429688 L 587.105469 354.339844 L 587.410156 354.210938 L 587.691406 354.050781 L 587.960938 353.851562 L 588.207031 353.617188 L 588.4375 353.347656 L 588.648438 353.042969 L 588.84375 352.699219 L 589.023438 352.320312 L 589.183594 351.902344 L 589.328125 351.441406 L 589.449219 350.945312 L 589.554688 350.40625 L 589.640625 349.828125 L 589.707031 349.210938 L 589.753906 348.554688 L 589.785156 347.859375 L 589.792969 347.125 L 589.785156 346.390625 L 589.753906 345.695312 L 589.707031 345.039062 L 589.640625 344.421875 L 589.554688 343.84375 L 589.449219 343.304688 L 589.328125 342.808594 L 589.183594 342.347656 L 589.023438 341.929688 L 588.84375 341.550781 L 588.648438 341.203125 L 588.4375 340.894531 L 588.207031 340.621094 L 587.960938 340.382812 L 587.691406 340.183594 L 587.410156 340.015625 L 587.105469 339.890625 L 586.789062 339.796875 L 586.449219 339.742188 Z M 586.09375 339.726562 "/>
<path fill-rule="nonzero" fill="rgb(10.196078%, 10.196078%, 10.196078%)" fill-opacity="1" d="M 599.84375 338.527344 L 600.34375 338.546875 L 600.824219 338.613281 L 601.277344 338.722656 L 601.703125 338.878906 L 602.105469 339.074219 L 602.484375 339.316406 L 602.835938 339.601562 L 603.164062 339.933594 L 603.464844 340.308594 L 603.742188 340.726562 L 603.996094 341.179688 L 604.21875 341.675781 L 604.417969 342.214844 L 604.589844 342.792969 L 604.738281 343.414062 L 604.855469 344.074219 L 604.949219 344.773438 L 605.015625 345.515625 L 605.054688 346.300781 L 605.066406 347.125 L 605.054688 347.945312 L 605.015625 348.726562 L 604.945312 349.464844 L 604.851562 350.164062 L 604.730469 350.824219 L 604.582031 351.445312 L 604.40625 352.027344 L 604.203125 352.566406 L 603.976562 353.066406 L 603.71875 353.527344 L 603.441406 353.9375 L 603.140625 354.308594 L 602.8125 354.632812 L 602.460938 354.917969 L 602.085938 355.15625 L 601.6875 355.351562 L 601.261719 355.503906 L 600.8125 355.613281 L 600.339844 355.679688 L 599.84375 355.699219 L 599.339844 355.679688 L 598.863281 355.613281 L 598.410156 355.503906 L 597.984375 355.351562 L 597.582031 355.15625 L 597.203125 354.917969 L 596.851562 354.632812 L 596.523438 354.308594 L 596.21875 353.9375 L 595.941406 353.527344 L 595.691406 353.066406 L 595.464844 352.5625 L 595.265625 352.023438 L 595.09375 351.441406 L 594.949219 350.820312 L 594.832031 350.15625 L 594.738281 349.453125 L 594.671875 348.710938 L 594.632812 347.925781 L 594.617188 347.101562 L 594.632812 346.277344 L 594.671875 345.492188 L 594.738281 344.75 L 594.832031 344.046875 L 594.949219 343.386719 L 595.09375 342.769531 L 595.265625 342.191406 L 595.464844 341.652344 L 595.691406 341.15625 L 595.941406 340.699219 L 596.21875 340.289062 L 596.523438 339.917969 L 596.851562 339.589844 L 597.203125 339.308594 L 597.582031 339.070312 L 597.984375 338.875 L 598.410156 338.722656 L 598.863281 338.613281 L 599.339844 338.546875 Z M 599.84375 339.726562 L 599.136719 339.800781 L 598.503906 340.019531 L 597.945312 340.390625 L 597.460938 340.90625 L 597.050781 341.570312 L 596.714844 342.378906 L 596.453125 343.339844 L 596.265625 344.445312 L 596.15625 345.699219 L 596.117188 347.101562 L 596.15625 348.507812 L 596.265625 349.765625 L 596.453125 350.875 L 596.714844 351.835938 L 597.050781 352.652344 L 597.460938 353.316406 L 597.945312 353.835938 L 598.503906 354.203125 L 599.136719 354.425781 L 599.84375 354.5 L 600.199219 354.484375 L 600.539062 354.429688 L 600.855469 354.339844 L 601.160156 354.210938 L 601.441406 354.050781 L 601.710938 353.851562 L 601.957031 353.617188 L 602.1875 353.347656 L 602.398438 353.042969 L 602.59375 352.699219 L 602.773438 352.320312 L 602.933594 351.902344 L 603.078125 351.441406 L 603.199219 350.945312 L 603.304688 350.40625 L 603.390625 349.828125 L 603.457031 349.210938 L 603.503906 348.554688 L 603.535156 347.859375 L 603.542969 347.125 L 603.535156 346.390625 L 603.503906 345.695312 L 603.457031 345.039062 L 603.390625 344.421875 L 603.304688 343.84375 L 603.199219 343.304688 L 603.078125 342.808594 L 602.933594 342.347656 L 602.773438 341.929688 L 602.59375 341.550781 L 602.398438 341.203125 L 602.1875 340.894531 L 601.957031 340.621094 L 601.710938 340.382812 L 601.441406 340.183594 L 601.160156 340.015625 L 600.855469 339.890625 L 600.539062 339.796875 L 600.199219 339.742188 Z M 599.84375 339.726562 "/>
<path fill-rule="nonzero" fill="rgb(56.078431%, 16.470588%, 26.27451%)" fill-opacity="0.698039" d="M 247.976562 44.382812 L 261.777344 44.382812 L 261.777344 28.636719 L 247.976562 28.636719 Z M 247.976562 44.382812 "/>
<path fill-rule="nonzero" fill="rgb(16.470588%, 56.078431%, 46.27451%)" fill-opacity="0.698039" d="M 398.621094 44.382812 L 412.421875 44.382812 L 412.421875 28.636719 L 398.621094 28.636719 Z M 398.621094 44.382812 "/>
<path fill-rule="nonzero" fill="rgb(0%, 0%, 0%)" fill-opacity="1" d="M 282.019531 32.375 L 282.230469 32.378906 L 282.4375 32.386719 L 282.636719 32.402344 L 282.835938 32.425781 L 283.03125 32.457031 L 283.21875 32.492188 L 283.40625 32.535156 L 283.589844 32.582031 L 283.769531 32.636719 L 284.113281 32.761719 L 284.285156 32.832031 L 284.457031 32.910156 L 284.628906 32.992188 L 284.796875 33.082031 L 284.964844 33.179688 L 285.132812 33.28125 L 285.296875 33.390625 L 285.464844 33.503906 L 285.628906 33.628906 L 285.042969 34.449219 L 284.890625 34.34375 L 284.738281 34.246094 L 284.585938 34.152344 L 284.4375 34.066406 L 284.289062 33.984375 L 284 33.839844 L 283.855469 33.777344 L 283.714844 33.722656 L 283.574219 33.671875 L 283.4375 33.621094 L 283.292969 33.578125 L 283.148438 33.539062 L 283 33.503906 L 282.851562 33.476562 L 282.699219 33.453125 L 282.542969 33.433594 L 282.386719 33.421875 L 282.226562 33.414062 L 282.0625 33.410156 L 281.84375 33.417969 L 281.632812 33.433594 L 281.429688 33.457031 L 281.234375 33.496094 L 281.046875 33.542969 L 280.871094 33.597656 L 280.703125 33.664062 L 280.542969 33.742188 L 280.390625 33.832031 L 280.25 33.929688 L 280.117188 34.035156 L 280 34.152344 L 279.898438 34.273438 L 279.808594 34.398438 L 279.730469 34.535156 L 279.667969 34.675781 L 279.621094 34.824219 L 279.585938 34.980469 L 279.566406 35.144531 L 279.558594 35.3125 L 279.5625 35.472656 L 279.582031 35.625 L 279.609375 35.773438 L 279.652344 35.910156 L 279.703125 36.042969 L 279.769531 36.164062 L 279.84375 36.28125 L 279.929688 36.390625 L 280.03125 36.492188 L 280.140625 36.585938 L 280.273438 36.675781 L 280.421875 36.765625 L 280.589844 36.855469 L 280.777344 36.941406 L 280.984375 37.03125 L 281.210938 37.117188 L 281.453125 37.199219 L 281.71875 37.285156 L 282 37.367188 L 282.300781 37.449219 L 282.675781 37.550781 L 283.027344 37.660156 L 283.359375 37.773438 L 283.667969 37.890625 L 283.953125 38.011719 L 284.21875 38.140625 L 284.464844 38.273438 L 284.6875 38.410156 L 284.886719 38.554688 L 285.066406 38.703125 L 285.230469 38.859375 L 285.378906 39.03125 L 285.507812 39.214844 L 285.617188 39.410156 L 285.714844 39.621094 L 285.792969 39.84375 L 285.851562 40.078125 L 285.894531 40.328125 L 285.921875 40.589844 L 285.929688 40.863281 L 285.917969 41.160156 L 285.882812 41.441406 L 285.824219 41.714844 L 285.742188 41.972656 L 285.636719 42.21875 L 285.511719 42.453125 L 285.359375 42.671875 L 285.183594 42.882812 L 284.984375 43.078125 L 284.761719 43.261719 L 284.523438 43.429688 L 284.273438 43.578125 L 284.011719 43.710938 L 283.738281 43.828125 L 283.453125 43.925781 L 283.152344 44.003906 L 282.84375 44.066406 L 282.523438 44.109375 L 282.191406 44.136719 L 281.847656 44.148438 L 281.589844 44.144531 L 281.34375 44.132812 L 281.097656 44.113281 L 280.863281 44.089844 L 280.632812 44.054688 L 280.410156 44.015625 L 280.191406 43.96875 L 279.980469 43.910156 L 279.777344 43.847656 L 279.578125 43.78125 L 279.386719 43.699219 L 279.199219 43.613281 L 279.011719 43.519531 L 278.828125 43.421875 L 278.652344 43.316406 L 278.476562 43.203125 L 278.304688 43.085938 L 278.136719 42.964844 L 277.96875 42.835938 L 277.808594 42.699219 L 278.5 41.898438 L 278.652344 42.019531 L 278.804688 42.128906 L 278.957031 42.234375 L 279.109375 42.335938 L 279.261719 42.429688 L 279.414062 42.515625 L 279.570312 42.597656 L 279.722656 42.675781 L 280.035156 42.808594 L 280.195312 42.859375 L 280.359375 42.910156 L 280.703125 42.988281 L 280.882812 43.019531 L 281.0625 43.042969 L 281.246094 43.0625 L 281.4375 43.078125 L 281.628906 43.085938 L 281.824219 43.089844 L 282.070312 43.082031 L 282.308594 43.066406 L 282.53125 43.039062 L 282.75 43 L 282.953125 42.949219 L 283.152344 42.886719 L 283.335938 42.8125 L 283.511719 42.730469 L 283.679688 42.632812 L 283.835938 42.527344 L 283.984375 42.40625 L 284.113281 42.277344 L 284.230469 42.136719 L 284.332031 41.992188 L 284.417969 41.835938 L 284.488281 41.671875 L 284.542969 41.5 L 284.582031 41.316406 L 284.605469 41.128906 L 284.613281 40.929688 L 284.609375 40.792969 L 284.601562 40.664062 L 284.589844 40.535156 L 284.570312 40.417969 L 284.546875 40.300781 L 284.519531 40.191406 L 284.484375 40.085938 L 284.445312 39.988281 L 284.402344 39.894531 L 284.351562 39.804688 L 284.296875 39.71875 L 284.234375 39.636719 L 284.164062 39.558594 L 284.085938 39.480469 L 284.003906 39.40625 L 283.910156 39.332031 L 283.808594 39.265625 L 283.703125 39.195312 L 283.589844 39.132812 L 283.46875 39.070312 L 283.335938 39.007812 L 283.195312 38.941406 L 283.039062 38.875 L 282.875 38.8125 L 282.695312 38.746094 L 282.507812 38.683594 L 282.304688 38.617188 L 282.09375 38.550781 L 281.867188 38.488281 L 281.632812 38.421875 L 281.28125 38.324219 L 280.953125 38.222656 L 280.644531 38.117188 L 280.355469 38.003906 L 280.085938 37.886719 L 279.839844 37.765625 L 279.609375 37.640625 L 279.398438 37.511719 L 279.210938 37.375 L 279.039062 37.234375 L 278.890625 37.085938 L 278.757812 36.929688 L 278.644531 36.765625 L 278.542969 36.589844 L 278.457031 36.402344 L 278.386719 36.207031 L 278.332031 36.003906 L 278.292969 35.789062 L 278.269531 35.566406 L 278.261719 35.332031 L 278.265625 35.167969 L 278.28125 35.003906 L 278.308594 34.84375 L 278.339844 34.6875 L 278.386719 34.535156 L 278.441406 34.386719 L 278.503906 34.238281 L 278.578125 34.097656 L 278.664062 33.957031 L 278.757812 33.820312 L 278.863281 33.6875 L 278.972656 33.558594 L 279.089844 33.4375 L 279.210938 33.320312 L 279.34375 33.210938 L 279.480469 33.109375 L 279.625 33.011719 L 279.773438 32.921875 L 279.933594 32.839844 L 280.097656 32.761719 L 280.273438 32.691406 L 280.453125 32.625 L 280.632812 32.566406 L 280.820312 32.515625 L 281.011719 32.472656 L 281.203125 32.4375 L 281.402344 32.410156 L 281.605469 32.390625 L 281.8125 32.378906 Z M 282.019531 32.375 "/>
<path fill-rule="nonzero" fill="rgb(0%, 0%, 0%)" fill-opacity="1" d="M 297.335938 28.011719 L 297.335938 43.910156 L 296.253906 43.910156 L 296.105469 42.179688 L 295.859375 42.554688 L 295.59375 42.890625 L 295.308594 43.183594 L 295 43.4375 L 294.671875 43.65625 L 294.324219 43.832031 L 293.953125 43.96875 L 293.558594 44.066406 L 293.148438 44.128906 L 292.710938 44.148438 L 292.328125 44.132812 L 291.960938 44.085938 L 291.605469 44.007812 L 291.269531 43.898438 L 290.953125 43.757812 L 290.648438 43.585938 L 290.363281 43.382812 L 290.09375 43.152344 L 289.839844 42.886719 L 289.601562 42.589844 L 289.386719 42.265625 L 289.199219 41.914062 L 289.027344 41.542969 L 288.882812 41.148438 L 288.757812 40.734375 L 288.660156 40.296875 L 288.578125 39.832031 L 288.523438 39.351562 L 288.488281 38.84375 L 288.480469 38.316406 L 288.484375 37.96875 L 288.5 37.632812 L 288.527344 37.300781 L 288.5625 36.980469 L 288.609375 36.667969 L 288.664062 36.363281 L 288.734375 36.066406 L 288.8125 35.777344 L 288.898438 35.496094 L 288.996094 35.226562 L 289.109375 34.964844 L 289.230469 34.714844 L 289.363281 34.476562 L 289.5 34.246094 L 289.652344 34.03125 L 289.808594 33.828125 L 289.976562 33.636719 L 290.152344 33.457031 L 290.335938 33.289062 L 290.53125 33.128906 L 290.738281 32.988281 L 290.949219 32.859375 L 291.171875 32.746094 L 291.398438 32.648438 L 291.632812 32.5625 L 291.875 32.496094 L 292.121094 32.441406 L 292.375 32.40625 L 292.636719 32.382812 L 292.90625 32.375 L 293.285156 32.390625 L 293.648438 32.4375 L 294 32.511719 L 294.335938 32.621094 L 294.660156 32.757812 L 294.972656 32.925781 L 295.269531 33.125 L 295.554688 33.355469 L 295.824219 33.617188 L 296.082031 33.910156 L 296.082031 27.859375 Z M 292.90625 43.109375 L 293.121094 43.105469 L 293.324219 43.089844 L 293.523438 43.0625 L 293.714844 43.027344 L 293.902344 42.980469 L 294.078125 42.921875 L 294.25 42.855469 L 294.414062 42.777344 L 294.570312 42.691406 L 294.722656 42.589844 L 294.871094 42.484375 L 295.015625 42.363281 L 295.160156 42.230469 L 295.300781 42.089844 L 295.4375 41.9375 L 295.574219 41.773438 L 295.707031 41.601562 L 295.835938 41.417969 L 295.960938 41.222656 L 296.082031 41.015625 L 296.082031 35.117188 L 295.835938 34.792969 L 295.578125 34.503906 L 295.308594 34.246094 L 295.027344 34.027344 L 294.738281 33.839844 L 294.4375 33.683594 L 294.125 33.566406 L 293.800781 33.480469 L 293.46875 33.429688 L 293.121094 33.410156 L 292.824219 33.425781 L 292.535156 33.460938 L 292.257812 33.527344 L 291.996094 33.617188 L 291.746094 33.730469 L 291.507812 33.871094 L 291.28125 34.035156 L 291.070312 34.226562 L 290.871094 34.445312 L 290.683594 34.6875 L 290.515625 34.953125 L 290.363281 35.238281 L 290.230469 35.546875 L 290.117188 35.875 L 290.023438 36.226562 L 289.945312 36.597656 L 289.886719 36.988281 L 289.84375 37.402344 L 289.824219 37.835938 L 289.816406 38.292969 L 289.828125 38.75 L 289.851562 39.183594 L 289.890625 39.59375 L 289.949219 39.988281 L 290.023438 40.355469 L 290.113281 40.703125 L 290.21875 41.03125 L 290.34375 41.335938 L 290.484375 41.617188 L 290.640625 41.878906 L 290.808594 42.113281 L 290.992188 42.320312 L 291.1875 42.507812 L 291.394531 42.667969 L 291.617188 42.800781 L 291.847656 42.914062 L 292.09375 43 L 292.351562 43.0625 L 292.625 43.097656 Z M 292.90625 43.109375 "/>
<path fill-rule="nonzero" fill="rgb(0%, 0%, 0%)" fill-opacity="1" d="M 305.457031 26.347656 L 305.230469 26.6875 L 305.015625 27.015625 L 304.808594 27.339844 L 304.613281 27.65625 L 304.425781 27.964844 L 304.246094 28.265625 L 304.074219 28.558594 L 303.914062 28.84375 L 303.761719 29.121094 L 303.621094 29.394531 L 303.484375 29.660156 L 303.355469 29.9375 L 303.230469 30.21875 L 303.109375 30.511719 L 302.992188 30.808594 L 302.882812 31.113281 L 302.78125 31.429688 L 302.679688 31.75 L 302.585938 32.082031 L 302.496094 32.417969 L 302.417969 32.765625 L 302.347656 33.121094 L 302.289062 33.488281 L 302.234375 33.867188 L 302.1875 34.253906 L 302.152344 34.652344 L 302.125 35.0625 L 302.101562 35.480469 L 302.089844 35.910156 L 302.085938 36.347656 L 302.089844 36.789062 L 302.101562 37.21875 L 302.125 37.636719 L 302.152344 38.046875 L 302.1875 38.445312 L 302.234375 38.832031 L 302.289062 39.210938 L 302.347656 39.578125 L 302.417969 39.933594 L 302.496094 40.28125 L 302.585938 40.617188 L 302.679688 40.949219 L 302.78125 41.269531 L 302.882812 41.585938 L 302.992188 41.894531 L 303.109375 42.195312 L 303.230469 42.488281 L 303.355469 42.777344 L 303.484375 43.054688 L 303.621094 43.324219 L 303.761719 43.59375 L 303.914062 43.867188 L 304.074219 44.152344 L 304.246094 44.441406 L 304.425781 44.742188 L 304.613281 45.046875 L 304.808594 45.359375 L 305.015625 45.683594 L 305.230469 46.011719 L 305.457031 46.351562 L 304.65625 46.867188 L 304.394531 46.496094 L 304.144531 46.136719 L 303.902344 45.789062 L 303.675781 45.453125 L 303.457031 45.125 L 303.253906 44.808594 L 303.058594 44.503906 L 302.875 44.207031 L 302.703125 43.921875 L 302.539062 43.648438 L 302.390625 43.378906 L 302.25 43.097656 L 302.109375 42.804688 L 301.976562 42.507812 L 301.847656 42.199219 L 301.726562 41.878906 L 301.609375 41.554688 L 301.496094 41.21875 L 301.390625 40.871094 L 301.289062 40.519531 L 301.191406 40.152344 L 301.109375 39.777344 L 301.035156 39.390625 L 300.96875 38.992188 L 300.914062 38.578125 L 300.871094 38.15625 L 300.835938 37.722656 L 300.8125 37.277344 L 300.796875 36.820312 L 300.789062 36.347656 L 300.796875 35.878906 L 300.8125 35.421875 L 300.835938 34.976562 L 300.871094 34.542969 L 300.914062 34.117188 L 300.96875 33.707031 L 301.035156 33.308594 L 301.109375 32.921875 L 301.191406 32.542969 L 301.289062 32.179688 L 301.390625 31.828125 L 301.496094 31.480469 L 301.609375 31.144531 L 301.726562 30.820312 L 301.847656 30.5 L 301.976562 30.191406 L 302.109375 29.894531 L 302.25 29.601562 L 302.390625 29.320312 L 302.539062 29.046875 L 302.703125 28.773438 L 302.875 28.492188 L 303.058594 28.195312 L 303.253906 27.890625 L 303.457031 27.574219 L 303.675781 27.246094 L 303.902344 26.910156 L 304.144531 26.558594 L 304.394531 26.199219 L 304.65625 25.828125 Z M 305.457031 26.347656 "/>
<path fill-rule="nonzero" fill="rgb(0%, 0%, 0%)" fill-opacity="1" d="M 312.324219 37.859375 L 316.300781 43.910156 L 314.789062 43.910156 L 311.527344 38.660156 L 308.285156 43.910156 L 306.839844 43.910156 L 310.8125 37.90625 L 307.355469 32.613281 L 308.824219 32.613281 L 311.589844 37.125 L 314.378906 32.613281 L 315.804688 32.613281 Z M 312.324219 37.859375 "/>
<path fill-rule="nonzero" fill="rgb(0%, 0%, 0%)" fill-opacity="1" d="M 318.503906 25.828125 L 318.765625 26.199219 L 319.015625 26.558594 L 319.253906 26.910156 L 319.480469 27.246094 L 319.695312 27.574219 L 319.898438 27.890625 L 320.09375 28.195312 L 320.273438 28.492188 L 320.441406 28.773438 L 320.597656 29.046875 L 320.75 29.320312 L 320.898438 29.601562 L 321.039062 29.894531 L 321.175781 30.191406 L 321.304688 30.5 L 321.429688 30.820312 L 321.550781 31.144531 L 321.664062 31.480469 L 321.769531 31.828125 L 321.871094 32.179688 L 321.96875 32.542969 L 322.050781 32.921875 L 322.125 33.308594 L 322.191406 33.707031 L 322.246094 34.117188 L 322.289062 34.542969 L 322.324219 34.976562 L 322.347656 35.421875 L 322.363281 35.878906 L 322.371094 36.347656 L 322.363281 36.820312 L 322.347656 37.277344 L 322.324219 37.722656 L 322.289062 38.15625 L 322.246094 38.578125 L 322.191406 38.992188 L 322.125 39.390625 L 322.050781 39.777344 L 321.96875 40.152344 L 321.871094 40.519531 L 321.769531 40.871094 L 321.664062 41.21875 L 321.550781 41.554688 L 321.429688 41.878906 L 321.304688 42.199219 L 321.175781 42.507812 L 321.039062 42.804688 L 320.898438 43.097656 L 320.75 43.378906 L 320.597656 43.648438 L 320.441406 43.921875 L 320.273438 44.207031 L 320.09375 44.503906 L 319.898438 44.808594 L 319.695312 45.125 L 319.480469 45.453125 L 319.253906 45.789062 L 319.015625 46.136719 L 318.765625 46.496094 L 318.503906 46.867188 L 317.703125 46.351562 L 317.929688 46.011719 L 318.144531 45.683594 L 318.351562 45.359375 L 318.546875 45.046875 L 318.734375 44.742188 L 318.914062 44.441406 L 319.085938 44.152344 L 319.246094 43.867188 L 319.398438 43.59375 L 319.539062 43.324219 L 319.675781 43.054688 L 319.804688 42.777344 L 319.929688 42.488281 L 320.046875 42.195312 L 320.160156 41.894531 L 320.269531 41.585938 L 320.371094 41.269531 L 320.464844 40.949219 L 320.554688 40.617188 L 320.640625 40.28125 L 320.722656 39.933594 L 320.796875 39.578125 L 320.863281 39.210938 L 320.917969 38.832031 L 320.964844 38.445312 L 321.003906 38.046875 L 321.035156 37.636719 L 321.054688 37.21875 L 321.070312 36.789062 L 321.074219 36.347656 L 321.070312 35.910156 L 321.054688 35.480469 L 321.035156 35.0625 L 321.003906 34.652344 L 320.964844 34.253906 L 320.917969 33.867188 L 320.863281 33.488281 L 320.796875 33.121094 L 320.722656 32.765625 L 320.640625 32.417969 L 320.554688 32.082031 L 320.464844 31.75 L 320.371094 31.429688 L 320.269531 31.113281 L 320.160156 30.808594 L 320.046875 30.511719 L 319.929688 30.21875 L 319.804688 29.9375 L 319.675781 29.660156 L 319.539062 29.394531 L 319.398438 29.121094 L 319.246094 28.84375 L 319.085938 28.558594 L 318.914062 28.265625 L 318.734375 27.964844 L 318.546875 27.65625 L 318.351562 27.339844 L 318.144531 27.015625 L 317.929688 26.6875 L 317.703125 26.347656 Z M 318.503906 25.828125 "/>
<path fill-rule="nonzero" fill="rgb(0%, 0%, 0%)" fill-opacity="1" d="M 331.050781 35.421875 L 331.050781 34.320312 L 338.71875 34.320312 L 338.71875 35.421875 Z M 331.050781 39.199219 L 331.050781 38.097656 L 338.71875 38.097656 L 338.71875 39.199219 Z M 331.050781 39.199219 "/>
<path fill-rule="nonzero" fill="rgb(0%, 0%, 0%)" fill-opacity="1" d="M 351.746094 29.308594 L 352.171875 29.324219 L 352.574219 29.367188 L 352.953125 29.445312 L 353.3125 29.554688 L 353.652344 29.691406 L 353.964844 29.859375 L 354.257812 30.058594 L 354.53125 30.289062 L 354.78125 30.550781 L 355.007812 30.839844 L 355.214844 31.15625 L 355.402344 31.496094 L 355.570312 31.859375 L 355.710938 32.246094 L 355.832031 32.660156 L 355.933594 33.097656 L 356.007812 33.5625 L 356.0625 34.046875 L 356.097656 34.558594 L 356.109375 35.097656 L 356.101562 35.644531 L 356.078125 36.171875 L 356.035156 36.675781 L 355.980469 37.164062 L 355.910156 37.628906 L 355.820312 38.074219 L 355.71875 38.5 L 355.597656 38.90625 L 355.460938 39.289062 L 355.308594 39.652344 L 355.140625 40 L 354.960938 40.332031 L 354.761719 40.652344 L 354.550781 40.957031 L 354.320312 41.246094 L 354.078125 41.523438 L 353.820312 41.785156 L 353.546875 42.03125 L 353.257812 42.265625 L 352.953125 42.484375 L 352.636719 42.691406 L 352.300781 42.894531 L 351.945312 43.09375 L 351.570312 43.285156 L 351.171875 43.472656 L 350.757812 43.652344 L 350.320312 43.828125 L 349.863281 43.996094 L 349.390625 44.160156 L 348.894531 44.320312 L 348.570312 43.347656 L 349.152344 43.160156 L 349.707031 42.957031 L 350.230469 42.742188 L 350.726562 42.515625 L 351.195312 42.273438 L 351.632812 42.019531 L 352.042969 41.75 L 352.425781 41.46875 L 352.78125 41.171875 L 353.105469 40.863281 L 353.40625 40.535156 L 353.679688 40.1875 L 353.921875 39.8125 L 354.140625 39.414062 L 354.328125 38.996094 L 354.484375 38.550781 L 354.613281 38.085938 L 354.714844 37.59375 L 354.789062 37.082031 L 354.835938 36.542969 L 354.703125 36.730469 L 354.5625 36.90625 L 354.421875 37.078125 L 354.273438 37.238281 L 354.121094 37.390625 L 353.964844 37.535156 L 353.800781 37.671875 L 353.632812 37.800781 L 353.457031 37.921875 L 353.277344 38.035156 L 353.09375 38.132812 L 352.910156 38.21875 L 352.71875 38.296875 L 352.527344 38.367188 L 352.328125 38.421875 L 352.128906 38.46875 L 351.925781 38.503906 L 351.714844 38.53125 L 351.507812 38.546875 L 351.292969 38.550781 L 351.070312 38.546875 L 350.851562 38.53125 L 350.640625 38.503906 L 350.429688 38.464844 L 350.226562 38.417969 L 350.03125 38.359375 L 349.835938 38.289062 L 349.648438 38.207031 L 349.460938 38.113281 L 349.28125 38.011719 L 349.109375 37.894531 L 348.941406 37.769531 L 348.785156 37.632812 L 348.632812 37.492188 L 348.488281 37.335938 L 348.351562 37.175781 L 348.222656 37.003906 L 348.101562 36.824219 L 347.984375 36.632812 L 347.878906 36.433594 L 347.785156 36.226562 L 347.699219 36.007812 L 347.625 35.78125 L 347.5625 35.550781 L 347.507812 35.3125 L 347.460938 35.066406 L 347.425781 34.816406 L 347.402344 34.554688 L 347.386719 34.289062 L 347.382812 34.015625 L 347.386719 33.734375 L 347.40625 33.460938 L 347.433594 33.195312 L 347.472656 32.933594 L 347.523438 32.683594 L 347.585938 32.4375 L 347.65625 32.199219 L 347.742188 31.96875 L 347.835938 31.746094 L 347.945312 31.53125 L 348.0625 31.320312 L 348.191406 31.121094 L 348.332031 30.929688 L 348.476562 30.75 L 348.628906 30.582031 L 348.792969 30.421875 L 348.960938 30.273438 L 349.140625 30.136719 L 349.324219 30.007812 L 349.519531 29.890625 L 349.722656 29.78125 L 349.925781 29.679688 L 350.136719 29.59375 L 350.351562 29.515625 L 350.574219 29.453125 L 350.796875 29.402344 L 351.027344 29.359375 L 351.261719 29.332031 L 351.5 29.3125 Z M 351.507812 37.515625 L 351.707031 37.511719 L 351.90625 37.492188 L 352.097656 37.46875 L 352.285156 37.429688 L 352.46875 37.378906 L 352.648438 37.320312 L 352.824219 37.25 L 352.992188 37.171875 L 353.160156 37.078125 L 353.320312 36.976562 L 353.484375 36.859375 L 353.644531 36.730469 L 353.804688 36.59375 L 353.957031 36.445312 L 354.109375 36.289062 L 354.261719 36.121094 L 354.40625 35.945312 L 354.550781 35.757812 L 354.695312 35.5625 L 354.835938 35.355469 L 354.832031 34.855469 L 354.8125 34.382812 L 354.777344 33.9375 L 354.730469 33.515625 L 354.667969 33.125 L 354.585938 32.761719 L 354.492188 32.421875 L 354.382812 32.113281 L 354.261719 31.832031 L 354.121094 31.574219 L 353.964844 31.339844 L 353.792969 31.132812 L 353.601562 30.949219 L 353.394531 30.789062 L 353.171875 30.652344 L 352.929688 30.542969 L 352.667969 30.457031 L 352.394531 30.394531 L 352.097656 30.355469 L 351.789062 30.34375 L 351.503906 30.355469 L 351.234375 30.382812 L 350.972656 30.433594 L 350.726562 30.5 L 350.492188 30.585938 L 350.269531 30.695312 L 350.058594 30.820312 L 349.859375 30.964844 L 349.671875 31.132812 L 349.5 31.316406 L 349.34375 31.515625 L 349.203125 31.730469 L 349.082031 31.960938 L 348.972656 32.207031 L 348.882812 32.472656 L 348.808594 32.753906 L 348.75 33.050781 L 348.710938 33.363281 L 348.6875 33.691406 L 348.679688 34.039062 L 348.6875 34.363281 L 348.707031 34.671875 L 348.746094 34.96875 L 348.800781 35.246094 L 348.867188 35.511719 L 348.949219 35.761719 L 349.046875 35.996094 L 349.160156 36.214844 L 349.289062 36.417969 L 349.433594 36.609375 L 349.59375 36.78125 L 349.765625 36.933594 L 349.945312 37.070312 L 350.140625 37.1875 L 350.339844 37.289062 L 350.554688 37.371094 L 350.777344 37.433594 L 351.011719 37.480469 L 351.253906 37.507812 Z M 351.507812 37.515625 "/>
<path fill-rule="nonzero" fill="rgb(0%, 0%, 0%)" fill-opacity="1" d="M 359.652344 42.09375 L 359.738281 42.097656 L 359.824219 42.105469 L 359.90625 42.121094 L 359.984375 42.144531 L 360.0625 42.171875 L 360.132812 42.203125 L 360.203125 42.242188 L 360.265625 42.289062 L 360.328125 42.339844 L 360.441406 42.453125 L 360.492188 42.515625 L 360.539062 42.578125 L 360.578125 42.644531 L 360.613281 42.714844 L 360.640625 42.789062 L 360.660156 42.863281 L 360.675781 42.941406 L 360.683594 43.023438 L 360.6875 43.109375 L 360.683594 43.199219 L 360.675781 43.285156 L 360.660156 43.367188 L 360.640625 43.449219 L 360.613281 43.527344 L 360.578125 43.601562 L 360.539062 43.671875 L 360.492188 43.738281 L 360.441406 43.804688 L 360.386719 43.867188 L 360.328125 43.917969 L 360.265625 43.96875 L 360.203125 44.007812 L 360.132812 44.046875 L 360.0625 44.078125 L 359.984375 44.101562 L 359.90625 44.121094 L 359.824219 44.136719 L 359.738281 44.144531 L 359.652344 44.148438 L 359.566406 44.144531 L 359.402344 44.121094 L 359.324219 44.097656 L 359.25 44.070312 L 359.179688 44.039062 L 359.109375 44 L 359.042969 43.953125 L 358.976562 43.902344 L 358.917969 43.84375 L 358.859375 43.78125 L 358.808594 43.71875 L 358.761719 43.652344 L 358.722656 43.582031 L 358.691406 43.507812 L 358.664062 43.433594 L 358.640625 43.359375 L 358.625 43.277344 L 358.617188 43.195312 L 358.613281 43.109375 L 358.617188 43.023438 L 358.625 42.941406 L 358.640625 42.863281 L 358.664062 42.789062 L 358.691406 42.714844 L 358.722656 42.644531 L 358.761719 42.578125 L 358.808594 42.515625 L 358.859375 42.453125 L 358.917969 42.398438 L 358.976562 42.339844 L 359.042969 42.289062 L 359.109375 42.242188 L 359.179688 42.203125 L 359.25 42.171875 L 359.324219 42.144531 L 359.402344 42.121094 L 359.484375 42.105469 L 359.566406 42.097656 Z M 359.652344 42.09375 "/>
<path fill-rule="nonzero" fill="rgb(0%, 0%, 0%)" fill-opacity="1" d="M 367.40625 29.308594 L 367.832031 29.324219 L 368.234375 29.367188 L 368.613281 29.445312 L 368.972656 29.554688 L 369.3125 29.691406 L 369.625 29.859375 L 369.917969 30.058594 L 370.191406 30.289062 L 370.441406 30.550781 L 370.667969 30.839844 L 370.875 31.15625 L 371.0625 31.496094 L 371.230469 31.859375 L 371.371094 32.246094 L 371.492188 32.660156 L 371.59375 33.097656 L 371.667969 33.5625 L 371.722656 34.046875 L 371.757812 34.558594 L 371.769531 35.097656 L 371.761719 35.644531 L 371.738281 36.171875 L 371.695312 36.675781 L 371.640625 37.164062 L 371.570312 37.628906 L 371.480469 38.074219 L 371.375 38.5 L 371.257812 38.90625 L 371.121094 39.289062 L 370.96875 39.652344 L 370.800781 40 L 370.621094 40.332031 L 370.421875 40.652344 L 370.207031 40.957031 L 369.980469 41.246094 L 369.738281 41.523438 L 369.480469 41.785156 L 369.207031 42.03125 L 368.917969 42.265625 L 368.613281 42.484375 L 368.296875 42.691406 L 367.960938 42.894531 L 367.605469 43.09375 L 367.230469 43.285156 L 366.832031 43.472656 L 366.417969 43.652344 L 365.980469 43.828125 L 365.523438 43.996094 L 365.050781 44.160156 L 364.554688 44.320312 L 364.230469 43.347656 L 364.8125 43.160156 L 365.367188 42.957031 L 365.890625 42.742188 L 366.386719 42.515625 L 366.855469 42.273438 L 367.292969 42.019531 L 367.703125 41.75 L 368.085938 41.46875 L 368.441406 41.171875 L 368.765625 40.863281 L 369.066406 40.535156 L 369.339844 40.1875 L 369.582031 39.8125 L 369.800781 39.414062 L 369.988281 38.996094 L 370.144531 38.550781 L 370.273438 38.085938 L 370.375 37.59375 L 370.449219 37.082031 L 370.492188 36.542969 L 370.363281 36.730469 L 370.222656 36.90625 L 370.082031 37.078125 L 369.933594 37.238281 L 369.78125 37.390625 L 369.625 37.535156 L 369.460938 37.671875 L 369.292969 37.800781 L 369.117188 37.921875 L 368.9375 38.035156 L 368.753906 38.132812 L 368.570312 38.21875 L 368.378906 38.296875 L 368.183594 38.367188 L 367.988281 38.421875 L 367.789062 38.46875 L 367.585938 38.503906 L 367.375 38.53125 L 367.164062 38.546875 L 366.953125 38.550781 L 366.730469 38.546875 L 366.511719 38.53125 L 366.300781 38.503906 L 366.089844 38.464844 L 365.886719 38.417969 L 365.6875 38.359375 L 365.496094 38.289062 L 365.304688 38.207031 L 365.121094 38.113281 L 364.941406 38.011719 L 364.769531 37.894531 L 364.601562 37.769531 L 364.445312 37.632812 L 364.292969 37.492188 L 364.148438 37.335938 L 364.011719 37.175781 L 363.882812 37.003906 L 363.761719 36.824219 L 363.644531 36.632812 L 363.539062 36.433594 L 363.445312 36.226562 L 363.359375 36.007812 L 363.285156 35.78125 L 363.222656 35.550781 L 363.167969 35.3125 L 363.121094 35.066406 L 363.085938 34.816406 L 363.0625 34.554688 L 363.046875 34.289062 L 363.042969 34.015625 L 363.046875 33.734375 L 363.066406 33.460938 L 363.09375 33.195312 L 363.132812 32.933594 L 363.183594 32.683594 L 363.246094 32.4375 L 363.316406 32.199219 L 363.402344 31.96875 L 363.496094 31.746094 L 363.605469 31.53125 L 363.722656 31.320312 L 363.851562 31.121094 L 363.992188 30.929688 L 364.136719 30.75 L 364.289062 30.582031 L 364.453125 30.421875 L 364.621094 30.273438 L 364.800781 30.136719 L 364.984375 30.007812 L 365.179688 29.890625 L 365.382812 29.78125 L 365.585938 29.679688 L 365.796875 29.59375 L 366.011719 29.515625 L 366.234375 29.453125 L 366.457031 29.402344 L 366.6875 29.359375 L 366.921875 29.332031 L 367.160156 29.3125 Z M 367.167969 37.515625 L 367.367188 37.511719 L 367.566406 37.492188 L 367.757812 37.46875 L 367.945312 37.429688 L 368.128906 37.378906 L 368.308594 37.320312 L 368.484375 37.25 L 368.652344 37.171875 L 368.820312 37.078125 L 368.980469 36.976562 L 369.144531 36.859375 L 369.304688 36.730469 L 369.460938 36.59375 L 369.617188 36.445312 L 369.769531 36.289062 L 369.921875 36.121094 L 370.066406 35.945312 L 370.210938 35.757812 L 370.355469 35.5625 L 370.492188 35.355469 L 370.492188 34.855469 L 370.472656 34.382812 L 370.4375 33.9375 L 370.390625 33.515625 L 370.328125 33.125 L 370.246094 32.761719 L 370.152344 32.421875 L 370.042969 32.113281 L 369.921875 31.832031 L 369.78125 31.574219 L 369.625 31.339844 L 369.453125 31.132812 L 369.261719 30.949219 L 369.054688 30.789062 L 368.832031 30.652344 L 368.589844 30.542969 L 368.328125 30.457031 L 368.054688 30.394531 L 367.757812 30.355469 L 367.449219 30.34375 L 367.164062 30.355469 L 366.894531 30.382812 L 366.632812 30.433594 L 366.386719 30.5 L 366.152344 30.585938 L 365.929688 30.695312 L 365.71875 30.820312 L 365.519531 30.964844 L 365.332031 31.132812 L 365.160156 31.316406 L 365.003906 31.515625 L 364.863281 31.730469 L 364.738281 31.960938 L 364.632812 32.207031 L 364.542969 32.472656 L 364.46875 32.753906 L 364.410156 33.050781 L 364.371094 33.363281 L 364.347656 33.691406 L 364.339844 34.039062 L 364.34375 34.363281 L 364.367188 34.671875 L 364.40625 34.96875 L 364.457031 35.246094 L 364.527344 35.511719 L 364.609375 35.761719 L 364.707031 35.996094 L 364.820312 36.214844 L 364.949219 36.417969 L 365.09375 36.609375 L 365.253906 36.78125 L 365.425781 36.933594 L 365.605469 37.070312 L 365.800781 37.1875 L 366 37.289062 L 366.214844 37.371094 L 366.4375 37.433594 L 366.671875 37.480469 L 366.914062 37.507812 Z M 367.167969 37.515625 "/>
<path fill-rule="nonzero" fill="rgb(0%, 0%, 0%)" fill-opacity="1" d="M 377.945312 29.308594 L 378.300781 29.316406 L 378.640625 29.351562 L 378.964844 29.402344 L 379.277344 29.476562 L 379.570312 29.570312 L 379.851562 29.6875 L 380.117188 29.824219 L 380.363281 29.984375 L 380.597656 30.164062 L 380.820312 30.367188 L 381.023438 30.582031 L 381.207031 30.8125 L 381.371094 31.054688 L 381.511719 31.308594 L 381.628906 31.574219 L 381.726562 31.855469 L 381.800781 32.144531 L 381.855469 32.445312 L 381.886719 32.761719 L 381.898438 33.085938 L 381.894531 33.367188 L 381.875 33.640625 L 381.847656 33.914062 L 381.804688 34.183594 L 381.753906 34.449219 L 381.6875 34.710938 L 381.613281 34.96875 L 381.527344 35.222656 L 381.425781 35.476562 L 381.316406 35.722656 L 381.191406 35.972656 L 381.054688 36.226562 L 380.90625 36.484375 L 380.742188 36.746094 L 380.566406 37.011719 L 380.375 37.285156 L 380.171875 37.5625 L 379.953125 37.84375 L 379.722656 38.132812 L 379.480469 38.421875 L 379.21875 38.730469 L 378.925781 39.066406 L 378.601562 39.433594 L 378.25 39.828125 L 377.863281 40.253906 L 377.449219 40.707031 L 377.003906 41.1875 L 376.527344 41.699219 L 376.019531 42.238281 L 375.484375 42.808594 L 382.289062 42.808594 L 382.113281 43.910156 L 374.015625 43.910156 L 374.015625 42.851562 L 374.589844 42.238281 L 375.132812 41.65625 L 375.640625 41.105469 L 376.113281 40.589844 L 376.554688 40.109375 L 376.960938 39.65625 L 377.332031 39.238281 L 377.671875 38.855469 L 377.976562 38.503906 L 378.25 38.183594 L 378.5 37.882812 L 378.734375 37.589844 L 378.957031 37.304688 L 379.160156 37.027344 L 379.351562 36.757812 L 379.523438 36.5 L 379.683594 36.25 L 379.824219 36.007812 L 379.953125 35.773438 L 380.0625 35.550781 L 380.164062 35.324219 L 380.257812 35.09375 L 380.339844 34.863281 L 380.410156 34.628906 L 380.46875 34.390625 L 380.515625 34.148438 L 380.554688 33.902344 L 380.582031 33.65625 L 380.597656 33.40625 L 380.601562 33.152344 L 380.59375 32.902344 L 380.574219 32.664062 L 380.535156 32.433594 L 380.480469 32.214844 L 380.414062 32.007812 L 380.332031 31.808594 L 380.230469 31.621094 L 380.117188 31.445312 L 379.992188 31.277344 L 379.847656 31.121094 L 379.695312 30.976562 L 379.53125 30.851562 L 379.363281 30.738281 L 379.179688 30.636719 L 378.988281 30.554688 L 378.785156 30.488281 L 378.574219 30.433594 L 378.355469 30.394531 L 378.121094 30.375 L 377.882812 30.367188 L 377.683594 30.371094 L 377.492188 30.382812 L 377.304688 30.402344 L 377.121094 30.429688 L 376.941406 30.46875 L 376.765625 30.515625 L 376.597656 30.566406 L 376.429688 30.628906 L 376.269531 30.699219 L 376.109375 30.777344 L 375.960938 30.863281 L 375.808594 30.957031 L 375.664062 31.058594 L 375.515625 31.171875 L 375.371094 31.289062 L 375.226562 31.417969 L 375.082031 31.550781 L 374.941406 31.695312 L 374.800781 31.847656 L 374.664062 32.007812 L 373.796875 31.359375 L 373.972656 31.152344 L 374.148438 30.957031 L 374.328125 30.773438 L 374.511719 30.601562 L 374.695312 30.441406 L 374.882812 30.292969 L 375.070312 30.152344 L 375.265625 30.027344 L 375.460938 29.910156 L 375.65625 29.804688 L 375.863281 29.710938 L 376.074219 29.625 L 376.289062 29.550781 L 376.511719 29.488281 L 376.738281 29.433594 L 376.96875 29.386719 L 377.203125 29.351562 L 377.445312 29.328125 L 377.695312 29.3125 Z M 377.945312 29.308594 "/>
<path fill-rule="nonzero" fill="rgb(0%, 0%, 0%)" fill-opacity="1" d="M 432.664062 32.375 L 432.875 32.378906 L 433.082031 32.386719 L 433.285156 32.402344 L 433.480469 32.425781 L 433.675781 32.457031 L 433.867188 32.492188 L 434.050781 32.535156 L 434.234375 32.582031 L 434.414062 32.636719 L 434.589844 32.699219 L 434.761719 32.761719 L 434.933594 32.832031 L 435.101562 32.910156 L 435.273438 32.992188 L 435.441406 33.082031 L 435.609375 33.179688 L 435.777344 33.28125 L 435.941406 33.390625 L 436.109375 33.503906 L 436.273438 33.628906 L 435.691406 34.449219 L 435.535156 34.34375 L 435.382812 34.246094 L 435.230469 34.152344 L 435.082031 34.066406 L 434.933594 33.984375 L 434.789062 33.910156 L 434.644531 33.839844 L 434.5 33.777344 L 434.359375 33.722656 L 434.222656 33.671875 L 434.082031 33.621094 L 433.941406 33.578125 L 433.792969 33.539062 L 433.648438 33.503906 L 433.496094 33.476562 L 433.34375 33.453125 L 433.191406 33.433594 L 433.03125 33.421875 L 432.871094 33.414062 L 432.710938 33.410156 L 432.488281 33.417969 L 432.277344 33.433594 L 432.074219 33.457031 L 431.878906 33.496094 L 431.695312 33.542969 L 431.515625 33.597656 L 431.347656 33.664062 L 431.1875 33.742188 L 431.039062 33.832031 L 430.894531 33.929688 L 430.761719 34.035156 L 430.644531 34.152344 L 430.542969 34.273438 L 430.453125 34.398438 L 430.375 34.535156 L 430.3125 34.675781 L 430.265625 34.824219 L 430.230469 34.980469 L 430.210938 35.144531 L 430.203125 35.3125 L 430.210938 35.472656 L 430.226562 35.625 L 430.257812 35.773438 L 430.296875 35.910156 L 430.347656 36.042969 L 430.414062 36.164062 L 430.488281 36.28125 L 430.578125 36.390625 L 430.675781 36.492188 L 430.785156 36.585938 L 430.917969 36.675781 L 431.066406 36.765625 L 431.234375 36.855469 L 431.421875 36.941406 L 431.628906 37.03125 L 431.855469 37.117188 L 432.097656 37.199219 L 432.363281 37.285156 L 432.644531 37.367188 L 432.945312 37.449219 L 433.320312 37.550781 L 433.671875 37.660156 L 434.003906 37.773438 L 434.3125 37.890625 L 434.597656 38.011719 L 434.863281 38.140625 L 435.109375 38.273438 L 435.332031 38.410156 L 435.53125 38.554688 L 435.710938 38.703125 L 435.875 38.859375 L 436.023438 39.03125 L 436.152344 39.214844 L 436.265625 39.410156 L 436.359375 39.621094 L 436.4375 39.84375 L 436.496094 40.078125 L 436.539062 40.328125 L 436.566406 40.589844 L 436.574219 40.863281 L 436.5625 41.160156 L 436.527344 41.441406 L 436.46875 41.714844 L 436.390625 41.972656 L 436.285156 42.21875 L 436.15625 42.453125 L 436.003906 42.671875 L 435.828125 42.882812 L 435.628906 43.078125 L 435.410156 43.261719 L 435.171875 43.429688 L 434.917969 43.578125 L 434.65625 43.710938 L 434.382812 43.828125 L 434.097656 43.925781 L 433.800781 44.003906 L 433.492188 44.066406 L 433.167969 44.109375 L 432.835938 44.136719 L 432.492188 44.148438 L 432.238281 44.144531 L 431.988281 44.132812 L 431.746094 44.113281 L 431.507812 44.089844 L 431.277344 44.054688 L 431.054688 44.015625 L 430.835938 43.96875 L 430.625 43.910156 L 430.421875 43.847656 L 430.226562 43.78125 L 430.03125 43.699219 L 429.84375 43.613281 L 429.65625 43.519531 L 429.476562 43.421875 L 429.296875 43.316406 L 429.121094 43.203125 L 428.949219 43.085938 L 428.78125 42.964844 L 428.617188 42.835938 L 428.453125 42.699219 L 429.144531 41.898438 L 429.296875 42.019531 L 429.449219 42.128906 L 429.601562 42.234375 L 429.753906 42.335938 L 429.90625 42.429688 L 430.058594 42.515625 L 430.214844 42.597656 L 430.367188 42.675781 L 430.679688 42.808594 L 430.839844 42.859375 L 431.007812 42.910156 L 431.175781 42.949219 L 431.347656 42.988281 L 431.527344 43.019531 L 431.707031 43.042969 L 431.894531 43.0625 L 432.082031 43.078125 L 432.273438 43.085938 L 432.472656 43.089844 L 432.71875 43.082031 L 432.953125 43.066406 L 433.179688 43.039062 L 433.394531 43 L 433.601562 42.949219 L 433.796875 42.886719 L 433.980469 42.8125 L 434.15625 42.730469 L 434.324219 42.632812 L 434.480469 42.527344 L 434.628906 42.40625 L 434.761719 42.277344 L 434.875 42.136719 L 434.976562 41.992188 L 435.0625 41.835938 L 435.132812 41.671875 L 435.1875 41.5 L 435.226562 41.316406 L 435.25 41.128906 L 435.257812 40.929688 L 435.253906 40.792969 L 435.246094 40.664062 L 435.234375 40.535156 L 435.214844 40.417969 L 435.191406 40.300781 L 435.164062 40.191406 L 435.132812 40.085938 L 435.09375 39.988281 L 435.046875 39.894531 L 435 39.804688 L 434.941406 39.71875 L 434.878906 39.636719 L 434.808594 39.558594 L 434.734375 39.480469 L 434.648438 39.40625 L 434.554688 39.332031 L 434.457031 39.265625 L 434.347656 39.195312 L 434.234375 39.132812 L 434.113281 39.070312 L 433.980469 39.007812 L 433.839844 38.941406 L 433.683594 38.875 L 433.519531 38.8125 L 433.339844 38.746094 L 433.152344 38.683594 L 432.949219 38.617188 L 432.738281 38.550781 L 432.511719 38.488281 L 432.277344 38.421875 L 431.929688 38.324219 L 431.601562 38.222656 L 431.289062 38.117188 L 431 38.003906 L 430.734375 37.886719 L 430.484375 37.765625 L 430.253906 37.640625 L 430.042969 37.511719 L 429.855469 37.375 L 429.683594 37.234375 L 429.539062 37.085938 L 429.40625 36.929688 L 429.289062 36.765625 L 429.1875 36.589844 L 429.101562 36.402344 L 429.03125 36.207031 L 428.976562 36.003906 L 428.9375 35.789062 L 428.914062 35.566406 L 428.90625 35.332031 L 428.914062 35.167969 L 428.925781 35.003906 L 428.953125 34.84375 L 428.988281 34.6875 L 429.03125 34.535156 L 429.085938 34.386719 L 429.152344 34.238281 L 429.226562 34.097656 L 429.308594 33.957031 L 429.40625 33.820312 L 429.507812 33.6875 L 429.617188 33.558594 L 429.734375 33.4375 L 429.855469 33.320312 L 429.988281 33.210938 L 430.125 33.109375 L 430.269531 33.011719 L 430.421875 32.921875 L 430.578125 32.839844 L 430.742188 32.761719 L 430.917969 32.691406 L 431.097656 32.625 L 431.28125 32.566406 L 431.464844 32.515625 L 431.65625 32.472656 L 431.851562 32.4375 L 432.046875 32.410156 L 432.25 32.390625 L 432.457031 32.378906 Z M 432.664062 32.375 "/>
<path fill-rule="nonzero" fill="rgb(0%, 0%, 0%)" fill-opacity="1" d="M 447.980469 28.011719 L 447.980469 43.910156 L 446.898438 43.910156 L 446.75 42.179688 L 446.503906 42.554688 L 446.242188 42.890625 L 445.953125 43.183594 L 445.648438 43.4375 L 445.316406 43.65625 L 444.96875 43.832031 L 444.597656 43.96875 L 444.207031 44.066406 L 443.792969 44.128906 L 443.359375 44.148438 L 442.972656 44.132812 L 442.605469 44.085938 L 442.253906 44.007812 L 441.917969 43.898438 L 441.597656 43.757812 L 441.292969 43.585938 L 441.007812 43.382812 L 440.738281 43.152344 L 440.484375 42.886719 L 440.246094 42.589844 L 440.035156 42.265625 L 439.84375 41.914062 L 439.675781 41.542969 L 439.527344 41.148438 L 439.40625 40.734375 L 439.304688 40.296875 L 439.226562 39.832031 L 439.167969 39.351562 L 439.136719 38.84375 L 439.125 38.316406 L 439.128906 37.96875 L 439.144531 37.632812 L 439.171875 37.300781 L 439.207031 36.980469 L 439.253906 36.667969 L 439.3125 36.363281 L 439.378906 36.066406 L 439.457031 35.777344 L 439.542969 35.496094 L 439.644531 35.226562 L 439.753906 34.964844 L 439.875 34.714844 L 440.007812 34.476562 L 440.148438 34.246094 L 440.296875 34.03125 L 440.453125 33.828125 L 440.621094 33.636719 L 440.796875 33.457031 L 440.980469 33.289062 L 441.175781 33.128906 L 441.382812 32.988281 L 441.597656 32.859375 L 441.816406 32.746094 L 442.042969 32.648438 L 442.277344 32.5625 L 442.519531 32.496094 L 442.765625 32.441406 L 443.023438 32.40625 L 443.285156 32.382812 L 443.550781 32.375 L 443.929688 32.390625 L 444.292969 32.4375 L 444.644531 32.511719 L 444.984375 32.621094 L 445.308594 32.757812 L 445.617188 32.925781 L 445.914062 33.125 L 446.199219 33.355469 L 446.46875 33.617188 L 446.726562 33.910156 L 446.726562 27.859375 Z M 443.550781 43.109375 L 443.765625 43.105469 L 443.96875 43.089844 L 444.167969 43.0625 L 444.359375 43.027344 L 444.546875 42.980469 L 444.722656 42.921875 L 444.894531 42.855469 L 445.058594 42.777344 L 445.214844 42.691406 L 445.367188 42.589844 L 445.515625 42.484375 L 445.664062 42.363281 L 445.808594 42.230469 L 445.949219 42.089844 L 446.085938 41.9375 L 446.21875 41.773438 L 446.351562 41.601562 L 446.480469 41.417969 L 446.605469 41.222656 L 446.726562 41.015625 L 446.726562 35.117188 L 446.480469 34.792969 L 446.222656 34.503906 L 445.953125 34.246094 L 445.671875 34.027344 L 445.382812 33.839844 L 445.082031 33.683594 L 444.769531 33.566406 L 444.445312 33.480469 L 444.113281 33.429688 L 443.769531 33.410156 L 443.46875 33.425781 L 443.179688 33.460938 L 442.90625 33.527344 L 442.640625 33.617188 L 442.390625 33.730469 L 442.152344 33.871094 L 441.929688 34.035156 L 441.714844 34.226562 L 441.515625 34.445312 L 441.328125 34.6875 L 441.160156 34.953125 L 441.007812 35.238281 L 440.878906 35.546875 L 440.765625 35.875 L 440.667969 36.226562 L 440.589844 36.597656 L 440.53125 36.988281 L 440.492188 37.402344 L 440.46875 37.835938 L 440.464844 38.292969 L 440.472656 38.75 L 440.496094 39.183594 L 440.539062 39.59375 L 440.59375 39.988281 L 440.667969 40.355469 L 440.757812 40.703125 L 440.867188 41.03125 L 440.988281 41.335938 L 441.128906 41.617188 L 441.285156 41.878906 L 441.453125 42.113281 L 441.636719 42.320312 L 441.832031 42.507812 L 442.042969 42.667969 L 442.261719 42.800781 L 442.496094 42.914062 L 442.742188 43 L 443 43.0625 L 443.269531 43.097656 Z M 443.550781 43.109375 "/>
<path fill-rule="nonzero" fill="rgb(0%, 0%, 0%)" fill-opacity="1" d="M 456.101562 26.347656 L 455.878906 26.6875 L 455.664062 27.015625 L 455.457031 27.339844 L 455.257812 27.65625 L 455.070312 27.964844 L 454.890625 28.265625 L 454.722656 28.558594 L 454.5625 28.84375 L 454.410156 29.121094 L 454.265625 29.394531 L 454.128906 29.660156 L 454 29.9375 L 453.875 30.21875 L 453.753906 30.511719 L 453.640625 30.808594 L 453.53125 31.113281 L 453.425781 31.429688 L 453.324219 31.75 L 453.230469 32.082031 L 453.144531 32.417969 L 453.066406 32.765625 L 452.996094 33.121094 L 452.933594 33.488281 L 452.878906 33.867188 L 452.835938 34.253906 L 452.796875 34.652344 L 452.769531 35.0625 L 452.75 35.480469 L 452.738281 35.910156 L 452.730469 36.347656 L 452.738281 36.789062 L 452.75 37.21875 L 452.769531 37.636719 L 452.796875 38.046875 L 452.835938 38.445312 L 452.878906 38.832031 L 452.933594 39.210938 L 452.996094 39.578125 L 453.066406 39.933594 L 453.144531 40.28125 L 453.230469 40.617188 L 453.324219 40.949219 L 453.425781 41.269531 L 453.53125 41.585938 L 453.640625 41.894531 L 453.753906 42.195312 L 453.875 42.488281 L 454 42.777344 L 454.128906 43.054688 L 454.265625 43.324219 L 454.410156 43.59375 L 454.5625 43.867188 L 454.722656 44.152344 L 454.890625 44.441406 L 455.070312 44.742188 L 455.257812 45.046875 L 455.457031 45.359375 L 455.664062 45.683594 L 455.878906 46.011719 L 456.101562 46.351562 L 455.304688 46.867188 L 455.039062 46.496094 L 454.789062 46.136719 L 454.550781 45.789062 L 454.320312 45.453125 L 454.105469 45.125 L 453.898438 44.808594 L 453.703125 44.503906 L 453.519531 44.207031 L 453.347656 43.921875 L 453.1875 43.648438 L 453.039062 43.378906 L 452.894531 43.097656 L 452.753906 42.804688 L 452.621094 42.507812 L 452.496094 42.199219 L 452.371094 41.878906 L 452.253906 41.554688 L 452.140625 41.21875 L 452.035156 40.871094 L 451.933594 40.519531 L 451.839844 40.152344 L 451.753906 39.777344 L 451.679688 39.390625 L 451.613281 38.992188 L 451.558594 38.578125 L 451.515625 38.15625 L 451.480469 37.722656 L 451.457031 37.277344 L 451.441406 36.820312 L 451.4375 36.347656 L 451.441406 35.878906 L 451.457031 35.421875 L 451.480469 34.976562 L 451.515625 34.542969 L 451.558594 34.117188 L 451.613281 33.707031 L 451.679688 33.308594 L 451.753906 32.921875 L 451.839844 32.542969 L 451.933594 32.179688 L 452.035156 31.828125 L 452.140625 31.480469 L 452.253906 31.144531 L 452.371094 30.820312 L 452.496094 30.5 L 452.621094 30.191406 L 452.753906 29.894531 L 452.894531 29.601562 L 453.039062 29.320312 L 453.1875 29.046875 L 453.347656 28.773438 L 453.519531 28.492188 L 453.703125 28.195312 L 453.898438 27.890625 L 454.105469 27.574219 L 454.320312 27.246094 L 454.550781 26.910156 L 454.789062 26.558594 L 455.039062 26.199219 L 455.304688 25.828125 Z M 456.101562 26.347656 "/>
<path fill-rule="nonzero" fill="rgb(0%, 0%, 0%)" fill-opacity="1" d="M 465.648438 32.613281 L 465.648438 33.585938 L 459.34375 42.828125 L 465.605469 42.828125 L 465.476562 43.910156 L 457.875 43.910156 L 457.875 42.9375 L 464.179688 33.691406 L 458.390625 33.691406 L 458.390625 32.613281 Z M 465.648438 32.613281 "/>
<path fill-rule="nonzero" fill="rgb(0%, 0%, 0%)" fill-opacity="1" d="M 468.347656 25.828125 L 468.609375 26.199219 L 468.863281 26.558594 L 469.101562 26.910156 L 469.328125 27.246094 L 469.542969 27.574219 L 469.746094 27.890625 L 469.9375 28.195312 L 470.117188 28.492188 L 470.289062 28.773438 L 470.445312 29.046875 L 470.597656 29.320312 L 470.746094 29.601562 L 470.886719 29.894531 L 471.023438 30.191406 L 471.152344 30.5 L 471.277344 30.820312 L 471.394531 31.144531 L 471.507812 31.480469 L 471.617188 31.828125 L 471.71875 32.179688 L 471.8125 32.542969 L 471.898438 32.921875 L 471.972656 33.308594 L 472.035156 33.707031 L 472.089844 34.117188 L 472.136719 34.542969 L 472.171875 34.976562 L 472.195312 35.421875 L 472.210938 35.878906 L 472.214844 36.347656 L 472.210938 36.820312 L 472.195312 37.277344 L 472.171875 37.722656 L 472.136719 38.15625 L 472.089844 38.578125 L 472.035156 38.992188 L 471.972656 39.390625 L 471.898438 39.777344 L 471.8125 40.152344 L 471.71875 40.519531 L 471.617188 40.871094 L 471.507812 41.21875 L 471.394531 41.554688 L 471.277344 41.878906 L 471.152344 42.199219 L 471.023438 42.507812 L 470.886719 42.804688 L 470.746094 43.097656 L 470.597656 43.378906 L 470.445312 43.648438 L 470.289062 43.921875 L 470.117188 44.207031 L 469.9375 44.503906 L 469.746094 44.808594 L 469.542969 45.125 L 469.328125 45.453125 L 469.101562 45.789062 L 468.863281 46.136719 L 468.609375 46.496094 L 468.347656 46.867188 L 467.550781 46.351562 L 467.773438 46.011719 L 467.988281 45.683594 L 468.195312 45.359375 L 468.394531 45.046875 L 468.582031 44.742188 L 468.761719 44.441406 L 468.929688 44.152344 L 469.089844 43.867188 L 469.242188 43.59375 L 469.386719 43.324219 L 469.519531 43.054688 L 469.652344 42.777344 L 469.777344 42.488281 L 469.894531 42.195312 L 470.007812 41.894531 L 470.113281 41.585938 L 470.214844 41.269531 L 470.3125 40.949219 L 470.402344 40.617188 L 470.488281 40.28125 L 470.570312 39.933594 L 470.644531 39.578125 L 470.707031 39.210938 L 470.765625 38.832031 L 470.8125 38.445312 L 470.851562 38.046875 L 470.878906 37.636719 L 470.902344 37.21875 L 470.914062 36.789062 L 470.917969 36.347656 L 470.914062 35.910156 L 470.902344 35.480469 L 470.878906 35.0625 L 470.851562 34.652344 L 470.8125 34.253906 L 470.765625 33.867188 L 470.707031 33.488281 L 470.644531 33.121094 L 470.570312 32.765625 L 470.488281 32.417969 L 470.402344 32.082031 L 470.3125 31.75 L 470.214844 31.429688 L 470.113281 31.113281 L 470.007812 30.808594 L 469.894531 30.511719 L 469.777344 30.21875 L 469.652344 29.9375 L 469.519531 29.660156 L 469.386719 29.394531 L 469.242188 29.121094 L 469.089844 28.84375 L 468.929688 28.558594 L 468.761719 28.265625 L 468.582031 27.964844 L 468.394531 27.65625 L 468.195312 27.339844 L 467.988281 27.015625 L 467.773438 26.6875 L 467.550781 26.347656 Z M 468.347656 25.828125 "/>
<path fill-rule="nonzero" fill="rgb(0%, 0%, 0%)" fill-opacity="1" d="M 480.898438 35.421875 L 480.898438 34.320312 L 488.566406 34.320312 L 488.566406 35.421875 Z M 480.898438 39.199219 L 480.898438 38.097656 L 488.566406 38.097656 L 488.566406 39.199219 Z M 480.898438 39.199219 "/>
<path fill-rule="nonzero" fill="rgb(0%, 0%, 0%)" fill-opacity="1" d="M 504.832031 30.582031 L 499 30.582031 L 499 35.484375 L 499.238281 35.359375 L 499.476562 35.242188 L 499.71875 35.144531 L 499.964844 35.054688 L 500.210938 34.984375 L 500.457031 34.921875 L 500.707031 34.875 L 500.957031 34.84375 L 501.207031 34.820312 L 501.460938 34.816406 L 501.824219 34.828125 L 502.175781 34.863281 L 502.507812 34.925781 L 502.824219 35.007812 L 503.125 35.117188 L 503.410156 35.25 L 503.679688 35.410156 L 503.9375 35.589844 L 504.175781 35.796875 L 504.398438 36.023438 L 504.609375 36.273438 L 504.796875 36.535156 L 504.960938 36.816406 L 505.105469 37.117188 L 505.226562 37.433594 L 505.324219 37.769531 L 505.402344 38.121094 L 505.457031 38.492188 L 505.488281 38.882812 L 505.5 39.285156 L 505.496094 39.566406 L 505.476562 39.835938 L 505.449219 40.105469 L 505.40625 40.363281 L 505.355469 40.621094 L 505.292969 40.871094 L 505.214844 41.113281 L 505.128906 41.351562 L 505.027344 41.585938 L 504.917969 41.8125 L 504.800781 42.03125 L 504.671875 42.234375 L 504.535156 42.433594 L 504.390625 42.621094 L 504.230469 42.796875 L 504.066406 42.964844 L 503.886719 43.125 L 503.703125 43.273438 L 503.503906 43.410156 L 503.296875 43.542969 L 503.085938 43.65625 L 502.871094 43.757812 L 502.644531 43.851562 L 502.414062 43.929688 L 502.175781 43.996094 L 501.929688 44.050781 L 501.675781 44.09375 L 501.417969 44.121094 L 501.152344 44.140625 L 500.878906 44.148438 L 500.40625 44.128906 L 499.949219 44.078125 L 499.507812 43.992188 L 499.078125 43.871094 L 498.664062 43.714844 L 498.265625 43.523438 L 497.882812 43.300781 L 497.511719 43.039062 L 497.15625 42.746094 L 496.816406 42.417969 L 497.59375 41.664062 L 497.734375 41.804688 L 497.875 41.941406 L 498.019531 42.070312 L 498.164062 42.1875 L 498.308594 42.300781 L 498.457031 42.402344 L 498.605469 42.5 L 498.757812 42.589844 L 498.910156 42.667969 L 499.0625 42.742188 L 499.222656 42.808594 L 499.386719 42.867188 L 499.554688 42.917969 L 499.726562 42.964844 L 499.90625 43 L 500.089844 43.03125 L 500.28125 43.058594 L 500.472656 43.074219 L 500.675781 43.085938 L 500.878906 43.089844 L 501.179688 43.078125 L 501.464844 43.046875 L 501.742188 42.996094 L 502 42.925781 L 502.25 42.835938 L 502.484375 42.722656 L 502.707031 42.589844 L 502.917969 42.4375 L 503.113281 42.265625 L 503.296875 42.074219 L 503.464844 41.859375 L 503.617188 41.628906 L 503.75 41.386719 L 503.863281 41.125 L 503.960938 40.851562 L 504.042969 40.566406 L 504.105469 40.261719 L 504.148438 39.945312 L 504.175781 39.613281 L 504.183594 39.265625 L 504.175781 38.929688 L 504.152344 38.609375 L 504.109375 38.308594 L 504.050781 38.023438 L 503.976562 37.757812 L 503.886719 37.511719 L 503.78125 37.28125 L 503.660156 37.066406 L 503.519531 36.871094 L 503.363281 36.695312 L 503.195312 36.53125 L 503.019531 36.382812 L 502.832031 36.253906 L 502.628906 36.140625 L 502.417969 36.046875 L 502.195312 35.96875 L 501.957031 35.910156 L 501.710938 35.867188 L 501.453125 35.839844 L 501.179688 35.832031 L 501.042969 35.832031 L 500.910156 35.835938 L 500.652344 35.859375 L 500.527344 35.875 L 500.40625 35.894531 L 500.289062 35.914062 L 500.171875 35.941406 L 500.058594 35.96875 L 499.949219 36.003906 L 499.84375 36.035156 L 499.738281 36.074219 L 499.628906 36.113281 L 499.515625 36.160156 L 499.398438 36.207031 L 499.28125 36.261719 L 499.160156 36.320312 L 499.039062 36.382812 L 498.910156 36.449219 L 498.785156 36.523438 L 497.789062 36.523438 L 497.789062 29.546875 L 505.027344 29.546875 Z M 504.832031 30.582031 "/>
<path fill-rule="nonzero" fill="rgb(0%, 0%, 0%)" fill-opacity="1" d="M 512.542969 29.308594 L 512.976562 29.328125 L 513.390625 29.382812 L 513.78125 29.480469 L 514.148438 29.613281 L 514.496094 29.78125 L 514.824219 29.992188 L 515.128906 30.238281 L 515.410156 30.523438 L 515.671875 30.847656 L 515.914062 31.207031 L 516.128906 31.601562 L 516.324219 32.03125 L 516.496094 32.496094 L 516.644531 32.996094 L 516.769531 33.53125 L 516.875 34.101562 L 516.953125 34.707031 L 517.011719 35.347656 L 517.046875 36.027344 L 517.058594 36.738281 L 517.046875 37.445312 L 517.011719 38.121094 L 516.953125 38.757812 L 516.871094 39.363281 L 516.765625 39.933594 L 516.636719 40.46875 L 516.484375 40.972656 L 516.3125 41.4375 L 516.113281 41.871094 L 515.890625 42.265625 L 515.652344 42.625 L 515.390625 42.945312 L 515.109375 43.226562 L 514.804688 43.46875 L 514.480469 43.675781 L 514.136719 43.847656 L 513.769531 43.976562 L 513.382812 44.070312 L 512.972656 44.128906 L 512.542969 44.148438 L 512.109375 44.128906 L 511.695312 44.070312 L 511.304688 43.976562 L 510.9375 43.847656 L 510.589844 43.675781 L 510.261719 43.46875 L 509.957031 43.226562 L 509.675781 42.945312 L 509.414062 42.625 L 509.171875 42.265625 L 508.957031 41.871094 L 508.761719 41.4375 L 508.589844 40.96875 L 508.441406 40.46875 L 508.316406 39.929688 L 508.210938 39.355469 L 508.132812 38.75 L 508.074219 38.105469 L 508.039062 37.429688 L 508.027344 36.714844 L 508.039062 36.003906 L 508.074219 35.328125 L 508.132812 34.683594 L 508.210938 34.078125 L 508.316406 33.507812 L 508.441406 32.972656 L 508.589844 32.472656 L 508.761719 32.007812 L 508.957031 31.582031 L 509.171875 31.1875 L 509.414062 30.828125 L 509.675781 30.511719 L 509.957031 30.226562 L 510.261719 29.984375 L 510.589844 29.777344 L 510.9375 29.609375 L 511.304688 29.476562 L 511.695312 29.382812 L 512.109375 29.328125 Z M 512.542969 30.34375 L 511.929688 30.40625 L 511.382812 30.597656 L 510.902344 30.917969 L 510.484375 31.363281 L 510.128906 31.9375 L 509.839844 32.636719 L 509.613281 33.464844 L 509.453125 34.421875 L 509.355469 35.503906 L 509.324219 36.714844 L 509.355469 37.929688 L 509.453125 39.019531 L 509.613281 39.976562 L 509.839844 40.808594 L 510.128906 41.511719 L 510.484375 42.085938 L 510.902344 42.535156 L 511.382812 42.855469 L 511.929688 43.046875 L 512.542969 43.109375 L 512.851562 43.09375 L 513.140625 43.046875 L 513.417969 42.96875 L 513.679688 42.859375 L 513.925781 42.722656 L 514.15625 42.550781 L 514.371094 42.347656 L 514.566406 42.113281 L 514.75 41.851562 L 514.917969 41.554688 L 515.074219 41.226562 L 515.214844 40.863281 L 515.335938 40.46875 L 515.445312 40.039062 L 515.535156 39.574219 L 515.609375 39.074219 L 515.664062 38.542969 L 515.707031 37.972656 L 515.730469 37.375 L 515.738281 36.738281 L 515.730469 36.101562 L 515.707031 35.5 L 515.664062 34.933594 L 515.609375 34.402344 L 515.535156 33.902344 L 515.445312 33.4375 L 515.335938 33.007812 L 515.214844 32.613281 L 515.074219 32.25 L 514.917969 31.921875 L 514.75 31.621094 L 514.566406 31.351562 L 514.371094 31.117188 L 514.15625 30.910156 L 513.925781 30.738281 L 513.679688 30.597656 L 513.417969 30.484375 L 513.140625 30.40625 L 512.851562 30.359375 Z M 512.542969 30.34375 "/>
<path fill-rule="nonzero" fill="rgb(0%, 0%, 0%)" fill-opacity="1" d="M 520.707031 42.09375 L 520.796875 42.097656 L 520.882812 42.105469 L 520.964844 42.121094 L 521.042969 42.144531 L 521.117188 42.171875 L 521.191406 42.203125 L 521.257812 42.242188 L 521.324219 42.289062 L 521.382812 42.339844 L 521.441406 42.398438 L 521.5 42.453125 L 521.550781 42.515625 L 521.597656 42.578125 L 521.636719 42.644531 L 521.667969 42.714844 L 521.695312 42.789062 L 521.71875 42.863281 L 521.730469 42.941406 L 521.742188 43.023438 L 521.746094 43.109375 L 521.742188 43.199219 L 521.730469 43.285156 L 521.71875 43.367188 L 521.695312 43.449219 L 521.667969 43.527344 L 521.636719 43.601562 L 521.597656 43.671875 L 521.550781 43.738281 L 521.5 43.804688 L 521.441406 43.867188 L 521.324219 43.96875 L 521.191406 44.046875 L 521.117188 44.078125 L 521.042969 44.101562 L 520.964844 44.121094 L 520.882812 44.136719 L 520.796875 44.144531 L 520.707031 44.148438 L 520.621094 44.144531 L 520.539062 44.132812 L 520.460938 44.121094 L 520.382812 44.097656 L 520.308594 44.070312 L 520.234375 44.039062 L 520.167969 44 L 520.097656 43.953125 L 520.035156 43.902344 L 519.972656 43.84375 L 519.914062 43.78125 L 519.863281 43.71875 L 519.820312 43.652344 L 519.78125 43.582031 L 519.746094 43.507812 L 519.71875 43.433594 L 519.699219 43.359375 L 519.683594 43.277344 L 519.671875 43.195312 L 519.671875 43.023438 L 519.683594 42.941406 L 519.699219 42.863281 L 519.71875 42.789062 L 519.746094 42.714844 L 519.78125 42.644531 L 519.820312 42.578125 L 519.863281 42.515625 L 519.914062 42.453125 L 519.972656 42.398438 L 520.035156 42.339844 L 520.097656 42.289062 L 520.167969 42.242188 L 520.234375 42.203125 L 520.308594 42.171875 L 520.382812 42.144531 L 520.460938 42.121094 L 520.539062 42.105469 L 520.621094 42.097656 Z M 520.707031 42.09375 "/>
<path fill-rule="nonzero" fill="rgb(0%, 0%, 0%)" fill-opacity="1" d="M 533.386719 39.09375 L 533.386719 40.128906 L 531.441406 40.128906 L 531.441406 43.910156 L 530.210938 43.910156 L 530.210938 40.128906 L 523.925781 40.128906 L 523.925781 39.199219 L 528.3125 29.308594 L 529.371094 29.738281 L 525.265625 39.09375 L 530.210938 39.09375 L 530.363281 34.878906 L 531.441406 34.878906 L 531.441406 39.09375 Z M 533.386719 39.09375 "/>
<path fill-rule="nonzero" fill="rgb(0%, 0%, 0%)" fill-opacity="1" d="M 541.421875 36.304688 L 541.746094 36.441406 L 542.050781 36.582031 L 542.339844 36.730469 L 542.605469 36.878906 L 542.859375 37.035156 L 543.089844 37.195312 L 543.304688 37.359375 L 543.503906 37.53125 L 543.679688 37.703125 L 543.839844 37.882812 L 543.988281 38.066406 L 544.121094 38.257812 L 544.238281 38.460938 L 544.339844 38.675781 L 544.425781 38.898438 L 544.496094 39.132812 L 544.546875 39.375 L 544.585938 39.632812 L 544.609375 39.898438 L 544.617188 40.171875 L 544.613281 40.40625 L 544.59375 40.636719 L 544.5625 40.859375 L 544.523438 41.078125 L 544.46875 41.289062 L 544.402344 41.496094 L 544.324219 41.699219 L 544.230469 41.894531 L 544.128906 42.082031 L 544.015625 42.265625 L 543.890625 42.441406 L 543.761719 42.605469 L 543.621094 42.765625 L 543.46875 42.914062 L 543.304688 43.054688 L 543.136719 43.191406 L 542.953125 43.316406 L 542.761719 43.4375 L 542.5625 43.546875 L 542.351562 43.648438 L 542.136719 43.746094 L 541.914062 43.828125 L 541.6875 43.902344 L 541.453125 43.96875 L 541.210938 44.023438 L 540.964844 44.066406 L 540.710938 44.101562 L 540.449219 44.125 L 540.183594 44.140625 L 539.910156 44.148438 L 539.636719 44.140625 L 539.371094 44.125 L 539.109375 44.101562 L 538.855469 44.066406 L 538.609375 44.023438 L 538.367188 43.96875 L 538.132812 43.902344 L 537.90625 43.828125 L 537.683594 43.746094 L 537.46875 43.648438 L 537.265625 43.546875 L 537.074219 43.4375 L 536.886719 43.316406 L 536.710938 43.191406 L 536.546875 43.054688 L 536.386719 42.914062 L 536.238281 42.765625 L 536.101562 42.605469 L 535.96875 42.441406 L 535.847656 42.265625 L 535.742188 42.082031 L 535.648438 41.894531 L 535.5625 41.699219 L 535.488281 41.5 L 535.429688 41.296875 L 535.378906 41.085938 L 535.339844 40.871094 L 535.308594 40.648438 L 535.292969 40.425781 L 535.289062 40.195312 L 535.320312 39.65625 L 535.410156 39.148438 L 535.566406 38.671875 L 535.78125 38.226562 L 536.058594 37.8125 L 536.398438 37.429688 L 536.800781 37.074219 L 537.265625 36.75 L 537.789062 36.460938 L 538.375 36.199219 L 538.128906 36.078125 L 537.894531 35.957031 L 537.671875 35.832031 L 537.464844 35.703125 L 537.269531 35.570312 L 537.089844 35.4375 L 536.921875 35.296875 L 536.765625 35.152344 L 536.625 35.007812 L 536.496094 34.859375 L 536.386719 34.699219 L 536.289062 34.53125 L 536.199219 34.355469 L 536.125 34.171875 L 536.058594 33.980469 L 536.007812 33.777344 L 535.964844 33.570312 L 535.9375 33.351562 L 535.917969 33.125 L 535.914062 32.894531 L 535.917969 32.675781 L 535.9375 32.464844 L 535.964844 32.257812 L 536.003906 32.058594 L 536.054688 31.863281 L 536.117188 31.671875 L 536.1875 31.488281 L 536.273438 31.308594 L 536.367188 31.136719 L 536.476562 30.972656 L 536.589844 30.8125 L 536.714844 30.660156 L 536.84375 30.515625 L 536.984375 30.378906 L 537.128906 30.253906 L 537.28125 30.132812 L 537.441406 30.023438 L 537.609375 29.921875 L 537.785156 29.824219 L 537.964844 29.738281 L 538.152344 29.65625 L 538.34375 29.585938 L 538.535156 29.519531 L 538.730469 29.464844 L 538.925781 29.414062 L 539.128906 29.375 L 539.328125 29.347656 L 539.535156 29.324219 L 539.742188 29.3125 L 539.953125 29.308594 L 540.164062 29.3125 L 540.371094 29.324219 L 540.578125 29.34375 L 540.777344 29.375 L 540.980469 29.410156 L 541.175781 29.457031 L 541.371094 29.507812 L 541.5625 29.570312 L 541.753906 29.640625 L 541.941406 29.71875 L 542.121094 29.804688 L 542.296875 29.898438 L 542.464844 30 L 542.625 30.109375 L 542.777344 30.226562 L 542.921875 30.351562 L 543.0625 30.484375 L 543.191406 30.625 L 543.316406 30.773438 L 543.429688 30.925781 L 543.542969 31.089844 L 543.640625 31.261719 L 543.726562 31.4375 L 543.804688 31.621094 L 543.867188 31.8125 L 543.921875 32.011719 L 543.960938 32.214844 L 543.992188 32.425781 L 544.007812 32.644531 L 544.015625 32.871094 L 544.007812 33.09375 L 543.988281 33.308594 L 543.957031 33.519531 L 543.914062 33.722656 L 543.855469 33.917969 L 543.789062 34.109375 L 543.707031 34.296875 L 543.613281 34.476562 L 543.507812 34.648438 L 543.386719 34.816406 L 543.253906 34.972656 L 543.109375 35.132812 L 542.949219 35.285156 L 542.773438 35.4375 L 542.582031 35.585938 L 542.378906 35.734375 L 542.160156 35.882812 L 541.929688 36.023438 L 541.683594 36.167969 Z M 537.167969 32.914062 L 537.171875 33.117188 L 537.191406 33.3125 L 537.21875 33.496094 L 537.261719 33.675781 L 537.3125 33.84375 L 537.375 34.003906 L 537.453125 34.15625 L 537.539062 34.296875 L 537.640625 34.429688 L 537.75 34.554688 L 537.878906 34.675781 L 538.027344 34.796875 L 538.191406 34.914062 L 538.371094 35.03125 L 538.570312 35.144531 L 538.785156 35.257812 L 539.019531 35.371094 L 539.269531 35.484375 L 539.539062 35.59375 L 539.824219 35.699219 L 540.492188 35.9375 L 540.726562 35.808594 L 540.949219 35.679688 L 541.15625 35.546875 L 541.351562 35.414062 L 541.53125 35.28125 L 541.695312 35.144531 L 541.847656 35.011719 L 541.984375 34.875 L 542.109375 34.738281 L 542.222656 34.597656 L 542.324219 34.457031 L 542.414062 34.3125 L 542.496094 34.15625 L 542.566406 34 L 542.625 33.832031 L 542.675781 33.660156 L 542.710938 33.484375 L 542.738281 33.300781 L 542.753906 33.109375 L 542.761719 32.914062 L 542.753906 32.675781 L 542.730469 32.445312 L 542.691406 32.222656 L 542.636719 32.015625 L 542.566406 31.820312 L 542.480469 31.632812 L 542.378906 31.457031 L 542.261719 31.289062 L 542.132812 31.136719 L 541.984375 30.992188 L 541.828125 30.859375 L 541.660156 30.742188 L 541.484375 30.640625 L 541.296875 30.550781 L 541.097656 30.472656 L 540.890625 30.410156 L 540.671875 30.363281 L 540.441406 30.328125 L 540.203125 30.308594 L 539.953125 30.300781 L 539.710938 30.308594 L 539.480469 30.328125 L 539.253906 30.363281 L 539.039062 30.410156 L 538.835938 30.472656 L 538.640625 30.550781 L 538.453125 30.640625 L 538.273438 30.742188 L 538.105469 30.859375 L 537.945312 30.992188 L 537.796875 31.136719 L 537.664062 31.289062 L 537.546875 31.457031 L 537.445312 31.632812 L 537.359375 31.820312 L 537.292969 32.015625 L 537.238281 32.222656 L 537.199219 32.445312 L 537.175781 32.675781 Z M 539.929688 43.089844 L 540.230469 43.082031 L 540.519531 43.058594 L 540.796875 43.019531 L 541.058594 42.96875 L 541.308594 42.898438 L 541.546875 42.816406 L 541.773438 42.71875 L 541.984375 42.605469 L 542.183594 42.476562 L 542.371094 42.332031 L 542.546875 42.171875 L 542.707031 41.996094 L 542.847656 41.8125 L 542.964844 41.613281 L 543.070312 41.402344 L 543.152344 41.179688 L 543.21875 40.949219 L 543.265625 40.699219 L 543.292969 40.441406 L 543.300781 40.171875 L 543.296875 40.003906 L 543.289062 39.839844 L 543.273438 39.679688 L 543.25 39.53125 L 543.21875 39.382812 L 543.183594 39.246094 L 543.140625 39.109375 L 543.09375 38.984375 L 543.039062 38.863281 L 542.976562 38.746094 L 542.910156 38.632812 L 542.832031 38.519531 L 542.75 38.414062 L 542.664062 38.308594 L 542.566406 38.207031 L 542.464844 38.109375 L 542.355469 38.015625 L 542.238281 37.925781 L 542.113281 37.835938 L 541.984375 37.753906 L 541.84375 37.667969 L 541.695312 37.578125 L 541.53125 37.492188 L 541.363281 37.402344 L 541.179688 37.316406 L 540.984375 37.226562 L 540.78125 37.136719 L 540.566406 37.046875 L 540.339844 36.957031 L 540.105469 36.867188 L 539.371094 36.585938 L 539.089844 36.703125 L 538.820312 36.824219 L 538.570312 36.953125 L 538.335938 37.085938 L 538.117188 37.230469 L 537.914062 37.378906 L 537.726562 37.53125 L 537.550781 37.691406 L 537.394531 37.859375 L 537.253906 38.035156 L 537.128906 38.210938 L 537.019531 38.398438 L 536.921875 38.589844 L 536.839844 38.792969 L 536.765625 39.007812 L 536.707031 39.226562 L 536.664062 39.457031 L 536.632812 39.691406 L 536.613281 39.9375 L 536.605469 40.195312 L 536.613281 40.464844 L 536.640625 40.722656 L 536.6875 40.96875 L 536.75 41.199219 L 536.832031 41.417969 L 536.933594 41.628906 L 537.050781 41.824219 L 537.1875 42.003906 L 537.339844 42.175781 L 537.511719 42.332031 L 537.699219 42.476562 L 537.898438 42.605469 L 538.109375 42.71875 L 538.335938 42.816406 L 538.570312 42.898438 L 538.820312 42.96875 L 539.078125 43.019531 L 539.351562 43.058594 L 539.636719 43.082031 Z M 539.929688 43.089844 "/>
</svg>
