<?xml version="1.0" encoding="UTF-8"?>
<svg xmlns="http://www.w3.org/2000/svg" xmlns:xlink="http://www.w3.org/1999/xlink" width="792pt" height="432pt" viewBox="0 0 792 432">
<defs>
<clipPath id="clip-0">
<path clip-rule="nonzero" d="M 13.449219 86.472656 L 778.550781 86.472656 L 778.550781 384.195312 L 13.449219 384.195312 Z M 13.449219 86.472656 "/>
</clipPath>
<clipPath id="clip-1">
<path clip-rule="nonzero" d="M 13.449219 369 L 778.550781 369 L 778.550781 372 L 13.449219 372 Z M 13.449219 369 "/>
</clipPath>
<clipPath id="clip-2">
<path clip-rule="nonzero" d="M 13.449219 269 L 778.550781 269 L 778.550781 273 L 13.449219 273 Z M 13.449219 269 "/>
</clipPath>
<clipPath id="clip-3">
<path clip-rule="nonzero" d="M 13.449219 170 L 778.550781 170 L 778.550781 173 L 13.449219 173 Z M 13.449219 170 "/>
</clipPath>
<clipPath id="clip-4">
<path clip-rule="nonzero" d="M 16 86.472656 L 20 86.472656 L 20 384.195312 L 16 384.195312 Z M 16 86.472656 "/>
</clipPath>
<clipPath id="clip-5">
<path clip-rule="nonzero" d="M 180 86.472656 L 183 86.472656 L 183 384.195312 L 180 384.195312 Z M 180 86.472656 "/>
</clipPath>
<clipPath id="clip-6">
<path clip-rule="nonzero" d="M 344 86.472656 L 347 86.472656 L 347 384.195312 L 344 384.195312 Z M 344 86.472656 "/>
</clipPath>
<clipPath id="clip-7">
<path clip-rule="nonzero" d="M 507 86.472656 L 511 86.472656 L 511 384.195312 L 507 384.195312 Z M 507 86.472656 "/>
</clipPath>
<clipPath id="clip-8">
<path clip-rule="nonzero" d="M 671 86.472656 L 675 86.472656 L 675 384.195312 L 671 384.195312 Z M 671 86.472656 "/>
</clipPath>
</defs>
<rect x="-79.2" y="-43.2" width="950.4" height="518.4" fill="rgb(100%, 100%, 100%)" fill-opacity="1"/>
<rect x="-79.2" y="-43.2" width="950.4" height="518.4" fill="rgb(95.294118%, 95.294118%, 95.294118%)" fill-opacity="1"/>
<path fill="none" stroke-width="2.618947" stroke-linecap="round" stroke-linejoin="round" stroke="rgb(95.294118%, 95.294118%, 95.294118%)" stroke-opacity="1" stroke-miterlimit="10" d="M 0 432 L 792 432 L 792 0 L 0 0 Z M 0 432 "/>
<g clip-path="url(#clip-0)">
<path fill-rule="nonzero" fill="rgb(95.294118%, 95.294118%, 95.294118%)" fill-opacity="1" stroke-width="2.618947" stroke-linecap="round" stroke-linejoin="round" stroke="rgb(95.294118%, 95.294118%, 95.294118%)" stroke-opacity="1" stroke-miterlimit="10" d="M 13.449219 384.195312 L 778.550781 384.195312 L 778.550781 86.472656 L 13.449219 86.472656 Z M 13.449219 384.195312 "/>
</g>
<g clip-path="url(#clip-1)">
<path fill="none" stroke-width="2.618947" stroke-linecap="butt" stroke-linejoin="round" stroke="rgb(92.156863%, 92.156863%, 92.156863%)" stroke-opacity="1" stroke-miterlimit="10" d="M 13.449219 370.664062 L 778.550781 370.664062 "/>
</g>
<g clip-path="url(#clip-2)">
<path fill="none" stroke-width="2.618947" stroke-linecap="butt" stroke-linejoin="round" stroke="rgb(92.156863%, 92.156863%, 92.156863%)" stroke-opacity="1" stroke-miterlimit="10" d="M 13.449219 271.15625 L 778.550781 271.15625 "/>
</g>
<g clip-path="url(#clip-3)">
<path fill="none" stroke-width="2.618947" stroke-linecap="butt" stroke-linejoin="round" stroke="rgb(92.156863%, 92.156863%, 92.156863%)" stroke-opacity="1" stroke-miterlimit="10" d="M 13.449219 171.648438 L 778.550781 171.648438 "/>
</g>
<g clip-path="url(#clip-4)">
<path fill="none" stroke-width="2.618947" stroke-linecap="butt" stroke-linejoin="round" stroke="rgb(92.156863%, 92.156863%, 92.156863%)" stroke-opacity="1" stroke-miterlimit="10" d="M 17.832031 384.195312 L 17.832031 86.472656 "/>
</g>
<g clip-path="url(#clip-5)">
<path fill="none" stroke-width="2.618947" stroke-linecap="butt" stroke-linejoin="round" stroke="rgb(92.156863%, 92.156863%, 92.156863%)" stroke-opacity="1" stroke-miterlimit="10" d="M 181.648438 384.195312 L 181.648438 86.472656 "/>
</g>
<g clip-path="url(#clip-6)">
<path fill="none" stroke-width="2.618947" stroke-linecap="butt" stroke-linejoin="round" stroke="rgb(92.156863%, 92.156863%, 92.156863%)" stroke-opacity="1" stroke-miterlimit="10" d="M 345.46875 384.195312 L 345.46875 86.472656 "/>
</g>
<g clip-path="url(#clip-7)">
<path fill="none" stroke-width="2.618947" stroke-linecap="butt" stroke-linejoin="round" stroke="rgb(92.156863%, 92.156863%, 92.156863%)" stroke-opacity="1" stroke-miterlimit="10" d="M 509.285156 384.195312 L 509.285156 86.472656 "/>
</g>
<g clip-path="url(#clip-8)">
<path fill="none" stroke-width="2.618947" stroke-linecap="butt" stroke-linejoin="round" stroke="rgb(92.156863%, 92.156863%, 92.156863%)" stroke-opacity="1" stroke-miterlimit="10" d="M 673.105469 384.195312 L 673.105469 86.472656 "/>
</g>
<path fill-rule="nonzero" fill="rgb(56.078431%, 16.470588%, 26.27451%)" fill-opacity="0.698039" d="M 48.226562 370.664062 L 71.410156 370.664062 L 71.410156 368.675781 L 48.226562 368.675781 Z M 48.226562 370.664062 "/>
<path fill-rule="nonzero" fill="rgb(56.078431%, 16.470588%, 26.27451%)" fill-opacity="0.698039" d="M 71.410156 370.664062 L 94.59375 370.664062 L 94.59375 368.675781 L 71.410156 368.675781 Z M 71.410156 370.664062 "/>
<path fill-rule="nonzero" fill="rgb(56.078431%, 16.470588%, 26.27451%)" fill-opacity="0.698039" d="M 94.597656 370.664062 L 117.78125 370.664062 L 117.78125 368.675781 L 94.597656 368.675781 Z M 94.597656 370.664062 "/>
<path fill-rule="nonzero" fill="rgb(56.078431%, 16.470588%, 26.27451%)" fill-opacity="0.698039" d="M 117.78125 370.664062 L 140.964844 370.664062 L 140.964844 364.695312 L 117.78125 364.695312 Z M 117.78125 370.664062 "/>
<path fill-rule="nonzero" fill="rgb(56.078431%, 16.470588%, 26.27451%)" fill-opacity="0.698039" d="M 140.964844 370.664062 L 164.148438 370.664062 L 164.148438 364.695312 L 140.964844 364.695312 Z M 140.964844 370.664062 "/>
<path fill-rule="nonzero" fill="rgb(56.078431%, 16.470588%, 26.27451%)" fill-opacity="0.698039" d="M 164.152344 370.664062 L 187.335938 370.664062 L 187.335938 346.78125 L 164.152344 346.78125 Z M 164.152344 370.664062 "/>
<path fill-rule="nonzero" fill="rgb(56.078431%, 16.470588%, 26.27451%)" fill-opacity="0.698039" d="M 187.335938 370.664062 L 210.519531 370.664062 L 210.519531 358.722656 L 187.335938 358.722656 Z M 187.335938 370.664062 "/>
<path fill-rule="nonzero" fill="rgb(56.078431%, 16.470588%, 26.27451%)" fill-opacity="0.698039" d="M 210.519531 370.664062 L 233.703125 370.664062 L 233.703125 328.871094 L 210.519531 328.871094 Z M 210.519531 370.664062 "/>
<path fill-rule="nonzero" fill="rgb(56.078431%, 16.470588%, 26.27451%)" fill-opacity="0.698039" d="M 233.707031 370.664062 L 256.890625 370.664062 L 256.890625 322.902344 L 233.707031 322.902344 Z M 233.707031 370.664062 "/>
<path fill-rule="nonzero" fill="rgb(56.078431%, 16.470588%, 26.27451%)" fill-opacity="0.698039" d="M 256.890625 370.664062 L 280.074219 370.664062 L 280.074219 303 L 256.890625 303 Z M 256.890625 370.664062 "/>
<path fill-rule="nonzero" fill="rgb(56.078431%, 16.470588%, 26.27451%)" fill-opacity="0.698039" d="M 280.074219 370.664062 L 303.257812 370.664062 L 303.257812 289.070312 L 280.074219 289.070312 Z M 280.074219 370.664062 "/>
<path fill-rule="nonzero" fill="rgb(56.078431%, 16.470588%, 26.27451%)" fill-opacity="0.698039" d="M 303.261719 370.664062 L 326.445312 370.664062 L 326.445312 265.1875 L 303.261719 265.1875 Z M 303.261719 370.664062 "/>
<path fill-rule="nonzero" fill="rgb(56.078431%, 16.470588%, 26.27451%)" fill-opacity="0.698039" d="M 326.445312 370.664062 L 349.628906 370.664062 L 349.628906 231.355469 L 326.445312 231.355469 Z M 326.445312 370.664062 "/>
<path fill-rule="nonzero" fill="rgb(56.078431%, 16.470588%, 26.27451%)" fill-opacity="0.698039" d="M 349.628906 370.664062 L 372.8125 370.664062 L 372.8125 211.453125 L 349.628906 211.453125 Z M 349.628906 370.664062 "/>
<path fill-rule="nonzero" fill="rgb(56.078431%, 16.470588%, 26.27451%)" fill-opacity="0.698039" d="M 372.816406 370.664062 L 396 370.664062 L 396 199.511719 L 372.816406 199.511719 Z M 372.816406 370.664062 "/>
<path fill-rule="nonzero" fill="rgb(56.078431%, 16.470588%, 26.27451%)" fill-opacity="0.698039" d="M 396 370.664062 L 419.183594 370.664062 L 419.183594 183.589844 L 396 183.589844 Z M 396 370.664062 "/>
<path fill-rule="nonzero" fill="rgb(56.078431%, 16.470588%, 26.27451%)" fill-opacity="0.698039" d="M 419.183594 370.664062 L 442.367188 370.664062 L 442.367188 183.589844 L 419.183594 183.589844 Z M 419.183594 370.664062 "/>
<path fill-rule="nonzero" fill="rgb(56.078431%, 16.470588%, 26.27451%)" fill-opacity="0.698039" d="M 442.371094 370.664062 L 465.554688 370.664062 L 465.554688 219.414062 L 442.371094 219.414062 Z M 442.371094 370.664062 "/>
<path fill-rule="nonzero" fill="rgb(56.078431%, 16.470588%, 26.27451%)" fill-opacity="0.698039" d="M 465.554688 370.664062 L 488.738281 370.664062 L 488.738281 217.421875 L 465.554688 217.421875 Z M 465.554688 370.664062 "/>
<path fill-rule="nonzero" fill="rgb(56.078431%, 16.470588%, 26.27451%)" fill-opacity="0.698039" d="M 488.738281 370.664062 L 511.921875 370.664062 L 511.921875 271.15625 L 488.738281 271.15625 Z M 488.738281 370.664062 "/>
<path fill-rule="nonzero" fill="rgb(56.078431%, 16.470588%, 26.27451%)" fill-opacity="0.698039" d="M 511.925781 370.664062 L 535.109375 370.664062 L 535.109375 265.1875 L 511.925781 265.1875 Z M 511.925781 370.664062 "/>
<path fill-rule="nonzero" fill="rgb(56.078431%, 16.470588%, 26.27451%)" fill-opacity="0.698039" d="M 535.109375 370.664062 L 558.292969 370.664062 L 558.292969 299.019531 L 535.109375 299.019531 Z M 535.109375 370.664062 "/>
<path fill-rule="nonzero" fill="rgb(56.078431%, 16.470588%, 26.27451%)" fill-opacity="0.698039" d="M 558.292969 370.664062 L 581.476562 370.664062 L 581.476562 308.96875 L 558.292969 308.96875 Z M 558.292969 370.664062 "/>
<path fill-rule="nonzero" fill="rgb(56.078431%, 16.470588%, 26.27451%)" fill-opacity="0.698039" d="M 581.480469 370.664062 L 604.664062 370.664062 L 604.664062 330.863281 L 581.480469 330.863281 Z M 581.480469 370.664062 "/>
<path fill-rule="nonzero" fill="rgb(56.078431%, 16.470588%, 26.27451%)" fill-opacity="0.698039" d="M 604.664062 370.664062 L 627.847656 370.664062 L 627.847656 340.8125 L 604.664062 340.8125 Z M 604.664062 370.664062 "/>
<path fill-rule="nonzero" fill="rgb(56.078431%, 16.470588%, 26.27451%)" fill-opacity="0.698039" d="M 627.847656 370.664062 L 651.03125 370.664062 L 651.03125 352.753906 L 627.847656 352.753906 Z M 627.847656 370.664062 "/>
<path fill-rule="nonzero" fill="rgb(56.078431%, 16.470588%, 26.27451%)" fill-opacity="0.698039" d="M 651.035156 370.664062 L 674.21875 370.664062 L 674.21875 362.703125 L 651.035156 362.703125 Z M 651.035156 370.664062 "/>
<path fill-rule="nonzero" fill="rgb(56.078431%, 16.470588%, 26.27451%)" fill-opacity="0.698039" d="M 674.21875 370.664062 L 697.402344 370.664062 L 697.402344 364.695312 L 674.21875 364.695312 Z M 674.21875 370.664062 "/>
<path fill-rule="nonzero" fill="rgb(56.078431%, 16.470588%, 26.27451%)" fill-opacity="0.698039" d="M 697.402344 370.664062 L 720.585938 370.664062 L 720.585938 368.675781 L 697.402344 368.675781 Z M 697.402344 370.664062 "/>
<path fill-rule="nonzero" fill="rgb(56.078431%, 16.470588%, 26.27451%)" fill-opacity="0.698039" d="M 720.589844 370.664062 L 743.773438 370.664062 L 743.773438 368.675781 L 720.589844 368.675781 Z M 720.589844 370.664062 "/>
<path fill-rule="nonzero" fill="rgb(16.470588%, 56.078431%, 46.27451%)" fill-opacity="0.698039" d="M 94.597656 370.664062 L 117.78125 370.664062 L 117.78125 368.675781 L 94.597656 368.675781 Z M 94.597656 370.664062 "/>
<path fill-rule="nonzero" fill="rgb(16.470588%, 56.078431%, 46.27451%)" fill-opacity="0.698039" d="M 117.78125 370.664062 L 140.964844 370.664062 L 140.964844 368.675781 L 117.78125 368.675781 Z M 117.78125 370.664062 "/>
<path fill-rule="nonzero" fill="rgb(16.470588%, 56.078431%, 46.27451%)" fill-opacity="0.698039" d="M 140.964844 370.664062 L 164.148438 370.664062 L 164.148438 366.683594 L 140.964844 366.683594 Z M 140.964844 370.664062 "/>
<path fill-rule="nonzero" fill="rgb(16.470588%, 56.078431%, 46.27451%)" fill-opacity="0.698039" d="M 164.152344 370.664062 L 187.335938 370.664062 L 187.335938 362.703125 L 164.152344 362.703125 Z M 164.152344 370.664062 "/>
<path fill-rule="nonzero" fill="rgb(16.470588%, 56.078431%, 46.27451%)" fill-opacity="0.698039" d="M 187.335938 370.664062 L 210.519531 370.664062 L 210.519531 354.742188 L 187.335938 354.742188 Z M 187.335938 370.664062 "/>
<path fill-rule="nonzero" fill="rgb(16.470588%, 56.078431%, 46.27451%)" fill-opacity="0.698039" d="M 210.519531 370.664062 L 233.703125 370.664062 L 233.703125 344.792969 L 210.519531 344.792969 Z M 210.519531 370.664062 "/>
<path fill-rule="nonzero" fill="rgb(16.470588%, 56.078431%, 46.27451%)" fill-opacity="0.698039" d="M 233.707031 370.664062 L 256.890625 370.664062 L 256.890625 324.890625 L 233.707031 324.890625 Z M 233.707031 370.664062 "/>
<path fill-rule="nonzero" fill="rgb(16.470588%, 56.078431%, 46.27451%)" fill-opacity="0.698039" d="M 256.890625 370.664062 L 280.074219 370.664062 L 280.074219 277.128906 L 256.890625 277.128906 Z M 256.890625 370.664062 "/>
<path fill-rule="nonzero" fill="rgb(16.470588%, 56.078431%, 46.27451%)" fill-opacity="0.698039" d="M 280.074219 370.664062 L 303.257812 370.664062 L 303.257812 237.324219 L 280.074219 237.324219 Z M 280.074219 370.664062 "/>
<path fill-rule="nonzero" fill="rgb(16.470588%, 56.078431%, 46.27451%)" fill-opacity="0.698039" d="M 303.261719 370.664062 L 326.445312 370.664062 L 326.445312 223.394531 L 303.261719 223.394531 Z M 303.261719 370.664062 "/>
<path fill-rule="nonzero" fill="rgb(16.470588%, 56.078431%, 46.27451%)" fill-opacity="0.698039" d="M 326.445312 370.664062 L 349.628906 370.664062 L 349.628906 137.820312 L 326.445312 137.820312 Z M 326.445312 370.664062 "/>
<path fill-rule="nonzero" fill="rgb(16.470588%, 56.078431%, 46.27451%)" fill-opacity="0.698039" d="M 349.628906 370.664062 L 372.8125 370.664062 L 372.8125 163.691406 L 349.628906 163.691406 Z M 349.628906 370.664062 "/>
<path fill-rule="nonzero" fill="rgb(16.470588%, 56.078431%, 46.27451%)" fill-opacity="0.698039" d="M 372.816406 370.664062 L 396 370.664062 L 396 100.007812 L 372.816406 100.007812 Z M 372.816406 370.664062 "/>
<path fill-rule="nonzero" fill="rgb(16.470588%, 56.078431%, 46.27451%)" fill-opacity="0.698039" d="M 396 370.664062 L 419.183594 370.664062 L 419.183594 159.710938 L 396 159.710938 Z M 396 370.664062 "/>
<path fill-rule="nonzero" fill="rgb(16.470588%, 56.078431%, 46.27451%)" fill-opacity="0.698039" d="M 419.183594 370.664062 L 442.367188 370.664062 L 442.367188 189.5625 L 419.183594 189.5625 Z M 419.183594 370.664062 "/>
<path fill-rule="nonzero" fill="rgb(16.470588%, 56.078431%, 46.27451%)" fill-opacity="0.698039" d="M 442.371094 370.664062 L 465.554688 370.664062 L 465.554688 187.570312 L 442.371094 187.570312 Z M 442.371094 370.664062 "/>
<path fill-rule="nonzero" fill="rgb(16.470588%, 56.078431%, 46.27451%)" fill-opacity="0.698039" d="M 465.554688 370.664062 L 488.738281 370.664062 L 488.738281 291.058594 L 465.554688 291.058594 Z M 465.554688 370.664062 "/>
<path fill-rule="nonzero" fill="rgb(16.470588%, 56.078431%, 46.27451%)" fill-opacity="0.698039" d="M 488.738281 370.664062 L 511.921875 370.664062 L 511.921875 310.960938 L 488.738281 310.960938 Z M 488.738281 370.664062 "/>
<path fill-rule="nonzero" fill="rgb(16.470588%, 56.078431%, 46.27451%)" fill-opacity="0.698039" d="M 511.925781 370.664062 L 535.109375 370.664062 L 535.109375 334.839844 L 511.925781 334.839844 Z M 511.925781 370.664062 "/>
<path fill-rule="nonzero" fill="rgb(16.470588%, 56.078431%, 46.27451%)" fill-opacity="0.698039" d="M 535.109375 370.664062 L 558.292969 370.664062 L 558.292969 348.773438 L 535.109375 348.773438 Z M 535.109375 370.664062 "/>
<path fill-rule="nonzero" fill="rgb(16.470588%, 56.078431%, 46.27451%)" fill-opacity="0.698039" d="M 558.292969 370.664062 L 581.476562 370.664062 L 581.476562 354.742188 L 558.292969 354.742188 Z M 558.292969 370.664062 "/>
<path fill-rule="nonzero" fill="rgb(16.470588%, 56.078431%, 46.27451%)" fill-opacity="0.698039" d="M 581.480469 370.664062 L 604.664062 370.664062 L 604.664062 362.703125 L 581.480469 362.703125 Z M 581.480469 370.664062 "/>
<path fill-rule="nonzero" fill="rgb(16.470588%, 56.078431%, 46.27451%)" fill-opacity="0.698039" d="M 604.664062 370.664062 L 627.847656 370.664062 L 627.847656 364.695312 L 604.664062 364.695312 Z M 604.664062 370.664062 "/>
<path fill-rule="nonzero" fill="rgb(10.196078%, 10.196078%, 10.196078%)" fill-opacity="1" d="M 8.429688 406.226562 L 8.429688 404.976562 L 15.054688 404.976562 L 15.054688 406.226562 Z M 8.429688 406.226562 "/>
<path fill-rule="nonzero" fill="rgb(10.196078%, 10.196078%, 10.196078%)" fill-opacity="1" d="M 26.878906 398 L 20.128906 398 L 20.128906 403.675781 L 20.40625 403.527344 L 20.683594 403.394531 L 20.964844 403.28125 L 21.246094 403.179688 L 21.53125 403.09375 L 21.816406 403.023438 L 22.105469 402.96875 L 22.394531 402.929688 L 22.6875 402.90625 L 22.980469 402.902344 L 23.402344 402.914062 L 23.804688 402.957031 L 24.191406 403.027344 L 24.558594 403.125 L 24.90625 403.25 L 25.238281 403.40625 L 25.550781 403.585938 L 25.84375 403.796875 L 26.121094 404.035156 L 26.378906 404.300781 L 26.621094 404.585938 L 26.839844 404.890625 L 27.03125 405.21875 L 27.195312 405.5625 L 27.335938 405.933594 L 27.453125 406.320312 L 27.539062 406.726562 L 27.605469 407.15625 L 27.644531 407.605469 L 27.65625 408.074219 L 27.648438 408.398438 L 27.628906 408.710938 L 27.59375 409.019531 L 27.546875 409.324219 L 27.488281 409.621094 L 27.414062 409.910156 L 27.324219 410.191406 L 27.222656 410.46875 L 27.109375 410.738281 L 26.980469 411 L 26.84375 411.25 L 26.699219 411.488281 L 26.539062 411.714844 L 26.367188 411.933594 L 26.1875 412.136719 L 25.992188 412.332031 L 25.789062 412.515625 L 25.574219 412.6875 L 25.34375 412.851562 L 25.105469 413 L 24.863281 413.132812 L 24.609375 413.253906 L 24.351562 413.359375 L 24.082031 413.449219 L 23.804688 413.527344 L 23.523438 413.589844 L 23.230469 413.636719 L 22.929688 413.671875 L 22.621094 413.695312 L 22.304688 413.699219 L 21.757812 413.679688 L 21.230469 413.621094 L 20.71875 413.519531 L 20.222656 413.378906 L 19.742188 413.199219 L 19.28125 412.980469 L 18.835938 412.71875 L 18.410156 412.421875 L 18 412.082031 L 17.605469 411.699219 L 18.503906 410.824219 L 18.667969 410.992188 L 18.828125 411.148438 L 18.996094 411.296875 L 19.160156 411.433594 L 19.332031 411.5625 L 19.5 411.683594 L 19.675781 411.796875 L 19.851562 411.898438 L 20.027344 411.992188 L 20.207031 412.074219 L 20.390625 412.152344 L 20.578125 412.21875 L 20.773438 412.28125 L 20.972656 412.332031 L 21.179688 412.375 L 21.394531 412.410156 L 21.613281 412.4375 L 21.835938 412.460938 L 22.070312 412.472656 L 22.304688 412.476562 L 22.652344 412.464844 L 22.984375 412.429688 L 23.304688 412.371094 L 23.605469 412.289062 L 23.894531 412.183594 L 24.164062 412.050781 L 24.421875 411.898438 L 24.664062 411.722656 L 24.894531 411.523438 L 25.105469 411.300781 L 25.300781 411.050781 L 25.476562 410.785156 L 25.628906 410.503906 L 25.761719 410.203125 L 25.875 409.886719 L 25.964844 409.554688 L 26.039062 409.203125 L 26.089844 408.835938 L 26.121094 408.453125 L 26.128906 408.050781 L 26.121094 407.660156 L 26.09375 407.292969 L 26.046875 406.941406 L 25.980469 406.613281 L 25.894531 406.308594 L 25.789062 406.019531 L 25.664062 405.753906 L 25.523438 405.507812 L 25.359375 405.28125 L 25.179688 405.074219 L 24.988281 404.886719 L 24.785156 404.714844 L 24.566406 404.566406 L 24.332031 404.433594 L 24.085938 404.324219 L 23.828125 404.234375 L 23.554688 404.164062 L 23.269531 404.117188 L 22.96875 404.085938 L 22.65625 404.074219 L 22.496094 404.078125 L 22.34375 404.082031 L 22.191406 404.09375 L 22.042969 404.109375 L 21.898438 404.125 L 21.757812 404.148438 L 21.621094 404.171875 L 21.488281 404.203125 L 21.359375 404.238281 L 21.230469 404.277344 L 21.109375 404.3125 L 20.984375 404.355469 L 20.855469 404.402344 L 20.726562 404.457031 L 20.59375 404.511719 L 20.457031 404.574219 L 20.175781 404.714844 L 20.027344 404.792969 L 19.878906 404.875 L 18.730469 404.875 L 18.730469 396.800781 L 27.105469 396.800781 Z M 26.878906 398 "/>
<path fill-rule="nonzero" fill="rgb(10.196078%, 10.196078%, 10.196078%)" fill-opacity="1" d="M 181.648438 396.527344 L 182.152344 396.546875 L 182.628906 396.613281 L 183.082031 396.722656 L 183.507812 396.878906 L 183.910156 397.074219 L 184.289062 397.316406 L 184.640625 397.601562 L 184.96875 397.933594 L 185.273438 398.308594 L 185.550781 398.726562 L 185.800781 399.179688 L 186.027344 399.675781 L 186.226562 400.214844 L 186.398438 400.792969 L 186.542969 401.414062 L 186.664062 402.074219 L 186.753906 402.773438 L 186.820312 403.515625 L 186.859375 404.300781 L 186.875 405.125 L 186.859375 405.945312 L 186.820312 406.726562 L 186.753906 407.464844 L 186.660156 408.164062 L 186.535156 408.824219 L 186.386719 409.445312 L 186.214844 410.027344 L 186.011719 410.566406 L 185.78125 411.066406 L 185.523438 411.527344 L 185.246094 411.9375 L 184.945312 412.308594 L 184.621094 412.632812 L 184.269531 412.917969 L 183.894531 413.15625 L 183.492188 413.351562 L 183.070312 413.503906 L 182.621094 413.613281 L 182.148438 413.679688 L 181.648438 413.699219 L 181.148438 413.679688 L 180.667969 413.613281 L 180.21875 413.503906 L 179.789062 413.351562 L 179.386719 413.15625 L 179.007812 412.917969 L 178.65625 412.632812 L 178.328125 412.308594 L 178.027344 411.9375 L 177.75 411.527344 L 177.496094 411.066406 L 177.273438 410.5625 L 177.074219 410.023438 L 176.902344 409.441406 L 176.753906 408.820312 L 176.636719 408.15625 L 176.542969 407.453125 L 176.476562 406.710938 L 176.4375 405.925781 L 176.425781 405.101562 L 176.4375 404.277344 L 176.476562 403.492188 L 176.542969 402.75 L 176.636719 402.046875 L 176.753906 401.386719 L 176.902344 400.769531 L 177.074219 400.191406 L 177.273438 399.652344 L 177.496094 399.15625 L 177.75 398.699219 L 178.027344 398.289062 L 178.328125 397.917969 L 178.65625 397.589844 L 179.007812 397.308594 L 179.386719 397.070312 L 179.789062 396.875 L 180.21875 396.722656 L 180.667969 396.613281 L 181.148438 396.546875 Z M 181.648438 397.726562 L 180.941406 397.800781 L 180.308594 398.019531 L 179.75 398.390625 L 179.265625 398.90625 L 178.855469 399.570312 L 178.519531 400.378906 L 178.257812 401.339844 L 178.074219 402.445312 L 177.960938 403.699219 L 177.925781 405.101562 L 177.960938 406.507812 L 178.074219 407.765625 L 178.257812 408.875 L 178.519531 409.835938 L 178.855469 410.652344 L 179.265625 411.316406 L 179.75 411.835938 L 180.308594 412.203125 L 180.941406 412.425781 L 181.648438 412.5 L 182.003906 412.484375 L 182.34375 412.429688 L 182.664062 412.339844 L 182.964844 412.210938 L 183.25 412.050781 L 183.515625 411.851562 L 183.761719 411.617188 L 183.992188 411.347656 L 184.207031 411.042969 L 184.398438 410.699219 L 184.578125 410.320312 L 184.742188 409.902344 L 184.882812 409.441406 L 185.007812 408.945312 L 185.113281 408.40625 L 185.199219 407.828125 L 185.265625 407.210938 L 185.3125 406.554688 L 185.339844 405.859375 L 185.347656 405.125 L 185.339844 404.390625 L 185.3125 403.695312 L 185.265625 403.039062 L 185.199219 402.421875 L 185.113281 401.84375 L 185.007812 401.304688 L 184.882812 400.808594 L 184.742188 400.347656 L 184.578125 399.929688 L 184.398438 399.550781 L 184.207031 399.203125 L 183.992188 398.894531 L 183.761719 398.621094 L 183.515625 398.382812 L 183.25 398.183594 L 182.964844 398.015625 L 182.664062 397.890625 L 182.34375 397.796875 L 182.003906 397.742188 Z M 181.648438 397.726562 "/>
<path fill-rule="nonzero" fill="rgb(10.196078%, 10.196078%, 10.196078%)" fill-opacity="1" d="M 349.503906 398 L 342.753906 398 L 342.753906 403.675781 L 343.03125 403.527344 L 343.308594 403.394531 L 343.589844 403.28125 L 343.871094 403.179688 L 344.15625 403.09375 L 344.441406 403.023438 L 344.730469 402.96875 L 345.019531 402.929688 L 345.3125 402.90625 L 345.605469 402.902344 L 346.027344 402.914062 L 346.429688 402.957031 L 346.816406 403.027344 L 347.179688 403.125 L 347.53125 403.25 L 347.863281 403.40625 L 348.175781 403.585938 L 348.46875 403.796875 L 348.746094 404.035156 L 349.003906 404.300781 L 349.246094 404.585938 L 349.464844 404.890625 L 349.65625 405.21875 L 349.820312 405.5625 L 349.960938 405.933594 L 350.078125 406.320312 L 350.164062 406.726562 L 350.230469 407.15625 L 350.269531 407.605469 L 350.28125 408.074219 L 350.273438 408.398438 L 350.253906 408.710938 L 350.21875 409.019531 L 350.171875 409.324219 L 350.113281 409.621094 L 350.039062 409.910156 L 349.949219 410.191406 L 349.847656 410.46875 L 349.734375 410.738281 L 349.605469 411 L 349.46875 411.25 L 349.324219 411.488281 L 349.164062 411.714844 L 348.992188 411.933594 L 348.8125 412.136719 L 348.617188 412.332031 L 348.414062 412.515625 L 348.199219 412.6875 L 347.96875 412.851562 L 347.730469 413 L 347.488281 413.132812 L 347.234375 413.253906 L 346.972656 413.359375 L 346.707031 413.449219 L 346.429688 413.527344 L 346.148438 413.589844 L 345.855469 413.636719 L 345.554688 413.671875 L 345.246094 413.695312 L 344.929688 413.699219 L 344.382812 413.679688 L 343.855469 413.621094 L 343.34375 413.519531 L 342.847656 413.378906 L 342.367188 413.199219 L 341.90625 412.980469 L 341.460938 412.71875 L 341.035156 412.421875 L 340.625 412.082031 L 340.230469 411.699219 L 341.128906 410.824219 L 341.292969 410.992188 L 341.453125 411.148438 L 341.621094 411.296875 L 341.785156 411.433594 L 341.957031 411.5625 L 342.125 411.683594 L 342.300781 411.796875 L 342.472656 411.898438 L 342.652344 411.992188 L 342.832031 412.074219 L 343.011719 412.152344 L 343.203125 412.21875 L 343.398438 412.28125 L 343.597656 412.332031 L 343.804688 412.375 L 344.019531 412.410156 L 344.238281 412.4375 L 344.460938 412.460938 L 344.695312 412.472656 L 344.929688 412.476562 L 345.277344 412.464844 L 345.609375 412.429688 L 345.929688 412.371094 L 346.230469 412.289062 L 346.519531 412.183594 L 346.789062 412.050781 L 347.046875 411.898438 L 347.289062 411.722656 L 347.519531 411.523438 L 347.730469 411.300781 L 347.925781 411.050781 L 348.097656 410.785156 L 348.253906 410.503906 L 348.386719 410.203125 L 348.5 409.886719 L 348.589844 409.554688 L 348.664062 409.203125 L 348.714844 408.835938 L 348.746094 408.453125 L 348.753906 408.050781 L 348.746094 407.660156 L 348.71875 407.292969 L 348.671875 406.941406 L 348.605469 406.613281 L 348.519531 406.308594 L 348.414062 406.019531 L 348.289062 405.753906 L 348.148438 405.507812 L 347.984375 405.28125 L 347.804688 405.074219 L 347.613281 404.886719 L 347.410156 404.714844 L 347.191406 404.566406 L 346.957031 404.433594 L 346.710938 404.324219 L 346.453125 404.234375 L 346.179688 404.164062 L 345.894531 404.117188 L 345.59375 404.085938 L 345.28125 404.074219 L 345.121094 404.078125 L 344.96875 404.082031 L 344.816406 404.09375 L 344.667969 404.109375 L 344.523438 404.125 L 344.382812 404.148438 L 344.246094 404.171875 L 344.113281 404.203125 L 343.980469 404.238281 L 343.855469 404.277344 L 343.734375 404.3125 L 343.609375 404.355469 L 343.480469 404.402344 L 343.351562 404.457031 L 343.21875 404.511719 L 343.082031 404.574219 L 342.800781 404.714844 L 342.652344 404.792969 L 342.503906 404.875 L 341.355469 404.875 L 341.355469 396.800781 L 349.730469 396.800781 Z M 349.503906 398 "/>
<path fill-rule="nonzero" fill="rgb(10.196078%, 10.196078%, 10.196078%)" fill-opacity="1" d="M 504.550781 396.800781 L 504.550781 413.425781 L 503.097656 413.425781 L 503.097656 398.402344 L 499 400.949219 L 498.324219 399.875 L 503.300781 396.800781 Z M 504.550781 396.800781 "/>
<path fill-rule="nonzero" fill="rgb(10.196078%, 10.196078%, 10.196078%)" fill-opacity="1" d="M 514.449219 396.527344 L 514.953125 396.546875 L 515.429688 396.613281 L 515.882812 396.722656 L 516.308594 396.878906 L 516.710938 397.074219 L 517.089844 397.316406 L 517.441406 397.601562 L 517.769531 397.933594 L 518.070312 398.308594 L 518.347656 398.726562 L 518.601562 399.179688 L 518.828125 399.675781 L 519.023438 400.214844 L 519.195312 400.792969 L 519.34375 401.414062 L 519.460938 402.074219 L 519.554688 402.773438 L 519.621094 403.515625 L 519.660156 404.300781 L 519.675781 405.125 L 519.660156 405.945312 L 519.621094 406.726562 L 519.550781 407.464844 L 519.457031 408.164062 L 519.335938 408.824219 L 519.1875 409.445312 L 519.011719 410.027344 L 518.808594 410.566406 L 518.582031 411.066406 L 518.324219 411.527344 L 518.046875 411.9375 L 517.746094 412.308594 L 517.417969 412.632812 L 517.066406 412.917969 L 516.691406 413.15625 L 516.292969 413.351562 L 515.867188 413.503906 L 515.421875 413.613281 L 514.945312 413.679688 L 514.449219 413.699219 L 513.945312 413.679688 L 513.46875 413.613281 L 513.015625 413.503906 L 512.589844 413.351562 L 512.1875 413.15625 L 511.808594 412.917969 L 511.457031 412.632812 L 511.128906 412.308594 L 510.828125 411.9375 L 510.550781 411.527344 L 510.296875 411.066406 L 510.070312 410.5625 L 509.875 410.023438 L 509.703125 409.441406 L 509.554688 408.820312 L 509.4375 408.15625 L 509.34375 407.453125 L 509.277344 406.710938 L 509.238281 405.925781 L 509.222656 405.101562 L 509.238281 404.277344 L 509.277344 403.492188 L 509.34375 402.75 L 509.4375 402.046875 L 509.554688 401.386719 L 509.703125 400.769531 L 509.875 400.191406 L 510.070312 399.652344 L 510.296875 399.15625 L 510.550781 398.699219 L 510.828125 398.289062 L 511.128906 397.917969 L 511.457031 397.589844 L 511.808594 397.308594 L 512.1875 397.070312 L 512.589844 396.875 L 513.015625 396.722656 L 513.46875 396.613281 L 513.945312 396.546875 Z M 514.449219 397.726562 L 513.742188 397.800781 L 513.109375 398.019531 L 512.550781 398.390625 L 512.066406 398.90625 L 511.65625 399.570312 L 511.320312 400.378906 L 511.058594 401.339844 L 510.875 402.445312 L 510.761719 403.699219 L 510.722656 405.101562 L 510.761719 406.507812 L 510.875 407.765625 L 511.058594 408.875 L 511.320312 409.835938 L 511.65625 410.652344 L 512.066406 411.316406 L 512.550781 411.835938 L 513.109375 412.203125 L 513.742188 412.425781 L 514.449219 412.5 L 514.804688 412.484375 L 515.144531 412.429688 L 515.464844 412.339844 L 515.765625 412.210938 L 516.050781 412.050781 L 516.316406 411.851562 L 516.5625 411.617188 L 516.792969 411.347656 L 517.003906 411.042969 L 517.199219 410.699219 L 517.378906 410.320312 L 517.542969 409.902344 L 517.683594 409.441406 L 517.808594 408.945312 L 517.910156 408.40625 L 517.996094 407.828125 L 518.0625 407.210938 L 518.109375 406.554688 L 518.140625 405.859375 L 518.148438 405.125 L 518.140625 404.390625 L 518.109375 403.695312 L 518.0625 403.039062 L 517.996094 402.421875 L 517.910156 401.84375 L 517.808594 401.304688 L 517.683594 400.808594 L 517.542969 400.347656 L 517.378906 399.929688 L 517.199219 399.550781 L 517.003906 399.203125 L 516.792969 398.894531 L 516.5625 398.621094 L 516.316406 398.382812 L 516.050781 398.183594 L 515.765625 398.015625 L 515.464844 397.890625 L 515.144531 397.796875 L 514.804688 397.742188 Z M 514.449219 397.726562 "/>
<path fill-rule="nonzero" fill="rgb(10.196078%, 10.196078%, 10.196078%)" fill-opacity="1" d="M 669.15625 396.800781 L 669.15625 413.425781 L 667.707031 413.425781 L 667.707031 398.402344 L 663.605469 400.949219 L 662.929688 399.875 L 667.90625 396.800781 Z M 669.15625 396.800781 "/>
<path fill-rule="nonzero" fill="rgb(10.196078%, 10.196078%, 10.196078%)" fill-opacity="1" d="M 682.304688 398 L 675.554688 398 L 675.554688 403.675781 L 675.832031 403.527344 L 676.109375 403.394531 L 676.390625 403.28125 L 676.671875 403.179688 L 676.957031 403.09375 L 677.242188 403.023438 L 677.53125 402.96875 L 677.820312 402.929688 L 678.113281 402.90625 L 678.40625 402.902344 L 678.828125 402.914062 L 679.230469 402.957031 L 679.613281 403.027344 L 679.980469 403.125 L 680.332031 403.25 L 680.660156 403.40625 L 680.972656 403.585938 L 681.269531 403.796875 L 681.546875 404.035156 L 681.804688 404.300781 L 682.046875 404.585938 L 682.265625 404.890625 L 682.457031 405.21875 L 682.621094 405.5625 L 682.761719 405.933594 L 682.875 406.320312 L 682.964844 406.726562 L 683.03125 407.15625 L 683.066406 407.605469 L 683.082031 408.074219 L 683.074219 408.398438 L 683.054688 408.710938 L 683.019531 409.019531 L 682.972656 409.324219 L 682.910156 409.621094 L 682.835938 409.910156 L 682.75 410.191406 L 682.648438 410.46875 L 682.535156 410.738281 L 682.40625 411 L 682.269531 411.25 L 682.121094 411.488281 L 681.964844 411.714844 L 681.792969 411.933594 L 681.613281 412.136719 L 681.417969 412.332031 L 681.214844 412.515625 L 680.996094 412.6875 L 680.769531 412.851562 L 680.53125 413 L 680.285156 413.132812 L 680.035156 413.253906 L 679.773438 413.359375 L 679.507812 413.449219 L 679.230469 413.527344 L 678.945312 413.589844 L 678.65625 413.636719 L 678.355469 413.671875 L 678.046875 413.695312 L 677.730469 413.699219 L 677.183594 413.679688 L 676.65625 413.621094 L 676.140625 413.519531 L 675.644531 413.378906 L 675.167969 413.199219 L 674.707031 412.980469 L 674.261719 412.71875 L 673.835938 412.421875 L 673.425781 412.082031 L 673.03125 411.699219 L 673.929688 410.824219 L 674.089844 410.992188 L 674.253906 411.148438 L 674.417969 411.296875 L 674.585938 411.433594 L 674.753906 411.5625 L 674.925781 411.683594 L 675.097656 411.796875 L 675.273438 411.898438 L 675.453125 411.992188 L 675.628906 412.074219 L 675.8125 412.152344 L 676.003906 412.21875 L 676.199219 412.28125 L 676.398438 412.332031 L 676.605469 412.375 L 676.820312 412.410156 L 677.039062 412.4375 L 677.261719 412.460938 L 677.492188 412.472656 L 677.730469 412.476562 L 678.078125 412.464844 L 678.410156 412.429688 L 678.726562 412.371094 L 679.03125 412.289062 L 679.316406 412.183594 L 679.589844 412.050781 L 679.847656 411.898438 L 680.089844 411.722656 L 680.316406 411.523438 L 680.53125 411.300781 L 680.726562 411.050781 L 680.898438 410.785156 L 681.054688 410.503906 L 681.1875 410.203125 L 681.300781 409.886719 L 681.390625 409.554688 L 681.464844 409.203125 L 681.515625 408.835938 L 681.546875 408.453125 L 681.554688 408.050781 L 681.546875 407.660156 L 681.515625 407.292969 L 681.46875 406.941406 L 681.402344 406.613281 L 681.316406 406.308594 L 681.214844 406.019531 L 681.089844 405.753906 L 680.949219 405.507812 L 680.785156 405.28125 L 680.605469 405.074219 L 680.414062 404.886719 L 680.207031 404.714844 L 679.988281 404.566406 L 679.757812 404.433594 L 679.511719 404.324219 L 679.253906 404.234375 L 678.980469 404.164062 L 678.695312 404.117188 L 678.394531 404.085938 L 678.082031 404.074219 L 677.921875 404.078125 L 677.765625 404.082031 L 677.617188 404.09375 L 677.46875 404.109375 L 677.324219 404.125 L 677.183594 404.148438 L 677.046875 404.171875 L 676.914062 404.203125 L 676.78125 404.238281 L 676.65625 404.277344 L 676.535156 404.3125 L 676.410156 404.355469 L 676.28125 404.402344 L 676.152344 404.457031 L 676.019531 404.511719 L 675.882812 404.574219 L 675.742188 404.644531 L 675.597656 404.714844 L 675.453125 404.792969 L 675.304688 404.875 L 674.15625 404.875 L 674.15625 396.800781 L 682.53125 396.800781 Z M 682.304688 398 "/>
<path fill-rule="nonzero" fill="rgb(56.078431%, 16.470588%, 26.27451%)" fill-opacity="0.698039" d="M 300.667969 44.382812 L 314.46875 44.382812 L 314.46875 28.636719 L 300.667969 28.636719 Z M 300.667969 44.382812 "/>
<path fill-rule="nonzero" fill="rgb(16.470588%, 56.078431%, 46.27451%)" fill-opacity="0.698039" d="M 382.929688 44.382812 L 396.730469 44.382812 L 396.730469 28.636719 L 382.929688 28.636719 Z M 382.929688 44.382812 "/>
<path fill-rule="nonzero" fill="rgb(0%, 0%, 0%)" fill-opacity="1" d="M 337.996094 36.066406 L 338.292969 36.109375 L 338.578125 36.167969 L 338.851562 36.238281 L 339.117188 36.324219 L 339.367188 36.425781 L 339.609375 36.539062 L 339.839844 36.671875 L 340.054688 36.816406 L 340.261719 36.972656 L 340.460938 37.148438 L 340.640625 37.335938 L 340.800781 37.539062 L 340.945312 37.757812 L 341.066406 38 L 341.171875 38.253906 L 341.257812 38.53125 L 341.324219 38.820312 L 341.371094 39.132812 L 341.398438 39.460938 L 341.410156 39.804688 L 341.394531 40.210938 L 341.351562 40.59375 L 341.285156 40.953125 L 341.183594 41.292969 L 341.058594 41.613281 L 340.902344 41.914062 L 340.722656 42.191406 L 340.511719 42.445312 L 340.273438 42.679688 L 340.003906 42.894531 L 339.714844 43.085938 L 339.398438 43.257812 L 339.0625 43.410156 L 338.707031 43.542969 L 338.328125 43.65625 L 337.925781 43.746094 L 337.5 43.816406 L 337.054688 43.867188 L 336.585938 43.898438 L 336.097656 43.910156 L 332.058594 43.910156 L 332.058594 29.113281 L 335.363281 29.113281 L 335.863281 29.121094 L 336.34375 29.148438 L 336.796875 29.195312 L 337.226562 29.261719 L 337.636719 29.34375 L 338.019531 29.449219 L 338.378906 29.566406 L 338.714844 29.707031 L 339.027344 29.867188 L 339.3125 30.042969 L 339.582031 30.238281 L 339.820312 30.449219 L 340.03125 30.679688 L 340.214844 30.929688 L 340.367188 31.199219 L 340.492188 31.484375 L 340.59375 31.785156 L 340.664062 32.109375 L 340.703125 32.449219 L 340.71875 32.808594 L 340.710938 33.074219 L 340.6875 33.332031 L 340.648438 33.578125 L 340.597656 33.8125 L 340.53125 34.039062 L 340.445312 34.253906 L 340.347656 34.457031 L 340.234375 34.652344 L 340.105469 34.835938 L 339.960938 35.011719 L 339.8125 35.171875 L 339.648438 35.320312 L 339.476562 35.460938 L 339.296875 35.582031 L 339.105469 35.695312 L 338.902344 35.796875 L 338.691406 35.882812 L 338.46875 35.957031 L 338.238281 36.019531 Z M 333.351562 30.191406 L 333.351562 35.613281 L 336.332031 35.613281 L 336.605469 35.609375 L 336.863281 35.585938 L 337.113281 35.550781 L 337.351562 35.5 L 337.582031 35.4375 L 337.796875 35.359375 L 338.003906 35.265625 L 338.199219 35.160156 L 338.382812 35.039062 L 338.558594 34.902344 L 338.71875 34.75 L 338.863281 34.585938 L 338.988281 34.414062 L 339.097656 34.226562 L 339.191406 34.03125 L 339.265625 33.828125 L 339.324219 33.609375 L 339.367188 33.382812 L 339.390625 33.144531 L 339.402344 32.894531 L 339.390625 32.613281 L 339.359375 32.347656 L 339.3125 32.097656 L 339.242188 31.867188 L 339.152344 31.652344 L 339.042969 31.453125 L 338.914062 31.269531 L 338.765625 31.101562 L 338.597656 30.953125 L 338.40625 30.820312 L 338.203125 30.699219 L 337.980469 30.59375 L 337.738281 30.5 L 337.472656 30.417969 L 337.191406 30.351562 L 336.890625 30.292969 L 336.570312 30.25 L 336.230469 30.21875 L 335.871094 30.199219 L 335.492188 30.191406 Z M 336.097656 42.828125 L 336.851562 42.800781 L 337.527344 42.707031 L 338.121094 42.558594 L 338.640625 42.34375 L 339.078125 42.074219 L 339.433594 41.742188 L 339.710938 41.347656 L 339.910156 40.894531 L 340.03125 40.378906 L 340.070312 39.804688 L 340.058594 39.492188 L 340.03125 39.199219 L 339.980469 38.921875 L 339.910156 38.65625 L 339.820312 38.410156 L 339.710938 38.183594 L 339.582031 37.96875 L 339.433594 37.773438 L 339.265625 37.59375 L 339.078125 37.429688 L 338.875 37.28125 L 338.660156 37.148438 L 338.433594 37.03125 L 338.195312 36.929688 L 337.941406 36.847656 L 337.675781 36.777344 L 337.398438 36.722656 L 337.105469 36.683594 L 336.800781 36.660156 L 336.484375 36.652344 L 333.351562 36.652344 L 333.351562 42.828125 Z M 336.097656 42.828125 "/>
<path fill-rule="nonzero" fill="rgb(0%, 0%, 0%)" fill-opacity="1" d="M 353.050781 29.113281 L 352.902344 30.257812 L 348.558594 30.257812 L 348.558594 43.910156 L 347.285156 43.910156 L 347.285156 30.257812 L 342.898438 30.257812 L 342.898438 29.113281 Z M 353.050781 29.113281 "/>
<path fill-rule="nonzero" fill="rgb(0%, 0%, 0%)" fill-opacity="1" d="M 364.046875 43.910156 L 364.046875 36.671875 L 356.960938 36.671875 L 356.960938 43.910156 L 355.664062 43.910156 L 355.664062 29.113281 L 356.960938 29.113281 L 356.960938 35.570312 L 364.046875 35.570312 L 364.046875 29.113281 L 365.34375 29.113281 L 365.34375 43.910156 Z M 364.046875 43.910156 "/>
<path fill-rule="nonzero" fill="rgb(0%, 0%, 0%)" fill-opacity="1" d="M 422.394531 29.113281 L 422.242188 30.257812 L 417.902344 30.257812 L 417.902344 43.910156 L 416.628906 43.910156 L 416.628906 30.257812 L 412.242188 30.257812 L 412.242188 29.113281 Z M 422.394531 29.113281 "/>
<path fill-rule="nonzero" fill="rgb(0%, 0%, 0%)" fill-opacity="1" d="M 432.914062 37.839844 L 432.914062 38.027344 L 432.910156 38.121094 L 432.90625 38.210938 L 432.902344 38.304688 L 432.894531 38.484375 L 432.886719 38.570312 L 432.878906 38.660156 L 432.871094 38.746094 L 425.332031 38.746094 L 425.363281 39.175781 L 425.410156 39.582031 L 425.472656 39.96875 L 425.550781 40.328125 L 425.644531 40.667969 L 425.757812 40.984375 L 425.886719 41.28125 L 426.03125 41.554688 L 426.191406 41.800781 L 426.371094 42.03125 L 426.566406 42.230469 L 426.773438 42.410156 L 426.992188 42.570312 L 427.222656 42.707031 L 427.464844 42.824219 L 427.71875 42.917969 L 427.984375 42.992188 L 428.261719 43.046875 L 428.550781 43.078125 L 428.855469 43.089844 L 429.027344 43.085938 L 429.199219 43.078125 L 429.367188 43.066406 L 429.527344 43.046875 L 429.683594 43.023438 L 429.839844 42.996094 L 429.988281 42.960938 L 430.132812 42.921875 L 430.273438 42.878906 L 430.410156 42.828125 L 430.546875 42.769531 L 430.691406 42.703125 L 430.832031 42.632812 L 430.980469 42.554688 L 431.125 42.472656 L 431.277344 42.382812 L 431.429688 42.289062 L 431.582031 42.1875 L 431.742188 42.078125 L 431.898438 41.964844 L 432.480469 42.765625 L 432.3125 42.898438 L 432.144531 43.027344 L 431.972656 43.148438 L 431.800781 43.261719 L 431.628906 43.367188 L 431.457031 43.46875 L 431.28125 43.5625 L 431.105469 43.648438 L 430.929688 43.730469 L 430.753906 43.800781 L 430.574219 43.867188 L 430.390625 43.925781 L 430.207031 43.976562 L 430.015625 44.023438 L 429.820312 44.058594 L 429.621094 44.089844 L 429.417969 44.117188 L 429.214844 44.132812 L 429.003906 44.144531 L 428.789062 44.148438 L 428.347656 44.132812 L 427.929688 44.085938 L 427.527344 44.007812 L 427.148438 43.902344 L 426.785156 43.761719 L 426.441406 43.59375 L 426.121094 43.394531 L 425.816406 43.164062 L 425.53125 42.90625 L 425.269531 42.613281 L 425.027344 42.292969 L 424.808594 41.953125 L 424.617188 41.585938 L 424.453125 41.195312 L 424.3125 40.78125 L 424.199219 40.34375 L 424.109375 39.882812 L 424.042969 39.398438 L 424.007812 38.890625 L 423.992188 38.359375 L 424 38.003906 L 424.015625 37.660156 L 424.042969 37.324219 L 424.078125 36.996094 L 424.128906 36.679688 L 424.1875 36.371094 L 424.257812 36.070312 L 424.339844 35.78125 L 424.429688 35.5 L 424.535156 35.226562 L 424.652344 34.960938 L 424.777344 34.707031 L 424.910156 34.464844 L 425.054688 34.238281 L 425.207031 34.023438 L 425.371094 33.820312 L 425.542969 33.628906 L 425.722656 33.449219 L 425.910156 33.285156 L 426.109375 33.128906 L 426.320312 32.988281 L 426.539062 32.859375 L 426.761719 32.746094 L 426.992188 32.648438 L 427.226562 32.5625 L 427.472656 32.496094 L 427.71875 32.441406 L 427.976562 32.40625 L 428.238281 32.382812 L 428.507812 32.375 L 428.929688 32.390625 L 429.332031 32.433594 L 429.710938 32.507812 L 430.070312 32.609375 L 430.410156 32.742188 L 430.726562 32.902344 L 431.023438 33.09375 L 431.300781 33.316406 L 431.554688 33.566406 L 431.792969 33.84375 L 432.003906 34.144531 L 432.195312 34.464844 L 432.363281 34.8125 L 432.511719 35.175781 L 432.632812 35.566406 L 432.734375 35.976562 L 432.8125 36.410156 L 432.871094 36.863281 L 432.902344 37.339844 Z M 431.683594 37.449219 L 431.675781 37.078125 L 431.652344 36.722656 L 431.609375 36.386719 L 431.554688 36.066406 L 431.484375 35.761719 L 431.394531 35.472656 L 431.292969 35.203125 L 431.171875 34.949219 L 431.035156 34.710938 L 430.882812 34.492188 L 430.71875 34.285156 L 430.542969 34.101562 L 430.347656 33.941406 L 430.136719 33.800781 L 429.910156 33.679688 L 429.671875 33.585938 L 429.414062 33.507812 L 429.140625 33.453125 L 428.855469 33.421875 L 428.550781 33.410156 L 428.277344 33.421875 L 428.011719 33.453125 L 427.757812 33.507812 L 427.515625 33.585938 L 427.28125 33.679688 L 427.0625 33.800781 L 426.851562 33.941406 L 426.648438 34.101562 L 426.460938 34.285156 L 426.28125 34.492188 L 426.117188 34.71875 L 425.96875 34.96875 L 425.835938 35.242188 L 425.714844 35.535156 L 425.613281 35.851562 L 425.527344 36.191406 L 425.453125 36.554688 L 425.398438 36.9375 L 425.359375 37.34375 L 425.332031 37.773438 L 431.683594 37.773438 Z M 431.683594 37.449219 "/>
<path fill-rule="nonzero" fill="rgb(0%, 0%, 0%)" fill-opacity="1" d="M 440.367188 32.375 L 440.804688 32.390625 L 441.226562 32.4375 L 441.625 32.515625 L 442.003906 32.625 L 442.363281 32.761719 L 442.703125 32.933594 L 443.023438 33.136719 L 443.324219 33.371094 L 443.605469 33.632812 L 443.867188 33.929688 L 444.109375 34.25 L 444.324219 34.59375 L 444.515625 34.960938 L 444.679688 35.355469 L 444.820312 35.769531 L 444.9375 36.214844 L 445.023438 36.679688 L 445.089844 37.171875 L 445.128906 37.6875 L 445.140625 38.226562 L 445.128906 38.765625 L 445.089844 39.28125 L 445.023438 39.769531 L 444.933594 40.238281 L 444.816406 40.683594 L 444.671875 41.109375 L 444.503906 41.507812 L 444.308594 41.886719 L 444.089844 42.238281 L 443.84375 42.570312 L 443.578125 42.871094 L 443.296875 43.136719 L 442.992188 43.375 L 442.671875 43.578125 L 442.332031 43.753906 L 441.972656 43.894531 L 441.59375 44.003906 L 441.195312 44.082031 L 440.78125 44.132812 L 440.34375 44.148438 L 439.90625 44.132812 L 439.484375 44.085938 L 439.085938 44.007812 L 438.703125 43.898438 L 438.339844 43.757812 L 438 43.585938 L 437.675781 43.382812 L 437.371094 43.152344 L 437.089844 42.886719 L 436.824219 42.589844 L 436.585938 42.265625 L 436.371094 41.914062 L 436.183594 41.539062 L 436.023438 41.144531 L 435.882812 40.722656 L 435.773438 40.28125 L 435.683594 39.8125 L 435.621094 39.320312 L 435.582031 38.808594 L 435.570312 38.273438 L 435.578125 37.917969 L 435.59375 37.574219 L 435.625 37.238281 L 435.664062 36.910156 L 435.71875 36.59375 L 435.78125 36.285156 L 435.855469 35.984375 L 435.945312 35.691406 L 436.042969 35.410156 L 436.15625 35.140625 L 436.277344 34.878906 L 436.40625 34.628906 L 436.550781 34.390625 L 436.699219 34.167969 L 436.863281 33.957031 L 437.03125 33.757812 L 437.214844 33.570312 L 437.40625 33.398438 L 437.605469 33.238281 L 437.816406 33.085938 L 438.039062 32.953125 L 438.265625 32.832031 L 438.5 32.722656 L 438.742188 32.632812 L 438.996094 32.554688 L 439.253906 32.488281 L 439.519531 32.4375 L 439.792969 32.402344 L 440.078125 32.382812 Z M 440.367188 33.433594 L 440.046875 33.445312 L 439.738281 33.480469 L 439.449219 33.542969 L 439.171875 33.628906 L 438.910156 33.742188 L 438.660156 33.875 L 438.429688 34.035156 L 438.210938 34.222656 L 438.007812 34.429688 L 437.816406 34.664062 L 437.644531 34.921875 L 437.492188 35.203125 L 437.355469 35.507812 L 437.238281 35.832031 L 437.136719 36.183594 L 437.054688 36.554688 L 436.992188 36.949219 L 436.945312 37.367188 L 436.917969 37.808594 L 436.910156 38.273438 L 436.917969 38.730469 L 436.945312 39.167969 L 436.988281 39.582031 L 437.050781 39.976562 L 437.132812 40.34375 L 437.230469 40.691406 L 437.34375 41.015625 L 437.476562 41.320312 L 437.628906 41.601562 L 437.796875 41.855469 L 437.984375 42.089844 L 438.1875 42.300781 L 438.40625 42.484375 L 438.640625 42.644531 L 438.886719 42.78125 L 439.148438 42.890625 L 439.425781 42.976562 L 439.71875 43.039062 L 440.023438 43.074219 L 440.34375 43.089844 L 440.664062 43.074219 L 440.972656 43.039062 L 441.261719 42.976562 L 441.539062 42.890625 L 441.804688 42.78125 L 442.050781 42.644531 L 442.28125 42.484375 L 442.5 42.300781 L 442.703125 42.089844 L 442.894531 41.855469 L 443.070312 41.597656 L 443.226562 41.316406 L 443.367188 41.011719 L 443.488281 40.683594 L 443.589844 40.335938 L 443.671875 39.960938 L 443.738281 39.5625 L 443.785156 39.140625 L 443.8125 38.695312 L 443.824219 38.226562 L 443.8125 37.769531 L 443.785156 37.332031 L 443.742188 36.917969 L 443.675781 36.527344 L 443.59375 36.160156 L 443.496094 35.816406 L 443.378906 35.492188 L 443.242188 35.195312 L 443.085938 34.917969 L 442.914062 34.664062 L 442.730469 34.429688 L 442.53125 34.222656 L 442.3125 34.035156 L 442.082031 33.875 L 441.835938 33.742188 L 441.574219 33.628906 L 441.292969 33.542969 L 441 33.480469 L 440.691406 33.445312 Z M 440.367188 33.433594 "/>
<path fill-rule="nonzero" fill="rgb(0%, 0%, 0%)" fill-opacity="1" d="M 453.195312 32.375 L 453.328125 32.375 L 453.457031 32.378906 L 453.699219 32.394531 L 453.8125 32.40625 L 453.921875 32.421875 L 454.027344 32.4375 L 454.128906 32.457031 L 454.226562 32.480469 L 454.320312 32.503906 L 454.082031 33.691406 L 453.988281 33.667969 L 453.890625 33.644531 L 453.792969 33.625 L 453.597656 33.59375 L 453.496094 33.582031 L 453.292969 33.566406 L 453.191406 33.5625 L 453.089844 33.5625 L 452.863281 33.570312 L 452.648438 33.597656 L 452.441406 33.636719 L 452.242188 33.699219 L 452.050781 33.773438 L 451.871094 33.867188 L 451.699219 33.976562 L 451.535156 34.101562 L 451.378906 34.246094 L 451.230469 34.40625 L 451.09375 34.578125 L 450.964844 34.769531 L 450.835938 34.984375 L 450.710938 35.214844 L 450.59375 35.464844 L 450.480469 35.730469 L 450.371094 36.019531 L 450.261719 36.328125 L 450.160156 36.652344 L 450.066406 36.996094 L 450.066406 43.910156 L 448.8125 43.910156 L 448.8125 32.613281 L 449.890625 32.613281 L 450 35.140625 L 450.09375 34.867188 L 450.195312 34.605469 L 450.300781 34.363281 L 450.414062 34.132812 L 450.535156 33.917969 L 450.660156 33.71875 L 450.792969 33.535156 L 450.933594 33.363281 L 451.078125 33.207031 L 451.230469 33.066406 L 451.394531 32.933594 L 451.566406 32.816406 L 451.742188 32.714844 L 451.929688 32.625 L 452.121094 32.546875 L 452.324219 32.484375 L 452.53125 32.4375 L 452.746094 32.402344 L 452.96875 32.382812 Z M 453.195312 32.375 "/>
<path fill-rule="nonzero" fill="rgb(0%, 0%, 0%)" fill-opacity="1" d="M 458.121094 32.613281 L 458.121094 43.910156 L 456.867188 43.910156 L 456.867188 32.613281 Z M 457.472656 27.644531 L 457.558594 27.648438 L 457.640625 27.65625 L 457.71875 27.667969 L 457.792969 27.6875 L 457.863281 27.710938 L 457.929688 27.738281 L 457.992188 27.769531 L 458.054688 27.808594 L 458.164062 27.902344 L 458.214844 27.957031 L 458.257812 28.011719 L 458.296875 28.070312 L 458.332031 28.132812 L 458.359375 28.195312 L 458.382812 28.261719 L 458.402344 28.328125 L 458.414062 28.402344 L 458.421875 28.476562 L 458.425781 28.550781 L 458.421875 28.628906 L 458.414062 28.703125 L 458.402344 28.773438 L 458.382812 28.84375 L 458.359375 28.90625 L 458.332031 28.972656 L 458.296875 29.03125 L 458.257812 29.089844 L 458.214844 29.144531 L 458.164062 29.199219 L 458.109375 29.25 L 458.054688 29.292969 L 457.992188 29.332031 L 457.929688 29.367188 L 457.863281 29.394531 L 457.792969 29.417969 L 457.71875 29.433594 L 457.640625 29.449219 L 457.558594 29.457031 L 457.394531 29.457031 L 457.316406 29.449219 L 457.167969 29.417969 L 457.101562 29.394531 L 457.035156 29.367188 L 456.972656 29.332031 L 456.914062 29.292969 L 456.855469 29.25 L 456.804688 29.199219 L 456.753906 29.144531 L 456.710938 29.089844 L 456.671875 29.03125 L 456.636719 28.972656 L 456.609375 28.90625 L 456.585938 28.84375 L 456.566406 28.773438 L 456.554688 28.703125 L 456.546875 28.628906 L 456.542969 28.550781 L 456.546875 28.476562 L 456.554688 28.402344 L 456.566406 28.328125 L 456.585938 28.261719 L 456.609375 28.195312 L 456.636719 28.132812 L 456.671875 28.070312 L 456.710938 28.011719 L 456.753906 27.957031 L 456.804688 27.902344 L 456.855469 27.855469 L 456.914062 27.808594 L 456.972656 27.769531 L 457.035156 27.738281 L 457.101562 27.710938 L 457.167969 27.6875 L 457.242188 27.667969 L 457.316406 27.65625 L 457.394531 27.648438 Z M 457.472656 27.644531 "/>
<path fill-rule="nonzero" fill="rgb(0%, 0%, 0%)" fill-opacity="1" d="M 466.566406 32.375 L 466.757812 32.378906 L 466.949219 32.386719 L 467.132812 32.398438 L 467.308594 32.417969 L 467.484375 32.445312 L 467.65625 32.476562 L 467.820312 32.511719 L 467.984375 32.554688 L 468.140625 32.601562 L 468.296875 32.65625 L 468.445312 32.710938 L 468.597656 32.773438 L 468.746094 32.84375 L 468.894531 32.917969 L 469.039062 33 L 469.1875 33.089844 L 469.332031 33.1875 L 469.476562 33.292969 L 469.621094 33.402344 L 469.765625 33.519531 L 469.136719 34.339844 L 468.910156 34.167969 L 468.796875 34.089844 L 468.679688 34.015625 L 468.566406 33.945312 L 468.332031 33.820312 L 468.210938 33.765625 L 468.089844 33.714844 L 467.972656 33.671875 L 467.851562 33.628906 L 467.730469 33.59375 L 467.605469 33.5625 L 467.476562 33.53125 L 467.34375 33.507812 L 467.210938 33.488281 L 467.070312 33.472656 L 466.78125 33.457031 L 466.632812 33.453125 L 466.320312 33.46875 L 466.019531 33.503906 L 465.730469 33.566406 L 465.457031 33.65625 L 465.195312 33.769531 L 464.945312 33.90625 L 464.710938 34.070312 L 464.488281 34.257812 L 464.28125 34.46875 L 464.082031 34.707031 L 463.902344 34.964844 L 463.742188 35.246094 L 463.597656 35.550781 L 463.476562 35.875 L 463.371094 36.226562 L 463.285156 36.597656 L 463.21875 36.992188 L 463.171875 37.410156 L 463.140625 37.851562 L 463.132812 38.316406 L 463.140625 38.773438 L 463.167969 39.210938 L 463.214844 39.621094 L 463.28125 40.011719 L 463.363281 40.378906 L 463.46875 40.71875 L 463.585938 41.039062 L 463.726562 41.335938 L 463.886719 41.609375 L 464.0625 41.855469 L 464.257812 42.082031 L 464.46875 42.285156 L 464.691406 42.464844 L 464.925781 42.617188 L 465.175781 42.75 L 465.433594 42.855469 L 465.710938 42.9375 L 465.996094 42.996094 L 466.296875 43.035156 L 466.609375 43.046875 L 466.761719 43.042969 L 466.90625 43.035156 L 467.050781 43.023438 L 467.191406 43.007812 L 467.464844 42.960938 L 467.59375 42.929688 L 467.722656 42.894531 L 467.972656 42.808594 L 468.097656 42.757812 L 468.222656 42.703125 L 468.347656 42.644531 L 468.597656 42.511719 L 468.722656 42.4375 L 468.847656 42.359375 L 469.097656 42.1875 L 469.222656 42.09375 L 469.828125 42.9375 L 469.539062 43.167969 L 469.242188 43.371094 L 468.9375 43.554688 L 468.625 43.710938 L 468.304688 43.84375 L 467.976562 43.953125 L 467.640625 44.039062 L 467.300781 44.097656 L 466.949219 44.132812 L 466.589844 44.148438 L 466.304688 44.140625 L 466.023438 44.117188 L 465.753906 44.085938 L 465.488281 44.035156 L 465.234375 43.972656 L 464.984375 43.898438 L 464.742188 43.808594 L 464.507812 43.703125 L 464.28125 43.585938 L 464.0625 43.457031 L 463.851562 43.3125 L 463.648438 43.15625 L 463.457031 42.988281 L 463.273438 42.804688 L 463.101562 42.613281 L 462.9375 42.410156 L 462.78125 42.191406 L 462.636719 41.960938 L 462.503906 41.722656 L 462.375 41.46875 L 462.265625 41.199219 L 462.167969 40.921875 L 462.078125 40.632812 L 462.003906 40.335938 L 461.9375 40.027344 L 461.886719 39.707031 L 461.847656 39.378906 L 461.816406 39.042969 L 461.800781 38.695312 L 461.792969 38.335938 L 461.800781 37.980469 L 461.816406 37.636719 L 461.847656 37.300781 L 461.886719 36.976562 L 461.9375 36.65625 L 462.003906 36.347656 L 462.078125 36.046875 L 462.167969 35.757812 L 462.265625 35.476562 L 462.375 35.203125 L 462.503906 34.9375 L 462.636719 34.683594 L 462.78125 34.445312 L 462.9375 34.214844 L 463.101562 34 L 463.273438 33.796875 L 463.457031 33.605469 L 463.648438 33.429688 L 463.851562 33.261719 L 464.0625 33.109375 L 464.28125 32.96875 L 464.507812 32.84375 L 464.742188 32.734375 L 464.980469 32.640625 L 465.226562 32.558594 L 465.480469 32.492188 L 465.742188 32.441406 L 466.011719 32.402344 L 466.285156 32.382812 Z M 466.566406 32.375 "/>
<path fill-rule="nonzero" fill="rgb(0%, 0%, 0%)" fill-opacity="1" d="M 480.757812 43.910156 L 479.679688 43.910156 L 479.613281 41.898438 L 479.335938 42.328125 L 479.039062 42.710938 L 478.71875 43.046875 L 478.378906 43.339844 L 478.019531 43.585938 L 477.640625 43.789062 L 477.242188 43.945312 L 476.820312 44.058594 L 476.378906 44.125 L 475.921875 44.148438 L 475.621094 44.136719 L 475.335938 44.109375 L 475.0625 44.066406 L 474.804688 44.003906 L 474.558594 43.925781 L 474.328125 43.828125 L 474.113281 43.710938 L 473.910156 43.578125 L 473.71875 43.429688 L 473.542969 43.261719 L 473.386719 43.070312 L 473.25 42.867188 L 473.125 42.648438 L 473.019531 42.414062 L 472.929688 42.164062 L 472.855469 41.898438 L 472.796875 41.621094 L 472.757812 41.324219 L 472.730469 41.015625 L 472.722656 40.691406 L 472.722656 32.613281 L 473.976562 32.613281 L 473.976562 40.5625 L 473.980469 40.816406 L 473.996094 41.058594 L 474.023438 41.289062 L 474.0625 41.503906 L 474.109375 41.707031 L 474.171875 41.894531 L 474.242188 42.066406 L 474.320312 42.226562 L 474.414062 42.371094 L 474.515625 42.503906 L 474.632812 42.621094 L 474.761719 42.722656 L 474.902344 42.8125 L 475.054688 42.890625 L 475.21875 42.957031 L 475.390625 43.011719 L 475.578125 43.054688 L 475.773438 43.085938 L 475.980469 43.105469 L 476.199219 43.109375 L 476.585938 43.085938 L 476.960938 43.015625 L 477.324219 42.902344 L 477.671875 42.738281 L 478.007812 42.53125 L 478.332031 42.277344 L 478.644531 41.976562 L 478.945312 41.628906 L 479.230469 41.238281 L 479.503906 40.796875 L 479.503906 32.613281 L 480.757812 32.613281 Z M 480.757812 43.910156 "/>
<path fill-rule="nonzero" fill="rgb(0%, 0%, 0%)" fill-opacity="1" d="M 488.101562 32.375 L 488.3125 32.378906 L 488.519531 32.386719 L 488.71875 32.402344 L 488.917969 32.425781 L 489.113281 32.457031 L 489.300781 32.492188 L 489.488281 32.535156 L 489.671875 32.582031 L 489.851562 32.636719 L 490.195312 32.761719 L 490.367188 32.832031 L 490.539062 32.910156 L 490.710938 32.992188 L 490.878906 33.082031 L 491.046875 33.179688 L 491.214844 33.28125 L 491.378906 33.390625 L 491.546875 33.503906 L 491.710938 33.628906 L 491.125 34.449219 L 490.972656 34.34375 L 490.820312 34.246094 L 490.667969 34.152344 L 490.519531 34.066406 L 490.371094 33.984375 L 490.222656 33.910156 L 490.078125 33.839844 L 489.9375 33.777344 L 489.796875 33.722656 L 489.65625 33.671875 L 489.519531 33.621094 L 489.375 33.578125 L 489.230469 33.539062 L 489.082031 33.503906 L 488.933594 33.476562 L 488.78125 33.453125 L 488.625 33.433594 L 488.46875 33.421875 L 488.308594 33.414062 L 488.144531 33.410156 L 487.925781 33.417969 L 487.714844 33.433594 L 487.511719 33.457031 L 487.316406 33.496094 L 487.128906 33.542969 L 486.953125 33.597656 L 486.785156 33.664062 L 486.625 33.742188 L 486.472656 33.832031 L 486.332031 33.929688 L 486.199219 34.035156 L 486.082031 34.152344 L 485.980469 34.273438 L 485.890625 34.398438 L 485.8125 34.535156 L 485.75 34.675781 L 485.703125 34.824219 L 485.667969 34.980469 L 485.648438 35.144531 L 485.640625 35.3125 L 485.644531 35.472656 L 485.664062 35.625 L 485.691406 35.773438 L 485.734375 35.910156 L 485.785156 36.042969 L 485.851562 36.164062 L 485.925781 36.28125 L 486.011719 36.390625 L 486.113281 36.492188 L 486.222656 36.585938 L 486.355469 36.675781 L 486.503906 36.765625 L 486.671875 36.855469 L 486.859375 36.941406 L 487.066406 37.03125 L 487.292969 37.117188 L 487.535156 37.199219 L 487.800781 37.285156 L 488.082031 37.367188 L 488.382812 37.449219 L 488.757812 37.550781 L 489.109375 37.660156 L 489.4375 37.773438 L 489.75 37.890625 L 490.035156 38.011719 L 490.300781 38.140625 L 490.546875 38.273438 L 490.769531 38.410156 L 490.96875 38.554688 L 491.148438 38.703125 L 491.3125 38.859375 L 491.460938 39.03125 L 491.589844 39.214844 L 491.699219 39.410156 L 491.796875 39.621094 L 491.875 39.84375 L 491.933594 40.078125 L 491.976562 40.328125 L 492.003906 40.589844 L 492.011719 40.863281 L 492 41.160156 L 491.964844 41.441406 L 491.90625 41.714844 L 491.824219 41.972656 L 491.71875 42.21875 L 491.59375 42.453125 L 491.441406 42.671875 L 491.265625 42.882812 L 491.066406 43.078125 L 490.84375 43.261719 L 490.605469 43.429688 L 490.355469 43.578125 L 490.09375 43.710938 L 489.820312 43.828125 L 489.535156 43.925781 L 489.234375 44.003906 L 488.925781 44.066406 L 488.605469 44.109375 L 488.273438 44.136719 L 487.929688 44.148438 L 487.671875 44.144531 L 487.425781 44.132812 L 487.179688 44.113281 L 486.945312 44.089844 L 486.714844 44.054688 L 486.492188 44.015625 L 486.273438 43.96875 L 486.0625 43.910156 L 485.859375 43.847656 L 485.660156 43.78125 L 485.46875 43.699219 L 485.28125 43.613281 L 485.09375 43.519531 L 484.910156 43.421875 L 484.734375 43.316406 L 484.558594 43.203125 L 484.386719 43.085938 L 484.21875 42.964844 L 484.050781 42.835938 L 483.890625 42.699219 L 484.582031 41.898438 L 484.734375 42.019531 L 484.886719 42.128906 L 485.035156 42.234375 L 485.191406 42.335938 L 485.34375 42.429688 L 485.496094 42.515625 L 485.652344 42.597656 L 485.804688 42.675781 L 485.960938 42.742188 L 486.113281 42.808594 L 486.441406 42.910156 L 486.785156 42.988281 L 486.964844 43.019531 L 487.144531 43.042969 L 487.328125 43.0625 L 487.519531 43.078125 L 487.710938 43.085938 L 487.90625 43.089844 L 488.152344 43.082031 L 488.390625 43.066406 L 488.613281 43.039062 L 488.832031 43 L 489.035156 42.949219 L 489.234375 42.886719 L 489.417969 42.8125 L 489.59375 42.730469 L 489.761719 42.632812 L 489.917969 42.527344 L 490.066406 42.40625 L 490.195312 42.277344 L 490.3125 42.136719 L 490.414062 41.992188 L 490.5 41.835938 L 490.570312 41.671875 L 490.625 41.5 L 490.664062 41.316406 L 490.6875 41.128906 L 490.695312 40.929688 L 490.691406 40.792969 L 490.683594 40.664062 L 490.671875 40.535156 L 490.652344 40.417969 L 490.628906 40.300781 L 490.601562 40.191406 L 490.566406 40.085938 L 490.527344 39.988281 L 490.484375 39.894531 L 490.433594 39.804688 L 490.378906 39.71875 L 490.316406 39.636719 L 490.246094 39.558594 L 490.167969 39.480469 L 490.085938 39.40625 L 489.992188 39.332031 L 489.890625 39.265625 L 489.785156 39.195312 L 489.671875 39.132812 L 489.550781 39.070312 L 489.417969 39.007812 L 489.277344 38.941406 L 489.121094 38.875 L 488.957031 38.8125 L 488.777344 38.746094 L 488.589844 38.683594 L 488.386719 38.617188 L 488.175781 38.550781 L 487.949219 38.488281 L 487.714844 38.421875 L 487.363281 38.324219 L 487.035156 38.222656 L 486.726562 38.117188 L 486.4375 38.003906 L 486.167969 37.886719 L 485.917969 37.765625 L 485.691406 37.640625 L 485.480469 37.511719 L 485.292969 37.375 L 485.121094 37.234375 L 484.972656 37.085938 L 484.839844 36.929688 L 484.726562 36.765625 L 484.625 36.589844 L 484.539062 36.402344 L 484.46875 36.207031 L 484.414062 36.003906 L 484.375 35.789062 L 484.351562 35.566406 L 484.34375 35.332031 L 484.347656 35.167969 L 484.363281 35.003906 L 484.386719 34.84375 L 484.421875 34.6875 L 484.46875 34.535156 L 484.523438 34.386719 L 484.585938 34.238281 L 484.660156 34.097656 L 484.746094 33.957031 L 484.839844 33.820312 L 484.945312 33.6875 L 485.054688 33.558594 L 485.171875 33.4375 L 485.292969 33.320312 L 485.425781 33.210938 L 485.5625 33.109375 L 485.707031 33.011719 L 485.855469 32.921875 L 486.015625 32.839844 L 486.179688 32.761719 L 486.355469 32.691406 L 486.535156 32.625 L 486.714844 32.566406 L 486.902344 32.515625 L 487.09375 32.472656 L 487.285156 32.4375 L 487.484375 32.410156 L 487.6875 32.390625 L 487.894531 32.378906 Z M 488.101562 32.375 "/>
</svg>
