<?xml version="1.0" encoding="UTF-8"?>
<svg xmlns="http://www.w3.org/2000/svg" xmlns:xlink="http://www.w3.org/1999/xlink" width="792pt" height="374pt" viewBox="0 0 792 374">
<defs>
<clipPath id="clip-0">
<path clip-rule="nonzero" d="M 52.402344 13.449219 L 778.546875 13.449219 L 778.546875 326.195312 L 52.402344 326.195312 Z M 52.402344 13.449219 "/>
</clipPath>
<clipPath id="clip-1">
<path clip-rule="nonzero" d="M 52.402344 310 L 778.546875 310 L 778.546875 314 L 52.402344 314 Z M 52.402344 310 "/>
</clipPath>
<clipPath id="clip-2">
<path clip-rule="nonzero" d="M 52.402344 225 L 778.546875 225 L 778.546875 229 L 52.402344 229 Z M 52.402344 225 "/>
</clipPath>
<clipPath id="clip-3">
<path clip-rule="nonzero" d="M 52.402344 140 L 778.546875 140 L 778.546875 144 L 52.402344 144 Z M 52.402344 140 "/>
</clipPath>
<clipPath id="clip-4">
<path clip-rule="nonzero" d="M 52.402344 56 L 778.546875 56 L 778.546875 59 L 52.402344 59 Z M 52.402344 56 "/>
</clipPath>
<clipPath id="clip-5">
<path clip-rule="nonzero" d="M 94 13.449219 L 98 13.449219 L 98 326.195312 L 94 326.195312 Z M 94 13.449219 "/>
</clipPath>
<clipPath id="clip-6">
<path clip-rule="nonzero" d="M 256 13.449219 L 260 13.449219 L 260 326.195312 L 256 326.195312 Z M 256 13.449219 "/>
</clipPath>
<clipPath id="clip-7">
<path clip-rule="nonzero" d="M 417 13.449219 L 421 13.449219 L 421 326.195312 L 417 326.195312 Z M 417 13.449219 "/>
</clipPath>
<clipPath id="clip-8">
<path clip-rule="nonzero" d="M 579 13.449219 L 583 13.449219 L 583 326.195312 L 579 326.195312 Z M 579 13.449219 "/>
</clipPath>
<clipPath id="clip-9">
<path clip-rule="nonzero" d="M 741 13.449219 L 744 13.449219 L 744 326.195312 L 741 326.195312 Z M 741 13.449219 "/>
</clipPath>
</defs>
<rect x="-79.2" y="-37.4" width="950.4" height="448.8" fill="rgb(100%, 100%, 100%)" fill-opacity="1"/>
<rect x="-79.2" y="-37.4" width="950.4" height="448.8" fill="rgb(95.294118%, 95.294118%, 95.294118%)" fill-opacity="1"/>
<path fill="none" stroke-width="2.618947" stroke-linecap="round" stroke-linejoin="round" stroke="rgb(95.294118%, 95.294118%, 95.294118%)" stroke-opacity="1" stroke-miterlimit="10" d="M 0 374 L 792 374 L 792 0 L 0 0 Z M 0 374 "/>
<g clip-path="url(#clip-0)">
<path fill-rule="nonzero" fill="rgb(95.294118%, 95.294118%, 95.294118%)" fill-opacity="1" stroke-width="2.618947" stroke-linecap="round" stroke-linejoin="round" stroke="rgb(95.294118%, 95.294118%, 95.294118%)" stroke-opacity="1" stroke-miterlimit="10" d="M 52.402344 326.195312 L 778.546875 326.195312 L 778.546875 13.449219 L 52.402344 13.449219 Z M 52.402344 326.195312 "/>
</g>
<g clip-path="url(#clip-1)">
<path fill="none" stroke-width="2.618947" stroke-linecap="butt" stroke-linejoin="round" stroke="rgb(92.156863%, 92.156863%, 92.156863%)" stroke-opacity="1" stroke-miterlimit="10" d="M 52.402344 311.980469 L 778.550781 311.980469 "/>
</g>
<g clip-path="url(#clip-2)">
<path fill="none" stroke-width="2.618947" stroke-linecap="butt" stroke-linejoin="round" stroke="rgb(92.156863%, 92.156863%, 92.156863%)" stroke-opacity="1" stroke-miterlimit="10" d="M 52.402344 227.109375 L 778.550781 227.109375 "/>
</g>
<g clip-path="url(#clip-3)">
<path fill="none" stroke-width="2.618947" stroke-linecap="butt" stroke-linejoin="round" stroke="rgb(92.156863%, 92.156863%, 92.156863%)" stroke-opacity="1" stroke-miterlimit="10" d="M 52.402344 142.238281 L 778.550781 142.238281 "/>
</g>
<g clip-path="url(#clip-4)">
<path fill="none" stroke-width="2.618947" stroke-linecap="butt" stroke-linejoin="round" stroke="rgb(92.156863%, 92.156863%, 92.156863%)" stroke-opacity="1" stroke-miterlimit="10" d="M 52.402344 57.371094 L 778.550781 57.371094 "/>
</g>
<g clip-path="url(#clip-5)">
<path fill="none" stroke-width="2.618947" stroke-linecap="butt" stroke-linejoin="round" stroke="rgb(92.156863%, 92.156863%, 92.156863%)" stroke-opacity="1" stroke-miterlimit="10" d="M 96.21875 326.195312 L 96.21875 13.449219 "/>
</g>
<g clip-path="url(#clip-6)">
<path fill="none" stroke-width="2.618947" stroke-linecap="butt" stroke-linejoin="round" stroke="rgb(92.156863%, 92.156863%, 92.156863%)" stroke-opacity="1" stroke-miterlimit="10" d="M 257.75 326.195312 L 257.75 13.449219 "/>
</g>
<g clip-path="url(#clip-7)">
<path fill="none" stroke-width="2.618947" stroke-linecap="butt" stroke-linejoin="round" stroke="rgb(92.156863%, 92.156863%, 92.156863%)" stroke-opacity="1" stroke-miterlimit="10" d="M 419.28125 326.195312 L 419.28125 13.449219 "/>
</g>
<g clip-path="url(#clip-8)">
<path fill="none" stroke-width="2.618947" stroke-linecap="butt" stroke-linejoin="round" stroke="rgb(92.156863%, 92.156863%, 92.156863%)" stroke-opacity="1" stroke-miterlimit="10" d="M 580.8125 326.195312 L 580.8125 13.449219 "/>
</g>
<g clip-path="url(#clip-9)">
<path fill="none" stroke-width="2.618947" stroke-linecap="butt" stroke-linejoin="round" stroke="rgb(92.156863%, 92.156863%, 92.156863%)" stroke-opacity="1" stroke-miterlimit="10" d="M 742.339844 326.195312 L 742.339844 13.449219 "/>
</g>
<path fill-rule="nonzero" fill="rgb(56.078431%, 16.470588%, 26.27451%)" fill-opacity="0.698039" d="M 85.410156 311.980469 L 107.414062 311.980469 L 107.414062 116.777344 L 85.410156 116.777344 Z M 85.410156 311.980469 "/>
<path fill-rule="nonzero" fill="rgb(56.078431%, 16.470588%, 26.27451%)" fill-opacity="0.698039" d="M 107.414062 311.980469 L 129.417969 311.980469 L 129.417969 48.882812 L 107.414062 48.882812 Z M 107.414062 311.980469 "/>
<path fill-rule="nonzero" fill="rgb(56.078431%, 16.470588%, 26.27451%)" fill-opacity="0.698039" d="M 129.417969 311.980469 L 151.421875 311.980469 L 151.421875 27.664062 L 129.417969 27.664062 Z M 129.417969 311.980469 "/>
<path fill-rule="nonzero" fill="rgb(56.078431%, 16.470588%, 26.27451%)" fill-opacity="0.698039" d="M 151.425781 311.980469 L 173.429688 311.980469 L 173.429688 57.371094 L 151.425781 57.371094 Z M 151.425781 311.980469 "/>
<path fill-rule="nonzero" fill="rgb(56.078431%, 16.470588%, 26.27451%)" fill-opacity="0.698039" d="M 173.429688 311.980469 L 195.433594 311.980469 L 195.433594 82.832031 L 173.429688 82.832031 Z M 173.429688 311.980469 "/>
<path fill-rule="nonzero" fill="rgb(56.078431%, 16.470588%, 26.27451%)" fill-opacity="0.698039" d="M 195.433594 311.980469 L 217.4375 311.980469 L 217.4375 82.832031 L 195.433594 82.832031 Z M 195.433594 311.980469 "/>
<path fill-rule="nonzero" fill="rgb(56.078431%, 16.470588%, 26.27451%)" fill-opacity="0.698039" d="M 217.4375 311.980469 L 239.441406 311.980469 L 239.441406 53.125 L 217.4375 53.125 Z M 217.4375 311.980469 "/>
<path fill-rule="nonzero" fill="rgb(56.078431%, 16.470588%, 26.27451%)" fill-opacity="0.698039" d="M 239.441406 311.980469 L 261.445312 311.980469 L 261.445312 87.074219 L 239.441406 87.074219 Z M 239.441406 311.980469 "/>
<path fill-rule="nonzero" fill="rgb(56.078431%, 16.470588%, 26.27451%)" fill-opacity="0.698039" d="M 261.445312 311.980469 L 283.449219 311.980469 L 283.449219 87.074219 L 261.445312 87.074219 Z M 261.445312 311.980469 "/>
<path fill-rule="nonzero" fill="rgb(56.078431%, 16.470588%, 26.27451%)" fill-opacity="0.698039" d="M 283.449219 311.980469 L 305.453125 311.980469 L 305.453125 95.5625 L 283.449219 95.5625 Z M 283.449219 311.980469 "/>
<path fill-rule="nonzero" fill="rgb(56.078431%, 16.470588%, 26.27451%)" fill-opacity="0.698039" d="M 305.457031 311.980469 L 327.460938 311.980469 L 327.460938 146.484375 L 305.457031 146.484375 Z M 305.457031 311.980469 "/>
<path fill-rule="nonzero" fill="rgb(56.078431%, 16.470588%, 26.27451%)" fill-opacity="0.698039" d="M 327.460938 311.980469 L 349.464844 311.980469 L 349.464844 95.5625 L 327.460938 95.5625 Z M 327.460938 311.980469 "/>
<path fill-rule="nonzero" fill="rgb(56.078431%, 16.470588%, 26.27451%)" fill-opacity="0.698039" d="M 349.464844 311.980469 L 371.46875 311.980469 L 371.46875 108.292969 L 349.464844 108.292969 Z M 349.464844 311.980469 "/>
<path fill-rule="nonzero" fill="rgb(56.078431%, 16.470588%, 26.27451%)" fill-opacity="0.698039" d="M 371.46875 311.980469 L 393.472656 311.980469 L 393.472656 171.945312 L 371.46875 171.945312 Z M 371.46875 311.980469 "/>
<path fill-rule="nonzero" fill="rgb(56.078431%, 16.470588%, 26.27451%)" fill-opacity="0.698039" d="M 393.472656 311.980469 L 415.476562 311.980469 L 415.476562 176.1875 L 393.472656 176.1875 Z M 393.472656 311.980469 "/>
<path fill-rule="nonzero" fill="rgb(56.078431%, 16.470588%, 26.27451%)" fill-opacity="0.698039" d="M 415.476562 311.980469 L 437.480469 311.980469 L 437.480469 176.1875 L 415.476562 176.1875 Z M 415.476562 311.980469 "/>
<path fill-rule="nonzero" fill="rgb(56.078431%, 16.470588%, 26.27451%)" fill-opacity="0.698039" d="M 437.480469 311.980469 L 459.484375 311.980469 L 459.484375 188.917969 L 437.480469 188.917969 Z M 437.480469 311.980469 "/>
<path fill-rule="nonzero" fill="rgb(56.078431%, 16.470588%, 26.27451%)" fill-opacity="0.698039" d="M 459.484375 311.980469 L 481.488281 311.980469 L 481.488281 171.945312 L 459.484375 171.945312 Z M 459.484375 311.980469 "/>
<path fill-rule="nonzero" fill="rgb(56.078431%, 16.470588%, 26.27451%)" fill-opacity="0.698039" d="M 481.492188 311.980469 L 503.496094 311.980469 L 503.496094 205.894531 L 481.492188 205.894531 Z M 481.492188 311.980469 "/>
<path fill-rule="nonzero" fill="rgb(56.078431%, 16.470588%, 26.27451%)" fill-opacity="0.698039" d="M 503.496094 311.980469 L 525.5 311.980469 L 525.5 235.597656 L 503.496094 235.597656 Z M 503.496094 311.980469 "/>
<path fill-rule="nonzero" fill="rgb(56.078431%, 16.470588%, 26.27451%)" fill-opacity="0.698039" d="M 525.5 311.980469 L 547.503906 311.980469 L 547.503906 248.328125 L 525.5 248.328125 Z M 525.5 311.980469 "/>
<path fill-rule="nonzero" fill="rgb(56.078431%, 16.470588%, 26.27451%)" fill-opacity="0.698039" d="M 547.503906 311.980469 L 569.507812 311.980469 L 569.507812 227.109375 L 547.503906 227.109375 Z M 547.503906 311.980469 "/>
<path fill-rule="nonzero" fill="rgb(56.078431%, 16.470588%, 26.27451%)" fill-opacity="0.698039" d="M 569.507812 311.980469 L 591.511719 311.980469 L 591.511719 218.625 L 569.507812 218.625 Z M 569.507812 311.980469 "/>
<path fill-rule="nonzero" fill="rgb(56.078431%, 16.470588%, 26.27451%)" fill-opacity="0.698039" d="M 591.511719 311.980469 L 613.515625 311.980469 L 613.515625 256.816406 L 591.511719 256.816406 Z M 591.511719 311.980469 "/>
<path fill-rule="nonzero" fill="rgb(56.078431%, 16.470588%, 26.27451%)" fill-opacity="0.698039" d="M 613.515625 311.980469 L 635.519531 311.980469 L 635.519531 265.300781 L 613.515625 265.300781 Z M 613.515625 311.980469 "/>
<path fill-rule="nonzero" fill="rgb(56.078431%, 16.470588%, 26.27451%)" fill-opacity="0.698039" d="M 635.523438 311.980469 L 657.527344 311.980469 L 657.527344 286.519531 L 635.523438 286.519531 Z M 635.523438 311.980469 "/>
<path fill-rule="nonzero" fill="rgb(56.078431%, 16.470588%, 26.27451%)" fill-opacity="0.698039" d="M 657.527344 311.980469 L 679.53125 311.980469 L 679.53125 295.007812 L 657.527344 295.007812 Z M 657.527344 311.980469 "/>
<path fill-rule="nonzero" fill="rgb(56.078431%, 16.470588%, 26.27451%)" fill-opacity="0.698039" d="M 679.53125 311.980469 L 701.535156 311.980469 L 701.535156 303.492188 L 679.53125 303.492188 Z M 679.53125 311.980469 "/>
<path fill-rule="nonzero" fill="rgb(56.078431%, 16.470588%, 26.27451%)" fill-opacity="0.698039" d="M 701.535156 311.980469 L 723.539062 311.980469 L 723.539062 299.25 L 701.535156 299.25 Z M 701.535156 311.980469 "/>
<path fill-rule="nonzero" fill="rgb(56.078431%, 16.470588%, 26.27451%)" fill-opacity="0.698039" d="M 723.539062 311.980469 L 745.542969 311.980469 L 745.542969 299.25 L 723.539062 299.25 Z M 723.539062 311.980469 "/>
<path fill-rule="nonzero" fill="rgb(10.196078%, 10.196078%, 10.196078%)" fill-opacity="1" d="M 33.425781 303.644531 L 33.925781 303.664062 L 34.40625 303.730469 L 34.855469 303.839844 L 35.285156 303.996094 L 35.6875 304.191406 L 36.066406 304.433594 L 36.417969 304.71875 L 36.746094 305.050781 L 37.046875 305.425781 L 37.324219 305.84375 L 37.578125 306.296875 L 37.800781 306.792969 L 38 307.332031 L 38.171875 307.910156 L 38.316406 308.53125 L 38.4375 309.191406 L 38.53125 309.890625 L 38.597656 310.632812 L 38.636719 311.417969 L 38.648438 312.242188 L 38.636719 313.0625 L 38.59375 313.84375 L 38.527344 314.582031 L 38.433594 315.28125 L 38.3125 315.941406 L 38.164062 316.5625 L 37.988281 317.144531 L 37.785156 317.683594 L 37.554688 318.183594 L 37.300781 318.644531 L 37.023438 319.054688 L 36.71875 319.425781 L 36.394531 319.75 L 36.042969 320.035156 L 35.667969 320.273438 L 35.269531 320.46875 L 34.84375 320.621094 L 34.394531 320.730469 L 33.921875 320.796875 L 33.425781 320.816406 L 32.921875 320.796875 L 32.445312 320.730469 L 31.992188 320.621094 L 31.566406 320.46875 L 31.160156 320.273438 L 30.785156 320.035156 L 30.433594 319.75 L 30.105469 319.425781 L 29.800781 319.054688 L 29.523438 318.644531 L 29.273438 318.183594 L 29.046875 317.679688 L 28.847656 317.140625 L 28.675781 316.558594 L 28.53125 315.9375 L 28.410156 315.273438 L 28.320312 314.570312 L 28.253906 313.828125 L 28.210938 313.042969 L 28.199219 312.21875 L 28.210938 311.394531 L 28.253906 310.609375 L 28.320312 309.867188 L 28.410156 309.164062 L 28.53125 308.503906 L 28.675781 307.886719 L 28.847656 307.308594 L 29.046875 306.769531 L 29.273438 306.273438 L 29.523438 305.816406 L 29.800781 305.40625 L 30.105469 305.035156 L 30.433594 304.707031 L 30.785156 304.425781 L 31.160156 304.1875 L 31.566406 303.992188 L 31.992188 303.839844 L 32.445312 303.730469 L 32.921875 303.664062 Z M 33.425781 304.84375 L 32.71875 304.917969 L 32.082031 305.136719 L 31.523438 305.507812 L 31.039062 306.023438 L 30.628906 306.6875 L 30.296875 307.496094 L 30.035156 308.457031 L 29.847656 309.5625 L 29.738281 310.816406 L 29.699219 312.21875 L 29.738281 313.625 L 29.847656 314.882812 L 30.035156 315.992188 L 30.296875 316.953125 L 30.628906 317.769531 L 31.039062 318.433594 L 31.523438 318.953125 L 32.082031 319.320312 L 32.71875 319.542969 L 33.425781 319.617188 L 33.78125 319.597656 L 34.117188 319.546875 L 34.4375 319.457031 L 34.742188 319.328125 L 35.023438 319.167969 L 35.289062 318.96875 L 35.539062 318.734375 L 35.769531 318.464844 L 35.980469 318.160156 L 36.175781 317.816406 L 36.355469 317.4375 L 36.515625 317.019531 L 36.660156 316.558594 L 36.78125 316.0625 L 36.886719 315.523438 L 36.972656 314.945312 L 37.039062 314.328125 L 37.085938 313.671875 L 37.113281 312.976562 L 37.125 312.242188 L 37.113281 311.507812 L 37.085938 310.8125 L 37.039062 310.15625 L 36.972656 309.539062 L 36.886719 308.960938 L 36.78125 308.421875 L 36.660156 307.925781 L 36.515625 307.464844 L 36.355469 307.046875 L 36.175781 306.667969 L 35.980469 306.320312 L 35.769531 306.011719 L 35.539062 305.738281 L 35.289062 305.5 L 35.023438 305.300781 L 34.742188 305.132812 L 34.4375 305.007812 L 34.117188 304.914062 L 33.78125 304.859375 Z M 33.425781 304.84375 "/>
<path fill-rule="nonzero" fill="rgb(10.196078%, 10.196078%, 10.196078%)" fill-opacity="1" d="M 20.199219 218.773438 L 20.609375 218.785156 L 21.003906 218.820312 L 21.378906 218.882812 L 21.738281 218.96875 L 22.082031 219.078125 L 22.40625 219.214844 L 22.710938 219.371094 L 23 219.554688 L 23.269531 219.765625 L 23.523438 219.996094 L 23.761719 220.25 L 23.972656 220.515625 L 24.160156 220.796875 L 24.324219 221.089844 L 24.460938 221.398438 L 24.574219 221.71875 L 24.660156 222.054688 L 24.722656 222.40625 L 24.761719 222.769531 L 24.773438 223.148438 L 24.769531 223.46875 L 24.746094 223.789062 L 24.714844 224.105469 L 24.667969 224.414062 L 24.605469 224.722656 L 24.53125 225.027344 L 24.445312 225.324219 L 24.34375 225.621094 L 24.226562 225.910156 L 24.097656 226.199219 L 23.957031 226.484375 L 23.796875 226.777344 L 23.625 227.078125 L 23.4375 227.382812 L 23.230469 227.691406 L 23.011719 228.007812 L 22.773438 228.328125 L 22.523438 228.652344 L 22.257812 228.984375 L 21.972656 229.324219 L 21.671875 229.679688 L 21.332031 230.070312 L 20.960938 230.492188 L 20.550781 230.949219 L 20.105469 231.441406 L 19.625 231.964844 L 19.109375 232.523438 L 18.558594 233.113281 L 17.972656 233.738281 L 17.347656 234.398438 L 25.222656 234.398438 L 25.023438 235.671875 L 15.648438 235.671875 L 15.648438 234.449219 L 16.316406 233.738281 L 16.941406 233.0625 L 17.527344 232.429688 L 18.078125 231.832031 L 18.585938 231.273438 L 19.058594 230.75 L 19.488281 230.269531 L 19.882812 229.824219 L 20.234375 229.417969 L 20.550781 229.046875 L 20.839844 228.699219 L 21.113281 228.359375 L 21.367188 228.027344 L 21.605469 227.707031 L 21.824219 227.398438 L 22.027344 227.097656 L 22.207031 226.808594 L 22.375 226.527344 L 22.519531 226.257812 L 22.648438 225.996094 L 22.769531 225.734375 L 22.875 225.46875 L 22.96875 225.203125 L 23.050781 224.929688 L 23.117188 224.652344 L 23.175781 224.375 L 23.21875 224.089844 L 23.25 223.804688 L 23.269531 223.515625 L 23.273438 223.222656 L 23.265625 222.933594 L 23.238281 222.65625 L 23.195312 222.390625 L 23.132812 222.136719 L 23.054688 221.898438 L 22.960938 221.667969 L 22.847656 221.453125 L 22.714844 221.246094 L 22.566406 221.054688 L 22.398438 220.871094 L 22.222656 220.707031 L 22.035156 220.558594 L 21.835938 220.425781 L 21.628906 220.3125 L 21.40625 220.214844 L 21.171875 220.136719 L 20.929688 220.078125 L 20.671875 220.03125 L 20.402344 220.007812 L 20.125 219.996094 L 19.898438 220.003906 L 19.675781 220.015625 L 19.457031 220.039062 L 19.246094 220.074219 L 19.035156 220.117188 L 18.835938 220.167969 L 18.636719 220.230469 L 18.445312 220.300781 L 18.257812 220.382812 L 18.074219 220.472656 L 17.898438 220.570312 L 17.726562 220.679688 L 17.554688 220.800781 L 17.386719 220.929688 L 17.21875 221.066406 L 17.050781 221.214844 L 16.886719 221.371094 L 16.722656 221.535156 L 16.558594 221.710938 L 16.398438 221.898438 L 15.398438 221.148438 L 15.601562 220.910156 L 15.804688 220.683594 L 16.011719 220.472656 L 16.222656 220.273438 L 16.4375 220.085938 L 16.652344 219.910156 L 16.875 219.75 L 17.09375 219.601562 L 17.320312 219.46875 L 17.550781 219.347656 L 17.789062 219.238281 L 18.03125 219.140625 L 18.28125 219.054688 L 18.539062 218.980469 L 18.800781 218.917969 L 19.066406 218.863281 L 19.339844 218.824219 L 19.621094 218.796875 L 19.90625 218.777344 Z M 20.199219 218.773438 "/>
<path fill-rule="nonzero" fill="rgb(10.196078%, 10.196078%, 10.196078%)" fill-opacity="1" d="M 33.425781 218.773438 L 33.925781 218.792969 L 34.40625 218.859375 L 34.855469 218.96875 L 35.285156 219.125 L 35.6875 219.324219 L 36.066406 219.566406 L 36.417969 219.851562 L 36.746094 220.179688 L 37.046875 220.554688 L 37.324219 220.972656 L 37.578125 221.429688 L 37.800781 221.925781 L 38 222.460938 L 38.171875 223.039062 L 38.316406 223.660156 L 38.4375 224.320312 L 38.53125 225.023438 L 38.597656 225.765625 L 38.636719 226.546875 L 38.648438 227.371094 L 38.636719 228.191406 L 38.59375 228.972656 L 38.527344 229.710938 L 38.433594 230.414062 L 38.3125 231.074219 L 38.164062 231.691406 L 37.988281 232.273438 L 37.785156 232.8125 L 37.554688 233.3125 L 37.300781 233.773438 L 37.023438 234.1875 L 36.71875 234.554688 L 36.394531 234.882812 L 36.042969 235.164062 L 35.667969 235.402344 L 35.269531 235.597656 L 34.84375 235.75 L 34.394531 235.859375 L 33.921875 235.925781 L 33.425781 235.949219 L 32.921875 235.925781 L 32.445312 235.859375 L 31.992188 235.75 L 31.566406 235.597656 L 31.160156 235.402344 L 30.785156 235.164062 L 30.433594 234.882812 L 30.105469 234.554688 L 29.800781 234.1875 L 29.523438 233.773438 L 29.273438 233.3125 L 29.046875 232.8125 L 28.847656 232.269531 L 28.675781 231.6875 L 28.53125 231.066406 L 28.410156 230.402344 L 28.320312 229.699219 L 28.253906 228.957031 L 28.210938 228.171875 L 28.199219 227.347656 L 28.210938 226.523438 L 28.253906 225.738281 L 28.320312 224.996094 L 28.410156 224.296875 L 28.53125 223.636719 L 28.675781 223.015625 L 28.847656 222.4375 L 29.046875 221.898438 L 29.273438 221.402344 L 29.523438 220.949219 L 29.800781 220.535156 L 30.105469 220.164062 L 30.433594 219.839844 L 30.785156 219.554688 L 31.160156 219.316406 L 31.566406 219.121094 L 31.992188 218.96875 L 32.445312 218.859375 L 32.921875 218.792969 Z M 33.425781 219.972656 L 32.71875 220.046875 L 32.082031 220.265625 L 31.523438 220.636719 L 31.039062 221.152344 L 30.628906 221.816406 L 30.296875 222.628906 L 30.035156 223.585938 L 29.847656 224.691406 L 29.738281 225.945312 L 29.699219 227.347656 L 29.738281 228.753906 L 29.847656 230.011719 L 30.035156 231.121094 L 30.296875 232.082031 L 30.628906 232.898438 L 31.039062 233.5625 L 31.523438 234.082031 L 32.082031 234.453125 L 32.71875 234.671875 L 33.425781 234.746094 L 33.78125 234.730469 L 34.117188 234.675781 L 34.4375 234.585938 L 34.742188 234.460938 L 35.023438 234.296875 L 35.289062 234.097656 L 35.539062 233.867188 L 35.769531 233.59375 L 35.980469 233.289062 L 36.175781 232.949219 L 36.355469 232.566406 L 36.515625 232.148438 L 36.660156 231.691406 L 36.78125 231.191406 L 36.886719 230.652344 L 36.972656 230.078125 L 37.039062 229.460938 L 37.085938 228.804688 L 37.113281 228.109375 L 37.125 227.371094 L 37.113281 226.636719 L 37.085938 225.941406 L 37.039062 225.285156 L 36.972656 224.667969 L 36.886719 224.089844 L 36.78125 223.554688 L 36.660156 223.054688 L 36.515625 222.597656 L 36.355469 222.175781 L 36.175781 221.796875 L 35.980469 221.449219 L 35.769531 221.140625 L 35.539062 220.867188 L 35.289062 220.628906 L 35.023438 220.429688 L 34.742188 220.265625 L 34.4375 220.136719 L 34.117188 220.046875 L 33.78125 219.992188 Z M 33.425781 219.972656 "/>
<path fill-rule="nonzero" fill="rgb(10.196078%, 10.196078%, 10.196078%)" fill-opacity="1" d="M 25.675781 145.226562 L 25.675781 146.425781 L 23.425781 146.425781 L 23.425781 150.800781 L 22 150.800781 L 22 146.425781 L 14.722656 146.425781 L 14.722656 145.351562 L 19.800781 133.902344 L 21.023438 134.402344 L 16.273438 145.226562 L 22 145.226562 L 22.175781 140.351562 L 23.425781 140.351562 L 23.425781 145.226562 Z M 25.675781 145.226562 "/>
<path fill-rule="nonzero" fill="rgb(10.196078%, 10.196078%, 10.196078%)" fill-opacity="1" d="M 33.425781 133.902344 L 33.925781 133.925781 L 34.40625 133.992188 L 34.855469 134.101562 L 35.285156 134.253906 L 35.6875 134.453125 L 36.066406 134.695312 L 36.417969 134.980469 L 36.746094 135.308594 L 37.046875 135.683594 L 37.324219 136.101562 L 37.578125 136.558594 L 37.800781 137.054688 L 38 137.59375 L 38.171875 138.171875 L 38.316406 138.789062 L 38.4375 139.449219 L 38.53125 140.152344 L 38.597656 140.894531 L 38.636719 141.679688 L 38.648438 142.503906 L 38.636719 143.324219 L 38.59375 144.101562 L 38.527344 144.84375 L 38.433594 145.542969 L 38.3125 146.203125 L 38.164062 146.824219 L 37.988281 147.402344 L 37.785156 147.941406 L 37.554688 148.441406 L 37.300781 148.902344 L 37.023438 149.316406 L 36.71875 149.683594 L 36.394531 150.011719 L 36.042969 150.292969 L 35.667969 150.535156 L 35.269531 150.730469 L 34.84375 150.882812 L 34.394531 150.992188 L 33.921875 151.054688 L 33.425781 151.078125 L 32.921875 151.054688 L 32.445312 150.992188 L 31.992188 150.882812 L 31.566406 150.730469 L 31.160156 150.535156 L 30.785156 150.292969 L 30.433594 150.011719 L 30.105469 149.683594 L 29.800781 149.316406 L 29.523438 148.902344 L 29.273438 148.441406 L 29.046875 147.941406 L 28.847656 147.398438 L 28.675781 146.820312 L 28.53125 146.195312 L 28.410156 145.535156 L 28.320312 144.832031 L 28.253906 144.085938 L 28.210938 143.300781 L 28.199219 142.476562 L 28.210938 141.652344 L 28.253906 140.871094 L 28.320312 140.125 L 28.410156 139.425781 L 28.53125 138.765625 L 28.675781 138.144531 L 28.847656 137.566406 L 29.046875 137.03125 L 29.273438 136.53125 L 29.523438 136.078125 L 29.800781 135.664062 L 30.105469 135.292969 L 30.433594 134.96875 L 30.785156 134.683594 L 31.160156 134.445312 L 31.566406 134.25 L 31.992188 134.097656 L 32.445312 133.988281 L 32.921875 133.925781 Z M 33.425781 135.101562 L 32.71875 135.175781 L 32.082031 135.398438 L 31.523438 135.765625 L 31.039062 136.28125 L 30.628906 136.945312 L 30.296875 137.757812 L 30.035156 138.714844 L 29.847656 139.824219 L 29.738281 141.074219 L 29.699219 142.476562 L 29.738281 143.882812 L 29.847656 145.140625 L 30.035156 146.25 L 30.296875 147.214844 L 30.628906 148.027344 L 31.039062 148.695312 L 31.523438 149.210938 L 32.082031 149.582031 L 32.71875 149.804688 L 33.425781 149.878906 L 33.78125 149.859375 L 34.117188 149.804688 L 34.4375 149.714844 L 34.742188 149.589844 L 35.023438 149.425781 L 35.289062 149.230469 L 35.539062 148.996094 L 35.769531 148.726562 L 35.980469 148.417969 L 36.175781 148.078125 L 36.355469 147.699219 L 36.515625 147.277344 L 36.660156 146.820312 L 36.78125 146.320312 L 36.886719 145.785156 L 36.972656 145.207031 L 37.039062 144.589844 L 37.085938 143.933594 L 37.113281 143.238281 L 37.125 142.503906 L 37.113281 141.765625 L 37.085938 141.070312 L 37.039062 140.414062 L 36.972656 139.796875 L 36.886719 139.222656 L 36.78125 138.683594 L 36.660156 138.183594 L 36.515625 137.726562 L 36.355469 137.308594 L 36.175781 136.925781 L 35.980469 136.582031 L 35.769531 136.269531 L 35.539062 135.996094 L 35.289062 135.757812 L 35.023438 135.558594 L 34.742188 135.394531 L 34.4375 135.265625 L 34.117188 135.175781 L 33.78125 135.121094 Z M 33.425781 135.101562 "/>
<path fill-rule="nonzero" fill="rgb(10.196078%, 10.196078%, 10.196078%)" fill-opacity="1" d="M 20.847656 55.105469 L 21.226562 55.121094 L 21.59375 55.160156 L 21.945312 55.230469 L 22.28125 55.324219 L 22.605469 55.445312 L 22.917969 55.59375 L 23.214844 55.769531 L 23.496094 55.972656 L 23.769531 56.199219 L 24.023438 56.457031 L 24.261719 56.734375 L 24.472656 57.035156 L 24.660156 57.363281 L 24.824219 57.714844 L 24.960938 58.089844 L 25.074219 58.488281 L 25.160156 58.914062 L 25.222656 59.363281 L 25.261719 59.835938 L 25.273438 60.332031 L 25.269531 60.683594 L 25.25 61.023438 L 25.214844 61.359375 L 25.171875 61.683594 L 25.113281 62 L 25.039062 62.308594 L 24.957031 62.609375 L 24.859375 62.898438 L 24.75 63.183594 L 24.625 63.457031 L 24.496094 63.714844 L 24.355469 63.964844 L 24.203125 64.199219 L 24.042969 64.421875 L 23.875 64.632812 L 23.695312 64.832031 L 23.503906 65.019531 L 23.304688 65.191406 L 23.09375 65.355469 L 22.875 65.507812 L 22.652344 65.640625 L 22.421875 65.757812 L 22.1875 65.863281 L 21.945312 65.957031 L 21.699219 66.03125 L 21.445312 66.09375 L 21.1875 66.144531 L 20.921875 66.179688 L 20.652344 66.199219 L 20.375 66.207031 L 19.839844 66.1875 L 19.332031 66.125 L 18.855469 66.019531 L 18.410156 65.871094 L 17.992188 65.683594 L 17.605469 65.453125 L 17.246094 65.179688 L 16.917969 64.863281 L 16.621094 64.507812 L 16.347656 64.105469 L 16.113281 63.667969 L 15.898438 63.199219 L 15.710938 62.703125 L 15.550781 62.179688 L 15.410156 61.625 L 15.300781 61.042969 L 15.210938 60.433594 L 15.148438 59.796875 L 15.113281 59.128906 L 15.097656 58.433594 L 15.105469 57.863281 L 15.128906 57.3125 L 15.164062 56.773438 L 15.214844 56.253906 L 15.28125 55.746094 L 15.359375 55.253906 L 15.453125 54.773438 L 15.5625 54.3125 L 15.6875 53.863281 L 15.824219 53.433594 L 15.976562 53.015625 L 16.140625 52.621094 L 16.316406 52.246094 L 16.503906 51.890625 L 16.707031 51.558594 L 16.917969 51.242188 L 17.144531 50.949219 L 17.382812 50.671875 L 17.636719 50.417969 L 17.898438 50.183594 L 18.175781 49.964844 L 18.460938 49.769531 L 18.753906 49.597656 L 19.058594 49.445312 L 19.375 49.320312 L 19.699219 49.214844 L 20.035156 49.136719 L 20.378906 49.078125 L 20.734375 49.042969 L 21.097656 49.03125 L 21.433594 49.042969 L 21.757812 49.070312 L 22.082031 49.121094 L 22.398438 49.1875 L 22.710938 49.277344 L 23.019531 49.382812 L 23.320312 49.511719 L 23.621094 49.65625 L 23.910156 49.820312 L 24.199219 50.007812 L 23.574219 51.007812 L 23.332031 50.859375 L 23.089844 50.726562 L 22.84375 50.613281 L 22.597656 50.511719 L 22.347656 50.425781 L 22.097656 50.355469 L 21.84375 50.300781 L 21.589844 50.261719 L 21.332031 50.238281 L 21.074219 50.230469 L 20.679688 50.253906 L 20.296875 50.3125 L 19.933594 50.414062 L 19.585938 50.554688 L 19.253906 50.738281 L 18.941406 50.960938 L 18.644531 51.222656 L 18.363281 51.527344 L 18.097656 51.871094 L 17.847656 52.257812 L 17.621094 52.675781 L 17.414062 53.117188 L 17.230469 53.585938 L 17.070312 54.078125 L 16.929688 54.59375 L 16.816406 55.136719 L 16.722656 55.703125 L 16.648438 56.296875 L 16.601562 56.914062 L 16.574219 57.558594 L 16.917969 57.09375 L 17.28125 56.675781 L 17.664062 56.308594 L 18.0625 55.988281 L 18.480469 55.71875 L 18.917969 55.5 L 19.371094 55.328125 L 19.847656 55.207031 L 20.339844 55.132812 Z M 20.375 65.007812 L 20.695312 64.996094 L 21.003906 64.957031 L 21.292969 64.894531 L 21.570312 64.808594 L 21.832031 64.695312 L 22.074219 64.558594 L 22.304688 64.394531 L 22.519531 64.207031 L 22.71875 63.996094 L 22.898438 63.757812 L 23.070312 63.492188 L 23.222656 63.214844 L 23.359375 62.917969 L 23.476562 62.605469 L 23.574219 62.277344 L 23.65625 61.929688 L 23.71875 61.566406 L 23.761719 61.1875 L 23.789062 60.792969 L 23.800781 60.382812 L 23.789062 59.976562 L 23.765625 59.59375 L 23.722656 59.234375 L 23.660156 58.894531 L 23.582031 58.574219 L 23.484375 58.28125 L 23.371094 58.003906 L 23.238281 57.75 L 23.089844 57.519531 L 22.925781 57.308594 L 22.75 57.117188 L 22.5625 56.949219 L 22.363281 56.796875 L 22.152344 56.667969 L 21.929688 56.558594 L 21.699219 56.46875 L 21.453125 56.398438 L 21.195312 56.347656 L 20.929688 56.316406 L 20.648438 56.308594 L 20.402344 56.316406 L 20.15625 56.335938 L 19.917969 56.375 L 19.679688 56.425781 L 19.449219 56.496094 L 19.222656 56.578125 L 18.996094 56.675781 L 18.777344 56.789062 L 18.5625 56.914062 L 18.347656 57.058594 L 18.148438 57.207031 L 17.949219 57.371094 L 17.757812 57.542969 L 17.574219 57.726562 L 17.394531 57.917969 L 17.21875 58.125 L 17.050781 58.34375 L 16.886719 58.570312 L 16.726562 58.808594 L 16.574219 59.058594 L 16.597656 59.625 L 16.636719 60.164062 L 16.695312 60.671875 L 16.765625 61.15625 L 16.855469 61.613281 L 16.960938 62.042969 L 17.082031 62.445312 L 17.222656 62.816406 L 17.378906 63.164062 L 17.550781 63.480469 L 17.738281 63.773438 L 17.949219 64.03125 L 18.183594 64.261719 L 18.433594 64.457031 L 18.707031 64.625 L 19 64.761719 L 19.3125 64.871094 L 19.644531 64.945312 L 20 64.992188 Z M 20.375 65.007812 "/>
<path fill-rule="nonzero" fill="rgb(10.196078%, 10.196078%, 10.196078%)" fill-opacity="1" d="M 33.425781 49.03125 L 33.925781 49.054688 L 34.40625 49.121094 L 34.855469 49.230469 L 35.285156 49.382812 L 35.6875 49.582031 L 36.066406 49.824219 L 36.417969 50.109375 L 36.746094 50.441406 L 37.046875 50.8125 L 37.324219 51.230469 L 37.578125 51.6875 L 37.800781 52.183594 L 38 52.722656 L 38.171875 53.300781 L 38.316406 53.917969 L 38.4375 54.582031 L 38.53125 55.28125 L 38.597656 56.023438 L 38.636719 56.808594 L 38.648438 57.632812 L 38.636719 58.453125 L 38.59375 59.230469 L 38.527344 59.972656 L 38.433594 60.671875 L 38.3125 61.332031 L 38.164062 61.953125 L 37.988281 62.53125 L 37.785156 63.074219 L 37.554688 63.574219 L 37.300781 64.03125 L 37.023438 64.445312 L 36.71875 64.816406 L 36.394531 65.140625 L 36.042969 65.425781 L 35.667969 65.664062 L 35.269531 65.859375 L 34.84375 66.011719 L 34.394531 66.121094 L 33.921875 66.1875 L 33.425781 66.207031 L 32.921875 66.1875 L 32.445312 66.121094 L 31.992188 66.011719 L 31.566406 65.859375 L 31.160156 65.664062 L 30.785156 65.425781 L 30.433594 65.140625 L 30.105469 64.816406 L 29.800781 64.445312 L 29.523438 64.03125 L 29.273438 63.570312 L 29.046875 63.070312 L 28.847656 62.53125 L 28.675781 61.949219 L 28.53125 61.324219 L 28.410156 60.664062 L 28.320312 59.960938 L 28.253906 59.214844 L 28.210938 58.433594 L 28.199219 57.605469 L 28.210938 56.78125 L 28.253906 56 L 28.320312 55.257812 L 28.410156 54.554688 L 28.53125 53.894531 L 28.675781 53.273438 L 28.847656 52.695312 L 29.046875 52.160156 L 29.273438 51.664062 L 29.523438 51.207031 L 29.800781 50.792969 L 30.105469 50.425781 L 30.433594 50.097656 L 30.785156 49.816406 L 31.160156 49.574219 L 31.566406 49.378906 L 31.992188 49.226562 L 32.445312 49.121094 L 32.921875 49.054688 Z M 33.425781 50.230469 L 32.71875 50.304688 L 32.082031 50.527344 L 31.523438 50.894531 L 31.039062 51.414062 L 30.628906 52.074219 L 30.296875 52.886719 L 30.035156 53.847656 L 29.847656 54.953125 L 29.738281 56.207031 L 29.699219 57.605469 L 29.738281 59.011719 L 29.847656 60.269531 L 30.035156 61.382812 L 30.296875 62.34375 L 30.628906 63.15625 L 31.039062 63.824219 L 31.523438 64.339844 L 32.082031 64.710938 L 32.71875 64.933594 L 33.425781 65.007812 L 33.78125 64.988281 L 34.117188 64.933594 L 34.4375 64.84375 L 34.742188 64.71875 L 35.023438 64.558594 L 35.289062 64.359375 L 35.539062 64.125 L 35.769531 63.855469 L 35.980469 63.550781 L 36.175781 63.207031 L 36.355469 62.828125 L 36.515625 62.410156 L 36.660156 61.949219 L 36.78125 61.453125 L 36.886719 60.914062 L 36.972656 60.335938 L 37.039062 59.71875 L 37.085938 59.0625 L 37.113281 58.367188 L 37.125 57.632812 L 37.113281 56.898438 L 37.085938 56.203125 L 37.039062 55.546875 L 36.972656 54.929688 L 36.886719 54.351562 L 36.78125 53.8125 L 36.660156 53.316406 L 36.515625 52.855469 L 36.355469 52.4375 L 36.175781 52.058594 L 35.980469 51.710938 L 35.769531 51.398438 L 35.539062 51.125 L 35.289062 50.890625 L 35.023438 50.6875 L 34.742188 50.523438 L 34.4375 50.398438 L 34.117188 50.304688 L 33.78125 50.25 Z M 33.425781 50.230469 "/>
<path fill-rule="nonzero" fill="rgb(10.196078%, 10.196078%, 10.196078%)" fill-opacity="1" d="M 79.882812 338.527344 L 80.386719 338.546875 L 80.863281 338.613281 L 81.316406 338.722656 L 81.742188 338.878906 L 82.144531 339.074219 L 82.523438 339.316406 L 82.875 339.601562 L 83.203125 339.933594 L 83.503906 340.308594 L 83.78125 340.726562 L 84.035156 341.179688 L 84.261719 341.675781 L 84.457031 342.214844 L 84.632812 342.792969 L 84.777344 343.414062 L 84.894531 344.074219 L 84.988281 344.773438 L 85.054688 345.515625 L 85.09375 346.300781 L 85.109375 347.125 L 85.09375 347.945312 L 85.054688 348.726562 L 84.988281 349.464844 L 84.890625 350.164062 L 84.769531 350.824219 L 84.621094 351.445312 L 84.445312 352.027344 L 84.242188 352.566406 L 84.015625 353.066406 L 83.757812 353.527344 L 83.480469 353.9375 L 83.179688 354.308594 L 82.851562 354.632812 L 82.503906 354.917969 L 82.125 355.15625 L 81.726562 355.351562 L 81.304688 355.503906 L 80.855469 355.613281 L 80.378906 355.679688 L 79.882812 355.699219 L 79.378906 355.679688 L 78.902344 355.613281 L 78.449219 355.503906 L 78.023438 355.351562 L 77.621094 355.15625 L 77.242188 354.917969 L 76.890625 354.632812 L 76.5625 354.308594 L 76.261719 353.9375 L 75.984375 353.527344 L 75.730469 353.066406 L 75.507812 352.5625 L 75.308594 352.023438 L 75.136719 351.441406 L 74.988281 350.820312 L 74.871094 350.15625 L 74.777344 349.453125 L 74.710938 348.710938 L 74.671875 347.925781 L 74.65625 347.101562 L 74.671875 346.277344 L 74.710938 345.492188 L 74.777344 344.75 L 74.871094 344.046875 L 74.988281 343.386719 L 75.136719 342.769531 L 75.308594 342.191406 L 75.507812 341.652344 L 75.730469 341.15625 L 75.984375 340.699219 L 76.261719 340.289062 L 76.5625 339.917969 L 76.890625 339.589844 L 77.242188 339.308594 L 77.621094 339.070312 L 78.023438 338.875 L 78.449219 338.722656 L 78.902344 338.613281 L 79.378906 338.546875 Z M 79.882812 339.726562 L 79.175781 339.800781 L 78.542969 340.019531 L 77.984375 340.390625 L 77.5 340.90625 L 77.089844 341.570312 L 76.753906 342.378906 L 76.492188 343.339844 L 76.308594 344.445312 L 76.195312 345.699219 L 76.15625 347.101562 L 76.195312 348.507812 L 76.308594 349.765625 L 76.492188 350.875 L 76.753906 351.835938 L 77.089844 352.652344 L 77.5 353.316406 L 77.984375 353.835938 L 78.542969 354.203125 L 79.175781 354.425781 L 79.882812 354.5 L 80.238281 354.484375 L 80.578125 354.429688 L 80.898438 354.339844 L 81.199219 354.210938 L 81.484375 354.050781 L 81.75 353.851562 L 81.996094 353.617188 L 82.226562 353.347656 L 82.4375 353.042969 L 82.632812 352.699219 L 82.8125 352.320312 L 82.976562 351.902344 L 83.117188 351.441406 L 83.242188 350.945312 L 83.34375 350.40625 L 83.429688 349.828125 L 83.496094 349.210938 L 83.546875 348.554688 L 83.574219 347.859375 L 83.582031 347.125 L 83.574219 346.390625 L 83.546875 345.695312 L 83.496094 345.039062 L 83.429688 344.421875 L 83.34375 343.84375 L 83.242188 343.304688 L 83.117188 342.808594 L 82.976562 342.347656 L 82.8125 341.929688 L 82.632812 341.550781 L 82.4375 341.203125 L 82.226562 340.894531 L 81.996094 340.621094 L 81.75 340.382812 L 81.484375 340.183594 L 81.199219 340.015625 L 80.898438 339.890625 L 80.578125 339.796875 L 80.238281 339.742188 Z M 79.882812 339.726562 "/>
<path fill-rule="nonzero" fill="rgb(10.196078%, 10.196078%, 10.196078%)" fill-opacity="1" d="M 89.332031 353.324219 L 89.4375 353.328125 L 89.535156 353.339844 L 89.628906 353.355469 L 89.722656 353.382812 L 89.808594 353.414062 L 89.890625 353.453125 L 89.96875 353.496094 L 90.046875 353.550781 L 90.117188 353.609375 L 90.25 353.742188 L 90.308594 353.8125 L 90.363281 353.886719 L 90.40625 353.964844 L 90.445312 354.042969 L 90.476562 354.128906 L 90.5 354.214844 L 90.519531 354.308594 L 90.53125 354.402344 L 90.53125 354.605469 L 90.519531 354.703125 L 90.5 354.800781 L 90.476562 354.890625 L 90.445312 354.980469 L 90.40625 355.066406 L 90.363281 355.148438 L 90.308594 355.226562 L 90.25 355.304688 L 90.183594 355.375 L 90.117188 355.4375 L 90.046875 355.492188 L 89.96875 355.542969 L 89.890625 355.582031 L 89.808594 355.621094 L 89.722656 355.648438 L 89.628906 355.671875 L 89.535156 355.6875 L 89.4375 355.695312 L 89.332031 355.699219 L 89.234375 355.695312 L 89.140625 355.6875 L 89.046875 355.667969 L 88.957031 355.644531 L 88.871094 355.613281 L 88.785156 355.574219 L 88.707031 355.527344 L 88.628906 355.476562 L 88.554688 355.417969 L 88.484375 355.351562 L 88.417969 355.277344 L 88.355469 355.203125 L 88.304688 355.125 L 88.257812 355.046875 L 88.21875 354.964844 L 88.1875 354.875 L 88.164062 354.785156 L 88.148438 354.695312 L 88.136719 354.597656 L 88.132812 354.5 L 88.136719 354.402344 L 88.148438 354.308594 L 88.164062 354.214844 L 88.1875 354.128906 L 88.21875 354.042969 L 88.257812 353.964844 L 88.304688 353.886719 L 88.355469 353.8125 L 88.417969 353.742188 L 88.484375 353.675781 L 88.554688 353.609375 L 88.628906 353.550781 L 88.707031 353.496094 L 88.785156 353.453125 L 88.871094 353.414062 L 88.957031 353.382812 L 89.046875 353.355469 L 89.140625 353.339844 L 89.234375 353.328125 Z M 89.332031 353.324219 "/>
<path fill-rule="nonzero" fill="rgb(10.196078%, 10.196078%, 10.196078%)" fill-opacity="1" d="M 98.808594 338.527344 L 99.3125 338.546875 L 99.789062 338.613281 L 100.242188 338.722656 L 100.667969 338.878906 L 101.070312 339.074219 L 101.449219 339.316406 L 101.800781 339.601562 L 102.128906 339.933594 L 102.429688 340.308594 L 102.707031 340.726562 L 102.960938 341.179688 L 103.183594 341.675781 L 103.382812 342.214844 L 103.554688 342.792969 L 103.703125 343.414062 L 103.820312 344.074219 L 103.914062 344.773438 L 103.980469 345.515625 L 104.019531 346.300781 L 104.03125 347.125 L 104.019531 347.945312 L 103.980469 348.726562 L 103.910156 349.464844 L 103.816406 350.164062 L 103.695312 350.824219 L 103.546875 351.445312 L 103.371094 352.027344 L 103.167969 352.566406 L 102.941406 353.066406 L 102.683594 353.527344 L 102.40625 353.9375 L 102.105469 354.308594 L 101.777344 354.632812 L 101.425781 354.917969 L 101.050781 355.15625 L 100.652344 355.351562 L 100.226562 355.503906 L 99.777344 355.613281 L 99.304688 355.679688 L 98.808594 355.699219 L 98.304688 355.679688 L 97.828125 355.613281 L 97.375 355.503906 L 96.949219 355.351562 L 96.546875 355.15625 L 96.167969 354.917969 L 95.816406 354.632812 L 95.488281 354.308594 L 95.1875 353.9375 L 94.90625 353.527344 L 94.65625 353.066406 L 94.429688 352.5625 L 94.230469 352.023438 L 94.058594 351.441406 L 93.914062 350.820312 L 93.796875 350.15625 L 93.703125 349.453125 L 93.636719 348.710938 L 93.597656 347.925781 L 93.582031 347.101562 L 93.597656 346.277344 L 93.636719 345.492188 L 93.703125 344.75 L 93.796875 344.046875 L 93.914062 343.386719 L 94.058594 342.769531 L 94.230469 342.191406 L 94.429688 341.652344 L 94.65625 341.15625 L 94.90625 340.699219 L 95.1875 340.289062 L 95.488281 339.917969 L 95.816406 339.589844 L 96.167969 339.308594 L 96.546875 339.070312 L 96.949219 338.875 L 97.375 338.722656 L 97.828125 338.613281 L 98.304688 338.546875 Z M 98.808594 339.726562 L 98.101562 339.800781 L 97.46875 340.019531 L 96.910156 340.390625 L 96.425781 340.90625 L 96.015625 341.570312 L 95.679688 342.378906 L 95.417969 343.339844 L 95.230469 344.445312 L 95.121094 345.699219 L 95.082031 347.101562 L 95.121094 348.507812 L 95.230469 349.765625 L 95.417969 350.875 L 95.679688 351.835938 L 96.015625 352.652344 L 96.425781 353.316406 L 96.910156 353.835938 L 97.46875 354.203125 L 98.101562 354.425781 L 98.808594 354.5 L 99.164062 354.484375 L 99.503906 354.429688 L 99.820312 354.339844 L 100.125 354.210938 L 100.40625 354.050781 L 100.675781 353.851562 L 100.921875 353.617188 L 101.152344 353.347656 L 101.363281 353.042969 L 101.558594 352.699219 L 101.738281 352.320312 L 101.898438 351.902344 L 102.042969 351.441406 L 102.167969 350.945312 L 102.269531 350.40625 L 102.355469 349.828125 L 102.421875 349.210938 L 102.46875 348.554688 L 102.5 347.859375 L 102.507812 347.125 L 102.5 346.390625 L 102.46875 345.695312 L 102.421875 345.039062 L 102.355469 344.421875 L 102.269531 343.84375 L 102.167969 343.304688 L 102.042969 342.808594 L 101.898438 342.347656 L 101.738281 341.929688 L 101.558594 341.550781 L 101.363281 341.203125 L 101.152344 340.894531 L 100.921875 340.621094 L 100.675781 340.382812 L 100.40625 340.183594 L 100.125 340.015625 L 99.820312 339.890625 L 99.503906 339.796875 L 99.164062 339.742188 Z M 98.808594 339.726562 "/>
<path fill-rule="nonzero" fill="rgb(10.196078%, 10.196078%, 10.196078%)" fill-opacity="1" d="M 112.558594 338.527344 L 113.0625 338.546875 L 113.539062 338.613281 L 113.992188 338.722656 L 114.417969 338.878906 L 114.820312 339.074219 L 115.199219 339.316406 L 115.550781 339.601562 L 115.878906 339.933594 L 116.179688 340.308594 L 116.457031 340.726562 L 116.710938 341.179688 L 116.933594 341.675781 L 117.132812 342.214844 L 117.304688 342.792969 L 117.453125 343.414062 L 117.570312 344.074219 L 117.664062 344.773438 L 117.730469 345.515625 L 117.769531 346.300781 L 117.78125 347.125 L 117.769531 347.945312 L 117.730469 348.726562 L 117.660156 349.464844 L 117.566406 350.164062 L 117.445312 350.824219 L 117.296875 351.445312 L 117.121094 352.027344 L 116.917969 352.566406 L 116.691406 353.066406 L 116.433594 353.527344 L 116.15625 353.9375 L 115.855469 354.308594 L 115.527344 354.632812 L 115.175781 354.917969 L 114.800781 355.15625 L 114.402344 355.351562 L 113.976562 355.503906 L 113.527344 355.613281 L 113.054688 355.679688 L 112.558594 355.699219 L 112.054688 355.679688 L 111.578125 355.613281 L 111.125 355.503906 L 110.699219 355.351562 L 110.296875 355.15625 L 109.917969 354.917969 L 109.566406 354.632812 L 109.238281 354.308594 L 108.9375 353.9375 L 108.65625 353.527344 L 108.40625 353.066406 L 108.179688 352.5625 L 107.980469 352.023438 L 107.808594 351.441406 L 107.664062 350.820312 L 107.546875 350.15625 L 107.453125 349.453125 L 107.386719 348.710938 L 107.347656 347.925781 L 107.332031 347.101562 L 107.347656 346.277344 L 107.386719 345.492188 L 107.453125 344.75 L 107.546875 344.046875 L 107.664062 343.386719 L 107.808594 342.769531 L 107.980469 342.191406 L 108.179688 341.652344 L 108.40625 341.15625 L 108.65625 340.699219 L 108.9375 340.289062 L 109.238281 339.917969 L 109.566406 339.589844 L 109.917969 339.308594 L 110.296875 339.070312 L 110.699219 338.875 L 111.125 338.722656 L 111.578125 338.613281 L 112.054688 338.546875 Z M 112.558594 339.726562 L 111.851562 339.800781 L 111.21875 340.019531 L 110.660156 340.390625 L 110.175781 340.90625 L 109.765625 341.570312 L 109.429688 342.378906 L 109.167969 343.339844 L 108.980469 344.445312 L 108.871094 345.699219 L 108.832031 347.101562 L 108.871094 348.507812 L 108.980469 349.765625 L 109.167969 350.875 L 109.429688 351.835938 L 109.765625 352.652344 L 110.175781 353.316406 L 110.660156 353.835938 L 111.21875 354.203125 L 111.851562 354.425781 L 112.558594 354.5 L 112.914062 354.484375 L 113.253906 354.429688 L 113.570312 354.339844 L 113.875 354.210938 L 114.15625 354.050781 L 114.425781 353.851562 L 114.671875 353.617188 L 114.902344 353.347656 L 115.113281 353.042969 L 115.308594 352.699219 L 115.488281 352.320312 L 115.648438 351.902344 L 115.792969 351.441406 L 115.917969 350.945312 L 116.019531 350.40625 L 116.105469 349.828125 L 116.171875 349.210938 L 116.21875 348.554688 L 116.25 347.859375 L 116.257812 347.125 L 116.25 346.390625 L 116.21875 345.695312 L 116.171875 345.039062 L 116.105469 344.421875 L 116.019531 343.84375 L 115.917969 343.304688 L 115.792969 342.808594 L 115.648438 342.347656 L 115.488281 341.929688 L 115.308594 341.550781 L 115.113281 341.203125 L 114.902344 340.894531 L 114.671875 340.621094 L 114.425781 340.382812 L 114.15625 340.183594 L 113.875 340.015625 L 113.570312 339.890625 L 113.253906 339.796875 L 112.914062 339.742188 Z M 112.558594 339.726562 "/>
<path fill-rule="nonzero" fill="rgb(10.196078%, 10.196078%, 10.196078%)" fill-opacity="1" d="M 243.089844 338.527344 L 243.589844 338.546875 L 244.066406 338.613281 L 244.519531 338.722656 L 244.949219 338.878906 L 245.351562 339.074219 L 245.726562 339.316406 L 246.082031 339.601562 L 246.410156 339.933594 L 246.710938 340.308594 L 246.988281 340.726562 L 247.238281 341.179688 L 247.464844 341.675781 L 247.664062 342.214844 L 247.835938 342.792969 L 247.980469 343.414062 L 248.101562 344.074219 L 248.195312 344.773438 L 248.261719 345.515625 L 248.300781 346.300781 L 248.3125 347.125 L 248.300781 347.945312 L 248.257812 348.726562 L 248.191406 349.464844 L 248.097656 350.164062 L 247.976562 350.824219 L 247.828125 351.445312 L 247.652344 352.027344 L 247.449219 352.566406 L 247.21875 353.066406 L 246.964844 353.527344 L 246.6875 353.9375 L 246.382812 354.308594 L 246.058594 354.632812 L 245.707031 354.917969 L 245.332031 355.15625 L 244.933594 355.351562 L 244.507812 355.503906 L 244.058594 355.613281 L 243.585938 355.679688 L 243.089844 355.699219 L 242.585938 355.679688 L 242.109375 355.613281 L 241.65625 355.503906 L 241.226562 355.351562 L 240.824219 355.15625 L 240.449219 354.917969 L 240.097656 354.632812 L 239.769531 354.308594 L 239.464844 353.9375 L 239.1875 353.527344 L 238.9375 353.066406 L 238.710938 352.5625 L 238.511719 352.023438 L 238.339844 351.441406 L 238.195312 350.820312 L 238.074219 350.15625 L 237.984375 349.453125 L 237.917969 348.710938 L 237.875 347.925781 L 237.863281 347.101562 L 237.875 346.277344 L 237.917969 345.492188 L 237.984375 344.75 L 238.074219 344.046875 L 238.195312 343.386719 L 238.339844 342.769531 L 238.511719 342.191406 L 238.710938 341.652344 L 238.9375 341.15625 L 239.1875 340.699219 L 239.464844 340.289062 L 239.769531 339.917969 L 240.097656 339.589844 L 240.449219 339.308594 L 240.824219 339.070312 L 241.226562 338.875 L 241.65625 338.722656 L 242.109375 338.613281 L 242.585938 338.546875 Z M 243.089844 339.726562 L 242.378906 339.800781 L 241.746094 340.019531 L 241.1875 340.390625 L 240.703125 340.90625 L 240.292969 341.570312 L 239.960938 342.378906 L 239.699219 343.339844 L 239.511719 344.445312 L 239.402344 345.699219 L 239.363281 347.101562 L 239.402344 348.507812 L 239.511719 349.765625 L 239.699219 350.875 L 239.960938 351.835938 L 240.292969 352.652344 L 240.703125 353.316406 L 241.1875 353.835938 L 241.746094 354.203125 L 242.378906 354.425781 L 243.089844 354.5 L 243.445312 354.484375 L 243.78125 354.429688 L 244.101562 354.339844 L 244.402344 354.210938 L 244.6875 354.050781 L 244.953125 353.851562 L 245.203125 353.617188 L 245.433594 353.347656 L 245.644531 353.042969 L 245.839844 352.699219 L 246.019531 352.320312 L 246.179688 351.902344 L 246.324219 351.441406 L 246.445312 350.945312 L 246.550781 350.40625 L 246.636719 349.828125 L 246.703125 349.210938 L 246.75 348.554688 L 246.777344 347.859375 L 246.789062 347.125 L 246.777344 346.390625 L 246.75 345.695312 L 246.703125 345.039062 L 246.636719 344.421875 L 246.550781 343.84375 L 246.445312 343.304688 L 246.324219 342.808594 L 246.179688 342.347656 L 246.019531 341.929688 L 245.839844 341.550781 L 245.644531 341.203125 L 245.433594 340.894531 L 245.203125 340.621094 L 244.953125 340.382812 L 244.6875 340.183594 L 244.402344 340.015625 L 244.101562 339.890625 L 243.78125 339.796875 L 243.445312 339.742188 Z M 243.089844 339.726562 "/>
<path fill-rule="nonzero" fill="rgb(10.196078%, 10.196078%, 10.196078%)" fill-opacity="1" d="M 252.539062 353.324219 L 252.640625 353.328125 L 252.738281 353.339844 L 252.835938 353.355469 L 252.925781 353.382812 L 253.011719 353.414062 L 253.097656 353.453125 L 253.175781 353.496094 L 253.25 353.550781 L 253.320312 353.609375 L 253.453125 353.742188 L 253.515625 353.8125 L 253.566406 353.886719 L 253.613281 353.964844 L 253.652344 354.042969 L 253.683594 354.128906 L 253.707031 354.214844 L 253.722656 354.308594 L 253.734375 354.402344 L 253.738281 354.5 L 253.734375 354.605469 L 253.722656 354.703125 L 253.707031 354.800781 L 253.683594 354.890625 L 253.652344 354.980469 L 253.613281 355.066406 L 253.566406 355.148438 L 253.515625 355.226562 L 253.453125 355.304688 L 253.386719 355.375 L 253.320312 355.4375 L 253.25 355.492188 L 253.175781 355.542969 L 253.097656 355.582031 L 253.011719 355.621094 L 252.925781 355.648438 L 252.835938 355.671875 L 252.738281 355.6875 L 252.640625 355.695312 L 252.539062 355.699219 L 252.441406 355.695312 L 252.34375 355.6875 L 252.25 355.667969 L 252.164062 355.644531 L 252.074219 355.613281 L 251.992188 355.574219 L 251.910156 355.527344 L 251.835938 355.476562 L 251.757812 355.417969 L 251.6875 355.351562 L 251.621094 355.277344 L 251.5625 355.203125 L 251.507812 355.125 L 251.464844 355.046875 L 251.425781 354.964844 L 251.394531 354.875 L 251.371094 354.785156 L 251.351562 354.695312 L 251.339844 354.597656 L 251.339844 354.402344 L 251.351562 354.308594 L 251.371094 354.214844 L 251.394531 354.128906 L 251.425781 354.042969 L 251.464844 353.964844 L 251.507812 353.886719 L 251.5625 353.8125 L 251.621094 353.742188 L 251.6875 353.675781 L 251.757812 353.609375 L 251.835938 353.550781 L 251.910156 353.496094 L 251.992188 353.453125 L 252.074219 353.414062 L 252.164062 353.382812 L 252.25 353.355469 L 252.34375 353.339844 L 252.441406 353.328125 Z M 252.539062 353.324219 "/>
<path fill-rule="nonzero" fill="rgb(10.196078%, 10.196078%, 10.196078%)" fill-opacity="1" d="M 260.761719 338.527344 L 261.175781 338.539062 L 261.566406 338.574219 L 261.945312 338.636719 L 262.304688 338.722656 L 262.644531 338.832031 L 262.96875 338.964844 L 263.273438 339.125 L 263.5625 339.308594 L 263.835938 339.519531 L 264.089844 339.75 L 264.324219 340.003906 L 264.539062 340.269531 L 264.726562 340.546875 L 264.886719 340.84375 L 265.027344 341.152344 L 265.136719 341.472656 L 265.226562 341.808594 L 265.289062 342.160156 L 265.324219 342.523438 L 265.339844 342.902344 L 265.332031 343.222656 L 265.3125 343.542969 L 265.277344 343.859375 L 265.230469 344.167969 L 265.167969 344.476562 L 265.09375 344.777344 L 265.007812 345.078125 L 264.90625 345.371094 L 264.792969 345.664062 L 264.664062 345.949219 L 264.519531 346.238281 L 264.363281 346.53125 L 264.1875 346.832031 L 264 347.132812 L 263.792969 347.445312 L 263.574219 347.757812 L 263.339844 348.082031 L 263.085938 348.40625 L 262.820312 348.738281 L 262.539062 349.074219 L 262.234375 349.433594 L 261.898438 349.824219 L 261.523438 350.246094 L 261.113281 350.703125 L 260.667969 351.195312 L 260.1875 351.71875 L 259.671875 352.277344 L 259.121094 352.867188 L 258.535156 353.492188 L 257.914062 354.152344 L 265.789062 354.152344 L 265.589844 355.425781 L 256.214844 355.425781 L 256.214844 354.199219 L 256.878906 353.488281 L 257.503906 352.816406 L 258.09375 352.179688 L 258.640625 351.585938 L 259.152344 351.027344 L 259.621094 350.503906 L 260.050781 350.019531 L 260.445312 349.578125 L 260.796875 349.167969 L 261.113281 348.800781 L 261.402344 348.449219 L 261.675781 348.109375 L 261.933594 347.78125 L 262.167969 347.460938 L 262.386719 347.152344 L 262.589844 346.851562 L 262.773438 346.558594 L 262.9375 346.28125 L 263.085938 346.011719 L 263.214844 345.75 L 263.332031 345.488281 L 263.4375 345.222656 L 263.53125 344.953125 L 263.613281 344.683594 L 263.683594 344.40625 L 263.738281 344.128906 L 263.78125 343.84375 L 263.8125 343.558594 L 263.832031 343.269531 L 263.839844 342.976562 L 263.828125 342.6875 L 263.804688 342.410156 L 263.757812 342.144531 L 263.699219 341.890625 L 263.621094 341.652344 L 263.523438 341.421875 L 263.410156 341.203125 L 263.277344 341 L 263.128906 340.804688 L 262.964844 340.625 L 262.789062 340.460938 L 262.601562 340.308594 L 262.402344 340.179688 L 262.191406 340.066406 L 261.96875 339.96875 L 261.734375 339.890625 L 261.492188 339.828125 L 261.234375 339.785156 L 260.96875 339.757812 L 260.6875 339.75 L 260.460938 339.753906 L 260.238281 339.769531 L 260.019531 339.792969 L 259.808594 339.828125 L 259.601562 339.871094 L 259.398438 339.921875 L 259.199219 339.984375 L 259.007812 340.054688 L 258.820312 340.136719 L 258.636719 340.226562 L 258.464844 340.324219 L 258.292969 340.433594 L 258.121094 340.554688 L 257.949219 340.679688 L 257.78125 340.820312 L 257.613281 340.964844 L 257.449219 341.125 L 257.285156 341.289062 L 257.125 341.464844 L 256.964844 341.652344 L 255.964844 340.902344 L 256.164062 340.660156 L 256.371094 340.4375 L 256.578125 340.222656 L 256.789062 340.023438 L 257 339.839844 L 257.21875 339.664062 L 257.4375 339.503906 L 257.660156 339.355469 L 257.882812 339.222656 L 258.113281 339.101562 L 258.351562 338.992188 L 258.59375 338.894531 L 258.84375 338.808594 L 259.101562 338.734375 L 259.363281 338.667969 L 259.632812 338.617188 L 259.90625 338.578125 L 260.183594 338.546875 L 260.472656 338.53125 Z M 260.761719 338.527344 "/>
<path fill-rule="nonzero" fill="rgb(10.196078%, 10.196078%, 10.196078%)" fill-opacity="1" d="M 277.238281 340 L 270.488281 340 L 270.488281 345.675781 L 270.765625 345.527344 L 271.042969 345.394531 L 271.320312 345.28125 L 271.605469 345.179688 L 271.886719 345.09375 L 272.175781 345.023438 L 272.460938 344.96875 L 272.753906 344.929688 L 273.042969 344.90625 L 273.339844 344.902344 L 273.757812 344.914062 L 274.164062 344.957031 L 274.546875 345.027344 L 274.914062 345.125 L 275.261719 345.25 L 275.59375 345.40625 L 275.90625 345.585938 L 276.203125 345.796875 L 276.480469 346.035156 L 276.738281 346.300781 L 276.980469 346.585938 L 277.195312 346.890625 L 277.386719 347.21875 L 277.554688 347.5625 L 277.695312 347.933594 L 277.808594 348.320312 L 277.898438 348.726562 L 277.960938 349.15625 L 278 349.605469 L 278.011719 350.074219 L 278.007812 350.398438 L 277.984375 350.710938 L 277.953125 351.019531 L 277.90625 351.324219 L 277.84375 351.621094 L 277.769531 351.910156 L 277.683594 352.191406 L 277.582031 352.46875 L 277.464844 352.738281 L 277.339844 353 L 277.203125 353.25 L 277.054688 353.488281 L 276.894531 353.714844 L 276.726562 353.933594 L 276.542969 354.136719 L 276.351562 354.332031 L 276.144531 354.515625 L 275.929688 354.6875 L 275.703125 354.851562 L 275.464844 355 L 275.21875 355.132812 L 274.96875 355.253906 L 274.707031 355.359375 L 274.4375 355.449219 L 274.164062 355.527344 L 273.878906 355.589844 L 273.585938 355.636719 L 273.289062 355.671875 L 272.980469 355.695312 L 272.664062 355.699219 L 272.117188 355.679688 L 271.585938 355.621094 L 271.074219 355.519531 L 270.578125 355.378906 L 270.101562 355.199219 L 269.640625 354.980469 L 269.195312 354.71875 L 268.765625 354.421875 L 268.355469 354.082031 L 267.964844 353.699219 L 268.863281 352.824219 L 269.023438 352.992188 L 269.1875 353.148438 L 269.351562 353.296875 L 269.519531 353.433594 L 269.6875 353.5625 L 269.859375 353.683594 L 270.03125 353.796875 L 270.207031 353.898438 L 270.382812 353.992188 L 270.5625 354.074219 L 270.746094 354.152344 L 270.933594 354.21875 L 271.128906 354.28125 L 271.332031 354.332031 L 271.539062 354.375 L 271.75 354.410156 L 271.96875 354.4375 L 272.195312 354.460938 L 272.425781 354.472656 L 272.664062 354.476562 L 273.011719 354.464844 L 273.34375 354.429688 L 273.660156 354.371094 L 273.964844 354.289062 L 274.25 354.183594 L 274.523438 354.050781 L 274.78125 353.898438 L 275.023438 353.722656 L 275.25 353.523438 L 275.464844 353.300781 L 275.65625 353.050781 L 275.832031 352.785156 L 275.984375 352.503906 L 276.121094 352.203125 L 276.230469 351.886719 L 276.324219 351.554688 L 276.394531 351.203125 L 276.445312 350.835938 L 276.476562 350.453125 L 276.488281 350.050781 L 276.480469 349.660156 L 276.449219 349.292969 L 276.402344 348.941406 L 276.335938 348.613281 L 276.25 348.308594 L 276.144531 348.019531 L 276.023438 347.753906 L 275.878906 347.507812 L 275.71875 347.28125 L 275.539062 347.074219 L 275.347656 346.886719 L 275.140625 346.714844 L 274.921875 346.566406 L 274.691406 346.433594 L 274.445312 346.324219 L 274.183594 346.234375 L 273.914062 346.164062 L 273.625 346.117188 L 273.328125 346.085938 L 273.011719 346.074219 L 272.699219 346.082031 L 272.550781 346.09375 L 272.402344 346.109375 L 272.257812 346.125 L 272.117188 346.148438 L 271.980469 346.171875 L 271.84375 346.203125 L 271.714844 346.238281 L 271.589844 346.277344 L 271.464844 346.3125 L 271.34375 346.355469 L 271.214844 346.402344 L 271.085938 346.457031 L 270.949219 346.511719 L 270.8125 346.574219 L 270.675781 346.644531 L 270.53125 346.714844 L 270.386719 346.792969 L 270.238281 346.875 L 269.089844 346.875 L 269.089844 338.800781 L 277.464844 338.800781 Z M 277.238281 340 "/>
<path fill-rule="nonzero" fill="rgb(10.196078%, 10.196078%, 10.196078%)" fill-opacity="1" d="M 403.730469 338.527344 L 404.234375 338.546875 L 404.710938 338.613281 L 405.164062 338.722656 L 405.589844 338.878906 L 405.992188 339.074219 L 406.371094 339.316406 L 406.722656 339.601562 L 407.050781 339.933594 L 407.351562 340.308594 L 407.628906 340.726562 L 407.882812 341.179688 L 408.109375 341.675781 L 408.304688 342.214844 L 408.480469 342.792969 L 408.625 343.414062 L 408.742188 344.074219 L 408.835938 344.773438 L 408.902344 345.515625 L 408.941406 346.300781 L 408.957031 347.125 L 408.941406 347.945312 L 408.902344 348.726562 L 408.835938 349.464844 L 408.738281 350.164062 L 408.617188 350.824219 L 408.46875 351.445312 L 408.292969 352.027344 L 408.09375 352.566406 L 407.863281 353.066406 L 407.605469 353.527344 L 407.328125 353.9375 L 407.027344 354.308594 L 406.699219 354.632812 L 406.351562 354.917969 L 405.972656 355.15625 L 405.574219 355.351562 L 405.152344 355.503906 L 404.703125 355.613281 L 404.230469 355.679688 L 403.730469 355.699219 L 403.226562 355.679688 L 402.75 355.613281 L 402.296875 355.503906 L 401.871094 355.351562 L 401.46875 355.15625 L 401.089844 354.917969 L 400.738281 354.632812 L 400.410156 354.308594 L 400.109375 353.9375 L 399.832031 353.527344 L 399.578125 353.066406 L 399.355469 352.5625 L 399.15625 352.023438 L 398.984375 351.441406 L 398.835938 350.820312 L 398.71875 350.15625 L 398.625 349.453125 L 398.558594 348.710938 L 398.519531 347.925781 L 398.503906 347.101562 L 398.519531 346.277344 L 398.558594 345.492188 L 398.625 344.75 L 398.71875 344.046875 L 398.835938 343.386719 L 398.984375 342.769531 L 399.15625 342.191406 L 399.355469 341.652344 L 399.578125 341.15625 L 399.832031 340.699219 L 400.109375 340.289062 L 400.410156 339.917969 L 400.738281 339.589844 L 401.089844 339.308594 L 401.46875 339.070312 L 401.871094 338.875 L 402.296875 338.722656 L 402.75 338.613281 L 403.226562 338.546875 Z M 403.730469 339.726562 L 403.023438 339.800781 L 402.390625 340.019531 L 401.832031 340.390625 L 401.347656 340.90625 L 400.9375 341.570312 L 400.601562 342.378906 L 400.339844 343.339844 L 400.15625 344.445312 L 400.042969 345.699219 L 400.003906 347.101562 L 400.042969 348.507812 L 400.15625 349.765625 L 400.339844 350.875 L 400.601562 351.835938 L 400.9375 352.652344 L 401.347656 353.316406 L 401.832031 353.835938 L 402.390625 354.203125 L 403.023438 354.425781 L 403.730469 354.5 L 404.085938 354.484375 L 404.425781 354.429688 L 404.746094 354.339844 L 405.046875 354.210938 L 405.332031 354.050781 L 405.597656 353.851562 L 405.84375 353.617188 L 406.074219 353.347656 L 406.285156 353.042969 L 406.480469 352.699219 L 406.660156 352.320312 L 406.824219 351.902344 L 406.964844 351.441406 L 407.089844 350.945312 L 407.191406 350.40625 L 407.277344 349.828125 L 407.34375 349.210938 L 407.394531 348.554688 L 407.421875 347.859375 L 407.429688 347.125 L 407.421875 346.390625 L 407.394531 345.695312 L 407.34375 345.039062 L 407.277344 344.421875 L 407.191406 343.84375 L 407.089844 343.304688 L 406.964844 342.808594 L 406.824219 342.347656 L 406.660156 341.929688 L 406.480469 341.550781 L 406.285156 341.203125 L 406.074219 340.894531 L 405.84375 340.621094 L 405.597656 340.382812 L 405.332031 340.183594 L 405.046875 340.015625 L 404.746094 339.890625 L 404.425781 339.796875 L 404.085938 339.742188 Z M 403.730469 339.726562 "/>
<path fill-rule="nonzero" fill="rgb(10.196078%, 10.196078%, 10.196078%)" fill-opacity="1" d="M 413.179688 353.324219 L 413.285156 353.328125 L 413.382812 353.339844 L 413.476562 353.355469 L 413.570312 353.382812 L 413.65625 353.414062 L 413.738281 353.453125 L 413.816406 353.496094 L 413.894531 353.550781 L 413.964844 353.609375 L 414.097656 353.742188 L 414.15625 353.8125 L 414.210938 353.886719 L 414.253906 353.964844 L 414.292969 354.042969 L 414.324219 354.128906 L 414.347656 354.214844 L 414.367188 354.308594 L 414.378906 354.402344 L 414.378906 354.605469 L 414.367188 354.703125 L 414.347656 354.800781 L 414.324219 354.890625 L 414.292969 354.980469 L 414.253906 355.066406 L 414.210938 355.148438 L 414.15625 355.226562 L 414.097656 355.304688 L 414.03125 355.375 L 413.964844 355.4375 L 413.894531 355.492188 L 413.816406 355.542969 L 413.738281 355.582031 L 413.65625 355.621094 L 413.570312 355.648438 L 413.476562 355.671875 L 413.382812 355.6875 L 413.285156 355.695312 L 413.179688 355.699219 L 413.082031 355.695312 L 412.988281 355.6875 L 412.894531 355.667969 L 412.804688 355.644531 L 412.71875 355.613281 L 412.636719 355.574219 L 412.554688 355.527344 L 412.476562 355.476562 L 412.402344 355.417969 L 412.332031 355.351562 L 412.265625 355.277344 L 412.203125 355.203125 L 412.152344 355.125 L 412.105469 355.046875 L 412.066406 354.964844 L 412.035156 354.875 L 412.011719 354.785156 L 411.996094 354.695312 L 411.984375 354.597656 L 411.980469 354.5 L 411.984375 354.402344 L 411.996094 354.308594 L 412.011719 354.214844 L 412.035156 354.128906 L 412.066406 354.042969 L 412.105469 353.964844 L 412.152344 353.886719 L 412.203125 353.8125 L 412.265625 353.742188 L 412.332031 353.675781 L 412.402344 353.609375 L 412.476562 353.550781 L 412.554688 353.496094 L 412.636719 353.453125 L 412.71875 353.414062 L 412.804688 353.382812 L 412.894531 353.355469 L 412.988281 353.339844 L 413.082031 353.328125 Z M 413.179688 353.324219 "/>
<path fill-rule="nonzero" fill="rgb(10.196078%, 10.196078%, 10.196078%)" fill-opacity="1" d="M 425.90625 340 L 419.15625 340 L 419.15625 345.675781 L 419.433594 345.527344 L 419.710938 345.394531 L 419.988281 345.28125 L 420.273438 345.179688 L 420.554688 345.09375 L 420.84375 345.023438 L 421.128906 344.96875 L 421.417969 344.929688 L 421.710938 344.90625 L 422.003906 344.902344 L 422.425781 344.914062 L 422.828125 344.957031 L 423.214844 345.027344 L 423.582031 345.125 L 423.929688 345.25 L 424.261719 345.40625 L 424.574219 345.585938 L 424.871094 345.796875 L 425.148438 346.035156 L 425.40625 346.300781 L 425.648438 346.585938 L 425.863281 346.890625 L 426.054688 347.21875 L 426.222656 347.5625 L 426.363281 347.933594 L 426.476562 348.320312 L 426.566406 348.726562 L 426.628906 349.15625 L 426.667969 349.605469 L 426.679688 350.074219 L 426.675781 350.398438 L 426.652344 350.710938 L 426.621094 351.019531 L 426.574219 351.324219 L 426.511719 351.621094 L 426.4375 351.910156 L 426.351562 352.191406 L 426.25 352.46875 L 426.132812 352.738281 L 426.003906 353 L 425.871094 353.25 L 425.722656 353.488281 L 425.5625 353.714844 L 425.394531 353.933594 L 425.210938 354.136719 L 425.019531 354.332031 L 424.8125 354.515625 L 424.597656 354.6875 L 424.371094 354.851562 L 424.128906 355 L 423.886719 355.132812 L 423.636719 355.253906 L 423.375 355.359375 L 423.105469 355.449219 L 422.832031 355.527344 L 422.546875 355.589844 L 422.253906 355.636719 L 421.953125 355.671875 L 421.648438 355.695312 L 421.332031 355.699219 L 420.785156 355.679688 L 420.253906 355.621094 L 419.742188 355.519531 L 419.246094 355.378906 L 418.769531 355.199219 L 418.308594 354.980469 L 417.863281 354.71875 L 417.433594 354.421875 L 417.023438 354.082031 L 416.628906 353.699219 L 417.53125 352.824219 L 417.691406 352.992188 L 417.855469 353.148438 L 418.019531 353.296875 L 418.1875 353.433594 L 418.355469 353.5625 L 418.527344 353.683594 L 418.699219 353.796875 L 418.875 353.898438 L 419.050781 353.992188 L 419.230469 354.074219 L 419.414062 354.152344 L 419.601562 354.21875 L 419.796875 354.28125 L 420 354.332031 L 420.207031 354.375 L 420.417969 354.410156 L 420.636719 354.4375 L 420.863281 354.460938 L 421.09375 354.472656 L 421.332031 354.476562 L 421.679688 354.464844 L 422.011719 354.429688 L 422.328125 354.371094 L 422.628906 354.289062 L 422.917969 354.183594 L 423.191406 354.050781 L 423.449219 353.898438 L 423.691406 353.722656 L 423.917969 353.523438 L 424.128906 353.300781 L 424.324219 353.050781 L 424.5 352.785156 L 424.652344 352.503906 L 424.785156 352.203125 L 424.898438 351.886719 L 424.992188 351.554688 L 425.0625 351.203125 L 425.113281 350.835938 L 425.144531 350.453125 L 425.15625 350.050781 L 425.144531 349.660156 L 425.117188 349.292969 L 425.070312 348.941406 L 425.003906 348.613281 L 424.917969 348.308594 L 424.8125 348.019531 L 424.691406 347.753906 L 424.546875 347.507812 L 424.386719 347.28125 L 424.207031 347.074219 L 424.015625 346.886719 L 423.808594 346.714844 L 423.589844 346.566406 L 423.359375 346.433594 L 423.113281 346.324219 L 422.851562 346.234375 L 422.578125 346.164062 L 422.292969 346.117188 L 421.992188 346.085938 L 421.679688 346.074219 L 421.367188 346.082031 L 421.214844 346.09375 L 420.925781 346.125 L 420.785156 346.148438 L 420.648438 346.171875 L 420.511719 346.203125 L 420.382812 346.238281 L 420.253906 346.277344 L 420.132812 346.3125 L 420.011719 346.355469 L 419.882812 346.402344 L 419.617188 346.511719 L 419.480469 346.574219 L 419.34375 346.644531 L 419.199219 346.714844 L 419.054688 346.792969 L 418.90625 346.875 L 417.753906 346.875 L 417.753906 338.800781 L 426.128906 338.800781 Z M 425.90625 340 "/>
<path fill-rule="nonzero" fill="rgb(10.196078%, 10.196078%, 10.196078%)" fill-opacity="1" d="M 434.832031 338.527344 L 435.332031 338.546875 L 435.8125 338.613281 L 436.261719 338.722656 L 436.691406 338.878906 L 437.09375 339.074219 L 437.472656 339.316406 L 437.824219 339.601562 L 438.152344 339.933594 L 438.453125 340.308594 L 438.730469 340.726562 L 438.984375 341.179688 L 439.207031 341.675781 L 439.40625 342.214844 L 439.578125 342.792969 L 439.722656 343.414062 L 439.84375 344.074219 L 439.9375 344.773438 L 440.003906 345.515625 L 440.042969 346.300781 L 440.054688 347.125 L 440.042969 347.945312 L 440 348.726562 L 439.933594 349.464844 L 439.839844 350.164062 L 439.71875 350.824219 L 439.570312 351.445312 L 439.394531 352.027344 L 439.191406 352.566406 L 438.960938 353.066406 L 438.707031 353.527344 L 438.429688 353.9375 L 438.125 354.308594 L 437.800781 354.632812 L 437.449219 354.917969 L 437.074219 355.15625 L 436.675781 355.351562 L 436.25 355.503906 L 435.800781 355.613281 L 435.328125 355.679688 L 434.832031 355.699219 L 434.328125 355.679688 L 433.851562 355.613281 L 433.398438 355.503906 L 432.972656 355.351562 L 432.566406 355.15625 L 432.191406 354.917969 L 431.839844 354.632812 L 431.511719 354.308594 L 431.207031 353.9375 L 430.929688 353.527344 L 430.679688 353.066406 L 430.453125 352.5625 L 430.253906 352.023438 L 430.082031 351.441406 L 429.9375 350.820312 L 429.816406 350.15625 L 429.726562 349.453125 L 429.660156 348.710938 L 429.617188 347.925781 L 429.605469 347.101562 L 429.617188 346.277344 L 429.660156 345.492188 L 429.726562 344.75 L 429.816406 344.046875 L 429.9375 343.386719 L 430.082031 342.769531 L 430.253906 342.191406 L 430.453125 341.652344 L 430.679688 341.15625 L 430.929688 340.699219 L 431.207031 340.289062 L 431.511719 339.917969 L 431.839844 339.589844 L 432.191406 339.308594 L 432.566406 339.070312 L 432.972656 338.875 L 433.398438 338.722656 L 433.851562 338.613281 L 434.328125 338.546875 Z M 434.832031 339.726562 L 434.125 339.800781 L 433.488281 340.019531 L 432.929688 340.390625 L 432.445312 340.90625 L 432.035156 341.570312 L 431.703125 342.378906 L 431.441406 343.339844 L 431.253906 344.445312 L 431.144531 345.699219 L 431.105469 347.101562 L 431.144531 348.507812 L 431.253906 349.765625 L 431.441406 350.875 L 431.703125 351.835938 L 432.035156 352.652344 L 432.445312 353.316406 L 432.929688 353.835938 L 433.488281 354.203125 L 434.125 354.425781 L 434.832031 354.5 L 435.1875 354.484375 L 435.523438 354.429688 L 435.84375 354.339844 L 436.148438 354.210938 L 436.429688 354.050781 L 436.695312 353.851562 L 436.945312 353.617188 L 437.175781 353.347656 L 437.386719 353.042969 L 437.582031 352.699219 L 437.761719 352.320312 L 437.921875 351.902344 L 438.066406 351.441406 L 438.1875 350.945312 L 438.292969 350.40625 L 438.378906 349.828125 L 438.445312 349.210938 L 438.492188 348.554688 L 438.519531 347.859375 L 438.53125 347.125 L 438.519531 346.390625 L 438.492188 345.695312 L 438.445312 345.039062 L 438.378906 344.421875 L 438.292969 343.84375 L 438.1875 343.304688 L 438.066406 342.808594 L 437.921875 342.347656 L 437.761719 341.929688 L 437.582031 341.550781 L 437.386719 341.203125 L 437.175781 340.894531 L 436.945312 340.621094 L 436.695312 340.382812 L 436.429688 340.183594 L 436.148438 340.015625 L 435.84375 339.890625 L 435.523438 339.796875 L 435.1875 339.742188 Z M 434.832031 339.726562 "/>
<path fill-rule="nonzero" fill="rgb(10.196078%, 10.196078%, 10.196078%)" fill-opacity="1" d="M 566.671875 338.527344 L 567.175781 338.546875 L 567.652344 338.613281 L 568.105469 338.722656 L 568.535156 338.878906 L 568.9375 339.074219 L 569.3125 339.316406 L 569.664062 339.601562 L 569.992188 339.933594 L 570.296875 340.308594 L 570.574219 340.726562 L 570.824219 341.179688 L 571.050781 341.675781 L 571.25 342.214844 L 571.421875 342.792969 L 571.566406 343.414062 L 571.6875 344.074219 L 571.777344 344.773438 L 571.84375 345.515625 L 571.886719 346.300781 L 571.898438 347.125 L 571.886719 347.945312 L 571.84375 348.726562 L 571.777344 349.464844 L 571.683594 350.164062 L 571.5625 350.824219 L 571.414062 351.445312 L 571.238281 352.027344 L 571.035156 352.566406 L 570.804688 353.066406 L 570.546875 353.527344 L 570.269531 353.9375 L 569.96875 354.308594 L 569.644531 354.632812 L 569.292969 354.917969 L 568.917969 355.15625 L 568.515625 355.351562 L 568.09375 355.503906 L 567.644531 355.613281 L 567.171875 355.679688 L 566.671875 355.699219 L 566.171875 355.679688 L 565.695312 355.613281 L 565.242188 355.503906 L 564.8125 355.351562 L 564.410156 355.15625 L 564.035156 354.917969 L 563.679688 354.632812 L 563.351562 354.308594 L 563.050781 353.9375 L 562.773438 353.527344 L 562.523438 353.066406 L 562.296875 352.5625 L 562.097656 352.023438 L 561.925781 351.441406 L 561.78125 350.820312 L 561.660156 350.15625 L 561.566406 349.453125 L 561.5 348.710938 L 561.460938 347.925781 L 561.449219 347.101562 L 561.460938 346.277344 L 561.5 345.492188 L 561.566406 344.75 L 561.660156 344.046875 L 561.78125 343.386719 L 561.925781 342.769531 L 562.097656 342.191406 L 562.296875 341.652344 L 562.523438 341.15625 L 562.773438 340.699219 L 563.050781 340.289062 L 563.351562 339.917969 L 563.679688 339.589844 L 564.035156 339.308594 L 564.410156 339.070312 L 564.8125 338.875 L 565.242188 338.722656 L 565.695312 338.613281 L 566.171875 338.546875 Z M 566.671875 339.726562 L 565.964844 339.800781 L 565.332031 340.019531 L 564.773438 340.390625 L 564.289062 340.90625 L 563.878906 341.570312 L 563.542969 342.378906 L 563.285156 343.339844 L 563.097656 344.445312 L 562.984375 345.699219 L 562.949219 347.101562 L 562.984375 348.507812 L 563.097656 349.765625 L 563.285156 350.875 L 563.542969 351.835938 L 563.878906 352.652344 L 564.289062 353.316406 L 564.773438 353.835938 L 565.332031 354.203125 L 565.964844 354.425781 L 566.671875 354.5 L 567.03125 354.484375 L 567.367188 354.429688 L 567.6875 354.339844 L 567.988281 354.210938 L 568.273438 354.050781 L 568.539062 353.851562 L 568.789062 353.617188 L 569.015625 353.347656 L 569.230469 353.042969 L 569.421875 352.699219 L 569.605469 352.320312 L 569.765625 351.902344 L 569.90625 351.441406 L 570.03125 350.945312 L 570.136719 350.40625 L 570.222656 349.828125 L 570.289062 349.210938 L 570.335938 348.554688 L 570.363281 347.859375 L 570.375 347.125 L 570.363281 346.390625 L 570.335938 345.695312 L 570.289062 345.039062 L 570.222656 344.421875 L 570.136719 343.84375 L 570.03125 343.304688 L 569.90625 342.808594 L 569.765625 342.347656 L 569.605469 341.929688 L 569.421875 341.550781 L 569.230469 341.203125 L 569.015625 340.894531 L 568.789062 340.621094 L 568.539062 340.382812 L 568.273438 340.183594 L 567.988281 340.015625 L 567.6875 339.890625 L 567.367188 339.796875 L 567.03125 339.742188 Z M 566.671875 339.726562 "/>
<path fill-rule="nonzero" fill="rgb(10.196078%, 10.196078%, 10.196078%)" fill-opacity="1" d="M 576.125 353.324219 L 576.226562 353.328125 L 576.324219 353.339844 L 576.421875 353.355469 L 576.511719 353.382812 L 576.597656 353.414062 L 576.679688 353.453125 L 576.761719 353.496094 L 576.835938 353.550781 L 576.90625 353.609375 L 577.039062 353.742188 L 577.097656 353.8125 L 577.152344 353.886719 L 577.199219 353.964844 L 577.234375 354.042969 L 577.265625 354.128906 L 577.292969 354.214844 L 577.308594 354.308594 L 577.320312 354.402344 L 577.324219 354.5 L 577.320312 354.605469 L 577.308594 354.703125 L 577.292969 354.800781 L 577.265625 354.890625 L 577.234375 354.980469 L 577.199219 355.066406 L 577.152344 355.148438 L 577.097656 355.226562 L 577.039062 355.304688 L 576.972656 355.375 L 576.90625 355.4375 L 576.835938 355.492188 L 576.761719 355.542969 L 576.597656 355.621094 L 576.511719 355.648438 L 576.421875 355.671875 L 576.324219 355.6875 L 576.226562 355.695312 L 576.125 355.699219 L 576.023438 355.695312 L 575.929688 355.6875 L 575.835938 355.667969 L 575.746094 355.644531 L 575.660156 355.613281 L 575.578125 355.574219 L 575.496094 355.527344 L 575.417969 355.476562 L 575.34375 355.417969 L 575.273438 355.351562 L 575.207031 355.277344 L 575.148438 355.203125 L 575.09375 355.125 L 575.050781 355.046875 L 575.011719 354.964844 L 574.980469 354.875 L 574.953125 354.785156 L 574.9375 354.695312 L 574.925781 354.597656 L 574.921875 354.5 L 574.925781 354.402344 L 574.9375 354.308594 L 574.953125 354.214844 L 574.980469 354.128906 L 575.011719 354.042969 L 575.050781 353.964844 L 575.09375 353.886719 L 575.148438 353.8125 L 575.207031 353.742188 L 575.273438 353.675781 L 575.34375 353.609375 L 575.417969 353.550781 L 575.496094 353.496094 L 575.578125 353.453125 L 575.660156 353.414062 L 575.746094 353.382812 L 575.835938 353.355469 L 575.929688 353.339844 L 576.023438 353.328125 Z M 576.125 353.324219 "/>
<path fill-rule="nonzero" fill="rgb(10.196078%, 10.196078%, 10.196078%)" fill-opacity="1" d="M 588.75 338.800781 L 588.75 339.925781 L 582.199219 355.625 L 580.847656 355.175781 L 587.25 340.027344 L 579.472656 340.027344 L 579.472656 338.800781 Z M 588.75 338.800781 "/>
<path fill-rule="nonzero" fill="rgb(10.196078%, 10.196078%, 10.196078%)" fill-opacity="1" d="M 599.773438 340 L 593.023438 340 L 593.023438 345.675781 L 593.300781 345.527344 L 593.578125 345.394531 L 593.855469 345.28125 L 594.140625 345.179688 L 594.421875 345.09375 L 594.710938 345.023438 L 594.996094 344.96875 L 595.289062 344.929688 L 595.578125 344.90625 L 595.875 344.902344 L 596.292969 344.914062 L 596.699219 344.957031 L 597.082031 345.027344 L 597.449219 345.125 L 597.796875 345.25 L 598.128906 345.40625 L 598.441406 345.585938 L 598.738281 345.796875 L 599.015625 346.035156 L 599.273438 346.300781 L 599.515625 346.585938 L 599.730469 346.890625 L 599.921875 347.21875 L 600.089844 347.5625 L 600.230469 347.933594 L 600.34375 348.320312 L 600.433594 348.726562 L 600.496094 349.15625 L 600.535156 349.605469 L 600.546875 350.074219 L 600.542969 350.398438 L 600.519531 350.710938 L 600.488281 351.019531 L 600.441406 351.324219 L 600.378906 351.621094 L 600.304688 351.910156 L 600.21875 352.191406 L 600.117188 352.46875 L 600 352.738281 L 599.875 353 L 599.738281 353.25 L 599.589844 353.488281 L 599.433594 353.714844 L 599.261719 353.933594 L 599.078125 354.136719 L 598.886719 354.332031 L 598.683594 354.515625 L 598.464844 354.6875 L 598.238281 354.851562 L 598 355 L 597.753906 355.132812 L 597.503906 355.253906 L 597.242188 355.359375 L 596.972656 355.449219 L 596.699219 355.527344 L 596.414062 355.589844 L 596.121094 355.636719 L 595.824219 355.671875 L 595.515625 355.695312 L 595.199219 355.699219 L 594.652344 355.679688 L 594.121094 355.621094 L 593.609375 355.519531 L 593.113281 355.378906 L 592.636719 355.199219 L 592.175781 354.980469 L 591.730469 354.71875 L 591.300781 354.421875 L 590.890625 354.082031 L 590.5 353.699219 L 591.398438 352.824219 L 591.558594 352.992188 L 591.722656 353.148438 L 591.886719 353.296875 L 592.054688 353.433594 L 592.222656 353.5625 L 592.394531 353.683594 L 592.566406 353.796875 L 592.742188 353.898438 L 592.917969 353.992188 L 593.097656 354.074219 L 593.28125 354.152344 L 593.46875 354.21875 L 593.664062 354.28125 L 593.867188 354.332031 L 594.074219 354.375 L 594.285156 354.410156 L 594.503906 354.4375 L 594.730469 354.460938 L 594.960938 354.472656 L 595.199219 354.476562 L 595.546875 354.464844 L 595.878906 354.429688 L 596.195312 354.371094 L 596.5 354.289062 L 596.785156 354.183594 L 597.058594 354.050781 L 597.316406 353.898438 L 597.558594 353.722656 L 597.785156 353.523438 L 598 353.300781 L 598.191406 353.050781 L 598.367188 352.785156 L 598.519531 352.503906 L 598.65625 352.203125 L 598.765625 351.886719 L 598.859375 351.554688 L 598.929688 351.203125 L 598.980469 350.835938 L 599.011719 350.453125 L 599.023438 350.050781 L 599.015625 349.660156 L 598.984375 349.292969 L 598.9375 348.941406 L 598.871094 348.613281 L 598.785156 348.308594 L 598.679688 348.019531 L 598.558594 347.753906 L 598.414062 347.507812 L 598.253906 347.28125 L 598.074219 347.074219 L 597.882812 346.886719 L 597.675781 346.714844 L 597.457031 346.566406 L 597.226562 346.433594 L 596.980469 346.324219 L 596.71875 346.234375 L 596.449219 346.164062 L 596.160156 346.117188 L 595.863281 346.085938 L 595.546875 346.074219 L 595.234375 346.082031 L 595.085938 346.09375 L 594.9375 346.109375 L 594.792969 346.125 L 594.652344 346.148438 L 594.515625 346.171875 L 594.378906 346.203125 L 594.25 346.238281 L 594.125 346.277344 L 594 346.3125 L 593.878906 346.355469 L 593.75 346.402344 L 593.621094 346.457031 L 593.484375 346.511719 L 593.347656 346.574219 L 593.210938 346.644531 L 593.066406 346.714844 L 592.921875 346.792969 L 592.773438 346.875 L 591.625 346.875 L 591.625 338.800781 L 600 338.800781 Z M 599.773438 340 "/>
<path fill-rule="nonzero" fill="rgb(10.196078%, 10.196078%, 10.196078%)" fill-opacity="1" d="M 728.140625 338.800781 L 728.140625 355.425781 L 726.691406 355.425781 L 726.691406 340.402344 L 722.589844 342.949219 L 721.917969 341.875 L 726.890625 338.800781 Z M 728.140625 338.800781 "/>
<path fill-rule="nonzero" fill="rgb(10.196078%, 10.196078%, 10.196078%)" fill-opacity="1" d="M 733.742188 353.324219 L 733.84375 353.328125 L 733.941406 353.339844 L 734.039062 353.355469 L 734.128906 353.382812 L 734.214844 353.414062 L 734.300781 353.453125 L 734.378906 353.496094 L 734.453125 353.550781 L 734.523438 353.609375 L 734.65625 353.742188 L 734.71875 353.8125 L 734.769531 353.886719 L 734.816406 353.964844 L 734.855469 354.042969 L 734.886719 354.128906 L 734.910156 354.214844 L 734.925781 354.308594 L 734.9375 354.402344 L 734.941406 354.5 L 734.9375 354.605469 L 734.925781 354.703125 L 734.910156 354.800781 L 734.886719 354.890625 L 734.855469 354.980469 L 734.816406 355.066406 L 734.769531 355.148438 L 734.71875 355.226562 L 734.65625 355.304688 L 734.589844 355.375 L 734.523438 355.4375 L 734.453125 355.492188 L 734.378906 355.542969 L 734.300781 355.582031 L 734.214844 355.621094 L 734.128906 355.648438 L 734.039062 355.671875 L 733.941406 355.6875 L 733.84375 355.695312 L 733.742188 355.699219 L 733.640625 355.695312 L 733.546875 355.6875 L 733.453125 355.667969 L 733.363281 355.644531 L 733.277344 355.613281 L 733.195312 355.574219 L 733.113281 355.527344 L 733.035156 355.476562 L 732.960938 355.417969 L 732.890625 355.351562 L 732.824219 355.277344 L 732.765625 355.203125 L 732.710938 355.125 L 732.667969 355.046875 L 732.628906 354.964844 L 732.597656 354.875 L 732.574219 354.785156 L 732.554688 354.695312 L 732.542969 354.597656 L 732.542969 354.402344 L 732.554688 354.308594 L 732.574219 354.214844 L 732.597656 354.128906 L 732.628906 354.042969 L 732.667969 353.964844 L 732.710938 353.886719 L 732.765625 353.8125 L 732.824219 353.742188 L 732.890625 353.675781 L 732.960938 353.609375 L 733.035156 353.550781 L 733.113281 353.496094 L 733.195312 353.453125 L 733.277344 353.414062 L 733.363281 353.382812 L 733.453125 353.355469 L 733.546875 353.339844 L 733.640625 353.328125 Z M 733.742188 353.324219 "/>
<path fill-rule="nonzero" fill="rgb(10.196078%, 10.196078%, 10.196078%)" fill-opacity="1" d="M 743.214844 338.527344 L 743.71875 338.546875 L 744.195312 338.613281 L 744.648438 338.722656 L 745.074219 338.878906 L 745.480469 339.074219 L 745.855469 339.316406 L 746.207031 339.601562 L 746.535156 339.933594 L 746.839844 340.308594 L 747.117188 340.726562 L 747.367188 341.179688 L 747.59375 341.675781 L 747.792969 342.214844 L 747.964844 342.792969 L 748.109375 343.414062 L 748.230469 344.074219 L 748.320312 344.773438 L 748.386719 345.515625 L 748.429688 346.300781 L 748.441406 347.125 L 748.425781 347.945312 L 748.386719 348.726562 L 748.320312 349.464844 L 748.226562 350.164062 L 748.105469 350.824219 L 747.953125 351.445312 L 747.78125 352.027344 L 747.578125 352.566406 L 747.347656 353.066406 L 747.089844 353.527344 L 746.8125 353.9375 L 746.511719 354.308594 L 746.1875 354.632812 L 745.835938 354.917969 L 745.460938 355.15625 L 745.058594 355.351562 L 744.636719 355.503906 L 744.1875 355.613281 L 743.714844 355.679688 L 743.214844 355.699219 L 742.714844 355.679688 L 742.234375 355.613281 L 741.785156 355.503906 L 741.355469 355.351562 L 740.953125 355.15625 L 740.574219 354.917969 L 740.222656 354.632812 L 739.894531 354.308594 L 739.59375 353.9375 L 739.316406 353.527344 L 739.0625 353.066406 L 738.839844 352.5625 L 738.640625 352.023438 L 738.46875 351.441406 L 738.324219 350.820312 L 738.203125 350.15625 L 738.109375 349.453125 L 738.042969 348.710938 L 738.003906 347.925781 L 737.992188 347.101562 L 738.003906 346.277344 L 738.042969 345.492188 L 738.109375 344.75 L 738.203125 344.046875 L 738.324219 343.386719 L 738.46875 342.769531 L 738.640625 342.191406 L 738.839844 341.652344 L 739.0625 341.15625 L 739.316406 340.699219 L 739.59375 340.289062 L 739.894531 339.917969 L 740.222656 339.589844 L 740.574219 339.308594 L 740.953125 339.070312 L 741.355469 338.875 L 741.785156 338.722656 L 742.234375 338.613281 L 742.714844 338.546875 Z M 743.214844 339.726562 L 742.507812 339.800781 L 741.875 340.019531 L 741.316406 340.390625 L 740.832031 340.90625 L 740.421875 341.570312 L 740.085938 342.378906 L 739.828125 343.339844 L 739.640625 344.445312 L 739.527344 345.699219 L 739.492188 347.101562 L 739.527344 348.507812 L 739.640625 349.765625 L 739.828125 350.875 L 740.085938 351.835938 L 740.421875 352.652344 L 740.832031 353.316406 L 741.316406 353.835938 L 741.875 354.203125 L 742.507812 354.425781 L 743.214844 354.5 L 743.570312 354.484375 L 743.910156 354.429688 L 744.230469 354.339844 L 744.53125 354.210938 L 744.816406 354.050781 L 745.082031 353.851562 L 745.328125 353.617188 L 745.558594 353.347656 L 745.773438 353.042969 L 745.964844 352.699219 L 746.148438 352.320312 L 746.308594 351.902344 L 746.449219 351.441406 L 746.574219 350.945312 L 746.679688 350.40625 L 746.765625 349.828125 L 746.832031 349.210938 L 746.878906 348.554688 L 746.90625 347.859375 L 746.917969 347.125 L 746.90625 346.390625 L 746.878906 345.695312 L 746.832031 345.039062 L 746.765625 344.421875 L 746.679688 343.84375 L 746.574219 343.304688 L 746.449219 342.808594 L 746.308594 342.347656 L 746.148438 341.929688 L 745.964844 341.550781 L 745.773438 341.203125 L 745.558594 340.894531 L 745.328125 340.621094 L 745.082031 340.382812 L 744.816406 340.183594 L 744.53125 340.015625 L 744.230469 339.890625 L 743.910156 339.796875 L 743.570312 339.742188 Z M 743.214844 339.726562 "/>
<path fill-rule="nonzero" fill="rgb(10.196078%, 10.196078%, 10.196078%)" fill-opacity="1" d="M 756.964844 338.527344 L 757.46875 338.546875 L 757.945312 338.613281 L 758.398438 338.722656 L 758.824219 338.878906 L 759.230469 339.074219 L 759.605469 339.316406 L 759.957031 339.601562 L 760.285156 339.933594 L 760.589844 340.308594 L 760.867188 340.726562 L 761.117188 341.179688 L 761.34375 341.675781 L 761.542969 342.214844 L 761.714844 342.792969 L 761.859375 343.414062 L 761.980469 344.074219 L 762.070312 344.773438 L 762.136719 345.515625 L 762.179688 346.300781 L 762.191406 347.125 L 762.175781 347.945312 L 762.136719 348.726562 L 762.070312 349.464844 L 761.976562 350.164062 L 761.855469 350.824219 L 761.703125 351.445312 L 761.53125 352.027344 L 761.328125 352.566406 L 761.097656 353.066406 L 760.839844 353.527344 L 760.5625 353.9375 L 760.261719 354.308594 L 759.9375 354.632812 L 759.585938 354.917969 L 759.210938 355.15625 L 758.808594 355.351562 L 758.386719 355.503906 L 757.9375 355.613281 L 757.464844 355.679688 L 756.964844 355.699219 L 756.464844 355.679688 L 755.984375 355.613281 L 755.535156 355.503906 L 755.105469 355.351562 L 754.703125 355.15625 L 754.324219 354.917969 L 753.972656 354.632812 L 753.644531 354.308594 L 753.34375 353.9375 L 753.066406 353.527344 L 752.8125 353.066406 L 752.589844 352.5625 L 752.390625 352.023438 L 752.21875 351.441406 L 752.074219 350.820312 L 751.953125 350.15625 L 751.859375 349.453125 L 751.792969 348.710938 L 751.753906 347.925781 L 751.742188 347.101562 L 751.753906 346.277344 L 751.792969 345.492188 L 751.859375 344.75 L 751.953125 344.046875 L 752.074219 343.386719 L 752.21875 342.769531 L 752.390625 342.191406 L 752.589844 341.652344 L 752.8125 341.15625 L 753.066406 340.699219 L 753.34375 340.289062 L 753.644531 339.917969 L 753.972656 339.589844 L 754.324219 339.308594 L 754.703125 339.070312 L 755.105469 338.875 L 755.535156 338.722656 L 755.984375 338.613281 L 756.464844 338.546875 Z M 756.964844 339.726562 L 756.257812 339.800781 L 755.625 340.019531 L 755.066406 340.390625 L 754.582031 340.90625 L 754.171875 341.570312 L 753.835938 342.378906 L 753.578125 343.339844 L 753.390625 344.445312 L 753.277344 345.699219 L 753.242188 347.101562 L 753.277344 348.507812 L 753.390625 349.765625 L 753.578125 350.875 L 753.835938 351.835938 L 754.171875 352.652344 L 754.582031 353.316406 L 755.066406 353.835938 L 755.625 354.203125 L 756.257812 354.425781 L 756.964844 354.5 L 757.320312 354.484375 L 757.660156 354.429688 L 757.980469 354.339844 L 758.28125 354.210938 L 758.566406 354.050781 L 758.832031 353.851562 L 759.078125 353.617188 L 759.308594 353.347656 L 759.523438 353.042969 L 759.714844 352.699219 L 759.898438 352.320312 L 760.058594 351.902344 L 760.199219 351.441406 L 760.324219 350.945312 L 760.429688 350.40625 L 760.515625 349.828125 L 760.582031 349.210938 L 760.628906 348.554688 L 760.65625 347.859375 L 760.667969 347.125 L 760.65625 346.390625 L 760.628906 345.695312 L 760.582031 345.039062 L 760.515625 344.421875 L 760.429688 343.84375 L 760.324219 343.304688 L 760.199219 342.808594 L 760.058594 342.347656 L 759.898438 341.929688 L 759.714844 341.550781 L 759.523438 341.203125 L 759.308594 340.894531 L 759.078125 340.621094 L 758.832031 340.382812 L 758.566406 340.183594 L 758.28125 340.015625 L 757.980469 339.890625 L 757.660156 339.796875 L 757.320312 339.742188 Z M 756.964844 339.726562 "/>
</svg>
