<?xml version="1.0" encoding="UTF-8"?>
<svg xmlns="http://www.w3.org/2000/svg" xmlns:xlink="http://www.w3.org/1999/xlink" width="792pt" height="374pt" viewBox="0 0 792 374">
<defs>
<clipPath id="clip-0">
<path clip-rule="nonzero" d="M 13.449219 13.449219 L 778.550781 13.449219 L 778.550781 326.195312 L 13.449219 326.195312 Z M 13.449219 13.449219 "/>
</clipPath>
<clipPath id="clip-1">
<path clip-rule="nonzero" d="M 13.449219 310 L 778.550781 310 L 778.550781 314 L 13.449219 314 Z M 13.449219 310 "/>
</clipPath>
<clipPath id="clip-2">
<path clip-rule="nonzero" d="M 13.449219 243 L 778.550781 243 L 778.550781 247 L 13.449219 247 Z M 13.449219 243 "/>
</clipPath>
<clipPath id="clip-3">
<path clip-rule="nonzero" d="M 13.449219 176 L 778.550781 176 L 778.550781 180 L 13.449219 180 Z M 13.449219 176 "/>
</clipPath>
<clipPath id="clip-4">
<path clip-rule="nonzero" d="M 13.449219 109 L 778.550781 109 L 778.550781 113 L 13.449219 113 Z M 13.449219 109 "/>
</clipPath>
<clipPath id="clip-5">
<path clip-rule="nonzero" d="M 13.449219 42 L 778.550781 42 L 778.550781 46 L 13.449219 46 Z M 13.449219 42 "/>
</clipPath>
<clipPath id="clip-6">
<path clip-rule="nonzero" d="M 46 13.449219 L 50 13.449219 L 50 326.195312 L 46 326.195312 Z M 46 13.449219 "/>
</clipPath>
<clipPath id="clip-7">
<path clip-rule="nonzero" d="M 278 13.449219 L 282 13.449219 L 282 326.195312 L 278 326.195312 Z M 278 13.449219 "/>
</clipPath>
<clipPath id="clip-8">
<path clip-rule="nonzero" d="M 510 13.449219 L 514 13.449219 L 514 326.195312 L 510 326.195312 Z M 510 13.449219 "/>
</clipPath>
<clipPath id="clip-9">
<path clip-rule="nonzero" d="M 742 13.449219 L 746 13.449219 L 746 326.195312 L 742 326.195312 Z M 742 13.449219 "/>
</clipPath>
<clipPath id="clip-10">
<path clip-rule="nonzero" d="M 279 13.449219 L 283 13.449219 L 283 326.195312 L 279 326.195312 Z M 279 13.449219 "/>
</clipPath>
</defs>
<rect x="-79.2" y="-37.4" width="950.4" height="448.8" fill="rgb(100%, 100%, 100%)" fill-opacity="1"/>
<rect x="-79.2" y="-37.4" width="950.4" height="448.8" fill="rgb(95.294118%, 95.294118%, 95.294118%)" fill-opacity="1"/>
<path fill="none" stroke-width="2.618947" stroke-linecap="round" stroke-linejoin="round" stroke="rgb(95.294118%, 95.294118%, 95.294118%)" stroke-opacity="1" stroke-miterlimit="10" d="M 0 374 L 792 374 L 792 0 L 0 0 Z M 0 374 "/>
<g clip-path="url(#clip-0)">
<path fill-rule="nonzero" fill="rgb(95.294118%, 95.294118%, 95.294118%)" fill-opacity="1" stroke-width="2.618947" stroke-linecap="round" stroke-linejoin="round" stroke="rgb(95.294118%, 95.294118%, 95.294118%)" stroke-opacity="1" stroke-miterlimit="10" d="M 13.449219 326.195312 L 778.550781 326.195312 L 778.550781 13.449219 L 13.449219 13.449219 Z M 13.449219 326.195312 "/>
</g>
<g clip-path="url(#clip-1)">
<path fill="none" stroke-width="2.618947" stroke-linecap="butt" stroke-linejoin="round" stroke="rgb(92.156863%, 92.156863%, 92.156863%)" stroke-opacity="1" stroke-miterlimit="10" d="M 13.449219 311.980469 L 778.550781 311.980469 "/>
</g>
<g clip-path="url(#clip-2)">
<path fill="none" stroke-width="2.618947" stroke-linecap="butt" stroke-linejoin="round" stroke="rgb(92.156863%, 92.156863%, 92.156863%)" stroke-opacity="1" stroke-miterlimit="10" d="M 13.449219 244.925781 L 778.550781 244.925781 "/>
</g>
<g clip-path="url(#clip-3)">
<path fill="none" stroke-width="2.618947" stroke-linecap="butt" stroke-linejoin="round" stroke="rgb(92.156863%, 92.156863%, 92.156863%)" stroke-opacity="1" stroke-miterlimit="10" d="M 13.449219 177.871094 L 778.550781 177.871094 "/>
</g>
<g clip-path="url(#clip-4)">
<path fill="none" stroke-width="2.618947" stroke-linecap="butt" stroke-linejoin="round" stroke="rgb(92.156863%, 92.156863%, 92.156863%)" stroke-opacity="1" stroke-miterlimit="10" d="M 13.449219 110.8125 L 778.550781 110.8125 "/>
</g>
<g clip-path="url(#clip-5)">
<path fill="none" stroke-width="2.618947" stroke-linecap="butt" stroke-linejoin="round" stroke="rgb(92.156863%, 92.156863%, 92.156863%)" stroke-opacity="1" stroke-miterlimit="10" d="M 13.449219 43.757812 L 778.550781 43.757812 "/>
</g>
<g clip-path="url(#clip-6)">
<path fill="none" stroke-width="2.618947" stroke-linecap="butt" stroke-linejoin="round" stroke="rgb(92.156863%, 92.156863%, 92.156863%)" stroke-opacity="1" stroke-miterlimit="10" d="M 48.226562 326.195312 L 48.226562 13.449219 "/>
</g>
<g clip-path="url(#clip-7)">
<path fill="none" stroke-width="2.618947" stroke-linecap="butt" stroke-linejoin="round" stroke="rgb(92.156863%, 92.156863%, 92.156863%)" stroke-opacity="1" stroke-miterlimit="10" d="M 280.074219 326.195312 L 280.074219 13.449219 "/>
</g>
<g clip-path="url(#clip-8)">
<path fill="none" stroke-width="2.618947" stroke-linecap="butt" stroke-linejoin="round" stroke="rgb(92.156863%, 92.156863%, 92.156863%)" stroke-opacity="1" stroke-miterlimit="10" d="M 511.925781 326.195312 L 511.925781 13.449219 "/>
</g>
<g clip-path="url(#clip-9)">
<path fill="none" stroke-width="2.618947" stroke-linecap="butt" stroke-linejoin="round" stroke="rgb(92.156863%, 92.156863%, 92.156863%)" stroke-opacity="1" stroke-miterlimit="10" d="M 743.773438 326.195312 L 743.773438 13.449219 "/>
</g>
<path fill-rule="nonzero" fill="rgb(56.078431%, 16.470588%, 26.27451%)" fill-opacity="0.698039" d="M 132.171875 311.980469 L 156.15625 311.980469 L 156.15625 310.640625 L 132.171875 310.640625 Z M 132.171875 311.980469 "/>
<path fill-rule="nonzero" fill="rgb(56.078431%, 16.470588%, 26.27451%)" fill-opacity="0.698039" d="M 156.15625 311.980469 L 180.140625 311.980469 L 180.140625 298.570312 L 156.15625 298.570312 Z M 156.15625 311.980469 "/>
<path fill-rule="nonzero" fill="rgb(56.078431%, 16.470588%, 26.27451%)" fill-opacity="0.698039" d="M 180.140625 311.980469 L 204.125 311.980469 L 204.125 261.019531 L 180.140625 261.019531 Z M 180.140625 311.980469 "/>
<path fill-rule="nonzero" fill="rgb(56.078431%, 16.470588%, 26.27451%)" fill-opacity="0.698039" d="M 204.125 311.980469 L 228.109375 311.980469 L 228.109375 200.667969 L 204.125 200.667969 Z M 204.125 311.980469 "/>
<path fill-rule="nonzero" fill="rgb(56.078431%, 16.470588%, 26.27451%)" fill-opacity="0.698039" d="M 228.109375 311.980469 L 252.09375 311.980469 L 252.09375 143 L 228.109375 143 Z M 228.109375 311.980469 "/>
<path fill-rule="nonzero" fill="rgb(56.078431%, 16.470588%, 26.27451%)" fill-opacity="0.698039" d="M 252.09375 311.980469 L 276.078125 311.980469 L 276.078125 39.734375 L 252.09375 39.734375 Z M 252.09375 311.980469 "/>
<path fill-rule="nonzero" fill="rgb(56.078431%, 16.470588%, 26.27451%)" fill-opacity="0.698039" d="M 276.078125 311.980469 L 300.0625 311.980469 L 300.0625 27.664062 L 276.078125 27.664062 Z M 276.078125 311.980469 "/>
<path fill-rule="nonzero" fill="rgb(56.078431%, 16.470588%, 26.27451%)" fill-opacity="0.698039" d="M 300.0625 311.980469 L 324.046875 311.980469 L 324.046875 101.425781 L 300.0625 101.425781 Z M 300.0625 311.980469 "/>
<path fill-rule="nonzero" fill="rgb(56.078431%, 16.470588%, 26.27451%)" fill-opacity="0.698039" d="M 324.046875 311.980469 L 348.03125 311.980469 L 348.03125 188.597656 L 324.046875 188.597656 Z M 324.046875 311.980469 "/>
<path fill-rule="nonzero" fill="rgb(56.078431%, 16.470588%, 26.27451%)" fill-opacity="0.698039" d="M 348.03125 311.980469 L 372.015625 311.980469 L 372.015625 246.265625 L 348.03125 246.265625 Z M 348.03125 311.980469 "/>
<path fill-rule="nonzero" fill="rgb(56.078431%, 16.470588%, 26.27451%)" fill-opacity="0.698039" d="M 372.015625 311.980469 L 396 311.980469 L 396 281.136719 L 372.015625 281.136719 Z M 372.015625 311.980469 "/>
<path fill-rule="nonzero" fill="rgb(56.078431%, 16.470588%, 26.27451%)" fill-opacity="0.698039" d="M 396 311.980469 L 419.984375 311.980469 L 419.984375 305.273438 L 396 305.273438 Z M 396 311.980469 "/>
<path fill-rule="nonzero" fill="rgb(56.078431%, 16.470588%, 26.27451%)" fill-opacity="0.698039" d="M 419.984375 311.980469 L 443.96875 311.980469 L 443.96875 310.640625 L 419.984375 310.640625 Z M 419.984375 311.980469 "/>
<g clip-path="url(#clip-10)">
<path fill="none" stroke-width="2.560748" stroke-linecap="butt" stroke-linejoin="round" stroke="rgb(56.078431%, 16.470588%, 26.27451%)" stroke-opacity="1" stroke-dasharray="10.242992 10.242992" stroke-miterlimit="10" d="M 280.824219 326.195312 L 280.824219 13.449219 "/>
</g>
<path fill-rule="nonzero" fill="rgb(10.196078%, 10.196078%, 10.196078%)" fill-opacity="1" d="M 48.226562 338.527344 L 48.730469 338.546875 L 49.207031 338.613281 L 49.660156 338.722656 L 50.085938 338.878906 L 50.488281 339.074219 L 50.867188 339.316406 L 51.21875 339.601562 L 51.546875 339.933594 L 51.847656 340.308594 L 52.125 340.726562 L 52.378906 341.179688 L 52.605469 341.675781 L 52.800781 342.214844 L 52.976562 342.792969 L 53.121094 343.414062 L 53.238281 344.074219 L 53.332031 344.773438 L 53.398438 345.515625 L 53.4375 346.300781 L 53.453125 347.125 L 53.4375 347.945312 L 53.398438 348.726562 L 53.332031 349.464844 L 53.234375 350.164062 L 53.113281 350.824219 L 52.964844 351.445312 L 52.789062 352.027344 L 52.585938 352.566406 L 52.359375 353.066406 L 52.101562 353.527344 L 51.824219 353.9375 L 51.523438 354.308594 L 51.195312 354.632812 L 50.847656 354.917969 L 50.46875 355.15625 L 50.070312 355.351562 L 49.648438 355.503906 L 49.199219 355.613281 L 48.726562 355.679688 L 48.226562 355.699219 L 47.722656 355.679688 L 47.246094 355.613281 L 46.792969 355.503906 L 46.367188 355.351562 L 45.964844 355.15625 L 45.585938 354.917969 L 45.234375 354.632812 L 44.90625 354.308594 L 44.605469 353.9375 L 44.328125 353.527344 L 44.074219 353.066406 L 43.851562 352.5625 L 43.652344 352.023438 L 43.480469 351.441406 L 43.332031 350.820312 L 43.214844 350.15625 L 43.121094 349.453125 L 43.054688 348.710938 L 43.015625 347.925781 L 43 347.101562 L 43.015625 346.277344 L 43.054688 345.492188 L 43.121094 344.75 L 43.214844 344.046875 L 43.332031 343.386719 L 43.480469 342.769531 L 43.652344 342.191406 L 43.851562 341.652344 L 44.074219 341.15625 L 44.328125 340.699219 L 44.605469 340.289062 L 44.90625 339.917969 L 45.234375 339.589844 L 45.585938 339.308594 L 45.964844 339.070312 L 46.367188 338.875 L 46.792969 338.722656 L 47.246094 338.613281 L 47.722656 338.546875 Z M 48.226562 339.726562 L 47.519531 339.800781 L 46.886719 340.019531 L 46.328125 340.390625 L 45.84375 340.90625 L 45.433594 341.570312 L 45.097656 342.378906 L 44.835938 343.339844 L 44.652344 344.445312 L 44.539062 345.699219 L 44.5 347.101562 L 44.539062 348.507812 L 44.652344 349.765625 L 44.835938 350.875 L 45.097656 351.835938 L 45.433594 352.652344 L 45.84375 353.316406 L 46.328125 353.835938 L 46.886719 354.203125 L 47.519531 354.425781 L 48.226562 354.5 L 48.582031 354.484375 L 48.921875 354.429688 L 49.242188 354.339844 L 49.542969 354.210938 L 49.828125 354.050781 L 50.09375 353.851562 L 50.339844 353.617188 L 50.570312 353.347656 L 50.78125 353.042969 L 50.976562 352.699219 L 51.15625 352.320312 L 51.320312 351.902344 L 51.460938 351.441406 L 51.585938 350.945312 L 51.6875 350.40625 L 51.773438 349.828125 L 51.839844 349.210938 L 51.890625 348.554688 L 51.917969 347.859375 L 51.925781 347.125 L 51.917969 346.390625 L 51.890625 345.695312 L 51.839844 345.039062 L 51.773438 344.421875 L 51.6875 343.84375 L 51.585938 343.304688 L 51.460938 342.808594 L 51.320312 342.347656 L 51.15625 341.929688 L 50.976562 341.550781 L 50.78125 341.203125 L 50.570312 340.894531 L 50.339844 340.621094 L 50.09375 340.382812 L 49.828125 340.183594 L 49.542969 340.015625 L 49.242188 339.890625 L 48.921875 339.796875 L 48.582031 339.742188 Z M 48.226562 339.726562 "/>
<path fill-rule="nonzero" fill="rgb(10.196078%, 10.196078%, 10.196078%)" fill-opacity="1" d="M 277.238281 340 L 270.488281 340 L 270.488281 345.675781 L 270.765625 345.527344 L 271.042969 345.394531 L 271.320312 345.28125 L 271.605469 345.179688 L 271.886719 345.09375 L 272.175781 345.023438 L 272.460938 344.96875 L 272.753906 344.929688 L 273.042969 344.90625 L 273.339844 344.902344 L 273.757812 344.914062 L 274.164062 344.957031 L 274.546875 345.027344 L 274.914062 345.125 L 275.261719 345.25 L 275.59375 345.40625 L 275.90625 345.585938 L 276.203125 345.796875 L 276.480469 346.035156 L 276.738281 346.300781 L 276.980469 346.585938 L 277.195312 346.890625 L 277.386719 347.21875 L 277.554688 347.5625 L 277.695312 347.933594 L 277.808594 348.320312 L 277.898438 348.726562 L 277.960938 349.15625 L 278 349.605469 L 278.011719 350.074219 L 278.007812 350.398438 L 277.984375 350.710938 L 277.953125 351.019531 L 277.90625 351.324219 L 277.84375 351.621094 L 277.769531 351.910156 L 277.683594 352.191406 L 277.582031 352.46875 L 277.464844 352.738281 L 277.339844 353 L 277.203125 353.25 L 277.054688 353.488281 L 276.894531 353.714844 L 276.726562 353.933594 L 276.542969 354.136719 L 276.351562 354.332031 L 276.144531 354.515625 L 275.929688 354.6875 L 275.703125 354.851562 L 275.464844 355 L 275.21875 355.132812 L 274.96875 355.253906 L 274.707031 355.359375 L 274.4375 355.449219 L 274.164062 355.527344 L 273.878906 355.589844 L 273.585938 355.636719 L 273.289062 355.671875 L 272.980469 355.695312 L 272.664062 355.699219 L 272.117188 355.679688 L 271.585938 355.621094 L 271.074219 355.519531 L 270.578125 355.378906 L 270.101562 355.199219 L 269.640625 354.980469 L 269.195312 354.71875 L 268.765625 354.421875 L 268.355469 354.082031 L 267.964844 353.699219 L 268.863281 352.824219 L 269.023438 352.992188 L 269.1875 353.148438 L 269.351562 353.296875 L 269.519531 353.433594 L 269.6875 353.5625 L 269.859375 353.683594 L 270.03125 353.796875 L 270.207031 353.898438 L 270.382812 353.992188 L 270.5625 354.074219 L 270.746094 354.152344 L 270.933594 354.21875 L 271.128906 354.28125 L 271.332031 354.332031 L 271.539062 354.375 L 271.75 354.410156 L 271.96875 354.4375 L 272.195312 354.460938 L 272.425781 354.472656 L 272.664062 354.476562 L 273.011719 354.464844 L 273.34375 354.429688 L 273.660156 354.371094 L 273.964844 354.289062 L 274.25 354.183594 L 274.523438 354.050781 L 274.78125 353.898438 L 275.023438 353.722656 L 275.25 353.523438 L 275.464844 353.300781 L 275.65625 353.050781 L 275.832031 352.785156 L 275.984375 352.503906 L 276.117188 352.203125 L 276.230469 351.886719 L 276.324219 351.554688 L 276.394531 351.203125 L 276.445312 350.835938 L 276.476562 350.453125 L 276.488281 350.050781 L 276.480469 349.660156 L 276.449219 349.292969 L 276.402344 348.941406 L 276.335938 348.613281 L 276.25 348.308594 L 276.144531 348.019531 L 276.023438 347.753906 L 275.878906 347.507812 L 275.71875 347.28125 L 275.539062 347.074219 L 275.347656 346.886719 L 275.140625 346.714844 L 274.921875 346.566406 L 274.691406 346.433594 L 274.445312 346.324219 L 274.183594 346.234375 L 273.914062 346.164062 L 273.625 346.117188 L 273.328125 346.085938 L 273.011719 346.074219 L 272.699219 346.082031 L 272.550781 346.09375 L 272.402344 346.109375 L 272.257812 346.125 L 272.117188 346.148438 L 271.980469 346.171875 L 271.84375 346.203125 L 271.714844 346.238281 L 271.589844 346.277344 L 271.464844 346.3125 L 271.34375 346.355469 L 271.214844 346.402344 L 271.085938 346.457031 L 270.949219 346.511719 L 270.8125 346.574219 L 270.675781 346.644531 L 270.53125 346.714844 L 270.386719 346.792969 L 270.238281 346.875 L 269.089844 346.875 L 269.089844 338.800781 L 277.464844 338.800781 Z M 277.238281 340 "/>
<path fill-rule="nonzero" fill="rgb(10.196078%, 10.196078%, 10.196078%)" fill-opacity="1" d="M 286.164062 338.527344 L 286.664062 338.546875 L 287.144531 338.613281 L 287.59375 338.722656 L 288.023438 338.878906 L 288.425781 339.074219 L 288.804688 339.316406 L 289.15625 339.601562 L 289.484375 339.933594 L 289.785156 340.308594 L 290.0625 340.726562 L 290.316406 341.179688 L 290.539062 341.675781 L 290.738281 342.214844 L 290.910156 342.792969 L 291.058594 343.414062 L 291.175781 344.074219 L 291.269531 344.773438 L 291.335938 345.515625 L 291.375 346.300781 L 291.386719 347.125 L 291.375 347.945312 L 291.335938 348.726562 L 291.265625 349.464844 L 291.171875 350.164062 L 291.050781 350.824219 L 290.902344 351.445312 L 290.726562 352.027344 L 290.523438 352.566406 L 290.292969 353.066406 L 290.039062 353.527344 L 289.761719 353.9375 L 289.460938 354.308594 L 289.132812 354.632812 L 288.78125 354.917969 L 288.40625 355.15625 L 288.007812 355.351562 L 287.582031 355.503906 L 287.132812 355.613281 L 286.660156 355.679688 L 286.164062 355.699219 L 285.660156 355.679688 L 285.183594 355.613281 L 284.730469 355.503906 L 284.304688 355.351562 L 283.902344 355.15625 L 283.523438 354.917969 L 283.171875 354.632812 L 282.84375 354.308594 L 282.539062 353.9375 L 282.261719 353.527344 L 282.011719 353.066406 L 281.785156 352.5625 L 281.585938 352.023438 L 281.414062 351.441406 L 281.269531 350.820312 L 281.148438 350.15625 L 281.058594 349.453125 L 280.992188 348.710938 L 280.953125 347.925781 L 280.9375 347.101562 L 280.953125 346.277344 L 280.992188 345.492188 L 281.058594 344.75 L 281.148438 344.046875 L 281.269531 343.386719 L 281.414062 342.769531 L 281.585938 342.191406 L 281.785156 341.652344 L 282.011719 341.15625 L 282.261719 340.699219 L 282.539062 340.289062 L 282.84375 339.917969 L 283.171875 339.589844 L 283.523438 339.308594 L 283.902344 339.070312 L 284.304688 338.875 L 284.730469 338.722656 L 285.183594 338.613281 L 285.660156 338.546875 Z M 286.164062 339.726562 L 285.457031 339.800781 L 284.820312 340.019531 L 284.261719 340.390625 L 283.777344 340.90625 L 283.371094 341.570312 L 283.035156 342.378906 L 282.773438 343.339844 L 282.585938 344.445312 L 282.476562 345.699219 L 282.4375 347.101562 L 282.476562 348.507812 L 282.585938 349.765625 L 282.773438 350.875 L 283.035156 351.835938 L 283.371094 352.652344 L 283.777344 353.316406 L 284.261719 353.835938 L 284.820312 354.203125 L 285.457031 354.425781 L 286.164062 354.5 L 286.519531 354.484375 L 286.855469 354.429688 L 287.175781 354.339844 L 287.480469 354.210938 L 287.761719 354.050781 L 288.027344 353.851562 L 288.277344 353.617188 L 288.507812 353.347656 L 288.71875 353.042969 L 288.914062 352.699219 L 289.09375 352.320312 L 289.253906 351.902344 L 289.398438 351.441406 L 289.519531 350.945312 L 289.625 350.40625 L 289.710938 349.828125 L 289.777344 349.210938 L 289.824219 348.554688 L 289.855469 347.859375 L 289.863281 347.125 L 289.855469 346.390625 L 289.824219 345.695312 L 289.777344 345.039062 L 289.710938 344.421875 L 289.625 343.84375 L 289.519531 343.304688 L 289.398438 342.808594 L 289.253906 342.347656 L 289.09375 341.929688 L 288.914062 341.550781 L 288.71875 341.203125 L 288.507812 340.894531 L 288.277344 340.621094 L 288.027344 340.382812 L 287.761719 340.183594 L 287.480469 340.015625 L 287.175781 339.890625 L 286.855469 339.796875 L 286.519531 339.742188 Z M 286.164062 339.726562 "/>
<path fill-rule="nonzero" fill="rgb(10.196078%, 10.196078%, 10.196078%)" fill-opacity="1" d="M 500.3125 338.800781 L 500.3125 355.425781 L 498.863281 355.425781 L 498.863281 340.402344 L 494.761719 342.949219 L 494.085938 341.875 L 499.0625 338.800781 Z M 500.3125 338.800781 "/>
<path fill-rule="nonzero" fill="rgb(10.196078%, 10.196078%, 10.196078%)" fill-opacity="1" d="M 510.210938 338.527344 L 510.714844 338.546875 L 511.191406 338.613281 L 511.644531 338.722656 L 512.070312 338.878906 L 512.472656 339.074219 L 512.851562 339.316406 L 513.203125 339.601562 L 513.53125 339.933594 L 513.835938 340.308594 L 514.113281 340.726562 L 514.363281 341.179688 L 514.589844 341.675781 L 514.789062 342.214844 L 514.960938 342.792969 L 515.105469 343.414062 L 515.226562 344.074219 L 515.316406 344.773438 L 515.382812 345.515625 L 515.421875 346.300781 L 515.4375 347.125 L 515.421875 347.945312 L 515.382812 348.726562 L 515.316406 349.464844 L 515.222656 350.164062 L 515.097656 350.824219 L 514.949219 351.445312 L 514.773438 352.027344 L 514.574219 352.566406 L 514.34375 353.066406 L 514.085938 353.527344 L 513.808594 353.9375 L 513.507812 354.308594 L 513.179688 354.632812 L 512.832031 354.917969 L 512.457031 355.15625 L 512.054688 355.351562 L 511.632812 355.503906 L 511.183594 355.613281 L 510.710938 355.679688 L 510.210938 355.699219 L 509.710938 355.679688 L 509.230469 355.613281 L 508.78125 355.503906 L 508.351562 355.351562 L 507.949219 355.15625 L 507.570312 354.917969 L 507.21875 354.632812 L 506.890625 354.308594 L 506.589844 353.9375 L 506.3125 353.527344 L 506.058594 353.066406 L 505.835938 352.5625 L 505.636719 352.023438 L 505.464844 351.441406 L 505.316406 350.820312 L 505.199219 350.15625 L 505.105469 349.453125 L 505.039062 348.710938 L 505 347.925781 L 504.988281 347.101562 L 505 346.277344 L 505.039062 345.492188 L 505.105469 344.75 L 505.199219 344.046875 L 505.316406 343.386719 L 505.464844 342.769531 L 505.636719 342.191406 L 505.835938 341.652344 L 506.058594 341.15625 L 506.3125 340.699219 L 506.589844 340.289062 L 506.890625 339.917969 L 507.21875 339.589844 L 507.570312 339.308594 L 507.949219 339.070312 L 508.351562 338.875 L 508.78125 338.722656 L 509.230469 338.613281 L 509.710938 338.546875 Z M 510.210938 339.726562 L 509.503906 339.800781 L 508.871094 340.019531 L 508.3125 340.390625 L 507.828125 340.90625 L 507.417969 341.570312 L 507.082031 342.378906 L 506.820312 343.339844 L 506.636719 344.445312 L 506.523438 345.699219 L 506.488281 347.101562 L 506.523438 348.507812 L 506.636719 349.765625 L 506.820312 350.875 L 507.082031 351.835938 L 507.417969 352.652344 L 507.828125 353.316406 L 508.3125 353.835938 L 508.871094 354.203125 L 509.503906 354.425781 L 510.210938 354.5 L 510.566406 354.484375 L 510.90625 354.429688 L 511.226562 354.339844 L 511.527344 354.210938 L 511.8125 354.050781 L 512.078125 353.851562 L 512.324219 353.617188 L 512.554688 353.347656 L 512.769531 353.042969 L 512.960938 352.699219 L 513.140625 352.320312 L 513.304688 351.902344 L 513.445312 351.441406 L 513.570312 350.945312 L 513.675781 350.40625 L 513.761719 349.828125 L 513.828125 349.210938 L 513.875 348.554688 L 513.902344 347.859375 L 513.910156 347.125 L 513.902344 346.390625 L 513.875 345.695312 L 513.828125 345.039062 L 513.761719 344.421875 L 513.675781 343.84375 L 513.570312 343.304688 L 513.445312 342.808594 L 513.304688 342.347656 L 513.140625 341.929688 L 512.960938 341.550781 L 512.769531 341.203125 L 512.554688 340.894531 L 512.324219 340.621094 L 512.078125 340.382812 L 511.8125 340.183594 L 511.527344 340.015625 L 511.226562 339.890625 L 510.90625 339.796875 L 510.566406 339.742188 Z M 510.210938 339.726562 "/>
<path fill-rule="nonzero" fill="rgb(10.196078%, 10.196078%, 10.196078%)" fill-opacity="1" d="M 523.960938 338.527344 L 524.464844 338.546875 L 524.941406 338.613281 L 525.394531 338.722656 L 525.820312 338.878906 L 526.222656 339.074219 L 526.601562 339.316406 L 526.953125 339.601562 L 527.28125 339.933594 L 527.585938 340.308594 L 527.863281 340.726562 L 528.113281 341.179688 L 528.339844 341.675781 L 528.539062 342.214844 L 528.710938 342.792969 L 528.855469 343.414062 L 528.976562 344.074219 L 529.066406 344.773438 L 529.132812 345.515625 L 529.171875 346.300781 L 529.1875 347.125 L 529.171875 347.945312 L 529.132812 348.726562 L 529.066406 349.464844 L 528.972656 350.164062 L 528.847656 350.824219 L 528.699219 351.445312 L 528.523438 352.027344 L 528.324219 352.566406 L 528.09375 353.066406 L 527.835938 353.527344 L 527.558594 353.9375 L 527.257812 354.308594 L 526.929688 354.632812 L 526.582031 354.917969 L 526.207031 355.15625 L 525.804688 355.351562 L 525.382812 355.503906 L 524.933594 355.613281 L 524.460938 355.679688 L 523.960938 355.699219 L 523.460938 355.679688 L 522.980469 355.613281 L 522.53125 355.503906 L 522.101562 355.351562 L 521.699219 355.15625 L 521.320312 354.917969 L 520.96875 354.632812 L 520.640625 354.308594 L 520.339844 353.9375 L 520.0625 353.527344 L 519.808594 353.066406 L 519.585938 352.5625 L 519.386719 352.023438 L 519.214844 351.441406 L 519.066406 350.820312 L 518.949219 350.15625 L 518.855469 349.453125 L 518.789062 348.710938 L 518.75 347.925781 L 518.738281 347.101562 L 518.75 346.277344 L 518.789062 345.492188 L 518.855469 344.75 L 518.949219 344.046875 L 519.066406 343.386719 L 519.214844 342.769531 L 519.386719 342.191406 L 519.585938 341.652344 L 519.808594 341.15625 L 520.0625 340.699219 L 520.339844 340.289062 L 520.640625 339.917969 L 520.96875 339.589844 L 521.320312 339.308594 L 521.699219 339.070312 L 522.101562 338.875 L 522.53125 338.722656 L 522.980469 338.613281 L 523.460938 338.546875 Z M 523.960938 339.726562 L 523.253906 339.800781 L 522.621094 340.019531 L 522.0625 340.390625 L 521.578125 340.90625 L 521.167969 341.570312 L 520.832031 342.378906 L 520.570312 343.339844 L 520.386719 344.445312 L 520.273438 345.699219 L 520.238281 347.101562 L 520.273438 348.507812 L 520.386719 349.765625 L 520.570312 350.875 L 520.832031 351.835938 L 521.167969 352.652344 L 521.578125 353.316406 L 522.0625 353.835938 L 522.621094 354.203125 L 523.253906 354.425781 L 523.960938 354.5 L 524.316406 354.484375 L 524.65625 354.429688 L 524.976562 354.339844 L 525.277344 354.210938 L 525.5625 354.050781 L 525.828125 353.851562 L 526.074219 353.617188 L 526.304688 353.347656 L 526.519531 353.042969 L 526.710938 352.699219 L 526.890625 352.320312 L 527.054688 351.902344 L 527.195312 351.441406 L 527.320312 350.945312 L 527.425781 350.40625 L 527.511719 349.828125 L 527.578125 349.210938 L 527.625 348.554688 L 527.652344 347.859375 L 527.660156 347.125 L 527.652344 346.390625 L 527.625 345.695312 L 527.578125 345.039062 L 527.511719 344.421875 L 527.425781 343.84375 L 527.320312 343.304688 L 527.195312 342.808594 L 527.054688 342.347656 L 526.890625 341.929688 L 526.710938 341.550781 L 526.519531 341.203125 L 526.304688 340.894531 L 526.074219 340.621094 L 525.828125 340.382812 L 525.5625 340.183594 L 525.277344 340.015625 L 524.976562 339.890625 L 524.65625 339.796875 L 524.316406 339.742188 Z M 523.960938 339.726562 "/>
<path fill-rule="nonzero" fill="rgb(10.196078%, 10.196078%, 10.196078%)" fill-opacity="1" d="M 732.949219 338.800781 L 732.949219 355.425781 L 731.5 355.425781 L 731.5 340.402344 L 727.398438 342.949219 L 726.722656 341.875 L 731.699219 338.800781 Z M 732.949219 338.800781 "/>
<path fill-rule="nonzero" fill="rgb(10.196078%, 10.196078%, 10.196078%)" fill-opacity="1" d="M 746.097656 340 L 739.347656 340 L 739.347656 345.675781 L 739.625 345.527344 L 739.902344 345.394531 L 740.183594 345.28125 L 740.464844 345.179688 L 740.75 345.09375 L 741.035156 345.023438 L 741.320312 344.96875 L 741.613281 344.929688 L 741.902344 344.90625 L 742.199219 344.902344 L 742.617188 344.914062 L 743.023438 344.957031 L 743.40625 345.027344 L 743.773438 345.125 L 744.125 345.25 L 744.453125 345.40625 L 744.765625 345.585938 L 745.0625 345.796875 L 745.339844 346.035156 L 745.597656 346.300781 L 745.839844 346.585938 L 746.058594 346.890625 L 746.25 347.21875 L 746.414062 347.5625 L 746.554688 347.933594 L 746.667969 348.320312 L 746.757812 348.726562 L 746.820312 349.15625 L 746.859375 349.605469 L 746.875 350.074219 L 746.867188 350.398438 L 746.847656 350.710938 L 746.8125 351.019531 L 746.765625 351.324219 L 746.703125 351.621094 L 746.628906 351.910156 L 746.542969 352.191406 L 746.441406 352.46875 L 746.328125 352.738281 L 746.199219 353 L 746.0625 353.25 L 745.914062 353.488281 L 745.757812 353.714844 L 745.585938 353.933594 L 745.40625 354.136719 L 745.210938 354.332031 L 745.007812 354.515625 L 744.789062 354.6875 L 744.5625 354.851562 L 744.324219 355 L 744.078125 355.132812 L 743.828125 355.253906 L 743.566406 355.359375 L 743.300781 355.449219 L 743.023438 355.527344 L 742.738281 355.589844 L 742.445312 355.636719 L 742.148438 355.671875 L 741.839844 355.695312 L 741.523438 355.699219 L 740.976562 355.679688 L 740.445312 355.621094 L 739.933594 355.519531 L 739.4375 355.378906 L 738.960938 355.199219 L 738.5 354.980469 L 738.054688 354.71875 L 737.628906 354.421875 L 737.214844 354.082031 L 736.824219 353.699219 L 737.722656 352.824219 L 737.882812 352.992188 L 738.046875 353.148438 L 738.210938 353.296875 L 738.378906 353.433594 L 738.546875 353.5625 L 738.71875 353.683594 L 738.890625 353.796875 L 739.066406 353.898438 L 739.242188 353.992188 L 739.421875 354.074219 L 739.605469 354.152344 L 739.796875 354.21875 L 739.988281 354.28125 L 740.191406 354.332031 L 740.398438 354.375 L 740.609375 354.410156 L 740.832031 354.4375 L 741.054688 354.460938 L 741.285156 354.472656 L 741.523438 354.476562 L 741.871094 354.464844 L 742.203125 354.429688 L 742.519531 354.371094 L 742.824219 354.289062 L 743.109375 354.183594 L 743.382812 354.050781 L 743.640625 353.898438 L 743.882812 353.722656 L 744.109375 353.523438 L 744.324219 353.300781 L 744.519531 353.050781 L 744.691406 352.785156 L 744.847656 352.503906 L 744.980469 352.203125 L 745.09375 351.886719 L 745.183594 351.554688 L 745.257812 351.203125 L 745.308594 350.835938 L 745.335938 350.453125 L 745.347656 350.050781 L 745.339844 349.660156 L 745.308594 349.292969 L 745.261719 348.941406 L 745.195312 348.613281 L 745.109375 348.308594 L 745.007812 348.019531 L 744.882812 347.753906 L 744.738281 347.507812 L 744.578125 347.28125 L 744.398438 347.074219 L 744.207031 346.886719 L 744 346.714844 L 743.78125 346.566406 L 743.550781 346.433594 L 743.304688 346.324219 L 743.046875 346.234375 L 742.773438 346.164062 L 742.484375 346.117188 L 742.1875 346.085938 L 741.875 346.074219 L 741.714844 346.078125 L 741.558594 346.082031 L 741.410156 346.09375 L 741.261719 346.109375 L 741.117188 346.125 L 740.976562 346.148438 L 740.839844 346.171875 L 740.707031 346.203125 L 740.574219 346.238281 L 740.449219 346.277344 L 740.328125 346.3125 L 740.203125 346.355469 L 740.074219 346.402344 L 739.945312 346.457031 L 739.8125 346.511719 L 739.675781 346.574219 L 739.535156 346.644531 L 739.390625 346.714844 L 739.246094 346.792969 L 739.097656 346.875 L 737.949219 346.875 L 737.949219 338.800781 L 746.324219 338.800781 Z M 746.097656 340 "/>
<path fill-rule="nonzero" fill="rgb(10.196078%, 10.196078%, 10.196078%)" fill-opacity="1" d="M 755.023438 338.527344 L 755.527344 338.546875 L 756.003906 338.613281 L 756.457031 338.722656 L 756.882812 338.878906 L 757.285156 339.074219 L 757.664062 339.316406 L 758.015625 339.601562 L 758.34375 339.933594 L 758.644531 340.308594 L 758.921875 340.726562 L 759.175781 341.179688 L 759.398438 341.675781 L 759.597656 342.214844 L 759.769531 342.792969 L 759.917969 343.414062 L 760.035156 344.074219 L 760.128906 344.773438 L 760.195312 345.515625 L 760.234375 346.300781 L 760.25 347.125 L 760.234375 347.945312 L 760.195312 348.726562 L 760.125 349.464844 L 760.03125 350.164062 L 759.910156 350.824219 L 759.761719 351.445312 L 759.585938 352.027344 L 759.382812 352.566406 L 759.15625 353.066406 L 758.898438 353.527344 L 758.621094 353.9375 L 758.320312 354.308594 L 757.992188 354.632812 L 757.640625 354.917969 L 757.265625 355.15625 L 756.867188 355.351562 L 756.441406 355.503906 L 755.992188 355.613281 L 755.519531 355.679688 L 755.023438 355.699219 L 754.519531 355.679688 L 754.042969 355.613281 L 753.589844 355.503906 L 753.164062 355.351562 L 752.761719 355.15625 L 752.382812 354.917969 L 752.03125 354.632812 L 751.703125 354.308594 L 751.402344 353.9375 L 751.125 353.527344 L 750.871094 353.066406 L 750.644531 352.5625 L 750.449219 352.023438 L 750.273438 351.441406 L 750.128906 350.820312 L 750.011719 350.15625 L 749.917969 349.453125 L 749.851562 348.710938 L 749.8125 347.925781 L 749.796875 347.101562 L 749.8125 346.277344 L 749.851562 345.492188 L 749.917969 344.75 L 750.011719 344.046875 L 750.128906 343.386719 L 750.273438 342.769531 L 750.449219 342.191406 L 750.644531 341.652344 L 750.871094 341.15625 L 751.125 340.699219 L 751.402344 340.289062 L 751.703125 339.917969 L 752.03125 339.589844 L 752.382812 339.308594 L 752.761719 339.070312 L 753.164062 338.875 L 753.589844 338.722656 L 754.042969 338.613281 L 754.519531 338.546875 Z M 755.023438 339.726562 L 754.316406 339.800781 L 753.683594 340.019531 L 753.125 340.390625 L 752.640625 340.90625 L 752.230469 341.570312 L 751.894531 342.378906 L 751.632812 343.339844 L 751.445312 344.445312 L 751.335938 345.699219 L 751.296875 347.101562 L 751.335938 348.507812 L 751.445312 349.765625 L 751.632812 350.875 L 751.894531 351.835938 L 752.230469 352.652344 L 752.640625 353.316406 L 753.125 353.835938 L 753.683594 354.203125 L 754.316406 354.425781 L 755.023438 354.5 L 755.378906 354.484375 L 755.71875 354.429688 L 756.039062 354.339844 L 756.339844 354.210938 L 756.625 354.050781 L 756.890625 353.851562 L 757.136719 353.617188 L 757.367188 353.347656 L 757.578125 353.042969 L 757.773438 352.699219 L 757.953125 352.320312 L 758.113281 351.902344 L 758.257812 351.441406 L 758.382812 350.945312 L 758.484375 350.40625 L 758.570312 349.828125 L 758.636719 349.210938 L 758.683594 348.554688 L 758.714844 347.859375 L 758.722656 347.125 L 758.714844 346.390625 L 758.683594 345.695312 L 758.636719 345.039062 L 758.570312 344.421875 L 758.484375 343.84375 L 758.382812 343.304688 L 758.257812 342.808594 L 758.113281 342.347656 L 757.953125 341.929688 L 757.773438 341.550781 L 757.578125 341.203125 L 757.367188 340.894531 L 757.136719 340.621094 L 756.890625 340.382812 L 756.625 340.183594 L 756.339844 340.015625 L 756.039062 339.890625 L 755.71875 339.796875 L 755.378906 339.742188 Z M 755.023438 339.726562 "/>
</svg>
