<?xml version="1.0" encoding="UTF-8"?>
<svg xmlns="http://www.w3.org/2000/svg" xmlns:xlink="http://www.w3.org/1999/xlink" width="792pt" height="432pt" viewBox="0 0 792 432">
<defs>
<clipPath id="clip-0">
<path clip-rule="nonzero" d="M 15.941406 15.941406 L 776.0625 15.941406 L 776.0625 375.015625 L 15.941406 375.015625 Z M 15.941406 15.941406 "/>
</clipPath>
<clipPath id="clip-1">
<path clip-rule="nonzero" d="M 15.941406 352 L 776.0625 352 L 776.0625 356 L 15.941406 356 Z M 15.941406 352 "/>
</clipPath>
<clipPath id="clip-2">
<path clip-rule="nonzero" d="M 15.941406 317 L 776.0625 317 L 776.0625 321 L 15.941406 321 Z M 15.941406 317 "/>
</clipPath>
<clipPath id="clip-3">
<path clip-rule="nonzero" d="M 15.941406 281 L 776.0625 281 L 776.0625 286 L 15.941406 286 Z M 15.941406 281 "/>
</clipPath>
<clipPath id="clip-4">
<path clip-rule="nonzero" d="M 15.941406 246 L 776.0625 246 L 776.0625 250 L 15.941406 250 Z M 15.941406 246 "/>
</clipPath>
<clipPath id="clip-5">
<path clip-rule="nonzero" d="M 15.941406 211 L 776.0625 211 L 776.0625 215 L 15.941406 215 Z M 15.941406 211 "/>
</clipPath>
<clipPath id="clip-6">
<path clip-rule="nonzero" d="M 15.941406 176 L 776.0625 176 L 776.0625 180 L 15.941406 180 Z M 15.941406 176 "/>
</clipPath>
<clipPath id="clip-7">
<path clip-rule="nonzero" d="M 15.941406 141 L 776.0625 141 L 776.0625 145 L 15.941406 145 Z M 15.941406 141 "/>
</clipPath>
<clipPath id="clip-8">
<path clip-rule="nonzero" d="M 15.941406 105 L 776.0625 105 L 776.0625 110 L 15.941406 110 Z M 15.941406 105 "/>
</clipPath>
<clipPath id="clip-9">
<path clip-rule="nonzero" d="M 15.941406 70 L 776.0625 70 L 776.0625 74 L 15.941406 74 Z M 15.941406 70 "/>
</clipPath>
<clipPath id="clip-10">
<path clip-rule="nonzero" d="M 15.941406 35 L 776.0625 35 L 776.0625 39 L 15.941406 39 Z M 15.941406 35 "/>
</clipPath>
<clipPath id="clip-11">
<path clip-rule="nonzero" d="M 110 15.941406 L 114 15.941406 L 114 375.015625 L 110 375.015625 Z M 110 15.941406 "/>
</clipPath>
<clipPath id="clip-12">
<path clip-rule="nonzero" d="M 342 15.941406 L 346 15.941406 L 346 375.015625 L 342 375.015625 Z M 342 15.941406 "/>
</clipPath>
<clipPath id="clip-13">
<path clip-rule="nonzero" d="M 574 15.941406 L 578 15.941406 L 578 375.015625 L 574 375.015625 Z M 574 15.941406 "/>
</clipPath>
<clipPath id="clip-14">
<path clip-rule="nonzero" d="M 359 15.941406 L 363 15.941406 L 363 375.015625 L 359 375.015625 Z M 359 15.941406 "/>
</clipPath>
</defs>
<rect x="-79.2" y="-43.2" width="950.4" height="518.4" fill="rgb(100%, 100%, 100%)" fill-opacity="1"/>
<rect x="-79.2" y="-43.2" width="950.4" height="518.4" fill="rgb(95.294118%, 95.294118%, 95.294118%)" fill-opacity="1"/>
<path fill="none" stroke-width="3.103937" stroke-linecap="round" stroke-linejoin="round" stroke="rgb(95.294118%, 95.294118%, 95.294118%)" stroke-opacity="1" stroke-miterlimit="10" d="M 0 432 L 792 432 L 792 0 L 0 0 Z M 0 432 "/>
<g clip-path="url(#clip-0)">
<path fill-rule="nonzero" fill="rgb(95.294118%, 95.294118%, 95.294118%)" fill-opacity="1" stroke-width="3.103937" stroke-linecap="round" stroke-linejoin="round" stroke="rgb(95.294118%, 95.294118%, 95.294118%)" stroke-opacity="1" stroke-miterlimit="10" d="M 15.941406 375.011719 L 776.0625 375.011719 L 776.0625 15.9375 L 15.941406 15.9375 Z M 15.941406 375.011719 "/>
</g>
<g clip-path="url(#clip-1)">
<path fill="none" stroke-width="3.103937" stroke-linecap="butt" stroke-linejoin="round" stroke="rgb(92.156863%, 92.156863%, 92.156863%)" stroke-opacity="1" stroke-miterlimit="10" d="M 15.941406 353.890625 L 776.058594 353.890625 "/>
</g>
<g clip-path="url(#clip-2)">
<path fill="none" stroke-width="3.103937" stroke-linecap="butt" stroke-linejoin="round" stroke="rgb(92.156863%, 92.156863%, 92.156863%)" stroke-opacity="1" stroke-miterlimit="10" d="M 15.941406 318.6875 L 776.058594 318.6875 "/>
</g>
<g clip-path="url(#clip-3)">
<path fill="none" stroke-width="3.103937" stroke-linecap="butt" stroke-linejoin="round" stroke="rgb(92.156863%, 92.156863%, 92.156863%)" stroke-opacity="1" stroke-miterlimit="10" d="M 15.941406 283.484375 L 776.058594 283.484375 "/>
</g>
<g clip-path="url(#clip-4)">
<path fill="none" stroke-width="3.103937" stroke-linecap="butt" stroke-linejoin="round" stroke="rgb(92.156863%, 92.156863%, 92.156863%)" stroke-opacity="1" stroke-miterlimit="10" d="M 15.941406 248.28125 L 776.058594 248.28125 "/>
</g>
<g clip-path="url(#clip-5)">
<path fill="none" stroke-width="3.103937" stroke-linecap="butt" stroke-linejoin="round" stroke="rgb(92.156863%, 92.156863%, 92.156863%)" stroke-opacity="1" stroke-miterlimit="10" d="M 15.941406 213.078125 L 776.058594 213.078125 "/>
</g>
<g clip-path="url(#clip-6)">
<path fill="none" stroke-width="3.103937" stroke-linecap="butt" stroke-linejoin="round" stroke="rgb(92.156863%, 92.156863%, 92.156863%)" stroke-opacity="1" stroke-miterlimit="10" d="M 15.941406 177.875 L 776.058594 177.875 "/>
</g>
<g clip-path="url(#clip-7)">
<path fill="none" stroke-width="3.103937" stroke-linecap="butt" stroke-linejoin="round" stroke="rgb(92.156863%, 92.156863%, 92.156863%)" stroke-opacity="1" stroke-miterlimit="10" d="M 15.941406 142.671875 L 776.058594 142.671875 "/>
</g>
<g clip-path="url(#clip-8)">
<path fill="none" stroke-width="3.103937" stroke-linecap="butt" stroke-linejoin="round" stroke="rgb(92.156863%, 92.156863%, 92.156863%)" stroke-opacity="1" stroke-miterlimit="10" d="M 15.941406 107.46875 L 776.058594 107.46875 "/>
</g>
<g clip-path="url(#clip-9)">
<path fill="none" stroke-width="3.103937" stroke-linecap="butt" stroke-linejoin="round" stroke="rgb(92.156863%, 92.156863%, 92.156863%)" stroke-opacity="1" stroke-miterlimit="10" d="M 15.941406 72.265625 L 776.058594 72.265625 "/>
</g>
<g clip-path="url(#clip-10)">
<path fill="none" stroke-width="3.103937" stroke-linecap="butt" stroke-linejoin="round" stroke="rgb(92.156863%, 92.156863%, 92.156863%)" stroke-opacity="1" stroke-miterlimit="10" d="M 15.941406 37.0625 L 776.058594 37.0625 "/>
</g>
<g clip-path="url(#clip-11)">
<path fill="none" stroke-width="3.103937" stroke-linecap="butt" stroke-linejoin="round" stroke="rgb(92.156863%, 92.156863%, 92.156863%)" stroke-opacity="1" stroke-miterlimit="10" d="M 111.953125 375.011719 L 111.953125 15.941406 "/>
</g>
<g clip-path="url(#clip-12)">
<path fill="none" stroke-width="3.103937" stroke-linecap="butt" stroke-linejoin="round" stroke="rgb(92.156863%, 92.156863%, 92.156863%)" stroke-opacity="1" stroke-miterlimit="10" d="M 343.828125 375.011719 L 343.828125 15.941406 "/>
</g>
<g clip-path="url(#clip-13)">
<path fill="none" stroke-width="3.103937" stroke-linecap="butt" stroke-linejoin="round" stroke="rgb(92.156863%, 92.156863%, 92.156863%)" stroke-opacity="1" stroke-miterlimit="10" d="M 575.703125 375.011719 L 575.703125 15.941406 "/>
</g>
<path fill-rule="nonzero" fill="rgb(56.078431%, 16.470588%, 26.27451%)" fill-opacity="1" stroke-width="2.06156" stroke-linecap="round" stroke-linejoin="round" stroke="rgb(56.078431%, 16.470588%, 26.27451%)" stroke-opacity="1" stroke-miterlimit="10" d="M 220.765625 283.484375 C 220.765625 287.296875 217.675781 290.382812 213.867188 290.382812 C 210.058594 290.382812 206.96875 287.296875 206.96875 283.484375 C 206.96875 279.675781 210.058594 276.585938 213.867188 276.585938 C 217.675781 276.585938 220.765625 279.675781 220.765625 283.484375 "/>
<path fill-rule="nonzero" fill="rgb(56.078431%, 16.470588%, 26.27451%)" fill-opacity="1" stroke-width="2.06156" stroke-linecap="round" stroke-linejoin="round" stroke="rgb(56.078431%, 16.470588%, 26.27451%)" stroke-opacity="1" stroke-miterlimit="10" d="M 297.355469 213.078125 C 297.355469 216.890625 294.265625 219.976562 290.457031 219.976562 C 286.644531 219.976562 283.554688 216.890625 283.554688 213.078125 C 283.554688 209.269531 286.644531 206.179688 290.457031 206.179688 C 294.265625 206.179688 297.355469 209.269531 297.355469 213.078125 "/>
<path fill-rule="nonzero" fill="rgb(56.078431%, 16.470588%, 26.27451%)" fill-opacity="1" stroke-width="2.06156" stroke-linecap="round" stroke-linejoin="round" stroke="rgb(56.078431%, 16.470588%, 26.27451%)" stroke-opacity="1" stroke-miterlimit="10" d="M 712.152344 72.265625 C 712.152344 76.074219 709.0625 79.164062 705.253906 79.164062 C 701.441406 79.164062 698.355469 76.074219 698.355469 72.265625 C 698.355469 68.457031 701.441406 65.367188 705.253906 65.367188 C 709.0625 65.367188 712.152344 68.457031 712.152344 72.265625 "/>
<path fill-rule="nonzero" fill="rgb(56.078431%, 16.470588%, 26.27451%)" fill-opacity="1" stroke-width="2.06156" stroke-linecap="round" stroke-linejoin="round" stroke="rgb(56.078431%, 16.470588%, 26.27451%)" stroke-opacity="1" stroke-miterlimit="10" d="M 367.074219 177.875 C 367.074219 181.6875 363.988281 184.773438 360.175781 184.773438 C 356.367188 184.773438 353.277344 181.6875 353.277344 177.875 C 353.277344 174.066406 356.367188 170.976562 360.175781 170.976562 C 363.988281 170.976562 367.074219 174.066406 367.074219 177.875 "/>
<path fill-rule="nonzero" fill="rgb(56.078431%, 16.470588%, 26.27451%)" fill-opacity="1" stroke-width="2.06156" stroke-linecap="round" stroke-linejoin="round" stroke="rgb(56.078431%, 16.470588%, 26.27451%)" stroke-opacity="1" stroke-miterlimit="10" d="M 380.707031 142.671875 C 380.707031 146.480469 377.617188 149.570312 373.804688 149.570312 C 369.996094 149.570312 366.90625 146.480469 366.90625 142.671875 C 366.90625 138.863281 369.996094 135.773438 373.804688 135.773438 C 377.617188 135.773438 380.707031 138.863281 380.707031 142.671875 "/>
<path fill-rule="nonzero" fill="rgb(56.078431%, 16.470588%, 26.27451%)" fill-opacity="1" stroke-width="2.06156" stroke-linecap="round" stroke-linejoin="round" stroke="rgb(56.078431%, 16.470588%, 26.27451%)" stroke-opacity="1" stroke-miterlimit="10" d="M 748.40625 37.0625 C 748.40625 40.871094 745.320312 43.960938 741.507812 43.960938 C 737.699219 43.960938 734.609375 40.871094 734.609375 37.0625 C 734.609375 33.25 737.699219 30.164062 741.507812 30.164062 C 745.320312 30.164062 748.40625 33.25 748.40625 37.0625 "/>
<path fill-rule="nonzero" fill="rgb(56.078431%, 16.470588%, 26.27451%)" fill-opacity="1" stroke-width="2.06156" stroke-linecap="round" stroke-linejoin="round" stroke="rgb(56.078431%, 16.470588%, 26.27451%)" stroke-opacity="1" stroke-miterlimit="10" d="M 457.601562 107.46875 C 457.601562 111.277344 454.511719 114.367188 450.703125 114.367188 C 446.890625 114.367188 443.804688 111.277344 443.804688 107.46875 C 443.804688 103.660156 446.890625 100.570312 450.703125 100.570312 C 454.511719 100.570312 457.601562 103.660156 457.601562 107.46875 "/>
<path fill-rule="nonzero" fill="rgb(56.078431%, 16.470588%, 26.27451%)" fill-opacity="1" stroke-width="2.06156" stroke-linecap="round" stroke-linejoin="round" stroke="rgb(56.078431%, 16.470588%, 26.27451%)" stroke-opacity="1" stroke-miterlimit="10" d="M 57.390625 353.890625 C 57.390625 357.703125 54.300781 360.789062 50.492188 360.789062 C 46.679688 360.789062 43.59375 357.703125 43.59375 353.890625 C 43.59375 350.082031 46.679688 346.992188 50.492188 346.992188 C 54.300781 346.992188 57.390625 350.082031 57.390625 353.890625 "/>
<path fill-rule="nonzero" fill="rgb(56.078431%, 16.470588%, 26.27451%)" fill-opacity="1" stroke-width="2.06156" stroke-linecap="round" stroke-linejoin="round" stroke="rgb(56.078431%, 16.470588%, 26.27451%)" stroke-opacity="1" stroke-miterlimit="10" d="M 191.460938 318.6875 C 191.460938 322.5 188.375 325.585938 184.5625 325.585938 C 180.753906 325.585938 177.664062 322.5 177.664062 318.6875 C 177.664062 314.878906 180.753906 311.789062 184.5625 311.789062 C 188.375 311.789062 191.460938 314.878906 191.460938 318.6875 "/>
<path fill-rule="nonzero" fill="rgb(56.078431%, 16.470588%, 26.27451%)" fill-opacity="1" stroke-width="2.06156" stroke-linecap="round" stroke-linejoin="round" stroke="rgb(56.078431%, 16.470588%, 26.27451%)" stroke-opacity="1" stroke-miterlimit="10" d="M 247.390625 248.28125 C 247.390625 252.09375 244.300781 255.179688 240.488281 255.179688 C 236.679688 255.179688 233.589844 252.09375 233.589844 248.28125 C 233.589844 244.472656 236.679688 241.382812 240.488281 241.382812 C 244.300781 241.382812 247.390625 244.472656 247.390625 248.28125 "/>
<path fill="none" stroke-width="2.133957" stroke-linecap="butt" stroke-linejoin="round" stroke="rgb(56.078431%, 16.470588%, 26.27451%)" stroke-opacity="1" stroke-miterlimit="10" d="M 213.867188 283.484375 L 361.132812 283.484375 "/>
<path fill="none" stroke-width="2.133957" stroke-linecap="butt" stroke-linejoin="round" stroke="rgb(56.078431%, 16.470588%, 26.27451%)" stroke-opacity="1" stroke-miterlimit="10" d="M 290.457031 213.078125 L 361.132812 213.078125 "/>
<path fill="none" stroke-width="2.133957" stroke-linecap="butt" stroke-linejoin="round" stroke="rgb(56.078431%, 16.470588%, 26.27451%)" stroke-opacity="1" stroke-miterlimit="10" d="M 705.253906 72.265625 L 361.132812 72.265625 "/>
<path fill="none" stroke-width="2.133957" stroke-linecap="butt" stroke-linejoin="round" stroke="rgb(56.078431%, 16.470588%, 26.27451%)" stroke-opacity="1" stroke-miterlimit="10" d="M 360.175781 177.875 L 361.132812 177.875 "/>
<path fill="none" stroke-width="2.133957" stroke-linecap="butt" stroke-linejoin="round" stroke="rgb(56.078431%, 16.470588%, 26.27451%)" stroke-opacity="1" stroke-miterlimit="10" d="M 373.804688 142.671875 L 361.132812 142.671875 "/>
<path fill="none" stroke-width="2.133957" stroke-linecap="butt" stroke-linejoin="round" stroke="rgb(56.078431%, 16.470588%, 26.27451%)" stroke-opacity="1" stroke-miterlimit="10" d="M 741.507812 37.0625 L 361.132812 37.0625 "/>
<path fill="none" stroke-width="2.133957" stroke-linecap="butt" stroke-linejoin="round" stroke="rgb(56.078431%, 16.470588%, 26.27451%)" stroke-opacity="1" stroke-miterlimit="10" d="M 450.703125 107.46875 L 361.132812 107.46875 "/>
<path fill="none" stroke-width="2.133957" stroke-linecap="butt" stroke-linejoin="round" stroke="rgb(56.078431%, 16.470588%, 26.27451%)" stroke-opacity="1" stroke-miterlimit="10" d="M 50.492188 353.890625 L 361.132812 353.890625 "/>
<path fill="none" stroke-width="2.133957" stroke-linecap="butt" stroke-linejoin="round" stroke="rgb(56.078431%, 16.470588%, 26.27451%)" stroke-opacity="1" stroke-miterlimit="10" d="M 184.5625 318.6875 L 361.132812 318.6875 "/>
<path fill="none" stroke-width="2.133957" stroke-linecap="butt" stroke-linejoin="round" stroke="rgb(56.078431%, 16.470588%, 26.27451%)" stroke-opacity="1" stroke-miterlimit="10" d="M 240.488281 248.28125 L 361.132812 248.28125 "/>
<g clip-path="url(#clip-14)">
<path fill="none" stroke-width="2.560748" stroke-linecap="butt" stroke-linejoin="round" stroke="rgb(0%, 0%, 0%)" stroke-opacity="1" stroke-miterlimit="10" d="M 361.132812 375.011719 L 361.132812 15.941406 "/>
</g>
<path fill-rule="nonzero" fill="rgb(10.196078%, 10.196078%, 10.196078%)" fill-opacity="1" d="M 101.78125 401.269531 L 101.78125 399.769531 L 109.730469 399.769531 L 109.730469 401.269531 Z M 101.78125 401.269531 "/>
<path fill-rule="nonzero" fill="rgb(10.196078%, 10.196078%, 10.196078%)" fill-opacity="1" d="M 120.53125 389.960938 L 120.53125 409.910156 L 118.792969 409.910156 L 118.792969 391.878906 L 113.871094 394.941406 L 113.0625 393.648438 L 119.03125 389.960938 Z M 120.53125 389.960938 "/>
<path fill-rule="nonzero" fill="rgb(10.196078%, 10.196078%, 10.196078%)" fill-opacity="1" d="M 343.828125 389.628906 L 344.429688 389.65625 L 345.003906 389.734375 L 345.546875 389.867188 L 346.058594 390.050781 L 346.542969 390.289062 L 346.996094 390.582031 L 347.417969 390.921875 L 347.8125 391.320312 L 348.175781 391.769531 L 348.507812 392.269531 L 348.808594 392.816406 L 349.078125 393.414062 L 349.320312 394.058594 L 349.523438 394.75 L 349.699219 395.496094 L 349.84375 396.289062 L 349.953125 397.128906 L 350.035156 398.019531 L 350.082031 398.960938 L 350.097656 399.949219 L 350.082031 400.933594 L 350.03125 401.871094 L 349.953125 402.757812 L 349.839844 403.597656 L 349.691406 404.390625 L 349.515625 405.132812 L 349.304688 405.828125 L 349.0625 406.476562 L 348.785156 407.078125 L 348.476562 407.628906 L 348.144531 408.125 L 347.78125 408.570312 L 347.390625 408.960938 L 346.96875 409.300781 L 346.519531 409.585938 L 346.039062 409.820312 L 345.53125 410.003906 L 344.992188 410.136719 L 344.425781 410.214844 L 343.828125 410.238281 L 343.226562 410.214844 L 342.652344 410.136719 L 342.109375 410.003906 L 341.59375 409.820312 L 341.113281 409.585938 L 340.660156 409.300781 L 340.238281 408.960938 L 339.84375 408.570312 L 339.480469 408.125 L 339.148438 407.628906 L 338.84375 407.078125 L 338.574219 406.476562 L 338.335938 405.828125 L 338.128906 405.128906 L 337.957031 404.382812 L 337.8125 403.585938 L 337.699219 402.742188 L 337.621094 401.851562 L 337.574219 400.910156 L 337.558594 399.917969 L 337.574219 398.929688 L 337.621094 397.988281 L 337.699219 397.097656 L 337.8125 396.257812 L 337.957031 395.464844 L 338.128906 394.722656 L 338.335938 394.027344 L 338.574219 393.382812 L 338.84375 392.785156 L 339.148438 392.238281 L 339.480469 391.742188 L 339.84375 391.300781 L 340.238281 390.910156 L 340.660156 390.570312 L 341.113281 390.28125 L 341.59375 390.046875 L 342.109375 389.863281 L 342.652344 389.734375 L 343.226562 389.65625 Z M 343.828125 391.070312 L 342.976562 391.160156 L 342.21875 391.421875 L 341.546875 391.867188 L 340.96875 392.484375 L 340.476562 393.28125 L 340.074219 394.253906 L 339.761719 395.40625 L 339.535156 396.734375 L 339.402344 398.238281 L 339.359375 399.917969 L 339.402344 401.605469 L 339.535156 403.117188 L 339.761719 404.449219 L 340.074219 405.601562 L 340.476562 406.578125 L 340.96875 407.378906 L 341.546875 408 L 342.21875 408.445312 L 342.976562 408.710938 L 343.828125 408.800781 L 344.253906 408.777344 L 344.660156 408.714844 L 345.042969 408.605469 L 345.40625 408.453125 L 345.746094 408.261719 L 346.066406 408.023438 L 346.363281 407.742188 L 346.640625 407.417969 L 346.894531 407.050781 L 347.128906 406.640625 L 347.34375 406.183594 L 347.539062 405.679688 L 347.710938 405.128906 L 347.855469 404.53125 L 347.984375 403.886719 L 348.085938 403.195312 L 348.164062 402.453125 L 348.222656 401.667969 L 348.257812 400.832031 L 348.269531 399.949219 L 348.257812 399.066406 L 348.222656 398.234375 L 348.164062 397.445312 L 348.085938 396.703125 L 347.984375 396.011719 L 347.855469 395.367188 L 347.710938 394.769531 L 347.539062 394.21875 L 347.34375 393.714844 L 347.128906 393.261719 L 346.894531 392.84375 L 346.640625 392.472656 L 346.363281 392.144531 L 346.066406 391.859375 L 345.746094 391.617188 L 345.40625 391.421875 L 345.042969 391.265625 L 344.660156 391.15625 L 344.253906 391.089844 Z M 343.828125 391.070312 "/>
<path fill-rule="nonzero" fill="rgb(10.196078%, 10.196078%, 10.196078%)" fill-opacity="1" d="M 578.269531 389.960938 L 578.269531 409.910156 L 576.527344 409.910156 L 576.527344 391.878906 L 571.609375 394.941406 L 570.796875 393.648438 L 576.769531 389.960938 Z M 578.269531 389.960938 "/>
</svg>
