<?xml version="1.0" encoding="UTF-8"?>
<svg xmlns="http://www.w3.org/2000/svg" xmlns:xlink="http://www.w3.org/1999/xlink" width="576" height="475" viewBox="0 0 576 475">
<defs>
<clipPath id="clip-0">
<path clip-rule="nonzero" d="M 63.714844 13.449219 L 562.550781 13.449219 L 562.550781 424.070312 L 63.714844 424.070312 Z M 63.714844 13.449219 "/>
</clipPath>
<clipPath id="clip-1">
<path clip-rule="nonzero" d="M 318 13.449219 L 320 13.449219 L 320 424.070312 L 318 424.070312 Z M 318 13.449219 "/>
</clipPath>
<clipPath id="clip-2">
<path clip-rule="nonzero" d="M 419 13.449219 L 421 13.449219 L 421 424.070312 L 419 424.070312 Z M 419 13.449219 "/>
</clipPath>
<clipPath id="clip-3">
<path clip-rule="nonzero" d="M 217 13.449219 L 219 13.449219 L 219 424.070312 L 217 424.070312 Z M 217 13.449219 "/>
</clipPath>
</defs>
<rect x="-57.6" y="-47.5" width="691.2" height="570" fill="rgb(100%, 100%, 100%)" fill-opacity="1"/>
<rect x="-57.6" y="-47.5" width="691.2" height="570" fill="rgb(95.294118%, 95.294118%, 95.294118%)" fill-opacity="1"/>
<path fill="none" stroke-width="2.618947" stroke-linecap="round" stroke-linejoin="round" stroke="rgb(95.294118%, 95.294118%, 95.294118%)" stroke-opacity="1" stroke-miterlimit="10" d="M 0 475 L 576 475 L 576 0 L 0 0 Z M 0 475 "/>
<g clip-path="url(#clip-0)">
<path fill-rule="nonzero" fill="rgb(95.294118%, 95.294118%, 95.294118%)" fill-opacity="1" stroke-width="2.618947" stroke-linecap="round" stroke-linejoin="round" stroke="rgb(95.294118%, 95.294118%, 95.294118%)" stroke-opacity="1" stroke-miterlimit="10" d="M 63.714844 424.070312 L 562.550781 424.070312 L 562.550781 13.449219 L 63.714844 13.449219 Z M 63.714844 424.070312 "/>
</g>
<path fill="none" stroke-width="3.200935" stroke-linecap="butt" stroke-linejoin="round" stroke="rgb(56.078431%, 16.470588%, 26.27451%)" stroke-opacity="1" stroke-miterlimit="10" d="M 319.855469 296.347656 L 322.640625 289.253906 L 325.425781 282.402344 L 328.210938 275.785156 L 330.996094 269.398438 L 333.78125 263.238281 L 336.566406 257.300781 L 339.351562 251.59375 L 342.136719 246.117188 L 344.921875 240.878906 L 347.707031 235.878906 L 350.492188 231.125 L 353.277344 226.617188 L 356.0625 222.320312 L 358.847656 218.246094 L 361.632812 214.414062 L 364.417969 210.855469 L 367.203125 207.507812 L 369.988281 204.308594 L 372.773438 201.308594 L 375.558594 198.542969 L 378.34375 196.058594 L 381.128906 193.898438 L 383.914062 192.105469 L 386.699219 190.667969 L 389.484375 189.523438 L 392.269531 188.667969 L 395.054688 188.105469 L 397.839844 187.84375 L 400.625 187.882812 L 403.410156 188.226562 L 406.195312 188.875 L 408.980469 189.832031 L 411.765625 191.128906 L 414.546875 192.804688 L 417.332031 194.824219 L 420.117188 197.152344 L 422.902344 199.75 L 425.6875 202.582031 L 428.472656 205.613281 L 431.257812 208.800781 L 434.042969 212.113281 L 436.828125 215.566406 L 439.613281 219.34375 L 442.398438 223.425781 L 445.183594 227.777344 L 447.96875 232.351562 L 450.753906 237.113281 L 453.539062 242.023438 L 456.324219 247.035156 L 459.109375 252.113281 L 461.894531 257.214844 L 464.679688 262.300781 L 467.464844 267.332031 L 470.25 272.265625 L 473.035156 277.066406 L 475.820312 281.753906 L 478.605469 286.503906 L 481.390625 291.324219 L 484.175781 296.210938 L 486.960938 301.160156 L 489.746094 306.179688 L 492.53125 311.257812 L 495.316406 316.398438 L 498.101562 321.59375 L 500.886719 326.851562 L 503.671875 332.160156 L 506.457031 337.523438 L 509.242188 342.9375 L 512.027344 348.40625 L 514.8125 353.917969 L 517.59375 359.476562 L 520.378906 365.082031 L 523.164062 370.726562 L 525.949219 376.414062 L 528.734375 382.144531 L 531.519531 387.90625 L 534.304688 393.707031 L 537.089844 399.539062 L 539.875 405.40625 "/>
<path fill="none" stroke-width="3.200935" stroke-linecap="butt" stroke-linejoin="round" stroke="rgb(16.470588%, 56.078431%, 46.27451%)" stroke-opacity="1" stroke-miterlimit="10" d="M 86.386719 188.894531 L 89.300781 183.316406 L 92.210938 177.835938 L 95.121094 172.453125 L 98.035156 167.167969 L 100.945312 161.984375 L 103.855469 156.902344 L 106.769531 151.921875 L 109.679688 147.046875 L 112.589844 142.277344 L 115.503906 137.613281 L 118.414062 133.058594 L 121.324219 128.613281 L 124.238281 124.277344 L 127.148438 120.050781 L 130.0625 115.941406 L 132.972656 111.945312 L 135.882812 108.0625 L 138.796875 104.296875 L 141.707031 100.648438 L 144.617188 97.121094 L 147.53125 93.710938 L 150.441406 90.425781 L 153.351562 87.261719 L 156.265625 84.222656 L 159.175781 81.308594 L 162.085938 78.519531 L 165 75.859375 L 167.910156 73.328125 L 170.820312 70.929688 L 173.734375 68.660156 L 176.644531 66.523438 L 179.554688 64.523438 L 182.46875 62.65625 L 185.378906 60.925781 L 188.289062 59.332031 L 191.203125 57.878906 L 194.113281 56.765625 L 197.023438 56.328125 L 199.9375 56.53125 L 202.847656 57.328125 L 205.757812 58.675781 L 208.671875 60.527344 L 211.582031 62.839844 L 214.496094 65.566406 L 217.40625 68.84375 L 220.316406 73.417969 L 223.230469 79.179688 L 226.140625 85.898438 L 229.050781 93.359375 L 231.964844 101.328125 L 234.875 109.585938 L 237.785156 117.90625 L 240.699219 126.0625 L 243.609375 133.835938 L 246.519531 141 L 249.433594 147.328125 L 252.34375 153.214844 L 255.253906 159.414062 L 258.167969 165.515625 L 261.078125 171.078125 L 263.988281 175.695312 L 266.902344 179.566406 L 269.8125 182.792969 L 272.722656 185.28125 L 275.636719 186.9375 L 278.546875 187.675781 L 281.457031 187.5 L 284.371094 186.496094 L 287.28125 184.683594 L 290.191406 182.066406 L 293.105469 178.644531 L 296.015625 174.410156 L 298.929688 169.363281 L 301.839844 163.503906 L 304.75 156.835938 L 307.664062 149.355469 L 310.574219 141.0625 L 313.484375 131.957031 L 316.398438 122.039062 "/>
<path fill="none" stroke-width="3.200935" stroke-linecap="butt" stroke-linejoin="round" stroke="rgb(56.078431%, 16.470588%, 26.27451%)" stroke-opacity="1" stroke-dasharray="3.200935 9.602805" stroke-miterlimit="10" d="M 86.386719 169.628906 L 89.300781 175.828125 L 92.210938 181.976562 L 95.121094 188.082031 L 98.035156 194.136719 L 100.945312 200.140625 L 103.855469 206.09375 L 106.769531 211.996094 L 109.679688 217.847656 L 112.589844 223.648438 L 115.503906 229.394531 L 118.414062 235.089844 L 121.324219 240.730469 L 124.238281 246.320312 L 127.148438 251.851562 L 130.0625 257.332031 L 132.972656 262.753906 L 135.882812 268.121094 L 138.796875 273.433594 L 141.707031 278.6875 L 144.617188 283.882812 L 147.53125 289.019531 L 150.441406 294.101562 L 153.351562 299.121094 L 156.265625 304.082031 L 159.175781 308.984375 L 162.085938 313.824219 L 165 318.605469 L 167.910156 323.324219 L 170.820312 327.980469 L 173.734375 332.570312 L 176.644531 337.101562 L 179.554688 341.570312 L 182.46875 345.972656 L 185.378906 350.308594 L 188.289062 354.582031 L 191.203125 358.789062 L 194.113281 362.9375 L 197.023438 367.027344 L 199.9375 371.007812 L 202.847656 374.847656 L 205.757812 378.496094 L 208.671875 381.921875 L 211.582031 385.074219 L 214.496094 387.917969 L 217.40625 390.4375 L 220.316406 392.726562 L 223.230469 394.777344 L 226.140625 396.574219 L 229.050781 398.101562 L 231.964844 399.339844 L 234.875 400.273438 L 237.785156 400.882812 L 240.699219 401.152344 L 243.609375 401.058594 L 246.519531 400.59375 L 249.433594 399.730469 L 252.34375 398.445312 L 255.253906 396.753906 L 258.167969 394.703125 L 261.078125 392.339844 L 263.988281 389.714844 L 266.902344 386.707031 L 269.8125 383.328125 L 272.722656 379.652344 L 275.636719 375.761719 L 278.546875 371.730469 L 281.457031 367.523438 L 284.371094 363.070312 L 287.28125 358.386719 L 290.191406 353.496094 L 293.105469 348.378906 L 296.015625 343.03125 L 298.929688 337.46875 L 301.839844 331.683594 L 304.75 325.679688 L 307.664062 319.449219 L 310.574219 312.996094 L 313.484375 306.316406 L 316.398438 299.414062 "/>
<path fill="none" stroke-width="3.200935" stroke-linecap="butt" stroke-linejoin="round" stroke="rgb(16.470588%, 56.078431%, 46.27451%)" stroke-opacity="1" stroke-dasharray="3.200935 9.602805" stroke-miterlimit="10" d="M 319.855469 114.871094 L 322.640625 105.574219 L 325.425781 96.933594 L 328.210938 88.957031 L 330.996094 81.660156 L 333.78125 75.054688 L 336.566406 69.15625 L 339.351562 63.949219 L 342.136719 59.417969 L 344.921875 55.554688 L 347.707031 52.347656 L 350.492188 49.78125 L 353.277344 47.847656 L 356.0625 46.632812 L 358.847656 46.128906 L 361.632812 46.261719 L 364.417969 46.964844 L 367.203125 48.53125 L 369.988281 51.214844 L 372.773438 54.796875 L 375.558594 59.066406 L 378.34375 63.816406 L 381.128906 68.835938 L 383.914062 73.90625 L 386.699219 79.441406 L 389.484375 86.148438 L 392.269531 93.703125 L 395.054688 101.773438 L 397.839844 110.03125 L 400.625 118.140625 L 403.410156 125.769531 L 406.195312 132.585938 L 408.980469 138.253906 L 411.765625 142.996094 L 414.546875 147.738281 L 417.332031 152.386719 L 420.117188 156.800781 L 422.902344 160.847656 L 425.6875 164.386719 L 428.472656 167.285156 L 431.257812 169.402344 L 434.042969 170.609375 L 436.828125 170.859375 L 439.613281 170.5 L 442.398438 169.613281 L 445.183594 168.261719 L 447.96875 166.503906 L 450.753906 164.390625 L 453.539062 161.980469 L 456.324219 159.332031 L 459.109375 156.496094 L 461.894531 153.539062 L 464.679688 150.507812 L 467.464844 147.464844 L 470.25 144.464844 L 473.035156 141.5625 L 475.820312 138.726562 L 478.605469 135.71875 L 481.390625 132.535156 L 484.175781 129.175781 L 486.960938 125.648438 L 489.746094 121.953125 L 492.53125 118.097656 L 495.316406 114.085938 L 498.101562 109.921875 L 500.886719 105.613281 L 503.671875 101.15625 L 506.457031 96.5625 L 509.242188 91.832031 L 512.027344 86.96875 L 514.8125 81.984375 L 517.59375 76.875 L 520.378906 71.644531 L 523.164062 66.304688 L 525.949219 60.855469 L 528.734375 55.300781 L 531.519531 49.644531 L 534.304688 43.890625 L 537.089844 38.046875 L 539.875 32.113281 "/>
<g clip-path="url(#clip-1)">
<path fill="none" stroke-width="1.066978" stroke-linecap="butt" stroke-linejoin="round" stroke="rgb(0%, 0%, 0%)" stroke-opacity="1" stroke-dasharray="4.267913 4.267913" stroke-miterlimit="10" d="M 319.277344 424.070312 L 319.277344 13.449219 "/>
</g>
<path fill="none" stroke-width="3.200935" stroke-linecap="butt" stroke-linejoin="round" stroke="rgb(0%, 0%, 0%)" stroke-opacity="1" stroke-miterlimit="10" d="M 319.855469 271.027344 L 321.117188 269.683594 L 324.902344 265.640625 L 326.160156 264.296875 L 328.683594 261.601562 L 329.945312 260.257812 L 332.46875 257.5625 L 333.726562 256.214844 L 334.988281 254.871094 L 338.773438 250.828125 L 340.03125 249.484375 L 342.554688 246.789062 L 343.816406 245.445312 L 345.078125 244.097656 L 346.335938 242.75 L 347.597656 241.402344 L 348.859375 240.058594 L 351.382812 237.363281 L 352.640625 236.015625 L 353.902344 234.671875 L 356.425781 231.976562 L 357.6875 230.632812 L 358.949219 229.285156 L 360.207031 227.9375 L 361.46875 226.589844 L 362.730469 225.246094 L 365.253906 222.550781 L 366.511719 221.203125 L 367.773438 219.859375 L 370.296875 217.164062 L 371.558594 215.820312 L 372.816406 214.472656 L 375.339844 211.777344 L 376.601562 210.433594 L 377.863281 209.085938 L 379.121094 207.738281 L 380.382812 206.390625 L 381.644531 205.046875 L 384.167969 202.351562 L 385.429688 201.007812 L 386.6875 199.660156 L 389.210938 196.964844 L 390.472656 195.621094 L 391.734375 194.273438 L 392.992188 192.925781 L 394.253906 191.578125 L 395.515625 190.234375 L 398.039062 187.539062 L 399.296875 186.195312 L 403.082031 182.152344 L 404.34375 180.808594 L 405.601562 179.460938 L 408.125 176.765625 L 409.386719 175.421875 L 411.910156 172.726562 L 413.167969 171.382812 L 416.953125 167.339844 L 418.214844 165.996094 L 419.472656 164.648438 "/>
<path fill="none" stroke-width="3.200935" stroke-linecap="butt" stroke-linejoin="round" stroke="rgb(0%, 0%, 0%)" stroke-opacity="1" stroke-miterlimit="10" d="M 245.765625 168.179688 L 246.660156 168.136719 L 247.554688 168.097656 L 248.445312 168.058594 L 254.707031 167.785156 L 255.597656 167.746094 L 262.753906 167.433594 L 263.644531 167.394531 L 264.539062 167.355469 L 265.433594 167.3125 L 269.90625 167.117188 L 270.796875 167.078125 L 277.953125 166.765625 L 278.84375 166.726562 L 282.421875 166.570312 L 283.316406 166.527344 L 286 166.410156 L 286.890625 166.371094 L 293.152344 166.097656 L 294.042969 166.058594 L 301.199219 165.746094 L 302.089844 165.703125 L 309.246094 165.390625 L 310.136719 165.351562 L 316.398438 165.078125 "/>
<g clip-path="url(#clip-2)">
<path fill="none" stroke-width="1.066978" stroke-linecap="butt" stroke-linejoin="round" stroke="rgb(0%, 0%, 0%)" stroke-opacity="1" stroke-dasharray="1.066978 3.200935" stroke-miterlimit="10" d="M 420.128906 424.070312 L 420.128906 13.449219 "/>
</g>
<g clip-path="url(#clip-3)">
<path fill="none" stroke-width="1.066978" stroke-linecap="butt" stroke-linejoin="round" stroke="rgb(0%, 0%, 0%)" stroke-opacity="1" stroke-dasharray="1.066978 3.200935" stroke-miterlimit="10" d="M 218.421875 424.070312 L 218.421875 13.449219 "/>
</g>
<path fill="none" stroke-width="1.066978" stroke-linecap="butt" stroke-linejoin="round" stroke="rgb(0%, 0%, 0%)" stroke-opacity="1" stroke-miterlimit="10" d="M 63.714844 424.070312 L 562.550781 424.070312 "/>
<path fill-rule="nonzero" fill="rgb(0%, 0%, 0%)" fill-opacity="1" d="M 272.539062 455.636719 L 272.152344 455.628906 L 271.777344 455.605469 L 271.410156 455.570312 L 271.050781 455.515625 L 270.703125 455.449219 L 270.359375 455.367188 L 270.027344 455.265625 L 269.703125 455.152344 L 269.386719 455.023438 L 269.082031 454.882812 L 268.785156 454.726562 L 268.496094 454.5625 L 268.214844 454.390625 L 267.945312 454.210938 L 267.683594 454.023438 L 267.433594 453.828125 L 267.191406 453.625 L 266.957031 453.414062 L 266.730469 453.191406 L 266.515625 452.964844 L 267.328125 452.101562 L 267.523438 452.3125 L 267.730469 452.515625 L 267.945312 452.710938 L 268.164062 452.898438 L 268.394531 453.078125 L 268.628906 453.25 L 268.871094 453.414062 L 269.125 453.570312 L 269.382812 453.714844 L 269.648438 453.855469 L 269.921875 453.980469 L 270.195312 454.089844 L 270.476562 454.1875 L 270.757812 454.269531 L 271.046875 454.339844 L 271.335938 454.398438 L 271.632812 454.445312 L 271.929688 454.476562 L 272.230469 454.496094 L 272.539062 454.503906 L 272.9375 454.492188 L 273.324219 454.464844 L 273.691406 454.414062 L 274.039062 454.34375 L 274.375 454.253906 L 274.6875 454.144531 L 274.988281 454.015625 L 275.269531 453.863281 L 275.53125 453.695312 L 275.777344 453.503906 L 276.003906 453.300781 L 276.207031 453.082031 L 276.382812 452.855469 L 276.539062 452.613281 L 276.667969 452.363281 L 276.777344 452.101562 L 276.859375 451.828125 L 276.917969 451.542969 L 276.953125 451.246094 L 276.964844 450.9375 L 276.960938 450.722656 L 276.949219 450.515625 L 276.925781 450.3125 L 276.894531 450.121094 L 276.859375 449.941406 L 276.808594 449.765625 L 276.753906 449.601562 L 276.6875 449.445312 L 276.617188 449.296875 L 276.535156 449.15625 L 276.445312 449.023438 L 276.347656 448.898438 L 276.246094 448.773438 L 276.140625 448.65625 L 276.027344 448.542969 L 275.910156 448.433594 L 275.78125 448.332031 L 275.652344 448.234375 L 275.515625 448.140625 L 275.371094 448.050781 L 275.230469 447.960938 L 275.085938 447.871094 L 274.933594 447.78125 L 274.78125 447.695312 L 274.625 447.613281 L 274.460938 447.527344 L 274.296875 447.449219 L 274.128906 447.367188 L 273.957031 447.289062 L 273.78125 447.214844 L 271.078125 446 L 270.773438 445.851562 L 270.617188 445.773438 L 270.457031 445.691406 L 270.296875 445.605469 L 270.132812 445.519531 L 269.96875 445.425781 L 269.800781 445.332031 L 269.632812 445.234375 L 269.460938 445.132812 L 269.292969 445.023438 L 269.132812 444.90625 L 268.980469 444.785156 L 268.828125 444.65625 L 268.683594 444.519531 L 268.542969 444.378906 L 268.40625 444.234375 L 268.277344 444.082031 L 268.148438 443.921875 L 268.027344 443.757812 L 267.921875 443.578125 L 267.824219 443.394531 L 267.738281 443.199219 L 267.664062 442.992188 L 267.601562 442.777344 L 267.550781 442.554688 L 267.511719 442.324219 L 267.484375 442.082031 L 267.46875 441.832031 L 267.460938 441.570312 L 267.46875 441.316406 L 267.488281 441.066406 L 267.523438 440.820312 L 267.570312 440.585938 L 267.628906 440.355469 L 267.703125 440.132812 L 267.792969 439.914062 L 267.894531 439.703125 L 268.007812 439.5 L 268.136719 439.300781 L 268.277344 439.105469 L 268.425781 438.921875 L 268.585938 438.746094 L 268.753906 438.578125 L 268.933594 438.417969 L 269.121094 438.269531 L 269.320312 438.128906 L 269.527344 437.996094 L 269.746094 437.875 L 269.972656 437.761719 L 270.214844 437.65625 L 270.460938 437.558594 L 270.710938 437.472656 L 270.96875 437.402344 L 271.234375 437.339844 L 271.503906 437.289062 L 271.78125 437.246094 L 272.0625 437.21875 L 272.351562 437.203125 L 272.644531 437.195312 L 272.960938 437.203125 L 273.269531 437.222656 L 273.570312 437.253906 L 273.867188 437.300781 L 274.15625 437.359375 L 274.441406 437.429688 L 274.71875 437.515625 L 274.988281 437.609375 L 275.25 437.722656 L 275.507812 437.84375 L 275.757812 437.972656 L 275.996094 438.101562 L 276.226562 438.238281 L 276.449219 438.378906 L 276.660156 438.527344 L 276.863281 438.675781 L 277.058594 438.832031 L 277.246094 438.992188 L 277.421875 439.160156 L 277.585938 439.328125 L 276.882812 440.140625 L 276.726562 439.980469 L 276.558594 439.828125 L 276.390625 439.683594 L 276.214844 439.542969 L 276.035156 439.410156 L 275.847656 439.285156 L 275.65625 439.164062 L 275.457031 439.050781 L 275.257812 438.945312 L 275.046875 438.84375 L 274.835938 438.746094 L 274.617188 438.660156 L 274.390625 438.582031 L 274.160156 438.515625 L 273.921875 438.457031 L 273.679688 438.414062 L 273.429688 438.375 L 273.171875 438.351562 L 272.914062 438.335938 L 272.644531 438.332031 L 272.300781 438.339844 L 271.96875 438.363281 L 271.652344 438.40625 L 271.34375 438.46875 L 271.050781 438.546875 L 270.773438 438.640625 L 270.507812 438.753906 L 270.253906 438.882812 L 270.011719 439.03125 L 269.785156 439.195312 L 269.578125 439.375 L 269.394531 439.5625 L 269.234375 439.765625 L 269.09375 439.980469 L 268.972656 440.207031 L 268.875 440.445312 L 268.800781 440.695312 L 268.746094 440.957031 L 268.714844 441.230469 L 268.703125 441.515625 L 268.707031 441.71875 L 268.722656 441.910156 L 268.746094 442.097656 L 268.78125 442.277344 L 268.824219 442.449219 L 268.878906 442.613281 L 268.941406 442.769531 L 269.015625 442.917969 L 269.097656 443.058594 L 269.191406 443.191406 L 269.292969 443.316406 L 269.402344 443.441406 L 269.515625 443.558594 L 269.628906 443.671875 L 269.75 443.777344 L 270 443.980469 L 270.265625 444.160156 L 270.40625 444.242188 L 270.550781 444.324219 L 270.691406 444.402344 L 270.835938 444.476562 L 270.976562 444.550781 L 271.25 444.691406 L 271.386719 444.757812 L 271.519531 444.824219 L 271.652344 444.886719 L 271.78125 444.945312 L 274.480469 446.132812 L 274.679688 446.222656 L 274.875 446.3125 L 275.066406 446.40625 L 275.253906 446.503906 L 275.441406 446.605469 L 275.800781 446.816406 L 275.976562 446.929688 L 276.148438 447.042969 L 276.316406 447.160156 L 276.488281 447.277344 L 276.648438 447.398438 L 276.804688 447.527344 L 276.953125 447.664062 L 277.09375 447.808594 L 277.226562 447.957031 L 277.355469 448.113281 L 277.476562 448.273438 L 277.589844 448.441406 L 277.695312 448.617188 L 277.796875 448.796875 L 277.890625 448.984375 L 277.96875 449.183594 L 278.039062 449.390625 L 278.097656 449.609375 L 278.148438 449.839844 L 278.1875 450.078125 L 278.214844 450.328125 L 278.230469 450.589844 L 278.234375 450.859375 L 278.226562 451.125 L 278.207031 451.390625 L 278.171875 451.648438 L 278.121094 451.898438 L 278.058594 452.148438 L 277.980469 452.390625 L 277.890625 452.628906 L 277.785156 452.863281 L 277.664062 453.089844 L 277.53125 453.316406 L 277.386719 453.527344 L 277.226562 453.730469 L 277.058594 453.921875 L 276.875 454.105469 L 276.683594 454.28125 L 276.476562 454.445312 L 276.257812 454.601562 L 276.027344 454.75 L 275.789062 454.886719 L 275.535156 455.015625 L 275.277344 455.132812 L 275.007812 455.238281 L 274.730469 455.332031 L 274.445312 455.414062 L 274.152344 455.480469 L 273.847656 455.539062 L 273.53125 455.582031 L 273.210938 455.613281 L 272.878906 455.632812 Z M 272.539062 455.636719 "/>
<path fill-rule="nonzero" fill="rgb(0%, 0%, 0%)" fill-opacity="1" d="M 286.632812 455.636719 L 286.300781 455.628906 L 285.976562 455.605469 L 285.65625 455.566406 L 285.34375 455.511719 L 285.039062 455.441406 L 284.738281 455.355469 L 284.445312 455.253906 L 284.160156 455.136719 L 283.878906 455.003906 L 283.609375 454.855469 L 283.347656 454.683594 L 283.101562 454.503906 L 282.863281 454.304688 L 282.636719 454.09375 L 282.417969 453.867188 L 282.214844 453.628906 L 282.019531 453.375 L 281.835938 453.109375 L 281.664062 452.828125 L 281.5 452.53125 L 281.359375 452.21875 L 281.230469 451.894531 L 281.117188 451.554688 L 281.019531 451.207031 L 280.933594 450.84375 L 280.867188 450.472656 L 280.8125 450.085938 L 280.777344 449.691406 L 280.753906 449.28125 L 280.746094 448.859375 L 280.753906 448.429688 L 280.777344 448.011719 L 280.820312 447.609375 L 280.875 447.21875 L 280.949219 446.84375 L 281.039062 446.480469 L 281.140625 446.128906 L 281.265625 445.792969 L 281.402344 445.46875 L 281.554688 445.160156 L 281.726562 444.859375 L 281.910156 444.574219 L 282.105469 444.304688 L 282.308594 444.050781 L 282.519531 443.8125 L 282.746094 443.585938 L 282.980469 443.378906 L 283.222656 443.183594 L 283.476562 443.003906 L 283.742188 442.839844 L 284.015625 442.683594 L 284.292969 442.546875 L 284.570312 442.425781 L 284.855469 442.320312 L 285.148438 442.230469 L 285.441406 442.160156 L 285.738281 442.101562 L 286.039062 442.0625 L 286.347656 442.039062 L 286.660156 442.03125 L 286.925781 442.035156 L 287.179688 442.050781 L 287.425781 442.074219 L 287.664062 442.105469 L 287.894531 442.152344 L 288.113281 442.203125 L 288.324219 442.265625 L 288.523438 442.339844 L 288.714844 442.421875 L 288.898438 442.515625 L 289.074219 442.613281 L 289.246094 442.714844 L 289.414062 442.820312 L 289.578125 442.925781 L 289.738281 443.035156 L 290.042969 443.261719 L 290.1875 443.378906 L 290.328125 443.5 L 290.464844 443.621094 L 289.761719 444.460938 L 289.636719 444.34375 L 289.507812 444.230469 L 289.378906 444.121094 L 289.246094 444.019531 L 289.109375 443.917969 L 288.96875 443.824219 L 288.828125 443.734375 L 288.683594 443.648438 L 288.535156 443.566406 L 288.386719 443.488281 L 288.234375 443.410156 L 288.078125 443.339844 L 287.914062 443.28125 L 287.75 443.226562 L 287.582031 443.183594 L 287.410156 443.148438 L 287.234375 443.117188 L 287.054688 443.097656 L 286.871094 443.085938 L 286.683594 443.082031 L 286.421875 443.089844 L 286.167969 443.113281 L 285.914062 443.148438 L 285.664062 443.199219 L 285.421875 443.265625 L 285.183594 443.34375 L 284.953125 443.441406 L 284.722656 443.550781 L 284.5 443.671875 L 284.28125 443.8125 L 284.078125 443.964844 L 283.878906 444.125 L 283.691406 444.300781 L 283.507812 444.484375 L 283.335938 444.683594 L 283.175781 444.890625 L 283.019531 445.109375 L 282.875 445.339844 L 282.738281 445.582031 L 282.609375 445.835938 L 282.492188 446.101562 L 282.386719 446.371094 L 282.292969 446.652344 L 282.210938 446.941406 L 282.144531 447.242188 L 282.085938 447.546875 L 282.042969 447.863281 L 282.011719 448.1875 L 281.992188 448.519531 L 281.988281 448.859375 L 281.992188 449.195312 L 282.011719 449.523438 L 282.039062 449.84375 L 282.078125 450.15625 L 282.128906 450.460938 L 282.191406 450.753906 L 282.265625 451.042969 L 282.351562 451.324219 L 282.445312 451.59375 L 282.554688 451.859375 L 282.679688 452.105469 L 282.808594 452.34375 L 282.953125 452.570312 L 283.101562 452.785156 L 283.261719 452.992188 L 283.433594 453.1875 L 283.609375 453.371094 L 283.796875 453.542969 L 283.996094 453.703125 L 284.203125 453.855469 L 284.421875 453.992188 L 284.648438 454.117188 L 284.878906 454.226562 L 285.117188 454.320312 L 285.363281 454.402344 L 285.613281 454.46875 L 285.871094 454.519531 L 286.136719 454.554688 L 286.40625 454.578125 L 286.683594 454.585938 L 286.890625 454.582031 L 287.089844 454.566406 L 287.285156 454.546875 L 287.480469 454.515625 L 287.671875 454.476562 L 287.859375 454.429688 L 288.042969 454.371094 L 288.222656 454.308594 L 288.402344 454.234375 L 288.574219 454.152344 L 288.75 454.058594 L 288.921875 453.964844 L 289.089844 453.863281 L 289.253906 453.761719 L 289.414062 453.660156 L 289.566406 453.554688 L 289.71875 453.445312 L 289.863281 453.332031 L 290.003906 453.21875 L 290.140625 453.097656 L 290.761719 453.9375 L 290.59375 454.078125 L 290.421875 454.21875 L 290.242188 454.351562 L 290.0625 454.480469 L 289.878906 454.605469 L 289.691406 454.722656 L 289.5 454.839844 L 289.300781 454.949219 L 289.101562 455.050781 L 288.898438 455.152344 L 288.691406 455.242188 L 288.480469 455.328125 L 288.265625 455.398438 L 288.042969 455.460938 L 287.820312 455.515625 L 287.589844 455.558594 L 287.355469 455.59375 L 287.121094 455.617188 L 286.878906 455.632812 Z M 286.632812 455.636719 "/>
<path fill-rule="nonzero" fill="rgb(0%, 0%, 0%)" fill-opacity="1" d="M 298.671875 455.636719 L 298.367188 455.628906 L 298.066406 455.605469 L 297.769531 455.566406 L 297.476562 455.511719 L 297.1875 455.441406 L 296.90625 455.355469 L 296.625 455.253906 L 296.347656 455.136719 L 296.078125 455.003906 L 295.8125 454.855469 L 295.550781 454.683594 L 295.304688 454.503906 L 295.0625 454.304688 L 294.835938 454.09375 L 294.617188 453.867188 L 294.410156 453.628906 L 294.210938 453.375 L 294.023438 453.109375 L 293.84375 452.828125 L 293.679688 452.53125 L 293.523438 452.21875 L 293.386719 451.894531 L 293.265625 451.554688 L 293.160156 451.207031 L 293.070312 450.84375 L 293 450.472656 L 292.941406 450.085938 L 292.902344 449.691406 L 292.875 449.28125 L 292.867188 448.859375 L 292.875 448.429688 L 292.902344 448.011719 L 292.941406 447.609375 L 293 447.21875 L 293.070312 446.84375 L 293.160156 446.480469 L 293.265625 446.128906 L 293.386719 445.792969 L 293.523438 445.46875 L 293.679688 445.160156 L 293.84375 444.859375 L 294.023438 444.574219 L 294.210938 444.304688 L 294.410156 444.050781 L 294.617188 443.8125 L 294.835938 443.585938 L 295.0625 443.378906 L 295.304688 443.183594 L 295.550781 443.003906 L 295.8125 442.839844 L 296.078125 442.683594 L 296.347656 442.546875 L 296.625 442.425781 L 296.90625 442.320312 L 297.1875 442.230469 L 297.476562 442.160156 L 297.769531 442.101562 L 298.066406 442.0625 L 298.367188 442.039062 L 298.671875 442.03125 L 298.984375 442.039062 L 299.289062 442.0625 L 299.589844 442.101562 L 299.886719 442.160156 L 300.179688 442.230469 L 300.464844 442.320312 L 300.746094 442.425781 L 301.023438 442.546875 L 301.296875 442.683594 L 301.5625 442.839844 L 301.820312 443.003906 L 302.070312 443.183594 L 302.308594 443.378906 L 302.539062 443.585938 L 302.757812 443.8125 L 302.964844 444.050781 L 303.164062 444.304688 L 303.351562 444.574219 L 303.527344 444.859375 L 303.695312 445.160156 L 303.847656 445.46875 L 303.988281 445.792969 L 304.109375 446.128906 L 304.214844 446.480469 L 304.304688 446.84375 L 304.375 447.21875 L 304.433594 447.609375 L 304.472656 448.011719 L 304.496094 448.429688 L 304.503906 448.859375 L 304.496094 449.28125 L 304.472656 449.691406 L 304.433594 450.085938 L 304.375 450.472656 L 304.304688 450.84375 L 304.214844 451.207031 L 304.109375 451.554688 L 303.988281 451.894531 L 303.847656 452.21875 L 303.695312 452.53125 L 303.527344 452.828125 L 303.351562 453.109375 L 303.164062 453.375 L 302.964844 453.628906 L 302.757812 453.867188 L 302.539062 454.09375 L 302.308594 454.304688 L 302.070312 454.503906 L 301.820312 454.683594 L 301.5625 454.855469 L 301.296875 455.003906 L 301.023438 455.136719 L 300.746094 455.253906 L 300.464844 455.355469 L 300.179688 455.441406 L 299.886719 455.511719 L 299.589844 455.566406 L 299.289062 455.605469 L 298.984375 455.628906 Z M 298.671875 454.585938 L 298.933594 454.578125 L 299.191406 454.554688 L 299.441406 454.519531 L 299.683594 454.46875 L 299.921875 454.402344 L 300.152344 454.320312 L 300.378906 454.226562 L 300.601562 454.117188 L 300.8125 453.992188 L 301.023438 453.855469 L 301.222656 453.703125 L 301.414062 453.542969 L 301.597656 453.371094 L 301.773438 453.1875 L 301.941406 452.992188 L 302.097656 452.785156 L 302.246094 452.570312 L 302.386719 452.34375 L 302.519531 452.105469 L 302.640625 451.859375 L 302.761719 451.59375 L 302.867188 451.324219 L 302.960938 451.042969 L 303.039062 450.753906 L 303.109375 450.460938 L 303.164062 450.15625 L 303.207031 449.84375 L 303.238281 449.523438 L 303.257812 449.195312 L 303.261719 448.859375 L 303.257812 448.519531 L 303.238281 448.1875 L 303.207031 447.863281 L 303.164062 447.546875 L 303.109375 447.242188 L 303.039062 446.941406 L 302.960938 446.652344 L 302.867188 446.371094 L 302.761719 446.101562 L 302.640625 445.835938 L 302.519531 445.582031 L 302.386719 445.339844 L 302.246094 445.109375 L 302.097656 444.890625 L 301.941406 444.683594 L 301.773438 444.484375 L 301.597656 444.300781 L 301.414062 444.125 L 301.222656 443.964844 L 301.023438 443.8125 L 300.8125 443.671875 L 300.601562 443.550781 L 300.378906 443.441406 L 300.152344 443.34375 L 299.921875 443.265625 L 299.683594 443.199219 L 299.441406 443.148438 L 299.191406 443.113281 L 298.933594 443.089844 L 298.671875 443.082031 L 298.417969 443.089844 L 298.164062 443.113281 L 297.917969 443.148438 L 297.675781 443.199219 L 297.4375 443.265625 L 297.207031 443.34375 L 296.976562 443.441406 L 296.753906 443.550781 L 296.539062 443.671875 L 296.324219 443.8125 L 296.125 443.964844 L 295.929688 444.125 L 295.746094 444.300781 L 295.574219 444.484375 L 295.40625 444.683594 L 295.25 444.890625 L 295.101562 445.109375 L 294.960938 445.339844 L 294.828125 445.582031 L 294.703125 445.835938 L 294.589844 446.101562 L 294.492188 446.371094 L 294.402344 446.652344 L 294.324219 446.941406 L 294.257812 447.242188 L 294.207031 447.546875 L 294.164062 447.863281 L 294.132812 448.1875 L 294.117188 448.519531 L 294.109375 448.859375 L 294.117188 449.195312 L 294.132812 449.523438 L 294.164062 449.84375 L 294.207031 450.15625 L 294.257812 450.460938 L 294.324219 450.753906 L 294.402344 451.042969 L 294.492188 451.324219 L 294.589844 451.59375 L 294.703125 451.859375 L 294.828125 452.105469 L 294.960938 452.34375 L 295.101562 452.570312 L 295.25 452.785156 L 295.40625 452.992188 L 295.574219 453.1875 L 295.746094 453.371094 L 295.929688 453.542969 L 296.125 453.703125 L 296.324219 453.855469 L 296.539062 453.992188 L 296.753906 454.117188 L 296.976562 454.226562 L 297.207031 454.320312 L 297.4375 454.402344 L 297.675781 454.46875 L 297.917969 454.519531 L 298.164062 454.554688 L 298.417969 454.578125 Z M 298.671875 454.585938 "/>
<path fill-rule="nonzero" fill="rgb(0%, 0%, 0%)" fill-opacity="1" d="M 308.394531 455.3125 L 308.394531 442.351562 L 309.417969 442.351562 L 309.527344 444.757812 L 309.609375 444.757812 L 309.742188 444.523438 L 309.878906 444.296875 L 310.023438 444.082031 L 310.171875 443.875 L 310.324219 443.675781 L 310.484375 443.488281 L 310.648438 443.304688 L 310.816406 443.132812 L 310.992188 442.96875 L 311.175781 442.8125 L 311.367188 442.664062 L 311.5625 442.53125 L 311.761719 442.414062 L 311.964844 442.3125 L 312.171875 442.226562 L 312.386719 442.15625 L 312.601562 442.101562 L 312.824219 442.0625 L 313.050781 442.039062 L 313.28125 442.03125 L 313.429688 442.03125 L 313.570312 442.039062 L 313.636719 442.042969 L 313.703125 442.050781 L 313.769531 442.054688 L 313.832031 442.0625 L 313.894531 442.074219 L 313.957031 442.082031 L 314.015625 442.09375 L 314.074219 442.109375 L 314.136719 442.125 L 314.199219 442.144531 L 314.257812 442.164062 L 314.382812 442.210938 L 314.449219 442.238281 L 314.511719 442.269531 L 314.578125 442.300781 L 314.304688 443.378906 L 314.242188 443.355469 L 314.179688 443.328125 L 314.121094 443.308594 L 314.058594 443.289062 L 314.003906 443.269531 L 313.945312 443.257812 L 313.894531 443.242188 L 313.839844 443.234375 L 313.789062 443.222656 L 313.738281 443.21875 L 313.691406 443.207031 L 313.582031 443.191406 L 313.523438 443.183594 L 313.460938 443.175781 L 313.398438 443.171875 L 313.265625 443.164062 L 313.117188 443.164062 L 312.945312 443.171875 L 312.769531 443.195312 L 312.589844 443.230469 L 312.410156 443.285156 L 312.226562 443.351562 L 312.042969 443.4375 L 311.855469 443.535156 L 311.667969 443.648438 L 311.476562 443.777344 L 311.28125 443.917969 L 311.09375 444.078125 L 310.910156 444.253906 L 310.734375 444.457031 L 310.558594 444.679688 L 310.386719 444.925781 L 310.214844 445.191406 L 310.050781 445.484375 L 309.890625 445.792969 L 309.734375 446.128906 L 309.582031 446.484375 L 309.582031 455.3125 Z M 308.394531 455.3125 "/>
<path fill-rule="nonzero" fill="rgb(0%, 0%, 0%)" fill-opacity="1" d="M 321.867188 455.636719 L 321.539062 455.628906 L 321.21875 455.605469 L 320.902344 455.566406 L 320.59375 455.507812 L 320.285156 455.433594 L 319.988281 455.347656 L 319.691406 455.242188 L 319.402344 455.117188 L 319.121094 454.980469 L 318.84375 454.828125 L 318.578125 454.660156 L 318.324219 454.476562 L 318.082031 454.277344 L 317.847656 454.066406 L 317.628906 453.84375 L 317.417969 453.601562 L 317.21875 453.347656 L 317.027344 453.082031 L 316.851562 452.800781 L 316.683594 452.503906 L 316.527344 452.191406 L 316.390625 451.867188 L 316.269531 451.53125 L 316.164062 451.183594 L 316.074219 450.824219 L 316.003906 450.453125 L 315.945312 450.074219 L 315.90625 449.679688 L 315.878906 449.277344 L 315.871094 448.859375 L 315.878906 448.441406 L 315.90625 448.03125 L 315.945312 447.636719 L 316.003906 447.253906 L 316.074219 446.882812 L 316.164062 446.523438 L 316.269531 446.179688 L 316.390625 445.84375 L 316.527344 445.523438 L 316.683594 445.214844 L 316.847656 444.914062 L 317.027344 444.628906 L 317.210938 444.359375 L 317.410156 444.101562 L 317.613281 443.859375 L 317.828125 443.632812 L 318.054688 443.417969 L 318.289062 443.21875 L 318.535156 443.035156 L 318.789062 442.867188 L 319.050781 442.707031 L 319.3125 442.566406 L 319.578125 442.441406 L 319.847656 442.332031 L 320.117188 442.238281 L 320.390625 442.164062 L 320.667969 442.105469 L 320.949219 442.0625 L 321.230469 442.039062 L 321.515625 442.03125 L 321.96875 442.046875 L 322.40625 442.09375 L 322.820312 442.171875 L 323.214844 442.28125 L 323.585938 442.421875 L 323.941406 442.59375 L 324.277344 442.796875 L 324.589844 443.03125 L 324.886719 443.296875 L 325.160156 443.59375 L 325.410156 443.921875 L 325.636719 444.273438 L 325.835938 444.652344 L 326.007812 445.054688 L 326.152344 445.484375 L 326.273438 445.941406 L 326.363281 446.421875 L 326.429688 446.929688 L 326.46875 447.464844 L 326.484375 448.023438 L 326.484375 448.121094 L 326.480469 448.167969 L 326.480469 448.21875 L 326.476562 448.265625 L 326.472656 448.316406 L 326.46875 448.363281 L 326.464844 448.414062 L 326.457031 448.507812 L 326.457031 448.558594 L 326.453125 448.605469 L 326.453125 448.65625 L 326.449219 448.703125 L 326.441406 448.753906 L 326.4375 448.800781 L 326.429688 448.851562 L 326.414062 448.945312 L 326.402344 448.996094 L 317.085938 448.996094 L 317.097656 449.316406 L 317.121094 449.628906 L 317.15625 449.9375 L 317.199219 450.234375 L 317.257812 450.527344 L 317.324219 450.8125 L 317.402344 451.089844 L 317.492188 451.363281 L 317.59375 451.628906 L 317.707031 451.882812 L 317.835938 452.132812 L 317.976562 452.371094 L 318.121094 452.597656 L 318.277344 452.8125 L 318.445312 453.019531 L 318.617188 453.210938 L 318.804688 453.394531 L 318.996094 453.570312 L 319.199219 453.730469 L 319.410156 453.882812 L 319.632812 454.019531 L 319.867188 454.144531 L 320.105469 454.253906 L 320.351562 454.347656 L 320.605469 454.429688 L 320.863281 454.496094 L 321.132812 454.546875 L 321.40625 454.582031 L 321.6875 454.605469 L 321.972656 454.613281 L 322.183594 454.609375 L 322.386719 454.597656 L 322.585938 454.582031 L 322.78125 454.558594 L 322.972656 454.53125 L 323.160156 454.496094 L 323.34375 454.453125 L 323.519531 454.402344 L 323.695312 454.347656 L 323.863281 454.289062 L 324.035156 454.222656 L 324.371094 454.074219 L 324.535156 453.996094 L 324.695312 453.917969 L 324.851562 453.832031 L 325.007812 453.742188 L 325.160156 453.648438 L 325.308594 453.550781 L 325.457031 453.449219 L 325.945312 454.367188 L 325.789062 454.460938 L 325.632812 454.550781 L 325.472656 454.640625 L 325.308594 454.726562 L 325.140625 454.8125 L 324.96875 454.898438 L 324.792969 454.984375 L 324.613281 455.066406 L 324.429688 455.152344 L 324.242188 455.234375 L 324.046875 455.308594 L 323.84375 455.378906 L 323.632812 455.4375 L 323.410156 455.492188 L 323.175781 455.535156 L 322.933594 455.574219 L 322.679688 455.601562 L 322.417969 455.621094 L 322.148438 455.632812 Z M 317.085938 448.023438 L 325.347656 448.023438 L 325.339844 447.539062 L 325.308594 447.078125 L 325.257812 446.644531 L 325.183594 446.234375 L 325.09375 445.851562 L 324.980469 445.488281 L 324.847656 445.15625 L 324.691406 444.84375 L 324.519531 444.558594 L 324.324219 444.296875 L 324.109375 444.0625 L 323.882812 443.851562 L 323.640625 443.664062 L 323.386719 443.503906 L 323.117188 443.367188 L 322.828125 443.253906 L 322.53125 443.167969 L 322.214844 443.105469 L 321.886719 443.066406 L 321.542969 443.054688 L 321.324219 443.0625 L 321.105469 443.078125 L 320.890625 443.109375 L 320.679688 443.152344 L 320.46875 443.203125 L 320.261719 443.269531 L 320.058594 443.347656 L 319.859375 443.4375 L 319.660156 443.535156 L 319.464844 443.648438 L 319.277344 443.773438 L 319.097656 443.90625 L 318.921875 444.050781 L 318.753906 444.207031 L 318.59375 444.371094 L 318.4375 444.546875 L 318.285156 444.730469 L 318.140625 444.929688 L 318.003906 445.132812 L 317.871094 445.351562 L 317.746094 445.578125 L 317.632812 445.8125 L 317.527344 446.054688 L 317.433594 446.308594 L 317.351562 446.570312 L 317.277344 446.84375 L 317.214844 447.125 L 317.160156 447.414062 L 317.121094 447.714844 Z M 317.085938 448.023438 "/>
<path fill-rule="nonzero" fill="rgb(0%, 0%, 0%)" fill-opacity="1" d="M 338.847656 460.039062 L 338.527344 459.496094 L 338.21875 458.949219 L 337.921875 458.394531 L 337.640625 457.835938 L 337.371094 457.269531 L 337.117188 456.703125 L 336.875 456.125 L 336.644531 455.546875 L 336.433594 454.960938 L 336.230469 454.367188 L 336.050781 453.761719 L 335.890625 453.148438 L 335.75 452.519531 L 335.625 451.878906 L 335.523438 451.230469 L 335.4375 450.566406 L 335.371094 449.894531 L 335.324219 449.210938 L 335.296875 448.515625 L 335.285156 447.808594 L 335.296875 447.101562 L 335.324219 446.40625 L 335.371094 445.722656 L 335.4375 445.050781 L 335.523438 444.390625 L 335.625 443.746094 L 335.75 443.109375 L 335.890625 442.484375 L 336.050781 441.875 L 336.230469 441.273438 L 336.433594 440.675781 L 336.644531 440.085938 L 336.875 439.503906 L 337.117188 438.921875 L 337.371094 438.351562 L 337.640625 437.785156 L 337.921875 437.222656 L 338.21875 436.667969 L 338.527344 436.121094 L 338.847656 435.578125 L 339.578125 436.007812 L 339.265625 436.519531 L 338.972656 437.042969 L 338.691406 437.574219 L 338.425781 438.117188 L 338.175781 438.667969 L 337.9375 439.230469 L 337.71875 439.800781 L 337.511719 440.378906 L 337.324219 440.96875 L 337.148438 441.570312 L 336.996094 442.175781 L 336.855469 442.789062 L 336.734375 443.402344 L 336.628906 444.019531 L 336.542969 444.640625 L 336.46875 445.265625 L 336.410156 445.898438 L 336.371094 446.53125 L 336.347656 447.167969 L 336.339844 447.808594 L 336.347656 448.441406 L 336.371094 449.074219 L 336.410156 449.703125 L 336.46875 450.332031 L 336.542969 450.953125 L 336.628906 451.574219 L 336.734375 452.1875 L 336.855469 452.800781 L 336.996094 453.410156 L 337.148438 454.015625 L 337.324219 454.617188 L 337.511719 455.207031 L 337.71875 455.789062 L 337.9375 456.363281 L 338.175781 456.925781 L 338.425781 457.480469 L 338.691406 458.027344 L 338.972656 458.5625 L 339.265625 459.089844 L 339.578125 459.605469 Z M 338.847656 460.039062 "/>
<path fill-rule="nonzero" fill="rgb(0%, 0%, 0%)" fill-opacity="1" d="M 340.902344 455.3125 L 346.246094 446.105469 L 341.28125 437.519531 L 342.628906 437.519531 L 345.546875 442.757812 L 345.621094 442.878906 L 345.695312 442.996094 L 345.765625 443.113281 L 345.839844 443.230469 L 345.910156 443.34375 L 345.980469 443.460938 L 346.046875 443.578125 L 346.117188 443.691406 L 346.183594 443.804688 L 346.246094 443.917969 L 346.3125 444.03125 L 346.382812 444.144531 L 346.453125 444.261719 L 346.523438 444.382812 L 346.597656 444.507812 L 346.675781 444.636719 L 346.753906 444.769531 L 346.917969 445.042969 L 347.003906 445.1875 L 347.113281 445.1875 L 347.1875 445.042969 L 347.257812 444.90625 L 347.332031 444.769531 L 347.402344 444.636719 L 347.46875 444.507812 L 347.535156 444.382812 L 347.601562 444.261719 L 347.664062 444.144531 L 347.726562 444.03125 L 347.785156 443.917969 L 347.847656 443.804688 L 347.90625 443.691406 L 347.96875 443.578125 L 348.03125 443.460938 L 348.097656 443.34375 L 348.164062 443.230469 L 348.363281 442.878906 L 348.433594 442.757812 L 351.351562 437.519531 L 352.621094 437.519531 L 347.652344 446.160156 L 352.996094 455.3125 L 351.648438 455.3125 L 348.542969 449.859375 L 348.472656 449.722656 L 348.398438 449.589844 L 348.328125 449.453125 L 348.253906 449.320312 L 348.179688 449.183594 L 348.101562 449.050781 L 348.023438 448.914062 L 347.945312 448.78125 L 347.867188 448.644531 L 347.785156 448.507812 L 347.703125 448.375 L 347.621094 448.234375 L 347.535156 448.09375 L 347.449219 447.949219 L 347.269531 447.652344 L 347.179688 447.5 L 347.085938 447.34375 L 346.992188 447.183594 L 346.894531 447.023438 L 346.789062 447.023438 L 346.617188 447.34375 L 346.535156 447.5 L 346.453125 447.652344 L 346.296875 447.949219 L 346.222656 448.09375 L 346.074219 448.375 L 346.003906 448.507812 L 345.863281 448.78125 L 345.792969 448.914062 L 345.71875 449.050781 L 345.648438 449.183594 L 345.574219 449.320312 L 345.5 449.453125 L 345.425781 449.589844 L 345.351562 449.722656 L 345.277344 449.859375 L 342.171875 455.3125 Z M 340.902344 455.3125 "/>
<path fill-rule="nonzero" fill="rgb(0%, 0%, 0%)" fill-opacity="1" d="M 355.050781 460.039062 L 354.320312 459.605469 L 354.632812 459.089844 L 354.925781 458.5625 L 355.207031 458.027344 L 355.46875 457.480469 L 355.71875 456.925781 L 355.949219 456.363281 L 356.167969 455.789062 L 356.367188 455.207031 L 356.554688 454.617188 L 356.722656 454.015625 L 356.882812 453.410156 L 357.023438 452.800781 L 357.152344 452.1875 L 357.257812 451.574219 L 357.351562 450.953125 L 357.425781 450.332031 L 357.484375 449.703125 L 357.527344 449.074219 L 357.550781 448.441406 L 357.558594 447.808594 L 357.550781 447.167969 L 357.527344 446.53125 L 357.484375 445.898438 L 357.425781 445.265625 L 357.351562 444.640625 L 357.257812 444.019531 L 357.152344 443.402344 L 357.023438 442.789062 L 356.882812 442.175781 L 356.722656 441.570312 L 356.554688 440.96875 L 356.367188 440.378906 L 356.167969 439.800781 L 355.949219 439.230469 L 355.71875 438.667969 L 355.46875 438.117188 L 355.207031 437.574219 L 354.925781 437.042969 L 354.632812 436.519531 L 354.320312 436.007812 L 355.050781 435.578125 L 355.378906 436.121094 L 355.691406 436.667969 L 355.988281 437.222656 L 356.273438 437.785156 L 356.542969 438.351562 L 356.796875 438.921875 L 357.035156 439.503906 L 357.261719 440.085938 L 357.472656 440.675781 L 357.667969 441.273438 L 357.847656 441.875 L 358.007812 442.484375 L 358.152344 443.109375 L 358.273438 443.746094 L 358.378906 444.390625 L 358.460938 445.050781 L 358.527344 445.722656 L 358.574219 446.40625 L 358.605469 447.101562 L 358.613281 447.808594 L 358.605469 448.515625 L 358.574219 449.210938 L 358.527344 449.894531 L 358.460938 450.566406 L 358.378906 451.230469 L 358.273438 451.878906 L 358.152344 452.519531 L 358.007812 453.148438 L 357.847656 453.761719 L 357.667969 454.367188 L 357.472656 454.960938 L 357.261719 455.546875 L 357.035156 456.125 L 356.796875 456.703125 L 356.542969 457.269531 L 356.273438 457.835938 L 355.988281 458.394531 L 355.691406 458.949219 L 355.378906 459.496094 Z M 355.050781 460.039062 "/>
<path fill-rule="nonzero" fill="rgb(0%, 0%, 0%)" fill-opacity="1" d="M 44.027344 274.570312 L 43.347656 274.972656 L 42.664062 275.359375 L 41.972656 275.730469 L 41.273438 276.082031 L 40.566406 276.417969 L 39.855469 276.738281 L 39.136719 277.039062 L 38.410156 277.324219 L 37.679688 277.59375 L 36.941406 277.84375 L 36.183594 278.070312 L 35.414062 278.269531 L 34.628906 278.445312 L 33.828125 278.601562 L 33.015625 278.730469 L 32.1875 278.835938 L 31.347656 278.917969 L 30.492188 278.976562 L 29.621094 279.015625 L 28.738281 279.027344 L 27.855469 279.015625 L 26.984375 278.976562 L 26.132812 278.917969 L 25.292969 278.835938 L 24.46875 278.730469 L 23.660156 278.601562 L 22.863281 278.445312 L 22.085938 278.269531 L 21.320312 278.070312 L 20.570312 277.84375 L 19.824219 277.59375 L 19.085938 277.324219 L 18.355469 277.039062 L 17.632812 276.738281 L 16.917969 276.417969 L 16.207031 276.082031 L 15.507812 275.730469 L 14.8125 275.359375 L 14.128906 274.972656 L 13.449219 274.570312 L 13.988281 273.660156 L 14.628906 274.046875 L 15.28125 274.417969 L 15.949219 274.769531 L 16.625 275.101562 L 17.3125 275.414062 L 18.015625 275.707031 L 18.730469 275.984375 L 19.453125 276.242188 L 20.191406 276.476562 L 20.941406 276.695312 L 21.699219 276.890625 L 22.464844 277.0625 L 23.230469 277.214844 L 24.003906 277.34375 L 24.78125 277.457031 L 25.5625 277.546875 L 26.351562 277.617188 L 27.140625 277.667969 L 27.9375 277.699219 L 28.738281 277.710938 L 29.53125 277.699219 L 30.324219 277.667969 L 31.109375 277.617188 L 31.890625 277.546875 L 32.671875 277.457031 L 33.445312 277.34375 L 34.214844 277.214844 L 34.980469 277.0625 L 35.742188 276.890625 L 36.5 276.695312 L 37.25 276.476562 L 37.988281 276.242188 L 38.71875 275.984375 L 39.433594 275.707031 L 40.136719 275.414062 L 40.832031 275.101562 L 41.511719 274.769531 L 42.179688 274.417969 L 42.839844 274.046875 L 43.488281 273.660156 Z M 44.027344 274.570312 "/>
<path fill-rule="nonzero" fill="rgb(0%, 0%, 0%)" fill-opacity="1" d="M 38.121094 267.179688 L 30.910156 267.179688 L 20.328125 272.5 L 20.328125 271.175781 L 25.890625 268.476562 L 26.082031 268.382812 L 26.277344 268.292969 L 26.46875 268.199219 L 26.664062 268.109375 L 26.855469 268.015625 L 27.046875 267.925781 L 27.238281 267.832031 L 27.425781 267.742188 L 27.617188 267.648438 L 27.808594 267.558594 L 27.996094 267.464844 L 28.378906 267.277344 L 28.570312 267.179688 L 28.765625 267.085938 L 28.960938 266.988281 L 29.15625 266.886719 L 29.351562 266.789062 L 29.75 266.585938 L 29.75 266.476562 L 29.351562 266.273438 L 28.960938 266.070312 L 28.765625 265.972656 L 28.570312 265.871094 L 28.378906 265.773438 L 28.1875 265.671875 L 27.996094 265.574219 L 27.808594 265.476562 L 27.617188 265.382812 L 27.425781 265.285156 L 27.238281 265.191406 L 26.855469 265.003906 L 26.664062 264.914062 L 26.46875 264.824219 L 26.277344 264.734375 L 26.082031 264.648438 L 25.890625 264.558594 L 20.328125 261.859375 L 20.328125 260.589844 L 30.910156 265.9375 L 38.121094 265.9375 Z M 38.121094 267.179688 "/>
<path fill-rule="nonzero" fill="rgb(0%, 0%, 0%)" fill-opacity="1" d="M 42.65625 258.773438 L 33.585938 258.773438 L 33.585938 257.941406 L 42.65625 257.941406 Z M 31.390625 258.335938 L 31.390625 258.394531 L 31.382812 258.453125 L 31.375 258.507812 L 31.359375 258.5625 L 31.339844 258.617188 L 31.316406 258.664062 L 31.289062 258.714844 L 31.257812 258.761719 L 31.222656 258.804688 L 31.183594 258.847656 L 31.140625 258.886719 L 31.09375 258.921875 L 31.046875 258.953125 L 30.992188 258.980469 L 30.9375 259.003906 L 30.878906 259.023438 L 30.820312 259.035156 L 30.753906 259.046875 L 30.6875 259.054688 L 30.554688 259.054688 L 30.492188 259.046875 L 30.433594 259.035156 L 30.378906 259.023438 L 30.324219 259.003906 L 30.273438 258.980469 L 30.222656 258.953125 L 30.175781 258.921875 L 30.132812 258.886719 L 30.089844 258.847656 L 30.046875 258.804688 L 30.011719 258.761719 L 29.980469 258.714844 L 29.957031 258.664062 L 29.933594 258.617188 L 29.914062 258.5625 L 29.898438 258.507812 L 29.890625 258.453125 L 29.882812 258.394531 L 29.878906 258.335938 L 29.882812 258.273438 L 29.898438 258.15625 L 29.914062 258.101562 L 29.933594 258.046875 L 29.980469 257.953125 L 30.011719 257.90625 L 30.046875 257.867188 L 30.089844 257.828125 L 30.132812 257.785156 L 30.175781 257.75 L 30.222656 257.71875 L 30.324219 257.671875 L 30.378906 257.652344 L 30.433594 257.636719 L 30.492188 257.625 L 30.617188 257.617188 L 30.6875 257.621094 L 30.753906 257.625 L 30.820312 257.636719 L 30.878906 257.652344 L 30.9375 257.671875 L 31.046875 257.71875 L 31.09375 257.75 L 31.140625 257.785156 L 31.222656 257.867188 L 31.257812 257.90625 L 31.289062 257.953125 L 31.316406 258 L 31.339844 258.046875 L 31.359375 258.101562 L 31.375 258.15625 L 31.390625 258.273438 Z M 31.390625 258.335938 "/>
<path fill-rule="nonzero" fill="rgb(0%, 0%, 0%)" fill-opacity="1" d="M 44.027344 248.757812 L 43.347656 249.160156 L 42.664062 249.546875 L 41.972656 249.917969 L 41.273438 250.269531 L 40.566406 250.605469 L 39.855469 250.925781 L 39.136719 251.226562 L 38.410156 251.511719 L 37.679688 251.78125 L 36.941406 252.03125 L 36.183594 252.253906 L 35.414062 252.457031 L 34.628906 252.632812 L 33.828125 252.785156 L 33.015625 252.917969 L 32.1875 253.023438 L 31.347656 253.105469 L 30.492188 253.164062 L 29.621094 253.199219 L 28.738281 253.210938 L 27.855469 253.199219 L 26.984375 253.164062 L 26.132812 253.105469 L 25.292969 253.023438 L 24.46875 252.917969 L 23.660156 252.785156 L 22.863281 252.632812 L 22.085938 252.457031 L 21.320312 252.253906 L 20.570312 252.03125 L 19.824219 251.78125 L 19.085938 251.511719 L 18.355469 251.226562 L 17.632812 250.925781 L 16.917969 250.605469 L 16.207031 250.269531 L 15.507812 249.917969 L 14.8125 249.546875 L 14.128906 249.160156 L 13.449219 248.757812 L 13.988281 247.847656 L 14.628906 248.234375 L 15.28125 248.605469 L 15.949219 248.957031 L 16.625 249.289062 L 17.3125 249.601562 L 18.015625 249.894531 L 18.730469 250.171875 L 19.453125 250.425781 L 20.191406 250.664062 L 20.941406 250.882812 L 21.699219 251.074219 L 22.464844 251.246094 L 23.230469 251.398438 L 24.003906 251.53125 L 24.78125 251.644531 L 25.5625 251.734375 L 26.351562 251.804688 L 27.140625 251.855469 L 27.9375 251.886719 L 28.738281 251.894531 L 29.53125 251.886719 L 30.324219 251.855469 L 31.109375 251.804688 L 31.890625 251.734375 L 32.671875 251.644531 L 33.445312 251.53125 L 34.214844 251.398438 L 34.980469 251.246094 L 35.742188 251.074219 L 36.5 250.882812 L 37.25 250.664062 L 37.988281 250.425781 L 38.71875 250.171875 L 39.433594 249.894531 L 40.136719 249.601562 L 40.832031 249.289062 L 41.511719 248.957031 L 42.179688 248.605469 L 42.839844 248.234375 L 43.488281 247.847656 Z M 44.027344 248.757812 "/>
<path fill-rule="nonzero" fill="rgb(0%, 0%, 0%)" fill-opacity="1" d="M 38.121094 244.496094 L 37.066406 244.496094 L 37.066406 240.449219 L 22.757812 240.449219 L 22.757812 243.527344 L 21.949219 243.527344 L 21.910156 243.316406 L 21.867188 243.113281 L 21.828125 242.914062 L 21.785156 242.71875 L 21.738281 242.527344 L 21.691406 242.339844 L 21.644531 242.15625 L 21.542969 241.804688 L 21.488281 241.636719 L 21.433594 241.472656 L 21.378906 241.3125 L 21.320312 241.15625 L 21.261719 241.003906 L 21.199219 240.859375 L 21.136719 240.71875 L 21.070312 240.582031 L 21.003906 240.453125 L 20.9375 240.328125 L 20.867188 240.203125 L 20.867188 239.234375 L 37.066406 239.234375 L 37.066406 235.480469 L 38.121094 235.480469 Z M 38.121094 244.496094 "/>
<path fill-rule="nonzero" fill="rgb(0%, 0%, 0%)" fill-opacity="1" d="M 44.027344 231.839844 L 43.488281 232.753906 L 42.839844 232.363281 L 42.179688 231.996094 L 41.511719 231.644531 L 40.832031 231.316406 L 40.136719 231.007812 L 39.433594 230.714844 L 38.71875 230.445312 L 37.988281 230.195312 L 37.25 229.960938 L 36.5 229.75 L 35.742188 229.550781 L 34.980469 229.371094 L 34.214844 229.214844 L 33.445312 229.078125 L 32.671875 228.964844 L 31.890625 228.871094 L 31.109375 228.796875 L 30.324219 228.746094 L 29.53125 228.714844 L 28.738281 228.703125 L 27.9375 228.714844 L 27.140625 228.746094 L 26.351562 228.796875 L 25.5625 228.871094 L 24.78125 228.964844 L 24.003906 229.078125 L 23.230469 229.214844 L 22.464844 229.371094 L 21.699219 229.550781 L 20.941406 229.75 L 20.191406 229.960938 L 19.453125 230.195312 L 18.730469 230.445312 L 18.015625 230.714844 L 17.3125 231.007812 L 16.625 231.316406 L 15.949219 231.644531 L 15.28125 231.996094 L 14.628906 232.363281 L 13.988281 232.753906 L 13.449219 231.839844 L 14.128906 231.433594 L 14.8125 231.042969 L 15.507812 230.667969 L 16.207031 230.3125 L 16.917969 229.976562 L 17.632812 229.660156 L 18.355469 229.359375 L 19.085938 229.078125 L 19.824219 228.8125 L 20.570312 228.566406 L 21.320312 228.34375 L 22.085938 228.144531 L 22.863281 227.964844 L 23.660156 227.8125 L 24.46875 227.683594 L 25.292969 227.574219 L 26.132812 227.492188 L 26.984375 227.433594 L 27.855469 227.398438 L 28.738281 227.386719 L 29.621094 227.398438 L 30.492188 227.433594 L 31.347656 227.492188 L 32.1875 227.574219 L 33.015625 227.683594 L 33.828125 227.8125 L 34.628906 227.964844 L 35.414062 228.144531 L 36.183594 228.34375 L 36.941406 228.566406 L 37.679688 228.8125 L 38.410156 229.078125 L 39.136719 229.359375 L 39.855469 229.660156 L 40.566406 229.976562 L 41.273438 230.3125 L 41.972656 230.667969 L 42.664062 231.042969 L 43.347656 231.433594 Z M 44.027344 231.839844 "/>
<path fill-rule="nonzero" fill="rgb(0%, 0%, 0%)" fill-opacity="1" d="M 42.304688 222.742188 L 41.496094 223.121094 L 41.394531 222.933594 L 41.285156 222.757812 L 41.171875 222.585938 L 41.046875 222.425781 L 40.914062 222.269531 L 40.777344 222.121094 L 40.628906 221.984375 L 40.476562 221.851562 L 40.316406 221.726562 L 40.144531 221.609375 L 39.976562 221.5 L 39.800781 221.40625 L 39.621094 221.320312 L 39.4375 221.246094 L 39.25 221.183594 L 39.054688 221.132812 L 38.855469 221.09375 L 38.652344 221.0625 L 38.441406 221.046875 L 38.230469 221.042969 L 38.25 221.121094 L 38.25 221.140625 L 38.253906 221.15625 L 38.253906 221.457031 L 38.242188 221.546875 L 38.230469 221.632812 L 38.207031 221.714844 L 38.179688 221.796875 L 38.148438 221.878906 L 38.109375 221.957031 L 38.066406 222.03125 L 38.015625 222.105469 L 37.957031 222.175781 L 37.898438 222.238281 L 37.832031 222.292969 L 37.757812 222.339844 L 37.683594 222.382812 L 37.601562 222.417969 L 37.515625 222.449219 L 37.425781 222.46875 L 37.328125 222.488281 L 37.226562 222.496094 L 37.121094 222.5 L 37.015625 222.496094 L 36.914062 222.484375 L 36.820312 222.46875 L 36.730469 222.445312 L 36.640625 222.410156 L 36.5625 222.375 L 36.484375 222.328125 L 36.414062 222.273438 L 36.347656 222.214844 L 36.285156 222.148438 L 36.226562 222.074219 L 36.132812 221.917969 L 36.09375 221.835938 L 36.0625 221.757812 L 36.035156 221.675781 L 36.015625 221.59375 L 36 221.507812 L 35.992188 221.425781 L 35.988281 221.339844 L 35.992188 221.21875 L 36.007812 221.101562 L 36.035156 220.988281 L 36.070312 220.878906 L 36.117188 220.777344 L 36.171875 220.679688 L 36.238281 220.589844 L 36.316406 220.5 L 36.402344 220.417969 L 36.5 220.339844 L 36.605469 220.269531 L 36.722656 220.203125 L 36.84375 220.148438 L 36.972656 220.097656 L 37.109375 220.054688 L 37.253906 220.023438 L 37.402344 219.996094 L 37.5625 219.976562 L 37.730469 219.964844 L 37.90625 219.960938 L 38.199219 219.96875 L 38.484375 219.992188 L 38.765625 220.03125 L 39.035156 220.085938 L 39.300781 220.15625 L 39.558594 220.242188 L 39.8125 220.34375 L 40.054688 220.460938 L 40.292969 220.597656 L 40.523438 220.746094 L 40.746094 220.90625 L 40.957031 221.074219 L 41.160156 221.253906 L 41.351562 221.441406 L 41.535156 221.636719 L 41.710938 221.839844 L 41.875 222.050781 L 42.027344 222.273438 L 42.171875 222.503906 Z M 42.304688 222.742188 "/>
<path fill-rule="nonzero" fill="rgb(0%, 0%, 0%)" fill-opacity="1" d="M 38.121094 207.703125 L 30.910156 207.703125 L 20.328125 213.023438 L 20.328125 211.699219 L 25.890625 209 L 26.082031 208.90625 L 26.277344 208.816406 L 26.46875 208.722656 L 26.664062 208.632812 L 26.855469 208.539062 L 27.046875 208.449219 L 27.238281 208.355469 L 27.425781 208.265625 L 27.617188 208.171875 L 27.808594 208.082031 L 27.996094 207.988281 L 28.570312 207.707031 L 29.15625 207.414062 L 29.351562 207.3125 L 29.75 207.109375 L 29.75 207 L 29.351562 206.796875 L 28.960938 206.59375 L 28.765625 206.496094 L 28.570312 206.394531 L 27.996094 206.101562 L 27.808594 206.003906 L 27.425781 205.808594 L 27.238281 205.714844 L 27.046875 205.621094 L 26.855469 205.53125 L 26.664062 205.4375 L 26.46875 205.347656 L 26.277344 205.257812 L 26.082031 205.171875 L 25.890625 205.085938 L 20.328125 202.382812 L 20.328125 201.117188 L 30.910156 206.460938 L 38.121094 206.460938 Z M 38.121094 207.703125 "/>
<path fill-rule="nonzero" fill="rgb(0%, 0%, 0%)" fill-opacity="1" d="M 42.65625 199.296875 L 33.585938 199.296875 L 33.585938 198.464844 L 42.65625 198.464844 Z M 31.390625 198.859375 L 31.390625 198.921875 L 31.382812 198.976562 L 31.375 199.035156 L 31.359375 199.089844 L 31.339844 199.140625 L 31.316406 199.191406 L 31.289062 199.238281 L 31.257812 199.285156 L 31.222656 199.328125 L 31.183594 199.371094 L 31.140625 199.410156 L 31.09375 199.445312 L 31.046875 199.476562 L 30.992188 199.503906 L 30.9375 199.527344 L 30.878906 199.546875 L 30.820312 199.5625 L 30.6875 199.578125 L 30.554688 199.578125 L 30.492188 199.570312 L 30.433594 199.5625 L 30.378906 199.546875 L 30.324219 199.527344 L 30.273438 199.503906 L 30.222656 199.476562 L 30.175781 199.445312 L 30.132812 199.410156 L 30.089844 199.371094 L 30.046875 199.328125 L 30.011719 199.285156 L 29.980469 199.238281 L 29.957031 199.191406 L 29.933594 199.140625 L 29.914062 199.089844 L 29.898438 199.035156 L 29.890625 198.976562 L 29.882812 198.921875 L 29.878906 198.859375 L 29.882812 198.796875 L 29.898438 198.679688 L 29.914062 198.625 L 29.933594 198.574219 L 29.957031 198.523438 L 29.980469 198.476562 L 30.011719 198.433594 L 30.046875 198.390625 L 30.132812 198.3125 L 30.175781 198.277344 L 30.222656 198.246094 L 30.273438 198.21875 L 30.324219 198.195312 L 30.378906 198.175781 L 30.433594 198.160156 L 30.492188 198.152344 L 30.554688 198.144531 L 30.6875 198.144531 L 30.820312 198.160156 L 30.878906 198.175781 L 30.9375 198.195312 L 30.992188 198.21875 L 31.046875 198.246094 L 31.09375 198.277344 L 31.140625 198.3125 L 31.183594 198.351562 L 31.222656 198.390625 L 31.257812 198.433594 L 31.289062 198.476562 L 31.316406 198.523438 L 31.339844 198.574219 L 31.359375 198.625 L 31.375 198.679688 L 31.390625 198.796875 Z M 31.390625 198.859375 "/>
<path fill-rule="nonzero" fill="rgb(0%, 0%, 0%)" fill-opacity="1" d="M 44.027344 189.28125 L 43.347656 189.683594 L 42.664062 190.070312 L 41.972656 190.441406 L 41.273438 190.792969 L 40.566406 191.128906 L 39.855469 191.449219 L 39.136719 191.75 L 38.410156 192.035156 L 37.679688 192.304688 L 36.941406 192.554688 L 36.183594 192.78125 L 35.414062 192.980469 L 34.628906 193.15625 L 33.828125 193.3125 L 33.015625 193.441406 L 32.1875 193.546875 L 31.347656 193.628906 L 30.492188 193.6875 L 29.621094 193.726562 L 28.738281 193.738281 L 27.855469 193.726562 L 26.984375 193.6875 L 26.132812 193.628906 L 25.292969 193.546875 L 24.46875 193.441406 L 23.660156 193.3125 L 22.863281 193.15625 L 22.085938 192.980469 L 21.320312 192.78125 L 20.570312 192.554688 L 19.824219 192.304688 L 19.085938 192.035156 L 18.355469 191.75 L 17.632812 191.449219 L 16.917969 191.128906 L 16.207031 190.792969 L 15.507812 190.441406 L 14.8125 190.070312 L 14.128906 189.683594 L 13.449219 189.28125 L 13.988281 188.371094 L 14.628906 188.757812 L 15.28125 189.128906 L 15.949219 189.480469 L 16.625 189.8125 L 17.3125 190.125 L 18.015625 190.417969 L 18.730469 190.695312 L 19.453125 190.953125 L 20.191406 191.1875 L 20.941406 191.40625 L 21.699219 191.601562 L 22.464844 191.773438 L 23.230469 191.925781 L 24.003906 192.054688 L 24.78125 192.167969 L 25.5625 192.257812 L 26.351562 192.328125 L 27.140625 192.378906 L 27.9375 192.410156 L 28.738281 192.421875 L 29.53125 192.410156 L 30.324219 192.378906 L 31.109375 192.328125 L 31.890625 192.257812 L 32.671875 192.167969 L 33.445312 192.054688 L 34.214844 191.925781 L 34.980469 191.773438 L 35.742188 191.601562 L 36.5 191.40625 L 37.25 191.1875 L 37.988281 190.953125 L 38.71875 190.695312 L 39.433594 190.417969 L 40.136719 190.125 L 40.832031 189.8125 L 41.511719 189.480469 L 42.179688 189.128906 L 42.839844 188.757812 L 43.488281 188.371094 Z M 44.027344 189.28125 "/>
<path fill-rule="nonzero" fill="rgb(0%, 0%, 0%)" fill-opacity="1" d="M 38.445312 180.835938 L 38.421875 181.316406 L 38.351562 181.777344 L 38.234375 182.210938 L 38.070312 182.625 L 37.859375 183.019531 L 37.597656 183.386719 L 37.292969 183.734375 L 36.941406 184.058594 L 36.542969 184.363281 L 36.097656 184.644531 L 35.605469 184.902344 L 35.078125 185.128906 L 34.507812 185.332031 L 33.902344 185.507812 L 33.253906 185.65625 L 32.566406 185.777344 L 31.839844 185.871094 L 31.074219 185.941406 L 30.269531 185.980469 L 29.425781 185.996094 L 28.589844 185.980469 L 27.789062 185.941406 L 27.03125 185.871094 L 26.3125 185.777344 L 25.632812 185.65625 L 24.996094 185.507812 L 24.394531 185.332031 L 23.835938 185.128906 L 23.316406 184.902344 L 22.839844 184.644531 L 22.402344 184.363281 L 22.011719 184.058594 L 21.667969 183.734375 L 21.371094 183.386719 L 21.117188 183.019531 L 20.910156 182.625 L 20.75 182.210938 L 20.636719 181.777344 L 20.566406 181.316406 L 20.542969 180.835938 L 20.566406 180.351562 L 20.636719 179.890625 L 20.75 179.453125 L 20.910156 179.035156 L 21.117188 178.644531 L 21.371094 178.273438 L 21.667969 177.929688 L 22.011719 177.605469 L 22.402344 177.304688 L 22.839844 177.03125 L 23.316406 176.773438 L 23.835938 176.542969 L 24.394531 176.34375 L 24.996094 176.167969 L 25.632812 176.019531 L 26.3125 175.894531 L 27.03125 175.800781 L 27.789062 175.734375 L 28.589844 175.695312 L 29.425781 175.679688 L 30.269531 175.695312 L 31.074219 175.734375 L 31.839844 175.800781 L 32.566406 175.894531 L 33.253906 176.019531 L 33.902344 176.167969 L 34.507812 176.34375 L 35.078125 176.542969 L 35.605469 176.773438 L 36.097656 177.03125 L 36.542969 177.304688 L 36.941406 177.605469 L 37.292969 177.929688 L 37.597656 178.273438 L 37.859375 178.644531 L 38.070312 179.035156 L 38.234375 179.453125 L 38.351562 179.890625 L 38.421875 180.351562 Z M 37.417969 180.835938 L 37.398438 180.484375 L 37.335938 180.144531 L 37.238281 179.820312 L 37.09375 179.511719 L 36.914062 179.21875 L 36.691406 178.9375 L 36.425781 178.675781 L 36.121094 178.425781 L 35.777344 178.195312 L 35.394531 177.976562 L 34.96875 177.769531 L 34.507812 177.585938 L 34.007812 177.425781 L 33.46875 177.285156 L 32.890625 177.164062 L 32.273438 177.066406 L 31.621094 176.992188 L 30.925781 176.9375 L 30.195312 176.90625 L 29.425781 176.894531 L 28.660156 176.90625 L 27.929688 176.9375 L 27.242188 176.992188 L 26.59375 177.066406 L 25.984375 177.164062 L 25.414062 177.285156 L 24.886719 177.425781 L 24.398438 177.585938 L 23.949219 177.769531 L 23.539062 177.976562 L 23.167969 178.195312 L 22.832031 178.425781 L 22.535156 178.675781 L 22.28125 178.9375 L 22.0625 179.21875 L 21.886719 179.511719 L 21.746094 179.820312 L 21.648438 180.144531 L 21.589844 180.484375 L 21.570312 180.835938 L 21.589844 181.1875 L 21.648438 181.523438 L 21.746094 181.84375 L 21.886719 182.152344 L 22.0625 182.445312 L 22.28125 182.722656 L 22.535156 182.988281 L 22.832031 183.238281 L 23.167969 183.476562 L 23.539062 183.699219 L 23.949219 183.90625 L 24.398438 184.089844 L 24.886719 184.25 L 25.414062 184.390625 L 25.984375 184.507812 L 26.59375 184.605469 L 27.242188 184.683594 L 27.929688 184.734375 L 28.660156 184.769531 L 29.425781 184.78125 L 30.195312 184.769531 L 30.925781 184.734375 L 31.621094 184.683594 L 32.273438 184.605469 L 32.890625 184.507812 L 33.46875 184.390625 L 34.007812 184.25 L 34.507812 184.089844 L 34.96875 183.90625 L 35.394531 183.699219 L 35.777344 183.476562 L 36.121094 183.238281 L 36.425781 182.988281 L 36.691406 182.722656 L 36.914062 182.445312 L 37.09375 182.152344 L 37.238281 181.84375 L 37.335938 181.523438 L 37.398438 181.1875 Z M 37.417969 180.835938 "/>
<path fill-rule="nonzero" fill="rgb(0%, 0%, 0%)" fill-opacity="1" d="M 44.027344 172.367188 L 43.488281 173.277344 L 42.839844 172.890625 L 42.179688 172.519531 L 41.511719 172.171875 L 40.832031 171.839844 L 40.136719 171.53125 L 39.433594 171.238281 L 38.71875 170.96875 L 37.988281 170.71875 L 37.25 170.484375 L 36.5 170.273438 L 35.742188 170.074219 L 34.980469 169.898438 L 34.214844 169.738281 L 33.445312 169.605469 L 32.671875 169.488281 L 31.890625 169.394531 L 31.109375 169.320312 L 30.324219 169.269531 L 29.53125 169.238281 L 28.738281 169.226562 L 27.9375 169.238281 L 27.140625 169.269531 L 26.351562 169.320312 L 25.5625 169.394531 L 24.78125 169.488281 L 24.003906 169.605469 L 23.230469 169.738281 L 22.464844 169.898438 L 21.699219 170.074219 L 20.941406 170.273438 L 20.191406 170.484375 L 19.453125 170.71875 L 18.730469 170.96875 L 18.015625 171.238281 L 17.3125 171.53125 L 16.625 171.839844 L 15.949219 172.171875 L 15.28125 172.519531 L 14.628906 172.890625 L 13.988281 173.277344 L 13.449219 172.367188 L 14.128906 171.957031 L 14.8125 171.566406 L 15.507812 171.191406 L 16.207031 170.839844 L 16.917969 170.5 L 17.632812 170.183594 L 18.355469 169.882812 L 19.085938 169.601562 L 19.824219 169.335938 L 20.570312 169.09375 L 21.320312 168.867188 L 22.085938 168.667969 L 22.863281 168.488281 L 23.660156 168.335938 L 24.46875 168.207031 L 25.292969 168.101562 L 26.132812 168.015625 L 26.984375 167.957031 L 27.855469 167.921875 L 28.738281 167.910156 L 29.621094 167.921875 L 30.492188 167.957031 L 31.347656 168.015625 L 32.1875 168.101562 L 33.015625 168.207031 L 33.828125 168.335938 L 34.628906 168.488281 L 35.414062 168.667969 L 36.183594 168.867188 L 36.941406 169.09375 L 37.679688 169.335938 L 38.410156 169.601562 L 39.136719 169.882812 L 39.855469 170.183594 L 40.566406 170.5 L 41.273438 170.839844 L 41.972656 171.191406 L 42.664062 171.566406 L 43.347656 171.957031 Z M 44.027344 172.367188 "/>
<path fill-rule="nonzero" fill="rgb(0%, 0%, 0%)" fill-opacity="1" d="M 44.027344 162.949219 L 43.488281 163.859375 L 42.839844 163.472656 L 42.179688 163.105469 L 41.511719 162.753906 L 40.832031 162.425781 L 40.136719 162.113281 L 39.433594 161.824219 L 38.71875 161.554688 L 37.988281 161.300781 L 37.25 161.070312 L 36.5 160.855469 L 35.742188 160.660156 L 34.980469 160.480469 L 34.214844 160.324219 L 33.445312 160.1875 L 32.671875 160.074219 L 31.890625 159.980469 L 31.109375 159.90625 L 30.324219 159.851562 L 29.53125 159.820312 L 28.738281 159.8125 L 27.9375 159.820312 L 27.140625 159.851562 L 26.351562 159.90625 L 25.5625 159.980469 L 24.78125 160.074219 L 24.003906 160.1875 L 23.230469 160.324219 L 22.464844 160.480469 L 21.699219 160.660156 L 20.941406 160.855469 L 20.191406 161.070312 L 19.453125 161.300781 L 18.730469 161.554688 L 18.015625 161.824219 L 17.3125 162.113281 L 16.625 162.425781 L 15.949219 162.753906 L 15.28125 163.105469 L 14.628906 163.472656 L 13.988281 163.859375 L 13.449219 162.949219 L 14.128906 162.539062 L 14.8125 162.148438 L 15.507812 161.777344 L 16.207031 161.421875 L 16.917969 161.085938 L 17.632812 160.765625 L 18.355469 160.46875 L 19.085938 160.183594 L 19.824219 159.921875 L 20.570312 159.675781 L 21.320312 159.453125 L 22.085938 159.25 L 22.863281 159.074219 L 23.660156 158.921875 L 24.46875 158.789062 L 25.292969 158.683594 L 26.132812 158.601562 L 26.984375 158.542969 L 27.855469 158.507812 L 28.738281 158.496094 L 29.621094 158.507812 L 30.492188 158.542969 L 31.347656 158.601562 L 32.1875 158.683594 L 33.015625 158.789062 L 33.828125 158.921875 L 34.628906 159.074219 L 35.414062 159.25 L 36.183594 159.453125 L 36.941406 159.675781 L 37.679688 159.921875 L 38.410156 160.183594 L 39.136719 160.46875 L 39.855469 160.765625 L 40.566406 161.085938 L 41.273438 161.421875 L 41.972656 161.777344 L 42.664062 162.148438 L 43.347656 162.539062 Z M 44.027344 162.949219 "/>
</svg>
