<?xml version="1.0" encoding="UTF-8"?>
<svg xmlns="http://www.w3.org/2000/svg" xmlns:xlink="http://www.w3.org/1999/xlink" width="648" height="446" viewBox="0 0 648 446">
<defs>
<clipPath id="clip-0">
<path clip-rule="nonzero" d="M 66.886719 13.449219 L 634.550781 13.449219 L 634.550781 390.535156 L 66.886719 390.535156 Z M 66.886719 13.449219 "/>
</clipPath>
<clipPath id="clip-1">
<path clip-rule="nonzero" d="M 331 13.449219 L 333 13.449219 L 333 390.535156 L 331 390.535156 Z M 331 13.449219 "/>
</clipPath>
</defs>
<rect x="-64.8" y="-44.6" width="777.6" height="535.2" fill="rgb(100%, 100%, 100%)" fill-opacity="1"/>
<rect x="-64.8" y="-44.6" width="777.6" height="535.2" fill="rgb(95.294118%, 95.294118%, 95.294118%)" fill-opacity="1"/>
<path fill="none" stroke-width="2.618947" stroke-linecap="round" stroke-linejoin="round" stroke="rgb(95.294118%, 95.294118%, 95.294118%)" stroke-opacity="1" stroke-miterlimit="10" d="M 0 446 L 648 446 L 648 0 L 0 0 Z M 0 446 "/>
<g clip-path="url(#clip-0)">
<path fill-rule="nonzero" fill="rgb(95.294118%, 95.294118%, 95.294118%)" fill-opacity="1" stroke-width="2.618947" stroke-linecap="round" stroke-linejoin="round" stroke="rgb(95.294118%, 95.294118%, 95.294118%)" stroke-opacity="1" stroke-miterlimit="10" d="M 66.886719 390.535156 L 634.550781 390.535156 L 634.550781 13.449219 L 66.886719 13.449219 Z M 66.886719 390.535156 "/>
</g>
<path fill="none" stroke-width="4.054518" stroke-linecap="butt" stroke-linejoin="round" stroke="rgb(56.078431%, 16.470588%, 26.27451%)" stroke-opacity="1" stroke-miterlimit="10" d="M 92.6875 373.394531 L 331.980469 373.394531 "/>
<path fill="none" stroke-width="4.054518" stroke-linecap="butt" stroke-linejoin="round" stroke="rgb(56.078431%, 16.470588%, 26.27451%)" stroke-opacity="1" stroke-miterlimit="10" d="M 332.472656 30.589844 L 608.746094 30.589844 "/>
<g clip-path="url(#clip-1)">
<path fill="none" stroke-width="1.066978" stroke-linecap="butt" stroke-linejoin="round" stroke="rgb(0%, 0%, 0%)" stroke-opacity="1" stroke-dasharray="4.267913 4.267913" stroke-miterlimit="10" d="M 332.328125 390.535156 L 332.328125 13.449219 "/>
</g>
<path fill="none" stroke-width="1.066978" stroke-linecap="butt" stroke-linejoin="round" stroke="rgb(0%, 0%, 0%)" stroke-opacity="1" stroke-miterlimit="10" d="M 66.886719 390.535156 L 634.550781 390.535156 "/>
<path fill-rule="nonzero" fill="rgb(0%, 0%, 0%)" fill-opacity="1" d="M 342.507812 421.777344 L 347.851562 412.570312 L 342.882812 403.984375 L 344.234375 403.984375 L 347.148438 409.222656 L 347.226562 409.339844 L 347.300781 409.457031 L 347.371094 409.578125 L 347.445312 409.691406 L 347.585938 409.925781 L 347.652344 410.039062 L 347.71875 410.15625 L 347.851562 410.382812 L 347.917969 410.492188 L 347.984375 410.605469 L 348.054688 410.722656 L 348.128906 410.84375 L 348.203125 410.96875 L 348.28125 411.097656 L 348.359375 411.230469 L 348.441406 411.367188 L 348.523438 411.507812 L 348.609375 411.652344 L 348.714844 411.652344 L 348.792969 411.507812 L 348.863281 411.367188 L 348.9375 411.230469 L 349.003906 411.097656 L 349.074219 410.96875 L 349.140625 410.84375 L 349.207031 410.722656 L 349.269531 410.605469 L 349.332031 410.492188 L 349.390625 410.382812 L 349.453125 410.269531 L 349.511719 410.15625 L 349.574219 410.039062 L 349.636719 409.925781 L 349.703125 409.808594 L 349.765625 409.691406 L 349.832031 409.578125 L 349.902344 409.457031 L 349.96875 409.339844 L 350.039062 409.222656 L 352.957031 403.984375 L 354.222656 403.984375 L 349.257812 412.625 L 354.601562 421.777344 L 353.253906 421.777344 L 350.148438 416.324219 L 350.078125 416.1875 L 350.003906 416.054688 L 349.933594 415.917969 L 349.859375 415.785156 L 349.78125 415.648438 L 349.707031 415.511719 L 349.628906 415.378906 L 349.550781 415.242188 L 349.472656 415.109375 L 349.226562 414.699219 L 349.054688 414.410156 L 348.964844 414.265625 L 348.785156 413.960938 L 348.691406 413.808594 L 348.597656 413.648438 L 348.5 413.488281 L 348.390625 413.488281 L 348.308594 413.648438 L 348.222656 413.808594 L 348.058594 414.113281 L 347.980469 414.265625 L 347.902344 414.410156 L 347.753906 414.699219 L 347.679688 414.835938 L 347.539062 415.109375 L 347.46875 415.242188 L 347.394531 415.378906 L 347.324219 415.511719 L 347.25 415.648438 L 347.179688 415.785156 L 347.105469 415.917969 L 347.03125 416.054688 L 346.957031 416.1875 L 346.878906 416.324219 L 343.773438 421.777344 Z M 342.507812 421.777344 "/>
<path fill-rule="nonzero" fill="rgb(0%, 0%, 0%)" fill-opacity="1" d="M 356.800781 426.3125 L 356.800781 417.242188 L 357.632812 417.242188 L 357.632812 426.3125 Z M 357.234375 415.050781 L 357.175781 415.046875 L 357.117188 415.039062 L 357.0625 415.03125 L 357.007812 415.015625 L 356.957031 414.996094 L 356.90625 414.972656 L 356.859375 414.945312 L 356.8125 414.914062 L 356.765625 414.878906 L 356.722656 414.839844 L 356.683594 414.796875 L 356.648438 414.75 L 356.617188 414.703125 L 356.589844 414.652344 L 356.570312 414.59375 L 356.550781 414.539062 L 356.535156 414.476562 L 356.523438 414.410156 L 356.519531 414.34375 L 356.515625 414.273438 L 356.523438 414.148438 L 356.535156 414.089844 L 356.550781 414.035156 L 356.570312 413.980469 L 356.589844 413.929688 L 356.617188 413.878906 L 356.648438 413.832031 L 356.683594 413.789062 L 356.722656 413.746094 L 356.765625 413.707031 L 356.8125 413.671875 L 356.859375 413.640625 L 356.90625 413.613281 L 356.957031 413.589844 L 357.007812 413.570312 L 357.0625 413.554688 L 357.117188 413.546875 L 357.175781 413.539062 L 357.234375 413.535156 L 357.296875 413.539062 L 357.359375 413.546875 L 357.414062 413.554688 L 357.46875 413.570312 L 357.523438 413.589844 L 357.574219 413.613281 L 357.621094 413.640625 L 357.664062 413.671875 L 357.707031 413.707031 L 357.746094 413.746094 L 357.785156 413.789062 L 357.820312 413.832031 L 357.851562 413.878906 L 357.878906 413.929688 L 357.902344 413.980469 L 357.933594 414.089844 L 357.945312 414.148438 L 357.953125 414.273438 L 357.949219 414.34375 L 357.945312 414.410156 L 357.933594 414.476562 L 357.917969 414.539062 L 357.902344 414.59375 L 357.878906 414.652344 L 357.851562 414.703125 L 357.820312 414.75 L 357.785156 414.796875 L 357.746094 414.839844 L 357.707031 414.878906 L 357.664062 414.914062 L 357.621094 414.945312 L 357.574219 414.972656 L 357.523438 414.996094 L 357.46875 415.015625 L 357.414062 415.03125 L 357.359375 415.039062 L 357.296875 415.046875 Z M 357.234375 415.050781 "/>
<path fill-rule="nonzero" fill="rgb(0%, 0%, 0%)" fill-opacity="1" d="M 38.761719 261.511719 L 20.96875 261.511719 L 20.96875 257.03125 L 20.980469 256.4375 L 21.011719 255.871094 L 21.070312 255.335938 L 21.144531 254.820312 L 21.246094 254.335938 L 21.367188 253.875 L 21.511719 253.445312 L 21.675781 253.039062 L 21.867188 252.65625 L 22.074219 252.304688 L 22.3125 251.976562 L 22.585938 251.683594 L 22.886719 251.421875 L 23.226562 251.199219 L 23.59375 251.007812 L 23.996094 250.851562 L 24.433594 250.730469 L 24.902344 250.644531 L 25.402344 250.59375 L 25.9375 250.578125 L 26.449219 250.59375 L 26.933594 250.644531 L 27.390625 250.730469 L 27.820312 250.847656 L 28.226562 251 L 28.605469 251.1875 L 28.957031 251.410156 L 29.28125 251.664062 L 29.578125 251.953125 L 29.851562 252.277344 L 30.09375 252.625 L 30.308594 253 L 30.5 253.398438 L 30.664062 253.824219 L 30.804688 254.273438 L 30.917969 254.753906 L 31.007812 255.257812 L 31.070312 255.785156 L 31.109375 256.339844 L 31.121094 256.921875 L 31.121094 260.269531 L 38.761719 260.269531 Z M 30.066406 260.269531 L 30.066406 257.21875 L 30.058594 256.6875 L 30.027344 256.183594 L 29.980469 255.707031 L 29.914062 255.261719 L 29.824219 254.84375 L 29.71875 254.453125 L 29.589844 254.089844 L 29.445312 253.753906 L 29.28125 253.445312 L 29.097656 253.167969 L 28.890625 252.917969 L 28.660156 252.691406 L 28.402344 252.492188 L 28.125 252.320312 L 27.820312 252.175781 L 27.492188 252.058594 L 27.140625 251.964844 L 26.761719 251.898438 L 26.363281 251.859375 L 25.9375 251.84375 L 25.503906 251.859375 L 25.097656 251.902344 L 24.71875 251.96875 L 24.367188 252.066406 L 24.046875 252.191406 L 23.753906 252.339844 L 23.488281 252.519531 L 23.25 252.726562 L 23.039062 252.960938 L 22.859375 253.222656 L 22.699219 253.507812 L 22.558594 253.820312 L 22.433594 254.160156 L 22.324219 254.527344 L 22.230469 254.921875 L 22.15625 255.347656 L 22.097656 255.800781 L 22.054688 256.28125 L 22.03125 256.789062 L 22.023438 257.328125 L 22.023438 260.269531 Z M 30.066406 260.269531 "/>
<path fill-rule="nonzero" fill="rgb(0%, 0%, 0%)" fill-opacity="1" d="M 38.761719 246.824219 L 25.800781 246.824219 L 25.800781 245.796875 L 28.203125 245.6875 L 28.203125 245.609375 L 27.972656 245.476562 L 27.746094 245.339844 L 27.53125 245.195312 L 27.324219 245.046875 L 27.125 244.894531 L 26.933594 244.734375 L 26.753906 244.570312 L 26.582031 244.398438 L 26.417969 244.222656 L 26.261719 244.042969 L 26.113281 243.851562 L 25.980469 243.65625 L 25.863281 243.457031 L 25.761719 243.25 L 25.671875 243.042969 L 25.601562 242.832031 L 25.546875 242.613281 L 25.507812 242.390625 L 25.484375 242.167969 L 25.476562 241.9375 L 25.480469 241.863281 L 25.480469 241.789062 L 25.492188 241.578125 L 25.496094 241.511719 L 25.503906 241.445312 L 25.511719 241.382812 L 25.523438 241.320312 L 25.53125 241.261719 L 25.542969 241.203125 L 25.558594 241.140625 L 25.574219 241.082031 L 25.613281 240.957031 L 25.660156 240.832031 L 25.6875 240.769531 L 25.714844 240.703125 L 25.75 240.640625 L 26.828125 240.910156 L 26.800781 240.972656 L 26.777344 241.035156 L 26.757812 241.097656 L 26.71875 241.214844 L 26.703125 241.269531 L 26.691406 241.324219 L 26.679688 241.375 L 26.671875 241.429688 L 26.667969 241.476562 L 26.65625 241.527344 L 26.648438 241.578125 L 26.636719 241.636719 L 26.632812 241.691406 L 26.625 241.753906 L 26.621094 241.816406 L 26.617188 241.882812 L 26.613281 241.953125 L 26.613281 242.097656 L 26.621094 242.273438 L 26.640625 242.449219 L 26.679688 242.625 L 26.734375 242.808594 L 26.800781 242.988281 L 26.882812 243.175781 L 26.984375 243.359375 L 27.097656 243.550781 L 27.222656 243.742188 L 27.367188 243.933594 L 27.523438 244.121094 L 27.703125 244.304688 L 27.90625 244.484375 L 28.128906 244.660156 L 28.375 244.832031 L 28.640625 245 L 28.929688 245.164062 L 29.242188 245.324219 L 29.578125 245.480469 L 29.933594 245.636719 L 38.761719 245.636719 Z M 38.761719 246.824219 "/>
<path fill-rule="nonzero" fill="rgb(0%, 0%, 0%)" fill-opacity="1" d="M 44.667969 233.324219 L 43.988281 233.726562 L 43.304688 234.113281 L 42.613281 234.484375 L 41.914062 234.835938 L 41.207031 235.171875 L 40.496094 235.488281 L 39.777344 235.792969 L 39.050781 236.078125 L 38.320312 236.34375 L 37.582031 236.597656 L 36.824219 236.820312 L 36.054688 237.023438 L 35.269531 237.199219 L 34.46875 237.351562 L 33.65625 237.484375 L 32.832031 237.589844 L 31.988281 237.671875 L 31.132812 237.730469 L 30.261719 237.765625 L 29.378906 237.777344 L 28.496094 237.765625 L 27.628906 237.730469 L 26.773438 237.671875 L 25.933594 237.589844 L 25.109375 237.484375 L 24.300781 237.351562 L 23.507812 237.199219 L 22.726562 237.023438 L 21.960938 236.820312 L 21.210938 236.597656 L 20.464844 236.34375 L 19.726562 236.078125 L 18.996094 235.792969 L 18.273438 235.488281 L 17.558594 235.171875 L 16.851562 234.835938 L 16.148438 234.484375 L 15.457031 234.113281 L 14.769531 233.726562 L 14.089844 233.324219 L 14.628906 232.410156 L 15.269531 232.800781 L 15.925781 233.171875 L 16.589844 233.523438 L 17.265625 233.855469 L 17.957031 234.167969 L 18.65625 234.460938 L 19.371094 234.738281 L 20.09375 234.992188 L 20.832031 235.230469 L 21.582031 235.449219 L 22.339844 235.640625 L 23.105469 235.8125 L 23.871094 235.964844 L 24.644531 236.097656 L 25.421875 236.207031 L 26.203125 236.300781 L 26.992188 236.371094 L 27.78125 236.421875 L 28.578125 236.453125 L 29.378906 236.460938 L 30.175781 236.453125 L 30.964844 236.421875 L 31.75 236.371094 L 32.53125 236.300781 L 33.3125 236.207031 L 34.085938 236.097656 L 34.855469 235.964844 L 35.621094 235.8125 L 36.382812 235.640625 L 37.140625 235.449219 L 37.890625 235.230469 L 38.632812 234.992188 L 39.359375 234.738281 L 40.074219 234.460938 L 40.777344 234.167969 L 41.472656 233.855469 L 42.152344 233.523438 L 42.824219 233.171875 L 43.480469 232.800781 L 44.128906 232.410156 Z M 44.667969 233.324219 "/>
<path fill-rule="nonzero" fill="rgb(0%, 0%, 0%)" fill-opacity="1" d="M 38.761719 228.714844 L 20.96875 228.714844 L 20.96875 224.582031 L 20.980469 224.039062 L 21.011719 223.519531 L 21.070312 223.015625 L 21.144531 222.535156 L 21.246094 222.070312 L 21.367188 221.628906 L 21.511719 221.203125 L 21.675781 220.796875 L 21.867188 220.414062 L 22.074219 220.046875 L 22.300781 219.699219 L 22.542969 219.371094 L 22.804688 219.058594 L 23.082031 218.765625 L 23.378906 218.492188 L 23.691406 218.238281 L 24.023438 218 L 24.375 217.78125 L 24.742188 217.582031 L 25.128906 217.398438 L 25.527344 217.230469 L 25.945312 217.078125 L 26.375 216.945312 L 26.820312 216.828125 L 27.28125 216.730469 L 27.753906 216.652344 L 28.242188 216.589844 L 28.746094 216.542969 L 29.265625 216.519531 L 29.796875 216.507812 L 30.332031 216.519531 L 30.851562 216.542969 L 31.355469 216.589844 L 31.851562 216.652344 L 32.328125 216.730469 L 32.796875 216.828125 L 33.246094 216.945312 L 33.6875 217.078125 L 34.109375 217.230469 L 34.523438 217.398438 L 34.914062 217.582031 L 35.289062 217.78125 L 35.644531 218 L 35.984375 218.238281 L 36.304688 218.492188 L 36.609375 218.765625 L 36.898438 219.058594 L 37.167969 219.371094 L 37.417969 219.699219 L 37.65625 220.046875 L 37.867188 220.410156 L 38.054688 220.796875 L 38.21875 221.199219 L 38.363281 221.621094 L 38.484375 222.0625 L 38.585938 222.523438 L 38.664062 223.003906 L 38.71875 223.503906 L 38.75 224.019531 L 38.761719 224.554688 Z M 37.710938 227.472656 L 37.710938 224.71875 L 37.699219 224.242188 L 37.667969 223.78125 L 37.621094 223.339844 L 37.550781 222.921875 L 37.460938 222.515625 L 37.347656 222.132812 L 37.21875 221.765625 L 37.070312 221.417969 L 36.898438 221.085938 L 36.710938 220.773438 L 36.496094 220.476562 L 36.269531 220.191406 L 36.027344 219.925781 L 35.769531 219.679688 L 35.496094 219.445312 L 35.207031 219.230469 L 34.902344 219.03125 L 34.585938 218.847656 L 34.25 218.683594 L 33.902344 218.535156 L 33.539062 218.394531 L 33.167969 218.273438 L 32.785156 218.164062 L 32.390625 218.066406 L 31.984375 217.988281 L 31.570312 217.921875 L 31.144531 217.871094 L 30.707031 217.835938 L 30.257812 217.8125 L 29.796875 217.804688 L 29.339844 217.8125 L 28.894531 217.835938 L 28.457031 217.871094 L 28.035156 217.921875 L 27.625 217.988281 L 27.226562 218.066406 L 26.839844 218.164062 L 26.464844 218.273438 L 26.097656 218.394531 L 25.75 218.535156 L 25.40625 218.683594 L 25.078125 218.847656 L 24.765625 219.03125 L 24.46875 219.230469 L 24.1875 219.445312 L 23.925781 219.679688 L 23.675781 219.925781 L 23.441406 220.191406 L 23.222656 220.476562 L 23.019531 220.773438 L 22.832031 221.085938 L 22.660156 221.417969 L 22.511719 221.765625 L 22.382812 222.132812 L 22.273438 222.515625 L 22.183594 222.921875 L 22.113281 223.339844 L 22.0625 223.78125 L 22.03125 224.242188 L 22.023438 224.71875 L 22.023438 227.472656 Z M 37.710938 227.472656 "/>
<path fill-rule="nonzero" fill="rgb(0%, 0%, 0%)" fill-opacity="1" d="M 43.296875 213.285156 L 34.226562 213.285156 L 34.226562 212.453125 L 43.296875 212.453125 Z M 32.035156 212.851562 L 32.03125 212.910156 L 32.023438 212.96875 L 32.015625 213.023438 L 32 213.078125 L 31.980469 213.128906 L 31.957031 213.179688 L 31.933594 213.226562 L 31.902344 213.273438 L 31.867188 213.316406 L 31.824219 213.359375 L 31.738281 213.4375 L 31.6875 213.46875 L 31.636719 213.492188 L 31.578125 213.515625 L 31.523438 213.535156 L 31.460938 213.550781 L 31.328125 213.566406 L 31.257812 213.570312 L 31.195312 213.566406 L 31.078125 213.550781 L 31.019531 213.535156 L 30.964844 213.515625 L 30.863281 213.46875 L 30.816406 213.4375 L 30.730469 213.359375 L 30.691406 213.316406 L 30.65625 213.273438 L 30.625 213.226562 L 30.597656 213.179688 L 30.574219 213.128906 L 30.554688 213.078125 L 30.539062 213.023438 L 30.53125 212.96875 L 30.523438 212.910156 L 30.523438 212.789062 L 30.53125 212.726562 L 30.539062 212.667969 L 30.554688 212.613281 L 30.574219 212.5625 L 30.597656 212.511719 L 30.625 212.464844 L 30.65625 212.421875 L 30.691406 212.378906 L 30.730469 212.339844 L 30.773438 212.300781 L 30.816406 212.265625 L 30.863281 212.234375 L 30.914062 212.207031 L 30.964844 212.183594 L 31.019531 212.164062 L 31.136719 212.140625 L 31.195312 212.132812 L 31.328125 212.132812 L 31.394531 212.140625 L 31.460938 212.152344 L 31.523438 212.164062 L 31.578125 212.183594 L 31.636719 212.207031 L 31.6875 212.234375 L 31.738281 212.265625 L 31.78125 212.300781 L 31.867188 212.378906 L 31.902344 212.421875 L 31.933594 212.464844 L 31.957031 212.511719 L 31.980469 212.5625 L 32 212.613281 L 32.015625 212.667969 L 32.023438 212.726562 L 32.03125 212.789062 Z M 32.035156 212.851562 "/>
<path fill-rule="nonzero" fill="rgb(0%, 0%, 0%)" fill-opacity="1" d="M 27.609375 204.484375 L 26.585938 204.484375 L 26.585938 193.386719 L 27.609375 193.386719 Z M 33.117188 204.484375 L 32.09375 204.484375 L 32.09375 193.386719 L 33.117188 193.386719 Z M 33.117188 204.484375 "/>
<path fill-rule="nonzero" fill="rgb(0%, 0%, 0%)" fill-opacity="1" d="M 38.761719 184.90625 L 37.710938 184.90625 L 37.710938 180.855469 L 23.398438 180.855469 L 23.398438 183.933594 L 22.589844 183.933594 L 22.550781 183.722656 L 22.511719 183.519531 L 22.46875 183.320312 L 22.425781 183.125 L 22.378906 182.933594 L 22.332031 182.746094 L 22.285156 182.566406 L 22.234375 182.386719 L 22.183594 182.210938 L 22.128906 182.042969 L 22.074219 181.878906 L 22.019531 181.71875 L 21.960938 181.5625 L 21.902344 181.414062 L 21.839844 181.265625 L 21.777344 181.125 L 21.644531 180.859375 L 21.578125 180.734375 L 21.507812 180.613281 L 21.507812 179.640625 L 37.710938 179.640625 L 37.710938 175.886719 L 38.761719 175.886719 Z M 38.761719 184.90625 "/>
<path fill-rule="nonzero" fill="rgb(0%, 0%, 0%)" fill-opacity="1" d="M 47.199219 171.035156 L 13.449219 171.035156 L 13.449219 169.820312 L 47.199219 169.820312 Z M 47.199219 171.035156 "/>
<path fill-rule="nonzero" fill="rgb(0%, 0%, 0%)" fill-opacity="1" d="M 38.761719 166.152344 L 29.554688 160.808594 L 20.96875 165.777344 L 20.96875 164.425781 L 26.207031 161.507812 L 26.324219 161.433594 L 26.445312 161.359375 L 26.5625 161.289062 L 26.679688 161.214844 L 26.792969 161.144531 L 26.910156 161.074219 L 27.027344 161.007812 L 27.140625 160.9375 L 27.253906 160.871094 L 27.367188 160.808594 L 27.476562 160.742188 L 27.589844 160.671875 L 27.832031 160.53125 L 27.957031 160.457031 L 28.214844 160.300781 L 28.351562 160.21875 L 28.492188 160.136719 L 28.636719 160.050781 L 28.636719 159.945312 L 28.492188 159.867188 L 28.351562 159.796875 L 28.214844 159.722656 L 28.085938 159.652344 L 27.957031 159.585938 L 27.832031 159.519531 L 27.710938 159.453125 L 27.589844 159.390625 L 27.476562 159.328125 L 27.367188 159.269531 L 27.253906 159.207031 L 27.140625 159.148438 L 27.027344 159.085938 L 26.910156 159.023438 L 26.792969 158.957031 L 26.679688 158.894531 L 26.5625 158.828125 L 26.445312 158.757812 L 26.324219 158.691406 L 26.207031 158.621094 L 20.96875 155.703125 L 20.96875 154.433594 L 29.609375 159.402344 L 38.761719 154.058594 L 38.761719 155.40625 L 33.308594 158.511719 L 33.171875 158.582031 L 33.039062 158.65625 L 32.902344 158.726562 L 32.769531 158.800781 L 32.632812 158.878906 L 32.5 158.953125 L 32.226562 159.109375 L 32.09375 159.1875 L 31.683594 159.433594 L 31.394531 159.605469 L 31.25 159.695312 L 30.945312 159.875 L 30.792969 159.96875 L 30.632812 160.0625 L 30.472656 160.160156 L 30.472656 160.265625 L 30.792969 160.4375 L 31.097656 160.601562 L 31.25 160.679688 L 31.394531 160.757812 L 31.683594 160.90625 L 31.820312 160.980469 L 32.09375 161.121094 L 32.226562 161.191406 L 32.363281 161.261719 L 32.5 161.335938 L 32.632812 161.410156 L 32.769531 161.480469 L 32.902344 161.554688 L 33.039062 161.628906 L 33.171875 161.703125 L 33.308594 161.78125 L 38.761719 164.882812 Z M 38.761719 166.152344 "/>
<path fill-rule="nonzero" fill="rgb(0%, 0%, 0%)" fill-opacity="1" d="M 43.296875 151.859375 L 34.226562 151.859375 L 34.226562 151.027344 L 43.296875 151.027344 Z M 32.035156 151.425781 L 32.03125 151.484375 L 32.023438 151.542969 L 32.015625 151.597656 L 32 151.652344 L 31.980469 151.703125 L 31.957031 151.753906 L 31.933594 151.800781 L 31.902344 151.847656 L 31.867188 151.894531 L 31.824219 151.933594 L 31.78125 151.976562 L 31.738281 152.011719 L 31.6875 152.042969 L 31.636719 152.066406 L 31.578125 152.089844 L 31.523438 152.109375 L 31.460938 152.125 L 31.394531 152.136719 L 31.328125 152.140625 L 31.257812 152.144531 L 31.195312 152.140625 L 31.136719 152.136719 L 31.078125 152.125 L 31.019531 152.109375 L 30.964844 152.089844 L 30.863281 152.042969 L 30.816406 152.011719 L 30.773438 151.976562 L 30.691406 151.894531 L 30.65625 151.847656 L 30.625 151.800781 L 30.597656 151.753906 L 30.574219 151.703125 L 30.554688 151.652344 L 30.539062 151.597656 L 30.53125 151.542969 L 30.523438 151.484375 L 30.523438 151.363281 L 30.53125 151.300781 L 30.539062 151.242188 L 30.554688 151.1875 L 30.574219 151.136719 L 30.597656 151.085938 L 30.625 151.039062 L 30.65625 150.996094 L 30.691406 150.953125 L 30.730469 150.914062 L 30.773438 150.875 L 30.816406 150.839844 L 30.863281 150.808594 L 30.914062 150.78125 L 30.964844 150.757812 L 31.019531 150.738281 L 31.136719 150.714844 L 31.195312 150.707031 L 31.328125 150.707031 L 31.394531 150.714844 L 31.460938 150.726562 L 31.523438 150.738281 L 31.578125 150.757812 L 31.636719 150.78125 L 31.6875 150.808594 L 31.738281 150.839844 L 31.78125 150.875 L 31.867188 150.953125 L 31.902344 150.996094 L 31.933594 151.039062 L 31.957031 151.085938 L 31.980469 151.136719 L 32 151.1875 L 32.015625 151.242188 L 32.023438 151.300781 L 32.03125 151.363281 Z M 32.035156 151.425781 "/>
<path fill-rule="nonzero" fill="rgb(0%, 0%, 0%)" fill-opacity="1" d="M 44.667969 147.277344 L 44.128906 148.191406 L 43.480469 147.800781 L 42.824219 147.433594 L 42.152344 147.082031 L 41.472656 146.753906 L 40.777344 146.445312 L 40.074219 146.152344 L 39.359375 145.882812 L 38.632812 145.628906 L 37.890625 145.398438 L 37.140625 145.1875 L 36.382812 144.988281 L 35.621094 144.808594 L 34.855469 144.652344 L 34.085938 144.515625 L 33.3125 144.402344 L 32.53125 144.308594 L 31.75 144.234375 L 30.964844 144.183594 L 30.175781 144.152344 L 29.378906 144.140625 L 28.578125 144.152344 L 27.78125 144.183594 L 26.992188 144.234375 L 26.203125 144.308594 L 25.421875 144.402344 L 24.644531 144.515625 L 23.871094 144.652344 L 23.105469 144.808594 L 22.339844 144.988281 L 21.582031 145.1875 L 20.832031 145.398438 L 20.09375 145.628906 L 19.371094 145.882812 L 18.65625 146.152344 L 17.957031 146.445312 L 17.265625 146.753906 L 16.589844 147.082031 L 15.925781 147.433594 L 15.269531 147.800781 L 14.628906 148.191406 L 14.089844 147.277344 L 14.769531 146.871094 L 15.457031 146.480469 L 16.148438 146.105469 L 16.851562 145.75 L 17.558594 145.414062 L 18.273438 145.097656 L 18.996094 144.796875 L 19.726562 144.515625 L 20.464844 144.25 L 21.210938 144.003906 L 21.960938 143.78125 L 22.726562 143.582031 L 23.507812 143.402344 L 24.300781 143.25 L 25.109375 143.121094 L 25.933594 143.011719 L 26.773438 142.929688 L 27.628906 142.871094 L 28.496094 142.835938 L 29.378906 142.824219 L 30.261719 142.835938 L 31.132812 142.871094 L 31.988281 142.929688 L 32.832031 143.011719 L 33.65625 143.121094 L 34.46875 143.25 L 35.269531 143.402344 L 36.054688 143.582031 L 36.824219 143.78125 L 37.582031 144.003906 L 38.320312 144.25 L 39.050781 144.515625 L 39.777344 144.796875 L 40.496094 145.097656 L 41.207031 145.414062 L 41.914062 145.75 L 42.613281 146.105469 L 43.304688 146.480469 L 43.988281 146.871094 Z M 44.667969 147.277344 "/>
</svg>
