<?xml version="1.0" encoding="UTF-8"?>
<svg xmlns="http://www.w3.org/2000/svg" xmlns:xlink="http://www.w3.org/1999/xlink" width="792" height="432" viewBox="0 0 792 432">
<defs>
<clipPath id="clip-0">
<path clip-rule="nonzero" d="M 82.042969 14.945312 L 777.058594 14.945312 L 777.058594 365.429688 L 82.042969 365.429688 Z M 82.042969 14.945312 "/>
</clipPath>
<clipPath id="clip-1">
<path clip-rule="nonzero" d="M 82.042969 348 L 777.058594 348 L 777.058594 351 L 82.042969 351 Z M 82.042969 348 "/>
</clipPath>
<clipPath id="clip-2">
<path clip-rule="nonzero" d="M 82.042969 273 L 777.058594 273 L 777.058594 276 L 82.042969 276 Z M 82.042969 273 "/>
</clipPath>
<clipPath id="clip-3">
<path clip-rule="nonzero" d="M 82.042969 198 L 777.058594 198 L 777.058594 202 L 82.042969 202 Z M 82.042969 198 "/>
</clipPath>
<clipPath id="clip-4">
<path clip-rule="nonzero" d="M 82.042969 123 L 777.058594 123 L 777.058594 127 L 82.042969 127 Z M 82.042969 123 "/>
</clipPath>
<clipPath id="clip-5">
<path clip-rule="nonzero" d="M 82.042969 48 L 777.058594 48 L 777.058594 52 L 82.042969 52 Z M 82.042969 48 "/>
</clipPath>
<clipPath id="clip-6">
<path clip-rule="nonzero" d="M 270 14.945312 L 274 14.945312 L 274 365.429688 L 270 365.429688 Z M 270 14.945312 "/>
</clipPath>
<clipPath id="clip-7">
<path clip-rule="nonzero" d="M 586 14.945312 L 589 14.945312 L 589 365.429688 L 586 365.429688 Z M 586 14.945312 "/>
</clipPath>
</defs>
<rect x="-79.2" y="-43.2" width="950.4" height="518.4" fill="rgb(100%, 100%, 100%)" fill-opacity="1"/>
<rect x="-79.2" y="-43.2" width="950.4" height="518.4" fill="rgb(95.294118%, 95.294118%, 95.294118%)" fill-opacity="1"/>
<path fill="none" stroke-width="2.909941" stroke-linecap="round" stroke-linejoin="round" stroke="rgb(95.294118%, 95.294118%, 95.294118%)" stroke-opacity="1" stroke-miterlimit="10" d="M 0 432 L 792 432 L 792 0 L 0 0 Z M 0 432 "/>
<g clip-path="url(#clip-0)">
<path fill-rule="nonzero" fill="rgb(95.294118%, 95.294118%, 95.294118%)" fill-opacity="1" stroke-width="2.909941" stroke-linecap="round" stroke-linejoin="round" stroke="rgb(95.294118%, 95.294118%, 95.294118%)" stroke-opacity="1" stroke-miterlimit="10" d="M 82.042969 365.429688 L 777.058594 365.429688 L 777.058594 14.945312 L 82.042969 14.945312 Z M 82.042969 365.429688 "/>
</g>
<g clip-path="url(#clip-1)">
<path fill="none" stroke-width="2.909941" stroke-linecap="butt" stroke-linejoin="round" stroke="rgb(92.156863%, 92.156863%, 92.156863%)" stroke-opacity="1" stroke-miterlimit="10" d="M 82.042969 349.496094 L 777.054688 349.496094 "/>
</g>
<g clip-path="url(#clip-2)">
<path fill="none" stroke-width="2.909941" stroke-linecap="butt" stroke-linejoin="round" stroke="rgb(92.156863%, 92.156863%, 92.156863%)" stroke-opacity="1" stroke-miterlimit="10" d="M 82.042969 274.527344 L 777.054688 274.527344 "/>
</g>
<g clip-path="url(#clip-3)">
<path fill="none" stroke-width="2.909941" stroke-linecap="butt" stroke-linejoin="round" stroke="rgb(92.156863%, 92.156863%, 92.156863%)" stroke-opacity="1" stroke-miterlimit="10" d="M 82.042969 199.558594 L 777.054688 199.558594 "/>
</g>
<g clip-path="url(#clip-4)">
<path fill="none" stroke-width="2.909941" stroke-linecap="butt" stroke-linejoin="round" stroke="rgb(92.156863%, 92.156863%, 92.156863%)" stroke-opacity="1" stroke-miterlimit="10" d="M 82.042969 124.585938 L 777.054688 124.585938 "/>
</g>
<g clip-path="url(#clip-5)">
<path fill="none" stroke-width="2.909941" stroke-linecap="butt" stroke-linejoin="round" stroke="rgb(92.156863%, 92.156863%, 92.156863%)" stroke-opacity="1" stroke-miterlimit="10" d="M 82.042969 49.617188 L 777.054688 49.617188 "/>
</g>
<g clip-path="url(#clip-6)">
<path fill="none" stroke-width="2.909941" stroke-linecap="butt" stroke-linejoin="round" stroke="rgb(92.156863%, 92.156863%, 92.156863%)" stroke-opacity="1" stroke-miterlimit="10" d="M 271.589844 365.429688 L 271.589844 14.945312 "/>
</g>
<g clip-path="url(#clip-7)">
<path fill="none" stroke-width="2.909941" stroke-linecap="butt" stroke-linejoin="round" stroke="rgb(92.156863%, 92.156863%, 92.156863%)" stroke-opacity="1" stroke-miterlimit="10" d="M 587.507812 365.429688 L 587.507812 14.945312 "/>
</g>
<path fill-rule="nonzero" fill="rgb(56.078431%, 16.470588%, 26.27451%)" fill-opacity="0.6" stroke-width="0.708661" stroke-linecap="round" stroke-linejoin="round" stroke="rgb(56.078431%, 16.470588%, 26.27451%)" stroke-opacity="0.6" stroke-miterlimit="10" d="M 595.4375 49.617188 C 595.4375 53.996094 591.886719 57.546875 587.507812 57.546875 C 583.128906 57.546875 579.578125 53.996094 579.578125 49.617188 C 579.578125 45.238281 583.128906 41.6875 587.507812 41.6875 C 591.886719 41.6875 595.4375 45.238281 595.4375 49.617188 "/>
<path fill-rule="nonzero" fill="rgb(56.078431%, 16.470588%, 26.27451%)" fill-opacity="0.6" stroke-width="0.708661" stroke-linecap="round" stroke-linejoin="round" stroke="rgb(56.078431%, 16.470588%, 26.27451%)" stroke-opacity="0.6" stroke-miterlimit="10" d="M 279.519531 42.121094 C 279.519531 46.5 275.96875 50.050781 271.589844 50.050781 C 267.210938 50.050781 263.660156 46.5 263.660156 42.121094 C 263.660156 37.742188 267.210938 34.191406 271.589844 34.191406 C 275.96875 34.191406 279.519531 37.742188 279.519531 42.121094 "/>
<path fill-rule="nonzero" fill="rgb(56.078431%, 16.470588%, 26.27451%)" fill-opacity="0.6" stroke-width="0.708661" stroke-linecap="round" stroke-linejoin="round" stroke="rgb(56.078431%, 16.470588%, 26.27451%)" stroke-opacity="0.6" stroke-miterlimit="10" d="M 595.4375 68.359375 C 595.4375 72.738281 591.886719 76.289062 587.507812 76.289062 C 583.128906 76.289062 579.578125 72.738281 579.578125 68.359375 C 579.578125 63.980469 583.128906 60.429688 587.507812 60.429688 C 591.886719 60.429688 595.4375 63.980469 595.4375 68.359375 "/>
<path fill-rule="nonzero" fill="rgb(56.078431%, 16.470588%, 26.27451%)" fill-opacity="0.6" stroke-width="0.708661" stroke-linecap="round" stroke-linejoin="round" stroke="rgb(56.078431%, 16.470588%, 26.27451%)" stroke-opacity="0.6" stroke-miterlimit="10" d="M 279.519531 87.101562 C 279.519531 91.480469 275.96875 95.03125 271.589844 95.03125 C 267.210938 95.03125 263.660156 91.480469 263.660156 87.101562 C 263.660156 82.722656 267.210938 79.171875 271.589844 79.171875 C 275.96875 79.171875 279.519531 82.722656 279.519531 87.101562 "/>
<path fill-rule="nonzero" fill="rgb(56.078431%, 16.470588%, 26.27451%)" fill-opacity="0.6" stroke-width="0.708661" stroke-linecap="round" stroke-linejoin="round" stroke="rgb(56.078431%, 16.470588%, 26.27451%)" stroke-opacity="0.6" stroke-miterlimit="10" d="M 595.4375 79.605469 C 595.4375 83.984375 591.886719 87.535156 587.507812 87.535156 C 583.128906 87.535156 579.578125 83.984375 579.578125 79.605469 C 579.578125 75.226562 583.128906 71.675781 587.507812 71.675781 C 591.886719 71.675781 595.4375 75.226562 595.4375 79.605469 "/>
<path fill-rule="nonzero" fill="rgb(56.078431%, 16.470588%, 26.27451%)" fill-opacity="0.6" stroke-width="0.708661" stroke-linecap="round" stroke-linejoin="round" stroke="rgb(56.078431%, 16.470588%, 26.27451%)" stroke-opacity="0.6" stroke-miterlimit="10" d="M 279.519531 83.355469 C 279.519531 87.734375 275.96875 91.285156 271.589844 91.285156 C 267.210938 91.285156 263.660156 87.734375 263.660156 83.355469 C 263.660156 78.972656 267.210938 75.425781 271.589844 75.425781 C 275.96875 75.425781 279.519531 78.972656 279.519531 83.355469 "/>
<path fill-rule="nonzero" fill="rgb(56.078431%, 16.470588%, 26.27451%)" fill-opacity="0.6" stroke-width="0.708661" stroke-linecap="round" stroke-linejoin="round" stroke="rgb(56.078431%, 16.470588%, 26.27451%)" stroke-opacity="0.6" stroke-miterlimit="10" d="M 595.4375 237.042969 C 595.4375 241.421875 591.886719 244.972656 587.507812 244.972656 C 583.128906 244.972656 579.578125 241.421875 579.578125 237.042969 C 579.578125 232.664062 583.128906 229.113281 587.507812 229.113281 C 591.886719 229.113281 595.4375 232.664062 595.4375 237.042969 "/>
<path fill-rule="nonzero" fill="rgb(56.078431%, 16.470588%, 26.27451%)" fill-opacity="0.6" stroke-width="0.708661" stroke-linecap="round" stroke-linejoin="round" stroke="rgb(56.078431%, 16.470588%, 26.27451%)" stroke-opacity="0.6" stroke-miterlimit="10" d="M 279.519531 240.789062 C 279.519531 245.171875 275.96875 248.722656 271.589844 248.722656 C 267.210938 248.722656 263.660156 245.171875 263.660156 240.789062 C 263.660156 236.410156 267.210938 232.859375 271.589844 232.859375 C 275.96875 232.859375 279.519531 236.410156 279.519531 240.789062 "/>
<path fill-rule="nonzero" fill="rgb(56.078431%, 16.470588%, 26.27451%)" fill-opacity="0.6" stroke-width="0.708661" stroke-linecap="round" stroke-linejoin="round" stroke="rgb(56.078431%, 16.470588%, 26.27451%)" stroke-opacity="0.6" stroke-miterlimit="10" d="M 595.4375 244.539062 C 595.4375 248.917969 591.886719 252.46875 587.507812 252.46875 C 583.128906 252.46875 579.578125 248.917969 579.578125 244.539062 C 579.578125 240.160156 583.128906 236.609375 587.507812 236.609375 C 591.886719 236.609375 595.4375 240.160156 595.4375 244.539062 "/>
<path fill-rule="nonzero" fill="rgb(56.078431%, 16.470588%, 26.27451%)" fill-opacity="0.6" stroke-width="0.708661" stroke-linecap="round" stroke-linejoin="round" stroke="rgb(56.078431%, 16.470588%, 26.27451%)" stroke-opacity="0.6" stroke-miterlimit="10" d="M 279.519531 246.414062 C 279.519531 250.792969 275.96875 254.34375 271.589844 254.34375 C 267.210938 254.34375 263.660156 250.792969 263.660156 246.414062 C 263.660156 242.035156 267.210938 238.484375 271.589844 238.484375 C 275.96875 238.484375 279.519531 242.035156 279.519531 246.414062 "/>
<path fill-rule="nonzero" fill="rgb(56.078431%, 16.470588%, 26.27451%)" fill-opacity="0.6" stroke-width="0.708661" stroke-linecap="round" stroke-linejoin="round" stroke="rgb(56.078431%, 16.470588%, 26.27451%)" stroke-opacity="0.6" stroke-miterlimit="10" d="M 595.4375 252.035156 C 595.4375 256.414062 591.886719 259.964844 587.507812 259.964844 C 583.128906 259.964844 579.578125 256.414062 579.578125 252.035156 C 579.578125 247.65625 583.128906 244.105469 587.507812 244.105469 C 591.886719 244.105469 595.4375 247.65625 595.4375 252.035156 "/>
<path fill-rule="nonzero" fill="rgb(56.078431%, 16.470588%, 26.27451%)" fill-opacity="0.6" stroke-width="0.708661" stroke-linecap="round" stroke-linejoin="round" stroke="rgb(56.078431%, 16.470588%, 26.27451%)" stroke-opacity="0.6" stroke-miterlimit="10" d="M 279.519531 253.910156 C 279.519531 258.289062 275.96875 261.839844 271.589844 261.839844 C 267.210938 261.839844 263.660156 258.289062 263.660156 253.910156 C 263.660156 249.53125 267.210938 245.980469 271.589844 245.980469 C 275.96875 245.980469 279.519531 249.53125 279.519531 253.910156 "/>
<path fill-rule="nonzero" fill="rgb(10.196078%, 10.196078%, 10.196078%)" fill-opacity="1" d="M 61.871094 359.058594 L 61.375 359.035156 L 60.898438 358.960938 L 60.445312 358.839844 L 60.015625 358.667969 L 59.609375 358.449219 L 59.226562 358.183594 L 58.867188 357.867188 L 58.53125 357.5 L 58.214844 357.085938 L 57.925781 356.625 L 57.65625 356.117188 L 57.421875 355.566406 L 57.210938 354.976562 L 57.027344 354.347656 L 56.875 353.675781 L 56.746094 352.964844 L 56.648438 352.210938 L 56.578125 351.417969 L 56.539062 350.582031 L 56.523438 349.707031 L 56.539062 348.835938 L 56.578125 348.007812 L 56.648438 347.222656 L 56.746094 346.476562 L 56.875 345.773438 L 57.027344 345.109375 L 57.210938 344.488281 L 57.421875 343.910156 L 57.65625 343.371094 L 57.925781 342.875 L 58.214844 342.421875 L 58.53125 342.019531 L 58.867188 341.660156 L 59.226562 341.351562 L 59.609375 341.089844 L 60.015625 340.875 L 60.445312 340.710938 L 60.898438 340.589844 L 61.375 340.519531 L 61.871094 340.496094 L 62.375 340.519531 L 62.855469 340.589844 L 63.308594 340.710938 L 63.738281 340.875 L 64.148438 341.089844 L 64.53125 341.351562 L 64.886719 341.660156 L 65.222656 342.019531 L 65.535156 342.421875 L 65.820312 342.875 L 66.085938 343.371094 L 66.324219 343.910156 L 66.535156 344.488281 L 66.714844 345.109375 L 66.871094 345.773438 L 66.996094 346.476562 L 67.09375 347.222656 L 67.164062 348.007812 L 67.207031 348.835938 L 67.21875 349.707031 L 67.207031 350.582031 L 67.164062 351.417969 L 67.09375 352.210938 L 66.996094 352.964844 L 66.871094 353.675781 L 66.714844 354.347656 L 66.535156 354.976562 L 66.324219 355.566406 L 66.085938 356.117188 L 65.820312 356.625 L 65.535156 357.085938 L 65.222656 357.5 L 64.886719 357.867188 L 64.53125 358.183594 L 64.148438 358.449219 L 63.738281 358.667969 L 63.308594 358.839844 L 62.855469 358.960938 L 62.375 359.035156 Z M 61.871094 357.996094 L 62.238281 357.972656 L 62.589844 357.910156 L 62.925781 357.804688 L 63.246094 357.660156 L 63.550781 357.46875 L 63.839844 357.238281 L 64.113281 356.964844 L 64.371094 356.652344 L 64.613281 356.292969 L 64.839844 355.894531 L 65.054688 355.457031 L 65.242188 354.976562 L 65.410156 354.457031 L 65.558594 353.898438 L 65.679688 353.296875 L 65.78125 352.660156 L 65.859375 351.980469 L 65.914062 351.261719 L 65.949219 350.503906 L 65.960938 349.707031 L 65.949219 348.910156 L 65.914062 348.15625 L 65.859375 347.441406 L 65.78125 346.769531 L 65.679688 346.136719 L 65.558594 345.546875 L 65.410156 345 L 65.242188 344.492188 L 65.054688 344.027344 L 64.839844 343.601562 L 64.613281 343.214844 L 64.371094 342.867188 L 64.113281 342.5625 L 63.839844 342.296875 L 63.550781 342.070312 L 63.246094 341.886719 L 62.925781 341.742188 L 62.589844 341.640625 L 62.238281 341.578125 L 61.871094 341.558594 L 61.507812 341.578125 L 61.160156 341.640625 L 60.828125 341.742188 L 60.511719 341.886719 L 60.207031 342.070312 L 59.917969 342.296875 L 59.640625 342.5625 L 59.382812 342.867188 L 59.136719 343.214844 L 58.902344 343.601562 L 58.691406 344.027344 L 58.5 344.492188 L 58.332031 345 L 58.1875 345.546875 L 58.0625 346.136719 L 57.964844 346.769531 L 57.882812 347.441406 L 57.828125 348.15625 L 57.796875 348.910156 L 57.785156 349.707031 L 57.796875 350.503906 L 57.828125 351.261719 L 57.882812 351.980469 L 57.964844 352.660156 L 58.0625 353.296875 L 58.1875 353.898438 L 58.332031 354.457031 L 58.5 354.976562 L 58.691406 355.457031 L 58.902344 355.894531 L 59.136719 356.292969 L 59.382812 356.652344 L 59.640625 356.964844 L 59.917969 357.238281 L 60.207031 357.46875 L 60.511719 357.660156 L 60.828125 357.804688 L 61.160156 357.910156 L 61.507812 357.972656 Z M 61.871094 357.996094 "/>
<path fill-rule="nonzero" fill="rgb(10.196078%, 10.196078%, 10.196078%)" fill-opacity="1" d="M 16.09375 283.753906 L 16.09375 282.96875 L 16.671875 282.378906 L 17.230469 281.804688 L 17.769531 281.246094 L 18.289062 280.703125 L 18.785156 280.175781 L 19.265625 279.667969 L 19.726562 279.171875 L 20.167969 278.695312 L 20.589844 278.234375 L 20.992188 277.789062 L 21.375 277.351562 L 21.738281 276.921875 L 22.078125 276.503906 L 22.402344 276.097656 L 22.707031 275.695312 L 22.992188 275.304688 L 23.253906 274.925781 L 23.5 274.554688 L 23.726562 274.195312 L 23.933594 273.839844 L 24.117188 273.496094 L 24.285156 273.15625 L 24.433594 272.816406 L 24.558594 272.484375 L 24.667969 272.15625 L 24.753906 271.828125 L 24.824219 271.507812 L 24.871094 271.1875 L 24.902344 270.875 L 24.910156 270.566406 L 24.902344 270.234375 L 24.875 269.914062 L 24.828125 269.605469 L 24.757812 269.304688 L 24.675781 269.019531 L 24.570312 268.742188 L 24.445312 268.472656 L 24.300781 268.21875 L 24.140625 267.972656 L 23.960938 267.738281 L 23.765625 267.519531 L 23.546875 267.324219 L 23.308594 267.152344 L 23.046875 267.003906 L 22.761719 266.875 L 22.457031 266.773438 L 22.132812 266.691406 L 21.78125 266.636719 L 21.414062 266.601562 L 21.019531 266.589844 L 20.78125 266.597656 L 20.542969 266.617188 L 20.308594 266.648438 L 20.074219 266.695312 L 19.84375 266.757812 L 19.617188 266.832031 L 19.390625 266.917969 L 19.164062 267.019531 L 18.945312 267.132812 L 18.722656 267.261719 L 18.515625 267.398438 L 18.308594 267.542969 L 18.109375 267.695312 L 17.914062 267.851562 L 17.722656 268.015625 L 17.539062 268.1875 L 17.359375 268.367188 L 17.183594 268.550781 L 17.011719 268.742188 L 16.847656 268.941406 L 16.035156 268.15625 L 16.238281 267.9375 L 16.449219 267.722656 L 16.660156 267.519531 L 16.878906 267.320312 L 17.101562 267.128906 L 17.328125 266.945312 L 17.558594 266.769531 L 17.792969 266.597656 L 18.03125 266.4375 L 18.277344 266.28125 L 18.527344 266.136719 L 18.785156 266.007812 L 19.050781 265.894531 L 19.324219 265.796875 L 19.605469 265.714844 L 19.894531 265.644531 L 20.191406 265.59375 L 20.496094 265.554688 L 20.8125 265.53125 L 21.132812 265.527344 L 21.601562 265.539062 L 22.050781 265.582031 L 22.476562 265.648438 L 22.882812 265.746094 L 23.265625 265.867188 L 23.628906 266.019531 L 23.96875 266.199219 L 24.285156 266.402344 L 24.582031 266.636719 L 24.855469 266.898438 L 25.105469 267.179688 L 25.328125 267.480469 L 25.527344 267.800781 L 25.699219 268.136719 L 25.84375 268.492188 L 25.960938 268.867188 L 26.054688 269.257812 L 26.121094 269.667969 L 26.160156 270.09375 L 26.171875 270.539062 L 26.160156 270.890625 L 26.128906 271.246094 L 26.078125 271.601562 L 26.007812 271.957031 L 25.914062 272.316406 L 25.800781 272.675781 L 25.664062 273.035156 L 25.507812 273.394531 L 25.332031 273.757812 L 25.136719 274.121094 L 24.925781 274.488281 L 24.699219 274.859375 L 24.457031 275.238281 L 24.195312 275.621094 L 23.917969 276.011719 L 23.625 276.40625 L 23.3125 276.804688 L 22.984375 277.210938 L 22.640625 277.625 L 22.28125 278.042969 L 21.910156 278.464844 L 21.523438 278.902344 L 21.128906 279.347656 L 20.714844 279.804688 L 20.292969 280.273438 L 19.855469 280.753906 L 19.402344 281.242188 L 18.9375 281.742188 L 18.460938 282.253906 L 17.96875 282.773438 L 18.113281 282.761719 L 18.261719 282.753906 L 18.40625 282.742188 L 18.554688 282.734375 L 18.703125 282.722656 L 19 282.707031 L 19.152344 282.703125 L 19.300781 282.695312 L 19.453125 282.6875 L 19.609375 282.679688 L 19.761719 282.667969 L 19.917969 282.660156 L 20.070312 282.652344 L 20.222656 282.648438 L 20.371094 282.640625 L 20.523438 282.636719 L 20.671875 282.636719 L 20.816406 282.632812 L 27.066406 282.632812 L 27.066406 283.753906 Z M 16.09375 283.753906 "/>
<path fill-rule="nonzero" fill="rgb(10.196078%, 10.196078%, 10.196078%)" fill-opacity="1" d="M 35.046875 284.089844 L 34.550781 284.066406 L 34.074219 283.992188 L 33.621094 283.871094 L 33.191406 283.699219 L 32.785156 283.480469 L 32.402344 283.210938 L 32.042969 282.894531 L 31.707031 282.53125 L 31.390625 282.117188 L 31.101562 281.652344 L 30.832031 281.144531 L 30.597656 280.597656 L 30.386719 280.007812 L 30.203125 279.378906 L 30.050781 278.707031 L 29.925781 277.996094 L 29.824219 277.242188 L 29.757812 276.449219 L 29.714844 275.613281 L 29.699219 274.738281 L 29.714844 273.867188 L 29.757812 273.039062 L 29.824219 272.253906 L 29.925781 271.507812 L 30.050781 270.804688 L 30.203125 270.140625 L 30.386719 269.519531 L 30.597656 268.941406 L 30.832031 268.402344 L 31.101562 267.90625 L 31.390625 267.453125 L 31.707031 267.046875 L 32.042969 266.691406 L 32.402344 266.382812 L 32.785156 266.121094 L 33.191406 265.90625 L 33.621094 265.738281 L 34.074219 265.621094 L 34.550781 265.550781 L 35.046875 265.527344 L 35.550781 265.550781 L 36.03125 265.621094 L 36.484375 265.738281 L 36.917969 265.90625 L 37.324219 266.121094 L 37.707031 266.382812 L 38.0625 266.691406 L 38.398438 267.046875 L 38.710938 267.453125 L 38.996094 267.90625 L 39.261719 268.402344 L 39.5 268.941406 L 39.710938 269.519531 L 39.890625 270.140625 L 40.046875 270.804688 L 40.171875 271.507812 L 40.269531 272.253906 L 40.339844 273.039062 L 40.382812 273.867188 L 40.394531 274.738281 L 40.382812 275.613281 L 40.339844 276.449219 L 40.269531 277.242188 L 40.171875 277.996094 L 40.046875 278.707031 L 39.890625 279.378906 L 39.710938 280.007812 L 39.5 280.597656 L 39.261719 281.144531 L 38.996094 281.652344 L 38.710938 282.117188 L 38.398438 282.53125 L 38.0625 282.894531 L 37.707031 283.210938 L 37.324219 283.480469 L 36.917969 283.699219 L 36.484375 283.871094 L 36.03125 283.992188 L 35.550781 284.066406 Z M 35.046875 283.027344 L 35.414062 283.003906 L 35.765625 282.941406 L 36.101562 282.835938 L 36.421875 282.6875 L 36.726562 282.5 L 37.015625 282.269531 L 37.289062 281.996094 L 37.546875 281.679688 L 37.789062 281.324219 L 38.015625 280.925781 L 38.230469 280.484375 L 38.417969 280.007812 L 38.585938 279.488281 L 38.734375 278.925781 L 38.855469 278.328125 L 38.957031 277.691406 L 39.035156 277.011719 L 39.089844 276.292969 L 39.125 275.535156 L 39.136719 274.738281 L 39.125 273.941406 L 39.089844 273.183594 L 39.035156 272.472656 L 38.957031 271.796875 L 38.855469 271.167969 L 38.734375 270.578125 L 38.585938 270.03125 L 38.417969 269.523438 L 38.230469 269.058594 L 38.015625 268.632812 L 37.789062 268.246094 L 37.546875 267.898438 L 37.289062 267.589844 L 37.015625 267.324219 L 36.726562 267.101562 L 36.421875 266.917969 L 36.101562 266.773438 L 35.765625 266.671875 L 35.414062 266.609375 L 35.046875 266.589844 L 34.6875 266.609375 L 34.335938 266.671875 L 34.003906 266.773438 L 33.6875 266.917969 L 33.382812 267.101562 L 33.09375 267.324219 L 32.816406 267.589844 L 32.558594 267.898438 L 32.3125 268.246094 L 32.078125 268.632812 L 31.867188 269.058594 L 31.675781 269.523438 L 31.507812 270.03125 L 31.363281 270.578125 L 31.238281 271.167969 L 31.140625 271.796875 L 31.0625 272.472656 L 31.003906 273.183594 L 30.972656 273.941406 L 30.960938 274.738281 L 30.972656 275.535156 L 31.003906 276.292969 L 31.0625 277.011719 L 31.140625 277.691406 L 31.238281 278.328125 L 31.363281 278.925781 L 31.507812 279.488281 L 31.675781 280.007812 L 31.867188 280.484375 L 32.078125 280.925781 L 32.3125 281.324219 L 32.558594 281.679688 L 32.816406 281.996094 L 33.09375 282.269531 L 33.382812 282.5 L 33.6875 282.6875 L 34.003906 282.835938 L 34.335938 282.941406 L 34.6875 283.003906 Z M 35.046875 283.027344 "/>
<path fill-rule="nonzero" fill="rgb(10.196078%, 10.196078%, 10.196078%)" fill-opacity="1" d="M 48.460938 284.089844 L 47.960938 284.066406 L 47.488281 283.992188 L 47.035156 283.871094 L 46.605469 283.699219 L 46.199219 283.480469 L 45.816406 283.210938 L 45.457031 282.894531 L 45.117188 282.53125 L 44.804688 282.117188 L 44.511719 281.652344 L 44.246094 281.144531 L 44.007812 280.597656 L 43.796875 280.007812 L 43.617188 279.378906 L 43.460938 278.707031 L 43.335938 277.996094 L 43.238281 277.242188 L 43.167969 276.449219 L 43.125 275.613281 L 43.113281 274.738281 L 43.125 273.867188 L 43.167969 273.039062 L 43.238281 272.253906 L 43.335938 271.507812 L 43.460938 270.804688 L 43.617188 270.140625 L 43.796875 269.519531 L 44.007812 268.941406 L 44.246094 268.402344 L 44.511719 267.90625 L 44.804688 267.453125 L 45.117188 267.046875 L 45.457031 266.691406 L 45.816406 266.382812 L 46.199219 266.121094 L 46.605469 265.90625 L 47.035156 265.738281 L 47.488281 265.621094 L 47.960938 265.550781 L 48.460938 265.527344 L 48.964844 265.550781 L 49.441406 265.621094 L 49.898438 265.738281 L 50.328125 265.90625 L 50.734375 266.121094 L 51.117188 266.382812 L 51.476562 266.691406 L 51.8125 267.046875 L 52.121094 267.453125 L 52.40625 267.90625 L 52.675781 268.402344 L 52.910156 268.941406 L 53.121094 269.519531 L 53.304688 270.140625 L 53.457031 270.804688 L 53.582031 271.507812 L 53.683594 272.253906 L 53.753906 273.039062 L 53.792969 273.867188 L 53.808594 274.738281 L 53.792969 275.613281 L 53.753906 276.449219 L 53.683594 277.242188 L 53.582031 277.996094 L 53.457031 278.707031 L 53.304688 279.378906 L 53.121094 280.007812 L 52.910156 280.597656 L 52.675781 281.144531 L 52.40625 281.652344 L 52.121094 282.117188 L 51.8125 282.53125 L 51.476562 282.894531 L 51.117188 283.210938 L 50.734375 283.480469 L 50.328125 283.699219 L 49.898438 283.871094 L 49.441406 283.992188 L 48.964844 284.066406 Z M 48.460938 283.027344 L 48.828125 283.003906 L 49.179688 282.941406 L 49.515625 282.835938 L 49.835938 282.6875 L 50.140625 282.5 L 50.429688 282.269531 L 50.703125 281.996094 L 50.960938 281.679688 L 51.203125 281.324219 L 51.429688 280.925781 L 51.640625 280.484375 L 51.832031 280.007812 L 52 279.488281 L 52.144531 278.925781 L 52.269531 278.328125 L 52.367188 277.691406 L 52.445312 277.011719 L 52.503906 276.292969 L 52.535156 275.535156 L 52.546875 274.738281 L 52.535156 273.941406 L 52.503906 273.183594 L 52.445312 272.472656 L 52.367188 271.796875 L 52.269531 271.167969 L 52.144531 270.578125 L 52 270.03125 L 51.832031 269.523438 L 51.640625 269.058594 L 51.429688 268.632812 L 51.203125 268.246094 L 50.960938 267.898438 L 50.703125 267.589844 L 50.429688 267.324219 L 50.140625 267.101562 L 49.835938 266.917969 L 49.515625 266.773438 L 49.179688 266.671875 L 48.828125 266.609375 L 48.460938 266.589844 L 48.097656 266.609375 L 47.75 266.671875 L 47.417969 266.773438 L 47.097656 266.917969 L 46.792969 267.101562 L 46.503906 267.324219 L 46.230469 267.589844 L 45.96875 267.898438 L 45.722656 268.246094 L 45.492188 268.632812 L 45.277344 269.058594 L 45.089844 269.523438 L 44.921875 270.03125 L 44.773438 270.578125 L 44.652344 271.167969 L 44.550781 271.796875 L 44.472656 272.472656 L 44.417969 273.183594 L 44.382812 273.941406 L 44.371094 274.738281 L 44.382812 275.535156 L 44.417969 276.292969 L 44.472656 277.011719 L 44.550781 277.691406 L 44.652344 278.328125 L 44.773438 278.925781 L 44.921875 279.488281 L 45.089844 280.007812 L 45.277344 280.484375 L 45.492188 280.925781 L 45.722656 281.324219 L 45.96875 281.679688 L 46.230469 281.996094 L 46.503906 282.269531 L 46.792969 282.5 L 47.097656 282.6875 L 47.417969 282.835938 L 47.75 282.941406 L 48.097656 283.003906 Z M 48.460938 283.027344 "/>
<path fill-rule="nonzero" fill="rgb(10.196078%, 10.196078%, 10.196078%)" fill-opacity="1" d="M 61.871094 284.089844 L 61.375 284.066406 L 60.898438 283.992188 L 60.445312 283.871094 L 60.015625 283.699219 L 59.609375 283.480469 L 59.226562 283.210938 L 58.867188 282.894531 L 58.53125 282.53125 L 58.214844 282.117188 L 57.925781 281.652344 L 57.65625 281.144531 L 57.421875 280.597656 L 57.210938 280.007812 L 57.027344 279.378906 L 56.875 278.707031 L 56.746094 277.996094 L 56.648438 277.242188 L 56.578125 276.449219 L 56.539062 275.613281 L 56.523438 274.738281 L 56.539062 273.867188 L 56.578125 273.039062 L 56.648438 272.253906 L 56.746094 271.507812 L 56.875 270.804688 L 57.027344 270.140625 L 57.210938 269.519531 L 57.421875 268.941406 L 57.65625 268.402344 L 57.925781 267.90625 L 58.214844 267.453125 L 58.53125 267.046875 L 58.867188 266.691406 L 59.226562 266.382812 L 59.609375 266.121094 L 60.015625 265.90625 L 60.445312 265.738281 L 60.898438 265.621094 L 61.375 265.550781 L 61.871094 265.527344 L 62.375 265.550781 L 62.855469 265.621094 L 63.308594 265.738281 L 63.738281 265.90625 L 64.148438 266.121094 L 64.53125 266.382812 L 64.886719 266.691406 L 65.222656 267.046875 L 65.535156 267.453125 L 65.820312 267.90625 L 66.085938 268.402344 L 66.324219 268.941406 L 66.535156 269.519531 L 66.714844 270.140625 L 66.871094 270.804688 L 66.996094 271.507812 L 67.09375 272.253906 L 67.164062 273.039062 L 67.207031 273.867188 L 67.21875 274.738281 L 67.207031 275.613281 L 67.164062 276.449219 L 67.09375 277.242188 L 66.996094 277.996094 L 66.871094 278.707031 L 66.714844 279.378906 L 66.535156 280.007812 L 66.324219 280.597656 L 66.085938 281.144531 L 65.820312 281.652344 L 65.535156 282.117188 L 65.222656 282.53125 L 64.886719 282.894531 L 64.53125 283.210938 L 64.148438 283.480469 L 63.738281 283.699219 L 63.308594 283.871094 L 62.855469 283.992188 L 62.375 284.066406 Z M 61.871094 283.027344 L 62.238281 283.003906 L 62.589844 282.941406 L 62.925781 282.835938 L 63.246094 282.6875 L 63.550781 282.5 L 63.839844 282.269531 L 64.113281 281.996094 L 64.371094 281.679688 L 64.613281 281.324219 L 64.839844 280.925781 L 65.054688 280.484375 L 65.242188 280.007812 L 65.410156 279.488281 L 65.558594 278.925781 L 65.679688 278.328125 L 65.78125 277.691406 L 65.859375 277.011719 L 65.914062 276.292969 L 65.949219 275.535156 L 65.960938 274.738281 L 65.949219 273.941406 L 65.914062 273.183594 L 65.859375 272.472656 L 65.78125 271.796875 L 65.679688 271.167969 L 65.558594 270.578125 L 65.410156 270.03125 L 65.242188 269.523438 L 65.054688 269.058594 L 64.839844 268.632812 L 64.613281 268.246094 L 64.371094 267.898438 L 64.113281 267.589844 L 63.839844 267.324219 L 63.550781 267.101562 L 63.246094 266.917969 L 62.925781 266.773438 L 62.589844 266.671875 L 62.238281 266.609375 L 61.871094 266.589844 L 61.507812 266.609375 L 61.160156 266.671875 L 60.828125 266.773438 L 60.511719 266.917969 L 60.207031 267.101562 L 59.917969 267.324219 L 59.640625 267.589844 L 59.382812 267.898438 L 59.136719 268.246094 L 58.902344 268.632812 L 58.691406 269.058594 L 58.5 269.523438 L 58.332031 270.03125 L 58.1875 270.578125 L 58.0625 271.167969 L 57.964844 271.796875 L 57.882812 272.472656 L 57.828125 273.183594 L 57.796875 273.941406 L 57.785156 274.738281 L 57.796875 275.535156 L 57.828125 276.292969 L 57.882812 277.011719 L 57.964844 277.691406 L 58.0625 278.328125 L 58.1875 278.925781 L 58.332031 279.488281 L 58.5 280.007812 L 58.691406 280.484375 L 58.902344 280.925781 L 59.136719 281.324219 L 59.382812 281.679688 L 59.640625 281.996094 L 59.917969 282.269531 L 60.207031 282.5 L 60.511719 282.6875 L 60.828125 282.835938 L 61.160156 282.941406 L 61.507812 283.003906 Z M 61.871094 283.027344 "/>
<path fill-rule="nonzero" fill="rgb(10.196078%, 10.196078%, 10.196078%)" fill-opacity="1" d="M 16.902344 202.371094 L 23.625 202.371094 L 23.625 195.421875 L 23.628906 195.277344 L 23.632812 195.125 L 23.632812 194.96875 L 23.636719 194.804688 L 23.640625 194.636719 L 23.648438 194.460938 L 23.652344 194.28125 L 23.664062 194.097656 L 23.671875 193.921875 L 23.683594 193.753906 L 23.691406 193.589844 L 23.699219 193.433594 L 23.710938 193.28125 L 23.714844 193.136719 L 23.722656 193 L 23.730469 192.867188 L 23.734375 192.738281 L 23.625 192.738281 L 23.554688 192.851562 L 23.488281 192.960938 L 23.417969 193.074219 L 23.351562 193.183594 L 23.210938 193.402344 L 23.140625 193.507812 L 23.070312 193.617188 L 22.996094 193.726562 L 22.925781 193.832031 L 22.851562 193.9375 L 22.777344 194.046875 L 22.703125 194.160156 L 22.628906 194.269531 L 22.554688 194.382812 L 22.476562 194.5 L 22.402344 194.617188 L 22.324219 194.738281 L 22.246094 194.855469 L 22.167969 194.980469 Z M 23.625 208.785156 L 23.625 203.433594 L 15.390625 203.433594 L 15.390625 202.707031 L 23.707031 190.890625 L 24.828125 190.890625 L 24.828125 202.371094 L 27.488281 202.371094 L 27.488281 203.433594 L 24.828125 203.433594 L 24.828125 208.785156 Z M 23.625 208.785156 "/>
<path fill-rule="nonzero" fill="rgb(10.196078%, 10.196078%, 10.196078%)" fill-opacity="1" d="M 35.046875 209.121094 L 34.550781 209.09375 L 34.074219 209.023438 L 33.621094 208.898438 L 33.191406 208.730469 L 32.785156 208.511719 L 32.402344 208.242188 L 32.042969 207.925781 L 31.707031 207.558594 L 31.390625 207.144531 L 31.101562 206.683594 L 30.832031 206.175781 L 30.597656 205.628906 L 30.386719 205.039062 L 30.203125 204.40625 L 30.050781 203.738281 L 29.925781 203.023438 L 29.824219 202.273438 L 29.757812 201.476562 L 29.714844 200.644531 L 29.699219 199.765625 L 29.714844 198.898438 L 29.757812 198.070312 L 29.824219 197.28125 L 29.925781 196.539062 L 30.050781 195.832031 L 30.203125 195.171875 L 30.386719 194.550781 L 30.597656 193.96875 L 30.832031 193.433594 L 31.101562 192.933594 L 31.390625 192.484375 L 31.707031 192.078125 L 32.042969 191.722656 L 32.402344 191.414062 L 32.785156 191.152344 L 33.191406 190.9375 L 33.621094 190.769531 L 34.074219 190.652344 L 34.550781 190.578125 L 35.046875 190.554688 L 35.550781 190.578125 L 36.03125 190.652344 L 36.484375 190.769531 L 36.917969 190.9375 L 37.324219 191.152344 L 37.707031 191.414062 L 38.0625 191.722656 L 38.398438 192.078125 L 38.710938 192.484375 L 38.996094 192.933594 L 39.261719 193.433594 L 39.5 193.96875 L 39.710938 194.550781 L 39.890625 195.171875 L 40.046875 195.832031 L 40.171875 196.539062 L 40.269531 197.28125 L 40.339844 198.070312 L 40.382812 198.898438 L 40.394531 199.765625 L 40.382812 200.644531 L 40.339844 201.476562 L 40.269531 202.273438 L 40.171875 203.023438 L 40.046875 203.738281 L 39.890625 204.40625 L 39.710938 205.039062 L 39.5 205.628906 L 39.261719 206.175781 L 38.996094 206.683594 L 38.710938 207.144531 L 38.398438 207.558594 L 38.0625 207.925781 L 37.707031 208.242188 L 37.324219 208.511719 L 36.917969 208.730469 L 36.484375 208.898438 L 36.03125 209.023438 L 35.550781 209.09375 Z M 35.046875 208.054688 L 35.414062 208.035156 L 35.765625 207.972656 L 36.101562 207.867188 L 36.421875 207.71875 L 36.726562 207.53125 L 37.015625 207.300781 L 37.289062 207.027344 L 37.546875 206.710938 L 37.789062 206.355469 L 38.015625 205.957031 L 38.230469 205.515625 L 38.417969 205.035156 L 38.585938 204.515625 L 38.734375 203.957031 L 38.855469 203.359375 L 38.957031 202.71875 L 39.035156 202.042969 L 39.089844 201.324219 L 39.125 200.566406 L 39.136719 199.765625 L 39.125 198.96875 L 39.089844 198.214844 L 39.035156 197.5 L 38.957031 196.828125 L 38.855469 196.199219 L 38.734375 195.609375 L 38.585938 195.058594 L 38.417969 194.554688 L 38.230469 194.085938 L 38.015625 193.664062 L 37.789062 193.273438 L 37.546875 192.925781 L 37.289062 192.621094 L 37.015625 192.355469 L 36.726562 192.128906 L 36.421875 191.945312 L 36.101562 191.804688 L 35.765625 191.703125 L 35.414062 191.640625 L 35.046875 191.621094 L 34.6875 191.640625 L 34.335938 191.703125 L 34.003906 191.804688 L 33.6875 191.945312 L 33.382812 192.128906 L 33.09375 192.355469 L 32.816406 192.621094 L 32.558594 192.925781 L 32.3125 193.273438 L 32.078125 193.664062 L 31.867188 194.085938 L 31.675781 194.554688 L 31.507812 195.058594 L 31.363281 195.609375 L 31.238281 196.199219 L 31.140625 196.828125 L 31.0625 197.5 L 31.003906 198.214844 L 30.972656 198.96875 L 30.960938 199.765625 L 30.972656 200.566406 L 31.003906 201.324219 L 31.0625 202.042969 L 31.140625 202.71875 L 31.238281 203.359375 L 31.363281 203.957031 L 31.507812 204.515625 L 31.675781 205.035156 L 31.867188 205.515625 L 32.078125 205.957031 L 32.3125 206.355469 L 32.558594 206.710938 L 32.816406 207.027344 L 33.09375 207.300781 L 33.382812 207.53125 L 33.6875 207.71875 L 34.003906 207.867188 L 34.335938 207.972656 L 34.6875 208.035156 Z M 35.046875 208.054688 "/>
<path fill-rule="nonzero" fill="rgb(10.196078%, 10.196078%, 10.196078%)" fill-opacity="1" d="M 48.460938 209.121094 L 47.960938 209.09375 L 47.488281 209.023438 L 47.035156 208.898438 L 46.605469 208.730469 L 46.199219 208.511719 L 45.816406 208.242188 L 45.457031 207.925781 L 45.117188 207.558594 L 44.804688 207.144531 L 44.511719 206.683594 L 44.246094 206.175781 L 44.007812 205.628906 L 43.796875 205.039062 L 43.617188 204.40625 L 43.460938 203.738281 L 43.335938 203.023438 L 43.238281 202.273438 L 43.167969 201.476562 L 43.125 200.644531 L 43.113281 199.765625 L 43.125 198.898438 L 43.167969 198.070312 L 43.238281 197.28125 L 43.335938 196.539062 L 43.460938 195.832031 L 43.617188 195.171875 L 43.796875 194.550781 L 44.007812 193.96875 L 44.246094 193.433594 L 44.511719 192.933594 L 44.804688 192.484375 L 45.117188 192.078125 L 45.457031 191.722656 L 45.816406 191.414062 L 46.199219 191.152344 L 46.605469 190.9375 L 47.035156 190.769531 L 47.488281 190.652344 L 47.960938 190.578125 L 48.460938 190.554688 L 48.964844 190.578125 L 49.441406 190.652344 L 49.898438 190.769531 L 50.328125 190.9375 L 50.734375 191.152344 L 51.117188 191.414062 L 51.476562 191.722656 L 51.8125 192.078125 L 52.121094 192.484375 L 52.40625 192.933594 L 52.675781 193.433594 L 52.910156 193.96875 L 53.121094 194.550781 L 53.304688 195.171875 L 53.457031 195.832031 L 53.582031 196.539062 L 53.683594 197.28125 L 53.753906 198.070312 L 53.792969 198.898438 L 53.808594 199.765625 L 53.792969 200.644531 L 53.753906 201.476562 L 53.683594 202.273438 L 53.582031 203.023438 L 53.457031 203.738281 L 53.304688 204.40625 L 53.121094 205.039062 L 52.910156 205.628906 L 52.675781 206.175781 L 52.40625 206.683594 L 52.121094 207.144531 L 51.8125 207.558594 L 51.476562 207.925781 L 51.117188 208.242188 L 50.734375 208.511719 L 50.328125 208.730469 L 49.898438 208.898438 L 49.441406 209.023438 L 48.964844 209.09375 Z M 48.460938 208.054688 L 48.828125 208.035156 L 49.179688 207.972656 L 49.515625 207.867188 L 49.835938 207.71875 L 50.140625 207.53125 L 50.429688 207.300781 L 50.703125 207.027344 L 50.960938 206.710938 L 51.203125 206.355469 L 51.429688 205.957031 L 51.640625 205.515625 L 51.832031 205.035156 L 52 204.515625 L 52.144531 203.957031 L 52.269531 203.359375 L 52.367188 202.71875 L 52.445312 202.042969 L 52.503906 201.324219 L 52.535156 200.566406 L 52.546875 199.765625 L 52.535156 198.96875 L 52.503906 198.214844 L 52.445312 197.5 L 52.367188 196.828125 L 52.269531 196.199219 L 52.144531 195.609375 L 52 195.058594 L 51.832031 194.554688 L 51.640625 194.085938 L 51.429688 193.664062 L 51.203125 193.273438 L 50.960938 192.925781 L 50.703125 192.621094 L 50.429688 192.355469 L 50.140625 192.128906 L 49.835938 191.945312 L 49.515625 191.804688 L 49.179688 191.703125 L 48.828125 191.640625 L 48.460938 191.621094 L 48.097656 191.640625 L 47.75 191.703125 L 47.417969 191.804688 L 47.097656 191.945312 L 46.792969 192.128906 L 46.503906 192.355469 L 46.230469 192.621094 L 45.96875 192.925781 L 45.722656 193.273438 L 45.492188 193.664062 L 45.277344 194.085938 L 45.089844 194.554688 L 44.921875 195.058594 L 44.773438 195.609375 L 44.652344 196.199219 L 44.550781 196.828125 L 44.472656 197.5 L 44.417969 198.214844 L 44.382812 198.96875 L 44.371094 199.765625 L 44.382812 200.566406 L 44.417969 201.324219 L 44.472656 202.042969 L 44.550781 202.71875 L 44.652344 203.359375 L 44.773438 203.957031 L 44.921875 204.515625 L 45.089844 205.035156 L 45.277344 205.515625 L 45.492188 205.957031 L 45.722656 206.355469 L 45.96875 206.710938 L 46.230469 207.027344 L 46.503906 207.300781 L 46.792969 207.53125 L 47.097656 207.71875 L 47.417969 207.867188 L 47.75 207.972656 L 48.097656 208.035156 Z M 48.460938 208.054688 "/>
<path fill-rule="nonzero" fill="rgb(10.196078%, 10.196078%, 10.196078%)" fill-opacity="1" d="M 61.871094 209.121094 L 61.375 209.09375 L 60.898438 209.023438 L 60.445312 208.898438 L 60.015625 208.730469 L 59.609375 208.511719 L 59.226562 208.242188 L 58.867188 207.925781 L 58.53125 207.558594 L 58.214844 207.144531 L 57.925781 206.683594 L 57.65625 206.175781 L 57.421875 205.628906 L 57.210938 205.039062 L 57.027344 204.40625 L 56.875 203.738281 L 56.746094 203.023438 L 56.648438 202.273438 L 56.578125 201.476562 L 56.539062 200.644531 L 56.523438 199.765625 L 56.539062 198.898438 L 56.578125 198.070312 L 56.648438 197.28125 L 56.746094 196.539062 L 56.875 195.832031 L 57.027344 195.171875 L 57.210938 194.550781 L 57.421875 193.96875 L 57.65625 193.433594 L 57.925781 192.933594 L 58.214844 192.484375 L 58.53125 192.078125 L 58.867188 191.722656 L 59.226562 191.414062 L 59.609375 191.152344 L 60.015625 190.9375 L 60.445312 190.769531 L 60.898438 190.652344 L 61.375 190.578125 L 61.871094 190.554688 L 62.375 190.578125 L 62.855469 190.652344 L 63.308594 190.769531 L 63.738281 190.9375 L 64.148438 191.152344 L 64.53125 191.414062 L 64.886719 191.722656 L 65.222656 192.078125 L 65.535156 192.484375 L 65.820312 192.933594 L 66.085938 193.433594 L 66.324219 193.96875 L 66.535156 194.550781 L 66.714844 195.171875 L 66.871094 195.832031 L 66.996094 196.539062 L 67.09375 197.28125 L 67.164062 198.070312 L 67.207031 198.898438 L 67.21875 199.765625 L 67.207031 200.644531 L 67.164062 201.476562 L 67.09375 202.273438 L 66.996094 203.023438 L 66.871094 203.738281 L 66.714844 204.40625 L 66.535156 205.039062 L 66.324219 205.628906 L 66.085938 206.175781 L 65.820312 206.683594 L 65.535156 207.144531 L 65.222656 207.558594 L 64.886719 207.925781 L 64.53125 208.242188 L 64.148438 208.511719 L 63.738281 208.730469 L 63.308594 208.898438 L 62.855469 209.023438 L 62.375 209.09375 Z M 61.871094 208.054688 L 62.238281 208.035156 L 62.589844 207.972656 L 62.925781 207.867188 L 63.246094 207.71875 L 63.550781 207.53125 L 63.839844 207.300781 L 64.113281 207.027344 L 64.371094 206.710938 L 64.613281 206.355469 L 64.839844 205.957031 L 65.054688 205.515625 L 65.242188 205.035156 L 65.410156 204.515625 L 65.558594 203.957031 L 65.679688 203.359375 L 65.78125 202.71875 L 65.859375 202.042969 L 65.914062 201.324219 L 65.949219 200.566406 L 65.960938 199.765625 L 65.949219 198.96875 L 65.914062 198.214844 L 65.859375 197.5 L 65.78125 196.828125 L 65.679688 196.199219 L 65.558594 195.609375 L 65.410156 195.058594 L 65.242188 194.554688 L 65.054688 194.085938 L 64.839844 193.664062 L 64.613281 193.273438 L 64.371094 192.925781 L 64.113281 192.621094 L 63.839844 192.355469 L 63.550781 192.128906 L 63.246094 191.945312 L 62.925781 191.804688 L 62.589844 191.703125 L 62.238281 191.640625 L 61.871094 191.621094 L 61.507812 191.640625 L 61.160156 191.703125 L 60.828125 191.804688 L 60.511719 191.945312 L 60.207031 192.128906 L 59.917969 192.355469 L 59.640625 192.621094 L 59.382812 192.925781 L 59.136719 193.273438 L 58.902344 193.664062 L 58.691406 194.085938 L 58.5 194.554688 L 58.332031 195.058594 L 58.1875 195.609375 L 58.0625 196.199219 L 57.964844 196.828125 L 57.882812 197.5 L 57.828125 198.214844 L 57.796875 198.96875 L 57.785156 199.765625 L 57.796875 200.566406 L 57.828125 201.324219 L 57.882812 202.042969 L 57.964844 202.71875 L 58.0625 203.359375 L 58.1875 203.957031 L 58.332031 204.515625 L 58.5 205.035156 L 58.691406 205.515625 L 58.902344 205.957031 L 59.136719 206.355469 L 59.382812 206.710938 L 59.640625 207.027344 L 59.917969 207.300781 L 60.207031 207.53125 L 60.511719 207.71875 L 60.828125 207.867188 L 61.160156 207.972656 L 61.507812 208.035156 Z M 61.871094 208.054688 "/>
<path fill-rule="nonzero" fill="rgb(10.196078%, 10.196078%, 10.196078%)" fill-opacity="1" d="M 22.027344 124.070312 L 21.835938 124.074219 L 21.640625 124.09375 L 21.4375 124.125 L 21.234375 124.167969 L 21.027344 124.222656 L 20.816406 124.292969 L 20.597656 124.371094 L 20.378906 124.464844 L 20.15625 124.570312 L 19.929688 124.683594 L 19.699219 124.8125 L 19.472656 124.957031 L 19.246094 125.117188 L 19.019531 125.300781 L 18.792969 125.496094 L 18.570312 125.714844 L 18.347656 125.949219 L 18.128906 126.199219 L 17.90625 126.46875 L 17.6875 126.757812 L 17.730469 127.3125 L 17.792969 127.847656 L 17.875 128.359375 L 17.976562 128.851562 L 18.09375 129.320312 L 18.230469 129.769531 L 18.390625 130.195312 L 18.566406 130.601562 L 18.761719 130.984375 L 18.976562 131.347656 L 19.210938 131.679688 L 19.464844 131.972656 L 19.742188 132.234375 L 20.042969 132.460938 L 20.363281 132.652344 L 20.703125 132.808594 L 21.066406 132.929688 L 21.449219 133.015625 L 21.855469 133.066406 L 22.28125 133.085938 L 22.484375 133.078125 L 22.683594 133.0625 L 22.882812 133.03125 L 23.074219 132.992188 L 23.261719 132.9375 L 23.441406 132.875 L 23.621094 132.796875 L 23.792969 132.710938 L 23.964844 132.609375 L 24.128906 132.496094 L 24.285156 132.371094 L 24.4375 132.234375 L 24.585938 132.09375 L 24.722656 131.941406 L 24.855469 131.785156 L 24.980469 131.617188 L 25.101562 131.441406 L 25.210938 131.261719 L 25.316406 131.070312 L 25.414062 130.875 L 25.507812 130.664062 L 25.585938 130.449219 L 25.660156 130.230469 L 25.71875 130.003906 L 25.773438 129.773438 L 25.816406 129.539062 L 25.847656 129.300781 L 25.871094 129.054688 L 25.886719 128.804688 L 25.890625 128.550781 L 25.882812 128.167969 L 25.855469 127.804688 L 25.808594 127.449219 L 25.742188 127.113281 L 25.660156 126.785156 L 25.558594 126.472656 L 25.4375 126.175781 L 25.300781 125.886719 L 25.144531 125.617188 L 24.96875 125.359375 L 24.777344 125.113281 L 24.5625 124.894531 L 24.328125 124.699219 L 24.066406 124.53125 L 23.785156 124.390625 L 23.480469 124.277344 L 23.152344 124.183594 L 22.800781 124.121094 L 22.425781 124.082031 Z M 22.253906 134.148438 L 21.726562 134.128906 L 21.21875 134.0625 L 20.738281 133.953125 L 20.277344 133.800781 L 19.835938 133.601562 L 19.417969 133.363281 L 19.023438 133.078125 L 18.648438 132.75 L 18.296875 132.378906 L 17.96875 131.964844 L 17.671875 131.503906 L 17.402344 131.007812 L 17.167969 130.472656 L 16.964844 129.898438 L 16.792969 129.292969 L 16.652344 128.644531 L 16.542969 127.964844 L 16.460938 127.242188 L 16.414062 126.488281 L 16.398438 125.695312 L 16.40625 125.136719 L 16.421875 124.597656 L 16.449219 124.078125 L 16.484375 123.574219 L 16.53125 123.089844 L 16.589844 122.621094 L 16.660156 122.171875 L 16.742188 121.742188 L 16.832031 121.328125 L 16.933594 120.933594 L 17.042969 120.554688 L 17.160156 120.191406 L 17.285156 119.84375 L 17.421875 119.507812 L 17.5625 119.191406 L 17.710938 118.886719 L 17.867188 118.597656 L 18.035156 118.324219 L 18.207031 118.066406 L 18.386719 117.824219 L 18.574219 117.597656 L 18.769531 117.382812 L 18.964844 117.179688 L 19.167969 116.988281 L 19.375 116.808594 L 19.585938 116.644531 L 19.804688 116.496094 L 20.027344 116.355469 L 20.253906 116.230469 L 20.488281 116.117188 L 20.730469 116.015625 L 20.972656 115.925781 L 21.21875 115.847656 L 21.464844 115.777344 L 21.714844 115.71875 L 21.964844 115.671875 L 22.214844 115.632812 L 22.46875 115.605469 L 22.722656 115.589844 L 22.980469 115.585938 L 23.226562 115.589844 L 23.46875 115.605469 L 23.703125 115.628906 L 23.929688 115.660156 L 24.148438 115.703125 L 24.359375 115.757812 L 24.566406 115.820312 L 24.761719 115.890625 L 24.953125 115.972656 L 25.136719 116.0625 L 25.320312 116.160156 L 25.496094 116.265625 L 25.671875 116.375 L 25.839844 116.492188 L 26.003906 116.613281 L 26.164062 116.742188 L 26.320312 116.878906 L 26.472656 117.019531 L 26.617188 117.167969 L 26.761719 117.320312 L 26.003906 118.160156 L 25.882812 118.019531 L 25.761719 117.886719 L 25.632812 117.757812 L 25.503906 117.636719 L 25.367188 117.523438 L 25.226562 117.417969 L 25.085938 117.320312 L 24.9375 117.230469 L 24.785156 117.144531 L 24.632812 117.070312 L 24.472656 116.996094 L 24.316406 116.929688 L 24.152344 116.871094 L 23.992188 116.820312 L 23.828125 116.777344 L 23.660156 116.738281 L 23.492188 116.710938 L 23.324219 116.691406 L 23.152344 116.679688 L 22.980469 116.675781 L 22.695312 116.6875 L 22.417969 116.710938 L 22.140625 116.753906 L 21.867188 116.8125 L 21.601562 116.886719 L 21.335938 116.980469 L 21.078125 117.089844 L 20.820312 117.214844 L 20.566406 117.359375 L 20.320312 117.515625 L 20.082031 117.695312 L 19.855469 117.898438 L 19.640625 118.121094 L 19.433594 118.363281 L 19.234375 118.628906 L 19.046875 118.917969 L 18.867188 119.230469 L 18.699219 119.558594 L 18.539062 119.914062 L 18.386719 120.289062 L 18.25 120.6875 L 18.125 121.117188 L 18.015625 121.570312 L 17.921875 122.050781 L 17.84375 122.558594 L 17.777344 123.089844 L 17.726562 123.652344 L 17.6875 124.242188 L 17.667969 124.855469 L 17.660156 125.496094 L 17.847656 125.273438 L 18.039062 125.058594 L 18.238281 124.851562 L 18.441406 124.65625 L 18.648438 124.46875 L 18.859375 124.292969 L 19.078125 124.125 L 19.300781 123.964844 L 19.527344 123.816406 L 19.761719 123.675781 L 19.996094 123.550781 L 20.234375 123.4375 L 20.46875 123.335938 L 20.710938 123.246094 L 20.949219 123.171875 L 21.191406 123.113281 L 21.433594 123.066406 L 21.675781 123.03125 L 21.921875 123.011719 L 22.167969 123.003906 L 22.628906 123.019531 L 23.066406 123.0625 L 23.484375 123.132812 L 23.882812 123.234375 L 24.261719 123.363281 L 24.617188 123.519531 L 24.953125 123.707031 L 25.269531 123.917969 L 25.5625 124.164062 L 25.835938 124.433594 L 26.085938 124.726562 L 26.308594 125.046875 L 26.507812 125.390625 L 26.679688 125.765625 L 26.824219 126.164062 L 26.941406 126.585938 L 27.035156 127.039062 L 27.097656 127.515625 L 27.140625 128.019531 L 27.152344 128.550781 L 27.144531 128.871094 L 27.125 129.183594 L 27.089844 129.492188 L 27.042969 129.789062 L 26.984375 130.082031 L 26.910156 130.367188 L 26.824219 130.644531 L 26.722656 130.914062 L 26.609375 131.179688 L 26.480469 131.433594 L 26.339844 131.679688 L 26.191406 131.917969 L 26.035156 132.140625 L 25.871094 132.355469 L 25.695312 132.558594 L 25.511719 132.753906 L 25.320312 132.9375 L 25.117188 133.109375 L 24.90625 133.269531 L 24.6875 133.421875 L 24.46875 133.558594 L 24.242188 133.683594 L 24.011719 133.792969 L 23.773438 133.886719 L 23.53125 133.96875 L 23.285156 134.03125 L 23.035156 134.085938 L 22.78125 134.121094 L 22.519531 134.140625 Z M 22.253906 134.148438 "/>
<path fill-rule="nonzero" fill="rgb(10.196078%, 10.196078%, 10.196078%)" fill-opacity="1" d="M 35.046875 134.148438 L 34.550781 134.125 L 34.074219 134.050781 L 33.621094 133.929688 L 33.191406 133.757812 L 32.785156 133.539062 L 32.402344 133.273438 L 32.042969 132.957031 L 31.707031 132.589844 L 31.390625 132.175781 L 31.101562 131.714844 L 30.832031 131.207031 L 30.597656 130.65625 L 30.386719 130.066406 L 30.203125 129.4375 L 30.050781 128.765625 L 29.925781 128.054688 L 29.824219 127.300781 L 29.757812 126.507812 L 29.714844 125.671875 L 29.699219 124.796875 L 29.714844 123.929688 L 29.757812 123.097656 L 29.824219 122.3125 L 29.925781 121.566406 L 30.050781 120.863281 L 30.203125 120.199219 L 30.386719 119.578125 L 30.597656 119 L 30.832031 118.460938 L 31.101562 117.964844 L 31.390625 117.511719 L 31.707031 117.109375 L 32.042969 116.75 L 32.402344 116.441406 L 32.785156 116.179688 L 33.191406 115.964844 L 33.621094 115.800781 L 34.074219 115.679688 L 34.550781 115.609375 L 35.046875 115.585938 L 35.550781 115.609375 L 36.03125 115.679688 L 36.484375 115.800781 L 36.917969 115.964844 L 37.324219 116.179688 L 37.707031 116.441406 L 38.0625 116.75 L 38.398438 117.109375 L 38.710938 117.511719 L 38.996094 117.964844 L 39.261719 118.460938 L 39.5 119 L 39.710938 119.578125 L 39.890625 120.199219 L 40.046875 120.863281 L 40.171875 121.566406 L 40.269531 122.3125 L 40.339844 123.097656 L 40.382812 123.929688 L 40.394531 124.796875 L 40.382812 125.671875 L 40.339844 126.507812 L 40.269531 127.300781 L 40.171875 128.054688 L 40.046875 128.765625 L 39.890625 129.4375 L 39.710938 130.066406 L 39.5 130.65625 L 39.261719 131.207031 L 38.996094 131.714844 L 38.710938 132.175781 L 38.398438 132.589844 L 38.0625 132.957031 L 37.707031 133.273438 L 37.324219 133.539062 L 36.917969 133.757812 L 36.484375 133.929688 L 36.03125 134.050781 L 35.550781 134.125 Z M 35.046875 133.085938 L 35.414062 133.066406 L 35.765625 133 L 36.101562 132.898438 L 36.421875 132.75 L 36.726562 132.558594 L 37.015625 132.328125 L 37.289062 132.054688 L 37.546875 131.742188 L 37.789062 131.382812 L 38.015625 130.984375 L 38.230469 130.546875 L 38.417969 130.066406 L 38.585938 129.546875 L 38.734375 128.988281 L 38.855469 128.386719 L 38.957031 127.75 L 39.035156 127.070312 L 39.089844 126.351562 L 39.125 125.59375 L 39.136719 124.796875 L 39.125 124 L 39.089844 123.246094 L 39.035156 122.53125 L 38.957031 121.859375 L 38.855469 121.226562 L 38.734375 120.636719 L 38.585938 120.089844 L 38.417969 119.582031 L 38.230469 119.117188 L 38.015625 118.695312 L 37.789062 118.304688 L 37.546875 117.957031 L 37.289062 117.652344 L 37.015625 117.386719 L 36.726562 117.160156 L 36.421875 116.976562 L 36.101562 116.832031 L 35.765625 116.730469 L 35.414062 116.671875 L 35.046875 116.648438 L 34.6875 116.671875 L 34.335938 116.730469 L 34.003906 116.832031 L 33.6875 116.976562 L 33.382812 117.160156 L 33.09375 117.386719 L 32.816406 117.652344 L 32.558594 117.957031 L 32.3125 118.304688 L 32.078125 118.695312 L 31.867188 119.117188 L 31.675781 119.582031 L 31.507812 120.089844 L 31.363281 120.636719 L 31.238281 121.226562 L 31.140625 121.859375 L 31.0625 122.53125 L 31.003906 123.246094 L 30.972656 124 L 30.960938 124.796875 L 30.972656 125.59375 L 31.003906 126.351562 L 31.0625 127.070312 L 31.140625 127.75 L 31.238281 128.386719 L 31.363281 128.988281 L 31.507812 129.546875 L 31.675781 130.066406 L 31.867188 130.546875 L 32.078125 130.984375 L 32.3125 131.382812 L 32.558594 131.742188 L 32.816406 132.054688 L 33.09375 132.328125 L 33.382812 132.558594 L 33.6875 132.75 L 34.003906 132.898438 L 34.335938 133 L 34.6875 133.066406 Z M 35.046875 133.085938 "/>
<path fill-rule="nonzero" fill="rgb(10.196078%, 10.196078%, 10.196078%)" fill-opacity="1" d="M 48.460938 134.148438 L 47.960938 134.125 L 47.488281 134.050781 L 47.035156 133.929688 L 46.605469 133.757812 L 46.199219 133.539062 L 45.816406 133.273438 L 45.457031 132.957031 L 45.117188 132.589844 L 44.804688 132.175781 L 44.511719 131.714844 L 44.246094 131.207031 L 44.007812 130.65625 L 43.796875 130.066406 L 43.617188 129.4375 L 43.460938 128.765625 L 43.335938 128.054688 L 43.238281 127.300781 L 43.167969 126.507812 L 43.125 125.671875 L 43.113281 124.796875 L 43.125 123.929688 L 43.167969 123.097656 L 43.238281 122.3125 L 43.335938 121.566406 L 43.460938 120.863281 L 43.617188 120.199219 L 43.796875 119.578125 L 44.007812 119 L 44.246094 118.460938 L 44.511719 117.964844 L 44.804688 117.511719 L 45.117188 117.109375 L 45.457031 116.75 L 45.816406 116.441406 L 46.199219 116.179688 L 46.605469 115.964844 L 47.035156 115.800781 L 47.488281 115.679688 L 47.960938 115.609375 L 48.460938 115.585938 L 48.964844 115.609375 L 49.441406 115.679688 L 49.898438 115.800781 L 50.328125 115.964844 L 50.734375 116.179688 L 51.117188 116.441406 L 51.476562 116.75 L 51.8125 117.109375 L 52.121094 117.511719 L 52.40625 117.964844 L 52.675781 118.460938 L 52.910156 119 L 53.121094 119.578125 L 53.304688 120.199219 L 53.457031 120.863281 L 53.582031 121.566406 L 53.683594 122.3125 L 53.753906 123.097656 L 53.792969 123.929688 L 53.808594 124.796875 L 53.792969 125.671875 L 53.753906 126.507812 L 53.683594 127.300781 L 53.582031 128.054688 L 53.457031 128.765625 L 53.304688 129.4375 L 53.121094 130.066406 L 52.910156 130.65625 L 52.675781 131.207031 L 52.40625 131.714844 L 52.121094 132.175781 L 51.8125 132.589844 L 51.476562 132.957031 L 51.117188 133.273438 L 50.734375 133.539062 L 50.328125 133.757812 L 49.898438 133.929688 L 49.441406 134.050781 L 48.964844 134.125 Z M 48.460938 133.085938 L 48.828125 133.066406 L 49.179688 133 L 49.515625 132.898438 L 49.835938 132.75 L 50.140625 132.558594 L 50.429688 132.328125 L 50.703125 132.054688 L 50.960938 131.742188 L 51.203125 131.382812 L 51.429688 130.984375 L 51.640625 130.546875 L 51.832031 130.066406 L 52 129.546875 L 52.144531 128.988281 L 52.269531 128.386719 L 52.367188 127.75 L 52.445312 127.070312 L 52.503906 126.351562 L 52.535156 125.59375 L 52.546875 124.796875 L 52.535156 124 L 52.503906 123.246094 L 52.445312 122.53125 L 52.367188 121.859375 L 52.269531 121.226562 L 52.144531 120.636719 L 52 120.089844 L 51.832031 119.582031 L 51.640625 119.117188 L 51.429688 118.695312 L 51.203125 118.304688 L 50.960938 117.957031 L 50.703125 117.652344 L 50.429688 117.386719 L 50.140625 117.160156 L 49.835938 116.976562 L 49.515625 116.832031 L 49.179688 116.730469 L 48.828125 116.671875 L 48.460938 116.648438 L 48.097656 116.671875 L 47.75 116.730469 L 47.417969 116.832031 L 47.097656 116.976562 L 46.792969 117.160156 L 46.503906 117.386719 L 46.230469 117.652344 L 45.96875 117.957031 L 45.722656 118.304688 L 45.492188 118.695312 L 45.277344 119.117188 L 45.089844 119.582031 L 44.921875 120.089844 L 44.773438 120.636719 L 44.652344 121.226562 L 44.550781 121.859375 L 44.472656 122.53125 L 44.417969 123.246094 L 44.382812 124 L 44.371094 124.796875 L 44.382812 125.59375 L 44.417969 126.351562 L 44.472656 127.070312 L 44.550781 127.75 L 44.652344 128.386719 L 44.773438 128.988281 L 44.921875 129.546875 L 45.089844 130.066406 L 45.277344 130.546875 L 45.492188 130.984375 L 45.722656 131.382812 L 45.96875 131.742188 L 46.230469 132.054688 L 46.503906 132.328125 L 46.792969 132.558594 L 47.097656 132.75 L 47.417969 132.898438 L 47.75 133 L 48.097656 133.066406 Z M 48.460938 133.085938 "/>
<path fill-rule="nonzero" fill="rgb(10.196078%, 10.196078%, 10.196078%)" fill-opacity="1" d="M 61.871094 134.148438 L 61.375 134.125 L 60.898438 134.050781 L 60.445312 133.929688 L 60.015625 133.757812 L 59.609375 133.539062 L 59.226562 133.273438 L 58.867188 132.957031 L 58.53125 132.589844 L 58.214844 132.175781 L 57.925781 131.714844 L 57.65625 131.207031 L 57.421875 130.65625 L 57.210938 130.066406 L 57.027344 129.4375 L 56.875 128.765625 L 56.746094 128.054688 L 56.648438 127.300781 L 56.578125 126.507812 L 56.539062 125.671875 L 56.523438 124.796875 L 56.539062 123.929688 L 56.578125 123.097656 L 56.648438 122.3125 L 56.746094 121.566406 L 56.875 120.863281 L 57.027344 120.199219 L 57.210938 119.578125 L 57.421875 119 L 57.65625 118.460938 L 57.925781 117.964844 L 58.214844 117.511719 L 58.53125 117.109375 L 58.867188 116.75 L 59.226562 116.441406 L 59.609375 116.179688 L 60.015625 115.964844 L 60.445312 115.800781 L 60.898438 115.679688 L 61.375 115.609375 L 61.871094 115.585938 L 62.375 115.609375 L 62.855469 115.679688 L 63.308594 115.800781 L 63.738281 115.964844 L 64.148438 116.179688 L 64.53125 116.441406 L 64.886719 116.75 L 65.222656 117.109375 L 65.535156 117.511719 L 65.820312 117.964844 L 66.085938 118.460938 L 66.324219 119 L 66.535156 119.578125 L 66.714844 120.199219 L 66.871094 120.863281 L 66.996094 121.566406 L 67.09375 122.3125 L 67.164062 123.097656 L 67.207031 123.929688 L 67.21875 124.796875 L 67.207031 125.671875 L 67.164062 126.507812 L 67.09375 127.300781 L 66.996094 128.054688 L 66.871094 128.765625 L 66.714844 129.4375 L 66.535156 130.066406 L 66.324219 130.65625 L 66.085938 131.207031 L 65.820312 131.714844 L 65.535156 132.175781 L 65.222656 132.589844 L 64.886719 132.957031 L 64.53125 133.273438 L 64.148438 133.539062 L 63.738281 133.757812 L 63.308594 133.929688 L 62.855469 134.050781 L 62.375 134.125 Z M 61.871094 133.085938 L 62.238281 133.066406 L 62.589844 133 L 62.925781 132.898438 L 63.246094 132.75 L 63.550781 132.558594 L 63.839844 132.328125 L 64.113281 132.054688 L 64.371094 131.742188 L 64.613281 131.382812 L 64.839844 130.984375 L 65.054688 130.546875 L 65.242188 130.066406 L 65.410156 129.546875 L 65.558594 128.988281 L 65.679688 128.386719 L 65.78125 127.75 L 65.859375 127.070312 L 65.914062 126.351562 L 65.949219 125.59375 L 65.960938 124.796875 L 65.949219 124 L 65.914062 123.246094 L 65.859375 122.53125 L 65.78125 121.859375 L 65.679688 121.226562 L 65.558594 120.636719 L 65.410156 120.089844 L 65.242188 119.582031 L 65.054688 119.117188 L 64.839844 118.695312 L 64.613281 118.304688 L 64.371094 117.957031 L 64.113281 117.652344 L 63.839844 117.386719 L 63.550781 117.160156 L 63.246094 116.976562 L 62.925781 116.832031 L 62.589844 116.730469 L 62.238281 116.671875 L 61.871094 116.648438 L 61.507812 116.671875 L 61.160156 116.730469 L 60.828125 116.832031 L 60.511719 116.976562 L 60.207031 117.160156 L 59.917969 117.386719 L 59.640625 117.652344 L 59.382812 117.957031 L 59.136719 118.304688 L 58.902344 118.695312 L 58.691406 119.117188 L 58.5 119.582031 L 58.332031 120.089844 L 58.1875 120.636719 L 58.0625 121.226562 L 57.964844 121.859375 L 57.882812 122.53125 L 57.828125 123.246094 L 57.796875 124 L 57.785156 124.796875 L 57.796875 125.59375 L 57.828125 126.351562 L 57.882812 127.070312 L 57.964844 127.75 L 58.0625 128.386719 L 58.1875 128.988281 L 58.332031 129.546875 L 58.5 130.066406 L 58.691406 130.546875 L 58.902344 130.984375 L 59.136719 131.382812 L 59.382812 131.742188 L 59.640625 132.054688 L 59.917969 132.328125 L 60.207031 132.558594 L 60.511719 132.75 L 60.828125 132.898438 L 61.160156 133 L 61.507812 133.066406 Z M 61.871094 133.085938 "/>
<path fill-rule="nonzero" fill="rgb(10.196078%, 10.196078%, 10.196078%)" fill-opacity="1" d="M 21.746094 59.179688 L 21.425781 59.171875 L 21.113281 59.152344 L 20.804688 59.121094 L 20.503906 59.078125 L 20.207031 59.019531 L 19.921875 58.949219 L 19.640625 58.863281 L 19.363281 58.765625 L 19.097656 58.65625 L 18.835938 58.535156 L 18.582031 58.402344 L 18.34375 58.257812 L 18.109375 58.105469 L 17.890625 57.945312 L 17.679688 57.773438 L 17.480469 57.589844 L 17.292969 57.402344 L 17.117188 57.199219 L 16.949219 56.992188 L 16.792969 56.773438 L 16.652344 56.542969 L 16.53125 56.3125 L 16.421875 56.074219 L 16.324219 55.832031 L 16.246094 55.582031 L 16.179688 55.328125 L 16.128906 55.066406 L 16.09375 54.800781 L 16.070312 54.527344 L 16.0625 54.25 L 16.070312 54.011719 L 16.085938 53.777344 L 16.113281 53.550781 L 16.148438 53.324219 L 16.195312 53.105469 L 16.253906 52.886719 L 16.324219 52.675781 L 16.40625 52.46875 L 16.496094 52.265625 L 16.597656 52.066406 L 16.710938 51.875 L 16.828125 51.6875 L 16.953125 51.503906 L 17.085938 51.328125 L 17.21875 51.15625 L 17.359375 50.992188 L 17.503906 50.832031 L 17.652344 50.679688 L 17.808594 50.53125 L 17.96875 50.386719 L 18.136719 50.246094 L 18.304688 50.109375 L 18.472656 49.976562 L 18.640625 49.851562 L 18.808594 49.730469 L 18.976562 49.613281 L 19.144531 49.503906 L 19.3125 49.402344 L 19.480469 49.304688 L 19.648438 49.210938 L 19.648438 49.097656 L 19.453125 48.96875 L 19.261719 48.828125 L 19.074219 48.679688 L 18.890625 48.527344 L 18.710938 48.363281 L 18.53125 48.195312 L 18.359375 48.019531 L 18.1875 47.835938 L 18.019531 47.644531 L 17.855469 47.449219 L 17.707031 47.238281 L 17.574219 47.015625 L 17.457031 46.789062 L 17.355469 46.554688 L 17.269531 46.3125 L 17.199219 46.0625 L 17.140625 45.804688 L 17.101562 45.539062 L 17.078125 45.265625 L 17.070312 44.984375 L 17.078125 44.730469 L 17.097656 44.480469 L 17.128906 44.238281 L 17.171875 44.003906 L 17.226562 43.773438 L 17.292969 43.550781 L 17.375 43.332031 L 17.464844 43.121094 L 17.570312 42.914062 L 17.6875 42.714844 L 17.820312 42.523438 L 17.960938 42.339844 L 18.113281 42.164062 L 18.269531 42 L 18.4375 41.839844 L 18.613281 41.691406 L 18.796875 41.550781 L 18.988281 41.417969 L 19.1875 41.292969 L 19.394531 41.175781 L 19.609375 41.070312 L 19.832031 40.972656 L 20.054688 40.890625 L 20.28125 40.816406 L 20.515625 40.753906 L 20.753906 40.707031 L 20.996094 40.664062 L 21.242188 40.636719 L 21.492188 40.621094 L 21.746094 40.617188 L 22.195312 40.628906 L 22.625 40.667969 L 23.03125 40.738281 L 23.417969 40.832031 L 23.785156 40.953125 L 24.128906 41.097656 L 24.453125 41.273438 L 24.757812 41.476562 L 25.042969 41.703125 L 25.304688 41.960938 L 25.546875 42.230469 L 25.769531 42.515625 L 25.960938 42.8125 L 26.128906 43.125 L 26.269531 43.449219 L 26.386719 43.789062 L 26.476562 44.144531 L 26.539062 44.511719 L 26.578125 44.894531 L 26.59375 45.292969 L 26.585938 45.488281 L 26.574219 45.679688 L 26.554688 45.871094 L 26.523438 46.0625 L 26.488281 46.25 L 26.441406 46.4375 L 26.386719 46.621094 L 26.324219 46.804688 L 26.25 46.988281 L 26.171875 47.167969 L 26.085938 47.339844 L 25.996094 47.507812 L 25.90625 47.671875 L 25.808594 47.835938 L 25.710938 47.992188 L 25.609375 48.148438 L 25.5 48.300781 L 25.390625 48.449219 L 25.28125 48.59375 L 25.164062 48.734375 L 25.046875 48.867188 L 24.929688 48.996094 L 24.816406 49.117188 L 24.703125 49.234375 L 24.589844 49.34375 L 24.480469 49.453125 L 24.367188 49.554688 L 24.257812 49.648438 L 24.152344 49.742188 L 24.042969 49.828125 L 24.042969 49.941406 L 24.199219 50.035156 L 24.355469 50.136719 L 24.507812 50.238281 L 24.65625 50.34375 L 24.808594 50.449219 L 24.953125 50.5625 L 25.101562 50.675781 L 25.246094 50.789062 L 25.527344 51.03125 L 25.671875 51.152344 L 25.808594 51.277344 L 25.941406 51.40625 L 26.066406 51.542969 L 26.1875 51.683594 L 26.300781 51.828125 L 26.410156 51.976562 L 26.511719 52.132812 L 26.613281 52.292969 L 26.703125 52.460938 L 26.792969 52.632812 L 26.875 52.808594 L 26.945312 52.996094 L 27.007812 53.191406 L 27.0625 53.390625 L 27.105469 53.597656 L 27.136719 53.8125 L 27.160156 54.035156 L 27.175781 54.265625 L 27.179688 54.503906 L 27.171875 54.757812 L 27.152344 55.011719 L 27.117188 55.257812 L 27.066406 55.5 L 27.003906 55.734375 L 26.929688 55.96875 L 26.835938 56.195312 L 26.730469 56.421875 L 26.613281 56.640625 L 26.480469 56.855469 L 26.339844 57.0625 L 26.1875 57.265625 L 26.027344 57.457031 L 25.851562 57.640625 L 25.667969 57.816406 L 25.472656 57.980469 L 25.265625 58.140625 L 25.046875 58.289062 L 24.816406 58.429688 L 24.574219 58.5625 L 24.332031 58.679688 L 24.078125 58.785156 L 23.816406 58.878906 L 23.546875 58.957031 L 23.265625 59.027344 L 22.980469 59.082031 L 22.683594 59.125 L 22.378906 59.15625 L 22.070312 59.171875 Z M 23.0625 49.464844 L 23.289062 49.277344 L 23.5 49.089844 L 23.703125 48.898438 L 23.894531 48.707031 L 24.070312 48.511719 L 24.238281 48.3125 L 24.398438 48.113281 L 24.542969 47.914062 L 24.675781 47.710938 L 24.800781 47.503906 L 24.917969 47.296875 L 25.023438 47.085938 L 25.113281 46.871094 L 25.195312 46.65625 L 25.261719 46.441406 L 25.316406 46.21875 L 25.359375 46 L 25.390625 45.773438 L 25.410156 45.546875 L 25.414062 45.320312 L 25.40625 45.027344 L 25.375 44.742188 L 25.328125 44.464844 L 25.257812 44.195312 L 25.171875 43.933594 L 25.0625 43.679688 L 24.9375 43.433594 L 24.789062 43.195312 L 24.621094 42.964844 L 24.4375 42.742188 L 24.238281 42.535156 L 24.023438 42.351562 L 23.792969 42.1875 L 23.550781 42.042969 L 23.289062 41.925781 L 23.011719 41.828125 L 22.71875 41.75 L 22.410156 41.695312 L 22.085938 41.664062 L 21.746094 41.652344 L 21.457031 41.660156 L 21.175781 41.691406 L 20.902344 41.738281 L 20.640625 41.804688 L 20.390625 41.890625 L 20.148438 41.996094 L 19.917969 42.117188 L 19.695312 42.261719 L 19.484375 42.421875 L 19.285156 42.605469 L 19.097656 42.792969 L 18.929688 42.996094 L 18.785156 43.207031 L 18.65625 43.429688 L 18.550781 43.660156 L 18.460938 43.902344 L 18.390625 44.15625 L 18.34375 44.421875 L 18.3125 44.699219 L 18.304688 44.984375 L 18.3125 45.230469 L 18.332031 45.472656 L 18.367188 45.703125 L 18.414062 45.925781 L 18.480469 46.136719 L 18.554688 46.34375 L 18.648438 46.542969 L 18.753906 46.730469 L 18.871094 46.910156 L 19.003906 47.082031 L 19.148438 47.242188 L 19.300781 47.398438 L 19.460938 47.546875 L 19.625 47.691406 L 19.800781 47.832031 L 19.984375 47.96875 L 20.175781 48.097656 L 20.375 48.222656 L 20.582031 48.339844 L 20.796875 48.457031 L 21.234375 48.667969 L 21.457031 48.769531 L 22.136719 49.074219 L 22.828125 49.367188 Z M 21.746094 58.144531 L 22.121094 58.132812 L 22.476562 58.101562 L 22.820312 58.046875 L 23.144531 57.972656 L 23.457031 57.878906 L 23.75 57.761719 L 24.03125 57.621094 L 24.292969 57.460938 L 24.539062 57.28125 L 24.773438 57.078125 L 24.988281 56.863281 L 25.183594 56.636719 L 25.359375 56.398438 L 25.507812 56.152344 L 25.632812 55.898438 L 25.734375 55.632812 L 25.816406 55.355469 L 25.875 55.074219 L 25.910156 54.777344 L 25.921875 54.476562 L 25.914062 54.207031 L 25.886719 53.949219 L 25.847656 53.699219 L 25.792969 53.464844 L 25.722656 53.238281 L 25.636719 53.019531 L 25.535156 52.816406 L 25.417969 52.621094 L 25.285156 52.4375 L 25.136719 52.261719 L 24.972656 52.09375 L 24.804688 51.925781 L 24.621094 51.769531 L 24.433594 51.613281 L 24.234375 51.464844 L 24.023438 51.324219 L 23.804688 51.1875 L 23.578125 51.054688 L 23.339844 50.929688 L 23.09375 50.808594 L 22.59375 50.574219 L 22.078125 50.347656 L 21.554688 50.121094 L 21.285156 50.011719 L 20.738281 49.792969 L 20.460938 49.6875 L 20.191406 49.847656 L 19.929688 50.015625 L 19.679688 50.1875 L 19.4375 50.367188 L 19.207031 50.554688 L 18.984375 50.75 L 18.773438 50.949219 L 18.570312 51.15625 L 18.375 51.371094 L 18.191406 51.589844 L 18.023438 51.820312 L 17.871094 52.054688 L 17.734375 52.296875 L 17.617188 52.546875 L 17.519531 52.800781 L 17.4375 53.066406 L 17.375 53.339844 L 17.332031 53.617188 L 17.304688 53.902344 L 17.296875 54.195312 L 17.300781 54.417969 L 17.320312 54.632812 L 17.347656 54.847656 L 17.386719 55.054688 L 17.4375 55.257812 L 17.496094 55.457031 L 17.570312 55.652344 L 17.65625 55.84375 L 17.75 56.03125 L 17.855469 56.210938 L 17.976562 56.382812 L 18.109375 56.546875 L 18.246094 56.703125 L 18.394531 56.851562 L 18.550781 56.996094 L 18.710938 57.132812 L 18.886719 57.261719 L 19.066406 57.386719 L 19.253906 57.5 L 19.453125 57.613281 L 19.65625 57.710938 L 19.867188 57.804688 L 20.082031 57.882812 L 20.304688 57.953125 L 20.53125 58.011719 L 20.761719 58.058594 L 21 58.09375 L 21.242188 58.121094 L 21.492188 58.136719 Z M 21.746094 58.144531 "/>
<path fill-rule="nonzero" fill="rgb(10.196078%, 10.196078%, 10.196078%)" fill-opacity="1" d="M 35.046875 59.179688 L 34.550781 59.15625 L 34.074219 59.082031 L 33.621094 58.960938 L 33.191406 58.789062 L 32.785156 58.570312 L 32.402344 58.300781 L 32.042969 57.984375 L 31.707031 57.621094 L 31.390625 57.207031 L 31.101562 56.742188 L 30.832031 56.234375 L 30.597656 55.6875 L 30.386719 55.097656 L 30.203125 54.46875 L 30.050781 53.796875 L 29.925781 53.085938 L 29.824219 52.332031 L 29.757812 51.539062 L 29.714844 50.703125 L 29.699219 49.828125 L 29.714844 48.957031 L 29.757812 48.128906 L 29.824219 47.34375 L 29.925781 46.597656 L 30.050781 45.894531 L 30.203125 45.230469 L 30.386719 44.609375 L 30.597656 44.03125 L 30.832031 43.492188 L 31.101562 42.996094 L 31.390625 42.542969 L 31.707031 42.140625 L 32.042969 41.78125 L 32.402344 41.472656 L 32.785156 41.210938 L 33.191406 40.996094 L 33.621094 40.828125 L 34.074219 40.710938 L 34.550781 40.640625 L 35.046875 40.617188 L 35.550781 40.640625 L 36.03125 40.710938 L 36.484375 40.828125 L 36.917969 40.996094 L 37.324219 41.210938 L 37.707031 41.472656 L 38.0625 41.78125 L 38.398438 42.140625 L 38.710938 42.542969 L 38.996094 42.996094 L 39.261719 43.492188 L 39.5 44.03125 L 39.710938 44.609375 L 39.890625 45.230469 L 40.046875 45.894531 L 40.171875 46.597656 L 40.269531 47.34375 L 40.339844 48.128906 L 40.382812 48.957031 L 40.394531 49.828125 L 40.382812 50.703125 L 40.339844 51.539062 L 40.269531 52.332031 L 40.171875 53.085938 L 40.046875 53.796875 L 39.890625 54.46875 L 39.710938 55.097656 L 39.5 55.6875 L 39.261719 56.234375 L 38.996094 56.742188 L 38.710938 57.207031 L 38.398438 57.621094 L 38.0625 57.984375 L 37.707031 58.300781 L 37.324219 58.570312 L 36.917969 58.789062 L 36.484375 58.960938 L 36.03125 59.082031 L 35.550781 59.15625 Z M 35.046875 58.117188 L 35.414062 58.09375 L 35.765625 58.03125 L 36.101562 57.925781 L 36.421875 57.78125 L 36.726562 57.589844 L 37.015625 57.359375 L 37.289062 57.085938 L 37.546875 56.773438 L 37.789062 56.414062 L 38.015625 56.015625 L 38.230469 55.574219 L 38.417969 55.097656 L 38.585938 54.578125 L 38.734375 54.015625 L 38.855469 53.417969 L 38.957031 52.78125 L 39.035156 52.101562 L 39.089844 51.382812 L 39.125 50.625 L 39.136719 49.828125 L 39.125 49.03125 L 39.089844 48.273438 L 39.035156 47.5625 L 38.957031 46.890625 L 38.855469 46.257812 L 38.734375 45.667969 L 38.585938 45.121094 L 38.417969 44.613281 L 38.230469 44.148438 L 38.015625 43.722656 L 37.789062 43.335938 L 37.546875 42.988281 L 37.289062 42.679688 L 37.015625 42.414062 L 36.726562 42.191406 L 36.421875 42.007812 L 36.101562 41.863281 L 35.765625 41.761719 L 35.414062 41.699219 L 35.046875 41.679688 L 34.6875 41.699219 L 34.335938 41.761719 L 34.003906 41.863281 L 33.6875 42.007812 L 33.382812 42.191406 L 33.09375 42.414062 L 32.816406 42.679688 L 32.558594 42.988281 L 32.3125 43.335938 L 32.078125 43.722656 L 31.867188 44.148438 L 31.675781 44.613281 L 31.507812 45.121094 L 31.363281 45.667969 L 31.238281 46.257812 L 31.140625 46.890625 L 31.0625 47.5625 L 31.003906 48.273438 L 30.972656 49.03125 L 30.960938 49.828125 L 30.972656 50.625 L 31.003906 51.382812 L 31.0625 52.101562 L 31.140625 52.78125 L 31.238281 53.417969 L 31.363281 54.015625 L 31.507812 54.578125 L 31.675781 55.097656 L 31.867188 55.574219 L 32.078125 56.015625 L 32.3125 56.414062 L 32.558594 56.773438 L 32.816406 57.085938 L 33.09375 57.359375 L 33.382812 57.589844 L 33.6875 57.78125 L 34.003906 57.925781 L 34.335938 58.03125 L 34.6875 58.09375 Z M 35.046875 58.117188 "/>
<path fill-rule="nonzero" fill="rgb(10.196078%, 10.196078%, 10.196078%)" fill-opacity="1" d="M 48.460938 59.179688 L 47.960938 59.15625 L 47.488281 59.082031 L 47.035156 58.960938 L 46.605469 58.789062 L 46.199219 58.570312 L 45.816406 58.300781 L 45.457031 57.984375 L 45.117188 57.621094 L 44.804688 57.207031 L 44.511719 56.742188 L 44.246094 56.234375 L 44.007812 55.6875 L 43.796875 55.097656 L 43.617188 54.46875 L 43.460938 53.796875 L 43.335938 53.085938 L 43.238281 52.332031 L 43.167969 51.539062 L 43.125 50.703125 L 43.113281 49.828125 L 43.125 48.957031 L 43.167969 48.128906 L 43.238281 47.34375 L 43.335938 46.597656 L 43.460938 45.894531 L 43.617188 45.230469 L 43.796875 44.609375 L 44.007812 44.03125 L 44.246094 43.492188 L 44.511719 42.996094 L 44.804688 42.542969 L 45.117188 42.140625 L 45.457031 41.78125 L 45.816406 41.472656 L 46.199219 41.210938 L 46.605469 40.996094 L 47.035156 40.828125 L 47.488281 40.710938 L 47.960938 40.640625 L 48.460938 40.617188 L 48.964844 40.640625 L 49.441406 40.710938 L 49.898438 40.828125 L 50.328125 40.996094 L 50.734375 41.210938 L 51.117188 41.472656 L 51.476562 41.78125 L 51.8125 42.140625 L 52.121094 42.542969 L 52.40625 42.996094 L 52.675781 43.492188 L 52.910156 44.03125 L 53.121094 44.609375 L 53.304688 45.230469 L 53.457031 45.894531 L 53.582031 46.597656 L 53.683594 47.34375 L 53.753906 48.128906 L 53.792969 48.957031 L 53.808594 49.828125 L 53.792969 50.703125 L 53.753906 51.539062 L 53.683594 52.332031 L 53.582031 53.085938 L 53.457031 53.796875 L 53.304688 54.46875 L 53.121094 55.097656 L 52.910156 55.6875 L 52.675781 56.234375 L 52.40625 56.742188 L 52.121094 57.207031 L 51.8125 57.621094 L 51.476562 57.984375 L 51.117188 58.300781 L 50.734375 58.570312 L 50.328125 58.789062 L 49.898438 58.960938 L 49.441406 59.082031 L 48.964844 59.15625 Z M 48.460938 58.117188 L 48.828125 58.09375 L 49.179688 58.03125 L 49.515625 57.925781 L 49.835938 57.78125 L 50.140625 57.589844 L 50.429688 57.359375 L 50.703125 57.085938 L 50.960938 56.773438 L 51.203125 56.414062 L 51.429688 56.015625 L 51.640625 55.574219 L 51.832031 55.097656 L 52 54.578125 L 52.144531 54.015625 L 52.269531 53.417969 L 52.367188 52.78125 L 52.445312 52.101562 L 52.503906 51.382812 L 52.535156 50.625 L 52.546875 49.828125 L 52.535156 49.03125 L 52.503906 48.273438 L 52.445312 47.5625 L 52.367188 46.890625 L 52.269531 46.257812 L 52.144531 45.667969 L 52 45.121094 L 51.832031 44.613281 L 51.640625 44.148438 L 51.429688 43.722656 L 51.203125 43.335938 L 50.960938 42.988281 L 50.703125 42.679688 L 50.429688 42.414062 L 50.140625 42.191406 L 49.835938 42.007812 L 49.515625 41.863281 L 49.179688 41.761719 L 48.828125 41.699219 L 48.460938 41.679688 L 48.097656 41.699219 L 47.75 41.761719 L 47.417969 41.863281 L 47.097656 42.007812 L 46.792969 42.191406 L 46.503906 42.414062 L 46.230469 42.679688 L 45.96875 42.988281 L 45.722656 43.335938 L 45.492188 43.722656 L 45.277344 44.148438 L 45.089844 44.613281 L 44.921875 45.121094 L 44.773438 45.667969 L 44.652344 46.257812 L 44.550781 46.890625 L 44.472656 47.5625 L 44.417969 48.273438 L 44.382812 49.03125 L 44.371094 49.828125 L 44.382812 50.625 L 44.417969 51.382812 L 44.472656 52.101562 L 44.550781 52.78125 L 44.652344 53.417969 L 44.773438 54.015625 L 44.921875 54.578125 L 45.089844 55.097656 L 45.277344 55.574219 L 45.492188 56.015625 L 45.722656 56.414062 L 45.96875 56.773438 L 46.230469 57.085938 L 46.503906 57.359375 L 46.792969 57.589844 L 47.097656 57.78125 L 47.417969 57.925781 L 47.75 58.03125 L 48.097656 58.09375 Z M 48.460938 58.117188 "/>
<path fill-rule="nonzero" fill="rgb(10.196078%, 10.196078%, 10.196078%)" fill-opacity="1" d="M 61.871094 59.179688 L 61.375 59.15625 L 60.898438 59.082031 L 60.445312 58.960938 L 60.015625 58.789062 L 59.609375 58.570312 L 59.226562 58.300781 L 58.867188 57.984375 L 58.53125 57.621094 L 58.214844 57.207031 L 57.925781 56.742188 L 57.65625 56.234375 L 57.421875 55.6875 L 57.210938 55.097656 L 57.027344 54.46875 L 56.875 53.796875 L 56.746094 53.085938 L 56.648438 52.332031 L 56.578125 51.539062 L 56.539062 50.703125 L 56.523438 49.828125 L 56.539062 48.957031 L 56.578125 48.128906 L 56.648438 47.34375 L 56.746094 46.597656 L 56.875 45.894531 L 57.027344 45.230469 L 57.210938 44.609375 L 57.421875 44.03125 L 57.65625 43.492188 L 57.925781 42.996094 L 58.214844 42.542969 L 58.53125 42.140625 L 58.867188 41.78125 L 59.226562 41.472656 L 59.609375 41.210938 L 60.015625 40.996094 L 60.445312 40.828125 L 60.898438 40.710938 L 61.375 40.640625 L 61.871094 40.617188 L 62.375 40.640625 L 62.855469 40.710938 L 63.308594 40.828125 L 63.738281 40.996094 L 64.148438 41.210938 L 64.53125 41.472656 L 64.886719 41.78125 L 65.222656 42.140625 L 65.535156 42.542969 L 65.820312 42.996094 L 66.085938 43.492188 L 66.324219 44.03125 L 66.535156 44.609375 L 66.714844 45.230469 L 66.871094 45.894531 L 66.996094 46.597656 L 67.09375 47.34375 L 67.164062 48.128906 L 67.207031 48.957031 L 67.21875 49.828125 L 67.207031 50.703125 L 67.164062 51.539062 L 67.09375 52.332031 L 66.996094 53.085938 L 66.871094 53.796875 L 66.714844 54.46875 L 66.535156 55.097656 L 66.324219 55.6875 L 66.085938 56.234375 L 65.820312 56.742188 L 65.535156 57.207031 L 65.222656 57.621094 L 64.886719 57.984375 L 64.53125 58.300781 L 64.148438 58.570312 L 63.738281 58.789062 L 63.308594 58.960938 L 62.855469 59.082031 L 62.375 59.15625 Z M 61.871094 58.117188 L 62.238281 58.09375 L 62.589844 58.03125 L 62.925781 57.925781 L 63.246094 57.78125 L 63.550781 57.589844 L 63.839844 57.359375 L 64.113281 57.085938 L 64.371094 56.773438 L 64.613281 56.414062 L 64.839844 56.015625 L 65.054688 55.574219 L 65.242188 55.097656 L 65.410156 54.578125 L 65.558594 54.015625 L 65.679688 53.417969 L 65.78125 52.78125 L 65.859375 52.101562 L 65.914062 51.382812 L 65.949219 50.625 L 65.960938 49.828125 L 65.949219 49.03125 L 65.914062 48.273438 L 65.859375 47.5625 L 65.78125 46.890625 L 65.679688 46.257812 L 65.558594 45.667969 L 65.410156 45.121094 L 65.242188 44.613281 L 65.054688 44.148438 L 64.839844 43.722656 L 64.613281 43.335938 L 64.371094 42.988281 L 64.113281 42.679688 L 63.839844 42.414062 L 63.550781 42.191406 L 63.246094 42.007812 L 62.925781 41.863281 L 62.589844 41.761719 L 62.238281 41.699219 L 61.871094 41.679688 L 61.507812 41.699219 L 61.160156 41.761719 L 60.828125 41.863281 L 60.511719 42.007812 L 60.207031 42.191406 L 59.917969 42.414062 L 59.640625 42.679688 L 59.382812 42.988281 L 59.136719 43.335938 L 58.902344 43.722656 L 58.691406 44.148438 L 58.5 44.613281 L 58.332031 45.121094 L 58.1875 45.667969 L 58.0625 46.257812 L 57.964844 46.890625 L 57.882812 47.5625 L 57.828125 48.273438 L 57.796875 49.03125 L 57.785156 49.828125 L 57.796875 50.625 L 57.828125 51.382812 L 57.882812 52.101562 L 57.964844 52.78125 L 58.0625 53.417969 L 58.1875 54.015625 L 58.332031 54.578125 L 58.5 55.097656 L 58.691406 55.574219 L 58.902344 56.015625 L 59.136719 56.414062 L 59.382812 56.773438 L 59.640625 57.085938 L 59.917969 57.359375 L 60.207031 57.589844 L 60.511719 57.78125 L 60.828125 57.925781 L 61.160156 58.03125 L 61.507812 58.09375 Z M 61.871094 58.117188 "/>
<path fill-rule="nonzero" fill="rgb(10.196078%, 10.196078%, 10.196078%)" fill-opacity="1" d="M 252.21875 404.464844 L 252.21875 396.988281 L 246.703125 386.011719 L 248.074219 386.011719 L 250.875 391.777344 L 250.96875 391.980469 L 251.0625 392.179688 L 251.160156 392.382812 L 251.253906 392.582031 L 251.351562 392.78125 L 251.445312 392.980469 L 251.539062 393.175781 L 251.636719 393.375 L 251.824219 393.765625 L 251.921875 393.964844 L 252.019531 394.160156 L 252.214844 394.558594 L 252.519531 395.167969 L 252.625 395.371094 L 252.726562 395.578125 L 252.832031 395.78125 L 252.945312 395.78125 L 253.050781 395.578125 L 253.15625 395.371094 L 253.472656 394.761719 L 253.574219 394.558594 L 253.777344 394.160156 L 253.878906 393.964844 L 253.980469 393.765625 L 254.082031 393.570312 L 254.179688 393.375 L 254.277344 393.175781 L 254.375 392.980469 L 254.472656 392.78125 L 254.660156 392.382812 L 254.753906 392.179688 L 254.84375 391.980469 L 254.933594 391.777344 L 257.734375 386.011719 L 259.050781 386.011719 L 253.503906 396.988281 L 253.503906 404.464844 Z M 252.21875 404.464844 "/>
<path fill-rule="nonzero" fill="rgb(10.196078%, 10.196078%, 10.196078%)" fill-opacity="1" d="M 260.9375 409.167969 L 260.9375 399.757812 L 261.800781 399.757812 L 261.800781 409.167969 Z M 261.386719 397.484375 L 261.324219 397.484375 L 261.265625 397.476562 L 261.207031 397.464844 L 261.152344 397.449219 L 261.097656 397.429688 L 261.046875 397.40625 L 260.996094 397.378906 L 260.949219 397.347656 L 260.902344 397.3125 L 260.816406 397.226562 L 260.78125 397.175781 L 260.71875 397.074219 L 260.695312 397.015625 L 260.675781 396.953125 L 260.664062 396.890625 L 260.652344 396.824219 L 260.644531 396.753906 L 260.644531 396.617188 L 260.652344 396.554688 L 260.664062 396.492188 L 260.675781 396.433594 L 260.695312 396.378906 L 260.71875 396.324219 L 260.78125 396.222656 L 260.816406 396.175781 L 260.859375 396.132812 L 260.902344 396.09375 L 260.949219 396.054688 L 260.996094 396.023438 L 261.046875 395.996094 L 261.097656 395.972656 L 261.152344 395.953125 L 261.207031 395.9375 L 261.265625 395.925781 L 261.324219 395.917969 L 261.453125 395.917969 L 261.515625 395.925781 L 261.574219 395.9375 L 261.632812 395.953125 L 261.6875 395.972656 L 261.738281 395.996094 L 261.785156 396.023438 L 261.832031 396.054688 L 261.917969 396.132812 L 261.957031 396.175781 L 261.996094 396.222656 L 262.027344 396.273438 L 262.054688 396.324219 L 262.078125 396.378906 L 262.097656 396.433594 L 262.113281 396.492188 L 262.125 396.554688 L 262.128906 396.617188 L 262.132812 396.683594 L 262.125 396.824219 L 262.113281 396.890625 L 262.097656 396.953125 L 262.078125 397.015625 L 262.054688 397.074219 L 262.027344 397.125 L 261.996094 397.175781 L 261.957031 397.226562 L 261.917969 397.269531 L 261.875 397.3125 L 261.832031 397.347656 L 261.785156 397.378906 L 261.738281 397.40625 L 261.6875 397.429688 L 261.632812 397.449219 L 261.574219 397.464844 L 261.515625 397.476562 L 261.453125 397.484375 Z M 261.386719 397.484375 "/>
<path fill-rule="nonzero" fill="rgb(10.196078%, 10.196078%, 10.196078%)" fill-opacity="1" d="M 271.320312 410.589844 L 270.902344 409.882812 L 270.503906 409.175781 L 270.121094 408.457031 L 269.753906 407.730469 L 269.40625 407 L 269.074219 406.261719 L 268.761719 405.515625 L 268.464844 404.765625 L 268.1875 404.003906 L 267.925781 403.238281 L 267.695312 402.453125 L 267.484375 401.65625 L 267.300781 400.839844 L 267.144531 400.011719 L 267.007812 399.167969 L 266.898438 398.3125 L 266.8125 397.4375 L 266.75 396.550781 L 266.714844 395.648438 L 266.703125 394.734375 L 266.714844 393.816406 L 266.75 392.914062 L 266.8125 392.03125 L 266.898438 391.160156 L 267.007812 390.304688 L 267.144531 389.464844 L 267.300781 388.640625 L 267.484375 387.832031 L 267.695312 387.039062 L 267.925781 386.261719 L 268.1875 385.488281 L 268.464844 384.722656 L 268.761719 383.964844 L 269.074219 383.214844 L 269.40625 382.472656 L 269.753906 381.738281 L 270.121094 381.011719 L 270.503906 380.292969 L 270.902344 379.582031 L 271.320312 378.878906 L 272.265625 379.4375 L 271.863281 380.101562 L 271.480469 380.777344 L 271.117188 381.46875 L 270.773438 382.171875 L 270.445312 382.886719 L 270.140625 383.613281 L 269.855469 384.351562 L 269.589844 385.105469 L 269.34375 385.871094 L 269.117188 386.648438 L 268.917969 387.433594 L 268.738281 388.226562 L 268.582031 389.023438 L 268.445312 389.824219 L 268.328125 390.628906 L 268.234375 391.441406 L 268.160156 392.257812 L 268.109375 393.078125 L 268.078125 393.902344 L 268.066406 394.734375 L 268.078125 395.558594 L 268.109375 396.375 L 268.160156 397.191406 L 268.234375 398.003906 L 268.328125 398.808594 L 268.445312 399.613281 L 268.582031 400.414062 L 268.738281 401.207031 L 268.917969 401.996094 L 269.117188 402.78125 L 269.34375 403.5625 L 269.589844 404.328125 L 269.855469 405.082031 L 270.140625 405.824219 L 270.445312 406.554688 L 270.773438 407.273438 L 271.117188 407.980469 L 271.480469 408.675781 L 271.863281 409.355469 L 272.265625 410.027344 Z M 271.320312 410.589844 "/>
<path fill-rule="nonzero" fill="rgb(10.196078%, 10.196078%, 10.196078%)" fill-opacity="1" d="M 275.738281 404.464844 L 275.738281 403.371094 L 279.9375 403.371094 L 279.9375 388.53125 L 276.746094 388.53125 L 276.746094 387.691406 L 276.964844 387.652344 L 277.175781 387.609375 L 277.382812 387.566406 L 277.585938 387.519531 L 277.976562 387.425781 L 278.167969 387.375 L 278.351562 387.324219 L 278.53125 387.269531 L 278.707031 387.214844 L 278.878906 387.15625 L 279.042969 387.101562 L 279.207031 387.039062 L 279.511719 386.914062 L 279.800781 386.78125 L 279.933594 386.714844 L 280.066406 386.644531 L 280.191406 386.570312 L 281.199219 386.570312 L 281.199219 403.371094 L 285.089844 403.371094 L 285.089844 404.464844 Z M 275.738281 404.464844 "/>
<path fill-rule="nonzero" fill="rgb(10.196078%, 10.196078%, 10.196078%)" fill-opacity="1" d="M 288.863281 410.589844 L 287.917969 410.027344 L 288.320312 409.355469 L 288.703125 408.675781 L 289.066406 407.980469 L 289.410156 407.273438 L 289.730469 406.554688 L 290.03125 405.824219 L 290.3125 405.082031 L 290.574219 404.328125 L 290.8125 403.5625 L 291.035156 402.78125 L 291.242188 401.996094 L 291.425781 401.207031 L 291.585938 400.414062 L 291.730469 399.613281 L 291.847656 398.808594 L 291.945312 398.003906 L 292.023438 397.191406 L 292.074219 396.375 L 292.109375 395.558594 L 292.117188 394.734375 L 292.109375 393.902344 L 292.074219 393.078125 L 292.023438 392.257812 L 291.945312 391.441406 L 291.847656 390.628906 L 291.730469 389.824219 L 291.585938 389.023438 L 291.425781 388.226562 L 291.242188 387.433594 L 291.035156 386.648438 L 290.8125 385.871094 L 290.574219 385.105469 L 290.3125 384.351562 L 290.03125 383.613281 L 289.730469 382.886719 L 289.410156 382.171875 L 289.066406 381.46875 L 288.703125 380.777344 L 288.320312 380.101562 L 287.917969 379.4375 L 288.863281 378.878906 L 289.289062 379.582031 L 289.695312 380.292969 L 290.082031 381.011719 L 290.449219 381.738281 L 290.796875 382.472656 L 291.128906 383.214844 L 291.4375 383.964844 L 291.730469 384.722656 L 292.003906 385.488281 L 292.257812 386.261719 L 292.492188 387.039062 L 292.699219 387.832031 L 292.882812 388.640625 L 293.042969 389.464844 L 293.179688 390.304688 L 293.289062 391.160156 L 293.375 392.03125 L 293.433594 392.914062 L 293.472656 393.816406 L 293.484375 394.734375 L 293.472656 395.648438 L 293.433594 396.550781 L 293.375 397.4375 L 293.289062 398.3125 L 293.179688 399.167969 L 293.042969 400.011719 L 292.882812 400.839844 L 292.699219 401.65625 L 292.492188 402.453125 L 292.257812 403.238281 L 292.003906 404.003906 L 291.730469 404.765625 L 291.4375 405.515625 L 291.128906 406.261719 L 290.796875 407 L 290.449219 407.730469 L 290.082031 408.457031 L 289.695312 409.175781 L 289.289062 409.882812 Z M 288.863281 410.589844 "/>
<path fill-rule="nonzero" fill="rgb(10.196078%, 10.196078%, 10.196078%)" fill-opacity="1" d="M 568.132812 404.464844 L 568.132812 396.988281 L 562.617188 386.011719 L 563.988281 386.011719 L 566.789062 391.777344 L 566.882812 391.980469 L 566.980469 392.179688 L 567.074219 392.382812 L 567.171875 392.582031 L 567.359375 392.980469 L 567.457031 393.175781 L 567.550781 393.375 L 567.644531 393.570312 L 567.742188 393.765625 L 567.835938 393.964844 L 567.933594 394.160156 L 568.03125 394.359375 L 568.132812 394.558594 L 568.230469 394.761719 L 568.433594 395.167969 L 568.539062 395.371094 L 568.644531 395.578125 L 568.75 395.78125 L 568.863281 395.78125 L 568.96875 395.578125 L 569.074219 395.371094 L 569.179688 395.167969 L 569.28125 394.964844 L 569.386719 394.761719 L 569.488281 394.558594 L 569.59375 394.359375 L 569.695312 394.160156 L 569.796875 393.964844 L 569.898438 393.765625 L 569.996094 393.570312 L 570.097656 393.375 L 570.195312 393.175781 L 570.292969 392.980469 L 570.574219 392.382812 L 570.667969 392.179688 L 570.757812 391.980469 L 570.847656 391.777344 L 573.648438 386.011719 L 574.964844 386.011719 L 569.421875 396.988281 L 569.421875 404.464844 Z M 568.132812 404.464844 "/>
<path fill-rule="nonzero" fill="rgb(10.196078%, 10.196078%, 10.196078%)" fill-opacity="1" d="M 576.851562 409.167969 L 576.851562 399.757812 L 577.714844 399.757812 L 577.714844 409.167969 Z M 577.304688 397.484375 L 577.242188 397.484375 L 577.183594 397.476562 L 577.125 397.464844 L 577.066406 397.449219 L 577.015625 397.429688 L 576.960938 397.40625 L 576.914062 397.378906 L 576.863281 397.347656 L 576.816406 397.3125 L 576.773438 397.269531 L 576.734375 397.226562 L 576.695312 397.175781 L 576.664062 397.125 L 576.636719 397.074219 L 576.613281 397.015625 L 576.59375 396.953125 L 576.578125 396.890625 L 576.566406 396.824219 L 576.558594 396.683594 L 576.5625 396.617188 L 576.566406 396.554688 L 576.578125 396.492188 L 576.59375 396.433594 L 576.613281 396.378906 L 576.636719 396.324219 L 576.664062 396.273438 L 576.695312 396.222656 L 576.734375 396.175781 L 576.773438 396.132812 L 576.816406 396.09375 L 576.863281 396.054688 L 576.914062 396.023438 L 576.960938 395.996094 L 577.015625 395.972656 L 577.066406 395.953125 L 577.125 395.9375 L 577.183594 395.925781 L 577.242188 395.917969 L 577.367188 395.917969 L 577.429688 395.925781 L 577.492188 395.9375 L 577.546875 395.953125 L 577.601562 395.972656 L 577.652344 395.996094 L 577.703125 396.023438 L 577.75 396.054688 L 577.792969 396.09375 L 577.875 396.175781 L 577.910156 396.222656 L 577.941406 396.273438 L 577.96875 396.324219 L 577.996094 396.378906 L 578.015625 396.433594 L 578.027344 396.492188 L 578.039062 396.554688 L 578.046875 396.617188 L 578.046875 396.753906 L 578.039062 396.824219 L 578.027344 396.890625 L 578.015625 396.953125 L 577.996094 397.015625 L 577.96875 397.074219 L 577.941406 397.125 L 577.910156 397.175781 L 577.875 397.226562 L 577.832031 397.269531 L 577.792969 397.3125 L 577.75 397.347656 L 577.703125 397.378906 L 577.652344 397.40625 L 577.601562 397.429688 L 577.546875 397.449219 L 577.492188 397.464844 L 577.429688 397.476562 L 577.367188 397.484375 Z M 577.304688 397.484375 "/>
<path fill-rule="nonzero" fill="rgb(10.196078%, 10.196078%, 10.196078%)" fill-opacity="1" d="M 587.238281 410.589844 L 586.820312 409.882812 L 586.417969 409.175781 L 586.035156 408.457031 L 585.667969 407.730469 L 585.320312 407 L 584.992188 406.261719 L 584.675781 405.515625 L 584.382812 404.765625 L 584.105469 404.003906 L 583.84375 403.238281 L 583.609375 402.453125 L 583.402344 401.65625 L 583.21875 400.839844 L 583.058594 400.011719 L 582.925781 399.167969 L 582.8125 398.3125 L 582.726562 397.4375 L 582.667969 396.550781 L 582.628906 395.648438 L 582.617188 394.734375 L 582.628906 393.816406 L 582.667969 392.914062 L 582.726562 392.03125 L 582.8125 391.160156 L 582.925781 390.304688 L 583.058594 389.464844 L 583.21875 388.640625 L 583.402344 387.832031 L 583.609375 387.039062 L 583.84375 386.261719 L 584.105469 385.488281 L 584.382812 384.722656 L 584.675781 383.964844 L 584.992188 383.214844 L 585.320312 382.472656 L 585.667969 381.738281 L 586.035156 381.011719 L 586.417969 380.292969 L 586.820312 379.582031 L 587.238281 378.878906 L 588.183594 379.4375 L 587.78125 380.101562 L 587.394531 380.777344 L 587.03125 381.46875 L 586.6875 382.171875 L 586.363281 382.886719 L 586.058594 383.613281 L 585.773438 384.351562 L 585.507812 385.105469 L 585.257812 385.871094 L 585.03125 386.648438 L 584.832031 387.433594 L 584.65625 388.226562 L 584.496094 389.023438 L 584.359375 389.824219 L 584.246094 390.628906 L 584.152344 391.441406 L 584.078125 392.257812 L 584.023438 393.078125 L 583.992188 393.902344 L 583.984375 394.734375 L 583.992188 395.558594 L 584.023438 396.375 L 584.078125 397.191406 L 584.152344 398.003906 L 584.246094 398.808594 L 584.359375 399.613281 L 584.496094 400.414062 L 584.65625 401.207031 L 584.832031 401.996094 L 585.03125 402.78125 L 585.257812 403.5625 L 585.507812 404.328125 L 585.773438 405.082031 L 586.058594 405.824219 L 586.363281 406.554688 L 586.6875 407.273438 L 587.03125 407.980469 L 587.394531 408.675781 L 587.78125 409.355469 L 588.183594 410.027344 Z M 587.238281 410.589844 "/>
<path fill-rule="nonzero" fill="rgb(10.196078%, 10.196078%, 10.196078%)" fill-opacity="1" d="M 595.996094 404.800781 L 595.496094 404.773438 L 595.023438 404.703125 L 594.570312 404.578125 L 594.140625 404.410156 L 593.734375 404.191406 L 593.351562 403.921875 L 592.988281 403.605469 L 592.652344 403.238281 L 592.339844 402.824219 L 592.046875 402.363281 L 591.78125 401.855469 L 591.542969 401.308594 L 591.332031 400.71875 L 591.152344 400.085938 L 590.996094 399.417969 L 590.871094 398.703125 L 590.773438 397.949219 L 590.703125 397.15625 L 590.660156 396.324219 L 590.648438 395.445312 L 590.660156 394.578125 L 590.703125 393.75 L 590.773438 392.960938 L 590.871094 392.21875 L 590.996094 391.511719 L 591.152344 390.851562 L 591.332031 390.230469 L 591.542969 389.648438 L 591.78125 389.113281 L 592.046875 388.613281 L 592.339844 388.164062 L 592.652344 387.757812 L 592.988281 387.402344 L 593.351562 387.09375 L 593.734375 386.828125 L 594.140625 386.617188 L 594.570312 386.449219 L 595.023438 386.332031 L 595.496094 386.257812 L 595.996094 386.234375 L 596.496094 386.257812 L 596.976562 386.332031 L 597.433594 386.449219 L 597.863281 386.617188 L 598.269531 386.828125 L 598.652344 387.09375 L 599.011719 387.402344 L 599.347656 387.757812 L 599.65625 388.164062 L 599.941406 388.613281 L 600.207031 389.113281 L 600.445312 389.648438 L 600.65625 390.230469 L 600.839844 390.851562 L 600.992188 391.511719 L 601.117188 392.21875 L 601.21875 392.960938 L 601.285156 393.75 L 601.328125 394.578125 L 601.34375 395.445312 L 601.328125 396.324219 L 601.285156 397.15625 L 601.21875 397.949219 L 601.117188 398.703125 L 600.992188 399.417969 L 600.839844 400.085938 L 600.65625 400.71875 L 600.445312 401.308594 L 600.207031 401.855469 L 599.941406 402.363281 L 599.65625 402.824219 L 599.347656 403.238281 L 599.011719 403.605469 L 598.652344 403.921875 L 598.269531 404.191406 L 597.863281 404.410156 L 597.433594 404.578125 L 596.976562 404.703125 L 596.496094 404.773438 Z M 595.996094 403.734375 L 596.363281 403.714844 L 596.714844 403.652344 L 597.050781 403.546875 L 597.371094 403.398438 L 597.675781 403.210938 L 597.964844 402.980469 L 598.238281 402.707031 L 598.496094 402.390625 L 598.738281 402.035156 L 598.960938 401.636719 L 599.175781 401.195312 L 599.367188 400.714844 L 599.535156 400.195312 L 599.679688 399.636719 L 599.804688 399.039062 L 599.902344 398.398438 L 599.980469 397.722656 L 600.039062 397.003906 L 600.070312 396.246094 L 600.082031 395.445312 L 600.070312 394.648438 L 600.039062 393.894531 L 599.980469 393.179688 L 599.902344 392.507812 L 599.804688 391.878906 L 599.679688 391.289062 L 599.535156 390.738281 L 599.367188 390.230469 L 599.175781 389.765625 L 598.960938 389.34375 L 598.738281 388.953125 L 598.496094 388.605469 L 598.238281 388.300781 L 597.964844 388.035156 L 597.675781 387.808594 L 597.371094 387.625 L 597.050781 387.484375 L 596.714844 387.378906 L 596.363281 387.320312 L 595.996094 387.300781 L 595.632812 387.320312 L 595.285156 387.378906 L 594.953125 387.484375 L 594.632812 387.625 L 594.328125 387.808594 L 594.039062 388.035156 L 593.765625 388.300781 L 593.503906 388.605469 L 593.257812 388.953125 L 593.027344 389.34375 L 592.8125 389.765625 L 592.625 390.230469 L 592.457031 390.738281 L 592.308594 391.289062 L 592.1875 391.878906 L 592.085938 392.507812 L 592.007812 393.179688 L 591.953125 393.894531 L 591.917969 394.648438 L 591.90625 395.445312 L 591.917969 396.246094 L 591.953125 397.003906 L 592.007812 397.722656 L 592.085938 398.398438 L 592.1875 399.039062 L 592.308594 399.636719 L 592.457031 400.195312 L 592.625 400.714844 L 592.8125 401.195312 L 593.027344 401.636719 L 593.257812 402.035156 L 593.503906 402.390625 L 593.765625 402.707031 L 594.039062 402.980469 L 594.328125 403.210938 L 594.632812 403.398438 L 594.953125 403.546875 L 595.285156 403.652344 L 595.632812 403.714844 Z M 595.996094 403.734375 "/>
<path fill-rule="nonzero" fill="rgb(10.196078%, 10.196078%, 10.196078%)" fill-opacity="1" d="M 604.78125 410.589844 L 603.835938 410.027344 L 604.238281 409.355469 L 604.621094 408.675781 L 604.984375 407.980469 L 605.324219 407.273438 L 605.644531 406.554688 L 605.949219 405.824219 L 606.226562 405.082031 L 606.488281 404.328125 L 606.730469 403.5625 L 606.949219 402.78125 L 607.15625 401.996094 L 607.339844 401.207031 L 607.503906 400.414062 L 607.644531 399.613281 L 607.761719 398.808594 L 607.859375 398.003906 L 607.9375 397.191406 L 607.992188 396.375 L 608.023438 395.558594 L 608.035156 394.734375 L 608.023438 393.902344 L 607.992188 393.078125 L 607.9375 392.257812 L 607.859375 391.441406 L 607.761719 390.628906 L 607.644531 389.824219 L 607.503906 389.023438 L 607.339844 388.226562 L 607.15625 387.433594 L 606.949219 386.648438 L 606.730469 385.871094 L 606.488281 385.105469 L 606.226562 384.351562 L 605.949219 383.613281 L 605.644531 382.886719 L 605.324219 382.171875 L 604.984375 381.46875 L 604.621094 380.777344 L 604.238281 380.101562 L 603.835938 379.4375 L 604.78125 378.878906 L 605.203125 379.582031 L 605.609375 380.292969 L 605.996094 381.011719 L 606.363281 381.738281 L 606.714844 382.472656 L 607.042969 383.214844 L 607.355469 383.964844 L 607.648438 384.722656 L 607.921875 385.488281 L 608.175781 386.261719 L 608.40625 387.039062 L 608.617188 387.832031 L 608.800781 388.640625 L 608.957031 389.464844 L 609.09375 390.304688 L 609.203125 391.160156 L 609.289062 392.03125 L 609.351562 392.914062 L 609.386719 393.816406 L 609.398438 394.734375 L 609.386719 395.648438 L 609.351562 396.550781 L 609.289062 397.4375 L 609.203125 398.3125 L 609.09375 399.167969 L 608.957031 400.011719 L 608.800781 400.839844 L 608.617188 401.65625 L 608.40625 402.453125 L 608.175781 403.238281 L 607.921875 404.003906 L 607.648438 404.765625 L 607.355469 405.515625 L 607.042969 406.261719 L 606.714844 407 L 606.363281 407.730469 L 605.996094 408.457031 L 605.609375 409.175781 L 605.203125 409.882812 Z M 604.78125 410.589844 "/>
</svg>
