<?xml version="1.0" encoding="UTF-8"?>
<svg xmlns="http://www.w3.org/2000/svg" xmlns:xlink="http://www.w3.org/1999/xlink" width="446" height="482" viewBox="0 0 446 482">
<defs>
<clipPath id="clip-0">
<path clip-rule="nonzero" d="M 37.527344 13.449219 L 432.546875 13.449219 L 432.546875 356.367188 L 37.527344 356.367188 Z M 37.527344 13.449219 "/>
</clipPath>
<clipPath id="clip-1">
<path clip-rule="nonzero" d="M 37.527344 339 L 432.546875 339 L 432.546875 343 L 37.527344 343 Z M 37.527344 339 "/>
</clipPath>
<clipPath id="clip-2">
<path clip-rule="nonzero" d="M 37.527344 235 L 432.546875 235 L 432.546875 239 L 37.527344 239 Z M 37.527344 235 "/>
</clipPath>
<clipPath id="clip-3">
<path clip-rule="nonzero" d="M 37.527344 131 L 432.546875 131 L 432.546875 135 L 37.527344 135 Z M 37.527344 131 "/>
</clipPath>
<clipPath id="clip-4">
<path clip-rule="nonzero" d="M 37.527344 27 L 432.546875 27 L 432.546875 31 L 37.527344 31 Z M 37.527344 27 "/>
</clipPath>
<clipPath id="clip-5">
<path clip-rule="nonzero" d="M 78 13.449219 L 82 13.449219 L 82 356.367188 L 78 356.367188 Z M 78 13.449219 "/>
</clipPath>
<clipPath id="clip-6">
<path clip-rule="nonzero" d="M 159 13.449219 L 162 13.449219 L 162 356.367188 L 159 356.367188 Z M 159 13.449219 "/>
</clipPath>
<clipPath id="clip-7">
<path clip-rule="nonzero" d="M 239 13.449219 L 242 13.449219 L 242 356.367188 L 239 356.367188 Z M 239 13.449219 "/>
</clipPath>
<clipPath id="clip-8">
<path clip-rule="nonzero" d="M 319 13.449219 L 323 13.449219 L 323 356.367188 L 319 356.367188 Z M 319 13.449219 "/>
</clipPath>
<clipPath id="clip-9">
<path clip-rule="nonzero" d="M 399 13.449219 L 403 13.449219 L 403 356.367188 L 399 356.367188 Z M 399 13.449219 "/>
</clipPath>
</defs>
<rect x="-44.6" y="-48.2" width="535.2" height="578.4" fill="rgb(100%, 100%, 100%)" fill-opacity="1"/>
<rect x="-44.6" y="-48.2" width="535.2" height="578.4" fill="rgb(95.294118%, 95.294118%, 95.294118%)" fill-opacity="1"/>
<path fill="none" stroke-width="2.618947" stroke-linecap="round" stroke-linejoin="round" stroke="rgb(95.294118%, 95.294118%, 95.294118%)" stroke-opacity="1" stroke-miterlimit="10" d="M 0 482 L 446 482 L 446 0 L 0 0 Z M 0 482 "/>
<g clip-path="url(#clip-0)">
<path fill-rule="nonzero" fill="rgb(95.294118%, 95.294118%, 95.294118%)" fill-opacity="1" stroke-width="2.618947" stroke-linecap="round" stroke-linejoin="round" stroke="rgb(95.294118%, 95.294118%, 95.294118%)" stroke-opacity="1" stroke-miterlimit="10" d="M 37.527344 356.367188 L 432.546875 356.367188 L 432.546875 13.449219 L 37.527344 13.449219 Z M 37.527344 356.367188 "/>
</g>
<g clip-path="url(#clip-1)">
<path fill="none" stroke-width="2.618947" stroke-linecap="butt" stroke-linejoin="round" stroke="rgb(92.156863%, 92.156863%, 92.156863%)" stroke-opacity="1" stroke-miterlimit="10" d="M 37.527344 340.78125 L 432.550781 340.78125 "/>
</g>
<g clip-path="url(#clip-2)">
<path fill="none" stroke-width="2.618947" stroke-linecap="butt" stroke-linejoin="round" stroke="rgb(92.156863%, 92.156863%, 92.156863%)" stroke-opacity="1" stroke-miterlimit="10" d="M 37.527344 236.867188 L 432.550781 236.867188 "/>
</g>
<g clip-path="url(#clip-3)">
<path fill="none" stroke-width="2.618947" stroke-linecap="butt" stroke-linejoin="round" stroke="rgb(92.156863%, 92.156863%, 92.156863%)" stroke-opacity="1" stroke-miterlimit="10" d="M 37.527344 132.953125 L 432.550781 132.953125 "/>
</g>
<g clip-path="url(#clip-4)">
<path fill="none" stroke-width="2.618947" stroke-linecap="butt" stroke-linejoin="round" stroke="rgb(92.156863%, 92.156863%, 92.156863%)" stroke-opacity="1" stroke-miterlimit="10" d="M 37.527344 29.035156 L 432.550781 29.035156 "/>
</g>
<g clip-path="url(#clip-5)">
<path fill="none" stroke-width="2.618947" stroke-linecap="butt" stroke-linejoin="round" stroke="rgb(92.156863%, 92.156863%, 92.156863%)" stroke-opacity="1" stroke-miterlimit="10" d="M 80.277344 356.367188 L 80.277344 13.449219 "/>
</g>
<g clip-path="url(#clip-6)">
<path fill="none" stroke-width="2.618947" stroke-linecap="butt" stroke-linejoin="round" stroke="rgb(92.156863%, 92.156863%, 92.156863%)" stroke-opacity="1" stroke-miterlimit="10" d="M 160.46875 356.367188 L 160.46875 13.449219 "/>
</g>
<g clip-path="url(#clip-7)">
<path fill="none" stroke-width="2.618947" stroke-linecap="butt" stroke-linejoin="round" stroke="rgb(92.156863%, 92.156863%, 92.156863%)" stroke-opacity="1" stroke-miterlimit="10" d="M 240.660156 356.367188 L 240.660156 13.449219 "/>
</g>
<g clip-path="url(#clip-8)">
<path fill="none" stroke-width="2.618947" stroke-linecap="butt" stroke-linejoin="round" stroke="rgb(92.156863%, 92.156863%, 92.156863%)" stroke-opacity="1" stroke-miterlimit="10" d="M 320.855469 356.367188 L 320.855469 13.449219 "/>
</g>
<g clip-path="url(#clip-9)">
<path fill="none" stroke-width="2.618947" stroke-linecap="butt" stroke-linejoin="round" stroke="rgb(92.156863%, 92.156863%, 92.156863%)" stroke-opacity="1" stroke-miterlimit="10" d="M 401.046875 356.367188 L 401.046875 13.449219 "/>
</g>
<path fill-rule="nonzero" fill="rgb(56.078431%, 16.470588%, 26.27451%)" fill-opacity="0.8" stroke-width="0.708661" stroke-linecap="round" stroke-linejoin="round" stroke="rgb(56.078431%, 16.470588%, 26.27451%)" stroke-opacity="0.8" stroke-miterlimit="10" d="M 312.253906 182.847656 C 312.253906 188.726562 303.4375 188.726562 303.4375 182.847656 C 303.4375 176.96875 312.253906 176.96875 312.253906 182.847656 "/>
<path fill-rule="nonzero" fill="rgb(0%, 0%, 0%)" fill-opacity="0.8" stroke-width="0.708661" stroke-linecap="round" stroke-linejoin="round" stroke="rgb(0%, 0%, 0%)" stroke-opacity="0.8" stroke-miterlimit="10" d="M 257.371094 284.351562 C 257.371094 290.230469 248.550781 290.230469 248.550781 284.351562 C 248.550781 278.476562 257.371094 278.476562 257.371094 284.351562 "/>
<path fill-rule="nonzero" fill="rgb(56.078431%, 16.470588%, 26.27451%)" fill-opacity="0.8" stroke-width="0.708661" stroke-linecap="round" stroke-linejoin="round" stroke="rgb(56.078431%, 16.470588%, 26.27451%)" stroke-opacity="0.8" stroke-miterlimit="10" d="M 345.617188 218.5 C 345.617188 224.378906 336.800781 224.378906 336.800781 218.5 C 336.800781 212.621094 345.617188 212.621094 345.617188 218.5 "/>
<path fill-rule="nonzero" fill="rgb(0%, 0%, 0%)" fill-opacity="0.8" stroke-width="0.708661" stroke-linecap="round" stroke-linejoin="round" stroke="rgb(0%, 0%, 0%)" stroke-opacity="0.8" stroke-miterlimit="10" d="M 279.269531 192.25 C 279.269531 198.128906 270.453125 198.128906 270.453125 192.25 C 270.453125 186.371094 279.269531 186.371094 279.269531 192.25 "/>
<path fill-rule="nonzero" fill="rgb(56.078431%, 16.470588%, 26.27451%)" fill-opacity="0.8" stroke-width="0.708661" stroke-linecap="round" stroke-linejoin="round" stroke="rgb(56.078431%, 16.470588%, 26.27451%)" stroke-opacity="0.8" stroke-miterlimit="10" d="M 221.410156 30.3125 C 221.410156 36.191406 212.589844 36.191406 212.589844 30.3125 C 212.589844 24.433594 221.410156 24.433594 221.410156 30.3125 "/>
<path fill-rule="nonzero" fill="rgb(56.078431%, 16.470588%, 26.27451%)" fill-opacity="0.8" stroke-width="0.708661" stroke-linecap="round" stroke-linejoin="round" stroke="rgb(56.078431%, 16.470588%, 26.27451%)" stroke-opacity="0.8" stroke-miterlimit="10" d="M 316.851562 193.269531 C 316.851562 199.148438 308.035156 199.148438 308.035156 193.269531 C 308.035156 187.390625 316.851562 187.390625 316.851562 193.269531 "/>
<path fill-rule="nonzero" fill="rgb(56.078431%, 16.470588%, 26.27451%)" fill-opacity="0.8" stroke-width="0.708661" stroke-linecap="round" stroke-linejoin="round" stroke="rgb(56.078431%, 16.470588%, 26.27451%)" stroke-opacity="0.8" stroke-miterlimit="10" d="M 315.488281 138.765625 C 315.488281 144.644531 306.671875 144.644531 306.671875 138.765625 C 306.671875 132.886719 315.488281 132.886719 315.488281 138.765625 "/>
<path fill-rule="nonzero" fill="rgb(0%, 0%, 0%)" fill-opacity="0.8" stroke-width="0.708661" stroke-linecap="round" stroke-linejoin="round" stroke="rgb(0%, 0%, 0%)" stroke-opacity="0.8" stroke-miterlimit="10" d="M 310.953125 162.949219 C 310.953125 168.824219 302.136719 168.824219 302.136719 162.949219 C 302.136719 157.070312 310.953125 157.070312 310.953125 162.949219 "/>
<path fill-rule="nonzero" fill="rgb(56.078431%, 16.470588%, 26.27451%)" fill-opacity="0.8" stroke-width="0.708661" stroke-linecap="round" stroke-linejoin="round" stroke="rgb(56.078431%, 16.470588%, 26.27451%)" stroke-opacity="0.8" stroke-miterlimit="10" d="M 300.292969 135.316406 C 300.292969 141.195312 291.476562 141.195312 291.476562 135.316406 C 291.476562 129.4375 300.292969 129.4375 300.292969 135.316406 "/>
<path fill-rule="nonzero" fill="rgb(0%, 0%, 0%)" fill-opacity="0.8" stroke-width="0.708661" stroke-linecap="round" stroke-linejoin="round" stroke="rgb(0%, 0%, 0%)" stroke-opacity="0.8" stroke-miterlimit="10" d="M 289.492188 122.316406 C 289.492188 128.195312 280.671875 128.195312 280.671875 122.316406 C 280.671875 116.4375 289.492188 116.4375 289.492188 122.316406 "/>
<path fill-rule="nonzero" fill="rgb(56.078431%, 16.470588%, 26.27451%)" fill-opacity="0.8" stroke-width="0.708661" stroke-linecap="round" stroke-linejoin="round" stroke="rgb(56.078431%, 16.470588%, 26.27451%)" stroke-opacity="0.8" stroke-miterlimit="10" d="M 240.105469 51.949219 C 240.105469 57.828125 231.289062 57.828125 231.289062 51.949219 C 231.289062 46.070312 240.105469 46.070312 240.105469 51.949219 "/>
<path fill-rule="nonzero" fill="rgb(56.078431%, 16.470588%, 26.27451%)" fill-opacity="0.8" stroke-width="0.708661" stroke-linecap="round" stroke-linejoin="round" stroke="rgb(56.078431%, 16.470588%, 26.27451%)" stroke-opacity="0.8" stroke-miterlimit="10" d="M 220.535156 66.132812 C 220.535156 72.011719 211.71875 72.011719 211.71875 66.132812 C 211.71875 60.257812 220.535156 60.257812 220.535156 66.132812 "/>
<path fill-rule="nonzero" fill="rgb(0%, 0%, 0%)" fill-opacity="0.8" stroke-width="0.708661" stroke-linecap="round" stroke-linejoin="round" stroke="rgb(0%, 0%, 0%)" stroke-opacity="0.8" stroke-miterlimit="10" d="M 214.558594 216.714844 C 214.558594 222.59375 205.742188 222.59375 205.742188 216.714844 C 205.742188 210.835938 214.558594 210.835938 214.558594 216.714844 "/>
<path fill-rule="nonzero" fill="rgb(0%, 0%, 0%)" fill-opacity="0.8" stroke-width="0.708661" stroke-linecap="round" stroke-linejoin="round" stroke="rgb(0%, 0%, 0%)" stroke-opacity="0.8" stroke-miterlimit="10" d="M 228.398438 229.976562 C 228.398438 235.855469 219.578125 235.855469 219.578125 229.976562 C 219.578125 224.101562 228.398438 224.101562 228.398438 229.976562 "/>
<path fill-rule="nonzero" fill="rgb(0%, 0%, 0%)" fill-opacity="0.8" stroke-width="0.708661" stroke-linecap="round" stroke-linejoin="round" stroke="rgb(0%, 0%, 0%)" stroke-opacity="0.8" stroke-miterlimit="10" d="M 419.003906 44.105469 C 419.003906 49.984375 410.1875 49.984375 410.1875 44.105469 C 410.1875 38.226562 419.003906 38.226562 419.003906 44.105469 "/>
<path fill-rule="nonzero" fill="rgb(56.078431%, 16.470588%, 26.27451%)" fill-opacity="0.8" stroke-width="0.708661" stroke-linecap="round" stroke-linejoin="round" stroke="rgb(56.078431%, 16.470588%, 26.27451%)" stroke-opacity="0.8" stroke-miterlimit="10" d="M 341.941406 135.824219 C 341.941406 141.703125 333.121094 141.703125 333.121094 135.824219 C 333.121094 129.945312 341.941406 129.945312 341.941406 135.824219 "/>
<path fill-rule="nonzero" fill="rgb(56.078431%, 16.470588%, 26.27451%)" fill-opacity="0.8" stroke-width="0.708661" stroke-linecap="round" stroke-linejoin="round" stroke="rgb(56.078431%, 16.470588%, 26.27451%)" stroke-opacity="0.8" stroke-miterlimit="10" d="M 307.617188 174.289062 C 307.617188 180.167969 298.800781 180.167969 298.800781 174.289062 C 298.800781 168.410156 307.617188 168.410156 307.617188 174.289062 "/>
<path fill-rule="nonzero" fill="rgb(56.078431%, 16.470588%, 26.27451%)" fill-opacity="0.8" stroke-width="0.708661" stroke-linecap="round" stroke-linejoin="round" stroke="rgb(56.078431%, 16.470588%, 26.27451%)" stroke-opacity="0.8" stroke-miterlimit="10" d="M 238.386719 125.660156 C 238.386719 131.539062 229.566406 131.539062 229.566406 125.660156 C 229.566406 119.78125 238.386719 119.78125 238.386719 125.660156 "/>
<path fill-rule="nonzero" fill="rgb(56.078431%, 16.470588%, 26.27451%)" fill-opacity="0.8" stroke-width="0.708661" stroke-linecap="round" stroke-linejoin="round" stroke="rgb(56.078431%, 16.470588%, 26.27451%)" stroke-opacity="0.8" stroke-miterlimit="10" d="M 265.386719 144.226562 C 265.386719 150.105469 256.566406 150.105469 256.566406 144.226562 C 256.566406 138.351562 265.386719 138.351562 265.386719 144.226562 "/>
<path fill-rule="nonzero" fill="rgb(56.078431%, 16.470588%, 26.27451%)" fill-opacity="0.8" stroke-width="0.708661" stroke-linecap="round" stroke-linejoin="round" stroke="rgb(56.078431%, 16.470588%, 26.27451%)" stroke-opacity="0.8" stroke-miterlimit="10" d="M 242.78125 64.679688 C 242.78125 70.558594 233.964844 70.558594 233.964844 64.679688 C 233.964844 58.800781 242.78125 58.800781 242.78125 64.679688 "/>
<path fill-rule="nonzero" fill="rgb(56.078431%, 16.470588%, 26.27451%)" fill-opacity="0.8" stroke-width="0.708661" stroke-linecap="round" stroke-linejoin="round" stroke="rgb(56.078431%, 16.470588%, 26.27451%)" stroke-opacity="0.8" stroke-miterlimit="10" d="M 241.632812 89.355469 C 241.632812 95.234375 232.816406 95.234375 232.816406 89.355469 C 232.816406 83.476562 241.632812 83.476562 241.632812 89.355469 "/>
<path fill-rule="nonzero" fill="rgb(0%, 0%, 0%)" fill-opacity="0.8" stroke-width="0.708661" stroke-linecap="round" stroke-linejoin="round" stroke="rgb(0%, 0%, 0%)" stroke-opacity="0.8" stroke-miterlimit="10" d="M 354.820312 112.707031 C 354.820312 118.585938 346.003906 118.585938 346.003906 112.707031 C 346.003906 106.828125 354.820312 106.828125 354.820312 112.707031 "/>
<path fill-rule="nonzero" fill="rgb(0%, 0%, 0%)" fill-opacity="0.8" stroke-width="0.708661" stroke-linecap="round" stroke-linejoin="round" stroke="rgb(0%, 0%, 0%)" stroke-opacity="0.8" stroke-miterlimit="10" d="M 226.964844 309.769531 C 226.964844 315.648438 218.148438 315.648438 218.148438 309.769531 C 218.148438 303.890625 226.964844 303.890625 226.964844 309.769531 "/>
<path fill-rule="nonzero" fill="rgb(56.078431%, 16.470588%, 26.27451%)" fill-opacity="0.8" stroke-width="0.708661" stroke-linecap="round" stroke-linejoin="round" stroke="rgb(56.078431%, 16.470588%, 26.27451%)" stroke-opacity="0.8" stroke-miterlimit="10" d="M 366.679688 240.917969 C 366.679688 246.796875 357.863281 246.796875 357.863281 240.917969 C 357.863281 235.039062 366.679688 235.039062 366.679688 240.917969 "/>
<path fill-rule="nonzero" fill="rgb(56.078431%, 16.470588%, 26.27451%)" fill-opacity="0.8" stroke-width="0.708661" stroke-linecap="round" stroke-linejoin="round" stroke="rgb(56.078431%, 16.470588%, 26.27451%)" stroke-opacity="0.8" stroke-miterlimit="10" d="M 291.953125 228.40625 C 291.953125 234.285156 283.132812 234.285156 283.132812 228.40625 C 283.132812 222.527344 291.953125 222.527344 291.953125 228.40625 "/>
<path fill-rule="nonzero" fill="rgb(56.078431%, 16.470588%, 26.27451%)" fill-opacity="0.8" stroke-width="0.708661" stroke-linecap="round" stroke-linejoin="round" stroke="rgb(56.078431%, 16.470588%, 26.27451%)" stroke-opacity="0.8" stroke-miterlimit="10" d="M 255.003906 113.621094 C 255.003906 119.5 246.183594 119.5 246.183594 113.621094 C 246.183594 107.742188 255.003906 107.742188 255.003906 113.621094 "/>
<path fill-rule="nonzero" fill="rgb(0%, 0%, 0%)" fill-opacity="0.8" stroke-width="0.708661" stroke-linecap="round" stroke-linejoin="round" stroke="rgb(0%, 0%, 0%)" stroke-opacity="0.8" stroke-miterlimit="10" d="M 262.386719 166.679688 C 262.386719 172.554688 253.570312 172.554688 253.570312 166.679688 C 253.570312 160.800781 262.386719 160.800781 262.386719 166.679688 "/>
<path fill-rule="nonzero" fill="rgb(0%, 0%, 0%)" fill-opacity="0.8" stroke-width="0.708661" stroke-linecap="round" stroke-linejoin="round" stroke="rgb(0%, 0%, 0%)" stroke-opacity="0.8" stroke-miterlimit="10" d="M 275.515625 227.308594 C 275.515625 233.1875 266.695312 233.1875 266.695312 227.308594 C 266.695312 221.429688 275.515625 221.429688 275.515625 227.308594 "/>
<path fill-rule="nonzero" fill="rgb(0%, 0%, 0%)" fill-opacity="0.8" stroke-width="0.708661" stroke-linecap="round" stroke-linejoin="round" stroke="rgb(0%, 0%, 0%)" stroke-opacity="0.8" stroke-miterlimit="10" d="M 159.121094 321.253906 C 159.121094 327.132812 150.304688 327.132812 150.304688 321.253906 C 150.304688 315.375 159.121094 315.375 159.121094 321.253906 "/>
<path fill-rule="nonzero" fill="rgb(0%, 0%, 0%)" fill-opacity="0.8" stroke-width="0.708661" stroke-linecap="round" stroke-linejoin="round" stroke="rgb(0%, 0%, 0%)" stroke-opacity="0.8" stroke-miterlimit="10" d="M 269.410156 189.675781 C 269.410156 195.554688 260.59375 195.554688 260.59375 189.675781 C 260.59375 183.800781 269.410156 183.800781 269.410156 189.675781 "/>
<path fill-rule="nonzero" fill="rgb(0%, 0%, 0%)" fill-opacity="0.8" stroke-width="0.708661" stroke-linecap="round" stroke-linejoin="round" stroke="rgb(0%, 0%, 0%)" stroke-opacity="0.8" stroke-miterlimit="10" d="M 281.011719 184.800781 C 281.011719 190.679688 272.195312 190.679688 272.195312 184.800781 C 272.195312 178.921875 281.011719 178.921875 281.011719 184.800781 "/>
<path fill-rule="nonzero" fill="rgb(0%, 0%, 0%)" fill-opacity="0.8" stroke-width="0.708661" stroke-linecap="round" stroke-linejoin="round" stroke="rgb(0%, 0%, 0%)" stroke-opacity="0.8" stroke-miterlimit="10" d="M 249.320312 264.648438 C 249.320312 270.527344 240.503906 270.527344 240.503906 264.648438 C 240.503906 258.769531 249.320312 258.769531 249.320312 264.648438 "/>
<path fill-rule="nonzero" fill="rgb(0%, 0%, 0%)" fill-opacity="0.8" stroke-width="0.708661" stroke-linecap="round" stroke-linejoin="round" stroke="rgb(0%, 0%, 0%)" stroke-opacity="0.8" stroke-miterlimit="10" d="M 319.027344 185.175781 C 319.027344 191.054688 310.210938 191.054688 310.210938 185.175781 C 310.210938 179.296875 319.027344 179.296875 319.027344 185.175781 "/>
<path fill-rule="nonzero" fill="rgb(0%, 0%, 0%)" fill-opacity="0.8" stroke-width="0.708661" stroke-linecap="round" stroke-linejoin="round" stroke="rgb(0%, 0%, 0%)" stroke-opacity="0.8" stroke-miterlimit="10" d="M 409.472656 77.042969 C 409.472656 82.921875 400.652344 82.921875 400.652344 77.042969 C 400.652344 71.164062 409.472656 71.164062 409.472656 77.042969 "/>
<path fill-rule="nonzero" fill="rgb(0%, 0%, 0%)" fill-opacity="0.8" stroke-width="0.708661" stroke-linecap="round" stroke-linejoin="round" stroke="rgb(0%, 0%, 0%)" stroke-opacity="0.8" stroke-miterlimit="10" d="M 205.695312 281.777344 C 205.695312 287.65625 196.875 287.65625 196.875 281.777344 C 196.875 275.898438 205.695312 275.898438 205.695312 281.777344 "/>
<path fill-rule="nonzero" fill="rgb(0%, 0%, 0%)" fill-opacity="0.8" stroke-width="0.708661" stroke-linecap="round" stroke-linejoin="round" stroke="rgb(0%, 0%, 0%)" stroke-opacity="0.8" stroke-miterlimit="10" d="M 325.722656 157.84375 C 325.722656 163.722656 316.90625 163.722656 316.90625 157.84375 C 316.90625 151.964844 325.722656 151.964844 325.722656 157.84375 "/>
<path fill-rule="nonzero" fill="rgb(0%, 0%, 0%)" fill-opacity="0.8" stroke-width="0.708661" stroke-linecap="round" stroke-linejoin="round" stroke="rgb(0%, 0%, 0%)" stroke-opacity="0.8" stroke-miterlimit="10" d="M 188.199219 323.867188 C 188.199219 329.746094 179.378906 329.746094 179.378906 323.867188 C 179.378906 317.988281 188.199219 317.988281 188.199219 323.867188 "/>
<path fill-rule="nonzero" fill="rgb(10.196078%, 10.196078%, 10.196078%)" fill-opacity="1" d="M 19.425781 349.316406 L 18.980469 349.296875 L 18.554688 349.230469 L 18.152344 349.121094 L 17.769531 348.96875 L 17.40625 348.773438 L 17.0625 348.535156 L 16.742188 348.253906 L 16.441406 347.925781 L 16.160156 347.554688 L 15.898438 347.144531 L 15.660156 346.691406 L 15.449219 346.199219 L 15.261719 345.671875 L 15.097656 345.109375 L 14.960938 344.511719 L 14.847656 343.875 L 14.761719 343.203125 L 14.699219 342.496094 L 14.660156 341.75 L 14.648438 340.96875 L 14.660156 340.191406 L 14.699219 339.453125 L 14.761719 338.75 L 14.847656 338.082031 L 14.960938 337.457031 L 15.097656 336.863281 L 15.261719 336.308594 L 15.449219 335.792969 L 15.660156 335.3125 L 15.898438 334.867188 L 16.160156 334.464844 L 16.441406 334.101562 L 16.742188 333.785156 L 17.0625 333.507812 L 17.40625 333.273438 L 17.769531 333.082031 L 18.152344 332.933594 L 18.554688 332.828125 L 18.980469 332.765625 L 19.425781 332.742188 L 19.875 332.765625 L 20.300781 332.828125 L 20.707031 332.933594 L 21.09375 333.082031 L 21.457031 333.273438 L 21.796875 333.507812 L 22.117188 333.785156 L 22.417969 334.101562 L 22.695312 334.464844 L 22.949219 334.867188 L 23.1875 335.3125 L 23.398438 335.792969 L 23.585938 336.308594 L 23.75 336.863281 L 23.886719 337.457031 L 24 338.082031 L 24.085938 338.75 L 24.148438 339.453125 L 24.1875 340.191406 L 24.199219 340.96875 L 24.1875 341.75 L 24.148438 342.496094 L 24.085938 343.203125 L 24 343.875 L 23.886719 344.511719 L 23.75 345.109375 L 23.585938 345.671875 L 23.398438 346.199219 L 23.1875 346.691406 L 22.949219 347.144531 L 22.695312 347.554688 L 22.417969 347.925781 L 22.117188 348.253906 L 21.796875 348.535156 L 21.457031 348.773438 L 21.09375 348.96875 L 20.707031 349.121094 L 20.300781 349.230469 L 19.875 349.296875 Z M 19.425781 348.367188 L 19.753906 348.347656 L 20.066406 348.292969 L 20.367188 348.199219 L 20.652344 348.066406 L 20.925781 347.898438 L 21.183594 347.691406 L 21.425781 347.449219 L 21.65625 347.167969 L 21.871094 346.847656 L 22.074219 346.492188 L 22.265625 346.101562 L 22.433594 345.671875 L 22.585938 345.207031 L 22.714844 344.707031 L 22.824219 344.175781 L 22.914062 343.605469 L 22.984375 343 L 23.035156 342.355469 L 23.066406 341.679688 L 23.074219 340.96875 L 23.066406 340.257812 L 23.035156 339.582031 L 22.984375 338.945312 L 22.914062 338.34375 L 22.824219 337.78125 L 22.714844 337.253906 L 22.585938 336.765625 L 22.433594 336.3125 L 22.265625 335.894531 L 22.074219 335.519531 L 21.871094 335.171875 L 21.65625 334.859375 L 21.425781 334.585938 L 21.183594 334.351562 L 20.925781 334.148438 L 20.652344 333.984375 L 20.367188 333.855469 L 20.066406 333.765625 L 19.753906 333.710938 L 19.425781 333.691406 L 19.101562 333.710938 L 18.789062 333.765625 L 18.492188 333.855469 L 18.207031 333.984375 L 17.9375 334.148438 L 17.679688 334.351562 L 17.433594 334.585938 L 17.199219 334.859375 L 16.980469 335.171875 L 16.773438 335.519531 L 16.585938 335.894531 L 16.414062 336.3125 L 16.265625 336.765625 L 16.132812 337.253906 L 16.023438 337.78125 L 15.933594 338.34375 L 15.863281 338.945312 L 15.816406 339.582031 L 15.785156 340.257812 L 15.773438 340.96875 L 15.785156 341.679688 L 15.816406 342.355469 L 15.863281 343 L 15.933594 343.605469 L 16.023438 344.175781 L 16.132812 344.707031 L 16.265625 345.207031 L 16.414062 345.671875 L 16.585938 346.101562 L 16.773438 346.492188 L 16.980469 346.847656 L 17.199219 347.167969 L 17.433594 347.449219 L 17.679688 347.691406 L 17.9375 347.898438 L 18.207031 348.066406 L 18.492188 348.199219 L 18.789062 348.292969 L 19.101562 348.347656 Z M 19.425781 348.367188 "/>
<path fill-rule="nonzero" fill="rgb(10.196078%, 10.196078%, 10.196078%)" fill-opacity="1" d="M 14.472656 245.101562 L 14.472656 244.402344 L 14.992188 243.875 L 15.488281 243.363281 L 15.972656 242.863281 L 16.433594 242.378906 L 16.878906 241.910156 L 17.308594 241.453125 L 17.722656 241.011719 L 18.113281 240.585938 L 18.492188 240.175781 L 18.847656 239.777344 L 19.191406 239.386719 L 19.515625 239.003906 L 19.820312 238.632812 L 20.109375 238.265625 L 20.378906 237.910156 L 20.632812 237.5625 L 20.871094 237.222656 L 21.089844 236.890625 L 21.289062 236.566406 L 21.472656 236.253906 L 21.640625 235.945312 L 21.789062 235.640625 L 21.921875 235.339844 L 22.035156 235.042969 L 22.128906 234.746094 L 22.210938 234.457031 L 22.269531 234.167969 L 22.316406 233.886719 L 22.339844 233.605469 L 22.347656 233.328125 L 22.339844 233.03125 L 22.316406 232.746094 L 22.273438 232.472656 L 22.214844 232.203125 L 22.136719 231.945312 L 22.042969 231.699219 L 21.933594 231.460938 L 21.804688 231.230469 L 21.660156 231.011719 L 21.5 230.804688 L 21.324219 230.609375 L 21.128906 230.433594 L 20.917969 230.28125 L 20.683594 230.148438 L 20.429688 230.035156 L 20.160156 229.941406 L 19.867188 229.871094 L 19.554688 229.820312 L 19.226562 229.789062 L 18.875 229.777344 L 18.660156 229.785156 L 18.449219 229.800781 L 18.238281 229.832031 L 18.03125 229.875 L 17.824219 229.929688 L 17.621094 229.996094 L 17.417969 230.074219 L 17.21875 230.164062 L 17.019531 230.265625 L 16.824219 230.378906 L 16.636719 230.5 L 16.453125 230.628906 L 16.273438 230.765625 L 16.101562 230.90625 L 15.929688 231.054688 L 15.765625 231.207031 L 15.605469 231.367188 L 15.449219 231.53125 L 15.296875 231.703125 L 15.148438 231.878906 L 14.425781 231.179688 L 14.605469 230.980469 L 14.792969 230.792969 L 14.984375 230.609375 L 15.175781 230.429688 L 15.375 230.257812 L 15.578125 230.09375 L 15.78125 229.9375 L 15.992188 229.785156 L 16.207031 229.640625 L 16.425781 229.503906 L 16.648438 229.375 L 16.878906 229.261719 L 17.117188 229.160156 L 17.359375 229.070312 L 17.613281 228.996094 L 17.871094 228.9375 L 18.136719 228.890625 L 18.410156 228.855469 L 18.6875 228.835938 L 18.972656 228.828125 L 19.394531 228.839844 L 19.796875 228.878906 L 20.175781 228.9375 L 20.539062 229.023438 L 20.878906 229.132812 L 21.203125 229.269531 L 21.507812 229.429688 L 21.789062 229.613281 L 22.054688 229.820312 L 22.300781 230.054688 L 22.523438 230.304688 L 22.722656 230.574219 L 22.898438 230.859375 L 23.050781 231.160156 L 23.179688 231.476562 L 23.285156 231.8125 L 23.367188 232.160156 L 23.425781 232.523438 L 23.460938 232.90625 L 23.472656 233.304688 L 23.464844 233.617188 L 23.4375 233.933594 L 23.390625 234.253906 L 23.328125 234.570312 L 23.242188 234.890625 L 23.140625 235.210938 L 23.019531 235.53125 L 22.882812 235.855469 L 22.726562 236.179688 L 22.550781 236.503906 L 22.363281 236.832031 L 22.160156 237.164062 L 21.941406 237.5 L 21.710938 237.84375 L 21.460938 238.191406 L 21.199219 238.542969 L 20.921875 238.902344 L 20.628906 239.261719 L 20.320312 239.628906 L 20 240.003906 L 19.667969 240.382812 L 19.324219 240.773438 L 18.96875 241.171875 L 18.605469 241.578125 L 18.222656 241.996094 L 17.832031 242.425781 L 17.429688 242.859375 L 17.015625 243.308594 L 16.589844 243.761719 L 16.148438 244.226562 L 16.28125 244.21875 L 16.410156 244.210938 L 16.542969 244.199219 L 16.671875 244.191406 L 16.9375 244.175781 L 17.070312 244.171875 L 17.207031 244.164062 L 17.339844 244.160156 L 17.472656 244.152344 L 17.753906 244.136719 L 18.027344 244.121094 L 18.160156 244.117188 L 18.296875 244.113281 L 18.5625 244.105469 L 18.695312 244.105469 L 18.824219 244.101562 L 24.273438 244.101562 L 24.273438 245.101562 Z M 14.472656 245.101562 "/>
<path fill-rule="nonzero" fill="rgb(10.196078%, 10.196078%, 10.196078%)" fill-opacity="1" d="M 15.199219 135.464844 L 21.199219 135.464844 L 21.199219 129.382812 L 21.203125 129.257812 L 21.203125 129.128906 L 21.207031 128.996094 L 21.207031 128.855469 L 21.210938 128.710938 L 21.214844 128.558594 L 21.21875 128.402344 L 21.222656 128.238281 L 21.234375 128.078125 L 21.242188 127.917969 L 21.253906 127.769531 L 21.261719 127.621094 L 21.277344 127.347656 L 21.28125 127.21875 L 21.289062 127.09375 L 21.292969 126.976562 L 21.300781 126.863281 L 21.199219 126.863281 L 21.140625 126.964844 L 21.015625 127.160156 L 20.957031 127.261719 L 20.894531 127.359375 L 20.832031 127.453125 L 20.765625 127.550781 L 20.703125 127.648438 L 20.640625 127.742188 L 20.574219 127.839844 L 20.507812 127.933594 L 20.445312 128.03125 L 20.378906 128.128906 L 20.3125 128.230469 L 20.242188 128.332031 L 20.175781 128.4375 L 20.105469 128.539062 L 20.039062 128.648438 L 19.96875 128.753906 L 19.898438 128.863281 Z M 21.199219 141.1875 L 21.199219 136.414062 L 13.847656 136.414062 L 13.847656 135.765625 L 21.273438 125.214844 L 22.273438 125.214844 L 22.273438 135.464844 L 24.648438 135.464844 L 24.648438 136.414062 L 22.273438 136.414062 L 22.273438 141.1875 Z M 21.199219 141.1875 "/>
<path fill-rule="nonzero" fill="rgb(10.196078%, 10.196078%, 10.196078%)" fill-opacity="1" d="M 19.773438 28.574219 L 19.601562 28.578125 L 19.425781 28.597656 L 19.25 28.625 L 19.066406 28.664062 L 18.878906 28.710938 L 18.691406 28.773438 L 18.5 28.84375 L 18.300781 28.925781 L 18.101562 29.019531 L 17.898438 29.125 L 17.695312 29.238281 L 17.492188 29.367188 L 17.289062 29.511719 L 17.085938 29.671875 L 16.886719 29.847656 L 16.6875 30.042969 L 16.488281 30.25 L 16.292969 30.476562 L 16.09375 30.71875 L 15.898438 30.972656 L 15.9375 31.46875 L 15.992188 31.945312 L 16.066406 32.402344 L 16.15625 32.84375 L 16.261719 33.261719 L 16.386719 33.664062 L 16.527344 34.042969 L 16.683594 34.40625 L 16.859375 34.75 L 17.050781 35.074219 L 17.257812 35.367188 L 17.488281 35.632812 L 17.734375 35.863281 L 18 36.066406 L 18.285156 36.238281 L 18.589844 36.375 L 18.914062 36.484375 L 19.257812 36.5625 L 19.617188 36.609375 L 20 36.625 L 20.183594 36.617188 L 20.363281 36.601562 L 20.535156 36.578125 L 20.707031 36.539062 L 20.875 36.492188 L 21.039062 36.433594 L 21.195312 36.367188 L 21.351562 36.289062 L 21.503906 36.199219 L 21.648438 36.097656 L 21.792969 35.984375 L 21.925781 35.867188 L 22.058594 35.738281 L 22.179688 35.601562 L 22.300781 35.460938 L 22.410156 35.3125 L 22.515625 35.15625 L 22.617188 34.996094 L 22.710938 34.824219 L 22.800781 34.648438 L 22.878906 34.460938 L 22.953125 34.269531 L 23.015625 34.074219 L 23.070312 33.875 L 23.117188 33.667969 L 23.15625 33.457031 L 23.1875 33.242188 L 23.207031 33.023438 L 23.21875 32.800781 L 23.222656 32.574219 L 23.214844 32.234375 L 23.191406 31.910156 L 23.148438 31.59375 L 23.09375 31.289062 L 23.019531 31 L 22.925781 30.71875 L 22.820312 30.453125 L 22.695312 30.199219 L 22.554688 29.957031 L 22.398438 29.722656 L 22.230469 29.503906 L 22.039062 29.308594 L 21.828125 29.136719 L 21.59375 28.988281 L 21.34375 28.863281 L 21.070312 28.757812 L 20.777344 28.679688 L 20.464844 28.621094 L 20.128906 28.585938 Z M 19.972656 37.574219 L 19.503906 37.554688 L 19.054688 37.496094 L 18.621094 37.398438 L 18.210938 37.261719 L 17.816406 37.085938 L 17.445312 36.871094 L 17.09375 36.617188 L 16.757812 36.328125 L 16.445312 35.996094 L 16.148438 35.625 L 15.882812 35.210938 L 15.644531 34.769531 L 15.4375 34.289062 L 15.253906 33.78125 L 15.097656 33.238281 L 14.972656 32.660156 L 14.875 32.050781 L 14.804688 31.410156 L 14.761719 30.734375 L 14.75 30.023438 L 14.753906 29.527344 L 14.769531 29.046875 L 14.792969 28.582031 L 14.824219 28.132812 L 14.867188 27.699219 L 14.921875 27.28125 L 14.980469 26.882812 L 15.054688 26.496094 L 15.132812 26.128906 L 15.222656 25.773438 L 15.324219 25.4375 L 15.429688 25.109375 L 15.542969 24.800781 L 15.660156 24.503906 L 15.785156 24.21875 L 15.921875 23.945312 L 16.0625 23.691406 L 16.207031 23.445312 L 16.363281 23.214844 L 16.523438 23 L 16.691406 22.796875 L 16.863281 22.601562 L 17.039062 22.421875 L 17.21875 22.25 L 17.40625 22.09375 L 17.59375 21.945312 L 17.789062 21.8125 L 17.988281 21.6875 L 18.191406 21.574219 L 18.398438 21.472656 L 18.617188 21.382812 L 18.832031 21.304688 L 19.050781 21.230469 L 19.273438 21.171875 L 19.492188 21.117188 L 19.714844 21.074219 L 19.941406 21.042969 L 20.167969 21.019531 L 20.394531 21.003906 L 20.625 21 L 20.847656 21.003906 L 21.0625 21.015625 L 21.269531 21.039062 L 21.472656 21.066406 L 21.667969 21.105469 L 21.859375 21.152344 L 22.039062 21.207031 L 22.214844 21.269531 L 22.386719 21.34375 L 22.550781 21.425781 L 22.710938 21.511719 L 22.871094 21.605469 L 23.027344 21.703125 L 23.175781 21.808594 L 23.324219 21.917969 L 23.46875 22.035156 L 23.605469 22.152344 L 23.742188 22.28125 L 23.871094 22.410156 L 24 22.550781 L 23.324219 23.300781 L 23.21875 23.171875 L 23.109375 23.050781 L 22.992188 22.9375 L 22.875 22.832031 L 22.753906 22.730469 L 22.632812 22.636719 L 22.503906 22.546875 L 22.238281 22.390625 L 21.957031 22.257812 L 21.816406 22.199219 L 21.671875 22.144531 L 21.527344 22.101562 L 21.378906 22.0625 L 21.234375 22.03125 L 21.082031 22.003906 L 20.929688 21.988281 L 20.777344 21.976562 L 20.625 21.972656 L 20.371094 21.980469 L 20.121094 22.003906 L 19.875 22.042969 L 19.632812 22.09375 L 19.394531 22.160156 L 19.15625 22.246094 L 18.925781 22.339844 L 18.695312 22.453125 L 18.472656 22.582031 L 18.25 22.722656 L 18.039062 22.882812 L 17.835938 23.0625 L 17.644531 23.261719 L 17.457031 23.480469 L 17.28125 23.71875 L 17.113281 23.976562 L 16.953125 24.253906 L 16.800781 24.546875 L 16.660156 24.863281 L 16.523438 25.199219 L 16.402344 25.554688 L 16.289062 25.9375 L 16.191406 26.34375 L 16.109375 26.769531 L 16.035156 27.222656 L 15.980469 27.703125 L 15.933594 28.203125 L 15.902344 28.726562 L 15.882812 29.277344 L 15.875 29.847656 L 16.042969 29.648438 L 16.214844 29.457031 L 16.390625 29.273438 L 16.570312 29.097656 L 16.753906 28.929688 L 16.945312 28.773438 L 17.140625 28.621094 L 17.339844 28.480469 L 17.542969 28.347656 L 17.75 28.222656 L 17.960938 28.109375 L 18.171875 28.007812 L 18.382812 27.917969 L 18.597656 27.839844 L 18.8125 27.773438 L 19.027344 27.71875 L 19.242188 27.679688 L 19.460938 27.648438 L 19.679688 27.628906 L 19.898438 27.625 L 20.308594 27.636719 L 20.703125 27.675781 L 21.078125 27.738281 L 21.429688 27.828125 L 21.769531 27.941406 L 22.085938 28.082031 L 22.386719 28.25 L 22.667969 28.441406 L 22.929688 28.65625 L 23.175781 28.898438 L 23.398438 29.160156 L 23.597656 29.445312 L 23.773438 29.753906 L 23.925781 30.085938 L 24.054688 30.441406 L 24.160156 30.820312 L 24.242188 31.226562 L 24.300781 31.652344 L 24.335938 32.101562 L 24.347656 32.574219 L 24.34375 32.859375 L 24.324219 33.140625 L 24.296875 33.414062 L 24.253906 33.683594 L 24.199219 33.941406 L 24.132812 34.195312 L 24.054688 34.445312 L 23.964844 34.6875 L 23.863281 34.921875 L 23.75 35.148438 L 23.625 35.371094 L 23.492188 35.582031 L 23.355469 35.78125 L 23.207031 35.972656 L 23.050781 36.15625 L 22.886719 36.328125 L 22.714844 36.492188 L 22.535156 36.644531 L 22.34375 36.789062 L 22.148438 36.925781 L 21.953125 37.046875 L 21.75 37.160156 L 21.542969 37.253906 L 21.332031 37.339844 L 21.117188 37.410156 L 20.898438 37.46875 L 20.675781 37.515625 L 20.445312 37.546875 L 20.210938 37.566406 Z M 19.972656 37.574219 "/>
<path fill-rule="nonzero" fill="rgb(10.196078%, 10.196078%, 10.196078%)" fill-opacity="1" d="M 71.550781 379.195312 L 71.550781 378.222656 L 77.050781 378.222656 L 77.050781 379.195312 Z M 71.550781 379.195312 "/>
<path fill-rule="nonzero" fill="rgb(10.196078%, 10.196078%, 10.196078%)" fill-opacity="1" d="M 79.050781 384.945312 L 79.050781 384.246094 L 79.570312 383.71875 L 80.066406 383.207031 L 80.550781 382.707031 L 81.011719 382.222656 L 81.457031 381.753906 L 81.886719 381.296875 L 82.300781 380.859375 L 82.691406 380.429688 L 83.070312 380.019531 L 83.425781 379.621094 L 83.769531 379.230469 L 84.09375 378.847656 L 84.398438 378.476562 L 84.6875 378.109375 L 84.957031 377.753906 L 85.210938 377.40625 L 85.449219 377.066406 L 85.667969 376.734375 L 85.867188 376.410156 L 86.050781 376.097656 L 86.21875 375.789062 L 86.367188 375.484375 L 86.5 375.183594 L 86.613281 374.886719 L 86.707031 374.589844 L 86.789062 374.300781 L 86.847656 374.011719 L 86.894531 373.730469 L 86.917969 373.449219 L 86.925781 373.171875 L 86.917969 372.875 L 86.894531 372.589844 L 86.851562 372.316406 L 86.792969 372.046875 L 86.714844 371.789062 L 86.621094 371.542969 L 86.511719 371.304688 L 86.382812 371.078125 L 86.238281 370.855469 L 86.078125 370.648438 L 85.902344 370.453125 L 85.707031 370.277344 L 85.496094 370.125 L 85.261719 369.992188 L 85.007812 369.878906 L 84.738281 369.785156 L 84.445312 369.714844 L 84.132812 369.664062 L 83.804688 369.632812 L 83.453125 369.621094 L 83.238281 369.628906 L 83.027344 369.644531 L 82.816406 369.675781 L 82.609375 369.71875 L 82.402344 369.773438 L 82.199219 369.839844 L 81.996094 369.917969 L 81.796875 370.007812 L 81.597656 370.109375 L 81.402344 370.222656 L 81.214844 370.34375 L 81.03125 370.472656 L 80.851562 370.609375 L 80.679688 370.75 L 80.507812 370.898438 L 80.34375 371.050781 L 80.183594 371.210938 L 80.027344 371.375 L 79.875 371.546875 L 79.726562 371.722656 L 79.003906 371.023438 L 79.183594 370.824219 L 79.371094 370.636719 L 79.5625 370.453125 L 79.753906 370.273438 L 79.953125 370.101562 L 80.15625 369.9375 L 80.359375 369.78125 L 80.570312 369.628906 L 80.785156 369.484375 L 81.003906 369.347656 L 81.226562 369.21875 L 81.457031 369.105469 L 81.695312 369.003906 L 81.9375 368.914062 L 82.191406 368.839844 L 82.449219 368.78125 L 82.714844 368.734375 L 82.988281 368.699219 L 83.265625 368.679688 L 83.550781 368.671875 L 83.972656 368.683594 L 84.375 368.722656 L 84.753906 368.78125 L 85.117188 368.867188 L 85.457031 368.976562 L 85.78125 369.113281 L 86.085938 369.273438 L 86.367188 369.457031 L 86.632812 369.664062 L 86.878906 369.898438 L 87.101562 370.148438 L 87.300781 370.417969 L 87.476562 370.703125 L 87.628906 371.003906 L 87.757812 371.320312 L 87.863281 371.65625 L 87.945312 372.003906 L 88.003906 372.371094 L 88.039062 372.75 L 88.050781 373.148438 L 88.042969 373.460938 L 88.015625 373.777344 L 87.96875 374.097656 L 87.90625 374.414062 L 87.820312 374.734375 L 87.71875 375.054688 L 87.597656 375.375 L 87.460938 375.699219 L 87.304688 376.023438 L 87.128906 376.347656 L 86.941406 376.675781 L 86.738281 377.007812 L 86.519531 377.34375 L 86.289062 377.6875 L 86.039062 378.035156 L 85.777344 378.386719 L 85.5 378.746094 L 85.207031 379.105469 L 84.898438 379.476562 L 84.578125 379.847656 L 84.246094 380.226562 L 83.902344 380.617188 L 83.546875 381.015625 L 83.179688 381.421875 L 82.800781 381.839844 L 82.410156 382.269531 L 82.007812 382.703125 L 81.59375 383.152344 L 81.167969 383.605469 L 80.726562 384.070312 L 80.859375 384.0625 L 80.988281 384.054688 L 81.121094 384.042969 L 81.25 384.035156 L 81.515625 384.019531 L 81.648438 384.015625 L 81.785156 384.007812 L 81.917969 384.003906 L 82.050781 383.996094 L 82.332031 383.980469 L 82.605469 383.964844 L 82.738281 383.960938 L 82.875 383.957031 L 83.140625 383.949219 L 83.273438 383.949219 L 83.402344 383.945312 L 88.851562 383.945312 L 88.851562 384.945312 Z M 79.050781 384.945312 "/>
<path fill-rule="nonzero" fill="rgb(10.196078%, 10.196078%, 10.196078%)" fill-opacity="1" d="M 151.746094 379.195312 L 151.746094 378.222656 L 157.246094 378.222656 L 157.246094 379.195312 Z M 151.746094 379.195312 "/>
<path fill-rule="nonzero" fill="rgb(10.196078%, 10.196078%, 10.196078%)" fill-opacity="1" d="M 160.320312 384.945312 L 160.320312 383.972656 L 164.070312 383.972656 L 164.070312 370.722656 L 161.21875 370.722656 L 161.21875 369.972656 L 161.414062 369.9375 L 161.601562 369.898438 L 161.96875 369.820312 L 162.144531 369.777344 L 162.488281 369.691406 L 162.652344 369.644531 L 162.8125 369.597656 L 162.96875 369.546875 L 163.121094 369.496094 L 163.269531 369.445312 L 163.414062 369.390625 L 163.554688 369.335938 L 163.820312 369.21875 L 163.945312 369.160156 L 164.066406 369.097656 L 164.183594 369.035156 L 164.292969 368.972656 L 165.195312 368.972656 L 165.195312 383.972656 L 168.667969 383.972656 L 168.667969 384.945312 Z M 160.320312 384.945312 "/>
<path fill-rule="nonzero" fill="rgb(10.196078%, 10.196078%, 10.196078%)" fill-opacity="1" d="M 240.648438 385.246094 L 240.203125 385.226562 L 239.78125 385.160156 L 239.375 385.050781 L 238.992188 384.898438 L 238.628906 384.703125 L 238.289062 384.464844 L 237.964844 384.179688 L 237.664062 383.855469 L 237.382812 383.484375 L 237.125 383.070312 L 236.886719 382.617188 L 236.675781 382.128906 L 236.488281 381.601562 L 236.324219 381.039062 L 236.1875 380.441406 L 236.074219 379.804688 L 235.988281 379.132812 L 235.925781 378.425781 L 235.886719 377.679688 L 235.875 376.898438 L 235.886719 376.121094 L 235.925781 375.382812 L 235.988281 374.679688 L 236.074219 374.011719 L 236.1875 373.382812 L 236.324219 372.792969 L 236.488281 372.238281 L 236.675781 371.722656 L 236.886719 371.242188 L 237.125 370.796875 L 237.382812 370.394531 L 237.664062 370.03125 L 237.964844 369.714844 L 238.289062 369.4375 L 238.628906 369.203125 L 238.992188 369.011719 L 239.375 368.863281 L 239.78125 368.757812 L 240.203125 368.695312 L 240.648438 368.671875 L 241.097656 368.695312 L 241.527344 368.757812 L 241.933594 368.863281 L 242.316406 369.011719 L 242.679688 369.203125 L 243.023438 369.4375 L 243.34375 369.714844 L 243.640625 370.03125 L 243.917969 370.394531 L 244.175781 370.796875 L 244.410156 371.242188 L 244.625 371.722656 L 244.8125 372.238281 L 244.972656 372.792969 L 245.113281 373.382812 L 245.222656 374.011719 L 245.3125 374.679688 L 245.375 375.382812 L 245.410156 376.121094 L 245.425781 376.898438 L 245.410156 377.679688 L 245.375 378.425781 L 245.3125 379.132812 L 245.222656 379.804688 L 245.113281 380.441406 L 244.972656 381.039062 L 244.8125 381.601562 L 244.625 382.128906 L 244.410156 382.617188 L 244.175781 383.070312 L 243.917969 383.484375 L 243.640625 383.855469 L 243.34375 384.179688 L 243.023438 384.464844 L 242.679688 384.703125 L 242.316406 384.898438 L 241.933594 385.050781 L 241.527344 385.160156 L 241.097656 385.226562 Z M 240.648438 384.296875 L 240.976562 384.277344 L 241.292969 384.222656 L 241.589844 384.128906 L 241.878906 383.996094 L 242.148438 383.828125 L 242.40625 383.621094 L 242.652344 383.378906 L 242.882812 383.097656 L 243.097656 382.777344 L 243.300781 382.421875 L 243.488281 382.03125 L 243.660156 381.601562 L 243.808594 381.136719 L 243.9375 380.636719 L 244.050781 380.101562 L 244.140625 379.53125 L 244.210938 378.925781 L 244.257812 378.285156 L 244.289062 377.609375 L 244.300781 376.898438 L 244.289062 376.1875 L 244.257812 375.511719 L 244.210938 374.875 L 244.140625 374.273438 L 244.050781 373.710938 L 243.9375 373.183594 L 243.808594 372.695312 L 243.660156 372.242188 L 243.488281 371.824219 L 243.300781 371.445312 L 243.097656 371.101562 L 242.882812 370.789062 L 242.652344 370.515625 L 242.40625 370.277344 L 242.148438 370.078125 L 241.878906 369.914062 L 241.589844 369.785156 L 241.292969 369.695312 L 240.976562 369.640625 L 240.648438 369.621094 L 240.324219 369.640625 L 240.015625 369.695312 L 239.71875 369.785156 L 239.433594 369.914062 L 239.160156 370.078125 L 238.902344 370.277344 L 238.65625 370.515625 L 238.425781 370.789062 L 238.207031 371.101562 L 238 371.445312 L 237.808594 371.824219 L 237.640625 372.242188 L 237.488281 372.695312 L 237.359375 373.183594 L 237.25 373.710938 L 237.160156 374.273438 L 237.089844 374.875 L 237.039062 375.511719 L 237.007812 376.1875 L 237 376.898438 L 237.007812 377.609375 L 237.039062 378.285156 L 237.089844 378.925781 L 237.160156 379.53125 L 237.25 380.101562 L 237.359375 380.636719 L 237.488281 381.136719 L 237.640625 381.601562 L 237.808594 382.03125 L 238 382.421875 L 238.207031 382.777344 L 238.425781 383.097656 L 238.65625 383.378906 L 238.902344 383.621094 L 239.160156 383.828125 L 239.433594 383.996094 L 239.71875 384.128906 L 240.015625 384.222656 L 240.324219 384.277344 Z M 240.648438 384.296875 "/>
<path fill-rule="nonzero" fill="rgb(10.196078%, 10.196078%, 10.196078%)" fill-opacity="1" d="M 316.964844 384.945312 L 316.964844 383.972656 L 320.714844 383.972656 L 320.714844 370.722656 L 317.867188 370.722656 L 317.867188 369.972656 L 318.058594 369.9375 L 318.25 369.898438 L 318.433594 369.859375 L 318.613281 369.820312 L 318.792969 369.777344 L 318.964844 369.734375 L 319.132812 369.691406 L 319.460938 369.597656 L 319.617188 369.546875 L 319.769531 369.496094 L 319.917969 369.445312 L 320.0625 369.390625 L 320.199219 369.335938 L 320.335938 369.277344 L 320.464844 369.21875 L 320.589844 369.160156 L 320.710938 369.097656 L 320.828125 369.035156 L 320.941406 368.972656 L 321.839844 368.972656 L 321.839844 383.972656 L 325.316406 383.972656 L 325.316406 384.945312 Z M 316.964844 384.945312 "/>
<path fill-rule="nonzero" fill="rgb(10.196078%, 10.196078%, 10.196078%)" fill-opacity="1" d="M 396.082031 384.945312 L 396.082031 384.246094 L 396.601562 383.71875 L 397.097656 383.207031 L 397.578125 382.707031 L 398.042969 382.222656 L 398.488281 381.753906 L 398.917969 381.296875 L 399.328125 380.859375 L 399.722656 380.429688 L 400.101562 380.019531 L 400.457031 379.621094 L 400.800781 379.230469 L 401.125 378.847656 L 401.429688 378.476562 L 401.71875 378.109375 L 401.988281 377.753906 L 402.242188 377.40625 L 402.480469 377.066406 L 402.699219 376.734375 L 402.898438 376.410156 L 403.082031 376.097656 L 403.25 375.789062 L 403.398438 375.484375 L 403.53125 375.183594 L 403.644531 374.886719 L 403.738281 374.589844 L 403.820312 374.300781 L 403.878906 374.011719 L 403.921875 373.730469 L 403.949219 373.449219 L 403.957031 373.171875 L 403.949219 372.875 L 403.925781 372.589844 L 403.882812 372.316406 L 403.824219 372.046875 L 403.746094 371.789062 L 403.652344 371.542969 L 403.542969 371.304688 L 403.414062 371.078125 L 403.269531 370.855469 L 403.109375 370.648438 L 402.933594 370.453125 L 402.738281 370.277344 L 402.527344 370.125 L 402.292969 369.992188 L 402.039062 369.878906 L 401.765625 369.785156 L 401.476562 369.714844 L 401.164062 369.664062 L 400.832031 369.632812 L 400.484375 369.621094 L 400.269531 369.628906 L 400.058594 369.644531 L 399.847656 369.675781 L 399.640625 369.71875 L 399.433594 369.773438 L 399.230469 369.839844 L 399.027344 369.917969 L 398.828125 370.007812 L 398.628906 370.109375 L 398.433594 370.222656 L 398.246094 370.34375 L 398.0625 370.472656 L 397.882812 370.609375 L 397.710938 370.75 L 397.539062 370.898438 L 397.375 371.050781 L 397.214844 371.210938 L 397.058594 371.375 L 396.90625 371.546875 L 396.757812 371.722656 L 396.035156 371.023438 L 396.214844 370.824219 L 396.402344 370.636719 L 396.589844 370.453125 L 396.785156 370.273438 L 396.984375 370.101562 L 397.183594 369.9375 L 397.390625 369.78125 L 397.601562 369.628906 L 397.816406 369.484375 L 398.035156 369.347656 L 398.257812 369.21875 L 398.488281 369.105469 L 398.726562 369.003906 L 398.96875 368.914062 L 399.222656 368.839844 L 399.480469 368.78125 L 399.746094 368.734375 L 400.015625 368.699219 L 400.296875 368.679688 L 400.582031 368.671875 L 401.003906 368.683594 L 401.40625 368.722656 L 401.785156 368.78125 L 402.148438 368.867188 L 402.488281 368.976562 L 402.8125 369.113281 L 403.117188 369.273438 L 403.398438 369.457031 L 403.664062 369.664062 L 403.910156 369.898438 L 404.132812 370.148438 L 404.332031 370.417969 L 404.507812 370.703125 L 404.660156 371.003906 L 404.789062 371.320312 L 404.894531 371.65625 L 404.976562 372.003906 L 405.035156 372.371094 L 405.070312 372.75 L 405.082031 373.148438 L 405.074219 373.460938 L 405.046875 373.777344 L 405 374.097656 L 404.933594 374.414062 L 404.851562 374.734375 L 404.75 375.054688 L 404.628906 375.375 L 404.492188 375.699219 L 404.335938 376.023438 L 404.160156 376.347656 L 403.972656 376.675781 L 403.769531 377.007812 L 403.550781 377.34375 L 403.320312 377.6875 L 403.070312 378.035156 L 402.808594 378.386719 L 402.53125 378.746094 L 402.238281 379.105469 L 401.929688 379.476562 L 401.609375 379.847656 L 401.277344 380.226562 L 400.933594 380.617188 L 400.578125 381.015625 L 400.210938 381.421875 L 399.832031 381.839844 L 399.441406 382.269531 L 399.039062 382.703125 L 398.625 383.152344 L 398.199219 383.605469 L 397.757812 384.070312 L 397.890625 384.0625 L 398.019531 384.054688 L 398.152344 384.042969 L 398.28125 384.035156 L 398.546875 384.019531 L 398.679688 384.015625 L 398.816406 384.007812 L 398.949219 384.003906 L 399.082031 383.996094 L 399.363281 383.980469 L 399.636719 383.964844 L 399.769531 383.960938 L 399.90625 383.957031 L 400.171875 383.949219 L 400.304688 383.949219 L 400.433594 383.945312 L 405.882812 383.945312 L 405.882812 384.945312 Z M 396.082031 384.945312 "/>
<path fill-rule="nonzero" fill="rgb(0%, 0%, 0%)" fill-opacity="1" d="M 174.980469 451.980469 L 174.980469 434.1875 L 179.109375 434.1875 L 179.652344 434.199219 L 180.171875 434.234375 L 180.675781 434.289062 L 181.15625 434.367188 L 181.621094 434.464844 L 182.066406 434.589844 L 182.488281 434.730469 L 182.894531 434.898438 L 183.28125 435.085938 L 183.644531 435.296875 L 183.992188 435.519531 L 184.324219 435.765625 L 184.632812 436.023438 L 184.925781 436.304688 L 185.199219 436.597656 L 185.453125 436.914062 L 185.691406 437.246094 L 185.910156 437.59375 L 186.109375 437.960938 L 186.292969 438.347656 L 186.460938 438.75 L 186.613281 439.164062 L 186.746094 439.59375 L 186.863281 440.039062 L 186.960938 440.5 L 187.039062 440.976562 L 187.101562 441.464844 L 187.148438 441.96875 L 187.175781 442.484375 L 187.183594 443.019531 L 187.175781 443.550781 L 187.148438 444.070312 L 187.101562 444.578125 L 187.039062 445.070312 L 186.960938 445.550781 L 186.863281 446.015625 L 186.746094 446.46875 L 186.613281 446.90625 L 186.460938 447.332031 L 186.292969 447.742188 L 186.109375 448.132812 L 185.910156 448.507812 L 185.691406 448.863281 L 185.453125 449.203125 L 185.199219 449.523438 L 184.925781 449.828125 L 184.632812 450.117188 L 184.324219 450.386719 L 183.992188 450.640625 L 183.644531 450.875 L 183.28125 451.085938 L 182.894531 451.273438 L 182.492188 451.441406 L 182.070312 451.582031 L 181.628906 451.707031 L 181.167969 451.804688 L 180.6875 451.882812 L 180.191406 451.9375 L 179.671875 451.972656 L 179.136719 451.980469 Z M 176.222656 450.929688 L 178.976562 450.929688 L 179.453125 450.917969 L 179.910156 450.890625 L 180.351562 450.839844 L 180.773438 450.769531 L 181.175781 450.679688 L 181.5625 450.570312 L 181.925781 450.441406 L 182.277344 450.289062 L 182.605469 450.121094 L 182.917969 449.929688 L 183.214844 449.71875 L 183.5 449.488281 L 183.765625 449.246094 L 184.015625 448.988281 L 184.246094 448.714844 L 184.460938 448.425781 L 184.660156 448.125 L 184.84375 447.804688 L 185.007812 447.472656 L 185.160156 447.121094 L 185.296875 446.761719 L 185.421875 446.386719 L 185.53125 446.003906 L 185.625 445.609375 L 185.703125 445.207031 L 185.769531 444.789062 L 185.820312 444.363281 L 185.859375 443.925781 L 185.878906 443.476562 L 185.886719 443.019531 L 185.878906 442.558594 L 185.859375 442.113281 L 185.820312 441.679688 L 185.769531 441.253906 L 185.703125 440.84375 L 185.625 440.445312 L 185.53125 440.058594 L 185.421875 439.683594 L 185.296875 439.320312 L 185.160156 438.96875 L 185.007812 438.625 L 184.84375 438.296875 L 184.660156 437.984375 L 184.460938 437.691406 L 184.246094 437.410156 L 184.015625 437.144531 L 183.765625 436.894531 L 183.5 436.660156 L 183.214844 436.445312 L 182.917969 436.242188 L 182.605469 436.050781 L 182.277344 435.882812 L 181.925781 435.730469 L 181.5625 435.601562 L 181.175781 435.492188 L 180.773438 435.402344 L 180.351562 435.332031 L 179.910156 435.28125 L 179.453125 435.253906 L 178.976562 435.242188 L 176.222656 435.242188 Z M 176.222656 450.929688 "/>
<path fill-rule="nonzero" fill="rgb(0%, 0%, 0%)" fill-opacity="0.8" stroke-width="0.708661" stroke-linecap="round" stroke-linejoin="round" stroke="rgb(0%, 0%, 0%)" stroke-opacity="0.8" stroke-miterlimit="10" d="M 215.167969 440.683594 C 215.167969 446.5625 206.347656 446.5625 206.347656 440.683594 C 206.347656 434.804688 215.167969 434.804688 215.167969 440.683594 "/>
<path fill-rule="nonzero" fill="rgb(56.078431%, 16.470588%, 26.27451%)" fill-opacity="0.8" stroke-width="0.708661" stroke-linecap="round" stroke-linejoin="round" stroke="rgb(56.078431%, 16.470588%, 26.27451%)" stroke-opacity="0.8" stroke-miterlimit="10" d="M 269.691406 440.683594 C 269.691406 446.5625 260.875 446.5625 260.875 440.683594 C 260.875 434.804688 269.691406 434.804688 269.691406 440.683594 "/>
<path fill-rule="nonzero" fill="rgb(0%, 0%, 0%)" fill-opacity="1" d="M 238.011719 448.058594 L 237.625 448.039062 L 237.257812 447.984375 L 236.910156 447.890625 L 236.578125 447.757812 L 236.265625 447.589844 L 235.96875 447.382812 L 235.691406 447.136719 L 235.429688 446.855469 L 235.1875 446.539062 L 234.964844 446.179688 L 234.757812 445.789062 L 234.574219 445.367188 L 234.414062 444.910156 L 234.273438 444.425781 L 234.152344 443.90625 L 234.058594 443.355469 L 233.980469 442.777344 L 233.925781 442.164062 L 233.894531 441.519531 L 233.882812 440.84375 L 233.894531 440.175781 L 233.925781 439.535156 L 233.980469 438.929688 L 234.058594 438.351562 L 234.152344 437.808594 L 234.273438 437.300781 L 234.414062 436.820312 L 234.574219 436.371094 L 234.757812 435.957031 L 234.964844 435.574219 L 235.1875 435.226562 L 235.429688 434.914062 L 235.691406 434.636719 L 235.96875 434.398438 L 236.265625 434.199219 L 236.578125 434.03125 L 236.910156 433.902344 L 237.257812 433.8125 L 237.625 433.757812 L 238.011719 433.738281 L 238.398438 433.757812 L 238.765625 433.8125 L 239.117188 433.902344 L 239.449219 434.03125 L 239.765625 434.199219 L 240.058594 434.398438 L 240.335938 434.636719 L 240.59375 434.914062 L 240.835938 435.226562 L 241.054688 435.574219 L 241.261719 435.957031 L 241.445312 436.371094 L 241.605469 436.820312 L 241.746094 437.300781 L 241.867188 437.808594 L 241.960938 438.351562 L 242.039062 438.929688 L 242.09375 439.535156 L 242.125 440.175781 L 242.136719 440.84375 L 242.125 441.519531 L 242.09375 442.164062 L 242.039062 442.777344 L 241.960938 443.355469 L 241.867188 443.90625 L 241.746094 444.425781 L 241.605469 444.910156 L 241.445312 445.367188 L 241.261719 445.789062 L 241.054688 446.179688 L 240.835938 446.539062 L 240.59375 446.855469 L 240.335938 447.136719 L 240.058594 447.382812 L 239.765625 447.589844 L 239.449219 447.757812 L 239.117188 447.890625 L 238.765625 447.984375 L 238.398438 448.039062 Z M 238.011719 447.238281 L 238.292969 447.222656 L 238.566406 447.171875 L 238.824219 447.09375 L 239.070312 446.980469 L 239.304688 446.832031 L 239.527344 446.65625 L 239.738281 446.445312 L 239.9375 446.203125 L 240.125 445.925781 L 240.300781 445.617188 L 240.464844 445.277344 L 240.609375 444.910156 L 240.738281 444.507812 L 240.851562 444.078125 L 240.949219 443.613281 L 241.023438 443.121094 L 241.085938 442.597656 L 241.128906 442.046875 L 241.15625 441.460938 L 241.164062 440.84375 L 241.15625 440.230469 L 241.128906 439.648438 L 241.085938 439.097656 L 241.023438 438.578125 L 240.949219 438.089844 L 240.851562 437.636719 L 240.738281 437.214844 L 240.609375 436.820312 L 240.464844 436.464844 L 240.300781 436.136719 L 240.125 435.835938 L 239.9375 435.570312 L 239.738281 435.332031 L 239.527344 435.125 L 239.304688 434.953125 L 239.070312 434.8125 L 238.824219 434.703125 L 238.566406 434.621094 L 238.292969 434.574219 L 238.011719 434.558594 L 237.730469 434.574219 L 237.460938 434.621094 L 237.203125 434.703125 L 236.960938 434.8125 L 236.722656 434.953125 L 236.5 435.125 L 236.289062 435.332031 L 236.089844 435.570312 L 235.898438 435.835938 L 235.71875 436.136719 L 235.554688 436.464844 L 235.410156 436.820312 L 235.28125 437.214844 L 235.167969 437.636719 L 235.070312 438.089844 L 234.996094 438.578125 L 234.933594 439.097656 L 234.890625 439.648438 L 234.863281 440.230469 L 234.855469 440.84375 L 234.863281 441.460938 L 234.890625 442.046875 L 234.933594 442.597656 L 234.996094 443.121094 L 235.070312 443.613281 L 235.167969 444.078125 L 235.28125 444.507812 L 235.410156 444.910156 L 235.554688 445.277344 L 235.71875 445.617188 L 235.898438 445.925781 L 236.089844 446.203125 L 236.289062 446.445312 L 236.5 446.65625 L 236.722656 446.832031 L 236.960938 446.980469 L 237.203125 447.09375 L 237.460938 447.171875 L 237.730469 447.222656 Z M 238.011719 447.238281 "/>
<path fill-rule="nonzero" fill="rgb(0%, 0%, 0%)" fill-opacity="1" d="M 289.1875 447.800781 L 289.1875 446.957031 L 292.425781 446.957031 L 292.425781 435.507812 L 289.964844 435.507812 L 289.964844 434.863281 L 290.132812 434.832031 L 290.296875 434.796875 L 290.453125 434.765625 L 290.765625 434.695312 L 290.914062 434.65625 L 291.203125 434.578125 L 291.339844 434.535156 L 291.476562 434.496094 L 291.609375 434.449219 L 291.738281 434.40625 L 291.980469 434.3125 L 292.097656 434.261719 L 292.210938 434.210938 L 292.320312 434.160156 L 292.425781 434.105469 L 292.523438 434.054688 L 292.621094 433.996094 L 293.398438 433.996094 L 293.398438 446.957031 L 296.402344 446.957031 L 296.402344 447.800781 Z M 289.1875 447.800781 "/>
</svg>
