<?xml version="1.0" encoding="UTF-8"?>
<svg xmlns="http://www.w3.org/2000/svg" xmlns:xlink="http://www.w3.org/1999/xlink" width="446" height="316" viewBox="0 0 446 316">
<defs>
<clipPath id="clip-0">
<path clip-rule="nonzero" d="M 52.882812 11.957031 L 434.042969 11.957031 L 434.042969 271.925781 L 52.882812 271.925781 Z M 52.882812 11.957031 "/>
</clipPath>
<clipPath id="clip-1">
<path clip-rule="nonzero" d="M 52.882812 258 L 434.042969 258 L 434.042969 262 L 52.882812 262 Z M 52.882812 258 "/>
</clipPath>
<clipPath id="clip-2">
<path clip-rule="nonzero" d="M 52.882812 199 L 434.042969 199 L 434.042969 203 L 52.882812 203 Z M 52.882812 199 "/>
</clipPath>
<clipPath id="clip-3">
<path clip-rule="nonzero" d="M 52.882812 140 L 434.042969 140 L 434.042969 144 L 52.882812 144 Z M 52.882812 140 "/>
</clipPath>
<clipPath id="clip-4">
<path clip-rule="nonzero" d="M 52.882812 81 L 434.042969 81 L 434.042969 85 L 52.882812 85 Z M 52.882812 81 "/>
</clipPath>
<clipPath id="clip-5">
<path clip-rule="nonzero" d="M 52.882812 22 L 434.042969 22 L 434.042969 25 L 52.882812 25 Z M 52.882812 22 "/>
</clipPath>
<clipPath id="clip-6">
<path clip-rule="nonzero" d="M 134 11.957031 L 137 11.957031 L 137 271.925781 L 134 271.925781 Z M 134 11.957031 "/>
</clipPath>
<clipPath id="clip-7">
<path clip-rule="nonzero" d="M 350 11.957031 L 353 11.957031 L 353 271.925781 L 350 271.925781 Z M 350 11.957031 "/>
</clipPath>
<clipPath id="clip-8">
<path clip-rule="nonzero" d="M 52.882812 11.957031 L 434.042969 11.957031 L 434.042969 172 L 52.882812 172 Z M 52.882812 11.957031 "/>
</clipPath>
</defs>
<rect x="-44.6" y="-31.6" width="535.2" height="379.2" fill="rgb(100%, 100%, 100%)" fill-opacity="1"/>
<rect x="-44.6" y="-31.6" width="535.2" height="379.2" fill="rgb(95.294118%, 95.294118%, 95.294118%)" fill-opacity="1"/>
<path fill="none" stroke-width="2.327953" stroke-linecap="round" stroke-linejoin="round" stroke="rgb(95.294118%, 95.294118%, 95.294118%)" stroke-opacity="1" stroke-miterlimit="10" d="M 0 316 L 446 316 L 446 0 L 0 0 Z M 0 316 "/>
<g clip-path="url(#clip-0)">
<path fill-rule="nonzero" fill="rgb(95.294118%, 95.294118%, 95.294118%)" fill-opacity="1" stroke-width="2.327953" stroke-linecap="round" stroke-linejoin="round" stroke="rgb(95.294118%, 95.294118%, 95.294118%)" stroke-opacity="1" stroke-miterlimit="10" d="M 52.882812 271.925781 L 434.042969 271.925781 L 434.042969 11.957031 L 52.882812 11.957031 Z M 52.882812 271.925781 "/>
</g>
<g clip-path="url(#clip-1)">
<path fill="none" stroke-width="2.327953" stroke-linecap="butt" stroke-linejoin="round" stroke="rgb(92.156863%, 92.156863%, 92.156863%)" stroke-opacity="1" stroke-miterlimit="10" d="M 52.882812 260.109375 L 434.042969 260.109375 "/>
</g>
<g clip-path="url(#clip-2)">
<path fill="none" stroke-width="2.327953" stroke-linecap="butt" stroke-linejoin="round" stroke="rgb(92.156863%, 92.156863%, 92.156863%)" stroke-opacity="1" stroke-miterlimit="10" d="M 52.882812 201.023438 L 434.042969 201.023438 "/>
</g>
<g clip-path="url(#clip-3)">
<path fill="none" stroke-width="2.327953" stroke-linecap="butt" stroke-linejoin="round" stroke="rgb(92.156863%, 92.156863%, 92.156863%)" stroke-opacity="1" stroke-miterlimit="10" d="M 52.882812 141.941406 L 434.042969 141.941406 "/>
</g>
<g clip-path="url(#clip-4)">
<path fill="none" stroke-width="2.327953" stroke-linecap="butt" stroke-linejoin="round" stroke="rgb(92.156863%, 92.156863%, 92.156863%)" stroke-opacity="1" stroke-miterlimit="10" d="M 52.882812 82.855469 L 434.042969 82.855469 "/>
</g>
<g clip-path="url(#clip-5)">
<path fill="none" stroke-width="2.327953" stroke-linecap="butt" stroke-linejoin="round" stroke="rgb(92.156863%, 92.156863%, 92.156863%)" stroke-opacity="1" stroke-miterlimit="10" d="M 52.882812 23.773438 L 434.042969 23.773438 "/>
</g>
<g clip-path="url(#clip-6)">
<path fill="none" stroke-width="2.327953" stroke-linecap="butt" stroke-linejoin="round" stroke="rgb(92.156863%, 92.156863%, 92.156863%)" stroke-opacity="1" stroke-miterlimit="10" d="M 135.179688 271.925781 L 135.179688 11.957031 "/>
</g>
<g clip-path="url(#clip-7)">
<path fill="none" stroke-width="2.327953" stroke-linecap="butt" stroke-linejoin="round" stroke="rgb(92.156863%, 92.156863%, 92.156863%)" stroke-opacity="1" stroke-miterlimit="10" d="M 351.75 271.925781 L 351.75 11.957031 "/>
</g>
<path fill-rule="nonzero" fill="rgb(56.078431%, 16.470588%, 26.27451%)" fill-opacity="0.8" stroke-width="0.708661" stroke-linecap="round" stroke-linejoin="round" stroke="rgb(56.078431%, 16.470588%, 26.27451%)" stroke-opacity="0.8" stroke-miterlimit="10" d="M 360.636719 260.109375 C 360.636719 265.019531 356.660156 269 351.75 269 C 346.839844 269 342.859375 265.019531 342.859375 260.109375 C 342.859375 255.199219 346.839844 251.21875 351.75 251.21875 C 356.660156 251.21875 360.636719 255.199219 360.636719 260.109375 "/>
<path fill-rule="nonzero" fill="rgb(56.078431%, 16.470588%, 26.27451%)" fill-opacity="0.8" stroke-width="0.708661" stroke-linecap="round" stroke-linejoin="round" stroke="rgb(56.078431%, 16.470588%, 26.27451%)" stroke-opacity="0.8" stroke-miterlimit="10" d="M 360.636719 248.292969 C 360.636719 253.203125 356.660156 257.183594 351.75 257.183594 C 346.839844 257.183594 342.859375 253.203125 342.859375 248.292969 C 342.859375 243.382812 346.839844 239.402344 351.75 239.402344 C 356.660156 239.402344 360.636719 243.382812 360.636719 248.292969 "/>
<path fill-rule="nonzero" fill="rgb(56.078431%, 16.470588%, 26.27451%)" fill-opacity="0.8" stroke-width="0.708661" stroke-linecap="round" stroke-linejoin="round" stroke="rgb(56.078431%, 16.470588%, 26.27451%)" stroke-opacity="0.8" stroke-miterlimit="10" d="M 360.636719 248.292969 C 360.636719 253.203125 356.660156 257.183594 351.75 257.183594 C 346.839844 257.183594 342.859375 253.203125 342.859375 248.292969 C 342.859375 243.382812 346.839844 239.402344 351.75 239.402344 C 356.660156 239.402344 360.636719 243.382812 360.636719 248.292969 "/>
<path fill-rule="nonzero" fill="rgb(56.078431%, 16.470588%, 26.27451%)" fill-opacity="0.8" stroke-width="0.708661" stroke-linecap="round" stroke-linejoin="round" stroke="rgb(56.078431%, 16.470588%, 26.27451%)" stroke-opacity="0.8" stroke-miterlimit="10" d="M 144.070312 23.773438 C 144.070312 28.683594 140.089844 32.664062 135.179688 32.664062 C 130.269531 32.664062 126.289062 28.683594 126.289062 23.773438 C 126.289062 18.863281 130.269531 14.882812 135.179688 14.882812 C 140.089844 14.882812 144.070312 18.863281 144.070312 23.773438 "/>
<path fill-rule="nonzero" fill="rgb(56.078431%, 16.470588%, 26.27451%)" fill-opacity="0.8" stroke-width="0.708661" stroke-linecap="round" stroke-linejoin="round" stroke="rgb(56.078431%, 16.470588%, 26.27451%)" stroke-opacity="0.8" stroke-miterlimit="10" d="M 144.070312 47.40625 C 144.070312 52.316406 140.089844 56.296875 135.179688 56.296875 C 130.269531 56.296875 126.289062 52.316406 126.289062 47.40625 C 126.289062 42.496094 130.269531 38.515625 135.179688 38.515625 C 140.089844 38.515625 144.070312 42.496094 144.070312 47.40625 "/>
<path fill-rule="nonzero" fill="rgb(56.078431%, 16.470588%, 26.27451%)" fill-opacity="0.8" stroke-width="0.708661" stroke-linecap="round" stroke-linejoin="round" stroke="rgb(56.078431%, 16.470588%, 26.27451%)" stroke-opacity="0.8" stroke-miterlimit="10" d="M 144.070312 130.125 C 144.070312 135.035156 140.089844 139.011719 135.179688 139.011719 C 130.269531 139.011719 126.289062 135.035156 126.289062 130.125 C 126.289062 125.214844 130.269531 121.234375 135.179688 121.234375 C 140.089844 121.234375 144.070312 125.214844 144.070312 130.125 "/>
<path fill-rule="nonzero" fill="rgb(56.078431%, 16.470588%, 26.27451%)" fill-opacity="0.8" stroke-width="0.708661" stroke-linecap="round" stroke-linejoin="round" stroke="rgb(56.078431%, 16.470588%, 26.27451%)" stroke-opacity="0.8" stroke-miterlimit="10" d="M 360.636719 35.589844 C 360.636719 40.5 356.660156 44.480469 351.75 44.480469 C 346.839844 44.480469 342.859375 40.5 342.859375 35.589844 C 342.859375 30.679688 346.839844 26.699219 351.75 26.699219 C 356.660156 26.699219 360.636719 30.679688 360.636719 35.589844 "/>
<path fill-rule="nonzero" fill="rgb(56.078431%, 16.470588%, 26.27451%)" fill-opacity="0.8" stroke-width="0.708661" stroke-linecap="round" stroke-linejoin="round" stroke="rgb(56.078431%, 16.470588%, 26.27451%)" stroke-opacity="0.8" stroke-miterlimit="10" d="M 144.070312 165.574219 C 144.070312 170.484375 140.089844 174.464844 135.179688 174.464844 C 130.269531 174.464844 126.289062 170.484375 126.289062 165.574219 C 126.289062 160.664062 130.269531 156.683594 135.179688 156.683594 C 140.089844 156.683594 144.070312 160.664062 144.070312 165.574219 "/>
<g clip-path="url(#clip-8)">
<path fill="none" stroke-width="2.560748" stroke-linecap="butt" stroke-linejoin="round" stroke="rgb(0%, 0%, 0%)" stroke-opacity="1" stroke-miterlimit="10" d="M -328.277344 170.535156 L 815.207031 -16.640625 "/>
</g>
<path fill="none" stroke-width="1.066978" stroke-linecap="butt" stroke-linejoin="round" stroke="rgb(0%, 0%, 0%)" stroke-opacity="0.298039" stroke-dasharray="4.267913 4.267913" stroke-miterlimit="10" d="M 351.75 59.222656 L 351.75 260.109375 "/>
<path fill="none" stroke-width="1.066978" stroke-linecap="butt" stroke-linejoin="round" stroke="rgb(0%, 0%, 0%)" stroke-opacity="0.298039" stroke-dasharray="4.267913 4.267913" stroke-miterlimit="10" d="M 351.75 59.222656 L 351.75 248.292969 "/>
<path fill="none" stroke-width="1.066978" stroke-linecap="butt" stroke-linejoin="round" stroke="rgb(0%, 0%, 0%)" stroke-opacity="0.298039" stroke-dasharray="4.267913 4.267913" stroke-miterlimit="10" d="M 351.75 59.222656 L 351.75 248.292969 "/>
<path fill="none" stroke-width="1.066978" stroke-linecap="butt" stroke-linejoin="round" stroke="rgb(0%, 0%, 0%)" stroke-opacity="0.298039" stroke-dasharray="4.267913 4.267913" stroke-miterlimit="10" d="M 135.179688 106.488281 L 135.179688 23.773438 "/>
<path fill="none" stroke-width="1.066978" stroke-linecap="butt" stroke-linejoin="round" stroke="rgb(0%, 0%, 0%)" stroke-opacity="0.298039" stroke-dasharray="4.267913 4.267913" stroke-miterlimit="10" d="M 135.179688 106.488281 L 135.179688 47.40625 "/>
<path fill="none" stroke-width="1.066978" stroke-linecap="butt" stroke-linejoin="round" stroke="rgb(0%, 0%, 0%)" stroke-opacity="0.298039" stroke-dasharray="4.267913 4.267913" stroke-miterlimit="10" d="M 135.179688 106.488281 L 135.179688 130.125 "/>
<path fill="none" stroke-width="1.066978" stroke-linecap="butt" stroke-linejoin="round" stroke="rgb(0%, 0%, 0%)" stroke-opacity="0.298039" stroke-dasharray="4.267913 4.267913" stroke-miterlimit="10" d="M 351.75 59.222656 L 351.75 35.589844 "/>
<path fill="none" stroke-width="1.066978" stroke-linecap="butt" stroke-linejoin="round" stroke="rgb(0%, 0%, 0%)" stroke-opacity="0.298039" stroke-dasharray="4.267913 4.267913" stroke-miterlimit="10" d="M 135.179688 106.488281 L 135.179688 165.574219 "/>
<path fill-rule="nonzero" fill="rgb(10.196078%, 10.196078%, 10.196078%)" fill-opacity="1" d="M 12.914062 262.496094 L 12.914062 261.558594 L 18.195312 261.558594 L 18.195312 262.496094 Z M 12.914062 262.496094 "/>
<path fill-rule="nonzero" fill="rgb(10.196078%, 10.196078%, 10.196078%)" fill-opacity="1" d="M 21.148438 268.015625 L 21.148438 267.082031 L 24.746094 267.082031 L 24.746094 254.359375 L 22.011719 254.359375 L 22.011719 253.640625 L 22.378906 253.570312 L 22.554688 253.53125 L 22.730469 253.496094 L 22.898438 253.453125 L 23.066406 253.414062 L 23.226562 253.371094 L 23.386719 253.324219 L 23.539062 253.28125 L 23.691406 253.230469 L 23.835938 253.183594 L 23.980469 253.132812 L 24.117188 253.082031 L 24.382812 252.972656 L 24.507812 252.917969 L 24.742188 252.800781 L 24.855469 252.742188 L 24.964844 252.679688 L 25.828125 252.679688 L 25.828125 267.082031 L 29.164062 267.082031 L 29.164062 268.015625 Z M 21.148438 268.015625 "/>
<path fill-rule="nonzero" fill="rgb(10.196078%, 10.196078%, 10.196078%)" fill-opacity="1" d="M 36.363281 268.304688 L 35.9375 268.285156 L 35.527344 268.222656 L 35.140625 268.117188 L 34.773438 267.96875 L 34.425781 267.78125 L 34.097656 267.550781 L 33.789062 267.28125 L 33.5 266.96875 L 33.230469 266.613281 L 32.980469 266.214844 L 32.75 265.78125 L 32.546875 265.3125 L 32.367188 264.804688 L 32.210938 264.265625 L 32.078125 263.691406 L 31.972656 263.078125 L 31.886719 262.433594 L 31.828125 261.753906 L 31.792969 261.039062 L 31.777344 260.289062 L 31.792969 259.542969 L 31.828125 258.832031 L 31.886719 258.160156 L 31.972656 257.519531 L 32.078125 256.917969 L 32.210938 256.347656 L 32.367188 255.816406 L 32.546875 255.320312 L 32.75 254.859375 L 32.980469 254.433594 L 33.230469 254.042969 L 33.5 253.699219 L 33.789062 253.390625 L 34.097656 253.125 L 34.425781 252.902344 L 34.773438 252.71875 L 35.140625 252.574219 L 35.527344 252.472656 L 35.9375 252.414062 L 36.363281 252.390625 L 36.792969 252.414062 L 37.207031 252.472656 L 37.59375 252.574219 L 37.964844 252.71875 L 38.3125 252.902344 L 38.640625 253.125 L 38.949219 253.390625 L 39.234375 253.699219 L 39.5 254.042969 L 39.746094 254.433594 L 39.976562 254.859375 L 40.179688 255.320312 L 40.359375 255.816406 L 40.515625 256.347656 L 40.648438 256.917969 L 40.753906 257.519531 L 40.839844 258.160156 L 40.898438 258.832031 L 40.933594 259.542969 L 40.945312 260.289062 L 40.933594 261.039062 L 40.898438 261.753906 L 40.839844 262.433594 L 40.753906 263.078125 L 40.648438 263.691406 L 40.515625 264.265625 L 40.359375 264.804688 L 40.179688 265.3125 L 39.976562 265.78125 L 39.746094 266.214844 L 39.5 266.613281 L 39.234375 266.96875 L 38.949219 267.28125 L 38.640625 267.550781 L 38.3125 267.78125 L 37.964844 267.96875 L 37.59375 268.117188 L 37.207031 268.222656 L 36.792969 268.285156 Z M 36.363281 267.390625 L 36.679688 267.375 L 36.980469 267.320312 L 37.265625 267.230469 L 37.542969 267.105469 L 37.804688 266.941406 L 38.050781 266.746094 L 38.285156 266.511719 L 38.507812 266.242188 L 38.714844 265.933594 L 38.90625 265.59375 L 39.089844 265.214844 L 39.253906 264.804688 L 39.398438 264.359375 L 39.523438 263.878906 L 39.628906 263.367188 L 39.714844 262.820312 L 39.78125 262.238281 L 39.828125 261.621094 L 39.859375 260.972656 L 39.867188 260.289062 L 39.859375 259.605469 L 39.828125 258.957031 L 39.78125 258.347656 L 39.714844 257.769531 L 39.628906 257.226562 L 39.523438 256.722656 L 39.398438 256.253906 L 39.253906 255.820312 L 39.089844 255.417969 L 38.90625 255.054688 L 38.714844 254.722656 L 38.507812 254.425781 L 38.285156 254.164062 L 38.050781 253.933594 L 37.804688 253.742188 L 37.542969 253.585938 L 37.265625 253.460938 L 36.980469 253.375 L 36.679688 253.320312 L 36.363281 253.304688 L 36.050781 253.320312 L 35.753906 253.375 L 35.46875 253.460938 L 35.195312 253.585938 L 34.933594 253.742188 L 34.6875 253.933594 L 34.453125 254.164062 L 34.226562 254.425781 L 34.015625 254.722656 L 33.820312 255.054688 L 33.636719 255.417969 L 33.472656 255.820312 L 33.328125 256.253906 L 33.203125 256.722656 L 33.097656 257.226562 L 33.011719 257.769531 L 32.945312 258.347656 L 32.898438 258.957031 L 32.867188 259.605469 L 32.859375 260.289062 L 32.867188 260.972656 L 32.898438 261.621094 L 32.945312 262.238281 L 33.011719 262.820312 L 33.097656 263.367188 L 33.203125 263.878906 L 33.328125 264.359375 L 33.472656 264.804688 L 33.636719 265.214844 L 33.820312 265.59375 L 34.015625 265.933594 L 34.226562 266.242188 L 34.453125 266.511719 L 34.6875 266.746094 L 34.933594 266.941406 L 35.195312 267.105469 L 35.46875 267.230469 L 35.753906 267.320312 L 36.050781 267.375 Z M 36.363281 267.390625 "/>
<path fill-rule="nonzero" fill="rgb(10.196078%, 10.196078%, 10.196078%)" fill-opacity="1" d="M 24.410156 203.414062 L 24.410156 202.476562 L 29.691406 202.476562 L 29.691406 203.414062 Z M 24.410156 203.414062 "/>
<path fill-rule="nonzero" fill="rgb(10.196078%, 10.196078%, 10.196078%)" fill-opacity="1" d="M 36.074219 209.21875 L 35.832031 209.21875 L 35.597656 209.207031 L 35.367188 209.191406 L 35.144531 209.171875 L 34.929688 209.140625 L 34.71875 209.109375 L 34.515625 209.066406 L 34.316406 209.019531 L 34.125 208.96875 L 33.9375 208.910156 L 33.59375 208.777344 L 33.429688 208.707031 L 33.265625 208.632812 L 33.109375 208.554688 L 32.8125 208.390625 L 32.671875 208.300781 L 32.535156 208.210938 L 32.402344 208.117188 L 32.273438 208.019531 L 32.148438 207.925781 L 31.90625 207.730469 L 31.792969 207.636719 L 31.675781 207.539062 L 31.566406 207.445312 L 31.457031 207.347656 L 31.351562 207.253906 L 31.25 207.15625 L 31.851562 206.414062 L 31.992188 206.550781 L 32.140625 206.6875 L 32.292969 206.820312 L 32.449219 206.953125 L 32.613281 207.085938 L 32.78125 207.214844 L 32.953125 207.339844 L 33.132812 207.464844 L 33.316406 207.585938 L 33.507812 207.707031 L 33.710938 207.816406 L 33.921875 207.914062 L 34.148438 208.003906 L 34.386719 208.078125 L 34.636719 208.140625 L 34.894531 208.191406 L 35.167969 208.234375 L 35.449219 208.261719 L 35.746094 208.277344 L 36.050781 208.285156 L 36.257812 208.277344 L 36.457031 208.265625 L 36.65625 208.238281 L 36.851562 208.203125 L 37.042969 208.160156 L 37.230469 208.101562 L 37.414062 208.039062 L 37.59375 207.960938 L 37.773438 207.875 L 37.945312 207.78125 L 38.117188 207.671875 L 38.28125 207.554688 L 38.433594 207.425781 L 38.585938 207.292969 L 38.726562 207.148438 L 38.863281 207 L 38.992188 206.839844 L 39.113281 206.675781 L 39.230469 206.5 L 39.339844 206.316406 L 39.441406 206.125 L 39.527344 205.929688 L 39.609375 205.730469 L 39.675781 205.519531 L 39.734375 205.308594 L 39.78125 205.089844 L 39.820312 204.863281 L 39.847656 204.632812 L 39.863281 204.398438 L 39.867188 204.15625 L 39.855469 203.792969 L 39.824219 203.449219 L 39.773438 203.117188 L 39.703125 202.804688 L 39.609375 202.507812 L 39.496094 202.222656 L 39.363281 201.957031 L 39.207031 201.707031 L 39.03125 201.472656 L 38.835938 201.253906 L 38.625 201.050781 L 38.402344 200.871094 L 38.167969 200.714844 L 37.917969 200.578125 L 37.652344 200.460938 L 37.375 200.363281 L 37.082031 200.292969 L 36.777344 200.238281 L 36.457031 200.207031 L 36.125 200.195312 L 35.949219 200.199219 L 35.777344 200.207031 L 35.613281 200.222656 L 35.449219 200.242188 L 35.296875 200.269531 L 35.144531 200.300781 L 34.996094 200.335938 L 34.855469 200.378906 L 34.71875 200.429688 L 34.585938 200.484375 L 34.460938 200.539062 L 34.335938 200.597656 L 34.207031 200.660156 L 34.078125 200.730469 L 33.945312 200.800781 L 33.8125 200.878906 L 33.679688 200.960938 L 33.542969 201.042969 L 33.40625 201.132812 L 33.265625 201.226562 L 32.523438 200.773438 L 33.074219 193.597656 L 40.15625 193.597656 L 40.15625 194.53125 L 34.035156 194.53125 L 33.554688 200.078125 L 33.675781 200.003906 L 33.796875 199.9375 L 33.917969 199.875 L 34.042969 199.8125 L 34.292969 199.695312 L 34.417969 199.644531 L 34.675781 199.542969 L 34.804688 199.5 L 34.933594 199.453125 L 35.070312 199.414062 L 35.210938 199.378906 L 35.351562 199.347656 L 35.5 199.320312 L 35.648438 199.296875 L 35.804688 199.28125 L 35.960938 199.269531 L 36.125 199.261719 L 36.292969 199.261719 L 36.546875 199.265625 L 36.800781 199.28125 L 37.046875 199.308594 L 37.289062 199.34375 L 37.527344 199.390625 L 37.761719 199.449219 L 37.988281 199.519531 L 38.210938 199.597656 L 38.429688 199.6875 L 38.644531 199.789062 L 38.855469 199.894531 L 39.058594 200.011719 L 39.25 200.140625 L 39.433594 200.285156 L 39.609375 200.4375 L 39.773438 200.601562 L 39.933594 200.777344 L 40.078125 200.964844 L 40.21875 201.160156 L 40.347656 201.371094 L 40.464844 201.589844 L 40.570312 201.820312 L 40.664062 202.0625 L 40.746094 202.316406 L 40.816406 202.585938 L 40.871094 202.863281 L 40.914062 203.15625 L 40.945312 203.460938 L 40.964844 203.777344 L 40.972656 204.109375 L 40.964844 204.429688 L 40.941406 204.742188 L 40.90625 205.042969 L 40.855469 205.335938 L 40.792969 205.621094 L 40.710938 205.894531 L 40.617188 206.15625 L 40.511719 206.414062 L 40.386719 206.65625 L 40.25 206.890625 L 40.109375 207.113281 L 39.957031 207.324219 L 39.792969 207.523438 L 39.625 207.710938 L 39.445312 207.886719 L 39.261719 208.054688 L 39.066406 208.210938 L 38.859375 208.359375 L 38.648438 208.496094 L 38.425781 208.621094 L 38.203125 208.734375 L 37.980469 208.835938 L 37.75 208.925781 L 37.519531 209.003906 L 37.289062 209.070312 L 37.050781 209.125 L 36.8125 209.167969 L 36.570312 209.195312 L 36.324219 209.214844 Z M 36.074219 209.21875 "/>
<path fill-rule="nonzero" fill="rgb(10.196078%, 10.196078%, 10.196078%)" fill-opacity="1" d="M 36.363281 150.136719 L 35.9375 150.117188 L 35.527344 150.050781 L 35.140625 149.949219 L 34.773438 149.800781 L 34.425781 149.613281 L 34.097656 149.382812 L 33.789062 149.113281 L 33.5 148.800781 L 33.230469 148.445312 L 32.980469 148.046875 L 32.75 147.613281 L 32.546875 147.144531 L 32.367188 146.636719 L 32.210938 146.097656 L 32.078125 145.523438 L 31.972656 144.910156 L 31.886719 144.265625 L 31.828125 143.585938 L 31.792969 142.871094 L 31.777344 142.121094 L 31.792969 141.375 L 31.828125 140.664062 L 31.886719 139.992188 L 31.972656 139.351562 L 32.078125 138.75 L 32.210938 138.179688 L 32.367188 137.648438 L 32.546875 137.152344 L 32.75 136.691406 L 32.980469 136.265625 L 33.230469 135.875 L 33.5 135.53125 L 33.789062 135.222656 L 34.097656 134.957031 L 34.425781 134.734375 L 34.773438 134.550781 L 35.140625 134.40625 L 35.527344 134.304688 L 35.9375 134.246094 L 36.363281 134.222656 L 36.792969 134.246094 L 37.207031 134.304688 L 37.59375 134.40625 L 37.964844 134.550781 L 38.3125 134.734375 L 38.640625 134.957031 L 38.949219 135.222656 L 39.234375 135.53125 L 39.5 135.875 L 39.746094 136.265625 L 39.976562 136.691406 L 40.179688 137.152344 L 40.359375 137.648438 L 40.515625 138.179688 L 40.648438 138.75 L 40.753906 139.351562 L 40.839844 139.992188 L 40.898438 140.664062 L 40.933594 141.375 L 40.945312 142.121094 L 40.933594 142.871094 L 40.898438 143.585938 L 40.839844 144.265625 L 40.753906 144.910156 L 40.648438 145.523438 L 40.515625 146.097656 L 40.359375 146.636719 L 40.179688 147.144531 L 39.976562 147.613281 L 39.746094 148.046875 L 39.5 148.445312 L 39.234375 148.800781 L 38.949219 149.113281 L 38.640625 149.382812 L 38.3125 149.613281 L 37.964844 149.800781 L 37.59375 149.949219 L 37.207031 150.050781 L 36.792969 150.117188 Z M 36.363281 149.222656 L 36.679688 149.207031 L 36.980469 149.152344 L 37.265625 149.0625 L 37.542969 148.9375 L 37.804688 148.773438 L 38.050781 148.578125 L 38.285156 148.34375 L 38.507812 148.070312 L 38.714844 147.765625 L 38.90625 147.425781 L 39.089844 147.046875 L 39.253906 146.636719 L 39.398438 146.191406 L 39.523438 145.710938 L 39.628906 145.199219 L 39.714844 144.652344 L 39.78125 144.070312 L 39.828125 143.453125 L 39.859375 142.804688 L 39.867188 142.121094 L 39.859375 141.4375 L 39.828125 140.789062 L 39.78125 140.175781 L 39.714844 139.601562 L 39.628906 139.058594 L 39.523438 138.554688 L 39.398438 138.085938 L 39.253906 137.652344 L 39.089844 137.25 L 38.90625 136.886719 L 38.714844 136.554688 L 38.507812 136.257812 L 38.285156 135.996094 L 38.050781 135.765625 L 37.804688 135.574219 L 37.542969 135.417969 L 37.265625 135.292969 L 36.980469 135.207031 L 36.679688 135.152344 L 36.363281 135.136719 L 36.050781 135.152344 L 35.753906 135.207031 L 35.46875 135.292969 L 35.195312 135.417969 L 34.933594 135.574219 L 34.6875 135.765625 L 34.453125 135.996094 L 34.226562 136.257812 L 34.015625 136.554688 L 33.820312 136.886719 L 33.636719 137.25 L 33.472656 137.652344 L 33.328125 138.085938 L 33.203125 138.554688 L 33.097656 139.058594 L 33.011719 139.601562 L 32.945312 140.175781 L 32.898438 140.789062 L 32.867188 141.4375 L 32.859375 142.121094 L 32.867188 142.804688 L 32.898438 143.453125 L 32.945312 144.070312 L 33.011719 144.652344 L 33.097656 145.199219 L 33.203125 145.710938 L 33.328125 146.191406 L 33.472656 146.636719 L 33.636719 147.046875 L 33.820312 147.425781 L 34.015625 147.765625 L 34.226562 148.070312 L 34.453125 148.34375 L 34.6875 148.578125 L 34.933594 148.773438 L 35.195312 148.9375 L 35.46875 149.0625 L 35.753906 149.152344 L 36.050781 149.207031 Z M 36.363281 149.222656 "/>
<path fill-rule="nonzero" fill="rgb(10.196078%, 10.196078%, 10.196078%)" fill-opacity="1" d="M 36.074219 91.050781 L 35.832031 91.050781 L 35.597656 91.039062 L 35.367188 91.023438 L 35.144531 91.003906 L 34.929688 90.972656 L 34.71875 90.941406 L 34.515625 90.898438 L 34.316406 90.851562 L 34.125 90.800781 L 33.9375 90.738281 L 33.765625 90.675781 L 33.59375 90.609375 L 33.429688 90.539062 L 33.265625 90.464844 L 33.109375 90.386719 L 32.8125 90.222656 L 32.671875 90.132812 L 32.535156 90.042969 L 32.402344 89.949219 L 32.273438 89.851562 L 32.148438 89.757812 L 31.90625 89.5625 L 31.792969 89.46875 L 31.675781 89.371094 L 31.566406 89.277344 L 31.457031 89.179688 L 31.351562 89.085938 L 31.25 88.988281 L 31.851562 88.242188 L 31.992188 88.382812 L 32.140625 88.519531 L 32.292969 88.652344 L 32.449219 88.785156 L 32.613281 88.917969 L 32.78125 89.042969 L 32.953125 89.171875 L 33.132812 89.296875 L 33.316406 89.417969 L 33.507812 89.539062 L 33.710938 89.648438 L 33.921875 89.746094 L 34.148438 89.832031 L 34.386719 89.910156 L 34.636719 89.972656 L 34.894531 90.023438 L 35.167969 90.0625 L 35.449219 90.09375 L 35.746094 90.109375 L 36.050781 90.117188 L 36.257812 90.109375 L 36.457031 90.097656 L 36.65625 90.070312 L 36.851562 90.035156 L 37.042969 89.988281 L 37.230469 89.933594 L 37.414062 89.867188 L 37.59375 89.792969 L 37.773438 89.707031 L 37.945312 89.613281 L 38.117188 89.503906 L 38.28125 89.382812 L 38.433594 89.257812 L 38.585938 89.125 L 38.726562 88.980469 L 38.863281 88.832031 L 38.992188 88.671875 L 39.113281 88.507812 L 39.230469 88.332031 L 39.339844 88.148438 L 39.441406 87.957031 L 39.527344 87.761719 L 39.609375 87.5625 L 39.675781 87.351562 L 39.734375 87.140625 L 39.78125 86.921875 L 39.820312 86.695312 L 39.847656 86.464844 L 39.863281 86.230469 L 39.867188 85.988281 L 39.855469 85.625 L 39.824219 85.28125 L 39.773438 84.949219 L 39.703125 84.636719 L 39.609375 84.339844 L 39.496094 84.054688 L 39.363281 83.789062 L 39.207031 83.539062 L 39.03125 83.304688 L 38.835938 83.085938 L 38.625 82.882812 L 38.402344 82.703125 L 38.167969 82.546875 L 37.917969 82.410156 L 37.652344 82.292969 L 37.375 82.195312 L 37.082031 82.125 L 36.777344 82.070312 L 36.457031 82.039062 L 36.125 82.027344 L 35.949219 82.03125 L 35.777344 82.039062 L 35.613281 82.054688 L 35.449219 82.074219 L 35.296875 82.101562 L 35.144531 82.132812 L 34.996094 82.167969 L 34.855469 82.210938 L 34.71875 82.261719 L 34.585938 82.316406 L 34.460938 82.371094 L 34.335938 82.429688 L 34.207031 82.492188 L 34.078125 82.5625 L 33.945312 82.632812 L 33.8125 82.710938 L 33.679688 82.792969 L 33.542969 82.875 L 33.40625 82.964844 L 33.265625 83.058594 L 32.523438 82.605469 L 33.074219 75.429688 L 40.15625 75.429688 L 40.15625 76.363281 L 34.035156 76.363281 L 33.554688 81.90625 L 33.675781 81.835938 L 33.917969 81.703125 L 34.292969 81.527344 L 34.417969 81.476562 L 34.675781 81.375 L 34.804688 81.332031 L 34.933594 81.285156 L 35.070312 81.246094 L 35.210938 81.210938 L 35.351562 81.179688 L 35.5 81.152344 L 35.648438 81.128906 L 35.804688 81.113281 L 35.960938 81.101562 L 36.125 81.09375 L 36.292969 81.09375 L 36.546875 81.097656 L 36.800781 81.113281 L 37.046875 81.140625 L 37.289062 81.175781 L 37.527344 81.222656 L 37.761719 81.28125 L 37.988281 81.351562 L 38.210938 81.429688 L 38.429688 81.519531 L 38.644531 81.621094 L 38.855469 81.726562 L 39.058594 81.84375 L 39.25 81.972656 L 39.433594 82.117188 L 39.609375 82.269531 L 39.773438 82.433594 L 39.933594 82.609375 L 40.078125 82.796875 L 40.21875 82.992188 L 40.347656 83.203125 L 40.464844 83.421875 L 40.570312 83.652344 L 40.664062 83.894531 L 40.746094 84.148438 L 40.816406 84.417969 L 40.871094 84.695312 L 40.914062 84.988281 L 40.945312 85.292969 L 40.964844 85.609375 L 40.972656 85.941406 L 40.964844 86.261719 L 40.941406 86.574219 L 40.90625 86.875 L 40.855469 87.167969 L 40.792969 87.453125 L 40.710938 87.726562 L 40.617188 87.988281 L 40.511719 88.242188 L 40.386719 88.488281 L 40.25 88.722656 L 40.109375 88.945312 L 39.957031 89.152344 L 39.792969 89.351562 L 39.625 89.542969 L 39.445312 89.71875 L 39.261719 89.886719 L 39.066406 90.042969 L 38.859375 90.191406 L 38.648438 90.328125 L 38.425781 90.453125 L 38.203125 90.566406 L 37.980469 90.667969 L 37.75 90.757812 L 37.519531 90.835938 L 37.289062 90.902344 L 37.050781 90.957031 L 36.8125 91 L 36.570312 91.027344 L 36.324219 91.046875 Z M 36.074219 91.050781 "/>
<path fill-rule="nonzero" fill="rgb(10.196078%, 10.196078%, 10.196078%)" fill-opacity="1" d="M 21.148438 31.679688 L 21.148438 30.742188 L 24.746094 30.742188 L 24.746094 18.023438 L 22.011719 18.023438 L 22.011719 17.304688 L 22.378906 17.234375 L 22.730469 17.15625 L 23.066406 17.078125 L 23.226562 17.035156 L 23.386719 16.988281 L 23.691406 16.894531 L 23.835938 16.847656 L 23.980469 16.796875 L 24.117188 16.746094 L 24.382812 16.636719 L 24.507812 16.582031 L 24.742188 16.464844 L 24.855469 16.40625 L 24.964844 16.34375 L 25.828125 16.34375 L 25.828125 30.742188 L 29.164062 30.742188 L 29.164062 31.679688 Z M 21.148438 31.679688 "/>
<path fill-rule="nonzero" fill="rgb(10.196078%, 10.196078%, 10.196078%)" fill-opacity="1" d="M 36.363281 31.96875 L 35.9375 31.945312 L 35.527344 31.882812 L 35.140625 31.78125 L 34.773438 31.632812 L 34.425781 31.445312 L 34.097656 31.214844 L 33.789062 30.945312 L 33.5 30.632812 L 33.230469 30.277344 L 32.980469 29.878906 L 32.75 29.445312 L 32.546875 28.976562 L 32.367188 28.46875 L 32.210938 27.929688 L 32.078125 27.355469 L 31.972656 26.742188 L 31.886719 26.097656 L 31.828125 25.417969 L 31.792969 24.703125 L 31.777344 23.953125 L 31.792969 23.207031 L 31.828125 22.496094 L 31.886719 21.820312 L 31.972656 21.183594 L 32.078125 20.578125 L 32.210938 20.011719 L 32.367188 19.480469 L 32.546875 18.984375 L 32.75 18.523438 L 32.980469 18.097656 L 33.230469 17.707031 L 33.5 17.363281 L 33.789062 17.054688 L 34.097656 16.789062 L 34.425781 16.566406 L 34.773438 16.382812 L 35.140625 16.238281 L 35.527344 16.136719 L 35.9375 16.078125 L 36.363281 16.054688 L 36.792969 16.078125 L 37.207031 16.136719 L 37.59375 16.238281 L 37.964844 16.382812 L 38.3125 16.566406 L 38.640625 16.789062 L 38.949219 17.054688 L 39.234375 17.363281 L 39.5 17.707031 L 39.746094 18.097656 L 39.976562 18.523438 L 40.179688 18.984375 L 40.359375 19.480469 L 40.515625 20.011719 L 40.648438 20.578125 L 40.753906 21.183594 L 40.839844 21.820312 L 40.898438 22.496094 L 40.933594 23.207031 L 40.945312 23.953125 L 40.933594 24.703125 L 40.898438 25.417969 L 40.839844 26.097656 L 40.753906 26.742188 L 40.648438 27.355469 L 40.515625 27.929688 L 40.359375 28.46875 L 40.179688 28.976562 L 39.976562 29.445312 L 39.746094 29.878906 L 39.5 30.277344 L 39.234375 30.632812 L 38.949219 30.945312 L 38.640625 31.214844 L 38.3125 31.445312 L 37.964844 31.632812 L 37.59375 31.78125 L 37.207031 31.882812 L 36.792969 31.945312 Z M 36.363281 31.054688 L 36.679688 31.039062 L 36.980469 30.984375 L 37.265625 30.894531 L 37.542969 30.769531 L 37.804688 30.605469 L 38.050781 30.40625 L 38.285156 30.175781 L 38.507812 29.902344 L 38.714844 29.597656 L 38.90625 29.257812 L 39.089844 28.878906 L 39.253906 28.46875 L 39.398438 28.023438 L 39.523438 27.542969 L 39.628906 27.03125 L 39.714844 26.484375 L 39.78125 25.902344 L 39.828125 25.285156 L 39.859375 24.636719 L 39.867188 23.953125 L 39.859375 23.269531 L 39.828125 22.621094 L 39.78125 22.007812 L 39.714844 21.433594 L 39.628906 20.890625 L 39.523438 20.386719 L 39.398438 19.917969 L 39.253906 19.480469 L 39.089844 19.082031 L 38.90625 18.71875 L 38.714844 18.386719 L 38.507812 18.089844 L 38.285156 17.828125 L 38.050781 17.597656 L 37.804688 17.40625 L 37.542969 17.25 L 37.265625 17.125 L 36.980469 17.039062 L 36.679688 16.984375 L 36.363281 16.96875 L 36.050781 16.984375 L 35.753906 17.039062 L 35.46875 17.125 L 35.195312 17.25 L 34.933594 17.40625 L 34.6875 17.597656 L 34.453125 17.828125 L 34.226562 18.089844 L 34.015625 18.386719 L 33.820312 18.71875 L 33.636719 19.082031 L 33.472656 19.480469 L 33.328125 19.917969 L 33.203125 20.386719 L 33.097656 20.890625 L 33.011719 21.433594 L 32.945312 22.007812 L 32.898438 22.621094 L 32.867188 23.269531 L 32.859375 23.953125 L 32.867188 24.636719 L 32.898438 25.285156 L 32.945312 25.902344 L 33.011719 26.484375 L 33.097656 27.03125 L 33.203125 27.542969 L 33.328125 28.023438 L 33.472656 28.46875 L 33.636719 28.878906 L 33.820312 29.257812 L 34.015625 29.597656 L 34.226562 29.902344 L 34.453125 30.175781 L 34.6875 30.40625 L 34.933594 30.605469 L 35.195312 30.769531 L 35.46875 30.894531 L 35.753906 30.984375 L 36.050781 31.039062 Z M 36.363281 31.054688 "/>
<path fill-rule="nonzero" fill="rgb(10.196078%, 10.196078%, 10.196078%)" fill-opacity="1" d="M 135.167969 298.789062 L 134.738281 298.769531 L 134.332031 298.707031 L 133.945312 298.601562 L 133.578125 298.453125 L 133.230469 298.265625 L 132.902344 298.039062 L 132.589844 297.765625 L 132.300781 297.453125 L 132.03125 297.097656 L 131.78125 296.699219 L 131.554688 296.265625 L 131.351562 295.796875 L 131.171875 295.289062 L 131.015625 294.75 L 130.882812 294.175781 L 130.773438 293.566406 L 130.691406 292.917969 L 130.632812 292.238281 L 130.59375 291.523438 L 130.582031 290.773438 L 130.59375 290.027344 L 130.632812 289.316406 L 130.691406 288.644531 L 130.773438 288.003906 L 130.882812 287.402344 L 131.015625 286.832031 L 131.171875 286.300781 L 131.351562 285.804688 L 131.554688 285.34375 L 131.78125 284.917969 L 132.03125 284.527344 L 132.300781 284.183594 L 132.589844 283.875 L 132.902344 283.609375 L 133.230469 283.386719 L 133.578125 283.203125 L 133.945312 283.058594 L 134.332031 282.957031 L 134.738281 282.898438 L 135.167969 282.875 L 135.597656 282.898438 L 136.007812 282.957031 L 136.398438 283.058594 L 136.769531 283.203125 L 137.117188 283.386719 L 137.445312 283.609375 L 137.753906 283.875 L 138.039062 284.183594 L 138.304688 284.527344 L 138.550781 284.917969 L 138.777344 285.34375 L 138.984375 285.804688 L 139.164062 286.300781 L 139.320312 286.832031 L 139.449219 287.402344 L 139.558594 288.003906 L 139.644531 288.644531 L 139.703125 289.316406 L 139.738281 290.027344 L 139.75 290.773438 L 139.738281 291.523438 L 139.703125 292.238281 L 139.644531 292.917969 L 139.558594 293.566406 L 139.449219 294.175781 L 139.320312 294.75 L 139.164062 295.289062 L 138.984375 295.796875 L 138.777344 296.265625 L 138.550781 296.699219 L 138.304688 297.097656 L 138.039062 297.453125 L 137.753906 297.765625 L 137.445312 298.039062 L 137.117188 298.265625 L 136.769531 298.453125 L 136.398438 298.601562 L 136.007812 298.707031 L 135.597656 298.769531 Z M 135.167969 297.875 L 135.480469 297.859375 L 135.785156 297.804688 L 136.070312 297.714844 L 136.347656 297.589844 L 136.605469 297.425781 L 136.855469 297.230469 L 137.089844 296.996094 L 137.308594 296.726562 L 137.515625 296.417969 L 137.710938 296.078125 L 137.894531 295.699219 L 138.058594 295.289062 L 138.199219 294.84375 L 138.324219 294.363281 L 138.429688 293.851562 L 138.515625 293.304688 L 138.585938 292.722656 L 138.632812 292.105469 L 138.660156 291.457031 L 138.671875 290.773438 L 138.660156 290.089844 L 138.632812 289.441406 L 138.585938 288.832031 L 138.515625 288.253906 L 138.429688 287.710938 L 138.324219 287.207031 L 138.199219 286.738281 L 138.058594 286.304688 L 137.894531 285.902344 L 137.710938 285.539062 L 137.515625 285.207031 L 137.308594 284.910156 L 137.089844 284.648438 L 136.855469 284.417969 L 136.605469 284.226562 L 136.347656 284.070312 L 136.070312 283.945312 L 135.785156 283.859375 L 135.480469 283.804688 L 135.167969 283.789062 L 134.855469 283.804688 L 134.558594 283.859375 L 134.273438 283.945312 L 134 284.070312 L 133.738281 284.226562 L 133.492188 284.417969 L 133.253906 284.648438 L 133.03125 284.910156 L 132.820312 285.207031 L 132.625 285.539062 L 132.441406 285.902344 L 132.277344 286.304688 L 132.132812 286.738281 L 132.007812 287.207031 L 131.902344 287.710938 L 131.816406 288.253906 L 131.75 288.832031 L 131.703125 289.441406 L 131.671875 290.089844 L 131.664062 290.773438 L 131.671875 291.457031 L 131.703125 292.105469 L 131.75 292.722656 L 131.816406 293.304688 L 131.902344 293.851562 L 132.007812 294.363281 L 132.132812 294.84375 L 132.277344 295.289062 L 132.441406 295.699219 L 132.625 296.078125 L 132.820312 296.417969 L 133.03125 296.726562 L 133.253906 296.996094 L 133.492188 297.230469 L 133.738281 297.425781 L 134 297.589844 L 134.273438 297.714844 L 134.558594 297.804688 L 134.855469 297.859375 Z M 135.167969 297.875 "/>
<path fill-rule="nonzero" fill="rgb(10.196078%, 10.196078%, 10.196078%)" fill-opacity="1" d="M 348.015625 298.5 L 348.015625 297.566406 L 351.617188 297.566406 L 351.617188 284.84375 L 348.878906 284.84375 L 348.878906 284.125 L 349.066406 284.089844 L 349.246094 284.054688 L 349.425781 284.015625 L 349.597656 283.980469 L 349.769531 283.9375 L 349.933594 283.898438 L 350.097656 283.855469 L 350.253906 283.808594 L 350.410156 283.765625 L 350.558594 283.71875 L 350.707031 283.667969 L 350.988281 283.566406 L 351.121094 283.511719 L 351.25 283.457031 L 351.375 283.402344 L 351.496094 283.34375 L 351.613281 283.285156 L 351.726562 283.226562 L 351.832031 283.164062 L 352.695312 283.164062 L 352.695312 297.566406 L 356.03125 297.566406 L 356.03125 298.5 Z M 348.015625 298.5 "/>
</svg>
