<?xml version="1.0" encoding="UTF-8"?>
<svg xmlns="http://www.w3.org/2000/svg" xmlns:xlink="http://www.w3.org/1999/xlink" width="648" height="446" viewBox="0 0 648 446">
<defs>
<clipPath id="clip-0">
<path clip-rule="nonzero" d="M 63.714844 13.449219 L 634.550781 13.449219 L 634.550781 395.070312 L 63.714844 395.070312 Z M 63.714844 13.449219 "/>
</clipPath>
<clipPath id="clip-1">
<path clip-rule="nonzero" d="M 348 13.449219 L 350 13.449219 L 350 395.070312 L 348 395.070312 Z M 348 13.449219 "/>
</clipPath>
</defs>
<rect x="-64.8" y="-44.6" width="777.6" height="535.2" fill="rgb(100%, 100%, 100%)" fill-opacity="1"/>
<rect x="-64.8" y="-44.6" width="777.6" height="535.2" fill="rgb(95.294118%, 95.294118%, 95.294118%)" fill-opacity="1"/>
<path fill="none" stroke-width="2.618947" stroke-linecap="round" stroke-linejoin="round" stroke="rgb(95.294118%, 95.294118%, 95.294118%)" stroke-opacity="1" stroke-miterlimit="10" d="M 0 446 L 648 446 L 648 0 L 0 0 Z M 0 446 "/>
<g clip-path="url(#clip-0)">
<path fill-rule="nonzero" fill="rgb(95.294118%, 95.294118%, 95.294118%)" fill-opacity="1" stroke-width="2.618947" stroke-linecap="round" stroke-linejoin="round" stroke="rgb(95.294118%, 95.294118%, 95.294118%)" stroke-opacity="1" stroke-miterlimit="10" d="M 63.714844 395.070312 L 634.550781 395.070312 L 634.550781 13.449219 L 63.714844 13.449219 Z M 63.714844 395.070312 "/>
</g>
<path fill="none" stroke-width="3.200935" stroke-linecap="butt" stroke-linejoin="round" stroke="rgb(56.078431%, 16.470588%, 26.27451%)" stroke-opacity="1" stroke-miterlimit="10" d="M 109.46875 160.40625 L 115.769531 160.234375 L 122.070312 160.050781 L 128.375 159.855469 L 134.675781 159.648438 L 140.980469 159.429688 L 147.28125 159.195312 L 153.582031 158.949219 L 159.886719 158.691406 L 166.1875 158.421875 L 172.492188 158.140625 L 178.792969 157.84375 L 185.097656 157.539062 L 191.398438 157.21875 L 197.699219 156.886719 L 204.003906 156.542969 L 210.304688 156.1875 L 216.609375 155.820312 L 222.910156 155.4375 L 229.210938 155.046875 L 235.515625 154.640625 L 241.816406 154.222656 L 248.121094 153.792969 L 254.421875 153.351562 L 260.726562 152.894531 L 267.027344 152.429688 L 273.328125 151.949219 L 279.632812 151.457031 L 285.933594 150.953125 L 292.238281 150.4375 L 298.539062 149.910156 L 304.839844 149.367188 L 311.144531 148.8125 L 317.445312 148.25 L 323.75 147.671875 L 330.050781 147.082031 L 336.355469 146.476562 L 342.65625 145.863281 L 348.957031 145.234375 L 355.261719 144.597656 L 361.5625 143.945312 L 367.867188 143.28125 L 374.167969 142.601562 L 380.46875 141.914062 L 386.773438 141.214844 L 393.074219 140.5 L 399.378906 139.773438 L 405.679688 139.035156 L 411.984375 138.285156 L 418.285156 137.523438 L 424.585938 136.746094 L 430.890625 135.960938 L 437.191406 135.160156 L 443.496094 134.347656 L 449.796875 133.523438 L 456.101562 132.6875 L 462.402344 131.835938 L 468.703125 130.976562 L 475.007812 130.101562 L 481.308594 129.214844 L 487.613281 128.316406 L 493.914062 127.40625 L 500.214844 126.484375 L 506.519531 125.546875 L 512.820312 124.601562 L 519.125 123.640625 L 525.425781 122.667969 L 531.730469 121.683594 L 538.03125 120.6875 L 544.332031 119.675781 L 550.636719 118.65625 L 556.9375 117.621094 L 563.242188 116.574219 L 569.542969 115.515625 L 575.84375 114.445312 L 582.148438 113.363281 L 588.449219 112.265625 L 594.753906 111.160156 L 601.054688 110.039062 L 607.359375 108.90625 "/>
<g clip-path="url(#clip-1)">
<path fill="none" stroke-width="1.066978" stroke-linecap="butt" stroke-linejoin="round" stroke="rgb(0%, 0%, 0%)" stroke-opacity="1" stroke-dasharray="4.267913 4.267913" stroke-miterlimit="10" d="M 349.132812 395.070312 L 349.132812 13.449219 "/>
</g>
<path fill="none" stroke-width="1.066978" stroke-linecap="butt" stroke-linejoin="round" stroke="rgb(0%, 0%, 0%)" stroke-opacity="1" stroke-miterlimit="10" d="M 63.714844 395.070312 L 634.550781 395.070312 "/>
<path fill-rule="nonzero" fill="rgb(0%, 0%, 0%)" fill-opacity="1" d="M 308.539062 426.636719 L 308.152344 426.628906 L 307.777344 426.605469 L 307.410156 426.570312 L 307.050781 426.515625 L 306.703125 426.449219 L 306.359375 426.367188 L 306.027344 426.265625 L 305.703125 426.152344 L 305.386719 426.023438 L 305.082031 425.882812 L 304.785156 425.726562 L 304.496094 425.5625 L 304.214844 425.390625 L 303.945312 425.210938 L 303.683594 425.023438 L 303.433594 424.828125 L 303.191406 424.625 L 302.957031 424.414062 L 302.730469 424.191406 L 302.515625 423.964844 L 303.328125 423.101562 L 303.523438 423.3125 L 303.730469 423.515625 L 303.945312 423.710938 L 304.164062 423.898438 L 304.394531 424.078125 L 304.628906 424.25 L 304.871094 424.414062 L 305.125 424.570312 L 305.382812 424.714844 L 305.648438 424.855469 L 305.921875 424.980469 L 306.195312 425.089844 L 306.476562 425.1875 L 306.757812 425.269531 L 307.046875 425.339844 L 307.335938 425.398438 L 307.632812 425.445312 L 307.929688 425.476562 L 308.230469 425.496094 L 308.539062 425.503906 L 308.9375 425.492188 L 309.324219 425.464844 L 309.691406 425.414062 L 310.039062 425.34375 L 310.375 425.253906 L 310.6875 425.144531 L 310.988281 425.015625 L 311.269531 424.863281 L 311.53125 424.695312 L 311.777344 424.503906 L 312.003906 424.300781 L 312.207031 424.082031 L 312.382812 423.855469 L 312.539062 423.613281 L 312.667969 423.363281 L 312.777344 423.101562 L 312.859375 422.828125 L 312.917969 422.542969 L 312.953125 422.246094 L 312.964844 421.9375 L 312.960938 421.722656 L 312.949219 421.515625 L 312.925781 421.3125 L 312.894531 421.121094 L 312.859375 420.941406 L 312.808594 420.765625 L 312.753906 420.601562 L 312.6875 420.445312 L 312.617188 420.296875 L 312.535156 420.15625 L 312.445312 420.023438 L 312.347656 419.898438 L 312.246094 419.773438 L 312.140625 419.65625 L 312.027344 419.542969 L 311.910156 419.433594 L 311.78125 419.332031 L 311.652344 419.234375 L 311.515625 419.140625 L 311.371094 419.050781 L 311.230469 418.960938 L 311.085938 418.871094 L 310.933594 418.78125 L 310.78125 418.695312 L 310.625 418.613281 L 310.460938 418.527344 L 310.296875 418.449219 L 310.128906 418.367188 L 309.957031 418.289062 L 309.78125 418.214844 L 307.078125 417 L 306.773438 416.851562 L 306.617188 416.773438 L 306.457031 416.691406 L 306.296875 416.605469 L 306.132812 416.519531 L 305.96875 416.425781 L 305.800781 416.332031 L 305.632812 416.234375 L 305.460938 416.132812 L 305.292969 416.023438 L 305.132812 415.90625 L 304.980469 415.785156 L 304.828125 415.65625 L 304.683594 415.519531 L 304.542969 415.378906 L 304.40625 415.234375 L 304.277344 415.082031 L 304.148438 414.921875 L 304.027344 414.757812 L 303.921875 414.578125 L 303.824219 414.394531 L 303.738281 414.199219 L 303.664062 413.992188 L 303.601562 413.777344 L 303.550781 413.554688 L 303.511719 413.324219 L 303.484375 413.082031 L 303.46875 412.832031 L 303.460938 412.570312 L 303.46875 412.316406 L 303.488281 412.066406 L 303.523438 411.820312 L 303.570312 411.585938 L 303.628906 411.355469 L 303.703125 411.132812 L 303.792969 410.914062 L 303.894531 410.703125 L 304.007812 410.5 L 304.136719 410.300781 L 304.277344 410.105469 L 304.425781 409.921875 L 304.585938 409.746094 L 304.753906 409.578125 L 304.933594 409.417969 L 305.121094 409.269531 L 305.320312 409.128906 L 305.527344 408.996094 L 305.746094 408.875 L 305.972656 408.761719 L 306.214844 408.65625 L 306.460938 408.558594 L 306.710938 408.472656 L 306.96875 408.402344 L 307.234375 408.339844 L 307.503906 408.289062 L 307.78125 408.246094 L 308.0625 408.21875 L 308.351562 408.203125 L 308.644531 408.195312 L 308.960938 408.203125 L 309.269531 408.222656 L 309.570312 408.253906 L 309.867188 408.300781 L 310.15625 408.359375 L 310.441406 408.429688 L 310.71875 408.515625 L 310.988281 408.609375 L 311.25 408.722656 L 311.507812 408.84375 L 311.757812 408.972656 L 311.996094 409.101562 L 312.226562 409.238281 L 312.449219 409.378906 L 312.660156 409.527344 L 312.863281 409.675781 L 313.058594 409.832031 L 313.246094 409.992188 L 313.421875 410.160156 L 313.585938 410.328125 L 312.882812 411.140625 L 312.726562 410.980469 L 312.558594 410.828125 L 312.390625 410.683594 L 312.214844 410.542969 L 312.035156 410.410156 L 311.847656 410.285156 L 311.65625 410.164062 L 311.457031 410.050781 L 311.257812 409.945312 L 311.046875 409.84375 L 310.835938 409.746094 L 310.617188 409.660156 L 310.390625 409.582031 L 310.160156 409.515625 L 309.921875 409.457031 L 309.679688 409.414062 L 309.429688 409.375 L 309.171875 409.351562 L 308.914062 409.335938 L 308.644531 409.332031 L 308.300781 409.339844 L 307.96875 409.363281 L 307.652344 409.40625 L 307.34375 409.46875 L 307.050781 409.546875 L 306.773438 409.640625 L 306.507812 409.753906 L 306.253906 409.882812 L 306.011719 410.03125 L 305.785156 410.195312 L 305.578125 410.375 L 305.394531 410.5625 L 305.234375 410.765625 L 305.09375 410.980469 L 304.972656 411.207031 L 304.875 411.445312 L 304.800781 411.695312 L 304.746094 411.957031 L 304.714844 412.230469 L 304.703125 412.515625 L 304.707031 412.71875 L 304.722656 412.910156 L 304.746094 413.097656 L 304.78125 413.277344 L 304.824219 413.449219 L 304.878906 413.613281 L 304.941406 413.769531 L 305.015625 413.917969 L 305.097656 414.058594 L 305.191406 414.191406 L 305.292969 414.316406 L 305.402344 414.441406 L 305.515625 414.558594 L 305.628906 414.671875 L 305.75 414.777344 L 306 414.980469 L 306.265625 415.160156 L 306.40625 415.242188 L 306.550781 415.324219 L 306.691406 415.402344 L 306.835938 415.476562 L 306.976562 415.550781 L 307.25 415.691406 L 307.386719 415.757812 L 307.519531 415.824219 L 307.652344 415.886719 L 307.78125 415.945312 L 310.480469 417.132812 L 310.679688 417.222656 L 310.875 417.3125 L 311.066406 417.40625 L 311.253906 417.503906 L 311.441406 417.605469 L 311.800781 417.816406 L 311.976562 417.929688 L 312.148438 418.042969 L 312.316406 418.160156 L 312.488281 418.277344 L 312.648438 418.398438 L 312.804688 418.527344 L 312.953125 418.664062 L 313.09375 418.808594 L 313.226562 418.957031 L 313.355469 419.113281 L 313.476562 419.273438 L 313.589844 419.441406 L 313.695312 419.617188 L 313.796875 419.796875 L 313.890625 419.984375 L 313.96875 420.183594 L 314.039062 420.390625 L 314.097656 420.609375 L 314.148438 420.839844 L 314.1875 421.078125 L 314.214844 421.328125 L 314.230469 421.589844 L 314.234375 421.859375 L 314.226562 422.125 L 314.207031 422.390625 L 314.171875 422.648438 L 314.121094 422.898438 L 314.058594 423.148438 L 313.980469 423.390625 L 313.890625 423.628906 L 313.785156 423.863281 L 313.664062 424.089844 L 313.53125 424.316406 L 313.386719 424.527344 L 313.226562 424.730469 L 313.058594 424.921875 L 312.875 425.105469 L 312.683594 425.28125 L 312.476562 425.445312 L 312.257812 425.601562 L 312.027344 425.75 L 311.789062 425.886719 L 311.535156 426.015625 L 311.277344 426.132812 L 311.007812 426.238281 L 310.730469 426.332031 L 310.445312 426.414062 L 310.152344 426.480469 L 309.847656 426.539062 L 309.53125 426.582031 L 309.210938 426.613281 L 308.878906 426.632812 Z M 308.539062 426.636719 "/>
<path fill-rule="nonzero" fill="rgb(0%, 0%, 0%)" fill-opacity="1" d="M 322.632812 426.636719 L 322.300781 426.628906 L 321.976562 426.605469 L 321.65625 426.566406 L 321.34375 426.511719 L 321.039062 426.441406 L 320.738281 426.355469 L 320.445312 426.253906 L 320.160156 426.136719 L 319.878906 426.003906 L 319.609375 425.855469 L 319.347656 425.683594 L 319.101562 425.503906 L 318.863281 425.304688 L 318.636719 425.09375 L 318.417969 424.867188 L 318.214844 424.628906 L 318.019531 424.375 L 317.835938 424.109375 L 317.664062 423.828125 L 317.5 423.53125 L 317.359375 423.21875 L 317.230469 422.894531 L 317.117188 422.554688 L 317.019531 422.207031 L 316.933594 421.84375 L 316.867188 421.472656 L 316.8125 421.085938 L 316.777344 420.691406 L 316.753906 420.28125 L 316.746094 419.859375 L 316.753906 419.429688 L 316.777344 419.011719 L 316.820312 418.609375 L 316.875 418.21875 L 316.949219 417.84375 L 317.039062 417.480469 L 317.140625 417.128906 L 317.265625 416.792969 L 317.402344 416.46875 L 317.554688 416.160156 L 317.726562 415.859375 L 317.910156 415.574219 L 318.105469 415.304688 L 318.308594 415.050781 L 318.519531 414.8125 L 318.746094 414.585938 L 318.980469 414.378906 L 319.222656 414.183594 L 319.476562 414.003906 L 319.742188 413.839844 L 320.015625 413.683594 L 320.292969 413.546875 L 320.570312 413.425781 L 320.855469 413.320312 L 321.148438 413.230469 L 321.441406 413.160156 L 321.738281 413.101562 L 322.039062 413.0625 L 322.347656 413.039062 L 322.660156 413.03125 L 322.925781 413.035156 L 323.179688 413.050781 L 323.425781 413.074219 L 323.664062 413.105469 L 323.894531 413.152344 L 324.113281 413.203125 L 324.324219 413.265625 L 324.523438 413.339844 L 324.714844 413.421875 L 324.898438 413.515625 L 325.074219 413.613281 L 325.246094 413.714844 L 325.414062 413.820312 L 325.578125 413.925781 L 325.738281 414.035156 L 326.042969 414.261719 L 326.1875 414.378906 L 326.328125 414.5 L 326.464844 414.621094 L 325.761719 415.460938 L 325.636719 415.34375 L 325.507812 415.230469 L 325.378906 415.121094 L 325.246094 415.019531 L 325.109375 414.917969 L 324.96875 414.824219 L 324.828125 414.734375 L 324.683594 414.648438 L 324.535156 414.566406 L 324.386719 414.488281 L 324.234375 414.410156 L 324.078125 414.339844 L 323.914062 414.28125 L 323.75 414.226562 L 323.582031 414.183594 L 323.410156 414.148438 L 323.234375 414.117188 L 323.054688 414.097656 L 322.871094 414.085938 L 322.683594 414.082031 L 322.421875 414.089844 L 322.167969 414.113281 L 321.914062 414.148438 L 321.664062 414.199219 L 321.421875 414.265625 L 321.183594 414.34375 L 320.953125 414.441406 L 320.722656 414.550781 L 320.5 414.671875 L 320.28125 414.8125 L 320.078125 414.964844 L 319.878906 415.125 L 319.691406 415.300781 L 319.507812 415.484375 L 319.335938 415.683594 L 319.175781 415.890625 L 319.019531 416.109375 L 318.875 416.339844 L 318.738281 416.582031 L 318.609375 416.835938 L 318.492188 417.101562 L 318.386719 417.371094 L 318.292969 417.652344 L 318.210938 417.941406 L 318.144531 418.242188 L 318.085938 418.546875 L 318.042969 418.863281 L 318.011719 419.1875 L 317.992188 419.519531 L 317.988281 419.859375 L 317.992188 420.195312 L 318.011719 420.523438 L 318.039062 420.84375 L 318.078125 421.15625 L 318.128906 421.460938 L 318.191406 421.753906 L 318.265625 422.042969 L 318.351562 422.324219 L 318.445312 422.59375 L 318.554688 422.859375 L 318.679688 423.105469 L 318.808594 423.34375 L 318.953125 423.570312 L 319.101562 423.785156 L 319.261719 423.992188 L 319.433594 424.1875 L 319.609375 424.371094 L 319.796875 424.542969 L 319.996094 424.703125 L 320.203125 424.855469 L 320.421875 424.992188 L 320.648438 425.117188 L 320.878906 425.226562 L 321.117188 425.320312 L 321.363281 425.402344 L 321.613281 425.46875 L 321.871094 425.519531 L 322.136719 425.554688 L 322.40625 425.578125 L 322.683594 425.585938 L 322.890625 425.582031 L 323.089844 425.566406 L 323.285156 425.546875 L 323.480469 425.515625 L 323.671875 425.476562 L 323.859375 425.429688 L 324.042969 425.371094 L 324.222656 425.308594 L 324.402344 425.234375 L 324.574219 425.152344 L 324.75 425.058594 L 324.921875 424.964844 L 325.089844 424.863281 L 325.253906 424.761719 L 325.414062 424.660156 L 325.566406 424.554688 L 325.71875 424.445312 L 325.863281 424.332031 L 326.003906 424.21875 L 326.140625 424.097656 L 326.761719 424.9375 L 326.59375 425.078125 L 326.421875 425.21875 L 326.242188 425.351562 L 326.0625 425.480469 L 325.878906 425.605469 L 325.691406 425.722656 L 325.5 425.839844 L 325.300781 425.949219 L 325.101562 426.050781 L 324.898438 426.152344 L 324.691406 426.242188 L 324.480469 426.328125 L 324.265625 426.398438 L 324.042969 426.460938 L 323.820312 426.515625 L 323.589844 426.558594 L 323.355469 426.59375 L 323.121094 426.617188 L 322.878906 426.632812 Z M 322.632812 426.636719 "/>
<path fill-rule="nonzero" fill="rgb(0%, 0%, 0%)" fill-opacity="1" d="M 334.671875 426.636719 L 334.367188 426.628906 L 334.066406 426.605469 L 333.769531 426.566406 L 333.476562 426.511719 L 333.1875 426.441406 L 332.90625 426.355469 L 332.625 426.253906 L 332.347656 426.136719 L 332.078125 426.003906 L 331.8125 425.855469 L 331.550781 425.683594 L 331.304688 425.503906 L 331.0625 425.304688 L 330.835938 425.09375 L 330.617188 424.867188 L 330.410156 424.628906 L 330.210938 424.375 L 330.023438 424.109375 L 329.84375 423.828125 L 329.679688 423.53125 L 329.523438 423.21875 L 329.386719 422.894531 L 329.265625 422.554688 L 329.160156 422.207031 L 329.070312 421.84375 L 329 421.472656 L 328.941406 421.085938 L 328.902344 420.691406 L 328.875 420.28125 L 328.867188 419.859375 L 328.875 419.429688 L 328.902344 419.011719 L 328.941406 418.609375 L 329 418.21875 L 329.070312 417.84375 L 329.160156 417.480469 L 329.265625 417.128906 L 329.386719 416.792969 L 329.523438 416.46875 L 329.679688 416.160156 L 329.84375 415.859375 L 330.023438 415.574219 L 330.210938 415.304688 L 330.410156 415.050781 L 330.617188 414.8125 L 330.835938 414.585938 L 331.0625 414.378906 L 331.304688 414.183594 L 331.550781 414.003906 L 331.8125 413.839844 L 332.078125 413.683594 L 332.347656 413.546875 L 332.625 413.425781 L 332.90625 413.320312 L 333.1875 413.230469 L 333.476562 413.160156 L 333.769531 413.101562 L 334.066406 413.0625 L 334.367188 413.039062 L 334.671875 413.03125 L 334.984375 413.039062 L 335.289062 413.0625 L 335.589844 413.101562 L 335.886719 413.160156 L 336.179688 413.230469 L 336.464844 413.320312 L 336.746094 413.425781 L 337.023438 413.546875 L 337.296875 413.683594 L 337.5625 413.839844 L 337.820312 414.003906 L 338.070312 414.183594 L 338.308594 414.378906 L 338.539062 414.585938 L 338.757812 414.8125 L 338.964844 415.050781 L 339.164062 415.304688 L 339.351562 415.574219 L 339.527344 415.859375 L 339.695312 416.160156 L 339.847656 416.46875 L 339.988281 416.792969 L 340.109375 417.128906 L 340.214844 417.480469 L 340.304688 417.84375 L 340.375 418.21875 L 340.433594 418.609375 L 340.472656 419.011719 L 340.496094 419.429688 L 340.503906 419.859375 L 340.496094 420.28125 L 340.472656 420.691406 L 340.433594 421.085938 L 340.375 421.472656 L 340.304688 421.84375 L 340.214844 422.207031 L 340.109375 422.554688 L 339.988281 422.894531 L 339.847656 423.21875 L 339.695312 423.53125 L 339.527344 423.828125 L 339.351562 424.109375 L 339.164062 424.375 L 338.964844 424.628906 L 338.757812 424.867188 L 338.539062 425.09375 L 338.308594 425.304688 L 338.070312 425.503906 L 337.820312 425.683594 L 337.5625 425.855469 L 337.296875 426.003906 L 337.023438 426.136719 L 336.746094 426.253906 L 336.464844 426.355469 L 336.179688 426.441406 L 335.886719 426.511719 L 335.589844 426.566406 L 335.289062 426.605469 L 334.984375 426.628906 Z M 334.671875 425.585938 L 334.933594 425.578125 L 335.191406 425.554688 L 335.441406 425.519531 L 335.683594 425.46875 L 335.921875 425.402344 L 336.152344 425.320312 L 336.378906 425.226562 L 336.601562 425.117188 L 336.8125 424.992188 L 337.023438 424.855469 L 337.222656 424.703125 L 337.414062 424.542969 L 337.597656 424.371094 L 337.773438 424.1875 L 337.941406 423.992188 L 338.097656 423.785156 L 338.246094 423.570312 L 338.386719 423.34375 L 338.519531 423.105469 L 338.640625 422.859375 L 338.761719 422.59375 L 338.867188 422.324219 L 338.960938 422.042969 L 339.039062 421.753906 L 339.109375 421.460938 L 339.164062 421.15625 L 339.207031 420.84375 L 339.238281 420.523438 L 339.257812 420.195312 L 339.261719 419.859375 L 339.257812 419.519531 L 339.238281 419.1875 L 339.207031 418.863281 L 339.164062 418.546875 L 339.109375 418.242188 L 339.039062 417.941406 L 338.960938 417.652344 L 338.867188 417.371094 L 338.761719 417.101562 L 338.640625 416.835938 L 338.519531 416.582031 L 338.386719 416.339844 L 338.246094 416.109375 L 338.097656 415.890625 L 337.941406 415.683594 L 337.773438 415.484375 L 337.597656 415.300781 L 337.414062 415.125 L 337.222656 414.964844 L 337.023438 414.8125 L 336.8125 414.671875 L 336.601562 414.550781 L 336.378906 414.441406 L 336.152344 414.34375 L 335.921875 414.265625 L 335.683594 414.199219 L 335.441406 414.148438 L 335.191406 414.113281 L 334.933594 414.089844 L 334.671875 414.082031 L 334.417969 414.089844 L 334.164062 414.113281 L 333.917969 414.148438 L 333.675781 414.199219 L 333.4375 414.265625 L 333.207031 414.34375 L 332.976562 414.441406 L 332.753906 414.550781 L 332.539062 414.671875 L 332.324219 414.8125 L 332.125 414.964844 L 331.929688 415.125 L 331.746094 415.300781 L 331.574219 415.484375 L 331.40625 415.683594 L 331.25 415.890625 L 331.101562 416.109375 L 330.960938 416.339844 L 330.828125 416.582031 L 330.703125 416.835938 L 330.589844 417.101562 L 330.492188 417.371094 L 330.402344 417.652344 L 330.324219 417.941406 L 330.257812 418.242188 L 330.207031 418.546875 L 330.164062 418.863281 L 330.132812 419.1875 L 330.117188 419.519531 L 330.109375 419.859375 L 330.117188 420.195312 L 330.132812 420.523438 L 330.164062 420.84375 L 330.207031 421.15625 L 330.257812 421.460938 L 330.324219 421.753906 L 330.402344 422.042969 L 330.492188 422.324219 L 330.589844 422.59375 L 330.703125 422.859375 L 330.828125 423.105469 L 330.960938 423.34375 L 331.101562 423.570312 L 331.25 423.785156 L 331.40625 423.992188 L 331.574219 424.1875 L 331.746094 424.371094 L 331.929688 424.542969 L 332.125 424.703125 L 332.324219 424.855469 L 332.539062 424.992188 L 332.753906 425.117188 L 332.976562 425.226562 L 333.207031 425.320312 L 333.4375 425.402344 L 333.675781 425.46875 L 333.917969 425.519531 L 334.164062 425.554688 L 334.417969 425.578125 Z M 334.671875 425.585938 "/>
<path fill-rule="nonzero" fill="rgb(0%, 0%, 0%)" fill-opacity="1" d="M 344.394531 426.3125 L 344.394531 413.351562 L 345.417969 413.351562 L 345.527344 415.757812 L 345.609375 415.757812 L 345.742188 415.523438 L 345.878906 415.296875 L 346.023438 415.082031 L 346.171875 414.875 L 346.324219 414.675781 L 346.484375 414.488281 L 346.648438 414.304688 L 346.816406 414.132812 L 346.992188 413.96875 L 347.175781 413.8125 L 347.367188 413.664062 L 347.5625 413.53125 L 347.761719 413.414062 L 347.964844 413.3125 L 348.171875 413.226562 L 348.386719 413.15625 L 348.601562 413.101562 L 348.824219 413.0625 L 349.050781 413.039062 L 349.28125 413.03125 L 349.429688 413.03125 L 349.570312 413.039062 L 349.636719 413.042969 L 349.703125 413.050781 L 349.769531 413.054688 L 349.832031 413.0625 L 349.894531 413.074219 L 349.957031 413.082031 L 350.015625 413.09375 L 350.074219 413.109375 L 350.136719 413.125 L 350.199219 413.144531 L 350.257812 413.164062 L 350.382812 413.210938 L 350.449219 413.238281 L 350.511719 413.269531 L 350.578125 413.300781 L 350.304688 414.378906 L 350.242188 414.355469 L 350.179688 414.328125 L 350.121094 414.308594 L 350.058594 414.289062 L 350.003906 414.269531 L 349.945312 414.257812 L 349.894531 414.242188 L 349.839844 414.234375 L 349.789062 414.222656 L 349.738281 414.21875 L 349.691406 414.207031 L 349.582031 414.191406 L 349.523438 414.183594 L 349.460938 414.175781 L 349.398438 414.171875 L 349.265625 414.164062 L 349.117188 414.164062 L 348.945312 414.171875 L 348.769531 414.195312 L 348.589844 414.230469 L 348.410156 414.285156 L 348.226562 414.351562 L 348.042969 414.4375 L 347.855469 414.535156 L 347.667969 414.648438 L 347.476562 414.777344 L 347.28125 414.917969 L 347.09375 415.078125 L 346.910156 415.253906 L 346.734375 415.457031 L 346.558594 415.679688 L 346.386719 415.925781 L 346.214844 416.191406 L 346.050781 416.484375 L 345.890625 416.792969 L 345.734375 417.128906 L 345.582031 417.484375 L 345.582031 426.3125 Z M 344.394531 426.3125 "/>
<path fill-rule="nonzero" fill="rgb(0%, 0%, 0%)" fill-opacity="1" d="M 357.867188 426.636719 L 357.539062 426.628906 L 357.21875 426.605469 L 356.902344 426.566406 L 356.59375 426.507812 L 356.285156 426.433594 L 355.988281 426.347656 L 355.691406 426.242188 L 355.402344 426.117188 L 355.121094 425.980469 L 354.84375 425.828125 L 354.578125 425.660156 L 354.324219 425.476562 L 354.082031 425.277344 L 353.847656 425.066406 L 353.628906 424.84375 L 353.417969 424.601562 L 353.21875 424.347656 L 353.027344 424.082031 L 352.851562 423.800781 L 352.683594 423.503906 L 352.527344 423.191406 L 352.390625 422.867188 L 352.269531 422.53125 L 352.164062 422.183594 L 352.074219 421.824219 L 352.003906 421.453125 L 351.945312 421.074219 L 351.90625 420.679688 L 351.878906 420.277344 L 351.871094 419.859375 L 351.878906 419.441406 L 351.90625 419.03125 L 351.945312 418.636719 L 352.003906 418.253906 L 352.074219 417.882812 L 352.164062 417.523438 L 352.269531 417.179688 L 352.390625 416.84375 L 352.527344 416.523438 L 352.683594 416.214844 L 352.847656 415.914062 L 353.027344 415.628906 L 353.210938 415.359375 L 353.410156 415.101562 L 353.613281 414.859375 L 353.828125 414.632812 L 354.054688 414.417969 L 354.289062 414.21875 L 354.535156 414.035156 L 354.789062 413.867188 L 355.050781 413.707031 L 355.3125 413.566406 L 355.578125 413.441406 L 355.847656 413.332031 L 356.117188 413.238281 L 356.390625 413.164062 L 356.667969 413.105469 L 356.949219 413.0625 L 357.230469 413.039062 L 357.515625 413.03125 L 357.96875 413.046875 L 358.40625 413.09375 L 358.820312 413.171875 L 359.214844 413.28125 L 359.585938 413.421875 L 359.941406 413.59375 L 360.277344 413.796875 L 360.589844 414.03125 L 360.886719 414.296875 L 361.160156 414.59375 L 361.410156 414.921875 L 361.636719 415.273438 L 361.835938 415.652344 L 362.007812 416.054688 L 362.152344 416.484375 L 362.273438 416.941406 L 362.363281 417.421875 L 362.429688 417.929688 L 362.46875 418.464844 L 362.484375 419.023438 L 362.484375 419.121094 L 362.480469 419.167969 L 362.480469 419.21875 L 362.476562 419.265625 L 362.472656 419.316406 L 362.46875 419.363281 L 362.464844 419.414062 L 362.457031 419.507812 L 362.457031 419.558594 L 362.453125 419.605469 L 362.453125 419.65625 L 362.449219 419.703125 L 362.441406 419.753906 L 362.4375 419.800781 L 362.429688 419.851562 L 362.414062 419.945312 L 362.402344 419.996094 L 353.085938 419.996094 L 353.097656 420.316406 L 353.121094 420.628906 L 353.15625 420.9375 L 353.199219 421.234375 L 353.257812 421.527344 L 353.324219 421.8125 L 353.402344 422.089844 L 353.492188 422.363281 L 353.59375 422.628906 L 353.707031 422.882812 L 353.835938 423.132812 L 353.976562 423.371094 L 354.121094 423.597656 L 354.277344 423.8125 L 354.445312 424.019531 L 354.617188 424.210938 L 354.804688 424.394531 L 354.996094 424.570312 L 355.199219 424.730469 L 355.410156 424.882812 L 355.632812 425.019531 L 355.867188 425.144531 L 356.105469 425.253906 L 356.351562 425.347656 L 356.605469 425.429688 L 356.863281 425.496094 L 357.132812 425.546875 L 357.40625 425.582031 L 357.6875 425.605469 L 357.972656 425.613281 L 358.183594 425.609375 L 358.386719 425.597656 L 358.585938 425.582031 L 358.78125 425.558594 L 358.972656 425.53125 L 359.160156 425.496094 L 359.34375 425.453125 L 359.519531 425.402344 L 359.695312 425.347656 L 359.863281 425.289062 L 360.035156 425.222656 L 360.371094 425.074219 L 360.535156 424.996094 L 360.695312 424.917969 L 360.851562 424.832031 L 361.007812 424.742188 L 361.160156 424.648438 L 361.308594 424.550781 L 361.457031 424.449219 L 361.945312 425.367188 L 361.789062 425.460938 L 361.632812 425.550781 L 361.472656 425.640625 L 361.308594 425.726562 L 361.140625 425.8125 L 360.96875 425.898438 L 360.792969 425.984375 L 360.613281 426.066406 L 360.429688 426.152344 L 360.242188 426.234375 L 360.046875 426.308594 L 359.84375 426.378906 L 359.632812 426.4375 L 359.410156 426.492188 L 359.175781 426.535156 L 358.933594 426.574219 L 358.679688 426.601562 L 358.417969 426.621094 L 358.148438 426.632812 Z M 353.085938 419.023438 L 361.347656 419.023438 L 361.339844 418.539062 L 361.308594 418.078125 L 361.257812 417.644531 L 361.183594 417.234375 L 361.09375 416.851562 L 360.980469 416.488281 L 360.847656 416.15625 L 360.691406 415.84375 L 360.519531 415.558594 L 360.324219 415.296875 L 360.109375 415.0625 L 359.882812 414.851562 L 359.640625 414.664062 L 359.386719 414.503906 L 359.117188 414.367188 L 358.828125 414.253906 L 358.53125 414.167969 L 358.214844 414.105469 L 357.886719 414.066406 L 357.542969 414.054688 L 357.324219 414.0625 L 357.105469 414.078125 L 356.890625 414.109375 L 356.679688 414.152344 L 356.46875 414.203125 L 356.261719 414.269531 L 356.058594 414.347656 L 355.859375 414.4375 L 355.660156 414.535156 L 355.464844 414.648438 L 355.277344 414.773438 L 355.097656 414.90625 L 354.921875 415.050781 L 354.753906 415.207031 L 354.59375 415.371094 L 354.4375 415.546875 L 354.285156 415.730469 L 354.140625 415.929688 L 354.003906 416.132812 L 353.871094 416.351562 L 353.746094 416.578125 L 353.632812 416.8125 L 353.527344 417.054688 L 353.433594 417.308594 L 353.351562 417.570312 L 353.277344 417.84375 L 353.214844 418.125 L 353.160156 418.414062 L 353.121094 418.714844 Z M 353.085938 419.023438 "/>
<path fill-rule="nonzero" fill="rgb(0%, 0%, 0%)" fill-opacity="1" d="M 374.847656 431.039062 L 374.527344 430.496094 L 374.21875 429.949219 L 373.921875 429.394531 L 373.640625 428.835938 L 373.371094 428.269531 L 373.117188 427.703125 L 372.875 427.125 L 372.644531 426.546875 L 372.433594 425.960938 L 372.230469 425.367188 L 372.050781 424.761719 L 371.890625 424.148438 L 371.75 423.519531 L 371.625 422.878906 L 371.523438 422.230469 L 371.4375 421.566406 L 371.371094 420.894531 L 371.324219 420.210938 L 371.296875 419.515625 L 371.285156 418.808594 L 371.296875 418.101562 L 371.324219 417.40625 L 371.371094 416.722656 L 371.4375 416.050781 L 371.523438 415.390625 L 371.625 414.746094 L 371.75 414.109375 L 371.890625 413.484375 L 372.050781 412.875 L 372.230469 412.273438 L 372.433594 411.675781 L 372.644531 411.085938 L 372.875 410.503906 L 373.117188 409.921875 L 373.371094 409.351562 L 373.640625 408.785156 L 373.921875 408.222656 L 374.21875 407.667969 L 374.527344 407.121094 L 374.847656 406.578125 L 375.578125 407.007812 L 375.265625 407.519531 L 374.972656 408.042969 L 374.691406 408.574219 L 374.425781 409.117188 L 374.175781 409.667969 L 373.9375 410.230469 L 373.71875 410.800781 L 373.511719 411.378906 L 373.324219 411.96875 L 373.148438 412.570312 L 372.996094 413.175781 L 372.855469 413.789062 L 372.734375 414.402344 L 372.628906 415.019531 L 372.542969 415.640625 L 372.46875 416.265625 L 372.410156 416.898438 L 372.371094 417.53125 L 372.347656 418.167969 L 372.339844 418.808594 L 372.347656 419.441406 L 372.371094 420.074219 L 372.410156 420.703125 L 372.46875 421.332031 L 372.542969 421.953125 L 372.628906 422.574219 L 372.734375 423.1875 L 372.855469 423.800781 L 372.996094 424.410156 L 373.148438 425.015625 L 373.324219 425.617188 L 373.511719 426.207031 L 373.71875 426.789062 L 373.9375 427.363281 L 374.175781 427.925781 L 374.425781 428.480469 L 374.691406 429.027344 L 374.972656 429.5625 L 375.265625 430.089844 L 375.578125 430.605469 Z M 374.847656 431.039062 "/>
<path fill-rule="nonzero" fill="rgb(0%, 0%, 0%)" fill-opacity="1" d="M 376.902344 426.3125 L 382.246094 417.105469 L 377.28125 408.519531 L 378.628906 408.519531 L 381.546875 413.757812 L 381.621094 413.878906 L 381.695312 413.996094 L 381.765625 414.113281 L 381.839844 414.230469 L 381.910156 414.34375 L 381.980469 414.460938 L 382.046875 414.578125 L 382.117188 414.691406 L 382.183594 414.804688 L 382.246094 414.917969 L 382.3125 415.03125 L 382.382812 415.144531 L 382.453125 415.261719 L 382.523438 415.382812 L 382.597656 415.507812 L 382.675781 415.636719 L 382.753906 415.769531 L 382.917969 416.042969 L 383.003906 416.1875 L 383.113281 416.1875 L 383.1875 416.042969 L 383.257812 415.90625 L 383.332031 415.769531 L 383.402344 415.636719 L 383.46875 415.507812 L 383.535156 415.382812 L 383.601562 415.261719 L 383.664062 415.144531 L 383.726562 415.03125 L 383.785156 414.917969 L 383.847656 414.804688 L 383.90625 414.691406 L 383.96875 414.578125 L 384.03125 414.460938 L 384.097656 414.34375 L 384.164062 414.230469 L 384.363281 413.878906 L 384.433594 413.757812 L 387.351562 408.519531 L 388.621094 408.519531 L 383.652344 417.160156 L 388.996094 426.3125 L 387.648438 426.3125 L 384.542969 420.859375 L 384.472656 420.722656 L 384.398438 420.589844 L 384.328125 420.453125 L 384.253906 420.320312 L 384.179688 420.183594 L 384.101562 420.050781 L 384.023438 419.914062 L 383.945312 419.78125 L 383.867188 419.644531 L 383.785156 419.507812 L 383.703125 419.375 L 383.621094 419.234375 L 383.535156 419.09375 L 383.449219 418.949219 L 383.269531 418.652344 L 383.179688 418.5 L 383.085938 418.34375 L 382.992188 418.183594 L 382.894531 418.023438 L 382.789062 418.023438 L 382.617188 418.34375 L 382.535156 418.5 L 382.453125 418.652344 L 382.296875 418.949219 L 382.222656 419.09375 L 382.074219 419.375 L 382.003906 419.507812 L 381.863281 419.78125 L 381.792969 419.914062 L 381.71875 420.050781 L 381.648438 420.183594 L 381.574219 420.320312 L 381.5 420.453125 L 381.425781 420.589844 L 381.351562 420.722656 L 381.277344 420.859375 L 378.171875 426.3125 Z M 376.902344 426.3125 "/>
<path fill-rule="nonzero" fill="rgb(0%, 0%, 0%)" fill-opacity="1" d="M 391.050781 431.039062 L 390.320312 430.605469 L 390.632812 430.089844 L 390.925781 429.5625 L 391.207031 429.027344 L 391.46875 428.480469 L 391.71875 427.925781 L 391.949219 427.363281 L 392.167969 426.789062 L 392.367188 426.207031 L 392.554688 425.617188 L 392.722656 425.015625 L 392.882812 424.410156 L 393.023438 423.800781 L 393.152344 423.1875 L 393.257812 422.574219 L 393.351562 421.953125 L 393.425781 421.332031 L 393.484375 420.703125 L 393.527344 420.074219 L 393.550781 419.441406 L 393.558594 418.808594 L 393.550781 418.167969 L 393.527344 417.53125 L 393.484375 416.898438 L 393.425781 416.265625 L 393.351562 415.640625 L 393.257812 415.019531 L 393.152344 414.402344 L 393.023438 413.789062 L 392.882812 413.175781 L 392.722656 412.570312 L 392.554688 411.96875 L 392.367188 411.378906 L 392.167969 410.800781 L 391.949219 410.230469 L 391.71875 409.667969 L 391.46875 409.117188 L 391.207031 408.574219 L 390.925781 408.042969 L 390.632812 407.519531 L 390.320312 407.007812 L 391.050781 406.578125 L 391.378906 407.121094 L 391.691406 407.667969 L 391.988281 408.222656 L 392.273438 408.785156 L 392.542969 409.351562 L 392.796875 409.921875 L 393.035156 410.503906 L 393.261719 411.085938 L 393.472656 411.675781 L 393.667969 412.273438 L 393.847656 412.875 L 394.007812 413.484375 L 394.152344 414.109375 L 394.273438 414.746094 L 394.378906 415.390625 L 394.460938 416.050781 L 394.527344 416.722656 L 394.574219 417.40625 L 394.605469 418.101562 L 394.613281 418.808594 L 394.605469 419.515625 L 394.574219 420.210938 L 394.527344 420.894531 L 394.460938 421.566406 L 394.378906 422.230469 L 394.273438 422.878906 L 394.152344 423.519531 L 394.007812 424.148438 L 393.847656 424.761719 L 393.667969 425.367188 L 393.472656 425.960938 L 393.261719 426.546875 L 393.035156 427.125 L 392.796875 427.703125 L 392.542969 428.269531 L 392.273438 428.835938 L 391.988281 429.394531 L 391.691406 429.949219 L 391.378906 430.496094 Z M 391.050781 431.039062 "/>
<path fill-rule="nonzero" fill="rgb(0%, 0%, 0%)" fill-opacity="1" d="M 38.121094 222.941406 L 30.910156 222.941406 L 20.328125 228.261719 L 20.328125 226.9375 L 25.890625 224.238281 L 26.082031 224.144531 L 26.277344 224.054688 L 26.46875 223.960938 L 26.664062 223.871094 L 26.855469 223.777344 L 27.046875 223.6875 L 27.238281 223.59375 L 27.425781 223.503906 L 27.617188 223.410156 L 27.808594 223.320312 L 27.996094 223.226562 L 28.570312 222.945312 L 29.15625 222.652344 L 29.351562 222.550781 L 29.75 222.347656 L 29.75 222.238281 L 29.351562 222.035156 L 28.960938 221.832031 L 28.765625 221.734375 L 28.570312 221.632812 L 27.996094 221.339844 L 27.808594 221.242188 L 27.425781 221.046875 L 27.238281 220.953125 L 27.046875 220.859375 L 26.855469 220.769531 L 26.664062 220.675781 L 26.46875 220.585938 L 26.277344 220.496094 L 26.082031 220.410156 L 25.890625 220.324219 L 20.328125 217.621094 L 20.328125 216.355469 L 30.910156 221.699219 L 38.121094 221.699219 Z M 38.121094 222.941406 "/>
<path fill-rule="nonzero" fill="rgb(0%, 0%, 0%)" fill-opacity="1" d="M 42.65625 214.535156 L 33.585938 214.535156 L 33.585938 213.703125 L 42.65625 213.703125 Z M 31.390625 214.097656 L 31.390625 214.160156 L 31.382812 214.214844 L 31.375 214.273438 L 31.359375 214.324219 L 31.339844 214.378906 L 31.316406 214.429688 L 31.289062 214.476562 L 31.257812 214.523438 L 31.222656 214.566406 L 31.183594 214.609375 L 31.140625 214.648438 L 31.09375 214.683594 L 31.046875 214.714844 L 30.992188 214.742188 L 30.9375 214.765625 L 30.878906 214.785156 L 30.820312 214.796875 L 30.753906 214.808594 L 30.6875 214.816406 L 30.554688 214.816406 L 30.492188 214.808594 L 30.433594 214.796875 L 30.378906 214.785156 L 30.324219 214.765625 L 30.273438 214.742188 L 30.222656 214.714844 L 30.175781 214.683594 L 30.132812 214.648438 L 30.089844 214.609375 L 30.046875 214.566406 L 30.011719 214.523438 L 29.980469 214.476562 L 29.957031 214.429688 L 29.933594 214.378906 L 29.914062 214.324219 L 29.898438 214.273438 L 29.890625 214.214844 L 29.882812 214.160156 L 29.878906 214.097656 L 29.882812 214.035156 L 29.898438 213.917969 L 29.914062 213.863281 L 29.933594 213.8125 L 29.957031 213.761719 L 29.980469 213.714844 L 30.011719 213.667969 L 30.046875 213.628906 L 30.132812 213.550781 L 30.175781 213.515625 L 30.222656 213.484375 L 30.273438 213.457031 L 30.324219 213.433594 L 30.378906 213.414062 L 30.433594 213.398438 L 30.492188 213.390625 L 30.554688 213.382812 L 30.617188 213.378906 L 30.6875 213.382812 L 30.820312 213.398438 L 30.878906 213.414062 L 30.9375 213.433594 L 30.992188 213.457031 L 31.046875 213.484375 L 31.09375 213.515625 L 31.140625 213.550781 L 31.183594 213.589844 L 31.222656 213.628906 L 31.257812 213.667969 L 31.289062 213.714844 L 31.316406 213.761719 L 31.339844 213.8125 L 31.359375 213.863281 L 31.375 213.917969 L 31.390625 214.035156 Z M 31.390625 214.097656 "/>
<path fill-rule="nonzero" fill="rgb(0%, 0%, 0%)" fill-opacity="1" d="M 44.027344 204.519531 L 43.347656 204.921875 L 42.664062 205.308594 L 41.972656 205.679688 L 41.273438 206.03125 L 40.566406 206.367188 L 39.855469 206.6875 L 39.136719 206.988281 L 38.410156 207.273438 L 37.679688 207.542969 L 36.941406 207.792969 L 36.183594 208.019531 L 35.414062 208.21875 L 34.628906 208.394531 L 33.828125 208.550781 L 33.015625 208.679688 L 32.1875 208.785156 L 31.347656 208.867188 L 30.492188 208.925781 L 29.621094 208.960938 L 28.738281 208.972656 L 27.855469 208.960938 L 26.984375 208.925781 L 26.132812 208.867188 L 25.292969 208.785156 L 24.46875 208.679688 L 23.660156 208.550781 L 22.863281 208.394531 L 22.085938 208.21875 L 21.320312 208.019531 L 20.570312 207.792969 L 19.824219 207.542969 L 19.085938 207.273438 L 18.355469 206.988281 L 17.632812 206.6875 L 16.917969 206.367188 L 16.207031 206.03125 L 15.507812 205.679688 L 14.8125 205.308594 L 14.128906 204.921875 L 13.449219 204.519531 L 13.988281 203.609375 L 14.628906 203.996094 L 15.28125 204.367188 L 15.949219 204.71875 L 16.625 205.050781 L 17.3125 205.363281 L 18.015625 205.65625 L 18.730469 205.933594 L 19.453125 206.1875 L 20.191406 206.425781 L 20.941406 206.644531 L 21.699219 206.839844 L 22.464844 207.011719 L 23.230469 207.160156 L 24.003906 207.292969 L 24.78125 207.40625 L 25.5625 207.496094 L 26.351562 207.566406 L 27.140625 207.617188 L 27.9375 207.648438 L 28.738281 207.65625 L 29.53125 207.648438 L 30.324219 207.617188 L 31.109375 207.566406 L 31.890625 207.496094 L 32.671875 207.40625 L 33.445312 207.292969 L 34.214844 207.160156 L 34.980469 207.011719 L 35.742188 206.839844 L 36.5 206.644531 L 37.25 206.425781 L 37.988281 206.1875 L 38.71875 205.933594 L 39.433594 205.65625 L 40.136719 205.363281 L 40.832031 205.050781 L 41.511719 204.71875 L 42.179688 204.367188 L 42.839844 203.996094 L 43.488281 203.609375 Z M 44.027344 204.519531 "/>
<path fill-rule="nonzero" fill="rgb(0%, 0%, 0%)" fill-opacity="1" d="M 38.121094 200.261719 L 37.066406 200.261719 L 37.066406 196.210938 L 22.757812 196.210938 L 22.757812 199.289062 L 21.949219 199.289062 L 21.910156 199.078125 L 21.867188 198.875 L 21.828125 198.675781 L 21.785156 198.480469 L 21.738281 198.289062 L 21.691406 198.101562 L 21.644531 197.917969 L 21.542969 197.566406 L 21.488281 197.398438 L 21.433594 197.234375 L 21.378906 197.074219 L 21.320312 196.917969 L 21.261719 196.765625 L 21.199219 196.621094 L 21.136719 196.480469 L 21.070312 196.34375 L 21.003906 196.214844 L 20.9375 196.089844 L 20.867188 195.96875 L 20.867188 194.996094 L 37.066406 194.996094 L 37.066406 191.242188 L 38.121094 191.242188 Z M 38.121094 200.261719 "/>
<path fill-rule="nonzero" fill="rgb(0%, 0%, 0%)" fill-opacity="1" d="M 44.027344 187.605469 L 43.488281 188.515625 L 42.839844 188.125 L 42.179688 187.757812 L 41.511719 187.410156 L 40.832031 187.078125 L 40.136719 186.769531 L 39.433594 186.476562 L 38.71875 186.207031 L 37.988281 185.957031 L 37.25 185.722656 L 36.5 185.511719 L 35.742188 185.3125 L 34.980469 185.136719 L 34.214844 184.976562 L 33.445312 184.84375 L 32.671875 184.726562 L 31.890625 184.632812 L 31.109375 184.558594 L 30.324219 184.507812 L 29.53125 184.476562 L 28.738281 184.464844 L 27.9375 184.476562 L 27.140625 184.507812 L 26.351562 184.558594 L 25.5625 184.632812 L 24.78125 184.726562 L 24.003906 184.84375 L 23.230469 184.976562 L 22.464844 185.136719 L 21.699219 185.3125 L 20.941406 185.511719 L 20.191406 185.722656 L 19.453125 185.957031 L 18.730469 186.207031 L 18.015625 186.476562 L 17.3125 186.769531 L 16.625 187.078125 L 15.949219 187.410156 L 15.28125 187.757812 L 14.628906 188.125 L 13.988281 188.515625 L 13.449219 187.605469 L 14.128906 187.195312 L 14.8125 186.804688 L 15.507812 186.429688 L 16.207031 186.074219 L 16.917969 185.738281 L 17.632812 185.421875 L 18.355469 185.121094 L 19.085938 184.839844 L 19.824219 184.574219 L 20.570312 184.332031 L 21.320312 184.105469 L 22.085938 183.90625 L 22.863281 183.726562 L 23.660156 183.574219 L 24.46875 183.445312 L 25.292969 183.339844 L 26.132812 183.253906 L 26.984375 183.195312 L 27.855469 183.160156 L 28.738281 183.148438 L 29.621094 183.160156 L 30.492188 183.195312 L 31.347656 183.253906 L 32.1875 183.339844 L 33.015625 183.445312 L 33.828125 183.574219 L 34.628906 183.726562 L 35.414062 183.90625 L 36.183594 184.105469 L 36.941406 184.332031 L 37.679688 184.574219 L 38.410156 184.839844 L 39.136719 185.121094 L 39.855469 185.421875 L 40.566406 185.738281 L 41.273438 186.074219 L 41.972656 186.429688 L 42.664062 186.804688 L 43.347656 187.195312 Z M 44.027344 187.605469 "/>
</svg>
