<?xml version="1.0" encoding="UTF-8"?>
<svg xmlns="http://www.w3.org/2000/svg" xmlns:xlink="http://www.w3.org/1999/xlink" width="792" height="504" viewBox="0 0 792 504">
<defs>
<clipPath id="clip-0">
<path clip-rule="nonzero" d="M 50.929688 13.449219 L 778.550781 13.449219 L 778.550781 425.441406 L 50.929688 425.441406 Z M 50.929688 13.449219 "/>
</clipPath>
<clipPath id="clip-1">
<path clip-rule="nonzero" d="M 50.929688 358 L 778.550781 358 L 778.550781 362 L 50.929688 362 Z M 50.929688 358 "/>
</clipPath>
<clipPath id="clip-2">
<path clip-rule="nonzero" d="M 50.929688 271 L 778.550781 271 L 778.550781 275 L 50.929688 275 Z M 50.929688 271 "/>
</clipPath>
<clipPath id="clip-3">
<path clip-rule="nonzero" d="M 50.929688 184 L 778.550781 184 L 778.550781 188 L 50.929688 188 Z M 50.929688 184 "/>
</clipPath>
<clipPath id="clip-4">
<path clip-rule="nonzero" d="M 50.929688 97 L 778.550781 97 L 778.550781 100 L 50.929688 100 Z M 50.929688 97 "/>
</clipPath>
<clipPath id="clip-5">
<path clip-rule="nonzero" d="M 187 13.449219 L 191 13.449219 L 191 425.441406 L 187 425.441406 Z M 187 13.449219 "/>
</clipPath>
<clipPath id="clip-6">
<path clip-rule="nonzero" d="M 415 13.449219 L 419 13.449219 L 419 425.441406 L 415 425.441406 Z M 415 13.449219 "/>
</clipPath>
<clipPath id="clip-7">
<path clip-rule="nonzero" d="M 642 13.449219 L 646 13.449219 L 646 425.441406 L 642 425.441406 Z M 642 13.449219 "/>
</clipPath>
</defs>
<rect x="-79.2" y="-50.4" width="950.4" height="604.8" fill="rgb(100%, 100%, 100%)" fill-opacity="1"/>
<rect x="-79.2" y="-50.4" width="950.4" height="604.8" fill="rgb(95.294118%, 95.294118%, 95.294118%)" fill-opacity="1"/>
<path fill="none" stroke-width="2.618947" stroke-linecap="round" stroke-linejoin="round" stroke="rgb(95.294118%, 95.294118%, 95.294118%)" stroke-opacity="1" stroke-miterlimit="10" d="M 0 504 L 792 504 L 792 0 L 0 0 Z M 0 504 "/>
<g clip-path="url(#clip-0)">
<path fill-rule="nonzero" fill="rgb(95.294118%, 95.294118%, 95.294118%)" fill-opacity="1" stroke-width="2.618947" stroke-linecap="round" stroke-linejoin="round" stroke="rgb(95.294118%, 95.294118%, 95.294118%)" stroke-opacity="1" stroke-miterlimit="10" d="M 50.929688 425.441406 L 778.550781 425.441406 L 778.550781 13.449219 L 50.929688 13.449219 Z M 50.929688 425.441406 "/>
</g>
<g clip-path="url(#clip-1)">
<path fill="none" stroke-width="2.618947" stroke-linecap="butt" stroke-linejoin="round" stroke="rgb(92.156863%, 92.156863%, 92.156863%)" stroke-opacity="1" stroke-miterlimit="10" d="M 50.929688 360.234375 L 778.550781 360.234375 "/>
</g>
<g clip-path="url(#clip-2)">
<path fill="none" stroke-width="2.618947" stroke-linecap="butt" stroke-linejoin="round" stroke="rgb(92.156863%, 92.156863%, 92.156863%)" stroke-opacity="1" stroke-miterlimit="10" d="M 50.929688 272.984375 L 778.550781 272.984375 "/>
</g>
<g clip-path="url(#clip-3)">
<path fill="none" stroke-width="2.618947" stroke-linecap="butt" stroke-linejoin="round" stroke="rgb(92.156863%, 92.156863%, 92.156863%)" stroke-opacity="1" stroke-miterlimit="10" d="M 50.929688 185.738281 L 778.550781 185.738281 "/>
</g>
<g clip-path="url(#clip-4)">
<path fill="none" stroke-width="2.618947" stroke-linecap="butt" stroke-linejoin="round" stroke="rgb(92.156863%, 92.156863%, 92.156863%)" stroke-opacity="1" stroke-miterlimit="10" d="M 50.929688 98.492188 L 778.550781 98.492188 "/>
</g>
<g clip-path="url(#clip-5)">
<path fill="none" stroke-width="2.618947" stroke-linecap="butt" stroke-linejoin="round" stroke="rgb(92.156863%, 92.156863%, 92.156863%)" stroke-opacity="1" stroke-miterlimit="10" d="M 189.097656 425.441406 L 189.097656 13.449219 "/>
</g>
<g clip-path="url(#clip-6)">
<path fill="none" stroke-width="2.618947" stroke-linecap="butt" stroke-linejoin="round" stroke="rgb(92.156863%, 92.156863%, 92.156863%)" stroke-opacity="1" stroke-miterlimit="10" d="M 416.699219 425.441406 L 416.699219 13.449219 "/>
</g>
<g clip-path="url(#clip-7)">
<path fill="none" stroke-width="2.618947" stroke-linecap="butt" stroke-linejoin="round" stroke="rgb(92.156863%, 92.156863%, 92.156863%)" stroke-opacity="1" stroke-miterlimit="10" d="M 644.296875 425.441406 L 644.296875 13.449219 "/>
</g>
<path fill-rule="nonzero" fill="rgb(38.039216%, 81.568627%, 30.980392%)" fill-opacity="0.2" stroke-width="1.066978" stroke-linecap="butt" stroke-linejoin="miter" stroke="rgb(100%, 100%, 100%)" stroke-opacity="1" stroke-miterlimit="10" d="M 84.003906 272.984375 L 131.53125 272.984375 L 131.53125 212.433594 L 84.003906 212.433594 Z M 84.003906 272.984375 "/>
<path fill-rule="nonzero" fill="rgb(38.039216%, 81.568627%, 30.980392%)" fill-opacity="0.2" stroke-width="1.066978" stroke-linecap="butt" stroke-linejoin="miter" stroke="rgb(100%, 100%, 100%)" stroke-opacity="1" stroke-miterlimit="10" d="M 131.53125 272.984375 L 179.058594 272.984375 L 179.058594 248.765625 L 131.53125 248.765625 Z M 131.53125 272.984375 "/>
<path fill-rule="nonzero" fill="rgb(38.039216%, 81.568627%, 30.980392%)" fill-opacity="0.2" stroke-width="1.066978" stroke-linecap="butt" stroke-linejoin="miter" stroke="rgb(100%, 100%, 100%)" stroke-opacity="1" stroke-miterlimit="10" d="M 179.058594 272.984375 L 226.585938 272.984375 L 226.585938 200.324219 L 179.058594 200.324219 Z M 179.058594 272.984375 "/>
<path fill-rule="nonzero" fill="rgb(38.039216%, 81.568627%, 30.980392%)" fill-opacity="0.2" stroke-width="1.066978" stroke-linecap="butt" stroke-linejoin="miter" stroke="rgb(100%, 100%, 100%)" stroke-opacity="1" stroke-miterlimit="10" d="M 226.585938 272.984375 L 274.113281 272.984375 L 274.113281 212.433594 L 226.585938 212.433594 Z M 226.585938 272.984375 "/>
<path fill-rule="nonzero" fill="rgb(38.039216%, 81.568627%, 30.980392%)" fill-opacity="0.2" stroke-width="1.066978" stroke-linecap="butt" stroke-linejoin="miter" stroke="rgb(100%, 100%, 100%)" stroke-opacity="1" stroke-miterlimit="10" d="M 274.113281 272.984375 L 321.640625 272.984375 L 321.640625 200.324219 L 274.113281 200.324219 Z M 274.113281 272.984375 "/>
<path fill-rule="nonzero" fill="rgb(38.039216%, 81.568627%, 30.980392%)" fill-opacity="0.2" stroke-width="1.066978" stroke-linecap="butt" stroke-linejoin="miter" stroke="rgb(100%, 100%, 100%)" stroke-opacity="1" stroke-miterlimit="10" d="M 321.640625 272.984375 L 369.167969 272.984375 L 369.167969 151.882812 L 321.640625 151.882812 Z M 321.640625 272.984375 "/>
<path fill-rule="nonzero" fill="rgb(38.039216%, 81.568627%, 30.980392%)" fill-opacity="0.2" stroke-width="1.066978" stroke-linecap="butt" stroke-linejoin="miter" stroke="rgb(100%, 100%, 100%)" stroke-opacity="1" stroke-miterlimit="10" d="M 369.167969 272.984375 L 416.695312 272.984375 L 416.695312 212.433594 L 369.167969 212.433594 Z M 369.167969 272.984375 "/>
<path fill-rule="nonzero" fill="rgb(38.039216%, 81.568627%, 30.980392%)" fill-opacity="0.2" stroke-width="1.066978" stroke-linecap="butt" stroke-linejoin="miter" stroke="rgb(100%, 100%, 100%)" stroke-opacity="1" stroke-miterlimit="10" d="M 416.699219 272.984375 L 471.496094 272.984375 L 471.496094 199.457031 L 416.699219 199.457031 Z M 416.699219 272.984375 "/>
<path fill-rule="nonzero" fill="rgb(38.039216%, 81.568627%, 30.980392%)" fill-opacity="0.2" stroke-width="1.066978" stroke-linecap="butt" stroke-linejoin="miter" stroke="rgb(100%, 100%, 100%)" stroke-opacity="1" stroke-miterlimit="10" d="M 471.496094 272.984375 L 526.292969 272.984375 L 526.292969 188.953125 L 471.496094 188.953125 Z M 471.496094 272.984375 "/>
<path fill-rule="nonzero" fill="rgb(38.039216%, 81.568627%, 30.980392%)" fill-opacity="0.2" stroke-width="1.066978" stroke-linecap="butt" stroke-linejoin="miter" stroke="rgb(100%, 100%, 100%)" stroke-opacity="1" stroke-miterlimit="10" d="M 526.289062 272.984375 L 581.085938 272.984375 L 581.085938 199.457031 L 526.289062 199.457031 Z M 526.289062 272.984375 "/>
<path fill-rule="nonzero" fill="rgb(38.039216%, 81.568627%, 30.980392%)" fill-opacity="0.2" stroke-width="1.066978" stroke-linecap="butt" stroke-linejoin="miter" stroke="rgb(100%, 100%, 100%)" stroke-opacity="1" stroke-miterlimit="10" d="M 581.085938 272.984375 L 635.882812 272.984375 L 635.882812 230.96875 L 581.085938 230.96875 Z M 581.085938 272.984375 "/>
<path fill-rule="nonzero" fill="rgb(38.039216%, 81.568627%, 30.980392%)" fill-opacity="0.2" stroke-width="1.066978" stroke-linecap="butt" stroke-linejoin="miter" stroke="rgb(100%, 100%, 100%)" stroke-opacity="1" stroke-miterlimit="10" d="M 635.882812 272.984375 L 690.679688 272.984375 L 690.679688 241.472656 L 635.882812 241.472656 Z M 635.882812 272.984375 "/>
<path fill-rule="nonzero" fill="rgb(38.039216%, 81.568627%, 30.980392%)" fill-opacity="0.2" stroke-width="1.066978" stroke-linecap="butt" stroke-linejoin="miter" stroke="rgb(100%, 100%, 100%)" stroke-opacity="1" stroke-miterlimit="10" d="M 690.679688 272.984375 L 745.476562 272.984375 L 745.476562 262.480469 L 690.679688 262.480469 Z M 690.679688 272.984375 "/>
<path fill-rule="nonzero" fill="rgb(0%, 0%, 0%)" fill-opacity="0.2" d="M 84.003906 170.1875 L 120.96875 213.285156 L 157.933594 197.457031 L 194.902344 191.089844 L 231.867188 186.210938 L 268.832031 171.476562 L 305.800781 148.785156 L 342.765625 143.882812 L 379.730469 155.128906 L 416.699219 107.519531 L 416.699219 406.714844 L 379.730469 239.589844 L 342.765625 212.257812 L 305.800781 222.0625 L 268.832031 228.515625 L 231.867188 243.6875 L 194.902344 253.28125 L 157.933594 254.117188 L 120.96875 264.695312 L 84.003906 311.78125 Z M 84.003906 170.1875 "/>
<path fill="none" stroke-width="1.066978" stroke-linecap="butt" stroke-linejoin="round" stroke="rgb(0%, 0%, 0%)" stroke-opacity="1" stroke-miterlimit="10" d="M 84.003906 252.332031 L 120.96875 238.285156 L 157.933594 228.730469 L 194.902344 220.265625 L 231.867188 210.722656 L 268.832031 201.375 L 305.800781 192.339844 L 342.765625 185.570312 L 379.730469 187.636719 L 416.699219 206.816406 "/>
<path fill-rule="nonzero" fill="rgb(87.45098%, 32.54902%, 41.960784%)" fill-opacity="0.2" d="M 416.699219 32.175781 L 453.230469 154.964844 L 489.757812 167.960938 L 526.289062 167.597656 L 562.820312 174.25 L 599.351562 192.40625 L 635.882812 208.738281 L 672.414062 228.761719 L 708.945312 247.300781 L 745.476562 214.492188 L 745.476562 367.636719 L 708.945312 279.601562 L 672.414062 276.21875 L 635.882812 262.183594 L 599.351562 246.222656 L 562.820312 235.96875 L 526.289062 228.183594 L 489.757812 224.464844 L 453.230469 239.09375 L 416.699219 330.726562 Z M 416.699219 32.175781 "/>
<path fill="none" stroke-width="1.066978" stroke-linecap="butt" stroke-linejoin="round" stroke="rgb(87.45098%, 32.54902%, 41.960784%)" stroke-opacity="1" stroke-miterlimit="10" d="M 416.699219 194.128906 L 453.230469 197.859375 L 489.757812 198.53125 L 526.289062 203.507812 L 562.820312 211.160156 L 599.351562 222.726562 L 635.882812 236.457031 L 672.414062 251.039062 L 708.945312 264.472656 L 745.476562 274.058594 "/>
<path fill-rule="nonzero" fill="rgb(10.196078%, 10.196078%, 10.196078%)" fill-opacity="1" d="M 174.386719 448.269531 L 174.386719 447.296875 L 179.886719 447.296875 L 179.886719 448.269531 Z M 174.386719 448.269531 "/>
<path fill-rule="nonzero" fill="rgb(10.196078%, 10.196078%, 10.196078%)" fill-opacity="1" d="M 182.960938 454.019531 L 182.960938 453.046875 L 186.710938 453.046875 L 186.710938 439.796875 L 183.859375 439.796875 L 183.859375 439.046875 L 184.054688 439.011719 L 184.242188 438.972656 L 184.609375 438.894531 L 184.785156 438.851562 L 185.128906 438.765625 L 185.292969 438.71875 L 185.453125 438.667969 L 185.609375 438.621094 L 185.761719 438.570312 L 185.910156 438.519531 L 186.054688 438.464844 L 186.195312 438.410156 L 186.460938 438.292969 L 186.585938 438.234375 L 186.707031 438.171875 L 186.824219 438.109375 L 186.9375 438.046875 L 187.835938 438.046875 L 187.835938 453.046875 L 191.3125 453.046875 L 191.3125 454.019531 Z M 182.960938 454.019531 "/>
<path fill-rule="nonzero" fill="rgb(10.196078%, 10.196078%, 10.196078%)" fill-opacity="1" d="M 198.8125 454.320312 L 198.367188 454.300781 L 197.941406 454.234375 L 197.539062 454.125 L 197.15625 453.972656 L 196.792969 453.777344 L 196.449219 453.539062 L 196.128906 453.253906 L 195.828125 452.929688 L 195.546875 452.558594 L 195.285156 452.144531 L 195.046875 451.691406 L 194.835938 451.203125 L 194.648438 450.675781 L 194.484375 450.113281 L 194.347656 449.515625 L 194.234375 448.878906 L 194.148438 448.207031 L 194.085938 447.496094 L 194.046875 446.753906 L 194.035156 445.96875 L 194.046875 445.195312 L 194.085938 444.453125 L 194.148438 443.753906 L 194.234375 443.085938 L 194.347656 442.457031 L 194.484375 441.867188 L 194.648438 441.3125 L 194.835938 440.792969 L 195.046875 440.3125 L 195.285156 439.871094 L 195.546875 439.46875 L 195.828125 439.105469 L 196.128906 438.785156 L 196.449219 438.511719 L 196.792969 438.277344 L 197.15625 438.085938 L 197.539062 437.9375 L 197.941406 437.832031 L 198.367188 437.765625 L 198.8125 437.746094 L 199.261719 437.765625 L 199.6875 437.832031 L 200.09375 437.9375 L 200.480469 438.085938 L 200.84375 438.277344 L 201.183594 438.511719 L 201.503906 438.785156 L 201.800781 439.105469 L 202.078125 439.46875 L 202.335938 439.871094 L 202.574219 440.3125 L 202.785156 440.792969 L 202.972656 441.3125 L 203.136719 441.867188 L 203.273438 442.457031 L 203.386719 443.085938 L 203.472656 443.753906 L 203.535156 444.453125 L 203.574219 445.195312 L 203.585938 445.96875 L 203.574219 446.753906 L 203.535156 447.496094 L 203.472656 448.207031 L 203.386719 448.878906 L 203.273438 449.515625 L 203.136719 450.113281 L 202.972656 450.675781 L 202.785156 451.203125 L 202.574219 451.691406 L 202.335938 452.144531 L 202.078125 452.558594 L 201.800781 452.929688 L 201.503906 453.253906 L 201.183594 453.539062 L 200.84375 453.777344 L 200.480469 453.972656 L 200.09375 454.125 L 199.6875 454.234375 L 199.261719 454.300781 Z M 198.8125 453.371094 L 199.136719 453.351562 L 199.453125 453.296875 L 199.753906 453.203125 L 200.039062 453.070312 L 200.3125 452.902344 L 200.570312 452.695312 L 200.8125 452.453125 L 201.042969 452.171875 L 201.257812 451.851562 L 201.460938 451.496094 L 201.652344 451.101562 L 201.820312 450.675781 L 201.96875 450.210938 L 202.101562 449.710938 L 202.210938 449.175781 L 202.300781 448.605469 L 202.371094 448 L 202.421875 447.359375 L 202.449219 446.683594 L 202.460938 445.96875 L 202.449219 445.257812 L 202.421875 444.585938 L 202.371094 443.945312 L 202.300781 443.347656 L 202.210938 442.78125 L 202.101562 442.257812 L 201.96875 441.765625 L 201.820312 441.316406 L 201.652344 440.898438 L 201.460938 440.519531 L 201.257812 440.175781 L 201.042969 439.863281 L 200.8125 439.589844 L 200.570312 439.351562 L 200.3125 439.152344 L 200.039062 438.988281 L 199.753906 438.859375 L 199.453125 438.769531 L 199.136719 438.714844 L 198.8125 438.695312 L 198.488281 438.714844 L 198.175781 438.769531 L 197.878906 438.859375 L 197.59375 438.988281 L 197.324219 439.152344 L 197.066406 439.351562 L 196.820312 439.589844 L 196.585938 439.863281 L 196.367188 440.175781 L 196.160156 440.519531 L 195.96875 440.898438 L 195.800781 441.316406 L 195.652344 441.765625 L 195.519531 442.257812 L 195.410156 442.78125 L 195.320312 443.347656 L 195.25 443.945312 L 195.199219 444.585938 L 195.171875 445.257812 L 195.160156 445.96875 L 195.171875 446.683594 L 195.199219 447.359375 L 195.25 448 L 195.320312 448.605469 L 195.410156 449.175781 L 195.519531 449.710938 L 195.652344 450.210938 L 195.800781 450.675781 L 195.96875 451.101562 L 196.160156 451.496094 L 196.367188 451.851562 L 196.585938 452.171875 L 196.820312 452.453125 L 197.066406 452.695312 L 197.324219 452.902344 L 197.59375 453.070312 L 197.878906 453.203125 L 198.175781 453.296875 L 198.488281 453.351562 Z M 198.8125 453.371094 "/>
<path fill-rule="nonzero" fill="rgb(10.196078%, 10.196078%, 10.196078%)" fill-opacity="1" d="M 416.683594 454.320312 L 416.242188 454.300781 L 415.816406 454.234375 L 415.414062 454.125 L 415.027344 453.972656 L 414.667969 453.777344 L 414.324219 453.539062 L 414.003906 453.253906 L 413.703125 452.929688 L 413.421875 452.558594 L 413.160156 452.144531 L 412.921875 451.691406 L 412.710938 451.203125 L 412.523438 450.675781 L 412.359375 450.113281 L 412.222656 449.515625 L 412.109375 448.878906 L 412.023438 448.207031 L 411.960938 447.496094 L 411.921875 446.753906 L 411.910156 445.96875 L 411.921875 445.195312 L 411.960938 444.453125 L 412.023438 443.753906 L 412.109375 443.085938 L 412.222656 442.457031 L 412.359375 441.867188 L 412.523438 441.3125 L 412.710938 440.792969 L 412.921875 440.3125 L 413.160156 439.871094 L 413.421875 439.46875 L 413.703125 439.105469 L 414.003906 438.785156 L 414.324219 438.511719 L 414.667969 438.277344 L 415.027344 438.085938 L 415.414062 437.9375 L 415.816406 437.832031 L 416.242188 437.765625 L 416.683594 437.746094 L 417.132812 437.765625 L 417.5625 437.832031 L 417.96875 437.9375 L 418.351562 438.085938 L 418.714844 438.277344 L 419.058594 438.511719 L 419.378906 438.785156 L 419.675781 439.105469 L 419.953125 439.46875 L 420.210938 439.871094 L 420.449219 440.3125 L 420.660156 440.792969 L 420.847656 441.3125 L 421.011719 441.867188 L 421.148438 442.457031 L 421.261719 443.085938 L 421.347656 443.753906 L 421.410156 444.453125 L 421.449219 445.195312 L 421.460938 445.96875 L 421.449219 446.753906 L 421.410156 447.496094 L 421.347656 448.207031 L 421.261719 448.878906 L 421.148438 449.515625 L 421.011719 450.113281 L 420.847656 450.675781 L 420.660156 451.203125 L 420.449219 451.691406 L 420.210938 452.144531 L 419.953125 452.558594 L 419.675781 452.929688 L 419.378906 453.253906 L 419.058594 453.539062 L 418.714844 453.777344 L 418.351562 453.972656 L 417.96875 454.125 L 417.5625 454.234375 L 417.132812 454.300781 Z M 416.683594 453.371094 L 417.011719 453.351562 L 417.328125 453.296875 L 417.628906 453.203125 L 417.914062 453.070312 L 418.183594 452.902344 L 418.441406 452.695312 L 418.6875 452.453125 L 418.917969 452.171875 L 419.132812 451.851562 L 419.335938 451.496094 L 419.523438 451.101562 L 419.695312 450.675781 L 419.84375 450.210938 L 419.976562 449.710938 L 420.085938 449.175781 L 420.175781 448.605469 L 420.246094 448 L 420.296875 447.359375 L 420.324219 446.683594 L 420.335938 445.96875 L 420.324219 445.257812 L 420.296875 444.585938 L 420.246094 443.945312 L 420.175781 443.347656 L 420.085938 442.78125 L 419.976562 442.257812 L 419.84375 441.765625 L 419.695312 441.316406 L 419.523438 440.898438 L 419.335938 440.519531 L 419.132812 440.175781 L 418.917969 439.863281 L 418.6875 439.589844 L 418.441406 439.351562 L 418.183594 439.152344 L 417.914062 438.988281 L 417.628906 438.859375 L 417.328125 438.769531 L 417.011719 438.714844 L 416.683594 438.695312 L 416.363281 438.714844 L 416.050781 438.769531 L 415.753906 438.859375 L 415.46875 438.988281 L 415.199219 439.152344 L 414.9375 439.351562 L 414.695312 439.589844 L 414.460938 439.863281 L 414.242188 440.175781 L 414.035156 440.519531 L 413.84375 440.898438 L 413.675781 441.316406 L 413.523438 441.765625 L 413.394531 442.257812 L 413.285156 442.78125 L 413.195312 443.347656 L 413.125 443.945312 L 413.074219 444.585938 L 413.046875 445.257812 L 413.035156 445.96875 L 413.046875 446.683594 L 413.074219 447.359375 L 413.125 448 L 413.195312 448.605469 L 413.285156 449.175781 L 413.394531 449.710938 L 413.523438 450.210938 L 413.675781 450.675781 L 413.84375 451.101562 L 414.035156 451.496094 L 414.242188 451.851562 L 414.460938 452.171875 L 414.695312 452.453125 L 414.9375 452.695312 L 415.199219 452.902344 L 415.46875 453.070312 L 415.753906 453.203125 L 416.050781 453.296875 L 416.363281 453.351562 Z M 416.683594 453.371094 "/>
<path fill-rule="nonzero" fill="rgb(10.196078%, 10.196078%, 10.196078%)" fill-opacity="1" d="M 634.421875 454.019531 L 634.421875 453.046875 L 638.171875 453.046875 L 638.171875 439.796875 L 635.320312 439.796875 L 635.320312 439.046875 L 635.515625 439.011719 L 635.890625 438.933594 L 636.070312 438.894531 L 636.421875 438.808594 L 636.589844 438.765625 L 636.753906 438.71875 L 636.914062 438.667969 L 637.070312 438.621094 L 637.226562 438.570312 L 637.375 438.519531 L 637.65625 438.410156 L 637.921875 438.292969 L 638.046875 438.234375 L 638.167969 438.171875 L 638.285156 438.109375 L 638.398438 438.046875 L 639.296875 438.046875 L 639.296875 453.046875 L 642.773438 453.046875 L 642.773438 454.019531 Z M 634.421875 454.019531 "/>
<path fill-rule="nonzero" fill="rgb(10.196078%, 10.196078%, 10.196078%)" fill-opacity="1" d="M 650.273438 454.320312 L 649.828125 454.300781 L 649.402344 454.234375 L 649 454.125 L 648.617188 453.972656 L 648.253906 453.777344 L 647.910156 453.539062 L 647.589844 453.253906 L 647.289062 452.929688 L 647.007812 452.558594 L 646.746094 452.144531 L 646.507812 451.691406 L 646.296875 451.203125 L 646.109375 450.675781 L 645.945312 450.113281 L 645.808594 449.515625 L 645.695312 448.878906 L 645.609375 448.207031 L 645.546875 447.496094 L 645.507812 446.753906 L 645.496094 445.96875 L 645.507812 445.195312 L 645.546875 444.453125 L 645.609375 443.753906 L 645.695312 443.085938 L 645.808594 442.457031 L 645.945312 441.867188 L 646.109375 441.3125 L 646.296875 440.792969 L 646.507812 440.3125 L 646.746094 439.871094 L 647.007812 439.46875 L 647.289062 439.105469 L 647.589844 438.785156 L 647.910156 438.511719 L 648.253906 438.277344 L 648.617188 438.085938 L 649 437.9375 L 649.402344 437.832031 L 649.828125 437.765625 L 650.273438 437.746094 L 650.722656 437.765625 L 651.148438 437.832031 L 651.554688 437.9375 L 651.941406 438.085938 L 652.304688 438.277344 L 652.644531 438.511719 L 652.964844 438.785156 L 653.265625 439.105469 L 653.542969 439.46875 L 653.796875 439.871094 L 654.035156 440.3125 L 654.246094 440.792969 L 654.433594 441.3125 L 654.597656 441.867188 L 654.734375 442.457031 L 654.847656 443.085938 L 654.933594 443.753906 L 654.996094 444.453125 L 655.035156 445.195312 L 655.046875 445.96875 L 655.035156 446.753906 L 654.996094 447.496094 L 654.933594 448.207031 L 654.847656 448.878906 L 654.734375 449.515625 L 654.597656 450.113281 L 654.433594 450.675781 L 654.246094 451.203125 L 654.035156 451.691406 L 653.796875 452.144531 L 653.542969 452.558594 L 653.265625 452.929688 L 652.964844 453.253906 L 652.644531 453.539062 L 652.304688 453.777344 L 651.941406 453.972656 L 651.554688 454.125 L 651.148438 454.234375 L 650.722656 454.300781 Z M 650.273438 453.371094 L 650.601562 453.351562 L 650.914062 453.296875 L 651.214844 453.203125 L 651.5 453.070312 L 651.773438 452.902344 L 652.03125 452.695312 L 652.273438 452.453125 L 652.503906 452.171875 L 652.71875 451.851562 L 652.921875 451.496094 L 653.113281 451.101562 L 653.28125 450.675781 L 653.433594 450.210938 L 653.5625 449.710938 L 653.671875 449.175781 L 653.761719 448.605469 L 653.832031 448 L 653.882812 447.359375 L 653.914062 446.683594 L 653.921875 445.96875 L 653.914062 445.257812 L 653.882812 444.585938 L 653.832031 443.945312 L 653.761719 443.347656 L 653.671875 442.78125 L 653.5625 442.257812 L 653.433594 441.765625 L 653.28125 441.316406 L 653.113281 440.898438 L 652.921875 440.519531 L 652.71875 440.175781 L 652.503906 439.863281 L 652.273438 439.589844 L 652.03125 439.351562 L 651.773438 439.152344 L 651.5 438.988281 L 651.214844 438.859375 L 650.914062 438.769531 L 650.601562 438.714844 L 650.273438 438.695312 L 649.949219 438.714844 L 649.636719 438.769531 L 649.339844 438.859375 L 649.054688 438.988281 L 648.785156 439.152344 L 648.527344 439.351562 L 648.28125 439.589844 L 648.046875 439.863281 L 647.828125 440.175781 L 647.621094 440.519531 L 647.433594 440.898438 L 647.261719 441.316406 L 647.113281 441.765625 L 646.980469 442.257812 L 646.871094 442.78125 L 646.78125 443.347656 L 646.710938 443.945312 L 646.664062 444.585938 L 646.632812 445.257812 L 646.621094 445.96875 L 646.632812 446.683594 L 646.664062 447.359375 L 646.710938 448 L 646.78125 448.605469 L 646.871094 449.175781 L 646.980469 449.710938 L 647.113281 450.210938 L 647.261719 450.675781 L 647.433594 451.101562 L 647.621094 451.496094 L 647.828125 451.851562 L 648.046875 452.171875 L 648.28125 452.453125 L 648.527344 452.695312 L 648.785156 452.902344 L 649.054688 453.070312 L 649.339844 453.203125 L 649.636719 453.296875 L 649.949219 453.351562 Z M 650.273438 453.371094 "/>
</svg>
