<?xml version="1.0" encoding="UTF-8"?>
<svg xmlns="http://www.w3.org/2000/svg" xmlns:xlink="http://www.w3.org/1999/xlink" width="648" height="468" viewBox="0 0 648 468">
<defs>
<clipPath id="clip-0">
<path clip-rule="nonzero" d="M 63.714844 13.449219 L 634.550781 13.449219 L 634.550781 417.070312 L 63.714844 417.070312 Z M 63.714844 13.449219 "/>
</clipPath>
<clipPath id="clip-1">
<path clip-rule="nonzero" d="M 348 13.449219 L 350 13.449219 L 350 417.070312 L 348 417.070312 Z M 348 13.449219 "/>
</clipPath>
</defs>
<rect x="-64.8" y="-46.8" width="777.6" height="561.6" fill="rgb(100%, 100%, 100%)" fill-opacity="1"/>
<rect x="-64.8" y="-46.8" width="777.6" height="561.6" fill="rgb(95.294118%, 95.294118%, 95.294118%)" fill-opacity="1"/>
<path fill="none" stroke-width="2.618947" stroke-linecap="round" stroke-linejoin="round" stroke="rgb(95.294118%, 95.294118%, 95.294118%)" stroke-opacity="1" stroke-miterlimit="10" d="M 0 468 L 648 468 L 648 0 L 0 0 Z M 0 468 "/>
<g clip-path="url(#clip-0)">
<path fill-rule="nonzero" fill="rgb(95.294118%, 95.294118%, 95.294118%)" fill-opacity="1" stroke-width="2.618947" stroke-linecap="round" stroke-linejoin="round" stroke="rgb(95.294118%, 95.294118%, 95.294118%)" stroke-opacity="1" stroke-miterlimit="10" d="M 63.714844 417.070312 L 634.550781 417.070312 L 634.550781 13.449219 L 63.714844 13.449219 Z M 63.714844 417.070312 "/>
</g>
<path fill="none" stroke-width="3.200935" stroke-linecap="butt" stroke-linejoin="round" stroke="rgb(56.078431%, 16.470588%, 26.27451%)" stroke-opacity="1" stroke-miterlimit="10" d="M 349.175781 153.355469 L 352.445312 153.039062 L 355.710938 152.722656 L 358.980469 152.40625 L 362.246094 152.085938 L 368.785156 151.445312 L 372.050781 151.121094 L 375.320312 150.796875 L 378.589844 150.46875 L 381.855469 150.140625 L 388.394531 149.484375 L 391.660156 149.152344 L 394.929688 148.816406 L 398.199219 148.484375 L 401.464844 148.148438 L 404.734375 147.808594 L 408 147.472656 L 411.269531 147.132812 L 414.539062 146.789062 L 417.804688 146.445312 L 424.34375 145.757812 L 427.609375 145.410156 L 430.878906 145.0625 L 434.148438 144.710938 L 437.414062 144.359375 L 443.953125 143.65625 L 447.21875 143.300781 L 450.488281 142.941406 L 453.753906 142.585938 L 457.023438 142.226562 L 460.292969 141.863281 L 463.558594 141.503906 L 466.828125 141.136719 L 470.097656 140.773438 L 473.363281 140.40625 L 479.902344 139.671875 L 483.167969 139.300781 L 486.4375 138.929688 L 489.703125 138.554688 L 496.242188 137.804688 L 499.507812 137.425781 L 506.046875 136.667969 L 509.3125 136.285156 L 515.851562 135.519531 L 519.117188 135.132812 L 522.386719 134.746094 L 525.65625 134.355469 L 528.921875 133.96875 L 532.191406 133.574219 L 535.457031 133.183594 L 541.996094 132.394531 L 545.261719 131.996094 L 551.800781 131.199219 L 555.066406 130.796875 L 561.605469 129.992188 L 564.871094 129.585938 L 571.410156 128.773438 L 574.675781 128.363281 L 577.945312 127.953125 L 581.210938 127.539062 L 587.75 126.710938 L 591.015625 126.296875 L 594.285156 125.878906 L 597.554688 125.457031 L 600.820312 125.039062 L 607.359375 124.195312 "/>
<path fill="none" stroke-width="3.200935" stroke-linecap="butt" stroke-linejoin="round" stroke="rgb(16.470588%, 56.078431%, 46.27451%)" stroke-opacity="1" stroke-miterlimit="10" d="M 90.8125 356.132812 L 107.160156 354.863281 L 110.429688 354.605469 L 113.699219 354.351562 L 116.972656 354.09375 L 133.320312 352.804688 L 139.859375 352.28125 L 143.128906 352.023438 L 149.667969 351.5 L 152.9375 351.234375 L 156.207031 350.972656 L 159.480469 350.710938 L 182.367188 348.851562 L 188.90625 348.3125 L 192.175781 348.046875 L 198.714844 347.507812 L 201.984375 347.234375 L 205.257812 346.964844 L 208.527344 346.691406 L 211.796875 346.421875 L 228.144531 345.054688 L 231.414062 344.777344 L 234.683594 344.503906 L 244.492188 343.671875 L 247.765625 343.394531 L 251.035156 343.117188 L 254.304688 342.835938 L 257.574219 342.558594 L 277.191406 340.871094 L 280.460938 340.585938 L 283.730469 340.304688 L 290.269531 339.734375 L 293.542969 339.449219 L 300.082031 338.878906 L 303.351562 338.589844 L 306.621094 338.304688 L 326.238281 336.570312 L 329.507812 336.277344 L 332.777344 335.988281 L 336.046875 335.695312 L 339.320312 335.402344 L 345.859375 334.816406 L 349.128906 334.519531 "/>
<path fill="none" stroke-width="3.200935" stroke-linecap="butt" stroke-linejoin="round" stroke="rgb(56.078431%, 16.470588%, 26.27451%)" stroke-opacity="1" stroke-dasharray="3.200935 9.602805" stroke-miterlimit="10" d="M 90.523438 186.515625 L 93.796875 185.976562 L 97.070312 185.445312 L 103.617188 184.390625 L 106.890625 183.867188 L 110.160156 183.34375 L 116.707031 182.3125 L 123.253906 181.289062 L 129.800781 180.28125 L 136.347656 179.28125 L 142.894531 178.296875 L 146.164062 177.808594 L 149.4375 177.320312 L 155.984375 176.359375 L 162.53125 175.40625 L 169.078125 174.46875 L 175.625 173.539062 L 178.898438 173.082031 L 182.167969 172.625 L 188.714844 171.71875 L 195.261719 170.828125 L 201.808594 169.945312 L 205.082031 169.507812 L 208.355469 169.078125 L 211.628906 168.644531 L 214.902344 168.21875 L 218.171875 167.792969 L 221.445312 167.375 L 224.71875 166.953125 L 231.265625 166.125 L 234.539062 165.71875 L 237.8125 165.308594 L 244.359375 164.503906 L 247.632812 164.109375 L 250.902344 163.710938 L 257.449219 162.929688 L 260.722656 162.546875 L 263.996094 162.160156 L 270.542969 161.402344 L 273.816406 161.03125 L 277.089844 160.65625 L 283.636719 159.921875 L 286.90625 159.5625 L 290.179688 159.199219 L 296.726562 158.488281 L 300 158.140625 L 303.273438 157.789062 L 309.820312 157.101562 L 313.09375 156.761719 L 316.367188 156.425781 L 319.640625 156.09375 L 322.910156 155.761719 L 326.183594 155.433594 L 329.457031 155.109375 L 336.003906 154.46875 L 339.277344 154.152344 L 342.550781 153.839844 L 349.097656 153.222656 "/>
<path fill="none" stroke-width="3.200935" stroke-linecap="butt" stroke-linejoin="round" stroke="rgb(16.470588%, 56.078431%, 46.27451%)" stroke-opacity="1" stroke-dasharray="3.200935 9.602805" stroke-miterlimit="10" d="M 349.195312 334.71875 L 355.71875 333.929688 L 362.242188 333.148438 L 365.5 332.761719 L 368.761719 332.371094 L 381.808594 330.839844 L 385.070312 330.460938 L 388.332031 330.085938 L 391.59375 329.707031 L 394.855469 329.335938 L 398.117188 328.960938 L 401.378906 328.589844 L 411.164062 327.488281 L 414.421875 327.125 L 417.683594 326.761719 L 427.46875 325.683594 L 433.992188 324.972656 L 440.515625 324.269531 L 450.300781 323.226562 L 456.824219 322.539062 L 460.085938 322.199219 L 463.34375 321.859375 L 466.605469 321.519531 L 473.128906 320.847656 L 479.652344 320.183594 L 489.4375 319.199219 L 495.960938 318.550781 L 505.746094 317.589844 L 509.007812 317.273438 L 512.265625 316.960938 L 515.527344 316.644531 L 518.789062 316.335938 L 522.050781 316.023438 L 525.3125 315.714844 L 528.574219 315.410156 L 531.835938 315.101562 L 535.097656 314.800781 L 538.359375 314.496094 L 541.621094 314.199219 L 544.882812 313.898438 L 551.40625 313.304688 L 557.929688 312.71875 L 561.1875 312.429688 L 567.710938 311.851562 L 570.972656 311.566406 L 574.234375 311.285156 L 577.496094 311 L 580.757812 310.71875 L 590.542969 309.886719 L 597.066406 309.339844 L 603.589844 308.800781 L 606.851562 308.535156 "/>
<g clip-path="url(#clip-1)">
<path fill="none" stroke-width="1.066978" stroke-linecap="butt" stroke-linejoin="round" stroke="rgb(0%, 0%, 0%)" stroke-opacity="1" stroke-dasharray="4.267913 4.267913" stroke-miterlimit="10" d="M 349.132812 417.070312 L 349.132812 13.449219 "/>
</g>
<path fill="none" stroke-width="1.066978" stroke-linecap="butt" stroke-linejoin="round" stroke="rgb(0%, 0%, 0%)" stroke-opacity="1" stroke-miterlimit="10" d="M 63.714844 417.070312 L 634.550781 417.070312 "/>
<path fill-rule="nonzero" fill="rgb(0%, 0%, 0%)" fill-opacity="1" d="M 308.539062 448.636719 L 308.152344 448.628906 L 307.777344 448.605469 L 307.410156 448.570312 L 307.050781 448.515625 L 306.703125 448.449219 L 306.359375 448.367188 L 306.027344 448.265625 L 305.703125 448.152344 L 305.386719 448.023438 L 305.082031 447.882812 L 304.785156 447.726562 L 304.496094 447.5625 L 304.214844 447.390625 L 303.945312 447.210938 L 303.683594 447.023438 L 303.433594 446.828125 L 303.191406 446.625 L 302.957031 446.414062 L 302.730469 446.191406 L 302.515625 445.964844 L 303.328125 445.101562 L 303.523438 445.3125 L 303.730469 445.515625 L 303.945312 445.710938 L 304.164062 445.898438 L 304.394531 446.078125 L 304.628906 446.25 L 304.871094 446.414062 L 305.125 446.570312 L 305.382812 446.714844 L 305.648438 446.855469 L 305.921875 446.980469 L 306.195312 447.089844 L 306.476562 447.1875 L 306.757812 447.269531 L 307.046875 447.339844 L 307.335938 447.398438 L 307.632812 447.445312 L 307.929688 447.476562 L 308.230469 447.496094 L 308.539062 447.503906 L 308.9375 447.492188 L 309.324219 447.464844 L 309.691406 447.414062 L 310.039062 447.34375 L 310.375 447.253906 L 310.6875 447.144531 L 310.988281 447.015625 L 311.269531 446.863281 L 311.53125 446.695312 L 311.777344 446.503906 L 312.003906 446.300781 L 312.207031 446.082031 L 312.382812 445.855469 L 312.539062 445.613281 L 312.667969 445.363281 L 312.777344 445.101562 L 312.859375 444.828125 L 312.917969 444.542969 L 312.953125 444.246094 L 312.964844 443.9375 L 312.960938 443.722656 L 312.949219 443.515625 L 312.925781 443.3125 L 312.894531 443.121094 L 312.859375 442.941406 L 312.808594 442.765625 L 312.753906 442.601562 L 312.6875 442.445312 L 312.617188 442.296875 L 312.535156 442.15625 L 312.445312 442.023438 L 312.347656 441.898438 L 312.246094 441.773438 L 312.140625 441.65625 L 312.027344 441.542969 L 311.910156 441.433594 L 311.78125 441.332031 L 311.652344 441.234375 L 311.515625 441.140625 L 311.371094 441.050781 L 311.230469 440.960938 L 311.085938 440.871094 L 310.933594 440.78125 L 310.78125 440.695312 L 310.625 440.613281 L 310.460938 440.527344 L 310.296875 440.449219 L 310.128906 440.367188 L 309.957031 440.289062 L 309.78125 440.214844 L 307.078125 439 L 306.773438 438.851562 L 306.617188 438.773438 L 306.457031 438.691406 L 306.296875 438.605469 L 306.132812 438.519531 L 305.96875 438.425781 L 305.800781 438.332031 L 305.632812 438.234375 L 305.460938 438.132812 L 305.292969 438.023438 L 305.132812 437.90625 L 304.980469 437.785156 L 304.828125 437.65625 L 304.683594 437.519531 L 304.542969 437.378906 L 304.40625 437.234375 L 304.277344 437.082031 L 304.148438 436.921875 L 304.027344 436.757812 L 303.921875 436.578125 L 303.824219 436.394531 L 303.738281 436.199219 L 303.664062 435.992188 L 303.601562 435.777344 L 303.550781 435.554688 L 303.511719 435.324219 L 303.484375 435.082031 L 303.46875 434.832031 L 303.460938 434.570312 L 303.46875 434.316406 L 303.488281 434.066406 L 303.523438 433.820312 L 303.570312 433.585938 L 303.628906 433.355469 L 303.703125 433.132812 L 303.792969 432.914062 L 303.894531 432.703125 L 304.007812 432.5 L 304.136719 432.300781 L 304.277344 432.105469 L 304.425781 431.921875 L 304.585938 431.746094 L 304.753906 431.578125 L 304.933594 431.417969 L 305.121094 431.269531 L 305.320312 431.128906 L 305.527344 430.996094 L 305.746094 430.875 L 305.972656 430.761719 L 306.214844 430.65625 L 306.460938 430.558594 L 306.710938 430.472656 L 306.96875 430.402344 L 307.234375 430.339844 L 307.503906 430.289062 L 307.78125 430.246094 L 308.0625 430.21875 L 308.351562 430.203125 L 308.644531 430.195312 L 308.960938 430.203125 L 309.269531 430.222656 L 309.570312 430.253906 L 309.867188 430.300781 L 310.15625 430.359375 L 310.441406 430.429688 L 310.71875 430.515625 L 310.988281 430.609375 L 311.25 430.722656 L 311.507812 430.84375 L 311.757812 430.972656 L 311.996094 431.101562 L 312.226562 431.238281 L 312.449219 431.378906 L 312.660156 431.527344 L 312.863281 431.675781 L 313.058594 431.832031 L 313.246094 431.992188 L 313.421875 432.160156 L 313.585938 432.328125 L 312.882812 433.140625 L 312.726562 432.980469 L 312.558594 432.828125 L 312.390625 432.683594 L 312.214844 432.542969 L 312.035156 432.410156 L 311.847656 432.285156 L 311.65625 432.164062 L 311.457031 432.050781 L 311.257812 431.945312 L 311.046875 431.84375 L 310.835938 431.746094 L 310.617188 431.660156 L 310.390625 431.582031 L 310.160156 431.515625 L 309.921875 431.457031 L 309.679688 431.414062 L 309.429688 431.375 L 309.171875 431.351562 L 308.914062 431.335938 L 308.644531 431.332031 L 308.300781 431.339844 L 307.96875 431.363281 L 307.652344 431.40625 L 307.34375 431.46875 L 307.050781 431.546875 L 306.773438 431.640625 L 306.507812 431.753906 L 306.253906 431.882812 L 306.011719 432.03125 L 305.785156 432.195312 L 305.578125 432.375 L 305.394531 432.5625 L 305.234375 432.765625 L 305.09375 432.980469 L 304.972656 433.207031 L 304.875 433.445312 L 304.800781 433.695312 L 304.746094 433.957031 L 304.714844 434.230469 L 304.703125 434.515625 L 304.707031 434.71875 L 304.722656 434.910156 L 304.746094 435.097656 L 304.78125 435.277344 L 304.824219 435.449219 L 304.878906 435.613281 L 304.941406 435.769531 L 305.015625 435.917969 L 305.097656 436.058594 L 305.191406 436.191406 L 305.292969 436.316406 L 305.402344 436.441406 L 305.515625 436.558594 L 305.628906 436.671875 L 305.75 436.777344 L 306 436.980469 L 306.265625 437.160156 L 306.40625 437.242188 L 306.550781 437.324219 L 306.691406 437.402344 L 306.835938 437.476562 L 306.976562 437.550781 L 307.25 437.691406 L 307.386719 437.757812 L 307.519531 437.824219 L 307.652344 437.886719 L 307.78125 437.945312 L 310.480469 439.132812 L 310.679688 439.222656 L 310.875 439.3125 L 311.066406 439.40625 L 311.253906 439.503906 L 311.441406 439.605469 L 311.800781 439.816406 L 311.976562 439.929688 L 312.148438 440.042969 L 312.316406 440.160156 L 312.488281 440.277344 L 312.648438 440.398438 L 312.804688 440.527344 L 312.953125 440.664062 L 313.09375 440.808594 L 313.226562 440.957031 L 313.355469 441.113281 L 313.476562 441.273438 L 313.589844 441.441406 L 313.695312 441.617188 L 313.796875 441.796875 L 313.890625 441.984375 L 313.96875 442.183594 L 314.039062 442.390625 L 314.097656 442.609375 L 314.148438 442.839844 L 314.1875 443.078125 L 314.214844 443.328125 L 314.230469 443.589844 L 314.234375 443.859375 L 314.226562 444.125 L 314.207031 444.390625 L 314.171875 444.648438 L 314.121094 444.898438 L 314.058594 445.148438 L 313.980469 445.390625 L 313.890625 445.628906 L 313.785156 445.863281 L 313.664062 446.089844 L 313.53125 446.316406 L 313.386719 446.527344 L 313.226562 446.730469 L 313.058594 446.921875 L 312.875 447.105469 L 312.683594 447.28125 L 312.476562 447.445312 L 312.257812 447.601562 L 312.027344 447.75 L 311.789062 447.886719 L 311.535156 448.015625 L 311.277344 448.132812 L 311.007812 448.238281 L 310.730469 448.332031 L 310.445312 448.414062 L 310.152344 448.480469 L 309.847656 448.539062 L 309.53125 448.582031 L 309.210938 448.613281 L 308.878906 448.632812 Z M 308.539062 448.636719 "/>
<path fill-rule="nonzero" fill="rgb(0%, 0%, 0%)" fill-opacity="1" d="M 322.632812 448.636719 L 322.300781 448.628906 L 321.976562 448.605469 L 321.65625 448.566406 L 321.34375 448.511719 L 321.039062 448.441406 L 320.738281 448.355469 L 320.445312 448.253906 L 320.160156 448.136719 L 319.878906 448.003906 L 319.609375 447.855469 L 319.347656 447.683594 L 319.101562 447.503906 L 318.863281 447.304688 L 318.636719 447.09375 L 318.417969 446.867188 L 318.214844 446.628906 L 318.019531 446.375 L 317.835938 446.109375 L 317.664062 445.828125 L 317.5 445.53125 L 317.359375 445.21875 L 317.230469 444.894531 L 317.117188 444.554688 L 317.019531 444.207031 L 316.933594 443.84375 L 316.867188 443.472656 L 316.8125 443.085938 L 316.777344 442.691406 L 316.753906 442.28125 L 316.746094 441.859375 L 316.753906 441.429688 L 316.777344 441.011719 L 316.820312 440.609375 L 316.875 440.21875 L 316.949219 439.84375 L 317.039062 439.480469 L 317.140625 439.128906 L 317.265625 438.792969 L 317.402344 438.46875 L 317.554688 438.160156 L 317.726562 437.859375 L 317.910156 437.574219 L 318.105469 437.304688 L 318.308594 437.050781 L 318.519531 436.8125 L 318.746094 436.585938 L 318.980469 436.378906 L 319.222656 436.183594 L 319.476562 436.003906 L 319.742188 435.839844 L 320.015625 435.683594 L 320.292969 435.546875 L 320.570312 435.425781 L 320.855469 435.320312 L 321.148438 435.230469 L 321.441406 435.160156 L 321.738281 435.101562 L 322.039062 435.0625 L 322.347656 435.039062 L 322.660156 435.03125 L 322.925781 435.035156 L 323.179688 435.050781 L 323.425781 435.074219 L 323.664062 435.105469 L 323.894531 435.152344 L 324.113281 435.203125 L 324.324219 435.265625 L 324.523438 435.339844 L 324.714844 435.421875 L 324.898438 435.515625 L 325.074219 435.613281 L 325.246094 435.714844 L 325.414062 435.820312 L 325.578125 435.925781 L 325.738281 436.035156 L 326.042969 436.261719 L 326.1875 436.378906 L 326.328125 436.5 L 326.464844 436.621094 L 325.761719 437.460938 L 325.636719 437.34375 L 325.507812 437.230469 L 325.378906 437.121094 L 325.246094 437.019531 L 325.109375 436.917969 L 324.96875 436.824219 L 324.828125 436.734375 L 324.683594 436.648438 L 324.535156 436.566406 L 324.386719 436.488281 L 324.234375 436.410156 L 324.078125 436.339844 L 323.914062 436.28125 L 323.75 436.226562 L 323.582031 436.183594 L 323.410156 436.148438 L 323.234375 436.117188 L 323.054688 436.097656 L 322.871094 436.085938 L 322.683594 436.082031 L 322.421875 436.089844 L 322.167969 436.113281 L 321.914062 436.148438 L 321.664062 436.199219 L 321.421875 436.265625 L 321.183594 436.34375 L 320.953125 436.441406 L 320.722656 436.550781 L 320.5 436.671875 L 320.28125 436.8125 L 320.078125 436.964844 L 319.878906 437.125 L 319.691406 437.300781 L 319.507812 437.484375 L 319.335938 437.683594 L 319.175781 437.890625 L 319.019531 438.109375 L 318.875 438.339844 L 318.738281 438.582031 L 318.609375 438.835938 L 318.492188 439.101562 L 318.386719 439.371094 L 318.292969 439.652344 L 318.210938 439.941406 L 318.144531 440.242188 L 318.085938 440.546875 L 318.042969 440.863281 L 318.011719 441.1875 L 317.992188 441.519531 L 317.988281 441.859375 L 317.992188 442.195312 L 318.011719 442.523438 L 318.039062 442.84375 L 318.078125 443.15625 L 318.128906 443.460938 L 318.191406 443.753906 L 318.265625 444.042969 L 318.351562 444.324219 L 318.445312 444.59375 L 318.554688 444.859375 L 318.679688 445.105469 L 318.808594 445.34375 L 318.953125 445.570312 L 319.101562 445.785156 L 319.261719 445.992188 L 319.433594 446.1875 L 319.609375 446.371094 L 319.796875 446.542969 L 319.996094 446.703125 L 320.203125 446.855469 L 320.421875 446.992188 L 320.648438 447.117188 L 320.878906 447.226562 L 321.117188 447.320312 L 321.363281 447.402344 L 321.613281 447.46875 L 321.871094 447.519531 L 322.136719 447.554688 L 322.40625 447.578125 L 322.683594 447.585938 L 322.890625 447.582031 L 323.089844 447.566406 L 323.285156 447.546875 L 323.480469 447.515625 L 323.671875 447.476562 L 323.859375 447.429688 L 324.042969 447.371094 L 324.222656 447.308594 L 324.402344 447.234375 L 324.574219 447.152344 L 324.75 447.058594 L 324.921875 446.964844 L 325.089844 446.863281 L 325.253906 446.761719 L 325.414062 446.660156 L 325.566406 446.554688 L 325.71875 446.445312 L 325.863281 446.332031 L 326.003906 446.21875 L 326.140625 446.097656 L 326.761719 446.9375 L 326.59375 447.078125 L 326.421875 447.21875 L 326.242188 447.351562 L 326.0625 447.480469 L 325.878906 447.605469 L 325.691406 447.722656 L 325.5 447.839844 L 325.300781 447.949219 L 325.101562 448.050781 L 324.898438 448.152344 L 324.691406 448.242188 L 324.480469 448.328125 L 324.265625 448.398438 L 324.042969 448.460938 L 323.820312 448.515625 L 323.589844 448.558594 L 323.355469 448.59375 L 323.121094 448.617188 L 322.878906 448.632812 Z M 322.632812 448.636719 "/>
<path fill-rule="nonzero" fill="rgb(0%, 0%, 0%)" fill-opacity="1" d="M 334.671875 448.636719 L 334.367188 448.628906 L 334.066406 448.605469 L 333.769531 448.566406 L 333.476562 448.511719 L 333.1875 448.441406 L 332.90625 448.355469 L 332.625 448.253906 L 332.347656 448.136719 L 332.078125 448.003906 L 331.8125 447.855469 L 331.550781 447.683594 L 331.304688 447.503906 L 331.0625 447.304688 L 330.835938 447.09375 L 330.617188 446.867188 L 330.410156 446.628906 L 330.210938 446.375 L 330.023438 446.109375 L 329.84375 445.828125 L 329.679688 445.53125 L 329.523438 445.21875 L 329.386719 444.894531 L 329.265625 444.554688 L 329.160156 444.207031 L 329.070312 443.84375 L 329 443.472656 L 328.941406 443.085938 L 328.902344 442.691406 L 328.875 442.28125 L 328.867188 441.859375 L 328.875 441.429688 L 328.902344 441.011719 L 328.941406 440.609375 L 329 440.21875 L 329.070312 439.84375 L 329.160156 439.480469 L 329.265625 439.128906 L 329.386719 438.792969 L 329.523438 438.46875 L 329.679688 438.160156 L 329.84375 437.859375 L 330.023438 437.574219 L 330.210938 437.304688 L 330.410156 437.050781 L 330.617188 436.8125 L 330.835938 436.585938 L 331.0625 436.378906 L 331.304688 436.183594 L 331.550781 436.003906 L 331.8125 435.839844 L 332.078125 435.683594 L 332.347656 435.546875 L 332.625 435.425781 L 332.90625 435.320312 L 333.1875 435.230469 L 333.476562 435.160156 L 333.769531 435.101562 L 334.066406 435.0625 L 334.367188 435.039062 L 334.671875 435.03125 L 334.984375 435.039062 L 335.289062 435.0625 L 335.589844 435.101562 L 335.886719 435.160156 L 336.179688 435.230469 L 336.464844 435.320312 L 336.746094 435.425781 L 337.023438 435.546875 L 337.296875 435.683594 L 337.5625 435.839844 L 337.820312 436.003906 L 338.070312 436.183594 L 338.308594 436.378906 L 338.539062 436.585938 L 338.757812 436.8125 L 338.964844 437.050781 L 339.164062 437.304688 L 339.351562 437.574219 L 339.527344 437.859375 L 339.695312 438.160156 L 339.847656 438.46875 L 339.988281 438.792969 L 340.109375 439.128906 L 340.214844 439.480469 L 340.304688 439.84375 L 340.375 440.21875 L 340.433594 440.609375 L 340.472656 441.011719 L 340.496094 441.429688 L 340.503906 441.859375 L 340.496094 442.28125 L 340.472656 442.691406 L 340.433594 443.085938 L 340.375 443.472656 L 340.304688 443.84375 L 340.214844 444.207031 L 340.109375 444.554688 L 339.988281 444.894531 L 339.847656 445.21875 L 339.695312 445.53125 L 339.527344 445.828125 L 339.351562 446.109375 L 339.164062 446.375 L 338.964844 446.628906 L 338.757812 446.867188 L 338.539062 447.09375 L 338.308594 447.304688 L 338.070312 447.503906 L 337.820312 447.683594 L 337.5625 447.855469 L 337.296875 448.003906 L 337.023438 448.136719 L 336.746094 448.253906 L 336.464844 448.355469 L 336.179688 448.441406 L 335.886719 448.511719 L 335.589844 448.566406 L 335.289062 448.605469 L 334.984375 448.628906 Z M 334.671875 447.585938 L 334.933594 447.578125 L 335.191406 447.554688 L 335.441406 447.519531 L 335.683594 447.46875 L 335.921875 447.402344 L 336.152344 447.320312 L 336.378906 447.226562 L 336.601562 447.117188 L 336.8125 446.992188 L 337.023438 446.855469 L 337.222656 446.703125 L 337.414062 446.542969 L 337.597656 446.371094 L 337.773438 446.1875 L 337.941406 445.992188 L 338.097656 445.785156 L 338.246094 445.570312 L 338.386719 445.34375 L 338.519531 445.105469 L 338.640625 444.859375 L 338.761719 444.59375 L 338.867188 444.324219 L 338.960938 444.042969 L 339.039062 443.753906 L 339.109375 443.460938 L 339.164062 443.15625 L 339.207031 442.84375 L 339.238281 442.523438 L 339.257812 442.195312 L 339.261719 441.859375 L 339.257812 441.519531 L 339.238281 441.1875 L 339.207031 440.863281 L 339.164062 440.546875 L 339.109375 440.242188 L 339.039062 439.941406 L 338.960938 439.652344 L 338.867188 439.371094 L 338.761719 439.101562 L 338.640625 438.835938 L 338.519531 438.582031 L 338.386719 438.339844 L 338.246094 438.109375 L 338.097656 437.890625 L 337.941406 437.683594 L 337.773438 437.484375 L 337.597656 437.300781 L 337.414062 437.125 L 337.222656 436.964844 L 337.023438 436.8125 L 336.8125 436.671875 L 336.601562 436.550781 L 336.378906 436.441406 L 336.152344 436.34375 L 335.921875 436.265625 L 335.683594 436.199219 L 335.441406 436.148438 L 335.191406 436.113281 L 334.933594 436.089844 L 334.671875 436.082031 L 334.417969 436.089844 L 334.164062 436.113281 L 333.917969 436.148438 L 333.675781 436.199219 L 333.4375 436.265625 L 333.207031 436.34375 L 332.976562 436.441406 L 332.753906 436.550781 L 332.539062 436.671875 L 332.324219 436.8125 L 332.125 436.964844 L 331.929688 437.125 L 331.746094 437.300781 L 331.574219 437.484375 L 331.40625 437.683594 L 331.25 437.890625 L 331.101562 438.109375 L 330.960938 438.339844 L 330.828125 438.582031 L 330.703125 438.835938 L 330.589844 439.101562 L 330.492188 439.371094 L 330.402344 439.652344 L 330.324219 439.941406 L 330.257812 440.242188 L 330.207031 440.546875 L 330.164062 440.863281 L 330.132812 441.1875 L 330.117188 441.519531 L 330.109375 441.859375 L 330.117188 442.195312 L 330.132812 442.523438 L 330.164062 442.84375 L 330.207031 443.15625 L 330.257812 443.460938 L 330.324219 443.753906 L 330.402344 444.042969 L 330.492188 444.324219 L 330.589844 444.59375 L 330.703125 444.859375 L 330.828125 445.105469 L 330.960938 445.34375 L 331.101562 445.570312 L 331.25 445.785156 L 331.40625 445.992188 L 331.574219 446.1875 L 331.746094 446.371094 L 331.929688 446.542969 L 332.125 446.703125 L 332.324219 446.855469 L 332.539062 446.992188 L 332.753906 447.117188 L 332.976562 447.226562 L 333.207031 447.320312 L 333.4375 447.402344 L 333.675781 447.46875 L 333.917969 447.519531 L 334.164062 447.554688 L 334.417969 447.578125 Z M 334.671875 447.585938 "/>
<path fill-rule="nonzero" fill="rgb(0%, 0%, 0%)" fill-opacity="1" d="M 344.394531 448.3125 L 344.394531 435.351562 L 345.417969 435.351562 L 345.527344 437.757812 L 345.609375 437.757812 L 345.742188 437.523438 L 345.878906 437.296875 L 346.023438 437.082031 L 346.171875 436.875 L 346.324219 436.675781 L 346.484375 436.488281 L 346.648438 436.304688 L 346.816406 436.132812 L 346.992188 435.96875 L 347.175781 435.8125 L 347.367188 435.664062 L 347.5625 435.53125 L 347.761719 435.414062 L 347.964844 435.3125 L 348.171875 435.226562 L 348.386719 435.15625 L 348.601562 435.101562 L 348.824219 435.0625 L 349.050781 435.039062 L 349.28125 435.03125 L 349.429688 435.03125 L 349.570312 435.039062 L 349.636719 435.042969 L 349.703125 435.050781 L 349.769531 435.054688 L 349.832031 435.0625 L 349.894531 435.074219 L 349.957031 435.082031 L 350.015625 435.09375 L 350.074219 435.109375 L 350.136719 435.125 L 350.199219 435.144531 L 350.257812 435.164062 L 350.382812 435.210938 L 350.449219 435.238281 L 350.511719 435.269531 L 350.578125 435.300781 L 350.304688 436.378906 L 350.242188 436.355469 L 350.179688 436.328125 L 350.121094 436.308594 L 350.058594 436.289062 L 350.003906 436.269531 L 349.945312 436.257812 L 349.894531 436.242188 L 349.839844 436.234375 L 349.789062 436.222656 L 349.738281 436.21875 L 349.691406 436.207031 L 349.582031 436.191406 L 349.523438 436.183594 L 349.460938 436.175781 L 349.398438 436.171875 L 349.265625 436.164062 L 349.117188 436.164062 L 348.945312 436.171875 L 348.769531 436.195312 L 348.589844 436.230469 L 348.410156 436.285156 L 348.226562 436.351562 L 348.042969 436.4375 L 347.855469 436.535156 L 347.667969 436.648438 L 347.476562 436.777344 L 347.28125 436.917969 L 347.09375 437.078125 L 346.910156 437.253906 L 346.734375 437.457031 L 346.558594 437.679688 L 346.386719 437.925781 L 346.214844 438.191406 L 346.050781 438.484375 L 345.890625 438.792969 L 345.734375 439.128906 L 345.582031 439.484375 L 345.582031 448.3125 Z M 344.394531 448.3125 "/>
<path fill-rule="nonzero" fill="rgb(0%, 0%, 0%)" fill-opacity="1" d="M 357.867188 448.636719 L 357.539062 448.628906 L 357.21875 448.605469 L 356.902344 448.566406 L 356.59375 448.507812 L 356.285156 448.433594 L 355.988281 448.347656 L 355.691406 448.242188 L 355.402344 448.117188 L 355.121094 447.980469 L 354.84375 447.828125 L 354.578125 447.660156 L 354.324219 447.476562 L 354.082031 447.277344 L 353.847656 447.066406 L 353.628906 446.84375 L 353.417969 446.601562 L 353.21875 446.347656 L 353.027344 446.082031 L 352.851562 445.800781 L 352.683594 445.503906 L 352.527344 445.191406 L 352.390625 444.867188 L 352.269531 444.53125 L 352.164062 444.183594 L 352.074219 443.824219 L 352.003906 443.453125 L 351.945312 443.074219 L 351.90625 442.679688 L 351.878906 442.277344 L 351.871094 441.859375 L 351.878906 441.441406 L 351.90625 441.03125 L 351.945312 440.636719 L 352.003906 440.253906 L 352.074219 439.882812 L 352.164062 439.523438 L 352.269531 439.179688 L 352.390625 438.84375 L 352.527344 438.523438 L 352.683594 438.214844 L 352.847656 437.914062 L 353.027344 437.628906 L 353.210938 437.359375 L 353.410156 437.101562 L 353.613281 436.859375 L 353.828125 436.632812 L 354.054688 436.417969 L 354.289062 436.21875 L 354.535156 436.035156 L 354.789062 435.867188 L 355.050781 435.707031 L 355.3125 435.566406 L 355.578125 435.441406 L 355.847656 435.332031 L 356.117188 435.238281 L 356.390625 435.164062 L 356.667969 435.105469 L 356.949219 435.0625 L 357.230469 435.039062 L 357.515625 435.03125 L 357.96875 435.046875 L 358.40625 435.09375 L 358.820312 435.171875 L 359.214844 435.28125 L 359.585938 435.421875 L 359.941406 435.59375 L 360.277344 435.796875 L 360.589844 436.03125 L 360.886719 436.296875 L 361.160156 436.59375 L 361.410156 436.921875 L 361.636719 437.273438 L 361.835938 437.652344 L 362.007812 438.054688 L 362.152344 438.484375 L 362.273438 438.941406 L 362.363281 439.421875 L 362.429688 439.929688 L 362.46875 440.464844 L 362.484375 441.023438 L 362.484375 441.121094 L 362.480469 441.167969 L 362.480469 441.21875 L 362.476562 441.265625 L 362.472656 441.316406 L 362.46875 441.363281 L 362.464844 441.414062 L 362.457031 441.507812 L 362.457031 441.558594 L 362.453125 441.605469 L 362.453125 441.65625 L 362.449219 441.703125 L 362.441406 441.753906 L 362.4375 441.800781 L 362.429688 441.851562 L 362.414062 441.945312 L 362.402344 441.996094 L 353.085938 441.996094 L 353.097656 442.316406 L 353.121094 442.628906 L 353.15625 442.9375 L 353.199219 443.234375 L 353.257812 443.527344 L 353.324219 443.8125 L 353.402344 444.089844 L 353.492188 444.363281 L 353.59375 444.628906 L 353.707031 444.882812 L 353.835938 445.132812 L 353.976562 445.371094 L 354.121094 445.597656 L 354.277344 445.8125 L 354.445312 446.019531 L 354.617188 446.210938 L 354.804688 446.394531 L 354.996094 446.570312 L 355.199219 446.730469 L 355.410156 446.882812 L 355.632812 447.019531 L 355.867188 447.144531 L 356.105469 447.253906 L 356.351562 447.347656 L 356.605469 447.429688 L 356.863281 447.496094 L 357.132812 447.546875 L 357.40625 447.582031 L 357.6875 447.605469 L 357.972656 447.613281 L 358.183594 447.609375 L 358.386719 447.597656 L 358.585938 447.582031 L 358.78125 447.558594 L 358.972656 447.53125 L 359.160156 447.496094 L 359.34375 447.453125 L 359.519531 447.402344 L 359.695312 447.347656 L 359.863281 447.289062 L 360.035156 447.222656 L 360.371094 447.074219 L 360.535156 446.996094 L 360.695312 446.917969 L 360.851562 446.832031 L 361.007812 446.742188 L 361.160156 446.648438 L 361.308594 446.550781 L 361.457031 446.449219 L 361.945312 447.367188 L 361.789062 447.460938 L 361.632812 447.550781 L 361.472656 447.640625 L 361.308594 447.726562 L 361.140625 447.8125 L 360.96875 447.898438 L 360.792969 447.984375 L 360.613281 448.066406 L 360.429688 448.152344 L 360.242188 448.234375 L 360.046875 448.308594 L 359.84375 448.378906 L 359.632812 448.4375 L 359.410156 448.492188 L 359.175781 448.535156 L 358.933594 448.574219 L 358.679688 448.601562 L 358.417969 448.621094 L 358.148438 448.632812 Z M 353.085938 441.023438 L 361.347656 441.023438 L 361.339844 440.539062 L 361.308594 440.078125 L 361.257812 439.644531 L 361.183594 439.234375 L 361.09375 438.851562 L 360.980469 438.488281 L 360.847656 438.15625 L 360.691406 437.84375 L 360.519531 437.558594 L 360.324219 437.296875 L 360.109375 437.0625 L 359.882812 436.851562 L 359.640625 436.664062 L 359.386719 436.503906 L 359.117188 436.367188 L 358.828125 436.253906 L 358.53125 436.167969 L 358.214844 436.105469 L 357.886719 436.066406 L 357.542969 436.054688 L 357.324219 436.0625 L 357.105469 436.078125 L 356.890625 436.109375 L 356.679688 436.152344 L 356.46875 436.203125 L 356.261719 436.269531 L 356.058594 436.347656 L 355.859375 436.4375 L 355.660156 436.535156 L 355.464844 436.648438 L 355.277344 436.773438 L 355.097656 436.90625 L 354.921875 437.050781 L 354.753906 437.207031 L 354.59375 437.371094 L 354.4375 437.546875 L 354.285156 437.730469 L 354.140625 437.929688 L 354.003906 438.132812 L 353.871094 438.351562 L 353.746094 438.578125 L 353.632812 438.8125 L 353.527344 439.054688 L 353.433594 439.308594 L 353.351562 439.570312 L 353.277344 439.84375 L 353.214844 440.125 L 353.160156 440.414062 L 353.121094 440.714844 Z M 353.085938 441.023438 "/>
<path fill-rule="nonzero" fill="rgb(0%, 0%, 0%)" fill-opacity="1" d="M 374.847656 453.039062 L 374.527344 452.496094 L 374.21875 451.949219 L 373.921875 451.394531 L 373.640625 450.835938 L 373.371094 450.269531 L 373.117188 449.703125 L 372.875 449.125 L 372.644531 448.546875 L 372.433594 447.960938 L 372.230469 447.367188 L 372.050781 446.761719 L 371.890625 446.148438 L 371.75 445.519531 L 371.625 444.878906 L 371.523438 444.230469 L 371.4375 443.566406 L 371.371094 442.894531 L 371.324219 442.210938 L 371.296875 441.515625 L 371.285156 440.808594 L 371.296875 440.101562 L 371.324219 439.40625 L 371.371094 438.722656 L 371.4375 438.050781 L 371.523438 437.390625 L 371.625 436.746094 L 371.75 436.109375 L 371.890625 435.484375 L 372.050781 434.875 L 372.230469 434.273438 L 372.433594 433.675781 L 372.644531 433.085938 L 372.875 432.503906 L 373.117188 431.921875 L 373.371094 431.351562 L 373.640625 430.785156 L 373.921875 430.222656 L 374.21875 429.667969 L 374.527344 429.121094 L 374.847656 428.578125 L 375.578125 429.007812 L 375.265625 429.519531 L 374.972656 430.042969 L 374.691406 430.574219 L 374.425781 431.117188 L 374.175781 431.667969 L 373.9375 432.230469 L 373.71875 432.800781 L 373.511719 433.378906 L 373.324219 433.96875 L 373.148438 434.570312 L 372.996094 435.175781 L 372.855469 435.789062 L 372.734375 436.402344 L 372.628906 437.019531 L 372.542969 437.640625 L 372.46875 438.265625 L 372.410156 438.898438 L 372.371094 439.53125 L 372.347656 440.167969 L 372.339844 440.808594 L 372.347656 441.441406 L 372.371094 442.074219 L 372.410156 442.703125 L 372.46875 443.332031 L 372.542969 443.953125 L 372.628906 444.574219 L 372.734375 445.1875 L 372.855469 445.800781 L 372.996094 446.410156 L 373.148438 447.015625 L 373.324219 447.617188 L 373.511719 448.207031 L 373.71875 448.789062 L 373.9375 449.363281 L 374.175781 449.925781 L 374.425781 450.480469 L 374.691406 451.027344 L 374.972656 451.5625 L 375.265625 452.089844 L 375.578125 452.605469 Z M 374.847656 453.039062 "/>
<path fill-rule="nonzero" fill="rgb(0%, 0%, 0%)" fill-opacity="1" d="M 376.902344 448.3125 L 382.246094 439.105469 L 377.28125 430.519531 L 378.628906 430.519531 L 381.546875 435.757812 L 381.621094 435.878906 L 381.695312 435.996094 L 381.765625 436.113281 L 381.839844 436.230469 L 381.910156 436.34375 L 381.980469 436.460938 L 382.046875 436.578125 L 382.117188 436.691406 L 382.183594 436.804688 L 382.246094 436.917969 L 382.3125 437.03125 L 382.382812 437.144531 L 382.453125 437.261719 L 382.523438 437.382812 L 382.597656 437.507812 L 382.675781 437.636719 L 382.753906 437.769531 L 382.917969 438.042969 L 383.003906 438.1875 L 383.113281 438.1875 L 383.1875 438.042969 L 383.257812 437.90625 L 383.332031 437.769531 L 383.402344 437.636719 L 383.46875 437.507812 L 383.535156 437.382812 L 383.601562 437.261719 L 383.664062 437.144531 L 383.726562 437.03125 L 383.785156 436.917969 L 383.847656 436.804688 L 383.90625 436.691406 L 383.96875 436.578125 L 384.03125 436.460938 L 384.097656 436.34375 L 384.164062 436.230469 L 384.363281 435.878906 L 384.433594 435.757812 L 387.351562 430.519531 L 388.621094 430.519531 L 383.652344 439.160156 L 388.996094 448.3125 L 387.648438 448.3125 L 384.542969 442.859375 L 384.472656 442.722656 L 384.398438 442.589844 L 384.328125 442.453125 L 384.253906 442.320312 L 384.179688 442.183594 L 384.101562 442.050781 L 384.023438 441.914062 L 383.945312 441.78125 L 383.867188 441.644531 L 383.785156 441.507812 L 383.703125 441.375 L 383.621094 441.234375 L 383.535156 441.09375 L 383.449219 440.949219 L 383.269531 440.652344 L 383.179688 440.5 L 383.085938 440.34375 L 382.992188 440.183594 L 382.894531 440.023438 L 382.789062 440.023438 L 382.617188 440.34375 L 382.535156 440.5 L 382.453125 440.652344 L 382.296875 440.949219 L 382.222656 441.09375 L 382.074219 441.375 L 382.003906 441.507812 L 381.863281 441.78125 L 381.792969 441.914062 L 381.71875 442.050781 L 381.648438 442.183594 L 381.574219 442.320312 L 381.5 442.453125 L 381.425781 442.589844 L 381.351562 442.722656 L 381.277344 442.859375 L 378.171875 448.3125 Z M 376.902344 448.3125 "/>
<path fill-rule="nonzero" fill="rgb(0%, 0%, 0%)" fill-opacity="1" d="M 391.050781 453.039062 L 390.320312 452.605469 L 390.632812 452.089844 L 390.925781 451.5625 L 391.207031 451.027344 L 391.46875 450.480469 L 391.71875 449.925781 L 391.949219 449.363281 L 392.167969 448.789062 L 392.367188 448.207031 L 392.554688 447.617188 L 392.722656 447.015625 L 392.882812 446.410156 L 393.023438 445.800781 L 393.152344 445.1875 L 393.257812 444.574219 L 393.351562 443.953125 L 393.425781 443.332031 L 393.484375 442.703125 L 393.527344 442.074219 L 393.550781 441.441406 L 393.558594 440.808594 L 393.550781 440.167969 L 393.527344 439.53125 L 393.484375 438.898438 L 393.425781 438.265625 L 393.351562 437.640625 L 393.257812 437.019531 L 393.152344 436.402344 L 393.023438 435.789062 L 392.882812 435.175781 L 392.722656 434.570312 L 392.554688 433.96875 L 392.367188 433.378906 L 392.167969 432.800781 L 391.949219 432.230469 L 391.71875 431.667969 L 391.46875 431.117188 L 391.207031 430.574219 L 390.925781 430.042969 L 390.632812 429.519531 L 390.320312 429.007812 L 391.050781 428.578125 L 391.378906 429.121094 L 391.691406 429.667969 L 391.988281 430.222656 L 392.273438 430.785156 L 392.542969 431.351562 L 392.796875 431.921875 L 393.035156 432.503906 L 393.261719 433.085938 L 393.472656 433.675781 L 393.667969 434.273438 L 393.847656 434.875 L 394.007812 435.484375 L 394.152344 436.109375 L 394.273438 436.746094 L 394.378906 437.390625 L 394.460938 438.050781 L 394.527344 438.722656 L 394.574219 439.40625 L 394.605469 440.101562 L 394.613281 440.808594 L 394.605469 441.515625 L 394.574219 442.210938 L 394.527344 442.894531 L 394.460938 443.566406 L 394.378906 444.230469 L 394.273438 444.878906 L 394.152344 445.519531 L 394.007812 446.148438 L 393.847656 446.761719 L 393.667969 447.367188 L 393.472656 447.960938 L 393.261719 448.546875 L 393.035156 449.125 L 392.796875 449.703125 L 392.542969 450.269531 L 392.273438 450.835938 L 391.988281 451.394531 L 391.691406 451.949219 L 391.378906 452.496094 Z M 391.050781 453.039062 "/>
<path fill-rule="nonzero" fill="rgb(0%, 0%, 0%)" fill-opacity="1" d="M 44.027344 271.070312 L 43.347656 271.472656 L 42.664062 271.859375 L 41.972656 272.230469 L 41.273438 272.582031 L 40.566406 272.917969 L 39.855469 273.238281 L 39.136719 273.539062 L 38.410156 273.824219 L 37.679688 274.09375 L 36.941406 274.34375 L 36.183594 274.570312 L 35.414062 274.769531 L 34.628906 274.945312 L 33.828125 275.101562 L 33.015625 275.230469 L 32.1875 275.335938 L 31.347656 275.417969 L 30.492188 275.476562 L 29.621094 275.515625 L 28.738281 275.527344 L 27.855469 275.515625 L 26.984375 275.476562 L 26.132812 275.417969 L 25.292969 275.335938 L 24.46875 275.230469 L 23.660156 275.101562 L 22.863281 274.945312 L 22.085938 274.769531 L 21.320312 274.570312 L 20.570312 274.34375 L 19.824219 274.09375 L 19.085938 273.824219 L 18.355469 273.539062 L 17.632812 273.238281 L 16.917969 272.917969 L 16.207031 272.582031 L 15.507812 272.230469 L 14.8125 271.859375 L 14.128906 271.472656 L 13.449219 271.070312 L 13.988281 270.160156 L 14.628906 270.546875 L 15.28125 270.917969 L 15.949219 271.269531 L 16.625 271.601562 L 17.3125 271.914062 L 18.015625 272.207031 L 18.730469 272.484375 L 19.453125 272.742188 L 20.191406 272.976562 L 20.941406 273.195312 L 21.699219 273.390625 L 22.464844 273.5625 L 23.230469 273.714844 L 24.003906 273.84375 L 24.78125 273.957031 L 25.5625 274.046875 L 26.351562 274.117188 L 27.140625 274.167969 L 27.9375 274.199219 L 28.738281 274.210938 L 29.53125 274.199219 L 30.324219 274.167969 L 31.109375 274.117188 L 31.890625 274.046875 L 32.671875 273.957031 L 33.445312 273.84375 L 34.214844 273.714844 L 34.980469 273.5625 L 35.742188 273.390625 L 36.5 273.195312 L 37.25 272.976562 L 37.988281 272.742188 L 38.71875 272.484375 L 39.433594 272.207031 L 40.136719 271.914062 L 40.832031 271.601562 L 41.511719 271.269531 L 42.179688 270.917969 L 42.839844 270.546875 L 43.488281 270.160156 Z M 44.027344 271.070312 "/>
<path fill-rule="nonzero" fill="rgb(0%, 0%, 0%)" fill-opacity="1" d="M 38.121094 263.679688 L 30.910156 263.679688 L 20.328125 269 L 20.328125 267.675781 L 25.890625 264.976562 L 26.082031 264.882812 L 26.277344 264.792969 L 26.46875 264.699219 L 26.664062 264.609375 L 26.855469 264.515625 L 27.046875 264.425781 L 27.238281 264.332031 L 27.425781 264.242188 L 27.617188 264.148438 L 27.808594 264.058594 L 27.996094 263.964844 L 28.378906 263.777344 L 28.570312 263.679688 L 28.765625 263.585938 L 28.960938 263.488281 L 29.15625 263.386719 L 29.351562 263.289062 L 29.75 263.085938 L 29.75 262.976562 L 29.351562 262.773438 L 28.960938 262.570312 L 28.765625 262.472656 L 28.570312 262.371094 L 28.378906 262.273438 L 28.1875 262.171875 L 27.996094 262.074219 L 27.808594 261.976562 L 27.617188 261.882812 L 27.425781 261.785156 L 27.238281 261.691406 L 26.855469 261.503906 L 26.664062 261.414062 L 26.46875 261.324219 L 26.277344 261.234375 L 26.082031 261.148438 L 25.890625 261.058594 L 20.328125 258.359375 L 20.328125 257.089844 L 30.910156 262.4375 L 38.121094 262.4375 Z M 38.121094 263.679688 "/>
<path fill-rule="nonzero" fill="rgb(0%, 0%, 0%)" fill-opacity="1" d="M 42.65625 255.273438 L 33.585938 255.273438 L 33.585938 254.441406 L 42.65625 254.441406 Z M 31.390625 254.835938 L 31.390625 254.894531 L 31.382812 254.953125 L 31.375 255.007812 L 31.359375 255.0625 L 31.339844 255.117188 L 31.316406 255.164062 L 31.289062 255.214844 L 31.257812 255.261719 L 31.222656 255.304688 L 31.183594 255.347656 L 31.140625 255.386719 L 31.09375 255.421875 L 31.046875 255.453125 L 30.992188 255.480469 L 30.9375 255.503906 L 30.878906 255.523438 L 30.820312 255.535156 L 30.753906 255.546875 L 30.6875 255.554688 L 30.554688 255.554688 L 30.492188 255.546875 L 30.433594 255.535156 L 30.378906 255.523438 L 30.324219 255.503906 L 30.273438 255.480469 L 30.222656 255.453125 L 30.175781 255.421875 L 30.132812 255.386719 L 30.089844 255.347656 L 30.046875 255.304688 L 30.011719 255.261719 L 29.980469 255.214844 L 29.957031 255.164062 L 29.933594 255.117188 L 29.914062 255.0625 L 29.898438 255.007812 L 29.890625 254.953125 L 29.882812 254.894531 L 29.878906 254.835938 L 29.882812 254.773438 L 29.898438 254.65625 L 29.914062 254.601562 L 29.933594 254.546875 L 29.980469 254.453125 L 30.011719 254.40625 L 30.046875 254.367188 L 30.089844 254.328125 L 30.132812 254.285156 L 30.175781 254.25 L 30.222656 254.21875 L 30.324219 254.171875 L 30.378906 254.152344 L 30.433594 254.136719 L 30.492188 254.125 L 30.617188 254.117188 L 30.6875 254.121094 L 30.753906 254.125 L 30.820312 254.136719 L 30.878906 254.152344 L 30.9375 254.171875 L 31.046875 254.21875 L 31.09375 254.25 L 31.140625 254.285156 L 31.222656 254.367188 L 31.257812 254.40625 L 31.289062 254.453125 L 31.316406 254.5 L 31.339844 254.546875 L 31.359375 254.601562 L 31.375 254.65625 L 31.390625 254.773438 Z M 31.390625 254.835938 "/>
<path fill-rule="nonzero" fill="rgb(0%, 0%, 0%)" fill-opacity="1" d="M 44.027344 245.257812 L 43.347656 245.660156 L 42.664062 246.046875 L 41.972656 246.417969 L 41.273438 246.769531 L 40.566406 247.105469 L 39.855469 247.425781 L 39.136719 247.726562 L 38.410156 248.011719 L 37.679688 248.28125 L 36.941406 248.53125 L 36.183594 248.753906 L 35.414062 248.957031 L 34.628906 249.132812 L 33.828125 249.285156 L 33.015625 249.417969 L 32.1875 249.523438 L 31.347656 249.605469 L 30.492188 249.664062 L 29.621094 249.699219 L 28.738281 249.710938 L 27.855469 249.699219 L 26.984375 249.664062 L 26.132812 249.605469 L 25.292969 249.523438 L 24.46875 249.417969 L 23.660156 249.285156 L 22.863281 249.132812 L 22.085938 248.957031 L 21.320312 248.753906 L 20.570312 248.53125 L 19.824219 248.28125 L 19.085938 248.011719 L 18.355469 247.726562 L 17.632812 247.425781 L 16.917969 247.105469 L 16.207031 246.769531 L 15.507812 246.417969 L 14.8125 246.046875 L 14.128906 245.660156 L 13.449219 245.257812 L 13.988281 244.347656 L 14.628906 244.734375 L 15.28125 245.105469 L 15.949219 245.457031 L 16.625 245.789062 L 17.3125 246.101562 L 18.015625 246.394531 L 18.730469 246.671875 L 19.453125 246.925781 L 20.191406 247.164062 L 20.941406 247.382812 L 21.699219 247.574219 L 22.464844 247.746094 L 23.230469 247.898438 L 24.003906 248.03125 L 24.78125 248.144531 L 25.5625 248.234375 L 26.351562 248.304688 L 27.140625 248.355469 L 27.9375 248.386719 L 28.738281 248.394531 L 29.53125 248.386719 L 30.324219 248.355469 L 31.109375 248.304688 L 31.890625 248.234375 L 32.671875 248.144531 L 33.445312 248.03125 L 34.214844 247.898438 L 34.980469 247.746094 L 35.742188 247.574219 L 36.5 247.382812 L 37.25 247.164062 L 37.988281 246.925781 L 38.71875 246.671875 L 39.433594 246.394531 L 40.136719 246.101562 L 40.832031 245.789062 L 41.511719 245.457031 L 42.179688 245.105469 L 42.839844 244.734375 L 43.488281 244.347656 Z M 44.027344 245.257812 "/>
<path fill-rule="nonzero" fill="rgb(0%, 0%, 0%)" fill-opacity="1" d="M 38.121094 240.996094 L 37.066406 240.996094 L 37.066406 236.949219 L 22.757812 236.949219 L 22.757812 240.027344 L 21.949219 240.027344 L 21.910156 239.816406 L 21.867188 239.613281 L 21.828125 239.414062 L 21.785156 239.21875 L 21.738281 239.027344 L 21.691406 238.839844 L 21.644531 238.65625 L 21.542969 238.304688 L 21.488281 238.136719 L 21.433594 237.972656 L 21.378906 237.8125 L 21.320312 237.65625 L 21.261719 237.503906 L 21.199219 237.359375 L 21.136719 237.21875 L 21.070312 237.082031 L 21.003906 236.953125 L 20.9375 236.828125 L 20.867188 236.703125 L 20.867188 235.734375 L 37.066406 235.734375 L 37.066406 231.980469 L 38.121094 231.980469 Z M 38.121094 240.996094 "/>
<path fill-rule="nonzero" fill="rgb(0%, 0%, 0%)" fill-opacity="1" d="M 44.027344 228.339844 L 43.488281 229.253906 L 42.839844 228.863281 L 42.179688 228.496094 L 41.511719 228.144531 L 40.832031 227.816406 L 40.136719 227.507812 L 39.433594 227.214844 L 38.71875 226.945312 L 37.988281 226.695312 L 37.25 226.460938 L 36.5 226.25 L 35.742188 226.050781 L 34.980469 225.871094 L 34.214844 225.714844 L 33.445312 225.578125 L 32.671875 225.464844 L 31.890625 225.371094 L 31.109375 225.296875 L 30.324219 225.246094 L 29.53125 225.214844 L 28.738281 225.203125 L 27.9375 225.214844 L 27.140625 225.246094 L 26.351562 225.296875 L 25.5625 225.371094 L 24.78125 225.464844 L 24.003906 225.578125 L 23.230469 225.714844 L 22.464844 225.871094 L 21.699219 226.050781 L 20.941406 226.25 L 20.191406 226.460938 L 19.453125 226.695312 L 18.730469 226.945312 L 18.015625 227.214844 L 17.3125 227.507812 L 16.625 227.816406 L 15.949219 228.144531 L 15.28125 228.496094 L 14.628906 228.863281 L 13.988281 229.253906 L 13.449219 228.339844 L 14.128906 227.933594 L 14.8125 227.542969 L 15.507812 227.167969 L 16.207031 226.8125 L 16.917969 226.476562 L 17.632812 226.160156 L 18.355469 225.859375 L 19.085938 225.578125 L 19.824219 225.3125 L 20.570312 225.066406 L 21.320312 224.84375 L 22.085938 224.644531 L 22.863281 224.464844 L 23.660156 224.3125 L 24.46875 224.183594 L 25.292969 224.074219 L 26.132812 223.992188 L 26.984375 223.933594 L 27.855469 223.898438 L 28.738281 223.886719 L 29.621094 223.898438 L 30.492188 223.933594 L 31.347656 223.992188 L 32.1875 224.074219 L 33.015625 224.183594 L 33.828125 224.3125 L 34.628906 224.464844 L 35.414062 224.644531 L 36.183594 224.84375 L 36.941406 225.066406 L 37.679688 225.3125 L 38.410156 225.578125 L 39.136719 225.859375 L 39.855469 226.160156 L 40.566406 226.476562 L 41.273438 226.8125 L 41.972656 227.167969 L 42.664062 227.542969 L 43.347656 227.933594 Z M 44.027344 228.339844 "/>
<path fill-rule="nonzero" fill="rgb(0%, 0%, 0%)" fill-opacity="1" d="M 42.304688 219.242188 L 41.496094 219.621094 L 41.394531 219.433594 L 41.285156 219.257812 L 41.171875 219.085938 L 41.046875 218.925781 L 40.914062 218.769531 L 40.777344 218.621094 L 40.628906 218.484375 L 40.476562 218.351562 L 40.316406 218.226562 L 40.144531 218.109375 L 39.976562 218 L 39.800781 217.90625 L 39.621094 217.820312 L 39.4375 217.746094 L 39.25 217.683594 L 39.054688 217.632812 L 38.855469 217.59375 L 38.652344 217.5625 L 38.441406 217.546875 L 38.230469 217.542969 L 38.25 217.621094 L 38.25 217.640625 L 38.253906 217.65625 L 38.253906 217.957031 L 38.242188 218.046875 L 38.230469 218.132812 L 38.207031 218.214844 L 38.179688 218.296875 L 38.148438 218.378906 L 38.109375 218.457031 L 38.066406 218.53125 L 38.015625 218.605469 L 37.957031 218.675781 L 37.898438 218.738281 L 37.832031 218.792969 L 37.757812 218.839844 L 37.683594 218.882812 L 37.601562 218.917969 L 37.515625 218.949219 L 37.425781 218.96875 L 37.328125 218.988281 L 37.226562 218.996094 L 37.121094 219 L 37.015625 218.996094 L 36.914062 218.984375 L 36.820312 218.96875 L 36.730469 218.945312 L 36.640625 218.910156 L 36.5625 218.875 L 36.484375 218.828125 L 36.414062 218.773438 L 36.347656 218.714844 L 36.285156 218.648438 L 36.226562 218.574219 L 36.132812 218.417969 L 36.09375 218.335938 L 36.0625 218.257812 L 36.035156 218.175781 L 36.015625 218.09375 L 36 218.007812 L 35.992188 217.925781 L 35.988281 217.839844 L 35.992188 217.71875 L 36.007812 217.601562 L 36.035156 217.488281 L 36.070312 217.378906 L 36.117188 217.277344 L 36.171875 217.179688 L 36.238281 217.089844 L 36.316406 217 L 36.402344 216.917969 L 36.5 216.839844 L 36.605469 216.769531 L 36.722656 216.703125 L 36.84375 216.648438 L 36.972656 216.597656 L 37.109375 216.554688 L 37.253906 216.523438 L 37.402344 216.496094 L 37.5625 216.476562 L 37.730469 216.464844 L 37.90625 216.460938 L 38.199219 216.46875 L 38.484375 216.492188 L 38.765625 216.53125 L 39.035156 216.585938 L 39.300781 216.65625 L 39.558594 216.742188 L 39.8125 216.84375 L 40.054688 216.960938 L 40.292969 217.097656 L 40.523438 217.246094 L 40.746094 217.40625 L 40.957031 217.574219 L 41.160156 217.753906 L 41.351562 217.941406 L 41.535156 218.136719 L 41.710938 218.339844 L 41.875 218.550781 L 42.027344 218.773438 L 42.171875 219.003906 Z M 42.304688 219.242188 "/>
<path fill-rule="nonzero" fill="rgb(0%, 0%, 0%)" fill-opacity="1" d="M 38.121094 204.203125 L 30.910156 204.203125 L 20.328125 209.523438 L 20.328125 208.199219 L 25.890625 205.5 L 26.082031 205.40625 L 26.277344 205.316406 L 26.46875 205.222656 L 26.664062 205.132812 L 26.855469 205.039062 L 27.046875 204.949219 L 27.238281 204.855469 L 27.425781 204.765625 L 27.617188 204.671875 L 27.808594 204.582031 L 27.996094 204.488281 L 28.570312 204.207031 L 29.15625 203.914062 L 29.351562 203.8125 L 29.75 203.609375 L 29.75 203.5 L 29.351562 203.296875 L 28.960938 203.09375 L 28.765625 202.996094 L 28.570312 202.894531 L 27.996094 202.601562 L 27.808594 202.503906 L 27.425781 202.308594 L 27.238281 202.214844 L 27.046875 202.121094 L 26.855469 202.03125 L 26.664062 201.9375 L 26.46875 201.847656 L 26.277344 201.757812 L 26.082031 201.671875 L 25.890625 201.585938 L 20.328125 198.882812 L 20.328125 197.617188 L 30.910156 202.960938 L 38.121094 202.960938 Z M 38.121094 204.203125 "/>
<path fill-rule="nonzero" fill="rgb(0%, 0%, 0%)" fill-opacity="1" d="M 42.65625 195.796875 L 33.585938 195.796875 L 33.585938 194.964844 L 42.65625 194.964844 Z M 31.390625 195.359375 L 31.390625 195.421875 L 31.382812 195.476562 L 31.375 195.535156 L 31.359375 195.589844 L 31.339844 195.640625 L 31.316406 195.691406 L 31.289062 195.738281 L 31.257812 195.785156 L 31.222656 195.828125 L 31.183594 195.871094 L 31.140625 195.910156 L 31.09375 195.945312 L 31.046875 195.976562 L 30.992188 196.003906 L 30.9375 196.027344 L 30.878906 196.046875 L 30.820312 196.0625 L 30.6875 196.078125 L 30.554688 196.078125 L 30.492188 196.070312 L 30.433594 196.0625 L 30.378906 196.046875 L 30.324219 196.027344 L 30.273438 196.003906 L 30.222656 195.976562 L 30.175781 195.945312 L 30.132812 195.910156 L 30.089844 195.871094 L 30.046875 195.828125 L 30.011719 195.785156 L 29.980469 195.738281 L 29.957031 195.691406 L 29.933594 195.640625 L 29.914062 195.589844 L 29.898438 195.535156 L 29.890625 195.476562 L 29.882812 195.421875 L 29.878906 195.359375 L 29.882812 195.296875 L 29.898438 195.179688 L 29.914062 195.125 L 29.933594 195.074219 L 29.957031 195.023438 L 29.980469 194.976562 L 30.011719 194.933594 L 30.046875 194.890625 L 30.132812 194.8125 L 30.175781 194.777344 L 30.222656 194.746094 L 30.273438 194.71875 L 30.324219 194.695312 L 30.378906 194.675781 L 30.433594 194.660156 L 30.492188 194.652344 L 30.554688 194.644531 L 30.6875 194.644531 L 30.820312 194.660156 L 30.878906 194.675781 L 30.9375 194.695312 L 30.992188 194.71875 L 31.046875 194.746094 L 31.09375 194.777344 L 31.140625 194.8125 L 31.183594 194.851562 L 31.222656 194.890625 L 31.257812 194.933594 L 31.289062 194.976562 L 31.316406 195.023438 L 31.339844 195.074219 L 31.359375 195.125 L 31.375 195.179688 L 31.390625 195.296875 Z M 31.390625 195.359375 "/>
<path fill-rule="nonzero" fill="rgb(0%, 0%, 0%)" fill-opacity="1" d="M 44.027344 185.78125 L 43.347656 186.183594 L 42.664062 186.570312 L 41.972656 186.941406 L 41.273438 187.292969 L 40.566406 187.628906 L 39.855469 187.949219 L 39.136719 188.25 L 38.410156 188.535156 L 37.679688 188.804688 L 36.941406 189.054688 L 36.183594 189.28125 L 35.414062 189.480469 L 34.628906 189.65625 L 33.828125 189.8125 L 33.015625 189.941406 L 32.1875 190.046875 L 31.347656 190.128906 L 30.492188 190.1875 L 29.621094 190.226562 L 28.738281 190.238281 L 27.855469 190.226562 L 26.984375 190.1875 L 26.132812 190.128906 L 25.292969 190.046875 L 24.46875 189.941406 L 23.660156 189.8125 L 22.863281 189.65625 L 22.085938 189.480469 L 21.320312 189.28125 L 20.570312 189.054688 L 19.824219 188.804688 L 19.085938 188.535156 L 18.355469 188.25 L 17.632812 187.949219 L 16.917969 187.628906 L 16.207031 187.292969 L 15.507812 186.941406 L 14.8125 186.570312 L 14.128906 186.183594 L 13.449219 185.78125 L 13.988281 184.871094 L 14.628906 185.257812 L 15.28125 185.628906 L 15.949219 185.980469 L 16.625 186.3125 L 17.3125 186.625 L 18.015625 186.917969 L 18.730469 187.195312 L 19.453125 187.453125 L 20.191406 187.6875 L 20.941406 187.90625 L 21.699219 188.101562 L 22.464844 188.273438 L 23.230469 188.425781 L 24.003906 188.554688 L 24.78125 188.667969 L 25.5625 188.757812 L 26.351562 188.828125 L 27.140625 188.878906 L 27.9375 188.910156 L 28.738281 188.921875 L 29.53125 188.910156 L 30.324219 188.878906 L 31.109375 188.828125 L 31.890625 188.757812 L 32.671875 188.667969 L 33.445312 188.554688 L 34.214844 188.425781 L 34.980469 188.273438 L 35.742188 188.101562 L 36.5 187.90625 L 37.25 187.6875 L 37.988281 187.453125 L 38.71875 187.195312 L 39.433594 186.917969 L 40.136719 186.625 L 40.832031 186.3125 L 41.511719 185.980469 L 42.179688 185.628906 L 42.839844 185.257812 L 43.488281 184.871094 Z M 44.027344 185.78125 "/>
<path fill-rule="nonzero" fill="rgb(0%, 0%, 0%)" fill-opacity="1" d="M 38.445312 177.335938 L 38.421875 177.816406 L 38.351562 178.277344 L 38.234375 178.710938 L 38.070312 179.125 L 37.859375 179.519531 L 37.597656 179.886719 L 37.292969 180.234375 L 36.941406 180.558594 L 36.542969 180.863281 L 36.097656 181.144531 L 35.605469 181.402344 L 35.078125 181.628906 L 34.507812 181.832031 L 33.902344 182.007812 L 33.253906 182.15625 L 32.566406 182.277344 L 31.839844 182.371094 L 31.074219 182.441406 L 30.269531 182.480469 L 29.425781 182.496094 L 28.589844 182.480469 L 27.789062 182.441406 L 27.03125 182.371094 L 26.3125 182.277344 L 25.632812 182.15625 L 24.996094 182.007812 L 24.394531 181.832031 L 23.835938 181.628906 L 23.316406 181.402344 L 22.839844 181.144531 L 22.402344 180.863281 L 22.011719 180.558594 L 21.667969 180.234375 L 21.371094 179.886719 L 21.117188 179.519531 L 20.910156 179.125 L 20.75 178.710938 L 20.636719 178.277344 L 20.566406 177.816406 L 20.542969 177.335938 L 20.566406 176.851562 L 20.636719 176.390625 L 20.75 175.953125 L 20.910156 175.535156 L 21.117188 175.144531 L 21.371094 174.773438 L 21.667969 174.429688 L 22.011719 174.105469 L 22.402344 173.804688 L 22.839844 173.53125 L 23.316406 173.273438 L 23.835938 173.042969 L 24.394531 172.84375 L 24.996094 172.667969 L 25.632812 172.519531 L 26.3125 172.394531 L 27.03125 172.300781 L 27.789062 172.234375 L 28.589844 172.195312 L 29.425781 172.179688 L 30.269531 172.195312 L 31.074219 172.234375 L 31.839844 172.300781 L 32.566406 172.394531 L 33.253906 172.519531 L 33.902344 172.667969 L 34.507812 172.84375 L 35.078125 173.042969 L 35.605469 173.273438 L 36.097656 173.53125 L 36.542969 173.804688 L 36.941406 174.105469 L 37.292969 174.429688 L 37.597656 174.773438 L 37.859375 175.144531 L 38.070312 175.535156 L 38.234375 175.953125 L 38.351562 176.390625 L 38.421875 176.851562 Z M 37.417969 177.335938 L 37.398438 176.984375 L 37.335938 176.644531 L 37.238281 176.320312 L 37.09375 176.011719 L 36.914062 175.71875 L 36.691406 175.4375 L 36.425781 175.175781 L 36.121094 174.925781 L 35.777344 174.695312 L 35.394531 174.476562 L 34.96875 174.269531 L 34.507812 174.085938 L 34.007812 173.925781 L 33.46875 173.785156 L 32.890625 173.664062 L 32.273438 173.566406 L 31.621094 173.492188 L 30.925781 173.4375 L 30.195312 173.40625 L 29.425781 173.394531 L 28.660156 173.40625 L 27.929688 173.4375 L 27.242188 173.492188 L 26.59375 173.566406 L 25.984375 173.664062 L 25.414062 173.785156 L 24.886719 173.925781 L 24.398438 174.085938 L 23.949219 174.269531 L 23.539062 174.476562 L 23.167969 174.695312 L 22.832031 174.925781 L 22.535156 175.175781 L 22.28125 175.4375 L 22.0625 175.71875 L 21.886719 176.011719 L 21.746094 176.320312 L 21.648438 176.644531 L 21.589844 176.984375 L 21.570312 177.335938 L 21.589844 177.6875 L 21.648438 178.023438 L 21.746094 178.34375 L 21.886719 178.652344 L 22.0625 178.945312 L 22.28125 179.222656 L 22.535156 179.488281 L 22.832031 179.738281 L 23.167969 179.976562 L 23.539062 180.199219 L 23.949219 180.40625 L 24.398438 180.589844 L 24.886719 180.75 L 25.414062 180.890625 L 25.984375 181.007812 L 26.59375 181.105469 L 27.242188 181.183594 L 27.929688 181.234375 L 28.660156 181.269531 L 29.425781 181.28125 L 30.195312 181.269531 L 30.925781 181.234375 L 31.621094 181.183594 L 32.273438 181.105469 L 32.890625 181.007812 L 33.46875 180.890625 L 34.007812 180.75 L 34.507812 180.589844 L 34.96875 180.40625 L 35.394531 180.199219 L 35.777344 179.976562 L 36.121094 179.738281 L 36.425781 179.488281 L 36.691406 179.222656 L 36.914062 178.945312 L 37.09375 178.652344 L 37.238281 178.34375 L 37.335938 178.023438 L 37.398438 177.6875 Z M 37.417969 177.335938 "/>
<path fill-rule="nonzero" fill="rgb(0%, 0%, 0%)" fill-opacity="1" d="M 44.027344 168.867188 L 43.488281 169.777344 L 42.839844 169.390625 L 42.179688 169.019531 L 41.511719 168.671875 L 40.832031 168.339844 L 40.136719 168.03125 L 39.433594 167.738281 L 38.71875 167.46875 L 37.988281 167.21875 L 37.25 166.984375 L 36.5 166.773438 L 35.742188 166.574219 L 34.980469 166.398438 L 34.214844 166.238281 L 33.445312 166.105469 L 32.671875 165.988281 L 31.890625 165.894531 L 31.109375 165.820312 L 30.324219 165.769531 L 29.53125 165.738281 L 28.738281 165.726562 L 27.9375 165.738281 L 27.140625 165.769531 L 26.351562 165.820312 L 25.5625 165.894531 L 24.78125 165.988281 L 24.003906 166.105469 L 23.230469 166.238281 L 22.464844 166.398438 L 21.699219 166.574219 L 20.941406 166.773438 L 20.191406 166.984375 L 19.453125 167.21875 L 18.730469 167.46875 L 18.015625 167.738281 L 17.3125 168.03125 L 16.625 168.339844 L 15.949219 168.671875 L 15.28125 169.019531 L 14.628906 169.390625 L 13.988281 169.777344 L 13.449219 168.867188 L 14.128906 168.457031 L 14.8125 168.066406 L 15.507812 167.691406 L 16.207031 167.339844 L 16.917969 167 L 17.632812 166.683594 L 18.355469 166.382812 L 19.085938 166.101562 L 19.824219 165.835938 L 20.570312 165.59375 L 21.320312 165.367188 L 22.085938 165.167969 L 22.863281 164.988281 L 23.660156 164.835938 L 24.46875 164.707031 L 25.292969 164.601562 L 26.132812 164.515625 L 26.984375 164.457031 L 27.855469 164.421875 L 28.738281 164.410156 L 29.621094 164.421875 L 30.492188 164.457031 L 31.347656 164.515625 L 32.1875 164.601562 L 33.015625 164.707031 L 33.828125 164.835938 L 34.628906 164.988281 L 35.414062 165.167969 L 36.183594 165.367188 L 36.941406 165.59375 L 37.679688 165.835938 L 38.410156 166.101562 L 39.136719 166.382812 L 39.855469 166.683594 L 40.566406 167 L 41.273438 167.339844 L 41.972656 167.691406 L 42.664062 168.066406 L 43.347656 168.457031 Z M 44.027344 168.867188 "/>
<path fill-rule="nonzero" fill="rgb(0%, 0%, 0%)" fill-opacity="1" d="M 44.027344 159.449219 L 43.488281 160.359375 L 42.839844 159.972656 L 42.179688 159.605469 L 41.511719 159.253906 L 40.832031 158.925781 L 40.136719 158.613281 L 39.433594 158.324219 L 38.71875 158.054688 L 37.988281 157.800781 L 37.25 157.570312 L 36.5 157.355469 L 35.742188 157.160156 L 34.980469 156.980469 L 34.214844 156.824219 L 33.445312 156.6875 L 32.671875 156.574219 L 31.890625 156.480469 L 31.109375 156.40625 L 30.324219 156.351562 L 29.53125 156.320312 L 28.738281 156.3125 L 27.9375 156.320312 L 27.140625 156.351562 L 26.351562 156.40625 L 25.5625 156.480469 L 24.78125 156.574219 L 24.003906 156.6875 L 23.230469 156.824219 L 22.464844 156.980469 L 21.699219 157.160156 L 20.941406 157.355469 L 20.191406 157.570312 L 19.453125 157.800781 L 18.730469 158.054688 L 18.015625 158.324219 L 17.3125 158.613281 L 16.625 158.925781 L 15.949219 159.253906 L 15.28125 159.605469 L 14.628906 159.972656 L 13.988281 160.359375 L 13.449219 159.449219 L 14.128906 159.039062 L 14.8125 158.648438 L 15.507812 158.277344 L 16.207031 157.921875 L 16.917969 157.585938 L 17.632812 157.265625 L 18.355469 156.96875 L 19.085938 156.683594 L 19.824219 156.421875 L 20.570312 156.175781 L 21.320312 155.953125 L 22.085938 155.75 L 22.863281 155.574219 L 23.660156 155.421875 L 24.46875 155.289062 L 25.292969 155.183594 L 26.132812 155.101562 L 26.984375 155.042969 L 27.855469 155.007812 L 28.738281 154.996094 L 29.621094 155.007812 L 30.492188 155.042969 L 31.347656 155.101562 L 32.1875 155.183594 L 33.015625 155.289062 L 33.828125 155.421875 L 34.628906 155.574219 L 35.414062 155.75 L 36.183594 155.953125 L 36.941406 156.175781 L 37.679688 156.421875 L 38.410156 156.683594 L 39.136719 156.96875 L 39.855469 157.265625 L 40.566406 157.585938 L 41.273438 157.921875 L 41.972656 158.277344 L 42.664062 158.648438 L 43.347656 159.039062 Z M 44.027344 159.449219 "/>
</svg>
