<?xml version="1.0" encoding="UTF-8"?>
<svg xmlns="http://www.w3.org/2000/svg" xmlns:xlink="http://www.w3.org/1999/xlink" width="792" height="388" viewBox="0 0 792 388">
<defs>
<clipPath id="clip-0">
<path clip-rule="nonzero" d="M 87.394531 14.945312 L 777.058594 14.945312 L 777.058594 338.246094 L 87.394531 338.246094 Z M 87.394531 14.945312 "/>
</clipPath>
<clipPath id="clip-1">
<path clip-rule="nonzero" d="M 87.394531 322 L 777.058594 322 L 777.058594 326 L 87.394531 326 Z M 87.394531 322 "/>
</clipPath>
<clipPath id="clip-2">
<path clip-rule="nonzero" d="M 87.394531 248 L 777.058594 248 L 777.058594 252 L 87.394531 252 Z M 87.394531 248 "/>
</clipPath>
<clipPath id="clip-3">
<path clip-rule="nonzero" d="M 87.394531 175 L 777.058594 175 L 777.058594 179 L 87.394531 179 Z M 87.394531 175 "/>
</clipPath>
<clipPath id="clip-4">
<path clip-rule="nonzero" d="M 87.394531 101 L 777.058594 101 L 777.058594 105 L 87.394531 105 Z M 87.394531 101 "/>
</clipPath>
<clipPath id="clip-5">
<path clip-rule="nonzero" d="M 87.394531 28 L 777.058594 28 L 777.058594 32 L 87.394531 32 Z M 87.394531 28 "/>
</clipPath>
<clipPath id="clip-6">
<path clip-rule="nonzero" d="M 234 14.945312 L 238 14.945312 L 238 338.246094 L 234 338.246094 Z M 234 14.945312 "/>
</clipPath>
<clipPath id="clip-7">
<path clip-rule="nonzero" d="M 626 14.945312 L 630 14.945312 L 630 338.246094 L 626 338.246094 Z M 626 14.945312 "/>
</clipPath>
</defs>
<rect x="-79.2" y="-38.8" width="950.4" height="465.6" fill="rgb(100%, 100%, 100%)" fill-opacity="1"/>
<rect x="-79.2" y="-38.8" width="950.4" height="465.6" fill="rgb(95.294118%, 95.294118%, 95.294118%)" fill-opacity="1"/>
<path fill="none" stroke-width="2.909941" stroke-linecap="round" stroke-linejoin="round" stroke="rgb(95.294118%, 95.294118%, 95.294118%)" stroke-opacity="1" stroke-miterlimit="10" d="M 0 388 L 792 388 L 792 0 L 0 0 Z M 0 388 "/>
<g clip-path="url(#clip-0)">
<path fill-rule="nonzero" fill="rgb(95.294118%, 95.294118%, 95.294118%)" fill-opacity="1" stroke-width="2.909941" stroke-linecap="round" stroke-linejoin="round" stroke="rgb(95.294118%, 95.294118%, 95.294118%)" stroke-opacity="1" stroke-miterlimit="10" d="M 87.394531 338.246094 L 777.058594 338.246094 L 777.058594 14.945312 L 87.394531 14.945312 Z M 87.394531 338.246094 "/>
</g>
<g clip-path="url(#clip-1)">
<path fill="none" stroke-width="2.909941" stroke-linecap="butt" stroke-linejoin="round" stroke="rgb(92.156863%, 92.156863%, 92.156863%)" stroke-opacity="1" stroke-miterlimit="10" d="M 87.394531 323.550781 L 777.054688 323.550781 "/>
</g>
<g clip-path="url(#clip-2)">
<path fill="none" stroke-width="2.909941" stroke-linecap="butt" stroke-linejoin="round" stroke="rgb(92.156863%, 92.156863%, 92.156863%)" stroke-opacity="1" stroke-miterlimit="10" d="M 87.394531 250.074219 L 777.054688 250.074219 "/>
</g>
<g clip-path="url(#clip-3)">
<path fill="none" stroke-width="2.909941" stroke-linecap="butt" stroke-linejoin="round" stroke="rgb(92.156863%, 92.156863%, 92.156863%)" stroke-opacity="1" stroke-miterlimit="10" d="M 87.394531 176.59375 L 777.054688 176.59375 "/>
</g>
<g clip-path="url(#clip-4)">
<path fill="none" stroke-width="2.909941" stroke-linecap="butt" stroke-linejoin="round" stroke="rgb(92.156863%, 92.156863%, 92.156863%)" stroke-opacity="1" stroke-miterlimit="10" d="M 87.394531 103.117188 L 777.054688 103.117188 "/>
</g>
<g clip-path="url(#clip-5)">
<path fill="none" stroke-width="2.909941" stroke-linecap="butt" stroke-linejoin="round" stroke="rgb(92.156863%, 92.156863%, 92.156863%)" stroke-opacity="1" stroke-miterlimit="10" d="M 87.394531 29.640625 L 777.054688 29.640625 "/>
</g>
<g clip-path="url(#clip-6)">
<path fill="none" stroke-width="2.909941" stroke-linecap="butt" stroke-linejoin="round" stroke="rgb(92.156863%, 92.156863%, 92.156863%)" stroke-opacity="1" stroke-miterlimit="10" d="M 236.296875 338.246094 L 236.296875 14.945312 "/>
</g>
<g clip-path="url(#clip-7)">
<path fill="none" stroke-width="2.909941" stroke-linecap="butt" stroke-linejoin="round" stroke="rgb(92.156863%, 92.156863%, 92.156863%)" stroke-opacity="1" stroke-miterlimit="10" d="M 628.152344 338.246094 L 628.152344 14.945312 "/>
</g>
<path fill-rule="nonzero" fill="rgb(56.078431%, 16.470588%, 26.27451%)" fill-opacity="0.8" stroke-width="0.708661" stroke-linecap="round" stroke-linejoin="round" stroke="rgb(56.078431%, 16.470588%, 26.27451%)" stroke-opacity="0.8" stroke-miterlimit="10" d="M 634.375 323.550781 C 634.375 326.988281 631.589844 329.773438 628.152344 329.773438 C 624.714844 329.773438 621.929688 326.988281 621.929688 323.550781 C 621.929688 320.113281 624.714844 317.328125 628.152344 317.328125 C 631.589844 317.328125 634.375 320.113281 634.375 323.550781 "/>
<path fill-rule="nonzero" fill="rgb(56.078431%, 16.470588%, 26.27451%)" fill-opacity="0.8" stroke-width="0.708661" stroke-linecap="round" stroke-linejoin="round" stroke="rgb(56.078431%, 16.470588%, 26.27451%)" stroke-opacity="0.8" stroke-miterlimit="10" d="M 634.375 308.855469 C 634.375 312.292969 631.589844 315.078125 628.152344 315.078125 C 624.714844 315.078125 621.929688 312.292969 621.929688 308.855469 C 621.929688 305.417969 624.714844 302.632812 628.152344 302.632812 C 631.589844 302.632812 634.375 305.417969 634.375 308.855469 "/>
<path fill-rule="nonzero" fill="rgb(56.078431%, 16.470588%, 26.27451%)" fill-opacity="0.8" stroke-width="0.708661" stroke-linecap="round" stroke-linejoin="round" stroke="rgb(56.078431%, 16.470588%, 26.27451%)" stroke-opacity="0.8" stroke-miterlimit="10" d="M 634.375 308.855469 C 634.375 312.292969 631.589844 315.078125 628.152344 315.078125 C 624.714844 315.078125 621.929688 312.292969 621.929688 308.855469 C 621.929688 305.417969 624.714844 302.632812 628.152344 302.632812 C 631.589844 302.632812 634.375 305.417969 634.375 308.855469 "/>
<path fill-rule="nonzero" fill="rgb(56.078431%, 16.470588%, 26.27451%)" fill-opacity="0.8" stroke-width="0.708661" stroke-linecap="round" stroke-linejoin="round" stroke="rgb(56.078431%, 16.470588%, 26.27451%)" stroke-opacity="0.8" stroke-miterlimit="10" d="M 242.519531 29.640625 C 242.519531 33.078125 239.734375 35.863281 236.296875 35.863281 C 232.859375 35.863281 230.074219 33.078125 230.074219 29.640625 C 230.074219 26.203125 232.859375 23.417969 236.296875 23.417969 C 239.734375 23.417969 242.519531 26.203125 242.519531 29.640625 "/>
<path fill-rule="nonzero" fill="rgb(56.078431%, 16.470588%, 26.27451%)" fill-opacity="0.8" stroke-width="0.708661" stroke-linecap="round" stroke-linejoin="round" stroke="rgb(56.078431%, 16.470588%, 26.27451%)" stroke-opacity="0.8" stroke-miterlimit="10" d="M 242.519531 59.03125 C 242.519531 62.46875 239.734375 65.253906 236.296875 65.253906 C 232.859375 65.253906 230.074219 62.46875 230.074219 59.03125 C 230.074219 55.59375 232.859375 52.808594 236.296875 52.808594 C 239.734375 52.808594 242.519531 55.59375 242.519531 59.03125 "/>
<path fill-rule="nonzero" fill="rgb(56.078431%, 16.470588%, 26.27451%)" fill-opacity="0.8" stroke-width="0.708661" stroke-linecap="round" stroke-linejoin="round" stroke="rgb(56.078431%, 16.470588%, 26.27451%)" stroke-opacity="0.8" stroke-miterlimit="10" d="M 242.519531 161.898438 C 242.519531 165.335938 239.734375 168.121094 236.296875 168.121094 C 232.859375 168.121094 230.074219 165.335938 230.074219 161.898438 C 230.074219 158.464844 232.859375 155.675781 236.296875 155.675781 C 239.734375 155.675781 242.519531 158.464844 242.519531 161.898438 "/>
<path fill-rule="nonzero" fill="rgb(56.078431%, 16.470588%, 26.27451%)" fill-opacity="0.8" stroke-width="0.708661" stroke-linecap="round" stroke-linejoin="round" stroke="rgb(56.078431%, 16.470588%, 26.27451%)" stroke-opacity="0.8" stroke-miterlimit="10" d="M 634.375 44.335938 C 634.375 47.773438 631.589844 50.558594 628.152344 50.558594 C 624.714844 50.558594 621.929688 47.773438 621.929688 44.335938 C 621.929688 40.898438 624.714844 38.113281 628.152344 38.113281 C 631.589844 38.113281 634.375 40.898438 634.375 44.335938 "/>
<path fill-rule="nonzero" fill="rgb(56.078431%, 16.470588%, 26.27451%)" fill-opacity="0.8" stroke-width="0.708661" stroke-linecap="round" stroke-linejoin="round" stroke="rgb(56.078431%, 16.470588%, 26.27451%)" stroke-opacity="0.8" stroke-miterlimit="10" d="M 242.519531 205.988281 C 242.519531 209.421875 239.734375 212.210938 236.296875 212.210938 C 232.859375 212.210938 230.074219 209.421875 230.074219 205.988281 C 230.074219 202.550781 232.859375 199.761719 236.296875 199.761719 C 239.734375 199.761719 242.519531 202.550781 242.519531 205.988281 "/>
<path fill="none" stroke-width="1.066978" stroke-linecap="butt" stroke-linejoin="round" stroke="rgb(0%, 0%, 0%)" stroke-opacity="0.298039" stroke-dasharray="4.267913 4.267913" stroke-miterlimit="10" d="M 628.152344 246.398438 L 628.152344 323.550781 "/>
<path fill="none" stroke-width="1.066978" stroke-linecap="butt" stroke-linejoin="round" stroke="rgb(0%, 0%, 0%)" stroke-opacity="0.298039" stroke-dasharray="4.267913 4.267913" stroke-miterlimit="10" d="M 628.152344 246.398438 L 628.152344 308.855469 "/>
<path fill="none" stroke-width="1.066978" stroke-linecap="butt" stroke-linejoin="round" stroke="rgb(0%, 0%, 0%)" stroke-opacity="0.298039" stroke-dasharray="4.267913 4.267913" stroke-miterlimit="10" d="M 628.152344 246.398438 L 628.152344 308.855469 "/>
<path fill="none" stroke-width="1.066978" stroke-linecap="butt" stroke-linejoin="round" stroke="rgb(0%, 0%, 0%)" stroke-opacity="0.298039" stroke-dasharray="4.267913 4.267913" stroke-miterlimit="10" d="M 236.296875 114.140625 L 236.296875 29.640625 "/>
<path fill="none" stroke-width="1.066978" stroke-linecap="butt" stroke-linejoin="round" stroke="rgb(0%, 0%, 0%)" stroke-opacity="0.298039" stroke-dasharray="4.267913 4.267913" stroke-miterlimit="10" d="M 236.296875 114.140625 L 236.296875 59.03125 "/>
<path fill="none" stroke-width="1.066978" stroke-linecap="butt" stroke-linejoin="round" stroke="rgb(0%, 0%, 0%)" stroke-opacity="0.298039" stroke-dasharray="4.267913 4.267913" stroke-miterlimit="10" d="M 236.296875 114.140625 L 236.296875 161.898438 "/>
<path fill="none" stroke-width="1.066978" stroke-linecap="butt" stroke-linejoin="round" stroke="rgb(0%, 0%, 0%)" stroke-opacity="0.298039" stroke-dasharray="4.267913 4.267913" stroke-miterlimit="10" d="M 628.152344 246.398438 L 628.152344 44.335938 "/>
<path fill="none" stroke-width="1.066978" stroke-linecap="butt" stroke-linejoin="round" stroke="rgb(0%, 0%, 0%)" stroke-opacity="0.298039" stroke-dasharray="4.267913 4.267913" stroke-miterlimit="10" d="M 236.296875 114.140625 L 236.296875 205.988281 "/>
<path fill="none" stroke-width="2.133957" stroke-linecap="butt" stroke-linejoin="round" stroke="rgb(0%, 0%, 0%)" stroke-opacity="1" stroke-miterlimit="10" d="M 236.296875 114.140625 L 241.257812 115.8125 L 246.21875 117.488281 L 251.179688 119.160156 L 256.136719 120.835938 L 261.097656 122.511719 L 266.058594 124.183594 L 271.019531 125.859375 L 275.980469 127.53125 L 280.941406 129.207031 L 285.898438 130.878906 L 295.820312 134.230469 L 300.78125 135.902344 L 305.742188 137.578125 L 310.699219 139.25 L 320.621094 142.601562 L 325.582031 144.273438 L 330.542969 145.949219 L 335.5 147.621094 L 345.421875 150.972656 L 350.382812 152.644531 L 355.34375 154.320312 L 360.300781 155.992188 L 370.222656 159.34375 L 375.183594 161.015625 L 380.144531 162.691406 L 385.101562 164.363281 L 390.0625 166.039062 L 395.023438 167.710938 L 404.945312 171.0625 L 409.902344 172.734375 L 414.863281 174.410156 L 419.824219 176.082031 L 429.746094 179.433594 L 434.703125 181.105469 L 439.664062 182.78125 L 444.625 184.453125 L 454.546875 187.804688 L 459.503906 189.476562 L 464.464844 191.152344 L 469.425781 192.824219 L 474.386719 194.5 L 479.347656 196.171875 L 484.304688 197.847656 L 489.265625 199.523438 L 494.226562 201.195312 L 499.1875 202.871094 L 504.148438 204.542969 L 509.109375 206.21875 L 514.066406 207.894531 L 519.027344 209.566406 L 523.988281 211.242188 L 528.949219 212.914062 L 533.910156 214.589844 L 538.867188 216.265625 L 543.828125 217.9375 L 548.789062 219.613281 L 553.75 221.285156 L 558.710938 222.960938 L 563.667969 224.636719 L 568.628906 226.308594 L 573.589844 227.984375 L 578.550781 229.65625 L 583.511719 231.332031 L 588.46875 233.003906 L 598.390625 236.355469 L 603.351562 238.027344 L 608.3125 239.703125 L 613.269531 241.375 L 623.191406 244.726562 L 628.152344 246.398438 "/>
<path fill-rule="nonzero" fill="rgb(10.196078%, 10.196078%, 10.196078%)" fill-opacity="1" d="M 44.734375 325.9375 L 44.734375 325.003906 L 50.015625 325.003906 L 50.015625 325.9375 Z M 44.734375 325.9375 "/>
<path fill-rule="nonzero" fill="rgb(10.196078%, 10.196078%, 10.196078%)" fill-opacity="1" d="M 52.96875 331.457031 L 52.96875 330.523438 L 56.566406 330.523438 L 56.566406 317.804688 L 53.832031 317.804688 L 53.832031 317.082031 L 54.199219 317.011719 L 54.375 316.976562 L 54.550781 316.9375 L 54.71875 316.898438 L 54.886719 316.855469 L 55.207031 316.769531 L 55.511719 316.675781 L 55.660156 316.625 L 55.800781 316.574219 L 56.074219 316.472656 L 56.203125 316.417969 L 56.328125 316.359375 L 56.449219 316.304688 L 56.5625 316.246094 L 56.675781 316.183594 L 56.785156 316.121094 L 57.648438 316.121094 L 57.648438 330.523438 L 60.984375 330.523438 L 60.984375 331.457031 Z M 52.96875 331.457031 "/>
<path fill-rule="nonzero" fill="rgb(10.196078%, 10.196078%, 10.196078%)" fill-opacity="1" d="M 68.183594 331.746094 L 67.757812 331.726562 L 67.351562 331.664062 L 66.960938 331.558594 L 66.59375 331.414062 L 66.246094 331.226562 L 65.917969 330.996094 L 65.609375 330.722656 L 65.320312 330.410156 L 65.050781 330.054688 L 64.800781 329.660156 L 64.570312 329.222656 L 64.367188 328.753906 L 64.1875 328.25 L 64.03125 327.707031 L 63.898438 327.132812 L 63.792969 326.523438 L 63.707031 325.878906 L 63.648438 325.195312 L 63.613281 324.480469 L 63.601562 323.730469 L 63.613281 322.984375 L 63.648438 322.277344 L 63.707031 321.601562 L 63.792969 320.960938 L 63.898438 320.359375 L 64.03125 319.792969 L 64.1875 319.257812 L 64.367188 318.761719 L 64.570312 318.300781 L 64.800781 317.875 L 65.050781 317.488281 L 65.320312 317.140625 L 65.609375 316.835938 L 65.917969 316.570312 L 66.246094 316.34375 L 66.59375 316.160156 L 66.960938 316.019531 L 67.351562 315.917969 L 67.757812 315.855469 L 68.183594 315.835938 L 68.613281 315.855469 L 69.027344 315.917969 L 69.414062 316.019531 L 69.785156 316.160156 L 70.132812 316.34375 L 70.460938 316.570312 L 70.769531 316.835938 L 71.054688 317.140625 L 71.324219 317.488281 L 71.566406 317.875 L 71.796875 318.300781 L 72 318.761719 L 72.179688 319.257812 L 72.335938 319.792969 L 72.46875 320.359375 L 72.574219 320.960938 L 72.660156 321.601562 L 72.71875 322.277344 L 72.757812 322.984375 L 72.769531 323.730469 L 72.757812 324.480469 L 72.71875 325.195312 L 72.660156 325.878906 L 72.574219 326.523438 L 72.46875 327.132812 L 72.335938 327.707031 L 72.179688 328.25 L 72 328.753906 L 71.796875 329.222656 L 71.566406 329.660156 L 71.324219 330.054688 L 71.054688 330.410156 L 70.769531 330.722656 L 70.460938 330.996094 L 70.132812 331.226562 L 69.785156 331.414062 L 69.414062 331.558594 L 69.027344 331.664062 L 68.613281 331.726562 Z M 68.183594 330.835938 L 68.5 330.816406 L 68.800781 330.761719 L 69.089844 330.671875 L 69.363281 330.546875 L 69.625 330.386719 L 69.871094 330.1875 L 70.105469 329.953125 L 70.328125 329.683594 L 70.535156 329.375 L 70.726562 329.035156 L 70.910156 328.65625 L 71.074219 328.246094 L 71.21875 327.800781 L 71.34375 327.324219 L 71.449219 326.808594 L 71.535156 326.261719 L 71.601562 325.679688 L 71.648438 325.0625 L 71.679688 324.414062 L 71.6875 323.730469 L 71.679688 323.046875 L 71.648438 322.398438 L 71.601562 321.789062 L 71.535156 321.210938 L 71.449219 320.671875 L 71.34375 320.164062 L 71.21875 319.695312 L 71.074219 319.261719 L 70.910156 318.863281 L 70.726562 318.5 L 70.535156 318.167969 L 70.328125 317.867188 L 70.105469 317.605469 L 69.871094 317.378906 L 69.625 317.183594 L 69.363281 317.027344 L 69.089844 316.90625 L 68.800781 316.816406 L 68.5 316.765625 L 68.183594 316.746094 L 67.875 316.765625 L 67.574219 316.816406 L 67.289062 316.90625 L 67.015625 317.027344 L 66.757812 317.183594 L 66.507812 317.378906 L 66.273438 317.605469 L 66.050781 317.867188 L 65.839844 318.167969 L 65.640625 318.5 L 65.457031 318.863281 L 65.292969 319.261719 L 65.148438 319.695312 L 65.027344 320.164062 L 64.921875 320.671875 L 64.832031 321.210938 L 64.765625 321.789062 L 64.71875 322.398438 L 64.691406 323.046875 L 64.679688 323.730469 L 64.691406 324.414062 L 64.71875 325.0625 L 64.765625 325.679688 L 64.832031 326.261719 L 64.921875 326.808594 L 65.027344 327.324219 L 65.148438 327.800781 L 65.292969 328.246094 L 65.457031 328.65625 L 65.640625 329.035156 L 65.839844 329.375 L 66.050781 329.683594 L 66.273438 329.953125 L 66.507812 330.1875 L 66.757812 330.386719 L 67.015625 330.546875 L 67.289062 330.671875 L 67.574219 330.761719 L 67.875 330.816406 Z M 68.183594 330.835938 "/>
<path fill-rule="nonzero" fill="rgb(10.196078%, 10.196078%, 10.196078%)" fill-opacity="1" d="M 56.230469 252.460938 L 56.230469 251.523438 L 61.511719 251.523438 L 61.511719 252.460938 Z M 56.230469 252.460938 "/>
<path fill-rule="nonzero" fill="rgb(10.196078%, 10.196078%, 10.196078%)" fill-opacity="1" d="M 67.894531 258.269531 L 67.652344 258.265625 L 67.417969 258.257812 L 67.191406 258.242188 L 66.964844 258.21875 L 66.75 258.191406 L 66.539062 258.15625 L 66.335938 258.117188 L 66.136719 258.070312 L 65.945312 258.015625 L 65.761719 257.957031 L 65.585938 257.894531 L 65.414062 257.824219 L 65.25 257.753906 L 65.089844 257.679688 L 64.933594 257.601562 L 64.78125 257.523438 L 64.632812 257.4375 L 64.492188 257.351562 L 64.355469 257.257812 L 64.222656 257.164062 L 64.097656 257.070312 L 63.96875 256.972656 L 63.847656 256.878906 L 63.613281 256.683594 L 63.5 256.589844 L 63.386719 256.492188 L 63.28125 256.398438 L 63.070312 256.203125 L 63.671875 255.460938 L 63.8125 255.597656 L 63.960938 255.734375 L 64.113281 255.871094 L 64.269531 256.003906 L 64.433594 256.132812 L 64.601562 256.261719 L 64.953125 256.511719 L 65.136719 256.636719 L 65.328125 256.757812 L 65.53125 256.867188 L 65.746094 256.964844 L 65.96875 257.050781 L 66.207031 257.125 L 66.457031 257.1875 L 66.714844 257.242188 L 66.988281 257.28125 L 67.269531 257.308594 L 67.566406 257.328125 L 67.871094 257.332031 L 68.078125 257.328125 L 68.277344 257.3125 L 68.476562 257.289062 L 68.671875 257.253906 L 68.863281 257.207031 L 69.050781 257.152344 L 69.234375 257.085938 L 69.414062 257.011719 L 69.59375 256.925781 L 69.769531 256.828125 L 69.9375 256.71875 L 70.101562 256.601562 L 70.257812 256.476562 L 70.40625 256.339844 L 70.546875 256.199219 L 70.683594 256.046875 L 70.8125 255.890625 L 70.933594 255.722656 L 71.050781 255.546875 L 71.160156 255.363281 L 71.261719 255.175781 L 71.351562 254.980469 L 71.429688 254.777344 L 71.496094 254.570312 L 71.554688 254.355469 L 71.601562 254.136719 L 71.640625 253.914062 L 71.667969 253.683594 L 71.683594 253.445312 L 71.6875 253.203125 L 71.675781 252.84375 L 71.648438 252.496094 L 71.59375 252.167969 L 71.523438 251.851562 L 71.429688 251.554688 L 71.316406 251.273438 L 71.183594 251.007812 L 71.027344 250.753906 L 70.851562 250.519531 L 70.65625 250.300781 L 70.449219 250.101562 L 70.226562 249.921875 L 69.988281 249.761719 L 69.738281 249.625 L 69.472656 249.507812 L 69.195312 249.414062 L 68.902344 249.339844 L 68.597656 249.289062 L 68.277344 249.253906 L 67.945312 249.246094 L 67.769531 249.246094 L 67.597656 249.257812 L 67.433594 249.269531 L 67.273438 249.292969 L 67.117188 249.316406 L 66.964844 249.347656 L 66.816406 249.386719 L 66.675781 249.429688 L 66.539062 249.476562 L 66.40625 249.53125 L 66.15625 249.648438 L 66.027344 249.710938 L 65.898438 249.777344 L 65.632812 249.925781 L 65.5 250.007812 L 65.363281 250.09375 L 65.226562 250.183594 L 65.089844 250.277344 L 64.34375 249.820312 L 64.894531 242.644531 L 71.976562 242.644531 L 71.976562 243.582031 L 65.855469 243.582031 L 65.375 249.125 L 65.496094 249.054688 L 65.617188 248.988281 L 65.742188 248.921875 L 65.863281 248.859375 L 65.988281 248.800781 L 66.238281 248.691406 L 66.367188 248.640625 L 66.496094 248.59375 L 66.625 248.550781 L 66.753906 248.503906 L 66.890625 248.460938 L 67.03125 248.425781 L 67.171875 248.394531 L 67.320312 248.367188 L 67.46875 248.347656 L 67.625 248.332031 L 67.785156 248.320312 L 67.945312 248.3125 L 68.113281 248.308594 L 68.367188 248.3125 L 68.621094 248.332031 L 68.867188 248.355469 L 69.109375 248.394531 L 69.347656 248.441406 L 69.582031 248.5 L 69.808594 248.566406 L 70.03125 248.648438 L 70.25 248.738281 L 70.464844 248.835938 L 70.675781 248.945312 L 70.878906 249.0625 L 71.070312 249.191406 L 71.253906 249.332031 L 71.429688 249.484375 L 71.597656 249.648438 L 71.753906 249.824219 L 71.898438 250.011719 L 72.039062 250.210938 L 72.167969 250.421875 L 72.285156 250.636719 L 72.394531 250.867188 L 72.484375 251.109375 L 72.566406 251.367188 L 72.636719 251.632812 L 72.691406 251.914062 L 72.734375 252.207031 L 72.765625 252.511719 L 72.785156 252.828125 L 72.792969 253.15625 L 72.785156 253.480469 L 72.761719 253.789062 L 72.726562 254.09375 L 72.675781 254.386719 L 72.613281 254.667969 L 72.53125 254.941406 L 72.4375 255.207031 L 72.332031 255.460938 L 72.207031 255.707031 L 72.070312 255.941406 L 71.929688 256.160156 L 71.777344 256.371094 L 71.617188 256.570312 L 71.445312 256.757812 L 71.269531 256.9375 L 71.082031 257.105469 L 70.886719 257.261719 L 70.683594 257.40625 L 70.46875 257.542969 L 70.246094 257.667969 L 70.027344 257.78125 L 69.800781 257.886719 L 69.574219 257.976562 L 69.339844 258.054688 L 69.109375 258.117188 L 68.871094 258.171875 L 68.632812 258.214844 L 68.390625 258.246094 L 68.144531 258.261719 Z M 67.894531 258.269531 "/>
<path fill-rule="nonzero" fill="rgb(10.196078%, 10.196078%, 10.196078%)" fill-opacity="1" d="M 68.183594 184.792969 L 67.757812 184.769531 L 67.351562 184.707031 L 66.960938 184.601562 L 66.59375 184.457031 L 66.246094 184.269531 L 65.917969 184.039062 L 65.609375 183.769531 L 65.320312 183.453125 L 65.050781 183.101562 L 64.800781 182.703125 L 64.570312 182.269531 L 64.367188 181.796875 L 64.1875 181.292969 L 64.03125 180.753906 L 63.898438 180.175781 L 63.792969 179.566406 L 63.707031 178.921875 L 63.648438 178.242188 L 63.613281 177.527344 L 63.601562 176.773438 L 63.613281 176.03125 L 63.648438 175.320312 L 63.707031 174.644531 L 63.792969 174.007812 L 63.898438 173.402344 L 64.03125 172.835938 L 64.1875 172.304688 L 64.367188 171.804688 L 64.570312 171.34375 L 64.800781 170.917969 L 65.050781 170.53125 L 65.320312 170.183594 L 65.609375 169.878906 L 65.917969 169.613281 L 66.246094 169.390625 L 66.59375 169.207031 L 66.960938 169.0625 L 67.351562 168.960938 L 67.757812 168.898438 L 68.183594 168.878906 L 68.613281 168.898438 L 69.027344 168.960938 L 69.414062 169.0625 L 69.785156 169.207031 L 70.132812 169.390625 L 70.460938 169.613281 L 70.769531 169.878906 L 71.054688 170.183594 L 71.324219 170.53125 L 71.566406 170.917969 L 71.796875 171.34375 L 72 171.804688 L 72.179688 172.304688 L 72.335938 172.835938 L 72.46875 173.402344 L 72.574219 174.007812 L 72.660156 174.644531 L 72.71875 175.320312 L 72.757812 176.03125 L 72.769531 176.773438 L 72.757812 177.527344 L 72.71875 178.242188 L 72.660156 178.921875 L 72.574219 179.566406 L 72.46875 180.175781 L 72.335938 180.753906 L 72.179688 181.292969 L 72 181.796875 L 71.796875 182.269531 L 71.566406 182.703125 L 71.324219 183.101562 L 71.054688 183.453125 L 70.769531 183.769531 L 70.460938 184.039062 L 70.132812 184.269531 L 69.785156 184.457031 L 69.414062 184.601562 L 69.027344 184.707031 L 68.613281 184.769531 Z M 68.183594 183.878906 L 68.5 183.859375 L 68.800781 183.808594 L 69.089844 183.71875 L 69.363281 183.589844 L 69.625 183.429688 L 69.871094 183.230469 L 70.105469 182.996094 L 70.328125 182.726562 L 70.535156 182.421875 L 70.726562 182.078125 L 70.910156 181.703125 L 71.074219 181.292969 L 71.21875 180.847656 L 71.34375 180.367188 L 71.449219 179.851562 L 71.535156 179.304688 L 71.601562 178.722656 L 71.648438 178.109375 L 71.679688 177.457031 L 71.6875 176.773438 L 71.679688 176.09375 L 71.648438 175.445312 L 71.601562 174.832031 L 71.535156 174.257812 L 71.449219 173.714844 L 71.34375 173.210938 L 71.21875 172.738281 L 71.074219 172.304688 L 70.910156 171.90625 L 70.726562 171.542969 L 70.535156 171.210938 L 70.328125 170.914062 L 70.105469 170.648438 L 69.871094 170.421875 L 69.625 170.230469 L 69.363281 170.070312 L 69.089844 169.949219 L 68.800781 169.859375 L 68.5 169.808594 L 68.183594 169.792969 L 67.875 169.808594 L 67.574219 169.859375 L 67.289062 169.949219 L 67.015625 170.070312 L 66.757812 170.230469 L 66.507812 170.421875 L 66.273438 170.648438 L 66.050781 170.914062 L 65.839844 171.210938 L 65.640625 171.542969 L 65.457031 171.90625 L 65.292969 172.304688 L 65.148438 172.738281 L 65.027344 173.210938 L 64.921875 173.714844 L 64.832031 174.257812 L 64.765625 174.832031 L 64.71875 175.445312 L 64.691406 176.09375 L 64.679688 176.773438 L 64.691406 177.457031 L 64.71875 178.109375 L 64.765625 178.722656 L 64.832031 179.304688 L 64.921875 179.851562 L 65.027344 180.367188 L 65.148438 180.847656 L 65.292969 181.292969 L 65.457031 181.703125 L 65.640625 182.078125 L 65.839844 182.421875 L 66.050781 182.726562 L 66.273438 182.996094 L 66.507812 183.230469 L 66.757812 183.429688 L 67.015625 183.589844 L 67.289062 183.71875 L 67.574219 183.808594 L 67.875 183.859375 Z M 68.183594 183.878906 "/>
<path fill-rule="nonzero" fill="rgb(10.196078%, 10.196078%, 10.196078%)" fill-opacity="1" d="M 67.894531 111.3125 L 67.652344 111.308594 L 67.417969 111.300781 L 67.191406 111.285156 L 66.964844 111.261719 L 66.75 111.234375 L 66.539062 111.199219 L 66.335938 111.160156 L 66.136719 111.113281 L 65.945312 111.0625 L 65.761719 111 L 65.585938 110.9375 L 65.414062 110.871094 L 65.25 110.800781 L 65.089844 110.726562 L 64.933594 110.648438 L 64.78125 110.566406 L 64.632812 110.480469 L 64.492188 110.394531 L 64.355469 110.304688 L 64.222656 110.210938 L 64.097656 110.113281 L 63.96875 110.015625 L 63.847656 109.921875 L 63.730469 109.824219 L 63.613281 109.730469 L 63.5 109.632812 L 63.386719 109.539062 L 63.175781 109.34375 L 63.070312 109.25 L 63.671875 108.503906 L 63.8125 108.644531 L 63.960938 108.78125 L 64.113281 108.914062 L 64.269531 109.046875 L 64.433594 109.175781 L 64.601562 109.304688 L 64.777344 109.433594 L 64.953125 109.558594 L 65.136719 109.679688 L 65.328125 109.800781 L 65.53125 109.910156 L 65.746094 110.007812 L 65.96875 110.09375 L 66.207031 110.171875 L 66.457031 110.234375 L 66.714844 110.285156 L 66.988281 110.324219 L 67.269531 110.355469 L 67.566406 110.371094 L 67.871094 110.378906 L 68.078125 110.371094 L 68.277344 110.355469 L 68.476562 110.332031 L 68.671875 110.296875 L 68.863281 110.25 L 69.050781 110.195312 L 69.234375 110.128906 L 69.414062 110.054688 L 69.59375 109.96875 L 69.769531 109.875 L 69.9375 109.765625 L 70.101562 109.644531 L 70.257812 109.519531 L 70.40625 109.386719 L 70.546875 109.242188 L 70.683594 109.09375 L 70.8125 108.933594 L 70.933594 108.765625 L 71.050781 108.59375 L 71.160156 108.410156 L 71.261719 108.21875 L 71.351562 108.023438 L 71.429688 107.820312 L 71.496094 107.613281 L 71.554688 107.402344 L 71.601562 107.183594 L 71.640625 106.957031 L 71.667969 106.726562 L 71.683594 106.492188 L 71.6875 106.25 L 71.675781 105.886719 L 71.648438 105.542969 L 71.59375 105.210938 L 71.523438 104.898438 L 71.429688 104.597656 L 71.316406 104.316406 L 71.183594 104.050781 L 71.027344 103.800781 L 70.851562 103.566406 L 70.65625 103.34375 L 70.449219 103.144531 L 70.226562 102.964844 L 69.988281 102.808594 L 69.738281 102.667969 L 69.472656 102.554688 L 69.195312 102.457031 L 68.902344 102.382812 L 68.597656 102.332031 L 68.277344 102.300781 L 67.945312 102.289062 L 67.769531 102.292969 L 67.597656 102.300781 L 67.433594 102.316406 L 67.273438 102.335938 L 67.117188 102.363281 L 66.964844 102.394531 L 66.816406 102.429688 L 66.675781 102.472656 L 66.539062 102.523438 L 66.40625 102.578125 L 66.28125 102.632812 L 66.15625 102.691406 L 66.027344 102.753906 L 65.898438 102.824219 L 65.765625 102.894531 L 65.632812 102.972656 L 65.5 103.054688 L 65.363281 103.136719 L 65.226562 103.226562 L 65.089844 103.320312 L 64.34375 102.867188 L 64.894531 95.6875 L 71.976562 95.6875 L 71.976562 96.625 L 65.855469 96.625 L 65.375 102.167969 L 65.496094 102.097656 L 65.617188 102.03125 L 65.742188 101.964844 L 65.863281 101.90625 L 65.988281 101.84375 L 66.238281 101.734375 L 66.367188 101.683594 L 66.496094 101.636719 L 66.625 101.59375 L 66.753906 101.546875 L 66.890625 101.507812 L 67.03125 101.472656 L 67.171875 101.441406 L 67.320312 101.414062 L 67.46875 101.390625 L 67.625 101.375 L 67.785156 101.363281 L 67.945312 101.355469 L 68.113281 101.351562 L 68.367188 101.359375 L 68.621094 101.375 L 68.867188 101.402344 L 69.109375 101.4375 L 69.347656 101.484375 L 69.582031 101.542969 L 69.808594 101.613281 L 70.03125 101.691406 L 70.25 101.78125 L 70.464844 101.882812 L 70.675781 101.988281 L 70.878906 102.105469 L 71.070312 102.234375 L 71.253906 102.375 L 71.429688 102.53125 L 71.597656 102.695312 L 71.753906 102.871094 L 71.898438 103.054688 L 72.039062 103.253906 L 72.167969 103.464844 L 72.285156 103.683594 L 72.394531 103.914062 L 72.484375 104.15625 L 72.566406 104.410156 L 72.636719 104.675781 L 72.691406 104.957031 L 72.734375 105.25 L 72.765625 105.554688 L 72.785156 105.871094 L 72.792969 106.203125 L 72.785156 106.523438 L 72.761719 106.835938 L 72.726562 107.136719 L 72.675781 107.429688 L 72.613281 107.714844 L 72.53125 107.988281 L 72.4375 108.25 L 72.332031 108.503906 L 72.207031 108.75 L 72.070312 108.984375 L 71.929688 109.207031 L 71.777344 109.414062 L 71.617188 109.613281 L 71.445312 109.804688 L 71.269531 109.980469 L 71.082031 110.148438 L 70.886719 110.304688 L 70.683594 110.453125 L 70.46875 110.589844 L 70.246094 110.714844 L 70.027344 110.828125 L 69.800781 110.929688 L 69.574219 111.019531 L 69.339844 111.097656 L 69.109375 111.164062 L 68.871094 111.21875 L 68.632812 111.257812 L 68.390625 111.289062 L 68.144531 111.308594 Z M 67.894531 111.3125 "/>
<path fill-rule="nonzero" fill="rgb(10.196078%, 10.196078%, 10.196078%)" fill-opacity="1" d="M 52.96875 37.546875 L 52.96875 36.613281 L 56.566406 36.613281 L 56.566406 23.890625 L 53.832031 23.890625 L 53.832031 23.171875 L 54.199219 23.101562 L 54.375 23.0625 L 54.550781 23.027344 L 54.71875 22.984375 L 54.886719 22.945312 L 55.046875 22.902344 L 55.207031 22.855469 L 55.359375 22.8125 L 55.511719 22.761719 L 55.660156 22.714844 L 55.800781 22.664062 L 55.9375 22.613281 L 56.074219 22.558594 L 56.203125 22.503906 L 56.328125 22.449219 L 56.449219 22.390625 L 56.675781 22.273438 L 56.785156 22.210938 L 57.648438 22.210938 L 57.648438 36.613281 L 60.984375 36.613281 L 60.984375 37.546875 Z M 52.96875 37.546875 "/>
<path fill-rule="nonzero" fill="rgb(10.196078%, 10.196078%, 10.196078%)" fill-opacity="1" d="M 68.183594 37.835938 L 67.757812 37.816406 L 67.351562 37.753906 L 66.960938 37.648438 L 66.59375 37.5 L 66.246094 37.3125 L 65.917969 37.082031 L 65.609375 36.8125 L 65.320312 36.5 L 65.050781 36.144531 L 64.800781 35.746094 L 64.570312 35.3125 L 64.367188 34.84375 L 64.1875 34.335938 L 64.03125 33.796875 L 63.898438 33.222656 L 63.792969 32.609375 L 63.707031 31.964844 L 63.648438 31.285156 L 63.613281 30.570312 L 63.601562 29.820312 L 63.613281 29.074219 L 63.648438 28.363281 L 63.707031 27.691406 L 63.792969 27.050781 L 63.898438 26.449219 L 64.03125 25.878906 L 64.1875 25.347656 L 64.367188 24.851562 L 64.570312 24.390625 L 64.800781 23.964844 L 65.050781 23.574219 L 65.320312 23.230469 L 65.609375 22.921875 L 65.917969 22.65625 L 66.246094 22.433594 L 66.59375 22.25 L 66.960938 22.105469 L 67.351562 22.003906 L 67.757812 21.945312 L 68.183594 21.921875 L 68.613281 21.945312 L 69.027344 22.003906 L 69.414062 22.105469 L 69.785156 22.25 L 70.132812 22.433594 L 70.460938 22.65625 L 70.769531 22.921875 L 71.054688 23.230469 L 71.324219 23.574219 L 71.566406 23.964844 L 71.796875 24.390625 L 72 24.851562 L 72.179688 25.347656 L 72.335938 25.878906 L 72.46875 26.449219 L 72.574219 27.050781 L 72.660156 27.691406 L 72.71875 28.363281 L 72.757812 29.074219 L 72.769531 29.820312 L 72.757812 30.570312 L 72.71875 31.285156 L 72.660156 31.964844 L 72.574219 32.609375 L 72.46875 33.222656 L 72.335938 33.796875 L 72.179688 34.335938 L 72 34.84375 L 71.796875 35.3125 L 71.566406 35.746094 L 71.324219 36.144531 L 71.054688 36.5 L 70.769531 36.8125 L 70.460938 37.082031 L 70.132812 37.3125 L 69.785156 37.5 L 69.414062 37.648438 L 69.027344 37.753906 L 68.613281 37.816406 Z M 68.183594 36.921875 L 68.5 36.90625 L 68.800781 36.851562 L 69.089844 36.761719 L 69.363281 36.636719 L 69.625 36.472656 L 69.871094 36.277344 L 70.105469 36.042969 L 70.328125 35.773438 L 70.535156 35.464844 L 70.726562 35.125 L 70.910156 34.746094 L 71.074219 34.335938 L 71.21875 33.890625 L 71.34375 33.410156 L 71.449219 32.898438 L 71.535156 32.351562 L 71.601562 31.769531 L 71.648438 31.152344 L 71.679688 30.503906 L 71.6875 29.820312 L 71.679688 29.136719 L 71.648438 28.488281 L 71.601562 27.878906 L 71.535156 27.300781 L 71.449219 26.757812 L 71.34375 26.253906 L 71.21875 25.785156 L 71.074219 25.351562 L 70.910156 24.949219 L 70.726562 24.585938 L 70.535156 24.253906 L 70.328125 23.957031 L 70.105469 23.695312 L 69.871094 23.464844 L 69.625 23.273438 L 69.363281 23.117188 L 69.089844 22.992188 L 68.800781 22.90625 L 68.5 22.851562 L 68.183594 22.835938 L 67.875 22.851562 L 67.574219 22.90625 L 67.289062 22.992188 L 67.015625 23.117188 L 66.757812 23.273438 L 66.507812 23.464844 L 66.273438 23.695312 L 66.050781 23.957031 L 65.839844 24.253906 L 65.640625 24.585938 L 65.457031 24.949219 L 65.292969 25.351562 L 65.148438 25.785156 L 65.027344 26.253906 L 64.921875 26.757812 L 64.832031 27.300781 L 64.765625 27.878906 L 64.71875 28.488281 L 64.691406 29.136719 L 64.679688 29.820312 L 64.691406 30.503906 L 64.71875 31.152344 L 64.765625 31.769531 L 64.832031 32.351562 L 64.921875 32.898438 L 65.027344 33.410156 L 65.148438 33.890625 L 65.292969 34.335938 L 65.457031 34.746094 L 65.640625 35.125 L 65.839844 35.464844 L 66.050781 35.773438 L 66.273438 36.042969 L 66.507812 36.277344 L 66.757812 36.472656 L 67.015625 36.636719 L 67.289062 36.761719 L 67.574219 36.851562 L 67.875 36.90625 Z M 68.183594 36.921875 "/>
<path fill-rule="nonzero" fill="rgb(10.196078%, 10.196078%, 10.196078%)" fill-opacity="1" d="M 236.285156 367.800781 L 235.859375 367.777344 L 235.453125 367.714844 L 235.0625 367.613281 L 234.695312 367.464844 L 234.347656 367.277344 L 234.019531 367.046875 L 233.710938 366.777344 L 233.421875 366.464844 L 233.152344 366.109375 L 232.902344 365.710938 L 232.675781 365.277344 L 232.46875 364.808594 L 232.289062 364.300781 L 232.132812 363.761719 L 232 363.1875 L 231.894531 362.574219 L 231.808594 361.929688 L 231.75 361.25 L 231.714844 360.535156 L 231.703125 359.785156 L 231.714844 359.039062 L 231.75 358.328125 L 231.808594 357.652344 L 231.894531 357.015625 L 232 356.410156 L 232.132812 355.84375 L 232.289062 355.3125 L 232.46875 354.816406 L 232.675781 354.355469 L 232.902344 353.929688 L 233.152344 353.539062 L 233.421875 353.195312 L 233.710938 352.886719 L 234.019531 352.621094 L 234.347656 352.398438 L 234.695312 352.214844 L 235.0625 352.070312 L 235.453125 351.96875 L 235.859375 351.910156 L 236.285156 351.886719 L 236.71875 351.910156 L 237.128906 351.96875 L 237.519531 352.070312 L 237.886719 352.214844 L 238.234375 352.398438 L 238.5625 352.621094 L 238.871094 352.886719 L 239.160156 353.195312 L 239.425781 353.539062 L 239.667969 353.929688 L 239.898438 354.355469 L 240.101562 354.816406 L 240.28125 355.3125 L 240.4375 355.84375 L 240.570312 356.410156 L 240.679688 357.015625 L 240.761719 357.652344 L 240.820312 358.328125 L 240.859375 359.039062 L 240.871094 359.785156 L 240.859375 360.535156 L 240.820312 361.25 L 240.761719 361.929688 L 240.679688 362.574219 L 240.570312 363.1875 L 240.4375 363.761719 L 240.28125 364.300781 L 240.101562 364.808594 L 239.898438 365.277344 L 239.667969 365.710938 L 239.425781 366.109375 L 239.160156 366.464844 L 238.871094 366.777344 L 238.5625 367.046875 L 238.234375 367.277344 L 237.886719 367.464844 L 237.519531 367.613281 L 237.128906 367.714844 L 236.71875 367.777344 Z M 236.285156 366.886719 L 236.601562 366.871094 L 236.902344 366.816406 L 237.191406 366.726562 L 237.464844 366.601562 L 237.726562 366.4375 L 237.972656 366.238281 L 238.207031 366.007812 L 238.429688 365.734375 L 238.636719 365.429688 L 238.828125 365.089844 L 239.011719 364.710938 L 239.175781 364.300781 L 239.320312 363.855469 L 239.445312 363.375 L 239.550781 362.863281 L 239.636719 362.316406 L 239.703125 361.734375 L 239.75 361.117188 L 239.78125 360.46875 L 239.789062 359.785156 L 239.78125 359.101562 L 239.75 358.453125 L 239.703125 357.839844 L 239.636719 357.265625 L 239.550781 356.722656 L 239.445312 356.21875 L 239.320312 355.75 L 239.175781 355.3125 L 239.011719 354.914062 L 238.828125 354.550781 L 238.636719 354.21875 L 238.429688 353.921875 L 238.207031 353.660156 L 237.972656 353.429688 L 237.726562 353.238281 L 237.464844 353.082031 L 237.191406 352.957031 L 236.902344 352.871094 L 236.601562 352.816406 L 236.285156 352.800781 L 235.976562 352.816406 L 235.675781 352.871094 L 235.390625 352.957031 L 235.117188 353.082031 L 234.859375 353.238281 L 234.609375 353.429688 L 234.375 353.660156 L 234.152344 353.921875 L 233.941406 354.21875 L 233.742188 354.550781 L 233.558594 354.914062 L 233.394531 355.3125 L 233.253906 355.75 L 233.128906 356.21875 L 233.023438 356.722656 L 232.933594 357.265625 L 232.867188 357.839844 L 232.820312 358.453125 L 232.792969 359.101562 L 232.78125 359.785156 L 232.792969 360.46875 L 232.820312 361.117188 L 232.867188 361.734375 L 232.933594 362.316406 L 233.023438 362.863281 L 233.128906 363.375 L 233.253906 363.855469 L 233.394531 364.300781 L 233.558594 364.710938 L 233.742188 365.089844 L 233.941406 365.429688 L 234.152344 365.734375 L 234.375 366.007812 L 234.609375 366.238281 L 234.859375 366.4375 L 235.117188 366.601562 L 235.390625 366.726562 L 235.675781 366.816406 L 235.976562 366.871094 Z M 236.285156 366.886719 "/>
<path fill-rule="nonzero" fill="rgb(10.196078%, 10.196078%, 10.196078%)" fill-opacity="1" d="M 624.417969 367.511719 L 624.417969 366.574219 L 628.019531 366.574219 L 628.019531 353.855469 L 625.285156 353.855469 L 625.285156 353.136719 L 625.46875 353.101562 L 625.648438 353.066406 L 625.828125 353.027344 L 626.171875 352.949219 L 626.335938 352.910156 L 626.5 352.867188 L 626.660156 352.820312 L 626.964844 352.726562 L 627.109375 352.679688 L 627.253906 352.628906 L 627.390625 352.578125 L 627.523438 352.523438 L 627.652344 352.46875 L 627.777344 352.414062 L 627.898438 352.355469 L 628.015625 352.296875 L 628.128906 352.238281 L 628.234375 352.175781 L 629.101562 352.175781 L 629.101562 366.574219 L 632.4375 366.574219 L 632.4375 367.511719 Z M 624.417969 367.511719 "/>
<path fill-rule="nonzero" fill="rgb(0%, 0%, 0%)" fill-opacity="1" d="M 30.761719 259 L 14.945312 259 L 14.945312 255.015625 L 14.953125 254.488281 L 14.984375 253.988281 L 15.03125 253.507812 L 15.101562 253.054688 L 15.191406 252.621094 L 15.296875 252.214844 L 15.425781 251.828125 L 15.574219 251.46875 L 15.742188 251.128906 L 15.929688 250.816406 L 16.140625 250.523438 L 16.378906 250.261719 L 16.648438 250.03125 L 16.949219 249.832031 L 17.277344 249.664062 L 17.636719 249.523438 L 18.023438 249.417969 L 18.4375 249.339844 L 18.886719 249.292969 L 19.359375 249.277344 L 19.8125 249.292969 L 20.242188 249.339844 L 20.652344 249.414062 L 21.035156 249.519531 L 21.394531 249.65625 L 21.730469 249.824219 L 22.042969 250.019531 L 22.332031 250.246094 L 22.597656 250.503906 L 22.839844 250.792969 L 23.054688 251.101562 L 23.246094 251.433594 L 23.414062 251.789062 L 23.5625 252.164062 L 23.6875 252.566406 L 23.789062 252.992188 L 23.867188 253.4375 L 23.921875 253.910156 L 23.957031 254.402344 L 23.96875 254.917969 L 23.96875 257.894531 L 30.761719 257.894531 Z M 23.03125 257.894531 L 23.03125 255.183594 L 23.023438 254.710938 L 22.996094 254.261719 L 22.953125 253.839844 L 22.894531 253.445312 L 22.816406 253.070312 L 22.722656 252.722656 L 22.609375 252.402344 L 22.480469 252.105469 L 22.332031 251.832031 L 22.167969 251.582031 L 21.984375 251.359375 L 21.777344 251.160156 L 21.550781 250.984375 L 21.304688 250.832031 L 21.035156 250.703125 L 20.742188 250.59375 L 20.429688 250.511719 L 20.09375 250.453125 L 19.738281 250.417969 L 19.359375 250.40625 L 18.972656 250.417969 L 18.613281 250.457031 L 18.277344 250.515625 L 17.964844 250.601562 L 17.679688 250.714844 L 17.417969 250.847656 L 17.183594 251.007812 L 16.972656 251.191406 L 16.785156 251.398438 L 16.625 251.632812 L 16.484375 251.882812 L 16.355469 252.160156 L 16.246094 252.464844 L 16.148438 252.789062 L 16.066406 253.144531 L 16 253.519531 L 15.945312 253.921875 L 15.910156 254.351562 L 15.886719 254.800781 L 15.878906 255.277344 L 15.878906 257.894531 Z M 23.03125 257.894531 "/>
<path fill-rule="nonzero" fill="rgb(0%, 0%, 0%)" fill-opacity="1" d="M 31.046875 241.742188 L 31.039062 242.015625 L 31.019531 242.28125 L 30.984375 242.546875 L 30.9375 242.808594 L 30.875 243.0625 L 30.796875 243.316406 L 30.707031 243.5625 L 30.601562 243.808594 L 30.484375 244.050781 L 30.351562 244.289062 L 30.203125 244.519531 L 30.039062 244.738281 L 29.863281 244.953125 L 29.675781 245.15625 L 29.476562 245.347656 L 29.261719 245.535156 L 29.039062 245.710938 L 28.800781 245.878906 L 28.550781 246.035156 L 28.289062 246.183594 L 28.007812 246.320312 L 27.71875 246.441406 L 27.417969 246.550781 L 27.109375 246.644531 L 26.789062 246.722656 L 26.457031 246.789062 L 26.113281 246.839844 L 25.761719 246.875 L 25.398438 246.894531 L 25.023438 246.902344 L 24.640625 246.894531 L 24.269531 246.875 L 23.910156 246.839844 L 23.566406 246.789062 L 23.230469 246.722656 L 22.90625 246.644531 L 22.597656 246.550781 L 22.296875 246.441406 L 22.011719 246.320312 L 21.734375 246.183594 L 21.46875 246.035156 L 21.214844 245.878906 L 20.976562 245.710938 L 20.75 245.535156 L 20.535156 245.347656 L 20.335938 245.15625 L 20.148438 244.953125 L 19.976562 244.738281 L 19.816406 244.519531 L 19.671875 244.289062 L 19.535156 244.050781 L 19.414062 243.808594 L 19.304688 243.5625 L 19.210938 243.316406 L 19.132812 243.0625 L 19.066406 242.808594 L 19.015625 242.546875 L 18.980469 242.28125 L 18.960938 242.015625 L 18.953125 241.742188 L 18.960938 241.46875 L 18.980469 241.195312 L 19.015625 240.925781 L 19.066406 240.664062 L 19.132812 240.40625 L 19.210938 240.152344 L 19.304688 239.898438 L 19.414062 239.652344 L 19.535156 239.414062 L 19.671875 239.175781 L 19.816406 238.945312 L 19.976562 238.722656 L 20.148438 238.511719 L 20.335938 238.308594 L 20.535156 238.113281 L 20.75 237.929688 L 20.976562 237.753906 L 21.214844 237.585938 L 21.46875 237.429688 L 21.734375 237.277344 L 22.011719 237.140625 L 22.296875 237.019531 L 22.597656 236.910156 L 22.90625 236.820312 L 23.230469 236.738281 L 23.566406 236.675781 L 23.910156 236.625 L 24.269531 236.589844 L 24.640625 236.566406 L 25.023438 236.558594 L 25.398438 236.566406 L 25.761719 236.589844 L 26.113281 236.625 L 26.457031 236.675781 L 26.789062 236.738281 L 27.109375 236.820312 L 27.417969 236.910156 L 27.71875 237.019531 L 28.007812 237.140625 L 28.289062 237.277344 L 28.550781 237.429688 L 28.800781 237.585938 L 29.039062 237.753906 L 29.261719 237.929688 L 29.476562 238.113281 L 29.675781 238.308594 L 29.863281 238.511719 L 30.039062 238.722656 L 30.203125 238.945312 L 30.351562 239.175781 L 30.484375 239.414062 L 30.601562 239.652344 L 30.707031 239.898438 L 30.796875 240.152344 L 30.875 240.40625 L 30.9375 240.664062 L 30.984375 240.925781 L 31.019531 241.195312 L 31.039062 241.46875 Z M 30.113281 241.742188 L 30.105469 241.511719 L 30.085938 241.285156 L 30.054688 241.0625 L 30.007812 240.84375 L 29.949219 240.632812 L 29.878906 240.425781 L 29.792969 240.226562 L 29.695312 240.03125 L 29.585938 239.839844 L 29.464844 239.65625 L 29.328125 239.476562 L 29.1875 239.304688 L 29.03125 239.140625 L 28.867188 238.988281 L 28.695312 238.839844 L 28.511719 238.699219 L 28.320312 238.566406 L 28.121094 238.441406 L 27.910156 238.324219 L 27.6875 238.214844 L 27.453125 238.109375 L 27.210938 238.015625 L 26.964844 237.933594 L 26.707031 237.863281 L 26.445312 237.800781 L 26.175781 237.75 L 25.898438 237.714844 L 25.613281 237.683594 L 25.324219 237.667969 L 25.023438 237.664062 L 24.71875 237.667969 L 24.425781 237.683594 L 24.136719 237.714844 L 23.855469 237.75 L 23.582031 237.800781 L 23.320312 237.863281 L 23.0625 237.933594 L 22.8125 238.015625 L 22.570312 238.109375 L 22.335938 238.214844 L 22.109375 238.324219 L 21.894531 238.441406 L 21.691406 238.566406 L 21.496094 238.699219 L 21.308594 238.839844 L 21.136719 238.988281 L 20.96875 239.140625 L 20.816406 239.304688 L 20.671875 239.476562 L 20.535156 239.65625 L 20.414062 239.839844 L 20.300781 240.03125 L 20.207031 240.226562 L 20.121094 240.425781 L 20.050781 240.632812 L 19.992188 240.84375 L 19.945312 241.0625 L 19.914062 241.285156 L 19.894531 241.511719 L 19.886719 241.742188 L 19.894531 241.972656 L 19.914062 242.195312 L 19.945312 242.414062 L 19.992188 242.628906 L 20.050781 242.839844 L 20.121094 243.046875 L 20.207031 243.25 L 20.300781 243.449219 L 20.414062 243.640625 L 20.535156 243.832031 L 20.671875 244.011719 L 20.816406 244.179688 L 20.96875 244.34375 L 21.136719 244.5 L 21.308594 244.648438 L 21.496094 244.789062 L 21.691406 244.917969 L 21.894531 245.042969 L 22.109375 245.160156 L 22.335938 245.269531 L 22.570312 245.371094 L 22.8125 245.460938 L 23.0625 245.539062 L 23.320312 245.609375 L 23.582031 245.667969 L 23.855469 245.714844 L 24.136719 245.75 L 24.425781 245.777344 L 24.71875 245.792969 L 25.023438 245.800781 L 25.324219 245.792969 L 25.613281 245.777344 L 25.898438 245.75 L 26.175781 245.714844 L 26.445312 245.667969 L 26.707031 245.609375 L 26.964844 245.539062 L 27.210938 245.460938 L 27.453125 245.371094 L 27.6875 245.269531 L 27.910156 245.160156 L 28.121094 245.042969 L 28.320312 244.917969 L 28.511719 244.789062 L 28.695312 244.648438 L 28.867188 244.5 L 29.03125 244.34375 L 29.1875 244.179688 L 29.328125 244.011719 L 29.464844 243.832031 L 29.585938 243.640625 L 29.695312 243.449219 L 29.792969 243.25 L 29.878906 243.046875 L 29.949219 242.839844 L 30.007812 242.628906 L 30.054688 242.414062 L 30.085938 242.195312 L 30.105469 241.972656 Z M 30.113281 241.742188 "/>
<path fill-rule="nonzero" fill="rgb(0%, 0%, 0%)" fill-opacity="1" d="M 31.046875 231.6875 L 31.03125 231.957031 L 30.976562 232.195312 L 30.882812 232.410156 L 30.757812 232.59375 L 30.59375 232.75 L 30.390625 232.875 L 30.152344 232.976562 L 29.878906 233.046875 L 29.570312 233.089844 L 29.222656 233.101562 L 13.503906 233.101562 L 13.503906 232.046875 L 29.367188 232.046875 L 29.507812 232.042969 L 29.636719 232.027344 L 29.746094 232 L 29.84375 231.964844 L 29.925781 231.921875 L 29.992188 231.867188 L 30.046875 231.800781 L 30.082031 231.726562 L 30.105469 231.640625 L 30.113281 231.542969 L 30.113281 231.375 L 30.105469 231.355469 L 30.101562 231.332031 L 30.097656 231.3125 L 30.09375 231.285156 L 30.089844 231.261719 L 30.082031 231.234375 L 30.078125 231.207031 L 30.070312 231.144531 L 30.0625 231.109375 L 30.929688 230.917969 L 30.945312 230.988281 L 30.953125 231.019531 L 30.960938 231.054688 L 30.96875 231.085938 L 30.984375 231.15625 L 30.988281 231.1875 L 30.996094 231.222656 L 31 231.253906 L 31.007812 231.289062 L 31.015625 231.328125 L 31.023438 231.363281 L 31.03125 231.40625 L 31.035156 231.445312 L 31.046875 231.585938 Z M 31.046875 231.6875 "/>
<path fill-rule="nonzero" fill="rgb(0%, 0%, 0%)" fill-opacity="1" d="M 30.761719 227.414062 L 19.238281 227.414062 L 19.238281 226.359375 L 30.761719 226.359375 Z M 16.457031 226.863281 L 16.453125 226.9375 L 16.445312 227.011719 L 16.433594 227.082031 L 16.414062 227.152344 L 16.390625 227.21875 L 16.328125 227.34375 L 16.285156 227.402344 L 16.242188 227.457031 L 16.191406 227.511719 L 16.136719 227.5625 L 16.078125 227.605469 L 16.015625 227.644531 L 15.949219 227.679688 L 15.878906 227.710938 L 15.804688 227.734375 L 15.648438 227.765625 L 15.5625 227.773438 L 15.390625 227.773438 L 15.316406 227.765625 L 15.238281 227.75 L 15.167969 227.734375 L 15.101562 227.710938 L 15.035156 227.679688 L 14.972656 227.644531 L 14.910156 227.605469 L 14.855469 227.5625 L 14.800781 227.511719 L 14.75 227.457031 L 14.703125 227.402344 L 14.664062 227.34375 L 14.601562 227.21875 L 14.578125 227.152344 L 14.558594 227.082031 L 14.546875 227.011719 L 14.539062 226.9375 L 14.535156 226.863281 L 14.539062 226.785156 L 14.546875 226.707031 L 14.558594 226.632812 L 14.578125 226.5625 L 14.601562 226.496094 L 14.632812 226.433594 L 14.664062 226.375 L 14.703125 226.316406 L 14.75 226.265625 L 14.800781 226.214844 L 14.855469 226.164062 L 14.910156 226.121094 L 14.972656 226.082031 L 15.035156 226.046875 L 15.101562 226.015625 L 15.167969 225.992188 L 15.238281 225.976562 L 15.316406 225.960938 L 15.390625 225.953125 L 15.5625 225.953125 L 15.648438 225.960938 L 15.804688 225.992188 L 15.878906 226.015625 L 15.949219 226.046875 L 16.015625 226.082031 L 16.078125 226.121094 L 16.136719 226.164062 L 16.191406 226.214844 L 16.242188 226.265625 L 16.285156 226.316406 L 16.328125 226.375 L 16.359375 226.433594 L 16.390625 226.496094 L 16.414062 226.5625 L 16.433594 226.632812 L 16.445312 226.707031 L 16.453125 226.785156 Z M 16.457031 226.863281 "/>
<path fill-rule="nonzero" fill="rgb(0%, 0%, 0%)" fill-opacity="1" d="M 31.046875 218.773438 L 31.039062 219.101562 L 31.007812 219.402344 L 30.960938 219.6875 L 30.894531 219.945312 L 30.808594 220.183594 L 30.703125 220.402344 L 30.578125 220.597656 L 30.433594 220.773438 L 30.269531 220.925781 L 30.089844 221.054688 L 29.886719 221.167969 L 29.671875 221.269531 L 29.449219 221.359375 L 29.210938 221.4375 L 28.964844 221.503906 L 28.707031 221.558594 L 28.441406 221.601562 L 28.160156 221.632812 L 27.871094 221.648438 L 27.566406 221.65625 L 20.152344 221.65625 L 20.152344 223.457031 L 19.335938 223.457031 L 19.238281 221.632812 L 15.902344 221.488281 L 15.902344 220.574219 L 19.238281 220.574219 L 19.238281 217.238281 L 20.152344 217.238281 L 20.152344 220.574219 L 27.664062 220.574219 L 27.878906 220.570312 L 28.089844 220.558594 L 28.289062 220.539062 L 28.476562 220.515625 L 28.660156 220.480469 L 28.832031 220.4375 L 28.996094 220.386719 L 29.152344 220.328125 L 29.300781 220.265625 L 29.441406 220.191406 L 29.566406 220.105469 L 29.683594 220.007812 L 29.78125 219.890625 L 29.871094 219.757812 L 29.945312 219.609375 L 30.003906 219.445312 L 30.050781 219.265625 L 30.085938 219.070312 L 30.105469 218.859375 L 30.113281 218.632812 L 30.109375 218.5625 L 30.109375 218.496094 L 30.101562 218.425781 L 30.097656 218.355469 L 30.089844 218.285156 L 30.066406 218.136719 L 30.035156 217.988281 L 30.015625 217.910156 L 29.992188 217.832031 L 29.96875 217.75 L 29.941406 217.675781 L 29.917969 217.601562 L 29.890625 217.527344 L 29.835938 217.386719 L 29.78125 217.253906 L 29.753906 217.191406 L 30.617188 216.902344 L 30.742188 217.308594 L 30.773438 217.414062 L 30.800781 217.515625 L 30.855469 217.726562 L 30.878906 217.828125 L 30.902344 217.933594 L 30.929688 218.035156 L 30.957031 218.128906 L 30.976562 218.222656 L 30.996094 218.3125 L 31.011719 218.398438 L 31.023438 218.480469 L 31.035156 218.558594 L 31.042969 218.632812 L 31.046875 218.707031 Z M 31.046875 218.773438 "/>
<path fill-rule="nonzero" fill="rgb(0%, 0%, 0%)" fill-opacity="1" d="M 36.015625 214.886719 L 36.011719 215.015625 L 36.007812 215.140625 L 35.996094 215.265625 L 35.976562 215.386719 L 35.957031 215.503906 L 35.929688 215.621094 L 35.898438 215.734375 L 35.863281 215.847656 L 35.820312 215.957031 L 35.777344 216.0625 L 34.839844 215.824219 L 34.855469 215.785156 L 34.867188 215.746094 L 34.882812 215.703125 L 34.894531 215.660156 L 34.90625 215.621094 L 34.917969 215.574219 L 34.929688 215.53125 L 34.941406 215.484375 L 34.949219 215.4375 L 34.960938 215.390625 L 34.972656 215.339844 L 34.984375 215.285156 L 35.007812 215.183594 L 35.015625 215.132812 L 35.019531 215.082031 L 35.027344 215.035156 L 35.027344 214.984375 L 35.03125 214.933594 L 35.03125 214.886719 L 35.023438 214.679688 L 34.996094 214.476562 L 34.953125 214.285156 L 34.894531 214.097656 L 34.816406 213.914062 L 34.722656 213.742188 L 34.609375 213.574219 L 34.480469 213.414062 L 34.332031 213.257812 L 34.167969 213.109375 L 33.992188 212.964844 L 33.804688 212.824219 L 33.609375 212.691406 L 33.402344 212.566406 L 33.191406 212.445312 L 32.96875 212.332031 L 32.734375 212.222656 L 32.492188 212.121094 L 32.242188 212.023438 L 31.984375 211.933594 L 30.976562 211.625 L 19.238281 216.351562 L 19.238281 215.199219 L 26.488281 212.414062 L 26.632812 212.363281 L 26.78125 212.308594 L 27.085938 212.191406 L 27.242188 212.132812 L 27.402344 212.074219 L 27.566406 212.011719 L 27.730469 211.945312 L 27.902344 211.882812 L 28.070312 211.816406 L 28.414062 211.683594 L 28.582031 211.617188 L 28.910156 211.484375 L 29.074219 211.421875 L 29.234375 211.355469 L 29.394531 211.292969 L 29.550781 211.230469 L 29.703125 211.167969 L 29.703125 211.070312 L 29.550781 211.019531 L 29.394531 210.964844 L 29.234375 210.914062 L 29.074219 210.859375 L 28.910156 210.808594 L 28.746094 210.753906 L 28.582031 210.703125 L 28.414062 210.648438 L 28.242188 210.597656 L 28.070312 210.542969 L 27.902344 210.484375 L 27.730469 210.429688 L 27.402344 210.320312 L 27.242188 210.265625 L 27.085938 210.214844 L 26.78125 210.113281 L 26.632812 210.0625 L 26.488281 210.015625 L 19.238281 207.542969 L 19.238281 206.464844 L 32.199219 211.023438 L 32.390625 211.085938 L 32.582031 211.15625 L 32.765625 211.230469 L 32.953125 211.308594 L 33.136719 211.390625 L 33.316406 211.476562 L 33.496094 211.566406 L 33.675781 211.660156 L 33.851562 211.761719 L 34.023438 211.863281 L 34.199219 211.964844 L 34.367188 212.074219 L 34.527344 212.1875 L 34.679688 212.304688 L 34.828125 212.425781 L 34.96875 212.554688 L 35.101562 212.6875 L 35.230469 212.824219 L 35.351562 212.964844 L 35.464844 213.109375 L 35.570312 213.261719 L 35.664062 213.421875 L 35.746094 213.582031 L 35.816406 213.753906 L 35.878906 213.925781 L 35.925781 214.109375 L 35.964844 214.292969 L 35.992188 214.484375 L 36.011719 214.683594 Z M 36.015625 214.886719 "/>
<path fill-rule="nonzero" fill="rgb(0%, 0%, 0%)" fill-opacity="1" d="M 34.960938 196.09375 L 34.476562 196.382812 L 33.992188 196.65625 L 33.5 196.917969 L 33 197.171875 L 32.5 197.410156 L 31.992188 197.636719 L 31.480469 197.851562 L 30.964844 198.054688 L 30.445312 198.246094 L 29.921875 198.421875 L 29.382812 198.582031 L 28.835938 198.726562 L 28.277344 198.851562 L 27.707031 198.960938 L 27.128906 199.054688 L 26.542969 199.128906 L 25.945312 199.1875 L 25.335938 199.230469 L 24.714844 199.253906 L 24.089844 199.261719 L 23.460938 199.253906 L 22.84375 199.230469 L 22.234375 199.1875 L 21.636719 199.128906 L 21.050781 199.054688 L 20.476562 198.960938 L 19.910156 198.851562 L 19.355469 198.726562 L 18.8125 198.582031 L 18.28125 198.421875 L 17.75 198.246094 L 17.226562 198.054688 L 16.707031 197.851562 L 16.191406 197.636719 L 15.683594 197.410156 L 15.179688 197.171875 L 14.679688 196.917969 L 14.1875 196.65625 L 13.699219 196.382812 L 13.214844 196.09375 L 13.601562 195.445312 L 14.054688 195.722656 L 14.519531 195.988281 L 14.992188 196.238281 L 15.472656 196.472656 L 15.964844 196.695312 L 16.460938 196.90625 L 16.96875 197.101562 L 17.484375 197.28125 L 18.011719 197.453125 L 18.542969 197.605469 L 19.082031 197.742188 L 19.625 197.867188 L 20.171875 197.972656 L 20.722656 198.066406 L 21.273438 198.148438 L 21.828125 198.210938 L 22.390625 198.261719 L 22.953125 198.296875 L 23.519531 198.320312 L 24.089844 198.328125 L 24.652344 198.320312 L 25.214844 198.296875 L 25.773438 198.261719 L 26.332031 198.210938 L 26.882812 198.148438 L 27.433594 198.066406 L 27.980469 197.972656 L 28.527344 197.867188 L 29.070312 197.742188 L 29.609375 197.605469 L 30.140625 197.453125 L 30.667969 197.28125 L 31.183594 197.101562 L 31.691406 196.90625 L 32.195312 196.695312 L 32.6875 196.472656 L 33.171875 196.238281 L 33.648438 195.988281 L 34.117188 195.722656 L 34.574219 195.445312 Z M 34.960938 196.09375 "/>
<path fill-rule="nonzero" fill="rgb(0%, 0%, 0%)" fill-opacity="1" d="M 30.761719 192.351562 L 14.945312 192.351562 L 14.945312 187.816406 L 14.953125 187.355469 L 14.980469 186.910156 L 15.03125 186.488281 L 15.097656 186.082031 L 15.183594 185.695312 L 15.289062 185.328125 L 15.414062 184.980469 L 15.558594 184.652344 L 15.722656 184.339844 L 15.902344 184.046875 L 16.105469 183.777344 L 16.332031 183.539062 L 16.585938 183.324219 L 16.867188 183.140625 L 17.175781 182.984375 L 17.511719 182.859375 L 17.871094 182.757812 L 18.261719 182.6875 L 18.675781 182.644531 L 19.121094 182.632812 L 19.492188 182.640625 L 19.847656 182.675781 L 20.183594 182.730469 L 20.507812 182.808594 L 20.8125 182.90625 L 21.101562 183.027344 L 21.375 183.171875 L 21.632812 183.335938 L 21.871094 183.527344 L 22.097656 183.734375 L 22.304688 183.960938 L 22.496094 184.199219 L 22.667969 184.453125 L 22.824219 184.726562 L 22.964844 185.011719 L 23.089844 185.316406 L 23.195312 185.636719 L 23.285156 185.96875 L 23.359375 186.320312 L 23.414062 186.6875 L 30.761719 182.320312 L 30.761719 183.589844 L 23.488281 187.886719 L 23.488281 191.246094 L 30.761719 191.246094 Z M 22.574219 191.246094 L 22.574219 188.101562 L 22.566406 187.695312 L 22.542969 187.304688 L 22.5 186.9375 L 22.441406 186.585938 L 22.367188 186.253906 L 22.273438 185.941406 L 22.164062 185.652344 L 22.039062 185.375 L 21.894531 185.121094 L 21.734375 184.886719 L 21.554688 184.671875 L 21.355469 184.480469 L 21.136719 184.3125 L 20.902344 184.164062 L 20.648438 184.042969 L 20.378906 183.941406 L 20.089844 183.859375 L 19.785156 183.804688 L 19.460938 183.769531 L 19.121094 183.757812 L 18.773438 183.769531 L 18.453125 183.804688 L 18.148438 183.859375 L 17.867188 183.941406 L 17.609375 184.042969 L 17.367188 184.164062 L 17.152344 184.3125 L 16.953125 184.480469 L 16.777344 184.671875 L 16.625 184.886719 L 16.484375 185.121094 L 16.355469 185.375 L 16.246094 185.652344 L 16.148438 185.941406 L 16.066406 186.253906 L 16 186.585938 L 15.945312 186.9375 L 15.910156 187.304688 L 15.886719 187.695312 L 15.878906 188.101562 L 15.878906 191.246094 Z M 22.574219 191.246094 "/>
<path fill-rule="nonzero" fill="rgb(0%, 0%, 0%)" fill-opacity="1" d="M 31.046875 175.214844 L 31.039062 175.488281 L 31.019531 175.753906 L 30.984375 176.019531 L 30.9375 176.277344 L 30.875 176.535156 L 30.796875 176.789062 L 30.707031 177.035156 L 30.601562 177.28125 L 30.484375 177.523438 L 30.351562 177.757812 L 30.203125 177.988281 L 30.039062 178.210938 L 29.863281 178.421875 L 29.675781 178.628906 L 29.476562 178.820312 L 29.261719 179.007812 L 29.039062 179.183594 L 28.800781 179.347656 L 28.550781 179.507812 L 28.289062 179.65625 L 28.007812 179.792969 L 27.71875 179.914062 L 27.417969 180.023438 L 27.109375 180.117188 L 26.789062 180.195312 L 26.457031 180.261719 L 26.113281 180.308594 L 25.761719 180.347656 L 25.398438 180.367188 L 25.023438 180.375 L 24.640625 180.367188 L 24.269531 180.347656 L 23.910156 180.308594 L 23.566406 180.261719 L 23.230469 180.195312 L 22.90625 180.117188 L 22.597656 180.023438 L 22.296875 179.914062 L 22.011719 179.792969 L 21.734375 179.65625 L 21.46875 179.507812 L 21.214844 179.347656 L 20.976562 179.183594 L 20.75 179.007812 L 20.535156 178.820312 L 20.335938 178.628906 L 20.148438 178.421875 L 19.976562 178.210938 L 19.816406 177.988281 L 19.671875 177.757812 L 19.535156 177.523438 L 19.414062 177.28125 L 19.304688 177.035156 L 19.210938 176.789062 L 19.132812 176.535156 L 19.066406 176.277344 L 19.015625 176.019531 L 18.980469 175.753906 L 18.960938 175.488281 L 18.953125 175.214844 L 18.960938 174.9375 L 18.980469 174.667969 L 19.015625 174.398438 L 19.066406 174.136719 L 19.132812 173.878906 L 19.210938 173.621094 L 19.304688 173.371094 L 19.414062 173.125 L 19.535156 172.882812 L 19.671875 172.648438 L 19.816406 172.417969 L 19.976562 172.195312 L 20.148438 171.984375 L 20.335938 171.78125 L 20.535156 171.585938 L 20.75 171.398438 L 20.976562 171.222656 L 21.214844 171.058594 L 21.46875 170.898438 L 21.734375 170.75 L 22.011719 170.613281 L 22.296875 170.492188 L 22.597656 170.382812 L 22.90625 170.289062 L 23.230469 170.210938 L 23.566406 170.144531 L 23.910156 170.097656 L 24.269531 170.058594 L 24.640625 170.039062 L 25.023438 170.03125 L 25.398438 170.039062 L 25.761719 170.058594 L 26.113281 170.097656 L 26.457031 170.144531 L 26.789062 170.210938 L 27.109375 170.289062 L 27.417969 170.382812 L 27.71875 170.492188 L 28.007812 170.613281 L 28.289062 170.75 L 28.550781 170.898438 L 28.800781 171.058594 L 29.039062 171.222656 L 29.261719 171.398438 L 29.476562 171.585938 L 29.675781 171.78125 L 29.863281 171.984375 L 30.039062 172.195312 L 30.203125 172.417969 L 30.351562 172.648438 L 30.484375 172.882812 L 30.601562 173.125 L 30.707031 173.371094 L 30.796875 173.621094 L 30.875 173.878906 L 30.9375 174.136719 L 30.984375 174.398438 L 31.019531 174.667969 L 31.039062 174.9375 Z M 30.113281 175.214844 L 30.105469 174.984375 L 30.085938 174.753906 L 30.054688 174.535156 L 30.007812 174.316406 L 29.949219 174.105469 L 29.878906 173.898438 L 29.792969 173.699219 L 29.695312 173.503906 L 29.585938 173.3125 L 29.464844 173.128906 L 29.328125 172.949219 L 29.1875 172.777344 L 29.03125 172.613281 L 28.867188 172.460938 L 28.695312 172.3125 L 28.511719 172.171875 L 28.320312 172.039062 L 28.121094 171.914062 L 27.910156 171.796875 L 27.6875 171.6875 L 27.453125 171.582031 L 27.210938 171.488281 L 26.964844 171.40625 L 26.707031 171.332031 L 26.445312 171.273438 L 26.175781 171.222656 L 25.898438 171.183594 L 25.613281 171.15625 L 25.324219 171.140625 L 25.023438 171.136719 L 24.71875 171.140625 L 24.425781 171.15625 L 24.136719 171.183594 L 23.855469 171.222656 L 23.582031 171.273438 L 23.320312 171.332031 L 23.0625 171.40625 L 22.8125 171.488281 L 22.570312 171.582031 L 22.335938 171.6875 L 22.109375 171.796875 L 21.894531 171.914062 L 21.691406 172.039062 L 21.496094 172.171875 L 21.308594 172.3125 L 21.136719 172.460938 L 20.96875 172.613281 L 20.816406 172.777344 L 20.671875 172.949219 L 20.535156 173.128906 L 20.414062 173.3125 L 20.300781 173.503906 L 20.207031 173.699219 L 20.121094 173.898438 L 20.050781 174.105469 L 19.992188 174.316406 L 19.945312 174.535156 L 19.914062 174.753906 L 19.894531 174.984375 L 19.886719 175.214844 L 19.894531 175.445312 L 19.914062 175.667969 L 19.945312 175.886719 L 19.992188 176.101562 L 20.050781 176.3125 L 20.121094 176.519531 L 20.207031 176.722656 L 20.300781 176.921875 L 20.414062 177.113281 L 20.535156 177.304688 L 20.671875 177.480469 L 20.816406 177.652344 L 20.96875 177.816406 L 21.136719 177.972656 L 21.308594 178.121094 L 21.496094 178.257812 L 21.691406 178.390625 L 21.894531 178.515625 L 22.109375 178.632812 L 22.335938 178.742188 L 22.570312 178.84375 L 22.8125 178.933594 L 23.0625 179.011719 L 23.320312 179.082031 L 23.582031 179.140625 L 23.855469 179.1875 L 24.136719 179.222656 L 24.425781 179.25 L 24.71875 179.265625 L 25.023438 179.269531 L 25.324219 179.265625 L 25.613281 179.25 L 25.898438 179.222656 L 26.175781 179.1875 L 26.445312 179.140625 L 26.707031 179.082031 L 26.964844 179.011719 L 27.210938 178.933594 L 27.453125 178.84375 L 27.6875 178.742188 L 27.910156 178.632812 L 28.121094 178.515625 L 28.320312 178.390625 L 28.511719 178.257812 L 28.695312 178.121094 L 28.867188 177.972656 L 29.03125 177.816406 L 29.1875 177.652344 L 29.328125 177.480469 L 29.464844 177.304688 L 29.585938 177.113281 L 29.695312 176.921875 L 29.792969 176.722656 L 29.878906 176.519531 L 29.949219 176.3125 L 30.007812 176.101562 L 30.054688 175.886719 L 30.085938 175.667969 L 30.105469 175.445312 Z M 30.113281 175.214844 "/>
<path fill-rule="nonzero" fill="rgb(0%, 0%, 0%)" fill-opacity="1" d="M 31.046875 163.792969 L 31.042969 164.042969 L 31.03125 164.292969 L 31.007812 164.539062 L 30.976562 164.78125 L 30.933594 165.019531 L 30.882812 165.257812 L 30.824219 165.488281 L 30.757812 165.71875 L 30.679688 165.945312 L 30.59375 166.167969 L 30.496094 166.378906 L 30.394531 166.585938 L 30.289062 166.789062 L 30.179688 166.980469 L 30.070312 167.167969 L 29.957031 167.351562 L 29.835938 167.527344 L 29.714844 167.695312 L 29.59375 167.859375 L 29.464844 168.015625 L 28.671875 167.390625 L 28.789062 167.242188 L 28.90625 167.089844 L 29.015625 166.9375 L 29.125 166.78125 L 29.230469 166.625 L 29.332031 166.464844 L 29.429688 166.300781 L 29.523438 166.140625 L 29.617188 165.972656 L 29.703125 165.808594 L 29.785156 165.636719 L 29.859375 165.453125 L 29.925781 165.265625 L 29.980469 165.070312 L 30.027344 164.863281 L 30.066406 164.652344 L 30.097656 164.429688 L 30.117188 164.203125 L 30.132812 163.964844 L 30.136719 163.71875 L 30.128906 163.457031 L 30.109375 163.207031 L 30.074219 162.972656 L 30.027344 162.746094 L 29.96875 162.539062 L 29.894531 162.339844 L 29.808594 162.15625 L 29.707031 161.984375 L 29.589844 161.824219 L 29.464844 161.679688 L 29.324219 161.546875 L 29.175781 161.429688 L 29.027344 161.324219 L 28.871094 161.234375 L 28.714844 161.15625 L 28.550781 161.09375 L 28.382812 161.046875 L 28.210938 161.011719 L 28.035156 160.988281 L 27.855469 160.984375 L 27.714844 160.988281 L 27.578125 161 L 27.445312 161.023438 L 27.320312 161.050781 L 27.195312 161.089844 L 27.078125 161.140625 L 26.964844 161.195312 L 26.859375 161.257812 L 26.753906 161.332031 L 26.65625 161.414062 L 26.5625 161.503906 L 26.46875 161.597656 L 26.382812 161.695312 L 26.300781 161.796875 L 26.21875 161.902344 L 26.140625 162.011719 L 26.066406 162.125 L 25.996094 162.246094 L 25.929688 162.367188 L 25.863281 162.496094 L 25.800781 162.621094 L 25.742188 162.746094 L 25.625 163.003906 L 25.460938 163.390625 L 25.359375 163.65625 L 25.3125 163.792969 L 25.25 163.964844 L 25.050781 164.480469 L 24.980469 164.648438 L 24.910156 164.820312 L 24.839844 164.988281 L 24.765625 165.160156 L 24.617188 165.496094 L 24.535156 165.65625 L 24.453125 165.808594 L 24.367188 165.957031 L 24.273438 166.101562 L 24.179688 166.238281 L 24.078125 166.371094 L 23.972656 166.496094 L 23.863281 166.617188 L 23.75 166.730469 L 23.632812 166.839844 L 23.503906 166.941406 L 23.367188 167.03125 L 23.226562 167.109375 L 23.074219 167.175781 L 22.917969 167.234375 L 22.753906 167.28125 L 22.582031 167.320312 L 22.402344 167.347656 L 22.21875 167.363281 L 22.023438 167.367188 L 21.773438 167.359375 L 21.53125 167.328125 L 21.296875 167.28125 L 21.066406 167.21875 L 20.847656 167.132812 L 20.636719 167.03125 L 20.429688 166.910156 L 20.234375 166.769531 L 20.046875 166.609375 L 19.863281 166.429688 L 19.691406 166.230469 L 19.535156 166.011719 L 19.398438 165.78125 L 19.28125 165.527344 L 19.179688 165.261719 L 19.097656 164.976562 L 19.035156 164.675781 L 18.988281 164.359375 L 18.960938 164.023438 L 18.953125 163.671875 L 18.957031 163.484375 L 18.964844 163.300781 L 18.980469 163.117188 L 19.003906 162.933594 L 19.035156 162.753906 L 19.074219 162.574219 L 19.117188 162.394531 L 19.167969 162.21875 L 19.222656 162.042969 L 19.289062 161.871094 L 19.355469 161.695312 L 19.429688 161.527344 L 19.507812 161.363281 L 19.585938 161.203125 L 19.671875 161.050781 L 19.761719 160.902344 L 19.851562 160.757812 L 19.949219 160.621094 L 20.046875 160.488281 L 20.152344 160.359375 L 20.894531 160.933594 L 20.730469 161.175781 L 20.648438 161.300781 L 20.574219 161.421875 L 20.5 161.546875 L 20.429688 161.671875 L 20.363281 161.796875 L 20.296875 161.925781 L 20.234375 162.054688 L 20.175781 162.183594 L 20.117188 162.316406 L 20.0625 162.449219 L 20.015625 162.589844 L 19.976562 162.734375 L 19.941406 162.886719 L 19.914062 163.039062 L 19.890625 163.195312 L 19.875 163.359375 L 19.867188 163.523438 L 19.863281 163.695312 L 19.871094 163.957031 L 19.890625 164.203125 L 19.921875 164.4375 L 19.96875 164.660156 L 20.027344 164.863281 L 20.097656 165.058594 L 20.179688 165.234375 L 20.277344 165.398438 L 20.390625 165.550781 L 20.511719 165.6875 L 20.644531 165.804688 L 20.777344 165.910156 L 20.914062 166.003906 L 21.054688 166.085938 L 21.195312 166.15625 L 21.339844 166.210938 L 21.488281 166.253906 L 21.640625 166.285156 L 21.796875 166.304688 L 21.953125 166.3125 L 22.078125 166.308594 L 22.203125 166.296875 L 22.320312 166.277344 L 22.4375 166.253906 L 22.546875 166.222656 L 22.652344 166.179688 L 22.753906 166.136719 L 22.851562 166.082031 L 22.945312 166.019531 L 23.03125 165.953125 L 23.117188 165.871094 L 23.199219 165.789062 L 23.277344 165.703125 L 23.355469 165.609375 L 23.429688 165.511719 L 23.5 165.414062 L 23.566406 165.308594 L 23.632812 165.199219 L 23.691406 165.085938 L 23.753906 164.96875 L 23.804688 164.84375 L 23.859375 164.714844 L 23.910156 164.589844 L 23.964844 164.460938 L 24.015625 164.332031 L 24.070312 164.199219 L 24.121094 164.070312 L 24.175781 163.9375 L 24.226562 163.804688 L 24.28125 163.671875 L 24.347656 163.488281 L 24.417969 163.308594 L 24.484375 163.128906 L 24.554688 162.949219 L 24.628906 162.769531 L 24.699219 162.59375 L 24.847656 162.242188 L 24.921875 162.070312 L 25 161.894531 L 25.078125 161.726562 L 25.164062 161.5625 L 25.253906 161.40625 L 25.347656 161.253906 L 25.449219 161.109375 L 25.554688 160.972656 L 25.667969 160.839844 L 25.785156 160.710938 L 25.90625 160.59375 L 26.03125 160.480469 L 26.167969 160.371094 L 26.308594 160.273438 L 26.464844 160.183594 L 26.628906 160.109375 L 26.800781 160.046875 L 26.980469 159.996094 L 27.175781 159.953125 L 27.375 159.925781 L 27.585938 159.910156 L 27.808594 159.902344 L 27.980469 159.90625 L 28.148438 159.921875 L 28.316406 159.945312 L 28.480469 159.976562 L 28.640625 160.015625 L 28.800781 160.066406 L 28.957031 160.125 L 29.113281 160.195312 L 29.265625 160.273438 L 29.414062 160.359375 L 29.558594 160.453125 L 29.695312 160.558594 L 29.824219 160.667969 L 29.949219 160.789062 L 30.070312 160.917969 L 30.183594 161.054688 L 30.292969 161.199219 L 30.398438 161.351562 L 30.5 161.511719 L 30.59375 161.679688 L 30.679688 161.855469 L 30.757812 162.039062 L 30.824219 162.230469 L 30.882812 162.433594 L 30.933594 162.640625 L 30.976562 162.855469 L 31.007812 163.078125 L 31.03125 163.308594 L 31.042969 163.546875 Z M 31.046875 163.792969 "/>
<path fill-rule="nonzero" fill="rgb(0%, 0%, 0%)" fill-opacity="1" d="M 31.046875 154.070312 L 31.042969 154.324219 L 31.03125 154.574219 L 31.007812 154.820312 L 30.976562 155.0625 L 30.933594 155.300781 L 30.882812 155.539062 L 30.824219 155.769531 L 30.757812 156 L 30.679688 156.226562 L 30.59375 156.445312 L 30.496094 156.660156 L 30.394531 156.867188 L 30.289062 157.066406 L 30.179688 157.261719 L 30.070312 157.449219 L 29.957031 157.632812 L 29.714844 157.976562 L 29.59375 158.136719 L 29.464844 158.296875 L 28.671875 157.671875 L 28.789062 157.519531 L 28.90625 157.371094 L 29.015625 157.214844 L 29.125 157.0625 L 29.230469 156.902344 L 29.332031 156.742188 L 29.429688 156.582031 L 29.617188 156.253906 L 29.703125 156.085938 L 29.785156 155.914062 L 29.859375 155.734375 L 29.925781 155.546875 L 29.980469 155.351562 L 30.027344 155.144531 L 30.066406 154.933594 L 30.097656 154.710938 L 30.117188 154.480469 L 30.132812 154.246094 L 30.136719 154 L 30.128906 153.738281 L 30.109375 153.488281 L 30.074219 153.25 L 30.027344 153.027344 L 29.96875 152.816406 L 29.894531 152.621094 L 29.808594 152.433594 L 29.707031 152.261719 L 29.589844 152.105469 L 29.464844 151.960938 L 29.324219 151.828125 L 29.175781 151.707031 L 29.027344 151.605469 L 28.871094 151.515625 L 28.714844 151.4375 L 28.550781 151.375 L 28.382812 151.324219 L 28.210938 151.292969 L 28.035156 151.269531 L 27.855469 151.261719 L 27.714844 151.265625 L 27.578125 151.28125 L 27.445312 151.300781 L 27.320312 151.332031 L 27.195312 151.371094 L 27.078125 151.417969 L 26.964844 151.476562 L 26.859375 151.539062 L 26.753906 151.613281 L 26.65625 151.695312 L 26.46875 151.875 L 26.382812 151.972656 L 26.300781 152.074219 L 26.21875 152.179688 L 26.140625 152.292969 L 26.066406 152.40625 L 25.996094 152.523438 L 25.863281 152.773438 L 25.800781 152.902344 L 25.683594 153.152344 L 25.625 153.28125 L 25.570312 153.410156 L 25.515625 153.542969 L 25.460938 153.671875 L 25.359375 153.9375 L 25.3125 154.070312 L 25.25 154.242188 L 25.050781 154.757812 L 24.980469 154.929688 L 24.910156 155.097656 L 24.839844 155.269531 L 24.617188 155.773438 L 24.535156 155.933594 L 24.453125 156.089844 L 24.367188 156.238281 L 24.273438 156.382812 L 24.179688 156.519531 L 24.078125 156.652344 L 23.972656 156.777344 L 23.863281 156.898438 L 23.75 157.011719 L 23.632812 157.121094 L 23.503906 157.21875 L 23.367188 157.308594 L 23.226562 157.386719 L 23.074219 157.457031 L 22.917969 157.515625 L 22.753906 157.5625 L 22.582031 157.601562 L 22.402344 157.625 L 22.21875 157.640625 L 22.023438 157.648438 L 21.773438 157.636719 L 21.53125 157.609375 L 21.296875 157.5625 L 21.066406 157.496094 L 20.847656 157.414062 L 20.636719 157.308594 L 20.429688 157.1875 L 20.234375 157.046875 L 20.046875 156.890625 L 19.863281 156.710938 L 19.691406 156.511719 L 19.535156 156.292969 L 19.398438 156.058594 L 19.28125 155.808594 L 19.179688 155.542969 L 19.097656 155.257812 L 19.035156 154.957031 L 18.988281 154.636719 L 18.960938 154.304688 L 18.953125 153.953125 L 18.957031 153.765625 L 18.964844 153.578125 L 18.980469 153.394531 L 19.003906 153.214844 L 19.035156 153.035156 L 19.074219 152.855469 L 19.117188 152.675781 L 19.167969 152.5 L 19.222656 152.324219 L 19.289062 152.152344 L 19.355469 151.976562 L 19.429688 151.804688 L 19.507812 151.640625 L 19.585938 151.484375 L 19.671875 151.328125 L 19.761719 151.179688 L 19.851562 151.039062 L 19.949219 150.898438 L 20.046875 150.765625 L 20.152344 150.640625 L 20.894531 151.214844 L 20.648438 151.578125 L 20.5 151.828125 L 20.429688 151.953125 L 20.363281 152.078125 L 20.296875 152.207031 L 20.234375 152.335938 L 20.117188 152.59375 L 20.0625 152.730469 L 20.015625 152.871094 L 19.976562 153.015625 L 19.941406 153.164062 L 19.914062 153.320312 L 19.890625 153.476562 L 19.875 153.636719 L 19.867188 153.804688 L 19.863281 153.976562 L 19.871094 154.238281 L 19.890625 154.484375 L 19.921875 154.71875 L 19.96875 154.9375 L 20.027344 155.144531 L 20.097656 155.335938 L 20.179688 155.515625 L 20.277344 155.679688 L 20.390625 155.832031 L 20.511719 155.96875 L 20.644531 156.085938 L 20.777344 156.191406 L 20.914062 156.285156 L 21.054688 156.367188 L 21.195312 156.433594 L 21.339844 156.492188 L 21.488281 156.535156 L 21.640625 156.566406 L 21.796875 156.585938 L 21.953125 156.589844 L 22.078125 156.585938 L 22.203125 156.578125 L 22.320312 156.558594 L 22.4375 156.535156 L 22.546875 156.5 L 22.652344 156.460938 L 22.753906 156.414062 L 22.851562 156.359375 L 22.945312 156.300781 L 23.03125 156.230469 L 23.117188 156.152344 L 23.199219 156.070312 L 23.355469 155.890625 L 23.429688 155.792969 L 23.5 155.691406 L 23.632812 155.480469 L 23.691406 155.363281 L 23.753906 155.246094 L 23.804688 155.121094 L 23.859375 154.996094 L 23.910156 154.867188 L 23.964844 154.742188 L 24.015625 154.609375 L 24.070312 154.480469 L 24.121094 154.351562 L 24.175781 154.21875 L 24.226562 154.085938 L 24.28125 153.953125 L 24.347656 153.769531 L 24.417969 153.589844 L 24.484375 153.410156 L 24.554688 153.230469 L 24.628906 153.050781 L 24.699219 152.875 L 24.921875 152.347656 L 25.078125 152.003906 L 25.164062 151.84375 L 25.253906 151.683594 L 25.347656 151.535156 L 25.449219 151.390625 L 25.554688 151.25 L 25.667969 151.117188 L 25.785156 150.992188 L 25.90625 150.871094 L 26.03125 150.757812 L 26.167969 150.648438 L 26.308594 150.550781 L 26.464844 150.464844 L 26.628906 150.390625 L 26.800781 150.328125 L 26.980469 150.273438 L 27.175781 150.234375 L 27.375 150.207031 L 27.585938 150.1875 L 27.808594 150.183594 L 27.980469 150.1875 L 28.148438 150.203125 L 28.316406 150.222656 L 28.480469 150.257812 L 28.640625 150.296875 L 28.800781 150.347656 L 28.957031 150.40625 L 29.113281 150.476562 L 29.265625 150.550781 L 29.414062 150.640625 L 29.558594 150.734375 L 29.695312 150.839844 L 29.824219 150.949219 L 29.949219 151.070312 L 30.070312 151.195312 L 30.183594 151.332031 L 30.292969 151.476562 L 30.398438 151.628906 L 30.5 151.789062 L 30.59375 151.960938 L 30.679688 152.136719 L 30.757812 152.320312 L 30.824219 152.511719 L 30.882812 152.710938 L 30.933594 152.917969 L 30.976562 153.132812 L 31.007812 153.355469 L 31.03125 153.585938 L 31.042969 153.824219 Z M 31.046875 154.070312 "/>
<path fill-rule="nonzero" fill="rgb(0%, 0%, 0%)" fill-opacity="1" d="M 30.761719 143.558594 L 30.089844 143.558594 L 29.582031 143.0625 L 29.089844 142.585938 L 28.609375 142.121094 L 28.144531 141.675781 L 27.695312 141.25 L 27.257812 140.835938 L 26.832031 140.441406 L 26.425781 140.066406 L 26.03125 139.703125 L 25.648438 139.359375 L 25.273438 139.03125 L 24.90625 138.722656 L 24.546875 138.425781 L 24.195312 138.148438 L 23.855469 137.890625 L 23.519531 137.644531 L 23.195312 137.417969 L 22.875 137.207031 L 22.566406 137.015625 L 22.265625 136.839844 L 21.96875 136.679688 L 21.675781 136.535156 L 21.386719 136.410156 L 21.101562 136.300781 L 20.816406 136.210938 L 20.539062 136.132812 L 20.261719 136.074219 L 19.992188 136.03125 L 19.722656 136.007812 L 19.457031 136 L 19.171875 136.007812 L 18.898438 136.03125 L 18.632812 136.074219 L 18.375 136.128906 L 18.128906 136.203125 L 17.890625 136.292969 L 17.664062 136.398438 L 17.445312 136.519531 L 17.234375 136.660156 L 17.03125 136.816406 L 16.84375 136.984375 L 16.675781 137.167969 L 16.53125 137.375 L 16.402344 137.597656 L 16.292969 137.839844 L 16.207031 138.101562 L 16.136719 138.382812 L 16.085938 138.679688 L 16.058594 139 L 16.046875 139.335938 L 16.054688 139.539062 L 16.070312 139.746094 L 16.101562 139.945312 L 16.140625 140.144531 L 16.191406 140.34375 L 16.253906 140.539062 L 16.332031 140.734375 L 16.417969 140.925781 L 16.515625 141.113281 L 16.625 141.304688 L 16.742188 141.484375 L 16.867188 141.660156 L 16.996094 141.832031 L 17.128906 142 L 17.417969 142.320312 L 17.570312 142.472656 L 17.730469 142.625 L 17.894531 142.769531 L 18.0625 142.910156 L 17.390625 143.605469 L 17.203125 143.433594 L 17.019531 143.253906 L 16.84375 143.070312 L 16.675781 142.886719 L 16.511719 142.695312 L 16.351562 142.5 L 16.199219 142.304688 L 16.054688 142.101562 L 15.917969 141.898438 L 15.785156 141.6875 L 15.660156 141.472656 L 15.550781 141.25 L 15.453125 141.023438 L 15.371094 140.789062 L 15.296875 140.546875 L 15.238281 140.300781 L 15.195312 140.042969 L 15.160156 139.78125 L 15.140625 139.515625 L 15.136719 139.238281 L 15.148438 138.835938 L 15.183594 138.449219 L 15.242188 138.085938 L 15.324219 137.738281 L 15.429688 137.410156 L 15.558594 137.097656 L 15.710938 136.808594 L 15.886719 136.535156 L 16.089844 136.28125 L 16.3125 136.046875 L 16.554688 135.832031 L 16.8125 135.640625 L 17.085938 135.472656 L 17.375 135.324219 L 17.679688 135.203125 L 18 135.101562 L 18.335938 135.019531 L 18.683594 134.964844 L 19.050781 134.929688 L 19.433594 134.917969 L 19.734375 134.929688 L 20.039062 134.953125 L 20.34375 135 L 20.648438 135.0625 L 20.957031 135.140625 L 21.261719 135.238281 L 21.574219 135.355469 L 21.882812 135.488281 L 22.191406 135.636719 L 22.503906 135.808594 L 22.820312 135.988281 L 23.136719 136.179688 L 23.460938 136.390625 L 23.789062 136.613281 L 24.125 136.851562 L 24.460938 137.101562 L 24.804688 137.371094 L 25.152344 137.652344 L 25.507812 137.945312 L 25.863281 138.253906 L 26.230469 138.574219 L 26.601562 138.902344 L 26.984375 139.242188 L 27.375 139.59375 L 27.777344 139.960938 L 28.1875 140.335938 L 28.605469 140.722656 L 29.035156 141.121094 L 29.472656 141.53125 L 29.921875 141.953125 L 29.910156 141.828125 L 29.902344 141.699219 L 29.886719 141.449219 L 29.878906 141.320312 L 29.871094 141.195312 L 29.863281 141.066406 L 29.859375 140.9375 L 29.851562 140.808594 L 29.847656 140.679688 L 29.816406 140.148438 L 29.800781 139.632812 L 29.800781 134.152344 L 30.761719 134.152344 Z M 30.761719 143.558594 "/>
<path fill-rule="nonzero" fill="rgb(0%, 0%, 0%)" fill-opacity="1" d="M 31.046875 127.3125 L 31.027344 127.738281 L 30.964844 128.144531 L 30.859375 128.53125 L 30.714844 128.902344 L 30.527344 129.25 L 30.296875 129.578125 L 30.023438 129.886719 L 29.710938 130.175781 L 29.355469 130.445312 L 28.960938 130.695312 L 28.523438 130.921875 L 28.054688 131.128906 L 27.550781 131.308594 L 27.007812 131.464844 L 26.433594 131.59375 L 25.824219 131.703125 L 25.179688 131.789062 L 24.496094 131.847656 L 23.78125 131.882812 L 23.03125 131.894531 L 22.285156 131.882812 L 21.578125 131.847656 L 20.902344 131.789062 L 20.261719 131.703125 L 19.660156 131.59375 L 19.09375 131.464844 L 18.558594 131.308594 L 18.0625 131.128906 L 17.601562 130.921875 L 17.175781 130.695312 L 16.789062 130.445312 L 16.441406 130.175781 L 16.136719 129.886719 L 15.871094 129.578125 L 15.644531 129.25 L 15.460938 128.902344 L 15.320312 128.53125 L 15.21875 128.144531 L 15.15625 127.738281 L 15.136719 127.3125 L 15.15625 126.878906 L 15.21875 126.46875 L 15.320312 126.078125 L 15.460938 125.710938 L 15.644531 125.359375 L 15.871094 125.03125 L 16.136719 124.726562 L 16.441406 124.4375 L 16.789062 124.171875 L 17.175781 123.925781 L 17.601562 123.699219 L 18.0625 123.496094 L 18.558594 123.316406 L 19.09375 123.160156 L 19.660156 123.027344 L 20.261719 122.917969 L 20.902344 122.835938 L 21.578125 122.773438 L 22.285156 122.738281 L 23.03125 122.726562 L 23.78125 122.738281 L 24.496094 122.773438 L 25.179688 122.835938 L 25.824219 122.917969 L 26.433594 123.027344 L 27.007812 123.160156 L 27.550781 123.316406 L 28.054688 123.496094 L 28.523438 123.699219 L 28.960938 123.925781 L 29.355469 124.171875 L 29.710938 124.4375 L 30.023438 124.726562 L 30.296875 125.03125 L 30.527344 125.359375 L 30.714844 125.710938 L 30.859375 126.078125 L 30.964844 126.46875 L 31.027344 126.878906 Z M 30.136719 127.3125 L 30.117188 126.996094 L 30.0625 126.695312 L 29.972656 126.40625 L 29.847656 126.132812 L 29.6875 125.871094 L 29.488281 125.625 L 29.253906 125.390625 L 28.984375 125.167969 L 28.679688 124.960938 L 28.335938 124.765625 L 27.957031 124.585938 L 27.546875 124.421875 L 27.101562 124.277344 L 26.625 124.152344 L 26.109375 124.046875 L 25.5625 123.960938 L 24.980469 123.894531 L 24.367188 123.84375 L 23.714844 123.816406 L 23.03125 123.808594 L 22.347656 123.816406 L 21.703125 123.84375 L 21.089844 123.894531 L 20.511719 123.960938 L 19.972656 124.046875 L 19.464844 124.152344 L 18.996094 124.277344 L 18.5625 124.421875 L 18.164062 124.585938 L 17.800781 124.765625 L 17.46875 124.960938 L 17.167969 125.167969 L 16.90625 125.390625 L 16.679688 125.625 L 16.484375 125.871094 L 16.328125 126.132812 L 16.207031 126.40625 L 16.117188 126.695312 L 16.066406 126.996094 L 16.046875 127.3125 L 16.066406 127.621094 L 16.117188 127.917969 L 16.207031 128.207031 L 16.328125 128.480469 L 16.484375 128.738281 L 16.679688 128.988281 L 16.90625 129.222656 L 17.167969 129.445312 L 17.46875 129.65625 L 17.800781 129.855469 L 18.164062 130.039062 L 18.5625 130.199219 L 18.996094 130.34375 L 19.464844 130.46875 L 19.972656 130.574219 L 20.511719 130.660156 L 21.089844 130.730469 L 21.703125 130.777344 L 22.347656 130.804688 L 23.03125 130.816406 L 23.714844 130.804688 L 24.367188 130.777344 L 24.980469 130.730469 L 25.5625 130.660156 L 26.109375 130.574219 L 26.625 130.46875 L 27.101562 130.34375 L 27.546875 130.199219 L 27.957031 130.039062 L 28.335938 129.855469 L 28.679688 129.65625 L 28.984375 129.445312 L 29.253906 129.222656 L 29.488281 128.988281 L 29.6875 128.738281 L 29.847656 128.480469 L 29.972656 128.207031 L 30.0625 127.917969 L 30.117188 127.621094 Z M 30.136719 127.3125 "/>
<path fill-rule="nonzero" fill="rgb(0%, 0%, 0%)" fill-opacity="1" d="M 31.046875 115.816406 L 31.027344 116.242188 L 30.964844 116.648438 L 30.859375 117.035156 L 30.714844 117.40625 L 30.527344 117.753906 L 30.296875 118.082031 L 30.023438 118.390625 L 29.710938 118.679688 L 29.355469 118.949219 L 28.960938 119.199219 L 28.523438 119.425781 L 28.054688 119.632812 L 27.550781 119.8125 L 27.007812 119.96875 L 26.433594 120.097656 L 25.824219 120.207031 L 25.179688 120.292969 L 24.496094 120.351562 L 23.78125 120.386719 L 23.03125 120.398438 L 22.285156 120.386719 L 21.578125 120.351562 L 20.902344 120.292969 L 20.261719 120.207031 L 19.660156 120.097656 L 19.09375 119.96875 L 18.558594 119.8125 L 18.0625 119.632812 L 17.601562 119.425781 L 17.175781 119.199219 L 16.789062 118.949219 L 16.441406 118.679688 L 16.136719 118.390625 L 15.871094 118.082031 L 15.644531 117.753906 L 15.460938 117.40625 L 15.320312 117.035156 L 15.21875 116.648438 L 15.15625 116.242188 L 15.136719 115.816406 L 15.15625 115.382812 L 15.21875 114.972656 L 15.320312 114.582031 L 15.460938 114.214844 L 15.644531 113.863281 L 15.871094 113.539062 L 16.136719 113.230469 L 16.441406 112.941406 L 16.789062 112.675781 L 17.175781 112.429688 L 17.601562 112.203125 L 18.0625 112 L 18.558594 111.820312 L 19.09375 111.664062 L 19.660156 111.53125 L 20.261719 111.421875 L 20.902344 111.339844 L 21.578125 111.277344 L 22.285156 111.242188 L 23.03125 111.230469 L 23.78125 111.242188 L 24.496094 111.277344 L 25.179688 111.339844 L 25.824219 111.421875 L 26.433594 111.53125 L 27.007812 111.664062 L 27.550781 111.820312 L 28.054688 112 L 28.523438 112.203125 L 28.960938 112.429688 L 29.355469 112.675781 L 29.710938 112.941406 L 30.023438 113.230469 L 30.296875 113.539062 L 30.527344 113.863281 L 30.714844 114.214844 L 30.859375 114.582031 L 30.964844 114.972656 L 31.027344 115.382812 Z M 30.136719 115.816406 L 30.117188 115.5 L 30.0625 115.199219 L 29.972656 114.910156 L 29.847656 114.636719 L 29.6875 114.375 L 29.488281 114.128906 L 29.253906 113.894531 L 28.984375 113.671875 L 28.679688 113.464844 L 28.335938 113.269531 L 27.957031 113.089844 L 27.546875 112.925781 L 27.101562 112.78125 L 26.625 112.65625 L 26.109375 112.550781 L 25.5625 112.464844 L 24.980469 112.398438 L 24.367188 112.351562 L 23.714844 112.320312 L 23.03125 112.3125 L 22.347656 112.320312 L 21.703125 112.351562 L 21.089844 112.398438 L 20.511719 112.464844 L 19.972656 112.550781 L 19.464844 112.65625 L 18.996094 112.78125 L 18.5625 112.925781 L 18.164062 113.089844 L 17.800781 113.269531 L 17.46875 113.464844 L 17.167969 113.671875 L 16.90625 113.894531 L 16.679688 114.128906 L 16.484375 114.375 L 16.328125 114.636719 L 16.207031 114.910156 L 16.117188 115.199219 L 16.066406 115.5 L 16.046875 115.816406 L 16.066406 116.125 L 16.117188 116.425781 L 16.207031 116.710938 L 16.328125 116.984375 L 16.484375 117.242188 L 16.679688 117.492188 L 16.90625 117.726562 L 17.167969 117.949219 L 17.46875 118.160156 L 17.800781 118.359375 L 18.164062 118.542969 L 18.5625 118.703125 L 18.996094 118.847656 L 19.464844 118.972656 L 19.972656 119.078125 L 20.511719 119.164062 L 21.089844 119.234375 L 21.703125 119.28125 L 22.347656 119.308594 L 23.03125 119.320312 L 23.714844 119.308594 L 24.367188 119.28125 L 24.980469 119.234375 L 25.5625 119.164062 L 26.109375 119.078125 L 26.625 118.972656 L 27.101562 118.847656 L 27.546875 118.703125 L 27.957031 118.542969 L 28.335938 118.359375 L 28.679688 118.160156 L 28.984375 117.949219 L 29.253906 117.726562 L 29.488281 117.492188 L 29.6875 117.242188 L 29.847656 116.984375 L 29.972656 116.710938 L 30.0625 116.425781 L 30.117188 116.125 Z M 30.136719 115.816406 "/>
<path fill-rule="nonzero" fill="rgb(0%, 0%, 0%)" fill-opacity="1" d="M 30.761719 108.039062 L 29.824219 108.039062 L 29.824219 104.4375 L 17.105469 104.4375 L 17.105469 107.175781 L 16.382812 107.175781 L 16.351562 106.988281 L 16.3125 106.808594 L 16.277344 106.632812 L 16.238281 106.457031 L 16.199219 106.289062 L 16.15625 106.121094 L 16.113281 105.957031 L 16.070312 105.800781 L 16.023438 105.644531 L 15.976562 105.496094 L 15.925781 105.347656 L 15.878906 105.207031 L 15.824219 105.066406 L 15.773438 104.933594 L 15.71875 104.804688 L 15.660156 104.679688 L 15.605469 104.558594 L 15.546875 104.441406 L 15.484375 104.332031 L 15.425781 104.222656 L 15.425781 103.359375 L 29.824219 103.359375 L 29.824219 100.023438 L 30.761719 100.023438 Z M 30.761719 108.039062 "/>
<path fill-rule="nonzero" fill="rgb(0%, 0%, 0%)" fill-opacity="1" d="M 34.960938 97.144531 L 34.574219 97.792969 L 34.117188 97.515625 L 33.648438 97.253906 L 33.171875 97.003906 L 32.6875 96.769531 L 32.195312 96.550781 L 31.691406 96.34375 L 31.183594 96.148438 L 30.667969 95.972656 L 30.140625 95.804688 L 29.609375 95.65625 L 29.070312 95.515625 L 28.527344 95.386719 L 27.980469 95.277344 L 27.433594 95.179688 L 26.882812 95.097656 L 26.332031 95.03125 L 25.773438 94.976562 L 25.214844 94.941406 L 24.652344 94.917969 L 24.089844 94.910156 L 23.519531 94.917969 L 22.953125 94.941406 L 22.390625 94.976562 L 21.828125 95.03125 L 21.273438 95.097656 L 20.722656 95.179688 L 20.171875 95.277344 L 19.625 95.386719 L 19.082031 95.515625 L 18.542969 95.65625 L 18.011719 95.804688 L 17.484375 95.972656 L 16.96875 96.148438 L 16.460938 96.34375 L 15.964844 96.550781 L 15.472656 96.769531 L 14.992188 97.003906 L 14.519531 97.253906 L 14.054688 97.515625 L 13.601562 97.792969 L 13.214844 97.144531 L 13.699219 96.851562 L 14.1875 96.574219 L 14.679688 96.308594 L 15.179688 96.054688 L 15.683594 95.816406 L 16.191406 95.589844 L 16.707031 95.378906 L 17.226562 95.175781 L 17.75 94.988281 L 18.28125 94.816406 L 18.8125 94.65625 L 19.355469 94.511719 L 19.910156 94.386719 L 20.476562 94.277344 L 21.050781 94.183594 L 21.636719 94.109375 L 22.234375 94.050781 L 22.84375 94.007812 L 23.460938 93.984375 L 24.089844 93.976562 L 24.714844 93.984375 L 25.335938 94.007812 L 25.945312 94.050781 L 26.542969 94.109375 L 27.128906 94.183594 L 27.707031 94.277344 L 28.277344 94.386719 L 28.835938 94.511719 L 29.382812 94.65625 L 29.921875 94.816406 L 30.445312 94.988281 L 30.964844 95.175781 L 31.480469 95.378906 L 31.992188 95.589844 L 32.5 95.816406 L 33 96.054688 L 33.5 96.308594 L 33.992188 96.574219 L 34.476562 96.851562 Z M 34.960938 97.144531 "/>
</svg>
