<?xml version="1.0" encoding="UTF-8"?>
<svg xmlns="http://www.w3.org/2000/svg" xmlns:xlink="http://www.w3.org/1999/xlink" width="792" height="468" viewBox="0 0 792 468">
<defs>
<clipPath id="clip-0">
<path clip-rule="nonzero" d="M 50.929688 13.449219 L 778.550781 13.449219 L 778.550781 417.070312 L 50.929688 417.070312 Z M 50.929688 13.449219 "/>
</clipPath>
<clipPath id="clip-1">
<path clip-rule="nonzero" d="M 50.929688 312 L 778.550781 312 L 778.550781 315 L 50.929688 315 Z M 50.929688 312 "/>
</clipPath>
<clipPath id="clip-2">
<path clip-rule="nonzero" d="M 50.929688 205 L 778.550781 205 L 778.550781 209 L 50.929688 209 Z M 50.929688 205 "/>
</clipPath>
<clipPath id="clip-3">
<path clip-rule="nonzero" d="M 50.929688 98 L 778.550781 98 L 778.550781 102 L 50.929688 102 Z M 50.929688 98 "/>
</clipPath>
<clipPath id="clip-4">
<path clip-rule="nonzero" d="M 82 13.449219 L 85 13.449219 L 85 417.070312 L 82 417.070312 Z M 82 13.449219 "/>
</clipPath>
<clipPath id="clip-5">
<path clip-rule="nonzero" d="M 247 13.449219 L 251 13.449219 L 251 417.070312 L 247 417.070312 Z M 247 13.449219 "/>
</clipPath>
<clipPath id="clip-6">
<path clip-rule="nonzero" d="M 413 13.449219 L 417 13.449219 L 417 417.070312 L 413 417.070312 Z M 413 13.449219 "/>
</clipPath>
<clipPath id="clip-7">
<path clip-rule="nonzero" d="M 578 13.449219 L 582 13.449219 L 582 417.070312 L 578 417.070312 Z M 578 13.449219 "/>
</clipPath>
<clipPath id="clip-8">
<path clip-rule="nonzero" d="M 744 13.449219 L 748 13.449219 L 748 417.070312 L 744 417.070312 Z M 744 13.449219 "/>
</clipPath>
<clipPath id="clip-9">
<path clip-rule="nonzero" d="M 413 13.449219 L 416 13.449219 L 416 417.070312 L 413 417.070312 Z M 413 13.449219 "/>
</clipPath>
</defs>
<rect x="-79.2" y="-46.8" width="950.4" height="561.6" fill="rgb(100%, 100%, 100%)" fill-opacity="1"/>
<rect x="-79.2" y="-46.8" width="950.4" height="561.6" fill="rgb(95.294118%, 95.294118%, 95.294118%)" fill-opacity="1"/>
<path fill="none" stroke-width="2.618947" stroke-linecap="round" stroke-linejoin="round" stroke="rgb(95.294118%, 95.294118%, 95.294118%)" stroke-opacity="1" stroke-miterlimit="10" d="M 0 468 L 792 468 L 792 0 L 0 0 Z M 0 468 "/>
<g clip-path="url(#clip-0)">
<path fill-rule="nonzero" fill="rgb(95.294118%, 95.294118%, 95.294118%)" fill-opacity="1" stroke-width="2.618947" stroke-linecap="round" stroke-linejoin="round" stroke="rgb(95.294118%, 95.294118%, 95.294118%)" stroke-opacity="1" stroke-miterlimit="10" d="M 50.929688 417.070312 L 778.550781 417.070312 L 778.550781 13.449219 L 50.929688 13.449219 Z M 50.929688 417.070312 "/>
</g>
<g clip-path="url(#clip-1)">
<path fill="none" stroke-width="2.618947" stroke-linecap="butt" stroke-linejoin="round" stroke="rgb(92.156863%, 92.156863%, 92.156863%)" stroke-opacity="1" stroke-miterlimit="10" d="M 50.929688 313.492188 L 778.550781 313.492188 "/>
</g>
<g clip-path="url(#clip-2)">
<path fill="none" stroke-width="2.618947" stroke-linecap="butt" stroke-linejoin="round" stroke="rgb(92.156863%, 92.156863%, 92.156863%)" stroke-opacity="1" stroke-miterlimit="10" d="M 50.929688 206.886719 L 778.550781 206.886719 "/>
</g>
<g clip-path="url(#clip-3)">
<path fill="none" stroke-width="2.618947" stroke-linecap="butt" stroke-linejoin="round" stroke="rgb(92.156863%, 92.156863%, 92.156863%)" stroke-opacity="1" stroke-miterlimit="10" d="M 50.929688 100.28125 L 778.550781 100.28125 "/>
</g>
<g clip-path="url(#clip-4)">
<path fill="none" stroke-width="2.618947" stroke-linecap="butt" stroke-linejoin="round" stroke="rgb(92.156863%, 92.156863%, 92.156863%)" stroke-opacity="1" stroke-miterlimit="10" d="M 83.585938 417.070312 L 83.585938 13.449219 "/>
</g>
<g clip-path="url(#clip-5)">
<path fill="none" stroke-width="2.618947" stroke-linecap="butt" stroke-linejoin="round" stroke="rgb(92.156863%, 92.156863%, 92.156863%)" stroke-opacity="1" stroke-miterlimit="10" d="M 249.148438 417.070312 L 249.148438 13.449219 "/>
</g>
<g clip-path="url(#clip-6)">
<path fill="none" stroke-width="2.618947" stroke-linecap="butt" stroke-linejoin="round" stroke="rgb(92.156863%, 92.156863%, 92.156863%)" stroke-opacity="1" stroke-miterlimit="10" d="M 414.710938 417.070312 L 414.710938 13.449219 "/>
</g>
<g clip-path="url(#clip-7)">
<path fill="none" stroke-width="2.618947" stroke-linecap="butt" stroke-linejoin="round" stroke="rgb(92.156863%, 92.156863%, 92.156863%)" stroke-opacity="1" stroke-miterlimit="10" d="M 580.273438 417.070312 L 580.273438 13.449219 "/>
</g>
<g clip-path="url(#clip-8)">
<path fill="none" stroke-width="2.618947" stroke-linecap="butt" stroke-linejoin="round" stroke="rgb(92.156863%, 92.156863%, 92.156863%)" stroke-opacity="1" stroke-miterlimit="10" d="M 745.832031 417.070312 L 745.832031 13.449219 "/>
</g>
<path fill-rule="nonzero" fill="rgb(56.078431%, 16.470588%, 26.27451%)" fill-opacity="1" stroke-width="0.708661" stroke-linecap="round" stroke-linejoin="round" stroke="rgb(56.078431%, 16.470588%, 26.27451%)" stroke-opacity="1" stroke-miterlimit="10" d="M 89.90625 305.046875 C 89.90625 308.304688 87.261719 310.949219 84.003906 310.949219 C 80.742188 310.949219 78.101562 308.304688 78.101562 305.046875 C 78.101562 301.785156 80.742188 299.144531 84.003906 299.144531 C 87.261719 299.144531 89.90625 301.785156 89.90625 305.046875 "/>
<path fill-rule="nonzero" fill="rgb(56.078431%, 16.470588%, 26.27451%)" fill-opacity="1" stroke-width="0.708661" stroke-linecap="round" stroke-linejoin="round" stroke="rgb(56.078431%, 16.470588%, 26.27451%)" stroke-opacity="1" stroke-miterlimit="10" d="M 110.371094 325.867188 C 110.371094 329.128906 107.726562 331.769531 104.46875 331.769531 C 101.207031 331.769531 98.566406 329.128906 98.566406 325.867188 C 98.566406 322.609375 101.207031 319.964844 104.46875 319.964844 C 107.726562 319.964844 110.371094 322.609375 110.371094 325.867188 "/>
<path fill-rule="nonzero" fill="rgb(56.078431%, 16.470588%, 26.27451%)" fill-opacity="1" stroke-width="0.708661" stroke-linecap="round" stroke-linejoin="round" stroke="rgb(56.078431%, 16.470588%, 26.27451%)" stroke-opacity="1" stroke-miterlimit="10" d="M 122.867188 288.738281 C 122.867188 292 120.226562 294.640625 116.964844 294.640625 C 113.703125 294.640625 111.0625 292 111.0625 288.738281 C 111.0625 285.480469 113.703125 282.835938 116.964844 282.835938 C 120.226562 282.835938 122.867188 285.480469 122.867188 288.738281 "/>
<path fill-rule="nonzero" fill="rgb(56.078431%, 16.470588%, 26.27451%)" fill-opacity="1" stroke-width="0.708661" stroke-linecap="round" stroke-linejoin="round" stroke="rgb(56.078431%, 16.470588%, 26.27451%)" stroke-opacity="1" stroke-miterlimit="10" d="M 135.609375 326.25 C 135.609375 329.507812 132.964844 332.152344 129.707031 332.152344 C 126.445312 332.152344 123.800781 329.507812 123.800781 326.25 C 123.800781 322.988281 126.445312 320.347656 129.707031 320.347656 C 132.964844 320.347656 135.609375 322.988281 135.609375 326.25 "/>
<path fill-rule="nonzero" fill="rgb(56.078431%, 16.470588%, 26.27451%)" fill-opacity="1" stroke-width="0.708661" stroke-linecap="round" stroke-linejoin="round" stroke="rgb(56.078431%, 16.470588%, 26.27451%)" stroke-opacity="1" stroke-miterlimit="10" d="M 149.796875 330.933594 C 149.796875 334.195312 147.152344 336.835938 143.894531 336.835938 C 140.632812 336.835938 137.992188 334.195312 137.992188 330.933594 C 137.992188 327.675781 140.632812 325.03125 143.894531 325.03125 C 147.152344 325.03125 149.796875 327.675781 149.796875 330.933594 "/>
<path fill-rule="nonzero" fill="rgb(56.078431%, 16.470588%, 26.27451%)" fill-opacity="1" stroke-width="0.708661" stroke-linecap="round" stroke-linejoin="round" stroke="rgb(56.078431%, 16.470588%, 26.27451%)" stroke-opacity="1" stroke-miterlimit="10" d="M 161.699219 340.644531 C 161.699219 343.90625 159.058594 346.546875 155.796875 346.546875 C 152.539062 346.546875 149.894531 343.90625 149.894531 340.644531 C 149.894531 337.386719 152.539062 334.742188 155.796875 334.742188 C 159.058594 334.742188 161.699219 337.386719 161.699219 340.644531 "/>
<path fill-rule="nonzero" fill="rgb(56.078431%, 16.470588%, 26.27451%)" fill-opacity="1" stroke-width="0.708661" stroke-linecap="round" stroke-linejoin="round" stroke="rgb(56.078431%, 16.470588%, 26.27451%)" stroke-opacity="1" stroke-miterlimit="10" d="M 177.40625 398.722656 C 177.40625 401.984375 174.765625 404.628906 171.503906 404.628906 C 168.246094 404.628906 165.601562 401.984375 165.601562 398.722656 C 165.601562 395.464844 168.246094 392.820312 171.503906 392.820312 C 174.765625 392.820312 177.40625 395.464844 177.40625 398.722656 "/>
<path fill-rule="nonzero" fill="rgb(56.078431%, 16.470588%, 26.27451%)" fill-opacity="1" stroke-width="0.708661" stroke-linecap="round" stroke-linejoin="round" stroke="rgb(56.078431%, 16.470588%, 26.27451%)" stroke-opacity="1" stroke-miterlimit="10" d="M 189.296875 376.851562 C 189.296875 380.113281 186.65625 382.753906 183.394531 382.753906 C 180.136719 382.753906 177.492188 380.113281 177.492188 376.851562 C 177.492188 373.589844 180.136719 370.949219 183.394531 370.949219 C 186.65625 370.949219 189.296875 373.589844 189.296875 376.851562 "/>
<path fill-rule="nonzero" fill="rgb(56.078431%, 16.470588%, 26.27451%)" fill-opacity="1" stroke-width="0.708661" stroke-linecap="round" stroke-linejoin="round" stroke="rgb(56.078431%, 16.470588%, 26.27451%)" stroke-opacity="1" stroke-miterlimit="10" d="M 202.328125 377.976562 C 202.328125 381.238281 199.683594 383.878906 196.421875 383.878906 C 193.164062 383.878906 190.519531 381.238281 190.519531 377.976562 C 190.519531 374.71875 193.164062 372.074219 196.421875 372.074219 C 199.683594 372.074219 202.328125 374.71875 202.328125 377.976562 "/>
<path fill-rule="nonzero" fill="rgb(56.078431%, 16.470588%, 26.27451%)" fill-opacity="1" stroke-width="0.708661" stroke-linecap="round" stroke-linejoin="round" stroke="rgb(56.078431%, 16.470588%, 26.27451%)" stroke-opacity="1" stroke-miterlimit="10" d="M 216.308594 357.539062 C 216.308594 360.796875 213.667969 363.441406 210.40625 363.441406 C 207.148438 363.441406 204.503906 360.796875 204.503906 357.539062 C 204.503906 354.277344 207.148438 351.636719 210.40625 351.636719 C 213.667969 351.636719 216.308594 354.277344 216.308594 357.539062 "/>
<path fill-rule="nonzero" fill="rgb(56.078431%, 16.470588%, 26.27451%)" fill-opacity="1" stroke-width="0.708661" stroke-linecap="round" stroke-linejoin="round" stroke="rgb(56.078431%, 16.470588%, 26.27451%)" stroke-opacity="1" stroke-miterlimit="10" d="M 229.820312 343.640625 C 229.820312 346.898438 227.179688 349.542969 223.917969 349.542969 C 220.660156 349.542969 218.015625 346.898438 218.015625 343.640625 C 218.015625 340.378906 220.660156 337.738281 223.917969 337.738281 C 227.179688 337.738281 229.820312 340.378906 229.820312 343.640625 "/>
<path fill-rule="nonzero" fill="rgb(56.078431%, 16.470588%, 26.27451%)" fill-opacity="1" stroke-width="0.708661" stroke-linecap="round" stroke-linejoin="round" stroke="rgb(56.078431%, 16.470588%, 26.27451%)" stroke-opacity="1" stroke-miterlimit="10" d="M 242.105469 343.109375 C 242.105469 346.371094 239.464844 349.011719 236.203125 349.011719 C 232.945312 349.011719 230.300781 346.371094 230.300781 343.109375 C 230.300781 339.851562 232.945312 337.207031 236.203125 337.207031 C 239.464844 337.207031 242.105469 339.851562 242.105469 343.109375 "/>
<path fill-rule="nonzero" fill="rgb(56.078431%, 16.470588%, 26.27451%)" fill-opacity="1" stroke-width="0.708661" stroke-linecap="round" stroke-linejoin="round" stroke="rgb(56.078431%, 16.470588%, 26.27451%)" stroke-opacity="1" stroke-miterlimit="10" d="M 255.1875 330.113281 C 255.1875 333.371094 252.542969 336.015625 249.285156 336.015625 C 246.023438 336.015625 243.382812 333.371094 243.382812 330.113281 C 243.382812 326.851562 246.023438 324.210938 249.285156 324.210938 C 252.542969 324.210938 255.1875 326.851562 255.1875 330.113281 "/>
<path fill-rule="nonzero" fill="rgb(56.078431%, 16.470588%, 26.27451%)" fill-opacity="1" stroke-width="0.708661" stroke-linecap="round" stroke-linejoin="round" stroke="rgb(56.078431%, 16.470588%, 26.27451%)" stroke-opacity="1" stroke-miterlimit="10" d="M 268.496094 298.011719 C 268.496094 301.269531 265.851562 303.914062 262.59375 303.914062 C 259.332031 303.914062 256.691406 301.269531 256.691406 298.011719 C 256.691406 294.75 259.332031 292.105469 262.59375 292.105469 C 265.851562 292.105469 268.496094 294.75 268.496094 298.011719 "/>
<path fill-rule="nonzero" fill="rgb(56.078431%, 16.470588%, 26.27451%)" fill-opacity="1" stroke-width="0.708661" stroke-linecap="round" stroke-linejoin="round" stroke="rgb(56.078431%, 16.470588%, 26.27451%)" stroke-opacity="1" stroke-miterlimit="10" d="M 281.589844 288.367188 C 281.589844 291.625 278.949219 294.269531 275.6875 294.269531 C 272.429688 294.269531 269.785156 291.625 269.785156 288.367188 C 269.785156 285.105469 272.429688 282.464844 275.6875 282.464844 C 278.949219 282.464844 281.589844 285.105469 281.589844 288.367188 "/>
<path fill-rule="nonzero" fill="rgb(56.078431%, 16.470588%, 26.27451%)" fill-opacity="1" stroke-width="0.708661" stroke-linecap="round" stroke-linejoin="round" stroke="rgb(56.078431%, 16.470588%, 26.27451%)" stroke-opacity="1" stroke-miterlimit="10" d="M 295.160156 290.214844 C 295.160156 293.472656 292.515625 296.117188 289.257812 296.117188 C 285.996094 296.117188 283.355469 293.472656 283.355469 290.214844 C 283.355469 286.953125 285.996094 284.3125 289.257812 284.3125 C 292.515625 284.3125 295.160156 286.953125 295.160156 290.214844 "/>
<path fill-rule="nonzero" fill="rgb(56.078431%, 16.470588%, 26.27451%)" fill-opacity="1" stroke-width="0.708661" stroke-linecap="round" stroke-linejoin="round" stroke="rgb(56.078431%, 16.470588%, 26.27451%)" stroke-opacity="1" stroke-miterlimit="10" d="M 307.65625 274.804688 C 307.65625 278.066406 305.011719 280.707031 301.753906 280.707031 C 298.492188 280.707031 295.851562 278.066406 295.851562 274.804688 C 295.851562 271.542969 298.492188 268.902344 301.753906 268.902344 C 305.011719 268.902344 307.65625 271.542969 307.65625 274.804688 "/>
<path fill-rule="nonzero" fill="rgb(56.078431%, 16.470588%, 26.27451%)" fill-opacity="1" stroke-width="0.708661" stroke-linecap="round" stroke-linejoin="round" stroke="rgb(56.078431%, 16.470588%, 26.27451%)" stroke-opacity="1" stroke-miterlimit="10" d="M 320.929688 273.027344 C 320.929688 276.289062 318.285156 278.933594 315.023438 278.933594 C 311.765625 278.933594 309.121094 276.289062 309.121094 273.027344 C 309.121094 269.769531 311.765625 267.125 315.023438 267.125 C 318.285156 267.125 320.929688 269.769531 320.929688 273.027344 "/>
<path fill-rule="nonzero" fill="rgb(56.078431%, 16.470588%, 26.27451%)" fill-opacity="1" stroke-width="0.708661" stroke-linecap="round" stroke-linejoin="round" stroke="rgb(56.078431%, 16.470588%, 26.27451%)" stroke-opacity="1" stroke-miterlimit="10" d="M 334.558594 266.214844 C 334.558594 269.476562 331.914062 272.117188 328.65625 272.117188 C 325.394531 272.117188 322.753906 269.476562 322.753906 266.214844 C 322.753906 262.957031 325.394531 260.3125 328.65625 260.3125 C 331.914062 260.3125 334.558594 262.957031 334.558594 266.214844 "/>
<path fill-rule="nonzero" fill="rgb(56.078431%, 16.470588%, 26.27451%)" fill-opacity="1" stroke-width="0.708661" stroke-linecap="round" stroke-linejoin="round" stroke="rgb(56.078431%, 16.470588%, 26.27451%)" stroke-opacity="1" stroke-miterlimit="10" d="M 347.757812 262.625 C 347.757812 265.882812 345.113281 268.527344 341.855469 268.527344 C 338.59375 268.527344 335.953125 265.882812 335.953125 262.625 C 335.953125 259.363281 338.59375 256.722656 341.855469 256.722656 C 345.113281 256.722656 347.757812 259.363281 347.757812 262.625 "/>
<path fill-rule="nonzero" fill="rgb(56.078431%, 16.470588%, 26.27451%)" fill-opacity="1" stroke-width="0.708661" stroke-linecap="round" stroke-linejoin="round" stroke="rgb(56.078431%, 16.470588%, 26.27451%)" stroke-opacity="1" stroke-miterlimit="10" d="M 361.378906 257.6875 C 361.378906 260.945312 358.734375 263.589844 355.476562 263.589844 C 352.214844 263.589844 349.574219 260.945312 349.574219 257.6875 C 349.574219 254.425781 352.214844 251.785156 355.476562 251.785156 C 358.734375 251.785156 361.378906 254.425781 361.378906 257.6875 "/>
<path fill-rule="nonzero" fill="rgb(56.078431%, 16.470588%, 26.27451%)" fill-opacity="1" stroke-width="0.708661" stroke-linecap="round" stroke-linejoin="round" stroke="rgb(56.078431%, 16.470588%, 26.27451%)" stroke-opacity="1" stroke-miterlimit="10" d="M 374.488281 250.574219 C 374.488281 253.835938 371.84375 256.476562 368.585938 256.476562 C 365.324219 256.476562 362.683594 253.835938 362.683594 250.574219 C 362.683594 247.316406 365.324219 244.671875 368.585938 244.671875 C 371.84375 244.671875 374.488281 247.316406 374.488281 250.574219 "/>
<path fill-rule="nonzero" fill="rgb(56.078431%, 16.470588%, 26.27451%)" fill-opacity="1" stroke-width="0.708661" stroke-linecap="round" stroke-linejoin="round" stroke="rgb(56.078431%, 16.470588%, 26.27451%)" stroke-opacity="1" stroke-miterlimit="10" d="M 387.207031 245.160156 C 387.207031 248.421875 384.566406 251.0625 381.304688 251.0625 C 378.042969 251.0625 375.402344 248.421875 375.402344 245.160156 C 375.402344 241.902344 378.042969 239.257812 381.304688 239.257812 C 384.566406 239.257812 387.207031 241.902344 387.207031 245.160156 "/>
<path fill-rule="nonzero" fill="rgb(56.078431%, 16.470588%, 26.27451%)" fill-opacity="1" stroke-width="0.708661" stroke-linecap="round" stroke-linejoin="round" stroke="rgb(56.078431%, 16.470588%, 26.27451%)" stroke-opacity="1" stroke-miterlimit="10" d="M 400.535156 239.390625 C 400.535156 242.652344 397.894531 245.292969 394.632812 245.292969 C 391.375 245.292969 388.730469 242.652344 388.730469 239.390625 C 388.730469 236.132812 391.375 233.488281 394.632812 233.488281 C 397.894531 233.488281 400.535156 236.132812 400.535156 239.390625 "/>
<path fill-rule="nonzero" fill="rgb(56.078431%, 16.470588%, 26.27451%)" fill-opacity="1" stroke-width="0.708661" stroke-linecap="round" stroke-linejoin="round" stroke="rgb(56.078431%, 16.470588%, 26.27451%)" stroke-opacity="1" stroke-miterlimit="10" d="M 413.539062 226.417969 C 413.539062 229.679688 410.894531 232.320312 407.636719 232.320312 C 404.375 232.320312 401.734375 229.679688 401.734375 226.417969 C 401.734375 223.160156 404.375 220.515625 407.636719 220.515625 C 410.894531 220.515625 413.539062 223.160156 413.539062 226.417969 "/>
<path fill-rule="nonzero" fill="rgb(56.078431%, 16.470588%, 26.27451%)" fill-opacity="1" stroke-width="0.708661" stroke-linecap="round" stroke-linejoin="round" stroke="rgb(56.078431%, 16.470588%, 26.27451%)" stroke-opacity="1" stroke-miterlimit="10" d="M 427.382812 192.496094 C 427.382812 195.757812 424.742188 198.402344 421.480469 198.402344 C 418.222656 198.402344 415.578125 195.757812 415.578125 192.496094 C 415.578125 189.238281 418.222656 186.59375 421.480469 186.59375 C 424.742188 186.59375 427.382812 189.238281 427.382812 192.496094 "/>
<path fill-rule="nonzero" fill="rgb(56.078431%, 16.470588%, 26.27451%)" fill-opacity="1" stroke-width="0.708661" stroke-linecap="round" stroke-linejoin="round" stroke="rgb(56.078431%, 16.470588%, 26.27451%)" stroke-opacity="1" stroke-miterlimit="10" d="M 440.121094 176.992188 C 440.121094 180.25 437.480469 182.894531 434.21875 182.894531 C 430.960938 182.894531 428.316406 180.25 428.316406 176.992188 C 428.316406 173.730469 430.960938 171.089844 434.21875 171.089844 C 437.480469 171.089844 440.121094 173.730469 440.121094 176.992188 "/>
<path fill-rule="nonzero" fill="rgb(56.078431%, 16.470588%, 26.27451%)" fill-opacity="1" stroke-width="0.708661" stroke-linecap="round" stroke-linejoin="round" stroke="rgb(56.078431%, 16.470588%, 26.27451%)" stroke-opacity="1" stroke-miterlimit="10" d="M 453.023438 169.34375 C 453.023438 172.601562 450.378906 175.246094 447.121094 175.246094 C 443.859375 175.246094 441.21875 172.601562 441.21875 169.34375 C 441.21875 166.082031 443.859375 163.441406 447.121094 163.441406 C 450.378906 163.441406 453.023438 166.082031 453.023438 169.34375 "/>
<path fill-rule="nonzero" fill="rgb(56.078431%, 16.470588%, 26.27451%)" fill-opacity="1" stroke-width="0.708661" stroke-linecap="round" stroke-linejoin="round" stroke="rgb(56.078431%, 16.470588%, 26.27451%)" stroke-opacity="1" stroke-miterlimit="10" d="M 466.703125 173.945312 C 466.703125 177.207031 464.058594 179.847656 460.800781 179.847656 C 457.539062 179.847656 454.898438 177.207031 454.898438 173.945312 C 454.898438 170.6875 457.539062 168.042969 460.800781 168.042969 C 464.058594 168.042969 466.703125 170.6875 466.703125 173.945312 "/>
<path fill-rule="nonzero" fill="rgb(56.078431%, 16.470588%, 26.27451%)" fill-opacity="1" stroke-width="0.708661" stroke-linecap="round" stroke-linejoin="round" stroke="rgb(56.078431%, 16.470588%, 26.27451%)" stroke-opacity="1" stroke-miterlimit="10" d="M 480.003906 155.152344 C 480.003906 158.414062 477.359375 161.054688 474.101562 161.054688 C 470.839844 161.054688 468.199219 158.414062 468.199219 155.152344 C 468.199219 151.894531 470.839844 149.25 474.101562 149.25 C 477.359375 149.25 480.003906 151.894531 480.003906 155.152344 "/>
<path fill-rule="nonzero" fill="rgb(56.078431%, 16.470588%, 26.27451%)" fill-opacity="1" stroke-width="0.708661" stroke-linecap="round" stroke-linejoin="round" stroke="rgb(56.078431%, 16.470588%, 26.27451%)" stroke-opacity="1" stroke-miterlimit="10" d="M 493.640625 153.671875 C 493.640625 156.933594 491 159.574219 487.738281 159.574219 C 484.476562 159.574219 481.835938 156.933594 481.835938 153.671875 C 481.835938 150.414062 484.476562 147.769531 487.738281 147.769531 C 491 147.769531 493.640625 150.414062 493.640625 153.671875 "/>
<path fill-rule="nonzero" fill="rgb(56.078431%, 16.470588%, 26.27451%)" fill-opacity="1" stroke-width="0.708661" stroke-linecap="round" stroke-linejoin="round" stroke="rgb(56.078431%, 16.470588%, 26.27451%)" stroke-opacity="1" stroke-miterlimit="10" d="M 506.929688 146.476562 C 506.929688 149.738281 504.289062 152.378906 501.027344 152.378906 C 497.769531 152.378906 495.125 149.738281 495.125 146.476562 C 495.125 143.214844 497.769531 140.574219 501.027344 140.574219 C 504.289062 140.574219 506.929688 143.214844 506.929688 146.476562 "/>
<path fill-rule="nonzero" fill="rgb(56.078431%, 16.470588%, 26.27451%)" fill-opacity="1" stroke-width="0.708661" stroke-linecap="round" stroke-linejoin="round" stroke="rgb(56.078431%, 16.470588%, 26.27451%)" stroke-opacity="1" stroke-miterlimit="10" d="M 519.75 137.1875 C 519.75 140.449219 517.109375 143.089844 513.847656 143.089844 C 510.589844 143.089844 507.945312 140.449219 507.945312 137.1875 C 507.945312 133.929688 510.589844 131.285156 513.847656 131.285156 C 517.109375 131.285156 519.75 133.929688 519.75 137.1875 "/>
<path fill-rule="nonzero" fill="rgb(56.078431%, 16.470588%, 26.27451%)" fill-opacity="1" stroke-width="0.708661" stroke-linecap="round" stroke-linejoin="round" stroke="rgb(56.078431%, 16.470588%, 26.27451%)" stroke-opacity="1" stroke-miterlimit="10" d="M 532.941406 135.734375 C 532.941406 138.996094 530.296875 141.636719 527.039062 141.636719 C 523.777344 141.636719 521.136719 138.996094 521.136719 135.734375 C 521.136719 132.472656 523.777344 129.832031 527.039062 129.832031 C 530.296875 129.832031 532.941406 132.472656 532.941406 135.734375 "/>
<path fill-rule="nonzero" fill="rgb(56.078431%, 16.470588%, 26.27451%)" fill-opacity="1" stroke-width="0.708661" stroke-linecap="round" stroke-linejoin="round" stroke="rgb(56.078431%, 16.470588%, 26.27451%)" stroke-opacity="1" stroke-miterlimit="10" d="M 546.773438 128.5625 C 546.773438 131.820312 544.128906 134.464844 540.871094 134.464844 C 537.609375 134.464844 534.96875 131.820312 534.96875 128.5625 C 534.96875 125.300781 537.609375 122.65625 540.871094 122.65625 C 544.128906 122.65625 546.773438 125.300781 546.773438 128.5625 "/>
<path fill-rule="nonzero" fill="rgb(56.078431%, 16.470588%, 26.27451%)" fill-opacity="1" stroke-width="0.708661" stroke-linecap="round" stroke-linejoin="round" stroke="rgb(56.078431%, 16.470588%, 26.27451%)" stroke-opacity="1" stroke-miterlimit="10" d="M 560.140625 118.851562 C 560.140625 122.109375 557.496094 124.753906 554.238281 124.753906 C 550.976562 124.753906 548.335938 122.109375 548.335938 118.851562 C 548.335938 115.589844 550.976562 112.949219 554.238281 112.949219 C 557.496094 112.949219 560.140625 115.589844 560.140625 118.851562 "/>
<path fill-rule="nonzero" fill="rgb(56.078431%, 16.470588%, 26.27451%)" fill-opacity="1" stroke-width="0.708661" stroke-linecap="round" stroke-linejoin="round" stroke="rgb(56.078431%, 16.470588%, 26.27451%)" stroke-opacity="1" stroke-miterlimit="10" d="M 572.554688 123.21875 C 572.554688 126.476562 569.914062 129.121094 566.652344 129.121094 C 563.390625 129.121094 560.75 126.476562 560.75 123.21875 C 560.75 119.957031 563.390625 117.316406 566.652344 117.316406 C 569.914062 117.316406 572.554688 119.957031 572.554688 123.21875 "/>
<path fill-rule="nonzero" fill="rgb(56.078431%, 16.470588%, 26.27451%)" fill-opacity="1" stroke-width="0.708661" stroke-linecap="round" stroke-linejoin="round" stroke="rgb(56.078431%, 16.470588%, 26.27451%)" stroke-opacity="1" stroke-miterlimit="10" d="M 585.128906 104.433594 C 585.128906 107.691406 582.484375 110.335938 579.226562 110.335938 C 575.964844 110.335938 573.324219 107.691406 573.324219 104.433594 C 573.324219 101.171875 575.964844 98.53125 579.226562 98.53125 C 582.484375 98.53125 585.128906 101.171875 585.128906 104.433594 "/>
<path fill-rule="nonzero" fill="rgb(56.078431%, 16.470588%, 26.27451%)" fill-opacity="1" stroke-width="0.708661" stroke-linecap="round" stroke-linejoin="round" stroke="rgb(56.078431%, 16.470588%, 26.27451%)" stroke-opacity="1" stroke-miterlimit="10" d="M 598.914062 92.039062 C 598.914062 95.300781 596.269531 97.945312 593.007812 97.945312 C 589.75 97.945312 587.105469 95.300781 587.105469 92.039062 C 587.105469 88.78125 589.75 86.136719 593.007812 86.136719 C 596.269531 86.136719 598.914062 88.78125 598.914062 92.039062 "/>
<path fill-rule="nonzero" fill="rgb(56.078431%, 16.470588%, 26.27451%)" fill-opacity="1" stroke-width="0.708661" stroke-linecap="round" stroke-linejoin="round" stroke="rgb(56.078431%, 16.470588%, 26.27451%)" stroke-opacity="1" stroke-miterlimit="10" d="M 612.269531 90.761719 C 612.269531 94.023438 609.628906 96.667969 606.367188 96.667969 C 603.109375 96.667969 600.464844 94.023438 600.464844 90.761719 C 600.464844 87.503906 603.109375 84.859375 606.367188 84.859375 C 609.628906 84.859375 612.269531 87.503906 612.269531 90.761719 "/>
<path fill-rule="nonzero" fill="rgb(56.078431%, 16.470588%, 26.27451%)" fill-opacity="1" stroke-width="0.708661" stroke-linecap="round" stroke-linejoin="round" stroke="rgb(56.078431%, 16.470588%, 26.27451%)" stroke-opacity="1" stroke-miterlimit="10" d="M 626.503906 79.707031 C 626.503906 82.96875 623.863281 85.609375 620.601562 85.609375 C 617.34375 85.609375 614.699219 82.96875 614.699219 79.707031 C 614.699219 76.445312 617.34375 73.804688 620.601562 73.804688 C 623.863281 73.804688 626.503906 76.445312 626.503906 79.707031 "/>
<path fill-rule="nonzero" fill="rgb(56.078431%, 16.470588%, 26.27451%)" fill-opacity="1" stroke-width="0.708661" stroke-linecap="round" stroke-linejoin="round" stroke="rgb(56.078431%, 16.470588%, 26.27451%)" stroke-opacity="1" stroke-miterlimit="10" d="M 639.34375 89.511719 C 639.34375 92.769531 636.703125 95.414062 633.441406 95.414062 C 630.179688 95.414062 627.539062 92.769531 627.539062 89.511719 C 627.539062 86.25 630.179688 83.609375 633.441406 83.609375 C 636.703125 83.609375 639.34375 86.25 639.34375 89.511719 "/>
<path fill-rule="nonzero" fill="rgb(56.078431%, 16.470588%, 26.27451%)" fill-opacity="1" stroke-width="0.708661" stroke-linecap="round" stroke-linejoin="round" stroke="rgb(56.078431%, 16.470588%, 26.27451%)" stroke-opacity="1" stroke-miterlimit="10" d="M 652.679688 58.144531 C 652.679688 61.40625 650.035156 64.050781 646.777344 64.050781 C 643.515625 64.050781 640.875 61.40625 640.875 58.144531 C 640.875 54.886719 643.515625 52.242188 646.777344 52.242188 C 650.035156 52.242188 652.679688 54.886719 652.679688 58.144531 "/>
<path fill-rule="nonzero" fill="rgb(56.078431%, 16.470588%, 26.27451%)" fill-opacity="1" stroke-width="0.708661" stroke-linecap="round" stroke-linejoin="round" stroke="rgb(56.078431%, 16.470588%, 26.27451%)" stroke-opacity="1" stroke-miterlimit="10" d="M 665.167969 68.15625 C 665.167969 71.417969 662.527344 74.058594 659.265625 74.058594 C 656.003906 74.058594 653.363281 71.417969 653.363281 68.15625 C 653.363281 64.898438 656.003906 62.253906 659.265625 62.253906 C 662.527344 62.253906 665.167969 64.898438 665.167969 68.15625 "/>
<path fill-rule="nonzero" fill="rgb(56.078431%, 16.470588%, 26.27451%)" fill-opacity="1" stroke-width="0.708661" stroke-linecap="round" stroke-linejoin="round" stroke="rgb(56.078431%, 16.470588%, 26.27451%)" stroke-opacity="1" stroke-miterlimit="10" d="M 678.792969 67.660156 C 678.792969 70.921875 676.148438 73.5625 672.890625 73.5625 C 669.628906 73.5625 666.988281 70.921875 666.988281 67.660156 C 666.988281 64.402344 669.628906 61.757812 672.890625 61.757812 C 676.148438 61.757812 678.792969 64.402344 678.792969 67.660156 "/>
<path fill-rule="nonzero" fill="rgb(56.078431%, 16.470588%, 26.27451%)" fill-opacity="1" stroke-width="0.708661" stroke-linecap="round" stroke-linejoin="round" stroke="rgb(56.078431%, 16.470588%, 26.27451%)" stroke-opacity="1" stroke-miterlimit="10" d="M 692.128906 67.558594 C 692.128906 70.820312 689.488281 73.460938 686.226562 73.460938 C 682.96875 73.460938 680.324219 70.820312 680.324219 67.558594 C 680.324219 64.300781 682.96875 61.65625 686.226562 61.65625 C 689.488281 61.65625 692.128906 64.300781 692.128906 67.558594 "/>
<path fill-rule="nonzero" fill="rgb(56.078431%, 16.470588%, 26.27451%)" fill-opacity="1" stroke-width="0.708661" stroke-linecap="round" stroke-linejoin="round" stroke="rgb(56.078431%, 16.470588%, 26.27451%)" stroke-opacity="1" stroke-miterlimit="10" d="M 705.644531 51.832031 C 705.644531 55.089844 703.003906 57.734375 699.742188 57.734375 C 696.484375 57.734375 693.839844 55.089844 693.839844 51.832031 C 693.839844 48.570312 696.484375 45.929688 699.742188 45.929688 C 703.003906 45.929688 705.644531 48.570312 705.644531 51.832031 "/>
<path fill-rule="nonzero" fill="rgb(56.078431%, 16.470588%, 26.27451%)" fill-opacity="1" stroke-width="0.708661" stroke-linecap="round" stroke-linejoin="round" stroke="rgb(56.078431%, 16.470588%, 26.27451%)" stroke-opacity="1" stroke-miterlimit="10" d="M 718.015625 60.488281 C 718.015625 63.75 715.375 66.390625 712.113281 66.390625 C 708.855469 66.390625 706.210938 63.75 706.210938 60.488281 C 706.210938 57.230469 708.855469 54.585938 712.113281 54.585938 C 715.375 54.585938 718.015625 57.230469 718.015625 60.488281 "/>
<path fill-rule="nonzero" fill="rgb(56.078431%, 16.470588%, 26.27451%)" fill-opacity="1" stroke-width="0.708661" stroke-linecap="round" stroke-linejoin="round" stroke="rgb(56.078431%, 16.470588%, 26.27451%)" stroke-opacity="1" stroke-miterlimit="10" d="M 731.199219 34.464844 C 731.199219 37.722656 728.558594 40.367188 725.296875 40.367188 C 722.039062 40.367188 719.394531 37.722656 719.394531 34.464844 C 719.394531 31.203125 722.039062 28.5625 725.296875 28.5625 C 728.558594 28.5625 731.199219 31.203125 731.199219 34.464844 "/>
<path fill-rule="nonzero" fill="rgb(56.078431%, 16.470588%, 26.27451%)" fill-opacity="1" stroke-width="0.708661" stroke-linecap="round" stroke-linejoin="round" stroke="rgb(56.078431%, 16.470588%, 26.27451%)" stroke-opacity="1" stroke-miterlimit="10" d="M 751.378906 47.0625 C 751.378906 50.320312 748.738281 52.964844 745.476562 52.964844 C 742.21875 52.964844 739.574219 50.320312 739.574219 47.0625 C 739.574219 43.800781 742.21875 41.160156 745.476562 41.160156 C 748.738281 41.160156 751.378906 43.800781 751.378906 47.0625 "/>
<g clip-path="url(#clip-9)">
<path fill="none" stroke-width="1.707165" stroke-linecap="butt" stroke-linejoin="round" stroke="rgb(80.784314%, 25.882353%, 34.117647%)" stroke-opacity="1" stroke-dasharray="6.828661 6.828661" stroke-miterlimit="10" d="M 414.710938 417.070312 L 414.710938 13.449219 "/>
</g>
<path fill="none" stroke-width="2.133957" stroke-linecap="butt" stroke-linejoin="round" stroke="rgb(0%, 0%, 0%)" stroke-opacity="1" stroke-miterlimit="10" d="M 84.003906 363.914062 L 88.097656 362.445312 L 100.390625 358.039062 L 104.484375 356.570312 L 108.582031 355.101562 L 112.679688 353.636719 L 116.777344 352.167969 L 120.871094 350.699219 L 133.164062 346.292969 L 137.257812 344.824219 L 145.453125 341.886719 L 149.546875 340.417969 L 161.839844 336.011719 L 165.933594 334.542969 L 178.226562 330.136719 L 182.320312 328.667969 L 190.515625 325.730469 L 194.613281 324.265625 L 198.707031 322.796875 L 211 318.390625 L 215.09375 316.921875 L 223.289062 313.984375 L 227.382812 312.515625 L 239.675781 308.109375 L 243.769531 306.640625 L 256.0625 302.234375 L 260.15625 300.765625 L 272.449219 296.359375 L 276.542969 294.894531 L 284.738281 291.957031 L 288.832031 290.488281 L 301.125 286.082031 L 305.21875 284.613281 L 317.511719 280.207031 L 321.605469 278.738281 L 333.898438 274.332031 L 337.992188 272.863281 L 350.285156 268.457031 L 354.378906 266.988281 L 358.476562 265.523438 L 362.574219 264.054688 L 366.667969 262.585938 L 378.960938 258.179688 L 383.054688 256.710938 L 395.347656 252.304688 L 399.441406 250.835938 L 407.636719 247.898438 "/>
<path fill="none" stroke-width="2.133957" stroke-linecap="butt" stroke-linejoin="round" stroke="rgb(0%, 0%, 0%)" stroke-opacity="1" stroke-miterlimit="10" d="M 421.480469 183.1875 L 425.582031 181.269531 L 429.683594 179.355469 L 433.785156 177.4375 L 437.886719 175.523438 L 446.089844 171.6875 L 450.191406 169.773438 L 454.292969 167.855469 L 458.394531 165.941406 L 462.492188 164.023438 L 466.59375 162.105469 L 470.695312 160.191406 L 474.796875 158.273438 L 478.898438 156.359375 L 483 154.441406 L 487.101562 152.527344 L 495.304688 148.691406 L 499.40625 146.777344 L 503.503906 144.859375 L 507.605469 142.945312 L 515.808594 139.109375 L 519.910156 137.195312 L 524.011719 135.277344 L 528.113281 133.363281 L 532.214844 131.445312 L 536.316406 129.53125 L 544.519531 125.695312 L 548.617188 123.78125 L 552.71875 121.863281 L 556.820312 119.949219 L 565.023438 116.113281 L 569.125 114.199219 L 573.226562 112.28125 L 577.328125 110.367188 L 581.429688 108.449219 L 585.53125 106.535156 L 589.632812 104.617188 L 593.730469 102.699219 L 597.832031 100.785156 L 601.933594 98.867188 L 606.035156 96.953125 L 614.238281 93.117188 L 618.339844 91.203125 L 622.441406 89.285156 L 626.542969 87.371094 L 630.644531 85.453125 L 634.746094 83.539062 L 638.84375 81.621094 L 642.945312 79.703125 L 647.046875 77.789062 L 651.148438 75.871094 L 655.25 73.957031 L 663.453125 70.121094 L 667.554688 68.207031 L 671.65625 66.289062 L 675.757812 64.375 L 679.859375 62.457031 L 683.957031 60.542969 L 692.160156 56.707031 L 696.261719 54.792969 L 700.363281 52.875 L 704.464844 50.960938 L 712.667969 47.125 L 716.769531 45.210938 L 720.871094 43.292969 L 724.972656 41.378906 L 729.070312 39.460938 L 733.171875 37.546875 L 741.375 33.710938 L 745.476562 31.796875 "/>
<path fill-rule="nonzero" fill="rgb(0%, 0%, 0%)" fill-opacity="1" d="M 390.886719 448.636719 L 390.5 448.628906 L 390.125 448.605469 L 389.757812 448.570312 L 389.398438 448.515625 L 389.050781 448.449219 L 388.707031 448.367188 L 388.375 448.265625 L 388.050781 448.152344 L 387.734375 448.023438 L 387.429688 447.882812 L 387.132812 447.726562 L 386.84375 447.5625 L 386.5625 447.390625 L 386.292969 447.210938 L 386.03125 447.023438 L 385.78125 446.828125 L 385.539062 446.625 L 385.304688 446.414062 L 385.078125 446.191406 L 384.863281 445.964844 L 385.675781 445.101562 L 385.871094 445.3125 L 386.078125 445.515625 L 386.292969 445.710938 L 386.511719 445.898438 L 386.742188 446.078125 L 386.976562 446.25 L 387.21875 446.414062 L 387.472656 446.570312 L 387.730469 446.714844 L 387.996094 446.855469 L 388.269531 446.980469 L 388.542969 447.089844 L 388.824219 447.1875 L 389.105469 447.269531 L 389.394531 447.339844 L 389.683594 447.398438 L 389.980469 447.445312 L 390.277344 447.476562 L 390.578125 447.496094 L 390.886719 447.503906 L 391.285156 447.492188 L 391.671875 447.464844 L 392.039062 447.414062 L 392.386719 447.34375 L 392.722656 447.253906 L 393.035156 447.144531 L 393.335938 447.015625 L 393.617188 446.863281 L 393.878906 446.695312 L 394.125 446.503906 L 394.351562 446.300781 L 394.554688 446.082031 L 394.730469 445.855469 L 394.886719 445.613281 L 395.015625 445.363281 L 395.125 445.101562 L 395.207031 444.828125 L 395.265625 444.542969 L 395.300781 444.246094 L 395.3125 443.9375 L 395.308594 443.722656 L 395.296875 443.515625 L 395.273438 443.3125 L 395.246094 443.121094 L 395.207031 442.941406 L 395.15625 442.765625 L 395.101562 442.601562 L 395.035156 442.445312 L 394.964844 442.296875 L 394.882812 442.15625 L 394.792969 442.023438 L 394.695312 441.898438 L 394.59375 441.773438 L 394.488281 441.65625 L 394.375 441.542969 L 394.257812 441.433594 L 394.132812 441.332031 L 394 441.234375 L 393.863281 441.140625 L 393.71875 441.050781 L 393.578125 440.960938 L 393.433594 440.871094 L 393.28125 440.78125 L 393.128906 440.695312 L 392.972656 440.613281 L 392.808594 440.527344 L 392.644531 440.449219 L 392.476562 440.367188 L 392.304688 440.289062 L 392.128906 440.214844 L 389.425781 439 L 389.121094 438.851562 L 388.964844 438.773438 L 388.804688 438.691406 L 388.644531 438.605469 L 388.480469 438.519531 L 388.316406 438.425781 L 388.148438 438.332031 L 387.980469 438.234375 L 387.808594 438.132812 L 387.640625 438.023438 L 387.480469 437.90625 L 387.328125 437.785156 L 387.175781 437.65625 L 387.03125 437.519531 L 386.890625 437.378906 L 386.753906 437.234375 L 386.625 437.082031 L 386.496094 436.921875 L 386.375 436.757812 L 386.269531 436.578125 L 386.171875 436.394531 L 386.085938 436.199219 L 386.011719 435.992188 L 385.949219 435.777344 L 385.898438 435.554688 L 385.859375 435.324219 L 385.832031 435.082031 L 385.816406 434.832031 L 385.808594 434.570312 L 385.816406 434.316406 L 385.835938 434.066406 L 385.871094 433.820312 L 385.917969 433.585938 L 385.976562 433.355469 L 386.050781 433.132812 L 386.140625 432.914062 L 386.242188 432.703125 L 386.355469 432.5 L 386.484375 432.300781 L 386.625 432.105469 L 386.773438 431.921875 L 386.933594 431.746094 L 387.101562 431.578125 L 387.28125 431.417969 L 387.46875 431.269531 L 387.667969 431.128906 L 387.875 430.996094 L 388.09375 430.875 L 388.320312 430.761719 L 388.5625 430.65625 L 388.808594 430.558594 L 389.058594 430.472656 L 389.316406 430.402344 L 389.582031 430.339844 L 389.851562 430.289062 L 390.128906 430.246094 L 390.410156 430.21875 L 390.699219 430.203125 L 390.992188 430.195312 L 391.308594 430.203125 L 391.617188 430.222656 L 391.921875 430.253906 L 392.214844 430.300781 L 392.503906 430.359375 L 392.789062 430.429688 L 393.066406 430.515625 L 393.335938 430.609375 L 393.597656 430.722656 L 393.855469 430.84375 L 394.105469 430.972656 L 394.34375 431.101562 L 394.574219 431.238281 L 394.796875 431.378906 L 395.007812 431.527344 L 395.210938 431.675781 L 395.40625 431.832031 L 395.59375 431.992188 L 395.769531 432.160156 L 395.933594 432.328125 L 395.230469 433.140625 L 395.074219 432.980469 L 394.910156 432.828125 L 394.738281 432.683594 L 394.5625 432.542969 L 394.382812 432.410156 L 394.195312 432.285156 L 394.003906 432.164062 L 393.808594 432.050781 L 393.605469 431.945312 L 393.394531 431.84375 L 393.183594 431.746094 L 392.964844 431.660156 L 392.738281 431.582031 L 392.507812 431.515625 L 392.269531 431.457031 L 392.027344 431.414062 L 391.777344 431.375 L 391.519531 431.351562 L 391.261719 431.335938 L 390.992188 431.332031 L 390.648438 431.339844 L 390.316406 431.363281 L 390 431.40625 L 389.691406 431.46875 L 389.398438 431.546875 L 389.121094 431.640625 L 388.855469 431.753906 L 388.601562 431.882812 L 388.359375 432.03125 L 388.132812 432.195312 L 387.925781 432.375 L 387.742188 432.5625 L 387.582031 432.765625 L 387.441406 432.980469 L 387.320312 433.207031 L 387.222656 433.445312 L 387.148438 433.695312 L 387.09375 433.957031 L 387.0625 434.230469 L 387.050781 434.515625 L 387.054688 434.71875 L 387.070312 434.910156 L 387.09375 435.097656 L 387.128906 435.277344 L 387.171875 435.449219 L 387.226562 435.613281 L 387.289062 435.769531 L 387.363281 435.917969 L 387.445312 436.058594 L 387.539062 436.191406 L 387.640625 436.316406 L 387.75 436.441406 L 387.863281 436.558594 L 387.976562 436.671875 L 388.097656 436.777344 L 388.347656 436.980469 L 388.613281 437.160156 L 388.753906 437.242188 L 388.898438 437.324219 L 389.039062 437.402344 L 389.183594 437.476562 L 389.324219 437.550781 L 389.597656 437.691406 L 389.734375 437.757812 L 389.867188 437.824219 L 390 437.886719 L 390.128906 437.945312 L 392.828125 439.132812 L 393.027344 439.222656 L 393.222656 439.3125 L 393.414062 439.40625 L 393.601562 439.503906 L 393.789062 439.605469 L 394.148438 439.816406 L 394.324219 439.929688 L 394.496094 440.042969 L 394.664062 440.160156 L 394.835938 440.277344 L 394.996094 440.398438 L 395.152344 440.527344 L 395.300781 440.664062 L 395.441406 440.808594 L 395.574219 440.957031 L 395.703125 441.113281 L 395.824219 441.273438 L 395.9375 441.441406 L 396.042969 441.617188 L 396.144531 441.796875 L 396.238281 441.984375 L 396.316406 442.183594 L 396.386719 442.390625 L 396.449219 442.609375 L 396.496094 442.839844 L 396.535156 443.078125 L 396.5625 443.328125 L 396.578125 443.589844 L 396.582031 443.859375 L 396.574219 444.125 L 396.554688 444.390625 L 396.519531 444.648438 L 396.46875 444.898438 L 396.40625 445.148438 L 396.328125 445.390625 L 396.238281 445.628906 L 396.132812 445.863281 L 396.011719 446.089844 L 395.878906 446.316406 L 395.734375 446.527344 L 395.574219 446.730469 L 395.40625 446.921875 L 395.222656 447.105469 L 395.03125 447.28125 L 394.824219 447.445312 L 394.605469 447.601562 L 394.375 447.75 L 394.136719 447.886719 L 393.882812 448.015625 L 393.625 448.132812 L 393.355469 448.238281 L 393.078125 448.332031 L 392.792969 448.414062 L 392.5 448.480469 L 392.195312 448.539062 L 391.878906 448.582031 L 391.558594 448.613281 L 391.226562 448.632812 Z M 390.886719 448.636719 "/>
<path fill-rule="nonzero" fill="rgb(0%, 0%, 0%)" fill-opacity="1" d="M 404.980469 448.636719 L 404.648438 448.628906 L 404.324219 448.605469 L 404.003906 448.566406 L 403.691406 448.511719 L 403.386719 448.441406 L 403.085938 448.355469 L 402.792969 448.253906 L 402.507812 448.136719 L 402.230469 448.003906 L 401.957031 447.855469 L 401.695312 447.683594 L 401.449219 447.503906 L 401.210938 447.304688 L 400.984375 447.09375 L 400.765625 446.867188 L 400.5625 446.628906 L 400.367188 446.375 L 400.183594 446.109375 L 400.011719 445.828125 L 399.847656 445.53125 L 399.707031 445.21875 L 399.578125 444.894531 L 399.464844 444.554688 L 399.367188 444.207031 L 399.28125 443.84375 L 399.214844 443.472656 L 399.160156 443.085938 L 399.125 442.691406 L 399.101562 442.28125 L 399.09375 441.859375 L 399.101562 441.429688 L 399.125 441.011719 L 399.167969 440.609375 L 399.222656 440.21875 L 399.296875 439.84375 L 399.386719 439.480469 L 399.488281 439.128906 L 399.613281 438.792969 L 399.75 438.46875 L 399.902344 438.160156 L 400.074219 437.859375 L 400.257812 437.574219 L 400.453125 437.304688 L 400.65625 437.050781 L 400.867188 436.8125 L 401.09375 436.585938 L 401.328125 436.378906 L 401.570312 436.183594 L 401.824219 436.003906 L 402.089844 435.839844 L 402.363281 435.683594 L 402.640625 435.546875 L 402.917969 435.425781 L 403.203125 435.320312 L 403.496094 435.230469 L 403.789062 435.160156 L 404.085938 435.101562 L 404.386719 435.0625 L 404.695312 435.039062 L 405.007812 435.03125 L 405.273438 435.035156 L 405.527344 435.050781 L 405.773438 435.074219 L 406.011719 435.105469 L 406.242188 435.152344 L 406.460938 435.203125 L 406.671875 435.265625 L 406.871094 435.339844 L 407.066406 435.421875 L 407.246094 435.515625 L 407.421875 435.613281 L 407.59375 435.714844 L 407.761719 435.820312 L 407.925781 435.925781 L 408.085938 436.035156 L 408.390625 436.261719 L 408.535156 436.378906 L 408.675781 436.5 L 408.8125 436.621094 L 408.109375 437.460938 L 407.984375 437.34375 L 407.859375 437.230469 L 407.726562 437.121094 L 407.59375 437.019531 L 407.457031 436.917969 L 407.316406 436.824219 L 407.175781 436.734375 L 407.03125 436.648438 L 406.882812 436.566406 L 406.734375 436.488281 L 406.582031 436.410156 L 406.425781 436.339844 L 406.265625 436.28125 L 406.097656 436.226562 L 405.929688 436.183594 L 405.757812 436.148438 L 405.582031 436.117188 L 405.402344 436.097656 L 405.21875 436.085938 L 405.035156 436.082031 L 404.769531 436.089844 L 404.515625 436.113281 L 404.261719 436.148438 L 404.015625 436.199219 L 403.769531 436.265625 L 403.53125 436.34375 L 403.300781 436.441406 L 403.070312 436.550781 L 402.847656 436.671875 L 402.628906 436.8125 L 402.425781 436.964844 L 402.226562 437.125 L 402.039062 437.300781 L 401.855469 437.484375 L 401.683594 437.683594 L 401.523438 437.890625 L 401.367188 438.109375 L 401.222656 438.339844 L 401.085938 438.582031 L 400.957031 438.835938 L 400.839844 439.101562 L 400.734375 439.371094 L 400.640625 439.652344 L 400.558594 439.941406 L 400.492188 440.242188 L 400.433594 440.546875 L 400.390625 440.863281 L 400.359375 441.1875 L 400.339844 441.519531 L 400.335938 441.859375 L 400.339844 442.195312 L 400.359375 442.523438 L 400.386719 442.84375 L 400.425781 443.15625 L 400.476562 443.460938 L 400.539062 443.753906 L 400.613281 444.042969 L 400.699219 444.324219 L 400.792969 444.59375 L 400.902344 444.859375 L 401.027344 445.105469 L 401.160156 445.34375 L 401.300781 445.570312 L 401.449219 445.785156 L 401.609375 445.992188 L 401.78125 446.1875 L 401.957031 446.371094 L 402.144531 446.542969 L 402.34375 446.703125 L 402.550781 446.855469 L 402.769531 446.992188 L 402.996094 447.117188 L 403.226562 447.226562 L 403.464844 447.320312 L 403.710938 447.402344 L 403.960938 447.46875 L 404.21875 447.519531 L 404.484375 447.554688 L 404.753906 447.578125 L 405.035156 447.585938 L 405.238281 447.582031 L 405.4375 447.566406 L 405.632812 447.546875 L 405.828125 447.515625 L 406.019531 447.476562 L 406.207031 447.429688 L 406.390625 447.371094 L 406.570312 447.308594 L 406.75 447.234375 L 406.921875 447.152344 L 407.097656 447.058594 L 407.269531 446.964844 L 407.4375 446.863281 L 407.601562 446.761719 L 407.761719 446.660156 L 407.914062 446.554688 L 408.066406 446.445312 L 408.210938 446.332031 L 408.351562 446.21875 L 408.488281 446.097656 L 409.109375 446.9375 L 408.941406 447.078125 L 408.769531 447.21875 L 408.589844 447.351562 L 408.410156 447.480469 L 408.226562 447.605469 L 408.039062 447.722656 L 407.847656 447.839844 L 407.648438 447.949219 L 407.449219 448.050781 L 407.246094 448.152344 L 407.039062 448.242188 L 406.828125 448.328125 L 406.613281 448.398438 L 406.390625 448.460938 L 406.167969 448.515625 L 405.9375 448.558594 L 405.703125 448.59375 L 405.46875 448.617188 L 405.226562 448.632812 Z M 404.980469 448.636719 "/>
<path fill-rule="nonzero" fill="rgb(0%, 0%, 0%)" fill-opacity="1" d="M 417.019531 448.636719 L 416.714844 448.628906 L 416.414062 448.605469 L 416.117188 448.566406 L 415.824219 448.511719 L 415.535156 448.441406 L 415.253906 448.355469 L 414.972656 448.253906 L 414.695312 448.136719 L 414.425781 448.003906 L 414.160156 447.855469 L 413.898438 447.683594 L 413.652344 447.503906 L 413.410156 447.304688 L 413.183594 447.09375 L 412.964844 446.867188 L 412.757812 446.628906 L 412.558594 446.375 L 412.371094 446.109375 L 412.195312 445.828125 L 412.027344 445.53125 L 411.871094 445.21875 L 411.734375 444.894531 L 411.613281 444.554688 L 411.507812 444.207031 L 411.417969 443.84375 L 411.347656 443.472656 L 411.289062 443.085938 L 411.25 442.691406 L 411.222656 442.28125 L 411.214844 441.859375 L 411.222656 441.429688 L 411.25 441.011719 L 411.289062 440.609375 L 411.347656 440.21875 L 411.417969 439.84375 L 411.507812 439.480469 L 411.613281 439.128906 L 411.734375 438.792969 L 411.871094 438.46875 L 412.027344 438.160156 L 412.195312 437.859375 L 412.371094 437.574219 L 412.558594 437.304688 L 412.757812 437.050781 L 412.964844 436.8125 L 413.183594 436.585938 L 413.410156 436.378906 L 413.652344 436.183594 L 413.898438 436.003906 L 414.160156 435.839844 L 414.425781 435.683594 L 414.695312 435.546875 L 414.972656 435.425781 L 415.253906 435.320312 L 415.535156 435.230469 L 415.824219 435.160156 L 416.117188 435.101562 L 416.414062 435.0625 L 416.714844 435.039062 L 417.019531 435.03125 L 417.332031 435.039062 L 417.636719 435.0625 L 417.9375 435.101562 L 418.234375 435.160156 L 418.527344 435.230469 L 418.8125 435.320312 L 419.09375 435.425781 L 419.371094 435.546875 L 419.644531 435.683594 L 419.910156 435.839844 L 420.167969 436.003906 L 420.417969 436.183594 L 420.65625 436.378906 L 420.886719 436.585938 L 421.105469 436.8125 L 421.3125 437.050781 L 421.511719 437.304688 L 421.699219 437.574219 L 421.875 437.859375 L 422.042969 438.160156 L 422.195312 438.46875 L 422.335938 438.792969 L 422.457031 439.128906 L 422.5625 439.480469 L 422.652344 439.84375 L 422.722656 440.21875 L 422.78125 440.609375 L 422.820312 441.011719 L 422.84375 441.429688 L 422.851562 441.859375 L 422.84375 442.28125 L 422.820312 442.691406 L 422.78125 443.085938 L 422.722656 443.472656 L 422.652344 443.84375 L 422.5625 444.207031 L 422.457031 444.554688 L 422.335938 444.894531 L 422.195312 445.21875 L 422.042969 445.53125 L 421.875 445.828125 L 421.699219 446.109375 L 421.511719 446.375 L 421.3125 446.628906 L 421.105469 446.867188 L 420.886719 447.09375 L 420.65625 447.304688 L 420.417969 447.503906 L 420.167969 447.683594 L 419.910156 447.855469 L 419.644531 448.003906 L 419.371094 448.136719 L 419.09375 448.253906 L 418.8125 448.355469 L 418.527344 448.441406 L 418.234375 448.511719 L 417.9375 448.566406 L 417.636719 448.605469 L 417.332031 448.628906 Z M 417.019531 447.585938 L 417.28125 447.578125 L 417.539062 447.554688 L 417.789062 447.519531 L 418.03125 447.46875 L 418.269531 447.402344 L 418.503906 447.320312 L 418.726562 447.226562 L 418.949219 447.117188 L 419.164062 446.992188 L 419.371094 446.855469 L 419.570312 446.703125 L 419.761719 446.542969 L 419.945312 446.371094 L 420.121094 446.1875 L 420.289062 445.992188 L 420.445312 445.785156 L 420.59375 445.570312 L 420.734375 445.34375 L 420.867188 445.105469 L 420.992188 444.859375 L 421.109375 444.59375 L 421.214844 444.324219 L 421.308594 444.042969 L 421.386719 443.753906 L 421.457031 443.460938 L 421.511719 443.15625 L 421.554688 442.84375 L 421.585938 442.523438 L 421.605469 442.195312 L 421.609375 441.859375 L 421.605469 441.519531 L 421.585938 441.1875 L 421.554688 440.863281 L 421.511719 440.546875 L 421.457031 440.242188 L 421.386719 439.941406 L 421.308594 439.652344 L 421.214844 439.371094 L 421.109375 439.101562 L 420.992188 438.835938 L 420.867188 438.582031 L 420.734375 438.339844 L 420.59375 438.109375 L 420.445312 437.890625 L 420.289062 437.683594 L 420.121094 437.484375 L 419.945312 437.300781 L 419.761719 437.125 L 419.570312 436.964844 L 419.371094 436.8125 L 419.164062 436.671875 L 418.949219 436.550781 L 418.726562 436.441406 L 418.503906 436.34375 L 418.269531 436.265625 L 418.03125 436.199219 L 417.789062 436.148438 L 417.539062 436.113281 L 417.28125 436.089844 L 417.019531 436.082031 L 416.765625 436.089844 L 416.511719 436.113281 L 416.265625 436.148438 L 416.023438 436.199219 L 415.785156 436.265625 L 415.554688 436.34375 L 415.324219 436.441406 L 415.101562 436.550781 L 414.886719 436.671875 L 414.671875 436.8125 L 414.472656 436.964844 L 414.277344 437.125 L 414.09375 437.300781 L 413.921875 437.484375 L 413.753906 437.683594 L 413.597656 437.890625 L 413.449219 438.109375 L 413.308594 438.339844 L 413.175781 438.582031 L 413.050781 438.835938 L 412.9375 439.101562 L 412.839844 439.371094 L 412.75 439.652344 L 412.671875 439.941406 L 412.605469 440.242188 L 412.554688 440.546875 L 412.511719 440.863281 L 412.480469 441.1875 L 412.464844 441.519531 L 412.457031 441.859375 L 412.464844 442.195312 L 412.480469 442.523438 L 412.511719 442.84375 L 412.554688 443.15625 L 412.605469 443.460938 L 412.671875 443.753906 L 412.75 444.042969 L 412.839844 444.324219 L 412.9375 444.59375 L 413.050781 444.859375 L 413.175781 445.105469 L 413.308594 445.34375 L 413.449219 445.570312 L 413.597656 445.785156 L 413.753906 445.992188 L 413.921875 446.1875 L 414.09375 446.371094 L 414.277344 446.542969 L 414.472656 446.703125 L 414.671875 446.855469 L 414.886719 446.992188 L 415.101562 447.117188 L 415.324219 447.226562 L 415.554688 447.320312 L 415.785156 447.402344 L 416.023438 447.46875 L 416.265625 447.519531 L 416.511719 447.554688 L 416.765625 447.578125 Z M 417.019531 447.585938 "/>
<path fill-rule="nonzero" fill="rgb(0%, 0%, 0%)" fill-opacity="1" d="M 426.742188 448.3125 L 426.742188 435.351562 L 427.765625 435.351562 L 427.875 437.757812 L 427.957031 437.757812 L 428.089844 437.523438 L 428.226562 437.296875 L 428.371094 437.082031 L 428.519531 436.875 L 428.671875 436.675781 L 428.832031 436.488281 L 428.996094 436.304688 L 429.164062 436.132812 L 429.339844 435.96875 L 429.523438 435.8125 L 429.714844 435.664062 L 429.910156 435.53125 L 430.109375 435.414062 L 430.3125 435.3125 L 430.519531 435.226562 L 430.734375 435.15625 L 430.949219 435.101562 L 431.171875 435.0625 L 431.398438 435.039062 L 431.628906 435.03125 L 431.777344 435.03125 L 431.917969 435.039062 L 431.984375 435.042969 L 432.050781 435.050781 L 432.117188 435.054688 L 432.179688 435.0625 L 432.242188 435.074219 L 432.304688 435.082031 L 432.363281 435.09375 L 432.421875 435.109375 L 432.484375 435.125 L 432.546875 435.144531 L 432.605469 435.164062 L 432.730469 435.210938 L 432.796875 435.238281 L 432.859375 435.269531 L 432.925781 435.300781 L 432.652344 436.378906 L 432.589844 436.355469 L 432.527344 436.328125 L 432.46875 436.308594 L 432.40625 436.289062 L 432.351562 436.269531 L 432.292969 436.257812 L 432.242188 436.242188 L 432.1875 436.234375 L 432.136719 436.222656 L 432.085938 436.21875 L 432.039062 436.207031 L 431.929688 436.191406 L 431.871094 436.183594 L 431.808594 436.175781 L 431.746094 436.171875 L 431.613281 436.164062 L 431.464844 436.164062 L 431.292969 436.171875 L 431.117188 436.195312 L 430.9375 436.230469 L 430.757812 436.285156 L 430.574219 436.351562 L 430.390625 436.4375 L 430.203125 436.535156 L 430.015625 436.648438 L 429.824219 436.777344 L 429.628906 436.917969 L 429.441406 437.078125 L 429.261719 437.253906 L 429.082031 437.457031 L 428.90625 437.679688 L 428.734375 437.925781 L 428.5625 438.191406 L 428.398438 438.484375 L 428.238281 438.792969 L 428.082031 439.128906 L 427.929688 439.484375 L 427.929688 448.3125 Z M 426.742188 448.3125 "/>
<path fill-rule="nonzero" fill="rgb(0%, 0%, 0%)" fill-opacity="1" d="M 440.214844 448.636719 L 439.886719 448.628906 L 439.566406 448.605469 L 439.25 448.566406 L 438.941406 448.507812 L 438.636719 448.433594 L 438.335938 448.347656 L 438.039062 448.242188 L 437.75 448.117188 L 437.46875 447.980469 L 437.191406 447.828125 L 436.925781 447.660156 L 436.671875 447.476562 L 436.429688 447.277344 L 436.195312 447.066406 L 435.976562 446.84375 L 435.765625 446.601562 L 435.566406 446.347656 L 435.375 446.082031 L 435.199219 445.800781 L 435.03125 445.503906 L 434.875 445.191406 L 434.738281 444.867188 L 434.617188 444.53125 L 434.511719 444.183594 L 434.421875 443.824219 L 434.351562 443.453125 L 434.292969 443.074219 L 434.253906 442.679688 L 434.226562 442.277344 L 434.21875 441.859375 L 434.226562 441.441406 L 434.253906 441.03125 L 434.292969 440.636719 L 434.351562 440.253906 L 434.421875 439.882812 L 434.511719 439.523438 L 434.617188 439.179688 L 434.738281 438.84375 L 434.875 438.523438 L 435.03125 438.214844 L 435.195312 437.914062 L 435.375 437.628906 L 435.558594 437.359375 L 435.757812 437.101562 L 435.960938 436.859375 L 436.175781 436.632812 L 436.402344 436.417969 L 436.636719 436.21875 L 436.882812 436.035156 L 437.136719 435.867188 L 437.398438 435.707031 L 437.660156 435.566406 L 437.925781 435.441406 L 438.195312 435.332031 L 438.464844 435.238281 L 438.738281 435.164062 L 439.015625 435.105469 L 439.296875 435.0625 L 439.578125 435.039062 L 439.863281 435.03125 L 440.316406 435.046875 L 440.753906 435.09375 L 441.167969 435.171875 L 441.5625 435.28125 L 441.933594 435.421875 L 442.289062 435.59375 L 442.625 435.796875 L 442.9375 436.03125 L 443.234375 436.296875 L 443.507812 436.59375 L 443.757812 436.921875 L 443.984375 437.273438 L 444.183594 437.652344 L 444.355469 438.054688 L 444.5 438.484375 L 444.621094 438.941406 L 444.710938 439.421875 L 444.777344 439.929688 L 444.816406 440.464844 L 444.832031 441.023438 L 444.832031 441.121094 L 444.828125 441.167969 L 444.828125 441.21875 L 444.824219 441.265625 L 444.820312 441.316406 L 444.816406 441.363281 L 444.8125 441.414062 L 444.804688 441.507812 L 444.804688 441.558594 L 444.800781 441.605469 L 444.800781 441.65625 L 444.796875 441.703125 L 444.789062 441.753906 L 444.785156 441.800781 L 444.777344 441.851562 L 444.761719 441.945312 L 444.75 441.996094 L 435.433594 441.996094 L 435.445312 442.316406 L 435.46875 442.628906 L 435.503906 442.9375 L 435.546875 443.234375 L 435.605469 443.527344 L 435.671875 443.8125 L 435.75 444.089844 L 435.839844 444.363281 L 435.941406 444.628906 L 436.054688 444.882812 L 436.183594 445.132812 L 436.324219 445.371094 L 436.46875 445.597656 L 436.625 445.8125 L 436.792969 446.019531 L 436.964844 446.210938 L 437.152344 446.394531 L 437.34375 446.570312 L 437.546875 446.730469 L 437.757812 446.882812 L 437.980469 447.019531 L 438.214844 447.144531 L 438.453125 447.253906 L 438.699219 447.347656 L 438.953125 447.429688 L 439.210938 447.496094 L 439.480469 447.546875 L 439.753906 447.582031 L 440.035156 447.605469 L 440.324219 447.613281 L 440.53125 447.609375 L 440.734375 447.597656 L 440.933594 447.582031 L 441.128906 447.558594 L 441.320312 447.53125 L 441.507812 447.496094 L 441.691406 447.453125 L 441.867188 447.402344 L 442.042969 447.347656 L 442.210938 447.289062 L 442.382812 447.222656 L 442.71875 447.074219 L 442.882812 446.996094 L 443.042969 446.917969 L 443.199219 446.832031 L 443.355469 446.742188 L 443.507812 446.648438 L 443.65625 446.550781 L 443.804688 446.449219 L 444.292969 447.367188 L 444.136719 447.460938 L 443.980469 447.550781 L 443.820312 447.640625 L 443.65625 447.726562 L 443.488281 447.8125 L 443.316406 447.898438 L 443.140625 447.984375 L 442.960938 448.066406 L 442.777344 448.152344 L 442.589844 448.234375 L 442.394531 448.308594 L 442.191406 448.378906 L 441.980469 448.4375 L 441.757812 448.492188 L 441.523438 448.535156 L 441.28125 448.574219 L 441.027344 448.601562 L 440.765625 448.621094 L 440.496094 448.632812 Z M 435.433594 441.023438 L 443.699219 441.023438 L 443.6875 440.539062 L 443.65625 440.078125 L 443.605469 439.644531 L 443.53125 439.234375 L 443.441406 438.851562 L 443.328125 438.488281 L 443.195312 438.15625 L 443.039062 437.84375 L 442.867188 437.558594 L 442.671875 437.296875 L 442.457031 437.0625 L 442.230469 436.851562 L 441.988281 436.664062 L 441.734375 436.503906 L 441.464844 436.367188 L 441.175781 436.253906 L 440.878906 436.167969 L 440.5625 436.105469 L 440.234375 436.066406 L 439.890625 436.054688 L 439.671875 436.0625 L 439.453125 436.078125 L 439.238281 436.109375 L 439.027344 436.152344 L 438.816406 436.203125 L 438.609375 436.269531 L 438.40625 436.347656 L 438.207031 436.4375 L 438.007812 436.535156 L 437.8125 436.648438 L 437.625 436.773438 L 437.445312 436.90625 L 437.269531 437.050781 L 437.101562 437.207031 L 436.941406 437.371094 L 436.785156 437.546875 L 436.632812 437.730469 L 436.488281 437.929688 L 436.351562 438.132812 L 436.21875 438.351562 L 436.09375 438.578125 L 435.980469 438.8125 L 435.875 439.054688 L 435.78125 439.308594 L 435.699219 439.570312 L 435.625 439.84375 L 435.5625 440.125 L 435.511719 440.414062 L 435.46875 440.714844 Z M 435.433594 441.023438 "/>
<path fill-rule="nonzero" fill="rgb(0%, 0%, 0%)" fill-opacity="1" d="M 31.242188 215.894531 L 24.035156 215.894531 L 13.449219 221.214844 L 13.449219 219.890625 L 19.011719 217.191406 L 19.207031 217.097656 L 19.398438 217.007812 L 19.59375 216.914062 L 19.785156 216.824219 L 19.976562 216.730469 L 20.167969 216.640625 L 20.359375 216.546875 L 20.550781 216.457031 L 20.738281 216.363281 L 20.929688 216.273438 L 21.117188 216.179688 L 21.691406 215.898438 L 22.277344 215.605469 L 22.476562 215.503906 L 22.671875 215.402344 L 22.871094 215.300781 L 22.871094 215.191406 L 22.671875 215.089844 L 22.476562 214.988281 L 22.277344 214.886719 L 22.082031 214.785156 L 21.886719 214.6875 L 21.691406 214.585938 L 21.117188 214.292969 L 20.929688 214.195312 L 20.738281 214.097656 L 20.550781 214 L 20.167969 213.8125 L 19.976562 213.722656 L 19.785156 213.628906 L 19.59375 213.539062 L 19.398438 213.449219 L 19.207031 213.363281 L 19.011719 213.277344 L 13.449219 210.574219 L 13.449219 209.308594 L 24.035156 214.652344 L 31.242188 214.652344 Z M 31.242188 215.894531 "/>
</svg>
