<?xml version="1.0" encoding="UTF-8"?>
<svg xmlns="http://www.w3.org/2000/svg" xmlns:xlink="http://www.w3.org/1999/xlink" width="792" height="446" viewBox="0 0 792 446">
<defs>
<clipPath id="clip-0">
<path clip-rule="nonzero" d="M 50.929688 13.449219 L 778.550781 13.449219 L 778.550781 395.070312 L 50.929688 395.070312 Z M 50.929688 13.449219 "/>
</clipPath>
<clipPath id="clip-1">
<path clip-rule="nonzero" d="M 50.929688 295 L 778.550781 295 L 778.550781 299 L 50.929688 299 Z M 50.929688 295 "/>
</clipPath>
<clipPath id="clip-2">
<path clip-rule="nonzero" d="M 50.929688 195 L 778.550781 195 L 778.550781 198 L 50.929688 198 Z M 50.929688 195 "/>
</clipPath>
<clipPath id="clip-3">
<path clip-rule="nonzero" d="M 50.929688 94 L 778.550781 94 L 778.550781 97 L 50.929688 97 Z M 50.929688 94 "/>
</clipPath>
<clipPath id="clip-4">
<path clip-rule="nonzero" d="M 82 13.449219 L 85 13.449219 L 85 395.070312 L 82 395.070312 Z M 82 13.449219 "/>
</clipPath>
<clipPath id="clip-5">
<path clip-rule="nonzero" d="M 247 13.449219 L 251 13.449219 L 251 395.070312 L 247 395.070312 Z M 247 13.449219 "/>
</clipPath>
<clipPath id="clip-6">
<path clip-rule="nonzero" d="M 413 13.449219 L 417 13.449219 L 417 395.070312 L 413 395.070312 Z M 413 13.449219 "/>
</clipPath>
<clipPath id="clip-7">
<path clip-rule="nonzero" d="M 578 13.449219 L 582 13.449219 L 582 395.070312 L 578 395.070312 Z M 578 13.449219 "/>
</clipPath>
<clipPath id="clip-8">
<path clip-rule="nonzero" d="M 744 13.449219 L 748 13.449219 L 748 395.070312 L 744 395.070312 Z M 744 13.449219 "/>
</clipPath>
<clipPath id="clip-9">
<path clip-rule="nonzero" d="M 413 13.449219 L 416 13.449219 L 416 395.070312 L 413 395.070312 Z M 413 13.449219 "/>
</clipPath>
</defs>
<rect x="-79.2" y="-44.6" width="950.4" height="535.2" fill="rgb(100%, 100%, 100%)" fill-opacity="1"/>
<rect x="-79.2" y="-44.6" width="950.4" height="535.2" fill="rgb(95.294118%, 95.294118%, 95.294118%)" fill-opacity="1"/>
<path fill="none" stroke-width="2.618947" stroke-linecap="round" stroke-linejoin="round" stroke="rgb(95.294118%, 95.294118%, 95.294118%)" stroke-opacity="1" stroke-miterlimit="10" d="M 0 446 L 792 446 L 792 0 L 0 0 Z M 0 446 "/>
<g clip-path="url(#clip-0)">
<path fill-rule="nonzero" fill="rgb(95.294118%, 95.294118%, 95.294118%)" fill-opacity="1" stroke-width="2.618947" stroke-linecap="round" stroke-linejoin="round" stroke="rgb(95.294118%, 95.294118%, 95.294118%)" stroke-opacity="1" stroke-miterlimit="10" d="M 50.929688 395.070312 L 778.550781 395.070312 L 778.550781 13.449219 L 50.929688 13.449219 Z M 50.929688 395.070312 "/>
</g>
<g clip-path="url(#clip-1)">
<path fill="none" stroke-width="2.618947" stroke-linecap="butt" stroke-linejoin="round" stroke="rgb(92.156863%, 92.156863%, 92.156863%)" stroke-opacity="1" stroke-miterlimit="10" d="M 50.929688 297.140625 L 778.550781 297.140625 "/>
</g>
<g clip-path="url(#clip-2)">
<path fill="none" stroke-width="2.618947" stroke-linecap="butt" stroke-linejoin="round" stroke="rgb(92.156863%, 92.156863%, 92.156863%)" stroke-opacity="1" stroke-miterlimit="10" d="M 50.929688 196.34375 L 778.550781 196.34375 "/>
</g>
<g clip-path="url(#clip-3)">
<path fill="none" stroke-width="2.618947" stroke-linecap="butt" stroke-linejoin="round" stroke="rgb(92.156863%, 92.156863%, 92.156863%)" stroke-opacity="1" stroke-miterlimit="10" d="M 50.929688 95.546875 L 778.550781 95.546875 "/>
</g>
<g clip-path="url(#clip-4)">
<path fill="none" stroke-width="2.618947" stroke-linecap="butt" stroke-linejoin="round" stroke="rgb(92.156863%, 92.156863%, 92.156863%)" stroke-opacity="1" stroke-miterlimit="10" d="M 83.585938 395.070312 L 83.585938 13.449219 "/>
</g>
<g clip-path="url(#clip-5)">
<path fill="none" stroke-width="2.618947" stroke-linecap="butt" stroke-linejoin="round" stroke="rgb(92.156863%, 92.156863%, 92.156863%)" stroke-opacity="1" stroke-miterlimit="10" d="M 249.148438 395.070312 L 249.148438 13.449219 "/>
</g>
<g clip-path="url(#clip-6)">
<path fill="none" stroke-width="2.618947" stroke-linecap="butt" stroke-linejoin="round" stroke="rgb(92.156863%, 92.156863%, 92.156863%)" stroke-opacity="1" stroke-miterlimit="10" d="M 414.710938 395.070312 L 414.710938 13.449219 "/>
</g>
<g clip-path="url(#clip-7)">
<path fill="none" stroke-width="2.618947" stroke-linecap="butt" stroke-linejoin="round" stroke="rgb(92.156863%, 92.156863%, 92.156863%)" stroke-opacity="1" stroke-miterlimit="10" d="M 580.273438 395.070312 L 580.273438 13.449219 "/>
</g>
<g clip-path="url(#clip-8)">
<path fill="none" stroke-width="2.618947" stroke-linecap="butt" stroke-linejoin="round" stroke="rgb(92.156863%, 92.156863%, 92.156863%)" stroke-opacity="1" stroke-miterlimit="10" d="M 745.832031 395.070312 L 745.832031 13.449219 "/>
</g>
<path fill-rule="nonzero" fill="rgb(56.078431%, 16.470588%, 26.27451%)" fill-opacity="1" stroke-width="0.708661" stroke-linecap="round" stroke-linejoin="round" stroke="rgb(56.078431%, 16.470588%, 26.27451%)" stroke-opacity="1" stroke-miterlimit="10" d="M 89.90625 289.152344 C 89.90625 292.414062 87.261719 295.054688 84.003906 295.054688 C 80.742188 295.054688 78.101562 292.414062 78.101562 289.152344 C 78.101562 285.894531 80.742188 283.25 84.003906 283.25 C 87.261719 283.25 89.90625 285.894531 89.90625 289.152344 "/>
<path fill-rule="nonzero" fill="rgb(56.078431%, 16.470588%, 26.27451%)" fill-opacity="1" stroke-width="0.708661" stroke-linecap="round" stroke-linejoin="round" stroke="rgb(56.078431%, 16.470588%, 26.27451%)" stroke-opacity="1" stroke-miterlimit="10" d="M 110.371094 308.839844 C 110.371094 312.097656 107.726562 314.742188 104.46875 314.742188 C 101.207031 314.742188 98.566406 312.097656 98.566406 308.839844 C 98.566406 305.578125 101.207031 302.9375 104.46875 302.9375 C 107.726562 302.9375 110.371094 305.578125 110.371094 308.839844 "/>
<path fill-rule="nonzero" fill="rgb(56.078431%, 16.470588%, 26.27451%)" fill-opacity="1" stroke-width="0.708661" stroke-linecap="round" stroke-linejoin="round" stroke="rgb(56.078431%, 16.470588%, 26.27451%)" stroke-opacity="1" stroke-miterlimit="10" d="M 122.867188 273.734375 C 122.867188 276.992188 120.226562 279.636719 116.964844 279.636719 C 113.703125 279.636719 111.0625 276.992188 111.0625 273.734375 C 111.0625 270.472656 113.703125 267.832031 116.964844 267.832031 C 120.226562 267.832031 122.867188 270.472656 122.867188 273.734375 "/>
<path fill-rule="nonzero" fill="rgb(56.078431%, 16.470588%, 26.27451%)" fill-opacity="1" stroke-width="0.708661" stroke-linecap="round" stroke-linejoin="round" stroke="rgb(56.078431%, 16.470588%, 26.27451%)" stroke-opacity="1" stroke-miterlimit="10" d="M 135.609375 309.199219 C 135.609375 312.460938 132.964844 315.101562 129.707031 315.101562 C 126.445312 315.101562 123.800781 312.460938 123.800781 309.199219 C 123.800781 305.941406 126.445312 303.296875 129.707031 303.296875 C 132.964844 303.296875 135.609375 305.941406 135.609375 309.199219 "/>
<path fill-rule="nonzero" fill="rgb(56.078431%, 16.470588%, 26.27451%)" fill-opacity="1" stroke-width="0.708661" stroke-linecap="round" stroke-linejoin="round" stroke="rgb(56.078431%, 16.470588%, 26.27451%)" stroke-opacity="1" stroke-miterlimit="10" d="M 149.796875 313.628906 C 149.796875 316.890625 147.152344 319.53125 143.894531 319.53125 C 140.632812 319.53125 137.992188 316.890625 137.992188 313.628906 C 137.992188 310.367188 140.632812 307.726562 143.894531 307.726562 C 147.152344 307.726562 149.796875 310.367188 149.796875 313.628906 "/>
<path fill-rule="nonzero" fill="rgb(56.078431%, 16.470588%, 26.27451%)" fill-opacity="1" stroke-width="0.708661" stroke-linecap="round" stroke-linejoin="round" stroke="rgb(56.078431%, 16.470588%, 26.27451%)" stroke-opacity="1" stroke-miterlimit="10" d="M 161.699219 322.8125 C 161.699219 326.070312 159.058594 328.714844 155.796875 328.714844 C 152.539062 328.714844 149.894531 326.070312 149.894531 322.8125 C 149.894531 319.550781 152.539062 316.910156 155.796875 316.910156 C 159.058594 316.910156 161.699219 319.550781 161.699219 322.8125 "/>
<path fill-rule="nonzero" fill="rgb(56.078431%, 16.470588%, 26.27451%)" fill-opacity="1" stroke-width="0.708661" stroke-linecap="round" stroke-linejoin="round" stroke="rgb(56.078431%, 16.470588%, 26.27451%)" stroke-opacity="1" stroke-miterlimit="10" d="M 177.40625 377.722656 C 177.40625 380.984375 174.765625 383.628906 171.503906 383.628906 C 168.246094 383.628906 165.601562 380.984375 165.601562 377.722656 C 165.601562 374.464844 168.246094 371.820312 171.503906 371.820312 C 174.765625 371.820312 177.40625 374.464844 177.40625 377.722656 "/>
<path fill-rule="nonzero" fill="rgb(56.078431%, 16.470588%, 26.27451%)" fill-opacity="1" stroke-width="0.708661" stroke-linecap="round" stroke-linejoin="round" stroke="rgb(56.078431%, 16.470588%, 26.27451%)" stroke-opacity="1" stroke-miterlimit="10" d="M 189.296875 357.042969 C 189.296875 360.304688 186.65625 362.945312 183.394531 362.945312 C 180.136719 362.945312 177.492188 360.304688 177.492188 357.042969 C 177.492188 353.785156 180.136719 351.140625 183.394531 351.140625 C 186.65625 351.140625 189.296875 353.785156 189.296875 357.042969 "/>
<path fill-rule="nonzero" fill="rgb(56.078431%, 16.470588%, 26.27451%)" fill-opacity="1" stroke-width="0.708661" stroke-linecap="round" stroke-linejoin="round" stroke="rgb(56.078431%, 16.470588%, 26.27451%)" stroke-opacity="1" stroke-miterlimit="10" d="M 202.328125 358.109375 C 202.328125 361.367188 199.683594 364.011719 196.421875 364.011719 C 193.164062 364.011719 190.519531 361.367188 190.519531 358.109375 C 190.519531 354.847656 193.164062 352.207031 196.421875 352.207031 C 199.683594 352.207031 202.328125 354.847656 202.328125 358.109375 "/>
<path fill-rule="nonzero" fill="rgb(56.078431%, 16.470588%, 26.27451%)" fill-opacity="1" stroke-width="0.708661" stroke-linecap="round" stroke-linejoin="round" stroke="rgb(56.078431%, 16.470588%, 26.27451%)" stroke-opacity="1" stroke-miterlimit="10" d="M 216.308594 338.78125 C 216.308594 342.042969 213.667969 344.683594 210.40625 344.683594 C 207.148438 344.683594 204.503906 342.042969 204.503906 338.78125 C 204.503906 335.523438 207.148438 332.878906 210.40625 332.878906 C 213.667969 332.878906 216.308594 335.523438 216.308594 338.78125 "/>
<path fill-rule="nonzero" fill="rgb(56.078431%, 16.470588%, 26.27451%)" fill-opacity="1" stroke-width="0.708661" stroke-linecap="round" stroke-linejoin="round" stroke="rgb(56.078431%, 16.470588%, 26.27451%)" stroke-opacity="1" stroke-miterlimit="10" d="M 229.820312 325.644531 C 229.820312 328.902344 227.179688 331.546875 223.917969 331.546875 C 220.660156 331.546875 218.015625 328.902344 218.015625 325.644531 C 218.015625 322.382812 220.660156 319.742188 223.917969 319.742188 C 227.179688 319.742188 229.820312 322.382812 229.820312 325.644531 "/>
<path fill-rule="nonzero" fill="rgb(56.078431%, 16.470588%, 26.27451%)" fill-opacity="1" stroke-width="0.708661" stroke-linecap="round" stroke-linejoin="round" stroke="rgb(56.078431%, 16.470588%, 26.27451%)" stroke-opacity="1" stroke-miterlimit="10" d="M 242.105469 325.140625 C 242.105469 328.402344 239.464844 331.042969 236.203125 331.042969 C 232.945312 331.042969 230.300781 328.402344 230.300781 325.140625 C 230.300781 321.882812 232.945312 319.238281 236.203125 319.238281 C 239.464844 319.238281 242.105469 321.882812 242.105469 325.140625 "/>
<path fill-rule="nonzero" fill="rgb(56.078431%, 16.470588%, 26.27451%)" fill-opacity="1" stroke-width="0.708661" stroke-linecap="round" stroke-linejoin="round" stroke="rgb(56.078431%, 16.470588%, 26.27451%)" stroke-opacity="1" stroke-miterlimit="10" d="M 255.1875 312.851562 C 255.1875 316.113281 252.542969 318.753906 249.285156 318.753906 C 246.023438 318.753906 243.382812 316.113281 243.382812 312.851562 C 243.382812 309.59375 246.023438 306.949219 249.285156 306.949219 C 252.542969 306.949219 255.1875 309.59375 255.1875 312.851562 "/>
<path fill-rule="nonzero" fill="rgb(56.078431%, 16.470588%, 26.27451%)" fill-opacity="1" stroke-width="0.708661" stroke-linecap="round" stroke-linejoin="round" stroke="rgb(56.078431%, 16.470588%, 26.27451%)" stroke-opacity="1" stroke-miterlimit="10" d="M 268.496094 282.5 C 268.496094 285.757812 265.851562 288.402344 262.59375 288.402344 C 259.332031 288.402344 256.691406 285.757812 256.691406 282.5 C 256.691406 279.238281 259.332031 276.597656 262.59375 276.597656 C 265.851562 276.597656 268.496094 279.238281 268.496094 282.5 "/>
<path fill-rule="nonzero" fill="rgb(56.078431%, 16.470588%, 26.27451%)" fill-opacity="1" stroke-width="0.708661" stroke-linecap="round" stroke-linejoin="round" stroke="rgb(56.078431%, 16.470588%, 26.27451%)" stroke-opacity="1" stroke-miterlimit="10" d="M 281.589844 273.382812 C 281.589844 276.640625 278.949219 279.285156 275.6875 279.285156 C 272.429688 279.285156 269.785156 276.640625 269.785156 273.382812 C 269.785156 270.121094 272.429688 267.480469 275.6875 267.480469 C 278.949219 267.480469 281.589844 270.121094 281.589844 273.382812 "/>
<path fill-rule="nonzero" fill="rgb(56.078431%, 16.470588%, 26.27451%)" fill-opacity="1" stroke-width="0.708661" stroke-linecap="round" stroke-linejoin="round" stroke="rgb(56.078431%, 16.470588%, 26.27451%)" stroke-opacity="1" stroke-miterlimit="10" d="M 295.160156 275.128906 C 295.160156 278.386719 292.515625 281.03125 289.257812 281.03125 C 285.996094 281.03125 283.355469 278.386719 283.355469 275.128906 C 283.355469 271.867188 285.996094 269.226562 289.257812 269.226562 C 292.515625 269.226562 295.160156 271.867188 295.160156 275.128906 "/>
<path fill-rule="nonzero" fill="rgb(56.078431%, 16.470588%, 26.27451%)" fill-opacity="1" stroke-width="0.708661" stroke-linecap="round" stroke-linejoin="round" stroke="rgb(56.078431%, 16.470588%, 26.27451%)" stroke-opacity="1" stroke-miterlimit="10" d="M 307.65625 260.558594 C 307.65625 263.820312 305.011719 266.460938 301.753906 266.460938 C 298.492188 266.460938 295.851562 263.820312 295.851562 260.558594 C 295.851562 257.300781 298.492188 254.65625 301.753906 254.65625 C 305.011719 254.65625 307.65625 257.300781 307.65625 260.558594 "/>
<path fill-rule="nonzero" fill="rgb(56.078431%, 16.470588%, 26.27451%)" fill-opacity="1" stroke-width="0.708661" stroke-linecap="round" stroke-linejoin="round" stroke="rgb(56.078431%, 16.470588%, 26.27451%)" stroke-opacity="1" stroke-miterlimit="10" d="M 320.929688 258.878906 C 320.929688 262.140625 318.285156 264.78125 315.023438 264.78125 C 311.765625 264.78125 309.121094 262.140625 309.121094 258.878906 C 309.121094 255.621094 311.765625 252.976562 315.023438 252.976562 C 318.285156 252.976562 320.929688 255.621094 320.929688 258.878906 "/>
<path fill-rule="nonzero" fill="rgb(56.078431%, 16.470588%, 26.27451%)" fill-opacity="1" stroke-width="0.708661" stroke-linecap="round" stroke-linejoin="round" stroke="rgb(56.078431%, 16.470588%, 26.27451%)" stroke-opacity="1" stroke-miterlimit="10" d="M 334.558594 252.4375 C 334.558594 255.699219 331.914062 258.339844 328.65625 258.339844 C 325.394531 258.339844 322.753906 255.699219 322.753906 252.4375 C 322.753906 249.179688 325.394531 246.535156 328.65625 246.535156 C 331.914062 246.535156 334.558594 249.179688 334.558594 252.4375 "/>
<path fill-rule="nonzero" fill="rgb(56.078431%, 16.470588%, 26.27451%)" fill-opacity="1" stroke-width="0.708661" stroke-linecap="round" stroke-linejoin="round" stroke="rgb(56.078431%, 16.470588%, 26.27451%)" stroke-opacity="1" stroke-miterlimit="10" d="M 347.757812 249.042969 C 347.757812 252.300781 345.113281 254.945312 341.855469 254.945312 C 338.59375 254.945312 335.953125 252.300781 335.953125 249.042969 C 335.953125 245.78125 338.59375 243.140625 341.855469 243.140625 C 345.113281 243.140625 347.757812 245.78125 347.757812 249.042969 "/>
<path fill-rule="nonzero" fill="rgb(56.078431%, 16.470588%, 26.27451%)" fill-opacity="1" stroke-width="0.708661" stroke-linecap="round" stroke-linejoin="round" stroke="rgb(56.078431%, 16.470588%, 26.27451%)" stroke-opacity="1" stroke-miterlimit="10" d="M 361.378906 244.375 C 361.378906 247.632812 358.734375 250.277344 355.476562 250.277344 C 352.214844 250.277344 349.574219 247.632812 349.574219 244.375 C 349.574219 241.113281 352.214844 238.472656 355.476562 238.472656 C 358.734375 238.472656 361.378906 241.113281 361.378906 244.375 "/>
<path fill-rule="nonzero" fill="rgb(56.078431%, 16.470588%, 26.27451%)" fill-opacity="1" stroke-width="0.708661" stroke-linecap="round" stroke-linejoin="round" stroke="rgb(56.078431%, 16.470588%, 26.27451%)" stroke-opacity="1" stroke-miterlimit="10" d="M 374.488281 237.648438 C 374.488281 240.910156 371.84375 243.550781 368.585938 243.550781 C 365.324219 243.550781 362.683594 240.910156 362.683594 237.648438 C 362.683594 234.390625 365.324219 231.746094 368.585938 231.746094 C 371.84375 231.746094 374.488281 234.390625 374.488281 237.648438 "/>
<path fill-rule="nonzero" fill="rgb(56.078431%, 16.470588%, 26.27451%)" fill-opacity="1" stroke-width="0.708661" stroke-linecap="round" stroke-linejoin="round" stroke="rgb(56.078431%, 16.470588%, 26.27451%)" stroke-opacity="1" stroke-miterlimit="10" d="M 387.207031 232.53125 C 387.207031 235.789062 384.566406 238.433594 381.304688 238.433594 C 378.042969 238.433594 375.402344 235.789062 375.402344 232.53125 C 375.402344 229.269531 378.042969 226.628906 381.304688 226.628906 C 384.566406 226.628906 387.207031 229.269531 387.207031 232.53125 "/>
<path fill-rule="nonzero" fill="rgb(56.078431%, 16.470588%, 26.27451%)" fill-opacity="1" stroke-width="0.708661" stroke-linecap="round" stroke-linejoin="round" stroke="rgb(56.078431%, 16.470588%, 26.27451%)" stroke-opacity="1" stroke-miterlimit="10" d="M 400.535156 227.074219 C 400.535156 230.335938 397.894531 232.976562 394.632812 232.976562 C 391.375 232.976562 388.730469 230.335938 388.730469 227.074219 C 388.730469 223.816406 391.375 221.171875 394.632812 221.171875 C 397.894531 221.171875 400.535156 223.816406 400.535156 227.074219 "/>
<path fill-rule="nonzero" fill="rgb(56.078431%, 16.470588%, 26.27451%)" fill-opacity="1" stroke-width="0.708661" stroke-linecap="round" stroke-linejoin="round" stroke="rgb(56.078431%, 16.470588%, 26.27451%)" stroke-opacity="1" stroke-miterlimit="10" d="M 413.539062 214.8125 C 413.539062 218.070312 410.894531 220.714844 407.636719 220.714844 C 404.375 220.714844 401.734375 218.070312 401.734375 214.8125 C 401.734375 211.550781 404.375 208.910156 407.636719 208.910156 C 410.894531 208.910156 413.539062 211.550781 413.539062 214.8125 "/>
<path fill-rule="nonzero" fill="rgb(56.078431%, 16.470588%, 26.27451%)" fill-opacity="1" stroke-width="0.708661" stroke-linecap="round" stroke-linejoin="round" stroke="rgb(56.078431%, 16.470588%, 26.27451%)" stroke-opacity="1" stroke-miterlimit="10" d="M 427.382812 182.738281 C 427.382812 186 424.742188 188.640625 421.480469 188.640625 C 418.222656 188.640625 415.578125 186 415.578125 182.738281 C 415.578125 179.480469 418.222656 176.835938 421.480469 176.835938 C 424.742188 176.835938 427.382812 179.480469 427.382812 182.738281 "/>
<path fill-rule="nonzero" fill="rgb(56.078431%, 16.470588%, 26.27451%)" fill-opacity="1" stroke-width="0.708661" stroke-linecap="round" stroke-linejoin="round" stroke="rgb(56.078431%, 16.470588%, 26.27451%)" stroke-opacity="1" stroke-miterlimit="10" d="M 440.121094 168.078125 C 440.121094 171.335938 437.480469 173.980469 434.21875 173.980469 C 430.960938 173.980469 428.316406 171.335938 428.316406 168.078125 C 428.316406 164.816406 430.960938 162.175781 434.21875 162.175781 C 437.480469 162.175781 440.121094 164.816406 440.121094 168.078125 "/>
<path fill-rule="nonzero" fill="rgb(56.078431%, 16.470588%, 26.27451%)" fill-opacity="1" stroke-width="0.708661" stroke-linecap="round" stroke-linejoin="round" stroke="rgb(56.078431%, 16.470588%, 26.27451%)" stroke-opacity="1" stroke-miterlimit="10" d="M 453.023438 160.847656 C 453.023438 164.105469 450.378906 166.75 447.121094 166.75 C 443.859375 166.75 441.21875 164.105469 441.21875 160.847656 C 441.21875 157.585938 443.859375 154.941406 447.121094 154.941406 C 450.378906 154.941406 453.023438 157.585938 453.023438 160.847656 "/>
<path fill-rule="nonzero" fill="rgb(56.078431%, 16.470588%, 26.27451%)" fill-opacity="1" stroke-width="0.708661" stroke-linecap="round" stroke-linejoin="round" stroke="rgb(56.078431%, 16.470588%, 26.27451%)" stroke-opacity="1" stroke-miterlimit="10" d="M 466.703125 165.199219 C 466.703125 168.457031 464.058594 171.101562 460.800781 171.101562 C 457.539062 171.101562 454.898438 168.457031 454.898438 165.199219 C 454.898438 161.9375 457.539062 159.296875 460.800781 159.296875 C 464.058594 159.296875 466.703125 161.9375 466.703125 165.199219 "/>
<path fill-rule="nonzero" fill="rgb(56.078431%, 16.470588%, 26.27451%)" fill-opacity="1" stroke-width="0.708661" stroke-linecap="round" stroke-linejoin="round" stroke="rgb(56.078431%, 16.470588%, 26.27451%)" stroke-opacity="1" stroke-miterlimit="10" d="M 480.003906 147.429688 C 480.003906 150.6875 477.359375 153.332031 474.101562 153.332031 C 470.839844 153.332031 468.199219 150.6875 468.199219 147.429688 C 468.199219 144.167969 470.839844 141.527344 474.101562 141.527344 C 477.359375 141.527344 480.003906 144.167969 480.003906 147.429688 "/>
<path fill-rule="nonzero" fill="rgb(56.078431%, 16.470588%, 26.27451%)" fill-opacity="1" stroke-width="0.708661" stroke-linecap="round" stroke-linejoin="round" stroke="rgb(56.078431%, 16.470588%, 26.27451%)" stroke-opacity="1" stroke-miterlimit="10" d="M 493.640625 146.03125 C 493.640625 149.289062 491 151.933594 487.738281 151.933594 C 484.476562 151.933594 481.835938 149.289062 481.835938 146.03125 C 481.835938 142.769531 484.476562 140.128906 487.738281 140.128906 C 491 140.128906 493.640625 142.769531 493.640625 146.03125 "/>
<path fill-rule="nonzero" fill="rgb(56.078431%, 16.470588%, 26.27451%)" fill-opacity="1" stroke-width="0.708661" stroke-linecap="round" stroke-linejoin="round" stroke="rgb(56.078431%, 16.470588%, 26.27451%)" stroke-opacity="1" stroke-miterlimit="10" d="M 506.929688 139.226562 C 506.929688 142.484375 504.289062 145.128906 501.027344 145.128906 C 497.769531 145.128906 495.125 142.484375 495.125 139.226562 C 495.125 135.964844 497.769531 133.324219 501.027344 133.324219 C 504.289062 133.324219 506.929688 135.964844 506.929688 139.226562 "/>
<path fill-rule="nonzero" fill="rgb(56.078431%, 16.470588%, 26.27451%)" fill-opacity="1" stroke-width="0.708661" stroke-linecap="round" stroke-linejoin="round" stroke="rgb(56.078431%, 16.470588%, 26.27451%)" stroke-opacity="1" stroke-miterlimit="10" d="M 519.75 130.445312 C 519.75 133.703125 517.109375 136.347656 513.847656 136.347656 C 510.589844 136.347656 507.945312 133.703125 507.945312 130.445312 C 507.945312 127.183594 510.589844 124.542969 513.847656 124.542969 C 517.109375 124.542969 519.75 127.183594 519.75 130.445312 "/>
<path fill-rule="nonzero" fill="rgb(56.078431%, 16.470588%, 26.27451%)" fill-opacity="1" stroke-width="0.708661" stroke-linecap="round" stroke-linejoin="round" stroke="rgb(56.078431%, 16.470588%, 26.27451%)" stroke-opacity="1" stroke-miterlimit="10" d="M 532.941406 129.070312 C 532.941406 132.328125 530.296875 134.972656 527.039062 134.972656 C 523.777344 134.972656 521.136719 132.328125 521.136719 129.070312 C 521.136719 125.808594 523.777344 123.167969 527.039062 123.167969 C 530.296875 123.167969 532.941406 125.808594 532.941406 129.070312 "/>
<path fill-rule="nonzero" fill="rgb(56.078431%, 16.470588%, 26.27451%)" fill-opacity="1" stroke-width="0.708661" stroke-linecap="round" stroke-linejoin="round" stroke="rgb(56.078431%, 16.470588%, 26.27451%)" stroke-opacity="1" stroke-miterlimit="10" d="M 546.773438 122.285156 C 546.773438 125.546875 544.128906 128.1875 540.871094 128.1875 C 537.609375 128.1875 534.96875 125.546875 534.96875 122.285156 C 534.96875 119.027344 537.609375 116.382812 540.871094 116.382812 C 544.128906 116.382812 546.773438 119.027344 546.773438 122.285156 "/>
<path fill-rule="nonzero" fill="rgb(56.078431%, 16.470588%, 26.27451%)" fill-opacity="1" stroke-width="0.708661" stroke-linecap="round" stroke-linejoin="round" stroke="rgb(56.078431%, 16.470588%, 26.27451%)" stroke-opacity="1" stroke-miterlimit="10" d="M 560.140625 113.105469 C 560.140625 116.363281 557.496094 119.007812 554.238281 119.007812 C 550.976562 119.007812 548.335938 116.363281 548.335938 113.105469 C 548.335938 109.84375 550.976562 107.203125 554.238281 107.203125 C 557.496094 107.203125 560.140625 109.84375 560.140625 113.105469 "/>
<path fill-rule="nonzero" fill="rgb(56.078431%, 16.470588%, 26.27451%)" fill-opacity="1" stroke-width="0.708661" stroke-linecap="round" stroke-linejoin="round" stroke="rgb(56.078431%, 16.470588%, 26.27451%)" stroke-opacity="1" stroke-miterlimit="10" d="M 572.554688 117.234375 C 572.554688 120.496094 569.914062 123.136719 566.652344 123.136719 C 563.390625 123.136719 560.75 120.496094 560.75 117.234375 C 560.75 113.972656 563.390625 111.332031 566.652344 111.332031 C 569.914062 111.332031 572.554688 113.972656 572.554688 117.234375 "/>
<path fill-rule="nonzero" fill="rgb(56.078431%, 16.470588%, 26.27451%)" fill-opacity="1" stroke-width="0.708661" stroke-linecap="round" stroke-linejoin="round" stroke="rgb(56.078431%, 16.470588%, 26.27451%)" stroke-opacity="1" stroke-miterlimit="10" d="M 585.128906 99.472656 C 585.128906 102.734375 582.484375 105.375 579.226562 105.375 C 575.964844 105.375 573.324219 102.734375 573.324219 99.472656 C 573.324219 96.214844 575.964844 93.570312 579.226562 93.570312 C 582.484375 93.570312 585.128906 96.214844 585.128906 99.472656 "/>
<path fill-rule="nonzero" fill="rgb(56.078431%, 16.470588%, 26.27451%)" fill-opacity="1" stroke-width="0.708661" stroke-linecap="round" stroke-linejoin="round" stroke="rgb(56.078431%, 16.470588%, 26.27451%)" stroke-opacity="1" stroke-miterlimit="10" d="M 598.914062 87.757812 C 598.914062 91.015625 596.269531 93.660156 593.007812 93.660156 C 589.75 93.660156 587.105469 91.015625 587.105469 87.757812 C 587.105469 84.496094 589.75 81.855469 593.007812 81.855469 C 596.269531 81.855469 598.914062 84.496094 598.914062 87.757812 "/>
<path fill-rule="nonzero" fill="rgb(56.078431%, 16.470588%, 26.27451%)" fill-opacity="1" stroke-width="0.708661" stroke-linecap="round" stroke-linejoin="round" stroke="rgb(56.078431%, 16.470588%, 26.27451%)" stroke-opacity="1" stroke-miterlimit="10" d="M 612.269531 86.550781 C 612.269531 89.808594 609.628906 92.453125 606.367188 92.453125 C 603.109375 92.453125 600.464844 89.808594 600.464844 86.550781 C 600.464844 83.289062 603.109375 80.648438 606.367188 80.648438 C 609.628906 80.648438 612.269531 83.289062 612.269531 86.550781 "/>
<path fill-rule="nonzero" fill="rgb(56.078431%, 16.470588%, 26.27451%)" fill-opacity="1" stroke-width="0.708661" stroke-linecap="round" stroke-linejoin="round" stroke="rgb(56.078431%, 16.470588%, 26.27451%)" stroke-opacity="1" stroke-miterlimit="10" d="M 626.503906 76.09375 C 626.503906 79.355469 623.863281 82 620.601562 82 C 617.34375 82 614.699219 79.355469 614.699219 76.09375 C 614.699219 72.835938 617.34375 70.191406 620.601562 70.191406 C 623.863281 70.191406 626.503906 72.835938 626.503906 76.09375 "/>
<path fill-rule="nonzero" fill="rgb(56.078431%, 16.470588%, 26.27451%)" fill-opacity="1" stroke-width="0.708661" stroke-linecap="round" stroke-linejoin="round" stroke="rgb(56.078431%, 16.470588%, 26.27451%)" stroke-opacity="1" stroke-miterlimit="10" d="M 639.34375 85.363281 C 639.34375 88.625 636.703125 91.269531 633.441406 91.269531 C 630.179688 91.269531 627.539062 88.625 627.539062 85.363281 C 627.539062 82.105469 630.179688 79.460938 633.441406 79.460938 C 636.703125 79.460938 639.34375 82.105469 639.34375 85.363281 "/>
<path fill-rule="nonzero" fill="rgb(56.078431%, 16.470588%, 26.27451%)" fill-opacity="1" stroke-width="0.708661" stroke-linecap="round" stroke-linejoin="round" stroke="rgb(56.078431%, 16.470588%, 26.27451%)" stroke-opacity="1" stroke-miterlimit="10" d="M 652.679688 55.710938 C 652.679688 58.96875 650.035156 61.613281 646.777344 61.613281 C 643.515625 61.613281 640.875 58.96875 640.875 55.710938 C 640.875 52.449219 643.515625 49.808594 646.777344 49.808594 C 650.035156 49.808594 652.679688 52.449219 652.679688 55.710938 "/>
<path fill-rule="nonzero" fill="rgb(56.078431%, 16.470588%, 26.27451%)" fill-opacity="1" stroke-width="0.708661" stroke-linecap="round" stroke-linejoin="round" stroke="rgb(56.078431%, 16.470588%, 26.27451%)" stroke-opacity="1" stroke-miterlimit="10" d="M 665.167969 65.175781 C 665.167969 68.433594 662.527344 71.078125 659.265625 71.078125 C 656.003906 71.078125 653.363281 68.433594 653.363281 65.175781 C 653.363281 61.914062 656.003906 59.273438 659.265625 59.273438 C 662.527344 59.273438 665.167969 61.914062 665.167969 65.175781 "/>
<path fill-rule="nonzero" fill="rgb(56.078431%, 16.470588%, 26.27451%)" fill-opacity="1" stroke-width="0.708661" stroke-linecap="round" stroke-linejoin="round" stroke="rgb(56.078431%, 16.470588%, 26.27451%)" stroke-opacity="1" stroke-miterlimit="10" d="M 678.792969 64.707031 C 678.792969 67.964844 676.148438 70.609375 672.890625 70.609375 C 669.628906 70.609375 666.988281 67.964844 666.988281 64.707031 C 666.988281 61.445312 669.628906 58.804688 672.890625 58.804688 C 676.148438 58.804688 678.792969 61.445312 678.792969 64.707031 "/>
<path fill-rule="nonzero" fill="rgb(56.078431%, 16.470588%, 26.27451%)" fill-opacity="1" stroke-width="0.708661" stroke-linecap="round" stroke-linejoin="round" stroke="rgb(56.078431%, 16.470588%, 26.27451%)" stroke-opacity="1" stroke-miterlimit="10" d="M 692.128906 64.609375 C 692.128906 67.871094 689.488281 70.511719 686.226562 70.511719 C 682.96875 70.511719 680.324219 67.871094 680.324219 64.609375 C 680.324219 61.351562 682.96875 58.707031 686.226562 58.707031 C 689.488281 58.707031 692.128906 61.351562 692.128906 64.609375 "/>
<path fill-rule="nonzero" fill="rgb(56.078431%, 16.470588%, 26.27451%)" fill-opacity="1" stroke-width="0.708661" stroke-linecap="round" stroke-linejoin="round" stroke="rgb(56.078431%, 16.470588%, 26.27451%)" stroke-opacity="1" stroke-miterlimit="10" d="M 705.644531 49.738281 C 705.644531 53 703.003906 55.640625 699.742188 55.640625 C 696.484375 55.640625 693.839844 53 693.839844 49.738281 C 693.839844 46.480469 696.484375 43.835938 699.742188 43.835938 C 703.003906 43.835938 705.644531 46.480469 705.644531 49.738281 "/>
<path fill-rule="nonzero" fill="rgb(56.078431%, 16.470588%, 26.27451%)" fill-opacity="1" stroke-width="0.708661" stroke-linecap="round" stroke-linejoin="round" stroke="rgb(56.078431%, 16.470588%, 26.27451%)" stroke-opacity="1" stroke-miterlimit="10" d="M 718.015625 57.925781 C 718.015625 61.183594 715.375 63.828125 712.113281 63.828125 C 708.855469 63.828125 706.210938 61.183594 706.210938 57.925781 C 706.210938 54.664062 708.855469 52.023438 712.113281 52.023438 C 715.375 52.023438 718.015625 54.664062 718.015625 57.925781 "/>
<path fill-rule="nonzero" fill="rgb(56.078431%, 16.470588%, 26.27451%)" fill-opacity="1" stroke-width="0.708661" stroke-linecap="round" stroke-linejoin="round" stroke="rgb(56.078431%, 16.470588%, 26.27451%)" stroke-opacity="1" stroke-miterlimit="10" d="M 731.199219 33.316406 C 731.199219 36.578125 728.558594 39.21875 725.296875 39.21875 C 722.039062 39.21875 719.394531 36.578125 719.394531 33.316406 C 719.394531 30.058594 722.039062 27.414062 725.296875 27.414062 C 728.558594 27.414062 731.199219 30.058594 731.199219 33.316406 "/>
<path fill-rule="nonzero" fill="rgb(56.078431%, 16.470588%, 26.27451%)" fill-opacity="1" stroke-width="0.708661" stroke-linecap="round" stroke-linejoin="round" stroke="rgb(56.078431%, 16.470588%, 26.27451%)" stroke-opacity="1" stroke-miterlimit="10" d="M 751.378906 45.230469 C 751.378906 48.488281 748.738281 51.132812 745.476562 51.132812 C 742.21875 51.132812 739.574219 48.488281 739.574219 45.230469 C 739.574219 41.96875 742.21875 39.328125 745.476562 39.328125 C 748.738281 39.328125 751.378906 41.96875 751.378906 45.230469 "/>
<g clip-path="url(#clip-9)">
<path fill="none" stroke-width="1.707165" stroke-linecap="butt" stroke-linejoin="round" stroke="rgb(80.784314%, 25.882353%, 34.117647%)" stroke-opacity="1" stroke-dasharray="6.828661 6.828661" stroke-miterlimit="10" d="M 414.710938 395.070312 L 414.710938 13.449219 "/>
</g>
<path fill="none" stroke-width="2.133957" stroke-linecap="butt" stroke-linejoin="round" stroke="rgb(0%, 0%, 0%)" stroke-opacity="1" stroke-miterlimit="10" d="M 84.003906 344.8125 L 88.097656 343.421875 L 96.292969 340.648438 L 100.390625 339.257812 L 104.484375 337.871094 L 108.582031 336.480469 L 112.679688 335.09375 L 116.777344 333.703125 L 120.871094 332.316406 L 124.96875 330.925781 L 129.066406 329.539062 L 133.164062 328.148438 L 137.257812 326.761719 L 141.355469 325.371094 L 145.453125 323.984375 L 149.546875 322.597656 L 153.644531 321.207031 L 157.742188 319.820312 L 161.839844 318.429688 L 165.933594 317.042969 L 170.03125 315.652344 L 174.128906 314.265625 L 178.226562 312.875 L 182.320312 311.488281 L 186.417969 310.097656 L 194.613281 307.324219 L 198.707031 305.933594 L 202.804688 304.546875 L 206.902344 303.15625 L 211 301.769531 L 215.09375 300.378906 L 219.191406 298.992188 L 223.289062 297.601562 L 227.382812 296.214844 L 231.480469 294.824219 L 235.578125 293.4375 L 239.675781 292.046875 L 243.769531 290.660156 L 247.867188 289.273438 L 251.964844 287.882812 L 256.0625 286.496094 L 260.15625 285.105469 L 264.253906 283.71875 L 268.351562 282.328125 L 272.449219 280.941406 L 276.542969 279.550781 L 280.640625 278.164062 L 284.738281 276.773438 L 288.832031 275.386719 L 292.929688 274 L 297.027344 272.609375 L 301.125 271.222656 L 305.21875 269.832031 L 309.316406 268.445312 L 313.414062 267.054688 L 317.511719 265.667969 L 321.605469 264.277344 L 325.703125 262.890625 L 329.800781 261.5 L 333.898438 260.113281 L 337.992188 258.722656 L 346.1875 255.949219 L 350.285156 254.558594 L 354.378906 253.171875 L 358.476562 251.78125 L 362.574219 250.394531 L 366.667969 249.003906 L 370.765625 247.617188 L 374.863281 246.226562 L 378.960938 244.839844 L 383.054688 243.449219 L 391.25 240.675781 L 395.347656 239.285156 L 399.441406 237.898438 L 403.539062 236.507812 L 407.636719 235.121094 "/>
<path fill="none" stroke-width="2.133957" stroke-linecap="butt" stroke-linejoin="round" stroke="rgb(0%, 0%, 0%)" stroke-opacity="1" stroke-miterlimit="10" d="M 421.480469 173.933594 L 425.582031 172.125 L 446.089844 163.0625 L 450.191406 161.253906 L 458.394531 157.628906 L 462.492188 155.816406 L 474.796875 150.378906 L 478.898438 148.570312 L 499.40625 139.507812 L 503.503906 137.699219 L 528.113281 126.824219 L 532.214844 125.015625 L 544.519531 119.578125 L 548.617188 117.765625 L 552.71875 115.953125 L 556.820312 114.144531 L 577.328125 105.082031 L 581.429688 103.273438 L 589.632812 99.648438 L 593.730469 97.835938 L 606.035156 92.398438 L 610.136719 90.589844 L 630.644531 81.527344 L 634.746094 79.71875 L 638.84375 77.90625 L 659.351562 68.84375 L 663.453125 67.035156 L 679.859375 59.785156 L 683.957031 57.972656 L 688.058594 56.164062 L 708.566406 47.101562 L 712.667969 45.292969 L 724.972656 39.855469 L 729.070312 38.042969 L 737.273438 34.417969 L 741.375 32.609375 L 745.476562 30.796875 "/>
<path fill="none" stroke-width="4.9081" stroke-linecap="butt" stroke-linejoin="round" stroke="rgb(0%, 0%, 0%)" stroke-opacity="1" stroke-miterlimit="10" d="M 414.710938 236.660156 L 414.710938 176.183594 "/>
<path fill="none" stroke-width="4.9081" stroke-linecap="butt" stroke-linejoin="round" stroke="rgb(0%, 0%, 0%)" stroke-opacity="1" stroke-miterlimit="10" d="M 414.710938 236.660156 L 414.710938 176.183594 "/>
<path fill="none" stroke-width="4.9081" stroke-linecap="butt" stroke-linejoin="round" stroke="rgb(0%, 0%, 0%)" stroke-opacity="1" stroke-miterlimit="10" d="M 414.710938 236.660156 L 414.710938 176.183594 "/>
<path fill="none" stroke-width="4.9081" stroke-linecap="butt" stroke-linejoin="round" stroke="rgb(0%, 0%, 0%)" stroke-opacity="1" stroke-miterlimit="10" d="M 414.710938 236.660156 L 414.710938 176.183594 "/>
<path fill="none" stroke-width="4.9081" stroke-linecap="butt" stroke-linejoin="round" stroke="rgb(0%, 0%, 0%)" stroke-opacity="1" stroke-miterlimit="10" d="M 414.710938 236.660156 L 414.710938 176.183594 "/>
<path fill="none" stroke-width="4.9081" stroke-linecap="butt" stroke-linejoin="round" stroke="rgb(0%, 0%, 0%)" stroke-opacity="1" stroke-miterlimit="10" d="M 414.710938 236.660156 L 414.710938 176.183594 "/>
<path fill="none" stroke-width="4.9081" stroke-linecap="butt" stroke-linejoin="round" stroke="rgb(0%, 0%, 0%)" stroke-opacity="1" stroke-miterlimit="10" d="M 414.710938 236.660156 L 414.710938 176.183594 "/>
<path fill="none" stroke-width="4.9081" stroke-linecap="butt" stroke-linejoin="round" stroke="rgb(0%, 0%, 0%)" stroke-opacity="1" stroke-miterlimit="10" d="M 414.710938 236.660156 L 414.710938 176.183594 "/>
<path fill="none" stroke-width="4.9081" stroke-linecap="butt" stroke-linejoin="round" stroke="rgb(0%, 0%, 0%)" stroke-opacity="1" stroke-miterlimit="10" d="M 414.710938 236.660156 L 414.710938 176.183594 "/>
<path fill="none" stroke-width="4.9081" stroke-linecap="butt" stroke-linejoin="round" stroke="rgb(0%, 0%, 0%)" stroke-opacity="1" stroke-miterlimit="10" d="M 414.710938 236.660156 L 414.710938 176.183594 "/>
<path fill="none" stroke-width="4.9081" stroke-linecap="butt" stroke-linejoin="round" stroke="rgb(0%, 0%, 0%)" stroke-opacity="1" stroke-miterlimit="10" d="M 414.710938 236.660156 L 414.710938 176.183594 "/>
<path fill="none" stroke-width="4.9081" stroke-linecap="butt" stroke-linejoin="round" stroke="rgb(0%, 0%, 0%)" stroke-opacity="1" stroke-miterlimit="10" d="M 414.710938 236.660156 L 414.710938 176.183594 "/>
<path fill="none" stroke-width="4.9081" stroke-linecap="butt" stroke-linejoin="round" stroke="rgb(0%, 0%, 0%)" stroke-opacity="1" stroke-miterlimit="10" d="M 414.710938 236.660156 L 414.710938 176.183594 "/>
<path fill="none" stroke-width="4.9081" stroke-linecap="butt" stroke-linejoin="round" stroke="rgb(0%, 0%, 0%)" stroke-opacity="1" stroke-miterlimit="10" d="M 414.710938 236.660156 L 414.710938 176.183594 "/>
<path fill="none" stroke-width="4.9081" stroke-linecap="butt" stroke-linejoin="round" stroke="rgb(0%, 0%, 0%)" stroke-opacity="1" stroke-miterlimit="10" d="M 414.710938 236.660156 L 414.710938 176.183594 "/>
<path fill="none" stroke-width="4.9081" stroke-linecap="butt" stroke-linejoin="round" stroke="rgb(0%, 0%, 0%)" stroke-opacity="1" stroke-miterlimit="10" d="M 414.710938 236.660156 L 414.710938 176.183594 "/>
<path fill="none" stroke-width="4.9081" stroke-linecap="butt" stroke-linejoin="round" stroke="rgb(0%, 0%, 0%)" stroke-opacity="1" stroke-miterlimit="10" d="M 414.710938 236.660156 L 414.710938 176.183594 "/>
<path fill="none" stroke-width="4.9081" stroke-linecap="butt" stroke-linejoin="round" stroke="rgb(0%, 0%, 0%)" stroke-opacity="1" stroke-miterlimit="10" d="M 414.710938 236.660156 L 414.710938 176.183594 "/>
<path fill="none" stroke-width="4.9081" stroke-linecap="butt" stroke-linejoin="round" stroke="rgb(0%, 0%, 0%)" stroke-opacity="1" stroke-miterlimit="10" d="M 414.710938 236.660156 L 414.710938 176.183594 "/>
<path fill="none" stroke-width="4.9081" stroke-linecap="butt" stroke-linejoin="round" stroke="rgb(0%, 0%, 0%)" stroke-opacity="1" stroke-miterlimit="10" d="M 414.710938 236.660156 L 414.710938 176.183594 "/>
<path fill="none" stroke-width="4.9081" stroke-linecap="butt" stroke-linejoin="round" stroke="rgb(0%, 0%, 0%)" stroke-opacity="1" stroke-miterlimit="10" d="M 414.710938 236.660156 L 414.710938 176.183594 "/>
<path fill="none" stroke-width="4.9081" stroke-linecap="butt" stroke-linejoin="round" stroke="rgb(0%, 0%, 0%)" stroke-opacity="1" stroke-miterlimit="10" d="M 414.710938 236.660156 L 414.710938 176.183594 "/>
<path fill="none" stroke-width="4.9081" stroke-linecap="butt" stroke-linejoin="round" stroke="rgb(0%, 0%, 0%)" stroke-opacity="1" stroke-miterlimit="10" d="M 414.710938 236.660156 L 414.710938 176.183594 "/>
<path fill="none" stroke-width="4.9081" stroke-linecap="butt" stroke-linejoin="round" stroke="rgb(0%, 0%, 0%)" stroke-opacity="1" stroke-miterlimit="10" d="M 414.710938 236.660156 L 414.710938 176.183594 "/>
<path fill="none" stroke-width="4.9081" stroke-linecap="butt" stroke-linejoin="round" stroke="rgb(0%, 0%, 0%)" stroke-opacity="1" stroke-miterlimit="10" d="M 414.710938 236.660156 L 414.710938 176.183594 "/>
<path fill="none" stroke-width="4.9081" stroke-linecap="butt" stroke-linejoin="round" stroke="rgb(0%, 0%, 0%)" stroke-opacity="1" stroke-miterlimit="10" d="M 414.710938 236.660156 L 414.710938 176.183594 "/>
<path fill="none" stroke-width="4.9081" stroke-linecap="butt" stroke-linejoin="round" stroke="rgb(0%, 0%, 0%)" stroke-opacity="1" stroke-miterlimit="10" d="M 414.710938 236.660156 L 414.710938 176.183594 "/>
<path fill="none" stroke-width="4.9081" stroke-linecap="butt" stroke-linejoin="round" stroke="rgb(0%, 0%, 0%)" stroke-opacity="1" stroke-miterlimit="10" d="M 414.710938 236.660156 L 414.710938 176.183594 "/>
<path fill="none" stroke-width="4.9081" stroke-linecap="butt" stroke-linejoin="round" stroke="rgb(0%, 0%, 0%)" stroke-opacity="1" stroke-miterlimit="10" d="M 414.710938 236.660156 L 414.710938 176.183594 "/>
<path fill="none" stroke-width="4.9081" stroke-linecap="butt" stroke-linejoin="round" stroke="rgb(0%, 0%, 0%)" stroke-opacity="1" stroke-miterlimit="10" d="M 414.710938 236.660156 L 414.710938 176.183594 "/>
<path fill="none" stroke-width="4.9081" stroke-linecap="butt" stroke-linejoin="round" stroke="rgb(0%, 0%, 0%)" stroke-opacity="1" stroke-miterlimit="10" d="M 414.710938 236.660156 L 414.710938 176.183594 "/>
<path fill="none" stroke-width="4.9081" stroke-linecap="butt" stroke-linejoin="round" stroke="rgb(0%, 0%, 0%)" stroke-opacity="1" stroke-miterlimit="10" d="M 414.710938 236.660156 L 414.710938 176.183594 "/>
<path fill="none" stroke-width="4.9081" stroke-linecap="butt" stroke-linejoin="round" stroke="rgb(0%, 0%, 0%)" stroke-opacity="1" stroke-miterlimit="10" d="M 414.710938 236.660156 L 414.710938 176.183594 "/>
<path fill="none" stroke-width="4.9081" stroke-linecap="butt" stroke-linejoin="round" stroke="rgb(0%, 0%, 0%)" stroke-opacity="1" stroke-miterlimit="10" d="M 414.710938 236.660156 L 414.710938 176.183594 "/>
<path fill="none" stroke-width="4.9081" stroke-linecap="butt" stroke-linejoin="round" stroke="rgb(0%, 0%, 0%)" stroke-opacity="1" stroke-miterlimit="10" d="M 414.710938 236.660156 L 414.710938 176.183594 "/>
<path fill="none" stroke-width="4.9081" stroke-linecap="butt" stroke-linejoin="round" stroke="rgb(0%, 0%, 0%)" stroke-opacity="1" stroke-miterlimit="10" d="M 414.710938 236.660156 L 414.710938 176.183594 "/>
<path fill="none" stroke-width="4.9081" stroke-linecap="butt" stroke-linejoin="round" stroke="rgb(0%, 0%, 0%)" stroke-opacity="1" stroke-miterlimit="10" d="M 414.710938 236.660156 L 414.710938 176.183594 "/>
<path fill="none" stroke-width="4.9081" stroke-linecap="butt" stroke-linejoin="round" stroke="rgb(0%, 0%, 0%)" stroke-opacity="1" stroke-miterlimit="10" d="M 414.710938 236.660156 L 414.710938 176.183594 "/>
<path fill="none" stroke-width="4.9081" stroke-linecap="butt" stroke-linejoin="round" stroke="rgb(0%, 0%, 0%)" stroke-opacity="1" stroke-miterlimit="10" d="M 414.710938 236.660156 L 414.710938 176.183594 "/>
<path fill="none" stroke-width="4.9081" stroke-linecap="butt" stroke-linejoin="round" stroke="rgb(0%, 0%, 0%)" stroke-opacity="1" stroke-miterlimit="10" d="M 414.710938 236.660156 L 414.710938 176.183594 "/>
<path fill="none" stroke-width="4.9081" stroke-linecap="butt" stroke-linejoin="round" stroke="rgb(0%, 0%, 0%)" stroke-opacity="1" stroke-miterlimit="10" d="M 414.710938 236.660156 L 414.710938 176.183594 "/>
<path fill="none" stroke-width="4.9081" stroke-linecap="butt" stroke-linejoin="round" stroke="rgb(0%, 0%, 0%)" stroke-opacity="1" stroke-miterlimit="10" d="M 414.710938 236.660156 L 414.710938 176.183594 "/>
<path fill="none" stroke-width="4.9081" stroke-linecap="butt" stroke-linejoin="round" stroke="rgb(0%, 0%, 0%)" stroke-opacity="1" stroke-miterlimit="10" d="M 414.710938 236.660156 L 414.710938 176.183594 "/>
<path fill="none" stroke-width="4.9081" stroke-linecap="butt" stroke-linejoin="round" stroke="rgb(0%, 0%, 0%)" stroke-opacity="1" stroke-miterlimit="10" d="M 414.710938 236.660156 L 414.710938 176.183594 "/>
<path fill="none" stroke-width="4.9081" stroke-linecap="butt" stroke-linejoin="round" stroke="rgb(0%, 0%, 0%)" stroke-opacity="1" stroke-miterlimit="10" d="M 414.710938 236.660156 L 414.710938 176.183594 "/>
<path fill="none" stroke-width="4.9081" stroke-linecap="butt" stroke-linejoin="round" stroke="rgb(0%, 0%, 0%)" stroke-opacity="1" stroke-miterlimit="10" d="M 414.710938 236.660156 L 414.710938 176.183594 "/>
<path fill="none" stroke-width="4.9081" stroke-linecap="butt" stroke-linejoin="round" stroke="rgb(0%, 0%, 0%)" stroke-opacity="1" stroke-miterlimit="10" d="M 414.710938 236.660156 L 414.710938 176.183594 "/>
<path fill="none" stroke-width="4.9081" stroke-linecap="butt" stroke-linejoin="round" stroke="rgb(0%, 0%, 0%)" stroke-opacity="1" stroke-miterlimit="10" d="M 414.710938 236.660156 L 414.710938 176.183594 "/>
<path fill="none" stroke-width="4.9081" stroke-linecap="butt" stroke-linejoin="round" stroke="rgb(0%, 0%, 0%)" stroke-opacity="1" stroke-miterlimit="10" d="M 414.710938 236.660156 L 414.710938 176.183594 "/>
<path fill="none" stroke-width="4.9081" stroke-linecap="butt" stroke-linejoin="round" stroke="rgb(0%, 0%, 0%)" stroke-opacity="1" stroke-miterlimit="10" d="M 414.710938 236.660156 L 414.710938 176.183594 "/>
<path fill-rule="nonzero" fill="rgb(0%, 0%, 0%)" fill-opacity="1" d="M 390.886719 426.636719 L 390.5 426.628906 L 390.125 426.605469 L 389.757812 426.570312 L 389.398438 426.515625 L 389.050781 426.449219 L 388.707031 426.367188 L 388.375 426.265625 L 388.050781 426.152344 L 387.734375 426.023438 L 387.429688 425.882812 L 387.132812 425.726562 L 386.84375 425.5625 L 386.5625 425.390625 L 386.292969 425.210938 L 386.03125 425.023438 L 385.78125 424.828125 L 385.539062 424.625 L 385.304688 424.414062 L 385.078125 424.191406 L 384.863281 423.964844 L 385.675781 423.101562 L 385.871094 423.3125 L 386.078125 423.515625 L 386.292969 423.710938 L 386.511719 423.898438 L 386.742188 424.078125 L 386.976562 424.25 L 387.21875 424.414062 L 387.472656 424.570312 L 387.730469 424.714844 L 387.996094 424.855469 L 388.269531 424.980469 L 388.542969 425.089844 L 388.824219 425.1875 L 389.105469 425.269531 L 389.394531 425.339844 L 389.683594 425.398438 L 389.980469 425.445312 L 390.277344 425.476562 L 390.578125 425.496094 L 390.886719 425.503906 L 391.285156 425.492188 L 391.671875 425.464844 L 392.039062 425.414062 L 392.386719 425.34375 L 392.722656 425.253906 L 393.035156 425.144531 L 393.335938 425.015625 L 393.617188 424.863281 L 393.878906 424.695312 L 394.125 424.503906 L 394.351562 424.300781 L 394.554688 424.082031 L 394.730469 423.855469 L 394.886719 423.613281 L 395.015625 423.363281 L 395.125 423.101562 L 395.207031 422.828125 L 395.265625 422.542969 L 395.300781 422.246094 L 395.3125 421.9375 L 395.308594 421.722656 L 395.296875 421.515625 L 395.273438 421.3125 L 395.246094 421.121094 L 395.207031 420.941406 L 395.15625 420.765625 L 395.101562 420.601562 L 395.035156 420.445312 L 394.964844 420.296875 L 394.882812 420.15625 L 394.792969 420.023438 L 394.695312 419.898438 L 394.59375 419.773438 L 394.488281 419.65625 L 394.375 419.542969 L 394.257812 419.433594 L 394.132812 419.332031 L 394 419.234375 L 393.863281 419.140625 L 393.71875 419.050781 L 393.578125 418.960938 L 393.433594 418.871094 L 393.28125 418.78125 L 393.128906 418.695312 L 392.972656 418.613281 L 392.808594 418.527344 L 392.644531 418.449219 L 392.476562 418.367188 L 392.304688 418.289062 L 392.128906 418.214844 L 389.425781 417 L 389.121094 416.851562 L 388.964844 416.773438 L 388.804688 416.691406 L 388.644531 416.605469 L 388.480469 416.519531 L 388.316406 416.425781 L 388.148438 416.332031 L 387.980469 416.234375 L 387.808594 416.132812 L 387.640625 416.023438 L 387.480469 415.90625 L 387.328125 415.785156 L 387.175781 415.65625 L 387.03125 415.519531 L 386.890625 415.378906 L 386.753906 415.234375 L 386.625 415.082031 L 386.496094 414.921875 L 386.375 414.757812 L 386.269531 414.578125 L 386.171875 414.394531 L 386.085938 414.199219 L 386.011719 413.992188 L 385.949219 413.777344 L 385.898438 413.554688 L 385.859375 413.324219 L 385.832031 413.082031 L 385.816406 412.832031 L 385.808594 412.570312 L 385.816406 412.316406 L 385.835938 412.066406 L 385.871094 411.820312 L 385.917969 411.585938 L 385.976562 411.355469 L 386.050781 411.132812 L 386.140625 410.914062 L 386.242188 410.703125 L 386.355469 410.5 L 386.484375 410.300781 L 386.625 410.105469 L 386.773438 409.921875 L 386.933594 409.746094 L 387.101562 409.578125 L 387.28125 409.417969 L 387.46875 409.269531 L 387.667969 409.128906 L 387.875 408.996094 L 388.09375 408.875 L 388.320312 408.761719 L 388.5625 408.65625 L 388.808594 408.558594 L 389.058594 408.472656 L 389.316406 408.402344 L 389.582031 408.339844 L 389.851562 408.289062 L 390.128906 408.246094 L 390.410156 408.21875 L 390.699219 408.203125 L 390.992188 408.195312 L 391.308594 408.203125 L 391.617188 408.222656 L 391.921875 408.253906 L 392.214844 408.300781 L 392.503906 408.359375 L 392.789062 408.429688 L 393.066406 408.515625 L 393.335938 408.609375 L 393.597656 408.722656 L 393.855469 408.84375 L 394.105469 408.972656 L 394.34375 409.101562 L 394.574219 409.238281 L 394.796875 409.378906 L 395.007812 409.527344 L 395.210938 409.675781 L 395.40625 409.832031 L 395.59375 409.992188 L 395.769531 410.160156 L 395.933594 410.328125 L 395.230469 411.140625 L 395.074219 410.980469 L 394.910156 410.828125 L 394.738281 410.683594 L 394.5625 410.542969 L 394.382812 410.410156 L 394.195312 410.285156 L 394.003906 410.164062 L 393.808594 410.050781 L 393.605469 409.945312 L 393.394531 409.84375 L 393.183594 409.746094 L 392.964844 409.660156 L 392.738281 409.582031 L 392.507812 409.515625 L 392.269531 409.457031 L 392.027344 409.414062 L 391.777344 409.375 L 391.519531 409.351562 L 391.261719 409.335938 L 390.992188 409.332031 L 390.648438 409.339844 L 390.316406 409.363281 L 390 409.40625 L 389.691406 409.46875 L 389.398438 409.546875 L 389.121094 409.640625 L 388.855469 409.753906 L 388.601562 409.882812 L 388.359375 410.03125 L 388.132812 410.195312 L 387.925781 410.375 L 387.742188 410.5625 L 387.582031 410.765625 L 387.441406 410.980469 L 387.320312 411.207031 L 387.222656 411.445312 L 387.148438 411.695312 L 387.09375 411.957031 L 387.0625 412.230469 L 387.050781 412.515625 L 387.054688 412.71875 L 387.070312 412.910156 L 387.09375 413.097656 L 387.128906 413.277344 L 387.171875 413.449219 L 387.226562 413.613281 L 387.289062 413.769531 L 387.363281 413.917969 L 387.445312 414.058594 L 387.539062 414.191406 L 387.640625 414.316406 L 387.75 414.441406 L 387.863281 414.558594 L 387.976562 414.671875 L 388.097656 414.777344 L 388.347656 414.980469 L 388.613281 415.160156 L 388.753906 415.242188 L 388.898438 415.324219 L 389.039062 415.402344 L 389.183594 415.476562 L 389.324219 415.550781 L 389.597656 415.691406 L 389.734375 415.757812 L 389.867188 415.824219 L 390 415.886719 L 390.128906 415.945312 L 392.828125 417.132812 L 393.027344 417.222656 L 393.222656 417.3125 L 393.414062 417.40625 L 393.601562 417.503906 L 393.789062 417.605469 L 394.148438 417.816406 L 394.324219 417.929688 L 394.496094 418.042969 L 394.664062 418.160156 L 394.835938 418.277344 L 394.996094 418.398438 L 395.152344 418.527344 L 395.300781 418.664062 L 395.441406 418.808594 L 395.574219 418.957031 L 395.703125 419.113281 L 395.824219 419.273438 L 395.9375 419.441406 L 396.042969 419.617188 L 396.144531 419.796875 L 396.238281 419.984375 L 396.316406 420.183594 L 396.386719 420.390625 L 396.449219 420.609375 L 396.496094 420.839844 L 396.535156 421.078125 L 396.5625 421.328125 L 396.578125 421.589844 L 396.582031 421.859375 L 396.574219 422.125 L 396.554688 422.390625 L 396.519531 422.648438 L 396.46875 422.898438 L 396.40625 423.148438 L 396.328125 423.390625 L 396.238281 423.628906 L 396.132812 423.863281 L 396.011719 424.089844 L 395.878906 424.316406 L 395.734375 424.527344 L 395.574219 424.730469 L 395.40625 424.921875 L 395.222656 425.105469 L 395.03125 425.28125 L 394.824219 425.445312 L 394.605469 425.601562 L 394.375 425.75 L 394.136719 425.886719 L 393.882812 426.015625 L 393.625 426.132812 L 393.355469 426.238281 L 393.078125 426.332031 L 392.792969 426.414062 L 392.5 426.480469 L 392.195312 426.539062 L 391.878906 426.582031 L 391.558594 426.613281 L 391.226562 426.632812 Z M 390.886719 426.636719 "/>
<path fill-rule="nonzero" fill="rgb(0%, 0%, 0%)" fill-opacity="1" d="M 404.980469 426.636719 L 404.648438 426.628906 L 404.324219 426.605469 L 404.003906 426.566406 L 403.691406 426.511719 L 403.386719 426.441406 L 403.085938 426.355469 L 402.792969 426.253906 L 402.507812 426.136719 L 402.230469 426.003906 L 401.957031 425.855469 L 401.695312 425.683594 L 401.449219 425.503906 L 401.210938 425.304688 L 400.984375 425.09375 L 400.765625 424.867188 L 400.5625 424.628906 L 400.367188 424.375 L 400.183594 424.109375 L 400.011719 423.828125 L 399.847656 423.53125 L 399.707031 423.21875 L 399.578125 422.894531 L 399.464844 422.554688 L 399.367188 422.207031 L 399.28125 421.84375 L 399.214844 421.472656 L 399.160156 421.085938 L 399.125 420.691406 L 399.101562 420.28125 L 399.09375 419.859375 L 399.101562 419.429688 L 399.125 419.011719 L 399.167969 418.609375 L 399.222656 418.21875 L 399.296875 417.84375 L 399.386719 417.480469 L 399.488281 417.128906 L 399.613281 416.792969 L 399.75 416.46875 L 399.902344 416.160156 L 400.074219 415.859375 L 400.257812 415.574219 L 400.453125 415.304688 L 400.65625 415.050781 L 400.867188 414.8125 L 401.09375 414.585938 L 401.328125 414.378906 L 401.570312 414.183594 L 401.824219 414.003906 L 402.089844 413.839844 L 402.363281 413.683594 L 402.640625 413.546875 L 402.917969 413.425781 L 403.203125 413.320312 L 403.496094 413.230469 L 403.789062 413.160156 L 404.085938 413.101562 L 404.386719 413.0625 L 404.695312 413.039062 L 405.007812 413.03125 L 405.273438 413.035156 L 405.527344 413.050781 L 405.773438 413.074219 L 406.011719 413.105469 L 406.242188 413.152344 L 406.460938 413.203125 L 406.671875 413.265625 L 406.871094 413.339844 L 407.066406 413.421875 L 407.246094 413.515625 L 407.421875 413.613281 L 407.59375 413.714844 L 407.761719 413.820312 L 407.925781 413.925781 L 408.085938 414.035156 L 408.390625 414.261719 L 408.535156 414.378906 L 408.675781 414.5 L 408.8125 414.621094 L 408.109375 415.460938 L 407.984375 415.34375 L 407.859375 415.230469 L 407.726562 415.121094 L 407.59375 415.019531 L 407.457031 414.917969 L 407.316406 414.824219 L 407.175781 414.734375 L 407.03125 414.648438 L 406.882812 414.566406 L 406.734375 414.488281 L 406.582031 414.410156 L 406.425781 414.339844 L 406.265625 414.28125 L 406.097656 414.226562 L 405.929688 414.183594 L 405.757812 414.148438 L 405.582031 414.117188 L 405.402344 414.097656 L 405.21875 414.085938 L 405.035156 414.082031 L 404.769531 414.089844 L 404.515625 414.113281 L 404.261719 414.148438 L 404.015625 414.199219 L 403.769531 414.265625 L 403.53125 414.34375 L 403.300781 414.441406 L 403.070312 414.550781 L 402.847656 414.671875 L 402.628906 414.8125 L 402.425781 414.964844 L 402.226562 415.125 L 402.039062 415.300781 L 401.855469 415.484375 L 401.683594 415.683594 L 401.523438 415.890625 L 401.367188 416.109375 L 401.222656 416.339844 L 401.085938 416.582031 L 400.957031 416.835938 L 400.839844 417.101562 L 400.734375 417.371094 L 400.640625 417.652344 L 400.558594 417.941406 L 400.492188 418.242188 L 400.433594 418.546875 L 400.390625 418.863281 L 400.359375 419.1875 L 400.339844 419.519531 L 400.335938 419.859375 L 400.339844 420.195312 L 400.359375 420.523438 L 400.386719 420.84375 L 400.425781 421.15625 L 400.476562 421.460938 L 400.539062 421.753906 L 400.613281 422.042969 L 400.699219 422.324219 L 400.792969 422.59375 L 400.902344 422.859375 L 401.027344 423.105469 L 401.160156 423.34375 L 401.300781 423.570312 L 401.449219 423.785156 L 401.609375 423.992188 L 401.78125 424.1875 L 401.957031 424.371094 L 402.144531 424.542969 L 402.34375 424.703125 L 402.550781 424.855469 L 402.769531 424.992188 L 402.996094 425.117188 L 403.226562 425.226562 L 403.464844 425.320312 L 403.710938 425.402344 L 403.960938 425.46875 L 404.21875 425.519531 L 404.484375 425.554688 L 404.753906 425.578125 L 405.035156 425.585938 L 405.238281 425.582031 L 405.4375 425.566406 L 405.632812 425.546875 L 405.828125 425.515625 L 406.019531 425.476562 L 406.207031 425.429688 L 406.390625 425.371094 L 406.570312 425.308594 L 406.75 425.234375 L 406.921875 425.152344 L 407.097656 425.058594 L 407.269531 424.964844 L 407.4375 424.863281 L 407.601562 424.761719 L 407.761719 424.660156 L 407.914062 424.554688 L 408.066406 424.445312 L 408.210938 424.332031 L 408.351562 424.21875 L 408.488281 424.097656 L 409.109375 424.9375 L 408.941406 425.078125 L 408.769531 425.21875 L 408.589844 425.351562 L 408.410156 425.480469 L 408.226562 425.605469 L 408.039062 425.722656 L 407.847656 425.839844 L 407.648438 425.949219 L 407.449219 426.050781 L 407.246094 426.152344 L 407.039062 426.242188 L 406.828125 426.328125 L 406.613281 426.398438 L 406.390625 426.460938 L 406.167969 426.515625 L 405.9375 426.558594 L 405.703125 426.59375 L 405.46875 426.617188 L 405.226562 426.632812 Z M 404.980469 426.636719 "/>
<path fill-rule="nonzero" fill="rgb(0%, 0%, 0%)" fill-opacity="1" d="M 417.019531 426.636719 L 416.714844 426.628906 L 416.414062 426.605469 L 416.117188 426.566406 L 415.824219 426.511719 L 415.535156 426.441406 L 415.253906 426.355469 L 414.972656 426.253906 L 414.695312 426.136719 L 414.425781 426.003906 L 414.160156 425.855469 L 413.898438 425.683594 L 413.652344 425.503906 L 413.410156 425.304688 L 413.183594 425.09375 L 412.964844 424.867188 L 412.757812 424.628906 L 412.558594 424.375 L 412.371094 424.109375 L 412.195312 423.828125 L 412.027344 423.53125 L 411.871094 423.21875 L 411.734375 422.894531 L 411.613281 422.554688 L 411.507812 422.207031 L 411.417969 421.84375 L 411.347656 421.472656 L 411.289062 421.085938 L 411.25 420.691406 L 411.222656 420.28125 L 411.214844 419.859375 L 411.222656 419.429688 L 411.25 419.011719 L 411.289062 418.609375 L 411.347656 418.21875 L 411.417969 417.84375 L 411.507812 417.480469 L 411.613281 417.128906 L 411.734375 416.792969 L 411.871094 416.46875 L 412.027344 416.160156 L 412.195312 415.859375 L 412.371094 415.574219 L 412.558594 415.304688 L 412.757812 415.050781 L 412.964844 414.8125 L 413.183594 414.585938 L 413.410156 414.378906 L 413.652344 414.183594 L 413.898438 414.003906 L 414.160156 413.839844 L 414.425781 413.683594 L 414.695312 413.546875 L 414.972656 413.425781 L 415.253906 413.320312 L 415.535156 413.230469 L 415.824219 413.160156 L 416.117188 413.101562 L 416.414062 413.0625 L 416.714844 413.039062 L 417.019531 413.03125 L 417.332031 413.039062 L 417.636719 413.0625 L 417.9375 413.101562 L 418.234375 413.160156 L 418.527344 413.230469 L 418.8125 413.320312 L 419.09375 413.425781 L 419.371094 413.546875 L 419.644531 413.683594 L 419.910156 413.839844 L 420.167969 414.003906 L 420.417969 414.183594 L 420.65625 414.378906 L 420.886719 414.585938 L 421.105469 414.8125 L 421.3125 415.050781 L 421.511719 415.304688 L 421.699219 415.574219 L 421.875 415.859375 L 422.042969 416.160156 L 422.195312 416.46875 L 422.335938 416.792969 L 422.457031 417.128906 L 422.5625 417.480469 L 422.652344 417.84375 L 422.722656 418.21875 L 422.78125 418.609375 L 422.820312 419.011719 L 422.84375 419.429688 L 422.851562 419.859375 L 422.84375 420.28125 L 422.820312 420.691406 L 422.78125 421.085938 L 422.722656 421.472656 L 422.652344 421.84375 L 422.5625 422.207031 L 422.457031 422.554688 L 422.335938 422.894531 L 422.195312 423.21875 L 422.042969 423.53125 L 421.875 423.828125 L 421.699219 424.109375 L 421.511719 424.375 L 421.3125 424.628906 L 421.105469 424.867188 L 420.886719 425.09375 L 420.65625 425.304688 L 420.417969 425.503906 L 420.167969 425.683594 L 419.910156 425.855469 L 419.644531 426.003906 L 419.371094 426.136719 L 419.09375 426.253906 L 418.8125 426.355469 L 418.527344 426.441406 L 418.234375 426.511719 L 417.9375 426.566406 L 417.636719 426.605469 L 417.332031 426.628906 Z M 417.019531 425.585938 L 417.28125 425.578125 L 417.539062 425.554688 L 417.789062 425.519531 L 418.03125 425.46875 L 418.269531 425.402344 L 418.503906 425.320312 L 418.726562 425.226562 L 418.949219 425.117188 L 419.164062 424.992188 L 419.371094 424.855469 L 419.570312 424.703125 L 419.761719 424.542969 L 419.945312 424.371094 L 420.121094 424.1875 L 420.289062 423.992188 L 420.445312 423.785156 L 420.59375 423.570312 L 420.734375 423.34375 L 420.867188 423.105469 L 420.992188 422.859375 L 421.109375 422.59375 L 421.214844 422.324219 L 421.308594 422.042969 L 421.386719 421.753906 L 421.457031 421.460938 L 421.511719 421.15625 L 421.554688 420.84375 L 421.585938 420.523438 L 421.605469 420.195312 L 421.609375 419.859375 L 421.605469 419.519531 L 421.585938 419.1875 L 421.554688 418.863281 L 421.511719 418.546875 L 421.457031 418.242188 L 421.386719 417.941406 L 421.308594 417.652344 L 421.214844 417.371094 L 421.109375 417.101562 L 420.992188 416.835938 L 420.867188 416.582031 L 420.734375 416.339844 L 420.59375 416.109375 L 420.445312 415.890625 L 420.289062 415.683594 L 420.121094 415.484375 L 419.945312 415.300781 L 419.761719 415.125 L 419.570312 414.964844 L 419.371094 414.8125 L 419.164062 414.671875 L 418.949219 414.550781 L 418.726562 414.441406 L 418.503906 414.34375 L 418.269531 414.265625 L 418.03125 414.199219 L 417.789062 414.148438 L 417.539062 414.113281 L 417.28125 414.089844 L 417.019531 414.082031 L 416.765625 414.089844 L 416.511719 414.113281 L 416.265625 414.148438 L 416.023438 414.199219 L 415.785156 414.265625 L 415.554688 414.34375 L 415.324219 414.441406 L 415.101562 414.550781 L 414.886719 414.671875 L 414.671875 414.8125 L 414.472656 414.964844 L 414.277344 415.125 L 414.09375 415.300781 L 413.921875 415.484375 L 413.753906 415.683594 L 413.597656 415.890625 L 413.449219 416.109375 L 413.308594 416.339844 L 413.175781 416.582031 L 413.050781 416.835938 L 412.9375 417.101562 L 412.839844 417.371094 L 412.75 417.652344 L 412.671875 417.941406 L 412.605469 418.242188 L 412.554688 418.546875 L 412.511719 418.863281 L 412.480469 419.1875 L 412.464844 419.519531 L 412.457031 419.859375 L 412.464844 420.195312 L 412.480469 420.523438 L 412.511719 420.84375 L 412.554688 421.15625 L 412.605469 421.460938 L 412.671875 421.753906 L 412.75 422.042969 L 412.839844 422.324219 L 412.9375 422.59375 L 413.050781 422.859375 L 413.175781 423.105469 L 413.308594 423.34375 L 413.449219 423.570312 L 413.597656 423.785156 L 413.753906 423.992188 L 413.921875 424.1875 L 414.09375 424.371094 L 414.277344 424.542969 L 414.472656 424.703125 L 414.671875 424.855469 L 414.886719 424.992188 L 415.101562 425.117188 L 415.324219 425.226562 L 415.554688 425.320312 L 415.785156 425.402344 L 416.023438 425.46875 L 416.265625 425.519531 L 416.511719 425.554688 L 416.765625 425.578125 Z M 417.019531 425.585938 "/>
<path fill-rule="nonzero" fill="rgb(0%, 0%, 0%)" fill-opacity="1" d="M 426.742188 426.3125 L 426.742188 413.351562 L 427.765625 413.351562 L 427.875 415.757812 L 427.957031 415.757812 L 428.089844 415.523438 L 428.226562 415.296875 L 428.371094 415.082031 L 428.519531 414.875 L 428.671875 414.675781 L 428.832031 414.488281 L 428.996094 414.304688 L 429.164062 414.132812 L 429.339844 413.96875 L 429.523438 413.8125 L 429.714844 413.664062 L 429.910156 413.53125 L 430.109375 413.414062 L 430.3125 413.3125 L 430.519531 413.226562 L 430.734375 413.15625 L 430.949219 413.101562 L 431.171875 413.0625 L 431.398438 413.039062 L 431.628906 413.03125 L 431.777344 413.03125 L 431.917969 413.039062 L 431.984375 413.042969 L 432.050781 413.050781 L 432.117188 413.054688 L 432.179688 413.0625 L 432.242188 413.074219 L 432.304688 413.082031 L 432.363281 413.09375 L 432.421875 413.109375 L 432.484375 413.125 L 432.546875 413.144531 L 432.605469 413.164062 L 432.730469 413.210938 L 432.796875 413.238281 L 432.859375 413.269531 L 432.925781 413.300781 L 432.652344 414.378906 L 432.589844 414.355469 L 432.527344 414.328125 L 432.46875 414.308594 L 432.40625 414.289062 L 432.351562 414.269531 L 432.292969 414.257812 L 432.242188 414.242188 L 432.1875 414.234375 L 432.136719 414.222656 L 432.085938 414.21875 L 432.039062 414.207031 L 431.929688 414.191406 L 431.871094 414.183594 L 431.808594 414.175781 L 431.746094 414.171875 L 431.613281 414.164062 L 431.464844 414.164062 L 431.292969 414.171875 L 431.117188 414.195312 L 430.9375 414.230469 L 430.757812 414.285156 L 430.574219 414.351562 L 430.390625 414.4375 L 430.203125 414.535156 L 430.015625 414.648438 L 429.824219 414.777344 L 429.628906 414.917969 L 429.441406 415.078125 L 429.261719 415.253906 L 429.082031 415.457031 L 428.90625 415.679688 L 428.734375 415.925781 L 428.5625 416.191406 L 428.398438 416.484375 L 428.238281 416.792969 L 428.082031 417.128906 L 427.929688 417.484375 L 427.929688 426.3125 Z M 426.742188 426.3125 "/>
<path fill-rule="nonzero" fill="rgb(0%, 0%, 0%)" fill-opacity="1" d="M 440.214844 426.636719 L 439.886719 426.628906 L 439.566406 426.605469 L 439.25 426.566406 L 438.941406 426.507812 L 438.636719 426.433594 L 438.335938 426.347656 L 438.039062 426.242188 L 437.75 426.117188 L 437.46875 425.980469 L 437.191406 425.828125 L 436.925781 425.660156 L 436.671875 425.476562 L 436.429688 425.277344 L 436.195312 425.066406 L 435.976562 424.84375 L 435.765625 424.601562 L 435.566406 424.347656 L 435.375 424.082031 L 435.199219 423.800781 L 435.03125 423.503906 L 434.875 423.191406 L 434.738281 422.867188 L 434.617188 422.53125 L 434.511719 422.183594 L 434.421875 421.824219 L 434.351562 421.453125 L 434.292969 421.074219 L 434.253906 420.679688 L 434.226562 420.277344 L 434.21875 419.859375 L 434.226562 419.441406 L 434.253906 419.03125 L 434.292969 418.636719 L 434.351562 418.253906 L 434.421875 417.882812 L 434.511719 417.523438 L 434.617188 417.179688 L 434.738281 416.84375 L 434.875 416.523438 L 435.03125 416.214844 L 435.195312 415.914062 L 435.375 415.628906 L 435.558594 415.359375 L 435.757812 415.101562 L 435.960938 414.859375 L 436.175781 414.632812 L 436.402344 414.417969 L 436.636719 414.21875 L 436.882812 414.035156 L 437.136719 413.867188 L 437.398438 413.707031 L 437.660156 413.566406 L 437.925781 413.441406 L 438.195312 413.332031 L 438.464844 413.238281 L 438.738281 413.164062 L 439.015625 413.105469 L 439.296875 413.0625 L 439.578125 413.039062 L 439.863281 413.03125 L 440.316406 413.046875 L 440.753906 413.09375 L 441.167969 413.171875 L 441.5625 413.28125 L 441.933594 413.421875 L 442.289062 413.59375 L 442.625 413.796875 L 442.9375 414.03125 L 443.234375 414.296875 L 443.507812 414.59375 L 443.757812 414.921875 L 443.984375 415.273438 L 444.183594 415.652344 L 444.355469 416.054688 L 444.5 416.484375 L 444.621094 416.941406 L 444.710938 417.421875 L 444.777344 417.929688 L 444.816406 418.464844 L 444.832031 419.023438 L 444.832031 419.121094 L 444.828125 419.167969 L 444.828125 419.21875 L 444.824219 419.265625 L 444.820312 419.316406 L 444.816406 419.363281 L 444.8125 419.414062 L 444.804688 419.507812 L 444.804688 419.558594 L 444.800781 419.605469 L 444.800781 419.65625 L 444.796875 419.703125 L 444.789062 419.753906 L 444.785156 419.800781 L 444.777344 419.851562 L 444.761719 419.945312 L 444.75 419.996094 L 435.433594 419.996094 L 435.445312 420.316406 L 435.46875 420.628906 L 435.503906 420.9375 L 435.546875 421.234375 L 435.605469 421.527344 L 435.671875 421.8125 L 435.75 422.089844 L 435.839844 422.363281 L 435.941406 422.628906 L 436.054688 422.882812 L 436.183594 423.132812 L 436.324219 423.371094 L 436.46875 423.597656 L 436.625 423.8125 L 436.792969 424.019531 L 436.964844 424.210938 L 437.152344 424.394531 L 437.34375 424.570312 L 437.546875 424.730469 L 437.757812 424.882812 L 437.980469 425.019531 L 438.214844 425.144531 L 438.453125 425.253906 L 438.699219 425.347656 L 438.953125 425.429688 L 439.210938 425.496094 L 439.480469 425.546875 L 439.753906 425.582031 L 440.035156 425.605469 L 440.324219 425.613281 L 440.53125 425.609375 L 440.734375 425.597656 L 440.933594 425.582031 L 441.128906 425.558594 L 441.320312 425.53125 L 441.507812 425.496094 L 441.691406 425.453125 L 441.867188 425.402344 L 442.042969 425.347656 L 442.210938 425.289062 L 442.382812 425.222656 L 442.71875 425.074219 L 442.882812 424.996094 L 443.042969 424.917969 L 443.199219 424.832031 L 443.355469 424.742188 L 443.507812 424.648438 L 443.65625 424.550781 L 443.804688 424.449219 L 444.292969 425.367188 L 444.136719 425.460938 L 443.980469 425.550781 L 443.820312 425.640625 L 443.65625 425.726562 L 443.488281 425.8125 L 443.316406 425.898438 L 443.140625 425.984375 L 442.960938 426.066406 L 442.777344 426.152344 L 442.589844 426.234375 L 442.394531 426.308594 L 442.191406 426.378906 L 441.980469 426.4375 L 441.757812 426.492188 L 441.523438 426.535156 L 441.28125 426.574219 L 441.027344 426.601562 L 440.765625 426.621094 L 440.496094 426.632812 Z M 435.433594 419.023438 L 443.699219 419.023438 L 443.6875 418.539062 L 443.65625 418.078125 L 443.605469 417.644531 L 443.53125 417.234375 L 443.441406 416.851562 L 443.328125 416.488281 L 443.195312 416.15625 L 443.039062 415.84375 L 442.867188 415.558594 L 442.671875 415.296875 L 442.457031 415.0625 L 442.230469 414.851562 L 441.988281 414.664062 L 441.734375 414.503906 L 441.464844 414.367188 L 441.175781 414.253906 L 440.878906 414.167969 L 440.5625 414.105469 L 440.234375 414.066406 L 439.890625 414.054688 L 439.671875 414.0625 L 439.453125 414.078125 L 439.238281 414.109375 L 439.027344 414.152344 L 438.816406 414.203125 L 438.609375 414.269531 L 438.40625 414.347656 L 438.207031 414.4375 L 438.007812 414.535156 L 437.8125 414.648438 L 437.625 414.773438 L 437.445312 414.90625 L 437.269531 415.050781 L 437.101562 415.207031 L 436.941406 415.371094 L 436.785156 415.546875 L 436.632812 415.730469 L 436.488281 415.929688 L 436.351562 416.132812 L 436.21875 416.351562 L 436.09375 416.578125 L 435.980469 416.8125 L 435.875 417.054688 L 435.78125 417.308594 L 435.699219 417.570312 L 435.625 417.84375 L 435.5625 418.125 L 435.511719 418.414062 L 435.46875 418.714844 Z M 435.433594 419.023438 "/>
<path fill-rule="nonzero" fill="rgb(0%, 0%, 0%)" fill-opacity="1" d="M 31.242188 204.894531 L 24.035156 204.894531 L 13.449219 210.214844 L 13.449219 208.890625 L 19.011719 206.191406 L 19.207031 206.097656 L 19.398438 206.007812 L 19.59375 205.914062 L 19.785156 205.824219 L 19.976562 205.730469 L 20.167969 205.640625 L 20.359375 205.546875 L 20.550781 205.457031 L 20.738281 205.363281 L 20.929688 205.273438 L 21.117188 205.179688 L 21.691406 204.898438 L 22.277344 204.605469 L 22.476562 204.503906 L 22.671875 204.402344 L 22.871094 204.300781 L 22.871094 204.191406 L 22.671875 204.089844 L 22.476562 203.988281 L 22.277344 203.886719 L 22.082031 203.785156 L 21.886719 203.6875 L 21.691406 203.585938 L 21.117188 203.292969 L 20.929688 203.195312 L 20.738281 203.097656 L 20.550781 203 L 20.167969 202.8125 L 19.976562 202.722656 L 19.785156 202.628906 L 19.59375 202.539062 L 19.398438 202.449219 L 19.207031 202.363281 L 19.011719 202.277344 L 13.449219 199.574219 L 13.449219 198.308594 L 24.035156 203.652344 L 31.242188 203.652344 Z M 31.242188 204.894531 "/>
</svg>
