<?xml version="1.0" encoding="UTF-8"?>
<svg xmlns="http://www.w3.org/2000/svg" xmlns:xlink="http://www.w3.org/1999/xlink" width="417" height="460" viewBox="0 0 417 460">
<defs>
<clipPath id="clip-0">
<path clip-rule="nonzero" d="M 99.707031 13.449219 L 403.546875 13.449219 L 403.546875 381.441406 L 99.707031 381.441406 Z M 99.707031 13.449219 "/>
</clipPath>
<clipPath id="clip-1">
<path clip-rule="nonzero" d="M 99.707031 311 L 403.546875 311 L 403.546875 315 L 99.707031 315 Z M 99.707031 311 "/>
</clipPath>
<clipPath id="clip-2">
<path clip-rule="nonzero" d="M 99.707031 225 L 403.546875 225 L 403.546875 229 L 99.707031 229 Z M 99.707031 225 "/>
</clipPath>
<clipPath id="clip-3">
<path clip-rule="nonzero" d="M 99.707031 139 L 403.546875 139 L 403.546875 143 L 99.707031 143 Z M 99.707031 139 "/>
</clipPath>
<clipPath id="clip-4">
<path clip-rule="nonzero" d="M 99.707031 53 L 403.546875 53 L 403.546875 57 L 99.707031 57 Z M 99.707031 53 "/>
</clipPath>
<clipPath id="clip-5">
<path clip-rule="nonzero" d="M 170 13.449219 L 173 13.449219 L 173 381.441406 L 170 381.441406 Z M 170 13.449219 "/>
</clipPath>
<clipPath id="clip-6">
<path clip-rule="nonzero" d="M 243 13.449219 L 246 13.449219 L 246 381.441406 L 243 381.441406 Z M 243 13.449219 "/>
</clipPath>
<clipPath id="clip-7">
<path clip-rule="nonzero" d="M 315 13.449219 L 319 13.449219 L 319 381.441406 L 315 381.441406 Z M 315 13.449219 "/>
</clipPath>
<clipPath id="clip-8">
<path clip-rule="nonzero" d="M 388 13.449219 L 392 13.449219 L 392 381.441406 L 388 381.441406 Z M 388 13.449219 "/>
</clipPath>
</defs>
<rect x="-41.7" y="-46" width="500.4" height="552" fill="rgb(100%, 100%, 100%)" fill-opacity="1"/>
<rect x="-41.7" y="-46" width="500.4" height="552" fill="rgb(95.294118%, 95.294118%, 95.294118%)" fill-opacity="1"/>
<path fill="none" stroke-width="2.618947" stroke-linecap="round" stroke-linejoin="round" stroke="rgb(95.294118%, 95.294118%, 95.294118%)" stroke-opacity="1" stroke-miterlimit="10" d="M 0 460 L 417 460 L 417 0 L 0 0 Z M 0 460 "/>
<g clip-path="url(#clip-0)">
<path fill-rule="nonzero" fill="rgb(95.294118%, 95.294118%, 95.294118%)" fill-opacity="1" stroke-width="2.618947" stroke-linecap="round" stroke-linejoin="round" stroke="rgb(95.294118%, 95.294118%, 95.294118%)" stroke-opacity="1" stroke-miterlimit="10" d="M 99.707031 381.441406 L 403.546875 381.441406 L 403.546875 13.449219 L 99.707031 13.449219 Z M 99.707031 381.441406 "/>
</g>
<g clip-path="url(#clip-1)">
<path fill="none" stroke-width="2.618947" stroke-linecap="butt" stroke-linejoin="round" stroke="rgb(92.156863%, 92.156863%, 92.156863%)" stroke-opacity="1" stroke-miterlimit="10" d="M 99.707031 313.089844 L 403.550781 313.089844 "/>
</g>
<g clip-path="url(#clip-2)">
<path fill="none" stroke-width="2.618947" stroke-linecap="butt" stroke-linejoin="round" stroke="rgb(92.156863%, 92.156863%, 92.156863%)" stroke-opacity="1" stroke-miterlimit="10" d="M 99.707031 227.042969 L 403.550781 227.042969 "/>
</g>
<g clip-path="url(#clip-3)">
<path fill="none" stroke-width="2.618947" stroke-linecap="butt" stroke-linejoin="round" stroke="rgb(92.156863%, 92.156863%, 92.156863%)" stroke-opacity="1" stroke-miterlimit="10" d="M 99.707031 141 L 403.550781 141 "/>
</g>
<g clip-path="url(#clip-4)">
<path fill="none" stroke-width="2.618947" stroke-linecap="butt" stroke-linejoin="round" stroke="rgb(92.156863%, 92.156863%, 92.156863%)" stroke-opacity="1" stroke-miterlimit="10" d="M 99.707031 54.957031 L 403.550781 54.957031 "/>
</g>
<g clip-path="url(#clip-5)">
<path fill="none" stroke-width="2.618947" stroke-linecap="butt" stroke-linejoin="round" stroke="rgb(92.156863%, 92.156863%, 92.156863%)" stroke-opacity="1" stroke-miterlimit="10" d="M 171.671875 381.441406 L 171.671875 13.449219 "/>
</g>
<g clip-path="url(#clip-6)">
<path fill="none" stroke-width="2.618947" stroke-linecap="butt" stroke-linejoin="round" stroke="rgb(92.156863%, 92.156863%, 92.156863%)" stroke-opacity="1" stroke-miterlimit="10" d="M 244.359375 381.441406 L 244.359375 13.449219 "/>
</g>
<g clip-path="url(#clip-7)">
<path fill="none" stroke-width="2.618947" stroke-linecap="butt" stroke-linejoin="round" stroke="rgb(92.156863%, 92.156863%, 92.156863%)" stroke-opacity="1" stroke-miterlimit="10" d="M 317.050781 381.441406 L 317.050781 13.449219 "/>
</g>
<g clip-path="url(#clip-8)">
<path fill="none" stroke-width="2.618947" stroke-linecap="butt" stroke-linejoin="round" stroke="rgb(92.156863%, 92.156863%, 92.156863%)" stroke-opacity="1" stroke-miterlimit="10" d="M 389.738281 381.441406 L 389.738281 13.449219 "/>
</g>
<path fill-rule="nonzero" fill="rgb(56.078431%, 16.470588%, 26.27451%)" fill-opacity="0.8" stroke-width="0.708661" stroke-linecap="round" stroke-linejoin="round" stroke="rgb(56.078431%, 16.470588%, 26.27451%)" stroke-opacity="0.8" stroke-miterlimit="10" d="M 120.808594 52.460938 C 120.808594 56.488281 117.546875 59.75 113.519531 59.75 C 109.492188 59.75 106.230469 56.488281 106.230469 52.460938 C 106.230469 48.4375 109.492188 45.171875 113.519531 45.171875 C 117.546875 45.171875 120.808594 48.4375 120.808594 52.460938 "/>
<path fill-rule="nonzero" fill="rgb(56.078431%, 16.470588%, 26.27451%)" fill-opacity="0.8" stroke-width="0.708661" stroke-linecap="round" stroke-linejoin="round" stroke="rgb(56.078431%, 16.470588%, 26.27451%)" stroke-opacity="0.8" stroke-miterlimit="10" d="M 135.347656 48.761719 C 135.347656 52.789062 132.082031 56.050781 128.058594 56.050781 C 124.03125 56.050781 120.769531 52.789062 120.769531 48.761719 C 120.769531 44.734375 124.03125 41.472656 128.058594 41.472656 C 132.082031 41.472656 135.347656 44.734375 135.347656 48.761719 "/>
<path fill-rule="nonzero" fill="rgb(56.078431%, 16.470588%, 26.27451%)" fill-opacity="0.8" stroke-width="0.708661" stroke-linecap="round" stroke-linejoin="round" stroke="rgb(56.078431%, 16.470588%, 26.27451%)" stroke-opacity="0.8" stroke-miterlimit="10" d="M 149.886719 44.375 C 149.886719 48.398438 146.621094 51.664062 142.59375 51.664062 C 138.570312 51.664062 135.304688 48.398438 135.304688 44.375 C 135.304688 40.347656 138.570312 37.082031 142.59375 37.082031 C 146.621094 37.082031 149.886719 40.347656 149.886719 44.375 "/>
<path fill-rule="nonzero" fill="rgb(56.078431%, 16.470588%, 26.27451%)" fill-opacity="0.8" stroke-width="0.708661" stroke-linecap="round" stroke-linejoin="round" stroke="rgb(56.078431%, 16.470588%, 26.27451%)" stroke-opacity="0.8" stroke-miterlimit="10" d="M 164.421875 39.8125 C 164.421875 43.839844 161.160156 47.101562 157.132812 47.101562 C 153.109375 47.101562 149.84375 43.839844 149.84375 39.8125 C 149.84375 35.789062 153.109375 32.523438 157.132812 32.523438 C 161.160156 32.523438 164.421875 35.789062 164.421875 39.8125 "/>
<path fill-rule="nonzero" fill="rgb(56.078431%, 16.470588%, 26.27451%)" fill-opacity="0.8" stroke-width="0.708661" stroke-linecap="round" stroke-linejoin="round" stroke="rgb(56.078431%, 16.470588%, 26.27451%)" stroke-opacity="0.8" stroke-miterlimit="10" d="M 178.960938 35.597656 C 178.960938 39.625 175.699219 42.886719 171.671875 42.886719 C 167.644531 42.886719 164.382812 39.625 164.382812 35.597656 C 164.382812 31.570312 167.644531 28.308594 171.671875 28.308594 C 175.699219 28.308594 178.960938 31.570312 178.960938 35.597656 "/>
<path fill-rule="nonzero" fill="rgb(56.078431%, 16.470588%, 26.27451%)" fill-opacity="0.8" stroke-width="0.708661" stroke-linecap="round" stroke-linejoin="round" stroke="rgb(56.078431%, 16.470588%, 26.27451%)" stroke-opacity="0.8" stroke-miterlimit="10" d="M 193.5 32.242188 C 193.5 36.265625 190.234375 39.53125 186.210938 39.53125 C 182.183594 39.53125 178.917969 36.265625 178.917969 32.242188 C 178.917969 28.214844 182.183594 24.953125 186.210938 24.953125 C 190.234375 24.953125 193.5 28.214844 193.5 32.242188 "/>
<path fill-rule="nonzero" fill="rgb(56.078431%, 16.470588%, 26.27451%)" fill-opacity="0.8" stroke-width="0.708661" stroke-linecap="round" stroke-linejoin="round" stroke="rgb(56.078431%, 16.470588%, 26.27451%)" stroke-opacity="0.8" stroke-miterlimit="10" d="M 208.035156 30.261719 C 208.035156 34.289062 204.773438 37.550781 200.746094 37.550781 C 196.722656 37.550781 193.457031 34.289062 193.457031 30.261719 C 193.457031 26.238281 196.722656 22.972656 200.746094 22.972656 C 204.773438 22.972656 208.035156 26.238281 208.035156 30.261719 "/>
<path fill-rule="nonzero" fill="rgb(56.078431%, 16.470588%, 26.27451%)" fill-opacity="0.8" stroke-width="0.708661" stroke-linecap="round" stroke-linejoin="round" stroke="rgb(56.078431%, 16.470588%, 26.27451%)" stroke-opacity="0.8" stroke-miterlimit="10" d="M 222.574219 30.175781 C 222.574219 34.203125 219.3125 37.464844 215.285156 37.464844 C 211.257812 37.464844 207.996094 34.203125 207.996094 30.175781 C 207.996094 26.152344 211.257812 22.886719 215.285156 22.886719 C 219.3125 22.886719 222.574219 26.152344 222.574219 30.175781 "/>
<path fill-rule="nonzero" fill="rgb(56.078431%, 16.470588%, 26.27451%)" fill-opacity="0.8" stroke-width="0.708661" stroke-linecap="round" stroke-linejoin="round" stroke="rgb(56.078431%, 16.470588%, 26.27451%)" stroke-opacity="0.8" stroke-miterlimit="10" d="M 237.113281 32.5 C 237.113281 36.527344 233.847656 39.789062 229.824219 39.789062 C 225.796875 39.789062 222.53125 36.527344 222.53125 32.5 C 222.53125 28.472656 225.796875 25.210938 229.824219 25.210938 C 233.847656 25.210938 237.113281 28.472656 237.113281 32.5 "/>
<path fill-rule="nonzero" fill="rgb(56.078431%, 16.470588%, 26.27451%)" fill-opacity="0.8" stroke-width="0.708661" stroke-linecap="round" stroke-linejoin="round" stroke="rgb(56.078431%, 16.470588%, 26.27451%)" stroke-opacity="0.8" stroke-miterlimit="10" d="M 251.652344 37.75 C 251.652344 41.773438 248.386719 45.039062 244.359375 45.039062 C 240.335938 45.039062 237.070312 41.773438 237.070312 37.75 C 237.070312 33.722656 240.335938 30.457031 244.359375 30.457031 C 248.386719 30.457031 251.652344 33.722656 251.652344 37.75 "/>
<path fill-rule="nonzero" fill="rgb(56.078431%, 16.470588%, 26.27451%)" fill-opacity="0.8" stroke-width="0.708661" stroke-linecap="round" stroke-linejoin="round" stroke="rgb(56.078431%, 16.470588%, 26.27451%)" stroke-opacity="0.8" stroke-miterlimit="10" d="M 266.1875 46.4375 C 266.1875 50.464844 262.925781 53.726562 258.898438 53.726562 C 254.871094 53.726562 251.609375 50.464844 251.609375 46.4375 C 251.609375 42.414062 254.871094 39.148438 258.898438 39.148438 C 262.925781 39.148438 266.1875 42.414062 266.1875 46.4375 "/>
<path fill-rule="nonzero" fill="rgb(56.078431%, 16.470588%, 26.27451%)" fill-opacity="0.8" stroke-width="0.708661" stroke-linecap="round" stroke-linejoin="round" stroke="rgb(56.078431%, 16.470588%, 26.27451%)" stroke-opacity="0.8" stroke-miterlimit="10" d="M 280.726562 59.085938 C 280.726562 63.113281 277.460938 66.375 273.4375 66.375 C 269.410156 66.375 266.148438 63.113281 266.148438 59.085938 C 266.148438 55.0625 269.410156 51.796875 273.4375 51.796875 C 277.460938 51.796875 280.726562 55.0625 280.726562 59.085938 "/>
<path fill-rule="nonzero" fill="rgb(56.078431%, 16.470588%, 26.27451%)" fill-opacity="0.8" stroke-width="0.708661" stroke-linecap="round" stroke-linejoin="round" stroke="rgb(56.078431%, 16.470588%, 26.27451%)" stroke-opacity="0.8" stroke-miterlimit="10" d="M 295.265625 76.210938 C 295.265625 80.234375 292 83.5 287.972656 83.5 C 283.949219 83.5 280.683594 80.234375 280.683594 76.210938 C 280.683594 72.183594 283.949219 68.921875 287.972656 68.921875 C 292 68.921875 295.265625 72.183594 295.265625 76.210938 "/>
<path fill-rule="nonzero" fill="rgb(56.078431%, 16.470588%, 26.27451%)" fill-opacity="0.8" stroke-width="0.708661" stroke-linecap="round" stroke-linejoin="round" stroke="rgb(56.078431%, 16.470588%, 26.27451%)" stroke-opacity="0.8" stroke-miterlimit="10" d="M 309.800781 98.324219 C 309.800781 102.347656 306.539062 105.613281 302.511719 105.613281 C 298.484375 105.613281 295.222656 102.347656 295.222656 98.324219 C 295.222656 94.296875 298.484375 91.035156 302.511719 91.035156 C 306.539062 91.035156 309.800781 94.296875 309.800781 98.324219 "/>
<path fill-rule="nonzero" fill="rgb(56.078431%, 16.470588%, 26.27451%)" fill-opacity="0.8" stroke-width="0.708661" stroke-linecap="round" stroke-linejoin="round" stroke="rgb(56.078431%, 16.470588%, 26.27451%)" stroke-opacity="0.8" stroke-miterlimit="10" d="M 324.339844 125.941406 C 324.339844 129.96875 321.074219 133.234375 317.050781 133.234375 C 313.023438 133.234375 309.761719 129.96875 309.761719 125.941406 C 309.761719 121.917969 313.023438 118.652344 317.050781 118.652344 C 321.074219 118.652344 324.339844 121.917969 324.339844 125.941406 "/>
<path fill-rule="nonzero" fill="rgb(56.078431%, 16.470588%, 26.27451%)" fill-opacity="0.8" stroke-width="0.708661" stroke-linecap="round" stroke-linejoin="round" stroke="rgb(56.078431%, 16.470588%, 26.27451%)" stroke-opacity="0.8" stroke-miterlimit="10" d="M 338.878906 159.585938 C 338.878906 163.613281 335.613281 166.875 331.589844 166.875 C 327.5625 166.875 324.296875 163.613281 324.296875 159.585938 C 324.296875 155.558594 327.5625 152.296875 331.589844 152.296875 C 335.613281 152.296875 338.878906 155.558594 338.878906 159.585938 "/>
<path fill-rule="nonzero" fill="rgb(56.078431%, 16.470588%, 26.27451%)" fill-opacity="0.8" stroke-width="0.708661" stroke-linecap="round" stroke-linejoin="round" stroke="rgb(56.078431%, 16.470588%, 26.27451%)" stroke-opacity="0.8" stroke-miterlimit="10" d="M 353.414062 199.769531 C 353.414062 203.792969 350.152344 207.058594 346.125 207.058594 C 342.101562 207.058594 338.835938 203.792969 338.835938 199.769531 C 338.835938 195.742188 342.101562 192.480469 346.125 192.480469 C 350.152344 192.480469 353.414062 195.742188 353.414062 199.769531 "/>
<path fill-rule="nonzero" fill="rgb(56.078431%, 16.470588%, 26.27451%)" fill-opacity="0.8" stroke-width="0.708661" stroke-linecap="round" stroke-linejoin="round" stroke="rgb(56.078431%, 16.470588%, 26.27451%)" stroke-opacity="0.8" stroke-miterlimit="10" d="M 367.953125 247.007812 C 367.953125 251.03125 364.691406 254.296875 360.664062 254.296875 C 356.636719 254.296875 353.375 251.03125 353.375 247.007812 C 353.375 242.980469 356.636719 239.714844 360.664062 239.714844 C 364.691406 239.714844 367.953125 242.980469 367.953125 247.007812 "/>
<path fill-rule="nonzero" fill="rgb(56.078431%, 16.470588%, 26.27451%)" fill-opacity="0.8" stroke-width="0.708661" stroke-linecap="round" stroke-linejoin="round" stroke="rgb(56.078431%, 16.470588%, 26.27451%)" stroke-opacity="0.8" stroke-miterlimit="10" d="M 382.492188 301.816406 C 382.492188 305.84375 379.226562 309.105469 375.203125 309.105469 C 371.175781 309.105469 367.910156 305.84375 367.910156 301.816406 C 367.910156 297.789062 371.175781 294.527344 375.203125 294.527344 C 379.226562 294.527344 382.492188 297.789062 382.492188 301.816406 "/>
<path fill-rule="nonzero" fill="rgb(56.078431%, 16.470588%, 26.27451%)" fill-opacity="0.8" stroke-width="0.708661" stroke-linecap="round" stroke-linejoin="round" stroke="rgb(56.078431%, 16.470588%, 26.27451%)" stroke-opacity="0.8" stroke-miterlimit="10" d="M 397.027344 364.714844 C 397.027344 368.738281 393.765625 372.003906 389.738281 372.003906 C 385.714844 372.003906 382.449219 368.738281 382.449219 364.714844 C 382.449219 360.6875 385.714844 357.425781 389.738281 357.425781 C 393.765625 357.425781 397.027344 360.6875 397.027344 364.714844 "/>
<path fill-rule="nonzero" fill="rgb(10.196078%, 10.196078%, 10.196078%)" fill-opacity="1" d="M 45.203125 315.574219 L 45.203125 314.601562 L 50.703125 314.601562 L 50.703125 315.574219 Z M 45.203125 315.574219 "/>
<path fill-rule="nonzero" fill="rgb(10.196078%, 10.196078%, 10.196078%)" fill-opacity="1" d="M 53.78125 321.324219 L 53.78125 320.351562 L 57.53125 320.351562 L 57.53125 307.101562 L 54.679688 307.101562 L 54.679688 306.351562 L 54.871094 306.316406 L 55.0625 306.277344 L 55.246094 306.238281 L 55.425781 306.199219 L 55.605469 306.15625 L 55.777344 306.113281 L 55.945312 306.070312 L 56.113281 306.023438 L 56.273438 305.976562 L 56.429688 305.925781 L 56.582031 305.875 L 56.730469 305.824219 L 56.875 305.769531 L 57.011719 305.714844 L 57.148438 305.65625 L 57.277344 305.597656 L 57.402344 305.539062 L 57.523438 305.476562 L 57.640625 305.414062 L 57.753906 305.351562 L 58.65625 305.351562 L 58.65625 320.351562 L 62.128906 320.351562 L 62.128906 321.324219 Z M 53.78125 321.324219 "/>
<path fill-rule="nonzero" fill="rgb(10.196078%, 10.196078%, 10.196078%)" fill-opacity="1" d="M 69.328125 321.625 L 69.078125 321.621094 L 68.832031 321.613281 L 68.59375 321.597656 L 68.363281 321.574219 L 68.136719 321.542969 L 67.917969 321.507812 L 67.703125 321.464844 L 67.496094 321.417969 L 67.296875 321.363281 L 67.105469 321.300781 L 66.921875 321.234375 L 66.746094 321.164062 L 66.570312 321.089844 L 66.242188 320.933594 L 66.085938 320.847656 L 65.933594 320.757812 L 65.785156 320.667969 L 65.640625 320.574219 L 65.503906 320.476562 L 65.371094 320.375 L 65.242188 320.277344 L 65.113281 320.175781 L 64.988281 320.074219 L 64.867188 319.976562 L 64.75 319.875 L 64.632812 319.777344 L 64.519531 319.675781 L 64.410156 319.574219 L 64.304688 319.476562 L 64.929688 318.699219 L 65.078125 318.84375 L 65.230469 318.988281 L 65.390625 319.125 L 65.554688 319.265625 L 65.722656 319.402344 L 65.898438 319.535156 L 66.078125 319.667969 L 66.265625 319.796875 L 66.457031 319.925781 L 66.65625 320.050781 L 66.867188 320.164062 L 67.089844 320.265625 L 67.324219 320.355469 L 67.570312 320.433594 L 67.828125 320.5 L 68.101562 320.554688 L 68.382812 320.597656 L 68.679688 320.625 L 68.984375 320.644531 L 69.304688 320.652344 L 69.519531 320.644531 L 69.726562 320.628906 L 69.933594 320.601562 L 70.136719 320.566406 L 70.335938 320.519531 L 70.53125 320.460938 L 70.722656 320.394531 L 70.914062 320.316406 L 71.097656 320.226562 L 71.28125 320.125 L 71.457031 320.011719 L 71.625 319.886719 L 71.789062 319.757812 L 71.941406 319.617188 L 72.09375 319.46875 L 72.234375 319.3125 L 72.367188 319.148438 L 72.496094 318.972656 L 72.617188 318.792969 L 72.730469 318.601562 L 72.832031 318.402344 L 72.925781 318.199219 L 73.011719 317.988281 L 73.082031 317.773438 L 73.140625 317.550781 L 73.191406 317.324219 L 73.230469 317.089844 L 73.257812 316.847656 L 73.273438 316.601562 L 73.28125 316.351562 L 73.269531 315.972656 L 73.238281 315.613281 L 73.183594 315.269531 L 73.105469 314.941406 L 73.011719 314.632812 L 72.890625 314.335938 L 72.753906 314.058594 L 72.589844 313.796875 L 72.410156 313.554688 L 72.203125 313.324219 L 71.988281 313.117188 L 71.753906 312.929688 L 71.507812 312.765625 L 71.25 312.621094 L 70.972656 312.5 L 70.683594 312.402344 L 70.378906 312.324219 L 70.058594 312.269531 L 69.726562 312.238281 L 69.378906 312.226562 L 69.195312 312.226562 L 69.019531 312.238281 L 68.847656 312.253906 L 68.679688 312.273438 L 68.515625 312.300781 L 68.359375 312.332031 L 68.207031 312.371094 L 68.058594 312.417969 L 67.917969 312.46875 L 67.78125 312.527344 L 67.648438 312.582031 L 67.515625 312.644531 L 67.382812 312.710938 L 67.246094 312.78125 L 67.109375 312.855469 L 66.972656 312.9375 L 66.832031 313.019531 L 66.691406 313.109375 L 66.546875 313.203125 L 66.40625 313.300781 L 65.628906 312.824219 L 66.203125 305.351562 L 73.578125 305.351562 L 73.578125 306.324219 L 67.203125 306.324219 L 66.703125 312.101562 L 66.828125 312.027344 L 66.957031 311.957031 L 67.082031 311.890625 L 67.210938 311.824219 L 67.34375 311.761719 L 67.472656 311.703125 L 67.605469 311.648438 L 67.871094 311.546875 L 68.003906 311.5 L 68.140625 311.453125 L 68.28125 311.410156 L 68.425781 311.371094 L 68.578125 311.339844 L 68.730469 311.3125 L 68.886719 311.289062 L 69.046875 311.273438 L 69.210938 311.261719 L 69.382812 311.253906 L 69.554688 311.25 L 69.820312 311.257812 L 70.085938 311.273438 L 70.34375 311.300781 L 70.59375 311.339844 L 70.84375 311.386719 L 71.085938 311.449219 L 71.320312 311.519531 L 71.554688 311.601562 L 71.78125 311.695312 L 72.003906 311.800781 L 72.222656 311.910156 L 72.433594 312.035156 L 72.636719 312.167969 L 72.828125 312.316406 L 73.011719 312.476562 L 73.183594 312.644531 L 73.347656 312.828125 L 73.5 313.023438 L 73.644531 313.230469 L 73.78125 313.449219 L 73.902344 313.675781 L 74.011719 313.917969 L 74.109375 314.167969 L 74.195312 314.433594 L 74.265625 314.714844 L 74.324219 315.003906 L 74.371094 315.308594 L 74.402344 315.625 L 74.421875 315.957031 L 74.429688 316.300781 L 74.421875 316.636719 L 74.398438 316.960938 L 74.363281 317.277344 L 74.308594 317.582031 L 74.242188 317.875 L 74.160156 318.160156 L 74.0625 318.433594 L 73.949219 318.699219 L 73.820312 318.957031 L 73.679688 319.199219 L 73.53125 319.429688 L 73.371094 319.648438 L 73.203125 319.855469 L 73.027344 320.050781 L 72.84375 320.238281 L 72.648438 320.414062 L 72.445312 320.574219 L 72.230469 320.726562 L 72.011719 320.871094 L 71.78125 321 L 71.546875 321.121094 L 71.3125 321.226562 L 71.074219 321.320312 L 70.835938 321.402344 L 70.59375 321.46875 L 70.34375 321.527344 L 70.097656 321.570312 L 69.84375 321.601562 L 69.585938 321.621094 Z M 69.328125 321.625 "/>
<path fill-rule="nonzero" fill="rgb(10.196078%, 10.196078%, 10.196078%)" fill-opacity="1" d="M 81.605469 321.625 L 81.160156 321.605469 L 80.734375 321.539062 L 80.332031 321.429688 L 79.949219 321.277344 L 79.585938 321.082031 L 79.242188 320.84375 L 78.921875 320.558594 L 78.621094 320.234375 L 78.339844 319.863281 L 78.078125 319.449219 L 77.84375 318.996094 L 77.628906 318.507812 L 77.441406 317.980469 L 77.28125 317.417969 L 77.140625 316.820312 L 77.03125 316.183594 L 76.941406 315.511719 L 76.878906 314.800781 L 76.84375 314.058594 L 76.828125 313.277344 L 76.84375 312.5 L 76.878906 311.757812 L 76.941406 311.058594 L 77.03125 310.390625 L 77.140625 309.761719 L 77.28125 309.171875 L 77.441406 308.617188 L 77.628906 308.097656 L 77.84375 307.617188 L 78.078125 307.175781 L 78.339844 306.773438 L 78.621094 306.410156 L 78.921875 306.089844 L 79.242188 305.816406 L 79.585938 305.582031 L 79.949219 305.390625 L 80.332031 305.242188 L 80.734375 305.136719 L 81.160156 305.070312 L 81.605469 305.050781 L 82.054688 305.070312 L 82.480469 305.136719 L 82.886719 305.242188 L 83.273438 305.390625 L 83.636719 305.582031 L 83.976562 305.816406 L 84.296875 306.089844 L 84.597656 306.410156 L 84.875 306.773438 L 85.128906 307.175781 L 85.367188 307.617188 L 85.578125 308.097656 L 85.765625 308.617188 L 85.929688 309.171875 L 86.066406 309.761719 L 86.179688 310.390625 L 86.265625 311.058594 L 86.328125 311.757812 L 86.367188 312.5 L 86.378906 313.277344 L 86.367188 314.058594 L 86.328125 314.800781 L 86.265625 315.511719 L 86.179688 316.183594 L 86.066406 316.820312 L 85.929688 317.417969 L 85.765625 317.980469 L 85.578125 318.507812 L 85.367188 318.996094 L 85.128906 319.449219 L 84.875 319.863281 L 84.597656 320.234375 L 84.296875 320.558594 L 83.976562 320.84375 L 83.636719 321.082031 L 83.273438 321.277344 L 82.886719 321.429688 L 82.480469 321.539062 L 82.054688 321.605469 Z M 81.605469 320.675781 L 81.933594 320.65625 L 82.246094 320.601562 L 82.546875 320.507812 L 82.832031 320.375 L 83.105469 320.207031 L 83.363281 320 L 83.605469 319.757812 L 83.835938 319.476562 L 84.050781 319.15625 L 84.253906 318.800781 L 84.445312 318.40625 L 84.613281 317.980469 L 84.765625 317.515625 L 84.894531 317.015625 L 85.003906 316.480469 L 85.09375 315.910156 L 85.164062 315.304688 L 85.214844 314.664062 L 85.246094 313.988281 L 85.253906 313.277344 L 85.246094 312.5625 L 85.214844 311.890625 L 85.164062 311.253906 L 85.09375 310.652344 L 85.003906 310.089844 L 84.894531 309.5625 L 84.765625 309.070312 L 84.613281 308.621094 L 84.445312 308.203125 L 84.253906 307.824219 L 84.050781 307.480469 L 83.835938 307.167969 L 83.605469 306.894531 L 83.363281 306.65625 L 83.105469 306.457031 L 82.832031 306.292969 L 82.546875 306.164062 L 82.246094 306.074219 L 81.933594 306.019531 L 81.605469 306 L 81.28125 306.019531 L 80.96875 306.074219 L 80.671875 306.164062 L 80.386719 306.292969 L 80.117188 306.457031 L 79.859375 306.65625 L 79.613281 306.894531 L 79.378906 307.167969 L 79.160156 307.480469 L 78.953125 307.824219 L 78.765625 308.203125 L 78.59375 308.621094 L 78.445312 309.070312 L 78.3125 309.5625 L 78.203125 310.089844 L 78.113281 310.652344 L 78.042969 311.253906 L 77.996094 311.890625 L 77.964844 312.5625 L 77.953125 313.277344 L 77.964844 313.988281 L 77.996094 314.664062 L 78.042969 315.304688 L 78.113281 315.910156 L 78.203125 316.480469 L 78.3125 317.015625 L 78.445312 317.515625 L 78.59375 317.980469 L 78.765625 318.40625 L 78.953125 318.800781 L 79.160156 319.15625 L 79.378906 319.476562 L 79.613281 319.757812 L 79.859375 320 L 80.117188 320.207031 L 80.386719 320.375 L 80.671875 320.507812 L 80.96875 320.601562 L 81.28125 320.65625 Z M 81.605469 320.675781 "/>
<path fill-rule="nonzero" fill="rgb(10.196078%, 10.196078%, 10.196078%)" fill-opacity="1" d="M 45.203125 229.53125 L 45.203125 228.558594 L 50.703125 228.558594 L 50.703125 229.53125 Z M 45.203125 229.53125 "/>
<path fill-rule="nonzero" fill="rgb(10.196078%, 10.196078%, 10.196078%)" fill-opacity="1" d="M 53.78125 235.28125 L 53.78125 234.308594 L 57.53125 234.308594 L 57.53125 221.058594 L 54.679688 221.058594 L 54.679688 220.308594 L 54.871094 220.269531 L 55.0625 220.234375 L 55.246094 220.195312 L 55.425781 220.15625 L 55.605469 220.113281 L 55.777344 220.070312 L 55.945312 220.023438 L 56.113281 219.980469 L 56.273438 219.929688 L 56.429688 219.882812 L 56.582031 219.832031 L 56.730469 219.777344 L 56.875 219.726562 L 57.011719 219.667969 L 57.148438 219.613281 L 57.277344 219.554688 L 57.402344 219.496094 L 57.523438 219.433594 L 57.640625 219.371094 L 57.753906 219.308594 L 58.65625 219.308594 L 58.65625 234.308594 L 62.128906 234.308594 L 62.128906 235.28125 Z M 53.78125 235.28125 "/>
<path fill-rule="nonzero" fill="rgb(10.196078%, 10.196078%, 10.196078%)" fill-opacity="1" d="M 69.628906 235.582031 L 69.183594 235.558594 L 68.761719 235.496094 L 68.355469 235.386719 L 67.972656 235.234375 L 67.609375 235.039062 L 67.269531 234.796875 L 66.945312 234.515625 L 66.644531 234.191406 L 66.363281 233.820312 L 66.105469 233.40625 L 65.867188 232.953125 L 65.65625 232.464844 L 65.46875 231.9375 L 65.304688 231.375 L 65.167969 230.777344 L 65.054688 230.140625 L 64.96875 229.46875 L 64.90625 228.757812 L 64.867188 228.011719 L 64.855469 227.230469 L 64.867188 226.457031 L 64.90625 225.714844 L 64.96875 225.011719 L 65.054688 224.347656 L 65.167969 223.71875 L 65.304688 223.128906 L 65.46875 222.574219 L 65.65625 222.054688 L 65.867188 221.574219 L 66.105469 221.132812 L 66.363281 220.726562 L 66.644531 220.367188 L 66.945312 220.046875 L 67.269531 219.773438 L 67.609375 219.539062 L 67.972656 219.347656 L 68.355469 219.199219 L 68.761719 219.09375 L 69.183594 219.027344 L 69.628906 219.007812 L 70.078125 219.027344 L 70.507812 219.09375 L 70.914062 219.199219 L 71.296875 219.347656 L 71.660156 219.539062 L 72.003906 219.773438 L 72.324219 220.046875 L 72.621094 220.367188 L 72.898438 220.726562 L 73.15625 221.132812 L 73.390625 221.574219 L 73.605469 222.054688 L 73.792969 222.574219 L 73.953125 223.128906 L 74.09375 223.71875 L 74.203125 224.347656 L 74.292969 225.011719 L 74.355469 225.714844 L 74.390625 226.457031 L 74.40625 227.230469 L 74.390625 228.011719 L 74.355469 228.757812 L 74.292969 229.46875 L 74.203125 230.140625 L 74.09375 230.777344 L 73.953125 231.375 L 73.792969 231.9375 L 73.605469 232.464844 L 73.390625 232.953125 L 73.15625 233.40625 L 72.898438 233.820312 L 72.621094 234.191406 L 72.324219 234.515625 L 72.003906 234.796875 L 71.660156 235.039062 L 71.296875 235.234375 L 70.914062 235.386719 L 70.507812 235.496094 L 70.078125 235.558594 Z M 69.628906 234.632812 L 69.957031 234.613281 L 70.269531 234.558594 L 70.570312 234.464844 L 70.855469 234.332031 L 71.128906 234.164062 L 71.386719 233.957031 L 71.632812 233.714844 L 71.863281 233.433594 L 72.078125 233.113281 L 72.28125 232.757812 L 72.46875 232.363281 L 72.640625 231.9375 L 72.789062 231.472656 L 72.917969 230.972656 L 73.03125 230.4375 L 73.121094 229.867188 L 73.1875 229.261719 L 73.238281 228.621094 L 73.269531 227.945312 L 73.28125 227.230469 L 73.269531 226.519531 L 73.238281 225.847656 L 73.1875 225.207031 L 73.121094 224.609375 L 73.03125 224.042969 L 72.917969 223.519531 L 72.789062 223.027344 L 72.640625 222.574219 L 72.46875 222.160156 L 72.28125 221.78125 L 72.078125 221.433594 L 71.863281 221.125 L 71.632812 220.851562 L 71.386719 220.613281 L 71.128906 220.414062 L 70.855469 220.25 L 70.570312 220.121094 L 70.269531 220.03125 L 69.957031 219.976562 L 69.628906 219.957031 L 69.304688 219.976562 L 68.996094 220.03125 L 68.699219 220.121094 L 68.414062 220.25 L 68.140625 220.414062 L 67.882812 220.613281 L 67.636719 220.851562 L 67.40625 221.125 L 67.1875 221.433594 L 66.980469 221.78125 L 66.789062 222.160156 L 66.621094 222.574219 L 66.46875 223.027344 L 66.339844 223.519531 L 66.230469 224.042969 L 66.140625 224.609375 L 66.070312 225.207031 L 66.019531 225.847656 L 65.988281 226.519531 L 65.980469 227.230469 L 65.988281 227.945312 L 66.019531 228.621094 L 66.070312 229.261719 L 66.140625 229.867188 L 66.230469 230.4375 L 66.339844 230.972656 L 66.46875 231.472656 L 66.621094 231.9375 L 66.789062 232.363281 L 66.980469 232.757812 L 67.1875 233.113281 L 67.40625 233.433594 L 67.636719 233.714844 L 67.882812 233.957031 L 68.140625 234.164062 L 68.414062 234.332031 L 68.699219 234.464844 L 68.996094 234.558594 L 69.304688 234.613281 Z M 69.628906 234.632812 "/>
<path fill-rule="nonzero" fill="rgb(10.196078%, 10.196078%, 10.196078%)" fill-opacity="1" d="M 81.605469 235.582031 L 81.160156 235.558594 L 80.734375 235.496094 L 80.332031 235.386719 L 79.949219 235.234375 L 79.585938 235.039062 L 79.242188 234.796875 L 78.921875 234.515625 L 78.621094 234.191406 L 78.339844 233.820312 L 78.078125 233.40625 L 77.84375 232.953125 L 77.628906 232.464844 L 77.441406 231.9375 L 77.28125 231.375 L 77.140625 230.777344 L 77.03125 230.140625 L 76.941406 229.46875 L 76.878906 228.757812 L 76.84375 228.011719 L 76.828125 227.230469 L 76.84375 226.457031 L 76.878906 225.714844 L 76.941406 225.011719 L 77.03125 224.347656 L 77.140625 223.71875 L 77.28125 223.128906 L 77.441406 222.574219 L 77.628906 222.054688 L 77.84375 221.574219 L 78.078125 221.132812 L 78.339844 220.726562 L 78.621094 220.367188 L 78.921875 220.046875 L 79.242188 219.773438 L 79.585938 219.539062 L 79.949219 219.347656 L 80.332031 219.199219 L 80.734375 219.09375 L 81.160156 219.027344 L 81.605469 219.007812 L 82.054688 219.027344 L 82.480469 219.09375 L 82.886719 219.199219 L 83.273438 219.347656 L 83.636719 219.539062 L 83.976562 219.773438 L 84.296875 220.046875 L 84.597656 220.367188 L 84.875 220.726562 L 85.128906 221.132812 L 85.367188 221.574219 L 85.578125 222.054688 L 85.765625 222.574219 L 85.929688 223.128906 L 86.066406 223.71875 L 86.179688 224.347656 L 86.265625 225.011719 L 86.328125 225.714844 L 86.367188 226.457031 L 86.378906 227.230469 L 86.367188 228.011719 L 86.328125 228.757812 L 86.265625 229.46875 L 86.179688 230.140625 L 86.066406 230.777344 L 85.929688 231.375 L 85.765625 231.9375 L 85.578125 232.464844 L 85.367188 232.953125 L 85.128906 233.40625 L 84.875 233.820312 L 84.597656 234.191406 L 84.296875 234.515625 L 83.976562 234.796875 L 83.636719 235.039062 L 83.273438 235.234375 L 82.886719 235.386719 L 82.480469 235.496094 L 82.054688 235.558594 Z M 81.605469 234.632812 L 81.933594 234.613281 L 82.246094 234.558594 L 82.546875 234.464844 L 82.832031 234.332031 L 83.105469 234.164062 L 83.363281 233.957031 L 83.605469 233.714844 L 83.835938 233.433594 L 84.050781 233.113281 L 84.253906 232.757812 L 84.445312 232.363281 L 84.613281 231.9375 L 84.765625 231.472656 L 84.894531 230.972656 L 85.003906 230.4375 L 85.09375 229.867188 L 85.164062 229.261719 L 85.214844 228.621094 L 85.246094 227.945312 L 85.253906 227.230469 L 85.246094 226.519531 L 85.214844 225.847656 L 85.164062 225.207031 L 85.09375 224.609375 L 85.003906 224.042969 L 84.894531 223.519531 L 84.765625 223.027344 L 84.613281 222.574219 L 84.445312 222.160156 L 84.253906 221.78125 L 84.050781 221.433594 L 83.835938 221.125 L 83.605469 220.851562 L 83.363281 220.613281 L 83.105469 220.414062 L 82.832031 220.25 L 82.546875 220.121094 L 82.246094 220.03125 L 81.933594 219.976562 L 81.605469 219.957031 L 81.28125 219.976562 L 80.96875 220.03125 L 80.671875 220.121094 L 80.386719 220.25 L 80.117188 220.414062 L 79.859375 220.613281 L 79.613281 220.851562 L 79.378906 221.125 L 79.160156 221.433594 L 78.953125 221.78125 L 78.765625 222.160156 L 78.59375 222.574219 L 78.445312 223.027344 L 78.3125 223.519531 L 78.203125 224.042969 L 78.113281 224.609375 L 78.042969 225.207031 L 77.996094 225.847656 L 77.964844 226.519531 L 77.953125 227.230469 L 77.964844 227.945312 L 77.996094 228.621094 L 78.042969 229.261719 L 78.113281 229.867188 L 78.203125 230.4375 L 78.3125 230.972656 L 78.445312 231.472656 L 78.59375 231.9375 L 78.765625 232.363281 L 78.953125 232.757812 L 79.160156 233.113281 L 79.378906 233.433594 L 79.613281 233.714844 L 79.859375 233.957031 L 80.117188 234.164062 L 80.386719 234.332031 L 80.671875 234.464844 L 80.96875 234.558594 L 81.28125 234.613281 Z M 81.605469 234.632812 "/>
<path fill-rule="nonzero" fill="rgb(10.196078%, 10.196078%, 10.196078%)" fill-opacity="1" d="M 57.179688 143.488281 L 57.179688 142.511719 L 62.679688 142.511719 L 62.679688 143.488281 Z M 57.179688 143.488281 "/>
<path fill-rule="nonzero" fill="rgb(10.196078%, 10.196078%, 10.196078%)" fill-opacity="1" d="M 69.328125 149.539062 L 69.078125 149.535156 L 68.832031 149.523438 L 68.59375 149.507812 L 68.363281 149.484375 L 68.136719 149.457031 L 67.917969 149.421875 L 67.703125 149.378906 L 67.496094 149.332031 L 67.296875 149.273438 L 67.105469 149.214844 L 66.921875 149.144531 L 66.570312 149.003906 L 66.40625 148.925781 L 66.242188 148.84375 L 66.085938 148.761719 L 65.933594 148.671875 L 65.785156 148.582031 L 65.640625 148.488281 L 65.503906 148.386719 L 65.371094 148.289062 L 65.242188 148.1875 L 65.113281 148.089844 L 64.988281 147.988281 L 64.867188 147.886719 L 64.75 147.789062 L 64.632812 147.6875 L 64.519531 147.589844 L 64.410156 147.488281 L 64.304688 147.386719 L 64.929688 146.613281 L 65.078125 146.757812 L 65.230469 146.898438 L 65.390625 147.039062 L 65.554688 147.175781 L 65.722656 147.3125 L 65.898438 147.445312 L 66.078125 147.578125 L 66.265625 147.710938 L 66.457031 147.835938 L 66.65625 147.964844 L 66.867188 148.078125 L 67.089844 148.179688 L 67.324219 148.269531 L 67.570312 148.347656 L 67.828125 148.414062 L 68.101562 148.46875 L 68.382812 148.507812 L 68.679688 148.539062 L 68.984375 148.558594 L 69.304688 148.5625 L 69.519531 148.558594 L 69.726562 148.542969 L 69.933594 148.515625 L 70.136719 148.480469 L 70.335938 148.433594 L 70.53125 148.375 L 70.722656 148.304688 L 70.914062 148.226562 L 71.097656 148.136719 L 71.28125 148.039062 L 71.457031 147.925781 L 71.625 147.800781 L 71.789062 147.667969 L 71.941406 147.53125 L 72.09375 147.382812 L 72.234375 147.226562 L 72.367188 147.058594 L 72.496094 146.886719 L 72.617188 146.703125 L 72.730469 146.511719 L 72.832031 146.316406 L 72.925781 146.109375 L 73.011719 145.902344 L 73.082031 145.683594 L 73.140625 145.464844 L 73.191406 145.234375 L 73.230469 145 L 73.257812 144.761719 L 73.273438 144.515625 L 73.28125 144.261719 L 73.269531 143.886719 L 73.238281 143.527344 L 73.183594 143.183594 L 73.105469 142.855469 L 73.011719 142.542969 L 72.890625 142.25 L 72.753906 141.972656 L 72.589844 141.710938 L 72.410156 141.464844 L 72.203125 141.238281 L 71.988281 141.027344 L 71.753906 140.84375 L 71.507812 140.675781 L 71.25 140.535156 L 70.972656 140.414062 L 70.683594 140.3125 L 70.378906 140.238281 L 70.058594 140.183594 L 69.726562 140.148438 L 69.378906 140.136719 L 69.195312 140.140625 L 69.019531 140.148438 L 68.847656 140.164062 L 68.679688 140.1875 L 68.515625 140.214844 L 68.359375 140.246094 L 68.207031 140.285156 L 68.058594 140.332031 L 67.917969 140.382812 L 67.78125 140.4375 L 67.648438 140.496094 L 67.515625 140.558594 L 67.382812 140.625 L 67.246094 140.695312 L 67.109375 140.769531 L 66.972656 140.847656 L 66.832031 140.933594 L 66.691406 141.023438 L 66.546875 141.117188 L 66.40625 141.214844 L 65.628906 140.738281 L 66.203125 133.261719 L 73.578125 133.261719 L 73.578125 134.238281 L 67.203125 134.238281 L 66.703125 140.011719 L 66.828125 139.941406 L 66.957031 139.871094 L 67.082031 139.800781 L 67.210938 139.738281 L 67.34375 139.675781 L 67.472656 139.617188 L 67.738281 139.507812 L 68.003906 139.414062 L 68.140625 139.367188 L 68.28125 139.324219 L 68.425781 139.285156 L 68.578125 139.253906 L 68.730469 139.226562 L 68.886719 139.203125 L 69.046875 139.1875 L 69.210938 139.171875 L 69.382812 139.164062 L 69.554688 139.164062 L 69.820312 139.167969 L 70.085938 139.183594 L 70.34375 139.210938 L 70.59375 139.25 L 70.84375 139.300781 L 71.085938 139.359375 L 71.320312 139.433594 L 71.554688 139.515625 L 71.78125 139.609375 L 72.003906 139.714844 L 72.222656 139.824219 L 72.433594 139.945312 L 72.636719 140.082031 L 72.828125 140.230469 L 73.011719 140.386719 L 73.183594 140.558594 L 73.347656 140.742188 L 73.5 140.9375 L 73.644531 141.144531 L 73.78125 141.363281 L 73.902344 141.589844 L 74.011719 141.828125 L 74.109375 142.082031 L 74.195312 142.347656 L 74.265625 142.625 L 74.324219 142.917969 L 74.371094 143.222656 L 74.402344 143.539062 L 74.421875 143.871094 L 74.429688 144.214844 L 74.421875 144.546875 L 74.398438 144.875 L 74.363281 145.1875 L 74.308594 145.492188 L 74.242188 145.789062 L 74.160156 146.074219 L 74.0625 146.347656 L 73.949219 146.613281 L 73.820312 146.867188 L 73.679688 147.113281 L 73.53125 147.34375 L 73.371094 147.5625 L 73.203125 147.769531 L 73.027344 147.964844 L 72.84375 148.152344 L 72.648438 148.324219 L 72.445312 148.488281 L 72.230469 148.640625 L 72.011719 148.78125 L 71.78125 148.914062 L 71.546875 149.03125 L 71.3125 149.136719 L 71.074219 149.230469 L 70.835938 149.3125 L 70.59375 149.382812 L 70.34375 149.4375 L 70.097656 149.480469 L 69.84375 149.511719 L 69.585938 149.53125 Z M 69.328125 149.539062 "/>
<path fill-rule="nonzero" fill="rgb(10.196078%, 10.196078%, 10.196078%)" fill-opacity="1" d="M 81.605469 149.539062 L 81.160156 149.515625 L 80.734375 149.449219 L 80.332031 149.34375 L 79.949219 149.191406 L 79.585938 148.996094 L 79.242188 148.753906 L 78.921875 148.472656 L 78.621094 148.144531 L 78.339844 147.777344 L 78.078125 147.363281 L 77.84375 146.910156 L 77.628906 146.421875 L 77.441406 145.894531 L 77.28125 145.332031 L 77.140625 144.730469 L 77.03125 144.097656 L 76.941406 143.425781 L 76.878906 142.714844 L 76.84375 141.96875 L 76.828125 141.1875 L 76.84375 140.410156 L 76.878906 139.671875 L 76.941406 138.96875 L 77.03125 138.304688 L 77.140625 137.675781 L 77.28125 137.085938 L 77.441406 136.53125 L 77.628906 136.011719 L 77.84375 135.53125 L 78.078125 135.089844 L 78.339844 134.683594 L 78.621094 134.324219 L 78.921875 134.003906 L 79.242188 133.726562 L 79.585938 133.496094 L 79.949219 133.304688 L 80.332031 133.15625 L 80.734375 133.046875 L 81.160156 132.984375 L 81.605469 132.964844 L 82.054688 132.984375 L 82.480469 133.046875 L 82.886719 133.15625 L 83.273438 133.304688 L 83.636719 133.496094 L 83.976562 133.726562 L 84.296875 134.003906 L 84.597656 134.324219 L 84.875 134.683594 L 85.128906 135.089844 L 85.367188 135.53125 L 85.578125 136.011719 L 85.765625 136.53125 L 85.929688 137.085938 L 86.066406 137.675781 L 86.179688 138.304688 L 86.265625 138.96875 L 86.328125 139.671875 L 86.367188 140.410156 L 86.378906 141.1875 L 86.367188 141.96875 L 86.328125 142.714844 L 86.265625 143.425781 L 86.179688 144.097656 L 86.066406 144.730469 L 85.929688 145.332031 L 85.765625 145.894531 L 85.578125 146.421875 L 85.367188 146.910156 L 85.128906 147.363281 L 84.875 147.777344 L 84.597656 148.144531 L 84.296875 148.472656 L 83.976562 148.753906 L 83.636719 148.996094 L 83.273438 149.191406 L 82.886719 149.34375 L 82.480469 149.449219 L 82.054688 149.515625 Z M 81.605469 148.589844 L 81.933594 148.570312 L 82.246094 148.511719 L 82.546875 148.417969 L 82.832031 148.289062 L 83.105469 148.121094 L 83.363281 147.914062 L 83.605469 147.667969 L 83.835938 147.386719 L 84.050781 147.070312 L 84.253906 146.714844 L 84.445312 146.320312 L 84.613281 145.890625 L 84.765625 145.429688 L 84.894531 144.929688 L 85.003906 144.394531 L 85.09375 143.824219 L 85.164062 143.21875 L 85.214844 142.578125 L 85.246094 141.902344 L 85.253906 141.1875 L 85.246094 140.476562 L 85.214844 139.800781 L 85.164062 139.164062 L 85.09375 138.5625 L 85.003906 138 L 84.894531 137.472656 L 84.765625 136.984375 L 84.613281 136.53125 L 84.445312 136.117188 L 84.253906 135.738281 L 84.050781 135.390625 L 83.835938 135.082031 L 83.605469 134.808594 L 83.363281 134.570312 L 83.105469 134.371094 L 82.832031 134.207031 L 82.546875 134.078125 L 82.246094 133.984375 L 81.933594 133.929688 L 81.605469 133.914062 L 81.28125 133.929688 L 80.96875 133.984375 L 80.671875 134.078125 L 80.386719 134.207031 L 80.117188 134.371094 L 79.859375 134.570312 L 79.613281 134.808594 L 79.378906 135.082031 L 79.160156 135.390625 L 78.953125 135.738281 L 78.765625 136.117188 L 78.59375 136.53125 L 78.445312 136.984375 L 78.3125 137.472656 L 78.203125 138 L 78.113281 138.5625 L 78.042969 139.164062 L 77.996094 139.800781 L 77.964844 140.476562 L 77.953125 141.1875 L 77.964844 141.902344 L 77.996094 142.578125 L 78.042969 143.21875 L 78.113281 143.824219 L 78.203125 144.394531 L 78.3125 144.929688 L 78.445312 145.429688 L 78.59375 145.890625 L 78.765625 146.320312 L 78.953125 146.714844 L 79.160156 147.070312 L 79.378906 147.386719 L 79.613281 147.667969 L 79.859375 147.914062 L 80.117188 148.121094 L 80.386719 148.289062 L 80.671875 148.417969 L 80.96875 148.511719 L 81.28125 148.570312 Z M 81.605469 148.589844 "/>
<path fill-rule="nonzero" fill="rgb(10.196078%, 10.196078%, 10.196078%)" fill-opacity="1" d="M 81.605469 63.496094 L 81.160156 63.472656 L 80.734375 63.40625 L 80.332031 63.296875 L 79.949219 63.148438 L 79.585938 62.949219 L 79.242188 62.710938 L 78.921875 62.429688 L 78.621094 62.101562 L 78.339844 61.734375 L 78.078125 61.320312 L 77.84375 60.867188 L 77.628906 60.375 L 77.441406 59.851562 L 77.28125 59.289062 L 77.140625 58.6875 L 77.03125 58.050781 L 76.941406 57.378906 L 76.878906 56.671875 L 76.84375 55.925781 L 76.828125 55.144531 L 76.84375 54.367188 L 76.878906 53.628906 L 76.941406 52.925781 L 77.03125 52.261719 L 77.140625 51.632812 L 77.28125 51.039062 L 77.441406 50.484375 L 77.628906 49.96875 L 77.84375 49.488281 L 78.078125 49.042969 L 78.339844 48.640625 L 78.621094 48.28125 L 78.921875 47.960938 L 79.242188 47.683594 L 79.585938 47.449219 L 79.949219 47.257812 L 80.332031 47.109375 L 80.734375 47.003906 L 81.160156 46.941406 L 81.605469 46.917969 L 82.054688 46.941406 L 82.480469 47.003906 L 82.886719 47.109375 L 83.273438 47.257812 L 83.636719 47.449219 L 83.976562 47.683594 L 84.296875 47.960938 L 84.597656 48.28125 L 84.875 48.640625 L 85.128906 49.042969 L 85.367188 49.488281 L 85.578125 49.96875 L 85.765625 50.484375 L 85.929688 51.039062 L 86.066406 51.632812 L 86.179688 52.261719 L 86.265625 52.925781 L 86.328125 53.628906 L 86.367188 54.367188 L 86.378906 55.144531 L 86.367188 55.925781 L 86.328125 56.671875 L 86.265625 57.378906 L 86.179688 58.050781 L 86.066406 58.6875 L 85.929688 59.289062 L 85.765625 59.851562 L 85.578125 60.375 L 85.367188 60.867188 L 85.128906 61.320312 L 84.875 61.734375 L 84.597656 62.101562 L 84.296875 62.429688 L 83.976562 62.710938 L 83.636719 62.949219 L 83.273438 63.148438 L 82.886719 63.296875 L 82.480469 63.40625 L 82.054688 63.472656 Z M 81.605469 62.542969 L 81.933594 62.527344 L 82.246094 62.46875 L 82.546875 62.375 L 82.832031 62.246094 L 83.105469 62.074219 L 83.363281 61.871094 L 83.605469 61.625 L 83.835938 61.34375 L 84.050781 61.027344 L 84.253906 60.667969 L 84.445312 60.277344 L 84.613281 59.847656 L 84.765625 59.386719 L 84.894531 58.886719 L 85.003906 58.351562 L 85.09375 57.78125 L 85.164062 57.175781 L 85.214844 56.535156 L 85.246094 55.855469 L 85.253906 55.144531 L 85.246094 54.433594 L 85.214844 53.757812 L 85.164062 53.121094 L 85.09375 52.519531 L 85.003906 51.957031 L 84.894531 51.429688 L 84.765625 50.941406 L 84.613281 50.488281 L 84.445312 50.074219 L 84.253906 49.695312 L 84.050781 49.347656 L 83.835938 49.039062 L 83.605469 48.765625 L 83.363281 48.527344 L 83.105469 48.324219 L 82.832031 48.160156 L 82.546875 48.035156 L 82.246094 47.941406 L 81.933594 47.886719 L 81.605469 47.871094 L 81.28125 47.886719 L 80.96875 47.941406 L 80.671875 48.035156 L 80.386719 48.160156 L 80.117188 48.324219 L 79.859375 48.527344 L 79.613281 48.765625 L 79.378906 49.039062 L 79.160156 49.347656 L 78.953125 49.695312 L 78.765625 50.074219 L 78.59375 50.488281 L 78.445312 50.941406 L 78.3125 51.429688 L 78.203125 51.957031 L 78.113281 52.519531 L 78.042969 53.121094 L 77.996094 53.757812 L 77.964844 54.433594 L 77.953125 55.144531 L 77.964844 55.855469 L 77.996094 56.535156 L 78.042969 57.175781 L 78.113281 57.78125 L 78.203125 58.351562 L 78.3125 58.886719 L 78.445312 59.386719 L 78.59375 59.847656 L 78.765625 60.277344 L 78.953125 60.667969 L 79.160156 61.027344 L 79.378906 61.34375 L 79.613281 61.625 L 79.859375 61.871094 L 80.117188 62.074219 L 80.386719 62.246094 L 80.671875 62.375 L 80.96875 62.46875 L 81.28125 62.527344 Z M 81.605469 62.542969 "/>
<path fill-rule="nonzero" fill="rgb(10.196078%, 10.196078%, 10.196078%)" fill-opacity="1" d="M 171.359375 410.320312 L 171.105469 410.316406 L 170.863281 410.308594 L 170.625 410.292969 L 170.390625 410.269531 L 170.164062 410.238281 L 169.945312 410.203125 L 169.734375 410.160156 L 169.527344 410.113281 L 169.328125 410.058594 L 169.132812 409.996094 L 168.953125 409.929688 L 168.773438 409.859375 L 168.601562 409.785156 L 168.433594 409.707031 L 168.269531 409.625 L 168.113281 409.542969 L 167.960938 409.453125 L 167.8125 409.363281 L 167.671875 409.269531 L 167.535156 409.171875 L 167.269531 408.96875 L 167.140625 408.871094 L 167.019531 408.769531 L 166.894531 408.671875 L 166.777344 408.570312 L 166.664062 408.46875 L 166.550781 408.371094 L 166.441406 408.269531 L 166.332031 408.171875 L 166.957031 407.394531 L 167.105469 407.539062 L 167.261719 407.683594 L 167.417969 407.820312 L 167.582031 407.960938 L 167.753906 408.09375 L 167.929688 408.230469 L 168.109375 408.363281 L 168.292969 408.492188 L 168.488281 408.621094 L 168.683594 408.746094 L 168.894531 408.859375 L 169.117188 408.960938 L 169.351562 409.050781 L 169.601562 409.128906 L 169.859375 409.195312 L 170.128906 409.25 L 170.414062 409.292969 L 170.707031 409.320312 L 171.015625 409.339844 L 171.332031 409.34375 L 171.546875 409.339844 L 171.757812 409.324219 L 171.964844 409.296875 L 172.164062 409.261719 L 172.363281 409.214844 L 172.5625 409.15625 L 172.753906 409.089844 L 172.941406 409.007812 L 173.128906 408.921875 L 173.308594 408.820312 L 173.484375 408.707031 L 173.65625 408.582031 L 173.816406 408.453125 L 173.972656 408.3125 L 174.121094 408.164062 L 174.261719 408.007812 L 174.398438 407.84375 L 174.523438 407.667969 L 174.644531 407.488281 L 174.757812 407.296875 L 174.863281 407.097656 L 174.957031 406.894531 L 175.039062 406.683594 L 175.109375 406.46875 L 175.171875 406.246094 L 175.222656 406.019531 L 175.257812 405.785156 L 175.285156 405.542969 L 175.304688 405.296875 L 175.308594 405.046875 L 175.296875 404.667969 L 175.265625 404.308594 L 175.210938 403.964844 L 175.136719 403.636719 L 175.039062 403.328125 L 174.921875 403.03125 L 174.78125 402.753906 L 174.621094 402.492188 L 174.4375 402.25 L 174.234375 402.019531 L 174.015625 401.8125 L 173.785156 401.625 L 173.539062 401.460938 L 173.277344 401.316406 L 173.003906 401.195312 L 172.714844 401.097656 L 172.410156 401.019531 L 172.089844 400.964844 L 171.757812 400.933594 L 171.410156 400.921875 L 171.226562 400.921875 L 171.050781 400.933594 L 170.875 400.949219 L 170.707031 400.96875 L 170.546875 400.996094 L 170.390625 401.027344 L 170.238281 401.066406 L 170.089844 401.113281 L 169.945312 401.164062 L 169.808594 401.21875 L 169.679688 401.277344 L 169.546875 401.339844 L 169.414062 401.40625 L 169.277344 401.476562 L 169.140625 401.550781 L 169 401.632812 L 168.863281 401.714844 L 168.722656 401.804688 L 168.578125 401.898438 L 168.433594 401.996094 L 167.660156 401.519531 L 168.234375 394.046875 L 175.609375 394.046875 L 175.609375 395.019531 L 169.234375 395.019531 L 168.734375 400.796875 L 168.859375 400.722656 L 168.984375 400.652344 L 169.242188 400.519531 L 169.371094 400.457031 L 169.5 400.398438 L 169.632812 400.34375 L 169.898438 400.242188 L 170.171875 400.148438 L 170.3125 400.105469 L 170.457031 400.066406 L 170.605469 400.035156 L 170.757812 400.007812 L 170.914062 399.984375 L 171.078125 399.96875 L 171.242188 399.957031 L 171.410156 399.949219 L 171.582031 399.945312 L 171.851562 399.949219 L 172.113281 399.96875 L 172.371094 399.996094 L 172.625 400.035156 L 172.871094 400.082031 L 173.113281 400.144531 L 173.351562 400.214844 L 173.582031 400.296875 L 173.8125 400.390625 L 174.035156 400.496094 L 174.253906 400.605469 L 174.464844 400.730469 L 174.667969 400.863281 L 174.859375 401.011719 L 175.039062 401.171875 L 175.214844 401.339844 L 175.375 401.523438 L 175.53125 401.71875 L 175.675781 401.925781 L 175.808594 402.144531 L 175.933594 402.371094 L 176.042969 402.613281 L 176.140625 402.863281 L 176.226562 403.128906 L 176.296875 403.40625 L 176.355469 403.699219 L 176.402344 404.003906 L 176.433594 404.320312 L 176.453125 404.652344 L 176.457031 404.996094 L 176.453125 405.332031 L 176.429688 405.65625 L 176.390625 405.96875 L 176.339844 406.277344 L 176.269531 406.570312 L 176.1875 406.855469 L 176.089844 407.128906 L 175.980469 407.394531 L 175.851562 407.652344 L 175.707031 407.894531 L 175.558594 408.125 L 175.402344 408.34375 L 175.234375 408.550781 L 175.058594 408.746094 L 174.871094 408.933594 L 174.675781 409.109375 L 174.472656 409.269531 L 174.261719 409.421875 L 174.039062 409.566406 L 173.808594 409.695312 L 173.578125 409.8125 L 173.34375 409.921875 L 173.105469 410.015625 L 172.863281 410.09375 L 172.621094 410.164062 L 172.375 410.21875 L 172.125 410.265625 L 171.871094 410.296875 L 171.617188 410.3125 Z M 171.359375 410.320312 "/>
<path fill-rule="nonzero" fill="rgb(10.196078%, 10.196078%, 10.196078%)" fill-opacity="1" d="M 234.484375 410.019531 L 234.484375 409.046875 L 238.234375 409.046875 L 238.234375 395.796875 L 235.386719 395.796875 L 235.386719 395.046875 L 235.578125 395.011719 L 235.769531 394.972656 L 235.953125 394.933594 L 236.132812 394.894531 L 236.3125 394.851562 L 236.484375 394.808594 L 236.652344 394.765625 L 236.816406 394.71875 L 236.980469 394.667969 L 237.136719 394.621094 L 237.289062 394.570312 L 237.4375 394.519531 L 237.582031 394.464844 L 237.71875 394.410156 L 237.855469 394.351562 L 237.984375 394.292969 L 238.109375 394.234375 L 238.230469 394.171875 L 238.347656 394.109375 L 238.460938 394.046875 L 239.359375 394.046875 L 239.359375 409.046875 L 242.835938 409.046875 L 242.835938 410.019531 Z M 234.484375 410.019531 "/>
<path fill-rule="nonzero" fill="rgb(10.196078%, 10.196078%, 10.196078%)" fill-opacity="1" d="M 250.335938 410.320312 L 249.890625 410.300781 L 249.464844 410.234375 L 249.0625 410.125 L 248.679688 409.972656 L 248.316406 409.777344 L 247.976562 409.539062 L 247.652344 409.253906 L 247.351562 408.929688 L 247.070312 408.558594 L 246.8125 408.144531 L 246.574219 407.691406 L 246.359375 407.203125 L 246.171875 406.675781 L 246.011719 406.113281 L 245.875 405.515625 L 245.761719 404.878906 L 245.671875 404.207031 L 245.609375 403.496094 L 245.574219 402.753906 L 245.5625 401.96875 L 245.574219 401.195312 L 245.609375 400.453125 L 245.671875 399.753906 L 245.761719 399.085938 L 245.875 398.457031 L 246.011719 397.867188 L 246.171875 397.3125 L 246.359375 396.792969 L 246.574219 396.3125 L 246.8125 395.871094 L 247.070312 395.46875 L 247.351562 395.105469 L 247.652344 394.785156 L 247.976562 394.511719 L 248.316406 394.277344 L 248.679688 394.085938 L 249.0625 393.9375 L 249.464844 393.832031 L 249.890625 393.765625 L 250.335938 393.746094 L 250.785156 393.765625 L 251.210938 393.832031 L 251.617188 393.9375 L 252.003906 394.085938 L 252.367188 394.277344 L 252.707031 394.511719 L 253.027344 394.785156 L 253.328125 395.105469 L 253.605469 395.46875 L 253.859375 395.871094 L 254.097656 396.3125 L 254.3125 396.792969 L 254.5 397.3125 L 254.660156 397.867188 L 254.796875 398.457031 L 254.910156 399.085938 L 255 399.753906 L 255.0625 400.453125 L 255.097656 401.195312 L 255.109375 401.96875 L 255.097656 402.753906 L 255.0625 403.496094 L 255 404.207031 L 254.910156 404.878906 L 254.796875 405.515625 L 254.660156 406.113281 L 254.5 406.675781 L 254.3125 407.203125 L 254.097656 407.691406 L 253.859375 408.144531 L 253.605469 408.558594 L 253.328125 408.929688 L 253.027344 409.253906 L 252.707031 409.539062 L 252.367188 409.777344 L 252.003906 409.972656 L 251.617188 410.125 L 251.210938 410.234375 L 250.785156 410.300781 Z M 250.335938 409.371094 L 250.664062 409.351562 L 250.976562 409.296875 L 251.277344 409.203125 L 251.5625 409.070312 L 251.835938 408.902344 L 252.09375 408.695312 L 252.335938 408.453125 L 252.566406 408.171875 L 252.785156 407.851562 L 252.984375 407.496094 L 253.175781 407.101562 L 253.347656 406.675781 L 253.496094 406.210938 L 253.625 405.710938 L 253.734375 405.175781 L 253.824219 404.605469 L 253.894531 404 L 253.945312 403.359375 L 253.976562 402.683594 L 253.984375 401.96875 L 253.976562 401.257812 L 253.945312 400.585938 L 253.894531 399.945312 L 253.824219 399.347656 L 253.734375 398.78125 L 253.625 398.257812 L 253.496094 397.765625 L 253.347656 397.316406 L 253.175781 396.898438 L 252.984375 396.519531 L 252.785156 396.175781 L 252.566406 395.863281 L 252.335938 395.589844 L 252.09375 395.351562 L 251.835938 395.152344 L 251.5625 394.988281 L 251.277344 394.859375 L 250.976562 394.769531 L 250.664062 394.714844 L 250.335938 394.695312 L 250.011719 394.714844 L 249.703125 394.769531 L 249.402344 394.859375 L 249.121094 394.988281 L 248.847656 395.152344 L 248.589844 395.351562 L 248.34375 395.589844 L 248.113281 395.863281 L 247.890625 396.175781 L 247.6875 396.519531 L 247.496094 396.898438 L 247.324219 397.316406 L 247.175781 397.765625 L 247.046875 398.257812 L 246.9375 398.78125 L 246.847656 399.347656 L 246.777344 399.945312 L 246.726562 400.585938 L 246.695312 401.257812 L 246.6875 401.96875 L 246.695312 402.683594 L 246.726562 403.359375 L 246.777344 404 L 246.847656 404.605469 L 246.9375 405.175781 L 247.046875 405.710938 L 247.175781 406.210938 L 247.324219 406.675781 L 247.496094 407.101562 L 247.6875 407.496094 L 247.890625 407.851562 L 248.113281 408.171875 L 248.34375 408.453125 L 248.589844 408.695312 L 248.847656 408.902344 L 249.121094 409.070312 L 249.402344 409.203125 L 249.703125 409.296875 L 250.011719 409.351562 Z M 250.335938 409.371094 "/>
<path fill-rule="nonzero" fill="rgb(10.196078%, 10.196078%, 10.196078%)" fill-opacity="1" d="M 307.175781 410.019531 L 307.175781 409.046875 L 310.925781 409.046875 L 310.925781 395.796875 L 308.074219 395.796875 L 308.074219 395.046875 L 308.269531 395.011719 L 308.457031 394.972656 L 308.824219 394.894531 L 309 394.851562 L 309.34375 394.765625 L 309.507812 394.71875 L 309.667969 394.667969 L 309.824219 394.621094 L 309.976562 394.570312 L 310.125 394.519531 L 310.269531 394.464844 L 310.410156 394.410156 L 310.675781 394.292969 L 310.800781 394.234375 L 310.921875 394.171875 L 311.039062 394.109375 L 311.148438 394.046875 L 312.050781 394.046875 L 312.050781 409.046875 L 315.523438 409.046875 L 315.523438 410.019531 Z M 307.175781 410.019531 "/>
<path fill-rule="nonzero" fill="rgb(10.196078%, 10.196078%, 10.196078%)" fill-opacity="1" d="M 322.726562 410.320312 L 322.472656 410.316406 L 322.226562 410.308594 L 321.988281 410.292969 L 321.757812 410.269531 L 321.53125 410.238281 L 321.3125 410.203125 L 321.097656 410.160156 L 320.894531 410.113281 L 320.695312 410.058594 L 320.5 409.996094 L 320.316406 409.929688 L 320.140625 409.859375 L 319.96875 409.785156 L 319.800781 409.707031 L 319.636719 409.625 L 319.480469 409.542969 L 319.328125 409.453125 L 319.179688 409.363281 L 319.039062 409.269531 L 318.898438 409.171875 L 318.765625 409.070312 L 318.636719 408.96875 L 318.507812 408.871094 L 318.382812 408.769531 L 318.261719 408.671875 L 318.027344 408.46875 L 317.917969 408.371094 L 317.804688 408.269531 L 317.699219 408.171875 L 318.324219 407.394531 L 318.472656 407.539062 L 318.625 407.683594 L 318.785156 407.820312 L 318.949219 407.960938 L 319.117188 408.09375 L 319.292969 408.230469 L 319.476562 408.363281 L 319.660156 408.492188 L 319.851562 408.621094 L 320.050781 408.746094 L 320.261719 408.859375 L 320.484375 408.960938 L 320.71875 409.050781 L 320.964844 409.128906 L 321.226562 409.195312 L 321.496094 409.25 L 321.777344 409.292969 L 322.074219 409.320312 L 322.382812 409.339844 L 322.699219 409.34375 L 322.914062 409.339844 L 323.125 409.324219 L 323.328125 409.296875 L 323.53125 409.261719 L 323.730469 409.214844 L 323.925781 409.15625 L 324.121094 409.089844 L 324.308594 409.007812 L 324.492188 408.921875 L 324.675781 408.820312 L 324.851562 408.707031 L 325.019531 408.582031 L 325.183594 408.453125 L 325.339844 408.3125 L 325.488281 408.164062 L 325.628906 408.007812 L 325.761719 407.84375 L 325.890625 407.667969 L 326.011719 407.488281 L 326.125 407.296875 L 326.230469 407.097656 L 326.324219 406.894531 L 326.40625 406.683594 L 326.476562 406.46875 L 326.539062 406.246094 L 326.585938 406.019531 L 326.625 405.785156 L 326.652344 405.542969 L 326.667969 405.296875 L 326.675781 405.046875 L 326.664062 404.667969 L 326.632812 404.308594 L 326.578125 403.964844 L 326.503906 403.636719 L 326.40625 403.328125 L 326.289062 403.03125 L 326.148438 402.753906 L 325.988281 402.492188 L 325.804688 402.25 L 325.601562 402.019531 L 325.382812 401.8125 L 325.152344 401.625 L 324.90625 401.460938 L 324.644531 401.316406 L 324.367188 401.195312 L 324.078125 401.097656 L 323.773438 401.019531 L 323.457031 400.964844 L 323.121094 400.933594 L 322.773438 400.921875 L 322.59375 400.921875 L 322.414062 400.933594 L 322.242188 400.949219 L 322.074219 400.96875 L 321.914062 400.996094 L 321.753906 401.027344 L 321.601562 401.066406 L 321.457031 401.113281 L 321.3125 401.164062 L 321.175781 401.21875 L 321.042969 401.277344 L 320.914062 401.339844 L 320.777344 401.40625 L 320.644531 401.476562 L 320.507812 401.550781 L 320.226562 401.714844 L 320.085938 401.804688 L 319.945312 401.898438 L 319.800781 401.996094 L 319.023438 401.519531 L 319.601562 394.046875 L 326.976562 394.046875 L 326.976562 395.019531 L 320.601562 395.019531 L 320.101562 400.796875 L 320.226562 400.722656 L 320.351562 400.652344 L 320.609375 400.519531 L 320.738281 400.457031 L 320.867188 400.398438 L 321 400.34375 L 321.265625 400.242188 L 321.398438 400.195312 L 321.539062 400.148438 L 321.679688 400.105469 L 321.824219 400.066406 L 321.972656 400.035156 L 322.125 400.007812 L 322.28125 399.984375 L 322.441406 399.96875 L 322.609375 399.957031 L 322.777344 399.949219 L 322.949219 399.945312 L 323.21875 399.949219 L 323.480469 399.96875 L 323.738281 399.996094 L 323.988281 400.035156 L 324.238281 400.082031 L 324.480469 400.144531 L 324.71875 400.214844 L 324.949219 400.296875 L 325.175781 400.390625 L 325.398438 400.496094 L 325.621094 400.605469 L 325.832031 400.730469 L 326.03125 400.863281 L 326.222656 401.011719 L 326.40625 401.171875 L 326.578125 401.339844 L 326.742188 401.523438 L 326.894531 401.71875 L 327.039062 401.925781 L 327.175781 402.144531 L 327.296875 402.371094 L 327.410156 402.613281 L 327.507812 402.863281 L 327.589844 403.128906 L 327.664062 403.40625 L 327.722656 403.699219 L 327.765625 404.003906 L 327.800781 404.320312 L 327.820312 404.652344 L 327.824219 404.996094 L 327.816406 405.332031 L 327.796875 405.65625 L 327.757812 405.96875 L 327.707031 406.277344 L 327.636719 406.570312 L 327.554688 406.855469 L 327.457031 407.128906 L 327.34375 407.394531 L 327.21875 407.652344 L 327.074219 407.894531 L 326.925781 408.125 L 326.765625 408.34375 L 326.601562 408.550781 L 326.421875 408.746094 L 326.238281 408.933594 L 326.042969 409.109375 L 325.839844 409.269531 L 325.628906 409.421875 L 325.40625 409.566406 L 325.175781 409.695312 L 324.945312 409.8125 L 324.710938 409.921875 L 324.472656 410.015625 L 324.230469 410.09375 L 323.988281 410.164062 L 323.742188 410.21875 L 323.492188 410.265625 L 323.238281 410.296875 L 322.984375 410.3125 Z M 322.726562 410.320312 "/>
<path fill-rule="nonzero" fill="rgb(10.196078%, 10.196078%, 10.196078%)" fill-opacity="1" d="M 378.789062 410.019531 L 378.789062 409.320312 L 379.304688 408.792969 L 379.804688 408.28125 L 380.285156 407.78125 L 380.75 407.296875 L 381.195312 406.828125 L 381.625 406.371094 L 382.035156 405.929688 L 382.429688 405.503906 L 382.804688 405.09375 L 383.164062 404.695312 L 383.503906 404.304688 L 383.828125 403.921875 L 384.136719 403.550781 L 384.425781 403.183594 L 384.695312 402.828125 L 384.949219 402.480469 L 385.1875 402.140625 L 385.40625 401.808594 L 385.605469 401.484375 L 385.789062 401.171875 L 385.957031 400.863281 L 386.105469 400.558594 L 386.234375 400.257812 L 386.347656 399.957031 L 386.445312 399.664062 L 386.523438 399.375 L 386.585938 399.085938 L 386.628906 398.800781 L 386.65625 398.523438 L 386.664062 398.246094 L 386.65625 397.949219 L 386.628906 397.664062 L 386.589844 397.386719 L 386.527344 397.121094 L 386.453125 396.863281 L 386.359375 396.617188 L 386.246094 396.378906 L 386.121094 396.148438 L 385.976562 395.929688 L 385.816406 395.71875 L 385.640625 395.527344 L 385.445312 395.351562 L 385.230469 395.199219 L 385 395.066406 L 384.746094 394.953125 L 384.472656 394.859375 L 384.183594 394.789062 L 383.871094 394.738281 L 383.539062 394.707031 L 383.191406 394.695312 L 382.976562 394.703125 L 382.761719 394.71875 L 382.554688 394.75 L 382.34375 394.792969 L 382.140625 394.84375 L 381.933594 394.910156 L 381.734375 394.988281 L 381.535156 395.078125 L 381.335938 395.183594 L 381.140625 395.296875 L 380.953125 395.417969 L 380.769531 395.546875 L 380.589844 395.683594 L 380.414062 395.824219 L 380.246094 395.96875 L 379.917969 396.28125 L 379.761719 396.449219 L 379.613281 396.617188 L 379.464844 396.796875 L 378.738281 396.09375 L 378.921875 395.898438 L 379.109375 395.707031 L 379.296875 395.523438 L 379.492188 395.347656 L 379.691406 395.175781 L 379.890625 395.011719 L 380.097656 394.855469 L 380.308594 394.703125 L 380.519531 394.558594 L 380.738281 394.421875 L 380.964844 394.292969 L 381.195312 394.175781 L 381.429688 394.078125 L 381.675781 393.988281 L 381.925781 393.914062 L 382.183594 393.855469 L 382.449219 393.804688 L 382.722656 393.773438 L 383.003906 393.753906 L 383.289062 393.746094 L 383.710938 393.757812 L 384.109375 393.792969 L 384.492188 393.855469 L 384.851562 393.941406 L 385.195312 394.050781 L 385.519531 394.1875 L 385.820312 394.347656 L 386.105469 394.53125 L 386.371094 394.738281 L 386.613281 394.96875 L 386.835938 395.222656 L 387.039062 395.492188 L 387.214844 395.777344 L 387.367188 396.078125 L 387.496094 396.394531 L 387.601562 396.730469 L 387.683594 397.078125 L 387.742188 397.441406 L 387.777344 397.824219 L 387.789062 398.21875 L 387.78125 398.535156 L 387.753906 398.851562 L 387.707031 399.171875 L 387.640625 399.488281 L 387.558594 399.808594 L 387.457031 400.128906 L 387.335938 400.449219 L 387.199219 400.773438 L 387.039062 401.097656 L 386.863281 401.421875 L 386.675781 401.75 L 386.472656 402.082031 L 386.257812 402.417969 L 386.023438 402.761719 L 385.777344 403.109375 L 385.515625 403.460938 L 385.238281 403.816406 L 384.945312 404.179688 L 384.636719 404.546875 L 384.316406 404.921875 L 383.984375 405.300781 L 383.640625 405.691406 L 383.285156 406.089844 L 382.917969 406.496094 L 382.539062 406.914062 L 382.148438 407.339844 L 381.746094 407.777344 L 381.332031 408.226562 L 380.902344 408.679688 L 380.464844 409.144531 L 380.59375 409.136719 L 380.726562 409.125 L 380.855469 409.117188 L 381.253906 409.09375 L 381.386719 409.089844 L 381.519531 409.082031 L 381.65625 409.074219 L 381.789062 409.070312 L 381.929688 409.0625 L 382.066406 409.050781 L 382.203125 409.046875 L 382.476562 409.03125 L 382.613281 409.027344 L 382.746094 409.023438 L 382.878906 409.023438 L 383.007812 409.019531 L 388.589844 409.019531 L 388.589844 410.019531 Z M 378.789062 410.019531 "/>
<path fill-rule="nonzero" fill="rgb(10.196078%, 10.196078%, 10.196078%)" fill-opacity="1" d="M 395.714844 410.320312 L 395.269531 410.300781 L 394.84375 410.234375 L 394.441406 410.125 L 394.058594 409.972656 L 393.695312 409.777344 L 393.351562 409.539062 L 393.03125 409.253906 L 392.730469 408.929688 L 392.449219 408.558594 L 392.191406 408.144531 L 391.953125 407.691406 L 391.738281 407.203125 L 391.550781 406.675781 L 391.390625 406.113281 L 391.253906 405.515625 L 391.140625 404.878906 L 391.050781 404.207031 L 390.988281 403.496094 L 390.953125 402.753906 L 390.941406 401.96875 L 390.953125 401.195312 L 390.988281 400.453125 L 391.050781 399.753906 L 391.140625 399.085938 L 391.253906 398.457031 L 391.390625 397.867188 L 391.550781 397.3125 L 391.738281 396.792969 L 391.953125 396.3125 L 392.191406 395.871094 L 392.449219 395.46875 L 392.730469 395.105469 L 393.03125 394.785156 L 393.351562 394.511719 L 393.695312 394.277344 L 394.058594 394.085938 L 394.441406 393.9375 L 394.84375 393.832031 L 395.269531 393.765625 L 395.714844 393.746094 L 396.164062 393.765625 L 396.589844 393.832031 L 396.996094 393.9375 L 397.382812 394.085938 L 397.746094 394.277344 L 398.085938 394.511719 L 398.40625 394.785156 L 398.707031 395.105469 L 398.984375 395.46875 L 399.238281 395.871094 L 399.476562 396.3125 L 399.691406 396.792969 L 399.878906 397.3125 L 400.039062 397.867188 L 400.175781 398.457031 L 400.289062 399.085938 L 400.378906 399.753906 L 400.441406 400.453125 L 400.476562 401.195312 L 400.488281 401.96875 L 400.476562 402.753906 L 400.441406 403.496094 L 400.378906 404.207031 L 400.289062 404.878906 L 400.175781 405.515625 L 400.039062 406.113281 L 399.878906 406.675781 L 399.691406 407.203125 L 399.476562 407.691406 L 399.238281 408.144531 L 398.984375 408.558594 L 398.707031 408.929688 L 398.40625 409.253906 L 398.085938 409.539062 L 397.746094 409.777344 L 397.382812 409.972656 L 396.996094 410.125 L 396.589844 410.234375 L 396.164062 410.300781 Z M 395.714844 409.371094 L 396.042969 409.351562 L 396.355469 409.296875 L 396.65625 409.203125 L 396.941406 409.070312 L 397.214844 408.902344 L 397.472656 408.695312 L 397.714844 408.453125 L 397.945312 408.171875 L 398.164062 407.851562 L 398.363281 407.496094 L 398.554688 407.101562 L 398.722656 406.675781 L 398.875 406.210938 L 399.003906 405.710938 L 399.113281 405.175781 L 399.203125 404.605469 L 399.273438 404 L 399.324219 403.359375 L 399.355469 402.683594 L 399.363281 401.96875 L 399.355469 401.257812 L 399.324219 400.585938 L 399.273438 399.945312 L 399.203125 399.347656 L 399.113281 398.78125 L 399.003906 398.257812 L 398.875 397.765625 L 398.722656 397.316406 L 398.554688 396.898438 L 398.363281 396.519531 L 398.164062 396.175781 L 397.945312 395.863281 L 397.714844 395.589844 L 397.472656 395.351562 L 397.214844 395.152344 L 396.941406 394.988281 L 396.65625 394.859375 L 396.355469 394.769531 L 396.042969 394.714844 L 395.714844 394.695312 L 395.390625 394.714844 L 395.082031 394.769531 L 394.78125 394.859375 L 394.5 394.988281 L 394.226562 395.152344 L 393.96875 395.351562 L 393.722656 395.589844 L 393.492188 395.863281 L 393.269531 396.175781 L 393.066406 396.519531 L 392.875 396.898438 L 392.703125 397.316406 L 392.554688 397.765625 L 392.425781 398.257812 L 392.316406 398.78125 L 392.222656 399.347656 L 392.15625 399.945312 L 392.105469 400.585938 L 392.074219 401.257812 L 392.066406 401.96875 L 392.074219 402.683594 L 392.105469 403.359375 L 392.15625 404 L 392.222656 404.605469 L 392.316406 405.175781 L 392.425781 405.710938 L 392.554688 406.210938 L 392.703125 406.675781 L 392.875 407.101562 L 393.066406 407.496094 L 393.269531 407.851562 L 393.492188 408.171875 L 393.722656 408.453125 L 393.96875 408.695312 L 394.226562 408.902344 L 394.5 409.070312 L 394.78125 409.203125 L 395.082031 409.296875 L 395.390625 409.351562 Z M 395.714844 409.371094 "/>
<path fill-rule="nonzero" fill="rgb(0%, 0%, 0%)" fill-opacity="1" d="M 245.582031 440.3125 L 250.925781 431.105469 L 245.960938 422.519531 L 247.308594 422.519531 L 250.226562 427.757812 L 250.300781 427.878906 L 250.449219 428.113281 L 250.519531 428.230469 L 250.589844 428.34375 L 250.660156 428.460938 L 250.726562 428.578125 L 250.796875 428.691406 L 250.863281 428.804688 L 250.925781 428.917969 L 250.992188 429.03125 L 251.0625 429.144531 L 251.132812 429.261719 L 251.203125 429.382812 L 251.277344 429.507812 L 251.355469 429.636719 L 251.433594 429.769531 L 251.597656 430.042969 L 251.683594 430.1875 L 251.792969 430.1875 L 251.867188 430.042969 L 251.941406 429.90625 L 252.011719 429.769531 L 252.082031 429.636719 L 252.148438 429.507812 L 252.214844 429.382812 L 252.28125 429.261719 L 252.34375 429.144531 L 252.40625 429.03125 L 252.464844 428.917969 L 252.527344 428.804688 L 252.585938 428.691406 L 252.648438 428.578125 L 252.714844 428.460938 L 252.777344 428.34375 L 252.84375 428.230469 L 252.976562 427.996094 L 253.046875 427.878906 L 253.113281 427.757812 L 256.03125 422.519531 L 257.300781 422.519531 L 252.332031 431.160156 L 257.675781 440.3125 L 256.328125 440.3125 L 253.222656 434.859375 L 253.152344 434.722656 L 253.082031 434.589844 L 253.007812 434.453125 L 252.933594 434.320312 L 252.859375 434.183594 L 252.78125 434.050781 L 252.703125 433.914062 L 252.625 433.78125 L 252.546875 433.644531 L 252.464844 433.507812 L 252.386719 433.375 L 252.214844 433.09375 L 252.128906 432.949219 L 252.042969 432.800781 L 251.953125 432.652344 L 251.859375 432.5 L 251.765625 432.34375 L 251.671875 432.183594 L 251.574219 432.023438 L 251.46875 432.023438 L 251.296875 432.34375 L 251.214844 432.5 L 251.136719 432.652344 L 251.054688 432.800781 L 250.976562 432.949219 L 250.902344 433.09375 L 250.753906 433.375 L 250.683594 433.507812 L 250.542969 433.78125 L 250.472656 433.914062 L 250.398438 434.050781 L 250.328125 434.183594 L 250.253906 434.320312 L 250.179688 434.453125 L 250.105469 434.589844 L 250.03125 434.722656 L 249.957031 434.859375 L 246.851562 440.3125 Z M 245.582031 440.3125 "/>
<path fill-rule="nonzero" fill="rgb(0%, 0%, 0%)" fill-opacity="1" d="M 31.242188 198.078125 L 24.035156 198.078125 L 13.449219 203.398438 L 13.449219 202.074219 L 19.011719 199.375 L 19.207031 199.285156 L 19.398438 199.191406 L 19.59375 199.101562 L 19.785156 199.007812 L 19.976562 198.917969 L 20.167969 198.824219 L 20.359375 198.734375 L 20.550781 198.640625 L 20.738281 198.550781 L 20.929688 198.457031 L 21.117188 198.367188 L 21.308594 198.273438 L 21.5 198.175781 L 21.691406 198.082031 L 22.277344 197.789062 L 22.476562 197.6875 L 22.671875 197.585938 L 22.871094 197.484375 L 22.871094 197.378906 L 22.671875 197.277344 L 22.476562 197.171875 L 22.277344 197.074219 L 21.886719 196.871094 L 21.691406 196.773438 L 21.5 196.671875 L 21.117188 196.476562 L 20.929688 196.378906 L 20.738281 196.28125 L 20.550781 196.1875 L 19.976562 195.90625 L 19.59375 195.726562 L 19.398438 195.636719 L 19.207031 195.546875 L 19.011719 195.460938 L 13.449219 192.761719 L 13.449219 191.492188 L 24.035156 196.835938 L 31.242188 196.835938 Z M 31.242188 198.078125 "/>
</svg>
