<?xml version="1.0" encoding="UTF-8"?>
<svg xmlns="http://www.w3.org/2000/svg" xmlns:xlink="http://www.w3.org/1999/xlink" width="576" height="475" viewBox="0 0 576 475">
<defs>
<clipPath id="clip-0">
<path clip-rule="nonzero" d="M 105.183594 40 L 562.550781 40 L 562.550781 396.441406 L 105.183594 396.441406 Z M 105.183594 40 "/>
</clipPath>
<clipPath id="clip-1">
<path clip-rule="nonzero" d="M 105.183594 338 L 562.550781 338 L 562.550781 342 L 105.183594 342 Z M 105.183594 338 "/>
</clipPath>
<clipPath id="clip-2">
<path clip-rule="nonzero" d="M 105.183594 263 L 562.550781 263 L 562.550781 266 L 105.183594 266 Z M 105.183594 263 "/>
</clipPath>
<clipPath id="clip-3">
<path clip-rule="nonzero" d="M 105.183594 187 L 562.550781 187 L 562.550781 191 L 105.183594 191 Z M 105.183594 187 "/>
</clipPath>
<clipPath id="clip-4">
<path clip-rule="nonzero" d="M 105.183594 112 L 562.550781 112 L 562.550781 115 L 105.183594 115 Z M 105.183594 112 "/>
</clipPath>
<clipPath id="clip-5">
<path clip-rule="nonzero" d="M 190 40 L 194 40 L 194 396.441406 L 190 396.441406 Z M 190 40 "/>
</clipPath>
<clipPath id="clip-6">
<path clip-rule="nonzero" d="M 333 40 L 337 40 L 337 396.441406 L 333 396.441406 Z M 333 40 "/>
</clipPath>
<clipPath id="clip-7">
<path clip-rule="nonzero" d="M 476 40 L 480 40 L 480 396.441406 L 476 396.441406 Z M 476 40 "/>
</clipPath>
</defs>
<rect x="-57.6" y="-47.5" width="691.2" height="570" fill="rgb(100%, 100%, 100%)" fill-opacity="1"/>
<rect x="-57.6" y="-47.5" width="691.2" height="570" fill="rgb(95.294118%, 95.294118%, 95.294118%)" fill-opacity="1"/>
<path fill="none" stroke-width="2.618947" stroke-linecap="round" stroke-linejoin="round" stroke="rgb(95.294118%, 95.294118%, 95.294118%)" stroke-opacity="1" stroke-miterlimit="10" d="M 0 475 L 576 475 L 576 0 L 0 0 Z M 0 475 "/>
<g clip-path="url(#clip-0)">
<path fill-rule="nonzero" fill="rgb(95.294118%, 95.294118%, 95.294118%)" fill-opacity="1" stroke-width="2.618947" stroke-linecap="round" stroke-linejoin="round" stroke="rgb(95.294118%, 95.294118%, 95.294118%)" stroke-opacity="1" stroke-miterlimit="10" d="M 105.183594 396.441406 L 562.550781 396.441406 L 562.550781 40 L 105.183594 40 Z M 105.183594 396.441406 "/>
</g>
<g clip-path="url(#clip-1)">
<path fill="none" stroke-width="2.618947" stroke-linecap="butt" stroke-linejoin="round" stroke="rgb(92.156863%, 92.156863%, 92.156863%)" stroke-opacity="1" stroke-miterlimit="10" d="M 105.183594 340.027344 L 562.550781 340.027344 "/>
</g>
<g clip-path="url(#clip-2)">
<path fill="none" stroke-width="2.618947" stroke-linecap="butt" stroke-linejoin="round" stroke="rgb(92.156863%, 92.156863%, 92.156863%)" stroke-opacity="1" stroke-miterlimit="10" d="M 105.183594 264.542969 L 562.550781 264.542969 "/>
</g>
<g clip-path="url(#clip-3)">
<path fill="none" stroke-width="2.618947" stroke-linecap="butt" stroke-linejoin="round" stroke="rgb(92.156863%, 92.156863%, 92.156863%)" stroke-opacity="1" stroke-miterlimit="10" d="M 105.183594 189.058594 L 562.550781 189.058594 "/>
</g>
<g clip-path="url(#clip-4)">
<path fill="none" stroke-width="2.618947" stroke-linecap="butt" stroke-linejoin="round" stroke="rgb(92.156863%, 92.156863%, 92.156863%)" stroke-opacity="1" stroke-miterlimit="10" d="M 105.183594 113.574219 L 562.550781 113.574219 "/>
</g>
<g clip-path="url(#clip-5)">
<path fill="none" stroke-width="2.618947" stroke-linecap="butt" stroke-linejoin="round" stroke="rgb(92.156863%, 92.156863%, 92.156863%)" stroke-opacity="1" stroke-miterlimit="10" d="M 192.035156 396.441406 L 192.035156 40 "/>
</g>
<g clip-path="url(#clip-6)">
<path fill="none" stroke-width="2.618947" stroke-linecap="butt" stroke-linejoin="round" stroke="rgb(92.156863%, 92.156863%, 92.156863%)" stroke-opacity="1" stroke-miterlimit="10" d="M 335.097656 396.441406 L 335.097656 40 "/>
</g>
<g clip-path="url(#clip-7)">
<path fill="none" stroke-width="2.618947" stroke-linecap="butt" stroke-linejoin="round" stroke="rgb(92.156863%, 92.156863%, 92.156863%)" stroke-opacity="1" stroke-miterlimit="10" d="M 478.160156 396.441406 L 478.160156 40 "/>
</g>
<path fill-rule="nonzero" fill="rgb(38.039216%, 81.568627%, 30.980392%)" fill-opacity="0.2" stroke-width="1.066978" stroke-linecap="butt" stroke-linejoin="miter" stroke="rgb(100%, 100%, 100%)" stroke-opacity="1" stroke-miterlimit="10" d="M 125.972656 264.542969 L 155.847656 264.542969 L 155.847656 212.15625 L 125.972656 212.15625 Z M 125.972656 264.542969 "/>
<path fill-rule="nonzero" fill="rgb(38.039216%, 81.568627%, 30.980392%)" fill-opacity="0.2" stroke-width="1.066978" stroke-linecap="butt" stroke-linejoin="miter" stroke="rgb(100%, 100%, 100%)" stroke-opacity="1" stroke-miterlimit="10" d="M 155.847656 264.542969 L 185.722656 264.542969 L 185.722656 243.589844 L 155.847656 243.589844 Z M 155.847656 264.542969 "/>
<path fill-rule="nonzero" fill="rgb(38.039216%, 81.568627%, 30.980392%)" fill-opacity="0.2" stroke-width="1.066978" stroke-linecap="butt" stroke-linejoin="miter" stroke="rgb(100%, 100%, 100%)" stroke-opacity="1" stroke-miterlimit="10" d="M 185.722656 264.542969 L 215.597656 264.542969 L 215.597656 201.679688 L 185.722656 201.679688 Z M 185.722656 264.542969 "/>
<path fill-rule="nonzero" fill="rgb(38.039216%, 81.568627%, 30.980392%)" fill-opacity="0.2" stroke-width="1.066978" stroke-linecap="butt" stroke-linejoin="miter" stroke="rgb(100%, 100%, 100%)" stroke-opacity="1" stroke-miterlimit="10" d="M 215.597656 264.542969 L 245.472656 264.542969 L 245.472656 212.15625 L 215.597656 212.15625 Z M 215.597656 264.542969 "/>
<path fill-rule="nonzero" fill="rgb(38.039216%, 81.568627%, 30.980392%)" fill-opacity="0.2" stroke-width="1.066978" stroke-linecap="butt" stroke-linejoin="miter" stroke="rgb(100%, 100%, 100%)" stroke-opacity="1" stroke-miterlimit="10" d="M 245.472656 264.542969 L 275.347656 264.542969 L 275.347656 201.679688 L 245.472656 201.679688 Z M 245.472656 264.542969 "/>
<path fill-rule="nonzero" fill="rgb(38.039216%, 81.568627%, 30.980392%)" fill-opacity="0.2" stroke-width="1.066978" stroke-linecap="butt" stroke-linejoin="miter" stroke="rgb(100%, 100%, 100%)" stroke-opacity="1" stroke-miterlimit="10" d="M 275.347656 264.542969 L 305.222656 264.542969 L 305.222656 159.769531 L 275.347656 159.769531 Z M 275.347656 264.542969 "/>
<path fill-rule="nonzero" fill="rgb(38.039216%, 81.568627%, 30.980392%)" fill-opacity="0.2" stroke-width="1.066978" stroke-linecap="butt" stroke-linejoin="miter" stroke="rgb(100%, 100%, 100%)" stroke-opacity="1" stroke-miterlimit="10" d="M 305.222656 264.542969 L 335.097656 264.542969 L 335.097656 212.15625 L 305.222656 212.15625 Z M 305.222656 264.542969 "/>
<path fill-rule="nonzero" fill="rgb(38.039216%, 81.568627%, 30.980392%)" fill-opacity="0.2" stroke-width="1.066978" stroke-linecap="butt" stroke-linejoin="miter" stroke="rgb(100%, 100%, 100%)" stroke-opacity="1" stroke-miterlimit="10" d="M 335.097656 264.542969 L 369.542969 264.542969 L 369.542969 200.929688 L 335.097656 200.929688 Z M 335.097656 264.542969 "/>
<path fill-rule="nonzero" fill="rgb(38.039216%, 81.568627%, 30.980392%)" fill-opacity="0.2" stroke-width="1.066978" stroke-linecap="butt" stroke-linejoin="miter" stroke="rgb(100%, 100%, 100%)" stroke-opacity="1" stroke-miterlimit="10" d="M 369.542969 264.542969 L 403.988281 264.542969 L 403.988281 191.84375 L 369.542969 191.84375 Z M 369.542969 264.542969 "/>
<path fill-rule="nonzero" fill="rgb(38.039216%, 81.568627%, 30.980392%)" fill-opacity="0.2" stroke-width="1.066978" stroke-linecap="butt" stroke-linejoin="miter" stroke="rgb(100%, 100%, 100%)" stroke-opacity="1" stroke-miterlimit="10" d="M 403.984375 264.542969 L 438.429688 264.542969 L 438.429688 200.929688 L 403.984375 200.929688 Z M 403.984375 264.542969 "/>
<path fill-rule="nonzero" fill="rgb(38.039216%, 81.568627%, 30.980392%)" fill-opacity="0.2" stroke-width="1.066978" stroke-linecap="butt" stroke-linejoin="miter" stroke="rgb(100%, 100%, 100%)" stroke-opacity="1" stroke-miterlimit="10" d="M 438.429688 264.542969 L 472.875 264.542969 L 472.875 228.191406 L 438.429688 228.191406 Z M 438.429688 264.542969 "/>
<path fill-rule="nonzero" fill="rgb(38.039216%, 81.568627%, 30.980392%)" fill-opacity="0.2" stroke-width="1.066978" stroke-linecap="butt" stroke-linejoin="miter" stroke="rgb(100%, 100%, 100%)" stroke-opacity="1" stroke-miterlimit="10" d="M 472.875 264.542969 L 507.320312 264.542969 L 507.320312 237.28125 L 472.875 237.28125 Z M 472.875 264.542969 "/>
<path fill-rule="nonzero" fill="rgb(38.039216%, 81.568627%, 30.980392%)" fill-opacity="0.2" stroke-width="1.066978" stroke-linecap="butt" stroke-linejoin="miter" stroke="rgb(100%, 100%, 100%)" stroke-opacity="1" stroke-miterlimit="10" d="M 507.316406 264.542969 L 541.761719 264.542969 L 541.761719 255.457031 L 507.316406 255.457031 Z M 507.316406 264.542969 "/>
<path fill-rule="nonzero" fill="rgb(0%, 0%, 0%)" fill-opacity="0.2" d="M 125.972656 175.605469 L 149.210938 212.890625 L 172.445312 199.195312 L 195.679688 193.6875 L 218.917969 189.46875 L 242.152344 176.71875 L 265.390625 157.085938 L 288.625 152.84375 L 311.863281 162.578125 L 335.097656 121.386719 L 335.097656 380.238281 L 311.863281 235.648438 L 288.625 212 L 265.390625 220.484375 L 242.152344 226.066406 L 218.917969 239.195312 L 195.679688 247.496094 L 172.445312 248.214844 L 149.210938 257.371094 L 125.972656 298.105469 Z M 125.972656 175.605469 "/>
<path fill="none" stroke-width="1.066978" stroke-linecap="butt" stroke-linejoin="round" stroke="rgb(0%, 0%, 0%)" stroke-opacity="1" stroke-miterlimit="10" d="M 125.972656 246.671875 L 149.210938 234.519531 L 172.445312 226.253906 L 195.679688 218.929688 L 218.917969 210.671875 L 242.152344 202.585938 L 265.390625 194.769531 L 288.625 188.914062 L 311.863281 190.699219 L 335.097656 207.296875 "/>
<path fill-rule="nonzero" fill="rgb(87.45098%, 32.54902%, 41.960784%)" fill-opacity="0.2" d="M 335.097656 56.203125 L 358.058594 162.433594 L 381.023438 173.675781 L 403.984375 173.363281 L 426.949219 179.117188 L 449.910156 194.824219 L 472.875 208.957031 L 495.835938 226.28125 L 518.796875 242.320312 L 541.761719 213.9375 L 541.761719 346.429688 L 518.796875 270.265625 L 495.835938 267.339844 L 472.875 255.195312 L 449.910156 241.386719 L 426.949219 232.515625 L 403.984375 225.78125 L 381.023438 222.5625 L 358.058594 235.21875 L 335.097656 314.496094 Z M 335.097656 56.203125 "/>
<path fill="none" stroke-width="1.066978" stroke-linecap="butt" stroke-linejoin="round" stroke="rgb(87.45098%, 32.54902%, 41.960784%)" stroke-opacity="1" stroke-miterlimit="10" d="M 335.097656 196.320312 L 358.058594 199.542969 L 381.023438 200.125 L 403.984375 204.429688 L 426.949219 211.050781 L 449.910156 221.058594 L 472.875 232.941406 L 495.835938 245.554688 L 518.796875 257.179688 L 541.761719 265.472656 "/>
<path fill-rule="nonzero" fill="rgb(10.196078%, 10.196078%, 10.196078%)" fill-opacity="1" d="M 45.203125 342.511719 L 45.203125 341.539062 L 50.703125 341.539062 L 50.703125 342.511719 Z M 45.203125 342.511719 "/>
<path fill-rule="nonzero" fill="rgb(10.196078%, 10.196078%, 10.196078%)" fill-opacity="1" d="M 57.65625 348.5625 L 57.210938 348.542969 L 56.785156 348.476562 L 56.382812 348.367188 L 56 348.214844 L 55.636719 348.019531 L 55.292969 347.78125 L 54.972656 347.496094 L 54.671875 347.171875 L 54.390625 346.800781 L 54.128906 346.386719 L 53.890625 345.933594 L 53.679688 345.445312 L 53.492188 344.917969 L 53.328125 344.355469 L 53.191406 343.757812 L 53.078125 343.121094 L 52.992188 342.449219 L 52.929688 341.738281 L 52.890625 340.996094 L 52.878906 340.214844 L 52.890625 339.4375 L 52.929688 338.695312 L 52.992188 337.996094 L 53.078125 337.328125 L 53.191406 336.699219 L 53.328125 336.109375 L 53.492188 335.554688 L 53.679688 335.035156 L 53.890625 334.554688 L 54.128906 334.113281 L 54.390625 333.710938 L 54.671875 333.347656 L 54.972656 333.027344 L 55.292969 332.753906 L 55.636719 332.519531 L 56 332.328125 L 56.382812 332.179688 L 56.785156 332.074219 L 57.210938 332.007812 L 57.65625 331.988281 L 58.105469 332.007812 L 58.53125 332.074219 L 58.9375 332.179688 L 59.324219 332.328125 L 59.6875 332.519531 L 60.027344 332.753906 L 60.347656 333.027344 L 60.644531 333.347656 L 60.921875 333.710938 L 61.179688 334.113281 L 61.417969 334.554688 L 61.628906 335.035156 L 61.816406 335.554688 L 61.980469 336.109375 L 62.117188 336.699219 L 62.230469 337.328125 L 62.316406 337.996094 L 62.378906 338.695312 L 62.417969 339.4375 L 62.429688 340.214844 L 62.417969 340.996094 L 62.378906 341.738281 L 62.316406 342.449219 L 62.230469 343.121094 L 62.117188 343.757812 L 61.980469 344.355469 L 61.816406 344.917969 L 61.628906 345.445312 L 61.417969 345.933594 L 61.179688 346.386719 L 60.921875 346.800781 L 60.644531 347.171875 L 60.347656 347.496094 L 60.027344 347.78125 L 59.6875 348.019531 L 59.324219 348.214844 L 58.9375 348.367188 L 58.53125 348.476562 L 58.105469 348.542969 Z M 57.65625 347.613281 L 57.980469 347.59375 L 58.296875 347.539062 L 58.597656 347.445312 L 58.882812 347.3125 L 59.15625 347.144531 L 59.414062 346.9375 L 59.65625 346.695312 L 59.886719 346.414062 L 60.101562 346.09375 L 60.304688 345.738281 L 60.496094 345.34375 L 60.664062 344.917969 L 60.8125 344.453125 L 60.945312 343.953125 L 61.054688 343.417969 L 61.144531 342.847656 L 61.214844 342.242188 L 61.265625 341.601562 L 61.292969 340.925781 L 61.304688 340.214844 L 61.292969 339.5 L 61.265625 338.828125 L 61.214844 338.191406 L 61.144531 337.589844 L 61.054688 337.027344 L 60.945312 336.5 L 60.8125 336.007812 L 60.664062 335.558594 L 60.496094 335.140625 L 60.304688 334.761719 L 60.101562 334.417969 L 59.886719 334.105469 L 59.65625 333.832031 L 59.414062 333.59375 L 59.15625 333.394531 L 58.882812 333.230469 L 58.597656 333.101562 L 58.296875 333.011719 L 57.980469 332.957031 L 57.65625 332.9375 L 57.332031 332.957031 L 57.019531 333.011719 L 56.722656 333.101562 L 56.4375 333.230469 L 56.167969 333.394531 L 55.910156 333.59375 L 55.664062 333.832031 L 55.429688 334.105469 L 55.210938 334.417969 L 55.003906 334.761719 L 54.8125 335.140625 L 54.644531 335.558594 L 54.496094 336.007812 L 54.363281 336.5 L 54.253906 337.027344 L 54.164062 337.589844 L 54.09375 338.191406 L 54.042969 338.828125 L 54.015625 339.5 L 54.003906 340.214844 L 54.015625 340.925781 L 54.042969 341.601562 L 54.09375 342.242188 L 54.164062 342.847656 L 54.253906 343.417969 L 54.363281 343.953125 L 54.496094 344.453125 L 54.644531 344.917969 L 54.8125 345.34375 L 55.003906 345.738281 L 55.210938 346.09375 L 55.429688 346.414062 L 55.664062 346.695312 L 55.910156 346.9375 L 56.167969 347.144531 L 56.4375 347.3125 L 56.722656 347.445312 L 57.019531 347.539062 L 57.332031 347.59375 Z M 57.65625 347.613281 "/>
<path fill-rule="nonzero" fill="rgb(10.196078%, 10.196078%, 10.196078%)" fill-opacity="1" d="M 66.40625 348.5625 L 66.324219 348.558594 L 66.246094 348.550781 L 66.167969 348.535156 L 66.09375 348.515625 L 66.015625 348.488281 L 65.941406 348.453125 L 65.867188 348.414062 L 65.796875 348.371094 L 65.726562 348.320312 L 65.65625 348.261719 L 65.59375 348.199219 L 65.539062 348.132812 L 65.488281 348.0625 L 65.445312 347.988281 L 65.410156 347.90625 L 65.382812 347.820312 L 65.359375 347.734375 L 65.34375 347.640625 L 65.332031 347.539062 L 65.328125 347.4375 L 65.332031 347.332031 L 65.34375 347.226562 L 65.359375 347.128906 L 65.382812 347.039062 L 65.410156 346.949219 L 65.445312 346.867188 L 65.488281 346.789062 L 65.539062 346.71875 L 65.59375 346.652344 L 65.65625 346.589844 L 65.726562 346.53125 L 65.796875 346.480469 L 65.867188 346.433594 L 65.941406 346.394531 L 66.015625 346.363281 L 66.09375 346.335938 L 66.167969 346.316406 L 66.246094 346.300781 L 66.324219 346.289062 L 66.488281 346.289062 L 66.570312 346.300781 L 66.648438 346.316406 L 66.722656 346.335938 L 66.796875 346.363281 L 66.871094 346.394531 L 66.9375 346.433594 L 67.003906 346.480469 L 67.066406 346.53125 L 67.128906 346.589844 L 67.191406 346.652344 L 67.246094 346.71875 L 67.296875 346.789062 L 67.335938 346.867188 L 67.375 346.949219 L 67.402344 347.039062 L 67.425781 347.128906 L 67.441406 347.226562 L 67.449219 347.332031 L 67.453125 347.4375 L 67.449219 347.539062 L 67.441406 347.640625 L 67.425781 347.734375 L 67.402344 347.820312 L 67.375 347.90625 L 67.335938 347.988281 L 67.296875 348.0625 L 67.246094 348.132812 L 67.191406 348.199219 L 67.128906 348.261719 L 67.066406 348.320312 L 67.003906 348.371094 L 66.9375 348.414062 L 66.871094 348.453125 L 66.796875 348.488281 L 66.722656 348.515625 L 66.648438 348.535156 L 66.570312 348.550781 L 66.488281 348.558594 Z M 66.40625 348.5625 "/>
<path fill-rule="nonzero" fill="rgb(10.196078%, 10.196078%, 10.196078%)" fill-opacity="1" d="M 75.105469 348.5625 L 74.660156 348.542969 L 74.234375 348.476562 L 73.832031 348.367188 L 73.449219 348.214844 L 73.085938 348.019531 L 72.742188 347.78125 L 72.421875 347.496094 L 72.121094 347.171875 L 71.839844 346.800781 L 71.578125 346.386719 L 71.34375 345.933594 L 71.128906 345.445312 L 70.941406 344.917969 L 70.78125 344.355469 L 70.640625 343.757812 L 70.53125 343.121094 L 70.441406 342.449219 L 70.378906 341.738281 L 70.34375 340.996094 L 70.328125 340.214844 L 70.34375 339.4375 L 70.378906 338.695312 L 70.441406 337.996094 L 70.53125 337.328125 L 70.640625 336.699219 L 70.78125 336.109375 L 70.941406 335.554688 L 71.128906 335.035156 L 71.34375 334.554688 L 71.578125 334.113281 L 71.839844 333.710938 L 72.121094 333.347656 L 72.421875 333.027344 L 72.742188 332.753906 L 73.085938 332.519531 L 73.449219 332.328125 L 73.832031 332.179688 L 74.234375 332.074219 L 74.660156 332.007812 L 75.105469 331.988281 L 75.554688 332.007812 L 75.980469 332.074219 L 76.386719 332.179688 L 76.773438 332.328125 L 77.136719 332.519531 L 77.476562 332.753906 L 77.796875 333.027344 L 78.097656 333.347656 L 78.375 333.710938 L 78.628906 334.113281 L 78.867188 334.554688 L 79.078125 335.035156 L 79.265625 335.554688 L 79.429688 336.109375 L 79.566406 336.699219 L 79.679688 337.328125 L 79.765625 337.996094 L 79.828125 338.695312 L 79.867188 339.4375 L 79.878906 340.214844 L 79.867188 340.996094 L 79.828125 341.738281 L 79.765625 342.449219 L 79.679688 343.121094 L 79.566406 343.757812 L 79.429688 344.355469 L 79.265625 344.917969 L 79.078125 345.445312 L 78.867188 345.933594 L 78.628906 346.386719 L 78.375 346.800781 L 78.097656 347.171875 L 77.796875 347.496094 L 77.476562 347.78125 L 77.136719 348.019531 L 76.773438 348.214844 L 76.386719 348.367188 L 75.980469 348.476562 L 75.554688 348.542969 Z M 75.105469 347.613281 L 75.433594 347.59375 L 75.746094 347.539062 L 76.046875 347.445312 L 76.332031 347.3125 L 76.605469 347.144531 L 76.863281 346.9375 L 77.105469 346.695312 L 77.335938 346.414062 L 77.550781 346.09375 L 77.753906 345.738281 L 77.945312 345.34375 L 78.113281 344.917969 L 78.265625 344.453125 L 78.394531 343.953125 L 78.503906 343.417969 L 78.59375 342.847656 L 78.664062 342.242188 L 78.714844 341.601562 L 78.746094 340.925781 L 78.753906 340.214844 L 78.746094 339.5 L 78.714844 338.828125 L 78.664062 338.191406 L 78.59375 337.589844 L 78.503906 337.027344 L 78.394531 336.5 L 78.265625 336.007812 L 78.113281 335.558594 L 77.945312 335.140625 L 77.753906 334.761719 L 77.550781 334.417969 L 77.335938 334.105469 L 77.105469 333.832031 L 76.863281 333.59375 L 76.605469 333.394531 L 76.332031 333.230469 L 76.046875 333.101562 L 75.746094 333.011719 L 75.433594 332.957031 L 75.105469 332.9375 L 74.78125 332.957031 L 74.46875 333.011719 L 74.171875 333.101562 L 73.886719 333.230469 L 73.617188 333.394531 L 73.359375 333.59375 L 73.113281 333.832031 L 72.878906 334.105469 L 72.660156 334.417969 L 72.453125 334.761719 L 72.265625 335.140625 L 72.09375 335.558594 L 71.945312 336.007812 L 71.8125 336.5 L 71.703125 337.027344 L 71.613281 337.589844 L 71.542969 338.191406 L 71.496094 338.828125 L 71.464844 339.5 L 71.453125 340.214844 L 71.464844 340.925781 L 71.496094 341.601562 L 71.542969 342.242188 L 71.613281 342.847656 L 71.703125 343.417969 L 71.8125 343.953125 L 71.945312 344.453125 L 72.09375 344.917969 L 72.265625 345.34375 L 72.453125 345.738281 L 72.660156 346.09375 L 72.878906 346.414062 L 73.113281 346.695312 L 73.359375 346.9375 L 73.617188 347.144531 L 73.886719 347.3125 L 74.171875 347.445312 L 74.46875 347.539062 L 74.78125 347.59375 Z M 75.105469 347.613281 "/>
<path fill-rule="nonzero" fill="rgb(10.196078%, 10.196078%, 10.196078%)" fill-opacity="1" d="M 86.78125 348.5625 L 86.527344 348.558594 L 86.28125 348.550781 L 86.042969 348.535156 L 85.8125 348.511719 L 85.585938 348.480469 L 85.367188 348.445312 L 85.152344 348.402344 L 84.949219 348.355469 L 84.746094 348.300781 L 84.554688 348.238281 L 84.371094 348.171875 L 84.195312 348.101562 L 84.023438 348.027344 L 83.855469 347.949219 L 83.691406 347.871094 L 83.535156 347.785156 L 83.382812 347.695312 L 83.234375 347.605469 L 83.09375 347.511719 L 82.953125 347.414062 L 82.820312 347.3125 L 82.691406 347.214844 L 82.5625 347.113281 L 82.4375 347.011719 L 82.316406 346.914062 L 82.199219 346.8125 L 82.082031 346.714844 L 81.96875 346.613281 L 81.859375 346.511719 L 81.753906 346.414062 L 82.378906 345.636719 L 82.527344 345.78125 L 82.679688 345.925781 L 82.839844 346.0625 L 83.003906 346.203125 L 83.171875 346.339844 L 83.347656 346.472656 L 83.527344 346.605469 L 83.714844 346.734375 L 83.90625 346.863281 L 84.105469 346.988281 L 84.316406 347.101562 L 84.539062 347.203125 L 84.773438 347.292969 L 85.019531 347.371094 L 85.28125 347.4375 L 85.550781 347.492188 L 85.832031 347.535156 L 86.128906 347.5625 L 86.433594 347.582031 L 86.753906 347.589844 L 86.96875 347.582031 L 87.175781 347.566406 L 87.382812 347.539062 L 87.585938 347.503906 L 87.785156 347.457031 L 87.980469 347.398438 L 88.171875 347.332031 L 88.363281 347.253906 L 88.546875 347.164062 L 88.730469 347.0625 L 88.90625 346.949219 L 89.074219 346.824219 L 89.238281 346.695312 L 89.394531 346.554688 L 89.542969 346.40625 L 89.683594 346.25 L 89.816406 346.085938 L 89.945312 345.910156 L 90.066406 345.730469 L 90.179688 345.539062 L 90.285156 345.339844 L 90.378906 345.136719 L 90.460938 344.925781 L 90.53125 344.710938 L 90.59375 344.488281 L 90.640625 344.261719 L 90.679688 344.027344 L 90.707031 343.785156 L 90.722656 343.539062 L 90.730469 343.289062 L 90.71875 342.910156 L 90.6875 342.550781 L 90.632812 342.207031 L 90.558594 341.878906 L 90.460938 341.570312 L 90.34375 341.273438 L 90.203125 340.996094 L 90.042969 340.734375 L 89.859375 340.492188 L 89.65625 340.261719 L 89.4375 340.054688 L 89.207031 339.867188 L 88.960938 339.703125 L 88.699219 339.558594 L 88.421875 339.4375 L 88.132812 339.339844 L 87.828125 339.261719 L 87.511719 339.207031 L 87.175781 339.175781 L 86.828125 339.164062 L 86.648438 339.164062 L 86.46875 339.175781 L 86.296875 339.191406 L 86.128906 339.210938 L 85.96875 339.238281 L 85.808594 339.269531 L 85.65625 339.308594 L 85.507812 339.355469 L 85.367188 339.40625 L 85.230469 339.464844 L 85.097656 339.519531 L 84.964844 339.582031 L 84.832031 339.648438 L 84.699219 339.71875 L 84.5625 339.792969 L 84.28125 339.957031 L 84.140625 340.046875 L 84 340.140625 L 83.855469 340.238281 L 83.078125 339.761719 L 83.65625 332.289062 L 91.03125 332.289062 L 91.03125 333.261719 L 84.65625 333.261719 L 84.15625 339.039062 L 84.28125 338.964844 L 84.40625 338.894531 L 84.664062 338.761719 L 84.792969 338.699219 L 84.921875 338.640625 L 85.054688 338.585938 L 85.320312 338.484375 L 85.453125 338.4375 L 85.589844 338.390625 L 85.730469 338.347656 L 85.878906 338.308594 L 86.027344 338.277344 L 86.179688 338.25 L 86.335938 338.226562 L 86.496094 338.210938 L 86.664062 338.199219 L 86.832031 338.191406 L 87.003906 338.1875 L 87.273438 338.195312 L 87.535156 338.210938 L 87.792969 338.238281 L 88.042969 338.277344 L 88.292969 338.324219 L 88.535156 338.386719 L 88.773438 338.457031 L 89.003906 338.539062 L 89.230469 338.632812 L 89.453125 338.738281 L 89.675781 338.847656 L 89.886719 338.972656 L 90.085938 339.105469 L 90.277344 339.253906 L 90.460938 339.414062 L 90.632812 339.585938 L 90.796875 339.765625 L 90.949219 339.960938 L 91.09375 340.167969 L 91.230469 340.386719 L 91.351562 340.613281 L 91.464844 340.855469 L 91.5625 341.105469 L 91.644531 341.371094 L 91.71875 341.652344 L 91.773438 341.941406 L 91.820312 342.246094 L 91.851562 342.5625 L 91.871094 342.894531 L 91.878906 343.238281 L 91.871094 343.574219 L 91.847656 343.898438 L 91.8125 344.214844 L 91.757812 344.519531 L 91.691406 344.8125 L 91.609375 345.097656 L 91.511719 345.371094 L 91.398438 345.636719 L 91.273438 345.894531 L 91.128906 346.136719 L 90.980469 346.367188 L 90.820312 346.585938 L 90.652344 346.792969 L 90.476562 346.988281 L 90.292969 347.175781 L 90.097656 347.351562 L 89.894531 347.511719 L 89.679688 347.664062 L 89.460938 347.808594 L 89.230469 347.9375 L 88.996094 348.058594 L 88.761719 348.164062 L 88.527344 348.257812 L 88.285156 348.339844 L 88.042969 348.40625 L 87.796875 348.464844 L 87.546875 348.507812 L 87.292969 348.539062 L 87.039062 348.558594 Z M 86.78125 348.5625 "/>
<path fill-rule="nonzero" fill="rgb(10.196078%, 10.196078%, 10.196078%)" fill-opacity="1" d="M 57.65625 273.078125 L 57.210938 273.058594 L 56.785156 272.992188 L 56.382812 272.882812 L 56 272.730469 L 55.636719 272.535156 L 55.292969 272.296875 L 54.972656 272.015625 L 54.671875 271.6875 L 54.390625 271.316406 L 54.128906 270.90625 L 53.890625 270.453125 L 53.679688 269.960938 L 53.492188 269.433594 L 53.328125 268.871094 L 53.191406 268.273438 L 53.078125 267.636719 L 52.992188 266.964844 L 52.929688 266.257812 L 52.890625 265.511719 L 52.878906 264.730469 L 52.890625 263.953125 L 52.929688 263.214844 L 52.992188 262.511719 L 53.078125 261.84375 L 53.191406 261.21875 L 53.328125 260.625 L 53.492188 260.070312 L 53.679688 259.554688 L 53.890625 259.074219 L 54.128906 258.628906 L 54.390625 258.226562 L 54.671875 257.863281 L 54.972656 257.546875 L 55.292969 257.269531 L 55.636719 257.035156 L 56 256.84375 L 56.382812 256.695312 L 56.785156 256.589844 L 57.210938 256.527344 L 57.65625 256.503906 L 58.105469 256.527344 L 58.53125 256.589844 L 58.9375 256.695312 L 59.324219 256.84375 L 59.6875 257.035156 L 60.027344 257.269531 L 60.347656 257.546875 L 60.644531 257.863281 L 60.921875 258.226562 L 61.179688 258.628906 L 61.417969 259.074219 L 61.628906 259.554688 L 61.816406 260.070312 L 61.980469 260.625 L 62.117188 261.21875 L 62.230469 261.84375 L 62.316406 262.511719 L 62.378906 263.214844 L 62.417969 263.953125 L 62.429688 264.730469 L 62.417969 265.511719 L 62.378906 266.257812 L 62.316406 266.964844 L 62.230469 267.636719 L 62.117188 268.273438 L 61.980469 268.871094 L 61.816406 269.433594 L 61.628906 269.960938 L 61.417969 270.453125 L 61.179688 270.90625 L 60.921875 271.316406 L 60.644531 271.6875 L 60.347656 272.015625 L 60.027344 272.296875 L 59.6875 272.535156 L 59.324219 272.730469 L 58.9375 272.882812 L 58.53125 272.992188 L 58.105469 273.058594 Z M 57.65625 272.128906 L 57.980469 272.109375 L 58.296875 272.054688 L 58.597656 271.960938 L 58.882812 271.828125 L 59.15625 271.660156 L 59.414062 271.453125 L 59.65625 271.210938 L 59.886719 270.929688 L 60.101562 270.609375 L 60.304688 270.253906 L 60.496094 269.863281 L 60.664062 269.433594 L 60.8125 268.96875 L 60.945312 268.46875 L 61.054688 267.9375 L 61.144531 267.367188 L 61.214844 266.761719 L 61.265625 266.117188 L 61.292969 265.441406 L 61.304688 264.730469 L 61.292969 264.019531 L 61.265625 263.34375 L 61.214844 262.707031 L 61.144531 262.105469 L 61.054688 261.542969 L 60.945312 261.015625 L 60.8125 260.527344 L 60.664062 260.074219 L 60.496094 259.65625 L 60.304688 259.28125 L 60.101562 258.933594 L 59.886719 258.621094 L 59.65625 258.347656 L 59.414062 258.113281 L 59.15625 257.910156 L 58.882812 257.746094 L 58.597656 257.617188 L 58.296875 257.527344 L 57.980469 257.472656 L 57.65625 257.453125 L 57.332031 257.472656 L 57.019531 257.527344 L 56.722656 257.617188 L 56.4375 257.746094 L 56.167969 257.910156 L 55.910156 258.113281 L 55.664062 258.347656 L 55.429688 258.621094 L 55.210938 258.933594 L 55.003906 259.28125 L 54.8125 259.65625 L 54.644531 260.074219 L 54.496094 260.527344 L 54.363281 261.015625 L 54.253906 261.542969 L 54.164062 262.105469 L 54.09375 262.707031 L 54.042969 263.34375 L 54.015625 264.019531 L 54.003906 264.730469 L 54.015625 265.441406 L 54.042969 266.117188 L 54.09375 266.761719 L 54.164062 267.367188 L 54.253906 267.9375 L 54.363281 268.46875 L 54.496094 268.96875 L 54.644531 269.433594 L 54.8125 269.863281 L 55.003906 270.253906 L 55.210938 270.609375 L 55.429688 270.929688 L 55.664062 271.210938 L 55.910156 271.453125 L 56.167969 271.660156 L 56.4375 271.828125 L 56.722656 271.960938 L 57.019531 272.054688 L 57.332031 272.109375 Z M 57.65625 272.128906 "/>
<path fill-rule="nonzero" fill="rgb(10.196078%, 10.196078%, 10.196078%)" fill-opacity="1" d="M 66.40625 273.078125 L 66.324219 273.078125 L 66.246094 273.066406 L 66.167969 273.050781 L 66.09375 273.03125 L 66.015625 273.003906 L 65.941406 272.972656 L 65.867188 272.933594 L 65.796875 272.886719 L 65.726562 272.835938 L 65.65625 272.78125 L 65.59375 272.71875 L 65.539062 272.652344 L 65.488281 272.578125 L 65.445312 272.503906 L 65.410156 272.421875 L 65.382812 272.339844 L 65.359375 272.25 L 65.34375 272.15625 L 65.332031 272.058594 L 65.328125 271.953125 L 65.332031 271.847656 L 65.34375 271.746094 L 65.359375 271.648438 L 65.382812 271.554688 L 65.410156 271.46875 L 65.445312 271.382812 L 65.488281 271.308594 L 65.539062 271.234375 L 65.59375 271.167969 L 65.65625 271.105469 L 65.726562 271.046875 L 65.796875 270.996094 L 65.867188 270.953125 L 65.941406 270.914062 L 66.015625 270.878906 L 66.09375 270.851562 L 66.167969 270.832031 L 66.246094 270.816406 L 66.324219 270.808594 L 66.40625 270.804688 L 66.488281 270.808594 L 66.570312 270.816406 L 66.648438 270.832031 L 66.722656 270.851562 L 66.796875 270.878906 L 66.871094 270.914062 L 66.9375 270.953125 L 67.003906 270.996094 L 67.066406 271.046875 L 67.128906 271.105469 L 67.191406 271.167969 L 67.246094 271.234375 L 67.296875 271.308594 L 67.335938 271.382812 L 67.375 271.46875 L 67.402344 271.554688 L 67.425781 271.648438 L 67.441406 271.746094 L 67.449219 271.847656 L 67.453125 271.953125 L 67.449219 272.058594 L 67.441406 272.15625 L 67.425781 272.25 L 67.402344 272.339844 L 67.375 272.421875 L 67.335938 272.503906 L 67.296875 272.578125 L 67.246094 272.652344 L 67.191406 272.71875 L 67.128906 272.78125 L 67.066406 272.835938 L 67.003906 272.886719 L 66.9375 272.933594 L 66.871094 272.972656 L 66.796875 273.003906 L 66.722656 273.03125 L 66.648438 273.050781 L 66.570312 273.066406 L 66.488281 273.078125 Z M 66.40625 273.078125 "/>
<path fill-rule="nonzero" fill="rgb(10.196078%, 10.196078%, 10.196078%)" fill-opacity="1" d="M 75.105469 273.078125 L 74.660156 273.058594 L 74.234375 272.992188 L 73.832031 272.882812 L 73.449219 272.730469 L 73.085938 272.535156 L 72.742188 272.296875 L 72.421875 272.015625 L 72.121094 271.6875 L 71.839844 271.316406 L 71.578125 270.90625 L 71.34375 270.453125 L 71.128906 269.960938 L 70.941406 269.433594 L 70.78125 268.871094 L 70.640625 268.273438 L 70.53125 267.636719 L 70.441406 266.964844 L 70.378906 266.257812 L 70.34375 265.511719 L 70.328125 264.730469 L 70.34375 263.953125 L 70.378906 263.214844 L 70.441406 262.511719 L 70.53125 261.84375 L 70.640625 261.21875 L 70.78125 260.625 L 70.941406 260.070312 L 71.128906 259.554688 L 71.34375 259.074219 L 71.578125 258.628906 L 71.839844 258.226562 L 72.121094 257.863281 L 72.421875 257.546875 L 72.742188 257.269531 L 73.085938 257.035156 L 73.449219 256.84375 L 73.832031 256.695312 L 74.234375 256.589844 L 74.660156 256.527344 L 75.105469 256.503906 L 75.554688 256.527344 L 75.980469 256.589844 L 76.386719 256.695312 L 76.773438 256.84375 L 77.136719 257.035156 L 77.476562 257.269531 L 77.796875 257.546875 L 78.097656 257.863281 L 78.375 258.226562 L 78.628906 258.628906 L 78.867188 259.074219 L 79.078125 259.554688 L 79.265625 260.070312 L 79.429688 260.625 L 79.566406 261.21875 L 79.679688 261.84375 L 79.765625 262.511719 L 79.828125 263.214844 L 79.867188 263.953125 L 79.878906 264.730469 L 79.867188 265.511719 L 79.828125 266.257812 L 79.765625 266.964844 L 79.679688 267.636719 L 79.566406 268.273438 L 79.429688 268.871094 L 79.265625 269.433594 L 79.078125 269.960938 L 78.867188 270.453125 L 78.628906 270.90625 L 78.375 271.316406 L 78.097656 271.6875 L 77.796875 272.015625 L 77.476562 272.296875 L 77.136719 272.535156 L 76.773438 272.730469 L 76.386719 272.882812 L 75.980469 272.992188 L 75.554688 273.058594 Z M 75.105469 272.128906 L 75.433594 272.109375 L 75.746094 272.054688 L 76.046875 271.960938 L 76.332031 271.828125 L 76.605469 271.660156 L 76.863281 271.453125 L 77.105469 271.210938 L 77.335938 270.929688 L 77.550781 270.609375 L 77.753906 270.253906 L 77.945312 269.863281 L 78.113281 269.433594 L 78.265625 268.96875 L 78.394531 268.46875 L 78.503906 267.9375 L 78.59375 267.367188 L 78.664062 266.761719 L 78.714844 266.117188 L 78.746094 265.441406 L 78.753906 264.730469 L 78.746094 264.019531 L 78.714844 263.34375 L 78.664062 262.707031 L 78.59375 262.105469 L 78.503906 261.542969 L 78.394531 261.015625 L 78.265625 260.527344 L 78.113281 260.074219 L 77.945312 259.65625 L 77.753906 259.28125 L 77.550781 258.933594 L 77.335938 258.621094 L 77.105469 258.347656 L 76.863281 258.113281 L 76.605469 257.910156 L 76.332031 257.746094 L 76.046875 257.617188 L 75.746094 257.527344 L 75.433594 257.472656 L 75.105469 257.453125 L 74.78125 257.472656 L 74.46875 257.527344 L 74.171875 257.617188 L 73.886719 257.746094 L 73.617188 257.910156 L 73.359375 258.113281 L 73.113281 258.347656 L 72.878906 258.621094 L 72.660156 258.933594 L 72.453125 259.28125 L 72.265625 259.65625 L 72.09375 260.074219 L 71.945312 260.527344 L 71.8125 261.015625 L 71.703125 261.542969 L 71.613281 262.105469 L 71.542969 262.707031 L 71.496094 263.34375 L 71.464844 264.019531 L 71.453125 264.730469 L 71.464844 265.441406 L 71.496094 266.117188 L 71.542969 266.761719 L 71.613281 267.367188 L 71.703125 267.9375 L 71.8125 268.46875 L 71.945312 268.96875 L 72.09375 269.433594 L 72.265625 269.863281 L 72.453125 270.253906 L 72.660156 270.609375 L 72.878906 270.929688 L 73.113281 271.210938 L 73.359375 271.453125 L 73.617188 271.660156 L 73.886719 271.828125 L 74.171875 271.960938 L 74.46875 272.054688 L 74.78125 272.109375 Z M 75.105469 272.128906 "/>
<path fill-rule="nonzero" fill="rgb(10.196078%, 10.196078%, 10.196078%)" fill-opacity="1" d="M 87.078125 273.078125 L 86.632812 273.058594 L 86.210938 272.992188 L 85.804688 272.882812 L 85.421875 272.730469 L 85.0625 272.535156 L 84.71875 272.296875 L 84.398438 272.015625 L 84.09375 271.6875 L 83.816406 271.316406 L 83.554688 270.90625 L 83.316406 270.453125 L 83.105469 269.960938 L 82.917969 269.433594 L 82.753906 268.871094 L 82.617188 268.273438 L 82.503906 267.636719 L 82.417969 266.964844 L 82.355469 266.257812 L 82.316406 265.511719 L 82.304688 264.730469 L 82.316406 263.953125 L 82.355469 263.214844 L 82.417969 262.511719 L 82.503906 261.84375 L 82.617188 261.21875 L 82.753906 260.625 L 82.917969 260.070312 L 83.105469 259.554688 L 83.316406 259.074219 L 83.554688 258.628906 L 83.816406 258.226562 L 84.09375 257.863281 L 84.398438 257.546875 L 84.71875 257.269531 L 85.0625 257.035156 L 85.421875 256.84375 L 85.804688 256.695312 L 86.210938 256.589844 L 86.632812 256.527344 L 87.078125 256.503906 L 87.527344 256.527344 L 87.957031 256.589844 L 88.363281 256.695312 L 88.746094 256.84375 L 89.109375 257.035156 L 89.453125 257.269531 L 89.773438 257.546875 L 90.070312 257.863281 L 90.347656 258.226562 L 90.605469 258.628906 L 90.84375 259.074219 L 91.054688 259.554688 L 91.242188 260.070312 L 91.40625 260.625 L 91.542969 261.21875 L 91.65625 261.84375 L 91.742188 262.511719 L 91.804688 263.214844 L 91.84375 263.953125 L 91.855469 264.730469 L 91.84375 265.511719 L 91.804688 266.257812 L 91.742188 266.964844 L 91.65625 267.636719 L 91.542969 268.273438 L 91.40625 268.871094 L 91.242188 269.433594 L 91.054688 269.960938 L 90.84375 270.453125 L 90.605469 270.90625 L 90.347656 271.316406 L 90.070312 271.6875 L 89.773438 272.015625 L 89.453125 272.296875 L 89.109375 272.535156 L 88.746094 272.730469 L 88.363281 272.882812 L 87.957031 272.992188 L 87.527344 273.058594 Z M 87.078125 272.128906 L 87.40625 272.109375 L 87.722656 272.054688 L 88.019531 271.960938 L 88.308594 271.828125 L 88.578125 271.660156 L 88.835938 271.453125 L 89.082031 271.210938 L 89.3125 270.929688 L 89.527344 270.609375 L 89.730469 270.253906 L 89.917969 269.863281 L 90.089844 269.433594 L 90.238281 268.96875 L 90.371094 268.46875 L 90.480469 267.9375 L 90.570312 267.367188 L 90.640625 266.761719 L 90.6875 266.117188 L 90.71875 265.441406 L 90.730469 264.730469 L 90.71875 264.019531 L 90.6875 263.34375 L 90.640625 262.707031 L 90.570312 262.105469 L 90.480469 261.542969 L 90.371094 261.015625 L 90.238281 260.527344 L 90.089844 260.074219 L 89.917969 259.65625 L 89.730469 259.28125 L 89.527344 258.933594 L 89.3125 258.621094 L 89.082031 258.347656 L 88.835938 258.113281 L 88.578125 257.910156 L 88.308594 257.746094 L 88.019531 257.617188 L 87.722656 257.527344 L 87.40625 257.472656 L 87.078125 257.453125 L 86.753906 257.472656 L 86.445312 257.527344 L 86.148438 257.617188 L 85.863281 257.746094 L 85.59375 257.910156 L 85.332031 258.113281 L 85.085938 258.347656 L 84.855469 258.621094 L 84.636719 258.933594 L 84.429688 259.28125 L 84.238281 259.65625 L 84.070312 260.074219 L 83.917969 260.527344 L 83.789062 261.015625 L 83.679688 261.542969 L 83.589844 262.105469 L 83.519531 262.707031 L 83.46875 263.34375 L 83.4375 264.019531 L 83.429688 264.730469 L 83.4375 265.441406 L 83.46875 266.117188 L 83.519531 266.761719 L 83.589844 267.367188 L 83.679688 267.9375 L 83.789062 268.46875 L 83.917969 268.96875 L 84.070312 269.433594 L 84.238281 269.863281 L 84.429688 270.253906 L 84.636719 270.609375 L 84.855469 270.929688 L 85.085938 271.210938 L 85.332031 271.453125 L 85.59375 271.660156 L 85.863281 271.828125 L 86.148438 271.960938 L 86.445312 272.054688 L 86.753906 272.109375 Z M 87.078125 272.128906 "/>
<path fill-rule="nonzero" fill="rgb(10.196078%, 10.196078%, 10.196078%)" fill-opacity="1" d="M 57.65625 197.597656 L 57.210938 197.574219 L 56.785156 197.507812 L 56.382812 197.398438 L 56 197.25 L 55.636719 197.050781 L 55.292969 196.8125 L 54.972656 196.53125 L 54.671875 196.203125 L 54.390625 195.835938 L 54.128906 195.421875 L 53.890625 194.96875 L 53.679688 194.476562 L 53.492188 193.953125 L 53.328125 193.390625 L 53.191406 192.789062 L 53.078125 192.152344 L 52.992188 191.480469 L 52.929688 190.773438 L 52.890625 190.027344 L 52.878906 189.246094 L 52.890625 188.46875 L 52.929688 187.730469 L 52.992188 187.027344 L 53.078125 186.363281 L 53.191406 185.734375 L 53.328125 185.140625 L 53.492188 184.585938 L 53.679688 184.070312 L 53.890625 183.589844 L 54.128906 183.144531 L 54.390625 182.742188 L 54.671875 182.382812 L 54.972656 182.0625 L 55.292969 181.785156 L 55.636719 181.550781 L 56 181.359375 L 56.382812 181.210938 L 56.785156 181.105469 L 57.210938 181.042969 L 57.65625 181.019531 L 58.105469 181.042969 L 58.53125 181.105469 L 58.9375 181.210938 L 59.324219 181.359375 L 59.6875 181.550781 L 60.027344 181.785156 L 60.347656 182.0625 L 60.644531 182.382812 L 60.921875 182.742188 L 61.179688 183.144531 L 61.417969 183.589844 L 61.628906 184.070312 L 61.816406 184.585938 L 61.980469 185.140625 L 62.117188 185.734375 L 62.230469 186.363281 L 62.316406 187.027344 L 62.378906 187.730469 L 62.417969 188.46875 L 62.429688 189.246094 L 62.417969 190.027344 L 62.378906 190.773438 L 62.316406 191.480469 L 62.230469 192.152344 L 62.117188 192.789062 L 61.980469 193.390625 L 61.816406 193.953125 L 61.628906 194.476562 L 61.417969 194.96875 L 61.179688 195.421875 L 60.921875 195.835938 L 60.644531 196.203125 L 60.347656 196.53125 L 60.027344 196.8125 L 59.6875 197.050781 L 59.324219 197.25 L 58.9375 197.398438 L 58.53125 197.507812 L 58.105469 197.574219 Z M 57.65625 196.644531 L 57.980469 196.628906 L 58.296875 196.570312 L 58.597656 196.476562 L 58.882812 196.347656 L 59.15625 196.175781 L 59.414062 195.972656 L 59.65625 195.726562 L 59.886719 195.445312 L 60.101562 195.128906 L 60.304688 194.769531 L 60.496094 194.378906 L 60.664062 193.949219 L 60.8125 193.488281 L 60.945312 192.988281 L 61.054688 192.453125 L 61.144531 191.882812 L 61.214844 191.277344 L 61.265625 190.636719 L 61.292969 189.957031 L 61.304688 189.246094 L 61.292969 188.535156 L 61.265625 187.859375 L 61.214844 187.222656 L 61.144531 186.621094 L 61.054688 186.058594 L 60.945312 185.53125 L 60.8125 185.042969 L 60.664062 184.589844 L 60.496094 184.175781 L 60.304688 183.796875 L 60.101562 183.449219 L 59.886719 183.140625 L 59.65625 182.867188 L 59.414062 182.628906 L 59.15625 182.425781 L 58.882812 182.261719 L 58.597656 182.136719 L 58.296875 182.042969 L 57.980469 181.988281 L 57.65625 181.972656 L 57.332031 181.988281 L 57.019531 182.042969 L 56.722656 182.136719 L 56.4375 182.261719 L 56.167969 182.425781 L 55.910156 182.628906 L 55.664062 182.867188 L 55.429688 183.140625 L 55.210938 183.449219 L 55.003906 183.796875 L 54.8125 184.175781 L 54.644531 184.589844 L 54.496094 185.042969 L 54.363281 185.53125 L 54.253906 186.058594 L 54.164062 186.621094 L 54.09375 187.222656 L 54.042969 187.859375 L 54.015625 188.535156 L 54.003906 189.246094 L 54.015625 189.957031 L 54.042969 190.636719 L 54.09375 191.277344 L 54.164062 191.882812 L 54.253906 192.453125 L 54.363281 192.988281 L 54.496094 193.488281 L 54.644531 193.949219 L 54.8125 194.378906 L 55.003906 194.769531 L 55.210938 195.128906 L 55.429688 195.445312 L 55.664062 195.726562 L 55.910156 195.972656 L 56.167969 196.175781 L 56.4375 196.347656 L 56.722656 196.476562 L 57.019531 196.570312 L 57.332031 196.628906 Z M 57.65625 196.644531 "/>
<path fill-rule="nonzero" fill="rgb(10.196078%, 10.196078%, 10.196078%)" fill-opacity="1" d="M 66.40625 197.597656 L 66.324219 197.59375 L 66.246094 197.585938 L 66.167969 197.570312 L 66.09375 197.546875 L 66.015625 197.519531 L 65.941406 197.488281 L 65.867188 197.449219 L 65.796875 197.402344 L 65.726562 197.351562 L 65.65625 197.296875 L 65.59375 197.234375 L 65.539062 197.167969 L 65.488281 197.097656 L 65.445312 197.019531 L 65.410156 196.941406 L 65.382812 196.855469 L 65.359375 196.765625 L 65.34375 196.671875 L 65.332031 196.574219 L 65.328125 196.472656 L 65.332031 196.363281 L 65.34375 196.261719 L 65.359375 196.164062 L 65.382812 196.070312 L 65.410156 195.984375 L 65.445312 195.902344 L 65.488281 195.824219 L 65.539062 195.75 L 65.59375 195.683594 L 65.65625 195.621094 L 65.726562 195.5625 L 65.796875 195.511719 L 65.867188 195.46875 L 65.941406 195.429688 L 66.015625 195.394531 L 66.09375 195.367188 L 66.167969 195.347656 L 66.246094 195.332031 L 66.324219 195.324219 L 66.40625 195.320312 L 66.488281 195.324219 L 66.570312 195.332031 L 66.648438 195.347656 L 66.722656 195.367188 L 66.796875 195.394531 L 66.871094 195.429688 L 66.9375 195.46875 L 67.003906 195.511719 L 67.066406 195.5625 L 67.128906 195.621094 L 67.191406 195.683594 L 67.246094 195.75 L 67.296875 195.824219 L 67.335938 195.902344 L 67.375 195.984375 L 67.402344 196.070312 L 67.425781 196.164062 L 67.441406 196.261719 L 67.449219 196.363281 L 67.453125 196.472656 L 67.449219 196.574219 L 67.441406 196.671875 L 67.425781 196.765625 L 67.402344 196.855469 L 67.375 196.941406 L 67.296875 197.097656 L 67.246094 197.167969 L 67.191406 197.234375 L 67.128906 197.296875 L 67.066406 197.351562 L 67.003906 197.402344 L 66.9375 197.449219 L 66.871094 197.488281 L 66.796875 197.519531 L 66.722656 197.546875 L 66.648438 197.570312 L 66.570312 197.585938 L 66.488281 197.59375 Z M 66.40625 197.597656 "/>
<path fill-rule="nonzero" fill="rgb(10.196078%, 10.196078%, 10.196078%)" fill-opacity="1" d="M 75.105469 197.597656 L 74.660156 197.574219 L 74.234375 197.507812 L 73.832031 197.398438 L 73.449219 197.25 L 73.085938 197.050781 L 72.742188 196.8125 L 72.421875 196.53125 L 72.121094 196.203125 L 71.839844 195.835938 L 71.578125 195.421875 L 71.34375 194.96875 L 71.128906 194.476562 L 70.941406 193.953125 L 70.78125 193.390625 L 70.640625 192.789062 L 70.53125 192.152344 L 70.441406 191.480469 L 70.378906 190.773438 L 70.34375 190.027344 L 70.328125 189.246094 L 70.34375 188.46875 L 70.378906 187.730469 L 70.441406 187.027344 L 70.53125 186.363281 L 70.640625 185.734375 L 70.78125 185.140625 L 70.941406 184.585938 L 71.128906 184.070312 L 71.34375 183.589844 L 71.578125 183.144531 L 71.839844 182.742188 L 72.121094 182.382812 L 72.421875 182.0625 L 72.742188 181.785156 L 73.085938 181.550781 L 73.449219 181.359375 L 73.832031 181.210938 L 74.234375 181.105469 L 74.660156 181.042969 L 75.105469 181.019531 L 75.554688 181.042969 L 75.980469 181.105469 L 76.386719 181.210938 L 76.773438 181.359375 L 77.136719 181.550781 L 77.476562 181.785156 L 77.796875 182.0625 L 78.097656 182.382812 L 78.375 182.742188 L 78.628906 183.144531 L 78.867188 183.589844 L 79.078125 184.070312 L 79.265625 184.585938 L 79.429688 185.140625 L 79.566406 185.734375 L 79.679688 186.363281 L 79.765625 187.027344 L 79.828125 187.730469 L 79.867188 188.46875 L 79.878906 189.246094 L 79.867188 190.027344 L 79.828125 190.773438 L 79.765625 191.480469 L 79.679688 192.152344 L 79.566406 192.789062 L 79.429688 193.390625 L 79.265625 193.953125 L 79.078125 194.476562 L 78.867188 194.96875 L 78.628906 195.421875 L 78.375 195.835938 L 78.097656 196.203125 L 77.796875 196.53125 L 77.476562 196.8125 L 77.136719 197.050781 L 76.773438 197.25 L 76.386719 197.398438 L 75.980469 197.507812 L 75.554688 197.574219 Z M 75.105469 196.644531 L 75.433594 196.628906 L 75.746094 196.570312 L 76.046875 196.476562 L 76.332031 196.347656 L 76.605469 196.175781 L 76.863281 195.972656 L 77.105469 195.726562 L 77.335938 195.445312 L 77.550781 195.128906 L 77.753906 194.769531 L 77.945312 194.378906 L 78.113281 193.949219 L 78.265625 193.488281 L 78.394531 192.988281 L 78.503906 192.453125 L 78.59375 191.882812 L 78.664062 191.277344 L 78.714844 190.636719 L 78.746094 189.957031 L 78.753906 189.246094 L 78.746094 188.535156 L 78.714844 187.859375 L 78.664062 187.222656 L 78.59375 186.621094 L 78.503906 186.058594 L 78.394531 185.53125 L 78.265625 185.042969 L 78.113281 184.589844 L 77.945312 184.175781 L 77.753906 183.796875 L 77.550781 183.449219 L 77.335938 183.140625 L 77.105469 182.867188 L 76.863281 182.628906 L 76.605469 182.425781 L 76.332031 182.261719 L 76.046875 182.136719 L 75.746094 182.042969 L 75.433594 181.988281 L 75.105469 181.972656 L 74.78125 181.988281 L 74.46875 182.042969 L 74.171875 182.136719 L 73.886719 182.261719 L 73.617188 182.425781 L 73.359375 182.628906 L 73.113281 182.867188 L 72.878906 183.140625 L 72.660156 183.449219 L 72.453125 183.796875 L 72.265625 184.175781 L 72.09375 184.589844 L 71.945312 185.042969 L 71.8125 185.53125 L 71.703125 186.058594 L 71.613281 186.621094 L 71.542969 187.222656 L 71.496094 187.859375 L 71.464844 188.535156 L 71.453125 189.246094 L 71.464844 189.957031 L 71.496094 190.636719 L 71.542969 191.277344 L 71.613281 191.882812 L 71.703125 192.453125 L 71.8125 192.988281 L 71.945312 193.488281 L 72.09375 193.949219 L 72.265625 194.378906 L 72.453125 194.769531 L 72.660156 195.128906 L 72.878906 195.445312 L 73.113281 195.726562 L 73.359375 195.972656 L 73.617188 196.175781 L 73.886719 196.347656 L 74.171875 196.476562 L 74.46875 196.570312 L 74.78125 196.628906 Z M 75.105469 196.644531 "/>
<path fill-rule="nonzero" fill="rgb(10.196078%, 10.196078%, 10.196078%)" fill-opacity="1" d="M 86.78125 197.597656 L 86.527344 197.59375 L 86.28125 197.582031 L 86.042969 197.566406 L 85.8125 197.542969 L 85.585938 197.515625 L 85.367188 197.480469 L 85.152344 197.4375 L 84.949219 197.386719 L 84.746094 197.332031 L 84.554688 197.269531 L 84.371094 197.203125 L 84.195312 197.132812 L 84.023438 197.058594 L 83.855469 196.984375 L 83.691406 196.902344 L 83.535156 196.816406 L 83.382812 196.730469 L 83.234375 196.640625 L 82.953125 196.445312 L 82.820312 196.347656 L 82.5625 196.144531 L 82.4375 196.046875 L 82.316406 195.945312 L 82.199219 195.847656 L 82.082031 195.746094 L 81.96875 195.644531 L 81.859375 195.546875 L 81.753906 195.445312 L 82.378906 194.671875 L 82.527344 194.816406 L 82.679688 194.957031 L 82.839844 195.097656 L 83.003906 195.234375 L 83.171875 195.371094 L 83.347656 195.503906 L 83.527344 195.636719 L 83.714844 195.765625 L 83.90625 195.894531 L 84.105469 196.019531 L 84.316406 196.136719 L 84.539062 196.238281 L 84.773438 196.328125 L 85.019531 196.40625 L 85.28125 196.472656 L 85.550781 196.523438 L 85.832031 196.566406 L 86.128906 196.597656 L 86.433594 196.613281 L 86.753906 196.621094 L 86.96875 196.617188 L 87.175781 196.601562 L 87.382812 196.574219 L 87.585938 196.539062 L 87.785156 196.488281 L 87.980469 196.433594 L 88.171875 196.363281 L 88.363281 196.285156 L 88.546875 196.195312 L 88.730469 196.097656 L 88.90625 195.980469 L 89.074219 195.859375 L 89.238281 195.726562 L 89.394531 195.589844 L 89.542969 195.441406 L 89.683594 195.28125 L 89.816406 195.117188 L 89.945312 194.945312 L 90.066406 194.761719 L 90.179688 194.570312 L 90.285156 194.375 L 90.378906 194.167969 L 90.460938 193.960938 L 90.53125 193.742188 L 90.59375 193.519531 L 90.640625 193.292969 L 90.679688 193.058594 L 90.707031 192.820312 L 90.722656 192.574219 L 90.730469 192.320312 L 90.71875 191.945312 L 90.6875 191.585938 L 90.632812 191.242188 L 90.558594 190.914062 L 90.460938 190.601562 L 90.34375 190.308594 L 90.203125 190.03125 L 90.042969 189.769531 L 89.859375 189.523438 L 89.65625 189.296875 L 89.4375 189.085938 L 89.207031 188.898438 L 88.960938 188.734375 L 88.699219 188.59375 L 88.421875 188.472656 L 88.132812 188.371094 L 87.828125 188.296875 L 87.511719 188.238281 L 87.175781 188.207031 L 86.828125 188.195312 L 86.648438 188.199219 L 86.46875 188.207031 L 86.296875 188.222656 L 86.128906 188.242188 L 85.96875 188.269531 L 85.808594 188.304688 L 85.65625 188.34375 L 85.507812 188.386719 L 85.367188 188.4375 L 85.230469 188.496094 L 84.964844 188.613281 L 84.832031 188.679688 L 84.699219 188.753906 L 84.5625 188.828125 L 84.421875 188.90625 L 84.28125 188.992188 L 84 189.171875 L 83.855469 189.269531 L 83.078125 188.796875 L 83.65625 181.320312 L 91.03125 181.320312 L 91.03125 182.296875 L 84.65625 182.296875 L 84.15625 188.070312 L 84.28125 187.996094 L 84.40625 187.925781 L 84.535156 187.859375 L 84.792969 187.734375 L 84.921875 187.675781 L 85.1875 187.566406 L 85.453125 187.472656 L 85.589844 187.421875 L 85.730469 187.382812 L 85.878906 187.34375 L 86.027344 187.3125 L 86.179688 187.285156 L 86.335938 187.261719 L 86.496094 187.242188 L 86.664062 187.230469 L 86.832031 187.222656 L 87.003906 187.222656 L 87.273438 187.226562 L 87.535156 187.242188 L 87.792969 187.269531 L 88.042969 187.308594 L 88.292969 187.359375 L 88.535156 187.417969 L 88.773438 187.492188 L 89.003906 187.574219 L 89.230469 187.667969 L 89.453125 187.769531 L 89.675781 187.882812 L 89.886719 188.003906 L 90.085938 188.140625 L 90.277344 188.289062 L 90.460938 188.445312 L 90.632812 188.617188 L 90.796875 188.800781 L 90.949219 188.996094 L 91.09375 189.203125 L 91.230469 189.421875 L 91.351562 189.648438 L 91.464844 189.886719 L 91.5625 190.140625 L 91.644531 190.40625 L 91.71875 190.683594 L 91.773438 190.976562 L 91.820312 191.28125 L 91.851562 191.597656 L 91.871094 191.925781 L 91.878906 192.269531 L 91.871094 192.605469 L 91.847656 192.929688 L 91.8125 193.246094 L 91.757812 193.550781 L 91.691406 193.847656 L 91.609375 194.132812 L 91.511719 194.40625 L 91.398438 194.671875 L 91.273438 194.925781 L 91.128906 195.171875 L 90.980469 195.402344 L 90.820312 195.617188 L 90.652344 195.828125 L 90.476562 196.023438 L 90.292969 196.207031 L 90.097656 196.382812 L 89.894531 196.546875 L 89.679688 196.699219 L 89.460938 196.839844 L 89.230469 196.972656 L 88.996094 197.089844 L 88.761719 197.195312 L 88.527344 197.289062 L 88.285156 197.371094 L 88.042969 197.441406 L 87.796875 197.496094 L 87.546875 197.539062 L 87.292969 197.570312 L 87.039062 197.589844 Z M 86.78125 197.597656 "/>
<path fill-rule="nonzero" fill="rgb(10.196078%, 10.196078%, 10.196078%)" fill-opacity="1" d="M 57.65625 122.113281 L 57.210938 122.089844 L 56.785156 122.027344 L 56.382812 121.917969 L 56 121.765625 L 55.636719 121.570312 L 55.292969 121.328125 L 54.972656 121.046875 L 54.671875 120.71875 L 54.390625 120.351562 L 54.128906 119.9375 L 53.890625 119.484375 L 53.679688 118.996094 L 53.492188 118.46875 L 53.328125 117.90625 L 53.191406 117.304688 L 53.078125 116.671875 L 52.992188 116 L 52.929688 115.289062 L 52.890625 114.542969 L 52.878906 113.761719 L 52.890625 112.984375 L 52.929688 112.246094 L 52.992188 111.542969 L 53.078125 110.878906 L 53.191406 110.25 L 53.328125 109.660156 L 53.492188 109.105469 L 53.679688 108.585938 L 53.890625 108.105469 L 54.128906 107.664062 L 54.390625 107.257812 L 54.671875 106.898438 L 54.972656 106.578125 L 55.292969 106.300781 L 55.636719 106.070312 L 56 105.878906 L 56.382812 105.730469 L 56.785156 105.621094 L 57.210938 105.558594 L 57.65625 105.539062 L 58.105469 105.558594 L 58.53125 105.621094 L 58.9375 105.730469 L 59.324219 105.878906 L 59.6875 106.070312 L 60.027344 106.300781 L 60.347656 106.578125 L 60.644531 106.898438 L 60.921875 107.257812 L 61.179688 107.664062 L 61.417969 108.105469 L 61.628906 108.585938 L 61.816406 109.105469 L 61.980469 109.660156 L 62.117188 110.25 L 62.230469 110.878906 L 62.316406 111.542969 L 62.378906 112.246094 L 62.417969 112.984375 L 62.429688 113.761719 L 62.417969 114.542969 L 62.378906 115.289062 L 62.316406 116 L 62.230469 116.671875 L 62.117188 117.304688 L 61.980469 117.90625 L 61.816406 118.46875 L 61.628906 118.996094 L 61.417969 119.484375 L 61.179688 119.9375 L 60.921875 120.351562 L 60.644531 120.71875 L 60.347656 121.046875 L 60.027344 121.328125 L 59.6875 121.570312 L 59.324219 121.765625 L 58.9375 121.917969 L 58.53125 122.027344 L 58.105469 122.089844 Z M 57.65625 121.164062 L 57.980469 121.144531 L 58.296875 121.085938 L 58.597656 120.992188 L 58.882812 120.863281 L 59.15625 120.695312 L 59.414062 120.488281 L 59.65625 120.242188 L 59.886719 119.960938 L 60.101562 119.644531 L 60.304688 119.289062 L 60.496094 118.894531 L 60.664062 118.464844 L 60.8125 118.003906 L 60.945312 117.503906 L 61.054688 116.96875 L 61.144531 116.398438 L 61.214844 115.792969 L 61.265625 115.152344 L 61.292969 114.476562 L 61.304688 113.761719 L 61.292969 113.050781 L 61.265625 112.375 L 61.214844 111.738281 L 61.144531 111.140625 L 61.054688 110.574219 L 60.945312 110.046875 L 60.8125 109.558594 L 60.664062 109.105469 L 60.496094 108.691406 L 60.304688 108.3125 L 60.101562 107.964844 L 59.886719 107.65625 L 59.65625 107.382812 L 59.414062 107.144531 L 59.15625 106.945312 L 58.882812 106.78125 L 58.597656 106.652344 L 58.296875 106.5625 L 57.980469 106.507812 L 57.65625 106.488281 L 57.332031 106.507812 L 57.019531 106.5625 L 56.722656 106.652344 L 56.4375 106.78125 L 56.167969 106.945312 L 55.910156 107.144531 L 55.664062 107.382812 L 55.429688 107.65625 L 55.210938 107.964844 L 55.003906 108.3125 L 54.8125 108.691406 L 54.644531 109.105469 L 54.496094 109.558594 L 54.363281 110.046875 L 54.253906 110.574219 L 54.164062 111.140625 L 54.09375 111.738281 L 54.042969 112.375 L 54.015625 113.050781 L 54.003906 113.761719 L 54.015625 114.476562 L 54.042969 115.152344 L 54.09375 115.792969 L 54.164062 116.398438 L 54.253906 116.96875 L 54.363281 117.503906 L 54.496094 118.003906 L 54.644531 118.464844 L 54.8125 118.894531 L 55.003906 119.289062 L 55.210938 119.644531 L 55.429688 119.960938 L 55.664062 120.242188 L 55.910156 120.488281 L 56.167969 120.695312 L 56.4375 120.863281 L 56.722656 120.992188 L 57.019531 121.085938 L 57.332031 121.144531 Z M 57.65625 121.164062 "/>
<path fill-rule="nonzero" fill="rgb(10.196078%, 10.196078%, 10.196078%)" fill-opacity="1" d="M 66.40625 122.113281 L 66.324219 122.109375 L 66.246094 122.101562 L 66.167969 122.085938 L 66.09375 122.066406 L 66.015625 122.039062 L 65.941406 122.003906 L 65.867188 121.964844 L 65.796875 121.921875 L 65.726562 121.871094 L 65.65625 121.8125 L 65.59375 121.75 L 65.539062 121.683594 L 65.488281 121.613281 L 65.445312 121.535156 L 65.410156 121.457031 L 65.382812 121.371094 L 65.359375 121.28125 L 65.34375 121.1875 L 65.332031 121.089844 L 65.328125 120.988281 L 65.332031 120.878906 L 65.34375 120.777344 L 65.359375 120.679688 L 65.382812 120.585938 L 65.410156 120.5 L 65.445312 120.417969 L 65.488281 120.339844 L 65.539062 120.269531 L 65.59375 120.199219 L 65.65625 120.136719 L 65.726562 120.082031 L 65.796875 120.03125 L 65.867188 119.984375 L 65.941406 119.945312 L 66.015625 119.914062 L 66.09375 119.886719 L 66.167969 119.863281 L 66.324219 119.839844 L 66.40625 119.835938 L 66.488281 119.839844 L 66.570312 119.851562 L 66.648438 119.863281 L 66.722656 119.886719 L 66.796875 119.914062 L 66.871094 119.945312 L 66.9375 119.984375 L 67.003906 120.03125 L 67.066406 120.082031 L 67.128906 120.136719 L 67.191406 120.199219 L 67.246094 120.269531 L 67.296875 120.339844 L 67.335938 120.417969 L 67.375 120.5 L 67.402344 120.585938 L 67.425781 120.679688 L 67.441406 120.777344 L 67.449219 120.878906 L 67.453125 120.988281 L 67.449219 121.089844 L 67.441406 121.1875 L 67.425781 121.28125 L 67.402344 121.371094 L 67.375 121.457031 L 67.296875 121.613281 L 67.246094 121.683594 L 67.191406 121.75 L 67.128906 121.8125 L 67.066406 121.871094 L 67.003906 121.921875 L 66.9375 121.964844 L 66.871094 122.003906 L 66.796875 122.039062 L 66.722656 122.066406 L 66.648438 122.085938 L 66.570312 122.101562 L 66.488281 122.109375 Z M 66.40625 122.113281 "/>
<path fill-rule="nonzero" fill="rgb(10.196078%, 10.196078%, 10.196078%)" fill-opacity="1" d="M 71.230469 121.8125 L 71.230469 120.835938 L 74.980469 120.835938 L 74.980469 107.585938 L 72.128906 107.585938 L 72.128906 106.835938 L 72.324219 106.800781 L 72.511719 106.765625 L 72.878906 106.6875 L 73.054688 106.644531 L 73.226562 106.601562 L 73.5625 106.507812 L 73.722656 106.460938 L 73.878906 106.414062 L 74.03125 106.363281 L 74.179688 106.308594 L 74.324219 106.257812 L 74.464844 106.199219 L 74.597656 106.144531 L 74.855469 106.027344 L 74.976562 105.964844 L 75.09375 105.902344 L 75.203125 105.835938 L 76.105469 105.835938 L 76.105469 120.835938 L 79.578125 120.835938 L 79.578125 121.8125 Z M 71.230469 121.8125 "/>
<path fill-rule="nonzero" fill="rgb(10.196078%, 10.196078%, 10.196078%)" fill-opacity="1" d="M 87.078125 122.113281 L 86.632812 122.089844 L 86.210938 122.027344 L 85.804688 121.917969 L 85.421875 121.765625 L 85.0625 121.570312 L 84.71875 121.328125 L 84.398438 121.046875 L 84.09375 120.71875 L 83.816406 120.351562 L 83.554688 119.9375 L 83.316406 119.484375 L 83.105469 118.996094 L 82.917969 118.46875 L 82.753906 117.90625 L 82.617188 117.304688 L 82.503906 116.671875 L 82.417969 116 L 82.355469 115.289062 L 82.316406 114.542969 L 82.304688 113.761719 L 82.316406 112.984375 L 82.355469 112.246094 L 82.417969 111.542969 L 82.503906 110.878906 L 82.617188 110.25 L 82.753906 109.660156 L 82.917969 109.105469 L 83.105469 108.585938 L 83.316406 108.105469 L 83.554688 107.664062 L 83.816406 107.257812 L 84.09375 106.898438 L 84.398438 106.578125 L 84.71875 106.300781 L 85.0625 106.070312 L 85.421875 105.878906 L 85.804688 105.730469 L 86.210938 105.621094 L 86.632812 105.558594 L 87.078125 105.539062 L 87.527344 105.558594 L 87.957031 105.621094 L 88.363281 105.730469 L 88.746094 105.878906 L 89.109375 106.070312 L 89.453125 106.300781 L 89.773438 106.578125 L 90.070312 106.898438 L 90.347656 107.257812 L 90.605469 107.664062 L 90.84375 108.105469 L 91.054688 108.585938 L 91.242188 109.105469 L 91.40625 109.660156 L 91.542969 110.25 L 91.65625 110.878906 L 91.742188 111.542969 L 91.804688 112.246094 L 91.84375 112.984375 L 91.855469 113.761719 L 91.84375 114.542969 L 91.804688 115.289062 L 91.742188 116 L 91.65625 116.671875 L 91.542969 117.304688 L 91.40625 117.90625 L 91.242188 118.46875 L 91.054688 118.996094 L 90.84375 119.484375 L 90.605469 119.9375 L 90.347656 120.351562 L 90.070312 120.71875 L 89.773438 121.046875 L 89.453125 121.328125 L 89.109375 121.570312 L 88.746094 121.765625 L 88.363281 121.917969 L 87.957031 122.027344 L 87.527344 122.089844 Z M 87.078125 121.164062 L 87.40625 121.144531 L 87.722656 121.085938 L 88.019531 120.992188 L 88.308594 120.863281 L 88.578125 120.695312 L 88.835938 120.488281 L 89.082031 120.242188 L 89.3125 119.960938 L 89.527344 119.644531 L 89.730469 119.289062 L 89.917969 118.894531 L 90.089844 118.464844 L 90.238281 118.003906 L 90.371094 117.503906 L 90.480469 116.96875 L 90.570312 116.398438 L 90.640625 115.792969 L 90.6875 115.152344 L 90.71875 114.476562 L 90.730469 113.761719 L 90.71875 113.050781 L 90.6875 112.375 L 90.640625 111.738281 L 90.570312 111.140625 L 90.480469 110.574219 L 90.371094 110.046875 L 90.238281 109.558594 L 90.089844 109.105469 L 89.917969 108.691406 L 89.730469 108.3125 L 89.527344 107.964844 L 89.3125 107.65625 L 89.082031 107.382812 L 88.835938 107.144531 L 88.578125 106.945312 L 88.308594 106.78125 L 88.019531 106.652344 L 87.722656 106.5625 L 87.40625 106.507812 L 87.078125 106.488281 L 86.753906 106.507812 L 86.445312 106.5625 L 86.148438 106.652344 L 85.863281 106.78125 L 85.59375 106.945312 L 85.332031 107.144531 L 85.085938 107.382812 L 84.855469 107.65625 L 84.636719 107.964844 L 84.429688 108.3125 L 84.238281 108.691406 L 84.070312 109.105469 L 83.917969 109.558594 L 83.789062 110.046875 L 83.679688 110.574219 L 83.589844 111.140625 L 83.519531 111.738281 L 83.46875 112.375 L 83.4375 113.050781 L 83.429688 113.761719 L 83.4375 114.476562 L 83.46875 115.152344 L 83.519531 115.792969 L 83.589844 116.398438 L 83.679688 116.96875 L 83.789062 117.503906 L 83.917969 118.003906 L 84.070312 118.464844 L 84.238281 118.894531 L 84.429688 119.289062 L 84.636719 119.644531 L 84.855469 119.960938 L 85.085938 120.242188 L 85.332031 120.488281 L 85.59375 120.695312 L 85.863281 120.863281 L 86.148438 120.992188 L 86.445312 121.085938 L 86.753906 121.144531 Z M 87.078125 121.164062 "/>
<path fill-rule="nonzero" fill="rgb(10.196078%, 10.196078%, 10.196078%)" fill-opacity="1" d="M 177.320312 419.269531 L 177.320312 418.296875 L 182.820312 418.296875 L 182.820312 419.269531 Z M 177.320312 419.269531 "/>
<path fill-rule="nonzero" fill="rgb(10.196078%, 10.196078%, 10.196078%)" fill-opacity="1" d="M 185.894531 425.019531 L 185.894531 424.046875 L 189.644531 424.046875 L 189.644531 410.796875 L 186.796875 410.796875 L 186.796875 410.046875 L 186.988281 410.011719 L 187.179688 409.972656 L 187.363281 409.933594 L 187.542969 409.894531 L 187.722656 409.851562 L 187.894531 409.808594 L 188.0625 409.765625 L 188.226562 409.71875 L 188.390625 409.667969 L 188.546875 409.621094 L 188.699219 409.570312 L 188.847656 409.519531 L 188.992188 409.464844 L 189.128906 409.410156 L 189.265625 409.351562 L 189.394531 409.292969 L 189.519531 409.234375 L 189.640625 409.171875 L 189.757812 409.109375 L 189.871094 409.046875 L 190.769531 409.046875 L 190.769531 424.046875 L 194.246094 424.046875 L 194.246094 425.019531 Z M 185.894531 425.019531 "/>
<path fill-rule="nonzero" fill="rgb(10.196078%, 10.196078%, 10.196078%)" fill-opacity="1" d="M 201.746094 425.320312 L 201.300781 425.300781 L 200.878906 425.234375 L 200.472656 425.125 L 200.089844 424.972656 L 199.726562 424.777344 L 199.386719 424.539062 L 199.0625 424.253906 L 198.761719 423.929688 L 198.480469 423.558594 L 198.222656 423.144531 L 197.984375 422.691406 L 197.769531 422.203125 L 197.582031 421.675781 L 197.421875 421.113281 L 197.285156 420.515625 L 197.171875 419.878906 L 197.082031 419.207031 L 197.019531 418.496094 L 196.984375 417.753906 L 196.972656 416.96875 L 196.984375 416.195312 L 197.019531 415.453125 L 197.082031 414.753906 L 197.171875 414.085938 L 197.285156 413.457031 L 197.421875 412.867188 L 197.582031 412.3125 L 197.769531 411.792969 L 197.984375 411.3125 L 198.222656 410.871094 L 198.480469 410.46875 L 198.761719 410.105469 L 199.0625 409.785156 L 199.386719 409.511719 L 199.726562 409.277344 L 200.089844 409.085938 L 200.472656 408.9375 L 200.878906 408.832031 L 201.300781 408.765625 L 201.746094 408.746094 L 202.195312 408.765625 L 202.625 408.832031 L 203.03125 408.9375 L 203.414062 409.085938 L 203.777344 409.277344 L 204.121094 409.511719 L 204.441406 409.785156 L 204.738281 410.105469 L 205.015625 410.46875 L 205.269531 410.871094 L 205.507812 411.3125 L 205.722656 411.792969 L 205.910156 412.3125 L 206.070312 412.867188 L 206.207031 413.457031 L 206.320312 414.085938 L 206.410156 414.753906 L 206.472656 415.453125 L 206.507812 416.195312 L 206.519531 416.96875 L 206.507812 417.753906 L 206.472656 418.496094 L 206.410156 419.207031 L 206.320312 419.878906 L 206.207031 420.515625 L 206.070312 421.113281 L 205.910156 421.675781 L 205.722656 422.203125 L 205.507812 422.691406 L 205.269531 423.144531 L 205.015625 423.558594 L 204.738281 423.929688 L 204.441406 424.253906 L 204.121094 424.539062 L 203.777344 424.777344 L 203.414062 424.972656 L 203.03125 425.125 L 202.625 425.234375 L 202.195312 425.300781 Z M 201.746094 424.371094 L 202.074219 424.351562 L 202.386719 424.296875 L 202.6875 424.203125 L 202.972656 424.070312 L 203.246094 423.902344 L 203.503906 423.695312 L 203.75 423.453125 L 203.976562 423.171875 L 204.195312 422.851562 L 204.394531 422.496094 L 204.585938 422.101562 L 204.757812 421.675781 L 204.90625 421.210938 L 205.035156 420.710938 L 205.144531 420.175781 L 205.238281 419.605469 L 205.304688 419 L 205.355469 418.359375 L 205.386719 417.683594 L 205.394531 416.96875 L 205.386719 416.257812 L 205.355469 415.585938 L 205.304688 414.945312 L 205.238281 414.347656 L 205.144531 413.78125 L 205.035156 413.257812 L 204.90625 412.765625 L 204.757812 412.316406 L 204.585938 411.898438 L 204.394531 411.519531 L 204.195312 411.175781 L 203.976562 410.863281 L 203.75 410.589844 L 203.503906 410.351562 L 203.246094 410.152344 L 202.972656 409.988281 L 202.6875 409.859375 L 202.386719 409.769531 L 202.074219 409.714844 L 201.746094 409.695312 L 201.421875 409.714844 L 201.113281 409.769531 L 200.816406 409.859375 L 200.53125 409.988281 L 200.257812 410.152344 L 200 410.351562 L 199.753906 410.589844 L 199.523438 410.863281 L 199.304688 411.175781 L 199.097656 411.519531 L 198.90625 411.898438 L 198.738281 412.316406 L 198.585938 412.765625 L 198.457031 413.257812 L 198.347656 413.78125 L 198.257812 414.347656 L 198.1875 414.945312 L 198.136719 415.585938 L 198.105469 416.257812 L 198.097656 416.96875 L 198.105469 417.683594 L 198.136719 418.359375 L 198.1875 419 L 198.257812 419.605469 L 198.347656 420.175781 L 198.457031 420.710938 L 198.585938 421.210938 L 198.738281 421.675781 L 198.90625 422.101562 L 199.097656 422.496094 L 199.304688 422.851562 L 199.523438 423.171875 L 199.753906 423.453125 L 200 423.695312 L 200.257812 423.902344 L 200.53125 424.070312 L 200.816406 424.203125 L 201.113281 424.296875 L 201.421875 424.351562 Z M 201.746094 424.371094 "/>
<path fill-rule="nonzero" fill="rgb(10.196078%, 10.196078%, 10.196078%)" fill-opacity="1" d="M 335.085938 425.320312 L 334.640625 425.300781 L 334.214844 425.234375 L 333.8125 425.125 L 333.429688 424.972656 L 333.066406 424.777344 L 332.722656 424.539062 L 332.402344 424.253906 L 332.101562 423.929688 L 331.820312 423.558594 L 331.558594 423.144531 L 331.324219 422.691406 L 331.109375 422.203125 L 330.921875 421.675781 L 330.761719 421.113281 L 330.621094 420.515625 L 330.511719 419.878906 L 330.421875 419.207031 L 330.359375 418.496094 L 330.324219 417.753906 L 330.308594 416.96875 L 330.324219 416.195312 L 330.359375 415.453125 L 330.421875 414.753906 L 330.511719 414.085938 L 330.621094 413.457031 L 330.761719 412.867188 L 330.921875 412.3125 L 331.109375 411.792969 L 331.324219 411.3125 L 331.558594 410.871094 L 331.820312 410.46875 L 332.101562 410.105469 L 332.402344 409.785156 L 332.722656 409.511719 L 333.066406 409.277344 L 333.429688 409.085938 L 333.8125 408.9375 L 334.214844 408.832031 L 334.640625 408.765625 L 335.085938 408.746094 L 335.535156 408.765625 L 335.960938 408.832031 L 336.367188 408.9375 L 336.753906 409.085938 L 337.117188 409.277344 L 337.457031 409.511719 L 337.777344 409.785156 L 338.078125 410.105469 L 338.355469 410.46875 L 338.609375 410.871094 L 338.847656 411.3125 L 339.058594 411.792969 L 339.246094 412.3125 L 339.410156 412.867188 L 339.546875 413.457031 L 339.660156 414.085938 L 339.746094 414.753906 L 339.808594 415.453125 L 339.847656 416.195312 L 339.859375 416.96875 L 339.847656 417.753906 L 339.808594 418.496094 L 339.746094 419.207031 L 339.660156 419.878906 L 339.546875 420.515625 L 339.410156 421.113281 L 339.246094 421.675781 L 339.058594 422.203125 L 338.847656 422.691406 L 338.609375 423.144531 L 338.355469 423.558594 L 338.078125 423.929688 L 337.777344 424.253906 L 337.457031 424.539062 L 337.117188 424.777344 L 336.753906 424.972656 L 336.367188 425.125 L 335.960938 425.234375 L 335.535156 425.300781 Z M 335.085938 424.371094 L 335.414062 424.351562 L 335.726562 424.296875 L 336.027344 424.203125 L 336.3125 424.070312 L 336.585938 423.902344 L 336.84375 423.695312 L 337.085938 423.453125 L 337.316406 423.171875 L 337.535156 422.851562 L 337.734375 422.496094 L 337.925781 422.101562 L 338.09375 421.675781 L 338.246094 421.210938 L 338.375 420.710938 L 338.484375 420.175781 L 338.574219 419.605469 L 338.644531 419 L 338.695312 418.359375 L 338.726562 417.683594 L 338.734375 416.96875 L 338.726562 416.257812 L 338.695312 415.585938 L 338.644531 414.945312 L 338.574219 414.347656 L 338.484375 413.78125 L 338.375 413.257812 L 338.246094 412.765625 L 338.09375 412.316406 L 337.925781 411.898438 L 337.734375 411.519531 L 337.535156 411.175781 L 337.316406 410.863281 L 337.085938 410.589844 L 336.84375 410.351562 L 336.585938 410.152344 L 336.3125 409.988281 L 336.027344 409.859375 L 335.726562 409.769531 L 335.414062 409.714844 L 335.085938 409.695312 L 334.761719 409.714844 L 334.453125 409.769531 L 334.152344 409.859375 L 333.871094 409.988281 L 333.597656 410.152344 L 333.339844 410.351562 L 333.09375 410.589844 L 332.863281 410.863281 L 332.640625 411.175781 L 332.433594 411.519531 L 332.246094 411.898438 L 332.074219 412.316406 L 331.925781 412.765625 L 331.796875 413.257812 L 331.683594 413.78125 L 331.59375 414.347656 L 331.523438 414.945312 L 331.476562 415.585938 L 331.445312 416.257812 L 331.433594 416.96875 L 331.445312 417.683594 L 331.476562 418.359375 L 331.523438 419 L 331.59375 419.605469 L 331.683594 420.175781 L 331.796875 420.710938 L 331.925781 421.210938 L 332.074219 421.675781 L 332.246094 422.101562 L 332.433594 422.496094 L 332.640625 422.851562 L 332.863281 423.171875 L 333.09375 423.453125 L 333.339844 423.695312 L 333.597656 423.902344 L 333.871094 424.070312 L 334.152344 424.203125 L 334.453125 424.296875 L 334.761719 424.351562 Z M 335.085938 424.371094 "/>
<path fill-rule="nonzero" fill="rgb(10.196078%, 10.196078%, 10.196078%)" fill-opacity="1" d="M 468.285156 425.019531 L 468.285156 424.046875 L 472.035156 424.046875 L 472.035156 410.796875 L 469.1875 410.796875 L 469.1875 410.046875 L 469.378906 410.011719 L 469.570312 409.972656 L 469.753906 409.933594 L 469.933594 409.894531 L 470.113281 409.851562 L 470.285156 409.808594 L 470.453125 409.765625 L 470.617188 409.71875 L 470.78125 409.667969 L 470.9375 409.621094 L 471.089844 409.570312 L 471.238281 409.519531 L 471.382812 409.464844 L 471.519531 409.410156 L 471.65625 409.351562 L 471.785156 409.292969 L 471.910156 409.234375 L 472.03125 409.171875 L 472.148438 409.109375 L 472.261719 409.046875 L 473.160156 409.046875 L 473.160156 424.046875 L 476.636719 424.046875 L 476.636719 425.019531 Z M 468.285156 425.019531 "/>
<path fill-rule="nonzero" fill="rgb(10.196078%, 10.196078%, 10.196078%)" fill-opacity="1" d="M 484.136719 425.320312 L 483.691406 425.300781 L 483.269531 425.234375 L 482.863281 425.125 L 482.480469 424.972656 L 482.117188 424.777344 L 481.777344 424.539062 L 481.453125 424.253906 L 481.152344 423.929688 L 480.871094 423.558594 L 480.613281 423.144531 L 480.375 422.691406 L 480.160156 422.203125 L 479.972656 421.675781 L 479.8125 421.113281 L 479.675781 420.515625 L 479.5625 419.878906 L 479.472656 419.207031 L 479.410156 418.496094 L 479.375 417.753906 L 479.363281 416.96875 L 479.375 416.195312 L 479.410156 415.453125 L 479.472656 414.753906 L 479.5625 414.085938 L 479.675781 413.457031 L 479.8125 412.867188 L 479.972656 412.3125 L 480.160156 411.792969 L 480.375 411.3125 L 480.613281 410.871094 L 480.871094 410.46875 L 481.152344 410.105469 L 481.453125 409.785156 L 481.777344 409.511719 L 482.117188 409.277344 L 482.480469 409.085938 L 482.863281 408.9375 L 483.269531 408.832031 L 483.691406 408.765625 L 484.136719 408.746094 L 484.585938 408.765625 L 485.015625 408.832031 L 485.421875 408.9375 L 485.804688 409.085938 L 486.167969 409.277344 L 486.511719 409.511719 L 486.832031 409.785156 L 487.128906 410.105469 L 487.40625 410.46875 L 487.660156 410.871094 L 487.898438 411.3125 L 488.113281 411.792969 L 488.300781 412.3125 L 488.460938 412.867188 L 488.597656 413.457031 L 488.710938 414.085938 L 488.800781 414.753906 L 488.863281 415.453125 L 488.898438 416.195312 L 488.910156 416.96875 L 488.898438 417.753906 L 488.863281 418.496094 L 488.800781 419.207031 L 488.710938 419.878906 L 488.597656 420.515625 L 488.460938 421.113281 L 488.300781 421.675781 L 488.113281 422.203125 L 487.898438 422.691406 L 487.660156 423.144531 L 487.40625 423.558594 L 487.128906 423.929688 L 486.832031 424.253906 L 486.511719 424.539062 L 486.167969 424.777344 L 485.804688 424.972656 L 485.421875 425.125 L 485.015625 425.234375 L 484.585938 425.300781 Z M 484.136719 424.371094 L 484.464844 424.351562 L 484.777344 424.296875 L 485.078125 424.203125 L 485.363281 424.070312 L 485.636719 423.902344 L 485.894531 423.695312 L 486.140625 423.453125 L 486.367188 423.171875 L 486.585938 422.851562 L 486.785156 422.496094 L 486.976562 422.101562 L 487.148438 421.675781 L 487.296875 421.210938 L 487.425781 420.710938 L 487.535156 420.175781 L 487.625 419.605469 L 487.695312 419 L 487.746094 418.359375 L 487.777344 417.683594 L 487.785156 416.96875 L 487.777344 416.257812 L 487.746094 415.585938 L 487.695312 414.945312 L 487.625 414.347656 L 487.535156 413.78125 L 487.425781 413.257812 L 487.296875 412.765625 L 487.148438 412.316406 L 486.976562 411.898438 L 486.785156 411.519531 L 486.585938 411.175781 L 486.367188 410.863281 L 486.140625 410.589844 L 485.894531 410.351562 L 485.636719 410.152344 L 485.363281 409.988281 L 485.078125 409.859375 L 484.777344 409.769531 L 484.464844 409.714844 L 484.136719 409.695312 L 483.8125 409.714844 L 483.503906 409.769531 L 483.207031 409.859375 L 482.921875 409.988281 L 482.648438 410.152344 L 482.390625 410.351562 L 482.144531 410.589844 L 481.914062 410.863281 L 481.691406 411.175781 L 481.488281 411.519531 L 481.296875 411.898438 L 481.125 412.316406 L 480.976562 412.765625 L 480.847656 413.257812 L 480.738281 413.78125 L 480.648438 414.347656 L 480.578125 414.945312 L 480.527344 415.585938 L 480.496094 416.257812 L 480.488281 416.96875 L 480.496094 417.683594 L 480.527344 418.359375 L 480.578125 419 L 480.648438 419.605469 L 480.738281 420.175781 L 480.847656 420.710938 L 480.976562 421.210938 L 481.125 421.675781 L 481.296875 422.101562 L 481.488281 422.496094 L 481.691406 422.851562 L 481.914062 423.171875 L 482.144531 423.453125 L 482.390625 423.695312 L 482.648438 423.902344 L 482.921875 424.070312 L 483.207031 424.203125 L 483.503906 424.296875 L 483.8125 424.351562 Z M 484.136719 424.371094 "/>
</svg>
