<?xml version="1.0" encoding="UTF-8"?>
<svg xmlns="http://www.w3.org/2000/svg" xmlns:xlink="http://www.w3.org/1999/xlink" width="792" height="504" viewBox="0 0 792 504">
<defs>
<clipPath id="clip-0">
<path clip-rule="nonzero" d="M 25.40625 16.9375 L 775.066406 16.9375 L 775.066406 381.292969 L 25.40625 381.292969 Z M 25.40625 16.9375 "/>
</clipPath>
<clipPath id="clip-1">
<path clip-rule="nonzero" d="M 25.40625 363 L 775.066406 363 L 775.066406 367 L 25.40625 367 Z M 25.40625 363 "/>
</clipPath>
<clipPath id="clip-2">
<path clip-rule="nonzero" d="M 25.40625 285 L 775.066406 285 L 775.066406 289 L 25.40625 289 Z M 25.40625 285 "/>
</clipPath>
<clipPath id="clip-3">
<path clip-rule="nonzero" d="M 25.40625 207 L 775.066406 207 L 775.066406 211 L 25.40625 211 Z M 25.40625 207 "/>
</clipPath>
<clipPath id="clip-4">
<path clip-rule="nonzero" d="M 25.40625 129 L 775.066406 129 L 775.066406 133 L 25.40625 133 Z M 25.40625 129 "/>
</clipPath>
<clipPath id="clip-5">
<path clip-rule="nonzero" d="M 25.40625 51 L 775.066406 51 L 775.066406 55 L 25.40625 55 Z M 25.40625 51 "/>
</clipPath>
<clipPath id="clip-6">
<path clip-rule="nonzero" d="M 31 16.9375 L 35 16.9375 L 35 381.292969 L 31 381.292969 Z M 31 16.9375 "/>
</clipPath>
<clipPath id="clip-7">
<path clip-rule="nonzero" d="M 211 16.9375 L 215 16.9375 L 215 381.292969 L 211 381.292969 Z M 211 16.9375 "/>
</clipPath>
<clipPath id="clip-8">
<path clip-rule="nonzero" d="M 391 16.9375 L 395 16.9375 L 395 381.292969 L 391 381.292969 Z M 391 16.9375 "/>
</clipPath>
<clipPath id="clip-9">
<path clip-rule="nonzero" d="M 571 16.9375 L 575 16.9375 L 575 381.292969 L 571 381.292969 Z M 571 16.9375 "/>
</clipPath>
<clipPath id="clip-10">
<path clip-rule="nonzero" d="M 751 16.9375 L 755 16.9375 L 755 381.292969 L 751 381.292969 Z M 751 16.9375 "/>
</clipPath>
<clipPath id="clip-11">
<path clip-rule="nonzero" d="M 401 16.9375 L 404 16.9375 L 404 381.292969 L 401 381.292969 Z M 401 16.9375 "/>
</clipPath>
</defs>
<rect x="-79.2" y="-50.4" width="950.4" height="604.8" fill="rgb(100%, 100%, 100%)" fill-opacity="1"/>
<rect x="-79.2" y="-50.4" width="950.4" height="604.8" fill="rgb(95.294118%, 95.294118%, 95.294118%)" fill-opacity="1"/>
<path fill="none" stroke-width="3.297933" stroke-linecap="round" stroke-linejoin="round" stroke="rgb(95.294118%, 95.294118%, 95.294118%)" stroke-opacity="1" stroke-miterlimit="10" d="M 0 504 L 792 504 L 792 0 L 0 0 Z M 0 504 "/>
<g clip-path="url(#clip-0)">
<path fill-rule="nonzero" fill="rgb(95.294118%, 95.294118%, 95.294118%)" fill-opacity="1" stroke-width="3.297933" stroke-linecap="round" stroke-linejoin="round" stroke="rgb(95.294118%, 95.294118%, 95.294118%)" stroke-opacity="1" stroke-miterlimit="10" d="M 25.40625 381.292969 L 775.066406 381.292969 L 775.066406 16.9375 L 25.40625 16.9375 Z M 25.40625 381.292969 "/>
</g>
<g clip-path="url(#clip-1)">
<path fill="none" stroke-width="3.297933" stroke-linecap="butt" stroke-linejoin="round" stroke="rgb(92.156863%, 92.156863%, 92.156863%)" stroke-opacity="1" stroke-miterlimit="10" d="M 25.40625 364.730469 L 775.0625 364.730469 "/>
</g>
<g clip-path="url(#clip-2)">
<path fill="none" stroke-width="3.297933" stroke-linecap="butt" stroke-linejoin="round" stroke="rgb(92.156863%, 92.156863%, 92.156863%)" stroke-opacity="1" stroke-miterlimit="10" d="M 25.40625 286.734375 L 775.0625 286.734375 "/>
</g>
<g clip-path="url(#clip-3)">
<path fill="none" stroke-width="3.297933" stroke-linecap="butt" stroke-linejoin="round" stroke="rgb(92.156863%, 92.156863%, 92.156863%)" stroke-opacity="1" stroke-miterlimit="10" d="M 25.40625 208.738281 L 775.0625 208.738281 "/>
</g>
<g clip-path="url(#clip-4)">
<path fill="none" stroke-width="3.297933" stroke-linecap="butt" stroke-linejoin="round" stroke="rgb(92.156863%, 92.156863%, 92.156863%)" stroke-opacity="1" stroke-miterlimit="10" d="M 25.40625 130.742188 L 775.0625 130.742188 "/>
</g>
<g clip-path="url(#clip-5)">
<path fill="none" stroke-width="3.297933" stroke-linecap="butt" stroke-linejoin="round" stroke="rgb(92.156863%, 92.156863%, 92.156863%)" stroke-opacity="1" stroke-miterlimit="10" d="M 25.40625 52.746094 L 775.0625 52.746094 "/>
</g>
<g clip-path="url(#clip-6)">
<path fill="none" stroke-width="3.297933" stroke-linecap="butt" stroke-linejoin="round" stroke="rgb(92.156863%, 92.156863%, 92.156863%)" stroke-opacity="1" stroke-miterlimit="10" d="M 33.082031 381.292969 L 33.082031 16.9375 "/>
</g>
<g clip-path="url(#clip-7)">
<path fill="none" stroke-width="3.297933" stroke-linecap="butt" stroke-linejoin="round" stroke="rgb(92.156863%, 92.156863%, 92.156863%)" stroke-opacity="1" stroke-miterlimit="10" d="M 213.058594 381.292969 L 213.058594 16.9375 "/>
</g>
<g clip-path="url(#clip-8)">
<path fill="none" stroke-width="3.297933" stroke-linecap="butt" stroke-linejoin="round" stroke="rgb(92.156863%, 92.156863%, 92.156863%)" stroke-opacity="1" stroke-miterlimit="10" d="M 393.035156 381.292969 L 393.035156 16.9375 "/>
</g>
<g clip-path="url(#clip-9)">
<path fill="none" stroke-width="3.297933" stroke-linecap="butt" stroke-linejoin="round" stroke="rgb(92.156863%, 92.156863%, 92.156863%)" stroke-opacity="1" stroke-miterlimit="10" d="M 573.011719 381.292969 L 573.011719 16.9375 "/>
</g>
<g clip-path="url(#clip-10)">
<path fill="none" stroke-width="3.297933" stroke-linecap="butt" stroke-linejoin="round" stroke="rgb(92.156863%, 92.156863%, 92.156863%)" stroke-opacity="1" stroke-miterlimit="10" d="M 752.988281 381.292969 L 752.988281 16.9375 "/>
</g>
<path fill-rule="nonzero" fill="rgb(56.078431%, 16.470588%, 26.27451%)" fill-opacity="0.698039" d="M 59.480469 337.125 L 60.8125 336.589844 L 62.148438 336.050781 L 63.480469 335.503906 L 64.816406 334.933594 L 66.148438 334.339844 L 67.480469 333.714844 L 68.816406 333.054688 L 70.148438 332.351562 L 71.484375 331.582031 L 72.816406 330.757812 L 74.152344 329.875 L 75.484375 328.917969 L 76.816406 327.851562 L 78.152344 326.703125 L 79.484375 325.46875 L 80.820312 324.132812 L 82.152344 322.652344 L 83.484375 321.0625 L 84.820312 319.363281 L 86.152344 317.546875 L 87.488281 315.558594 L 88.820312 313.445312 L 90.15625 311.210938 L 91.488281 308.855469 L 92.820312 306.3125 L 94.15625 303.652344 L 95.488281 300.871094 L 96.824219 297.972656 L 98.15625 294.914062 L 99.492188 291.746094 L 100.824219 288.480469 L 102.15625 285.125 L 103.492188 281.648438 L 104.824219 278.101562 L 106.160156 274.492188 L 107.492188 270.828125 L 108.824219 267.113281 L 110.160156 263.371094 L 111.492188 259.621094 L 112.828125 255.867188 L 114.160156 252.132812 L 115.496094 248.433594 L 116.828125 244.78125 L 118.160156 241.183594 L 119.496094 237.675781 L 120.828125 234.265625 L 122.164062 230.953125 L 123.496094 227.746094 L 124.832031 224.691406 L 126.164062 221.789062 L 127.496094 219.023438 L 128.832031 216.402344 L 130.164062 213.976562 L 131.5 211.742188 L 132.832031 209.667969 L 134.164062 207.761719 L 135.5 206.058594 L 136.832031 204.566406 L 138.167969 203.242188 L 139.5 202.082031 L 140.835938 201.121094 L 142.167969 200.359375 L 143.5 199.75 L 144.835938 199.289062 L 146.167969 199 L 147.503906 198.878906 L 148.835938 198.878906 L 150.171875 199 L 151.503906 199.246094 L 152.835938 199.621094 L 154.171875 200.085938 L 155.503906 200.625 L 156.839844 201.25 L 158.171875 201.953125 L 159.503906 202.703125 L 160.839844 203.5 L 162.171875 204.335938 L 163.507812 205.203125 L 164.839844 206.089844 L 166.175781 206.988281 L 168.839844 208.800781 L 170.175781 209.699219 L 171.507812 210.589844 L 172.84375 211.46875 L 174.175781 212.320312 L 175.511719 213.152344 L 176.84375 213.964844 L 178.175781 214.75 L 179.511719 215.503906 L 180.84375 216.230469 L 182.179688 216.933594 L 183.511719 217.613281 L 184.84375 218.25 L 186.179688 218.867188 L 187.511719 219.457031 L 188.847656 220.023438 L 190.179688 220.554688 L 191.515625 221.058594 L 192.847656 221.542969 L 194.179688 222.003906 L 195.515625 222.433594 L 196.847656 222.835938 L 198.183594 223.21875 L 199.515625 223.570312 L 200.851562 223.890625 L 202.183594 224.179688 L 203.515625 224.441406 L 204.851562 224.671875 L 206.183594 224.855469 L 207.519531 225 L 208.851562 225.101562 L 210.183594 225.164062 L 211.519531 225.167969 L 212.851562 225.109375 L 214.1875 225 L 215.519531 224.832031 L 216.855469 224.585938 L 218.1875 224.261719 L 219.519531 223.871094 L 220.855469 223.402344 L 222.1875 222.84375 L 223.523438 222.183594 L 224.855469 221.441406 L 226.191406 220.613281 L 227.523438 219.679688 L 228.855469 218.636719 L 230.191406 217.5 L 231.523438 216.277344 L 232.859375 214.949219 L 234.191406 213.507812 L 235.523438 211.980469 L 236.859375 210.371094 L 238.191406 208.671875 L 239.527344 206.875 L 240.859375 205.011719 L 242.195312 203.089844 L 243.527344 201.105469 L 244.859375 199.058594 L 246.195312 196.980469 L 247.527344 194.875 L 248.863281 192.75 L 250.195312 190.621094 L 251.53125 188.503906 L 252.863281 186.402344 L 254.195312 184.328125 L 255.53125 182.320312 L 256.863281 180.367188 L 258.199219 178.480469 L 259.53125 176.675781 L 260.863281 175 L 262.199219 173.429688 L 263.53125 171.96875 L 264.867188 170.628906 L 266.199219 169.476562 L 267.535156 168.464844 L 268.867188 167.597656 L 270.199219 166.878906 L 271.535156 166.382812 L 272.867188 166.050781 L 274.203125 165.875 L 275.535156 165.859375 L 276.871094 166.070312 L 278.203125 166.445312 L 279.535156 166.976562 L 280.871094 167.65625 L 282.203125 168.542969 L 283.539062 169.574219 L 284.871094 170.734375 L 286.203125 172.019531 L 287.539062 173.464844 L 288.871094 175.015625 L 290.207031 176.664062 L 291.539062 178.390625 L 292.875 180.214844 L 294.207031 182.101562 L 295.539062 184.035156 L 296.875 186 L 298.207031 187.992188 L 299.542969 189.992188 L 300.875 191.984375 L 302.210938 193.960938 L 303.542969 195.898438 L 304.875 197.78125 L 306.210938 199.605469 L 307.542969 201.367188 L 308.878906 203.03125 L 310.210938 204.582031 L 311.542969 206.035156 L 312.878906 207.375 L 314.210938 208.566406 L 315.546875 209.59375 L 316.878906 210.484375 L 318.214844 211.226562 L 319.546875 211.78125 L 320.878906 212.128906 L 322.214844 212.304688 L 323.546875 212.304688 L 324.882812 212.097656 L 326.214844 211.644531 L 327.550781 211 L 328.882812 210.164062 L 330.214844 209.105469 L 331.550781 207.785156 L 332.882812 206.261719 L 334.21875 204.542969 L 335.550781 202.601562 L 336.882812 200.394531 L 338.21875 197.992188 L 339.550781 195.402344 L 340.886719 192.605469 L 342.21875 189.558594 L 343.554688 186.335938 L 344.886719 182.945312 L 346.21875 179.382812 L 347.554688 175.601562 L 348.886719 171.683594 L 350.222656 167.628906 L 351.554688 163.441406 L 352.886719 159.09375 L 354.222656 154.648438 L 355.554688 150.117188 L 356.890625 145.503906 L 358.222656 140.792969 L 359.558594 136.039062 L 360.890625 131.246094 L 362.222656 126.421875 L 363.558594 121.585938 L 364.890625 116.75 L 366.226562 111.933594 L 367.558594 107.140625 L 368.894531 102.40625 L 370.226562 97.730469 L 371.558594 93.117188 L 372.894531 88.582031 L 374.226562 84.171875 L 375.5625 79.871094 L 376.894531 75.683594 L 378.226562 71.617188 L 379.5625 67.730469 L 380.894531 64.003906 L 382.230469 60.429688 L 383.5625 57.019531 L 384.898438 53.832031 L 386.230469 50.851562 L 387.5625 48.0625 L 388.898438 45.464844 L 390.230469 43.132812 L 391.566406 41.050781 L 392.898438 39.1875 L 394.234375 37.546875 L 395.566406 36.195312 L 396.898438 35.136719 L 398.234375 34.324219 L 399.566406 33.753906 L 400.902344 33.5 L 402.234375 33.5625 L 403.566406 33.886719 L 404.902344 34.472656 L 406.234375 35.382812 L 407.570312 36.628906 L 408.902344 38.144531 L 410.238281 39.921875 L 411.570312 42.019531 L 412.902344 44.453125 L 414.238281 47.144531 L 415.570312 50.09375 L 416.90625 53.324219 L 418.238281 56.878906 L 419.574219 60.660156 L 420.90625 64.667969 L 422.238281 68.914062 L 423.574219 73.429688 L 424.90625 78.128906 L 426.242188 82.996094 L 427.574219 88.042969 L 428.90625 93.277344 L 430.242188 98.632812 L 431.574219 104.089844 L 432.910156 109.644531 L 434.242188 115.292969 L 435.578125 120.976562 L 436.910156 126.691406 L 438.242188 132.414062 L 439.578125 138.117188 L 440.910156 143.777344 L 442.246094 149.382812 L 443.578125 154.921875 L 444.914062 160.324219 L 446.246094 165.609375 L 447.578125 170.765625 L 448.914062 175.785156 L 450.246094 180.574219 L 451.582031 185.179688 L 452.914062 189.601562 L 454.246094 193.828125 L 455.582031 197.761719 L 456.914062 201.464844 L 458.25 204.941406 L 459.582031 208.195312 L 460.917969 211.121094 L 462.25 213.789062 L 463.582031 216.21875 L 464.917969 218.410156 L 466.25 220.273438 L 467.585938 221.875 L 468.917969 223.242188 L 470.253906 224.378906 L 471.585938 225.214844 L 472.917969 225.800781 L 474.253906 226.175781 L 475.585938 226.34375 L 476.921875 226.257812 L 478.253906 225.949219 L 479.585938 225.460938 L 480.921875 224.804688 L 482.253906 223.945312 L 483.589844 222.90625 L 484.921875 221.730469 L 486.257812 220.425781 L 487.589844 218.976562 L 488.921875 217.402344 L 490.257812 215.734375 L 491.589844 213.988281 L 492.925781 212.152344 L 494.257812 210.25 L 495.59375 208.304688 L 496.925781 206.324219 L 498.257812 204.316406 L 499.59375 202.304688 L 500.925781 200.296875 L 502.261719 198.308594 L 503.59375 196.347656 L 504.925781 194.441406 L 506.261719 192.589844 L 507.59375 190.800781 L 508.929688 189.09375 L 510.261719 187.5 L 511.597656 186.003906 L 512.929688 184.613281 L 514.261719 183.34375 L 515.597656 182.242188 L 516.929688 181.269531 L 518.265625 180.429688 L 519.597656 179.734375 L 520.933594 179.246094 L 522.265625 178.902344 L 523.597656 178.703125 L 524.933594 178.660156 L 526.265625 178.828125 L 527.601562 179.144531 L 528.933594 179.597656 L 530.265625 180.191406 L 531.601562 180.980469 L 532.933594 181.890625 L 534.269531 182.914062 L 535.601562 184.050781 L 536.9375 185.324219 L 538.269531 186.683594 L 539.601562 188.113281 L 540.9375 189.609375 L 542.269531 191.171875 L 543.605469 192.769531 L 544.9375 194.382812 L 546.273438 196.007812 L 547.605469 197.625 L 548.9375 199.214844 L 550.273438 200.773438 L 551.605469 202.289062 L 552.941406 203.722656 L 554.273438 205.082031 L 555.605469 206.359375 L 556.941406 207.554688 L 558.273438 208.621094 L 559.609375 209.570312 L 560.941406 210.410156 L 562.277344 211.140625 L 563.609375 211.722656 L 564.941406 212.164062 L 566.277344 212.492188 L 567.609375 212.703125 L 568.945312 212.765625 L 570.277344 212.695312 L 571.613281 212.519531 L 572.945312 212.242188 L 574.277344 211.839844 L 575.613281 211.328125 L 576.945312 210.734375 L 578.28125 210.0625 L 579.613281 209.304688 L 580.945312 208.476562 L 582.28125 207.59375 L 583.613281 206.667969 L 584.949219 205.699219 L 586.28125 204.691406 L 587.617188 203.664062 L 588.949219 202.621094 L 590.28125 201.566406 L 591.617188 200.511719 L 592.949219 199.457031 L 594.285156 198.410156 L 595.617188 197.375 L 596.953125 196.355469 L 598.285156 195.355469 L 599.617188 194.371094 L 600.953125 193.40625 L 602.285156 192.46875 L 603.621094 191.546875 L 604.953125 190.644531 L 606.285156 189.761719 L 607.621094 188.902344 L 608.953125 188.054688 L 610.289062 187.222656 L 611.621094 186.402344 L 612.957031 185.59375 L 614.289062 184.796875 L 615.621094 184.003906 L 616.957031 183.21875 L 618.289062 182.445312 L 619.625 181.675781 L 620.957031 180.914062 L 622.292969 180.160156 L 623.625 179.421875 L 624.957031 178.695312 L 626.292969 177.988281 L 627.625 177.296875 L 628.960938 176.644531 L 630.292969 176.023438 L 631.625 175.441406 L 632.960938 174.898438 L 634.292969 174.425781 L 635.628906 174.015625 L 636.960938 173.675781 L 638.296875 173.402344 L 639.628906 173.25 L 640.960938 173.195312 L 642.296875 173.246094 L 643.628906 173.398438 L 644.964844 173.714844 L 646.296875 174.171875 L 647.628906 174.765625 L 648.964844 175.496094 L 650.296875 176.421875 L 651.632812 177.527344 L 652.964844 178.789062 L 654.300781 180.214844 L 655.632812 181.855469 L 656.964844 183.691406 L 658.300781 185.699219 L 659.632812 187.875 L 660.96875 190.265625 L 662.300781 192.851562 L 663.636719 195.601562 L 664.96875 198.507812 L 666.300781 201.601562 L 667.636719 204.871094 L 668.96875 208.273438 L 670.304688 211.808594 L 671.636719 215.480469 L 672.96875 219.289062 L 674.304688 223.191406 L 675.636719 227.171875 L 676.972656 231.238281 L 678.304688 235.378906 L 679.640625 239.554688 L 680.972656 243.761719 L 682.304688 247.992188 L 683.640625 252.21875 L 684.972656 256.433594 L 686.308594 260.621094 L 687.640625 264.769531 L 688.976562 268.847656 L 690.308594 272.859375 L 691.640625 276.796875 L 692.976562 280.648438 L 694.308594 284.367188 L 695.644531 287.976562 L 696.976562 291.480469 L 698.308594 294.859375 L 699.644531 298.0625 L 700.976562 301.136719 L 702.3125 304.078125 L 703.644531 306.882812 L 704.980469 309.484375 L 706.3125 311.953125 L 707.644531 314.28125 L 708.980469 316.476562 L 710.3125 318.46875 L 711.648438 320.335938 L 712.980469 322.070312 L 714.316406 323.683594 L 715.648438 325.125 L 716.980469 326.453125 L 718.316406 327.675781 L 719.648438 328.796875 L 720.984375 329.78125 L 722.316406 330.683594 L 723.648438 331.503906 L 724.984375 332.257812 L 726.316406 332.917969 L 727.652344 333.523438 L 728.984375 334.082031 L 730.320312 334.59375 L 731.652344 335.0625 L 732.984375 335.503906 L 734.320312 335.925781 L 735.652344 336.332031 L 736.988281 336.722656 L 738.320312 337.113281 L 739.65625 337.507812 L 740.988281 337.902344 L 740.988281 364.730469 L 59.480469 364.730469 Z M 59.480469 337.125 "/>
<g clip-path="url(#clip-11)">
<path fill="none" stroke-width="1.707165" stroke-linecap="butt" stroke-linejoin="round" stroke="rgb(0%, 0%, 0%)" stroke-opacity="1" stroke-dasharray="6.828661 6.828661" stroke-miterlimit="10" d="M 402.621094 381.292969 L 402.621094 16.9375 "/>
</g>
<path fill-rule="nonzero" fill="rgb(10.196078%, 10.196078%, 10.196078%)" fill-opacity="1" d="M -1.078125 410.261719 L -1.078125 409.015625 L 5.964844 409.015625 L 5.964844 410.261719 Z M -1.078125 410.261719 "/>
<path fill-rule="nonzero" fill="rgb(10.196078%, 10.196078%, 10.196078%)" fill-opacity="1" d="M 14.476562 418.007812 L 14.152344 418.003906 L 13.839844 417.988281 L 13.535156 417.96875 L 13.238281 417.941406 L 12.949219 417.902344 L 12.667969 417.855469 L 12.394531 417.804688 L 12.128906 417.742188 L 11.875 417.667969 L 11.628906 417.589844 L 11.394531 417.503906 L 11.167969 417.414062 L 10.945312 417.320312 L 10.730469 417.222656 L 10.523438 417.117188 L 10.320312 417.011719 L 10.125 416.898438 L 9.9375 416.78125 L 9.753906 416.660156 L 9.578125 416.535156 L 9.242188 416.277344 L 9.078125 416.152344 L 8.917969 416.023438 L 8.613281 415.765625 L 8.464844 415.636719 L 8.320312 415.511719 L 8.179688 415.382812 L 8.042969 415.253906 L 8.84375 414.261719 L 9.03125 414.445312 L 9.230469 414.628906 L 9.433594 414.808594 L 9.640625 414.984375 L 9.859375 415.160156 L 10.085938 415.332031 L 10.316406 415.5 L 10.554688 415.664062 L 10.800781 415.828125 L 11.050781 415.992188 L 11.320312 416.136719 L 11.605469 416.265625 L 11.90625 416.382812 L 12.222656 416.480469 L 12.554688 416.566406 L 12.902344 416.636719 L 13.265625 416.691406 L 13.640625 416.726562 L 14.035156 416.75 L 14.445312 416.757812 L 14.714844 416.75 L 14.984375 416.730469 L 15.25 416.699219 L 15.507812 416.652344 L 15.765625 416.589844 L 16.015625 416.515625 L 16.261719 416.429688 L 16.5 416.328125 L 16.738281 416.214844 L 16.972656 416.085938 L 17.199219 415.941406 L 17.414062 415.785156 L 17.621094 415.617188 L 17.820312 415.4375 L 18.011719 415.246094 L 18.191406 415.046875 L 18.363281 414.835938 L 18.527344 414.613281 L 18.683594 414.378906 L 18.828125 414.132812 L 18.960938 413.882812 L 19.082031 413.621094 L 19.1875 413.351562 L 19.277344 413.074219 L 19.355469 412.789062 L 19.417969 412.5 L 19.46875 412.199219 L 19.503906 411.890625 L 19.523438 411.578125 L 19.53125 411.253906 L 19.519531 410.773438 L 19.476562 410.3125 L 19.40625 409.871094 L 19.3125 409.453125 L 19.1875 409.054688 L 19.035156 408.679688 L 18.859375 408.324219 L 18.652344 407.988281 L 18.417969 407.675781 L 18.15625 407.382812 L 17.878906 407.113281 L 17.582031 406.875 L 17.265625 406.664062 L 16.933594 406.480469 L 16.578125 406.328125 L 16.207031 406.199219 L 15.820312 406.101562 L 15.410156 406.03125 L 14.984375 405.988281 L 14.539062 405.976562 L 14.304688 405.976562 L 14.078125 405.988281 L 13.859375 406.007812 L 13.644531 406.035156 L 13.4375 406.070312 L 13.234375 406.113281 L 13.039062 406.164062 L 12.851562 406.21875 L 12.667969 406.285156 L 12.492188 406.359375 L 12.324219 406.433594 L 12.15625 406.511719 L 11.984375 406.597656 L 11.8125 406.6875 L 11.636719 406.78125 L 11.457031 406.882812 L 11.28125 406.992188 L 11.097656 407.105469 L 10.917969 407.226562 L 10.730469 407.351562 L 9.738281 406.742188 L 10.476562 397.175781 L 19.914062 397.175781 L 19.914062 398.421875 L 11.753906 398.421875 L 11.117188 405.816406 L 11.277344 405.71875 L 11.4375 405.628906 L 11.601562 405.542969 L 11.765625 405.460938 L 11.933594 405.382812 L 12.097656 405.308594 L 12.265625 405.238281 L 12.4375 405.167969 L 12.609375 405.105469 L 12.78125 405.046875 L 12.953125 404.984375 L 13.136719 404.929688 L 13.320312 404.882812 L 13.511719 404.84375 L 13.707031 404.808594 L 13.910156 404.777344 L 14.113281 404.753906 L 14.324219 404.738281 L 14.542969 404.730469 L 14.765625 404.726562 L 15.105469 404.734375 L 15.441406 404.753906 L 15.773438 404.789062 L 16.09375 404.839844 L 16.410156 404.902344 L 16.722656 404.980469 L 17.027344 405.070312 L 17.324219 405.175781 L 17.613281 405.296875 L 17.898438 405.429688 L 18.179688 405.574219 L 18.453125 405.730469 L 18.707031 405.902344 L 18.953125 406.089844 L 19.1875 406.292969 L 19.410156 406.511719 L 19.617188 406.746094 L 19.816406 406.996094 L 20 407.261719 L 20.171875 407.542969 L 20.328125 407.832031 L 20.472656 408.140625 L 20.597656 408.460938 L 20.703125 408.800781 L 20.796875 409.160156 L 20.871094 409.53125 L 20.929688 409.921875 L 20.96875 410.328125 L 20.996094 410.75 L 21.003906 411.191406 L 20.992188 411.621094 L 20.964844 412.035156 L 20.917969 412.4375 L 20.851562 412.828125 L 20.765625 413.207031 L 20.65625 413.570312 L 20.535156 413.921875 L 20.390625 414.261719 L 20.226562 414.589844 L 20.042969 414.902344 L 19.851562 415.195312 L 19.648438 415.476562 L 19.433594 415.742188 L 19.210938 415.992188 L 18.972656 416.230469 L 18.722656 416.453125 L 18.460938 416.664062 L 18.191406 416.859375 L 17.90625 417.039062 L 17.613281 417.207031 L 17.316406 417.359375 L 17.015625 417.496094 L 16.710938 417.613281 L 16.402344 417.71875 L 16.089844 417.808594 L 15.777344 417.878906 L 15.457031 417.933594 L 15.132812 417.976562 L 14.804688 418 Z M 14.476562 418.007812 "/>
<path fill-rule="nonzero" fill="rgb(10.196078%, 10.196078%, 10.196078%)" fill-opacity="1" d="M 30.1875 418.007812 L 29.617188 417.980469 L 29.074219 417.894531 L 28.558594 417.757812 L 28.066406 417.5625 L 27.605469 417.3125 L 27.164062 417.003906 L 26.753906 416.640625 L 26.367188 416.226562 L 26.007812 415.75 L 25.675781 415.222656 L 25.371094 414.640625 L 25.101562 414.015625 L 24.859375 413.34375 L 24.652344 412.621094 L 24.476562 411.855469 L 24.332031 411.039062 L 24.21875 410.179688 L 24.140625 409.273438 L 24.089844 408.320312 L 24.074219 407.320312 L 24.089844 406.324219 L 24.140625 405.378906 L 24.21875 404.480469 L 24.332031 403.628906 L 24.476562 402.824219 L 24.652344 402.066406 L 24.859375 401.355469 L 25.101562 400.695312 L 25.371094 400.078125 L 25.675781 399.511719 L 26.007812 398.992188 L 26.367188 398.53125 L 26.753906 398.125 L 27.164062 397.769531 L 27.605469 397.46875 L 28.066406 397.226562 L 28.558594 397.035156 L 29.074219 396.898438 L 29.617188 396.816406 L 30.1875 396.789062 L 30.761719 396.816406 L 31.308594 396.898438 L 31.832031 397.035156 L 32.324219 397.226562 L 32.789062 397.46875 L 33.226562 397.769531 L 33.636719 398.125 L 34.015625 398.53125 L 34.371094 398.992188 L 34.699219 399.511719 L 35.003906 400.078125 L 35.277344 400.695312 L 35.515625 401.355469 L 35.722656 402.066406 L 35.898438 402.824219 L 36.042969 403.628906 L 36.15625 404.480469 L 36.234375 405.378906 L 36.285156 406.324219 L 36.300781 407.320312 L 36.285156 408.320312 L 36.234375 409.273438 L 36.15625 410.179688 L 36.042969 411.039062 L 35.898438 411.855469 L 35.722656 412.621094 L 35.515625 413.34375 L 35.277344 414.015625 L 35.003906 414.640625 L 34.699219 415.222656 L 34.371094 415.75 L 34.015625 416.226562 L 33.636719 416.640625 L 33.226562 417.003906 L 32.789062 417.3125 L 32.324219 417.5625 L 31.832031 417.757812 L 31.308594 417.894531 L 30.761719 417.980469 Z M 30.1875 416.789062 L 30.609375 416.765625 L 31.007812 416.695312 L 31.394531 416.574219 L 31.757812 416.40625 L 32.109375 416.191406 L 32.4375 415.925781 L 32.75 415.613281 L 33.042969 415.253906 L 33.320312 414.847656 L 33.578125 414.390625 L 33.824219 413.886719 L 34.039062 413.339844 L 34.234375 412.746094 L 34.398438 412.105469 L 34.539062 411.421875 L 34.65625 410.691406 L 34.746094 409.917969 L 34.808594 409.097656 L 34.847656 408.230469 L 34.859375 407.320312 L 34.847656 406.40625 L 34.808594 405.542969 L 34.746094 404.730469 L 34.65625 403.960938 L 34.539062 403.238281 L 34.398438 402.566406 L 34.234375 401.9375 L 34.039062 401.359375 L 33.824219 400.828125 L 33.578125 400.34375 L 33.320312 399.898438 L 33.042969 399.5 L 32.75 399.152344 L 32.4375 398.847656 L 32.109375 398.589844 L 31.757812 398.378906 L 31.394531 398.21875 L 31.007812 398.101562 L 30.609375 398.03125 L 30.1875 398.007812 L 29.773438 398.03125 L 29.375 398.101562 L 28.996094 398.21875 L 28.632812 398.378906 L 28.285156 398.589844 L 27.953125 398.847656 L 27.636719 399.152344 L 27.339844 399.5 L 27.058594 399.898438 L 26.796875 400.34375 L 26.550781 400.828125 L 26.335938 401.359375 L 26.144531 401.9375 L 25.976562 402.566406 L 25.835938 403.238281 L 25.71875 403.960938 L 25.632812 404.730469 L 25.566406 405.542969 L 25.527344 406.40625 L 25.515625 407.320312 L 25.527344 408.230469 L 25.566406 409.097656 L 25.632812 409.917969 L 25.71875 410.691406 L 25.835938 411.421875 L 25.976562 412.105469 L 26.144531 412.746094 L 26.335938 413.339844 L 26.550781 413.886719 L 26.796875 414.390625 L 27.058594 414.847656 L 27.339844 415.253906 L 27.636719 415.613281 L 27.953125 415.925781 L 28.285156 416.191406 L 28.632812 416.40625 L 28.996094 416.574219 L 29.375 416.695312 L 29.773438 416.765625 Z M 30.1875 416.789062 "/>
<path fill-rule="nonzero" fill="rgb(10.196078%, 10.196078%, 10.196078%)" fill-opacity="1" d="M 45.515625 418.007812 L 44.945312 417.980469 L 44.402344 417.894531 L 43.886719 417.757812 L 43.394531 417.5625 L 42.933594 417.3125 L 42.492188 417.003906 L 42.082031 416.640625 L 41.695312 416.226562 L 41.335938 415.75 L 41.003906 415.222656 L 40.699219 414.640625 L 40.425781 414.015625 L 40.1875 413.34375 L 39.980469 412.621094 L 39.804688 411.855469 L 39.660156 411.039062 L 39.546875 410.179688 L 39.46875 409.273438 L 39.417969 408.320312 L 39.402344 407.320312 L 39.417969 406.324219 L 39.46875 405.378906 L 39.546875 404.480469 L 39.660156 403.628906 L 39.804688 402.824219 L 39.980469 402.066406 L 40.1875 401.355469 L 40.425781 400.695312 L 40.699219 400.078125 L 41.003906 399.511719 L 41.335938 398.992188 L 41.695312 398.53125 L 42.082031 398.125 L 42.492188 397.769531 L 42.933594 397.46875 L 43.394531 397.226562 L 43.886719 397.035156 L 44.402344 396.898438 L 44.945312 396.816406 L 45.515625 396.789062 L 46.089844 396.816406 L 46.636719 396.898438 L 47.160156 397.035156 L 47.652344 397.226562 L 48.117188 397.46875 L 48.554688 397.769531 L 48.964844 398.125 L 49.34375 398.53125 L 49.699219 398.992188 L 50.027344 399.511719 L 50.332031 400.078125 L 50.605469 400.695312 L 50.84375 401.355469 L 51.050781 402.066406 L 51.226562 402.824219 L 51.371094 403.628906 L 51.484375 404.480469 L 51.5625 405.378906 L 51.613281 406.324219 L 51.628906 407.320312 L 51.613281 408.320312 L 51.5625 409.273438 L 51.484375 410.179688 L 51.371094 411.039062 L 51.226562 411.855469 L 51.050781 412.621094 L 50.84375 413.34375 L 50.605469 414.015625 L 50.332031 414.640625 L 50.027344 415.222656 L 49.699219 415.75 L 49.34375 416.226562 L 48.964844 416.640625 L 48.554688 417.003906 L 48.117188 417.3125 L 47.652344 417.5625 L 47.160156 417.757812 L 46.636719 417.894531 L 46.089844 417.980469 Z M 45.515625 416.789062 L 45.933594 416.765625 L 46.335938 416.695312 L 46.722656 416.574219 L 47.085938 416.40625 L 47.4375 416.191406 L 47.765625 415.925781 L 48.078125 415.613281 L 48.371094 415.253906 L 48.648438 414.847656 L 48.90625 414.390625 L 49.152344 413.886719 L 49.367188 413.339844 L 49.558594 412.746094 L 49.726562 412.105469 L 49.867188 411.421875 L 49.984375 410.691406 L 50.074219 409.917969 L 50.136719 409.097656 L 50.175781 408.230469 L 50.1875 407.320312 L 50.175781 406.40625 L 50.136719 405.542969 L 50.074219 404.730469 L 49.984375 403.960938 L 49.867188 403.238281 L 49.726562 402.566406 L 49.558594 401.9375 L 49.367188 401.359375 L 49.152344 400.828125 L 48.90625 400.34375 L 48.648438 399.898438 L 48.371094 399.5 L 48.078125 399.152344 L 47.765625 398.847656 L 47.4375 398.589844 L 47.085938 398.378906 L 46.722656 398.21875 L 46.335938 398.101562 L 45.933594 398.03125 L 45.515625 398.007812 L 45.101562 398.03125 L 44.703125 398.101562 L 44.324219 398.21875 L 43.960938 398.378906 L 43.613281 398.589844 L 43.28125 398.847656 L 42.964844 399.152344 L 42.667969 399.5 L 42.386719 399.898438 L 42.125 400.34375 L 41.878906 400.828125 L 41.664062 401.359375 L 41.472656 401.9375 L 41.304688 402.566406 L 41.164062 403.238281 L 41.046875 403.960938 L 40.957031 404.730469 L 40.894531 405.542969 L 40.855469 406.40625 L 40.84375 407.320312 L 40.855469 408.230469 L 40.894531 409.097656 L 40.957031 409.917969 L 41.046875 410.691406 L 41.164062 411.421875 L 41.304688 412.105469 L 41.472656 412.746094 L 41.664062 413.339844 L 41.878906 413.886719 L 42.125 414.390625 L 42.386719 414.847656 L 42.667969 415.253906 L 42.964844 415.613281 L 43.28125 415.925781 L 43.613281 416.191406 L 43.960938 416.40625 L 44.324219 416.574219 L 44.703125 416.695312 L 45.101562 416.765625 Z M 45.515625 416.789062 "/>
<path fill-rule="nonzero" fill="rgb(10.196078%, 10.196078%, 10.196078%)" fill-opacity="1" d="M 60.84375 418.007812 L 60.273438 417.980469 L 59.730469 417.894531 L 59.214844 417.757812 L 58.722656 417.5625 L 58.257812 417.3125 L 57.820312 417.003906 L 57.410156 416.640625 L 57.023438 416.226562 L 56.664062 415.75 L 56.332031 415.222656 L 56.027344 414.640625 L 55.753906 414.015625 L 55.515625 413.34375 L 55.308594 412.621094 L 55.132812 411.855469 L 54.988281 411.039062 L 54.875 410.179688 L 54.796875 409.273438 L 54.746094 408.320312 L 54.730469 407.320312 L 54.746094 406.324219 L 54.796875 405.378906 L 54.875 404.480469 L 54.988281 403.628906 L 55.132812 402.824219 L 55.308594 402.066406 L 55.515625 401.355469 L 55.753906 400.695312 L 56.027344 400.078125 L 56.332031 399.511719 L 56.664062 398.992188 L 57.023438 398.53125 L 57.410156 398.125 L 57.820312 397.769531 L 58.257812 397.46875 L 58.722656 397.226562 L 59.214844 397.035156 L 59.730469 396.898438 L 60.273438 396.816406 L 60.84375 396.789062 L 61.417969 396.816406 L 61.964844 396.898438 L 62.484375 397.035156 L 62.980469 397.226562 L 63.445312 397.46875 L 63.882812 397.769531 L 64.292969 398.125 L 64.671875 398.53125 L 65.027344 398.992188 L 65.355469 399.511719 L 65.660156 400.078125 L 65.933594 400.695312 L 66.171875 401.355469 L 66.378906 402.066406 L 66.554688 402.824219 L 66.699219 403.628906 L 66.8125 404.480469 L 66.890625 405.378906 L 66.941406 406.324219 L 66.957031 407.320312 L 66.941406 408.320312 L 66.890625 409.273438 L 66.8125 410.179688 L 66.699219 411.039062 L 66.554688 411.855469 L 66.378906 412.621094 L 66.171875 413.34375 L 65.933594 414.015625 L 65.660156 414.640625 L 65.355469 415.222656 L 65.027344 415.75 L 64.671875 416.226562 L 64.292969 416.640625 L 63.882812 417.003906 L 63.445312 417.3125 L 62.980469 417.5625 L 62.484375 417.757812 L 61.964844 417.894531 L 61.417969 417.980469 Z M 60.84375 416.789062 L 61.261719 416.765625 L 61.664062 416.695312 L 62.050781 416.574219 L 62.414062 416.40625 L 62.765625 416.191406 L 63.09375 415.925781 L 63.40625 415.613281 L 63.699219 415.253906 L 63.976562 414.847656 L 64.234375 414.390625 L 64.480469 413.886719 L 64.695312 413.339844 L 64.886719 412.746094 L 65.054688 412.105469 L 65.195312 411.421875 L 65.3125 410.691406 L 65.402344 409.917969 L 65.464844 409.097656 L 65.503906 408.230469 L 65.515625 407.320312 L 65.503906 406.40625 L 65.464844 405.542969 L 65.402344 404.730469 L 65.3125 403.960938 L 65.195312 403.238281 L 65.054688 402.566406 L 64.886719 401.9375 L 64.695312 401.359375 L 64.480469 400.828125 L 64.234375 400.34375 L 63.976562 399.898438 L 63.699219 399.5 L 63.40625 399.152344 L 63.09375 398.847656 L 62.765625 398.589844 L 62.414062 398.378906 L 62.050781 398.21875 L 61.664062 398.101562 L 61.261719 398.03125 L 60.84375 398.007812 L 60.429688 398.03125 L 60.03125 398.101562 L 59.652344 398.21875 L 59.289062 398.378906 L 58.941406 398.589844 L 58.609375 398.847656 L 58.292969 399.152344 L 57.996094 399.5 L 57.714844 399.898438 L 57.453125 400.34375 L 57.207031 400.828125 L 56.992188 401.359375 L 56.800781 401.9375 L 56.632812 402.566406 L 56.492188 403.238281 L 56.375 403.960938 L 56.285156 404.730469 L 56.222656 405.542969 L 56.183594 406.40625 L 56.171875 407.320312 L 56.183594 408.230469 L 56.222656 409.097656 L 56.285156 409.917969 L 56.375 410.691406 L 56.492188 411.421875 L 56.632812 412.105469 L 56.800781 412.746094 L 56.992188 413.339844 L 57.207031 413.886719 L 57.453125 414.390625 L 57.714844 414.847656 L 57.996094 415.253906 L 58.292969 415.613281 L 58.609375 415.925781 L 58.941406 416.191406 L 59.289062 416.40625 L 59.652344 416.574219 L 60.03125 416.695312 L 60.429688 416.765625 Z M 60.84375 416.789062 "/>
<path fill-rule="nonzero" fill="rgb(10.196078%, 10.196078%, 10.196078%)" fill-opacity="1" d="M 178.898438 410.261719 L 178.898438 409.015625 L 185.9375 409.015625 L 185.9375 410.261719 Z M 178.898438 410.261719 "/>
<path fill-rule="nonzero" fill="rgb(10.196078%, 10.196078%, 10.196078%)" fill-opacity="1" d="M 188.5 417.621094 L 188.5 416.726562 L 189.160156 416.050781 L 189.796875 415.394531 L 190.414062 414.753906 L 191.007812 414.136719 L 191.578125 413.535156 L 192.128906 412.953125 L 192.65625 412.386719 L 193.160156 411.84375 L 193.640625 411.316406 L 194.097656 410.808594 L 194.535156 410.304688 L 194.949219 409.816406 L 195.34375 409.339844 L 195.710938 408.871094 L 196.058594 408.414062 L 196.382812 407.96875 L 196.6875 407.535156 L 196.964844 407.109375 L 197.222656 406.695312 L 197.460938 406.292969 L 197.671875 405.898438 L 197.863281 405.511719 L 198.03125 405.125 L 198.175781 404.742188 L 198.300781 404.367188 L 198.398438 403.996094 L 198.480469 403.625 L 198.535156 403.261719 L 198.566406 402.90625 L 198.578125 402.550781 L 198.570312 402.171875 L 198.535156 401.808594 L 198.480469 401.453125 L 198.40625 401.113281 L 198.308594 400.78125 L 198.1875 400.464844 L 198.046875 400.160156 L 197.882812 399.867188 L 197.699219 399.585938 L 197.492188 399.320312 L 197.269531 399.070312 L 197.019531 398.847656 L 196.746094 398.648438 L 196.445312 398.480469 L 196.125 398.335938 L 195.773438 398.214844 L 195.402344 398.125 L 195.003906 398.058594 L 194.578125 398.019531 L 194.132812 398.007812 L 193.859375 398.015625 L 193.585938 398.039062 L 193.316406 398.074219 L 193.050781 398.128906 L 192.789062 398.199219 L 192.527344 398.28125 L 192.269531 398.382812 L 192.011719 398.5 L 191.757812 398.628906 L 191.507812 398.773438 L 191.265625 398.933594 L 191.03125 399.097656 L 190.804688 399.269531 L 190.582031 399.449219 L 190.363281 399.636719 L 190.152344 399.835938 L 189.945312 400.039062 L 189.746094 400.25 L 189.550781 400.46875 L 189.363281 400.695312 L 188.433594 399.796875 L 188.667969 399.546875 L 188.90625 399.304688 L 189.148438 399.066406 L 189.398438 398.839844 L 189.652344 398.621094 L 189.910156 398.414062 L 190.171875 398.210938 L 190.441406 398.015625 L 190.714844 397.832031 L 190.996094 397.65625 L 191.28125 397.492188 L 191.578125 397.34375 L 191.878906 397.214844 L 192.195312 397.101562 L 192.515625 397.007812 L 192.847656 396.929688 L 193.1875 396.867188 L 193.535156 396.824219 L 193.894531 396.800781 L 194.257812 396.789062 L 194.796875 396.804688 L 195.308594 396.851562 L 195.796875 396.933594 L 196.261719 397.042969 L 196.699219 397.183594 L 197.113281 397.355469 L 197.5 397.558594 L 197.863281 397.792969 L 198.203125 398.0625 L 198.515625 398.359375 L 198.800781 398.683594 L 199.058594 399.027344 L 199.28125 399.390625 L 199.476562 399.777344 L 199.644531 400.183594 L 199.777344 400.609375 L 199.882812 401.054688 L 199.960938 401.523438 L 200.003906 402.011719 L 200.019531 402.519531 L 200.007812 402.921875 L 199.972656 403.328125 L 199.914062 403.734375 L 199.828125 404.140625 L 199.722656 404.550781 L 199.59375 404.960938 L 199.4375 405.371094 L 199.261719 405.785156 L 199.058594 406.199219 L 198.835938 406.613281 L 198.59375 407.035156 L 198.335938 407.460938 L 198.058594 407.890625 L 197.761719 408.328125 L 197.445312 408.773438 L 197.105469 409.226562 L 196.753906 409.683594 L 196.378906 410.148438 L 195.984375 410.617188 L 195.570312 411.09375 L 195.148438 411.582031 L 194.707031 412.078125 L 194.253906 412.589844 L 193.785156 413.113281 L 193.300781 413.648438 L 192.800781 414.195312 L 192.28125 414.753906 L 191.75 415.324219 L 191.207031 415.90625 L 190.644531 416.503906 L 190.808594 416.488281 L 190.976562 416.476562 L 191.144531 416.46875 L 191.3125 416.457031 L 191.484375 416.445312 L 191.652344 416.4375 L 192.339844 416.40625 L 192.519531 416.394531 L 192.695312 416.382812 L 193.046875 416.367188 L 193.390625 416.351562 L 193.5625 416.347656 L 193.730469 416.34375 L 201.042969 416.34375 L 201.042969 417.621094 Z M 188.5 417.621094 "/>
<path fill-rule="nonzero" fill="rgb(10.196078%, 10.196078%, 10.196078%)" fill-opacity="1" d="M 209.78125 418.007812 L 209.457031 418.003906 L 209.144531 417.988281 L 208.835938 417.96875 L 208.539062 417.941406 L 208.25 417.902344 L 207.972656 417.855469 L 207.699219 417.804688 L 207.433594 417.742188 L 207.179688 417.667969 L 206.929688 417.589844 L 206.699219 417.503906 L 206.46875 417.414062 L 206.25 417.320312 L 206.035156 417.222656 L 205.828125 417.117188 L 205.625 417.011719 L 205.429688 416.898438 L 205.242188 416.78125 L 205.058594 416.660156 L 204.882812 416.535156 L 204.710938 416.40625 L 204.546875 416.277344 L 204.382812 416.152344 L 204.222656 416.023438 L 204.066406 415.894531 L 203.914062 415.765625 L 203.769531 415.636719 L 203.625 415.511719 L 203.484375 415.382812 L 203.347656 415.253906 L 204.148438 414.261719 L 204.335938 414.445312 L 204.53125 414.628906 L 204.734375 414.808594 L 204.945312 414.984375 L 205.164062 415.160156 L 205.386719 415.332031 L 205.617188 415.5 L 206.101562 415.828125 L 206.355469 415.992188 L 206.625 416.136719 L 206.910156 416.265625 L 207.210938 416.382812 L 207.527344 416.480469 L 207.859375 416.566406 L 208.207031 416.636719 L 208.570312 416.691406 L 208.945312 416.726562 L 209.339844 416.75 L 209.746094 416.757812 L 210.019531 416.75 L 210.289062 416.730469 L 210.554688 416.699219 L 210.8125 416.652344 L 211.066406 416.589844 L 211.316406 416.515625 L 211.5625 416.429688 L 211.804688 416.328125 L 212.042969 416.214844 L 212.277344 416.085938 L 212.5 415.941406 L 212.71875 415.785156 L 212.925781 415.617188 L 213.125 415.4375 L 213.316406 415.246094 L 213.496094 415.046875 L 213.667969 414.835938 L 213.832031 414.613281 L 213.984375 414.378906 L 214.132812 414.132812 L 214.265625 413.882812 L 214.386719 413.621094 L 214.492188 413.351562 L 214.582031 413.074219 L 214.660156 412.789062 L 214.722656 412.5 L 214.773438 412.199219 L 214.808594 411.890625 L 214.828125 411.578125 L 214.835938 411.253906 L 214.820312 410.773438 L 214.78125 410.3125 L 214.710938 409.871094 L 214.617188 409.453125 L 214.492188 409.054688 L 214.339844 408.679688 L 214.160156 408.324219 L 213.953125 407.988281 L 213.722656 407.675781 L 213.460938 407.382812 L 213.179688 407.113281 L 212.882812 406.875 L 212.570312 406.664062 L 212.234375 406.480469 L 211.882812 406.328125 L 211.511719 406.199219 L 211.125 406.101562 L 210.714844 406.03125 L 210.289062 405.988281 L 209.84375 405.976562 L 209.609375 405.976562 L 209.382812 405.988281 L 209.160156 406.007812 L 208.949219 406.035156 L 208.738281 406.070312 L 208.539062 406.113281 L 208.34375 406.164062 L 208.152344 406.21875 L 207.972656 406.285156 L 207.796875 406.359375 L 207.628906 406.433594 L 207.457031 406.511719 L 207.289062 406.597656 L 207.113281 406.6875 L 206.9375 406.78125 L 206.761719 406.882812 L 206.582031 406.992188 L 206.402344 407.105469 L 206.21875 407.226562 L 206.035156 407.351562 L 205.042969 406.742188 L 205.78125 397.175781 L 215.21875 397.175781 L 215.21875 398.421875 L 207.058594 398.421875 L 206.417969 405.816406 L 206.578125 405.71875 L 206.742188 405.628906 L 206.90625 405.542969 L 207.070312 405.460938 L 207.234375 405.382812 L 207.402344 405.308594 L 207.570312 405.238281 L 207.742188 405.167969 L 207.910156 405.105469 L 208.082031 405.046875 L 208.257812 404.984375 L 208.4375 404.929688 L 208.625 404.882812 L 208.816406 404.84375 L 209.011719 404.808594 L 209.210938 404.777344 L 209.417969 404.753906 L 209.628906 404.738281 L 209.847656 404.730469 L 210.066406 404.726562 L 210.410156 404.734375 L 210.746094 404.753906 L 211.074219 404.789062 L 211.398438 404.839844 L 211.714844 404.902344 L 212.027344 404.980469 L 212.328125 405.070312 L 212.628906 405.175781 L 212.917969 405.296875 L 213.203125 405.429688 L 213.484375 405.574219 L 213.753906 405.730469 L 214.011719 405.902344 L 214.257812 406.089844 L 214.492188 406.292969 L 214.710938 406.511719 L 214.921875 406.746094 L 215.117188 406.996094 L 215.304688 407.261719 L 215.476562 407.542969 L 215.632812 407.832031 L 215.773438 408.140625 L 215.898438 408.460938 L 216.007812 408.800781 L 216.097656 409.160156 L 216.175781 409.53125 L 216.234375 409.921875 L 216.273438 410.328125 L 216.300781 410.75 L 216.308594 411.191406 L 216.296875 411.621094 L 216.269531 412.035156 L 216.222656 412.4375 L 216.152344 412.828125 L 216.066406 413.207031 L 215.960938 413.570312 L 215.835938 413.921875 L 215.691406 414.261719 L 215.53125 414.589844 L 215.347656 414.902344 L 215.15625 415.195312 L 214.953125 415.476562 L 214.738281 415.742188 L 214.511719 415.992188 L 214.277344 416.230469 L 214.027344 416.453125 L 213.765625 416.664062 L 213.492188 416.859375 L 213.210938 417.039062 L 212.914062 417.207031 L 212.617188 417.359375 L 212.320312 417.496094 L 212.015625 417.613281 L 211.707031 417.71875 L 211.394531 417.808594 L 211.078125 417.878906 L 210.761719 417.933594 L 210.4375 417.976562 L 210.109375 418 Z M 209.78125 418.007812 "/>
<path fill-rule="nonzero" fill="rgb(10.196078%, 10.196078%, 10.196078%)" fill-opacity="1" d="M 225.492188 418.007812 L 224.921875 417.980469 L 224.378906 417.894531 L 223.863281 417.757812 L 223.371094 417.5625 L 222.90625 417.3125 L 222.46875 417.003906 L 222.058594 416.640625 L 221.671875 416.226562 L 221.3125 415.75 L 220.980469 415.222656 L 220.675781 414.640625 L 220.402344 414.015625 L 220.164062 413.34375 L 219.957031 412.621094 L 219.78125 411.855469 L 219.636719 411.039062 L 219.523438 410.179688 L 219.445312 409.273438 L 219.394531 408.320312 L 219.378906 407.320312 L 219.394531 406.324219 L 219.445312 405.378906 L 219.523438 404.480469 L 219.636719 403.628906 L 219.78125 402.824219 L 219.957031 402.066406 L 220.164062 401.355469 L 220.402344 400.695312 L 220.675781 400.078125 L 220.980469 399.511719 L 221.3125 398.992188 L 221.671875 398.53125 L 222.058594 398.125 L 222.46875 397.769531 L 222.90625 397.46875 L 223.371094 397.226562 L 223.863281 397.035156 L 224.378906 396.898438 L 224.921875 396.816406 L 225.492188 396.789062 L 226.066406 396.816406 L 226.613281 396.898438 L 227.132812 397.035156 L 227.625 397.226562 L 228.089844 397.46875 L 228.527344 397.769531 L 228.9375 398.125 L 229.320312 398.53125 L 229.675781 398.992188 L 230.003906 399.511719 L 230.308594 400.078125 L 230.578125 400.695312 L 230.820312 401.355469 L 231.027344 402.066406 L 231.203125 402.824219 L 231.347656 403.628906 L 231.460938 404.480469 L 231.539062 405.378906 L 231.585938 406.324219 L 231.601562 407.320312 L 231.585938 408.320312 L 231.539062 409.273438 L 231.460938 410.179688 L 231.347656 411.039062 L 231.203125 411.855469 L 231.027344 412.621094 L 230.820312 413.34375 L 230.578125 414.015625 L 230.308594 414.640625 L 230.003906 415.222656 L 229.675781 415.75 L 229.320312 416.226562 L 228.9375 416.640625 L 228.527344 417.003906 L 228.089844 417.3125 L 227.625 417.5625 L 227.132812 417.757812 L 226.613281 417.894531 L 226.066406 417.980469 Z M 225.492188 416.789062 L 225.910156 416.765625 L 226.3125 416.695312 L 226.695312 416.574219 L 227.0625 416.40625 L 227.410156 416.191406 L 227.742188 415.925781 L 228.054688 415.613281 L 228.347656 415.253906 L 228.625 414.847656 L 228.882812 414.390625 L 229.125 413.886719 L 229.34375 413.339844 L 229.535156 412.746094 L 229.703125 412.105469 L 229.84375 411.421875 L 229.957031 410.691406 L 230.046875 409.917969 L 230.113281 409.097656 L 230.152344 408.230469 L 230.164062 407.320312 L 230.152344 406.40625 L 230.113281 405.542969 L 230.046875 404.730469 L 229.957031 403.960938 L 229.84375 403.238281 L 229.703125 402.566406 L 229.535156 401.9375 L 229.34375 401.359375 L 229.125 400.828125 L 228.882812 400.34375 L 228.625 399.898438 L 228.347656 399.5 L 228.054688 399.152344 L 227.742188 398.847656 L 227.410156 398.589844 L 227.0625 398.378906 L 226.695312 398.21875 L 226.3125 398.101562 L 225.910156 398.03125 L 225.492188 398.007812 L 225.078125 398.03125 L 224.679688 398.101562 L 224.300781 398.21875 L 223.933594 398.378906 L 223.585938 398.589844 L 223.257812 398.847656 L 222.941406 399.152344 L 222.644531 399.5 L 222.363281 399.898438 L 222.097656 400.34375 L 221.855469 400.828125 L 221.636719 401.359375 L 221.445312 401.9375 L 221.28125 402.566406 L 221.140625 403.238281 L 221.023438 403.960938 L 220.933594 404.730469 L 220.871094 405.542969 L 220.832031 406.40625 L 220.820312 407.320312 L 220.832031 408.230469 L 220.871094 409.097656 L 220.933594 409.917969 L 221.023438 410.691406 L 221.140625 411.421875 L 221.28125 412.105469 L 221.445312 412.746094 L 221.636719 413.339844 L 221.855469 413.886719 L 222.097656 414.390625 L 222.363281 414.847656 L 222.644531 415.253906 L 222.941406 415.613281 L 223.257812 415.925781 L 223.585938 416.191406 L 223.933594 416.40625 L 224.300781 416.574219 L 224.679688 416.695312 L 225.078125 416.765625 Z M 225.492188 416.789062 "/>
<path fill-rule="nonzero" fill="rgb(10.196078%, 10.196078%, 10.196078%)" fill-opacity="1" d="M 240.820312 418.007812 L 240.25 417.980469 L 239.707031 417.894531 L 239.191406 417.757812 L 238.699219 417.5625 L 238.234375 417.3125 L 237.796875 417.003906 L 237.386719 416.640625 L 237 416.226562 L 236.640625 415.75 L 236.308594 415.222656 L 236.003906 414.640625 L 235.730469 414.015625 L 235.492188 413.34375 L 235.285156 412.621094 L 235.105469 411.855469 L 234.964844 411.039062 L 234.851562 410.179688 L 234.769531 409.273438 L 234.722656 408.320312 L 234.707031 407.320312 L 234.722656 406.324219 L 234.769531 405.378906 L 234.851562 404.480469 L 234.964844 403.628906 L 235.105469 402.824219 L 235.285156 402.066406 L 235.492188 401.355469 L 235.730469 400.695312 L 236.003906 400.078125 L 236.308594 399.511719 L 236.640625 398.992188 L 237 398.53125 L 237.386719 398.125 L 237.796875 397.769531 L 238.234375 397.46875 L 238.699219 397.226562 L 239.191406 397.035156 L 239.707031 396.898438 L 240.25 396.816406 L 240.820312 396.789062 L 241.394531 396.816406 L 241.941406 396.898438 L 242.460938 397.035156 L 242.953125 397.226562 L 243.417969 397.46875 L 243.855469 397.769531 L 244.265625 398.125 L 244.648438 398.53125 L 245.003906 398.992188 L 245.332031 399.511719 L 245.636719 400.078125 L 245.90625 400.695312 L 246.148438 401.355469 L 246.355469 402.066406 L 246.53125 402.824219 L 246.675781 403.628906 L 246.789062 404.480469 L 246.867188 405.378906 L 246.914062 406.324219 L 246.929688 407.320312 L 246.914062 408.320312 L 246.867188 409.273438 L 246.789062 410.179688 L 246.675781 411.039062 L 246.53125 411.855469 L 246.355469 412.621094 L 246.148438 413.34375 L 245.90625 414.015625 L 245.636719 414.640625 L 245.332031 415.222656 L 245.003906 415.75 L 244.648438 416.226562 L 244.265625 416.640625 L 243.855469 417.003906 L 243.417969 417.3125 L 242.953125 417.5625 L 242.460938 417.757812 L 241.941406 417.894531 L 241.394531 417.980469 Z M 240.820312 416.789062 L 241.238281 416.765625 L 241.640625 416.695312 L 242.023438 416.574219 L 242.390625 416.40625 L 242.738281 416.191406 L 243.070312 415.925781 L 243.382812 415.613281 L 243.675781 415.253906 L 243.953125 414.847656 L 244.210938 414.390625 L 244.453125 413.886719 L 244.671875 413.339844 L 244.863281 412.746094 L 245.03125 412.105469 L 245.171875 411.421875 L 245.285156 410.691406 L 245.375 409.917969 L 245.441406 409.097656 L 245.480469 408.230469 L 245.492188 407.320312 L 245.480469 406.40625 L 245.441406 405.542969 L 245.375 404.730469 L 245.285156 403.960938 L 245.171875 403.238281 L 245.03125 402.566406 L 244.863281 401.9375 L 244.671875 401.359375 L 244.453125 400.828125 L 244.210938 400.34375 L 243.953125 399.898438 L 243.675781 399.5 L 243.382812 399.152344 L 243.070312 398.847656 L 242.738281 398.589844 L 242.390625 398.378906 L 242.023438 398.21875 L 241.640625 398.101562 L 241.238281 398.03125 L 240.820312 398.007812 L 240.40625 398.03125 L 240.007812 398.101562 L 239.628906 398.21875 L 239.261719 398.378906 L 238.914062 398.589844 L 238.585938 398.847656 L 238.269531 399.152344 L 237.972656 399.5 L 237.691406 399.898438 L 237.425781 400.34375 L 237.183594 400.828125 L 236.964844 401.359375 L 236.773438 401.9375 L 236.609375 402.566406 L 236.46875 403.238281 L 236.351562 403.960938 L 236.261719 404.730469 L 236.199219 405.542969 L 236.160156 406.40625 L 236.148438 407.320312 L 236.160156 408.230469 L 236.199219 409.097656 L 236.261719 409.917969 L 236.351562 410.691406 L 236.46875 411.421875 L 236.609375 412.105469 L 236.773438 412.746094 L 236.964844 413.339844 L 237.183594 413.886719 L 237.425781 414.390625 L 237.691406 414.847656 L 237.972656 415.253906 L 238.269531 415.613281 L 238.585938 415.925781 L 238.914062 416.191406 L 239.261719 416.40625 L 239.628906 416.574219 L 240.007812 416.695312 L 240.40625 416.765625 Z M 240.820312 416.789062 "/>
<path fill-rule="nonzero" fill="rgb(10.196078%, 10.196078%, 10.196078%)" fill-opacity="1" d="M 393.019531 418.007812 L 392.449219 417.980469 L 391.90625 417.894531 L 391.390625 417.757812 L 390.898438 417.5625 L 390.433594 417.3125 L 389.996094 417.003906 L 389.585938 416.640625 L 389.199219 416.226562 L 388.839844 415.75 L 388.507812 415.222656 L 388.203125 414.640625 L 387.929688 414.015625 L 387.691406 413.34375 L 387.484375 412.621094 L 387.308594 411.855469 L 387.164062 411.039062 L 387.050781 410.179688 L 386.972656 409.273438 L 386.921875 408.320312 L 386.90625 407.320312 L 386.921875 406.324219 L 386.972656 405.378906 L 387.050781 404.480469 L 387.164062 403.628906 L 387.308594 402.824219 L 387.484375 402.066406 L 387.691406 401.355469 L 387.929688 400.695312 L 388.203125 400.078125 L 388.507812 399.511719 L 388.839844 398.992188 L 389.199219 398.53125 L 389.585938 398.125 L 389.996094 397.769531 L 390.433594 397.46875 L 390.898438 397.226562 L 391.390625 397.035156 L 391.90625 396.898438 L 392.449219 396.816406 L 393.019531 396.789062 L 393.59375 396.816406 L 394.140625 396.898438 L 394.660156 397.035156 L 395.152344 397.226562 L 395.617188 397.46875 L 396.054688 397.769531 L 396.464844 398.125 L 396.847656 398.53125 L 397.203125 398.992188 L 397.53125 399.511719 L 397.835938 400.078125 L 398.105469 400.695312 L 398.347656 401.355469 L 398.554688 402.066406 L 398.730469 402.824219 L 398.875 403.628906 L 398.988281 404.480469 L 399.066406 405.378906 L 399.113281 406.324219 L 399.132812 407.320312 L 399.113281 408.320312 L 399.066406 409.273438 L 398.988281 410.179688 L 398.875 411.039062 L 398.730469 411.855469 L 398.554688 412.621094 L 398.347656 413.34375 L 398.105469 414.015625 L 397.835938 414.640625 L 397.53125 415.222656 L 397.203125 415.75 L 396.847656 416.226562 L 396.464844 416.640625 L 396.054688 417.003906 L 395.617188 417.3125 L 395.152344 417.5625 L 394.660156 417.757812 L 394.140625 417.894531 L 393.59375 417.980469 Z M 393.019531 416.789062 L 393.4375 416.765625 L 393.839844 416.695312 L 394.226562 416.574219 L 394.589844 416.40625 L 394.9375 416.191406 L 395.269531 415.925781 L 395.582031 415.613281 L 395.875 415.253906 L 396.152344 414.847656 L 396.410156 414.390625 L 396.652344 413.886719 L 396.871094 413.339844 L 397.0625 412.746094 L 397.230469 412.105469 L 397.371094 411.421875 L 397.484375 410.691406 L 397.574219 409.917969 L 397.640625 409.097656 L 397.679688 408.230469 L 397.691406 407.320312 L 397.679688 406.40625 L 397.640625 405.542969 L 397.574219 404.730469 L 397.484375 403.960938 L 397.371094 403.238281 L 397.230469 402.566406 L 397.0625 401.9375 L 396.871094 401.359375 L 396.652344 400.828125 L 396.410156 400.34375 L 396.152344 399.898438 L 395.875 399.5 L 395.582031 399.152344 L 395.269531 398.847656 L 394.9375 398.589844 L 394.589844 398.378906 L 394.226562 398.21875 L 393.839844 398.101562 L 393.4375 398.03125 L 393.019531 398.007812 L 392.605469 398.03125 L 392.207031 398.101562 L 391.828125 398.21875 L 391.460938 398.378906 L 391.113281 398.589844 L 390.785156 398.847656 L 390.46875 399.152344 L 390.171875 399.5 L 389.890625 399.898438 L 389.628906 400.34375 L 389.382812 400.828125 L 389.167969 401.359375 L 388.972656 401.9375 L 388.808594 402.566406 L 388.667969 403.238281 L 388.550781 403.960938 L 388.460938 404.730469 L 388.398438 405.542969 L 388.359375 406.40625 L 388.347656 407.320312 L 388.359375 408.230469 L 388.398438 409.097656 L 388.460938 409.917969 L 388.550781 410.691406 L 388.667969 411.421875 L 388.808594 412.105469 L 388.972656 412.746094 L 389.167969 413.339844 L 389.382812 413.886719 L 389.628906 414.390625 L 389.890625 414.847656 L 390.171875 415.253906 L 390.46875 415.613281 L 390.785156 415.925781 L 391.113281 416.191406 L 391.460938 416.40625 L 391.828125 416.574219 L 392.207031 416.695312 L 392.605469 416.765625 Z M 393.019531 416.789062 "/>
<path fill-rule="nonzero" fill="rgb(10.196078%, 10.196078%, 10.196078%)" fill-opacity="1" d="M 543.667969 417.621094 L 543.667969 416.726562 L 544.328125 416.050781 L 544.964844 415.394531 L 545.582031 414.753906 L 546.175781 414.136719 L 546.746094 413.535156 L 547.296875 412.953125 L 547.820312 412.386719 L 548.324219 411.84375 L 548.808594 411.316406 L 549.265625 410.808594 L 549.703125 410.304688 L 550.117188 409.816406 L 550.511719 409.339844 L 550.878906 408.871094 L 551.226562 408.414062 L 551.550781 407.96875 L 551.855469 407.535156 L 552.132812 407.109375 L 552.390625 406.695312 L 552.625 406.292969 L 552.839844 405.898438 L 553.03125 405.511719 L 553.199219 405.125 L 553.34375 404.742188 L 553.464844 404.367188 L 553.566406 403.996094 L 553.644531 403.625 L 553.703125 403.261719 L 553.734375 402.90625 L 553.746094 402.550781 L 553.734375 402.171875 L 553.703125 401.808594 L 553.648438 401.453125 L 553.574219 401.113281 L 553.476562 400.78125 L 553.355469 400.464844 L 553.214844 400.160156 L 553.050781 399.867188 L 552.867188 399.585938 L 552.660156 399.320312 L 552.433594 399.070312 L 552.1875 398.847656 L 551.914062 398.648438 L 551.613281 398.480469 L 551.289062 398.335938 L 550.941406 398.214844 L 550.570312 398.125 L 550.171875 398.058594 L 549.746094 398.019531 L 549.296875 398.007812 L 549.023438 398.015625 L 548.753906 398.039062 L 548.484375 398.074219 L 548.21875 398.128906 L 547.953125 398.199219 L 547.695312 398.28125 L 547.433594 398.382812 L 547.179688 398.5 L 546.925781 398.628906 L 546.675781 398.773438 L 546.433594 398.933594 L 546.199219 399.097656 L 545.972656 399.269531 L 545.75 399.449219 L 545.53125 399.636719 L 545.320312 399.835938 L 545.113281 400.039062 L 544.914062 400.25 L 544.71875 400.46875 L 544.53125 400.695312 L 543.601562 399.796875 L 543.835938 399.546875 L 544.074219 399.304688 L 544.316406 399.066406 L 544.566406 398.839844 L 544.820312 398.621094 L 545.078125 398.414062 L 545.339844 398.210938 L 545.609375 398.015625 L 545.882812 397.832031 L 546.164062 397.65625 L 546.449219 397.492188 L 546.742188 397.34375 L 547.046875 397.214844 L 547.359375 397.101562 L 547.683594 397.007812 L 548.015625 396.929688 L 548.351562 396.867188 L 548.703125 396.824219 L 549.058594 396.800781 L 549.425781 396.789062 L 549.964844 396.804688 L 550.476562 396.851562 L 550.964844 396.933594 L 551.429688 397.042969 L 551.867188 397.183594 L 552.28125 397.355469 L 552.667969 397.558594 L 553.03125 397.792969 L 553.371094 398.0625 L 553.683594 398.359375 L 553.96875 398.683594 L 554.222656 399.027344 L 554.449219 399.390625 L 554.644531 399.777344 L 554.8125 400.183594 L 554.945312 400.609375 L 555.050781 401.054688 L 555.125 401.523438 L 555.171875 402.011719 L 555.1875 402.519531 L 555.175781 402.921875 L 555.140625 403.328125 L 555.082031 403.734375 L 554.996094 404.140625 L 554.890625 404.550781 L 554.761719 404.960938 L 554.605469 405.371094 L 554.429688 405.785156 L 554.226562 406.199219 L 554.003906 406.613281 L 553.761719 407.035156 L 553.503906 407.460938 L 553.226562 407.890625 L 552.925781 408.328125 L 552.609375 408.773438 L 552.273438 409.226562 L 551.917969 409.683594 L 551.546875 410.148438 L 551.152344 410.617188 L 550.738281 411.09375 L 550.316406 411.582031 L 549.875 412.078125 L 549.421875 412.589844 L 548.953125 413.113281 L 548.464844 413.648438 L 547.964844 414.195312 L 547.449219 414.753906 L 546.917969 415.324219 L 546.371094 415.90625 L 545.8125 416.503906 L 545.976562 416.488281 L 546.144531 416.476562 L 546.3125 416.46875 L 546.480469 416.457031 L 546.652344 416.445312 L 546.820312 416.4375 L 547.507812 416.40625 L 547.683594 416.394531 L 547.863281 416.382812 L 548.214844 416.367188 L 548.558594 416.351562 L 548.730469 416.347656 L 548.898438 416.34375 L 556.210938 416.34375 L 556.210938 417.621094 Z M 543.667969 417.621094 "/>
<path fill-rule="nonzero" fill="rgb(10.196078%, 10.196078%, 10.196078%)" fill-opacity="1" d="M 564.945312 418.007812 L 564.625 418.003906 L 564.3125 417.988281 L 564.003906 417.96875 L 563.707031 417.941406 L 563.417969 417.902344 L 563.136719 417.855469 L 562.867188 417.804688 L 562.601562 417.742188 L 562.347656 417.667969 L 562.097656 417.589844 L 561.863281 417.503906 L 561.636719 417.414062 L 561.417969 417.320312 L 561.203125 417.222656 L 560.996094 417.117188 L 560.792969 417.011719 L 560.597656 416.898438 L 560.410156 416.78125 L 560.226562 416.660156 L 560.050781 416.535156 L 559.878906 416.40625 L 559.710938 416.277344 L 559.550781 416.152344 L 559.390625 416.023438 L 559.234375 415.894531 L 559.082031 415.765625 L 558.933594 415.636719 L 558.792969 415.511719 L 558.652344 415.382812 L 558.515625 415.253906 L 559.316406 414.261719 L 559.503906 414.445312 L 559.699219 414.628906 L 559.902344 414.808594 L 560.113281 414.984375 L 560.332031 415.160156 L 560.554688 415.332031 L 560.785156 415.5 L 561.023438 415.664062 L 561.269531 415.828125 L 561.523438 415.992188 L 561.792969 416.136719 L 562.078125 416.265625 L 562.378906 416.382812 L 562.695312 416.480469 L 563.027344 416.566406 L 563.375 416.636719 L 563.734375 416.691406 L 564.113281 416.726562 L 564.507812 416.75 L 564.914062 416.757812 L 565.1875 416.75 L 565.457031 416.730469 L 565.71875 416.699219 L 565.980469 416.652344 L 566.234375 416.589844 L 566.484375 416.515625 L 566.730469 416.429688 L 566.972656 416.328125 L 567.210938 416.214844 L 567.441406 416.085938 L 567.667969 415.941406 L 567.886719 415.785156 L 568.09375 415.617188 L 568.292969 415.4375 L 568.484375 415.246094 L 568.664062 415.046875 L 568.835938 414.835938 L 569 414.613281 L 569.152344 414.378906 L 569.296875 414.132812 L 569.433594 413.882812 L 569.550781 413.621094 L 569.65625 413.351562 L 569.75 413.074219 L 569.828125 412.789062 L 569.890625 412.5 L 569.9375 412.199219 L 569.976562 411.890625 L 569.996094 411.578125 L 570.003906 411.253906 L 569.988281 410.773438 L 569.949219 410.3125 L 569.878906 409.871094 L 569.78125 409.453125 L 569.660156 409.054688 L 569.507812 408.679688 L 569.328125 408.324219 L 569.121094 407.988281 L 568.886719 407.675781 L 568.625 407.382812 L 568.347656 407.113281 L 568.050781 406.875 L 567.738281 406.664062 L 567.402344 406.480469 L 567.050781 406.328125 L 566.679688 406.199219 L 566.289062 406.101562 L 565.882812 406.03125 L 565.457031 405.988281 L 565.011719 405.976562 L 564.777344 405.976562 L 564.550781 405.988281 L 564.328125 406.007812 L 564.113281 406.035156 L 563.90625 406.070312 L 563.707031 406.113281 L 563.511719 406.164062 L 563.320312 406.21875 L 563.140625 406.285156 L 562.960938 406.359375 L 562.796875 406.433594 L 562.625 406.511719 L 562.453125 406.597656 L 562.28125 406.6875 L 562.105469 406.78125 L 561.929688 406.882812 L 561.75 406.992188 L 561.570312 407.105469 L 561.386719 407.226562 L 561.203125 407.351562 L 560.210938 406.742188 L 560.945312 397.175781 L 570.386719 397.175781 L 570.386719 398.421875 L 562.226562 398.421875 L 561.585938 405.816406 L 561.746094 405.71875 L 561.910156 405.628906 L 562.074219 405.542969 L 562.238281 405.460938 L 562.402344 405.382812 L 562.570312 405.308594 L 562.90625 405.167969 L 563.078125 405.105469 L 563.25 405.046875 L 563.425781 404.984375 L 563.605469 404.929688 L 563.792969 404.882812 L 563.984375 404.84375 L 564.179688 404.808594 L 564.378906 404.777344 L 564.585938 404.753906 L 564.796875 404.738281 L 565.011719 404.730469 L 565.234375 404.726562 L 565.578125 404.734375 L 565.914062 404.753906 L 566.242188 404.789062 L 566.566406 404.839844 L 566.882812 404.902344 L 567.191406 404.980469 L 567.496094 405.070312 L 567.792969 405.175781 L 568.085938 405.296875 L 568.371094 405.429688 L 568.652344 405.574219 L 568.921875 405.730469 L 569.179688 405.902344 L 569.425781 406.089844 L 569.660156 406.292969 L 569.878906 406.511719 L 570.089844 406.746094 L 570.285156 406.996094 L 570.46875 407.261719 L 570.644531 407.542969 L 570.800781 407.832031 L 570.941406 408.140625 L 571.066406 408.460938 L 571.175781 408.800781 L 571.265625 409.160156 L 571.339844 409.53125 L 571.398438 409.921875 L 571.441406 410.328125 L 571.464844 410.75 L 571.476562 411.191406 L 571.464844 411.621094 L 571.4375 412.035156 L 571.386719 412.4375 L 571.320312 412.828125 L 571.234375 413.207031 L 571.128906 413.570312 L 571.003906 413.921875 L 570.859375 414.261719 L 570.695312 414.589844 L 570.515625 414.902344 L 570.324219 415.195312 L 570.121094 415.476562 L 569.90625 415.742188 L 569.679688 415.992188 L 569.441406 416.230469 L 569.195312 416.453125 L 568.933594 416.664062 L 568.660156 416.859375 L 568.378906 417.039062 L 568.082031 417.207031 L 567.785156 417.359375 L 567.484375 417.496094 L 567.183594 417.613281 L 566.875 417.71875 L 566.5625 417.808594 L 566.246094 417.878906 L 565.929688 417.933594 L 565.605469 417.976562 L 565.277344 418 Z M 564.945312 418.007812 "/>
<path fill-rule="nonzero" fill="rgb(10.196078%, 10.196078%, 10.196078%)" fill-opacity="1" d="M 580.660156 418.007812 L 580.089844 417.980469 L 579.546875 417.894531 L 579.03125 417.757812 L 578.539062 417.5625 L 578.074219 417.3125 L 577.636719 417.003906 L 577.226562 416.640625 L 576.839844 416.226562 L 576.480469 415.75 L 576.148438 415.222656 L 575.84375 414.640625 L 575.570312 414.015625 L 575.332031 413.34375 L 575.121094 412.621094 L 574.945312 411.855469 L 574.804688 411.039062 L 574.691406 410.179688 L 574.609375 409.273438 L 574.5625 408.320312 L 574.546875 407.320312 L 574.5625 406.324219 L 574.609375 405.378906 L 574.691406 404.480469 L 574.804688 403.628906 L 574.945312 402.824219 L 575.121094 402.066406 L 575.332031 401.355469 L 575.570312 400.695312 L 575.84375 400.078125 L 576.148438 399.511719 L 576.480469 398.992188 L 576.839844 398.53125 L 577.226562 398.125 L 577.636719 397.769531 L 578.074219 397.46875 L 578.539062 397.226562 L 579.03125 397.035156 L 579.546875 396.898438 L 580.089844 396.816406 L 580.660156 396.789062 L 581.234375 396.816406 L 581.78125 396.898438 L 582.300781 397.035156 L 582.792969 397.226562 L 583.257812 397.46875 L 583.695312 397.769531 L 584.105469 398.125 L 584.488281 398.53125 L 584.84375 398.992188 L 585.171875 399.511719 L 585.476562 400.078125 L 585.746094 400.695312 L 585.988281 401.355469 L 586.195312 402.066406 L 586.371094 402.824219 L 586.515625 403.628906 L 586.625 404.480469 L 586.707031 405.378906 L 586.753906 406.324219 L 586.769531 407.320312 L 586.753906 408.320312 L 586.707031 409.273438 L 586.625 410.179688 L 586.515625 411.039062 L 586.371094 411.855469 L 586.195312 412.621094 L 585.988281 413.34375 L 585.746094 414.015625 L 585.476562 414.640625 L 585.171875 415.222656 L 584.84375 415.75 L 584.488281 416.226562 L 584.105469 416.640625 L 583.695312 417.003906 L 583.257812 417.3125 L 582.792969 417.5625 L 582.300781 417.757812 L 581.78125 417.894531 L 581.234375 417.980469 Z M 580.660156 416.789062 L 581.078125 416.765625 L 581.480469 416.695312 L 581.863281 416.574219 L 582.230469 416.40625 L 582.578125 416.191406 L 582.910156 415.925781 L 583.222656 415.613281 L 583.515625 415.253906 L 583.792969 414.847656 L 584.050781 414.390625 L 584.292969 413.886719 L 584.511719 413.339844 L 584.703125 412.746094 L 584.871094 412.105469 L 585.011719 411.421875 L 585.125 410.691406 L 585.214844 409.917969 L 585.28125 409.097656 L 585.316406 408.230469 L 585.332031 407.320312 L 585.316406 406.40625 L 585.28125 405.542969 L 585.214844 404.730469 L 585.125 403.960938 L 585.011719 403.238281 L 584.871094 402.566406 L 584.703125 401.9375 L 584.511719 401.359375 L 584.292969 400.828125 L 584.050781 400.34375 L 583.792969 399.898438 L 583.515625 399.5 L 583.222656 399.152344 L 582.910156 398.847656 L 582.578125 398.589844 L 582.230469 398.378906 L 581.863281 398.21875 L 581.480469 398.101562 L 581.078125 398.03125 L 580.660156 398.007812 L 580.246094 398.03125 L 579.847656 398.101562 L 579.464844 398.21875 L 579.101562 398.378906 L 578.753906 398.589844 L 578.425781 398.847656 L 578.109375 399.152344 L 577.8125 399.5 L 577.53125 399.898438 L 577.265625 400.34375 L 577.023438 400.828125 L 576.804688 401.359375 L 576.613281 401.9375 L 576.449219 402.566406 L 576.308594 403.238281 L 576.191406 403.960938 L 576.101562 404.730469 L 576.039062 405.542969 L 576 406.40625 L 575.988281 407.320312 L 576 408.230469 L 576.039062 409.097656 L 576.101562 409.917969 L 576.191406 410.691406 L 576.308594 411.421875 L 576.449219 412.105469 L 576.613281 412.746094 L 576.804688 413.339844 L 577.023438 413.886719 L 577.265625 414.390625 L 577.53125 414.847656 L 577.8125 415.253906 L 578.109375 415.613281 L 578.425781 415.925781 L 578.753906 416.191406 L 579.101562 416.40625 L 579.464844 416.574219 L 579.847656 416.695312 L 580.246094 416.765625 Z M 580.660156 416.789062 "/>
<path fill-rule="nonzero" fill="rgb(10.196078%, 10.196078%, 10.196078%)" fill-opacity="1" d="M 595.988281 418.007812 L 595.417969 417.980469 L 594.875 417.894531 L 594.359375 417.757812 L 593.867188 417.5625 L 593.402344 417.3125 L 592.964844 417.003906 L 592.554688 416.640625 L 592.167969 416.226562 L 591.808594 415.75 L 591.476562 415.222656 L 591.171875 414.640625 L 590.898438 414.015625 L 590.660156 413.34375 L 590.449219 412.621094 L 590.273438 411.855469 L 590.128906 411.039062 L 590.019531 410.179688 L 589.9375 409.273438 L 589.890625 408.320312 L 589.875 407.320312 L 589.890625 406.324219 L 589.9375 405.378906 L 590.019531 404.480469 L 590.128906 403.628906 L 590.273438 402.824219 L 590.449219 402.066406 L 590.660156 401.355469 L 590.898438 400.695312 L 591.171875 400.078125 L 591.476562 399.511719 L 591.808594 398.992188 L 592.167969 398.53125 L 592.554688 398.125 L 592.964844 397.769531 L 593.402344 397.46875 L 593.867188 397.226562 L 594.359375 397.035156 L 594.875 396.898438 L 595.417969 396.816406 L 595.988281 396.789062 L 596.5625 396.816406 L 597.109375 396.898438 L 597.628906 397.035156 L 598.121094 397.226562 L 598.585938 397.46875 L 599.023438 397.769531 L 599.433594 398.125 L 599.816406 398.53125 L 600.171875 398.992188 L 600.5 399.511719 L 600.804688 400.078125 L 601.074219 400.695312 L 601.316406 401.355469 L 601.523438 402.066406 L 601.699219 402.824219 L 601.84375 403.628906 L 601.953125 404.480469 L 602.035156 405.378906 L 602.082031 406.324219 L 602.097656 407.320312 L 602.082031 408.320312 L 602.035156 409.273438 L 601.953125 410.179688 L 601.84375 411.039062 L 601.699219 411.855469 L 601.523438 412.621094 L 601.316406 413.34375 L 601.074219 414.015625 L 600.804688 414.640625 L 600.5 415.222656 L 600.171875 415.75 L 599.816406 416.226562 L 599.433594 416.640625 L 599.023438 417.003906 L 598.585938 417.3125 L 598.121094 417.5625 L 597.628906 417.757812 L 597.109375 417.894531 L 596.5625 417.980469 Z M 595.988281 416.789062 L 596.40625 416.765625 L 596.808594 416.695312 L 597.191406 416.574219 L 597.558594 416.40625 L 597.90625 416.191406 L 598.238281 415.925781 L 598.550781 415.613281 L 598.84375 415.253906 L 599.121094 414.847656 L 599.378906 414.390625 L 599.621094 413.886719 L 599.839844 413.339844 L 600.03125 412.746094 L 600.199219 412.105469 L 600.339844 411.421875 L 600.453125 410.691406 L 600.542969 409.917969 L 600.609375 409.097656 L 600.644531 408.230469 L 600.660156 407.320312 L 600.644531 406.40625 L 600.609375 405.542969 L 600.542969 404.730469 L 600.453125 403.960938 L 600.339844 403.238281 L 600.199219 402.566406 L 600.03125 401.9375 L 599.839844 401.359375 L 599.621094 400.828125 L 599.378906 400.34375 L 599.121094 399.898438 L 598.84375 399.5 L 598.550781 399.152344 L 598.238281 398.847656 L 597.90625 398.589844 L 597.558594 398.378906 L 597.191406 398.21875 L 596.808594 398.101562 L 596.40625 398.03125 L 595.988281 398.007812 L 595.574219 398.03125 L 595.175781 398.101562 L 594.792969 398.21875 L 594.429688 398.378906 L 594.082031 398.589844 L 593.75 398.847656 L 593.4375 399.152344 L 593.140625 399.5 L 592.859375 399.898438 L 592.59375 400.34375 L 592.351562 400.828125 L 592.132812 401.359375 L 591.941406 401.9375 L 591.777344 402.566406 L 591.636719 403.238281 L 591.519531 403.960938 L 591.429688 404.730469 L 591.367188 405.542969 L 591.328125 406.40625 L 591.316406 407.320312 L 591.328125 408.230469 L 591.367188 409.097656 L 591.429688 409.917969 L 591.519531 410.691406 L 591.636719 411.421875 L 591.777344 412.105469 L 591.941406 412.746094 L 592.132812 413.339844 L 592.351562 413.886719 L 592.59375 414.390625 L 592.859375 414.847656 L 593.140625 415.253906 L 593.4375 415.613281 L 593.75 415.925781 L 594.082031 416.191406 L 594.429688 416.40625 L 594.792969 416.574219 L 595.175781 416.695312 L 595.574219 416.765625 Z M 595.988281 416.789062 "/>
<path fill-rule="nonzero" fill="rgb(10.196078%, 10.196078%, 10.196078%)" fill-opacity="1" d="M 729.59375 418.007812 L 729.273438 418.003906 L 728.957031 417.988281 L 728.652344 417.96875 L 728.355469 417.941406 L 728.066406 417.902344 L 727.785156 417.855469 L 727.511719 417.804688 L 727.25 417.742188 L 726.992188 417.667969 L 726.746094 417.589844 L 726.511719 417.503906 L 726.285156 417.414062 L 726.066406 417.320312 L 725.851562 417.222656 L 725.640625 417.117188 L 725.441406 417.011719 L 725.246094 416.898438 L 725.058594 416.78125 L 724.875 416.660156 L 724.699219 416.535156 L 724.527344 416.40625 L 724.359375 416.277344 L 724.199219 416.152344 L 724.039062 416.023438 L 723.882812 415.894531 L 723.730469 415.765625 L 723.582031 415.636719 L 723.4375 415.511719 L 723.296875 415.382812 L 723.164062 415.253906 L 723.960938 414.261719 L 724.152344 414.445312 L 724.347656 414.628906 L 724.550781 414.808594 L 724.761719 414.984375 L 724.976562 415.160156 L 725.203125 415.332031 L 725.433594 415.5 L 725.671875 415.664062 L 725.917969 415.828125 L 726.171875 415.992188 L 726.441406 416.136719 L 726.726562 416.265625 L 727.027344 416.382812 L 727.34375 416.480469 L 727.675781 416.566406 L 728.019531 416.636719 L 728.382812 416.691406 L 728.761719 416.726562 L 729.152344 416.75 L 729.5625 416.757812 L 729.835938 416.75 L 730.105469 416.730469 L 730.367188 416.699219 L 730.628906 416.652344 L 730.882812 416.589844 L 731.132812 416.515625 L 731.378906 416.429688 L 731.621094 416.328125 L 731.859375 416.214844 L 732.089844 416.085938 L 732.316406 415.941406 L 732.535156 415.785156 L 732.742188 415.617188 L 732.941406 415.4375 L 733.128906 415.246094 L 733.3125 415.046875 L 733.484375 414.835938 L 733.648438 414.613281 L 733.800781 414.378906 L 733.945312 414.132812 L 734.082031 413.882812 L 734.199219 413.621094 L 734.304688 413.351562 L 734.398438 413.074219 L 734.472656 412.789062 L 734.539062 412.5 L 734.585938 412.199219 L 734.621094 411.890625 L 734.644531 411.578125 L 734.652344 411.253906 L 734.636719 410.773438 L 734.59375 410.3125 L 734.527344 409.871094 L 734.429688 409.453125 L 734.304688 409.054688 L 734.15625 408.679688 L 733.976562 408.324219 L 733.769531 407.988281 L 733.535156 407.675781 L 733.273438 407.382812 L 732.996094 407.113281 L 732.699219 406.875 L 732.382812 406.664062 L 732.050781 406.480469 L 731.699219 406.328125 L 731.328125 406.199219 L 730.9375 406.101562 L 730.53125 406.03125 L 730.105469 405.988281 L 729.660156 405.976562 L 729.425781 405.976562 L 729.199219 405.988281 L 728.976562 406.007812 L 728.761719 406.035156 L 728.554688 406.070312 L 728.351562 406.113281 L 728.15625 406.164062 L 727.96875 406.21875 L 727.785156 406.285156 L 727.609375 406.359375 L 727.441406 406.433594 L 727.273438 406.511719 L 727.101562 406.597656 L 726.929688 406.6875 L 726.753906 406.78125 L 726.578125 406.882812 L 726.398438 406.992188 L 726.21875 407.105469 L 726.035156 407.226562 L 725.851562 407.351562 L 724.859375 406.742188 L 725.59375 397.175781 L 735.035156 397.175781 L 735.035156 398.421875 L 726.875 398.421875 L 726.234375 405.816406 L 726.394531 405.71875 L 726.558594 405.628906 L 726.71875 405.542969 L 726.882812 405.460938 L 727.050781 405.382812 L 727.21875 405.308594 L 727.554688 405.167969 L 727.726562 405.105469 L 727.898438 405.046875 L 728.074219 404.984375 L 728.253906 404.929688 L 728.441406 404.882812 L 728.628906 404.84375 L 728.828125 404.808594 L 729.027344 404.777344 L 729.234375 404.753906 L 729.445312 404.738281 L 729.660156 404.730469 L 729.882812 404.726562 L 730.226562 404.734375 L 730.5625 404.753906 L 730.890625 404.789062 L 731.214844 404.839844 L 731.53125 404.902344 L 731.839844 404.980469 L 732.144531 405.070312 L 732.441406 405.175781 L 732.734375 405.296875 L 733.019531 405.429688 L 733.300781 405.574219 L 733.570312 405.730469 L 733.828125 405.902344 L 734.074219 406.089844 L 734.304688 406.292969 L 734.527344 406.511719 L 734.738281 406.746094 L 734.933594 406.996094 L 735.117188 407.261719 L 735.289062 407.542969 L 735.449219 407.832031 L 735.589844 408.140625 L 735.714844 408.460938 L 735.824219 408.800781 L 735.914062 409.160156 L 735.988281 409.53125 L 736.046875 409.921875 L 736.089844 410.328125 L 736.113281 410.75 L 736.121094 411.191406 L 736.113281 411.621094 L 736.085938 412.035156 L 736.035156 412.4375 L 735.96875 412.828125 L 735.882812 413.207031 L 735.777344 413.570312 L 735.652344 413.921875 L 735.507812 414.261719 L 735.34375 414.589844 L 735.164062 414.902344 L 734.972656 415.195312 L 734.769531 415.476562 L 734.554688 415.742188 L 734.328125 415.992188 L 734.089844 416.230469 L 733.839844 416.453125 L 733.582031 416.664062 L 733.308594 416.859375 L 733.027344 417.039062 L 732.730469 417.207031 L 732.433594 417.359375 L 732.132812 417.496094 L 731.828125 417.613281 L 731.523438 417.71875 L 731.210938 417.808594 L 730.894531 417.878906 L 730.574219 417.933594 L 730.253906 417.976562 L 729.925781 418 Z M 729.59375 418.007812 "/>
<path fill-rule="nonzero" fill="rgb(10.196078%, 10.196078%, 10.196078%)" fill-opacity="1" d="M 745.304688 418.007812 L 744.738281 417.980469 L 744.195312 417.894531 L 743.675781 417.757812 L 743.1875 417.5625 L 742.722656 417.3125 L 742.285156 417.003906 L 741.871094 416.640625 L 741.488281 416.226562 L 741.128906 415.75 L 740.792969 415.222656 L 740.492188 414.640625 L 740.21875 414.015625 L 739.976562 413.34375 L 739.769531 412.621094 L 739.59375 411.855469 L 739.449219 411.039062 L 739.339844 410.179688 L 739.257812 409.273438 L 739.210938 408.320312 L 739.195312 407.320312 L 739.210938 406.324219 L 739.257812 405.378906 L 739.339844 404.480469 L 739.449219 403.628906 L 739.59375 402.824219 L 739.769531 402.066406 L 739.976562 401.355469 L 740.21875 400.695312 L 740.492188 400.078125 L 740.792969 399.511719 L 741.128906 398.992188 L 741.488281 398.53125 L 741.871094 398.125 L 742.285156 397.769531 L 742.722656 397.46875 L 743.1875 397.226562 L 743.675781 397.035156 L 744.195312 396.898438 L 744.738281 396.816406 L 745.304688 396.789062 L 745.882812 396.816406 L 746.429688 396.898438 L 746.949219 397.035156 L 747.441406 397.226562 L 747.90625 397.46875 L 748.34375 397.769531 L 748.753906 398.125 L 749.136719 398.53125 L 749.492188 398.992188 L 749.820312 399.511719 L 750.121094 400.078125 L 750.394531 400.695312 L 750.632812 401.355469 L 750.84375 402.066406 L 751.019531 402.824219 L 751.164062 403.628906 L 751.273438 404.480469 L 751.355469 405.378906 L 751.402344 406.324219 L 751.417969 407.320312 L 751.402344 408.320312 L 751.355469 409.273438 L 751.273438 410.179688 L 751.164062 411.039062 L 751.019531 411.855469 L 750.84375 412.621094 L 750.632812 413.34375 L 750.394531 414.015625 L 750.121094 414.640625 L 749.820312 415.222656 L 749.492188 415.75 L 749.136719 416.226562 L 748.753906 416.640625 L 748.34375 417.003906 L 747.90625 417.3125 L 747.441406 417.5625 L 746.949219 417.757812 L 746.429688 417.894531 L 745.882812 417.980469 Z M 745.304688 416.789062 L 745.726562 416.765625 L 746.128906 416.695312 L 746.511719 416.574219 L 746.878906 416.40625 L 747.226562 416.191406 L 747.558594 415.925781 L 747.867188 415.613281 L 748.164062 415.253906 L 748.441406 414.847656 L 748.699219 414.390625 L 748.941406 413.886719 L 749.160156 413.339844 L 749.351562 412.746094 L 749.519531 412.105469 L 749.660156 411.421875 L 749.773438 410.691406 L 749.863281 409.917969 L 749.925781 409.097656 L 749.964844 408.230469 L 749.976562 407.320312 L 749.964844 406.40625 L 749.925781 405.542969 L 749.863281 404.730469 L 749.773438 403.960938 L 749.660156 403.238281 L 749.519531 402.566406 L 749.351562 401.9375 L 749.160156 401.359375 L 748.941406 400.828125 L 748.699219 400.34375 L 748.441406 399.898438 L 748.164062 399.5 L 747.867188 399.152344 L 747.558594 398.847656 L 747.226562 398.589844 L 746.878906 398.378906 L 746.511719 398.21875 L 746.128906 398.101562 L 745.726562 398.03125 L 745.304688 398.007812 L 744.890625 398.03125 L 744.496094 398.101562 L 744.113281 398.21875 L 743.75 398.378906 L 743.402344 398.589844 L 743.070312 398.847656 L 742.757812 399.152344 L 742.460938 399.5 L 742.179688 399.898438 L 741.914062 400.34375 L 741.671875 400.828125 L 741.453125 401.359375 L 741.261719 401.9375 L 741.09375 402.566406 L 740.953125 403.238281 L 740.839844 403.960938 L 740.75 404.730469 L 740.6875 405.542969 L 740.648438 406.40625 L 740.632812 407.320312 L 740.648438 408.230469 L 740.6875 409.097656 L 740.75 409.917969 L 740.839844 410.691406 L 740.953125 411.421875 L 741.09375 412.105469 L 741.261719 412.746094 L 741.453125 413.339844 L 741.671875 413.886719 L 741.914062 414.390625 L 742.179688 414.847656 L 742.460938 415.253906 L 742.757812 415.613281 L 743.070312 415.925781 L 743.402344 416.191406 L 743.75 416.40625 L 744.113281 416.574219 L 744.496094 416.695312 L 744.890625 416.765625 Z M 745.304688 416.789062 "/>
<path fill-rule="nonzero" fill="rgb(10.196078%, 10.196078%, 10.196078%)" fill-opacity="1" d="M 760.632812 418.007812 L 760.066406 417.980469 L 759.523438 417.894531 L 759.003906 417.757812 L 758.515625 417.5625 L 758.050781 417.3125 L 757.613281 417.003906 L 757.199219 416.640625 L 756.816406 416.226562 L 756.457031 415.75 L 756.121094 415.222656 L 755.820312 414.640625 L 755.546875 414.015625 L 755.304688 413.34375 L 755.097656 412.621094 L 754.921875 411.855469 L 754.777344 411.039062 L 754.667969 410.179688 L 754.585938 409.273438 L 754.539062 408.320312 L 754.523438 407.320312 L 754.539062 406.324219 L 754.585938 405.378906 L 754.667969 404.480469 L 754.777344 403.628906 L 754.921875 402.824219 L 755.097656 402.066406 L 755.304688 401.355469 L 755.546875 400.695312 L 755.820312 400.078125 L 756.121094 399.511719 L 756.457031 398.992188 L 756.816406 398.53125 L 757.199219 398.125 L 757.613281 397.769531 L 758.050781 397.46875 L 758.515625 397.226562 L 759.003906 397.035156 L 759.523438 396.898438 L 760.066406 396.816406 L 760.632812 396.789062 L 761.210938 396.816406 L 761.757812 396.898438 L 762.277344 397.035156 L 762.769531 397.226562 L 763.234375 397.46875 L 763.671875 397.769531 L 764.082031 398.125 L 764.464844 398.53125 L 764.820312 398.992188 L 765.148438 399.511719 L 765.449219 400.078125 L 765.722656 400.695312 L 765.960938 401.355469 L 766.171875 402.066406 L 766.347656 402.824219 L 766.492188 403.628906 L 766.601562 404.480469 L 766.683594 405.378906 L 766.730469 406.324219 L 766.746094 407.320312 L 766.730469 408.320312 L 766.683594 409.273438 L 766.601562 410.179688 L 766.492188 411.039062 L 766.347656 411.855469 L 766.171875 412.621094 L 765.960938 413.34375 L 765.722656 414.015625 L 765.449219 414.640625 L 765.148438 415.222656 L 764.820312 415.75 L 764.464844 416.226562 L 764.082031 416.640625 L 763.671875 417.003906 L 763.234375 417.3125 L 762.769531 417.5625 L 762.277344 417.757812 L 761.757812 417.894531 L 761.210938 417.980469 Z M 760.632812 416.789062 L 761.054688 416.765625 L 761.457031 416.695312 L 761.839844 416.574219 L 762.207031 416.40625 L 762.554688 416.191406 L 762.882812 415.925781 L 763.195312 415.613281 L 763.492188 415.253906 L 763.769531 414.847656 L 764.027344 414.390625 L 764.269531 413.886719 L 764.488281 413.339844 L 764.679688 412.746094 L 764.84375 412.105469 L 764.988281 411.421875 L 765.101562 410.691406 L 765.191406 409.917969 L 765.253906 409.097656 L 765.292969 408.230469 L 765.304688 407.320312 L 765.292969 406.40625 L 765.253906 405.542969 L 765.191406 404.730469 L 765.101562 403.960938 L 764.988281 403.238281 L 764.84375 402.566406 L 764.679688 401.9375 L 764.488281 401.359375 L 764.269531 400.828125 L 764.027344 400.34375 L 763.769531 399.898438 L 763.492188 399.5 L 763.195312 399.152344 L 762.882812 398.847656 L 762.554688 398.589844 L 762.207031 398.378906 L 761.839844 398.21875 L 761.457031 398.101562 L 761.054688 398.03125 L 760.632812 398.007812 L 760.21875 398.03125 L 759.824219 398.101562 L 759.441406 398.21875 L 759.078125 398.378906 L 758.730469 398.589844 L 758.398438 398.847656 L 758.085938 399.152344 L 757.789062 399.5 L 757.507812 399.898438 L 757.242188 400.34375 L 757 400.828125 L 756.78125 401.359375 L 756.589844 401.9375 L 756.421875 402.566406 L 756.28125 403.238281 L 756.167969 403.960938 L 756.078125 404.730469 L 756.015625 405.542969 L 755.976562 406.40625 L 755.960938 407.320312 L 755.976562 408.230469 L 756.015625 409.097656 L 756.078125 409.917969 L 756.167969 410.691406 L 756.28125 411.421875 L 756.421875 412.105469 L 756.589844 412.746094 L 756.78125 413.339844 L 757 413.886719 L 757.242188 414.390625 L 757.507812 414.847656 L 757.789062 415.253906 L 758.085938 415.613281 L 758.398438 415.925781 L 758.730469 416.191406 L 759.078125 416.40625 L 759.441406 416.574219 L 759.824219 416.695312 L 760.21875 416.765625 Z M 760.632812 416.789062 "/>
<path fill-rule="nonzero" fill="rgb(10.196078%, 10.196078%, 10.196078%)" fill-opacity="1" d="M 775.960938 418.007812 L 775.394531 417.980469 L 774.851562 417.894531 L 774.332031 417.757812 L 773.84375 417.5625 L 773.378906 417.3125 L 772.941406 417.003906 L 772.527344 416.640625 L 772.144531 416.226562 L 771.785156 415.75 L 771.449219 415.222656 L 771.148438 414.640625 L 770.875 414.015625 L 770.632812 413.34375 L 770.425781 412.621094 L 770.25 411.855469 L 770.105469 411.039062 L 769.996094 410.179688 L 769.914062 409.273438 L 769.867188 408.320312 L 769.851562 407.320312 L 769.867188 406.324219 L 769.914062 405.378906 L 769.996094 404.480469 L 770.105469 403.628906 L 770.25 402.824219 L 770.425781 402.066406 L 770.632812 401.355469 L 770.875 400.695312 L 771.148438 400.078125 L 771.449219 399.511719 L 771.785156 398.992188 L 772.144531 398.53125 L 772.527344 398.125 L 772.941406 397.769531 L 773.378906 397.46875 L 773.84375 397.226562 L 774.332031 397.035156 L 774.851562 396.898438 L 775.394531 396.816406 L 775.960938 396.789062 L 776.539062 396.816406 L 777.085938 396.898438 L 777.605469 397.035156 L 778.097656 397.226562 L 778.5625 397.46875 L 779 397.769531 L 779.410156 398.125 L 779.792969 398.53125 L 780.148438 398.992188 L 780.472656 399.511719 L 780.777344 400.078125 L 781.050781 400.695312 L 781.289062 401.355469 L 781.5 402.066406 L 781.675781 402.824219 L 781.820312 403.628906 L 781.929688 404.480469 L 782.011719 405.378906 L 782.058594 406.324219 L 782.074219 407.320312 L 782.058594 408.320312 L 782.011719 409.273438 L 781.929688 410.179688 L 781.820312 411.039062 L 781.675781 411.855469 L 781.5 412.621094 L 781.289062 413.34375 L 781.050781 414.015625 L 780.777344 414.640625 L 780.472656 415.222656 L 780.148438 415.75 L 779.792969 416.226562 L 779.410156 416.640625 L 779 417.003906 L 778.5625 417.3125 L 778.097656 417.5625 L 777.605469 417.757812 L 777.085938 417.894531 L 776.539062 417.980469 Z M 775.960938 416.789062 L 776.382812 416.765625 L 776.785156 416.695312 L 777.167969 416.574219 L 777.535156 416.40625 L 777.882812 416.191406 L 778.210938 415.925781 L 778.523438 415.613281 L 778.820312 415.253906 L 779.097656 414.847656 L 779.355469 414.390625 L 779.597656 413.886719 L 779.816406 413.339844 L 780.007812 412.746094 L 780.171875 412.105469 L 780.316406 411.421875 L 780.429688 410.691406 L 780.519531 409.917969 L 780.582031 409.097656 L 780.621094 408.230469 L 780.632812 407.320312 L 780.621094 406.40625 L 780.582031 405.542969 L 780.519531 404.730469 L 780.429688 403.960938 L 780.316406 403.238281 L 780.171875 402.566406 L 780.007812 401.9375 L 779.816406 401.359375 L 779.597656 400.828125 L 779.355469 400.34375 L 779.097656 399.898438 L 778.820312 399.5 L 778.523438 399.152344 L 778.210938 398.847656 L 777.882812 398.589844 L 777.535156 398.378906 L 777.167969 398.21875 L 776.785156 398.101562 L 776.382812 398.03125 L 775.960938 398.007812 L 775.546875 398.03125 L 775.152344 398.101562 L 774.769531 398.21875 L 774.40625 398.378906 L 774.058594 398.589844 L 773.726562 398.847656 L 773.414062 399.152344 L 773.117188 399.5 L 772.835938 399.898438 L 772.570312 400.34375 L 772.328125 400.828125 L 772.109375 401.359375 L 771.917969 401.9375 L 771.75 402.566406 L 771.609375 403.238281 L 771.496094 403.960938 L 771.40625 404.730469 L 771.339844 405.542969 L 771.304688 406.40625 L 771.289062 407.320312 L 771.304688 408.230469 L 771.339844 409.097656 L 771.40625 409.917969 L 771.496094 410.691406 L 771.609375 411.421875 L 771.75 412.105469 L 771.917969 412.746094 L 772.109375 413.339844 L 772.328125 413.886719 L 772.570312 414.390625 L 772.835938 414.847656 L 773.117188 415.253906 L 773.414062 415.613281 L 773.726562 415.925781 L 774.058594 416.191406 L 774.40625 416.40625 L 774.769531 416.574219 L 775.152344 416.695312 L 775.546875 416.765625 Z M 775.960938 416.789062 "/>
<path fill-rule="nonzero" fill="rgb(0%, 0%, 0%)" fill-opacity="1" d="M 381.816406 473.90625 L 381.46875 473.898438 L 381.125 473.871094 L 380.785156 473.824219 L 380.445312 473.765625 L 380.105469 473.683594 L 379.769531 473.585938 L 379.4375 473.472656 L 379.105469 473.339844 L 378.777344 473.191406 L 378.449219 473.023438 L 378.128906 472.835938 L 377.820312 472.636719 L 377.519531 472.421875 L 377.234375 472.195312 L 376.960938 471.949219 L 376.699219 471.691406 L 376.445312 471.417969 L 376.207031 471.128906 L 375.980469 470.824219 L 375.761719 470.503906 L 375.570312 470.164062 L 375.394531 469.8125 L 375.242188 469.449219 L 375.109375 469.070312 L 374.996094 468.679688 L 374.90625 468.273438 L 374.835938 467.855469 L 374.785156 467.425781 L 374.753906 466.984375 L 374.742188 466.527344 L 374.75 466.109375 L 374.78125 465.703125 L 374.824219 465.304688 L 374.890625 464.917969 L 374.972656 464.539062 L 375.074219 464.167969 L 375.191406 463.808594 L 375.332031 463.460938 L 375.484375 463.117188 L 375.660156 462.789062 L 375.851562 462.464844 L 376.054688 462.15625 L 376.273438 461.855469 L 376.503906 461.5625 L 376.75 461.28125 L 377.007812 461.011719 L 377.277344 460.753906 L 377.566406 460.503906 L 377.863281 460.261719 L 378.175781 460.035156 L 378.507812 459.816406 L 378.84375 459.609375 L 379.191406 459.414062 L 379.542969 459.234375 L 379.902344 459.066406 L 380.269531 458.90625 L 380.644531 458.761719 L 381.027344 458.628906 L 381.417969 458.507812 L 381.816406 458.402344 L 381.550781 458.203125 L 381.289062 458.007812 L 381.03125 457.8125 L 380.777344 457.617188 L 380.523438 457.425781 L 380.273438 457.230469 L 380.023438 457.039062 L 379.78125 456.84375 L 379.539062 456.652344 L 379.296875 456.464844 L 379.066406 456.273438 L 378.839844 456.078125 L 378.625 455.882812 L 378.417969 455.6875 L 378.21875 455.484375 L 378.03125 455.285156 L 377.847656 455.082031 L 377.675781 454.875 L 377.515625 454.667969 L 377.359375 454.457031 L 377.21875 454.238281 L 377.089844 454.015625 L 376.980469 453.789062 L 376.882812 453.558594 L 376.800781 453.328125 L 376.730469 453.089844 L 376.679688 452.851562 L 376.640625 452.609375 L 376.621094 452.363281 L 376.613281 452.113281 L 376.625 451.84375 L 376.660156 451.578125 L 376.71875 451.324219 L 376.804688 451.074219 L 376.910156 450.828125 L 377.042969 450.589844 L 377.195312 450.359375 L 377.375 450.132812 L 377.578125 449.910156 L 377.800781 449.699219 L 378.054688 449.496094 L 378.335938 449.316406 L 378.644531 449.160156 L 378.984375 449.023438 L 379.351562 448.90625 L 379.746094 448.8125 L 380.167969 448.738281 L 380.621094 448.6875 L 381.101562 448.652344 L 381.609375 448.644531 L 381.890625 448.648438 L 382.179688 448.65625 L 382.46875 448.671875 L 382.765625 448.691406 L 383.0625 448.71875 L 383.367188 448.753906 L 383.679688 448.792969 L 383.992188 448.839844 L 384.3125 448.890625 L 384.636719 448.949219 L 384.96875 449.007812 L 385.3125 449.078125 L 385.671875 449.15625 L 386.039062 449.242188 L 386.421875 449.339844 L 386.816406 449.449219 L 387.222656 449.5625 L 387.640625 449.6875 L 388.070312 449.824219 L 388.511719 449.96875 L 388.070312 451.328125 L 387.617188 451.164062 L 387.175781 451.011719 L 386.753906 450.871094 L 386.347656 450.742188 L 385.953125 450.625 L 385.578125 450.519531 L 385.21875 450.421875 L 384.871094 450.339844 L 384.542969 450.269531 L 384.230469 450.207031 L 383.925781 450.148438 L 383.632812 450.097656 L 383.34375 450.050781 L 383.066406 450.011719 L 382.792969 449.976562 L 382.527344 449.949219 L 382.269531 449.929688 L 382.019531 449.914062 L 381.777344 449.90625 L 381.542969 449.902344 L 381.199219 449.910156 L 380.875 449.929688 L 380.566406 449.960938 L 380.28125 450.011719 L 380.011719 450.070312 L 379.765625 450.144531 L 379.535156 450.234375 L 379.324219 450.335938 L 379.132812 450.453125 L 378.957031 450.582031 L 378.804688 450.71875 L 378.664062 450.859375 L 378.542969 451.003906 L 378.4375 451.152344 L 378.347656 451.304688 L 378.273438 451.457031 L 378.214844 451.617188 L 378.175781 451.777344 L 378.152344 451.941406 L 378.144531 452.113281 L 378.148438 452.320312 L 378.167969 452.527344 L 378.203125 452.730469 L 378.25 452.925781 L 378.3125 453.121094 L 378.386719 453.316406 L 378.476562 453.503906 L 378.578125 453.6875 L 378.695312 453.871094 L 378.824219 454.050781 L 378.96875 454.226562 L 379.125 454.402344 L 379.289062 454.578125 L 379.464844 454.757812 L 379.648438 454.933594 L 379.839844 455.109375 L 380.039062 455.289062 L 380.246094 455.464844 L 380.464844 455.640625 L 380.691406 455.816406 L 380.925781 455.996094 L 381.164062 456.175781 L 381.40625 456.359375 L 381.648438 456.546875 L 381.898438 456.734375 L 382.152344 456.925781 L 382.410156 457.121094 L 382.671875 457.320312 L 382.9375 457.519531 L 383.207031 457.722656 L 383.484375 457.921875 L 383.757812 458.121094 L 384.03125 458.328125 L 384.296875 458.539062 L 384.558594 458.75 L 384.820312 458.964844 L 385.078125 459.183594 L 385.332031 459.40625 L 385.582031 459.632812 L 385.828125 459.863281 L 386.074219 460.097656 L 386.3125 460.339844 L 386.539062 460.589844 L 386.757812 460.847656 L 386.964844 461.113281 L 387.164062 461.386719 L 387.355469 461.664062 L 387.535156 461.953125 L 387.707031 462.246094 L 387.867188 462.550781 L 388.023438 462.855469 L 388.160156 463.171875 L 388.28125 463.5 L 388.390625 463.839844 L 388.480469 464.191406 L 388.550781 464.554688 L 388.609375 464.925781 L 388.648438 465.3125 L 388.675781 465.710938 L 388.683594 466.121094 L 388.664062 466.804688 L 388.609375 467.464844 L 388.519531 468.097656 L 388.394531 468.703125 L 388.230469 469.28125 L 388.035156 469.832031 L 387.800781 470.355469 L 387.53125 470.851562 L 387.222656 471.320312 L 386.878906 471.761719 L 386.503906 472.171875 L 386.101562 472.535156 L 385.667969 472.855469 L 385.207031 473.132812 L 384.714844 473.371094 L 384.191406 473.5625 L 383.640625 473.710938 L 383.0625 473.820312 L 382.453125 473.882812 Z M 376.273438 466.460938 L 376.28125 466.824219 L 376.304688 467.175781 L 376.34375 467.519531 L 376.398438 467.859375 L 376.46875 468.183594 L 376.554688 468.503906 L 376.65625 468.8125 L 376.773438 469.113281 L 376.90625 469.40625 L 377.054688 469.691406 L 377.214844 469.957031 L 377.386719 470.210938 L 377.566406 470.453125 L 377.757812 470.683594 L 377.957031 470.90625 L 378.164062 471.113281 L 378.382812 471.308594 L 378.609375 471.496094 L 378.847656 471.667969 L 379.09375 471.832031 L 379.355469 471.972656 L 379.617188 472.101562 L 379.882812 472.214844 L 380.148438 472.308594 L 380.421875 472.390625 L 380.695312 472.460938 L 380.96875 472.511719 L 381.25 472.550781 L 381.53125 472.570312 L 381.816406 472.578125 L 382.179688 472.570312 L 382.535156 472.546875 L 382.871094 472.503906 L 383.195312 472.445312 L 383.507812 472.367188 L 383.800781 472.273438 L 384.082031 472.164062 L 384.351562 472.035156 L 384.601562 471.890625 L 384.839844 471.730469 L 385.070312 471.554688 L 385.289062 471.367188 L 385.496094 471.167969 L 385.6875 470.957031 L 385.867188 470.734375 L 386.035156 470.5 L 386.191406 470.257812 L 386.332031 470 L 386.460938 469.730469 L 386.574219 469.453125 L 386.683594 469.15625 L 386.78125 468.851562 L 386.871094 468.542969 L 386.945312 468.226562 L 387.007812 467.90625 L 387.058594 467.574219 L 387.101562 467.238281 L 387.128906 466.894531 L 387.148438 466.542969 L 387.152344 466.1875 L 387.140625 465.710938 L 387.101562 465.253906 L 387.039062 464.8125 L 386.953125 464.386719 L 386.839844 463.976562 L 386.699219 463.585938 L 386.535156 463.207031 L 386.347656 462.847656 L 386.132812 462.503906 L 385.894531 462.175781 L 385.644531 461.859375 L 385.386719 461.546875 L 385.117188 461.246094 L 384.839844 460.945312 L 384.550781 460.652344 L 384.253906 460.367188 L 383.949219 460.089844 L 383.632812 459.816406 L 383.304688 459.546875 L 382.96875 459.285156 L 382.351562 459.433594 L 381.761719 459.605469 L 381.199219 459.804688 L 380.664062 460.023438 L 380.15625 460.273438 L 379.679688 460.542969 L 379.226562 460.835938 L 378.804688 461.15625 L 378.40625 461.5 L 378.039062 461.871094 L 377.703125 462.257812 L 377.402344 462.664062 L 377.140625 463.082031 L 376.910156 463.519531 L 376.714844 463.96875 L 376.554688 464.4375 L 376.433594 464.917969 L 376.34375 465.417969 L 376.289062 465.929688 Z M 376.273438 466.460938 "/>
<path fill-rule="nonzero" fill="rgb(0%, 0%, 0%)" fill-opacity="1" d="M 375.710938 446.402344 L 380.8125 433.484375 L 382.375 433.484375 L 387.507812 446.402344 L 386.046875 446.402344 L 383.429688 439.5 L 381.660156 434.980469 L 381.527344 434.980469 L 379.792969 439.5 L 377.171875 446.402344 Z M 375.710938 446.402344 "/>
<path fill-rule="nonzero" fill="rgb(0%, 0%, 0%)" fill-opacity="1" d="M 394.960938 469.976562 L 393.960938 472.902344 L 399.527344 472.902344 L 398.527344 469.976562 L 398.433594 469.695312 L 398.339844 469.417969 L 398.246094 469.144531 L 398.15625 468.871094 L 397.976562 468.332031 L 397.886719 468.066406 L 397.796875 467.804688 L 397.710938 467.542969 L 397.539062 467.027344 L 397.453125 466.765625 L 397.371094 466.5 L 397.285156 466.230469 L 397.203125 465.957031 L 397.117188 465.683594 L 397.035156 465.40625 L 396.871094 464.835938 L 396.792969 464.546875 L 396.695312 464.546875 L 396.617188 464.835938 L 396.453125 465.40625 L 396.367188 465.683594 L 396.203125 466.230469 L 396.117188 466.5 L 396.035156 466.765625 L 395.949219 467.027344 L 395.777344 467.542969 L 395.691406 467.804688 L 395.601562 468.066406 L 395.511719 468.332031 L 395.332031 468.871094 L 395.242188 469.144531 L 395.148438 469.417969 L 395.054688 469.695312 Z M 390.675781 479.210938 L 396.195312 463.523438 L 397.292969 463.523438 L 402.8125 479.210938 L 401.671875 479.210938 L 399.839844 473.832031 L 393.625 473.832031 L 391.769531 479.210938 Z M 390.675781 479.210938 "/>
<path fill-rule="nonzero" fill="rgb(0%, 0%, 0%)" fill-opacity="1" d="M 408.691406 479.210938 L 408.691406 464.476562 L 403.695312 464.476562 L 403.695312 463.523438 L 414.785156 463.523438 L 414.785156 464.476562 L 409.785156 464.476562 L 409.785156 479.210938 Z M 408.691406 479.210938 "/>
<path fill-rule="nonzero" fill="rgb(0%, 0%, 0%)" fill-opacity="1" d="M 417.785156 479.210938 L 417.785156 463.523438 L 426.375 463.523438 L 426.375 464.476562 L 418.878906 464.476562 L 418.878906 470.402344 L 425.160156 470.402344 L 425.160156 471.355469 L 418.878906 471.355469 L 418.878906 478.257812 L 426.613281 478.257812 L 426.613281 479.210938 Z M 417.785156 479.210938 "/>
</svg>
