<?xml version="1.0" encoding="UTF-8"?>
<svg xmlns="http://www.w3.org/2000/svg" xmlns:xlink="http://www.w3.org/1999/xlink" width="324" height="360" viewBox="0 0 324 360">
<defs>
<clipPath id="clip-0">
<path clip-rule="nonzero" d="M 50.929688 13.449219 L 310.550781 13.449219 L 310.550781 309.070312 L 50.929688 309.070312 Z M 50.929688 13.449219 "/>
</clipPath>
<clipPath id="clip-1">
<path clip-rule="nonzero" d="M 50.929688 231 L 310.550781 231 L 310.550781 235 L 50.929688 235 Z M 50.929688 231 "/>
</clipPath>
<clipPath id="clip-2">
<path clip-rule="nonzero" d="M 50.929688 152 L 310.550781 152 L 310.550781 156 L 50.929688 156 Z M 50.929688 152 "/>
</clipPath>
<clipPath id="clip-3">
<path clip-rule="nonzero" d="M 50.929688 74 L 310.550781 74 L 310.550781 77 L 50.929688 77 Z M 50.929688 74 "/>
</clipPath>
<clipPath id="clip-4">
<path clip-rule="nonzero" d="M 61 13.449219 L 64 13.449219 L 64 309.070312 L 61 309.070312 Z M 61 13.449219 "/>
</clipPath>
<clipPath id="clip-5">
<path clip-rule="nonzero" d="M 120 13.449219 L 123 13.449219 L 123 309.070312 L 120 309.070312 Z M 120 13.449219 "/>
</clipPath>
<clipPath id="clip-6">
<path clip-rule="nonzero" d="M 179 13.449219 L 183 13.449219 L 183 309.070312 L 179 309.070312 Z M 179 13.449219 "/>
</clipPath>
<clipPath id="clip-7">
<path clip-rule="nonzero" d="M 238 13.449219 L 242 13.449219 L 242 309.070312 L 238 309.070312 Z M 238 13.449219 "/>
</clipPath>
<clipPath id="clip-8">
<path clip-rule="nonzero" d="M 297 13.449219 L 301 13.449219 L 301 309.070312 L 297 309.070312 Z M 297 13.449219 "/>
</clipPath>
<clipPath id="clip-9">
<path clip-rule="nonzero" d="M 180 13.449219 L 182 13.449219 L 182 309.070312 L 180 309.070312 Z M 180 13.449219 "/>
</clipPath>
<clipPath id="clip-10">
<path clip-rule="nonzero" d="M 132 13.449219 L 135 13.449219 L 135 309.070312 L 132 309.070312 Z M 132 13.449219 "/>
</clipPath>
<clipPath id="clip-11">
<path clip-rule="nonzero" d="M 227 13.449219 L 229 13.449219 L 229 309.070312 L 227 309.070312 Z M 227 13.449219 "/>
</clipPath>
</defs>
<rect x="-32.4" y="-36" width="388.8" height="432" fill="rgb(100%, 100%, 100%)" fill-opacity="1"/>
<rect x="-32.4" y="-36" width="388.8" height="432" fill="rgb(95.294118%, 95.294118%, 95.294118%)" fill-opacity="1"/>
<path fill="none" stroke-width="2.618947" stroke-linecap="round" stroke-linejoin="round" stroke="rgb(95.294118%, 95.294118%, 95.294118%)" stroke-opacity="1" stroke-miterlimit="10" d="M 0 360 L 324 360 L 324 0 L 0 0 Z M 0 360 "/>
<g clip-path="url(#clip-0)">
<path fill-rule="nonzero" fill="rgb(95.294118%, 95.294118%, 95.294118%)" fill-opacity="1" stroke-width="2.618947" stroke-linecap="round" stroke-linejoin="round" stroke="rgb(95.294118%, 95.294118%, 95.294118%)" stroke-opacity="1" stroke-miterlimit="10" d="M 50.929688 309.070312 L 310.550781 309.070312 L 310.550781 13.449219 L 50.929688 13.449219 Z M 50.929688 309.070312 "/>
</g>
<g clip-path="url(#clip-1)">
<path fill="none" stroke-width="2.618947" stroke-linecap="butt" stroke-linejoin="round" stroke="rgb(92.156863%, 92.156863%, 92.156863%)" stroke-opacity="1" stroke-miterlimit="10" d="M 50.929688 232.75 L 310.550781 232.75 "/>
</g>
<g clip-path="url(#clip-2)">
<path fill="none" stroke-width="2.618947" stroke-linecap="butt" stroke-linejoin="round" stroke="rgb(92.156863%, 92.156863%, 92.156863%)" stroke-opacity="1" stroke-miterlimit="10" d="M 50.929688 154.097656 L 310.550781 154.097656 "/>
</g>
<g clip-path="url(#clip-3)">
<path fill="none" stroke-width="2.618947" stroke-linecap="butt" stroke-linejoin="round" stroke="rgb(92.156863%, 92.156863%, 92.156863%)" stroke-opacity="1" stroke-miterlimit="10" d="M 50.929688 75.445312 L 310.550781 75.445312 "/>
</g>
<g clip-path="url(#clip-4)">
<path fill="none" stroke-width="2.618947" stroke-linecap="butt" stroke-linejoin="round" stroke="rgb(92.156863%, 92.156863%, 92.156863%)" stroke-opacity="1" stroke-miterlimit="10" d="M 62.582031 309.070312 L 62.582031 13.449219 "/>
</g>
<g clip-path="url(#clip-5)">
<path fill="none" stroke-width="2.618947" stroke-linecap="butt" stroke-linejoin="round" stroke="rgb(92.156863%, 92.156863%, 92.156863%)" stroke-opacity="1" stroke-miterlimit="10" d="M 121.65625 309.070312 L 121.65625 13.449219 "/>
</g>
<g clip-path="url(#clip-6)">
<path fill="none" stroke-width="2.618947" stroke-linecap="butt" stroke-linejoin="round" stroke="rgb(92.156863%, 92.156863%, 92.156863%)" stroke-opacity="1" stroke-miterlimit="10" d="M 180.730469 309.070312 L 180.730469 13.449219 "/>
</g>
<g clip-path="url(#clip-7)">
<path fill="none" stroke-width="2.618947" stroke-linecap="butt" stroke-linejoin="round" stroke="rgb(92.156863%, 92.156863%, 92.156863%)" stroke-opacity="1" stroke-miterlimit="10" d="M 239.804688 309.070312 L 239.804688 13.449219 "/>
</g>
<g clip-path="url(#clip-8)">
<path fill="none" stroke-width="2.618947" stroke-linecap="butt" stroke-linejoin="round" stroke="rgb(92.156863%, 92.156863%, 92.156863%)" stroke-opacity="1" stroke-miterlimit="10" d="M 298.875 309.070312 L 298.875 13.449219 "/>
</g>
<path fill-rule="nonzero" fill="rgb(56.078431%, 16.470588%, 26.27451%)" fill-opacity="0.698039" stroke-width="0.708661" stroke-linecap="round" stroke-linejoin="round" stroke="rgb(56.078431%, 16.470588%, 26.27451%)" stroke-opacity="0.698039" stroke-miterlimit="10" d="M 67.140625 226.519531 C 67.140625 232.398438 58.320312 232.398438 58.320312 226.519531 C 58.320312 220.640625 67.140625 220.640625 67.140625 226.519531 "/>
<path fill-rule="nonzero" fill="rgb(56.078431%, 16.470588%, 26.27451%)" fill-opacity="0.698039" stroke-width="0.708661" stroke-linecap="round" stroke-linejoin="round" stroke="rgb(56.078431%, 16.470588%, 26.27451%)" stroke-opacity="0.698039" stroke-miterlimit="10" d="M 74.441406 241.882812 C 74.441406 247.757812 65.625 247.757812 65.625 241.882812 C 65.625 236.003906 74.441406 236.003906 74.441406 241.882812 "/>
<path fill-rule="nonzero" fill="rgb(56.078431%, 16.470588%, 26.27451%)" fill-opacity="0.698039" stroke-width="0.708661" stroke-linecap="round" stroke-linejoin="round" stroke="rgb(56.078431%, 16.470588%, 26.27451%)" stroke-opacity="0.698039" stroke-miterlimit="10" d="M 78.898438 214.488281 C 78.898438 220.367188 70.082031 220.367188 70.082031 214.488281 C 70.082031 208.609375 78.898438 208.609375 78.898438 214.488281 "/>
<path fill-rule="nonzero" fill="rgb(56.078431%, 16.470588%, 26.27451%)" fill-opacity="0.698039" stroke-width="0.708661" stroke-linecap="round" stroke-linejoin="round" stroke="rgb(56.078431%, 16.470588%, 26.27451%)" stroke-opacity="0.698039" stroke-miterlimit="10" d="M 83.445312 242.164062 C 83.445312 248.042969 74.628906 248.042969 74.628906 242.164062 C 74.628906 236.285156 83.445312 236.285156 83.445312 242.164062 "/>
<path fill-rule="nonzero" fill="rgb(56.078431%, 16.470588%, 26.27451%)" fill-opacity="0.698039" stroke-width="0.708661" stroke-linecap="round" stroke-linejoin="round" stroke="rgb(56.078431%, 16.470588%, 26.27451%)" stroke-opacity="0.698039" stroke-miterlimit="10" d="M 88.507812 245.617188 C 88.507812 251.496094 79.691406 251.496094 79.691406 245.617188 C 79.691406 239.738281 88.507812 239.738281 88.507812 245.617188 "/>
<path fill-rule="nonzero" fill="rgb(56.078431%, 16.470588%, 26.27451%)" fill-opacity="0.698039" stroke-width="0.708661" stroke-linecap="round" stroke-linejoin="round" stroke="rgb(56.078431%, 16.470588%, 26.27451%)" stroke-opacity="0.698039" stroke-miterlimit="10" d="M 92.753906 252.785156 C 92.753906 258.664062 83.9375 258.664062 83.9375 252.785156 C 83.9375 246.90625 92.753906 246.90625 92.753906 252.785156 "/>
<path fill-rule="nonzero" fill="rgb(56.078431%, 16.470588%, 26.27451%)" fill-opacity="0.698039" stroke-width="0.708661" stroke-linecap="round" stroke-linejoin="round" stroke="rgb(56.078431%, 16.470588%, 26.27451%)" stroke-opacity="0.698039" stroke-miterlimit="10" d="M 98.359375 295.632812 C 98.359375 301.511719 89.542969 301.511719 89.542969 295.632812 C 89.542969 289.753906 98.359375 289.753906 98.359375 295.632812 "/>
<path fill-rule="nonzero" fill="rgb(56.078431%, 16.470588%, 26.27451%)" fill-opacity="0.698039" stroke-width="0.708661" stroke-linecap="round" stroke-linejoin="round" stroke="rgb(56.078431%, 16.470588%, 26.27451%)" stroke-opacity="0.698039" stroke-miterlimit="10" d="M 102.601562 279.496094 C 102.601562 285.375 93.785156 285.375 93.785156 279.496094 C 93.785156 273.617188 102.601562 273.617188 102.601562 279.496094 "/>
<path fill-rule="nonzero" fill="rgb(56.078431%, 16.470588%, 26.27451%)" fill-opacity="0.698039" stroke-width="0.708661" stroke-linecap="round" stroke-linejoin="round" stroke="rgb(56.078431%, 16.470588%, 26.27451%)" stroke-opacity="0.698039" stroke-miterlimit="10" d="M 107.25 280.328125 C 107.25 286.203125 98.433594 286.203125 98.433594 280.328125 C 98.433594 274.449219 107.25 274.449219 107.25 280.328125 "/>
<path fill-rule="nonzero" fill="rgb(56.078431%, 16.470588%, 26.27451%)" fill-opacity="0.698039" stroke-width="0.708661" stroke-linecap="round" stroke-linejoin="round" stroke="rgb(56.078431%, 16.470588%, 26.27451%)" stroke-opacity="0.698039" stroke-miterlimit="10" d="M 112.242188 265.246094 C 112.242188 271.125 103.421875 271.125 103.421875 265.246094 C 103.421875 259.367188 112.242188 259.367188 112.242188 265.246094 "/>
<path fill-rule="nonzero" fill="rgb(56.078431%, 16.470588%, 26.27451%)" fill-opacity="0.698039" stroke-width="0.708661" stroke-linecap="round" stroke-linejoin="round" stroke="rgb(56.078431%, 16.470588%, 26.27451%)" stroke-opacity="0.698039" stroke-miterlimit="10" d="M 117.0625 254.992188 C 117.0625 260.871094 108.246094 260.871094 108.246094 254.992188 C 108.246094 249.113281 117.0625 249.113281 117.0625 254.992188 "/>
<path fill-rule="nonzero" fill="rgb(56.078431%, 16.470588%, 26.27451%)" fill-opacity="0.698039" stroke-width="0.708661" stroke-linecap="round" stroke-linejoin="round" stroke="rgb(56.078431%, 16.470588%, 26.27451%)" stroke-opacity="0.698039" stroke-miterlimit="10" d="M 121.445312 254.601562 C 121.445312 260.480469 112.628906 260.480469 112.628906 254.601562 C 112.628906 248.722656 121.445312 248.722656 121.445312 254.601562 "/>
<path fill-rule="nonzero" fill="rgb(56.078431%, 16.470588%, 26.27451%)" fill-opacity="0.698039" stroke-width="0.708661" stroke-linecap="round" stroke-linejoin="round" stroke="rgb(56.078431%, 16.470588%, 26.27451%)" stroke-opacity="0.698039" stroke-miterlimit="10" d="M 126.113281 245.011719 C 126.113281 250.890625 117.296875 250.890625 117.296875 245.011719 C 117.296875 239.132812 126.113281 239.132812 126.113281 245.011719 "/>
<path fill-rule="nonzero" fill="rgb(56.078431%, 16.470588%, 26.27451%)" fill-opacity="0.698039" stroke-width="0.708661" stroke-linecap="round" stroke-linejoin="round" stroke="rgb(56.078431%, 16.470588%, 26.27451%)" stroke-opacity="0.698039" stroke-miterlimit="10" d="M 130.859375 221.328125 C 130.859375 227.207031 122.042969 227.207031 122.042969 221.328125 C 122.042969 215.449219 130.859375 215.449219 130.859375 221.328125 "/>
<path fill-rule="nonzero" fill="rgb(56.078431%, 16.470588%, 26.27451%)" fill-opacity="0.698039" stroke-width="0.708661" stroke-linecap="round" stroke-linejoin="round" stroke="rgb(56.078431%, 16.470588%, 26.27451%)" stroke-opacity="0.698039" stroke-miterlimit="10" d="M 135.535156 214.210938 C 135.535156 220.089844 126.714844 220.089844 126.714844 214.210938 C 126.714844 208.335938 135.535156 208.335938 135.535156 214.210938 "/>
<path fill-rule="nonzero" fill="rgb(56.078431%, 16.470588%, 26.27451%)" fill-opacity="0.698039" stroke-width="0.708661" stroke-linecap="round" stroke-linejoin="round" stroke="rgb(56.078431%, 16.470588%, 26.27451%)" stroke-opacity="0.698039" stroke-miterlimit="10" d="M 140.375 215.574219 C 140.375 221.453125 131.558594 221.453125 131.558594 215.574219 C 131.558594 209.699219 140.375 209.699219 140.375 215.574219 "/>
<path fill-rule="nonzero" fill="rgb(56.078431%, 16.470588%, 26.27451%)" fill-opacity="0.698039" stroke-width="0.708661" stroke-linecap="round" stroke-linejoin="round" stroke="rgb(56.078431%, 16.470588%, 26.27451%)" stroke-opacity="0.698039" stroke-miterlimit="10" d="M 144.835938 204.207031 C 144.835938 210.085938 136.015625 210.085938 136.015625 204.207031 C 136.015625 198.328125 144.835938 198.328125 144.835938 204.207031 "/>
<path fill-rule="nonzero" fill="rgb(56.078431%, 16.470588%, 26.27451%)" fill-opacity="0.698039" stroke-width="0.708661" stroke-linecap="round" stroke-linejoin="round" stroke="rgb(56.078431%, 16.470588%, 26.27451%)" stroke-opacity="0.698039" stroke-miterlimit="10" d="M 149.570312 202.898438 C 149.570312 208.777344 140.75 208.777344 140.75 202.898438 C 140.75 197.019531 149.570312 197.019531 149.570312 202.898438 "/>
<path fill-rule="nonzero" fill="rgb(56.078431%, 16.470588%, 26.27451%)" fill-opacity="0.698039" stroke-width="0.708661" stroke-linecap="round" stroke-linejoin="round" stroke="rgb(56.078431%, 16.470588%, 26.27451%)" stroke-opacity="0.698039" stroke-miterlimit="10" d="M 154.433594 197.871094 C 154.433594 203.75 145.617188 203.75 145.617188 197.871094 C 145.617188 191.992188 154.433594 191.992188 154.433594 197.871094 "/>
<path fill-rule="nonzero" fill="rgb(56.078431%, 16.470588%, 26.27451%)" fill-opacity="0.698039" stroke-width="0.708661" stroke-linecap="round" stroke-linejoin="round" stroke="rgb(56.078431%, 16.470588%, 26.27451%)" stroke-opacity="0.698039" stroke-miterlimit="10" d="M 159.144531 195.222656 C 159.144531 201.097656 150.324219 201.097656 150.324219 195.222656 C 150.324219 189.34375 159.144531 189.34375 159.144531 195.222656 "/>
<path fill-rule="nonzero" fill="rgb(56.078431%, 16.470588%, 26.27451%)" fill-opacity="0.698039" stroke-width="0.708661" stroke-linecap="round" stroke-linejoin="round" stroke="rgb(56.078431%, 16.470588%, 26.27451%)" stroke-opacity="0.698039" stroke-miterlimit="10" d="M 164.003906 191.578125 C 164.003906 197.457031 155.183594 197.457031 155.183594 191.578125 C 155.183594 185.699219 164.003906 185.699219 164.003906 191.578125 "/>
<path fill-rule="nonzero" fill="rgb(56.078431%, 16.470588%, 26.27451%)" fill-opacity="0.698039" stroke-width="0.708661" stroke-linecap="round" stroke-linejoin="round" stroke="rgb(56.078431%, 16.470588%, 26.27451%)" stroke-opacity="0.698039" stroke-miterlimit="10" d="M 168.679688 186.332031 C 168.679688 192.210938 159.863281 192.210938 159.863281 186.332031 C 159.863281 180.453125 168.679688 180.453125 168.679688 186.332031 "/>
<path fill-rule="nonzero" fill="rgb(56.078431%, 16.470588%, 26.27451%)" fill-opacity="0.698039" stroke-width="0.708661" stroke-linecap="round" stroke-linejoin="round" stroke="rgb(56.078431%, 16.470588%, 26.27451%)" stroke-opacity="0.698039" stroke-miterlimit="10" d="M 173.21875 182.335938 C 173.21875 188.214844 164.402344 188.214844 164.402344 182.335938 C 164.402344 176.457031 173.21875 176.457031 173.21875 182.335938 "/>
<path fill-rule="nonzero" fill="rgb(56.078431%, 16.470588%, 26.27451%)" fill-opacity="0.698039" stroke-width="0.708661" stroke-linecap="round" stroke-linejoin="round" stroke="rgb(56.078431%, 16.470588%, 26.27451%)" stroke-opacity="0.698039" stroke-miterlimit="10" d="M 177.976562 178.078125 C 177.976562 183.957031 169.15625 183.957031 169.15625 178.078125 C 169.15625 172.199219 177.976562 172.199219 177.976562 178.078125 "/>
<path fill-rule="nonzero" fill="rgb(56.078431%, 16.470588%, 26.27451%)" fill-opacity="0.698039" stroke-width="0.708661" stroke-linecap="round" stroke-linejoin="round" stroke="rgb(56.078431%, 16.470588%, 26.27451%)" stroke-opacity="0.698039" stroke-miterlimit="10" d="M 182.613281 168.507812 C 182.613281 174.386719 173.796875 174.386719 173.796875 168.507812 C 173.796875 162.628906 182.613281 162.628906 182.613281 168.507812 "/>
<path fill-rule="nonzero" fill="rgb(56.078431%, 16.470588%, 26.27451%)" fill-opacity="0.698039" stroke-width="0.708661" stroke-linecap="round" stroke-linejoin="round" stroke="rgb(56.078431%, 16.470588%, 26.27451%)" stroke-opacity="0.698039" stroke-miterlimit="10" d="M 187.554688 143.484375 C 187.554688 149.359375 178.738281 149.359375 178.738281 143.484375 C 178.738281 137.605469 187.554688 137.605469 187.554688 143.484375 "/>
<path fill-rule="nonzero" fill="rgb(56.078431%, 16.470588%, 26.27451%)" fill-opacity="0.698039" stroke-width="0.708661" stroke-linecap="round" stroke-linejoin="round" stroke="rgb(56.078431%, 16.470588%, 26.27451%)" stroke-opacity="0.698039" stroke-miterlimit="10" d="M 192.097656 132.042969 C 192.097656 137.921875 183.28125 137.921875 183.28125 132.042969 C 183.28125 126.164062 192.097656 126.164062 192.097656 132.042969 "/>
<path fill-rule="nonzero" fill="rgb(56.078431%, 16.470588%, 26.27451%)" fill-opacity="0.698039" stroke-width="0.708661" stroke-linecap="round" stroke-linejoin="round" stroke="rgb(56.078431%, 16.470588%, 26.27451%)" stroke-opacity="0.698039" stroke-miterlimit="10" d="M 196.703125 126.398438 C 196.703125 132.277344 187.882812 132.277344 187.882812 126.398438 C 187.882812 120.519531 196.703125 120.519531 196.703125 126.398438 "/>
<path fill-rule="nonzero" fill="rgb(56.078431%, 16.470588%, 26.27451%)" fill-opacity="0.698039" stroke-width="0.708661" stroke-linecap="round" stroke-linejoin="round" stroke="rgb(56.078431%, 16.470588%, 26.27451%)" stroke-opacity="0.698039" stroke-miterlimit="10" d="M 201.582031 129.796875 C 201.582031 135.671875 192.765625 135.671875 192.765625 129.796875 C 192.765625 123.917969 201.582031 123.917969 201.582031 129.796875 "/>
<path fill-rule="nonzero" fill="rgb(56.078431%, 16.470588%, 26.27451%)" fill-opacity="0.698039" stroke-width="0.708661" stroke-linecap="round" stroke-linejoin="round" stroke="rgb(56.078431%, 16.470588%, 26.27451%)" stroke-opacity="0.698039" stroke-miterlimit="10" d="M 206.328125 115.929688 C 206.328125 121.808594 197.511719 121.808594 197.511719 115.929688 C 197.511719 110.050781 206.328125 110.050781 206.328125 115.929688 "/>
<path fill-rule="nonzero" fill="rgb(56.078431%, 16.470588%, 26.27451%)" fill-opacity="0.698039" stroke-width="0.708661" stroke-linecap="round" stroke-linejoin="round" stroke="rgb(56.078431%, 16.470588%, 26.27451%)" stroke-opacity="0.698039" stroke-miterlimit="10" d="M 211.195312 114.835938 C 211.195312 120.714844 202.378906 120.714844 202.378906 114.835938 C 202.378906 108.960938 211.195312 108.960938 211.195312 114.835938 "/>
<path fill-rule="nonzero" fill="rgb(56.078431%, 16.470588%, 26.27451%)" fill-opacity="0.698039" stroke-width="0.708661" stroke-linecap="round" stroke-linejoin="round" stroke="rgb(56.078431%, 16.470588%, 26.27451%)" stroke-opacity="0.698039" stroke-miterlimit="10" d="M 215.9375 109.527344 C 215.9375 115.40625 207.121094 115.40625 207.121094 109.527344 C 207.121094 103.648438 215.9375 103.648438 215.9375 109.527344 "/>
<path fill-rule="nonzero" fill="rgb(56.078431%, 16.470588%, 26.27451%)" fill-opacity="0.698039" stroke-width="0.708661" stroke-linecap="round" stroke-linejoin="round" stroke="rgb(56.078431%, 16.470588%, 26.27451%)" stroke-opacity="0.698039" stroke-miterlimit="10" d="M 220.511719 102.675781 C 220.511719 108.554688 211.695312 108.554688 211.695312 102.675781 C 211.695312 96.796875 220.511719 96.796875 220.511719 102.675781 "/>
<path fill-rule="nonzero" fill="rgb(56.078431%, 16.470588%, 26.27451%)" fill-opacity="0.698039" stroke-width="0.708661" stroke-linecap="round" stroke-linejoin="round" stroke="rgb(56.078431%, 16.470588%, 26.27451%)" stroke-opacity="0.698039" stroke-miterlimit="10" d="M 225.21875 101.601562 C 225.21875 107.480469 216.398438 107.480469 216.398438 101.601562 C 216.398438 95.722656 225.21875 95.722656 225.21875 101.601562 "/>
<path fill-rule="nonzero" fill="rgb(56.078431%, 16.470588%, 26.27451%)" fill-opacity="0.698039" stroke-width="0.708661" stroke-linecap="round" stroke-linejoin="round" stroke="rgb(56.078431%, 16.470588%, 26.27451%)" stroke-opacity="0.698039" stroke-miterlimit="10" d="M 230.152344 96.3125 C 230.152344 102.1875 221.335938 102.1875 221.335938 96.3125 C 221.335938 90.433594 230.152344 90.433594 230.152344 96.3125 "/>
<path fill-rule="nonzero" fill="rgb(56.078431%, 16.470588%, 26.27451%)" fill-opacity="0.698039" stroke-width="0.708661" stroke-linecap="round" stroke-linejoin="round" stroke="rgb(56.078431%, 16.470588%, 26.27451%)" stroke-opacity="0.698039" stroke-miterlimit="10" d="M 234.921875 89.144531 C 234.921875 95.023438 226.105469 95.023438 226.105469 89.144531 C 226.105469 83.269531 234.921875 83.269531 234.921875 89.144531 "/>
<path fill-rule="nonzero" fill="rgb(56.078431%, 16.470588%, 26.27451%)" fill-opacity="0.698039" stroke-width="0.708661" stroke-linecap="round" stroke-linejoin="round" stroke="rgb(56.078431%, 16.470588%, 26.27451%)" stroke-opacity="0.698039" stroke-miterlimit="10" d="M 239.351562 92.367188 C 239.351562 98.246094 230.535156 98.246094 230.535156 92.367188 C 230.535156 86.488281 239.351562 86.488281 239.351562 92.367188 "/>
<path fill-rule="nonzero" fill="rgb(56.078431%, 16.470588%, 26.27451%)" fill-opacity="0.698039" stroke-width="0.708661" stroke-linecap="round" stroke-linejoin="round" stroke="rgb(56.078431%, 16.470588%, 26.27451%)" stroke-opacity="0.698039" stroke-miterlimit="10" d="M 243.839844 78.507812 C 243.839844 84.386719 235.019531 84.386719 235.019531 78.507812 C 235.019531 72.632812 243.839844 72.632812 243.839844 78.507812 "/>
<path fill-rule="nonzero" fill="rgb(56.078431%, 16.470588%, 26.27451%)" fill-opacity="0.698039" stroke-width="0.708661" stroke-linecap="round" stroke-linejoin="round" stroke="rgb(56.078431%, 16.470588%, 26.27451%)" stroke-opacity="0.698039" stroke-miterlimit="10" d="M 248.757812 69.367188 C 248.757812 75.246094 239.9375 75.246094 239.9375 69.367188 C 239.9375 63.488281 248.757812 63.488281 248.757812 69.367188 "/>
<path fill-rule="nonzero" fill="rgb(56.078431%, 16.470588%, 26.27451%)" fill-opacity="0.698039" stroke-width="0.708661" stroke-linecap="round" stroke-linejoin="round" stroke="rgb(56.078431%, 16.470588%, 26.27451%)" stroke-opacity="0.698039" stroke-miterlimit="10" d="M 253.523438 68.425781 C 253.523438 74.304688 244.707031 74.304688 244.707031 68.425781 C 244.707031 62.546875 253.523438 62.546875 253.523438 68.425781 "/>
<path fill-rule="nonzero" fill="rgb(56.078431%, 16.470588%, 26.27451%)" fill-opacity="0.698039" stroke-width="0.708661" stroke-linecap="round" stroke-linejoin="round" stroke="rgb(56.078431%, 16.470588%, 26.27451%)" stroke-opacity="0.698039" stroke-miterlimit="10" d="M 258.601562 60.265625 C 258.601562 66.144531 249.785156 66.144531 249.785156 60.265625 C 249.785156 54.386719 258.601562 54.386719 258.601562 60.265625 "/>
<path fill-rule="nonzero" fill="rgb(56.078431%, 16.470588%, 26.27451%)" fill-opacity="0.698039" stroke-width="0.708661" stroke-linecap="round" stroke-linejoin="round" stroke="rgb(56.078431%, 16.470588%, 26.27451%)" stroke-opacity="0.698039" stroke-miterlimit="10" d="M 263.183594 67.5 C 263.183594 73.378906 254.367188 73.378906 254.367188 67.5 C 254.367188 61.621094 263.183594 61.621094 263.183594 67.5 "/>
<path fill-rule="nonzero" fill="rgb(56.078431%, 16.470588%, 26.27451%)" fill-opacity="0.698039" stroke-width="0.708661" stroke-linecap="round" stroke-linejoin="round" stroke="rgb(56.078431%, 16.470588%, 26.27451%)" stroke-opacity="0.698039" stroke-miterlimit="10" d="M 267.941406 44.359375 C 267.941406 50.238281 259.125 50.238281 259.125 44.359375 C 259.125 38.480469 267.941406 38.480469 267.941406 44.359375 "/>
<path fill-rule="nonzero" fill="rgb(56.078431%, 16.470588%, 26.27451%)" fill-opacity="0.698039" stroke-width="0.708661" stroke-linecap="round" stroke-linejoin="round" stroke="rgb(56.078431%, 16.470588%, 26.27451%)" stroke-opacity="0.698039" stroke-miterlimit="10" d="M 272.398438 51.746094 C 272.398438 57.625 263.578125 57.625 263.578125 51.746094 C 263.578125 45.867188 272.398438 45.867188 272.398438 51.746094 "/>
<path fill-rule="nonzero" fill="rgb(56.078431%, 16.470588%, 26.27451%)" fill-opacity="0.698039" stroke-width="0.708661" stroke-linecap="round" stroke-linejoin="round" stroke="rgb(56.078431%, 16.470588%, 26.27451%)" stroke-opacity="0.698039" stroke-miterlimit="10" d="M 277.257812 51.378906 C 277.257812 57.257812 268.441406 57.257812 268.441406 51.378906 C 268.441406 45.5 277.257812 45.5 277.257812 51.378906 "/>
<path fill-rule="nonzero" fill="rgb(56.078431%, 16.470588%, 26.27451%)" fill-opacity="0.698039" stroke-width="0.708661" stroke-linecap="round" stroke-linejoin="round" stroke="rgb(56.078431%, 16.470588%, 26.27451%)" stroke-opacity="0.698039" stroke-miterlimit="10" d="M 282.019531 51.304688 C 282.019531 57.183594 273.199219 57.183594 273.199219 51.304688 C 273.199219 45.425781 282.019531 45.425781 282.019531 51.304688 "/>
<path fill-rule="nonzero" fill="rgb(56.078431%, 16.470588%, 26.27451%)" fill-opacity="0.698039" stroke-width="0.708661" stroke-linecap="round" stroke-linejoin="round" stroke="rgb(56.078431%, 16.470588%, 26.27451%)" stroke-opacity="0.698039" stroke-miterlimit="10" d="M 286.839844 39.699219 C 286.839844 45.578125 278.023438 45.578125 278.023438 39.699219 C 278.023438 33.824219 286.839844 33.824219 286.839844 39.699219 "/>
<path fill-rule="nonzero" fill="rgb(56.078431%, 16.470588%, 26.27451%)" fill-opacity="0.698039" stroke-width="0.708661" stroke-linecap="round" stroke-linejoin="round" stroke="rgb(56.078431%, 16.470588%, 26.27451%)" stroke-opacity="0.698039" stroke-miterlimit="10" d="M 291.253906 46.089844 C 291.253906 51.96875 282.4375 51.96875 282.4375 46.089844 C 282.4375 40.210938 291.253906 40.210938 291.253906 46.089844 "/>
<path fill-rule="nonzero" fill="rgb(56.078431%, 16.470588%, 26.27451%)" fill-opacity="0.698039" stroke-width="0.708661" stroke-linecap="round" stroke-linejoin="round" stroke="rgb(56.078431%, 16.470588%, 26.27451%)" stroke-opacity="0.698039" stroke-miterlimit="10" d="M 295.957031 26.886719 C 295.957031 32.765625 287.140625 32.765625 287.140625 26.886719 C 287.140625 21.007812 295.957031 21.007812 295.957031 26.886719 "/>
<path fill-rule="nonzero" fill="rgb(56.078431%, 16.470588%, 26.27451%)" fill-opacity="0.698039" stroke-width="0.708661" stroke-linecap="round" stroke-linejoin="round" stroke="rgb(56.078431%, 16.470588%, 26.27451%)" stroke-opacity="0.698039" stroke-miterlimit="10" d="M 303.160156 36.179688 C 303.160156 42.058594 294.339844 42.058594 294.339844 36.179688 C 294.339844 30.300781 303.160156 30.300781 303.160156 36.179688 "/>
<g clip-path="url(#clip-9)">
<path fill="none" stroke-width="1.066978" stroke-linecap="butt" stroke-linejoin="round" stroke="rgb(80.784314%, 25.882353%, 34.117647%)" stroke-opacity="1" stroke-dasharray="4.267913 4.267913" stroke-miterlimit="10" d="M 180.730469 309.070312 L 180.730469 13.449219 "/>
</g>
<path fill="none" stroke-width="2.133957" stroke-linecap="butt" stroke-linejoin="round" stroke="rgb(0%, 0%, 0%)" stroke-opacity="1" stroke-miterlimit="10" d="M 135.964844 212.527344 L 136.5 212.011719 L 137.035156 211.5 L 137.570312 210.984375 L 138.640625 209.960938 L 139.175781 209.445312 L 139.710938 208.933594 L 140.242188 208.417969 L 141.3125 207.394531 L 141.847656 206.878906 L 142.382812 206.367188 L 142.917969 205.851562 L 143.988281 204.828125 L 144.519531 204.3125 L 145.054688 203.800781 L 145.589844 203.285156 L 146.660156 202.261719 L 147.195312 201.746094 L 147.730469 201.234375 L 148.265625 200.71875 L 148.796875 200.207031 L 149.332031 199.695312 L 149.867188 199.179688 L 150.402344 198.667969 L 150.9375 198.152344 L 152.007812 197.128906 L 152.542969 196.613281 L 153.074219 196.101562 L 153.609375 195.585938 L 154.679688 194.5625 L 155.214844 194.046875 L 155.75 193.535156 L 156.285156 193.019531 L 156.820312 192.507812 L 157.351562 191.996094 L 157.886719 191.480469 L 158.421875 190.96875 L 158.957031 190.453125 L 160.027344 189.429688 L 160.5625 188.914062 L 161.097656 188.402344 L 161.628906 187.886719 L 162.699219 186.863281 L 163.234375 186.347656 L 163.769531 185.835938 L 164.304688 185.320312 L 165.375 184.296875 L 165.90625 183.78125 L 166.441406 183.269531 L 166.976562 182.753906 L 168.046875 181.730469 L 168.582031 181.214844 L 169.117188 180.703125 L 169.652344 180.1875 L 170.183594 179.675781 L 170.71875 179.160156 L 171.789062 178.136719 L 172.324219 177.621094 L 172.859375 177.109375 L 173.394531 176.59375 L 173.929688 176.082031 L 174.460938 175.570312 L 174.996094 175.054688 L 175.53125 174.542969 L 176.066406 174.027344 L 177.136719 173.003906 L 177.671875 172.488281 L 178.207031 171.976562 "/>
<path fill="none" stroke-width="2.133957" stroke-linecap="butt" stroke-linejoin="round" stroke="rgb(0%, 0%, 0%)" stroke-opacity="1" stroke-miterlimit="10" d="M 183.144531 139.390625 L 184.222656 138.265625 L 184.761719 137.699219 L 185.839844 136.574219 L 186.378906 136.007812 L 186.921875 135.445312 L 188 134.320312 L 188.539062 133.753906 L 190.15625 132.066406 L 190.695312 131.5 L 191.773438 130.375 L 192.3125 129.808594 L 193.929688 128.121094 L 194.46875 127.554688 L 195.546875 126.429688 L 196.085938 125.863281 L 197.703125 124.175781 L 198.242188 123.609375 L 199.320312 122.484375 L 199.863281 121.917969 L 201.480469 120.230469 L 202.019531 119.664062 L 203.636719 117.976562 L 204.175781 117.410156 L 205.253906 116.285156 L 205.792969 115.71875 L 207.410156 114.03125 L 207.949219 113.464844 L 209.027344 112.339844 L 209.566406 111.773438 L 211.183594 110.085938 L 211.722656 109.519531 L 212.265625 108.957031 L 212.804688 108.394531 L 213.34375 107.828125 L 214.960938 106.140625 L 215.5 105.574219 L 217.117188 103.886719 L 217.65625 103.320312 L 218.734375 102.195312 L 219.273438 101.628906 L 220.890625 99.941406 L 221.429688 99.375 L 222.507812 98.25 L 223.046875 97.683594 L 224.664062 95.996094 L 225.207031 95.429688 L 225.746094 94.867188 "/>
<g clip-path="url(#clip-10)">
<path fill="none" stroke-width="1.066978" stroke-linecap="butt" stroke-linejoin="round" stroke="rgb(0%, 0%, 0%)" stroke-opacity="1" stroke-dasharray="1.066978 3.200935" stroke-miterlimit="10" d="M 133.46875 309.070312 L 133.46875 13.449219 "/>
</g>
<g clip-path="url(#clip-11)">
<path fill="none" stroke-width="1.066978" stroke-linecap="butt" stroke-linejoin="round" stroke="rgb(0%, 0%, 0%)" stroke-opacity="1" stroke-dasharray="1.066978 3.200935" stroke-miterlimit="10" d="M 227.988281 309.070312 L 227.988281 13.449219 "/>
</g>
<path fill-rule="nonzero" fill="rgb(0%, 0%, 0%)" fill-opacity="1" d="M 156.886719 340.636719 L 156.5 340.628906 L 156.125 340.605469 L 155.757812 340.570312 L 155.398438 340.515625 L 155.050781 340.449219 L 154.707031 340.367188 L 154.375 340.265625 L 154.050781 340.152344 L 153.734375 340.023438 L 153.429688 339.882812 L 153.132812 339.726562 L 152.84375 339.5625 L 152.5625 339.390625 L 152.292969 339.210938 L 152.03125 339.023438 L 151.78125 338.828125 L 151.539062 338.625 L 151.304688 338.414062 L 151.078125 338.191406 L 150.863281 337.964844 L 151.675781 337.101562 L 151.871094 337.3125 L 152.078125 337.515625 L 152.292969 337.710938 L 152.511719 337.898438 L 152.742188 338.078125 L 152.976562 338.25 L 153.21875 338.414062 L 153.472656 338.570312 L 153.730469 338.714844 L 153.996094 338.855469 L 154.269531 338.980469 L 154.542969 339.089844 L 154.824219 339.1875 L 155.105469 339.269531 L 155.394531 339.339844 L 155.683594 339.398438 L 155.980469 339.445312 L 156.277344 339.476562 L 156.578125 339.496094 L 156.886719 339.503906 L 157.285156 339.492188 L 157.671875 339.464844 L 158.039062 339.414062 L 158.386719 339.34375 L 158.722656 339.253906 L 159.035156 339.144531 L 159.335938 339.015625 L 159.617188 338.863281 L 159.878906 338.695312 L 160.125 338.503906 L 160.351562 338.300781 L 160.554688 338.082031 L 160.730469 337.855469 L 160.886719 337.613281 L 161.015625 337.363281 L 161.125 337.101562 L 161.207031 336.828125 L 161.265625 336.542969 L 161.300781 336.246094 L 161.3125 335.9375 L 161.308594 335.722656 L 161.296875 335.515625 L 161.273438 335.3125 L 161.246094 335.121094 L 161.207031 334.941406 L 161.15625 334.765625 L 161.101562 334.601562 L 161.035156 334.445312 L 160.964844 334.296875 L 160.882812 334.15625 L 160.792969 334.023438 L 160.695312 333.898438 L 160.59375 333.773438 L 160.488281 333.65625 L 160.375 333.542969 L 160.257812 333.433594 L 160.132812 333.332031 L 160 333.234375 L 159.863281 333.140625 L 159.71875 333.050781 L 159.578125 332.960938 L 159.433594 332.871094 L 159.28125 332.78125 L 159.128906 332.695312 L 158.972656 332.613281 L 158.808594 332.527344 L 158.644531 332.449219 L 158.476562 332.367188 L 158.304688 332.289062 L 158.128906 332.214844 L 155.425781 331 L 155.121094 330.851562 L 154.964844 330.773438 L 154.804688 330.691406 L 154.644531 330.605469 L 154.480469 330.519531 L 154.316406 330.425781 L 154.148438 330.332031 L 153.980469 330.234375 L 153.808594 330.132812 L 153.640625 330.023438 L 153.480469 329.90625 L 153.328125 329.785156 L 153.175781 329.65625 L 153.03125 329.519531 L 152.890625 329.378906 L 152.753906 329.234375 L 152.625 329.082031 L 152.496094 328.921875 L 152.375 328.757812 L 152.269531 328.578125 L 152.171875 328.394531 L 152.085938 328.199219 L 152.011719 327.992188 L 151.949219 327.777344 L 151.898438 327.554688 L 151.859375 327.324219 L 151.832031 327.082031 L 151.816406 326.832031 L 151.808594 326.570312 L 151.816406 326.316406 L 151.835938 326.066406 L 151.871094 325.820312 L 151.917969 325.585938 L 151.976562 325.355469 L 152.050781 325.132812 L 152.140625 324.914062 L 152.242188 324.703125 L 152.355469 324.5 L 152.484375 324.300781 L 152.625 324.105469 L 152.773438 323.921875 L 152.933594 323.746094 L 153.101562 323.578125 L 153.28125 323.417969 L 153.46875 323.269531 L 153.667969 323.128906 L 153.875 322.996094 L 154.09375 322.875 L 154.320312 322.761719 L 154.5625 322.65625 L 154.808594 322.558594 L 155.058594 322.472656 L 155.316406 322.402344 L 155.582031 322.339844 L 155.851562 322.289062 L 156.128906 322.246094 L 156.410156 322.21875 L 156.699219 322.203125 L 156.992188 322.195312 L 157.308594 322.203125 L 157.617188 322.222656 L 157.921875 322.253906 L 158.214844 322.300781 L 158.503906 322.359375 L 158.789062 322.429688 L 159.066406 322.515625 L 159.335938 322.609375 L 159.597656 322.722656 L 159.855469 322.84375 L 160.105469 322.972656 L 160.34375 323.101562 L 160.574219 323.238281 L 160.796875 323.378906 L 161.007812 323.527344 L 161.210938 323.675781 L 161.40625 323.832031 L 161.59375 323.992188 L 161.769531 324.160156 L 161.933594 324.328125 L 161.230469 325.140625 L 161.074219 324.980469 L 160.910156 324.828125 L 160.738281 324.683594 L 160.5625 324.542969 L 160.382812 324.410156 L 160.195312 324.285156 L 160.003906 324.164062 L 159.808594 324.050781 L 159.605469 323.945312 L 159.394531 323.84375 L 159.183594 323.746094 L 158.964844 323.660156 L 158.738281 323.582031 L 158.507812 323.515625 L 158.269531 323.457031 L 158.027344 323.414062 L 157.777344 323.375 L 157.519531 323.351562 L 157.261719 323.335938 L 156.992188 323.332031 L 156.648438 323.339844 L 156.316406 323.363281 L 156 323.40625 L 155.691406 323.46875 L 155.398438 323.546875 L 155.121094 323.640625 L 154.855469 323.753906 L 154.601562 323.882812 L 154.359375 324.03125 L 154.132812 324.195312 L 153.925781 324.375 L 153.742188 324.5625 L 153.582031 324.765625 L 153.441406 324.980469 L 153.320312 325.207031 L 153.222656 325.445312 L 153.148438 325.695312 L 153.09375 325.957031 L 153.0625 326.230469 L 153.050781 326.515625 L 153.054688 326.71875 L 153.070312 326.910156 L 153.09375 327.097656 L 153.128906 327.277344 L 153.171875 327.449219 L 153.226562 327.613281 L 153.289062 327.769531 L 153.363281 327.917969 L 153.445312 328.058594 L 153.539062 328.191406 L 153.640625 328.316406 L 153.75 328.441406 L 153.863281 328.558594 L 153.976562 328.671875 L 154.097656 328.777344 L 154.347656 328.980469 L 154.613281 329.160156 L 154.753906 329.242188 L 154.898438 329.324219 L 155.039062 329.402344 L 155.183594 329.476562 L 155.324219 329.550781 L 155.597656 329.691406 L 155.734375 329.757812 L 155.867188 329.824219 L 156 329.886719 L 156.128906 329.945312 L 158.828125 331.132812 L 159.027344 331.222656 L 159.222656 331.3125 L 159.414062 331.40625 L 159.601562 331.503906 L 159.789062 331.605469 L 160.148438 331.816406 L 160.324219 331.929688 L 160.496094 332.042969 L 160.664062 332.160156 L 160.835938 332.277344 L 160.996094 332.398438 L 161.152344 332.527344 L 161.300781 332.664062 L 161.441406 332.808594 L 161.574219 332.957031 L 161.703125 333.113281 L 161.824219 333.273438 L 161.9375 333.441406 L 162.042969 333.617188 L 162.144531 333.796875 L 162.238281 333.984375 L 162.316406 334.183594 L 162.386719 334.390625 L 162.449219 334.609375 L 162.496094 334.839844 L 162.535156 335.078125 L 162.5625 335.328125 L 162.578125 335.589844 L 162.582031 335.859375 L 162.574219 336.125 L 162.554688 336.390625 L 162.519531 336.648438 L 162.46875 336.898438 L 162.40625 337.148438 L 162.328125 337.390625 L 162.238281 337.628906 L 162.132812 337.863281 L 162.011719 338.089844 L 161.878906 338.316406 L 161.734375 338.527344 L 161.574219 338.730469 L 161.40625 338.921875 L 161.222656 339.105469 L 161.03125 339.28125 L 160.824219 339.445312 L 160.605469 339.601562 L 160.375 339.75 L 160.136719 339.886719 L 159.882812 340.015625 L 159.625 340.132812 L 159.355469 340.238281 L 159.078125 340.332031 L 158.792969 340.414062 L 158.5 340.480469 L 158.195312 340.539062 L 157.878906 340.582031 L 157.558594 340.613281 L 157.226562 340.632812 Z M 156.886719 340.636719 "/>
<path fill-rule="nonzero" fill="rgb(0%, 0%, 0%)" fill-opacity="1" d="M 170.980469 340.636719 L 170.648438 340.628906 L 170.324219 340.605469 L 170.003906 340.566406 L 169.691406 340.511719 L 169.386719 340.441406 L 169.085938 340.355469 L 168.792969 340.253906 L 168.507812 340.136719 L 168.230469 340.003906 L 167.957031 339.855469 L 167.695312 339.683594 L 167.449219 339.503906 L 167.210938 339.304688 L 166.984375 339.09375 L 166.765625 338.867188 L 166.5625 338.628906 L 166.367188 338.375 L 166.183594 338.109375 L 166.011719 337.828125 L 165.847656 337.53125 L 165.707031 337.21875 L 165.578125 336.894531 L 165.464844 336.554688 L 165.367188 336.207031 L 165.28125 335.84375 L 165.214844 335.472656 L 165.160156 335.085938 L 165.125 334.691406 L 165.101562 334.28125 L 165.09375 333.859375 L 165.101562 333.429688 L 165.125 333.011719 L 165.167969 332.609375 L 165.222656 332.21875 L 165.296875 331.84375 L 165.386719 331.480469 L 165.488281 331.128906 L 165.613281 330.792969 L 165.75 330.46875 L 165.902344 330.160156 L 166.074219 329.859375 L 166.257812 329.574219 L 166.453125 329.304688 L 166.65625 329.050781 L 166.867188 328.8125 L 167.09375 328.585938 L 167.328125 328.378906 L 167.570312 328.183594 L 167.824219 328.003906 L 168.089844 327.839844 L 168.363281 327.683594 L 168.640625 327.546875 L 168.917969 327.425781 L 169.203125 327.320312 L 169.496094 327.230469 L 169.789062 327.160156 L 170.085938 327.101562 L 170.386719 327.0625 L 170.695312 327.039062 L 171.007812 327.03125 L 171.273438 327.035156 L 171.527344 327.050781 L 171.773438 327.074219 L 172.011719 327.105469 L 172.242188 327.152344 L 172.460938 327.203125 L 172.671875 327.265625 L 172.871094 327.339844 L 173.066406 327.421875 L 173.246094 327.515625 L 173.421875 327.613281 L 173.59375 327.714844 L 173.761719 327.820312 L 173.925781 327.925781 L 174.085938 328.035156 L 174.390625 328.261719 L 174.535156 328.378906 L 174.675781 328.5 L 174.8125 328.621094 L 174.109375 329.460938 L 173.984375 329.34375 L 173.859375 329.230469 L 173.726562 329.121094 L 173.59375 329.019531 L 173.457031 328.917969 L 173.316406 328.824219 L 173.175781 328.734375 L 173.03125 328.648438 L 172.882812 328.566406 L 172.734375 328.488281 L 172.582031 328.410156 L 172.425781 328.339844 L 172.265625 328.28125 L 172.097656 328.226562 L 171.929688 328.183594 L 171.757812 328.148438 L 171.582031 328.117188 L 171.402344 328.097656 L 171.21875 328.085938 L 171.035156 328.082031 L 170.769531 328.089844 L 170.515625 328.113281 L 170.261719 328.148438 L 170.015625 328.199219 L 169.769531 328.265625 L 169.53125 328.34375 L 169.300781 328.441406 L 169.070312 328.550781 L 168.847656 328.671875 L 168.628906 328.8125 L 168.425781 328.964844 L 168.226562 329.125 L 168.039062 329.300781 L 167.855469 329.484375 L 167.683594 329.683594 L 167.523438 329.890625 L 167.367188 330.109375 L 167.222656 330.339844 L 167.085938 330.582031 L 166.957031 330.835938 L 166.839844 331.101562 L 166.734375 331.371094 L 166.640625 331.652344 L 166.558594 331.941406 L 166.492188 332.242188 L 166.433594 332.546875 L 166.390625 332.863281 L 166.359375 333.1875 L 166.339844 333.519531 L 166.335938 333.859375 L 166.339844 334.195312 L 166.359375 334.523438 L 166.386719 334.84375 L 166.425781 335.15625 L 166.476562 335.460938 L 166.539062 335.753906 L 166.613281 336.042969 L 166.699219 336.324219 L 166.792969 336.59375 L 166.902344 336.859375 L 167.027344 337.105469 L 167.160156 337.34375 L 167.300781 337.570312 L 167.449219 337.785156 L 167.609375 337.992188 L 167.78125 338.1875 L 167.957031 338.371094 L 168.144531 338.542969 L 168.34375 338.703125 L 168.550781 338.855469 L 168.769531 338.992188 L 168.996094 339.117188 L 169.226562 339.226562 L 169.464844 339.320312 L 169.710938 339.402344 L 169.960938 339.46875 L 170.21875 339.519531 L 170.484375 339.554688 L 170.753906 339.578125 L 171.035156 339.585938 L 171.238281 339.582031 L 171.4375 339.566406 L 171.632812 339.546875 L 171.828125 339.515625 L 172.019531 339.476562 L 172.207031 339.429688 L 172.390625 339.371094 L 172.570312 339.308594 L 172.75 339.234375 L 172.921875 339.152344 L 173.097656 339.058594 L 173.269531 338.964844 L 173.4375 338.863281 L 173.601562 338.761719 L 173.761719 338.660156 L 173.914062 338.554688 L 174.066406 338.445312 L 174.210938 338.332031 L 174.351562 338.21875 L 174.488281 338.097656 L 175.109375 338.9375 L 174.941406 339.078125 L 174.769531 339.21875 L 174.589844 339.351562 L 174.410156 339.480469 L 174.226562 339.605469 L 174.039062 339.722656 L 173.847656 339.839844 L 173.648438 339.949219 L 173.449219 340.050781 L 173.246094 340.152344 L 173.039062 340.242188 L 172.828125 340.328125 L 172.613281 340.398438 L 172.390625 340.460938 L 172.167969 340.515625 L 171.9375 340.558594 L 171.703125 340.59375 L 171.46875 340.617188 L 171.226562 340.632812 Z M 170.980469 340.636719 "/>
<path fill-rule="nonzero" fill="rgb(0%, 0%, 0%)" fill-opacity="1" d="M 183.019531 340.636719 L 182.714844 340.628906 L 182.414062 340.605469 L 182.117188 340.566406 L 181.824219 340.511719 L 181.535156 340.441406 L 181.253906 340.355469 L 180.972656 340.253906 L 180.695312 340.136719 L 180.425781 340.003906 L 180.160156 339.855469 L 179.898438 339.683594 L 179.652344 339.503906 L 179.410156 339.304688 L 179.183594 339.09375 L 178.964844 338.867188 L 178.757812 338.628906 L 178.558594 338.375 L 178.371094 338.109375 L 178.195312 337.828125 L 178.027344 337.53125 L 177.871094 337.21875 L 177.734375 336.894531 L 177.613281 336.554688 L 177.507812 336.207031 L 177.417969 335.84375 L 177.347656 335.472656 L 177.289062 335.085938 L 177.25 334.691406 L 177.222656 334.28125 L 177.214844 333.859375 L 177.222656 333.429688 L 177.25 333.011719 L 177.289062 332.609375 L 177.347656 332.21875 L 177.417969 331.84375 L 177.507812 331.480469 L 177.613281 331.128906 L 177.734375 330.792969 L 177.871094 330.46875 L 178.027344 330.160156 L 178.195312 329.859375 L 178.371094 329.574219 L 178.558594 329.304688 L 178.757812 329.050781 L 178.964844 328.8125 L 179.183594 328.585938 L 179.410156 328.378906 L 179.652344 328.183594 L 179.898438 328.003906 L 180.160156 327.839844 L 180.425781 327.683594 L 180.695312 327.546875 L 180.972656 327.425781 L 181.253906 327.320312 L 181.535156 327.230469 L 181.824219 327.160156 L 182.117188 327.101562 L 182.414062 327.0625 L 182.714844 327.039062 L 183.019531 327.03125 L 183.332031 327.039062 L 183.636719 327.0625 L 183.9375 327.101562 L 184.234375 327.160156 L 184.527344 327.230469 L 184.8125 327.320312 L 185.09375 327.425781 L 185.371094 327.546875 L 185.644531 327.683594 L 185.910156 327.839844 L 186.167969 328.003906 L 186.417969 328.183594 L 186.65625 328.378906 L 186.886719 328.585938 L 187.105469 328.8125 L 187.3125 329.050781 L 187.511719 329.304688 L 187.699219 329.574219 L 187.875 329.859375 L 188.042969 330.160156 L 188.195312 330.46875 L 188.335938 330.792969 L 188.457031 331.128906 L 188.5625 331.480469 L 188.652344 331.84375 L 188.722656 332.21875 L 188.78125 332.609375 L 188.820312 333.011719 L 188.84375 333.429688 L 188.851562 333.859375 L 188.84375 334.28125 L 188.820312 334.691406 L 188.78125 335.085938 L 188.722656 335.472656 L 188.652344 335.84375 L 188.5625 336.207031 L 188.457031 336.554688 L 188.335938 336.894531 L 188.195312 337.21875 L 188.042969 337.53125 L 187.875 337.828125 L 187.699219 338.109375 L 187.511719 338.375 L 187.3125 338.628906 L 187.105469 338.867188 L 186.886719 339.09375 L 186.65625 339.304688 L 186.417969 339.503906 L 186.167969 339.683594 L 185.910156 339.855469 L 185.644531 340.003906 L 185.371094 340.136719 L 185.09375 340.253906 L 184.8125 340.355469 L 184.527344 340.441406 L 184.234375 340.511719 L 183.9375 340.566406 L 183.636719 340.605469 L 183.332031 340.628906 Z M 183.019531 339.585938 L 183.28125 339.578125 L 183.539062 339.554688 L 183.789062 339.519531 L 184.03125 339.46875 L 184.269531 339.402344 L 184.503906 339.320312 L 184.726562 339.226562 L 184.949219 339.117188 L 185.164062 338.992188 L 185.371094 338.855469 L 185.570312 338.703125 L 185.761719 338.542969 L 185.945312 338.371094 L 186.121094 338.1875 L 186.289062 337.992188 L 186.445312 337.785156 L 186.59375 337.570312 L 186.734375 337.34375 L 186.867188 337.105469 L 186.992188 336.859375 L 187.109375 336.59375 L 187.214844 336.324219 L 187.308594 336.042969 L 187.386719 335.753906 L 187.457031 335.460938 L 187.511719 335.15625 L 187.554688 334.84375 L 187.585938 334.523438 L 187.605469 334.195312 L 187.609375 333.859375 L 187.605469 333.519531 L 187.585938 333.1875 L 187.554688 332.863281 L 187.511719 332.546875 L 187.457031 332.242188 L 187.386719 331.941406 L 187.308594 331.652344 L 187.214844 331.371094 L 187.109375 331.101562 L 186.992188 330.835938 L 186.867188 330.582031 L 186.734375 330.339844 L 186.59375 330.109375 L 186.445312 329.890625 L 186.289062 329.683594 L 186.121094 329.484375 L 185.945312 329.300781 L 185.761719 329.125 L 185.570312 328.964844 L 185.371094 328.8125 L 185.164062 328.671875 L 184.949219 328.550781 L 184.726562 328.441406 L 184.503906 328.34375 L 184.269531 328.265625 L 184.03125 328.199219 L 183.789062 328.148438 L 183.539062 328.113281 L 183.28125 328.089844 L 183.019531 328.082031 L 182.765625 328.089844 L 182.511719 328.113281 L 182.265625 328.148438 L 182.023438 328.199219 L 181.785156 328.265625 L 181.554688 328.34375 L 181.324219 328.441406 L 181.101562 328.550781 L 180.886719 328.671875 L 180.671875 328.8125 L 180.472656 328.964844 L 180.277344 329.125 L 180.09375 329.300781 L 179.921875 329.484375 L 179.753906 329.683594 L 179.597656 329.890625 L 179.449219 330.109375 L 179.308594 330.339844 L 179.175781 330.582031 L 179.050781 330.835938 L 178.9375 331.101562 L 178.839844 331.371094 L 178.75 331.652344 L 178.671875 331.941406 L 178.605469 332.242188 L 178.554688 332.546875 L 178.511719 332.863281 L 178.480469 333.1875 L 178.464844 333.519531 L 178.457031 333.859375 L 178.464844 334.195312 L 178.480469 334.523438 L 178.511719 334.84375 L 178.554688 335.15625 L 178.605469 335.460938 L 178.671875 335.753906 L 178.75 336.042969 L 178.839844 336.324219 L 178.9375 336.59375 L 179.050781 336.859375 L 179.175781 337.105469 L 179.308594 337.34375 L 179.449219 337.570312 L 179.597656 337.785156 L 179.753906 337.992188 L 179.921875 338.1875 L 180.09375 338.371094 L 180.277344 338.542969 L 180.472656 338.703125 L 180.671875 338.855469 L 180.886719 338.992188 L 181.101562 339.117188 L 181.324219 339.226562 L 181.554688 339.320312 L 181.785156 339.402344 L 182.023438 339.46875 L 182.265625 339.519531 L 182.511719 339.554688 L 182.765625 339.578125 Z M 183.019531 339.585938 "/>
<path fill-rule="nonzero" fill="rgb(0%, 0%, 0%)" fill-opacity="1" d="M 192.742188 340.3125 L 192.742188 327.351562 L 193.765625 327.351562 L 193.875 329.757812 L 193.957031 329.757812 L 194.089844 329.523438 L 194.226562 329.296875 L 194.371094 329.082031 L 194.519531 328.875 L 194.671875 328.675781 L 194.832031 328.488281 L 194.996094 328.304688 L 195.164062 328.132812 L 195.339844 327.96875 L 195.523438 327.8125 L 195.714844 327.664062 L 195.910156 327.53125 L 196.109375 327.414062 L 196.3125 327.3125 L 196.519531 327.226562 L 196.734375 327.15625 L 196.949219 327.101562 L 197.171875 327.0625 L 197.398438 327.039062 L 197.628906 327.03125 L 197.777344 327.03125 L 197.917969 327.039062 L 197.984375 327.042969 L 198.050781 327.050781 L 198.117188 327.054688 L 198.179688 327.0625 L 198.242188 327.074219 L 198.304688 327.082031 L 198.363281 327.09375 L 198.421875 327.109375 L 198.484375 327.125 L 198.546875 327.144531 L 198.605469 327.164062 L 198.730469 327.210938 L 198.796875 327.238281 L 198.859375 327.269531 L 198.925781 327.300781 L 198.652344 328.378906 L 198.589844 328.355469 L 198.527344 328.328125 L 198.46875 328.308594 L 198.40625 328.289062 L 198.351562 328.269531 L 198.292969 328.257812 L 198.242188 328.242188 L 198.1875 328.234375 L 198.136719 328.222656 L 198.085938 328.21875 L 198.039062 328.207031 L 197.929688 328.191406 L 197.871094 328.183594 L 197.808594 328.175781 L 197.746094 328.171875 L 197.613281 328.164062 L 197.464844 328.164062 L 197.292969 328.171875 L 197.117188 328.195312 L 196.9375 328.230469 L 196.757812 328.285156 L 196.574219 328.351562 L 196.390625 328.4375 L 196.203125 328.535156 L 196.015625 328.648438 L 195.824219 328.777344 L 195.628906 328.917969 L 195.441406 329.078125 L 195.261719 329.253906 L 195.082031 329.457031 L 194.90625 329.679688 L 194.734375 329.925781 L 194.5625 330.191406 L 194.398438 330.484375 L 194.238281 330.792969 L 194.082031 331.128906 L 193.929688 331.484375 L 193.929688 340.3125 Z M 192.742188 340.3125 "/>
<path fill-rule="nonzero" fill="rgb(0%, 0%, 0%)" fill-opacity="1" d="M 206.214844 340.636719 L 205.886719 340.628906 L 205.566406 340.605469 L 205.25 340.566406 L 204.941406 340.507812 L 204.636719 340.433594 L 204.335938 340.347656 L 204.039062 340.242188 L 203.75 340.117188 L 203.46875 339.980469 L 203.191406 339.828125 L 202.925781 339.660156 L 202.671875 339.476562 L 202.429688 339.277344 L 202.195312 339.066406 L 201.976562 338.84375 L 201.765625 338.601562 L 201.566406 338.347656 L 201.375 338.082031 L 201.199219 337.800781 L 201.03125 337.503906 L 200.875 337.191406 L 200.738281 336.867188 L 200.617188 336.53125 L 200.511719 336.183594 L 200.421875 335.824219 L 200.351562 335.453125 L 200.292969 335.074219 L 200.253906 334.679688 L 200.226562 334.277344 L 200.21875 333.859375 L 200.226562 333.441406 L 200.253906 333.03125 L 200.292969 332.636719 L 200.351562 332.253906 L 200.421875 331.882812 L 200.511719 331.523438 L 200.617188 331.179688 L 200.738281 330.84375 L 200.875 330.523438 L 201.03125 330.214844 L 201.195312 329.914062 L 201.375 329.628906 L 201.558594 329.359375 L 201.757812 329.101562 L 201.960938 328.859375 L 202.175781 328.632812 L 202.402344 328.417969 L 202.636719 328.21875 L 202.882812 328.035156 L 203.136719 327.867188 L 203.398438 327.707031 L 203.660156 327.566406 L 203.925781 327.441406 L 204.195312 327.332031 L 204.464844 327.238281 L 204.738281 327.164062 L 205.015625 327.105469 L 205.296875 327.0625 L 205.578125 327.039062 L 205.863281 327.03125 L 206.316406 327.046875 L 206.753906 327.09375 L 207.167969 327.171875 L 207.5625 327.28125 L 207.933594 327.421875 L 208.289062 327.59375 L 208.625 327.796875 L 208.9375 328.03125 L 209.234375 328.296875 L 209.507812 328.59375 L 209.757812 328.921875 L 209.984375 329.273438 L 210.183594 329.652344 L 210.355469 330.054688 L 210.5 330.484375 L 210.621094 330.941406 L 210.710938 331.421875 L 210.777344 331.929688 L 210.816406 332.464844 L 210.832031 333.023438 L 210.832031 333.121094 L 210.828125 333.167969 L 210.828125 333.21875 L 210.824219 333.265625 L 210.820312 333.316406 L 210.816406 333.363281 L 210.8125 333.414062 L 210.804688 333.507812 L 210.804688 333.558594 L 210.800781 333.605469 L 210.800781 333.65625 L 210.796875 333.703125 L 210.789062 333.753906 L 210.785156 333.800781 L 210.777344 333.851562 L 210.761719 333.945312 L 210.75 333.996094 L 201.433594 333.996094 L 201.445312 334.316406 L 201.46875 334.628906 L 201.503906 334.9375 L 201.546875 335.234375 L 201.605469 335.527344 L 201.671875 335.8125 L 201.75 336.089844 L 201.839844 336.363281 L 201.941406 336.628906 L 202.054688 336.882812 L 202.183594 337.132812 L 202.324219 337.371094 L 202.46875 337.597656 L 202.625 337.8125 L 202.792969 338.019531 L 202.964844 338.210938 L 203.152344 338.394531 L 203.34375 338.570312 L 203.546875 338.730469 L 203.757812 338.882812 L 203.980469 339.019531 L 204.214844 339.144531 L 204.453125 339.253906 L 204.699219 339.347656 L 204.953125 339.429688 L 205.210938 339.496094 L 205.480469 339.546875 L 205.753906 339.582031 L 206.035156 339.605469 L 206.324219 339.613281 L 206.53125 339.609375 L 206.734375 339.597656 L 206.933594 339.582031 L 207.128906 339.558594 L 207.320312 339.53125 L 207.507812 339.496094 L 207.691406 339.453125 L 207.867188 339.402344 L 208.042969 339.347656 L 208.210938 339.289062 L 208.382812 339.222656 L 208.71875 339.074219 L 208.882812 338.996094 L 209.042969 338.917969 L 209.199219 338.832031 L 209.355469 338.742188 L 209.507812 338.648438 L 209.65625 338.550781 L 209.804688 338.449219 L 210.292969 339.367188 L 210.136719 339.460938 L 209.980469 339.550781 L 209.820312 339.640625 L 209.65625 339.726562 L 209.488281 339.8125 L 209.316406 339.898438 L 209.140625 339.984375 L 208.960938 340.066406 L 208.777344 340.152344 L 208.589844 340.234375 L 208.394531 340.308594 L 208.191406 340.378906 L 207.980469 340.4375 L 207.757812 340.492188 L 207.523438 340.535156 L 207.28125 340.574219 L 207.027344 340.601562 L 206.765625 340.621094 L 206.496094 340.632812 Z M 201.433594 333.023438 L 209.699219 333.023438 L 209.6875 332.539062 L 209.65625 332.078125 L 209.605469 331.644531 L 209.53125 331.234375 L 209.441406 330.851562 L 209.328125 330.488281 L 209.195312 330.15625 L 209.039062 329.84375 L 208.867188 329.558594 L 208.671875 329.296875 L 208.457031 329.0625 L 208.230469 328.851562 L 207.988281 328.664062 L 207.734375 328.503906 L 207.464844 328.367188 L 207.175781 328.253906 L 206.878906 328.167969 L 206.5625 328.105469 L 206.234375 328.066406 L 205.890625 328.054688 L 205.671875 328.0625 L 205.453125 328.078125 L 205.238281 328.109375 L 205.027344 328.152344 L 204.816406 328.203125 L 204.609375 328.269531 L 204.40625 328.347656 L 204.207031 328.4375 L 204.007812 328.535156 L 203.8125 328.648438 L 203.625 328.773438 L 203.445312 328.90625 L 203.269531 329.050781 L 203.101562 329.207031 L 202.941406 329.371094 L 202.785156 329.546875 L 202.632812 329.730469 L 202.488281 329.929688 L 202.351562 330.132812 L 202.21875 330.351562 L 202.09375 330.578125 L 201.980469 330.8125 L 201.875 331.054688 L 201.78125 331.308594 L 201.699219 331.570312 L 201.625 331.84375 L 201.5625 332.125 L 201.511719 332.414062 L 201.46875 332.714844 Z M 201.433594 333.023438 "/>
<path fill-rule="nonzero" fill="rgb(0%, 0%, 0%)" fill-opacity="1" d="M 31.242188 161.894531 L 24.035156 161.894531 L 13.449219 167.214844 L 13.449219 165.890625 L 19.011719 163.191406 L 19.207031 163.097656 L 19.398438 163.007812 L 19.59375 162.914062 L 19.785156 162.824219 L 19.976562 162.730469 L 20.167969 162.640625 L 20.359375 162.546875 L 20.550781 162.457031 L 20.738281 162.363281 L 20.929688 162.273438 L 21.117188 162.179688 L 21.691406 161.898438 L 22.277344 161.605469 L 22.476562 161.503906 L 22.671875 161.402344 L 22.871094 161.300781 L 22.871094 161.191406 L 22.671875 161.089844 L 22.476562 160.988281 L 22.277344 160.886719 L 22.082031 160.785156 L 21.886719 160.6875 L 21.691406 160.585938 L 21.117188 160.292969 L 20.929688 160.195312 L 20.738281 160.097656 L 20.550781 160 L 20.167969 159.8125 L 19.976562 159.722656 L 19.785156 159.628906 L 19.59375 159.539062 L 19.398438 159.449219 L 19.207031 159.363281 L 19.011719 159.277344 L 13.449219 156.574219 L 13.449219 155.308594 L 24.035156 160.652344 L 31.242188 160.652344 Z M 31.242188 161.894531 "/>
</svg>
