<?xml version="1.0" encoding="UTF-8"?>
<svg xmlns="http://www.w3.org/2000/svg" xmlns:xlink="http://www.w3.org/1999/xlink" width="417" height="460" viewBox="0 0 417 460">
<defs>
<clipPath id="clip-0">
<path clip-rule="nonzero" d="M 92.234375 13.449219 L 403.550781 13.449219 L 403.550781 381.441406 L 92.234375 381.441406 Z M 92.234375 13.449219 "/>
</clipPath>
<clipPath id="clip-1">
<path clip-rule="nonzero" d="M 92.234375 320 L 403.550781 320 L 403.550781 324 L 92.234375 324 Z M 92.234375 320 "/>
</clipPath>
<clipPath id="clip-2">
<path clip-rule="nonzero" d="M 92.234375 245 L 403.550781 245 L 403.550781 249 L 92.234375 249 Z M 92.234375 245 "/>
</clipPath>
<clipPath id="clip-3">
<path clip-rule="nonzero" d="M 92.234375 170 L 403.550781 170 L 403.550781 173 L 92.234375 173 Z M 92.234375 170 "/>
</clipPath>
<clipPath id="clip-4">
<path clip-rule="nonzero" d="M 92.234375 95 L 403.550781 95 L 403.550781 98 L 92.234375 98 Z M 92.234375 95 "/>
</clipPath>
<clipPath id="clip-5">
<path clip-rule="nonzero" d="M 92.234375 19 L 403.550781 19 L 403.550781 23 L 92.234375 23 Z M 92.234375 19 "/>
</clipPath>
<clipPath id="clip-6">
<path clip-rule="nonzero" d="M 164 13.449219 L 168 13.449219 L 168 381.441406 L 164 381.441406 Z M 164 13.449219 "/>
</clipPath>
<clipPath id="clip-7">
<path clip-rule="nonzero" d="M 239 13.449219 L 242 13.449219 L 242 381.441406 L 239 381.441406 Z M 239 13.449219 "/>
</clipPath>
<clipPath id="clip-8">
<path clip-rule="nonzero" d="M 313 13.449219 L 317 13.449219 L 317 381.441406 L 313 381.441406 Z M 313 13.449219 "/>
</clipPath>
<clipPath id="clip-9">
<path clip-rule="nonzero" d="M 388 13.449219 L 391 13.449219 L 391 381.441406 L 388 381.441406 Z M 388 13.449219 "/>
</clipPath>
</defs>
<rect x="-41.7" y="-46" width="500.4" height="552" fill="rgb(100%, 100%, 100%)" fill-opacity="1"/>
<rect x="-41.7" y="-46" width="500.4" height="552" fill="rgb(95.294118%, 95.294118%, 95.294118%)" fill-opacity="1"/>
<path fill="none" stroke-width="2.618947" stroke-linecap="round" stroke-linejoin="round" stroke="rgb(95.294118%, 95.294118%, 95.294118%)" stroke-opacity="1" stroke-miterlimit="10" d="M 0 460 L 417 460 L 417 0 L 0 0 Z M 0 460 "/>
<g clip-path="url(#clip-0)">
<path fill-rule="nonzero" fill="rgb(95.294118%, 95.294118%, 95.294118%)" fill-opacity="1" stroke-width="2.618947" stroke-linecap="round" stroke-linejoin="round" stroke="rgb(95.294118%, 95.294118%, 95.294118%)" stroke-opacity="1" stroke-miterlimit="10" d="M 92.234375 381.441406 L 403.550781 381.441406 L 403.550781 13.449219 L 92.234375 13.449219 Z M 92.234375 381.441406 "/>
</g>
<g clip-path="url(#clip-1)">
<path fill="none" stroke-width="2.618947" stroke-linecap="butt" stroke-linejoin="round" stroke="rgb(92.156863%, 92.156863%, 92.156863%)" stroke-opacity="1" stroke-miterlimit="10" d="M 92.234375 322.125 L 403.550781 322.125 "/>
</g>
<g clip-path="url(#clip-2)">
<path fill="none" stroke-width="2.618947" stroke-linecap="butt" stroke-linejoin="round" stroke="rgb(92.156863%, 92.156863%, 92.156863%)" stroke-opacity="1" stroke-miterlimit="10" d="M 92.234375 246.882812 L 403.550781 246.882812 "/>
</g>
<g clip-path="url(#clip-3)">
<path fill="none" stroke-width="2.618947" stroke-linecap="butt" stroke-linejoin="round" stroke="rgb(92.156863%, 92.156863%, 92.156863%)" stroke-opacity="1" stroke-miterlimit="10" d="M 92.234375 171.636719 L 403.550781 171.636719 "/>
</g>
<g clip-path="url(#clip-4)">
<path fill="none" stroke-width="2.618947" stroke-linecap="butt" stroke-linejoin="round" stroke="rgb(92.156863%, 92.156863%, 92.156863%)" stroke-opacity="1" stroke-miterlimit="10" d="M 92.234375 96.390625 L 403.550781 96.390625 "/>
</g>
<g clip-path="url(#clip-5)">
<path fill="none" stroke-width="2.618947" stroke-linecap="butt" stroke-linejoin="round" stroke="rgb(92.156863%, 92.156863%, 92.156863%)" stroke-opacity="1" stroke-miterlimit="10" d="M 92.234375 21.148438 L 403.550781 21.148438 "/>
</g>
<g clip-path="url(#clip-6)">
<path fill="none" stroke-width="2.618947" stroke-linecap="butt" stroke-linejoin="round" stroke="rgb(92.156863%, 92.156863%, 92.156863%)" stroke-opacity="1" stroke-miterlimit="10" d="M 165.96875 381.441406 L 165.96875 13.449219 "/>
</g>
<g clip-path="url(#clip-7)">
<path fill="none" stroke-width="2.618947" stroke-linecap="butt" stroke-linejoin="round" stroke="rgb(92.156863%, 92.156863%, 92.156863%)" stroke-opacity="1" stroke-miterlimit="10" d="M 240.445312 381.441406 L 240.445312 13.449219 "/>
</g>
<g clip-path="url(#clip-8)">
<path fill="none" stroke-width="2.618947" stroke-linecap="butt" stroke-linejoin="round" stroke="rgb(92.156863%, 92.156863%, 92.156863%)" stroke-opacity="1" stroke-miterlimit="10" d="M 314.921875 381.441406 L 314.921875 13.449219 "/>
</g>
<g clip-path="url(#clip-9)">
<path fill="none" stroke-width="2.618947" stroke-linecap="butt" stroke-linejoin="round" stroke="rgb(92.156863%, 92.156863%, 92.156863%)" stroke-opacity="1" stroke-miterlimit="10" d="M 389.398438 381.441406 L 389.398438 13.449219 "/>
</g>
<path fill-rule="nonzero" fill="rgb(56.078431%, 16.470588%, 26.27451%)" fill-opacity="0.8" stroke-width="0.708661" stroke-linecap="round" stroke-linejoin="round" stroke="rgb(56.078431%, 16.470588%, 26.27451%)" stroke-opacity="0.8" stroke-miterlimit="10" d="M 113.675781 364.714844 C 113.675781 368.738281 110.410156 372.003906 106.382812 372.003906 C 102.359375 372.003906 99.09375 368.738281 99.09375 364.714844 C 99.09375 360.6875 102.359375 357.425781 106.382812 357.425781 C 110.410156 357.425781 113.675781 360.6875 113.675781 364.714844 "/>
<path fill-rule="nonzero" fill="rgb(56.078431%, 16.470588%, 26.27451%)" fill-opacity="0.8" stroke-width="0.708661" stroke-linecap="round" stroke-linejoin="round" stroke="rgb(56.078431%, 16.470588%, 26.27451%)" stroke-opacity="0.8" stroke-miterlimit="10" d="M 128.570312 360.652344 C 128.570312 364.675781 125.304688 367.941406 121.28125 367.941406 C 117.253906 367.941406 113.992188 364.675781 113.992188 360.652344 C 113.992188 356.625 117.253906 353.359375 121.28125 353.359375 C 125.304688 353.359375 128.570312 356.625 128.570312 360.652344 "/>
<path fill-rule="nonzero" fill="rgb(56.078431%, 16.470588%, 26.27451%)" fill-opacity="0.8" stroke-width="0.708661" stroke-linecap="round" stroke-linejoin="round" stroke="rgb(56.078431%, 16.470588%, 26.27451%)" stroke-opacity="0.8" stroke-miterlimit="10" d="M 143.464844 355.082031 C 143.464844 359.109375 140.203125 362.371094 136.175781 362.371094 C 132.148438 362.371094 128.886719 359.109375 128.886719 355.082031 C 128.886719 351.058594 132.148438 347.792969 136.175781 347.792969 C 140.203125 347.792969 143.464844 351.058594 143.464844 355.082031 "/>
<path fill-rule="nonzero" fill="rgb(56.078431%, 16.470588%, 26.27451%)" fill-opacity="0.8" stroke-width="0.708661" stroke-linecap="round" stroke-linejoin="round" stroke="rgb(56.078431%, 16.470588%, 26.27451%)" stroke-opacity="0.8" stroke-miterlimit="10" d="M 158.359375 348.011719 C 158.359375 352.035156 155.097656 355.300781 151.070312 355.300781 C 147.046875 355.300781 143.78125 352.035156 143.78125 348.011719 C 143.78125 343.984375 147.046875 340.71875 151.070312 340.71875 C 155.097656 340.71875 158.359375 343.984375 158.359375 348.011719 "/>
<path fill-rule="nonzero" fill="rgb(56.078431%, 16.470588%, 26.27451%)" fill-opacity="0.8" stroke-width="0.708661" stroke-linecap="round" stroke-linejoin="round" stroke="rgb(56.078431%, 16.470588%, 26.27451%)" stroke-opacity="0.8" stroke-miterlimit="10" d="M 173.257812 339.433594 C 173.257812 343.457031 169.992188 346.722656 165.96875 346.722656 C 161.941406 346.722656 158.675781 343.457031 158.675781 339.433594 C 158.675781 335.40625 161.941406 332.140625 165.96875 332.140625 C 169.992188 332.140625 173.257812 335.40625 173.257812 339.433594 "/>
<path fill-rule="nonzero" fill="rgb(56.078431%, 16.470588%, 26.27451%)" fill-opacity="0.8" stroke-width="0.708661" stroke-linecap="round" stroke-linejoin="round" stroke="rgb(56.078431%, 16.470588%, 26.27451%)" stroke-opacity="0.8" stroke-miterlimit="10" d="M 188.152344 329.347656 C 188.152344 333.375 184.886719 336.640625 180.863281 336.640625 C 176.835938 336.640625 173.574219 333.375 173.574219 329.347656 C 173.574219 325.324219 176.835938 322.058594 180.863281 322.058594 C 184.886719 322.058594 188.152344 325.324219 188.152344 329.347656 "/>
<path fill-rule="nonzero" fill="rgb(56.078431%, 16.470588%, 26.27451%)" fill-opacity="0.8" stroke-width="0.708661" stroke-linecap="round" stroke-linejoin="round" stroke="rgb(56.078431%, 16.470588%, 26.27451%)" stroke-opacity="0.8" stroke-miterlimit="10" d="M 203.046875 317.761719 C 203.046875 321.789062 199.785156 325.050781 195.757812 325.050781 C 191.730469 325.050781 188.46875 321.789062 188.46875 317.761719 C 188.46875 313.734375 191.730469 310.472656 195.757812 310.472656 C 199.785156 310.472656 203.046875 313.734375 203.046875 317.761719 "/>
<path fill-rule="nonzero" fill="rgb(56.078431%, 16.470588%, 26.27451%)" fill-opacity="0.8" stroke-width="0.708661" stroke-linecap="round" stroke-linejoin="round" stroke="rgb(56.078431%, 16.470588%, 26.27451%)" stroke-opacity="0.8" stroke-miterlimit="10" d="M 217.941406 304.667969 C 217.941406 308.695312 214.679688 311.957031 210.652344 311.957031 C 206.628906 311.957031 203.363281 308.695312 203.363281 304.667969 C 203.363281 300.644531 206.628906 297.378906 210.652344 297.378906 C 214.679688 297.378906 217.941406 300.644531 217.941406 304.667969 "/>
<path fill-rule="nonzero" fill="rgb(56.078431%, 16.470588%, 26.27451%)" fill-opacity="0.8" stroke-width="0.708661" stroke-linecap="round" stroke-linejoin="round" stroke="rgb(56.078431%, 16.470588%, 26.27451%)" stroke-opacity="0.8" stroke-miterlimit="10" d="M 232.839844 290.070312 C 232.839844 294.097656 229.574219 297.359375 225.550781 297.359375 C 221.523438 297.359375 218.257812 294.097656 218.257812 290.070312 C 218.257812 286.046875 221.523438 282.78125 225.550781 282.78125 C 229.574219 282.78125 232.839844 286.046875 232.839844 290.070312 "/>
<path fill-rule="nonzero" fill="rgb(56.078431%, 16.470588%, 26.27451%)" fill-opacity="0.8" stroke-width="0.708661" stroke-linecap="round" stroke-linejoin="round" stroke="rgb(56.078431%, 16.470588%, 26.27451%)" stroke-opacity="0.8" stroke-miterlimit="10" d="M 247.734375 273.96875 C 247.734375 277.996094 244.46875 281.257812 240.445312 281.257812 C 236.417969 281.257812 233.15625 277.996094 233.15625 273.96875 C 233.15625 269.941406 236.417969 266.679688 240.445312 266.679688 C 244.46875 266.679688 247.734375 269.941406 247.734375 273.96875 "/>
<path fill-rule="nonzero" fill="rgb(56.078431%, 16.470588%, 26.27451%)" fill-opacity="0.8" stroke-width="0.708661" stroke-linecap="round" stroke-linejoin="round" stroke="rgb(56.078431%, 16.470588%, 26.27451%)" stroke-opacity="0.8" stroke-miterlimit="10" d="M 262.628906 256.363281 C 262.628906 260.386719 259.367188 263.652344 255.339844 263.652344 C 251.3125 263.652344 248.050781 260.386719 248.050781 256.363281 C 248.050781 252.335938 251.3125 249.070312 255.339844 249.070312 C 259.367188 249.070312 262.628906 252.335938 262.628906 256.363281 "/>
<path fill-rule="nonzero" fill="rgb(56.078431%, 16.470588%, 26.27451%)" fill-opacity="0.8" stroke-width="0.708661" stroke-linecap="round" stroke-linejoin="round" stroke="rgb(56.078431%, 16.470588%, 26.27451%)" stroke-opacity="0.8" stroke-miterlimit="10" d="M 277.523438 237.25 C 277.523438 241.277344 274.261719 244.539062 270.234375 244.539062 C 266.210938 244.539062 262.945312 241.277344 262.945312 237.25 C 262.945312 233.222656 266.210938 229.960938 270.234375 229.960938 C 274.261719 229.960938 277.523438 233.222656 277.523438 237.25 "/>
<path fill-rule="nonzero" fill="rgb(56.078431%, 16.470588%, 26.27451%)" fill-opacity="0.8" stroke-width="0.708661" stroke-linecap="round" stroke-linejoin="round" stroke="rgb(56.078431%, 16.470588%, 26.27451%)" stroke-opacity="0.8" stroke-miterlimit="10" d="M 292.421875 216.632812 C 292.421875 220.660156 289.15625 223.921875 285.132812 223.921875 C 281.105469 223.921875 277.839844 220.660156 277.839844 216.632812 C 277.839844 212.605469 281.105469 209.34375 285.132812 209.34375 C 289.15625 209.34375 292.421875 212.605469 292.421875 216.632812 "/>
<path fill-rule="nonzero" fill="rgb(56.078431%, 16.470588%, 26.27451%)" fill-opacity="0.8" stroke-width="0.708661" stroke-linecap="round" stroke-linejoin="round" stroke="rgb(56.078431%, 16.470588%, 26.27451%)" stroke-opacity="0.8" stroke-miterlimit="10" d="M 307.316406 194.511719 C 307.316406 198.535156 304.050781 201.800781 300.027344 201.800781 C 296 201.800781 292.738281 198.535156 292.738281 194.511719 C 292.738281 190.484375 296 187.222656 300.027344 187.222656 C 304.050781 187.222656 307.316406 190.484375 307.316406 194.511719 "/>
<path fill-rule="nonzero" fill="rgb(56.078431%, 16.470588%, 26.27451%)" fill-opacity="0.8" stroke-width="0.708661" stroke-linecap="round" stroke-linejoin="round" stroke="rgb(56.078431%, 16.470588%, 26.27451%)" stroke-opacity="0.8" stroke-miterlimit="10" d="M 322.210938 170.882812 C 322.210938 174.910156 318.949219 178.171875 314.921875 178.171875 C 310.894531 178.171875 307.632812 174.910156 307.632812 170.882812 C 307.632812 166.859375 310.894531 163.59375 314.921875 163.59375 C 318.949219 163.59375 322.210938 166.859375 322.210938 170.882812 "/>
<path fill-rule="nonzero" fill="rgb(56.078431%, 16.470588%, 26.27451%)" fill-opacity="0.8" stroke-width="0.708661" stroke-linecap="round" stroke-linejoin="round" stroke="rgb(56.078431%, 16.470588%, 26.27451%)" stroke-opacity="0.8" stroke-miterlimit="10" d="M 337.105469 145.753906 C 337.105469 149.777344 333.84375 153.042969 329.816406 153.042969 C 325.792969 153.042969 322.527344 149.777344 322.527344 145.753906 C 322.527344 141.726562 325.792969 138.460938 329.816406 138.460938 C 333.84375 138.460938 337.105469 141.726562 337.105469 145.753906 "/>
<path fill-rule="nonzero" fill="rgb(56.078431%, 16.470588%, 26.27451%)" fill-opacity="0.8" stroke-width="0.708661" stroke-linecap="round" stroke-linejoin="round" stroke="rgb(56.078431%, 16.470588%, 26.27451%)" stroke-opacity="0.8" stroke-miterlimit="10" d="M 352.003906 119.117188 C 352.003906 123.140625 348.738281 126.40625 344.714844 126.40625 C 340.6875 126.40625 337.421875 123.140625 337.421875 119.117188 C 337.421875 115.089844 340.6875 111.824219 344.714844 111.824219 C 348.738281 111.824219 352.003906 115.089844 352.003906 119.117188 "/>
<path fill-rule="nonzero" fill="rgb(56.078431%, 16.470588%, 26.27451%)" fill-opacity="0.8" stroke-width="0.708661" stroke-linecap="round" stroke-linejoin="round" stroke="rgb(56.078431%, 16.470588%, 26.27451%)" stroke-opacity="0.8" stroke-miterlimit="10" d="M 366.898438 90.972656 C 366.898438 95 363.632812 98.265625 359.609375 98.265625 C 355.582031 98.265625 352.320312 95 352.320312 90.972656 C 352.320312 86.949219 355.582031 83.683594 359.609375 83.683594 C 363.632812 83.683594 366.898438 86.949219 366.898438 90.972656 "/>
<path fill-rule="nonzero" fill="rgb(56.078431%, 16.470588%, 26.27451%)" fill-opacity="0.8" stroke-width="0.708661" stroke-linecap="round" stroke-linejoin="round" stroke="rgb(56.078431%, 16.470588%, 26.27451%)" stroke-opacity="0.8" stroke-miterlimit="10" d="M 381.792969 61.328125 C 381.792969 65.355469 378.53125 68.617188 374.503906 68.617188 C 370.476562 68.617188 367.214844 65.355469 367.214844 61.328125 C 367.214844 57.300781 370.476562 54.039062 374.503906 54.039062 C 378.53125 54.039062 381.792969 57.300781 381.792969 61.328125 "/>
<path fill-rule="nonzero" fill="rgb(56.078431%, 16.470588%, 26.27451%)" fill-opacity="0.8" stroke-width="0.708661" stroke-linecap="round" stroke-linejoin="round" stroke="rgb(56.078431%, 16.470588%, 26.27451%)" stroke-opacity="0.8" stroke-miterlimit="10" d="M 396.6875 30.175781 C 396.6875 34.203125 393.425781 37.464844 389.398438 37.464844 C 385.375 37.464844 382.109375 34.203125 382.109375 30.175781 C 382.109375 26.152344 385.375 22.886719 389.398438 22.886719 C 393.425781 22.886719 396.6875 26.152344 396.6875 30.175781 "/>
<path fill-rule="nonzero" fill="rgb(10.196078%, 10.196078%, 10.196078%)" fill-opacity="1" d="M 61.855469 330.664062 L 61.601562 330.660156 L 61.355469 330.648438 L 61.117188 330.632812 L 60.886719 330.609375 L 60.660156 330.582031 L 60.441406 330.546875 L 60.230469 330.503906 L 60.023438 330.457031 L 59.824219 330.398438 L 59.628906 330.339844 L 59.445312 330.269531 L 59.269531 330.203125 L 59.097656 330.128906 L 58.929688 330.050781 L 58.765625 329.96875 L 58.609375 329.886719 L 58.457031 329.796875 L 58.308594 329.707031 L 58.167969 329.613281 L 58.03125 329.511719 L 57.894531 329.414062 L 57.765625 329.3125 L 57.636719 329.214844 L 57.511719 329.113281 L 57.390625 329.011719 L 57.273438 328.914062 L 57.15625 328.8125 L 57.046875 328.714844 L 56.828125 328.511719 L 57.453125 327.738281 L 57.601562 327.882812 L 57.753906 328.023438 L 57.914062 328.164062 L 58.078125 328.300781 L 58.25 328.4375 L 58.421875 328.570312 L 58.789062 328.835938 L 58.980469 328.960938 L 59.179688 329.089844 L 59.390625 329.203125 L 59.613281 329.304688 L 59.847656 329.394531 L 60.09375 329.472656 L 60.355469 329.539062 L 60.625 329.59375 L 60.910156 329.632812 L 61.203125 329.664062 L 61.511719 329.683594 L 61.828125 329.6875 L 62.042969 329.683594 L 62.253906 329.667969 L 62.457031 329.640625 L 62.660156 329.605469 L 62.859375 329.558594 L 63.054688 329.5 L 63.25 329.429688 L 63.4375 329.351562 L 63.621094 329.261719 L 63.804688 329.164062 L 63.980469 329.050781 L 64.148438 328.925781 L 64.3125 328.796875 L 64.46875 328.65625 L 64.617188 328.507812 L 64.757812 328.351562 L 64.894531 328.183594 L 65.019531 328.011719 L 65.140625 327.828125 L 65.253906 327.636719 L 65.359375 327.441406 L 65.453125 327.234375 L 65.535156 327.027344 L 65.605469 326.808594 L 65.667969 326.589844 L 65.714844 326.359375 L 65.753906 326.125 L 65.78125 325.886719 L 65.800781 325.640625 L 65.804688 325.386719 L 65.792969 325.011719 L 65.761719 324.652344 L 65.707031 324.308594 L 65.632812 323.980469 L 65.535156 323.667969 L 65.417969 323.375 L 65.277344 323.097656 L 65.117188 322.835938 L 64.933594 322.589844 L 64.730469 322.363281 L 64.511719 322.152344 L 64.28125 321.96875 L 64.035156 321.800781 L 63.773438 321.660156 L 63.5 321.539062 L 63.207031 321.4375 L 62.902344 321.363281 L 62.585938 321.308594 L 62.253906 321.273438 L 61.90625 321.261719 L 61.722656 321.265625 L 61.542969 321.273438 L 61.371094 321.289062 L 61.203125 321.3125 L 61.042969 321.339844 L 60.882812 321.371094 L 60.730469 321.410156 L 60.585938 321.457031 L 60.441406 321.507812 L 60.304688 321.5625 L 60.171875 321.621094 L 60.042969 321.683594 L 59.90625 321.75 L 59.773438 321.820312 L 59.636719 321.894531 L 59.496094 321.972656 L 59.359375 322.058594 L 59.214844 322.148438 L 59.074219 322.242188 L 58.929688 322.339844 L 58.15625 321.863281 L 58.730469 314.386719 L 66.105469 314.386719 L 66.105469 315.363281 L 59.730469 315.363281 L 59.230469 321.136719 L 59.480469 320.996094 L 59.609375 320.925781 L 59.867188 320.800781 L 59.996094 320.742188 L 60.261719 320.632812 L 60.394531 320.585938 L 60.667969 320.492188 L 60.808594 320.449219 L 60.953125 320.410156 L 61.101562 320.378906 L 61.253906 320.351562 L 61.410156 320.328125 L 61.738281 320.296875 L 61.90625 320.289062 L 62.078125 320.289062 L 62.347656 320.292969 L 62.609375 320.308594 L 62.867188 320.335938 L 63.121094 320.375 L 63.367188 320.425781 L 63.609375 320.484375 L 63.847656 320.558594 L 64.078125 320.640625 L 64.308594 320.734375 L 64.53125 320.839844 L 64.75 320.949219 L 64.960938 321.070312 L 65.160156 321.207031 L 65.351562 321.355469 L 65.535156 321.511719 L 65.707031 321.683594 L 65.871094 321.867188 L 66.023438 322.0625 L 66.167969 322.269531 L 66.304688 322.488281 L 66.429688 322.714844 L 66.539062 322.953125 L 66.636719 323.207031 L 66.71875 323.472656 L 66.792969 323.75 L 66.851562 324.042969 L 66.894531 324.347656 L 66.929688 324.664062 L 66.949219 324.996094 L 66.953125 325.339844 L 66.945312 325.671875 L 66.925781 326 L 66.886719 326.3125 L 66.835938 326.617188 L 66.765625 326.914062 L 66.683594 327.199219 L 66.585938 327.472656 L 66.472656 327.738281 L 66.347656 327.992188 L 66.203125 328.238281 L 66.054688 328.46875 L 65.894531 328.6875 L 65.730469 328.894531 L 65.550781 329.089844 L 65.367188 329.277344 L 65.171875 329.449219 L 64.96875 329.613281 L 64.757812 329.765625 L 64.535156 329.90625 L 64.304688 330.039062 L 64.074219 330.15625 L 63.839844 330.261719 L 63.601562 330.355469 L 63.359375 330.4375 L 63.117188 330.507812 L 62.871094 330.5625 L 62.621094 330.605469 L 62.367188 330.636719 L 62.113281 330.65625 Z M 61.855469 330.664062 "/>
<path fill-rule="nonzero" fill="rgb(10.196078%, 10.196078%, 10.196078%)" fill-opacity="1" d="M 74.128906 330.664062 L 73.683594 330.640625 L 73.261719 330.578125 L 72.855469 330.46875 L 72.472656 330.316406 L 72.109375 330.121094 L 71.769531 329.878906 L 71.445312 329.597656 L 71.144531 329.269531 L 70.863281 328.902344 L 70.605469 328.488281 L 70.367188 328.035156 L 70.15625 327.546875 L 69.96875 327.019531 L 69.804688 326.457031 L 69.667969 325.855469 L 69.554688 325.222656 L 69.46875 324.550781 L 69.40625 323.839844 L 69.367188 323.09375 L 69.355469 322.3125 L 69.367188 321.535156 L 69.40625 320.796875 L 69.46875 320.09375 L 69.554688 319.429688 L 69.667969 318.800781 L 69.804688 318.210938 L 69.96875 317.65625 L 70.15625 317.136719 L 70.367188 316.65625 L 70.605469 316.214844 L 70.863281 315.808594 L 71.144531 315.449219 L 71.445312 315.128906 L 71.769531 314.851562 L 72.109375 314.621094 L 72.472656 314.429688 L 72.855469 314.28125 L 73.261719 314.171875 L 73.683594 314.109375 L 74.128906 314.089844 L 74.578125 314.109375 L 75.007812 314.171875 L 75.414062 314.28125 L 75.796875 314.429688 L 76.160156 314.621094 L 76.503906 314.851562 L 76.824219 315.128906 L 77.121094 315.449219 L 77.398438 315.808594 L 77.65625 316.214844 L 77.890625 316.65625 L 78.105469 317.136719 L 78.292969 317.65625 L 78.453125 318.210938 L 78.59375 318.800781 L 78.703125 319.429688 L 78.792969 320.09375 L 78.855469 320.796875 L 78.890625 321.535156 L 78.90625 322.3125 L 78.890625 323.09375 L 78.855469 323.839844 L 78.792969 324.550781 L 78.703125 325.222656 L 78.59375 325.855469 L 78.453125 326.457031 L 78.292969 327.019531 L 78.105469 327.546875 L 77.890625 328.035156 L 77.65625 328.488281 L 77.398438 328.902344 L 77.121094 329.269531 L 76.824219 329.597656 L 76.503906 329.878906 L 76.160156 330.121094 L 75.796875 330.316406 L 75.414062 330.46875 L 75.007812 330.578125 L 74.578125 330.640625 Z M 74.128906 329.714844 L 74.457031 329.695312 L 74.769531 329.636719 L 75.070312 329.542969 L 75.355469 329.414062 L 75.628906 329.246094 L 75.886719 329.039062 L 76.132812 328.792969 L 76.363281 328.511719 L 76.578125 328.195312 L 76.78125 327.839844 L 76.96875 327.445312 L 77.140625 327.015625 L 77.289062 326.554688 L 77.417969 326.054688 L 77.53125 325.519531 L 77.621094 324.949219 L 77.6875 324.34375 L 77.738281 323.703125 L 77.769531 323.027344 L 77.78125 322.3125 L 77.769531 321.601562 L 77.738281 320.925781 L 77.6875 320.289062 L 77.621094 319.6875 L 77.53125 319.125 L 77.417969 318.597656 L 77.289062 318.109375 L 77.140625 317.65625 L 76.96875 317.242188 L 76.78125 316.863281 L 76.578125 316.515625 L 76.363281 316.207031 L 76.132812 315.933594 L 75.886719 315.695312 L 75.628906 315.496094 L 75.355469 315.332031 L 75.070312 315.203125 L 74.769531 315.109375 L 74.457031 315.054688 L 74.128906 315.039062 L 73.804688 315.054688 L 73.496094 315.109375 L 73.199219 315.203125 L 72.914062 315.332031 L 72.640625 315.496094 L 72.382812 315.695312 L 72.136719 315.933594 L 71.90625 316.207031 L 71.6875 316.515625 L 71.480469 316.863281 L 71.289062 317.242188 L 71.121094 317.65625 L 70.96875 318.109375 L 70.839844 318.597656 L 70.730469 319.125 L 70.640625 319.6875 L 70.570312 320.289062 L 70.519531 320.925781 L 70.488281 321.601562 L 70.480469 322.3125 L 70.488281 323.027344 L 70.519531 323.703125 L 70.570312 324.34375 L 70.640625 324.949219 L 70.730469 325.519531 L 70.839844 326.054688 L 70.96875 326.554688 L 71.121094 327.015625 L 71.289062 327.445312 L 71.480469 327.839844 L 71.6875 328.195312 L 71.90625 328.511719 L 72.136719 328.792969 L 72.382812 329.039062 L 72.640625 329.246094 L 72.914062 329.414062 L 73.199219 329.542969 L 73.496094 329.636719 L 73.804688 329.695312 Z M 74.128906 329.714844 "/>
<path fill-rule="nonzero" fill="rgb(10.196078%, 10.196078%, 10.196078%)" fill-opacity="1" d="M 46.304688 255.117188 L 46.304688 254.144531 L 50.054688 254.144531 L 50.054688 240.894531 L 47.203125 240.894531 L 47.203125 240.144531 L 47.398438 240.109375 L 47.585938 240.070312 L 47.953125 239.992188 L 48.128906 239.949219 L 48.472656 239.863281 L 48.636719 239.816406 L 48.796875 239.769531 L 48.953125 239.71875 L 49.105469 239.667969 L 49.253906 239.617188 L 49.398438 239.5625 L 49.539062 239.507812 L 49.804688 239.390625 L 49.929688 239.332031 L 50.050781 239.269531 L 50.167969 239.207031 L 50.28125 239.144531 L 51.179688 239.144531 L 51.179688 254.144531 L 54.65625 254.144531 L 54.65625 255.117188 Z M 46.304688 255.117188 "/>
<path fill-rule="nonzero" fill="rgb(10.196078%, 10.196078%, 10.196078%)" fill-opacity="1" d="M 62.15625 255.417969 L 61.710938 255.398438 L 61.285156 255.332031 L 60.882812 255.222656 L 60.5 255.070312 L 60.136719 254.875 L 59.792969 254.636719 L 59.472656 254.351562 L 59.171875 254.027344 L 58.890625 253.65625 L 58.628906 253.242188 L 58.390625 252.789062 L 58.179688 252.300781 L 57.992188 251.773438 L 57.828125 251.210938 L 57.691406 250.613281 L 57.578125 249.976562 L 57.492188 249.304688 L 57.429688 248.59375 L 57.390625 247.851562 L 57.378906 247.070312 L 57.390625 246.292969 L 57.429688 245.550781 L 57.492188 244.851562 L 57.578125 244.183594 L 57.691406 243.554688 L 57.828125 242.964844 L 57.992188 242.410156 L 58.179688 241.890625 L 58.390625 241.410156 L 58.628906 240.96875 L 58.890625 240.566406 L 59.171875 240.203125 L 59.472656 239.886719 L 59.792969 239.609375 L 60.136719 239.375 L 60.5 239.183594 L 60.882812 239.035156 L 61.285156 238.929688 L 61.710938 238.863281 L 62.15625 238.84375 L 62.605469 238.863281 L 63.03125 238.929688 L 63.4375 239.035156 L 63.824219 239.183594 L 64.1875 239.375 L 64.527344 239.609375 L 64.847656 239.886719 L 65.144531 240.203125 L 65.421875 240.566406 L 65.679688 240.96875 L 65.917969 241.410156 L 66.128906 241.890625 L 66.316406 242.410156 L 66.480469 242.964844 L 66.617188 243.554688 L 66.730469 244.183594 L 66.816406 244.851562 L 66.878906 245.550781 L 66.917969 246.292969 L 66.929688 247.070312 L 66.917969 247.851562 L 66.878906 248.59375 L 66.816406 249.304688 L 66.730469 249.976562 L 66.617188 250.613281 L 66.480469 251.210938 L 66.316406 251.773438 L 66.128906 252.300781 L 65.917969 252.789062 L 65.679688 253.242188 L 65.421875 253.65625 L 65.144531 254.027344 L 64.847656 254.351562 L 64.527344 254.636719 L 64.1875 254.875 L 63.824219 255.070312 L 63.4375 255.222656 L 63.03125 255.332031 L 62.605469 255.398438 Z M 62.15625 254.46875 L 62.480469 254.449219 L 62.796875 254.394531 L 63.097656 254.300781 L 63.382812 254.167969 L 63.65625 254 L 63.914062 253.792969 L 64.15625 253.550781 L 64.386719 253.269531 L 64.601562 252.949219 L 64.804688 252.59375 L 64.996094 252.199219 L 65.164062 251.773438 L 65.3125 251.308594 L 65.445312 250.808594 L 65.554688 250.273438 L 65.644531 249.703125 L 65.714844 249.097656 L 65.765625 248.457031 L 65.792969 247.78125 L 65.804688 247.070312 L 65.792969 246.355469 L 65.765625 245.683594 L 65.714844 245.046875 L 65.644531 244.445312 L 65.554688 243.882812 L 65.445312 243.355469 L 65.3125 242.863281 L 65.164062 242.414062 L 64.996094 241.996094 L 64.804688 241.617188 L 64.601562 241.273438 L 64.386719 240.960938 L 64.15625 240.6875 L 63.914062 240.449219 L 63.65625 240.25 L 63.382812 240.085938 L 63.097656 239.957031 L 62.796875 239.867188 L 62.480469 239.8125 L 62.15625 239.792969 L 61.832031 239.8125 L 61.519531 239.867188 L 61.222656 239.957031 L 60.9375 240.085938 L 60.667969 240.25 L 60.410156 240.449219 L 60.164062 240.6875 L 59.929688 240.960938 L 59.710938 241.273438 L 59.503906 241.617188 L 59.3125 241.996094 L 59.144531 242.414062 L 58.996094 242.863281 L 58.863281 243.355469 L 58.753906 243.882812 L 58.664062 244.445312 L 58.59375 245.046875 L 58.542969 245.683594 L 58.515625 246.355469 L 58.503906 247.070312 L 58.515625 247.78125 L 58.542969 248.457031 L 58.59375 249.097656 L 58.664062 249.703125 L 58.753906 250.273438 L 58.863281 250.808594 L 58.996094 251.308594 L 59.144531 251.773438 L 59.3125 252.199219 L 59.503906 252.59375 L 59.710938 252.949219 L 59.929688 253.269531 L 60.164062 253.550781 L 60.410156 253.792969 L 60.667969 254 L 60.9375 254.167969 L 61.222656 254.300781 L 61.519531 254.394531 L 61.832031 254.449219 Z M 62.15625 254.46875 "/>
<path fill-rule="nonzero" fill="rgb(10.196078%, 10.196078%, 10.196078%)" fill-opacity="1" d="M 74.128906 255.417969 L 73.683594 255.398438 L 73.261719 255.332031 L 72.855469 255.222656 L 72.472656 255.070312 L 72.109375 254.875 L 71.769531 254.636719 L 71.445312 254.351562 L 71.144531 254.027344 L 70.863281 253.65625 L 70.605469 253.242188 L 70.367188 252.789062 L 70.15625 252.300781 L 69.96875 251.773438 L 69.804688 251.210938 L 69.667969 250.613281 L 69.554688 249.976562 L 69.46875 249.304688 L 69.40625 248.59375 L 69.367188 247.851562 L 69.355469 247.070312 L 69.367188 246.292969 L 69.40625 245.550781 L 69.46875 244.851562 L 69.554688 244.183594 L 69.667969 243.554688 L 69.804688 242.964844 L 69.96875 242.410156 L 70.15625 241.890625 L 70.367188 241.410156 L 70.605469 240.96875 L 70.863281 240.566406 L 71.144531 240.203125 L 71.445312 239.886719 L 71.769531 239.609375 L 72.109375 239.375 L 72.472656 239.183594 L 72.855469 239.035156 L 73.261719 238.929688 L 73.683594 238.863281 L 74.128906 238.84375 L 74.578125 238.863281 L 75.007812 238.929688 L 75.414062 239.035156 L 75.796875 239.183594 L 76.160156 239.375 L 76.503906 239.609375 L 76.824219 239.886719 L 77.121094 240.203125 L 77.398438 240.566406 L 77.65625 240.96875 L 77.890625 241.410156 L 78.105469 241.890625 L 78.292969 242.410156 L 78.453125 242.964844 L 78.59375 243.554688 L 78.703125 244.183594 L 78.792969 244.851562 L 78.855469 245.550781 L 78.890625 246.292969 L 78.90625 247.070312 L 78.890625 247.851562 L 78.855469 248.59375 L 78.792969 249.304688 L 78.703125 249.976562 L 78.59375 250.613281 L 78.453125 251.210938 L 78.292969 251.773438 L 78.105469 252.300781 L 77.890625 252.789062 L 77.65625 253.242188 L 77.398438 253.65625 L 77.121094 254.027344 L 76.824219 254.351562 L 76.503906 254.636719 L 76.160156 254.875 L 75.796875 255.070312 L 75.414062 255.222656 L 75.007812 255.332031 L 74.578125 255.398438 Z M 74.128906 254.46875 L 74.457031 254.449219 L 74.769531 254.394531 L 75.070312 254.300781 L 75.355469 254.167969 L 75.628906 254 L 75.886719 253.792969 L 76.132812 253.550781 L 76.363281 253.269531 L 76.578125 252.949219 L 76.78125 252.59375 L 76.96875 252.199219 L 77.140625 251.773438 L 77.289062 251.308594 L 77.417969 250.808594 L 77.53125 250.273438 L 77.621094 249.703125 L 77.6875 249.097656 L 77.738281 248.457031 L 77.769531 247.78125 L 77.78125 247.070312 L 77.769531 246.355469 L 77.738281 245.683594 L 77.6875 245.046875 L 77.621094 244.445312 L 77.53125 243.882812 L 77.417969 243.355469 L 77.289062 242.863281 L 77.140625 242.414062 L 76.96875 241.996094 L 76.78125 241.617188 L 76.578125 241.273438 L 76.363281 240.960938 L 76.132812 240.6875 L 75.886719 240.449219 L 75.628906 240.25 L 75.355469 240.085938 L 75.070312 239.957031 L 74.769531 239.867188 L 74.457031 239.8125 L 74.128906 239.792969 L 73.804688 239.8125 L 73.496094 239.867188 L 73.199219 239.957031 L 72.914062 240.085938 L 72.640625 240.25 L 72.382812 240.449219 L 72.136719 240.6875 L 71.90625 240.960938 L 71.6875 241.273438 L 71.480469 241.617188 L 71.289062 241.996094 L 71.121094 242.414062 L 70.96875 242.863281 L 70.839844 243.355469 L 70.730469 243.882812 L 70.640625 244.445312 L 70.570312 245.046875 L 70.519531 245.683594 L 70.488281 246.355469 L 70.480469 247.070312 L 70.488281 247.78125 L 70.519531 248.457031 L 70.570312 249.097656 L 70.640625 249.703125 L 70.730469 250.273438 L 70.839844 250.808594 L 70.96875 251.308594 L 71.121094 251.773438 L 71.289062 252.199219 L 71.480469 252.59375 L 71.6875 252.949219 L 71.90625 253.269531 L 72.136719 253.550781 L 72.382812 253.792969 L 72.640625 254 L 72.914062 254.167969 L 73.199219 254.300781 L 73.496094 254.394531 L 73.804688 254.449219 Z M 74.128906 254.46875 "/>
<path fill-rule="nonzero" fill="rgb(10.196078%, 10.196078%, 10.196078%)" fill-opacity="1" d="M 46.304688 179.875 L 46.304688 178.898438 L 50.054688 178.898438 L 50.054688 165.648438 L 47.203125 165.648438 L 47.203125 164.898438 L 47.398438 164.863281 L 47.585938 164.824219 L 47.769531 164.789062 L 47.953125 164.746094 L 48.128906 164.707031 L 48.300781 164.660156 L 48.472656 164.617188 L 48.636719 164.570312 L 48.796875 164.523438 L 48.953125 164.472656 L 49.105469 164.421875 L 49.253906 164.371094 L 49.398438 164.316406 L 49.539062 164.261719 L 49.671875 164.207031 L 49.804688 164.148438 L 49.929688 164.085938 L 50.050781 164.027344 L 50.167969 163.964844 L 50.28125 163.898438 L 51.179688 163.898438 L 51.179688 178.898438 L 54.65625 178.898438 L 54.65625 179.875 Z M 46.304688 179.875 "/>
<path fill-rule="nonzero" fill="rgb(10.196078%, 10.196078%, 10.196078%)" fill-opacity="1" d="M 61.855469 180.175781 L 61.601562 180.171875 L 61.355469 180.160156 L 61.117188 180.144531 L 60.886719 180.121094 L 60.660156 180.09375 L 60.441406 180.058594 L 60.230469 180.015625 L 60.023438 179.964844 L 59.824219 179.910156 L 59.628906 179.847656 L 59.445312 179.78125 L 59.269531 179.710938 L 59.097656 179.636719 L 58.929688 179.5625 L 58.765625 179.480469 L 58.609375 179.394531 L 58.457031 179.308594 L 58.308594 179.21875 L 58.167969 179.121094 L 57.894531 178.925781 L 57.636719 178.722656 L 57.511719 178.625 L 57.390625 178.523438 L 57.273438 178.425781 L 57.15625 178.324219 L 57.046875 178.222656 L 56.9375 178.125 L 56.828125 178.023438 L 57.453125 177.25 L 57.601562 177.394531 L 57.753906 177.535156 L 57.914062 177.675781 L 58.078125 177.8125 L 58.25 177.949219 L 58.421875 178.082031 L 58.605469 178.214844 L 58.789062 178.34375 L 58.980469 178.472656 L 59.179688 178.597656 L 59.390625 178.710938 L 59.613281 178.816406 L 59.847656 178.90625 L 60.09375 178.984375 L 60.355469 179.050781 L 60.625 179.101562 L 60.910156 179.144531 L 61.203125 179.175781 L 61.511719 179.191406 L 61.828125 179.199219 L 62.042969 179.195312 L 62.253906 179.179688 L 62.457031 179.152344 L 62.660156 179.113281 L 62.859375 179.066406 L 63.054688 179.011719 L 63.25 178.941406 L 63.4375 178.863281 L 63.621094 178.773438 L 63.804688 178.675781 L 63.980469 178.558594 L 64.148438 178.4375 L 64.3125 178.304688 L 64.46875 178.164062 L 64.617188 178.019531 L 64.757812 177.859375 L 64.894531 177.695312 L 65.019531 177.523438 L 65.140625 177.339844 L 65.253906 177.148438 L 65.359375 176.949219 L 65.453125 176.746094 L 65.535156 176.535156 L 65.605469 176.320312 L 65.667969 176.097656 L 65.714844 175.871094 L 65.753906 175.636719 L 65.78125 175.398438 L 65.800781 175.152344 L 65.804688 174.898438 L 65.792969 174.523438 L 65.761719 174.160156 L 65.707031 173.816406 L 65.632812 173.492188 L 65.535156 173.179688 L 65.417969 172.886719 L 65.277344 172.609375 L 65.117188 172.347656 L 64.933594 172.101562 L 64.730469 171.875 L 64.511719 171.664062 L 64.28125 171.476562 L 64.035156 171.3125 L 63.773438 171.167969 L 63.5 171.050781 L 63.207031 170.949219 L 62.902344 170.871094 L 62.585938 170.816406 L 62.253906 170.785156 L 61.90625 170.773438 L 61.722656 170.777344 L 61.542969 170.785156 L 61.371094 170.800781 L 61.203125 170.820312 L 61.042969 170.847656 L 60.882812 170.882812 L 60.730469 170.921875 L 60.585938 170.964844 L 60.441406 171.015625 L 60.304688 171.074219 L 60.171875 171.132812 L 60.042969 171.191406 L 59.90625 171.257812 L 59.773438 171.328125 L 59.636719 171.40625 L 59.496094 171.484375 L 59.359375 171.570312 L 59.214844 171.65625 L 59.074219 171.75 L 58.929688 171.847656 L 58.15625 171.375 L 58.730469 163.898438 L 66.105469 163.898438 L 66.105469 164.875 L 59.730469 164.875 L 59.230469 170.648438 L 59.355469 170.574219 L 59.480469 170.503906 L 59.738281 170.371094 L 59.996094 170.253906 L 60.261719 170.144531 L 60.394531 170.09375 L 60.53125 170.050781 L 60.667969 170 L 60.808594 169.957031 L 60.953125 169.921875 L 61.101562 169.890625 L 61.253906 169.863281 L 61.410156 169.839844 L 61.574219 169.820312 L 61.738281 169.808594 L 61.90625 169.800781 L 62.078125 169.800781 L 62.347656 169.804688 L 62.609375 169.820312 L 62.867188 169.847656 L 63.121094 169.886719 L 63.367188 169.9375 L 63.609375 169.996094 L 63.847656 170.070312 L 64.078125 170.152344 L 64.308594 170.246094 L 64.53125 170.347656 L 64.75 170.460938 L 64.960938 170.582031 L 65.160156 170.71875 L 65.351562 170.863281 L 65.535156 171.023438 L 65.707031 171.195312 L 65.871094 171.378906 L 66.023438 171.574219 L 66.167969 171.78125 L 66.304688 172 L 66.429688 172.226562 L 66.539062 172.464844 L 66.636719 172.71875 L 66.71875 172.984375 L 66.792969 173.261719 L 66.851562 173.554688 L 66.894531 173.855469 L 66.929688 174.175781 L 66.949219 174.503906 L 66.953125 174.847656 L 66.945312 175.183594 L 66.925781 175.507812 L 66.886719 175.824219 L 66.835938 176.128906 L 66.765625 176.425781 L 66.683594 176.707031 L 66.585938 176.984375 L 66.472656 177.25 L 66.347656 177.503906 L 66.203125 177.75 L 66.054688 177.976562 L 65.894531 178.195312 L 65.730469 178.40625 L 65.550781 178.601562 L 65.367188 178.785156 L 65.171875 178.960938 L 64.96875 179.125 L 64.757812 179.277344 L 64.535156 179.417969 L 64.304688 179.550781 L 64.074219 179.667969 L 63.839844 179.773438 L 63.601562 179.867188 L 63.359375 179.949219 L 63.117188 180.019531 L 62.871094 180.074219 L 62.621094 180.117188 L 62.367188 180.148438 L 62.113281 180.167969 Z M 61.855469 180.175781 "/>
<path fill-rule="nonzero" fill="rgb(10.196078%, 10.196078%, 10.196078%)" fill-opacity="1" d="M 74.128906 180.175781 L 73.683594 180.152344 L 73.261719 180.085938 L 72.855469 179.976562 L 72.472656 179.824219 L 72.109375 179.628906 L 71.769531 179.390625 L 71.445312 179.109375 L 71.144531 178.78125 L 70.863281 178.414062 L 70.605469 178 L 70.367188 177.546875 L 70.15625 177.054688 L 69.96875 176.53125 L 69.804688 175.96875 L 69.667969 175.367188 L 69.554688 174.730469 L 69.46875 174.058594 L 69.40625 173.351562 L 69.367188 172.605469 L 69.355469 171.824219 L 69.367188 171.046875 L 69.40625 170.308594 L 69.46875 169.605469 L 69.554688 168.941406 L 69.667969 168.3125 L 69.804688 167.71875 L 69.96875 167.164062 L 70.15625 166.648438 L 70.367188 166.167969 L 70.605469 165.722656 L 70.863281 165.320312 L 71.144531 164.957031 L 71.445312 164.640625 L 71.769531 164.363281 L 72.109375 164.128906 L 72.472656 163.9375 L 72.855469 163.789062 L 73.261719 163.683594 L 73.683594 163.621094 L 74.128906 163.597656 L 74.578125 163.621094 L 75.007812 163.683594 L 75.414062 163.789062 L 75.796875 163.9375 L 76.160156 164.128906 L 76.503906 164.363281 L 76.824219 164.640625 L 77.121094 164.957031 L 77.398438 165.320312 L 77.65625 165.722656 L 77.890625 166.167969 L 78.105469 166.648438 L 78.292969 167.164062 L 78.453125 167.71875 L 78.59375 168.3125 L 78.703125 168.941406 L 78.792969 169.605469 L 78.855469 170.308594 L 78.890625 171.046875 L 78.90625 171.824219 L 78.890625 172.605469 L 78.855469 173.351562 L 78.792969 174.058594 L 78.703125 174.730469 L 78.59375 175.367188 L 78.453125 175.96875 L 78.292969 176.53125 L 78.105469 177.054688 L 77.890625 177.546875 L 77.65625 178 L 77.398438 178.414062 L 77.121094 178.78125 L 76.824219 179.109375 L 76.503906 179.390625 L 76.160156 179.628906 L 75.796875 179.824219 L 75.414062 179.976562 L 75.007812 180.085938 L 74.578125 180.152344 Z M 74.128906 179.222656 L 74.457031 179.207031 L 74.769531 179.148438 L 75.070312 179.054688 L 75.355469 178.925781 L 75.628906 178.753906 L 75.886719 178.550781 L 76.132812 178.304688 L 76.363281 178.023438 L 76.578125 177.707031 L 76.78125 177.347656 L 76.96875 176.957031 L 77.140625 176.527344 L 77.289062 176.0625 L 77.417969 175.566406 L 77.53125 175.03125 L 77.621094 174.460938 L 77.6875 173.855469 L 77.738281 173.210938 L 77.769531 172.535156 L 77.78125 171.824219 L 77.769531 171.113281 L 77.738281 170.4375 L 77.6875 169.800781 L 77.621094 169.199219 L 77.53125 168.636719 L 77.417969 168.109375 L 77.289062 167.621094 L 77.140625 167.167969 L 76.96875 166.753906 L 76.78125 166.375 L 76.578125 166.027344 L 76.363281 165.71875 L 76.132812 165.441406 L 75.886719 165.207031 L 75.628906 165.003906 L 75.355469 164.839844 L 75.070312 164.714844 L 74.769531 164.621094 L 74.457031 164.566406 L 74.128906 164.550781 L 73.804688 164.566406 L 73.496094 164.621094 L 73.199219 164.714844 L 72.914062 164.839844 L 72.640625 165.003906 L 72.382812 165.207031 L 72.136719 165.441406 L 71.90625 165.71875 L 71.6875 166.027344 L 71.480469 166.375 L 71.289062 166.753906 L 71.121094 167.167969 L 70.96875 167.621094 L 70.839844 168.109375 L 70.730469 168.636719 L 70.640625 169.199219 L 70.570312 169.800781 L 70.519531 170.4375 L 70.488281 171.113281 L 70.480469 171.824219 L 70.488281 172.535156 L 70.519531 173.210938 L 70.570312 173.855469 L 70.640625 174.460938 L 70.730469 175.03125 L 70.839844 175.566406 L 70.96875 176.0625 L 71.121094 176.527344 L 71.289062 176.957031 L 71.480469 177.347656 L 71.6875 177.707031 L 71.90625 178.023438 L 72.136719 178.304688 L 72.382812 178.550781 L 72.640625 178.753906 L 72.914062 178.925781 L 73.199219 179.054688 L 73.496094 179.148438 L 73.804688 179.207031 Z M 74.128906 179.222656 "/>
<path fill-rule="nonzero" fill="rgb(10.196078%, 10.196078%, 10.196078%)" fill-opacity="1" d="M 45.230469 104.628906 L 45.230469 103.929688 L 45.746094 103.402344 L 46.246094 102.886719 L 46.726562 102.390625 L 47.1875 101.90625 L 47.636719 101.433594 L 48.0625 100.980469 L 48.476562 100.539062 L 48.871094 100.113281 L 49.246094 99.703125 L 49.605469 99.304688 L 49.945312 98.914062 L 50.269531 98.53125 L 50.574219 98.15625 L 50.863281 97.792969 L 51.136719 97.433594 L 51.390625 97.085938 L 51.625 96.746094 L 51.84375 96.417969 L 52.046875 96.09375 L 52.230469 95.777344 L 52.394531 95.472656 L 52.542969 95.167969 L 52.675781 94.863281 L 52.789062 94.566406 L 52.886719 94.273438 L 52.964844 93.980469 L 53.027344 93.695312 L 53.070312 93.410156 L 53.09375 93.132812 L 53.105469 92.855469 L 53.097656 92.558594 L 53.070312 92.273438 L 53.027344 91.996094 L 52.96875 91.730469 L 52.890625 91.472656 L 52.796875 91.226562 L 52.6875 90.988281 L 52.558594 90.757812 L 52.414062 90.539062 L 52.253906 90.328125 L 52.078125 90.132812 L 51.886719 89.960938 L 51.671875 89.804688 L 51.4375 89.671875 L 51.1875 89.558594 L 50.914062 89.46875 L 50.621094 89.398438 L 50.308594 89.34375 L 49.980469 89.316406 L 49.628906 89.304688 L 49.414062 89.308594 L 49.203125 89.328125 L 48.992188 89.359375 L 48.785156 89.398438 L 48.578125 89.453125 L 48.375 89.519531 L 48.171875 89.597656 L 47.972656 89.6875 L 47.773438 89.789062 L 47.578125 89.902344 L 47.390625 90.027344 L 47.207031 90.15625 L 47.03125 90.292969 L 46.855469 90.433594 L 46.6875 90.578125 L 46.519531 90.730469 L 46.359375 90.890625 L 46.203125 91.054688 L 46.050781 91.226562 L 45.90625 91.402344 L 45.179688 90.703125 L 45.363281 90.507812 L 45.546875 90.316406 L 45.738281 90.132812 L 45.929688 89.957031 L 46.128906 89.785156 L 46.332031 89.621094 L 46.539062 89.464844 L 46.746094 89.3125 L 46.960938 89.167969 L 47.179688 89.027344 L 47.402344 88.902344 L 47.632812 88.785156 L 47.871094 88.683594 L 48.117188 88.597656 L 48.367188 88.523438 L 48.625 88.460938 L 48.890625 88.414062 L 49.164062 88.382812 L 49.441406 88.359375 L 49.730469 88.355469 L 50.148438 88.367188 L 50.550781 88.402344 L 50.929688 88.464844 L 51.292969 88.550781 L 51.636719 88.660156 L 51.957031 88.796875 L 52.261719 88.953125 L 52.546875 89.136719 L 52.808594 89.347656 L 53.054688 89.578125 L 53.277344 89.832031 L 53.476562 90.101562 L 53.652344 90.386719 L 53.804688 90.6875 L 53.9375 91.003906 L 54.042969 91.335938 L 54.125 91.6875 L 54.183594 92.050781 L 54.21875 92.433594 L 54.230469 92.828125 L 54.21875 93.144531 L 54.191406 93.460938 L 54.144531 93.777344 L 54.082031 94.097656 L 54 94.417969 L 53.894531 94.738281 L 53.777344 95.058594 L 53.636719 95.382812 L 53.480469 95.703125 L 53.304688 96.027344 L 53.117188 96.355469 L 52.914062 96.6875 L 52.695312 97.027344 L 52.464844 97.371094 L 52.21875 97.714844 L 51.953125 98.070312 L 51.675781 98.425781 L 51.382812 98.789062 L 51.078125 99.15625 L 50.753906 99.527344 L 50.421875 99.910156 L 50.082031 100.296875 L 49.726562 100.695312 L 49.359375 101.105469 L 48.980469 101.523438 L 48.589844 101.949219 L 48.183594 102.386719 L 47.769531 102.832031 L 47.34375 103.289062 L 46.90625 103.753906 L 47.035156 103.746094 L 47.164062 103.734375 L 47.5625 103.710938 L 47.691406 103.703125 L 47.828125 103.695312 L 47.960938 103.691406 L 48.09375 103.683594 L 48.230469 103.679688 L 48.367188 103.667969 L 48.507812 103.660156 L 48.644531 103.652344 L 48.78125 103.648438 L 48.917969 103.640625 L 49.183594 103.632812 L 49.316406 103.632812 L 49.449219 103.628906 L 55.03125 103.628906 L 55.03125 104.628906 Z M 45.230469 104.628906 "/>
<path fill-rule="nonzero" fill="rgb(10.196078%, 10.196078%, 10.196078%)" fill-opacity="1" d="M 62.15625 104.929688 L 61.710938 104.90625 L 61.285156 104.84375 L 60.882812 104.734375 L 60.5 104.582031 L 60.136719 104.386719 L 59.792969 104.144531 L 59.472656 103.863281 L 59.171875 103.539062 L 58.890625 103.167969 L 58.628906 102.753906 L 58.390625 102.300781 L 58.179688 101.8125 L 57.992188 101.285156 L 57.828125 100.722656 L 57.691406 100.121094 L 57.578125 99.488281 L 57.492188 98.816406 L 57.429688 98.105469 L 57.390625 97.359375 L 57.378906 96.578125 L 57.390625 95.804688 L 57.429688 95.0625 L 57.492188 94.359375 L 57.578125 93.695312 L 57.691406 93.066406 L 57.828125 92.476562 L 57.992188 91.921875 L 58.179688 91.402344 L 58.390625 90.921875 L 58.628906 90.480469 L 58.890625 90.074219 L 59.171875 89.714844 L 59.472656 89.394531 L 59.792969 89.121094 L 60.136719 88.886719 L 60.5 88.695312 L 60.882812 88.546875 L 61.285156 88.4375 L 61.710938 88.375 L 62.15625 88.355469 L 62.605469 88.375 L 63.03125 88.4375 L 63.4375 88.546875 L 63.824219 88.695312 L 64.1875 88.886719 L 64.527344 89.121094 L 64.847656 89.394531 L 65.144531 89.714844 L 65.421875 90.074219 L 65.679688 90.480469 L 65.917969 90.921875 L 66.128906 91.402344 L 66.316406 91.921875 L 66.480469 92.476562 L 66.617188 93.066406 L 66.730469 93.695312 L 66.816406 94.359375 L 66.878906 95.0625 L 66.917969 95.804688 L 66.929688 96.578125 L 66.917969 97.359375 L 66.878906 98.105469 L 66.816406 98.816406 L 66.730469 99.488281 L 66.617188 100.121094 L 66.480469 100.722656 L 66.316406 101.285156 L 66.128906 101.8125 L 65.917969 102.300781 L 65.679688 102.753906 L 65.421875 103.167969 L 65.144531 103.539062 L 64.847656 103.863281 L 64.527344 104.144531 L 64.1875 104.386719 L 63.824219 104.582031 L 63.4375 104.734375 L 63.03125 104.84375 L 62.605469 104.90625 Z M 62.15625 103.980469 L 62.480469 103.960938 L 62.796875 103.902344 L 63.097656 103.808594 L 63.382812 103.679688 L 63.65625 103.511719 L 63.914062 103.304688 L 64.15625 103.058594 L 64.386719 102.777344 L 64.601562 102.460938 L 64.804688 102.105469 L 64.996094 101.710938 L 65.164062 101.285156 L 65.3125 100.820312 L 65.445312 100.320312 L 65.554688 99.785156 L 65.644531 99.214844 L 65.714844 98.609375 L 65.765625 97.96875 L 65.792969 97.292969 L 65.804688 96.578125 L 65.792969 95.867188 L 65.765625 95.191406 L 65.714844 94.554688 L 65.644531 93.957031 L 65.554688 93.390625 L 65.445312 92.867188 L 65.3125 92.375 L 65.164062 91.921875 L 64.996094 91.507812 L 64.804688 91.128906 L 64.601562 90.78125 L 64.386719 90.472656 L 64.15625 90.199219 L 63.914062 89.960938 L 63.65625 89.761719 L 63.382812 89.597656 L 63.097656 89.46875 L 62.796875 89.378906 L 62.480469 89.324219 L 62.15625 89.304688 L 61.832031 89.324219 L 61.519531 89.378906 L 61.222656 89.46875 L 60.9375 89.597656 L 60.667969 89.761719 L 60.410156 89.960938 L 60.164062 90.199219 L 59.929688 90.472656 L 59.710938 90.78125 L 59.503906 91.128906 L 59.3125 91.507812 L 59.144531 91.921875 L 58.996094 92.375 L 58.863281 92.867188 L 58.753906 93.390625 L 58.664062 93.957031 L 58.59375 94.554688 L 58.542969 95.191406 L 58.515625 95.867188 L 58.503906 96.578125 L 58.515625 97.292969 L 58.542969 97.96875 L 58.59375 98.609375 L 58.664062 99.214844 L 58.753906 99.785156 L 58.863281 100.320312 L 58.996094 100.820312 L 59.144531 101.285156 L 59.3125 101.710938 L 59.503906 102.105469 L 59.710938 102.460938 L 59.929688 102.777344 L 60.164062 103.058594 L 60.410156 103.304688 L 60.667969 103.511719 L 60.9375 103.679688 L 61.222656 103.808594 L 61.519531 103.902344 L 61.832031 103.960938 Z M 62.15625 103.980469 "/>
<path fill-rule="nonzero" fill="rgb(10.196078%, 10.196078%, 10.196078%)" fill-opacity="1" d="M 74.128906 104.929688 L 73.683594 104.90625 L 73.261719 104.84375 L 72.855469 104.734375 L 72.472656 104.582031 L 72.109375 104.386719 L 71.769531 104.144531 L 71.445312 103.863281 L 71.144531 103.539062 L 70.863281 103.167969 L 70.605469 102.753906 L 70.367188 102.300781 L 70.15625 101.8125 L 69.96875 101.285156 L 69.804688 100.722656 L 69.667969 100.121094 L 69.554688 99.488281 L 69.46875 98.816406 L 69.40625 98.105469 L 69.367188 97.359375 L 69.355469 96.578125 L 69.367188 95.804688 L 69.40625 95.0625 L 69.46875 94.359375 L 69.554688 93.695312 L 69.667969 93.066406 L 69.804688 92.476562 L 69.96875 91.921875 L 70.15625 91.402344 L 70.367188 90.921875 L 70.605469 90.480469 L 70.863281 90.074219 L 71.144531 89.714844 L 71.445312 89.394531 L 71.769531 89.121094 L 72.109375 88.886719 L 72.472656 88.695312 L 72.855469 88.546875 L 73.261719 88.4375 L 73.683594 88.375 L 74.128906 88.355469 L 74.578125 88.375 L 75.007812 88.4375 L 75.414062 88.546875 L 75.796875 88.695312 L 76.160156 88.886719 L 76.503906 89.121094 L 76.824219 89.394531 L 77.121094 89.714844 L 77.398438 90.074219 L 77.65625 90.480469 L 77.890625 90.921875 L 78.105469 91.402344 L 78.292969 91.921875 L 78.453125 92.476562 L 78.59375 93.066406 L 78.703125 93.695312 L 78.792969 94.359375 L 78.855469 95.0625 L 78.890625 95.804688 L 78.90625 96.578125 L 78.890625 97.359375 L 78.855469 98.105469 L 78.792969 98.816406 L 78.703125 99.488281 L 78.59375 100.121094 L 78.453125 100.722656 L 78.292969 101.285156 L 78.105469 101.8125 L 77.890625 102.300781 L 77.65625 102.753906 L 77.398438 103.167969 L 77.121094 103.539062 L 76.824219 103.863281 L 76.503906 104.144531 L 76.160156 104.386719 L 75.796875 104.582031 L 75.414062 104.734375 L 75.007812 104.84375 L 74.578125 104.90625 Z M 74.128906 103.980469 L 74.457031 103.960938 L 74.769531 103.902344 L 75.070312 103.808594 L 75.355469 103.679688 L 75.628906 103.511719 L 75.886719 103.304688 L 76.132812 103.058594 L 76.363281 102.777344 L 76.578125 102.460938 L 76.78125 102.105469 L 76.96875 101.710938 L 77.140625 101.285156 L 77.289062 100.820312 L 77.417969 100.320312 L 77.53125 99.785156 L 77.621094 99.214844 L 77.6875 98.609375 L 77.738281 97.96875 L 77.769531 97.292969 L 77.78125 96.578125 L 77.769531 95.867188 L 77.738281 95.191406 L 77.6875 94.554688 L 77.621094 93.957031 L 77.53125 93.390625 L 77.417969 92.867188 L 77.289062 92.375 L 77.140625 91.921875 L 76.96875 91.507812 L 76.78125 91.128906 L 76.578125 90.78125 L 76.363281 90.472656 L 76.132812 90.199219 L 75.886719 89.960938 L 75.628906 89.761719 L 75.355469 89.597656 L 75.070312 89.46875 L 74.769531 89.378906 L 74.457031 89.324219 L 74.128906 89.304688 L 73.804688 89.324219 L 73.496094 89.378906 L 73.199219 89.46875 L 72.914062 89.597656 L 72.640625 89.761719 L 72.382812 89.960938 L 72.136719 90.199219 L 71.90625 90.472656 L 71.6875 90.78125 L 71.480469 91.128906 L 71.289062 91.507812 L 71.121094 91.921875 L 70.96875 92.375 L 70.839844 92.867188 L 70.730469 93.390625 L 70.640625 93.957031 L 70.570312 94.554688 L 70.519531 95.191406 L 70.488281 95.867188 L 70.480469 96.578125 L 70.488281 97.292969 L 70.519531 97.96875 L 70.570312 98.609375 L 70.640625 99.214844 L 70.730469 99.785156 L 70.839844 100.320312 L 70.96875 100.820312 L 71.121094 101.285156 L 71.289062 101.710938 L 71.480469 102.105469 L 71.6875 102.460938 L 71.90625 102.777344 L 72.136719 103.058594 L 72.382812 103.304688 L 72.640625 103.511719 L 72.914062 103.679688 L 73.199219 103.808594 L 73.496094 103.902344 L 73.804688 103.960938 Z M 74.128906 103.980469 "/>
<path fill-rule="nonzero" fill="rgb(10.196078%, 10.196078%, 10.196078%)" fill-opacity="1" d="M 45.230469 29.382812 L 45.230469 28.683594 L 45.746094 28.15625 L 46.246094 27.644531 L 46.726562 27.144531 L 47.1875 26.660156 L 47.636719 26.191406 L 48.0625 25.734375 L 48.476562 25.292969 L 48.871094 24.867188 L 49.246094 24.457031 L 49.605469 24.058594 L 49.945312 23.667969 L 50.269531 23.285156 L 50.574219 22.914062 L 50.863281 22.546875 L 51.136719 22.191406 L 51.390625 21.84375 L 51.625 21.503906 L 51.84375 21.171875 L 52.046875 20.847656 L 52.230469 20.535156 L 52.394531 20.226562 L 52.542969 19.921875 L 52.675781 19.621094 L 52.789062 19.324219 L 52.886719 19.027344 L 52.964844 18.738281 L 53.027344 18.449219 L 53.070312 18.167969 L 53.09375 17.886719 L 53.105469 17.609375 L 53.097656 17.3125 L 53.070312 17.027344 L 53.027344 16.753906 L 52.96875 16.484375 L 52.890625 16.226562 L 52.796875 15.980469 L 52.6875 15.742188 L 52.558594 15.511719 L 52.414062 15.292969 L 52.253906 15.085938 L 52.078125 14.890625 L 51.886719 14.714844 L 51.671875 14.5625 L 51.4375 14.429688 L 51.1875 14.316406 L 50.914062 14.222656 L 50.621094 14.152344 L 50.308594 14.101562 L 49.980469 14.070312 L 49.628906 14.058594 L 49.414062 14.066406 L 49.203125 14.082031 L 48.992188 14.113281 L 48.785156 14.15625 L 48.578125 14.210938 L 48.375 14.277344 L 48.171875 14.355469 L 47.972656 14.445312 L 47.773438 14.546875 L 47.578125 14.660156 L 47.390625 14.78125 L 47.207031 14.910156 L 47.03125 15.046875 L 46.855469 15.1875 L 46.6875 15.335938 L 46.519531 15.488281 L 46.359375 15.648438 L 46.203125 15.8125 L 46.050781 15.984375 L 45.90625 16.160156 L 45.179688 15.460938 L 45.363281 15.261719 L 45.546875 15.074219 L 45.738281 14.890625 L 45.929688 14.710938 L 46.128906 14.539062 L 46.332031 14.375 L 46.539062 14.21875 L 46.746094 14.066406 L 46.960938 13.921875 L 47.179688 13.785156 L 47.402344 13.65625 L 47.632812 13.542969 L 47.871094 13.441406 L 48.117188 13.351562 L 48.367188 13.277344 L 48.625 13.21875 L 48.890625 13.171875 L 49.164062 13.136719 L 49.441406 13.117188 L 49.730469 13.109375 L 50.148438 13.121094 L 50.550781 13.160156 L 50.929688 13.21875 L 51.292969 13.304688 L 51.636719 13.414062 L 51.957031 13.550781 L 52.261719 13.710938 L 52.546875 13.894531 L 52.808594 14.101562 L 53.054688 14.335938 L 53.277344 14.585938 L 53.476562 14.855469 L 53.652344 15.140625 L 53.804688 15.441406 L 53.9375 15.757812 L 54.042969 16.09375 L 54.125 16.441406 L 54.183594 16.804688 L 54.21875 17.1875 L 54.230469 17.585938 L 54.21875 17.898438 L 54.191406 18.214844 L 54.144531 18.535156 L 54.082031 18.851562 L 54 19.171875 L 53.894531 19.492188 L 53.777344 19.8125 L 53.636719 20.136719 L 53.480469 20.460938 L 53.304688 20.785156 L 53.117188 21.113281 L 52.914062 21.445312 L 52.695312 21.78125 L 52.464844 22.125 L 52.21875 22.472656 L 51.953125 22.824219 L 51.675781 23.183594 L 51.382812 23.542969 L 51.078125 23.910156 L 50.753906 24.285156 L 50.421875 24.664062 L 50.082031 25.054688 L 49.726562 25.453125 L 49.359375 25.859375 L 48.980469 26.277344 L 48.589844 26.707031 L 48.183594 27.140625 L 47.769531 27.589844 L 47.34375 28.042969 L 46.90625 28.507812 L 47.164062 28.492188 L 47.296875 28.480469 L 47.5625 28.464844 L 47.691406 28.457031 L 47.828125 28.453125 L 47.960938 28.445312 L 48.09375 28.441406 L 48.367188 28.425781 L 48.507812 28.417969 L 48.78125 28.402344 L 48.917969 28.398438 L 49.316406 28.386719 L 49.449219 28.386719 L 49.578125 28.382812 L 55.03125 28.382812 L 55.03125 29.382812 Z M 45.230469 29.382812 "/>
<path fill-rule="nonzero" fill="rgb(10.196078%, 10.196078%, 10.196078%)" fill-opacity="1" d="M 61.855469 29.683594 L 61.601562 29.679688 L 61.355469 29.671875 L 61.117188 29.65625 L 60.886719 29.632812 L 60.660156 29.601562 L 60.441406 29.566406 L 60.230469 29.523438 L 60.023438 29.476562 L 59.824219 29.421875 L 59.628906 29.359375 L 59.445312 29.292969 L 59.269531 29.222656 L 59.097656 29.148438 L 58.929688 29.070312 L 58.765625 28.992188 L 58.609375 28.90625 L 58.457031 28.820312 L 58.308594 28.726562 L 58.167969 28.632812 L 58.03125 28.535156 L 57.894531 28.433594 L 57.765625 28.335938 L 57.636719 28.234375 L 57.511719 28.132812 L 57.390625 28.035156 L 57.273438 27.933594 L 57.15625 27.835938 L 56.9375 27.632812 L 56.828125 27.535156 L 57.453125 26.757812 L 57.601562 26.902344 L 57.753906 27.046875 L 57.914062 27.1875 L 58.078125 27.324219 L 58.25 27.460938 L 58.421875 27.59375 L 58.605469 27.726562 L 58.789062 27.855469 L 58.980469 27.984375 L 59.179688 28.109375 L 59.390625 28.222656 L 59.613281 28.324219 L 59.847656 28.414062 L 60.09375 28.492188 L 60.355469 28.558594 L 60.625 28.613281 L 60.910156 28.65625 L 61.203125 28.6875 L 61.511719 28.703125 L 61.828125 28.710938 L 62.042969 28.703125 L 62.253906 28.6875 L 62.457031 28.664062 L 62.660156 28.625 L 62.859375 28.578125 L 63.054688 28.519531 L 63.25 28.453125 L 63.4375 28.375 L 63.621094 28.285156 L 63.804688 28.183594 L 63.980469 28.070312 L 64.148438 27.949219 L 64.3125 27.816406 L 64.46875 27.675781 L 64.617188 27.527344 L 64.757812 27.371094 L 64.894531 27.207031 L 65.019531 27.03125 L 65.140625 26.851562 L 65.253906 26.660156 L 65.359375 26.460938 L 65.453125 26.257812 L 65.535156 26.046875 L 65.605469 25.832031 L 65.667969 25.609375 L 65.714844 25.382812 L 65.753906 25.148438 L 65.78125 24.90625 L 65.800781 24.660156 L 65.804688 24.410156 L 65.792969 24.03125 L 65.761719 23.671875 L 65.707031 23.328125 L 65.632812 23 L 65.535156 22.691406 L 65.417969 22.398438 L 65.277344 22.117188 L 65.117188 21.859375 L 64.933594 21.613281 L 64.730469 21.382812 L 64.511719 21.175781 L 64.28125 20.988281 L 64.035156 20.824219 L 63.773438 20.679688 L 63.5 20.558594 L 63.207031 20.460938 L 62.902344 20.382812 L 62.585938 20.328125 L 62.253906 20.296875 L 61.90625 20.285156 L 61.722656 20.289062 L 61.542969 20.296875 L 61.371094 20.3125 L 61.203125 20.332031 L 61.042969 20.359375 L 60.882812 20.394531 L 60.730469 20.429688 L 60.585938 20.476562 L 60.441406 20.527344 L 60.304688 20.585938 L 60.171875 20.640625 L 60.042969 20.703125 L 59.90625 20.769531 L 59.773438 20.839844 L 59.636719 20.914062 L 59.496094 20.996094 L 59.359375 21.078125 L 59.214844 21.167969 L 59.074219 21.261719 L 58.929688 21.359375 L 58.15625 20.882812 L 58.730469 13.410156 L 66.105469 13.410156 L 66.105469 14.382812 L 59.730469 14.382812 L 59.230469 20.160156 L 59.355469 20.085938 L 59.480469 20.015625 L 59.738281 19.882812 L 59.867188 19.820312 L 59.996094 19.761719 L 60.128906 19.707031 L 60.394531 19.605469 L 60.667969 19.511719 L 60.808594 19.46875 L 60.953125 19.433594 L 61.101562 19.398438 L 61.253906 19.371094 L 61.410156 19.347656 L 61.574219 19.332031 L 61.738281 19.320312 L 61.90625 19.3125 L 62.078125 19.308594 L 62.347656 19.316406 L 62.609375 19.332031 L 62.867188 19.359375 L 63.121094 19.398438 L 63.367188 19.445312 L 63.609375 19.507812 L 63.847656 19.578125 L 64.078125 19.660156 L 64.308594 19.753906 L 64.53125 19.859375 L 64.75 19.96875 L 64.960938 20.09375 L 65.160156 20.230469 L 65.351562 20.375 L 65.535156 20.535156 L 65.707031 20.707031 L 65.871094 20.886719 L 66.023438 21.082031 L 66.167969 21.289062 L 66.304688 21.507812 L 66.429688 21.734375 L 66.539062 21.976562 L 66.636719 22.226562 L 66.71875 22.492188 L 66.792969 22.773438 L 66.851562 23.0625 L 66.894531 23.367188 L 66.929688 23.6875 L 66.949219 24.015625 L 66.953125 24.359375 L 66.945312 24.695312 L 66.925781 25.019531 L 66.886719 25.335938 L 66.835938 25.640625 L 66.765625 25.933594 L 66.683594 26.21875 L 66.585938 26.496094 L 66.472656 26.757812 L 66.347656 27.015625 L 66.203125 27.257812 L 66.054688 27.488281 L 65.894531 27.707031 L 65.730469 27.914062 L 65.550781 28.113281 L 65.367188 28.296875 L 65.171875 28.472656 L 64.96875 28.636719 L 64.757812 28.789062 L 64.535156 28.929688 L 64.304688 29.058594 L 64.074219 29.179688 L 63.839844 29.285156 L 63.601562 29.378906 L 63.359375 29.460938 L 63.117188 29.527344 L 62.871094 29.585938 L 62.621094 29.628906 L 62.367188 29.660156 L 62.113281 29.679688 Z M 61.855469 29.683594 "/>
<path fill-rule="nonzero" fill="rgb(10.196078%, 10.196078%, 10.196078%)" fill-opacity="1" d="M 74.128906 29.683594 L 73.683594 29.664062 L 73.261719 29.597656 L 72.855469 29.488281 L 72.472656 29.335938 L 72.109375 29.140625 L 71.769531 28.902344 L 71.445312 28.617188 L 71.144531 28.292969 L 70.863281 27.921875 L 70.605469 27.507812 L 70.367188 27.054688 L 70.15625 26.566406 L 69.96875 26.039062 L 69.804688 25.476562 L 69.667969 24.878906 L 69.554688 24.242188 L 69.46875 23.570312 L 69.40625 22.863281 L 69.367188 22.117188 L 69.355469 21.335938 L 69.367188 20.558594 L 69.40625 19.820312 L 69.46875 19.117188 L 69.554688 18.449219 L 69.667969 17.820312 L 69.804688 17.230469 L 69.96875 16.675781 L 70.15625 16.160156 L 70.367188 15.679688 L 70.605469 15.234375 L 70.863281 14.832031 L 71.144531 14.46875 L 71.445312 14.152344 L 71.769531 13.875 L 72.109375 13.640625 L 72.472656 13.449219 L 72.855469 13.300781 L 73.261719 13.195312 L 73.683594 13.128906 L 74.128906 13.109375 L 74.578125 13.128906 L 75.007812 13.195312 L 75.414062 13.300781 L 75.796875 13.449219 L 76.160156 13.640625 L 76.503906 13.875 L 76.824219 14.152344 L 77.121094 14.46875 L 77.398438 14.832031 L 77.65625 15.234375 L 77.890625 15.679688 L 78.105469 16.160156 L 78.292969 16.675781 L 78.453125 17.230469 L 78.59375 17.820312 L 78.703125 18.449219 L 78.792969 19.117188 L 78.855469 19.820312 L 78.890625 20.558594 L 78.90625 21.335938 L 78.890625 22.117188 L 78.855469 22.863281 L 78.792969 23.570312 L 78.703125 24.242188 L 78.59375 24.878906 L 78.453125 25.476562 L 78.292969 26.039062 L 78.105469 26.566406 L 77.890625 27.054688 L 77.65625 27.507812 L 77.398438 27.921875 L 77.121094 28.292969 L 76.824219 28.617188 L 76.503906 28.902344 L 76.160156 29.140625 L 75.796875 29.335938 L 75.414062 29.488281 L 75.007812 29.597656 L 74.578125 29.664062 Z M 74.128906 28.734375 L 74.457031 28.714844 L 74.769531 28.660156 L 75.070312 28.566406 L 75.355469 28.433594 L 75.628906 28.265625 L 75.886719 28.058594 L 76.132812 27.816406 L 76.363281 27.535156 L 76.578125 27.214844 L 76.78125 26.859375 L 76.96875 26.46875 L 77.140625 26.039062 L 77.289062 25.574219 L 77.417969 25.074219 L 77.53125 24.539062 L 77.621094 23.96875 L 77.6875 23.363281 L 77.738281 22.722656 L 77.769531 22.046875 L 77.78125 21.335938 L 77.769531 20.625 L 77.738281 19.949219 L 77.6875 19.3125 L 77.621094 18.710938 L 77.53125 18.148438 L 77.417969 17.621094 L 77.289062 17.132812 L 77.140625 16.679688 L 76.96875 16.261719 L 76.78125 15.882812 L 76.578125 15.539062 L 76.363281 15.226562 L 76.132812 14.953125 L 75.886719 14.714844 L 75.628906 14.515625 L 75.355469 14.351562 L 75.070312 14.222656 L 74.769531 14.132812 L 74.457031 14.078125 L 74.128906 14.058594 L 73.804688 14.078125 L 73.496094 14.132812 L 73.199219 14.222656 L 72.914062 14.351562 L 72.640625 14.515625 L 72.382812 14.714844 L 72.136719 14.953125 L 71.90625 15.226562 L 71.6875 15.539062 L 71.480469 15.882812 L 71.289062 16.261719 L 71.121094 16.679688 L 70.96875 17.132812 L 70.839844 17.621094 L 70.730469 18.148438 L 70.640625 18.710938 L 70.570312 19.3125 L 70.519531 19.949219 L 70.488281 20.625 L 70.480469 21.335938 L 70.488281 22.046875 L 70.519531 22.722656 L 70.570312 23.363281 L 70.640625 23.96875 L 70.730469 24.539062 L 70.839844 25.074219 L 70.96875 25.574219 L 71.121094 26.039062 L 71.289062 26.46875 L 71.480469 26.859375 L 71.6875 27.214844 L 71.90625 27.535156 L 72.136719 27.816406 L 72.382812 28.058594 L 72.640625 28.265625 L 72.914062 28.433594 L 73.199219 28.566406 L 73.496094 28.660156 L 73.804688 28.714844 Z M 74.128906 28.734375 "/>
<path fill-rule="nonzero" fill="rgb(10.196078%, 10.196078%, 10.196078%)" fill-opacity="1" d="M 165.65625 410.320312 L 165.402344 410.316406 L 165.15625 410.308594 L 164.917969 410.292969 L 164.6875 410.269531 L 164.460938 410.238281 L 164.242188 410.203125 L 164.027344 410.160156 L 163.824219 410.113281 L 163.621094 410.058594 L 163.429688 409.996094 L 163.246094 409.929688 L 163.070312 409.859375 L 162.898438 409.785156 L 162.730469 409.707031 L 162.566406 409.625 L 162.410156 409.542969 L 162.257812 409.453125 L 162.109375 409.363281 L 161.96875 409.269531 L 161.828125 409.171875 L 161.695312 409.070312 L 161.566406 408.96875 L 161.4375 408.871094 L 161.3125 408.769531 L 161.191406 408.671875 L 160.957031 408.46875 L 160.84375 408.371094 L 160.734375 408.269531 L 160.628906 408.171875 L 161.253906 407.394531 L 161.402344 407.539062 L 161.554688 407.683594 L 161.714844 407.820312 L 161.878906 407.960938 L 162.046875 408.09375 L 162.222656 408.230469 L 162.402344 408.363281 L 162.589844 408.492188 L 162.78125 408.621094 L 162.980469 408.746094 L 163.191406 408.859375 L 163.414062 408.960938 L 163.648438 409.050781 L 163.894531 409.128906 L 164.15625 409.195312 L 164.425781 409.25 L 164.707031 409.292969 L 165.003906 409.320312 L 165.308594 409.339844 L 165.628906 409.34375 L 165.84375 409.339844 L 166.050781 409.324219 L 166.257812 409.296875 L 166.460938 409.261719 L 166.660156 409.214844 L 166.855469 409.15625 L 167.046875 409.089844 L 167.238281 409.007812 L 167.421875 408.921875 L 167.605469 408.820312 L 167.78125 408.707031 L 167.949219 408.582031 L 168.113281 408.453125 L 168.269531 408.3125 L 168.417969 408.164062 L 168.558594 408.007812 L 168.691406 407.84375 L 168.820312 407.667969 L 168.941406 407.488281 L 169.054688 407.296875 L 169.160156 407.097656 L 169.253906 406.894531 L 169.335938 406.683594 L 169.40625 406.46875 L 169.46875 406.246094 L 169.515625 406.019531 L 169.554688 405.785156 L 169.582031 405.542969 L 169.597656 405.296875 L 169.605469 405.046875 L 169.59375 404.667969 L 169.5625 404.308594 L 169.507812 403.964844 L 169.433594 403.636719 L 169.335938 403.328125 L 169.21875 403.03125 L 169.078125 402.753906 L 168.917969 402.492188 L 168.734375 402.25 L 168.53125 402.019531 L 168.3125 401.8125 L 168.082031 401.625 L 167.835938 401.460938 L 167.574219 401.316406 L 167.296875 401.195312 L 167.007812 401.097656 L 166.703125 401.019531 L 166.386719 400.964844 L 166.050781 400.933594 L 165.703125 400.921875 L 165.523438 400.921875 L 165.34375 400.933594 L 165.171875 400.949219 L 165.003906 400.96875 L 164.84375 400.996094 L 164.683594 401.027344 L 164.53125 401.066406 L 164.382812 401.113281 L 164.242188 401.164062 L 164.105469 401.21875 L 163.972656 401.277344 L 163.839844 401.339844 L 163.707031 401.40625 L 163.574219 401.476562 L 163.4375 401.550781 L 163.15625 401.714844 L 163.015625 401.804688 L 162.875 401.898438 L 162.730469 401.996094 L 161.953125 401.519531 L 162.53125 394.046875 L 169.90625 394.046875 L 169.90625 395.019531 L 163.53125 395.019531 L 163.03125 400.796875 L 163.15625 400.722656 L 163.28125 400.652344 L 163.539062 400.519531 L 163.667969 400.457031 L 163.796875 400.398438 L 163.929688 400.34375 L 164.195312 400.242188 L 164.328125 400.195312 L 164.464844 400.148438 L 164.605469 400.105469 L 164.753906 400.066406 L 164.902344 400.035156 L 165.054688 400.007812 L 165.210938 399.984375 L 165.371094 399.96875 L 165.539062 399.957031 L 165.707031 399.949219 L 165.878906 399.945312 L 166.148438 399.949219 L 166.410156 399.96875 L 166.667969 399.996094 L 166.917969 400.035156 L 167.167969 400.082031 L 167.410156 400.144531 L 167.648438 400.214844 L 167.878906 400.296875 L 168.105469 400.390625 L 168.328125 400.496094 L 168.550781 400.605469 L 168.761719 400.730469 L 168.960938 400.863281 L 169.152344 401.011719 L 169.335938 401.171875 L 169.507812 401.339844 L 169.671875 401.523438 L 169.824219 401.71875 L 169.96875 401.925781 L 170.105469 402.144531 L 170.226562 402.371094 L 170.339844 402.613281 L 170.4375 402.863281 L 170.519531 403.128906 L 170.59375 403.40625 L 170.648438 403.699219 L 170.695312 404.003906 L 170.726562 404.320312 L 170.746094 404.652344 L 170.753906 404.996094 L 170.746094 405.332031 L 170.722656 405.65625 L 170.6875 405.96875 L 170.632812 406.277344 L 170.566406 406.570312 L 170.484375 406.855469 L 170.386719 407.128906 L 170.273438 407.394531 L 170.148438 407.652344 L 170.003906 407.894531 L 169.855469 408.125 L 169.695312 408.34375 L 169.527344 408.550781 L 169.351562 408.746094 L 169.167969 408.933594 L 168.972656 409.109375 L 168.769531 409.269531 L 168.554688 409.421875 L 168.335938 409.566406 L 168.105469 409.695312 L 167.871094 409.8125 L 167.636719 409.921875 L 167.402344 410.015625 L 167.160156 410.09375 L 166.917969 410.164062 L 166.671875 410.21875 L 166.421875 410.265625 L 166.167969 410.296875 L 165.914062 410.3125 Z M 165.65625 410.320312 "/>
<path fill-rule="nonzero" fill="rgb(10.196078%, 10.196078%, 10.196078%)" fill-opacity="1" d="M 230.570312 410.019531 L 230.570312 409.046875 L 234.320312 409.046875 L 234.320312 395.796875 L 231.46875 395.796875 L 231.46875 395.046875 L 231.664062 395.011719 L 231.851562 394.972656 L 232.21875 394.894531 L 232.394531 394.851562 L 232.738281 394.765625 L 232.902344 394.71875 L 233.0625 394.667969 L 233.21875 394.621094 L 233.371094 394.570312 L 233.519531 394.519531 L 233.664062 394.464844 L 233.804688 394.410156 L 234.070312 394.292969 L 234.195312 394.234375 L 234.316406 394.171875 L 234.433594 394.109375 L 234.542969 394.046875 L 235.445312 394.046875 L 235.445312 409.046875 L 238.917969 409.046875 L 238.917969 410.019531 Z M 230.570312 410.019531 "/>
<path fill-rule="nonzero" fill="rgb(10.196078%, 10.196078%, 10.196078%)" fill-opacity="1" d="M 246.417969 410.320312 L 245.976562 410.300781 L 245.550781 410.234375 L 245.148438 410.125 L 244.761719 409.972656 L 244.402344 409.777344 L 244.058594 409.539062 L 243.738281 409.253906 L 243.433594 408.929688 L 243.15625 408.558594 L 242.894531 408.144531 L 242.65625 407.691406 L 242.445312 407.203125 L 242.257812 406.675781 L 242.09375 406.113281 L 241.957031 405.515625 L 241.84375 404.878906 L 241.757812 404.207031 L 241.695312 403.496094 L 241.65625 402.753906 L 241.644531 401.96875 L 241.65625 401.195312 L 241.695312 400.453125 L 241.757812 399.753906 L 241.84375 399.085938 L 241.957031 398.457031 L 242.09375 397.867188 L 242.257812 397.3125 L 242.445312 396.792969 L 242.65625 396.3125 L 242.894531 395.871094 L 243.15625 395.46875 L 243.433594 395.105469 L 243.738281 394.785156 L 244.058594 394.511719 L 244.402344 394.277344 L 244.761719 394.085938 L 245.148438 393.9375 L 245.550781 393.832031 L 245.976562 393.765625 L 246.417969 393.746094 L 246.867188 393.765625 L 247.296875 393.832031 L 247.703125 393.9375 L 248.085938 394.085938 L 248.449219 394.277344 L 248.792969 394.511719 L 249.113281 394.785156 L 249.410156 395.105469 L 249.6875 395.46875 L 249.945312 395.871094 L 250.183594 396.3125 L 250.394531 396.792969 L 250.582031 397.3125 L 250.746094 397.867188 L 250.882812 398.457031 L 250.996094 399.085938 L 251.082031 399.753906 L 251.144531 400.453125 L 251.183594 401.195312 L 251.195312 401.96875 L 251.183594 402.753906 L 251.144531 403.496094 L 251.082031 404.207031 L 250.996094 404.878906 L 250.882812 405.515625 L 250.746094 406.113281 L 250.582031 406.675781 L 250.394531 407.203125 L 250.183594 407.691406 L 249.945312 408.144531 L 249.6875 408.558594 L 249.410156 408.929688 L 249.113281 409.253906 L 248.792969 409.539062 L 248.449219 409.777344 L 248.085938 409.972656 L 247.703125 410.125 L 247.296875 410.234375 L 246.867188 410.300781 Z M 246.417969 409.371094 L 246.746094 409.351562 L 247.0625 409.296875 L 247.363281 409.203125 L 247.648438 409.070312 L 247.917969 408.902344 L 248.175781 408.695312 L 248.421875 408.453125 L 248.652344 408.171875 L 248.867188 407.851562 L 249.070312 407.496094 L 249.257812 407.101562 L 249.429688 406.675781 L 249.578125 406.210938 L 249.710938 405.710938 L 249.820312 405.175781 L 249.910156 404.605469 L 249.980469 404 L 250.03125 403.359375 L 250.058594 402.683594 L 250.070312 401.96875 L 250.058594 401.257812 L 250.03125 400.585938 L 249.980469 399.945312 L 249.910156 399.347656 L 249.820312 398.78125 L 249.710938 398.257812 L 249.578125 397.765625 L 249.429688 397.316406 L 249.257812 396.898438 L 249.070312 396.519531 L 248.867188 396.175781 L 248.652344 395.863281 L 248.421875 395.589844 L 248.175781 395.351562 L 247.917969 395.152344 L 247.648438 394.988281 L 247.363281 394.859375 L 247.0625 394.769531 L 246.746094 394.714844 L 246.417969 394.695312 L 246.097656 394.714844 L 245.785156 394.769531 L 245.488281 394.859375 L 245.203125 394.988281 L 244.933594 395.152344 L 244.671875 395.351562 L 244.429688 395.589844 L 244.195312 395.863281 L 243.976562 396.175781 L 243.769531 396.519531 L 243.578125 396.898438 L 243.410156 397.316406 L 243.257812 397.765625 L 243.128906 398.257812 L 243.019531 398.78125 L 242.929688 399.347656 L 242.859375 399.945312 L 242.808594 400.585938 L 242.78125 401.257812 L 242.769531 401.96875 L 242.78125 402.683594 L 242.808594 403.359375 L 242.859375 404 L 242.929688 404.605469 L 243.019531 405.175781 L 243.128906 405.710938 L 243.257812 406.210938 L 243.410156 406.675781 L 243.578125 407.101562 L 243.769531 407.496094 L 243.976562 407.851562 L 244.195312 408.171875 L 244.429688 408.453125 L 244.671875 408.695312 L 244.933594 408.902344 L 245.203125 409.070312 L 245.488281 409.203125 L 245.785156 409.296875 L 246.097656 409.351562 Z M 246.417969 409.371094 "/>
<path fill-rule="nonzero" fill="rgb(10.196078%, 10.196078%, 10.196078%)" fill-opacity="1" d="M 305.046875 410.019531 L 305.046875 409.046875 L 308.796875 409.046875 L 308.796875 395.796875 L 305.945312 395.796875 L 305.945312 395.046875 L 306.140625 395.011719 L 306.515625 394.933594 L 306.695312 394.894531 L 307.046875 394.808594 L 307.214844 394.765625 L 307.378906 394.71875 L 307.539062 394.667969 L 307.695312 394.621094 L 307.851562 394.570312 L 308 394.519531 L 308.28125 394.410156 L 308.546875 394.292969 L 308.671875 394.234375 L 308.792969 394.171875 L 308.910156 394.109375 L 309.023438 394.046875 L 309.921875 394.046875 L 309.921875 409.046875 L 313.398438 409.046875 L 313.398438 410.019531 Z M 305.046875 410.019531 "/>
<path fill-rule="nonzero" fill="rgb(10.196078%, 10.196078%, 10.196078%)" fill-opacity="1" d="M 320.597656 410.320312 L 320.34375 410.316406 L 320.101562 410.308594 L 319.859375 410.292969 L 319.628906 410.269531 L 319.402344 410.238281 L 319.183594 410.203125 L 318.972656 410.160156 L 318.765625 410.113281 L 318.566406 410.058594 L 318.371094 409.996094 L 318.191406 409.929688 L 318.011719 409.859375 L 317.839844 409.785156 L 317.671875 409.707031 L 317.507812 409.625 L 317.351562 409.542969 L 317.199219 409.453125 L 317.050781 409.363281 L 316.910156 409.269531 L 316.773438 409.171875 L 316.636719 409.070312 L 316.507812 408.96875 L 316.378906 408.871094 L 316.257812 408.769531 L 316.132812 408.671875 L 316.015625 408.570312 L 315.902344 408.46875 L 315.789062 408.371094 L 315.679688 408.269531 L 315.570312 408.171875 L 316.195312 407.394531 L 316.34375 407.539062 L 316.5 407.683594 L 316.65625 407.820312 L 316.820312 407.960938 L 316.992188 408.09375 L 317.167969 408.230469 L 317.347656 408.363281 L 317.53125 408.492188 L 317.726562 408.621094 L 317.921875 408.746094 L 318.132812 408.859375 L 318.355469 408.960938 L 318.589844 409.050781 L 318.839844 409.128906 L 319.097656 409.195312 L 319.367188 409.25 L 319.652344 409.292969 L 319.945312 409.320312 L 320.253906 409.339844 L 320.570312 409.34375 L 320.785156 409.339844 L 320.996094 409.324219 L 321.203125 409.296875 L 321.402344 409.261719 L 321.601562 409.214844 L 321.800781 409.15625 L 321.992188 409.089844 L 322.179688 409.007812 L 322.367188 408.921875 L 322.546875 408.820312 L 322.722656 408.707031 L 322.894531 408.582031 L 323.054688 408.453125 L 323.210938 408.3125 L 323.359375 408.164062 L 323.5 408.007812 L 323.636719 407.84375 L 323.761719 407.667969 L 323.882812 407.488281 L 323.996094 407.296875 L 324.101562 407.097656 L 324.195312 406.894531 L 324.277344 406.683594 L 324.347656 406.46875 L 324.410156 406.246094 L 324.460938 406.019531 L 324.496094 405.785156 L 324.523438 405.542969 L 324.542969 405.296875 L 324.546875 405.046875 L 324.535156 404.667969 L 324.503906 404.308594 L 324.449219 403.964844 L 324.375 403.636719 L 324.277344 403.328125 L 324.160156 403.03125 L 324.019531 402.753906 L 323.859375 402.492188 L 323.675781 402.25 L 323.472656 402.019531 L 323.253906 401.8125 L 323.023438 401.625 L 322.777344 401.460938 L 322.515625 401.316406 L 322.242188 401.195312 L 321.949219 401.097656 L 321.648438 401.019531 L 321.328125 400.964844 L 320.996094 400.933594 L 320.648438 400.921875 L 320.464844 400.921875 L 320.285156 400.933594 L 320.113281 400.949219 L 319.945312 400.96875 L 319.785156 400.996094 L 319.628906 401.027344 L 319.472656 401.066406 L 319.328125 401.113281 L 319.183594 401.164062 L 319.046875 401.21875 L 318.917969 401.277344 L 318.785156 401.339844 L 318.648438 401.40625 L 318.515625 401.476562 L 318.378906 401.550781 L 318.238281 401.632812 L 318.101562 401.714844 L 317.960938 401.804688 L 317.816406 401.898438 L 317.671875 401.996094 L 316.898438 401.519531 L 317.472656 394.046875 L 324.847656 394.046875 L 324.847656 395.019531 L 318.472656 395.019531 L 317.972656 400.796875 L 318.097656 400.722656 L 318.222656 400.652344 L 318.480469 400.519531 L 318.609375 400.457031 L 318.738281 400.398438 L 318.871094 400.34375 L 319.136719 400.242188 L 319.410156 400.148438 L 319.550781 400.105469 L 319.695312 400.066406 L 319.84375 400.035156 L 319.996094 400.007812 L 320.152344 399.984375 L 320.316406 399.96875 L 320.480469 399.957031 L 320.648438 399.949219 L 320.820312 399.945312 L 321.089844 399.949219 L 321.351562 399.96875 L 321.609375 399.996094 L 321.863281 400.035156 L 322.109375 400.082031 L 322.351562 400.144531 L 322.589844 400.214844 L 322.820312 400.296875 L 323.050781 400.390625 L 323.273438 400.496094 L 323.492188 400.605469 L 323.703125 400.730469 L 323.90625 400.863281 L 324.097656 401.011719 L 324.277344 401.171875 L 324.449219 401.339844 L 324.613281 401.523438 L 324.769531 401.71875 L 324.914062 401.925781 L 325.046875 402.144531 L 325.171875 402.371094 L 325.28125 402.613281 L 325.378906 402.863281 L 325.464844 403.128906 L 325.535156 403.40625 L 325.59375 403.699219 L 325.636719 404.003906 L 325.671875 404.320312 L 325.691406 404.652344 L 325.695312 404.996094 L 325.691406 405.332031 L 325.667969 405.65625 L 325.628906 405.96875 L 325.578125 406.277344 L 325.507812 406.570312 L 325.425781 406.855469 L 325.328125 407.128906 L 325.21875 407.394531 L 325.089844 407.652344 L 324.945312 407.894531 L 324.796875 408.125 L 324.640625 408.34375 L 324.472656 408.550781 L 324.296875 408.746094 L 324.109375 408.933594 L 323.914062 409.109375 L 323.710938 409.269531 L 323.5 409.421875 L 323.277344 409.566406 L 323.046875 409.695312 L 322.816406 409.8125 L 322.582031 409.921875 L 322.34375 410.015625 L 322.101562 410.09375 L 321.859375 410.164062 L 321.613281 410.21875 L 321.363281 410.265625 L 321.109375 410.296875 L 320.855469 410.3125 Z M 320.597656 410.320312 "/>
<path fill-rule="nonzero" fill="rgb(10.196078%, 10.196078%, 10.196078%)" fill-opacity="1" d="M 378.449219 410.019531 L 378.449219 409.320312 L 378.964844 408.792969 L 379.464844 408.28125 L 379.945312 407.78125 L 380.410156 407.296875 L 380.855469 406.828125 L 381.285156 406.371094 L 381.695312 405.929688 L 382.089844 405.503906 L 382.464844 405.09375 L 382.824219 404.695312 L 383.164062 404.304688 L 383.488281 403.921875 L 383.796875 403.550781 L 384.085938 403.183594 L 384.355469 402.828125 L 384.609375 402.480469 L 384.847656 402.140625 L 385.066406 401.808594 L 385.265625 401.484375 L 385.449219 401.171875 L 385.617188 400.863281 L 385.765625 400.558594 L 385.894531 400.257812 L 386.007812 399.957031 L 386.105469 399.664062 L 386.183594 399.375 L 386.246094 399.085938 L 386.289062 398.800781 L 386.316406 398.523438 L 386.324219 398.246094 L 386.316406 397.949219 L 386.289062 397.664062 L 386.25 397.386719 L 386.1875 397.121094 L 386.113281 396.863281 L 386.019531 396.617188 L 385.90625 396.378906 L 385.78125 396.148438 L 385.636719 395.929688 L 385.476562 395.71875 L 385.300781 395.527344 L 385.105469 395.351562 L 384.890625 395.199219 L 384.660156 395.066406 L 384.40625 394.953125 L 384.132812 394.859375 L 383.84375 394.789062 L 383.53125 394.738281 L 383.199219 394.707031 L 382.851562 394.695312 L 382.636719 394.703125 L 382.421875 394.71875 L 382.214844 394.75 L 382.003906 394.792969 L 381.800781 394.84375 L 381.59375 394.910156 L 381.394531 394.988281 L 381.195312 395.078125 L 380.996094 395.183594 L 380.800781 395.296875 L 380.613281 395.417969 L 380.429688 395.546875 L 380.25 395.683594 L 380.074219 395.824219 L 379.90625 395.96875 L 379.578125 396.28125 L 379.421875 396.449219 L 379.273438 396.617188 L 379.125 396.796875 L 378.398438 396.09375 L 378.582031 395.898438 L 378.769531 395.707031 L 378.957031 395.523438 L 379.152344 395.347656 L 379.351562 395.175781 L 379.550781 395.011719 L 379.757812 394.855469 L 379.96875 394.703125 L 380.183594 394.558594 L 380.398438 394.421875 L 380.625 394.292969 L 380.855469 394.175781 L 381.089844 394.078125 L 381.335938 393.988281 L 381.585938 393.914062 L 381.84375 393.855469 L 382.109375 393.804688 L 382.382812 393.773438 L 382.664062 393.753906 L 382.949219 393.746094 L 383.371094 393.757812 L 383.769531 393.792969 L 384.152344 393.855469 L 384.515625 393.941406 L 384.855469 394.050781 L 385.179688 394.1875 L 385.480469 394.347656 L 385.765625 394.53125 L 386.03125 394.738281 L 386.273438 394.96875 L 386.496094 395.222656 L 386.699219 395.492188 L 386.875 395.777344 L 387.027344 396.078125 L 387.15625 396.394531 L 387.261719 396.730469 L 387.34375 397.078125 L 387.402344 397.441406 L 387.4375 397.824219 L 387.449219 398.21875 L 387.441406 398.535156 L 387.414062 398.851562 L 387.367188 399.171875 L 387.300781 399.488281 L 387.21875 399.808594 L 387.117188 400.128906 L 386.996094 400.449219 L 386.859375 400.773438 L 386.699219 401.097656 L 386.523438 401.421875 L 386.335938 401.75 L 386.132812 402.082031 L 385.917969 402.417969 L 385.683594 402.761719 L 385.4375 403.109375 L 385.175781 403.460938 L 384.898438 403.816406 L 384.605469 404.179688 L 384.296875 404.546875 L 383.976562 404.921875 L 383.644531 405.300781 L 383.300781 405.691406 L 382.945312 406.089844 L 382.578125 406.496094 L 382.199219 406.914062 L 381.808594 407.339844 L 381.40625 407.777344 L 380.992188 408.226562 L 380.5625 408.679688 L 380.125 409.144531 L 380.253906 409.136719 L 380.386719 409.125 L 380.515625 409.117188 L 380.914062 409.09375 L 381.046875 409.089844 L 381.179688 409.082031 L 381.316406 409.074219 L 381.449219 409.070312 L 381.589844 409.0625 L 381.726562 409.050781 L 381.863281 409.046875 L 382.136719 409.03125 L 382.273438 409.027344 L 382.40625 409.023438 L 382.539062 409.023438 L 382.667969 409.019531 L 388.25 409.019531 L 388.25 410.019531 Z M 378.449219 410.019531 "/>
<path fill-rule="nonzero" fill="rgb(10.196078%, 10.196078%, 10.196078%)" fill-opacity="1" d="M 395.375 410.320312 L 394.929688 410.300781 L 394.503906 410.234375 L 394.101562 410.125 L 393.71875 409.972656 L 393.355469 409.777344 L 393.015625 409.539062 L 392.691406 409.253906 L 392.390625 408.929688 L 392.109375 408.558594 L 391.851562 408.144531 L 391.613281 407.691406 L 391.398438 407.203125 L 391.210938 406.675781 L 391.050781 406.113281 L 390.914062 405.515625 L 390.800781 404.878906 L 390.710938 404.207031 L 390.648438 403.496094 L 390.613281 402.753906 L 390.601562 401.96875 L 390.613281 401.195312 L 390.648438 400.453125 L 390.710938 399.753906 L 390.800781 399.085938 L 390.914062 398.457031 L 391.050781 397.867188 L 391.210938 397.3125 L 391.398438 396.792969 L 391.613281 396.3125 L 391.851562 395.871094 L 392.109375 395.46875 L 392.390625 395.105469 L 392.691406 394.785156 L 393.015625 394.511719 L 393.355469 394.277344 L 393.71875 394.085938 L 394.101562 393.9375 L 394.503906 393.832031 L 394.929688 393.765625 L 395.375 393.746094 L 395.824219 393.765625 L 396.25 393.832031 L 396.65625 393.9375 L 397.042969 394.085938 L 397.40625 394.277344 L 397.746094 394.511719 L 398.066406 394.785156 L 398.367188 395.105469 L 398.644531 395.46875 L 398.898438 395.871094 L 399.136719 396.3125 L 399.351562 396.792969 L 399.539062 397.3125 L 399.699219 397.867188 L 399.835938 398.457031 L 399.949219 399.085938 L 400.039062 399.753906 L 400.101562 400.453125 L 400.136719 401.195312 L 400.148438 401.96875 L 400.136719 402.753906 L 400.101562 403.496094 L 400.039062 404.207031 L 399.949219 404.878906 L 399.835938 405.515625 L 399.699219 406.113281 L 399.539062 406.675781 L 399.351562 407.203125 L 399.136719 407.691406 L 398.898438 408.144531 L 398.644531 408.558594 L 398.367188 408.929688 L 398.066406 409.253906 L 397.746094 409.539062 L 397.40625 409.777344 L 397.042969 409.972656 L 396.65625 410.125 L 396.25 410.234375 L 395.824219 410.300781 Z M 395.375 409.371094 L 395.703125 409.351562 L 396.015625 409.296875 L 396.316406 409.203125 L 396.601562 409.070312 L 396.875 408.902344 L 397.132812 408.695312 L 397.375 408.453125 L 397.605469 408.171875 L 397.824219 407.851562 L 398.023438 407.496094 L 398.214844 407.101562 L 398.382812 406.675781 L 398.535156 406.210938 L 398.664062 405.710938 L 398.773438 405.175781 L 398.863281 404.605469 L 398.933594 404 L 398.984375 403.359375 L 399.015625 402.683594 L 399.023438 401.96875 L 399.015625 401.257812 L 398.984375 400.585938 L 398.933594 399.945312 L 398.863281 399.347656 L 398.773438 398.78125 L 398.664062 398.257812 L 398.535156 397.765625 L 398.382812 397.316406 L 398.214844 396.898438 L 398.023438 396.519531 L 397.824219 396.175781 L 397.605469 395.863281 L 397.375 395.589844 L 397.132812 395.351562 L 396.875 395.152344 L 396.601562 394.988281 L 396.316406 394.859375 L 396.015625 394.769531 L 395.703125 394.714844 L 395.375 394.695312 L 395.050781 394.714844 L 394.742188 394.769531 L 394.441406 394.859375 L 394.160156 394.988281 L 393.886719 395.152344 L 393.628906 395.351562 L 393.382812 395.589844 L 393.152344 395.863281 L 392.929688 396.175781 L 392.726562 396.519531 L 392.535156 396.898438 L 392.363281 397.316406 L 392.214844 397.765625 L 392.085938 398.257812 L 391.976562 398.78125 L 391.882812 399.347656 L 391.816406 399.945312 L 391.765625 400.585938 L 391.734375 401.257812 L 391.726562 401.96875 L 391.734375 402.683594 L 391.765625 403.359375 L 391.816406 404 L 391.882812 404.605469 L 391.976562 405.175781 L 392.085938 405.710938 L 392.214844 406.210938 L 392.363281 406.675781 L 392.535156 407.101562 L 392.726562 407.496094 L 392.929688 407.851562 L 393.152344 408.171875 L 393.382812 408.453125 L 393.628906 408.695312 L 393.886719 408.902344 L 394.160156 409.070312 L 394.441406 409.203125 L 394.742188 409.296875 L 395.050781 409.351562 Z M 395.375 409.371094 "/>
<path fill-rule="nonzero" fill="rgb(0%, 0%, 0%)" fill-opacity="1" d="M 241.84375 440.3125 L 247.191406 431.105469 L 242.222656 422.519531 L 243.570312 422.519531 L 246.488281 427.757812 L 246.5625 427.878906 L 246.710938 428.113281 L 246.78125 428.230469 L 246.851562 428.34375 L 246.992188 428.578125 L 247.324219 429.144531 L 247.394531 429.261719 L 247.464844 429.382812 L 247.542969 429.507812 L 247.617188 429.636719 L 247.695312 429.769531 L 247.859375 430.042969 L 247.945312 430.1875 L 248.054688 430.1875 L 248.128906 430.042969 L 248.203125 429.90625 L 248.273438 429.769531 L 248.34375 429.636719 L 248.410156 429.507812 L 248.480469 429.382812 L 248.542969 429.261719 L 248.605469 429.144531 L 248.730469 428.917969 L 248.789062 428.804688 L 248.914062 428.578125 L 249.039062 428.34375 L 249.105469 428.230469 L 249.238281 427.996094 L 249.308594 427.878906 L 249.378906 427.757812 L 252.292969 422.519531 L 253.5625 422.519531 L 248.59375 431.160156 L 253.941406 440.3125 L 252.589844 440.3125 L 249.484375 434.859375 L 249.414062 434.722656 L 249.34375 434.589844 L 249.269531 434.453125 L 249.195312 434.320312 L 249.121094 434.183594 L 249.042969 434.050781 L 248.96875 433.914062 L 248.890625 433.78125 L 248.808594 433.644531 L 248.730469 433.507812 L 248.648438 433.375 L 248.5625 433.234375 L 248.480469 433.09375 L 248.390625 432.949219 L 248.304688 432.800781 L 248.214844 432.652344 L 248.121094 432.5 L 248.03125 432.34375 L 247.933594 432.183594 L 247.839844 432.023438 L 247.730469 432.023438 L 247.644531 432.183594 L 247.5625 432.34375 L 247.476562 432.5 L 247.398438 432.652344 L 247.242188 432.949219 L 247.164062 433.09375 L 247.089844 433.234375 L 247.019531 433.375 L 246.945312 433.507812 L 246.804688 433.78125 L 246.734375 433.914062 L 246.660156 434.050781 L 246.589844 434.183594 L 246.515625 434.320312 L 246.441406 434.453125 L 246.367188 434.589844 L 246.292969 434.722656 L 246.21875 434.859375 L 243.113281 440.3125 Z M 241.84375 440.3125 "/>
<path fill-rule="nonzero" fill="rgb(0%, 0%, 0%)" fill-opacity="1" d="M 31.242188 198.078125 L 24.035156 198.078125 L 13.449219 203.398438 L 13.449219 202.074219 L 19.011719 199.375 L 19.207031 199.285156 L 19.398438 199.191406 L 19.59375 199.101562 L 19.785156 199.007812 L 19.976562 198.917969 L 20.167969 198.824219 L 20.359375 198.734375 L 20.550781 198.640625 L 20.738281 198.550781 L 20.929688 198.457031 L 21.117188 198.367188 L 21.308594 198.273438 L 21.5 198.175781 L 21.691406 198.082031 L 22.277344 197.789062 L 22.476562 197.6875 L 22.671875 197.585938 L 22.871094 197.484375 L 22.871094 197.378906 L 22.671875 197.277344 L 22.476562 197.171875 L 22.277344 197.074219 L 21.886719 196.871094 L 21.691406 196.773438 L 21.5 196.671875 L 21.117188 196.476562 L 20.929688 196.378906 L 20.738281 196.28125 L 20.550781 196.1875 L 19.976562 195.90625 L 19.59375 195.726562 L 19.398438 195.636719 L 19.207031 195.546875 L 19.011719 195.460938 L 13.449219 192.761719 L 13.449219 191.492188 L 24.035156 196.835938 L 31.242188 196.835938 Z M 31.242188 198.078125 "/>
</svg>
