<?xml version="1.0" encoding="UTF-8"?>
<svg xmlns="http://www.w3.org/2000/svg" xmlns:xlink="http://www.w3.org/1999/xlink" width="792" height="468" viewBox="0 0 792 468">
<defs>
<clipPath id="clip-0">
<path clip-rule="nonzero" d="M 50.929688 13.449219 L 778.550781 13.449219 L 778.550781 417.070312 L 50.929688 417.070312 Z M 50.929688 13.449219 "/>
</clipPath>
<clipPath id="clip-1">
<path clip-rule="nonzero" d="M 50.929688 311 L 778.550781 311 L 778.550781 315 L 50.929688 315 Z M 50.929688 311 "/>
</clipPath>
<clipPath id="clip-2">
<path clip-rule="nonzero" d="M 50.929688 204 L 778.550781 204 L 778.550781 207 L 50.929688 207 Z M 50.929688 204 "/>
</clipPath>
<clipPath id="clip-3">
<path clip-rule="nonzero" d="M 50.929688 96 L 778.550781 96 L 778.550781 100 L 50.929688 100 Z M 50.929688 96 "/>
</clipPath>
<clipPath id="clip-4">
<path clip-rule="nonzero" d="M 82 13.449219 L 85 13.449219 L 85 417.070312 L 82 417.070312 Z M 82 13.449219 "/>
</clipPath>
<clipPath id="clip-5">
<path clip-rule="nonzero" d="M 247 13.449219 L 251 13.449219 L 251 417.070312 L 247 417.070312 Z M 247 13.449219 "/>
</clipPath>
<clipPath id="clip-6">
<path clip-rule="nonzero" d="M 413 13.449219 L 417 13.449219 L 417 417.070312 L 413 417.070312 Z M 413 13.449219 "/>
</clipPath>
<clipPath id="clip-7">
<path clip-rule="nonzero" d="M 578 13.449219 L 582 13.449219 L 582 417.070312 L 578 417.070312 Z M 578 13.449219 "/>
</clipPath>
<clipPath id="clip-8">
<path clip-rule="nonzero" d="M 744 13.449219 L 748 13.449219 L 748 417.070312 L 744 417.070312 Z M 744 13.449219 "/>
</clipPath>
<clipPath id="clip-9">
<path clip-rule="nonzero" d="M 413 13.449219 L 416 13.449219 L 416 417.070312 L 413 417.070312 Z M 413 13.449219 "/>
</clipPath>
</defs>
<rect x="-79.2" y="-46.8" width="950.4" height="561.6" fill="rgb(100%, 100%, 100%)" fill-opacity="1"/>
<rect x="-79.2" y="-46.8" width="950.4" height="561.6" fill="rgb(95.294118%, 95.294118%, 95.294118%)" fill-opacity="1"/>
<path fill="none" stroke-width="2.618947" stroke-linecap="round" stroke-linejoin="round" stroke="rgb(95.294118%, 95.294118%, 95.294118%)" stroke-opacity="1" stroke-miterlimit="10" d="M 0 468 L 792 468 L 792 0 L 0 0 Z M 0 468 "/>
<g clip-path="url(#clip-0)">
<path fill-rule="nonzero" fill="rgb(95.294118%, 95.294118%, 95.294118%)" fill-opacity="1" stroke-width="2.618947" stroke-linecap="round" stroke-linejoin="round" stroke="rgb(95.294118%, 95.294118%, 95.294118%)" stroke-opacity="1" stroke-miterlimit="10" d="M 50.929688 417.070312 L 778.550781 417.070312 L 778.550781 13.449219 L 50.929688 13.449219 Z M 50.929688 417.070312 "/>
</g>
<g clip-path="url(#clip-1)">
<path fill="none" stroke-width="2.618947" stroke-linecap="butt" stroke-linejoin="round" stroke="rgb(92.156863%, 92.156863%, 92.156863%)" stroke-opacity="1" stroke-miterlimit="10" d="M 50.929688 312.867188 L 778.550781 312.867188 "/>
</g>
<g clip-path="url(#clip-2)">
<path fill="none" stroke-width="2.618947" stroke-linecap="butt" stroke-linejoin="round" stroke="rgb(92.156863%, 92.156863%, 92.156863%)" stroke-opacity="1" stroke-miterlimit="10" d="M 50.929688 205.480469 L 778.550781 205.480469 "/>
</g>
<g clip-path="url(#clip-3)">
<path fill="none" stroke-width="2.618947" stroke-linecap="butt" stroke-linejoin="round" stroke="rgb(92.156863%, 92.156863%, 92.156863%)" stroke-opacity="1" stroke-miterlimit="10" d="M 50.929688 98.097656 L 778.550781 98.097656 "/>
</g>
<g clip-path="url(#clip-4)">
<path fill="none" stroke-width="2.618947" stroke-linecap="butt" stroke-linejoin="round" stroke="rgb(92.156863%, 92.156863%, 92.156863%)" stroke-opacity="1" stroke-miterlimit="10" d="M 83.585938 417.070312 L 83.585938 13.449219 "/>
</g>
<g clip-path="url(#clip-5)">
<path fill="none" stroke-width="2.618947" stroke-linecap="butt" stroke-linejoin="round" stroke="rgb(92.156863%, 92.156863%, 92.156863%)" stroke-opacity="1" stroke-miterlimit="10" d="M 249.148438 417.070312 L 249.148438 13.449219 "/>
</g>
<g clip-path="url(#clip-6)">
<path fill="none" stroke-width="2.618947" stroke-linecap="butt" stroke-linejoin="round" stroke="rgb(92.156863%, 92.156863%, 92.156863%)" stroke-opacity="1" stroke-miterlimit="10" d="M 414.710938 417.070312 L 414.710938 13.449219 "/>
</g>
<g clip-path="url(#clip-7)">
<path fill="none" stroke-width="2.618947" stroke-linecap="butt" stroke-linejoin="round" stroke="rgb(92.156863%, 92.156863%, 92.156863%)" stroke-opacity="1" stroke-miterlimit="10" d="M 580.273438 417.070312 L 580.273438 13.449219 "/>
</g>
<g clip-path="url(#clip-8)">
<path fill="none" stroke-width="2.618947" stroke-linecap="butt" stroke-linejoin="round" stroke="rgb(92.156863%, 92.156863%, 92.156863%)" stroke-opacity="1" stroke-miterlimit="10" d="M 745.832031 417.070312 L 745.832031 13.449219 "/>
</g>
<path fill-rule="nonzero" fill="rgb(56.078431%, 16.470588%, 26.27451%)" fill-opacity="1" stroke-width="0.708661" stroke-linecap="round" stroke-linejoin="round" stroke="rgb(56.078431%, 16.470588%, 26.27451%)" stroke-opacity="1" stroke-miterlimit="10" d="M 89.90625 304.359375 C 89.90625 307.621094 87.261719 310.261719 84.003906 310.261719 C 80.742188 310.261719 78.101562 307.621094 78.101562 304.359375 C 78.101562 301.101562 80.742188 298.457031 84.003906 298.457031 C 87.261719 298.457031 89.90625 301.101562 89.90625 304.359375 "/>
<path fill-rule="nonzero" fill="rgb(56.078431%, 16.470588%, 26.27451%)" fill-opacity="1" stroke-width="0.708661" stroke-linecap="round" stroke-linejoin="round" stroke="rgb(56.078431%, 16.470588%, 26.27451%)" stroke-opacity="1" stroke-miterlimit="10" d="M 110.371094 325.335938 C 110.371094 328.59375 107.726562 331.238281 104.46875 331.238281 C 101.207031 331.238281 98.566406 328.59375 98.566406 325.335938 C 98.566406 322.074219 101.207031 319.433594 104.46875 319.433594 C 107.726562 319.433594 110.371094 322.074219 110.371094 325.335938 "/>
<path fill-rule="nonzero" fill="rgb(56.078431%, 16.470588%, 26.27451%)" fill-opacity="1" stroke-width="0.708661" stroke-linecap="round" stroke-linejoin="round" stroke="rgb(56.078431%, 16.470588%, 26.27451%)" stroke-opacity="1" stroke-miterlimit="10" d="M 122.867188 287.933594 C 122.867188 291.195312 120.226562 293.835938 116.964844 293.835938 C 113.703125 293.835938 111.0625 291.195312 111.0625 287.933594 C 111.0625 284.675781 113.703125 282.03125 116.964844 282.03125 C 120.226562 282.03125 122.867188 284.675781 122.867188 287.933594 "/>
<path fill-rule="nonzero" fill="rgb(56.078431%, 16.470588%, 26.27451%)" fill-opacity="1" stroke-width="0.708661" stroke-linecap="round" stroke-linejoin="round" stroke="rgb(56.078431%, 16.470588%, 26.27451%)" stroke-opacity="1" stroke-miterlimit="10" d="M 135.609375 325.71875 C 135.609375 328.980469 132.964844 331.621094 129.707031 331.621094 C 126.445312 331.621094 123.800781 328.980469 123.800781 325.71875 C 123.800781 322.460938 126.445312 319.816406 129.707031 319.816406 C 132.964844 319.816406 135.609375 322.460938 135.609375 325.71875 "/>
<path fill-rule="nonzero" fill="rgb(56.078431%, 16.470588%, 26.27451%)" fill-opacity="1" stroke-width="0.708661" stroke-linecap="round" stroke-linejoin="round" stroke="rgb(56.078431%, 16.470588%, 26.27451%)" stroke-opacity="1" stroke-miterlimit="10" d="M 149.796875 330.4375 C 149.796875 333.699219 147.152344 336.339844 143.894531 336.339844 C 140.632812 336.339844 137.992188 333.699219 137.992188 330.4375 C 137.992188 327.175781 140.632812 324.535156 143.894531 324.535156 C 147.152344 324.535156 149.796875 327.175781 149.796875 330.4375 "/>
<path fill-rule="nonzero" fill="rgb(56.078431%, 16.470588%, 26.27451%)" fill-opacity="1" stroke-width="0.708661" stroke-linecap="round" stroke-linejoin="round" stroke="rgb(56.078431%, 16.470588%, 26.27451%)" stroke-opacity="1" stroke-miterlimit="10" d="M 161.699219 340.21875 C 161.699219 343.480469 159.058594 346.121094 155.796875 346.121094 C 152.539062 346.121094 149.894531 343.480469 149.894531 340.21875 C 149.894531 336.960938 152.539062 334.316406 155.796875 334.316406 C 159.058594 334.316406 161.699219 336.960938 161.699219 340.21875 "/>
<path fill-rule="nonzero" fill="rgb(56.078431%, 16.470588%, 26.27451%)" fill-opacity="1" stroke-width="0.708661" stroke-linecap="round" stroke-linejoin="round" stroke="rgb(56.078431%, 16.470588%, 26.27451%)" stroke-opacity="1" stroke-miterlimit="10" d="M 177.40625 398.722656 C 177.40625 401.984375 174.765625 404.628906 171.503906 404.628906 C 168.246094 404.628906 165.601562 401.984375 165.601562 398.722656 C 165.601562 395.464844 168.246094 392.820312 171.503906 392.820312 C 174.765625 392.820312 177.40625 395.464844 177.40625 398.722656 "/>
<path fill-rule="nonzero" fill="rgb(56.078431%, 16.470588%, 26.27451%)" fill-opacity="1" stroke-width="0.708661" stroke-linecap="round" stroke-linejoin="round" stroke="rgb(56.078431%, 16.470588%, 26.27451%)" stroke-opacity="1" stroke-miterlimit="10" d="M 189.296875 376.691406 C 189.296875 379.953125 186.65625 382.59375 183.394531 382.59375 C 180.136719 382.59375 177.492188 379.953125 177.492188 376.691406 C 177.492188 373.429688 180.136719 370.789062 183.394531 370.789062 C 186.65625 370.789062 189.296875 373.429688 189.296875 376.691406 "/>
<path fill-rule="nonzero" fill="rgb(56.078431%, 16.470588%, 26.27451%)" fill-opacity="1" stroke-width="0.708661" stroke-linecap="round" stroke-linejoin="round" stroke="rgb(56.078431%, 16.470588%, 26.27451%)" stroke-opacity="1" stroke-miterlimit="10" d="M 202.328125 377.824219 C 202.328125 381.085938 199.683594 383.726562 196.421875 383.726562 C 193.164062 383.726562 190.519531 381.085938 190.519531 377.824219 C 190.519531 374.566406 193.164062 371.921875 196.421875 371.921875 C 199.683594 371.921875 202.328125 374.566406 202.328125 377.824219 "/>
<path fill-rule="nonzero" fill="rgb(56.078431%, 16.470588%, 26.27451%)" fill-opacity="1" stroke-width="0.708661" stroke-linecap="round" stroke-linejoin="round" stroke="rgb(56.078431%, 16.470588%, 26.27451%)" stroke-opacity="1" stroke-miterlimit="10" d="M 216.308594 357.234375 C 216.308594 360.496094 213.667969 363.136719 210.40625 363.136719 C 207.148438 363.136719 204.503906 360.496094 204.503906 357.234375 C 204.503906 353.976562 207.148438 351.332031 210.40625 351.332031 C 213.667969 351.332031 216.308594 353.976562 216.308594 357.234375 "/>
<path fill-rule="nonzero" fill="rgb(56.078431%, 16.470588%, 26.27451%)" fill-opacity="1" stroke-width="0.708661" stroke-linecap="round" stroke-linejoin="round" stroke="rgb(56.078431%, 16.470588%, 26.27451%)" stroke-opacity="1" stroke-miterlimit="10" d="M 229.820312 343.238281 C 229.820312 346.496094 227.179688 349.140625 223.917969 349.140625 C 220.660156 349.140625 218.015625 346.496094 218.015625 343.238281 C 218.015625 339.976562 220.660156 337.335938 223.917969 337.335938 C 227.179688 337.335938 229.820312 339.976562 229.820312 343.238281 "/>
<path fill-rule="nonzero" fill="rgb(56.078431%, 16.470588%, 26.27451%)" fill-opacity="1" stroke-width="0.708661" stroke-linecap="round" stroke-linejoin="round" stroke="rgb(56.078431%, 16.470588%, 26.27451%)" stroke-opacity="1" stroke-miterlimit="10" d="M 242.105469 342.703125 C 242.105469 345.964844 239.464844 348.605469 236.203125 348.605469 C 232.945312 348.605469 230.300781 345.964844 230.300781 342.703125 C 230.300781 339.445312 232.945312 336.800781 236.203125 336.800781 C 239.464844 336.800781 242.105469 339.445312 242.105469 342.703125 "/>
<path fill-rule="nonzero" fill="rgb(56.078431%, 16.470588%, 26.27451%)" fill-opacity="1" stroke-width="0.708661" stroke-linecap="round" stroke-linejoin="round" stroke="rgb(56.078431%, 16.470588%, 26.27451%)" stroke-opacity="1" stroke-miterlimit="10" d="M 255.1875 329.609375 C 255.1875 332.871094 252.542969 335.511719 249.285156 335.511719 C 246.023438 335.511719 243.382812 332.871094 243.382812 329.609375 C 243.382812 326.351562 246.023438 323.707031 249.285156 323.707031 C 252.542969 323.707031 255.1875 326.351562 255.1875 329.609375 "/>
<path fill-rule="nonzero" fill="rgb(56.078431%, 16.470588%, 26.27451%)" fill-opacity="1" stroke-width="0.708661" stroke-linecap="round" stroke-linejoin="round" stroke="rgb(56.078431%, 16.470588%, 26.27451%)" stroke-opacity="1" stroke-miterlimit="10" d="M 268.496094 297.273438 C 268.496094 300.53125 265.851562 303.175781 262.59375 303.175781 C 259.332031 303.175781 256.691406 300.53125 256.691406 297.273438 C 256.691406 294.011719 259.332031 291.371094 262.59375 291.371094 C 265.851562 291.371094 268.496094 294.011719 268.496094 297.273438 "/>
<path fill-rule="nonzero" fill="rgb(56.078431%, 16.470588%, 26.27451%)" fill-opacity="1" stroke-width="0.708661" stroke-linecap="round" stroke-linejoin="round" stroke="rgb(56.078431%, 16.470588%, 26.27451%)" stroke-opacity="1" stroke-miterlimit="10" d="M 281.589844 287.558594 C 281.589844 290.816406 278.949219 293.460938 275.6875 293.460938 C 272.429688 293.460938 269.785156 290.816406 269.785156 287.558594 C 269.785156 284.296875 272.429688 281.65625 275.6875 281.65625 C 278.949219 281.65625 281.589844 284.296875 281.589844 287.558594 "/>
<path fill-rule="nonzero" fill="rgb(56.078431%, 16.470588%, 26.27451%)" fill-opacity="1" stroke-width="0.708661" stroke-linecap="round" stroke-linejoin="round" stroke="rgb(56.078431%, 16.470588%, 26.27451%)" stroke-opacity="1" stroke-miterlimit="10" d="M 295.160156 289.417969 C 295.160156 292.679688 292.515625 295.320312 289.257812 295.320312 C 285.996094 295.320312 283.355469 292.679688 283.355469 289.417969 C 283.355469 286.160156 285.996094 283.515625 289.257812 283.515625 C 292.515625 283.515625 295.160156 286.160156 295.160156 289.417969 "/>
<path fill-rule="nonzero" fill="rgb(56.078431%, 16.470588%, 26.27451%)" fill-opacity="1" stroke-width="0.708661" stroke-linecap="round" stroke-linejoin="round" stroke="rgb(56.078431%, 16.470588%, 26.27451%)" stroke-opacity="1" stroke-miterlimit="10" d="M 307.65625 273.898438 C 307.65625 277.15625 305.011719 279.800781 301.753906 279.800781 C 298.492188 279.800781 295.851562 277.15625 295.851562 273.898438 C 295.851562 270.636719 298.492188 267.996094 301.753906 267.996094 C 305.011719 267.996094 307.65625 270.636719 307.65625 273.898438 "/>
<path fill-rule="nonzero" fill="rgb(56.078431%, 16.470588%, 26.27451%)" fill-opacity="1" stroke-width="0.708661" stroke-linecap="round" stroke-linejoin="round" stroke="rgb(56.078431%, 16.470588%, 26.27451%)" stroke-opacity="1" stroke-miterlimit="10" d="M 320.929688 272.109375 C 320.929688 275.367188 318.285156 278.011719 315.023438 278.011719 C 311.765625 278.011719 309.121094 275.367188 309.121094 272.109375 C 309.121094 268.847656 311.765625 266.207031 315.023438 266.207031 C 318.285156 266.207031 320.929688 268.847656 320.929688 272.109375 "/>
<path fill-rule="nonzero" fill="rgb(56.078431%, 16.470588%, 26.27451%)" fill-opacity="1" stroke-width="0.708661" stroke-linecap="round" stroke-linejoin="round" stroke="rgb(56.078431%, 16.470588%, 26.27451%)" stroke-opacity="1" stroke-miterlimit="10" d="M 334.558594 265.246094 C 334.558594 268.503906 331.914062 271.148438 328.65625 271.148438 C 325.394531 271.148438 322.753906 268.503906 322.753906 265.246094 C 322.753906 261.984375 325.394531 259.34375 328.65625 259.34375 C 331.914062 259.34375 334.558594 261.984375 334.558594 265.246094 "/>
<path fill-rule="nonzero" fill="rgb(56.078431%, 16.470588%, 26.27451%)" fill-opacity="1" stroke-width="0.708661" stroke-linecap="round" stroke-linejoin="round" stroke="rgb(56.078431%, 16.470588%, 26.27451%)" stroke-opacity="1" stroke-miterlimit="10" d="M 347.757812 261.628906 C 347.757812 264.886719 345.113281 267.53125 341.855469 267.53125 C 338.59375 267.53125 335.953125 264.886719 335.953125 261.628906 C 335.953125 258.367188 338.59375 255.726562 341.855469 255.726562 C 345.113281 255.726562 347.757812 258.367188 347.757812 261.628906 "/>
<path fill-rule="nonzero" fill="rgb(56.078431%, 16.470588%, 26.27451%)" fill-opacity="1" stroke-width="0.708661" stroke-linecap="round" stroke-linejoin="round" stroke="rgb(56.078431%, 16.470588%, 26.27451%)" stroke-opacity="1" stroke-miterlimit="10" d="M 361.378906 256.652344 C 361.378906 259.914062 358.734375 262.558594 355.476562 262.558594 C 352.214844 262.558594 349.574219 259.914062 349.574219 256.652344 C 349.574219 253.394531 352.214844 250.75 355.476562 250.75 C 358.734375 250.75 361.378906 253.394531 361.378906 256.652344 "/>
<path fill-rule="nonzero" fill="rgb(56.078431%, 16.470588%, 26.27451%)" fill-opacity="1" stroke-width="0.708661" stroke-linecap="round" stroke-linejoin="round" stroke="rgb(56.078431%, 16.470588%, 26.27451%)" stroke-opacity="1" stroke-miterlimit="10" d="M 374.488281 249.488281 C 374.488281 252.75 371.84375 255.390625 368.585938 255.390625 C 365.324219 255.390625 362.683594 252.75 362.683594 249.488281 C 362.683594 246.230469 365.324219 243.585938 368.585938 243.585938 C 371.84375 243.585938 374.488281 246.230469 374.488281 249.488281 "/>
<path fill-rule="nonzero" fill="rgb(56.078431%, 16.470588%, 26.27451%)" fill-opacity="1" stroke-width="0.708661" stroke-linecap="round" stroke-linejoin="round" stroke="rgb(56.078431%, 16.470588%, 26.27451%)" stroke-opacity="1" stroke-miterlimit="10" d="M 387.207031 244.035156 C 387.207031 247.296875 384.566406 249.9375 381.304688 249.9375 C 378.042969 249.9375 375.402344 247.296875 375.402344 244.035156 C 375.402344 240.777344 378.042969 238.132812 381.304688 238.132812 C 384.566406 238.132812 387.207031 240.777344 387.207031 244.035156 "/>
<path fill-rule="nonzero" fill="rgb(56.078431%, 16.470588%, 26.27451%)" fill-opacity="1" stroke-width="0.708661" stroke-linecap="round" stroke-linejoin="round" stroke="rgb(56.078431%, 16.470588%, 26.27451%)" stroke-opacity="1" stroke-miterlimit="10" d="M 400.535156 238.222656 C 400.535156 241.484375 397.894531 244.125 394.632812 244.125 C 391.375 244.125 388.730469 241.484375 388.730469 238.222656 C 388.730469 234.964844 391.375 232.320312 394.632812 232.320312 C 397.894531 232.320312 400.535156 234.964844 400.535156 238.222656 "/>
<path fill-rule="nonzero" fill="rgb(56.078431%, 16.470588%, 26.27451%)" fill-opacity="1" stroke-width="0.708661" stroke-linecap="round" stroke-linejoin="round" stroke="rgb(56.078431%, 16.470588%, 26.27451%)" stroke-opacity="1" stroke-miterlimit="10" d="M 413.539062 225.15625 C 413.539062 228.417969 410.894531 231.058594 407.636719 231.058594 C 404.375 231.058594 401.734375 228.417969 401.734375 225.15625 C 401.734375 221.898438 404.375 219.253906 407.636719 219.253906 C 410.894531 219.253906 413.539062 221.898438 413.539062 225.15625 "/>
<path fill-rule="nonzero" fill="rgb(56.078431%, 16.470588%, 26.27451%)" fill-opacity="1" stroke-width="0.708661" stroke-linecap="round" stroke-linejoin="round" stroke="rgb(56.078431%, 16.470588%, 26.27451%)" stroke-opacity="1" stroke-miterlimit="10" d="M 427.382812 190.988281 C 427.382812 194.246094 424.742188 196.890625 421.480469 196.890625 C 418.222656 196.890625 415.578125 194.246094 415.578125 190.988281 C 415.578125 187.726562 418.222656 185.085938 421.480469 185.085938 C 424.742188 185.085938 427.382812 187.726562 427.382812 190.988281 "/>
<path fill-rule="nonzero" fill="rgb(56.078431%, 16.470588%, 26.27451%)" fill-opacity="1" stroke-width="0.708661" stroke-linecap="round" stroke-linejoin="round" stroke="rgb(56.078431%, 16.470588%, 26.27451%)" stroke-opacity="1" stroke-miterlimit="10" d="M 440.121094 175.367188 C 440.121094 178.628906 437.480469 181.269531 434.21875 181.269531 C 430.960938 181.269531 428.316406 178.628906 428.316406 175.367188 C 428.316406 172.109375 430.960938 169.464844 434.21875 169.464844 C 437.480469 169.464844 440.121094 172.109375 440.121094 175.367188 "/>
<path fill-rule="nonzero" fill="rgb(56.078431%, 16.470588%, 26.27451%)" fill-opacity="1" stroke-width="0.708661" stroke-linecap="round" stroke-linejoin="round" stroke="rgb(56.078431%, 16.470588%, 26.27451%)" stroke-opacity="1" stroke-miterlimit="10" d="M 453.023438 167.664062 C 453.023438 170.921875 450.378906 173.566406 447.121094 173.566406 C 443.859375 173.566406 441.21875 170.921875 441.21875 167.664062 C 441.21875 164.402344 443.859375 161.761719 447.121094 161.761719 C 450.378906 161.761719 453.023438 164.402344 453.023438 167.664062 "/>
<path fill-rule="nonzero" fill="rgb(56.078431%, 16.470588%, 26.27451%)" fill-opacity="1" stroke-width="0.708661" stroke-linecap="round" stroke-linejoin="round" stroke="rgb(56.078431%, 16.470588%, 26.27451%)" stroke-opacity="1" stroke-miterlimit="10" d="M 466.703125 172.300781 C 466.703125 175.558594 464.058594 178.203125 460.800781 178.203125 C 457.539062 178.203125 454.898438 175.558594 454.898438 172.300781 C 454.898438 169.039062 457.539062 166.398438 460.800781 166.398438 C 464.058594 166.398438 466.703125 169.039062 466.703125 172.300781 "/>
<path fill-rule="nonzero" fill="rgb(56.078431%, 16.470588%, 26.27451%)" fill-opacity="1" stroke-width="0.708661" stroke-linecap="round" stroke-linejoin="round" stroke="rgb(56.078431%, 16.470588%, 26.27451%)" stroke-opacity="1" stroke-miterlimit="10" d="M 480.003906 153.371094 C 480.003906 156.628906 477.359375 159.273438 474.101562 159.273438 C 470.839844 159.273438 468.199219 156.628906 468.199219 153.371094 C 468.199219 150.109375 470.839844 147.46875 474.101562 147.46875 C 477.359375 147.46875 480.003906 150.109375 480.003906 153.371094 "/>
<path fill-rule="nonzero" fill="rgb(56.078431%, 16.470588%, 26.27451%)" fill-opacity="1" stroke-width="0.708661" stroke-linecap="round" stroke-linejoin="round" stroke="rgb(56.078431%, 16.470588%, 26.27451%)" stroke-opacity="1" stroke-miterlimit="10" d="M 493.640625 151.878906 C 493.640625 155.136719 491 157.78125 487.738281 157.78125 C 484.476562 157.78125 481.835938 155.136719 481.835938 151.878906 C 481.835938 148.617188 484.476562 145.976562 487.738281 145.976562 C 491 145.976562 493.640625 148.617188 493.640625 151.878906 "/>
<path fill-rule="nonzero" fill="rgb(56.078431%, 16.470588%, 26.27451%)" fill-opacity="1" stroke-width="0.708661" stroke-linecap="round" stroke-linejoin="round" stroke="rgb(56.078431%, 16.470588%, 26.27451%)" stroke-opacity="1" stroke-miterlimit="10" d="M 506.929688 144.628906 C 506.929688 147.890625 504.289062 150.53125 501.027344 150.53125 C 497.769531 150.53125 495.125 147.890625 495.125 144.628906 C 495.125 141.371094 497.769531 138.726562 501.027344 138.726562 C 504.289062 138.726562 506.929688 141.371094 506.929688 144.628906 "/>
<path fill-rule="nonzero" fill="rgb(56.078431%, 16.470588%, 26.27451%)" fill-opacity="1" stroke-width="0.708661" stroke-linecap="round" stroke-linejoin="round" stroke="rgb(56.078431%, 16.470588%, 26.27451%)" stroke-opacity="1" stroke-miterlimit="10" d="M 519.75 135.273438 C 519.75 138.53125 517.109375 141.175781 513.847656 141.175781 C 510.589844 141.175781 507.945312 138.53125 507.945312 135.273438 C 507.945312 132.011719 510.589844 129.371094 513.847656 129.371094 C 517.109375 129.371094 519.75 132.011719 519.75 135.273438 "/>
<path fill-rule="nonzero" fill="rgb(56.078431%, 16.470588%, 26.27451%)" fill-opacity="1" stroke-width="0.708661" stroke-linecap="round" stroke-linejoin="round" stroke="rgb(56.078431%, 16.470588%, 26.27451%)" stroke-opacity="1" stroke-miterlimit="10" d="M 532.941406 133.808594 C 532.941406 137.066406 530.296875 139.710938 527.039062 139.710938 C 523.777344 139.710938 521.136719 137.066406 521.136719 133.808594 C 521.136719 130.546875 523.777344 127.90625 527.039062 127.90625 C 530.296875 127.90625 532.941406 130.546875 532.941406 133.808594 "/>
<path fill-rule="nonzero" fill="rgb(56.078431%, 16.470588%, 26.27451%)" fill-opacity="1" stroke-width="0.708661" stroke-linecap="round" stroke-linejoin="round" stroke="rgb(56.078431%, 16.470588%, 26.27451%)" stroke-opacity="1" stroke-miterlimit="10" d="M 546.773438 126.582031 C 546.773438 129.84375 544.128906 132.484375 540.871094 132.484375 C 537.609375 132.484375 534.96875 129.84375 534.96875 126.582031 C 534.96875 123.324219 537.609375 120.679688 540.871094 120.679688 C 544.128906 120.679688 546.773438 123.324219 546.773438 126.582031 "/>
<path fill-rule="nonzero" fill="rgb(56.078431%, 16.470588%, 26.27451%)" fill-opacity="1" stroke-width="0.708661" stroke-linecap="round" stroke-linejoin="round" stroke="rgb(56.078431%, 16.470588%, 26.27451%)" stroke-opacity="1" stroke-miterlimit="10" d="M 560.140625 116.800781 C 560.140625 120.0625 557.496094 122.703125 554.238281 122.703125 C 550.976562 122.703125 548.335938 120.0625 548.335938 116.800781 C 548.335938 113.539062 550.976562 110.898438 554.238281 110.898438 C 557.496094 110.898438 560.140625 113.539062 560.140625 116.800781 "/>
<path fill-rule="nonzero" fill="rgb(56.078431%, 16.470588%, 26.27451%)" fill-opacity="1" stroke-width="0.708661" stroke-linecap="round" stroke-linejoin="round" stroke="rgb(56.078431%, 16.470588%, 26.27451%)" stroke-opacity="1" stroke-miterlimit="10" d="M 572.554688 121.199219 C 572.554688 124.460938 569.914062 127.101562 566.652344 127.101562 C 563.390625 127.101562 560.75 124.460938 560.75 121.199219 C 560.75 117.941406 563.390625 115.296875 566.652344 115.296875 C 569.914062 115.296875 572.554688 117.941406 572.554688 121.199219 "/>
<path fill-rule="nonzero" fill="rgb(56.078431%, 16.470588%, 26.27451%)" fill-opacity="1" stroke-width="0.708661" stroke-linecap="round" stroke-linejoin="round" stroke="rgb(56.078431%, 16.470588%, 26.27451%)" stroke-opacity="1" stroke-miterlimit="10" d="M 585.128906 102.277344 C 585.128906 105.539062 582.484375 108.179688 579.226562 108.179688 C 575.964844 108.179688 573.324219 105.539062 573.324219 102.277344 C 573.324219 99.019531 575.964844 96.375 579.226562 96.375 C 582.484375 96.375 585.128906 99.019531 585.128906 102.277344 "/>
<path fill-rule="nonzero" fill="rgb(56.078431%, 16.470588%, 26.27451%)" fill-opacity="1" stroke-width="0.708661" stroke-linecap="round" stroke-linejoin="round" stroke="rgb(56.078431%, 16.470588%, 26.27451%)" stroke-opacity="1" stroke-miterlimit="10" d="M 598.914062 89.796875 C 598.914062 93.054688 596.269531 95.699219 593.007812 95.699219 C 589.75 95.699219 587.105469 93.054688 587.105469 89.796875 C 587.105469 86.535156 589.75 83.890625 593.007812 83.890625 C 596.269531 83.890625 598.914062 86.535156 598.914062 89.796875 "/>
<path fill-rule="nonzero" fill="rgb(56.078431%, 16.470588%, 26.27451%)" fill-opacity="1" stroke-width="0.708661" stroke-linecap="round" stroke-linejoin="round" stroke="rgb(56.078431%, 16.470588%, 26.27451%)" stroke-opacity="1" stroke-miterlimit="10" d="M 612.269531 88.507812 C 612.269531 91.769531 609.628906 94.410156 606.367188 94.410156 C 603.109375 94.410156 600.464844 91.769531 600.464844 88.507812 C 600.464844 85.25 603.109375 82.605469 606.367188 82.605469 C 609.628906 82.605469 612.269531 85.25 612.269531 88.507812 "/>
<path fill-rule="nonzero" fill="rgb(56.078431%, 16.470588%, 26.27451%)" fill-opacity="1" stroke-width="0.708661" stroke-linecap="round" stroke-linejoin="round" stroke="rgb(56.078431%, 16.470588%, 26.27451%)" stroke-opacity="1" stroke-miterlimit="10" d="M 626.503906 77.371094 C 626.503906 80.628906 623.863281 83.273438 620.601562 83.273438 C 617.34375 83.273438 614.699219 80.628906 614.699219 77.371094 C 614.699219 74.109375 617.34375 71.46875 620.601562 71.46875 C 623.863281 71.46875 626.503906 74.109375 626.503906 77.371094 "/>
<path fill-rule="nonzero" fill="rgb(56.078431%, 16.470588%, 26.27451%)" fill-opacity="1" stroke-width="0.708661" stroke-linecap="round" stroke-linejoin="round" stroke="rgb(56.078431%, 16.470588%, 26.27451%)" stroke-opacity="1" stroke-miterlimit="10" d="M 639.34375 87.246094 C 639.34375 90.507812 636.703125 93.148438 633.441406 93.148438 C 630.179688 93.148438 627.539062 90.507812 627.539062 87.246094 C 627.539062 83.988281 630.179688 81.34375 633.441406 81.34375 C 636.703125 81.34375 639.34375 83.988281 639.34375 87.246094 "/>
<path fill-rule="nonzero" fill="rgb(56.078431%, 16.470588%, 26.27451%)" fill-opacity="1" stroke-width="0.708661" stroke-linecap="round" stroke-linejoin="round" stroke="rgb(56.078431%, 16.470588%, 26.27451%)" stroke-opacity="1" stroke-miterlimit="10" d="M 652.679688 55.652344 C 652.679688 58.914062 650.035156 61.554688 646.777344 61.554688 C 643.515625 61.554688 640.875 58.914062 640.875 55.652344 C 640.875 52.390625 643.515625 49.75 646.777344 49.75 C 650.035156 49.75 652.679688 52.390625 652.679688 55.652344 "/>
<path fill-rule="nonzero" fill="rgb(56.078431%, 16.470588%, 26.27451%)" fill-opacity="1" stroke-width="0.708661" stroke-linecap="round" stroke-linejoin="round" stroke="rgb(56.078431%, 16.470588%, 26.27451%)" stroke-opacity="1" stroke-miterlimit="10" d="M 665.167969 65.738281 C 665.167969 68.996094 662.527344 71.640625 659.265625 71.640625 C 656.003906 71.640625 653.363281 68.996094 653.363281 65.738281 C 653.363281 62.476562 656.003906 59.835938 659.265625 59.835938 C 662.527344 59.835938 665.167969 62.476562 665.167969 65.738281 "/>
<path fill-rule="nonzero" fill="rgb(56.078431%, 16.470588%, 26.27451%)" fill-opacity="1" stroke-width="0.708661" stroke-linecap="round" stroke-linejoin="round" stroke="rgb(56.078431%, 16.470588%, 26.27451%)" stroke-opacity="1" stroke-miterlimit="10" d="M 678.792969 65.238281 C 678.792969 68.496094 676.148438 71.140625 672.890625 71.140625 C 669.628906 71.140625 666.988281 68.496094 666.988281 65.238281 C 666.988281 61.976562 669.628906 59.332031 672.890625 59.332031 C 676.148438 59.332031 678.792969 61.976562 678.792969 65.238281 "/>
<path fill-rule="nonzero" fill="rgb(56.078431%, 16.470588%, 26.27451%)" fill-opacity="1" stroke-width="0.708661" stroke-linecap="round" stroke-linejoin="round" stroke="rgb(56.078431%, 16.470588%, 26.27451%)" stroke-opacity="1" stroke-miterlimit="10" d="M 692.128906 65.132812 C 692.128906 68.394531 689.488281 71.035156 686.226562 71.035156 C 682.96875 71.035156 680.324219 68.394531 680.324219 65.132812 C 680.324219 61.875 682.96875 59.230469 686.226562 59.230469 C 689.488281 59.230469 692.128906 61.875 692.128906 65.132812 "/>
<path fill-rule="nonzero" fill="rgb(56.078431%, 16.470588%, 26.27451%)" fill-opacity="1" stroke-width="0.708661" stroke-linecap="round" stroke-linejoin="round" stroke="rgb(56.078431%, 16.470588%, 26.27451%)" stroke-opacity="1" stroke-miterlimit="10" d="M 705.644531 49.292969 C 705.644531 52.550781 703.003906 55.195312 699.742188 55.195312 C 696.484375 55.195312 693.839844 52.550781 693.839844 49.292969 C 693.839844 46.03125 696.484375 43.390625 699.742188 43.390625 C 703.003906 43.390625 705.644531 46.03125 705.644531 49.292969 "/>
<path fill-rule="nonzero" fill="rgb(56.078431%, 16.470588%, 26.27451%)" fill-opacity="1" stroke-width="0.708661" stroke-linecap="round" stroke-linejoin="round" stroke="rgb(56.078431%, 16.470588%, 26.27451%)" stroke-opacity="1" stroke-miterlimit="10" d="M 718.015625 58.011719 C 718.015625 61.273438 715.375 63.914062 712.113281 63.914062 C 708.855469 63.914062 706.210938 61.273438 706.210938 58.011719 C 706.210938 54.753906 708.855469 52.109375 712.113281 52.109375 C 715.375 52.109375 718.015625 54.753906 718.015625 58.011719 "/>
<path fill-rule="nonzero" fill="rgb(56.078431%, 16.470588%, 26.27451%)" fill-opacity="1" stroke-width="0.708661" stroke-linecap="round" stroke-linejoin="round" stroke="rgb(56.078431%, 16.470588%, 26.27451%)" stroke-opacity="1" stroke-miterlimit="10" d="M 731.199219 31.796875 C 731.199219 35.054688 728.558594 37.699219 725.296875 37.699219 C 722.039062 37.699219 719.394531 35.054688 719.394531 31.796875 C 719.394531 28.535156 722.039062 25.894531 725.296875 25.894531 C 728.558594 25.894531 731.199219 28.535156 731.199219 31.796875 "/>
<path fill-rule="nonzero" fill="rgb(56.078431%, 16.470588%, 26.27451%)" fill-opacity="1" stroke-width="0.708661" stroke-linecap="round" stroke-linejoin="round" stroke="rgb(56.078431%, 16.470588%, 26.27451%)" stroke-opacity="1" stroke-miterlimit="10" d="M 751.378906 44.484375 C 751.378906 47.746094 748.738281 50.386719 745.476562 50.386719 C 742.21875 50.386719 739.574219 47.746094 739.574219 44.484375 C 739.574219 41.226562 742.21875 38.582031 745.476562 38.582031 C 748.738281 38.582031 751.378906 41.226562 751.378906 44.484375 "/>
<g clip-path="url(#clip-9)">
<path fill="none" stroke-width="1.707165" stroke-linecap="butt" stroke-linejoin="round" stroke="rgb(80.784314%, 25.882353%, 34.117647%)" stroke-opacity="1" stroke-dasharray="6.828661 6.828661" stroke-miterlimit="10" d="M 414.710938 417.070312 L 414.710938 13.449219 "/>
</g>
<path fill="none" stroke-width="2.133957" stroke-linecap="butt" stroke-linejoin="round" stroke="rgb(0%, 0%, 0%)" stroke-opacity="1" stroke-miterlimit="10" d="M 84.003906 281.515625 L 88.097656 288.992188 L 92.195312 296.027344 L 96.292969 302.632812 L 100.390625 308.820312 L 104.484375 314.597656 L 108.582031 319.972656 L 112.679688 324.953125 L 116.777344 329.550781 L 120.871094 333.769531 L 124.96875 337.628906 L 129.066406 341.125 L 133.164062 344.277344 L 137.257812 347.089844 L 141.355469 349.574219 L 145.453125 351.738281 L 149.546875 353.585938 L 153.644531 355.136719 L 157.742188 356.390625 L 161.839844 357.359375 L 165.933594 358.054688 L 170.03125 358.480469 L 174.128906 358.652344 L 178.226562 358.574219 L 182.320312 358.253906 L 186.417969 357.707031 L 190.515625 356.9375 L 194.613281 355.957031 L 198.707031 354.769531 L 202.804688 353.390625 L 206.902344 351.828125 L 211 350.085938 L 215.09375 348.179688 L 219.191406 346.113281 L 223.289062 343.898438 L 227.382812 341.542969 L 231.480469 339.054688 L 235.578125 336.449219 L 239.675781 333.726562 L 243.769531 330.902344 L 247.867188 327.980469 L 251.964844 324.972656 L 256.0625 321.890625 L 260.15625 318.742188 L 264.253906 315.53125 L 268.351562 312.273438 L 272.449219 308.972656 L 276.542969 305.640625 L 280.640625 302.285156 L 284.738281 298.917969 L 288.832031 295.546875 L 292.929688 292.175781 L 297.027344 288.824219 L 301.125 285.488281 L 305.21875 282.1875 L 309.316406 278.929688 L 313.414062 275.71875 L 317.511719 272.566406 L 321.605469 269.484375 L 325.703125 266.476562 L 329.800781 263.554688 L 333.898438 260.726562 L 337.992188 258.003906 L 342.089844 255.390625 L 346.1875 252.902344 L 350.285156 250.546875 L 354.378906 248.328125 L 358.476562 246.257812 L 362.574219 244.347656 L 366.667969 242.605469 L 370.765625 241.035156 L 374.863281 239.652344 L 378.960938 238.464844 L 383.054688 237.480469 L 387.152344 236.707031 L 391.25 236.152344 L 395.347656 235.832031 L 399.441406 235.75 L 403.539062 235.914062 L 407.636719 236.335938 "/>
<path fill="none" stroke-width="2.133957" stroke-linecap="butt" stroke-linejoin="round" stroke="rgb(0%, 0%, 0%)" stroke-opacity="1" stroke-miterlimit="10" d="M 421.480469 185.324219 L 425.582031 183.410156 L 429.683594 181.46875 L 433.785156 179.507812 L 437.886719 177.523438 L 441.988281 175.519531 L 446.089844 173.492188 L 450.191406 171.449219 L 454.292969 169.386719 L 458.394531 167.308594 L 462.492188 165.210938 L 466.59375 163.105469 L 470.695312 160.980469 L 474.796875 158.84375 L 478.898438 156.699219 L 483 154.539062 L 487.101562 152.371094 L 491.203125 150.195312 L 495.304688 148.011719 L 499.40625 145.820312 L 503.503906 143.625 L 507.605469 141.425781 L 511.707031 139.222656 L 532.214844 128.1875 L 536.316406 125.984375 L 540.417969 123.785156 L 544.519531 121.589844 L 548.617188 119.402344 L 552.71875 117.222656 L 556.820312 115.046875 L 560.921875 112.882812 L 565.023438 110.726562 L 569.125 108.582031 L 573.226562 106.449219 L 577.328125 104.328125 L 581.429688 102.222656 L 585.53125 100.132812 L 589.632812 98.058594 L 593.730469 96 L 597.832031 93.960938 L 601.933594 91.941406 L 606.035156 89.941406 L 610.136719 87.960938 L 614.238281 86.003906 L 618.339844 84.070312 L 622.441406 82.160156 L 626.542969 80.277344 L 630.644531 78.417969 L 634.746094 76.585938 L 638.84375 74.785156 L 642.945312 73.011719 L 647.046875 71.269531 L 651.148438 69.554688 L 655.25 67.878906 L 659.351562 66.230469 L 663.453125 64.621094 L 667.554688 63.042969 L 671.65625 61.503906 L 675.757812 60.003906 L 679.859375 58.539062 L 683.957031 57.117188 L 688.058594 55.734375 L 692.160156 54.390625 L 696.261719 53.09375 L 700.363281 51.835938 L 704.464844 50.628906 L 708.566406 49.460938 L 712.667969 48.34375 L 716.769531 47.273438 L 720.871094 46.253906 L 724.972656 45.28125 L 729.070312 44.359375 L 733.171875 43.492188 L 737.273438 42.675781 L 741.375 41.914062 L 745.476562 41.207031 "/>
<path fill-rule="nonzero" fill="rgb(0%, 0%, 0%)" fill-opacity="1" d="M 390.886719 448.636719 L 390.5 448.628906 L 390.125 448.605469 L 389.757812 448.570312 L 389.398438 448.515625 L 389.050781 448.449219 L 388.707031 448.367188 L 388.375 448.265625 L 388.050781 448.152344 L 387.734375 448.023438 L 387.429688 447.882812 L 387.132812 447.726562 L 386.84375 447.5625 L 386.5625 447.390625 L 386.292969 447.210938 L 386.03125 447.023438 L 385.78125 446.828125 L 385.539062 446.625 L 385.304688 446.414062 L 385.078125 446.191406 L 384.863281 445.964844 L 385.675781 445.101562 L 385.871094 445.3125 L 386.078125 445.515625 L 386.292969 445.710938 L 386.511719 445.898438 L 386.742188 446.078125 L 386.976562 446.25 L 387.21875 446.414062 L 387.472656 446.570312 L 387.730469 446.714844 L 387.996094 446.855469 L 388.269531 446.980469 L 388.542969 447.089844 L 388.824219 447.1875 L 389.105469 447.269531 L 389.394531 447.339844 L 389.683594 447.398438 L 389.980469 447.445312 L 390.277344 447.476562 L 390.578125 447.496094 L 390.886719 447.503906 L 391.285156 447.492188 L 391.671875 447.464844 L 392.039062 447.414062 L 392.386719 447.34375 L 392.722656 447.253906 L 393.035156 447.144531 L 393.335938 447.015625 L 393.617188 446.863281 L 393.878906 446.695312 L 394.125 446.503906 L 394.351562 446.300781 L 394.554688 446.082031 L 394.730469 445.855469 L 394.886719 445.613281 L 395.015625 445.363281 L 395.125 445.101562 L 395.207031 444.828125 L 395.265625 444.542969 L 395.300781 444.246094 L 395.3125 443.9375 L 395.308594 443.722656 L 395.296875 443.515625 L 395.273438 443.3125 L 395.246094 443.121094 L 395.207031 442.941406 L 395.15625 442.765625 L 395.101562 442.601562 L 395.035156 442.445312 L 394.964844 442.296875 L 394.882812 442.15625 L 394.792969 442.023438 L 394.695312 441.898438 L 394.59375 441.773438 L 394.488281 441.65625 L 394.375 441.542969 L 394.257812 441.433594 L 394.132812 441.332031 L 394 441.234375 L 393.863281 441.140625 L 393.71875 441.050781 L 393.578125 440.960938 L 393.433594 440.871094 L 393.28125 440.78125 L 393.128906 440.695312 L 392.972656 440.613281 L 392.808594 440.527344 L 392.644531 440.449219 L 392.476562 440.367188 L 392.304688 440.289062 L 392.128906 440.214844 L 389.425781 439 L 389.121094 438.851562 L 388.964844 438.773438 L 388.804688 438.691406 L 388.644531 438.605469 L 388.480469 438.519531 L 388.316406 438.425781 L 388.148438 438.332031 L 387.980469 438.234375 L 387.808594 438.132812 L 387.640625 438.023438 L 387.480469 437.90625 L 387.328125 437.785156 L 387.175781 437.65625 L 387.03125 437.519531 L 386.890625 437.378906 L 386.753906 437.234375 L 386.625 437.082031 L 386.496094 436.921875 L 386.375 436.757812 L 386.269531 436.578125 L 386.171875 436.394531 L 386.085938 436.199219 L 386.011719 435.992188 L 385.949219 435.777344 L 385.898438 435.554688 L 385.859375 435.324219 L 385.832031 435.082031 L 385.816406 434.832031 L 385.808594 434.570312 L 385.816406 434.316406 L 385.835938 434.066406 L 385.871094 433.820312 L 385.917969 433.585938 L 385.976562 433.355469 L 386.050781 433.132812 L 386.140625 432.914062 L 386.242188 432.703125 L 386.355469 432.5 L 386.484375 432.300781 L 386.625 432.105469 L 386.773438 431.921875 L 386.933594 431.746094 L 387.101562 431.578125 L 387.28125 431.417969 L 387.46875 431.269531 L 387.667969 431.128906 L 387.875 430.996094 L 388.09375 430.875 L 388.320312 430.761719 L 388.5625 430.65625 L 388.808594 430.558594 L 389.058594 430.472656 L 389.316406 430.402344 L 389.582031 430.339844 L 389.851562 430.289062 L 390.128906 430.246094 L 390.410156 430.21875 L 390.699219 430.203125 L 390.992188 430.195312 L 391.308594 430.203125 L 391.617188 430.222656 L 391.921875 430.253906 L 392.214844 430.300781 L 392.503906 430.359375 L 392.789062 430.429688 L 393.066406 430.515625 L 393.335938 430.609375 L 393.597656 430.722656 L 393.855469 430.84375 L 394.105469 430.972656 L 394.34375 431.101562 L 394.574219 431.238281 L 394.796875 431.378906 L 395.007812 431.527344 L 395.210938 431.675781 L 395.40625 431.832031 L 395.59375 431.992188 L 395.769531 432.160156 L 395.933594 432.328125 L 395.230469 433.140625 L 395.074219 432.980469 L 394.910156 432.828125 L 394.738281 432.683594 L 394.5625 432.542969 L 394.382812 432.410156 L 394.195312 432.285156 L 394.003906 432.164062 L 393.808594 432.050781 L 393.605469 431.945312 L 393.394531 431.84375 L 393.183594 431.746094 L 392.964844 431.660156 L 392.738281 431.582031 L 392.507812 431.515625 L 392.269531 431.457031 L 392.027344 431.414062 L 391.777344 431.375 L 391.519531 431.351562 L 391.261719 431.335938 L 390.992188 431.332031 L 390.648438 431.339844 L 390.316406 431.363281 L 390 431.40625 L 389.691406 431.46875 L 389.398438 431.546875 L 389.121094 431.640625 L 388.855469 431.753906 L 388.601562 431.882812 L 388.359375 432.03125 L 388.132812 432.195312 L 387.925781 432.375 L 387.742188 432.5625 L 387.582031 432.765625 L 387.441406 432.980469 L 387.320312 433.207031 L 387.222656 433.445312 L 387.148438 433.695312 L 387.09375 433.957031 L 387.0625 434.230469 L 387.050781 434.515625 L 387.054688 434.71875 L 387.070312 434.910156 L 387.09375 435.097656 L 387.128906 435.277344 L 387.171875 435.449219 L 387.226562 435.613281 L 387.289062 435.769531 L 387.363281 435.917969 L 387.445312 436.058594 L 387.539062 436.191406 L 387.640625 436.316406 L 387.75 436.441406 L 387.863281 436.558594 L 387.976562 436.671875 L 388.097656 436.777344 L 388.347656 436.980469 L 388.613281 437.160156 L 388.753906 437.242188 L 388.898438 437.324219 L 389.039062 437.402344 L 389.183594 437.476562 L 389.324219 437.550781 L 389.597656 437.691406 L 389.734375 437.757812 L 389.867188 437.824219 L 390 437.886719 L 390.128906 437.945312 L 392.828125 439.132812 L 393.027344 439.222656 L 393.222656 439.3125 L 393.414062 439.40625 L 393.601562 439.503906 L 393.789062 439.605469 L 394.148438 439.816406 L 394.324219 439.929688 L 394.496094 440.042969 L 394.664062 440.160156 L 394.835938 440.277344 L 394.996094 440.398438 L 395.152344 440.527344 L 395.300781 440.664062 L 395.441406 440.808594 L 395.574219 440.957031 L 395.703125 441.113281 L 395.824219 441.273438 L 395.9375 441.441406 L 396.042969 441.617188 L 396.144531 441.796875 L 396.238281 441.984375 L 396.316406 442.183594 L 396.386719 442.390625 L 396.449219 442.609375 L 396.496094 442.839844 L 396.535156 443.078125 L 396.5625 443.328125 L 396.578125 443.589844 L 396.582031 443.859375 L 396.574219 444.125 L 396.554688 444.390625 L 396.519531 444.648438 L 396.46875 444.898438 L 396.40625 445.148438 L 396.328125 445.390625 L 396.238281 445.628906 L 396.132812 445.863281 L 396.011719 446.089844 L 395.878906 446.316406 L 395.734375 446.527344 L 395.574219 446.730469 L 395.40625 446.921875 L 395.222656 447.105469 L 395.03125 447.28125 L 394.824219 447.445312 L 394.605469 447.601562 L 394.375 447.75 L 394.136719 447.886719 L 393.882812 448.015625 L 393.625 448.132812 L 393.355469 448.238281 L 393.078125 448.332031 L 392.792969 448.414062 L 392.5 448.480469 L 392.195312 448.539062 L 391.878906 448.582031 L 391.558594 448.613281 L 391.226562 448.632812 Z M 390.886719 448.636719 "/>
<path fill-rule="nonzero" fill="rgb(0%, 0%, 0%)" fill-opacity="1" d="M 404.980469 448.636719 L 404.648438 448.628906 L 404.324219 448.605469 L 404.003906 448.566406 L 403.691406 448.511719 L 403.386719 448.441406 L 403.085938 448.355469 L 402.792969 448.253906 L 402.507812 448.136719 L 402.230469 448.003906 L 401.957031 447.855469 L 401.695312 447.683594 L 401.449219 447.503906 L 401.210938 447.304688 L 400.984375 447.09375 L 400.765625 446.867188 L 400.5625 446.628906 L 400.367188 446.375 L 400.183594 446.109375 L 400.011719 445.828125 L 399.847656 445.53125 L 399.707031 445.21875 L 399.578125 444.894531 L 399.464844 444.554688 L 399.367188 444.207031 L 399.28125 443.84375 L 399.214844 443.472656 L 399.160156 443.085938 L 399.125 442.691406 L 399.101562 442.28125 L 399.09375 441.859375 L 399.101562 441.429688 L 399.125 441.011719 L 399.167969 440.609375 L 399.222656 440.21875 L 399.296875 439.84375 L 399.386719 439.480469 L 399.488281 439.128906 L 399.613281 438.792969 L 399.75 438.46875 L 399.902344 438.160156 L 400.074219 437.859375 L 400.257812 437.574219 L 400.453125 437.304688 L 400.65625 437.050781 L 400.867188 436.8125 L 401.09375 436.585938 L 401.328125 436.378906 L 401.570312 436.183594 L 401.824219 436.003906 L 402.089844 435.839844 L 402.363281 435.683594 L 402.640625 435.546875 L 402.917969 435.425781 L 403.203125 435.320312 L 403.496094 435.230469 L 403.789062 435.160156 L 404.085938 435.101562 L 404.386719 435.0625 L 404.695312 435.039062 L 405.007812 435.03125 L 405.273438 435.035156 L 405.527344 435.050781 L 405.773438 435.074219 L 406.011719 435.105469 L 406.242188 435.152344 L 406.460938 435.203125 L 406.671875 435.265625 L 406.871094 435.339844 L 407.066406 435.421875 L 407.246094 435.515625 L 407.421875 435.613281 L 407.59375 435.714844 L 407.761719 435.820312 L 407.925781 435.925781 L 408.085938 436.035156 L 408.390625 436.261719 L 408.535156 436.378906 L 408.675781 436.5 L 408.8125 436.621094 L 408.109375 437.460938 L 407.984375 437.34375 L 407.859375 437.230469 L 407.726562 437.121094 L 407.59375 437.019531 L 407.457031 436.917969 L 407.316406 436.824219 L 407.175781 436.734375 L 407.03125 436.648438 L 406.882812 436.566406 L 406.734375 436.488281 L 406.582031 436.410156 L 406.425781 436.339844 L 406.265625 436.28125 L 406.097656 436.226562 L 405.929688 436.183594 L 405.757812 436.148438 L 405.582031 436.117188 L 405.402344 436.097656 L 405.21875 436.085938 L 405.035156 436.082031 L 404.769531 436.089844 L 404.515625 436.113281 L 404.261719 436.148438 L 404.015625 436.199219 L 403.769531 436.265625 L 403.53125 436.34375 L 403.300781 436.441406 L 403.070312 436.550781 L 402.847656 436.671875 L 402.628906 436.8125 L 402.425781 436.964844 L 402.226562 437.125 L 402.039062 437.300781 L 401.855469 437.484375 L 401.683594 437.683594 L 401.523438 437.890625 L 401.367188 438.109375 L 401.222656 438.339844 L 401.085938 438.582031 L 400.957031 438.835938 L 400.839844 439.101562 L 400.734375 439.371094 L 400.640625 439.652344 L 400.558594 439.941406 L 400.492188 440.242188 L 400.433594 440.546875 L 400.390625 440.863281 L 400.359375 441.1875 L 400.339844 441.519531 L 400.335938 441.859375 L 400.339844 442.195312 L 400.359375 442.523438 L 400.386719 442.84375 L 400.425781 443.15625 L 400.476562 443.460938 L 400.539062 443.753906 L 400.613281 444.042969 L 400.699219 444.324219 L 400.792969 444.59375 L 400.902344 444.859375 L 401.027344 445.105469 L 401.160156 445.34375 L 401.300781 445.570312 L 401.449219 445.785156 L 401.609375 445.992188 L 401.78125 446.1875 L 401.957031 446.371094 L 402.144531 446.542969 L 402.34375 446.703125 L 402.550781 446.855469 L 402.769531 446.992188 L 402.996094 447.117188 L 403.226562 447.226562 L 403.464844 447.320312 L 403.710938 447.402344 L 403.960938 447.46875 L 404.21875 447.519531 L 404.484375 447.554688 L 404.753906 447.578125 L 405.035156 447.585938 L 405.238281 447.582031 L 405.4375 447.566406 L 405.632812 447.546875 L 405.828125 447.515625 L 406.019531 447.476562 L 406.207031 447.429688 L 406.390625 447.371094 L 406.570312 447.308594 L 406.75 447.234375 L 406.921875 447.152344 L 407.097656 447.058594 L 407.269531 446.964844 L 407.4375 446.863281 L 407.601562 446.761719 L 407.761719 446.660156 L 407.914062 446.554688 L 408.066406 446.445312 L 408.210938 446.332031 L 408.351562 446.21875 L 408.488281 446.097656 L 409.109375 446.9375 L 408.941406 447.078125 L 408.769531 447.21875 L 408.589844 447.351562 L 408.410156 447.480469 L 408.226562 447.605469 L 408.039062 447.722656 L 407.847656 447.839844 L 407.648438 447.949219 L 407.449219 448.050781 L 407.246094 448.152344 L 407.039062 448.242188 L 406.828125 448.328125 L 406.613281 448.398438 L 406.390625 448.460938 L 406.167969 448.515625 L 405.9375 448.558594 L 405.703125 448.59375 L 405.46875 448.617188 L 405.226562 448.632812 Z M 404.980469 448.636719 "/>
<path fill-rule="nonzero" fill="rgb(0%, 0%, 0%)" fill-opacity="1" d="M 417.019531 448.636719 L 416.714844 448.628906 L 416.414062 448.605469 L 416.117188 448.566406 L 415.824219 448.511719 L 415.535156 448.441406 L 415.253906 448.355469 L 414.972656 448.253906 L 414.695312 448.136719 L 414.425781 448.003906 L 414.160156 447.855469 L 413.898438 447.683594 L 413.652344 447.503906 L 413.410156 447.304688 L 413.183594 447.09375 L 412.964844 446.867188 L 412.757812 446.628906 L 412.558594 446.375 L 412.371094 446.109375 L 412.195312 445.828125 L 412.027344 445.53125 L 411.871094 445.21875 L 411.734375 444.894531 L 411.613281 444.554688 L 411.507812 444.207031 L 411.417969 443.84375 L 411.347656 443.472656 L 411.289062 443.085938 L 411.25 442.691406 L 411.222656 442.28125 L 411.214844 441.859375 L 411.222656 441.429688 L 411.25 441.011719 L 411.289062 440.609375 L 411.347656 440.21875 L 411.417969 439.84375 L 411.507812 439.480469 L 411.613281 439.128906 L 411.734375 438.792969 L 411.871094 438.46875 L 412.027344 438.160156 L 412.195312 437.859375 L 412.371094 437.574219 L 412.558594 437.304688 L 412.757812 437.050781 L 412.964844 436.8125 L 413.183594 436.585938 L 413.410156 436.378906 L 413.652344 436.183594 L 413.898438 436.003906 L 414.160156 435.839844 L 414.425781 435.683594 L 414.695312 435.546875 L 414.972656 435.425781 L 415.253906 435.320312 L 415.535156 435.230469 L 415.824219 435.160156 L 416.117188 435.101562 L 416.414062 435.0625 L 416.714844 435.039062 L 417.019531 435.03125 L 417.332031 435.039062 L 417.636719 435.0625 L 417.9375 435.101562 L 418.234375 435.160156 L 418.527344 435.230469 L 418.8125 435.320312 L 419.09375 435.425781 L 419.371094 435.546875 L 419.644531 435.683594 L 419.910156 435.839844 L 420.167969 436.003906 L 420.417969 436.183594 L 420.65625 436.378906 L 420.886719 436.585938 L 421.105469 436.8125 L 421.3125 437.050781 L 421.511719 437.304688 L 421.699219 437.574219 L 421.875 437.859375 L 422.042969 438.160156 L 422.195312 438.46875 L 422.335938 438.792969 L 422.457031 439.128906 L 422.5625 439.480469 L 422.652344 439.84375 L 422.722656 440.21875 L 422.78125 440.609375 L 422.820312 441.011719 L 422.84375 441.429688 L 422.851562 441.859375 L 422.84375 442.28125 L 422.820312 442.691406 L 422.78125 443.085938 L 422.722656 443.472656 L 422.652344 443.84375 L 422.5625 444.207031 L 422.457031 444.554688 L 422.335938 444.894531 L 422.195312 445.21875 L 422.042969 445.53125 L 421.875 445.828125 L 421.699219 446.109375 L 421.511719 446.375 L 421.3125 446.628906 L 421.105469 446.867188 L 420.886719 447.09375 L 420.65625 447.304688 L 420.417969 447.503906 L 420.167969 447.683594 L 419.910156 447.855469 L 419.644531 448.003906 L 419.371094 448.136719 L 419.09375 448.253906 L 418.8125 448.355469 L 418.527344 448.441406 L 418.234375 448.511719 L 417.9375 448.566406 L 417.636719 448.605469 L 417.332031 448.628906 Z M 417.019531 447.585938 L 417.28125 447.578125 L 417.539062 447.554688 L 417.789062 447.519531 L 418.03125 447.46875 L 418.269531 447.402344 L 418.503906 447.320312 L 418.726562 447.226562 L 418.949219 447.117188 L 419.164062 446.992188 L 419.371094 446.855469 L 419.570312 446.703125 L 419.761719 446.542969 L 419.945312 446.371094 L 420.121094 446.1875 L 420.289062 445.992188 L 420.445312 445.785156 L 420.59375 445.570312 L 420.734375 445.34375 L 420.867188 445.105469 L 420.992188 444.859375 L 421.109375 444.59375 L 421.214844 444.324219 L 421.308594 444.042969 L 421.386719 443.753906 L 421.457031 443.460938 L 421.511719 443.15625 L 421.554688 442.84375 L 421.585938 442.523438 L 421.605469 442.195312 L 421.609375 441.859375 L 421.605469 441.519531 L 421.585938 441.1875 L 421.554688 440.863281 L 421.511719 440.546875 L 421.457031 440.242188 L 421.386719 439.941406 L 421.308594 439.652344 L 421.214844 439.371094 L 421.109375 439.101562 L 420.992188 438.835938 L 420.867188 438.582031 L 420.734375 438.339844 L 420.59375 438.109375 L 420.445312 437.890625 L 420.289062 437.683594 L 420.121094 437.484375 L 419.945312 437.300781 L 419.761719 437.125 L 419.570312 436.964844 L 419.371094 436.8125 L 419.164062 436.671875 L 418.949219 436.550781 L 418.726562 436.441406 L 418.503906 436.34375 L 418.269531 436.265625 L 418.03125 436.199219 L 417.789062 436.148438 L 417.539062 436.113281 L 417.28125 436.089844 L 417.019531 436.082031 L 416.765625 436.089844 L 416.511719 436.113281 L 416.265625 436.148438 L 416.023438 436.199219 L 415.785156 436.265625 L 415.554688 436.34375 L 415.324219 436.441406 L 415.101562 436.550781 L 414.886719 436.671875 L 414.671875 436.8125 L 414.472656 436.964844 L 414.277344 437.125 L 414.09375 437.300781 L 413.921875 437.484375 L 413.753906 437.683594 L 413.597656 437.890625 L 413.449219 438.109375 L 413.308594 438.339844 L 413.175781 438.582031 L 413.050781 438.835938 L 412.9375 439.101562 L 412.839844 439.371094 L 412.75 439.652344 L 412.671875 439.941406 L 412.605469 440.242188 L 412.554688 440.546875 L 412.511719 440.863281 L 412.480469 441.1875 L 412.464844 441.519531 L 412.457031 441.859375 L 412.464844 442.195312 L 412.480469 442.523438 L 412.511719 442.84375 L 412.554688 443.15625 L 412.605469 443.460938 L 412.671875 443.753906 L 412.75 444.042969 L 412.839844 444.324219 L 412.9375 444.59375 L 413.050781 444.859375 L 413.175781 445.105469 L 413.308594 445.34375 L 413.449219 445.570312 L 413.597656 445.785156 L 413.753906 445.992188 L 413.921875 446.1875 L 414.09375 446.371094 L 414.277344 446.542969 L 414.472656 446.703125 L 414.671875 446.855469 L 414.886719 446.992188 L 415.101562 447.117188 L 415.324219 447.226562 L 415.554688 447.320312 L 415.785156 447.402344 L 416.023438 447.46875 L 416.265625 447.519531 L 416.511719 447.554688 L 416.765625 447.578125 Z M 417.019531 447.585938 "/>
<path fill-rule="nonzero" fill="rgb(0%, 0%, 0%)" fill-opacity="1" d="M 426.742188 448.3125 L 426.742188 435.351562 L 427.765625 435.351562 L 427.875 437.757812 L 427.957031 437.757812 L 428.089844 437.523438 L 428.226562 437.296875 L 428.371094 437.082031 L 428.519531 436.875 L 428.671875 436.675781 L 428.832031 436.488281 L 428.996094 436.304688 L 429.164062 436.132812 L 429.339844 435.96875 L 429.523438 435.8125 L 429.714844 435.664062 L 429.910156 435.53125 L 430.109375 435.414062 L 430.3125 435.3125 L 430.519531 435.226562 L 430.734375 435.15625 L 430.949219 435.101562 L 431.171875 435.0625 L 431.398438 435.039062 L 431.628906 435.03125 L 431.777344 435.03125 L 431.917969 435.039062 L 431.984375 435.042969 L 432.050781 435.050781 L 432.117188 435.054688 L 432.179688 435.0625 L 432.242188 435.074219 L 432.304688 435.082031 L 432.363281 435.09375 L 432.421875 435.109375 L 432.484375 435.125 L 432.546875 435.144531 L 432.605469 435.164062 L 432.730469 435.210938 L 432.796875 435.238281 L 432.859375 435.269531 L 432.925781 435.300781 L 432.652344 436.378906 L 432.589844 436.355469 L 432.527344 436.328125 L 432.46875 436.308594 L 432.40625 436.289062 L 432.351562 436.269531 L 432.292969 436.257812 L 432.242188 436.242188 L 432.1875 436.234375 L 432.136719 436.222656 L 432.085938 436.21875 L 432.039062 436.207031 L 431.929688 436.191406 L 431.871094 436.183594 L 431.808594 436.175781 L 431.746094 436.171875 L 431.613281 436.164062 L 431.464844 436.164062 L 431.292969 436.171875 L 431.117188 436.195312 L 430.9375 436.230469 L 430.757812 436.285156 L 430.574219 436.351562 L 430.390625 436.4375 L 430.203125 436.535156 L 430.015625 436.648438 L 429.824219 436.777344 L 429.628906 436.917969 L 429.441406 437.078125 L 429.261719 437.253906 L 429.082031 437.457031 L 428.90625 437.679688 L 428.734375 437.925781 L 428.5625 438.191406 L 428.398438 438.484375 L 428.238281 438.792969 L 428.082031 439.128906 L 427.929688 439.484375 L 427.929688 448.3125 Z M 426.742188 448.3125 "/>
<path fill-rule="nonzero" fill="rgb(0%, 0%, 0%)" fill-opacity="1" d="M 440.214844 448.636719 L 439.886719 448.628906 L 439.566406 448.605469 L 439.25 448.566406 L 438.941406 448.507812 L 438.636719 448.433594 L 438.335938 448.347656 L 438.039062 448.242188 L 437.75 448.117188 L 437.46875 447.980469 L 437.191406 447.828125 L 436.925781 447.660156 L 436.671875 447.476562 L 436.429688 447.277344 L 436.195312 447.066406 L 435.976562 446.84375 L 435.765625 446.601562 L 435.566406 446.347656 L 435.375 446.082031 L 435.199219 445.800781 L 435.03125 445.503906 L 434.875 445.191406 L 434.738281 444.867188 L 434.617188 444.53125 L 434.511719 444.183594 L 434.421875 443.824219 L 434.351562 443.453125 L 434.292969 443.074219 L 434.253906 442.679688 L 434.226562 442.277344 L 434.21875 441.859375 L 434.226562 441.441406 L 434.253906 441.03125 L 434.292969 440.636719 L 434.351562 440.253906 L 434.421875 439.882812 L 434.511719 439.523438 L 434.617188 439.179688 L 434.738281 438.84375 L 434.875 438.523438 L 435.03125 438.214844 L 435.195312 437.914062 L 435.375 437.628906 L 435.558594 437.359375 L 435.757812 437.101562 L 435.960938 436.859375 L 436.175781 436.632812 L 436.402344 436.417969 L 436.636719 436.21875 L 436.882812 436.035156 L 437.136719 435.867188 L 437.398438 435.707031 L 437.660156 435.566406 L 437.925781 435.441406 L 438.195312 435.332031 L 438.464844 435.238281 L 438.738281 435.164062 L 439.015625 435.105469 L 439.296875 435.0625 L 439.578125 435.039062 L 439.863281 435.03125 L 440.316406 435.046875 L 440.753906 435.09375 L 441.167969 435.171875 L 441.5625 435.28125 L 441.933594 435.421875 L 442.289062 435.59375 L 442.625 435.796875 L 442.9375 436.03125 L 443.234375 436.296875 L 443.507812 436.59375 L 443.757812 436.921875 L 443.984375 437.273438 L 444.183594 437.652344 L 444.355469 438.054688 L 444.5 438.484375 L 444.621094 438.941406 L 444.710938 439.421875 L 444.777344 439.929688 L 444.816406 440.464844 L 444.832031 441.023438 L 444.832031 441.121094 L 444.828125 441.167969 L 444.828125 441.21875 L 444.824219 441.265625 L 444.820312 441.316406 L 444.816406 441.363281 L 444.8125 441.414062 L 444.804688 441.507812 L 444.804688 441.558594 L 444.800781 441.605469 L 444.800781 441.65625 L 444.796875 441.703125 L 444.789062 441.753906 L 444.785156 441.800781 L 444.777344 441.851562 L 444.761719 441.945312 L 444.75 441.996094 L 435.433594 441.996094 L 435.445312 442.316406 L 435.46875 442.628906 L 435.503906 442.9375 L 435.546875 443.234375 L 435.605469 443.527344 L 435.671875 443.8125 L 435.75 444.089844 L 435.839844 444.363281 L 435.941406 444.628906 L 436.054688 444.882812 L 436.183594 445.132812 L 436.324219 445.371094 L 436.46875 445.597656 L 436.625 445.8125 L 436.792969 446.019531 L 436.964844 446.210938 L 437.152344 446.394531 L 437.34375 446.570312 L 437.546875 446.730469 L 437.757812 446.882812 L 437.980469 447.019531 L 438.214844 447.144531 L 438.453125 447.253906 L 438.699219 447.347656 L 438.953125 447.429688 L 439.210938 447.496094 L 439.480469 447.546875 L 439.753906 447.582031 L 440.035156 447.605469 L 440.324219 447.613281 L 440.53125 447.609375 L 440.734375 447.597656 L 440.933594 447.582031 L 441.128906 447.558594 L 441.320312 447.53125 L 441.507812 447.496094 L 441.691406 447.453125 L 441.867188 447.402344 L 442.042969 447.347656 L 442.210938 447.289062 L 442.382812 447.222656 L 442.71875 447.074219 L 442.882812 446.996094 L 443.042969 446.917969 L 443.199219 446.832031 L 443.355469 446.742188 L 443.507812 446.648438 L 443.65625 446.550781 L 443.804688 446.449219 L 444.292969 447.367188 L 444.136719 447.460938 L 443.980469 447.550781 L 443.820312 447.640625 L 443.65625 447.726562 L 443.488281 447.8125 L 443.316406 447.898438 L 443.140625 447.984375 L 442.960938 448.066406 L 442.777344 448.152344 L 442.589844 448.234375 L 442.394531 448.308594 L 442.191406 448.378906 L 441.980469 448.4375 L 441.757812 448.492188 L 441.523438 448.535156 L 441.28125 448.574219 L 441.027344 448.601562 L 440.765625 448.621094 L 440.496094 448.632812 Z M 435.433594 441.023438 L 443.699219 441.023438 L 443.6875 440.539062 L 443.65625 440.078125 L 443.605469 439.644531 L 443.53125 439.234375 L 443.441406 438.851562 L 443.328125 438.488281 L 443.195312 438.15625 L 443.039062 437.84375 L 442.867188 437.558594 L 442.671875 437.296875 L 442.457031 437.0625 L 442.230469 436.851562 L 441.988281 436.664062 L 441.734375 436.503906 L 441.464844 436.367188 L 441.175781 436.253906 L 440.878906 436.167969 L 440.5625 436.105469 L 440.234375 436.066406 L 439.890625 436.054688 L 439.671875 436.0625 L 439.453125 436.078125 L 439.238281 436.109375 L 439.027344 436.152344 L 438.816406 436.203125 L 438.609375 436.269531 L 438.40625 436.347656 L 438.207031 436.4375 L 438.007812 436.535156 L 437.8125 436.648438 L 437.625 436.773438 L 437.445312 436.90625 L 437.269531 437.050781 L 437.101562 437.207031 L 436.941406 437.371094 L 436.785156 437.546875 L 436.632812 437.730469 L 436.488281 437.929688 L 436.351562 438.132812 L 436.21875 438.351562 L 436.09375 438.578125 L 435.980469 438.8125 L 435.875 439.054688 L 435.78125 439.308594 L 435.699219 439.570312 L 435.625 439.84375 L 435.5625 440.125 L 435.511719 440.414062 L 435.46875 440.714844 Z M 435.433594 441.023438 "/>
<path fill-rule="nonzero" fill="rgb(0%, 0%, 0%)" fill-opacity="1" d="M 31.242188 215.894531 L 24.035156 215.894531 L 13.449219 221.214844 L 13.449219 219.890625 L 19.011719 217.191406 L 19.207031 217.097656 L 19.398438 217.007812 L 19.59375 216.914062 L 19.785156 216.824219 L 19.976562 216.730469 L 20.167969 216.640625 L 20.359375 216.546875 L 20.550781 216.457031 L 20.738281 216.363281 L 20.929688 216.273438 L 21.117188 216.179688 L 21.691406 215.898438 L 22.277344 215.605469 L 22.476562 215.503906 L 22.671875 215.402344 L 22.871094 215.300781 L 22.871094 215.191406 L 22.671875 215.089844 L 22.476562 214.988281 L 22.277344 214.886719 L 22.082031 214.785156 L 21.886719 214.6875 L 21.691406 214.585938 L 21.117188 214.292969 L 20.929688 214.195312 L 20.738281 214.097656 L 20.550781 214 L 20.167969 213.8125 L 19.976562 213.722656 L 19.785156 213.628906 L 19.59375 213.539062 L 19.398438 213.449219 L 19.207031 213.363281 L 19.011719 213.277344 L 13.449219 210.574219 L 13.449219 209.308594 L 24.035156 214.652344 L 31.242188 214.652344 Z M 31.242188 215.894531 "/>
</svg>
