<?xml version="1.0" encoding="UTF-8"?>
<svg xmlns="http://www.w3.org/2000/svg" xmlns:xlink="http://www.w3.org/1999/xlink" width="626" height="396" viewBox="0 0 626 396">
<defs>
<clipPath id="clip-0">
<path clip-rule="nonzero" d="M 68.285156 13.449219 L 612.550781 13.449219 L 612.550781 275.171875 L 68.285156 275.171875 Z M 68.285156 13.449219 "/>
</clipPath>
<clipPath id="clip-1">
<path clip-rule="nonzero" d="M 68.285156 261 L 612.550781 261 L 612.550781 265 L 68.285156 265 Z M 68.285156 261 "/>
</clipPath>
<clipPath id="clip-2">
<path clip-rule="nonzero" d="M 68.285156 202 L 612.550781 202 L 612.550781 206 L 68.285156 206 Z M 68.285156 202 "/>
</clipPath>
<clipPath id="clip-3">
<path clip-rule="nonzero" d="M 68.285156 143 L 612.550781 143 L 612.550781 146 L 68.285156 146 Z M 68.285156 143 "/>
</clipPath>
<clipPath id="clip-4">
<path clip-rule="nonzero" d="M 68.285156 83 L 612.550781 83 L 612.550781 87 L 68.285156 87 Z M 68.285156 83 "/>
</clipPath>
<clipPath id="clip-5">
<path clip-rule="nonzero" d="M 68.285156 24 L 612.550781 24 L 612.550781 27 L 68.285156 27 Z M 68.285156 24 "/>
</clipPath>
<clipPath id="clip-6">
<path clip-rule="nonzero" d="M 215 13.449219 L 219 13.449219 L 219 275.171875 L 215 275.171875 Z M 215 13.449219 "/>
</clipPath>
<clipPath id="clip-7">
<path clip-rule="nonzero" d="M 462 13.449219 L 466 13.449219 L 466 275.171875 L 462 275.171875 Z M 462 13.449219 "/>
</clipPath>
</defs>
<rect x="-62.6" y="-39.6" width="751.2" height="475.2" fill="rgb(100%, 100%, 100%)" fill-opacity="1"/>
<rect x="-62.6" y="-39.6" width="751.2" height="475.2" fill="rgb(95.294118%, 95.294118%, 95.294118%)" fill-opacity="1"/>
<path fill="none" stroke-width="2.618947" stroke-linecap="round" stroke-linejoin="round" stroke="rgb(95.294118%, 95.294118%, 95.294118%)" stroke-opacity="1" stroke-miterlimit="10" d="M 0 396 L 626 396 L 626 0 L 0 0 Z M 0 396 "/>
<g clip-path="url(#clip-0)">
<path fill-rule="nonzero" fill="rgb(95.294118%, 95.294118%, 95.294118%)" fill-opacity="1" stroke-width="2.618947" stroke-linecap="round" stroke-linejoin="round" stroke="rgb(95.294118%, 95.294118%, 95.294118%)" stroke-opacity="1" stroke-miterlimit="10" d="M 68.285156 275.171875 L 612.550781 275.171875 L 612.550781 13.449219 L 68.285156 13.449219 Z M 68.285156 275.171875 "/>
</g>
<g clip-path="url(#clip-1)">
<path fill="none" stroke-width="2.618947" stroke-linecap="butt" stroke-linejoin="round" stroke="rgb(92.156863%, 92.156863%, 92.156863%)" stroke-opacity="1" stroke-miterlimit="10" d="M 68.285156 263.277344 L 612.550781 263.277344 "/>
</g>
<g clip-path="url(#clip-2)">
<path fill="none" stroke-width="2.618947" stroke-linecap="butt" stroke-linejoin="round" stroke="rgb(92.156863%, 92.156863%, 92.156863%)" stroke-opacity="1" stroke-miterlimit="10" d="M 68.285156 203.792969 L 612.550781 203.792969 "/>
</g>
<g clip-path="url(#clip-3)">
<path fill="none" stroke-width="2.618947" stroke-linecap="butt" stroke-linejoin="round" stroke="rgb(92.156863%, 92.156863%, 92.156863%)" stroke-opacity="1" stroke-miterlimit="10" d="M 68.285156 144.3125 L 612.550781 144.3125 "/>
</g>
<g clip-path="url(#clip-4)">
<path fill="none" stroke-width="2.618947" stroke-linecap="butt" stroke-linejoin="round" stroke="rgb(92.156863%, 92.156863%, 92.156863%)" stroke-opacity="1" stroke-miterlimit="10" d="M 68.285156 84.828125 L 612.550781 84.828125 "/>
</g>
<g clip-path="url(#clip-5)">
<path fill="none" stroke-width="2.618947" stroke-linecap="butt" stroke-linejoin="round" stroke="rgb(92.156863%, 92.156863%, 92.156863%)" stroke-opacity="1" stroke-miterlimit="10" d="M 68.285156 25.347656 L 612.550781 25.347656 "/>
</g>
<g clip-path="url(#clip-6)">
<path fill="none" stroke-width="2.618947" stroke-linecap="butt" stroke-linejoin="round" stroke="rgb(92.156863%, 92.156863%, 92.156863%)" stroke-opacity="1" stroke-miterlimit="10" d="M 216.71875 275.171875 L 216.71875 13.449219 "/>
</g>
<g clip-path="url(#clip-7)">
<path fill="none" stroke-width="2.618947" stroke-linecap="butt" stroke-linejoin="round" stroke="rgb(92.156863%, 92.156863%, 92.156863%)" stroke-opacity="1" stroke-miterlimit="10" d="M 464.113281 275.171875 L 464.113281 13.449219 "/>
</g>
<path fill-rule="nonzero" fill="rgb(0%, 0%, 0%)" fill-opacity="1" stroke-width="0.708661" stroke-linecap="round" stroke-linejoin="round" stroke="rgb(0%, 0%, 0%)" stroke-opacity="1" stroke-miterlimit="10" d="M 223.050781 203.792969 C 223.050781 207.289062 220.214844 210.125 216.71875 210.125 C 213.226562 210.125 210.390625 207.289062 210.390625 203.792969 C 210.390625 200.296875 213.226562 197.464844 216.71875 197.464844 C 220.214844 197.464844 223.050781 200.296875 223.050781 203.792969 "/>
<path fill-rule="nonzero" fill="rgb(0%, 0%, 0%)" fill-opacity="1" stroke-width="0.708661" stroke-linecap="round" stroke-linejoin="round" stroke="rgb(0%, 0%, 0%)" stroke-opacity="1" stroke-miterlimit="10" d="M 470.445312 174.054688 C 470.445312 177.546875 467.609375 180.382812 464.113281 180.382812 C 460.617188 180.382812 457.785156 177.546875 457.785156 174.054688 C 457.785156 170.558594 460.617188 167.722656 464.113281 167.722656 C 467.609375 167.722656 470.445312 170.558594 470.445312 174.054688 "/>
<path fill-rule="nonzero" fill="rgb(56.078431%, 16.470588%, 26.27451%)" fill-opacity="1" stroke-width="0.708661" stroke-linecap="round" stroke-linejoin="round" stroke="rgb(56.078431%, 16.470588%, 26.27451%)" stroke-opacity="1" stroke-miterlimit="10" d="M 223.050781 144.3125 C 223.050781 147.808594 220.214844 150.640625 216.71875 150.640625 C 213.226562 150.640625 210.390625 147.808594 210.390625 144.3125 C 210.390625 140.816406 213.226562 137.980469 216.71875 137.980469 C 220.214844 137.980469 223.050781 140.816406 223.050781 144.3125 "/>
<path fill-rule="nonzero" fill="rgb(56.078431%, 16.470588%, 26.27451%)" fill-opacity="1" stroke-width="0.708661" stroke-linecap="round" stroke-linejoin="round" stroke="rgb(56.078431%, 16.470588%, 26.27451%)" stroke-opacity="1" stroke-miterlimit="10" d="M 470.445312 55.085938 C 470.445312 58.582031 467.609375 61.417969 464.113281 61.417969 C 460.617188 61.417969 457.785156 58.582031 457.785156 55.085938 C 457.785156 51.59375 460.617188 48.757812 464.113281 48.757812 C 467.609375 48.757812 470.445312 51.59375 470.445312 55.085938 "/>
<path fill="none" stroke-width="2.560748" stroke-linecap="butt" stroke-linejoin="round" stroke="rgb(0%, 0%, 0%)" stroke-opacity="1" stroke-miterlimit="10" d="M 216.71875 188.921875 L 464.113281 188.921875 "/>
<path fill="none" stroke-width="2.560748" stroke-linecap="butt" stroke-linejoin="round" stroke="rgb(56.078431%, 16.470588%, 26.27451%)" stroke-opacity="1" stroke-miterlimit="10" d="M 216.71875 99.699219 L 464.113281 99.699219 "/>
<path fill="none" stroke-width="1.707165" stroke-linecap="butt" stroke-linejoin="round" stroke="rgb(40%, 40%, 40%)" stroke-opacity="1" stroke-dasharray="1.707165 5.121496" stroke-miterlimit="10" d="M 216.71875 188.921875 L 216.71875 203.792969 "/>
<path fill="none" stroke-width="1.707165" stroke-linecap="butt" stroke-linejoin="round" stroke="rgb(40%, 40%, 40%)" stroke-opacity="1" stroke-dasharray="1.707165 5.121496" stroke-miterlimit="10" d="M 464.113281 188.921875 L 464.113281 174.054688 "/>
<path fill="none" stroke-width="1.707165" stroke-linecap="butt" stroke-linejoin="round" stroke="rgb(40%, 40%, 40%)" stroke-opacity="1" stroke-dasharray="1.707165 5.121496" stroke-miterlimit="10" d="M 216.71875 99.699219 L 216.71875 144.3125 "/>
<path fill="none" stroke-width="1.707165" stroke-linecap="butt" stroke-linejoin="round" stroke="rgb(40%, 40%, 40%)" stroke-opacity="1" stroke-dasharray="1.707165 5.121496" stroke-miterlimit="10" d="M 464.113281 99.699219 L 464.113281 55.085938 "/>
<path fill-rule="nonzero" fill="rgb(10.196078%, 10.196078%, 10.196078%)" fill-opacity="1" d="M 50.179688 271.816406 L 49.734375 271.792969 L 49.308594 271.726562 L 48.90625 271.617188 L 48.523438 271.464844 L 48.160156 271.269531 L 47.816406 271.03125 L 47.496094 270.75 L 47.195312 270.421875 L 46.914062 270.054688 L 46.65625 269.640625 L 46.417969 269.1875 L 46.203125 268.695312 L 46.015625 268.171875 L 45.855469 267.609375 L 45.71875 267.007812 L 45.605469 266.371094 L 45.515625 265.699219 L 45.453125 264.992188 L 45.417969 264.246094 L 45.40625 263.464844 L 45.417969 262.6875 L 45.453125 261.949219 L 45.515625 261.246094 L 45.605469 260.582031 L 45.71875 259.953125 L 45.855469 259.359375 L 46.015625 258.804688 L 46.203125 258.289062 L 46.417969 257.808594 L 46.65625 257.363281 L 46.914062 256.960938 L 47.195312 256.597656 L 47.496094 256.28125 L 47.816406 256.003906 L 48.160156 255.769531 L 48.523438 255.578125 L 48.90625 255.429688 L 49.308594 255.324219 L 49.734375 255.261719 L 50.179688 255.238281 L 50.628906 255.261719 L 51.054688 255.324219 L 51.460938 255.429688 L 51.847656 255.578125 L 52.210938 255.769531 L 52.550781 256.003906 L 52.871094 256.28125 L 53.171875 256.597656 L 53.449219 256.960938 L 53.703125 257.363281 L 53.941406 257.808594 L 54.15625 258.289062 L 54.34375 258.804688 L 54.503906 259.359375 L 54.640625 259.953125 L 54.753906 260.582031 L 54.84375 261.246094 L 54.90625 261.949219 L 54.941406 262.6875 L 54.953125 263.464844 L 54.941406 264.246094 L 54.90625 264.992188 L 54.84375 265.699219 L 54.753906 266.371094 L 54.640625 267.007812 L 54.503906 267.609375 L 54.34375 268.171875 L 54.15625 268.695312 L 53.941406 269.1875 L 53.703125 269.640625 L 53.449219 270.054688 L 53.171875 270.421875 L 52.871094 270.75 L 52.550781 271.03125 L 52.210938 271.269531 L 51.847656 271.464844 L 51.460938 271.617188 L 51.054688 271.726562 L 50.628906 271.792969 Z M 50.179688 270.863281 L 50.507812 270.847656 L 50.820312 270.789062 L 51.121094 270.695312 L 51.40625 270.566406 L 51.679688 270.394531 L 51.9375 270.191406 L 52.179688 269.945312 L 52.410156 269.664062 L 52.628906 269.347656 L 52.828125 268.988281 L 53.019531 268.597656 L 53.1875 268.167969 L 53.339844 267.703125 L 53.46875 267.207031 L 53.578125 266.671875 L 53.667969 266.101562 L 53.738281 265.496094 L 53.789062 264.855469 L 53.820312 264.175781 L 53.828125 263.464844 L 53.820312 262.753906 L 53.789062 262.078125 L 53.738281 261.441406 L 53.667969 260.839844 L 53.578125 260.277344 L 53.46875 259.75 L 53.339844 259.261719 L 53.1875 258.808594 L 53.019531 258.394531 L 52.828125 258.015625 L 52.628906 257.667969 L 52.410156 257.359375 L 52.179688 257.082031 L 51.9375 256.847656 L 51.679688 256.644531 L 51.40625 256.480469 L 51.121094 256.355469 L 50.820312 256.261719 L 50.507812 256.207031 L 50.179688 256.191406 L 49.855469 256.207031 L 49.546875 256.261719 L 49.246094 256.355469 L 48.964844 256.480469 L 48.691406 256.644531 L 48.433594 256.847656 L 48.1875 257.082031 L 47.957031 257.359375 L 47.734375 257.667969 L 47.53125 258.015625 L 47.339844 258.394531 L 47.167969 258.808594 L 47.019531 259.261719 L 46.890625 259.75 L 46.78125 260.277344 L 46.6875 260.839844 L 46.621094 261.441406 L 46.570312 262.078125 L 46.539062 262.753906 L 46.53125 263.464844 L 46.539062 264.175781 L 46.570312 264.855469 L 46.621094 265.496094 L 46.6875 266.101562 L 46.78125 266.671875 L 46.890625 267.207031 L 47.019531 267.703125 L 47.167969 268.167969 L 47.339844 268.597656 L 47.53125 268.988281 L 47.734375 269.347656 L 47.957031 269.664062 L 48.1875 269.945312 L 48.433594 270.191406 L 48.691406 270.394531 L 48.964844 270.566406 L 49.246094 270.695312 L 49.546875 270.789062 L 49.855469 270.847656 Z M 50.179688 270.863281 "/>
<path fill-rule="nonzero" fill="rgb(10.196078%, 10.196078%, 10.196078%)" fill-opacity="1" d="M 46.304688 212.03125 L 46.304688 211.058594 L 50.054688 211.058594 L 50.054688 197.808594 L 47.203125 197.808594 L 47.203125 197.058594 L 47.398438 197.019531 L 47.585938 196.984375 L 47.953125 196.90625 L 48.128906 196.863281 L 48.300781 196.820312 L 48.472656 196.773438 L 48.636719 196.730469 L 48.796875 196.679688 L 48.953125 196.632812 L 49.105469 196.582031 L 49.253906 196.527344 L 49.398438 196.476562 L 49.539062 196.417969 L 49.671875 196.363281 L 49.804688 196.304688 L 49.929688 196.246094 L 50.050781 196.183594 L 50.167969 196.121094 L 50.28125 196.058594 L 51.179688 196.058594 L 51.179688 211.058594 L 54.65625 211.058594 L 54.65625 212.03125 Z M 46.304688 212.03125 "/>
<path fill-rule="nonzero" fill="rgb(10.196078%, 10.196078%, 10.196078%)" fill-opacity="1" d="M 45.230469 152.550781 L 45.230469 151.847656 L 45.746094 151.320312 L 46.246094 150.808594 L 46.726562 150.308594 L 47.1875 149.824219 L 47.636719 149.355469 L 48.0625 148.898438 L 48.476562 148.460938 L 48.871094 148.03125 L 49.246094 147.621094 L 49.605469 147.222656 L 49.945312 146.832031 L 50.269531 146.449219 L 50.574219 146.078125 L 50.863281 145.710938 L 51.136719 145.355469 L 51.390625 145.007812 L 51.625 144.667969 L 51.84375 144.335938 L 52.046875 144.011719 L 52.230469 143.699219 L 52.394531 143.390625 L 52.542969 143.085938 L 52.675781 142.785156 L 52.789062 142.488281 L 52.886719 142.191406 L 52.964844 141.902344 L 53.027344 141.613281 L 53.070312 141.332031 L 53.09375 141.050781 L 53.105469 140.773438 L 53.097656 140.480469 L 53.070312 140.191406 L 53.027344 139.917969 L 52.96875 139.648438 L 52.890625 139.394531 L 52.796875 139.144531 L 52.6875 138.90625 L 52.558594 138.679688 L 52.414062 138.457031 L 52.253906 138.25 L 52.078125 138.054688 L 51.886719 137.878906 L 51.671875 137.726562 L 51.4375 137.59375 L 51.1875 137.480469 L 50.914062 137.386719 L 50.621094 137.316406 L 50.308594 137.265625 L 49.980469 137.234375 L 49.628906 137.222656 L 49.414062 137.230469 L 49.203125 137.25 L 48.992188 137.277344 L 48.785156 137.320312 L 48.578125 137.375 L 48.375 137.441406 L 48.171875 137.519531 L 47.972656 137.609375 L 47.773438 137.710938 L 47.578125 137.824219 L 47.390625 137.945312 L 47.207031 138.074219 L 47.03125 138.210938 L 46.855469 138.351562 L 46.6875 138.5 L 46.519531 138.652344 L 46.359375 138.8125 L 46.203125 138.976562 L 46.050781 139.148438 L 45.90625 139.324219 L 45.179688 138.625 L 45.363281 138.425781 L 45.546875 138.238281 L 45.738281 138.054688 L 45.929688 137.875 L 46.128906 137.707031 L 46.332031 137.542969 L 46.539062 137.382812 L 46.746094 137.230469 L 46.960938 137.085938 L 47.179688 136.949219 L 47.402344 136.820312 L 47.632812 136.707031 L 47.871094 136.605469 L 48.117188 136.515625 L 48.367188 136.441406 L 48.625 136.382812 L 48.890625 136.335938 L 49.164062 136.300781 L 49.441406 136.28125 L 49.730469 136.273438 L 50.148438 136.285156 L 50.550781 136.324219 L 50.929688 136.382812 L 51.292969 136.46875 L 51.636719 136.582031 L 51.957031 136.714844 L 52.261719 136.875 L 52.546875 137.058594 L 52.808594 137.265625 L 53.054688 137.5 L 53.277344 137.753906 L 53.476562 138.019531 L 53.652344 138.304688 L 53.804688 138.605469 L 53.9375 138.925781 L 54.042969 139.257812 L 54.125 139.605469 L 54.183594 139.972656 L 54.21875 140.351562 L 54.230469 140.75 L 54.21875 141.066406 L 54.191406 141.382812 L 54.144531 141.699219 L 54.082031 142.015625 L 54 142.335938 L 53.894531 142.65625 L 53.777344 142.980469 L 53.636719 143.300781 L 53.480469 143.625 L 53.304688 143.949219 L 53.117188 144.277344 L 52.914062 144.609375 L 52.695312 144.945312 L 52.464844 145.289062 L 52.21875 145.636719 L 51.953125 145.988281 L 51.675781 146.347656 L 51.382812 146.710938 L 51.078125 147.078125 L 50.753906 147.449219 L 50.421875 147.828125 L 50.082031 148.21875 L 49.726562 148.617188 L 49.359375 149.023438 L 48.980469 149.441406 L 48.589844 149.871094 L 48.183594 150.308594 L 47.769531 150.753906 L 47.34375 151.207031 L 46.90625 151.675781 L 47.035156 151.664062 L 47.164062 151.65625 L 47.296875 151.644531 L 47.5625 151.628906 L 47.691406 151.625 L 47.828125 151.617188 L 47.960938 151.609375 L 48.09375 151.605469 L 48.367188 151.589844 L 48.507812 151.582031 L 48.78125 151.566406 L 48.917969 151.5625 L 49.316406 151.550781 L 55.03125 151.550781 L 55.03125 152.550781 Z M 45.230469 152.550781 "/>
<path fill-rule="nonzero" fill="rgb(10.196078%, 10.196078%, 10.196078%)" fill-opacity="1" d="M 50.003906 93.367188 L 49.753906 93.363281 L 49.507812 93.351562 L 49.269531 93.335938 L 49.035156 93.3125 L 48.8125 93.285156 L 48.589844 93.25 L 48.378906 93.207031 L 48.171875 93.160156 L 47.972656 93.101562 L 47.78125 93.042969 L 47.59375 92.96875 L 47.410156 92.894531 L 47.230469 92.816406 L 47.058594 92.734375 L 46.890625 92.648438 L 46.730469 92.558594 L 46.570312 92.464844 L 46.417969 92.371094 L 46.128906 92.167969 L 45.996094 92.0625 L 45.738281 91.851562 L 45.613281 91.746094 L 45.492188 91.640625 L 45.257812 91.429688 L 45.144531 91.328125 L 45.035156 91.222656 L 44.929688 91.117188 L 45.578125 90.339844 L 45.726562 90.496094 L 45.882812 90.644531 L 46.042969 90.796875 L 46.207031 90.941406 L 46.378906 91.085938 L 46.558594 91.226562 L 46.742188 91.363281 L 46.929688 91.5 L 47.128906 91.636719 L 47.328125 91.765625 L 47.539062 91.886719 L 47.765625 91.992188 L 48 92.085938 L 48.25 92.167969 L 48.511719 92.234375 L 48.785156 92.292969 L 49.070312 92.335938 L 49.371094 92.367188 L 49.679688 92.386719 L 50.003906 92.390625 L 50.324219 92.382812 L 50.632812 92.351562 L 50.925781 92.304688 L 51.210938 92.238281 L 51.484375 92.152344 L 51.746094 92.050781 L 51.996094 91.925781 L 52.238281 91.785156 L 52.464844 91.621094 L 52.679688 91.441406 L 52.878906 91.238281 L 53.058594 91.027344 L 53.214844 90.800781 L 53.351562 90.5625 L 53.46875 90.308594 L 53.5625 90.046875 L 53.636719 89.769531 L 53.6875 89.480469 L 53.71875 89.179688 L 53.730469 88.867188 L 53.714844 88.542969 L 53.675781 88.230469 L 53.613281 87.933594 L 53.519531 87.644531 L 53.40625 87.371094 L 53.261719 87.113281 L 53.09375 86.863281 L 52.898438 86.625 L 52.675781 86.402344 L 52.429688 86.191406 L 52.15625 85.996094 L 51.851562 85.824219 L 51.507812 85.667969 L 51.132812 85.535156 L 50.722656 85.421875 L 50.277344 85.332031 L 49.800781 85.257812 L 49.285156 85.207031 L 48.738281 85.175781 L 48.15625 85.167969 L 48.15625 84.191406 L 48.515625 84.1875 L 48.863281 84.171875 L 49.195312 84.152344 L 49.515625 84.121094 L 49.816406 84.078125 L 50.105469 84.03125 L 50.375 83.972656 L 50.632812 83.902344 L 50.875 83.828125 L 51.105469 83.742188 L 51.316406 83.644531 L 51.519531 83.539062 L 51.707031 83.425781 L 51.882812 83.308594 L 52.046875 83.183594 L 52.199219 83.054688 L 52.339844 82.917969 L 52.464844 82.773438 L 52.578125 82.625 L 52.679688 82.464844 L 52.769531 82.304688 L 52.851562 82.140625 L 52.921875 81.972656 L 52.984375 81.800781 L 53.035156 81.628906 L 53.078125 81.453125 L 53.113281 81.273438 L 53.136719 81.089844 L 53.148438 80.90625 L 53.15625 80.714844 L 53.144531 80.453125 L 53.121094 80.199219 L 53.074219 79.957031 L 53.015625 79.722656 L 52.9375 79.503906 L 52.839844 79.292969 L 52.726562 79.097656 L 52.59375 78.910156 L 52.445312 78.730469 L 52.28125 78.566406 L 52.097656 78.410156 L 51.90625 78.269531 L 51.699219 78.144531 L 51.484375 78.039062 L 51.253906 77.949219 L 51.011719 77.875 L 50.761719 77.816406 L 50.496094 77.773438 L 50.21875 77.75 L 49.929688 77.742188 L 49.710938 77.746094 L 49.496094 77.761719 L 49.28125 77.789062 L 49.074219 77.824219 L 48.867188 77.871094 L 48.664062 77.929688 L 48.460938 78 L 48.265625 78.078125 L 48.070312 78.167969 L 47.878906 78.265625 L 47.695312 78.367188 L 47.34375 78.585938 L 47.175781 78.703125 L 47.011719 78.824219 L 46.851562 78.949219 L 46.695312 79.078125 L 46.542969 79.210938 L 46.398438 79.347656 L 46.253906 79.492188 L 45.605469 78.742188 L 45.773438 78.582031 L 45.941406 78.429688 L 46.121094 78.28125 L 46.300781 78.136719 L 46.484375 77.996094 L 46.675781 77.863281 L 46.871094 77.730469 L 47.066406 77.605469 L 47.273438 77.484375 L 47.480469 77.367188 L 47.699219 77.257812 L 47.921875 77.160156 L 48.152344 77.074219 L 48.386719 77 L 48.628906 76.933594 L 48.878906 76.882812 L 49.132812 76.84375 L 49.390625 76.8125 L 49.65625 76.796875 L 49.929688 76.792969 L 50.175781 76.796875 L 50.417969 76.808594 L 50.65625 76.832031 L 50.886719 76.863281 L 51.109375 76.902344 L 51.332031 76.953125 L 51.542969 77.011719 L 51.753906 77.078125 L 51.957031 77.15625 L 52.15625 77.242188 L 52.351562 77.335938 L 52.539062 77.4375 L 52.714844 77.550781 L 52.886719 77.667969 L 53.046875 77.796875 L 53.203125 77.933594 L 53.347656 78.078125 L 53.480469 78.234375 L 53.609375 78.394531 L 53.730469 78.566406 L 53.839844 78.738281 L 53.9375 78.921875 L 54.023438 79.109375 L 54.097656 79.304688 L 54.160156 79.511719 L 54.210938 79.722656 L 54.253906 79.941406 L 54.28125 80.167969 L 54.296875 80.398438 L 54.304688 80.640625 L 54.296875 80.949219 L 54.269531 81.246094 L 54.226562 81.53125 L 54.164062 81.804688 L 54.085938 82.066406 L 53.988281 82.316406 L 53.875 82.550781 L 53.746094 82.777344 L 53.59375 82.992188 L 53.429688 83.191406 L 53.253906 83.375 L 53.070312 83.550781 L 52.875 83.714844 L 52.671875 83.871094 L 52.460938 84.015625 L 52.238281 84.152344 L 52.007812 84.277344 L 51.765625 84.390625 L 51.515625 84.496094 L 51.253906 84.589844 L 51.253906 84.691406 L 51.453125 84.734375 L 51.644531 84.785156 L 51.835938 84.84375 L 52.023438 84.910156 L 52.203125 84.984375 L 52.382812 85.066406 L 52.554688 85.15625 L 52.726562 85.25 L 52.890625 85.355469 L 53.054688 85.464844 L 53.214844 85.578125 L 53.371094 85.699219 L 53.519531 85.824219 L 53.664062 85.953125 L 53.796875 86.089844 L 53.925781 86.234375 L 54.050781 86.382812 L 54.167969 86.539062 L 54.277344 86.699219 L 54.378906 86.867188 L 54.472656 87.039062 L 54.558594 87.21875 L 54.632812 87.402344 L 54.699219 87.589844 L 54.753906 87.785156 L 54.800781 87.984375 L 54.835938 88.191406 L 54.859375 88.402344 L 54.875 88.617188 L 54.878906 88.839844 L 54.871094 89.113281 L 54.851562 89.378906 L 54.820312 89.636719 L 54.773438 89.886719 L 54.71875 90.128906 L 54.644531 90.367188 L 54.5625 90.59375 L 54.464844 90.816406 L 54.351562 91.03125 L 54.230469 91.242188 L 54.09375 91.441406 L 53.953125 91.632812 L 53.800781 91.8125 L 53.636719 91.984375 L 53.46875 92.148438 L 53.289062 92.300781 L 53.097656 92.445312 L 52.902344 92.578125 L 52.695312 92.703125 L 52.480469 92.816406 L 52.257812 92.921875 L 52.027344 93.015625 L 51.792969 93.097656 L 51.554688 93.167969 L 51.3125 93.230469 L 51.058594 93.277344 L 50.804688 93.316406 L 50.542969 93.34375 L 50.277344 93.359375 Z M 50.003906 93.367188 "/>
<path fill-rule="nonzero" fill="rgb(10.196078%, 10.196078%, 10.196078%)" fill-opacity="1" d="M 45.953125 27.859375 L 51.953125 27.859375 L 51.953125 21.894531 L 51.957031 21.777344 L 51.957031 21.523438 L 51.960938 21.390625 L 51.964844 21.25 L 51.964844 21.105469 L 51.96875 20.953125 L 51.972656 20.796875 L 51.980469 20.632812 L 51.988281 20.472656 L 52 20.316406 L 52.007812 20.164062 L 52.015625 20.019531 L 52.023438 19.878906 L 52.03125 19.742188 L 52.035156 19.613281 L 52.042969 19.488281 L 52.050781 19.371094 L 52.054688 19.257812 L 51.953125 19.257812 L 51.894531 19.359375 L 51.832031 19.457031 L 51.773438 19.554688 L 51.710938 19.65625 L 51.585938 19.851562 L 51.523438 19.945312 L 51.457031 20.042969 L 51.394531 20.136719 L 51.328125 20.234375 L 51.265625 20.328125 L 51.132812 20.523438 L 51 20.726562 L 50.929688 20.832031 L 50.863281 20.933594 L 50.792969 21.042969 L 50.722656 21.148438 L 50.65625 21.257812 Z M 51.953125 33.582031 L 51.953125 28.808594 L 44.605469 28.808594 L 44.605469 28.160156 L 52.03125 17.609375 L 53.03125 17.609375 L 53.03125 27.859375 L 55.40625 27.859375 L 55.40625 28.808594 L 53.03125 28.808594 L 53.03125 33.582031 Z M 51.953125 33.582031 "/>
<path fill-rule="nonzero" fill="rgb(10.196078%, 10.196078%, 10.196078%)" fill-opacity="1" d="M 193.195312 294.054688 L 192.144531 297.128906 L 197.996094 297.128906 L 196.945312 294.054688 L 196.847656 293.757812 L 196.746094 293.46875 L 196.648438 293.179688 L 196.554688 292.894531 L 196.457031 292.609375 L 196.363281 292.328125 L 196.175781 291.773438 L 195.996094 291.226562 L 195.90625 290.957031 L 195.726562 290.402344 L 195.640625 290.121094 L 195.550781 289.835938 L 195.464844 289.546875 L 195.378906 289.253906 L 195.292969 288.957031 L 195.207031 288.65625 L 195.121094 288.351562 L 195.019531 288.351562 L 194.933594 288.65625 L 194.847656 288.957031 L 194.761719 289.253906 L 194.675781 289.546875 L 194.589844 289.835938 L 194.5 290.121094 L 194.414062 290.402344 L 194.234375 290.957031 L 194.144531 291.226562 L 193.964844 291.773438 L 193.777344 292.328125 L 193.683594 292.609375 L 193.585938 292.894531 L 193.492188 293.179688 L 193.394531 293.46875 L 193.292969 293.757812 Z M 188.695312 303.753906 L 194.496094 287.277344 L 195.644531 287.277344 L 201.445312 303.753906 L 200.246094 303.753906 L 198.320312 298.101562 L 191.796875 298.101562 L 189.84375 303.753906 Z M 188.695312 303.753906 "/>
<path fill-rule="nonzero" fill="rgb(10.196078%, 10.196078%, 10.196078%)" fill-opacity="1" d="M 203.945312 303.753906 L 203.945312 291.753906 L 204.894531 291.753906 L 204.996094 293.601562 L 205.070312 293.601562 L 205.253906 293.421875 L 205.441406 293.246094 L 205.628906 293.078125 L 205.816406 292.914062 L 206.007812 292.757812 L 206.199219 292.609375 L 206.390625 292.46875 L 206.582031 292.332031 L 206.777344 292.203125 L 206.96875 292.078125 L 207.171875 291.960938 L 207.378906 291.851562 L 207.589844 291.757812 L 207.804688 291.679688 L 208.027344 291.609375 L 208.25 291.554688 L 208.480469 291.507812 L 208.714844 291.476562 L 208.953125 291.460938 L 209.195312 291.453125 L 209.554688 291.464844 L 209.894531 291.5 L 210.21875 291.558594 L 210.519531 291.636719 L 210.800781 291.742188 L 211.0625 291.867188 L 211.308594 292.015625 L 211.53125 292.1875 L 211.734375 292.382812 L 211.921875 292.601562 L 212.089844 292.839844 L 212.246094 293.101562 L 212.378906 293.386719 L 212.496094 293.695312 L 212.59375 294.027344 L 212.675781 294.386719 L 212.738281 294.765625 L 212.785156 295.171875 L 212.8125 295.601562 L 212.820312 296.054688 L 212.820312 303.753906 L 211.71875 303.753906 L 211.71875 296.203125 L 211.714844 295.828125 L 211.695312 295.472656 L 211.660156 295.140625 L 211.617188 294.828125 L 211.558594 294.535156 L 211.484375 294.261719 L 211.402344 294.011719 L 211.304688 293.777344 L 211.195312 293.570312 L 211.070312 293.378906 L 210.9375 293.203125 L 210.785156 293.046875 L 210.617188 292.90625 L 210.433594 292.785156 L 210.234375 292.683594 L 210.015625 292.601562 L 209.777344 292.535156 L 209.527344 292.488281 L 209.257812 292.460938 L 208.96875 292.453125 L 208.757812 292.457031 L 208.546875 292.476562 L 208.34375 292.503906 L 208.140625 292.546875 L 207.945312 292.597656 L 207.753906 292.660156 L 207.5625 292.734375 L 207.378906 292.820312 L 207.199219 292.917969 L 207.019531 293.027344 L 206.84375 293.144531 L 206.660156 293.269531 L 206.476562 293.410156 L 206.285156 293.558594 L 206.089844 293.722656 L 205.890625 293.894531 L 205.683594 294.078125 L 205.476562 294.277344 L 205.261719 294.484375 L 205.046875 294.703125 L 205.046875 303.753906 Z M 203.945312 303.753906 "/>
<path fill-rule="nonzero" fill="rgb(10.196078%, 10.196078%, 10.196078%)" fill-opacity="1" d="M 220.519531 304.054688 L 220.179688 304.042969 L 219.867188 304.011719 L 219.570312 303.964844 L 219.300781 303.894531 L 219.050781 303.804688 L 218.824219 303.691406 L 218.621094 303.5625 L 218.441406 303.414062 L 218.28125 303.242188 L 218.144531 303.054688 L 218.027344 302.84375 L 217.921875 302.621094 L 217.828125 302.386719 L 217.746094 302.140625 L 217.675781 301.882812 L 217.621094 301.617188 L 217.578125 301.335938 L 217.546875 301.046875 L 217.527344 300.742188 L 217.519531 300.429688 L 217.519531 292.703125 L 215.644531 292.703125 L 215.644531 291.851562 L 217.546875 291.753906 L 217.695312 288.277344 L 218.644531 288.277344 L 218.644531 291.753906 L 222.121094 291.753906 L 222.121094 292.703125 L 218.644531 292.703125 L 218.644531 300.527344 L 218.648438 300.753906 L 218.660156 300.96875 L 218.679688 301.175781 L 218.710938 301.375 L 218.746094 301.566406 L 218.789062 301.746094 L 218.839844 301.917969 L 218.902344 302.082031 L 218.96875 302.234375 L 219.046875 302.378906 L 219.132812 302.511719 L 219.238281 302.628906 L 219.359375 302.734375 L 219.496094 302.828125 L 219.652344 302.902344 L 219.824219 302.964844 L 220.007812 303.015625 L 220.214844 303.050781 L 220.433594 303.070312 L 220.671875 303.078125 L 220.742188 303.078125 L 220.8125 303.074219 L 220.886719 303.070312 L 220.957031 303.0625 L 221.03125 303.054688 L 221.109375 303.042969 L 221.183594 303.027344 L 221.261719 303.015625 L 221.339844 302.996094 L 221.421875 302.976562 L 221.503906 302.953125 L 221.585938 302.925781 L 221.667969 302.902344 L 221.746094 302.875 L 221.894531 302.820312 L 221.964844 302.789062 L 222.105469 302.734375 L 222.171875 302.703125 L 222.46875 303.601562 L 222.257812 303.671875 L 222.046875 303.734375 L 221.9375 303.765625 L 221.832031 303.796875 L 221.503906 303.878906 L 221.394531 303.902344 L 221.292969 303.933594 L 221.191406 303.957031 L 221.097656 303.980469 L 221.003906 304 L 220.914062 304.015625 L 220.828125 304.027344 L 220.746094 304.039062 L 220.667969 304.046875 Z M 220.519531 304.054688 "/>
<path fill-rule="nonzero" fill="rgb(10.196078%, 10.196078%, 10.196078%)" fill-opacity="1" d="M 229.59375 304.054688 L 229.292969 304.046875 L 228.996094 304.023438 L 228.703125 303.984375 L 228.414062 303.933594 L 228.132812 303.867188 L 227.855469 303.78125 L 227.582031 303.6875 L 227.316406 303.574219 L 227.054688 303.445312 L 226.796875 303.304688 L 226.550781 303.148438 L 226.316406 302.976562 L 226.089844 302.792969 L 225.875 302.597656 L 225.671875 302.390625 L 225.476562 302.167969 L 225.289062 301.933594 L 225.117188 301.6875 L 224.949219 301.425781 L 224.796875 301.152344 L 224.652344 300.863281 L 224.523438 300.5625 L 224.414062 300.25 L 224.316406 299.929688 L 224.234375 299.597656 L 224.164062 299.253906 L 224.113281 298.902344 L 224.074219 298.539062 L 224.054688 298.164062 L 224.046875 297.777344 L 224.054688 297.390625 L 224.074219 297.011719 L 224.113281 296.644531 L 224.164062 296.289062 L 224.234375 295.945312 L 224.316406 295.613281 L 224.414062 295.296875 L 224.523438 294.984375 L 224.652344 294.6875 L 224.796875 294.402344 L 224.949219 294.125 L 225.113281 293.859375 L 225.285156 293.609375 L 225.46875 293.371094 L 225.65625 293.148438 L 225.855469 292.9375 L 226.066406 292.738281 L 226.285156 292.554688 L 226.511719 292.386719 L 226.746094 292.226562 L 226.988281 292.082031 L 227.230469 291.949219 L 227.476562 291.832031 L 227.726562 291.730469 L 227.976562 291.648438 L 228.230469 291.578125 L 228.488281 291.523438 L 228.746094 291.484375 L 229.007812 291.460938 L 229.269531 291.453125 L 229.691406 291.46875 L 230.09375 291.511719 L 230.476562 291.582031 L 230.84375 291.683594 L 231.1875 291.816406 L 231.515625 291.976562 L 231.828125 292.164062 L 232.117188 292.382812 L 232.390625 292.628906 L 232.644531 292.902344 L 232.878906 293.207031 L 233.085938 293.53125 L 233.269531 293.882812 L 233.429688 294.253906 L 233.5625 294.652344 L 233.675781 295.074219 L 233.761719 295.519531 L 233.820312 295.992188 L 233.859375 296.484375 L 233.871094 297.003906 L 233.871094 297.09375 L 233.867188 297.136719 L 233.867188 297.183594 L 233.863281 297.226562 L 233.859375 297.273438 L 233.859375 297.316406 L 233.855469 297.363281 L 233.851562 297.40625 L 233.84375 297.453125 L 233.84375 297.542969 L 233.839844 297.589844 L 233.835938 297.632812 L 233.832031 297.679688 L 233.828125 297.722656 L 233.820312 297.769531 L 233.8125 297.8125 L 233.804688 297.859375 L 233.796875 297.902344 L 225.171875 297.902344 L 225.179688 298.199219 L 225.203125 298.488281 L 225.234375 298.773438 L 225.273438 299.050781 L 225.328125 299.320312 L 225.390625 299.585938 L 225.460938 299.84375 L 225.546875 300.09375 L 225.640625 300.339844 L 225.746094 300.578125 L 225.863281 300.808594 L 225.992188 301.027344 L 226.128906 301.238281 L 226.273438 301.4375 L 226.425781 301.628906 L 226.589844 301.808594 L 226.757812 301.976562 L 226.9375 302.136719 L 227.125 302.289062 L 227.320312 302.429688 L 227.527344 302.554688 L 227.742188 302.671875 L 227.964844 302.773438 L 228.191406 302.859375 L 228.425781 302.933594 L 228.667969 302.996094 L 228.914062 303.042969 L 229.167969 303.078125 L 229.429688 303.097656 L 229.695312 303.101562 L 229.886719 303.101562 L 230.078125 303.089844 L 230.261719 303.078125 L 230.441406 303.054688 L 230.621094 303.027344 L 230.792969 302.996094 L 230.960938 302.957031 L 231.128906 302.910156 L 231.289062 302.859375 L 231.445312 302.804688 L 231.605469 302.742188 L 231.761719 302.675781 L 231.914062 302.609375 L 232.066406 302.535156 L 232.214844 302.460938 L 232.503906 302.296875 L 232.644531 302.210938 L 232.785156 302.121094 L 232.921875 302.027344 L 233.371094 302.878906 L 233.230469 302.960938 L 233.082031 303.046875 L 232.933594 303.128906 L 232.78125 303.210938 L 232.625 303.289062 L 232.46875 303.371094 L 232.304688 303.449219 L 232.136719 303.527344 L 231.96875 303.601562 L 231.796875 303.679688 L 231.617188 303.75 L 231.425781 303.8125 L 231.230469 303.871094 L 231.023438 303.917969 L 230.808594 303.960938 L 230.582031 303.992188 L 230.351562 304.019531 L 230.105469 304.039062 L 229.855469 304.050781 Z M 225.171875 297.003906 L 232.820312 297.003906 L 232.8125 296.554688 L 232.78125 296.128906 L 232.734375 295.726562 L 232.667969 295.347656 L 232.582031 294.992188 L 232.476562 294.65625 L 232.355469 294.347656 L 232.210938 294.058594 L 232.050781 293.792969 L 231.871094 293.554688 L 231.671875 293.335938 L 231.464844 293.140625 L 231.238281 292.964844 L 231.003906 292.816406 L 230.75 292.691406 L 230.488281 292.585938 L 230.210938 292.507812 L 229.917969 292.449219 L 229.613281 292.414062 L 229.296875 292.402344 L 229.089844 292.410156 L 228.890625 292.425781 L 228.691406 292.453125 L 228.496094 292.492188 L 228.300781 292.539062 L 228.109375 292.601562 L 227.921875 292.671875 L 227.734375 292.753906 L 227.550781 292.847656 L 227.371094 292.953125 L 227.199219 293.066406 L 227.03125 293.191406 L 226.871094 293.324219 L 226.714844 293.46875 L 226.5625 293.621094 L 226.417969 293.785156 L 226.28125 293.957031 L 226.144531 294.136719 L 226.019531 294.328125 L 225.894531 294.527344 L 225.78125 294.738281 L 225.675781 294.957031 L 225.578125 295.179688 L 225.492188 295.417969 L 225.414062 295.660156 L 225.347656 295.910156 L 225.289062 296.171875 L 225.238281 296.441406 L 225.199219 296.71875 Z M 225.171875 297.003906 "/>
<path fill-rule="nonzero" fill="rgb(10.196078%, 10.196078%, 10.196078%)" fill-opacity="1" d="M 240.019531 304.054688 L 239.757812 304.046875 L 239.496094 304.035156 L 239.242188 304.011719 L 238.988281 303.976562 L 238.738281 303.933594 L 238.492188 303.882812 L 238.25 303.820312 L 238.011719 303.75 L 237.777344 303.667969 L 237.546875 303.578125 L 237.324219 303.476562 L 237.109375 303.371094 L 236.898438 303.261719 L 236.5 303.035156 L 236.3125 302.914062 L 236.128906 302.792969 L 235.953125 302.667969 L 235.785156 302.535156 L 235.621094 302.402344 L 236.269531 301.578125 L 236.425781 301.703125 L 236.746094 301.9375 L 236.90625 302.050781 L 237.070312 302.160156 L 237.234375 302.265625 L 237.402344 302.367188 L 237.746094 302.5625 L 237.921875 302.652344 L 238.097656 302.738281 L 238.289062 302.816406 L 238.484375 302.882812 L 238.6875 302.941406 L 238.902344 302.992188 L 239.125 303.03125 L 239.355469 303.0625 L 239.59375 303.085938 L 239.839844 303.097656 L 240.09375 303.101562 L 240.367188 303.097656 L 240.628906 303.074219 L 240.875 303.039062 L 241.105469 302.992188 L 241.328125 302.929688 L 241.53125 302.851562 L 241.722656 302.761719 L 241.902344 302.65625 L 242.070312 302.535156 L 242.21875 302.402344 L 242.359375 302.257812 L 242.480469 302.105469 L 242.589844 301.949219 L 242.683594 301.789062 L 242.765625 301.621094 L 242.828125 301.453125 L 242.878906 301.277344 L 242.917969 301.097656 L 242.9375 300.914062 L 242.945312 300.726562 L 242.941406 300.582031 L 242.925781 300.4375 L 242.90625 300.300781 L 242.875 300.167969 L 242.832031 300.039062 L 242.785156 299.917969 L 242.726562 299.800781 L 242.65625 299.6875 L 242.582031 299.582031 L 242.496094 299.476562 L 242.402344 299.378906 L 242.304688 299.285156 L 242.203125 299.195312 L 242.097656 299.105469 L 241.988281 299.023438 L 241.875 298.941406 L 241.753906 298.863281 L 241.632812 298.789062 L 241.503906 298.71875 L 241.371094 298.652344 L 241.238281 298.589844 L 241.109375 298.527344 L 240.976562 298.464844 L 240.84375 298.40625 L 240.707031 298.347656 L 240.574219 298.289062 L 240.4375 298.234375 L 240.296875 298.179688 L 240.160156 298.128906 L 240.019531 298.078125 L 239.660156 297.945312 L 239.484375 297.875 L 239.125 297.734375 L 238.597656 297.511719 L 238.421875 297.433594 L 238.246094 297.351562 L 238.078125 297.269531 L 237.917969 297.183594 L 237.761719 297.09375 L 237.613281 296.996094 L 237.46875 296.898438 L 237.332031 296.792969 L 237.203125 296.683594 L 237.078125 296.570312 L 236.957031 296.449219 L 236.84375 296.328125 L 236.742188 296.195312 L 236.648438 296.054688 L 236.566406 295.90625 L 236.492188 295.75 L 236.433594 295.585938 L 236.382812 295.414062 L 236.34375 295.234375 L 236.316406 295.046875 L 236.300781 294.855469 L 236.296875 294.652344 L 236.304688 294.390625 L 236.335938 294.140625 L 236.382812 293.894531 L 236.453125 293.65625 L 236.539062 293.429688 L 236.644531 293.207031 L 236.773438 292.996094 L 236.917969 292.789062 L 237.085938 292.59375 L 237.269531 292.402344 L 237.480469 292.222656 L 237.707031 292.0625 L 237.949219 291.917969 L 238.210938 291.796875 L 238.488281 291.691406 L 238.785156 291.605469 L 239.097656 291.539062 L 239.429688 291.492188 L 239.777344 291.460938 L 240.144531 291.453125 L 240.339844 291.457031 L 240.53125 291.46875 L 240.722656 291.484375 L 240.914062 291.507812 L 241.101562 291.539062 L 241.289062 291.578125 L 241.472656 291.625 L 241.65625 291.675781 L 241.839844 291.738281 L 242.019531 291.804688 L 242.203125 291.875 L 242.378906 291.953125 L 242.550781 292.03125 L 242.714844 292.113281 L 242.875 292.203125 L 243.03125 292.296875 L 243.179688 292.390625 L 243.324219 292.492188 L 243.460938 292.59375 L 243.59375 292.703125 L 242.996094 293.476562 L 242.871094 293.390625 L 242.742188 293.304688 L 242.617188 293.222656 L 242.488281 293.140625 L 242.359375 293.066406 L 242.226562 292.992188 L 242.097656 292.921875 L 241.964844 292.855469 L 241.828125 292.789062 L 241.695312 292.726562 L 241.558594 292.667969 L 241.417969 292.609375 L 241.269531 292.5625 L 241.121094 292.519531 L 240.964844 292.484375 L 240.804688 292.457031 L 240.640625 292.433594 L 240.472656 292.417969 L 240.296875 292.40625 L 240.121094 292.402344 L 239.847656 292.410156 L 239.589844 292.429688 L 239.34375 292.464844 L 239.117188 292.511719 L 238.902344 292.570312 L 238.703125 292.644531 L 238.515625 292.734375 L 238.34375 292.835938 L 238.1875 292.949219 L 238.046875 293.078125 L 237.921875 293.214844 L 237.8125 293.355469 L 237.714844 293.496094 L 237.628906 293.640625 L 237.558594 293.789062 L 237.5 293.941406 L 237.453125 294.097656 L 237.421875 294.253906 L 237.402344 294.414062 L 237.394531 294.578125 L 237.398438 294.710938 L 237.410156 294.839844 L 237.429688 294.964844 L 237.457031 295.082031 L 237.488281 295.195312 L 237.53125 295.308594 L 237.578125 295.414062 L 237.636719 295.515625 L 237.699219 295.609375 L 237.769531 295.703125 L 237.851562 295.792969 L 237.9375 295.878906 L 238.03125 295.960938 L 238.125 296.039062 L 238.226562 296.117188 L 238.332031 296.1875 L 238.441406 296.257812 L 238.554688 296.328125 L 238.671875 296.390625 L 238.796875 296.453125 L 238.925781 296.507812 L 239.457031 296.726562 L 239.59375 296.78125 L 239.730469 296.839844 L 240.003906 296.949219 L 240.144531 297.003906 L 240.335938 297.074219 L 240.523438 297.144531 L 240.898438 297.292969 L 241.265625 297.441406 L 241.449219 297.519531 L 241.632812 297.59375 L 241.816406 297.671875 L 241.996094 297.753906 L 242.171875 297.835938 L 242.34375 297.925781 L 242.507812 298.019531 L 242.664062 298.117188 L 242.8125 298.222656 L 242.957031 298.332031 L 243.097656 298.449219 L 243.226562 298.570312 L 243.351562 298.695312 L 243.46875 298.828125 L 243.585938 298.96875 L 243.6875 299.117188 L 243.777344 299.277344 L 243.855469 299.449219 L 243.921875 299.628906 L 243.972656 299.816406 L 244.015625 300.019531 L 244.046875 300.226562 L 244.0625 300.449219 L 244.070312 300.679688 L 244.066406 300.855469 L 244.050781 301.03125 L 244.027344 301.207031 L 243.996094 301.378906 L 243.953125 301.546875 L 243.898438 301.714844 L 243.835938 301.875 L 243.765625 302.039062 L 243.683594 302.195312 L 243.59375 302.351562 L 243.496094 302.5 L 243.386719 302.640625 L 243.273438 302.777344 L 243.148438 302.910156 L 243.015625 303.035156 L 242.871094 303.152344 L 242.722656 303.269531 L 242.5625 303.378906 L 242.394531 303.480469 L 242.21875 303.578125 L 242.035156 303.667969 L 241.84375 303.75 L 241.644531 303.820312 L 241.4375 303.882812 L 241.21875 303.933594 L 240.996094 303.976562 L 240.765625 304.011719 L 240.523438 304.035156 L 240.277344 304.046875 Z M 240.019531 304.054688 "/>
<path fill-rule="nonzero" fill="rgb(10.196078%, 10.196078%, 10.196078%)" fill-opacity="1" d="M 431.539062 303.753906 L 431.539062 287.277344 L 435.363281 287.277344 L 435.863281 287.289062 L 436.347656 287.320312 L 436.8125 287.371094 L 437.261719 287.441406 L 437.6875 287.535156 L 438.101562 287.648438 L 438.492188 287.78125 L 438.867188 287.933594 L 439.226562 288.109375 L 439.5625 288.304688 L 439.886719 288.511719 L 440.191406 288.734375 L 440.476562 288.976562 L 440.75 289.234375 L 441 289.507812 L 441.238281 289.800781 L 441.457031 290.109375 L 441.660156 290.429688 L 441.84375 290.769531 L 442.015625 291.128906 L 442.171875 291.5 L 442.3125 291.886719 L 442.433594 292.285156 L 442.542969 292.695312 L 442.632812 293.121094 L 442.707031 293.5625 L 442.765625 294.015625 L 442.804688 294.480469 L 442.832031 294.960938 L 442.839844 295.453125 L 442.832031 295.945312 L 442.804688 296.429688 L 442.765625 296.898438 L 442.707031 297.351562 L 442.632812 297.796875 L 442.542969 298.226562 L 442.433594 298.648438 L 442.3125 299.054688 L 442.171875 299.445312 L 442.015625 299.828125 L 441.84375 300.191406 L 441.660156 300.535156 L 441.457031 300.867188 L 441.238281 301.179688 L 441 301.476562 L 440.75 301.761719 L 440.476562 302.027344 L 440.191406 302.277344 L 439.886719 302.511719 L 439.5625 302.726562 L 439.226562 302.921875 L 438.867188 303.097656 L 438.496094 303.25 L 438.105469 303.382812 L 437.695312 303.496094 L 437.269531 303.589844 L 436.824219 303.660156 L 436.363281 303.710938 L 435.886719 303.742188 L 435.390625 303.753906 Z M 432.6875 302.777344 L 435.238281 302.777344 L 435.679688 302.769531 L 436.105469 302.742188 L 436.511719 302.695312 L 436.902344 302.628906 L 437.277344 302.546875 L 437.632812 302.445312 L 437.972656 302.324219 L 438.296875 302.1875 L 438.601562 302.027344 L 438.890625 301.851562 L 439.167969 301.65625 L 439.429688 301.445312 L 439.675781 301.21875 L 439.90625 300.980469 L 440.121094 300.726562 L 440.320312 300.460938 L 440.503906 300.179688 L 440.671875 299.886719 L 440.828125 299.578125 L 440.964844 299.253906 L 441.09375 298.917969 L 441.207031 298.574219 L 441.308594 298.21875 L 441.394531 297.851562 L 441.46875 297.476562 L 441.53125 297.09375 L 441.578125 296.699219 L 441.613281 296.292969 L 441.632812 295.878906 L 441.640625 295.453125 L 441.632812 295.027344 L 441.613281 294.613281 L 441.578125 294.210938 L 441.53125 293.820312 L 441.46875 293.441406 L 441.394531 293.070312 L 441.308594 292.710938 L 441.207031 292.363281 L 441.09375 292.027344 L 440.964844 291.703125 L 440.828125 291.386719 L 440.671875 291.082031 L 440.503906 290.792969 L 440.320312 290.519531 L 440.121094 290.257812 L 439.90625 290.015625 L 439.675781 289.785156 L 439.429688 289.566406 L 439.167969 289.367188 L 438.890625 289.179688 L 438.601562 289.003906 L 438.296875 288.84375 L 437.972656 288.707031 L 437.632812 288.585938 L 437.277344 288.484375 L 436.902344 288.402344 L 436.511719 288.335938 L 436.105469 288.289062 L 435.679688 288.261719 L 435.238281 288.253906 L 432.6875 288.253906 Z M 432.6875 302.777344 "/>
<path fill-rule="nonzero" fill="rgb(10.196078%, 10.196078%, 10.196078%)" fill-opacity="1" d="M 451.0625 304.054688 L 450.761719 304.046875 L 450.464844 304.023438 L 450.171875 303.984375 L 449.882812 303.933594 L 449.601562 303.867188 L 449.324219 303.78125 L 449.050781 303.6875 L 448.785156 303.574219 L 448.523438 303.445312 L 448.265625 303.304688 L 448.019531 303.148438 L 447.785156 302.976562 L 447.558594 302.792969 L 447.34375 302.597656 L 447.140625 302.390625 L 446.945312 302.167969 L 446.757812 301.933594 L 446.585938 301.6875 L 446.417969 301.425781 L 446.265625 301.152344 L 446.121094 300.863281 L 445.992188 300.5625 L 445.882812 300.25 L 445.785156 299.929688 L 445.703125 299.597656 L 445.632812 299.253906 L 445.582031 298.902344 L 445.542969 298.539062 L 445.523438 298.164062 L 445.515625 297.777344 L 445.523438 297.390625 L 445.542969 297.011719 L 445.582031 296.644531 L 445.632812 296.289062 L 445.703125 295.945312 L 445.785156 295.613281 L 445.882812 295.296875 L 445.992188 294.984375 L 446.121094 294.6875 L 446.265625 294.402344 L 446.417969 294.125 L 446.582031 293.859375 L 446.753906 293.609375 L 446.9375 293.371094 L 447.125 293.148438 L 447.324219 292.9375 L 447.535156 292.738281 L 447.753906 292.554688 L 447.980469 292.386719 L 448.214844 292.226562 L 448.457031 292.082031 L 448.699219 291.949219 L 448.945312 291.832031 L 449.195312 291.730469 L 449.445312 291.648438 L 449.699219 291.578125 L 449.957031 291.523438 L 450.214844 291.484375 L 450.476562 291.460938 L 450.738281 291.453125 L 451.160156 291.46875 L 451.5625 291.511719 L 451.945312 291.582031 L 452.3125 291.683594 L 452.65625 291.816406 L 452.984375 291.976562 L 453.296875 292.164062 L 453.585938 292.382812 L 453.859375 292.628906 L 454.113281 292.902344 L 454.347656 293.207031 L 454.554688 293.53125 L 454.738281 293.882812 L 454.898438 294.253906 L 455.03125 294.652344 L 455.144531 295.074219 L 455.230469 295.519531 L 455.289062 295.992188 L 455.328125 296.484375 L 455.339844 297.003906 L 455.339844 297.09375 L 455.335938 297.136719 L 455.335938 297.183594 L 455.332031 297.226562 L 455.332031 297.273438 L 455.328125 297.316406 L 455.324219 297.363281 L 455.320312 297.40625 L 455.3125 297.453125 L 455.3125 297.542969 L 455.308594 297.589844 L 455.304688 297.632812 L 455.300781 297.679688 L 455.296875 297.722656 L 455.289062 297.769531 L 455.28125 297.8125 L 455.273438 297.859375 L 455.265625 297.902344 L 446.640625 297.902344 L 446.648438 298.199219 L 446.671875 298.488281 L 446.703125 298.773438 L 446.742188 299.050781 L 446.796875 299.320312 L 446.859375 299.585938 L 446.929688 299.84375 L 447.015625 300.09375 L 447.109375 300.339844 L 447.214844 300.578125 L 447.332031 300.808594 L 447.460938 301.027344 L 447.597656 301.238281 L 447.742188 301.4375 L 447.894531 301.628906 L 448.058594 301.808594 L 448.226562 301.976562 L 448.40625 302.136719 L 448.59375 302.289062 L 448.789062 302.429688 L 448.996094 302.554688 L 449.210938 302.671875 L 449.433594 302.773438 L 449.660156 302.859375 L 449.894531 302.933594 L 450.136719 302.996094 L 450.382812 303.042969 L 450.636719 303.078125 L 450.898438 303.097656 L 451.164062 303.101562 L 451.355469 303.101562 L 451.546875 303.089844 L 451.730469 303.078125 L 451.914062 303.054688 L 452.089844 303.027344 L 452.261719 302.996094 L 452.429688 302.957031 L 452.597656 302.910156 L 452.757812 302.859375 L 452.914062 302.804688 L 453.074219 302.742188 L 453.230469 302.675781 L 453.382812 302.609375 L 453.535156 302.535156 L 453.683594 302.460938 L 453.972656 302.296875 L 454.113281 302.210938 L 454.253906 302.121094 L 454.390625 302.027344 L 454.839844 302.878906 L 454.699219 302.960938 L 454.550781 303.046875 L 454.402344 303.128906 L 454.25 303.210938 L 454.09375 303.289062 L 453.9375 303.371094 L 453.773438 303.449219 L 453.605469 303.527344 L 453.4375 303.601562 L 453.265625 303.679688 L 453.085938 303.75 L 452.894531 303.8125 L 452.699219 303.871094 L 452.492188 303.917969 L 452.277344 303.960938 L 452.050781 303.992188 L 451.820312 304.019531 L 451.574219 304.039062 L 451.324219 304.050781 Z M 446.640625 297.003906 L 454.289062 297.003906 L 454.28125 296.554688 L 454.25 296.128906 L 454.203125 295.726562 L 454.136719 295.347656 L 454.050781 294.992188 L 453.945312 294.65625 L 453.824219 294.347656 L 453.679688 294.058594 L 453.519531 293.792969 L 453.339844 293.554688 L 453.140625 293.335938 L 452.933594 293.140625 L 452.707031 292.964844 L 452.472656 292.816406 L 452.21875 292.691406 L 451.957031 292.585938 L 451.679688 292.507812 L 451.386719 292.449219 L 451.082031 292.414062 L 450.765625 292.402344 L 450.558594 292.410156 L 450.359375 292.425781 L 450.160156 292.453125 L 449.964844 292.492188 L 449.769531 292.539062 L 449.578125 292.601562 L 449.390625 292.671875 L 449.203125 292.753906 L 449.019531 292.847656 L 448.839844 292.953125 L 448.667969 293.066406 L 448.5 293.191406 L 448.339844 293.324219 L 448.183594 293.46875 L 448.03125 293.621094 L 447.886719 293.785156 L 447.75 293.957031 L 447.613281 294.136719 L 447.488281 294.328125 L 447.363281 294.527344 L 447.25 294.738281 L 447.144531 294.957031 L 447.046875 295.179688 L 446.960938 295.417969 L 446.882812 295.660156 L 446.816406 295.910156 L 446.757812 296.171875 L 446.707031 296.441406 L 446.667969 296.71875 Z M 446.640625 297.003906 "/>
<path fill-rule="nonzero" fill="rgb(10.196078%, 10.196078%, 10.196078%)" fill-opacity="1" d="M 458.589844 309.179688 L 458.589844 291.753906 L 459.539062 291.753906 L 459.640625 293.253906 L 459.714844 293.253906 L 459.890625 293.113281 L 460.070312 292.980469 L 460.253906 292.847656 L 460.441406 292.71875 L 460.632812 292.589844 L 461.023438 292.347656 L 461.429688 292.113281 L 461.640625 292.003906 L 461.851562 291.898438 L 462.0625 291.804688 L 462.273438 291.722656 L 462.488281 291.652344 L 462.703125 291.589844 L 462.917969 291.542969 L 463.132812 291.503906 L 463.351562 291.476562 L 463.570312 291.457031 L 463.789062 291.453125 L 464.257812 291.46875 L 464.699219 291.519531 L 465.121094 291.605469 L 465.515625 291.722656 L 465.890625 291.871094 L 466.238281 292.054688 L 466.5625 292.273438 L 466.859375 292.523438 L 467.136719 292.808594 L 467.390625 293.128906 L 467.617188 293.46875 L 467.820312 293.835938 L 468 294.222656 L 468.15625 294.632812 L 468.289062 295.066406 L 468.398438 295.523438 L 468.480469 296 L 468.542969 296.503906 L 468.578125 297.03125 L 468.589844 297.578125 L 468.582031 297.976562 L 468.558594 298.363281 L 468.523438 298.742188 L 468.46875 299.105469 L 468.402344 299.460938 L 468.320312 299.800781 L 468.222656 300.132812 L 468.109375 300.449219 L 467.980469 300.757812 L 467.839844 301.054688 L 467.6875 301.335938 L 467.53125 301.605469 L 467.363281 301.863281 L 467.183594 302.105469 L 466.996094 302.335938 L 466.796875 302.550781 L 466.589844 302.753906 L 466.375 302.941406 L 466.148438 303.117188 L 465.914062 303.277344 L 465.671875 303.425781 L 465.425781 303.558594 L 465.175781 303.671875 L 464.917969 303.773438 L 464.65625 303.859375 L 464.394531 303.929688 L 464.125 303.984375 L 463.851562 304.023438 L 463.570312 304.046875 L 463.289062 304.054688 L 463.117188 304.050781 L 462.945312 304.039062 L 462.773438 304.019531 L 462.601562 303.992188 L 462.425781 303.960938 L 462.25 303.917969 L 462.074219 303.871094 L 461.898438 303.8125 L 461.71875 303.75 L 461.539062 303.679688 L 461.359375 303.59375 L 461.175781 303.507812 L 460.996094 303.410156 L 460.8125 303.308594 L 460.625 303.203125 L 460.441406 303.089844 L 460.253906 302.972656 L 460.066406 302.847656 L 459.878906 302.714844 L 459.6875 302.578125 L 459.6875 309.179688 Z M 463.238281 303.078125 L 463.480469 303.070312 L 463.71875 303.050781 L 463.945312 303.015625 L 464.171875 302.964844 L 464.390625 302.902344 L 464.601562 302.828125 L 464.808594 302.734375 L 465.007812 302.628906 L 465.199219 302.511719 L 465.390625 302.378906 L 465.574219 302.234375 L 465.753906 302.078125 L 465.921875 301.910156 L 466.082031 301.734375 L 466.234375 301.546875 L 466.375 301.347656 L 466.511719 301.140625 L 466.636719 300.921875 L 466.753906 300.691406 L 466.863281 300.453125 L 466.96875 300.199219 L 467.0625 299.9375 L 467.144531 299.667969 L 467.214844 299.394531 L 467.277344 299.109375 L 467.324219 298.816406 L 467.363281 298.519531 L 467.390625 298.214844 L 467.410156 297.898438 L 467.414062 297.578125 L 467.410156 297.285156 L 467.398438 297 L 467.378906 296.722656 L 467.355469 296.449219 L 467.320312 296.183594 L 467.277344 295.925781 L 467.230469 295.671875 L 467.175781 295.425781 L 467.109375 295.1875 L 467.039062 294.953125 L 466.960938 294.722656 L 466.871094 294.503906 L 466.769531 294.292969 L 466.664062 294.09375 L 466.546875 293.902344 L 466.417969 293.722656 L 466.28125 293.554688 L 466.136719 293.394531 L 465.980469 293.242188 L 465.8125 293.101562 L 465.644531 292.976562 L 465.460938 292.859375 L 465.269531 292.757812 L 465.066406 292.671875 L 464.851562 292.597656 L 464.625 292.535156 L 464.390625 292.488281 L 464.140625 292.457031 L 463.882812 292.433594 L 463.613281 292.429688 L 463.433594 292.433594 L 463.25 292.449219 L 463.066406 292.476562 L 462.882812 292.511719 L 462.695312 292.558594 L 462.507812 292.617188 L 462.316406 292.683594 L 462.125 292.765625 L 461.933594 292.851562 L 461.738281 292.953125 L 461.546875 293.058594 L 461.351562 293.171875 L 461.15625 293.292969 L 460.957031 293.425781 L 460.75 293.566406 L 460.546875 293.714844 L 460.335938 293.875 L 460.125 294.042969 L 459.90625 294.21875 L 459.6875 294.402344 L 459.6875 301.527344 L 459.894531 301.691406 L 460.09375 301.847656 L 460.292969 301.992188 L 460.488281 302.128906 L 460.683594 302.253906 L 460.875 302.367188 L 461.0625 302.472656 L 461.25 302.566406 L 461.433594 302.652344 L 461.613281 302.726562 L 461.796875 302.792969 L 461.976562 302.855469 L 462.148438 302.90625 L 462.316406 302.953125 L 462.484375 302.992188 L 462.644531 303.023438 L 462.800781 303.046875 L 462.949219 303.0625 L 463.097656 303.074219 Z M 463.238281 303.078125 "/>
<path fill-rule="nonzero" fill="rgb(10.196078%, 10.196078%, 10.196078%)" fill-opacity="1" d="M 476.5625 304.054688 L 476.28125 304.046875 L 476.003906 304.023438 L 475.726562 303.988281 L 475.457031 303.9375 L 475.1875 303.871094 L 474.925781 303.792969 L 474.667969 303.699219 L 474.414062 303.589844 L 474.160156 303.464844 L 473.914062 303.328125 L 473.675781 303.171875 L 473.441406 303.003906 L 473.222656 302.820312 L 473.011719 302.625 L 472.808594 302.414062 L 472.613281 302.195312 L 472.433594 301.960938 L 472.257812 301.710938 L 472.09375 301.453125 L 471.9375 301.179688 L 471.796875 300.886719 L 471.667969 300.585938 L 471.554688 300.273438 L 471.460938 299.949219 L 471.375 299.617188 L 471.308594 299.269531 L 471.257812 298.914062 L 471.21875 298.546875 L 471.195312 298.167969 L 471.1875 297.777344 L 471.195312 297.378906 L 471.21875 296.992188 L 471.257812 296.621094 L 471.308594 296.257812 L 471.375 295.910156 L 471.460938 295.574219 L 471.554688 295.25 L 471.667969 294.9375 L 471.796875 294.640625 L 471.9375 294.351562 L 472.09375 294.074219 L 472.257812 293.8125 L 472.433594 293.5625 L 472.613281 293.324219 L 472.808594 293.101562 L 473.011719 292.894531 L 473.222656 292.703125 L 473.441406 292.519531 L 473.675781 292.355469 L 473.914062 292.203125 L 474.160156 292.0625 L 474.414062 291.933594 L 474.667969 291.820312 L 474.925781 291.722656 L 475.1875 291.640625 L 475.457031 291.574219 L 475.726562 291.519531 L 476.003906 291.484375 L 476.28125 291.460938 L 476.5625 291.453125 L 476.851562 291.460938 L 477.136719 291.484375 L 477.414062 291.519531 L 477.6875 291.574219 L 477.957031 291.640625 L 478.222656 291.722656 L 478.484375 291.820312 L 478.738281 291.933594 L 478.992188 292.0625 L 479.238281 292.203125 L 479.480469 292.355469 L 479.710938 292.519531 L 479.929688 292.703125 L 480.144531 292.894531 L 480.34375 293.101562 L 480.539062 293.324219 L 480.722656 293.5625 L 480.894531 293.8125 L 481.058594 294.074219 L 481.214844 294.351562 L 481.355469 294.640625 L 481.484375 294.9375 L 481.597656 295.25 L 481.695312 295.574219 L 481.777344 295.910156 L 481.84375 296.257812 L 481.898438 296.621094 L 481.933594 296.992188 L 481.957031 297.378906 L 481.964844 297.777344 L 481.957031 298.167969 L 481.933594 298.546875 L 481.898438 298.914062 L 481.84375 299.269531 L 481.777344 299.617188 L 481.695312 299.949219 L 481.597656 300.273438 L 481.484375 300.585938 L 481.355469 300.886719 L 481.214844 301.179688 L 481.058594 301.453125 L 480.894531 301.710938 L 480.722656 301.960938 L 480.539062 302.195312 L 480.34375 302.414062 L 480.144531 302.625 L 479.929688 302.820312 L 479.710938 303.003906 L 479.480469 303.171875 L 479.238281 303.328125 L 478.992188 303.464844 L 478.738281 303.589844 L 478.484375 303.699219 L 478.222656 303.792969 L 477.957031 303.871094 L 477.6875 303.9375 L 477.414062 303.988281 L 477.136719 304.023438 L 476.851562 304.046875 Z M 476.5625 303.078125 L 476.804688 303.070312 L 477.042969 303.050781 L 477.273438 303.015625 L 477.5 302.96875 L 477.71875 302.910156 L 477.933594 302.835938 L 478.144531 302.746094 L 478.347656 302.644531 L 478.546875 302.53125 L 478.738281 302.402344 L 478.925781 302.261719 L 479.101562 302.113281 L 479.273438 301.953125 L 479.433594 301.78125 L 479.589844 301.601562 L 479.734375 301.414062 L 479.875 301.214844 L 480.003906 301.003906 L 480.125 300.78125 L 480.238281 300.554688 L 480.347656 300.308594 L 480.445312 300.058594 L 480.53125 299.800781 L 480.605469 299.53125 L 480.671875 299.257812 L 480.722656 298.976562 L 480.761719 298.6875 L 480.792969 298.394531 L 480.808594 298.089844 L 480.8125 297.777344 L 480.808594 297.460938 L 480.792969 297.152344 L 480.761719 296.855469 L 480.722656 296.5625 L 480.671875 296.277344 L 480.605469 296.003906 L 480.53125 295.734375 L 480.445312 295.472656 L 480.347656 295.222656 L 480.238281 294.976562 L 480.125 294.742188 L 480.003906 294.519531 L 479.875 294.304688 L 479.734375 294.101562 L 479.589844 293.910156 L 479.433594 293.726562 L 479.273438 293.554688 L 479.101562 293.394531 L 478.925781 293.242188 L 478.738281 293.101562 L 478.546875 292.976562 L 478.347656 292.859375 L 478.144531 292.757812 L 477.933594 292.671875 L 477.71875 292.597656 L 477.5 292.535156 L 477.273438 292.488281 L 477.042969 292.457031 L 476.804688 292.433594 L 476.5625 292.429688 L 476.328125 292.433594 L 476.09375 292.457031 L 475.863281 292.488281 L 475.640625 292.535156 L 475.421875 292.597656 L 475.207031 292.671875 L 474.996094 292.757812 L 474.789062 292.859375 L 474.585938 292.976562 L 474.390625 293.101562 L 474.203125 293.242188 L 474.023438 293.394531 L 473.855469 293.554688 L 473.691406 293.726562 L 473.539062 293.910156 L 473.394531 294.101562 L 473.253906 294.304688 L 473.125 294.519531 L 473.003906 294.742188 L 472.890625 294.976562 L 472.785156 295.222656 L 472.691406 295.472656 L 472.609375 295.734375 L 472.539062 296.003906 L 472.476562 296.277344 L 472.425781 296.5625 L 472.386719 296.855469 L 472.359375 297.152344 L 472.34375 297.460938 L 472.339844 297.777344 L 472.34375 298.089844 L 472.359375 298.394531 L 472.386719 298.6875 L 472.425781 298.976562 L 472.476562 299.257812 L 472.539062 299.53125 L 472.609375 299.800781 L 472.691406 300.058594 L 472.785156 300.308594 L 472.890625 300.554688 L 473.003906 300.78125 L 473.125 301.003906 L 473.253906 301.214844 L 473.394531 301.414062 L 473.539062 301.601562 L 473.691406 301.78125 L 473.855469 301.953125 L 474.023438 302.113281 L 474.203125 302.261719 L 474.390625 302.402344 L 474.585938 302.53125 L 474.789062 302.644531 L 474.996094 302.746094 L 475.207031 302.835938 L 475.421875 302.910156 L 475.640625 302.96875 L 475.863281 303.015625 L 476.09375 303.050781 L 476.328125 303.070312 Z M 476.5625 303.078125 "/>
<path fill-rule="nonzero" fill="rgb(10.196078%, 10.196078%, 10.196078%)" fill-opacity="1" d="M 485.5625 303.753906 L 485.5625 291.753906 L 486.664062 291.753906 L 486.664062 303.753906 Z M 486.140625 288.851562 L 486.058594 288.851562 L 485.984375 288.84375 L 485.910156 288.828125 L 485.839844 288.808594 L 485.769531 288.785156 L 485.703125 288.753906 L 485.640625 288.71875 L 485.578125 288.675781 L 485.519531 288.628906 L 485.464844 288.578125 L 485.410156 288.519531 L 485.363281 288.460938 L 485.324219 288.394531 L 485.289062 288.328125 L 485.257812 288.253906 L 485.234375 288.175781 L 485.214844 288.09375 L 485.199219 288.011719 L 485.191406 287.921875 L 485.1875 287.828125 L 485.191406 287.746094 L 485.199219 287.664062 L 485.214844 287.585938 L 485.234375 287.511719 L 485.257812 287.441406 L 485.289062 287.371094 L 485.324219 287.308594 L 485.363281 287.246094 L 485.410156 287.183594 L 485.519531 287.074219 L 485.578125 287.027344 L 485.640625 286.988281 L 485.703125 286.953125 L 485.769531 286.921875 L 485.839844 286.898438 L 485.910156 286.878906 L 485.984375 286.863281 L 486.058594 286.855469 L 486.140625 286.851562 L 486.222656 286.855469 L 486.300781 286.863281 L 486.378906 286.878906 L 486.449219 286.898438 L 486.519531 286.921875 L 486.585938 286.953125 L 486.648438 286.988281 L 486.707031 287.027344 L 486.761719 287.074219 L 486.8125 287.128906 L 486.867188 287.183594 L 486.914062 287.246094 L 486.953125 287.308594 L 486.988281 287.371094 L 487.019531 287.441406 L 487.046875 287.511719 L 487.0625 287.585938 L 487.078125 287.664062 L 487.085938 287.746094 L 487.089844 287.828125 L 487.085938 287.921875 L 487.078125 288.011719 L 487.046875 288.175781 L 487.019531 288.253906 L 486.988281 288.328125 L 486.953125 288.394531 L 486.914062 288.460938 L 486.867188 288.519531 L 486.8125 288.578125 L 486.761719 288.628906 L 486.707031 288.675781 L 486.648438 288.71875 L 486.585938 288.753906 L 486.519531 288.785156 L 486.449219 288.808594 L 486.378906 288.828125 L 486.300781 288.84375 L 486.222656 288.851562 Z M 486.140625 288.851562 "/>
<path fill-rule="nonzero" fill="rgb(10.196078%, 10.196078%, 10.196078%)" fill-opacity="1" d="M 494.1875 304.054688 L 493.925781 304.046875 L 493.667969 304.035156 L 493.410156 304.011719 L 493.15625 303.976562 L 492.90625 303.933594 L 492.664062 303.882812 L 492.417969 303.820312 L 492.179688 303.75 L 491.945312 303.667969 L 491.714844 303.578125 L 491.492188 303.476562 L 491.277344 303.371094 L 491.070312 303.261719 L 490.867188 303.148438 L 490.671875 303.035156 L 490.480469 302.914062 L 490.296875 302.792969 L 490.121094 302.667969 L 489.953125 302.535156 L 489.789062 302.402344 L 490.4375 301.578125 L 490.59375 301.703125 L 490.914062 301.9375 L 491.074219 302.050781 L 491.238281 302.160156 L 491.40625 302.265625 L 491.574219 302.367188 L 491.742188 302.464844 L 491.914062 302.5625 L 492.089844 302.652344 L 492.269531 302.738281 L 492.457031 302.816406 L 492.652344 302.882812 L 492.855469 302.941406 L 493.070312 302.992188 L 493.292969 303.03125 L 493.523438 303.0625 L 493.761719 303.085938 L 494.007812 303.097656 L 494.265625 303.101562 L 494.539062 303.097656 L 494.796875 303.074219 L 495.042969 303.039062 L 495.277344 302.992188 L 495.496094 302.929688 L 495.699219 302.851562 L 495.894531 302.761719 L 496.070312 302.65625 L 496.238281 302.535156 L 496.390625 302.402344 L 496.527344 302.257812 L 496.648438 302.105469 L 496.757812 301.949219 L 496.851562 301.789062 L 496.933594 301.621094 L 497 301.453125 L 497.050781 301.277344 L 497.085938 301.097656 L 497.105469 300.914062 L 497.113281 300.726562 L 497.109375 300.582031 L 497.097656 300.4375 L 497.074219 300.300781 L 497.042969 300.167969 L 497 300.039062 L 496.953125 299.917969 L 496.894531 299.800781 L 496.824219 299.6875 L 496.75 299.582031 L 496.664062 299.476562 L 496.570312 299.378906 L 496.476562 299.285156 L 496.375 299.195312 L 496.269531 299.105469 L 496.042969 298.941406 L 495.925781 298.863281 L 495.800781 298.789062 L 495.671875 298.71875 L 495.539062 298.652344 L 495.410156 298.589844 L 495.144531 298.464844 L 495.011719 298.40625 L 494.875 298.347656 L 494.742188 298.289062 L 494.46875 298.179688 L 494.1875 298.078125 L 494.007812 298.011719 L 493.832031 297.945312 L 493.472656 297.804688 L 493.296875 297.734375 L 493.117188 297.660156 L 492.765625 297.511719 L 492.589844 297.433594 L 492.414062 297.351562 L 492.246094 297.269531 L 492.085938 297.183594 L 491.929688 297.09375 L 491.78125 296.996094 L 491.640625 296.898438 L 491.503906 296.792969 L 491.371094 296.683594 L 491.246094 296.570312 L 491.128906 296.449219 L 491.015625 296.328125 L 490.910156 296.195312 L 490.816406 296.054688 L 490.734375 295.90625 L 490.664062 295.75 L 490.601562 295.585938 L 490.550781 295.414062 L 490.511719 295.234375 L 490.484375 295.046875 L 490.46875 294.855469 L 490.464844 294.652344 L 490.472656 294.390625 L 490.503906 294.140625 L 490.550781 293.894531 L 490.621094 293.65625 L 490.707031 293.429688 L 490.816406 293.207031 L 490.941406 292.996094 L 491.089844 292.789062 L 491.253906 292.59375 L 491.4375 292.402344 L 491.648438 292.222656 L 491.875 292.0625 L 492.117188 291.917969 L 492.378906 291.796875 L 492.65625 291.691406 L 492.953125 291.605469 L 493.269531 291.539062 L 493.597656 291.492188 L 493.949219 291.460938 L 494.3125 291.453125 L 494.507812 291.457031 L 494.699219 291.46875 L 494.890625 291.484375 L 495.082031 291.507812 L 495.269531 291.539062 L 495.457031 291.578125 L 495.640625 291.625 L 495.824219 291.675781 L 496.007812 291.738281 L 496.1875 291.804688 L 496.371094 291.875 L 496.546875 291.953125 L 496.71875 292.03125 L 496.886719 292.113281 L 497.046875 292.203125 L 497.199219 292.296875 L 497.347656 292.390625 L 497.492188 292.492188 L 497.632812 292.59375 L 497.765625 292.703125 L 497.164062 293.476562 L 496.914062 293.304688 L 496.65625 293.140625 L 496.527344 293.066406 L 496.394531 292.992188 L 496.265625 292.921875 L 496 292.789062 L 495.863281 292.726562 L 495.726562 292.667969 L 495.585938 292.609375 L 495.4375 292.5625 L 495.289062 292.519531 L 495.132812 292.484375 L 494.972656 292.457031 L 494.808594 292.433594 L 494.640625 292.417969 L 494.46875 292.40625 L 494.289062 292.402344 L 494.015625 292.410156 L 493.757812 292.429688 L 493.515625 292.464844 L 493.285156 292.511719 L 493.070312 292.570312 L 492.871094 292.644531 L 492.683594 292.734375 L 492.511719 292.835938 L 492.355469 292.949219 L 492.214844 293.078125 L 492.089844 293.214844 L 491.980469 293.355469 L 491.882812 293.496094 L 491.796875 293.640625 L 491.726562 293.789062 L 491.667969 293.941406 L 491.621094 294.097656 L 491.589844 294.253906 L 491.570312 294.414062 L 491.5625 294.578125 L 491.566406 294.710938 L 491.578125 294.839844 L 491.597656 294.964844 L 491.625 295.082031 L 491.65625 295.195312 L 491.699219 295.308594 L 491.746094 295.414062 L 491.804688 295.515625 L 491.867188 295.609375 L 491.9375 295.703125 L 492.019531 295.792969 L 492.109375 295.878906 L 492.199219 295.960938 L 492.394531 296.117188 L 492.5 296.1875 L 492.609375 296.257812 L 492.722656 296.328125 L 492.839844 296.390625 L 492.964844 296.453125 L 493.09375 296.507812 L 493.625 296.726562 L 493.761719 296.78125 L 493.898438 296.839844 L 494.035156 296.894531 L 494.175781 296.949219 L 494.3125 297.003906 L 494.503906 297.074219 L 494.691406 297.144531 L 495.066406 297.292969 L 495.25 297.367188 L 495.4375 297.441406 L 495.621094 297.519531 L 495.800781 297.59375 L 495.984375 297.671875 L 496.164062 297.753906 L 496.339844 297.835938 L 496.511719 297.925781 L 496.675781 298.019531 L 496.832031 298.117188 L 496.984375 298.222656 L 497.128906 298.332031 L 497.265625 298.449219 L 497.394531 298.570312 L 497.519531 298.695312 L 497.640625 298.828125 L 497.753906 298.96875 L 497.855469 299.117188 L 497.945312 299.277344 L 498.023438 299.449219 L 498.089844 299.628906 L 498.144531 299.816406 L 498.183594 300.019531 L 498.214844 300.226562 L 498.234375 300.449219 L 498.238281 300.679688 L 498.234375 300.855469 L 498.21875 301.03125 L 498.195312 301.207031 L 498.164062 301.378906 L 498.121094 301.546875 L 498.066406 301.714844 L 498.007812 301.875 L 497.933594 302.039062 L 497.855469 302.195312 L 497.765625 302.351562 L 497.664062 302.5 L 497.558594 302.640625 L 497.441406 302.777344 L 497.316406 302.910156 L 497.183594 303.035156 L 497.042969 303.152344 L 496.890625 303.269531 L 496.730469 303.378906 L 496.566406 303.480469 L 496.390625 303.578125 L 496.207031 303.667969 L 496.011719 303.75 L 495.8125 303.820312 L 495.605469 303.882812 L 495.390625 303.933594 L 495.164062 303.976562 L 494.933594 304.011719 L 494.691406 304.035156 L 494.445312 304.046875 Z M 494.1875 304.054688 "/>
<path fill-rule="nonzero" fill="rgb(0%, 0%, 0%)" fill-opacity="1" d="M 31.242188 144.945312 L 24.035156 144.945312 L 13.449219 150.265625 L 13.449219 148.941406 L 19.011719 146.242188 L 19.207031 146.148438 L 19.398438 146.058594 L 19.59375 145.964844 L 19.785156 145.875 L 19.976562 145.78125 L 20.167969 145.691406 L 20.359375 145.597656 L 20.550781 145.507812 L 20.738281 145.414062 L 20.929688 145.324219 L 21.117188 145.230469 L 21.691406 144.949219 L 22.277344 144.65625 L 22.476562 144.554688 L 22.671875 144.453125 L 22.871094 144.351562 L 22.871094 144.242188 L 22.671875 144.140625 L 22.476562 144.039062 L 22.277344 143.9375 L 22.082031 143.839844 L 21.691406 143.636719 L 21.117188 143.34375 L 20.929688 143.246094 L 20.738281 143.148438 L 20.550781 143.054688 L 20.359375 142.957031 L 20.167969 142.863281 L 19.976562 142.773438 L 19.785156 142.679688 L 19.59375 142.589844 L 19.398438 142.503906 L 19.207031 142.414062 L 19.011719 142.328125 L 13.449219 139.628906 L 13.449219 138.359375 L 24.035156 143.703125 L 31.242188 143.703125 Z M 31.242188 144.945312 "/>
<path fill-rule="nonzero" fill="rgb(0%, 0%, 0%)" fill-opacity="1" stroke-width="0.708661" stroke-linecap="round" stroke-linejoin="round" stroke="rgb(0%, 0%, 0%)" stroke-opacity="1" stroke-miterlimit="10" d="M 307.585938 359.488281 C 307.585938 362.984375 304.753906 365.816406 301.257812 365.816406 C 297.761719 365.816406 294.925781 362.984375 294.925781 359.488281 C 294.925781 355.992188 297.761719 353.160156 301.257812 353.160156 C 304.753906 353.160156 307.585938 355.992188 307.585938 359.488281 "/>
<path fill="none" stroke-width="2.560748" stroke-linecap="butt" stroke-linejoin="round" stroke="rgb(0%, 0%, 0%)" stroke-opacity="1" stroke-miterlimit="10" d="M 294.34375 359.488281 L 308.167969 359.488281 "/>
<path fill-rule="nonzero" fill="rgb(56.078431%, 16.470588%, 26.27451%)" fill-opacity="1" stroke-width="0.708661" stroke-linecap="round" stroke-linejoin="round" stroke="rgb(56.078431%, 16.470588%, 26.27451%)" stroke-opacity="1" stroke-miterlimit="10" d="M 362.113281 359.488281 C 362.113281 362.984375 359.277344 365.816406 355.78125 365.816406 C 352.285156 365.816406 349.453125 362.984375 349.453125 359.488281 C 349.453125 355.992188 352.285156 353.160156 355.78125 353.160156 C 359.277344 353.160156 362.113281 355.992188 362.113281 359.488281 "/>
<path fill="none" stroke-width="2.560748" stroke-linecap="butt" stroke-linejoin="round" stroke="rgb(56.078431%, 16.470588%, 26.27451%)" stroke-opacity="1" stroke-miterlimit="10" d="M 348.871094 359.488281 L 362.695312 359.488281 "/>
<path fill-rule="nonzero" fill="rgb(0%, 0%, 0%)" fill-opacity="1" d="M 328.507812 366.867188 L 328.125 366.847656 L 327.757812 366.789062 L 327.410156 366.695312 L 327.078125 366.566406 L 326.765625 366.394531 L 326.46875 366.1875 L 326.191406 365.945312 L 325.929688 365.664062 L 325.6875 365.34375 L 325.460938 364.984375 L 325.257812 364.59375 L 325.074219 364.171875 L 324.910156 363.714844 L 324.773438 363.230469 L 324.652344 362.710938 L 324.554688 362.164062 L 324.480469 361.582031 L 324.425781 360.96875 L 324.394531 360.328125 L 324.382812 359.652344 L 324.394531 358.980469 L 324.425781 358.339844 L 324.480469 357.734375 L 324.554688 357.160156 L 324.652344 356.617188 L 324.773438 356.105469 L 324.910156 355.625 L 325.074219 355.179688 L 325.257812 354.761719 L 325.460938 354.378906 L 325.6875 354.03125 L 325.929688 353.71875 L 326.191406 353.445312 L 326.46875 353.207031 L 326.765625 353.003906 L 327.078125 352.839844 L 327.410156 352.710938 L 327.757812 352.617188 L 328.125 352.5625 L 328.507812 352.542969 L 328.898438 352.5625 L 329.265625 352.617188 L 329.617188 352.710938 L 329.949219 352.839844 L 330.261719 353.003906 L 330.558594 353.207031 L 330.835938 353.445312 L 331.09375 353.71875 L 331.332031 354.03125 L 331.554688 354.378906 L 331.757812 354.761719 L 331.941406 355.179688 L 332.105469 355.625 L 332.246094 356.105469 L 332.363281 356.617188 L 332.460938 357.160156 L 332.535156 357.734375 L 332.589844 358.339844 L 332.625 358.980469 L 332.632812 359.652344 L 332.625 360.328125 L 332.589844 360.96875 L 332.535156 361.582031 L 332.460938 362.164062 L 332.363281 362.710938 L 332.246094 363.230469 L 332.105469 363.714844 L 331.941406 364.171875 L 331.757812 364.59375 L 331.554688 364.984375 L 331.332031 365.34375 L 331.09375 365.664062 L 330.835938 365.945312 L 330.558594 366.1875 L 330.261719 366.394531 L 329.949219 366.566406 L 329.617188 366.695312 L 329.265625 366.789062 L 328.898438 366.847656 Z M 328.507812 366.042969 L 328.792969 366.027344 L 329.0625 365.980469 L 329.324219 365.898438 L 329.570312 365.785156 L 329.804688 365.640625 L 330.027344 365.460938 L 330.238281 365.25 L 330.4375 365.007812 L 330.625 364.730469 L 330.796875 364.425781 L 330.960938 364.085938 L 331.109375 363.714844 L 331.238281 363.3125 L 331.351562 362.882812 L 331.445312 362.421875 L 331.523438 361.929688 L 331.585938 361.40625 L 331.628906 360.851562 L 331.652344 360.265625 L 331.660156 359.652344 L 331.652344 359.035156 L 331.628906 358.453125 L 331.585938 357.902344 L 331.523438 357.382812 L 331.445312 356.898438 L 331.351562 356.441406 L 331.238281 356.019531 L 331.109375 355.628906 L 330.960938 355.269531 L 330.796875 354.941406 L 330.625 354.640625 L 330.4375 354.375 L 330.238281 354.136719 L 330.027344 353.933594 L 329.804688 353.757812 L 329.570312 353.617188 L 329.324219 353.507812 L 329.0625 353.429688 L 328.792969 353.382812 L 328.507812 353.367188 L 328.230469 353.382812 L 327.960938 353.429688 L 327.703125 353.507812 L 327.457031 353.617188 L 327.222656 353.757812 L 327 353.933594 L 326.789062 354.136719 L 326.585938 354.375 L 326.398438 354.640625 L 326.21875 354.941406 L 326.054688 355.269531 L 325.90625 355.628906 L 325.777344 356.019531 L 325.664062 356.441406 L 325.570312 356.898438 L 325.492188 357.382812 L 325.433594 357.902344 L 325.390625 358.453125 L 325.363281 359.035156 L 325.355469 359.652344 L 325.363281 360.265625 L 325.390625 360.851562 L 325.433594 361.40625 L 325.492188 361.929688 L 325.570312 362.421875 L 325.664062 362.882812 L 325.777344 363.3125 L 325.90625 363.714844 L 326.054688 364.085938 L 326.21875 364.425781 L 326.398438 364.730469 L 326.585938 365.007812 L 326.789062 365.25 L 327 365.460938 L 327.222656 365.640625 L 327.457031 365.785156 L 327.703125 365.898438 L 327.960938 365.980469 L 328.230469 366.027344 Z M 328.507812 366.042969 "/>
<path fill-rule="nonzero" fill="rgb(0%, 0%, 0%)" fill-opacity="1" d="M 379.6875 366.605469 L 379.6875 365.761719 L 382.925781 365.761719 L 382.925781 354.316406 L 380.464844 354.316406 L 380.464844 353.667969 L 380.792969 353.605469 L 380.953125 353.570312 L 381.109375 353.535156 L 381.414062 353.464844 L 381.558594 353.425781 L 381.699219 353.382812 L 381.839844 353.34375 L 381.976562 353.300781 L 382.109375 353.257812 L 382.359375 353.164062 L 382.480469 353.117188 L 382.597656 353.066406 L 382.710938 353.019531 L 382.816406 352.964844 L 382.921875 352.914062 L 383.023438 352.859375 L 383.121094 352.804688 L 383.898438 352.804688 L 383.898438 365.761719 L 386.898438 365.761719 L 386.898438 366.605469 Z M 379.6875 366.605469 "/>
</svg>
