<?xml version="1.0" encoding="UTF-8"?>
<svg xmlns="http://www.w3.org/2000/svg" xmlns:xlink="http://www.w3.org/1999/xlink" width="547" height="410" viewBox="0 0 547 410">
<defs>
<clipPath id="clip-0">
<path clip-rule="nonzero" d="M 50.929688 13.449219 L 533.550781 13.449219 L 533.550781 362.195312 L 50.929688 362.195312 Z M 50.929688 13.449219 "/>
</clipPath>
<clipPath id="clip-1">
<path clip-rule="nonzero" d="M 50.929688 345 L 533.550781 345 L 533.550781 348 L 50.929688 348 Z M 50.929688 345 "/>
</clipPath>
<clipPath id="clip-2">
<path clip-rule="nonzero" d="M 50.929688 265 L 533.550781 265 L 533.550781 269 L 50.929688 269 Z M 50.929688 265 "/>
</clipPath>
<clipPath id="clip-3">
<path clip-rule="nonzero" d="M 50.929688 186 L 533.550781 186 L 533.550781 190 L 50.929688 190 Z M 50.929688 186 "/>
</clipPath>
<clipPath id="clip-4">
<path clip-rule="nonzero" d="M 50.929688 107 L 533.550781 107 L 533.550781 110 L 50.929688 110 Z M 50.929688 107 "/>
</clipPath>
<clipPath id="clip-5">
<path clip-rule="nonzero" d="M 50.929688 27 L 533.550781 27 L 533.550781 31 L 50.929688 31 Z M 50.929688 27 "/>
</clipPath>
<clipPath id="clip-6">
<path clip-rule="nonzero" d="M 181 13.449219 L 184 13.449219 L 184 362.195312 L 181 362.195312 Z M 181 13.449219 "/>
</clipPath>
<clipPath id="clip-7">
<path clip-rule="nonzero" d="M 400 13.449219 L 404 13.449219 L 404 362.195312 L 400 362.195312 Z M 400 13.449219 "/>
</clipPath>
</defs>
<rect x="-54.7" y="-41" width="656.4" height="492" fill="rgb(100%, 100%, 100%)" fill-opacity="1"/>
<rect x="-54.7" y="-41" width="656.4" height="492" fill="rgb(95.294118%, 95.294118%, 95.294118%)" fill-opacity="1"/>
<path fill="none" stroke-width="2.618947" stroke-linecap="round" stroke-linejoin="round" stroke="rgb(95.294118%, 95.294118%, 95.294118%)" stroke-opacity="1" stroke-miterlimit="10" d="M 0 410 L 547 410 L 547 0 L 0 0 Z M 0 410 "/>
<g clip-path="url(#clip-0)">
<path fill-rule="nonzero" fill="rgb(95.294118%, 95.294118%, 95.294118%)" fill-opacity="1" stroke-width="2.618947" stroke-linecap="round" stroke-linejoin="round" stroke="rgb(95.294118%, 95.294118%, 95.294118%)" stroke-opacity="1" stroke-miterlimit="10" d="M 50.929688 362.195312 L 533.550781 362.195312 L 533.550781 13.449219 L 50.929688 13.449219 Z M 50.929688 362.195312 "/>
</g>
<g clip-path="url(#clip-1)">
<path fill="none" stroke-width="2.618947" stroke-linecap="butt" stroke-linejoin="round" stroke="rgb(92.156863%, 92.156863%, 92.156863%)" stroke-opacity="1" stroke-miterlimit="10" d="M 50.929688 346.34375 L 533.550781 346.34375 "/>
</g>
<g clip-path="url(#clip-2)">
<path fill="none" stroke-width="2.618947" stroke-linecap="butt" stroke-linejoin="round" stroke="rgb(92.156863%, 92.156863%, 92.156863%)" stroke-opacity="1" stroke-miterlimit="10" d="M 50.929688 267.082031 L 533.550781 267.082031 "/>
</g>
<g clip-path="url(#clip-3)">
<path fill="none" stroke-width="2.618947" stroke-linecap="butt" stroke-linejoin="round" stroke="rgb(92.156863%, 92.156863%, 92.156863%)" stroke-opacity="1" stroke-miterlimit="10" d="M 50.929688 187.824219 L 533.550781 187.824219 "/>
</g>
<g clip-path="url(#clip-4)">
<path fill="none" stroke-width="2.618947" stroke-linecap="butt" stroke-linejoin="round" stroke="rgb(92.156863%, 92.156863%, 92.156863%)" stroke-opacity="1" stroke-miterlimit="10" d="M 50.929688 108.5625 L 533.550781 108.5625 "/>
</g>
<g clip-path="url(#clip-5)">
<path fill="none" stroke-width="2.618947" stroke-linecap="butt" stroke-linejoin="round" stroke="rgb(92.156863%, 92.156863%, 92.156863%)" stroke-opacity="1" stroke-miterlimit="10" d="M 50.929688 29.300781 L 533.550781 29.300781 "/>
</g>
<g clip-path="url(#clip-6)">
<path fill="none" stroke-width="2.618947" stroke-linecap="butt" stroke-linejoin="round" stroke="rgb(92.156863%, 92.156863%, 92.156863%)" stroke-opacity="1" stroke-miterlimit="10" d="M 182.554688 362.195312 L 182.554688 13.449219 "/>
</g>
<g clip-path="url(#clip-7)">
<path fill="none" stroke-width="2.618947" stroke-linecap="butt" stroke-linejoin="round" stroke="rgb(92.156863%, 92.156863%, 92.156863%)" stroke-opacity="1" stroke-miterlimit="10" d="M 401.925781 362.195312 L 401.925781 13.449219 "/>
</g>
<path fill-rule="nonzero" fill="rgb(0%, 0%, 0%)" fill-opacity="1" stroke-width="0.708661" stroke-linecap="round" stroke-linejoin="round" stroke="rgb(0%, 0%, 0%)" stroke-opacity="1" stroke-miterlimit="10" d="M 188.882812 267.082031 C 188.882812 270.578125 186.046875 273.414062 182.554688 273.414062 C 179.058594 273.414062 176.222656 270.578125 176.222656 267.082031 C 176.222656 263.585938 179.058594 260.753906 182.554688 260.753906 C 186.046875 260.753906 188.882812 263.585938 188.882812 267.082031 "/>
<path fill-rule="nonzero" fill="rgb(0%, 0%, 0%)" fill-opacity="1" stroke-width="0.708661" stroke-linecap="round" stroke-linejoin="round" stroke="rgb(0%, 0%, 0%)" stroke-opacity="1" stroke-miterlimit="10" d="M 408.253906 227.453125 C 408.253906 230.949219 405.421875 233.78125 401.925781 233.78125 C 398.429688 233.78125 395.597656 230.949219 395.597656 227.453125 C 395.597656 223.957031 398.429688 221.125 401.925781 221.125 C 405.421875 221.125 408.253906 223.957031 408.253906 227.453125 "/>
<path fill-rule="nonzero" fill="rgb(56.078431%, 16.470588%, 26.27451%)" fill-opacity="1" stroke-width="0.708661" stroke-linecap="round" stroke-linejoin="round" stroke="rgb(56.078431%, 16.470588%, 26.27451%)" stroke-opacity="1" stroke-miterlimit="10" d="M 188.882812 187.824219 C 188.882812 191.316406 186.046875 194.152344 182.554688 194.152344 C 179.058594 194.152344 176.222656 191.316406 176.222656 187.824219 C 176.222656 184.328125 179.058594 181.492188 182.554688 181.492188 C 186.046875 181.492188 188.882812 184.328125 188.882812 187.824219 "/>
<path fill-rule="nonzero" fill="rgb(56.078431%, 16.470588%, 26.27451%)" fill-opacity="1" stroke-width="0.708661" stroke-linecap="round" stroke-linejoin="round" stroke="rgb(56.078431%, 16.470588%, 26.27451%)" stroke-opacity="1" stroke-miterlimit="10" d="M 408.253906 68.933594 C 408.253906 72.425781 405.421875 75.261719 401.925781 75.261719 C 398.429688 75.261719 395.597656 72.425781 395.597656 68.933594 C 395.597656 65.4375 398.429688 62.601562 401.925781 62.601562 C 405.421875 62.601562 408.253906 65.4375 408.253906 68.933594 "/>
<path fill-rule="nonzero" fill="rgb(0%, 0%, 0%)" fill-opacity="1" d="M 163.597656 276.925781 L 163.597656 275.761719 L 168.078125 275.761719 L 168.078125 259.929688 L 164.671875 259.929688 L 164.671875 259.03125 L 164.902344 258.988281 L 165.128906 258.945312 L 165.351562 258.898438 L 165.566406 258.851562 L 165.777344 258.800781 L 165.984375 258.75 L 166.1875 258.695312 L 166.382812 258.640625 L 166.578125 258.582031 L 166.765625 258.523438 L 166.945312 258.464844 L 167.125 258.402344 L 167.296875 258.335938 L 167.460938 258.269531 L 167.621094 258.203125 L 167.777344 258.132812 L 167.929688 258.0625 L 168.074219 257.988281 L 168.214844 257.914062 L 168.347656 257.835938 L 169.421875 257.835938 L 169.421875 275.761719 L 173.574219 275.761719 L 173.574219 276.925781 Z M 163.597656 276.925781 "/>
<path fill-rule="nonzero" fill="rgb(0%, 0%, 0%)" fill-opacity="1" d="M 351.691406 237.296875 L 351.691406 236.132812 L 356.171875 236.132812 L 356.171875 220.296875 L 352.765625 220.296875 L 352.765625 219.402344 L 352.996094 219.359375 L 353.222656 219.3125 L 353.445312 219.269531 L 353.660156 219.21875 L 353.871094 219.171875 L 354.078125 219.117188 L 354.28125 219.066406 L 354.476562 219.007812 L 354.671875 218.953125 L 354.859375 218.894531 L 355.21875 218.769531 L 355.390625 218.707031 L 355.554688 218.640625 L 355.714844 218.574219 L 355.871094 218.503906 L 356.023438 218.429688 L 356.167969 218.359375 L 356.308594 218.285156 L 356.441406 218.207031 L 357.515625 218.207031 L 357.515625 236.132812 L 361.667969 236.132812 L 361.667969 237.296875 Z M 351.691406 237.296875 "/>
<path fill-rule="nonzero" fill="rgb(0%, 0%, 0%)" fill-opacity="1" d="M 366.777344 237.65625 L 366.683594 237.652344 L 366.589844 237.640625 L 366.496094 237.625 L 366.40625 237.597656 L 366.316406 237.566406 L 366.226562 237.527344 L 366.136719 237.480469 L 366.050781 237.425781 L 365.964844 237.363281 L 365.882812 237.296875 L 365.808594 237.222656 L 365.742188 237.144531 L 365.683594 237.058594 L 365.632812 236.96875 L 365.589844 236.871094 L 365.554688 236.769531 L 365.527344 236.664062 L 365.507812 236.550781 L 365.496094 236.433594 L 365.492188 236.3125 L 365.496094 236.183594 L 365.507812 236.058594 L 365.527344 235.945312 L 365.554688 235.832031 L 365.589844 235.726562 L 365.632812 235.628906 L 365.683594 235.539062 L 365.742188 235.449219 L 365.808594 235.371094 L 365.882812 235.296875 L 365.964844 235.226562 L 366.050781 235.167969 L 366.136719 235.113281 L 366.226562 235.066406 L 366.316406 235.027344 L 366.40625 234.992188 L 366.496094 234.96875 L 366.589844 234.949219 L 366.683594 234.941406 L 366.777344 234.9375 L 366.878906 234.941406 L 366.976562 234.949219 L 367.070312 234.96875 L 367.160156 234.992188 L 367.25 235.027344 L 367.332031 235.066406 L 367.414062 235.113281 L 367.496094 235.167969 L 367.570312 235.226562 L 367.644531 235.296875 L 367.71875 235.371094 L 367.785156 235.449219 L 367.84375 235.539062 L 367.894531 235.628906 L 367.9375 235.726562 L 367.96875 235.832031 L 367.996094 235.945312 L 368.015625 236.058594 L 368.027344 236.183594 L 368.03125 236.3125 L 368.027344 236.433594 L 368.015625 236.550781 L 367.996094 236.664062 L 367.96875 236.769531 L 367.9375 236.871094 L 367.894531 236.96875 L 367.84375 237.058594 L 367.785156 237.144531 L 367.71875 237.222656 L 367.644531 237.296875 L 367.570312 237.363281 L 367.496094 237.425781 L 367.414062 237.480469 L 367.332031 237.527344 L 367.25 237.566406 L 367.160156 237.597656 L 367.070312 237.625 L 366.976562 237.640625 L 366.878906 237.652344 Z M 366.777344 237.65625 "/>
<path fill-rule="nonzero" fill="rgb(0%, 0%, 0%)" fill-opacity="1" d="M 376.816406 237.65625 L 376.515625 237.652344 L 376.222656 237.640625 L 375.9375 237.621094 L 375.660156 237.59375 L 375.390625 237.558594 L 375.128906 237.515625 L 374.875 237.464844 L 374.625 237.40625 L 374.386719 237.339844 L 374.15625 237.265625 L 373.9375 237.1875 L 373.726562 237.101562 L 373.519531 237.015625 L 373.320312 236.921875 L 373.125 236.828125 L 372.9375 236.726562 L 372.757812 236.621094 L 372.578125 236.511719 L 372.410156 236.398438 L 372.246094 236.28125 L 372.085938 236.160156 L 371.929688 236.042969 L 371.777344 235.921875 L 371.628906 235.804688 L 371.484375 235.683594 L 371.34375 235.5625 L 371.203125 235.445312 L 371.070312 235.324219 L 370.9375 235.207031 L 370.8125 235.085938 L 371.558594 234.160156 L 371.734375 234.332031 L 371.917969 234.5 L 372.109375 234.667969 L 372.304688 234.832031 L 372.507812 234.996094 L 372.714844 235.15625 L 372.933594 235.3125 L 373.15625 235.46875 L 373.382812 235.621094 L 373.621094 235.773438 L 373.871094 235.910156 L 374.136719 236.03125 L 374.417969 236.140625 L 374.714844 236.230469 L 375.023438 236.3125 L 375.347656 236.375 L 375.6875 236.425781 L 376.039062 236.460938 L 376.40625 236.484375 L 376.785156 236.492188 L 377.042969 236.484375 L 377.292969 236.464844 L 377.539062 236.433594 L 377.78125 236.390625 L 378.019531 236.332031 L 378.253906 236.265625 L 378.480469 236.183594 L 378.707031 236.089844 L 378.929688 235.980469 L 379.144531 235.863281 L 379.355469 235.726562 L 379.558594 235.578125 L 379.753906 235.421875 L 379.941406 235.253906 L 380.117188 235.078125 L 380.285156 234.890625 L 380.445312 234.695312 L 380.597656 234.484375 L 380.742188 234.269531 L 380.878906 234.039062 L 381.003906 233.804688 L 381.117188 233.558594 L 381.214844 233.308594 L 381.300781 233.050781 L 381.371094 232.785156 L 381.429688 232.511719 L 381.476562 232.234375 L 381.511719 231.945312 L 381.53125 231.652344 L 381.535156 231.351562 L 381.523438 230.902344 L 381.484375 230.472656 L 381.421875 230.058594 L 381.332031 229.667969 L 381.214844 229.296875 L 381.074219 228.945312 L 380.90625 228.613281 L 380.714844 228.300781 L 380.496094 228.007812 L 380.25 227.738281 L 379.992188 227.488281 L 379.714844 227.261719 L 379.421875 227.066406 L 379.109375 226.894531 L 378.78125 226.75 L 378.433594 226.632812 L 378.070312 226.539062 L 377.691406 226.476562 L 377.292969 226.433594 L 376.875 226.421875 L 376.65625 226.425781 L 376.445312 226.4375 L 376.238281 226.453125 L 376.039062 226.480469 L 375.84375 226.511719 L 375.65625 226.550781 L 375.476562 226.597656 L 375.296875 226.652344 L 375.128906 226.710938 L 374.964844 226.78125 L 374.808594 226.847656 L 374.648438 226.921875 L 374.328125 227.085938 L 374.164062 227.175781 L 374 227.273438 L 373.832031 227.371094 L 373.664062 227.480469 L 373.492188 227.589844 L 373.320312 227.707031 L 372.394531 227.140625 L 373.082031 218.207031 L 381.894531 218.207031 L 381.894531 219.371094 L 374.277344 219.371094 L 373.679688 226.273438 L 373.828125 226.183594 L 374.132812 226.019531 L 374.285156 225.941406 L 374.597656 225.800781 L 374.753906 225.734375 L 374.914062 225.671875 L 375.070312 225.613281 L 375.234375 225.554688 L 375.398438 225.5 L 375.566406 225.449219 L 375.738281 225.402344 L 375.917969 225.363281 L 376.097656 225.332031 L 376.285156 225.304688 L 376.480469 225.285156 L 376.675781 225.269531 L 376.878906 225.261719 L 377.085938 225.257812 L 377.40625 225.265625 L 377.71875 225.285156 L 378.027344 225.316406 L 378.328125 225.363281 L 378.625 225.421875 L 378.914062 225.492188 L 379.195312 225.578125 L 379.476562 225.679688 L 379.746094 225.789062 L 380.011719 225.914062 L 380.277344 226.046875 L 380.527344 226.195312 L 380.769531 226.355469 L 380.996094 226.53125 L 381.214844 226.722656 L 381.421875 226.925781 L 381.617188 227.144531 L 381.800781 227.378906 L 381.972656 227.625 L 382.132812 227.886719 L 382.28125 228.15625 L 382.414062 228.441406 L 382.53125 228.746094 L 382.632812 229.0625 L 382.714844 229.394531 L 382.785156 229.742188 L 382.839844 230.105469 L 382.878906 230.488281 L 382.902344 230.882812 L 382.910156 231.292969 L 382.902344 231.691406 L 382.875 232.082031 L 382.832031 232.457031 L 382.765625 232.820312 L 382.6875 233.175781 L 382.589844 233.515625 L 382.472656 233.84375 L 382.335938 234.160156 L 382.183594 234.464844 L 382.015625 234.757812 L 381.835938 235.03125 L 381.644531 235.292969 L 381.445312 235.539062 L 381.234375 235.777344 L 381.011719 235.996094 L 380.78125 236.207031 L 380.539062 236.402344 L 380.285156 236.582031 L 380.019531 236.753906 L 379.742188 236.910156 L 379.46875 237.050781 L 379.1875 237.175781 L 378.902344 237.289062 L 378.617188 237.386719 L 378.324219 237.46875 L 378.03125 237.535156 L 377.730469 237.589844 L 377.429688 237.625 L 377.125 237.648438 Z M 376.816406 237.65625 "/>
<path fill-rule="nonzero" fill="rgb(56.078431%, 16.470588%, 26.27451%)" fill-opacity="1" d="M 162.3125 197.667969 L 162.3125 196.832031 L 162.929688 196.199219 L 163.527344 195.585938 L 164.101562 194.988281 L 164.65625 194.410156 L 165.1875 193.851562 L 165.699219 193.304688 L 166.191406 192.78125 L 166.664062 192.269531 L 167.113281 191.777344 L 167.539062 191.304688 L 167.949219 190.835938 L 168.335938 190.378906 L 168.703125 189.933594 L 169.046875 189.496094 L 169.371094 189.070312 L 169.675781 188.652344 L 169.957031 188.246094 L 170.21875 187.851562 L 170.457031 187.464844 L 170.675781 187.089844 L 170.875 186.722656 L 171.054688 186.359375 L 171.210938 186 L 171.347656 185.640625 L 171.460938 185.289062 L 171.554688 184.941406 L 171.628906 184.601562 L 171.679688 184.261719 L 171.710938 183.925781 L 171.722656 183.59375 L 171.714844 183.242188 L 171.683594 182.902344 L 171.632812 182.570312 L 171.5625 182.253906 L 171.46875 181.945312 L 171.359375 181.648438 L 171.226562 181.363281 L 171.074219 181.089844 L 170.902344 180.828125 L 170.707031 180.578125 L 170.5 180.34375 L 170.265625 180.136719 L 170.011719 179.953125 L 169.730469 179.792969 L 169.429688 179.660156 L 169.105469 179.550781 L 168.757812 179.464844 L 168.382812 179.402344 L 167.988281 179.367188 L 167.570312 179.351562 L 167.316406 179.359375 L 167.0625 179.382812 L 166.8125 179.417969 L 166.5625 179.46875 L 166.316406 179.53125 L 166.070312 179.609375 L 165.832031 179.703125 L 165.589844 179.8125 L 165.355469 179.933594 L 165.121094 180.070312 L 164.894531 180.21875 L 164.675781 180.371094 L 164.464844 180.53125 L 164.253906 180.699219 L 164.054688 180.875 L 163.855469 181.058594 L 163.664062 181.25 L 163.476562 181.445312 L 163.296875 181.652344 L 163.121094 181.863281 L 162.253906 181.027344 L 162.46875 180.789062 L 162.691406 180.5625 L 162.917969 180.34375 L 163.152344 180.132812 L 163.386719 179.929688 L 163.628906 179.730469 L 163.875 179.542969 L 164.125 179.363281 L 164.382812 179.191406 L 164.644531 179.023438 L 164.910156 178.871094 L 165.183594 178.734375 L 165.46875 178.613281 L 165.761719 178.507812 L 166.0625 178.417969 L 166.371094 178.347656 L 166.6875 178.289062 L 167.015625 178.25 L 167.347656 178.226562 L 167.691406 178.21875 L 168.191406 178.230469 L 168.671875 178.277344 L 169.125 178.347656 L 169.558594 178.453125 L 169.96875 178.582031 L 170.355469 178.746094 L 170.714844 178.933594 L 171.054688 179.15625 L 171.371094 179.402344 L 171.664062 179.683594 L 171.929688 179.984375 L 172.167969 180.304688 L 172.378906 180.644531 L 172.5625 181.003906 L 172.714844 181.382812 L 172.84375 181.78125 L 172.941406 182.199219 L 173.011719 182.636719 L 173.054688 183.089844 L 173.066406 183.566406 L 173.054688 183.941406 L 173.023438 184.320312 L 172.96875 184.699219 L 172.890625 185.082031 L 172.792969 185.460938 L 172.667969 185.84375 L 172.527344 186.230469 L 172.359375 186.613281 L 172.171875 187 L 171.960938 187.390625 L 171.738281 187.78125 L 171.496094 188.179688 L 171.234375 188.582031 L 170.957031 188.992188 L 170.664062 189.40625 L 170.347656 189.828125 L 170.015625 190.253906 L 169.667969 190.6875 L 169.300781 191.125 L 168.914062 191.570312 L 168.519531 192.027344 L 168.109375 192.492188 L 167.683594 192.96875 L 167.246094 193.457031 L 166.792969 193.953125 L 166.328125 194.464844 L 165.84375 194.988281 L 165.347656 195.519531 L 164.839844 196.066406 L 164.3125 196.621094 L 164.78125 196.585938 L 164.941406 196.578125 L 165.097656 196.570312 L 165.257812 196.558594 L 165.417969 196.550781 L 165.574219 196.542969 L 165.738281 196.539062 L 165.898438 196.53125 L 166.0625 196.519531 L 166.230469 196.511719 L 166.394531 196.5 L 166.558594 196.492188 L 166.71875 196.488281 L 166.878906 196.480469 L 167.199219 196.472656 L 174.023438 196.472656 L 174.023438 197.667969 Z M 162.3125 197.667969 "/>
<path fill-rule="nonzero" fill="rgb(56.078431%, 16.470588%, 26.27451%)" fill-opacity="1" d="M 356.113281 79.132812 L 355.8125 79.128906 L 355.519531 79.117188 L 355.234375 79.097656 L 354.957031 79.070312 L 354.6875 79.039062 L 354.425781 78.996094 L 354.167969 78.945312 L 353.921875 78.886719 L 353.683594 78.820312 L 353.453125 78.746094 L 353.230469 78.660156 L 353.011719 78.570312 L 352.800781 78.476562 L 352.59375 78.378906 L 352.394531 78.277344 L 352.199219 78.167969 L 352.011719 78.058594 L 351.828125 77.941406 L 351.652344 77.824219 L 351.480469 77.699219 L 351.167969 77.449219 L 350.863281 77.199219 L 350.71875 77.074219 L 350.578125 76.949219 L 350.441406 76.820312 L 350.304688 76.695312 L 350.046875 76.445312 L 350.824219 75.519531 L 351 75.703125 L 351.183594 75.882812 L 351.375 76.0625 L 351.574219 76.238281 L 351.78125 76.410156 L 351.992188 76.578125 L 352.214844 76.742188 L 352.441406 76.90625 L 352.675781 77.066406 L 352.914062 77.222656 L 353.167969 77.363281 L 353.4375 77.492188 L 353.71875 77.601562 L 354.015625 77.699219 L 354.328125 77.78125 L 354.65625 77.851562 L 354.996094 77.902344 L 355.355469 77.9375 L 355.726562 77.960938 L 356.113281 77.96875 L 356.492188 77.957031 L 356.863281 77.921875 L 357.214844 77.867188 L 357.554688 77.789062 L 357.882812 77.683594 L 358.195312 77.558594 L 358.496094 77.414062 L 358.78125 77.242188 L 359.050781 77.050781 L 359.308594 76.832031 L 359.546875 76.59375 L 359.761719 76.339844 L 359.949219 76.066406 L 360.113281 75.78125 L 360.25 75.480469 L 360.363281 75.167969 L 360.449219 74.835938 L 360.515625 74.492188 L 360.550781 74.132812 L 360.5625 73.757812 L 360.546875 73.371094 L 360.5 72.996094 L 360.425781 72.640625 L 360.316406 72.300781 L 360.175781 71.972656 L 360.003906 71.660156 L 359.804688 71.363281 L 359.570312 71.078125 L 359.304688 70.8125 L 359.011719 70.558594 L 358.683594 70.328125 L 358.320312 70.121094 L 357.910156 69.933594 L 357.460938 69.777344 L 356.972656 69.640625 L 356.441406 69.53125 L 355.867188 69.445312 L 355.253906 69.382812 L 354.597656 69.347656 L 353.902344 69.335938 L 353.902344 68.171875 L 354.335938 68.164062 L 354.75 68.148438 L 355.148438 68.121094 L 355.527344 68.085938 L 355.886719 68.035156 L 356.230469 67.976562 L 356.558594 67.90625 L 356.867188 67.824219 L 357.15625 67.734375 L 357.425781 67.632812 L 357.683594 67.515625 L 357.921875 67.390625 L 358.148438 67.257812 L 358.359375 67.117188 L 358.554688 66.96875 L 358.734375 66.8125 L 358.902344 66.648438 L 359.050781 66.476562 L 359.1875 66.296875 L 359.308594 66.109375 L 359.417969 65.914062 L 359.511719 65.71875 L 359.597656 65.519531 L 359.671875 65.316406 L 359.734375 65.109375 L 359.785156 64.898438 L 359.824219 64.683594 L 359.855469 64.464844 L 359.871094 64.242188 L 359.875 64.015625 L 359.867188 63.703125 L 359.835938 63.398438 L 359.78125 63.109375 L 359.710938 62.832031 L 359.617188 62.570312 L 359.5 62.316406 L 359.363281 62.082031 L 359.207031 61.855469 L 359.03125 61.644531 L 358.832031 61.449219 L 358.613281 61.261719 L 358.382812 61.09375 L 358.140625 60.945312 L 357.878906 60.816406 L 357.605469 60.707031 L 357.316406 60.621094 L 357.015625 60.550781 L 356.699219 60.5 L 356.367188 60.472656 L 356.023438 60.460938 L 355.761719 60.46875 L 355.503906 60.488281 L 355.25 60.519531 L 355 60.5625 L 354.753906 60.617188 L 354.511719 60.6875 L 354.269531 60.769531 L 354.035156 60.863281 L 353.800781 60.96875 L 353.574219 61.089844 L 353.355469 61.210938 L 353.140625 61.339844 L 352.933594 61.472656 L 352.730469 61.609375 L 352.535156 61.753906 L 352.34375 61.902344 L 352.15625 62.058594 L 351.976562 62.21875 L 351.800781 62.382812 L 351.632812 62.554688 L 350.855469 61.65625 L 351.054688 61.46875 L 351.257812 61.285156 L 351.46875 61.109375 L 351.6875 60.933594 L 351.90625 60.769531 L 352.132812 60.605469 L 352.367188 60.449219 L 352.605469 60.300781 L 352.847656 60.152344 L 353.09375 60.015625 L 353.355469 59.882812 L 353.625 59.765625 L 353.898438 59.664062 L 354.179688 59.574219 L 354.46875 59.5 L 354.765625 59.4375 L 355.070312 59.390625 L 355.378906 59.355469 L 355.699219 59.332031 L 356.023438 59.328125 L 356.320312 59.332031 L 356.605469 59.347656 L 356.890625 59.375 L 357.164062 59.414062 L 357.433594 59.460938 L 357.695312 59.519531 L 357.953125 59.589844 L 358.203125 59.671875 L 358.445312 59.761719 L 358.683594 59.863281 L 358.914062 59.976562 L 359.140625 60.101562 L 359.351562 60.234375 L 359.554688 60.375 L 359.75 60.53125 L 359.933594 60.691406 L 360.105469 60.867188 L 360.269531 61.050781 L 360.421875 61.242188 L 360.5625 61.449219 L 360.695312 61.65625 L 360.8125 61.871094 L 360.914062 62.097656 L 361.003906 62.332031 L 361.078125 62.574219 L 361.140625 62.828125 L 361.1875 63.089844 L 361.222656 63.359375 L 361.246094 63.640625 L 361.25 63.929688 L 361.242188 64.296875 L 361.210938 64.652344 L 361.15625 64.992188 L 361.082031 65.320312 L 360.988281 65.628906 L 360.875 65.929688 L 360.738281 66.210938 L 360.582031 66.480469 L 360.402344 66.734375 L 360.207031 66.976562 L 359.996094 67.195312 L 359.777344 67.40625 L 359.542969 67.601562 L 359.300781 67.789062 L 359.046875 67.960938 L 358.78125 68.121094 L 358.503906 68.273438 L 358.21875 68.410156 L 357.917969 68.535156 L 357.605469 68.648438 L 357.605469 68.769531 L 357.84375 68.820312 L 358.074219 68.882812 L 358.300781 68.953125 L 358.523438 69.03125 L 358.742188 69.117188 L 358.953125 69.214844 L 359.164062 69.320312 L 359.367188 69.4375 L 359.5625 69.5625 L 359.757812 69.695312 L 359.949219 69.828125 L 360.136719 69.972656 L 360.3125 70.121094 L 360.484375 70.277344 L 360.644531 70.441406 L 360.800781 70.613281 L 360.945312 70.789062 L 361.085938 70.976562 L 361.21875 71.167969 L 361.339844 71.367188 L 361.453125 71.574219 L 361.554688 71.785156 L 361.644531 72.003906 L 361.722656 72.230469 L 361.789062 72.464844 L 361.84375 72.703125 L 361.882812 72.949219 L 361.914062 73.203125 L 361.933594 73.460938 L 361.9375 73.726562 L 361.929688 74.050781 L 361.90625 74.367188 L 361.867188 74.675781 L 361.8125 74.972656 L 361.742188 75.265625 L 361.660156 75.546875 L 361.558594 75.824219 L 361.441406 76.089844 L 361.308594 76.347656 L 361.160156 76.59375 L 361 76.835938 L 360.828125 77.0625 L 360.648438 77.277344 L 360.453125 77.484375 L 360.25 77.679688 L 360.035156 77.859375 L 359.808594 78.03125 L 359.574219 78.191406 L 359.328125 78.339844 L 359.070312 78.476562 L 358.804688 78.601562 L 358.53125 78.714844 L 358.25 78.8125 L 357.964844 78.898438 L 357.671875 78.96875 L 357.375 79.027344 L 357.070312 79.074219 L 356.757812 79.109375 L 356.4375 79.128906 Z M 356.113281 79.132812 "/>
<path fill-rule="nonzero" fill="rgb(56.078431%, 16.470588%, 26.27451%)" fill-opacity="1" d="M 366.777344 79.132812 L 366.683594 79.128906 L 366.589844 79.121094 L 366.496094 79.101562 L 366.40625 79.078125 L 366.316406 79.042969 L 366.226562 79.003906 L 366.136719 78.957031 L 366.050781 78.90625 L 365.964844 78.84375 L 365.882812 78.777344 L 365.808594 78.703125 L 365.742188 78.621094 L 365.683594 78.535156 L 365.632812 78.445312 L 365.589844 78.351562 L 365.554688 78.25 L 365.527344 78.140625 L 365.507812 78.03125 L 365.496094 77.914062 L 365.492188 77.789062 L 365.496094 77.660156 L 365.507812 77.539062 L 365.527344 77.421875 L 365.554688 77.3125 L 365.589844 77.207031 L 365.632812 77.109375 L 365.683594 77.015625 L 365.742188 76.929688 L 365.808594 76.847656 L 365.882812 76.773438 L 365.964844 76.707031 L 366.050781 76.644531 L 366.136719 76.589844 L 366.226562 76.542969 L 366.316406 76.503906 L 366.40625 76.472656 L 366.496094 76.449219 L 366.589844 76.429688 L 366.683594 76.417969 L 366.777344 76.414062 L 366.878906 76.417969 L 366.976562 76.429688 L 367.070312 76.449219 L 367.160156 76.472656 L 367.25 76.503906 L 367.332031 76.542969 L 367.414062 76.589844 L 367.496094 76.644531 L 367.570312 76.707031 L 367.644531 76.773438 L 367.71875 76.847656 L 367.785156 76.929688 L 367.84375 77.015625 L 367.894531 77.109375 L 367.9375 77.207031 L 367.96875 77.3125 L 367.996094 77.421875 L 368.015625 77.539062 L 368.027344 77.660156 L 368.03125 77.789062 L 368.027344 77.914062 L 368.015625 78.03125 L 367.996094 78.140625 L 367.96875 78.25 L 367.9375 78.351562 L 367.894531 78.445312 L 367.84375 78.535156 L 367.785156 78.621094 L 367.71875 78.703125 L 367.644531 78.777344 L 367.570312 78.84375 L 367.496094 78.90625 L 367.414062 78.957031 L 367.332031 79.003906 L 367.25 79.042969 L 367.160156 79.078125 L 367.070312 79.101562 L 366.976562 79.121094 L 366.878906 79.128906 Z M 366.777344 79.132812 "/>
<path fill-rule="nonzero" fill="rgb(56.078431%, 16.470588%, 26.27451%)" fill-opacity="1" d="M 376.816406 79.132812 L 376.515625 79.128906 L 376.222656 79.117188 L 375.9375 79.097656 L 375.660156 79.070312 L 375.390625 79.039062 L 375.128906 78.996094 L 374.875 78.945312 L 374.625 78.886719 L 374.386719 78.820312 L 374.15625 78.746094 L 373.9375 78.667969 L 373.726562 78.582031 L 373.519531 78.496094 L 373.320312 78.402344 L 373.125 78.304688 L 372.9375 78.203125 L 372.757812 78.101562 L 372.578125 77.992188 L 372.410156 77.878906 L 372.246094 77.761719 L 372.085938 77.640625 L 371.929688 77.519531 L 371.777344 77.402344 L 371.628906 77.28125 L 371.484375 77.164062 L 371.203125 76.921875 L 371.070312 76.804688 L 370.9375 76.683594 L 370.8125 76.566406 L 371.558594 75.640625 L 371.734375 75.8125 L 371.917969 75.980469 L 372.109375 76.148438 L 372.304688 76.3125 L 372.507812 76.476562 L 372.714844 76.636719 L 372.933594 76.792969 L 373.15625 76.949219 L 373.382812 77.101562 L 373.621094 77.253906 L 373.871094 77.386719 L 374.136719 77.511719 L 374.417969 77.617188 L 374.714844 77.710938 L 375.023438 77.789062 L 375.347656 77.855469 L 375.6875 77.90625 L 376.039062 77.941406 L 376.40625 77.960938 L 376.785156 77.96875 L 377.042969 77.964844 L 377.292969 77.945312 L 377.539062 77.914062 L 377.78125 77.867188 L 378.019531 77.8125 L 378.253906 77.742188 L 378.480469 77.660156 L 378.707031 77.566406 L 378.929688 77.460938 L 379.144531 77.34375 L 379.355469 77.207031 L 379.558594 77.058594 L 379.753906 76.902344 L 379.941406 76.734375 L 380.117188 76.558594 L 380.285156 76.371094 L 380.445312 76.171875 L 380.597656 75.964844 L 380.742188 75.746094 L 380.878906 75.519531 L 381.003906 75.28125 L 381.117188 75.039062 L 381.214844 74.789062 L 381.300781 74.53125 L 381.371094 74.265625 L 381.429688 73.992188 L 381.476562 73.710938 L 381.511719 73.425781 L 381.53125 73.132812 L 381.535156 72.832031 L 381.523438 72.378906 L 381.484375 71.949219 L 381.421875 71.539062 L 381.332031 71.148438 L 381.214844 70.777344 L 381.074219 70.425781 L 380.90625 70.09375 L 380.714844 69.78125 L 380.496094 69.488281 L 380.25 69.214844 L 379.992188 68.964844 L 379.714844 68.742188 L 379.421875 68.546875 L 379.109375 68.375 L 378.78125 68.230469 L 378.433594 68.113281 L 378.070312 68.019531 L 377.691406 67.953125 L 377.292969 67.914062 L 376.875 67.902344 L 376.65625 67.90625 L 376.445312 67.914062 L 376.238281 67.933594 L 376.039062 67.957031 L 375.84375 67.992188 L 375.65625 68.03125 L 375.476562 68.078125 L 375.296875 68.128906 L 375.128906 68.191406 L 374.964844 68.257812 L 374.808594 68.328125 L 374.648438 68.402344 L 374.488281 68.480469 L 374.328125 68.566406 L 374.164062 68.65625 L 374 68.75 L 373.832031 68.851562 L 373.664062 68.957031 L 373.492188 69.070312 L 373.320312 69.1875 L 372.394531 68.617188 L 373.082031 59.683594 L 381.894531 59.683594 L 381.894531 60.851562 L 374.277344 60.851562 L 373.679688 67.75 L 373.828125 67.664062 L 373.980469 67.578125 L 374.285156 67.421875 L 374.441406 67.347656 L 374.597656 67.277344 L 374.753906 67.210938 L 374.914062 67.148438 L 375.070312 67.089844 L 375.234375 67.035156 L 375.398438 66.976562 L 375.566406 66.925781 L 375.738281 66.882812 L 375.917969 66.84375 L 376.097656 66.8125 L 376.285156 66.785156 L 376.480469 66.761719 L 376.675781 66.746094 L 376.878906 66.738281 L 377.085938 66.734375 L 377.40625 66.742188 L 377.71875 66.761719 L 378.027344 66.796875 L 378.328125 66.839844 L 378.625 66.902344 L 378.914062 66.972656 L 379.195312 67.058594 L 379.476562 67.15625 L 379.746094 67.269531 L 380.011719 67.394531 L 380.277344 67.527344 L 380.527344 67.671875 L 380.769531 67.835938 L 380.996094 68.011719 L 381.214844 68.199219 L 381.421875 68.40625 L 381.617188 68.621094 L 381.800781 68.855469 L 381.972656 69.101562 L 382.132812 69.363281 L 382.28125 69.636719 L 382.414062 69.921875 L 382.53125 70.222656 L 382.632812 70.539062 L 382.714844 70.875 L 382.785156 71.222656 L 382.839844 71.585938 L 382.878906 71.964844 L 382.902344 72.359375 L 382.910156 72.769531 L 382.902344 73.171875 L 382.875 73.558594 L 382.832031 73.9375 L 382.765625 74.300781 L 382.6875 74.652344 L 382.589844 74.992188 L 382.472656 75.324219 L 382.335938 75.640625 L 382.183594 75.945312 L 382.015625 76.238281 L 381.835938 76.511719 L 381.644531 76.773438 L 381.445312 77.019531 L 381.234375 77.253906 L 381.011719 77.476562 L 380.78125 77.683594 L 380.539062 77.878906 L 380.285156 78.0625 L 380.019531 78.230469 L 379.742188 78.386719 L 379.46875 78.53125 L 379.1875 78.65625 L 378.902344 78.769531 L 378.617188 78.867188 L 378.324219 78.949219 L 378.03125 79.015625 L 377.730469 79.066406 L 377.429688 79.105469 L 377.125 79.125 Z M 376.816406 79.132812 "/>
<path fill-rule="nonzero" fill="rgb(10.196078%, 10.196078%, 10.196078%)" fill-opacity="1" d="M 159.027344 381.074219 L 157.976562 384.152344 L 163.828125 384.152344 L 162.777344 381.074219 L 162.679688 380.78125 L 162.386719 379.914062 L 162.289062 379.632812 L 162.101562 379.070312 L 162.011719 378.796875 L 161.917969 378.523438 L 161.828125 378.25 L 161.738281 377.980469 L 161.558594 377.425781 L 161.472656 377.140625 L 161.382812 376.855469 L 161.296875 376.566406 L 161.210938 376.273438 L 161.039062 375.679688 L 160.953125 375.375 L 160.851562 375.375 L 160.769531 375.679688 L 160.597656 376.273438 L 160.507812 376.566406 L 160.421875 376.855469 L 160.335938 377.140625 L 160.246094 377.425781 L 160.066406 377.980469 L 159.976562 378.25 L 159.796875 378.796875 L 159.703125 379.070312 L 159.421875 379.914062 L 159.128906 380.78125 Z M 154.527344 390.777344 L 160.328125 374.300781 L 161.476562 374.300781 L 167.277344 390.777344 L 166.078125 390.777344 L 164.152344 385.125 L 157.628906 385.125 L 155.679688 390.777344 Z M 154.527344 390.777344 "/>
<path fill-rule="nonzero" fill="rgb(10.196078%, 10.196078%, 10.196078%)" fill-opacity="1" d="M 169.777344 390.777344 L 169.777344 378.777344 L 170.726562 378.777344 L 170.828125 380.625 L 170.902344 380.625 L 171.089844 380.445312 L 171.273438 380.269531 L 171.460938 380.101562 L 171.652344 379.9375 L 171.839844 379.78125 L 172.03125 379.632812 L 172.222656 379.488281 L 172.414062 379.351562 L 172.609375 379.222656 L 172.804688 379.101562 L 173.003906 378.980469 L 173.210938 378.875 L 173.421875 378.78125 L 173.640625 378.699219 L 173.859375 378.632812 L 174.085938 378.574219 L 174.3125 378.53125 L 174.546875 378.5 L 174.785156 378.480469 L 175.027344 378.476562 L 175.386719 378.488281 L 175.730469 378.519531 L 176.050781 378.578125 L 176.351562 378.660156 L 176.632812 378.761719 L 176.898438 378.890625 L 177.140625 379.039062 L 177.363281 379.210938 L 177.570312 379.40625 L 177.753906 379.625 L 177.925781 379.863281 L 178.078125 380.125 L 178.210938 380.410156 L 178.328125 380.71875 L 178.429688 381.050781 L 178.507812 381.40625 L 178.570312 381.789062 L 178.617188 382.195312 L 178.644531 382.621094 L 178.652344 383.074219 L 178.652344 390.777344 L 177.554688 390.777344 L 177.554688 383.226562 L 177.546875 382.851562 L 177.527344 382.496094 L 177.496094 382.164062 L 177.449219 381.847656 L 177.390625 381.558594 L 177.320312 381.285156 L 177.234375 381.03125 L 177.136719 380.800781 L 177.027344 380.589844 L 176.902344 380.402344 L 176.769531 380.226562 L 176.617188 380.066406 L 176.453125 379.929688 L 176.265625 379.808594 L 176.066406 379.707031 L 175.847656 379.625 L 175.613281 379.558594 L 175.359375 379.511719 L 175.089844 379.484375 L 174.804688 379.476562 L 174.589844 379.480469 L 174.382812 379.5 L 174.175781 379.527344 L 173.976562 379.566406 L 173.777344 379.621094 L 173.585938 379.683594 L 173.394531 379.757812 L 173.210938 379.84375 L 173.03125 379.941406 L 172.851562 380.050781 L 172.675781 380.167969 L 172.492188 380.292969 L 172.308594 380.433594 L 172.117188 380.582031 L 171.921875 380.746094 L 171.722656 380.917969 L 171.519531 381.101562 L 171.308594 381.296875 L 170.878906 381.726562 L 170.878906 390.777344 Z M 169.777344 390.777344 "/>
<path fill-rule="nonzero" fill="rgb(10.196078%, 10.196078%, 10.196078%)" fill-opacity="1" d="M 186.351562 391.074219 L 186.015625 391.066406 L 185.699219 391.035156 L 185.40625 390.984375 L 185.132812 390.914062 L 184.882812 390.824219 L 184.65625 390.714844 L 184.453125 390.585938 L 184.273438 390.433594 L 184.113281 390.265625 L 183.976562 390.074219 L 183.859375 389.863281 L 183.753906 389.640625 L 183.660156 389.410156 L 183.578125 389.164062 L 183.507812 388.90625 L 183.453125 388.636719 L 183.410156 388.359375 L 183.378906 388.066406 L 183.359375 387.765625 L 183.351562 387.449219 L 183.351562 379.726562 L 181.476562 379.726562 L 181.476562 378.875 L 183.378906 378.777344 L 183.527344 375.300781 L 184.476562 375.300781 L 184.476562 378.777344 L 187.953125 378.777344 L 187.953125 379.726562 L 184.476562 379.726562 L 184.476562 387.550781 L 184.480469 387.777344 L 184.492188 387.992188 L 184.515625 388.199219 L 184.542969 388.398438 L 184.578125 388.589844 L 184.621094 388.769531 L 184.675781 388.941406 L 184.734375 389.101562 L 184.800781 389.257812 L 184.878906 389.402344 L 184.964844 389.535156 L 185.070312 389.652344 L 185.191406 389.757812 L 185.332031 389.847656 L 185.484375 389.925781 L 185.65625 389.988281 L 185.84375 390.039062 L 186.046875 390.074219 L 186.265625 390.09375 L 186.503906 390.101562 L 186.574219 390.097656 L 186.644531 390.097656 L 186.71875 390.089844 L 186.792969 390.085938 L 186.941406 390.0625 L 187.019531 390.050781 L 187.09375 390.035156 L 187.171875 390.019531 L 187.253906 390 L 187.335938 389.976562 L 187.5 389.921875 L 187.578125 389.894531 L 187.652344 389.871094 L 187.726562 389.839844 L 187.800781 389.8125 L 187.867188 389.785156 L 187.9375 389.753906 L 188.003906 389.726562 L 188.304688 390.625 L 188.09375 390.695312 L 187.984375 390.726562 L 187.773438 390.789062 L 187.664062 390.816406 L 187.554688 390.847656 L 187.445312 390.875 L 187.335938 390.898438 L 187.226562 390.925781 L 187.023438 390.980469 L 186.835938 391.019531 L 186.746094 391.039062 L 186.660156 391.050781 L 186.578125 391.0625 L 186.5 391.070312 L 186.425781 391.074219 Z M 186.351562 391.074219 "/>
<path fill-rule="nonzero" fill="rgb(10.196078%, 10.196078%, 10.196078%)" fill-opacity="1" d="M 195.429688 391.074219 L 195.125 391.066406 L 194.828125 391.046875 L 194.535156 391.007812 L 194.25 390.957031 L 193.964844 390.886719 L 193.6875 390.804688 L 193.414062 390.707031 L 193.148438 390.59375 L 192.886719 390.46875 L 192.628906 390.324219 L 192.382812 390.167969 L 192.148438 390 L 191.921875 389.816406 L 191.707031 389.621094 L 191.503906 389.414062 L 191.308594 389.191406 L 191.125 388.957031 L 190.949219 388.710938 L 190.78125 388.449219 L 190.628906 388.175781 L 190.484375 387.886719 L 190.359375 387.585938 L 190.246094 387.273438 L 190.148438 386.953125 L 190.066406 386.621094 L 190 386.277344 L 189.945312 385.921875 L 189.90625 385.558594 L 189.886719 385.183594 L 189.878906 384.800781 L 189.886719 384.410156 L 189.90625 384.035156 L 189.945312 383.667969 L 190 383.3125 L 190.066406 382.96875 L 190.148438 382.636719 L 190.246094 382.316406 L 190.359375 382.007812 L 190.484375 381.710938 L 190.628906 381.425781 L 190.78125 381.148438 L 190.945312 380.882812 L 191.117188 380.632812 L 191.300781 380.394531 L 191.492188 380.167969 L 191.691406 379.957031 L 191.898438 379.761719 L 192.117188 379.578125 L 192.34375 379.40625 L 192.578125 379.25 L 192.820312 379.101562 L 193.0625 378.972656 L 193.308594 378.855469 L 193.558594 378.753906 L 193.808594 378.667969 L 194.0625 378.597656 L 194.320312 378.546875 L 194.578125 378.507812 L 194.839844 378.484375 L 195.101562 378.476562 L 195.523438 378.488281 L 195.925781 378.535156 L 196.308594 378.605469 L 196.675781 378.707031 L 197.023438 378.839844 L 197.351562 378.996094 L 197.660156 379.1875 L 197.949219 379.402344 L 198.222656 379.648438 L 198.476562 379.925781 L 198.710938 380.226562 L 198.917969 380.554688 L 199.101562 380.902344 L 199.261719 381.277344 L 199.398438 381.675781 L 199.507812 382.097656 L 199.59375 382.542969 L 199.652344 383.011719 L 199.691406 383.507812 L 199.703125 384.027344 L 199.703125 384.117188 L 199.699219 384.160156 L 199.699219 384.207031 L 199.695312 384.25 L 199.695312 384.296875 L 199.691406 384.339844 L 199.6875 384.386719 L 199.683594 384.429688 L 199.679688 384.476562 L 199.675781 384.519531 L 199.675781 384.566406 L 199.671875 384.609375 L 199.671875 384.65625 L 199.664062 384.699219 L 199.660156 384.746094 L 199.652344 384.789062 L 199.644531 384.835938 L 199.636719 384.878906 L 199.628906 384.925781 L 191.003906 384.925781 L 191.011719 385.222656 L 191.035156 385.511719 L 191.066406 385.796875 L 191.105469 386.074219 L 191.160156 386.34375 L 191.222656 386.609375 L 191.296875 386.867188 L 191.378906 387.117188 L 191.472656 387.363281 L 191.578125 387.601562 L 191.699219 387.832031 L 191.824219 388.050781 L 191.960938 388.261719 L 192.105469 388.460938 L 192.257812 388.652344 L 192.421875 388.832031 L 192.589844 389 L 192.769531 389.160156 L 192.957031 389.308594 L 193.152344 389.449219 L 193.363281 389.578125 L 193.574219 389.695312 L 193.796875 389.792969 L 194.023438 389.882812 L 194.257812 389.957031 L 194.5 390.015625 L 194.746094 390.066406 L 195 390.097656 L 195.261719 390.117188 L 195.527344 390.125 L 195.722656 390.121094 L 195.910156 390.113281 L 196.09375 390.097656 L 196.277344 390.078125 L 196.453125 390.050781 L 196.625 390.015625 L 196.796875 389.976562 L 196.960938 389.933594 L 197.121094 389.882812 L 197.277344 389.824219 L 197.4375 389.765625 L 197.59375 389.699219 L 197.898438 389.558594 L 198.046875 389.480469 L 198.191406 389.402344 L 198.335938 389.320312 L 198.476562 389.234375 L 198.617188 389.144531 L 198.753906 389.050781 L 199.203125 389.902344 L 199.0625 389.984375 L 198.917969 390.070312 L 198.613281 390.234375 L 198.460938 390.3125 L 198.300781 390.390625 L 198.136719 390.472656 L 197.972656 390.546875 L 197.800781 390.625 L 197.628906 390.699219 L 197.449219 390.773438 L 197.261719 390.835938 L 197.0625 390.890625 L 196.855469 390.941406 L 196.640625 390.980469 L 196.417969 391.015625 L 196.183594 391.042969 L 195.941406 391.058594 L 195.6875 391.070312 Z M 191.003906 384.027344 L 198.652344 384.027344 L 198.644531 383.578125 L 198.613281 383.152344 L 198.566406 382.75 L 198.5 382.371094 L 198.414062 382.011719 L 198.3125 381.679688 L 198.1875 381.367188 L 198.046875 381.082031 L 197.882812 380.816406 L 197.703125 380.574219 L 197.507812 380.355469 L 197.296875 380.160156 L 197.074219 379.988281 L 196.835938 379.839844 L 196.585938 379.714844 L 196.320312 379.609375 L 196.042969 379.527344 L 195.75 379.472656 L 195.445312 379.4375 L 195.128906 379.425781 L 194.925781 379.429688 L 194.722656 379.449219 L 194.523438 379.476562 L 194.328125 379.511719 L 194.132812 379.5625 L 193.941406 379.625 L 193.753906 379.695312 L 193.566406 379.777344 L 193.382812 379.871094 L 193.203125 379.976562 L 193.03125 380.089844 L 192.863281 380.214844 L 192.703125 380.347656 L 192.546875 380.492188 L 192.398438 380.644531 L 192.253906 380.804688 L 192.113281 380.976562 L 191.980469 381.160156 L 191.851562 381.351562 L 191.726562 381.550781 L 191.613281 381.757812 L 191.507812 381.976562 L 191.410156 382.203125 L 191.324219 382.4375 L 191.246094 382.683594 L 191.179688 382.933594 L 191.121094 383.195312 L 191.070312 383.460938 L 191.03125 383.738281 Z M 191.003906 384.027344 "/>
<path fill-rule="nonzero" fill="rgb(10.196078%, 10.196078%, 10.196078%)" fill-opacity="1" d="M 205.851562 391.074219 L 205.589844 391.070312 L 205.332031 391.054688 L 205.074219 391.03125 L 204.820312 391 L 204.570312 390.957031 L 204.324219 390.90625 L 204.082031 390.84375 L 203.84375 390.769531 L 203.609375 390.691406 L 203.378906 390.601562 L 203.15625 390.5 L 202.941406 390.394531 L 202.730469 390.285156 L 202.53125 390.171875 L 202.335938 390.058594 L 202.144531 389.9375 L 201.960938 389.816406 L 201.785156 389.6875 L 201.617188 389.558594 L 201.453125 389.425781 L 202.101562 388.601562 L 202.257812 388.722656 L 202.417969 388.84375 L 202.578125 388.960938 L 202.738281 389.074219 L 202.902344 389.183594 L 203.070312 389.289062 L 203.238281 389.390625 L 203.40625 389.488281 L 203.578125 389.582031 L 203.753906 389.675781 L 203.933594 389.761719 L 204.121094 389.835938 L 204.316406 389.90625 L 204.519531 389.964844 L 204.734375 390.011719 L 204.957031 390.054688 L 205.1875 390.085938 L 205.425781 390.109375 L 205.671875 390.121094 L 205.929688 390.125 L 206.203125 390.117188 L 206.460938 390.097656 L 206.707031 390.0625 L 206.941406 390.011719 L 207.160156 389.949219 L 207.363281 389.875 L 207.558594 389.78125 L 207.734375 389.675781 L 207.902344 389.558594 L 208.054688 389.425781 L 208.191406 389.277344 L 208.3125 389.125 L 208.421875 388.96875 L 208.515625 388.808594 L 208.597656 388.644531 L 208.664062 388.472656 L 208.710938 388.300781 L 208.75 388.121094 L 208.769531 387.9375 L 208.777344 387.75 L 208.773438 387.601562 L 208.761719 387.460938 L 208.738281 387.324219 L 208.707031 387.191406 L 208.664062 387.0625 L 208.617188 386.941406 L 208.558594 386.824219 L 208.488281 386.710938 L 208.414062 386.601562 L 208.328125 386.5 L 208.234375 386.402344 L 208.140625 386.308594 L 208.039062 386.214844 L 207.933594 386.128906 L 207.820312 386.042969 L 207.707031 385.964844 L 207.585938 385.886719 L 207.464844 385.8125 L 207.335938 385.742188 L 207.203125 385.675781 L 207.074219 385.609375 L 206.941406 385.546875 L 206.808594 385.488281 L 206.675781 385.425781 L 206.539062 385.371094 L 206.40625 385.3125 L 206.132812 385.203125 L 205.851562 385.101562 L 205.492188 384.96875 L 205.316406 384.898438 L 205.136719 384.828125 L 204.960938 384.757812 L 204.78125 384.683594 L 204.605469 384.609375 L 204.078125 384.375 L 203.910156 384.292969 L 203.75 384.207031 L 203.59375 384.113281 L 203.445312 384.019531 L 203.304688 383.917969 L 203.167969 383.8125 L 203.035156 383.707031 L 202.910156 383.589844 L 202.792969 383.472656 L 202.679688 383.351562 L 202.574219 383.214844 L 202.480469 383.074219 L 202.398438 382.925781 L 202.324219 382.769531 L 202.265625 382.605469 L 202.214844 382.433594 L 202.175781 382.257812 L 202.148438 382.070312 L 202.132812 381.875 L 202.128906 381.675781 L 202.136719 381.414062 L 202.167969 381.160156 L 202.214844 380.917969 L 202.285156 380.679688 L 202.371094 380.449219 L 202.480469 380.230469 L 202.605469 380.015625 L 202.753906 379.8125 L 202.917969 379.613281 L 203.101562 379.425781 L 203.3125 379.246094 L 203.539062 379.082031 L 203.78125 378.941406 L 204.042969 378.816406 L 204.320312 378.714844 L 204.617188 378.628906 L 204.933594 378.5625 L 205.261719 378.511719 L 205.613281 378.484375 L 205.976562 378.476562 L 206.171875 378.480469 L 206.363281 378.488281 L 206.554688 378.507812 L 206.746094 378.53125 L 206.933594 378.5625 L 207.121094 378.601562 L 207.304688 378.648438 L 207.488281 378.699219 L 207.671875 378.757812 L 207.851562 378.824219 L 208.035156 378.898438 L 208.210938 378.972656 L 208.382812 379.054688 L 208.550781 379.136719 L 208.710938 379.226562 L 208.863281 379.316406 L 209.011719 379.414062 L 209.15625 379.511719 L 209.296875 379.617188 L 209.429688 379.726562 L 208.828125 380.5 L 208.703125 380.410156 L 208.574219 380.328125 L 208.449219 380.242188 L 208.320312 380.164062 L 208.191406 380.089844 L 208.058594 380.015625 L 207.929688 379.945312 L 207.796875 379.875 L 207.664062 379.8125 L 207.390625 379.6875 L 207.25 379.632812 L 207.101562 379.585938 L 206.953125 379.542969 L 206.796875 379.507812 L 206.636719 379.476562 L 206.472656 379.453125 L 206.304688 379.4375 L 206.132812 379.429688 L 205.953125 379.425781 L 205.679688 379.433594 L 205.421875 379.453125 L 205.179688 379.484375 L 204.949219 379.535156 L 204.734375 379.59375 L 204.535156 379.667969 L 204.347656 379.757812 L 204.175781 379.859375 L 204.019531 379.972656 L 203.878906 380.101562 L 203.753906 380.238281 L 203.644531 380.375 L 203.546875 380.519531 L 203.460938 380.664062 L 203.390625 380.8125 L 203.332031 380.964844 L 203.285156 381.117188 L 203.253906 381.277344 L 203.234375 381.4375 L 203.226562 381.601562 L 203.230469 381.734375 L 203.242188 381.863281 L 203.261719 381.984375 L 203.289062 382.105469 L 203.320312 382.21875 L 203.363281 382.328125 L 203.410156 382.433594 L 203.46875 382.535156 L 203.53125 382.632812 L 203.601562 382.726562 L 203.683594 382.8125 L 203.773438 382.898438 L 203.863281 382.980469 L 203.960938 383.0625 L 204.058594 383.136719 L 204.164062 383.210938 L 204.273438 383.28125 L 204.386719 383.347656 L 204.503906 383.414062 L 204.628906 383.476562 L 204.757812 383.53125 L 205.289062 383.75 L 205.699219 383.914062 L 205.839844 383.96875 L 205.976562 384.027344 L 206.167969 384.097656 L 206.542969 384.238281 L 206.730469 384.3125 L 206.914062 384.386719 L 207.101562 384.464844 L 207.285156 384.539062 L 207.464844 384.617188 L 207.648438 384.695312 L 207.828125 384.777344 L 208.003906 384.859375 L 208.175781 384.945312 L 208.339844 385.039062 L 208.496094 385.140625 L 208.648438 385.246094 L 208.792969 385.355469 L 208.929688 385.46875 L 209.058594 385.589844 L 209.183594 385.71875 L 209.304688 385.851562 L 209.417969 385.992188 L 209.519531 386.140625 L 209.609375 386.300781 L 209.6875 386.46875 L 209.753906 386.652344 L 209.808594 386.839844 L 209.847656 387.039062 L 209.878906 387.25 L 209.898438 387.46875 L 209.902344 387.699219 L 209.898438 387.878906 L 209.882812 388.054688 L 209.859375 388.230469 L 209.828125 388.402344 L 209.785156 388.570312 L 209.730469 388.734375 L 209.671875 388.898438 L 209.597656 389.058594 L 209.519531 389.21875 L 209.429688 389.375 L 209.328125 389.523438 L 209.222656 389.664062 L 209.105469 389.800781 L 208.980469 389.929688 L 208.847656 390.058594 L 208.707031 390.175781 L 208.554688 390.289062 L 208.394531 390.398438 L 208.230469 390.503906 L 208.054688 390.601562 L 207.867188 390.691406 L 207.675781 390.769531 L 207.476562 390.84375 L 207.269531 390.90625 L 207.054688 390.957031 L 206.828125 391 L 206.597656 391.03125 L 206.355469 391.054688 L 206.109375 391.070312 Z M 205.851562 391.074219 "/>
<path fill-rule="nonzero" fill="rgb(10.196078%, 10.196078%, 10.196078%)" fill-opacity="1" d="M 369.351562 390.777344 L 369.351562 374.300781 L 373.175781 374.300781 L 373.675781 374.3125 L 374.160156 374.339844 L 374.625 374.394531 L 375.074219 374.464844 L 375.5 374.558594 L 375.914062 374.667969 L 376.304688 374.800781 L 376.679688 374.957031 L 377.039062 375.128906 L 377.375 375.324219 L 377.699219 375.535156 L 378.003906 375.757812 L 378.289062 376 L 378.558594 376.257812 L 378.8125 376.53125 L 379.050781 376.824219 L 379.269531 377.128906 L 379.472656 377.453125 L 379.65625 377.792969 L 379.828125 378.152344 L 379.984375 378.523438 L 380.125 378.90625 L 380.246094 379.304688 L 380.355469 379.71875 L 380.445312 380.144531 L 380.519531 380.582031 L 380.578125 381.035156 L 380.617188 381.503906 L 380.644531 381.980469 L 380.652344 382.476562 L 380.644531 382.96875 L 380.617188 383.449219 L 380.578125 383.917969 L 380.519531 384.375 L 380.445312 384.820312 L 380.355469 385.25 L 380.246094 385.667969 L 380.125 386.074219 L 379.984375 386.46875 L 379.828125 386.851562 L 379.65625 387.210938 L 379.472656 387.558594 L 379.269531 387.886719 L 379.050781 388.203125 L 378.8125 388.5 L 378.558594 388.78125 L 378.289062 389.046875 L 378.003906 389.296875 L 377.699219 389.53125 L 377.375 389.75 L 377.039062 389.945312 L 376.679688 390.121094 L 376.308594 390.273438 L 375.917969 390.40625 L 375.507812 390.519531 L 375.082031 390.613281 L 374.636719 390.683594 L 374.175781 390.734375 L 373.699219 390.765625 L 373.203125 390.777344 Z M 370.5 389.800781 L 373.050781 389.800781 L 373.492188 389.792969 L 373.917969 389.761719 L 374.324219 389.71875 L 374.714844 389.652344 L 375.089844 389.570312 L 375.445312 389.46875 L 375.785156 389.347656 L 376.109375 389.207031 L 376.414062 389.050781 L 376.703125 388.875 L 376.980469 388.679688 L 377.242188 388.46875 L 377.488281 388.242188 L 377.71875 388.003906 L 377.933594 387.75 L 378.132812 387.484375 L 378.316406 387.203125 L 378.484375 386.90625 L 378.640625 386.597656 L 378.777344 386.277344 L 378.90625 385.941406 L 379.019531 385.59375 L 379.121094 385.242188 L 379.207031 384.875 L 379.28125 384.5 L 379.34375 384.117188 L 379.390625 383.71875 L 379.425781 383.316406 L 379.445312 382.902344 L 379.453125 382.476562 L 379.445312 382.050781 L 379.425781 381.636719 L 379.390625 381.234375 L 379.34375 380.84375 L 379.28125 380.464844 L 379.207031 380.09375 L 379.121094 379.734375 L 379.019531 379.386719 L 378.90625 379.050781 L 378.777344 378.726562 L 378.640625 378.40625 L 378.484375 378.105469 L 378.316406 377.816406 L 378.132812 377.542969 L 377.933594 377.28125 L 377.71875 377.035156 L 377.488281 376.804688 L 377.242188 376.589844 L 376.980469 376.386719 L 376.703125 376.199219 L 376.414062 376.023438 L 376.109375 375.867188 L 375.785156 375.730469 L 375.445312 375.609375 L 375.089844 375.507812 L 374.714844 375.421875 L 374.324219 375.359375 L 373.917969 375.3125 L 373.492188 375.285156 L 373.050781 375.277344 L 370.5 375.277344 Z M 370.5 389.800781 "/>
<path fill-rule="nonzero" fill="rgb(10.196078%, 10.196078%, 10.196078%)" fill-opacity="1" d="M 388.875 391.074219 L 388.574219 391.066406 L 388.277344 391.046875 L 387.984375 391.007812 L 387.695312 390.957031 L 387.414062 390.886719 L 387.136719 390.804688 L 386.863281 390.707031 L 386.597656 390.59375 L 386.332031 390.46875 L 386.078125 390.324219 L 385.832031 390.167969 L 385.597656 390 L 385.371094 389.816406 L 385.15625 389.621094 L 384.953125 389.414062 L 384.757812 389.191406 L 384.570312 388.957031 L 384.394531 388.710938 L 384.230469 388.449219 L 384.078125 388.175781 L 383.933594 387.886719 L 383.804688 387.585938 L 383.695312 387.273438 L 383.597656 386.953125 L 383.515625 386.621094 L 383.445312 386.277344 L 383.394531 385.921875 L 383.355469 385.558594 L 383.332031 385.183594 L 383.328125 384.800781 L 383.332031 384.410156 L 383.355469 384.035156 L 383.394531 383.667969 L 383.445312 383.3125 L 383.515625 382.96875 L 383.597656 382.636719 L 383.695312 382.316406 L 383.804688 382.007812 L 383.933594 381.710938 L 384.078125 381.425781 L 384.230469 381.148438 L 384.394531 380.882812 L 384.566406 380.632812 L 384.75 380.394531 L 384.9375 380.167969 L 385.136719 379.957031 L 385.347656 379.761719 L 385.5625 379.578125 L 385.789062 379.40625 L 386.027344 379.25 L 386.269531 379.101562 L 386.511719 378.972656 L 386.757812 378.855469 L 387.007812 378.753906 L 387.257812 378.667969 L 387.511719 378.597656 L 387.769531 378.546875 L 388.027344 378.507812 L 388.289062 378.484375 L 388.550781 378.476562 L 388.972656 378.488281 L 389.375 378.535156 L 389.757812 378.605469 L 390.125 378.707031 L 390.46875 378.839844 L 390.796875 378.996094 L 391.109375 379.1875 L 391.398438 379.402344 L 391.671875 379.648438 L 391.925781 379.925781 L 392.160156 380.226562 L 392.367188 380.554688 L 392.550781 380.902344 L 392.710938 381.277344 L 392.84375 381.675781 L 392.957031 382.097656 L 393.042969 382.542969 L 393.101562 383.011719 L 393.140625 383.507812 L 393.152344 384.027344 L 393.152344 384.117188 L 393.148438 384.160156 L 393.148438 384.207031 L 393.144531 384.25 L 393.140625 384.296875 L 393.140625 384.339844 L 393.136719 384.386719 L 393.132812 384.429688 L 393.125 384.476562 L 393.125 384.566406 L 393.121094 384.609375 L 393.117188 384.65625 L 393.113281 384.699219 L 393.109375 384.746094 L 393.101562 384.789062 L 393.09375 384.835938 L 393.085938 384.878906 L 393.078125 384.925781 L 384.453125 384.925781 L 384.460938 385.222656 L 384.484375 385.511719 L 384.515625 385.796875 L 384.554688 386.074219 L 384.609375 386.34375 L 384.671875 386.609375 L 384.742188 386.867188 L 384.828125 387.117188 L 384.921875 387.363281 L 385.027344 387.601562 L 385.144531 387.832031 L 385.273438 388.050781 L 385.410156 388.261719 L 385.554688 388.460938 L 385.707031 388.652344 L 385.871094 388.832031 L 386.039062 389 L 386.21875 389.160156 L 386.40625 389.308594 L 386.601562 389.449219 L 386.808594 389.578125 L 387.023438 389.695312 L 387.246094 389.792969 L 387.472656 389.882812 L 387.707031 389.957031 L 387.949219 390.015625 L 388.195312 390.066406 L 388.449219 390.097656 L 388.710938 390.117188 L 388.976562 390.125 L 389.167969 390.121094 L 389.359375 390.113281 L 389.542969 390.097656 L 389.722656 390.078125 L 389.902344 390.050781 L 390.074219 390.015625 L 390.242188 389.976562 L 390.410156 389.933594 L 390.570312 389.882812 L 390.726562 389.824219 L 390.886719 389.765625 L 391.042969 389.699219 L 391.347656 389.558594 L 391.496094 389.480469 L 391.640625 389.402344 L 391.785156 389.320312 L 391.925781 389.234375 L 392.066406 389.144531 L 392.203125 389.050781 L 392.652344 389.902344 L 392.507812 389.984375 L 392.363281 390.070312 L 392.214844 390.152344 L 392.0625 390.234375 L 391.585938 390.472656 L 391.417969 390.546875 L 391.25 390.625 L 391.078125 390.699219 L 390.898438 390.773438 L 390.707031 390.835938 L 390.511719 390.890625 L 390.304688 390.941406 L 390.089844 390.980469 L 389.863281 391.015625 L 389.632812 391.042969 L 389.386719 391.058594 L 389.136719 391.070312 Z M 384.453125 384.027344 L 392.101562 384.027344 L 392.09375 383.578125 L 392.0625 383.152344 L 392.015625 382.75 L 391.949219 382.371094 L 391.863281 382.011719 L 391.757812 381.679688 L 391.636719 381.367188 L 391.492188 381.082031 L 391.332031 380.816406 L 391.152344 380.574219 L 390.953125 380.355469 L 390.746094 380.160156 L 390.519531 379.988281 L 390.285156 379.839844 L 390.03125 379.714844 L 389.769531 379.609375 L 389.492188 379.527344 L 389.199219 379.472656 L 388.894531 379.4375 L 388.578125 379.425781 L 388.371094 379.429688 L 388.171875 379.449219 L 387.972656 379.476562 L 387.777344 379.511719 L 387.582031 379.5625 L 387.390625 379.625 L 387.203125 379.695312 L 387.015625 379.777344 L 386.832031 379.871094 L 386.652344 379.976562 L 386.480469 380.089844 L 386.3125 380.214844 L 386.152344 380.347656 L 385.996094 380.492188 L 385.84375 380.644531 L 385.699219 380.804688 L 385.5625 380.976562 L 385.425781 381.160156 L 385.300781 381.351562 L 385.175781 381.550781 L 385.0625 381.757812 L 384.957031 381.976562 L 384.859375 382.203125 L 384.773438 382.4375 L 384.695312 382.683594 L 384.628906 382.933594 L 384.570312 383.195312 L 384.519531 383.460938 L 384.480469 383.738281 Z M 384.453125 384.027344 "/>
<path fill-rule="nonzero" fill="rgb(10.196078%, 10.196078%, 10.196078%)" fill-opacity="1" d="M 396.402344 396.199219 L 396.402344 378.777344 L 397.351562 378.777344 L 397.453125 380.277344 L 397.527344 380.277344 L 397.703125 380.136719 L 397.882812 380 L 398.066406 379.867188 L 398.253906 379.738281 L 398.445312 379.613281 L 398.640625 379.488281 L 398.835938 379.367188 L 399.039062 379.25 L 399.242188 379.136719 L 399.453125 379.027344 L 399.660156 378.921875 L 399.875 378.828125 L 400.085938 378.746094 L 400.300781 378.671875 L 400.515625 378.613281 L 400.730469 378.5625 L 400.945312 378.523438 L 401.164062 378.496094 L 401.382812 378.480469 L 401.601562 378.476562 L 402.070312 378.492188 L 402.511719 378.542969 L 402.933594 378.625 L 403.328125 378.742188 L 403.703125 378.894531 L 404.050781 379.078125 L 404.375 379.296875 L 404.671875 379.546875 L 404.949219 379.832031 L 405.203125 380.152344 L 405.429688 380.492188 L 405.632812 380.855469 L 405.8125 381.242188 L 405.96875 381.65625 L 406.101562 382.089844 L 406.210938 382.542969 L 406.292969 383.023438 L 406.351562 383.527344 L 406.390625 384.050781 L 406.402344 384.601562 L 406.394531 385 L 406.371094 385.386719 L 406.332031 385.765625 L 406.28125 386.128906 L 406.214844 386.480469 L 406.132812 386.824219 L 406.035156 387.152344 L 405.921875 387.472656 L 405.792969 387.78125 L 405.652344 388.074219 L 405.5 388.359375 L 405.34375 388.628906 L 405.171875 388.882812 L 404.996094 389.128906 L 404.808594 389.355469 L 404.609375 389.574219 L 404.402344 389.773438 L 404.1875 389.964844 L 403.960938 390.140625 L 403.726562 390.300781 L 403.484375 390.449219 L 403.238281 390.578125 L 402.984375 390.695312 L 402.730469 390.796875 L 402.46875 390.882812 L 402.207031 390.953125 L 401.9375 391.003906 L 401.664062 391.042969 L 401.382812 391.066406 L 401.101562 391.074219 L 400.929688 391.070312 L 400.757812 391.058594 L 400.585938 391.042969 L 400.414062 391.015625 L 400.238281 390.980469 L 400.0625 390.941406 L 399.886719 390.890625 L 399.710938 390.835938 L 399.53125 390.773438 L 399.351562 390.699219 L 399.171875 390.617188 L 398.988281 390.527344 L 398.808594 390.433594 L 398.625 390.332031 L 398.4375 390.226562 L 398.253906 390.113281 L 398.066406 389.992188 L 397.878906 389.867188 L 397.691406 389.738281 L 397.5 389.601562 L 397.5 396.199219 Z M 401.050781 390.101562 L 401.292969 390.09375 L 401.53125 390.074219 L 401.757812 390.039062 L 401.984375 389.988281 L 402.203125 389.925781 L 402.414062 389.847656 L 402.621094 389.757812 L 402.820312 389.652344 L 403.011719 389.535156 L 403.203125 389.402344 L 403.386719 389.253906 L 403.5625 389.097656 L 403.734375 388.933594 L 403.894531 388.757812 L 404.046875 388.570312 L 404.1875 388.371094 L 404.324219 388.164062 L 404.449219 387.945312 L 404.566406 387.714844 L 404.675781 387.476562 L 404.78125 387.222656 L 404.875 386.960938 L 404.957031 386.691406 L 405.027344 386.414062 L 405.089844 386.132812 L 405.136719 385.839844 L 405.175781 385.542969 L 405.203125 385.234375 L 405.222656 384.921875 L 405.226562 384.601562 L 405.222656 384.308594 L 405.210938 384.023438 L 405.191406 383.746094 L 405.167969 383.472656 L 405.132812 383.207031 L 405.089844 382.949219 L 405.042969 382.695312 L 404.988281 382.449219 L 404.921875 382.207031 L 404.851562 381.976562 L 404.773438 381.746094 L 404.683594 381.527344 L 404.582031 381.316406 L 404.476562 381.117188 L 404.359375 380.925781 L 404.230469 380.746094 L 404.09375 380.574219 L 403.949219 380.414062 L 403.792969 380.265625 L 403.625 380.125 L 403.457031 379.996094 L 403.273438 379.882812 L 403.082031 379.78125 L 402.878906 379.695312 L 402.664062 379.621094 L 402.4375 379.558594 L 402.203125 379.511719 L 401.953125 379.476562 L 401.695312 379.457031 L 401.425781 379.449219 L 401.246094 379.457031 L 401.0625 379.472656 L 400.878906 379.496094 L 400.695312 379.535156 L 400.507812 379.582031 L 400.320312 379.640625 L 400.128906 379.707031 L 399.9375 379.785156 L 399.746094 379.875 L 399.550781 379.976562 L 399.359375 380.078125 L 399.164062 380.195312 L 398.96875 380.316406 L 398.765625 380.449219 L 398.5625 380.589844 L 398.359375 380.738281 L 398.148438 380.894531 L 397.933594 381.0625 L 397.71875 381.238281 L 397.5 381.425781 L 397.5 388.550781 L 397.707031 388.714844 L 397.90625 388.871094 L 398.105469 389.015625 L 398.300781 389.152344 L 398.496094 389.277344 L 398.6875 389.390625 L 398.875 389.496094 L 399.0625 389.589844 L 399.246094 389.675781 L 399.425781 389.75 L 399.609375 389.816406 L 399.789062 389.875 L 399.960938 389.929688 L 400.128906 389.972656 L 400.296875 390.011719 L 400.457031 390.042969 L 400.609375 390.070312 L 400.761719 390.085938 L 400.910156 390.097656 Z M 401.050781 390.101562 "/>
<path fill-rule="nonzero" fill="rgb(10.196078%, 10.196078%, 10.196078%)" fill-opacity="1" d="M 414.375 391.074219 L 414.09375 391.066406 L 413.8125 391.046875 L 413.539062 391.011719 L 413.269531 390.960938 L 413 390.894531 L 412.738281 390.8125 L 412.480469 390.71875 L 412.222656 390.613281 L 411.972656 390.488281 L 411.726562 390.351562 L 411.484375 390.195312 L 411.253906 390.023438 L 411.035156 389.84375 L 410.824219 389.644531 L 410.621094 389.4375 L 410.425781 389.214844 L 410.246094 388.980469 L 410.070312 388.734375 L 409.90625 388.472656 L 409.75 388.199219 L 409.609375 387.910156 L 409.480469 387.609375 L 409.367188 387.296875 L 409.269531 386.972656 L 409.1875 386.636719 L 409.121094 386.292969 L 409.070312 385.9375 L 409.03125 385.570312 L 409.007812 385.191406 L 409 384.800781 L 409.007812 384.402344 L 409.03125 384.015625 L 409.070312 383.640625 L 409.121094 383.28125 L 409.1875 382.933594 L 409.269531 382.59375 L 409.367188 382.273438 L 409.480469 381.960938 L 409.609375 381.660156 L 409.75 381.375 L 409.90625 381.097656 L 410.070312 380.832031 L 410.246094 380.582031 L 410.425781 380.347656 L 410.621094 380.125 L 410.824219 379.917969 L 411.035156 379.722656 L 411.253906 379.542969 L 411.484375 379.378906 L 411.726562 379.226562 L 411.972656 379.082031 L 412.222656 378.957031 L 412.480469 378.84375 L 412.738281 378.746094 L 413 378.664062 L 413.269531 378.59375 L 413.539062 378.542969 L 413.8125 378.503906 L 414.09375 378.484375 L 414.375 378.476562 L 414.664062 378.484375 L 414.949219 378.503906 L 415.226562 378.542969 L 415.5 378.59375 L 415.769531 378.664062 L 416.035156 378.746094 L 416.296875 378.84375 L 416.550781 378.957031 L 416.804688 379.082031 L 417.050781 379.226562 L 417.292969 379.378906 L 417.523438 379.542969 L 417.742188 379.722656 L 417.957031 379.917969 L 418.15625 380.125 L 418.351562 380.347656 L 418.535156 380.582031 L 418.707031 380.832031 L 418.871094 381.097656 L 419.027344 381.375 L 419.167969 381.660156 L 419.296875 381.960938 L 419.410156 382.273438 L 419.507812 382.59375 L 419.589844 382.933594 L 419.65625 383.28125 L 419.707031 383.640625 L 419.746094 384.015625 L 419.769531 384.402344 L 419.777344 384.800781 L 419.769531 385.191406 L 419.746094 385.570312 L 419.707031 385.9375 L 419.65625 386.292969 L 419.589844 386.636719 L 419.507812 386.972656 L 419.410156 387.296875 L 419.296875 387.609375 L 419.167969 387.910156 L 419.027344 388.199219 L 418.871094 388.472656 L 418.707031 388.734375 L 418.535156 388.980469 L 418.351562 389.214844 L 418.15625 389.4375 L 417.957031 389.644531 L 417.742188 389.84375 L 417.523438 390.023438 L 417.292969 390.195312 L 417.050781 390.351562 L 416.804688 390.488281 L 416.550781 390.613281 L 416.296875 390.71875 L 416.035156 390.8125 L 415.769531 390.894531 L 415.5 390.960938 L 415.226562 391.011719 L 414.949219 391.046875 L 414.664062 391.066406 Z M 414.375 390.101562 L 414.617188 390.09375 L 414.855469 390.074219 L 415.085938 390.039062 L 415.3125 389.992188 L 415.53125 389.933594 L 415.746094 389.859375 L 415.957031 389.769531 L 416.160156 389.667969 L 416.359375 389.554688 L 416.550781 389.425781 L 416.738281 389.285156 L 416.914062 389.136719 L 417.085938 388.976562 L 417.246094 388.804688 L 417.402344 388.625 L 417.546875 388.433594 L 417.683594 388.234375 L 417.816406 388.027344 L 417.9375 387.804688 L 418.050781 387.574219 L 418.160156 387.332031 L 418.257812 387.082031 L 418.34375 386.820312 L 418.417969 386.554688 L 418.484375 386.28125 L 418.535156 386 L 418.574219 385.710938 L 418.601562 385.414062 L 418.621094 385.113281 L 418.625 384.800781 L 418.621094 384.484375 L 418.601562 384.175781 L 418.574219 383.875 L 418.535156 383.585938 L 418.484375 383.300781 L 418.417969 383.023438 L 418.34375 382.757812 L 418.257812 382.496094 L 418.160156 382.246094 L 418.050781 382 L 417.9375 381.765625 L 417.816406 381.542969 L 417.683594 381.328125 L 417.546875 381.125 L 417.402344 380.933594 L 417.246094 380.75 L 417.085938 380.578125 L 416.914062 380.417969 L 416.738281 380.265625 L 416.550781 380.125 L 416.359375 379.996094 L 416.160156 379.882812 L 415.957031 379.78125 L 415.746094 379.695312 L 415.53125 379.621094 L 415.3125 379.558594 L 415.085938 379.511719 L 414.855469 379.476562 L 414.617188 379.457031 L 414.375 379.449219 L 414.140625 379.457031 L 413.90625 379.476562 L 413.675781 379.511719 L 413.453125 379.558594 L 413.234375 379.621094 L 413.015625 379.695312 L 412.808594 379.78125 L 412.601562 379.882812 L 412.398438 379.996094 L 412.203125 380.125 L 412.015625 380.265625 L 411.835938 380.417969 L 411.667969 380.578125 L 411.503906 380.75 L 411.351562 380.933594 L 411.207031 381.125 L 411.066406 381.328125 L 410.9375 381.542969 L 410.816406 381.765625 L 410.703125 382 L 410.597656 382.246094 L 410.503906 382.496094 L 410.421875 382.757812 L 410.347656 383.023438 L 410.289062 383.300781 L 410.238281 383.585938 L 410.199219 383.875 L 410.171875 384.175781 L 410.15625 384.484375 L 410.152344 384.800781 L 410.15625 385.113281 L 410.171875 385.414062 L 410.199219 385.710938 L 410.238281 386 L 410.289062 386.28125 L 410.347656 386.554688 L 410.421875 386.820312 L 410.503906 387.082031 L 410.597656 387.332031 L 410.703125 387.574219 L 410.816406 387.804688 L 410.9375 388.027344 L 411.066406 388.234375 L 411.207031 388.433594 L 411.351562 388.625 L 411.503906 388.804688 L 411.667969 388.976562 L 411.835938 389.136719 L 412.015625 389.285156 L 412.203125 389.425781 L 412.398438 389.554688 L 412.601562 389.667969 L 412.808594 389.769531 L 413.015625 389.859375 L 413.234375 389.933594 L 413.453125 389.992188 L 413.675781 390.039062 L 413.90625 390.074219 L 414.140625 390.09375 Z M 414.375 390.101562 "/>
<path fill-rule="nonzero" fill="rgb(10.196078%, 10.196078%, 10.196078%)" fill-opacity="1" d="M 423.375 390.777344 L 423.375 378.777344 L 424.476562 378.777344 L 424.476562 390.777344 Z M 423.953125 375.875 L 423.871094 375.871094 L 423.796875 375.863281 L 423.722656 375.851562 L 423.652344 375.832031 L 423.582031 375.808594 L 423.515625 375.777344 L 423.453125 375.742188 L 423.390625 375.699219 L 423.332031 375.652344 L 423.277344 375.601562 L 423.222656 375.542969 L 423.175781 375.484375 L 423.136719 375.417969 L 423.101562 375.347656 L 423.070312 375.277344 L 423.046875 375.199219 L 423.027344 375.117188 L 423.011719 375.03125 L 423.003906 374.945312 L 423 374.851562 L 423.003906 374.765625 L 423.011719 374.6875 L 423.027344 374.609375 L 423.046875 374.535156 L 423.070312 374.464844 L 423.101562 374.394531 L 423.136719 374.328125 L 423.175781 374.265625 L 423.222656 374.207031 L 423.332031 374.097656 L 423.390625 374.050781 L 423.515625 373.972656 L 423.582031 373.945312 L 423.652344 373.917969 L 423.722656 373.898438 L 423.796875 373.886719 L 423.871094 373.878906 L 423.953125 373.875 L 424.035156 373.878906 L 424.113281 373.886719 L 424.191406 373.898438 L 424.261719 373.917969 L 424.332031 373.945312 L 424.398438 373.972656 L 424.460938 374.011719 L 424.519531 374.050781 L 424.574219 374.097656 L 424.625 374.152344 L 424.679688 374.207031 L 424.726562 374.265625 L 424.765625 374.328125 L 424.800781 374.394531 L 424.832031 374.464844 L 424.859375 374.535156 L 424.875 374.609375 L 424.890625 374.6875 L 424.898438 374.765625 L 424.902344 374.851562 L 424.898438 374.945312 L 424.890625 375.03125 L 424.875 375.117188 L 424.859375 375.199219 L 424.832031 375.277344 L 424.800781 375.347656 L 424.765625 375.417969 L 424.726562 375.484375 L 424.679688 375.542969 L 424.625 375.601562 L 424.574219 375.652344 L 424.519531 375.699219 L 424.460938 375.742188 L 424.398438 375.777344 L 424.332031 375.808594 L 424.261719 375.832031 L 424.191406 375.851562 L 424.113281 375.863281 L 424.035156 375.871094 Z M 423.953125 375.875 "/>
<path fill-rule="nonzero" fill="rgb(10.196078%, 10.196078%, 10.196078%)" fill-opacity="1" d="M 432 391.074219 L 431.738281 391.070312 L 431.476562 391.054688 L 431.222656 391.03125 L 430.96875 391 L 430.71875 390.957031 L 430.472656 390.90625 L 430.230469 390.84375 L 429.992188 390.769531 L 429.757812 390.691406 L 429.527344 390.601562 L 429.304688 390.5 L 429.089844 390.394531 L 428.878906 390.285156 L 428.679688 390.171875 L 428.484375 390.058594 L 428.292969 389.9375 L 428.109375 389.816406 L 427.933594 389.6875 L 427.765625 389.558594 L 427.601562 389.425781 L 428.25 388.601562 L 428.40625 388.722656 L 428.566406 388.84375 L 428.726562 388.960938 L 428.886719 389.074219 L 429.050781 389.183594 L 429.21875 389.289062 L 429.386719 389.390625 L 429.554688 389.488281 L 429.726562 389.582031 L 429.902344 389.675781 L 430.082031 389.761719 L 430.269531 389.835938 L 430.464844 389.90625 L 430.667969 389.964844 L 430.882812 390.011719 L 431.105469 390.054688 L 431.335938 390.085938 L 431.574219 390.109375 L 431.820312 390.121094 L 432.078125 390.125 L 432.351562 390.117188 L 432.609375 390.097656 L 432.855469 390.0625 L 433.089844 390.011719 L 433.308594 389.949219 L 433.511719 389.875 L 433.707031 389.78125 L 433.882812 389.675781 L 434.050781 389.558594 L 434.203125 389.425781 L 434.339844 389.277344 L 434.460938 389.125 L 434.570312 388.96875 L 434.664062 388.808594 L 434.746094 388.644531 L 434.808594 388.472656 L 434.859375 388.300781 L 434.898438 388.121094 L 434.917969 387.9375 L 434.925781 387.75 L 434.921875 387.601562 L 434.910156 387.460938 L 434.886719 387.324219 L 434.855469 387.191406 L 434.8125 387.0625 L 434.765625 386.941406 L 434.707031 386.824219 L 434.636719 386.710938 L 434.5625 386.601562 L 434.476562 386.5 L 434.382812 386.402344 L 434.289062 386.308594 L 434.1875 386.214844 L 434.082031 386.128906 L 433.96875 386.042969 L 433.855469 385.964844 L 433.734375 385.886719 L 433.613281 385.8125 L 433.484375 385.742188 L 433.351562 385.675781 L 433.222656 385.609375 L 433.089844 385.546875 L 432.957031 385.488281 L 432.824219 385.425781 L 432.6875 385.371094 L 432.554688 385.3125 L 432.28125 385.203125 L 432 385.101562 L 431.640625 384.96875 L 431.464844 384.898438 L 431.285156 384.828125 L 431.109375 384.757812 L 430.929688 384.683594 L 430.753906 384.609375 L 430.226562 384.375 L 430.058594 384.292969 L 429.898438 384.207031 L 429.742188 384.113281 L 429.59375 384.019531 L 429.453125 383.917969 L 429.3125 383.8125 L 429.183594 383.707031 L 429.058594 383.589844 L 428.9375 383.472656 L 428.828125 383.351562 L 428.722656 383.214844 L 428.628906 383.074219 L 428.546875 382.925781 L 428.472656 382.769531 L 428.414062 382.605469 L 428.363281 382.433594 L 428.324219 382.257812 L 428.296875 382.070312 L 428.28125 381.875 L 428.277344 381.675781 L 428.285156 381.414062 L 428.316406 381.160156 L 428.363281 380.917969 L 428.433594 380.679688 L 428.519531 380.449219 L 428.628906 380.230469 L 428.753906 380.015625 L 428.902344 379.8125 L 429.066406 379.613281 L 429.25 379.425781 L 429.460938 379.246094 L 429.6875 379.082031 L 429.929688 378.941406 L 430.191406 378.816406 L 430.46875 378.714844 L 430.765625 378.628906 L 431.082031 378.5625 L 431.410156 378.511719 L 431.761719 378.484375 L 432.125 378.476562 L 432.320312 378.480469 L 432.511719 378.488281 L 432.703125 378.507812 L 432.894531 378.53125 L 433.082031 378.5625 L 433.269531 378.601562 L 433.453125 378.648438 L 433.636719 378.699219 L 433.820312 378.757812 L 434 378.824219 L 434.183594 378.898438 L 434.359375 378.972656 L 434.53125 379.054688 L 434.699219 379.136719 L 434.859375 379.226562 L 435.011719 379.316406 L 435.160156 379.414062 L 435.304688 379.511719 L 435.445312 379.617188 L 435.578125 379.726562 L 434.976562 380.5 L 434.851562 380.410156 L 434.722656 380.328125 L 434.597656 380.242188 L 434.46875 380.164062 L 434.339844 380.089844 L 434.207031 380.015625 L 434.078125 379.945312 L 433.945312 379.875 L 433.8125 379.8125 L 433.539062 379.6875 L 433.398438 379.632812 L 433.25 379.585938 L 433.101562 379.542969 L 432.945312 379.507812 L 432.785156 379.476562 L 432.621094 379.453125 L 432.453125 379.4375 L 432.277344 379.429688 L 432.101562 379.425781 L 431.828125 379.433594 L 431.570312 379.453125 L 431.328125 379.484375 L 431.097656 379.535156 L 430.882812 379.59375 L 430.683594 379.667969 L 430.496094 379.757812 L 430.324219 379.859375 L 430.167969 379.972656 L 430.027344 380.101562 L 429.902344 380.238281 L 429.792969 380.375 L 429.695312 380.519531 L 429.609375 380.664062 L 429.539062 380.8125 L 429.480469 380.964844 L 429.433594 381.117188 L 429.402344 381.277344 L 429.382812 381.4375 L 429.375 381.601562 L 429.378906 381.734375 L 429.390625 381.863281 L 429.410156 381.984375 L 429.4375 382.105469 L 429.46875 382.21875 L 429.511719 382.328125 L 429.558594 382.433594 L 429.617188 382.535156 L 429.679688 382.632812 L 429.75 382.726562 L 429.832031 382.8125 L 429.921875 382.898438 L 430.011719 382.980469 L 430.109375 383.0625 L 430.207031 383.136719 L 430.3125 383.210938 L 430.421875 383.28125 L 430.535156 383.347656 L 430.652344 383.414062 L 430.777344 383.476562 L 430.90625 383.53125 L 431.4375 383.75 L 431.847656 383.914062 L 431.988281 383.96875 L 432.125 384.027344 L 432.316406 384.097656 L 432.691406 384.238281 L 432.878906 384.3125 L 433.0625 384.386719 L 433.25 384.464844 L 433.433594 384.539062 L 433.613281 384.617188 L 433.796875 384.695312 L 433.976562 384.777344 L 434.152344 384.859375 L 434.324219 384.945312 L 434.488281 385.039062 L 434.644531 385.140625 L 434.796875 385.246094 L 434.9375 385.355469 L 435.078125 385.46875 L 435.207031 385.589844 L 435.332031 385.71875 L 435.453125 385.851562 L 435.566406 385.992188 L 435.667969 386.140625 L 435.757812 386.300781 L 435.835938 386.46875 L 435.902344 386.652344 L 435.957031 386.839844 L 435.996094 387.039062 L 436.027344 387.25 L 436.046875 387.46875 L 436.050781 387.699219 L 436.046875 387.878906 L 436.03125 388.054688 L 436.007812 388.230469 L 435.976562 388.402344 L 435.933594 388.570312 L 435.878906 388.734375 L 435.820312 388.898438 L 435.746094 389.058594 L 435.667969 389.21875 L 435.578125 389.375 L 435.476562 389.523438 L 435.371094 389.664062 L 435.253906 389.800781 L 435.128906 389.929688 L 434.996094 390.058594 L 434.851562 390.175781 L 434.703125 390.289062 L 434.542969 390.398438 L 434.378906 390.503906 L 434.203125 390.601562 L 434.015625 390.691406 L 433.824219 390.769531 L 433.625 390.84375 L 433.417969 390.90625 L 433.203125 390.957031 L 432.976562 391 L 432.746094 391.03125 L 432.503906 391.054688 L 432.257812 391.070312 Z M 432 391.074219 "/>
<path fill-rule="nonzero" fill="rgb(0%, 0%, 0%)" fill-opacity="1" d="M 31.242188 188.457031 L 24.035156 188.457031 L 13.449219 193.777344 L 13.449219 192.453125 L 19.011719 189.753906 L 19.207031 189.660156 L 19.398438 189.570312 L 19.59375 189.476562 L 19.785156 189.386719 L 19.976562 189.292969 L 20.167969 189.203125 L 20.359375 189.109375 L 20.550781 189.019531 L 20.738281 188.925781 L 20.929688 188.835938 L 21.117188 188.742188 L 21.691406 188.460938 L 22.277344 188.167969 L 22.476562 188.066406 L 22.671875 187.964844 L 22.871094 187.863281 L 22.871094 187.753906 L 22.671875 187.652344 L 22.476562 187.550781 L 22.277344 187.449219 L 22.082031 187.347656 L 21.886719 187.25 L 21.691406 187.148438 L 21.117188 186.855469 L 20.929688 186.757812 L 20.738281 186.660156 L 20.550781 186.5625 L 20.167969 186.375 L 19.976562 186.285156 L 19.785156 186.191406 L 19.59375 186.101562 L 19.398438 186.011719 L 19.207031 185.925781 L 19.011719 185.839844 L 13.449219 183.136719 L 13.449219 181.871094 L 24.035156 187.214844 L 31.242188 187.214844 Z M 31.242188 188.457031 "/>
</svg>
