<?xml version="1.0" encoding="UTF-8"?>
<svg xmlns="http://www.w3.org/2000/svg" xmlns:xlink="http://www.w3.org/1999/xlink" width="417" height="460" viewBox="0 0 417 460">
<defs>
<clipPath id="clip-0">
<path clip-rule="nonzero" d="M 97.707031 13.449219 L 403.546875 13.449219 L 403.546875 381.441406 L 97.707031 381.441406 Z M 97.707031 13.449219 "/>
</clipPath>
<clipPath id="clip-1">
<path clip-rule="nonzero" d="M 97.707031 359 L 403.546875 359 L 403.546875 363 L 97.707031 363 Z M 97.707031 359 "/>
</clipPath>
<clipPath id="clip-2">
<path clip-rule="nonzero" d="M 97.707031 273 L 403.546875 273 L 403.546875 276 L 97.707031 276 Z M 97.707031 273 "/>
</clipPath>
<clipPath id="clip-3">
<path clip-rule="nonzero" d="M 97.707031 187 L 403.546875 187 L 403.546875 190 L 97.707031 190 Z M 97.707031 187 "/>
</clipPath>
<clipPath id="clip-4">
<path clip-rule="nonzero" d="M 97.707031 100 L 403.546875 100 L 403.546875 104 L 97.707031 104 Z M 97.707031 100 "/>
</clipPath>
<clipPath id="clip-5">
<path clip-rule="nonzero" d="M 97.707031 14 L 403.546875 14 L 403.546875 18 L 97.707031 18 Z M 97.707031 14 "/>
</clipPath>
<clipPath id="clip-6">
<path clip-rule="nonzero" d="M 111 13.449219 L 114 13.449219 L 114 381.441406 L 111 381.441406 Z M 111 13.449219 "/>
</clipPath>
<clipPath id="clip-7">
<path clip-rule="nonzero" d="M 175 13.449219 L 179 13.449219 L 179 381.441406 L 175 381.441406 Z M 175 13.449219 "/>
</clipPath>
<clipPath id="clip-8">
<path clip-rule="nonzero" d="M 240 13.449219 L 243 13.449219 L 243 381.441406 L 240 381.441406 Z M 240 13.449219 "/>
</clipPath>
<clipPath id="clip-9">
<path clip-rule="nonzero" d="M 304 13.449219 L 308 13.449219 L 308 381.441406 L 304 381.441406 Z M 304 13.449219 "/>
</clipPath>
<clipPath id="clip-10">
<path clip-rule="nonzero" d="M 369 13.449219 L 373 13.449219 L 373 381.441406 L 369 381.441406 Z M 369 13.449219 "/>
</clipPath>
</defs>
<rect x="-41.7" y="-46" width="500.4" height="552" fill="rgb(100%, 100%, 100%)" fill-opacity="1"/>
<rect x="-41.7" y="-46" width="500.4" height="552" fill="rgb(95.294118%, 95.294118%, 95.294118%)" fill-opacity="1"/>
<path fill="none" stroke-width="2.618947" stroke-linecap="round" stroke-linejoin="round" stroke="rgb(95.294118%, 95.294118%, 95.294118%)" stroke-opacity="1" stroke-miterlimit="10" d="M 0 460 L 417 460 L 417 0 L 0 0 Z M 0 460 "/>
<g clip-path="url(#clip-0)">
<path fill-rule="nonzero" fill="rgb(95.294118%, 95.294118%, 95.294118%)" fill-opacity="1" stroke-width="2.618947" stroke-linecap="round" stroke-linejoin="round" stroke="rgb(95.294118%, 95.294118%, 95.294118%)" stroke-opacity="1" stroke-miterlimit="10" d="M 97.707031 381.441406 L 403.546875 381.441406 L 403.546875 13.449219 L 97.707031 13.449219 Z M 97.707031 381.441406 "/>
</g>
<g clip-path="url(#clip-1)">
<path fill="none" stroke-width="2.618947" stroke-linecap="butt" stroke-linejoin="round" stroke="rgb(92.156863%, 92.156863%, 92.156863%)" stroke-opacity="1" stroke-miterlimit="10" d="M 97.707031 360.828125 L 403.550781 360.828125 "/>
</g>
<g clip-path="url(#clip-2)">
<path fill="none" stroke-width="2.618947" stroke-linecap="butt" stroke-linejoin="round" stroke="rgb(92.156863%, 92.156863%, 92.156863%)" stroke-opacity="1" stroke-miterlimit="10" d="M 97.707031 274.652344 L 403.550781 274.652344 "/>
</g>
<g clip-path="url(#clip-3)">
<path fill="none" stroke-width="2.618947" stroke-linecap="butt" stroke-linejoin="round" stroke="rgb(92.156863%, 92.156863%, 92.156863%)" stroke-opacity="1" stroke-miterlimit="10" d="M 97.707031 188.476562 L 403.550781 188.476562 "/>
</g>
<g clip-path="url(#clip-4)">
<path fill="none" stroke-width="2.618947" stroke-linecap="butt" stroke-linejoin="round" stroke="rgb(92.156863%, 92.156863%, 92.156863%)" stroke-opacity="1" stroke-miterlimit="10" d="M 97.707031 102.300781 L 403.550781 102.300781 "/>
</g>
<g clip-path="url(#clip-5)">
<path fill="none" stroke-width="2.618947" stroke-linecap="butt" stroke-linejoin="round" stroke="rgb(92.156863%, 92.156863%, 92.156863%)" stroke-opacity="1" stroke-miterlimit="10" d="M 97.707031 16.125 L 403.550781 16.125 "/>
</g>
<g clip-path="url(#clip-6)">
<path fill="none" stroke-width="2.618947" stroke-linecap="butt" stroke-linejoin="round" stroke="rgb(92.156863%, 92.156863%, 92.156863%)" stroke-opacity="1" stroke-miterlimit="10" d="M 112.527344 381.441406 L 112.527344 13.449219 "/>
</g>
<g clip-path="url(#clip-7)">
<path fill="none" stroke-width="2.618947" stroke-linecap="butt" stroke-linejoin="round" stroke="rgb(92.156863%, 92.156863%, 92.156863%)" stroke-opacity="1" stroke-miterlimit="10" d="M 177.078125 381.441406 L 177.078125 13.449219 "/>
</g>
<g clip-path="url(#clip-8)">
<path fill="none" stroke-width="2.618947" stroke-linecap="butt" stroke-linejoin="round" stroke="rgb(92.156863%, 92.156863%, 92.156863%)" stroke-opacity="1" stroke-miterlimit="10" d="M 241.628906 381.441406 L 241.628906 13.449219 "/>
</g>
<g clip-path="url(#clip-9)">
<path fill="none" stroke-width="2.618947" stroke-linecap="butt" stroke-linejoin="round" stroke="rgb(92.156863%, 92.156863%, 92.156863%)" stroke-opacity="1" stroke-miterlimit="10" d="M 306.179688 381.441406 L 306.179688 13.449219 "/>
</g>
<g clip-path="url(#clip-10)">
<path fill="none" stroke-width="2.618947" stroke-linecap="butt" stroke-linejoin="round" stroke="rgb(92.156863%, 92.156863%, 92.156863%)" stroke-opacity="1" stroke-miterlimit="10" d="M 370.730469 381.441406 L 370.730469 13.449219 "/>
</g>
<path fill-rule="nonzero" fill="rgb(56.078431%, 16.470588%, 26.27451%)" fill-opacity="0.8" stroke-width="0.708661" stroke-linecap="round" stroke-linejoin="round" stroke="rgb(56.078431%, 16.470588%, 26.27451%)" stroke-opacity="0.8" stroke-miterlimit="10" d="M 215.28125 246.675781 C 215.28125 250.703125 212.015625 253.964844 207.992188 253.964844 C 203.964844 253.964844 200.699219 250.703125 200.699219 246.675781 C 200.699219 242.652344 203.964844 239.386719 207.992188 239.386719 C 212.015625 239.386719 215.28125 242.652344 215.28125 246.675781 "/>
<path fill-rule="nonzero" fill="rgb(56.078431%, 16.470588%, 26.27451%)" fill-opacity="0.8" stroke-width="0.708661" stroke-linecap="round" stroke-linejoin="round" stroke="rgb(56.078431%, 16.470588%, 26.27451%)" stroke-opacity="0.8" stroke-miterlimit="10" d="M 217.296875 264.695312 C 217.296875 268.71875 214.035156 271.984375 210.007812 271.984375 C 205.980469 271.984375 202.71875 268.71875 202.71875 264.695312 C 202.71875 260.667969 205.980469 257.40625 210.007812 257.40625 C 214.035156 257.40625 217.296875 260.667969 217.296875 264.695312 "/>
<path fill-rule="nonzero" fill="rgb(56.078431%, 16.470588%, 26.27451%)" fill-opacity="0.8" stroke-width="0.708661" stroke-linecap="round" stroke-linejoin="round" stroke="rgb(56.078431%, 16.470588%, 26.27451%)" stroke-opacity="0.8" stroke-miterlimit="10" d="M 251.960938 332.183594 C 251.960938 336.210938 248.699219 339.476562 244.671875 339.476562 C 240.648438 339.476562 237.382812 336.210938 237.382812 332.183594 C 237.382812 328.160156 240.648438 324.894531 244.671875 324.894531 C 248.699219 324.894531 251.960938 328.160156 251.960938 332.183594 "/>
<path fill-rule="nonzero" fill="rgb(56.078431%, 16.470588%, 26.27451%)" fill-opacity="0.8" stroke-width="0.708661" stroke-linecap="round" stroke-linejoin="round" stroke="rgb(56.078431%, 16.470588%, 26.27451%)" stroke-opacity="0.8" stroke-miterlimit="10" d="M 332.847656 212.46875 C 332.847656 216.496094 329.582031 219.757812 325.558594 219.757812 C 321.53125 219.757812 318.269531 216.496094 318.269531 212.46875 C 318.269531 208.445312 321.53125 205.179688 325.558594 205.179688 C 329.582031 205.179688 332.847656 208.445312 332.847656 212.46875 "/>
<path fill-rule="nonzero" fill="rgb(56.078431%, 16.470588%, 26.27451%)" fill-opacity="0.8" stroke-width="0.708661" stroke-linecap="round" stroke-linejoin="round" stroke="rgb(56.078431%, 16.470588%, 26.27451%)" stroke-opacity="0.8" stroke-miterlimit="10" d="M 396.9375 101.3125 C 396.9375 105.335938 393.675781 108.601562 389.648438 108.601562 C 385.621094 108.601562 382.359375 105.335938 382.359375 101.3125 C 382.359375 97.285156 385.621094 94.019531 389.648438 94.019531 C 393.675781 94.019531 396.9375 97.285156 396.9375 101.3125 "/>
<path fill-rule="nonzero" fill="rgb(56.078431%, 16.470588%, 26.27451%)" fill-opacity="0.8" stroke-width="0.708661" stroke-linecap="round" stroke-linejoin="round" stroke="rgb(56.078431%, 16.470588%, 26.27451%)" stroke-opacity="0.8" stroke-miterlimit="10" d="M 348.816406 145.109375 C 348.816406 149.136719 345.550781 152.398438 341.527344 152.398438 C 337.5 152.398438 334.238281 149.136719 334.238281 145.109375 C 334.238281 141.082031 337.5 137.820312 341.527344 137.820312 C 345.550781 137.820312 348.816406 141.082031 348.816406 145.109375 "/>
<path fill-rule="nonzero" fill="rgb(56.078431%, 16.470588%, 26.27451%)" fill-opacity="0.8" stroke-width="0.708661" stroke-linecap="round" stroke-linejoin="round" stroke="rgb(56.078431%, 16.470588%, 26.27451%)" stroke-opacity="0.8" stroke-miterlimit="10" d="M 240.324219 283.5 C 240.324219 287.523438 237.058594 290.789062 233.035156 290.789062 C 229.007812 290.789062 225.746094 287.523438 225.746094 283.5 C 225.746094 279.472656 229.007812 276.207031 233.035156 276.207031 C 237.058594 276.207031 240.324219 279.472656 240.324219 283.5 "/>
<path fill-rule="nonzero" fill="rgb(56.078431%, 16.470588%, 26.27451%)" fill-opacity="0.8" stroke-width="0.708661" stroke-linecap="round" stroke-linejoin="round" stroke="rgb(56.078431%, 16.470588%, 26.27451%)" stroke-opacity="0.8" stroke-miterlimit="10" d="M 135.535156 337.519531 C 135.535156 341.546875 132.269531 344.808594 128.246094 344.808594 C 124.21875 344.808594 120.953125 341.546875 120.953125 337.519531 C 120.953125 333.492188 124.21875 330.230469 128.246094 330.230469 C 132.269531 330.230469 135.535156 333.492188 135.535156 337.519531 "/>
<path fill-rule="nonzero" fill="rgb(56.078431%, 16.470588%, 26.27451%)" fill-opacity="0.8" stroke-width="0.708661" stroke-linecap="round" stroke-linejoin="round" stroke="rgb(56.078431%, 16.470588%, 26.27451%)" stroke-opacity="0.8" stroke-miterlimit="10" d="M 223.824219 230.066406 C 223.824219 234.09375 220.558594 237.355469 216.535156 237.355469 C 212.507812 237.355469 209.242188 234.09375 209.242188 230.066406 C 209.242188 226.042969 212.507812 222.777344 216.535156 222.777344 C 220.558594 222.777344 223.824219 226.042969 223.824219 230.066406 "/>
<path fill-rule="nonzero" fill="rgb(56.078431%, 16.470588%, 26.27451%)" fill-opacity="0.8" stroke-width="0.708661" stroke-linecap="round" stroke-linejoin="round" stroke="rgb(56.078431%, 16.470588%, 26.27451%)" stroke-opacity="0.8" stroke-miterlimit="10" d="M 254.675781 239.410156 C 254.675781 243.4375 251.414062 246.699219 247.386719 246.699219 C 243.363281 246.699219 240.097656 243.4375 240.097656 239.410156 C 240.097656 235.382812 243.363281 232.121094 247.386719 232.121094 C 251.414062 232.121094 254.675781 235.382812 254.675781 239.410156 "/>
<path fill-rule="nonzero" fill="rgb(56.078431%, 16.470588%, 26.27451%)" fill-opacity="0.8" stroke-width="0.708661" stroke-linecap="round" stroke-linejoin="round" stroke="rgb(56.078431%, 16.470588%, 26.27451%)" stroke-opacity="0.8" stroke-miterlimit="10" d="M 303.464844 219.210938 C 303.464844 223.234375 300.199219 226.5 296.175781 226.5 C 292.148438 226.5 288.886719 223.234375 288.886719 219.210938 C 288.886719 215.183594 292.148438 211.917969 296.175781 211.917969 C 300.199219 211.917969 303.464844 215.183594 303.464844 219.210938 "/>
<path fill-rule="nonzero" fill="rgb(56.078431%, 16.470588%, 26.27451%)" fill-opacity="0.8" stroke-width="0.708661" stroke-linecap="round" stroke-linejoin="round" stroke="rgb(56.078431%, 16.470588%, 26.27451%)" stroke-opacity="0.8" stroke-miterlimit="10" d="M 311.050781 176.882812 C 311.050781 180.910156 307.785156 184.171875 303.761719 184.171875 C 299.734375 184.171875 296.472656 180.910156 296.472656 176.882812 C 296.472656 172.855469 299.734375 169.59375 303.761719 169.59375 C 307.785156 169.59375 311.050781 172.855469 311.050781 176.882812 "/>
<path fill-rule="nonzero" fill="rgb(56.078431%, 16.470588%, 26.27451%)" fill-opacity="0.8" stroke-width="0.708661" stroke-linecap="round" stroke-linejoin="round" stroke="rgb(56.078431%, 16.470588%, 26.27451%)" stroke-opacity="0.8" stroke-miterlimit="10" d="M 293.089844 284.425781 C 293.089844 288.449219 289.828125 291.714844 285.800781 291.714844 C 281.777344 291.714844 278.511719 288.449219 278.511719 284.425781 C 278.511719 280.398438 281.777344 277.136719 285.800781 277.136719 C 289.828125 277.136719 293.089844 280.398438 293.089844 284.425781 "/>
<path fill-rule="nonzero" fill="rgb(56.078431%, 16.470588%, 26.27451%)" fill-opacity="0.8" stroke-width="0.708661" stroke-linecap="round" stroke-linejoin="round" stroke="rgb(56.078431%, 16.470588%, 26.27451%)" stroke-opacity="0.8" stroke-miterlimit="10" d="M 158.851562 276.035156 C 158.851562 280.0625 155.589844 283.324219 151.5625 283.324219 C 147.539062 283.324219 144.273438 280.0625 144.273438 276.035156 C 144.273438 272.011719 147.539062 268.746094 151.5625 268.746094 C 155.589844 268.746094 158.851562 272.011719 158.851562 276.035156 "/>
<path fill-rule="nonzero" fill="rgb(56.078431%, 16.470588%, 26.27451%)" fill-opacity="0.8" stroke-width="0.708661" stroke-linecap="round" stroke-linejoin="round" stroke="rgb(56.078431%, 16.470588%, 26.27451%)" stroke-opacity="0.8" stroke-miterlimit="10" d="M 303.765625 245.089844 C 303.765625 249.117188 300.5 252.382812 296.472656 252.382812 C 292.449219 252.382812 289.183594 249.117188 289.183594 245.089844 C 289.183594 241.066406 292.449219 237.800781 296.472656 237.800781 C 300.5 237.800781 303.765625 241.066406 303.765625 245.089844 "/>
<path fill-rule="nonzero" fill="rgb(56.078431%, 16.470588%, 26.27451%)" fill-opacity="0.8" stroke-width="0.708661" stroke-linecap="round" stroke-linejoin="round" stroke="rgb(56.078431%, 16.470588%, 26.27451%)" stroke-opacity="0.8" stroke-miterlimit="10" d="M 220.09375 266.121094 C 220.09375 270.144531 216.828125 273.410156 212.804688 273.410156 C 208.777344 273.410156 205.515625 270.144531 205.515625 266.121094 C 205.515625 262.09375 208.777344 258.828125 212.804688 258.828125 C 216.828125 258.828125 220.09375 262.09375 220.09375 266.121094 "/>
<path fill-rule="nonzero" fill="rgb(56.078431%, 16.470588%, 26.27451%)" fill-opacity="0.8" stroke-width="0.708661" stroke-linecap="round" stroke-linejoin="round" stroke="rgb(56.078431%, 16.470588%, 26.27451%)" stroke-opacity="0.8" stroke-miterlimit="10" d="M 260.203125 268.992188 C 260.203125 273.019531 256.9375 276.28125 252.914062 276.28125 C 248.886719 276.28125 245.625 273.019531 245.625 268.992188 C 245.625 264.96875 248.886719 261.703125 252.914062 261.703125 C 256.9375 261.703125 260.203125 264.96875 260.203125 268.992188 "/>
<path fill-rule="nonzero" fill="rgb(56.078431%, 16.470588%, 26.27451%)" fill-opacity="0.8" stroke-width="0.708661" stroke-linecap="round" stroke-linejoin="round" stroke="rgb(56.078431%, 16.470588%, 26.27451%)" stroke-opacity="0.8" stroke-miterlimit="10" d="M 253.730469 249.65625 C 253.730469 253.679688 250.46875 256.945312 246.441406 256.945312 C 242.414062 256.945312 239.152344 253.679688 239.152344 249.65625 C 239.152344 245.628906 242.414062 242.367188 246.441406 242.367188 C 250.46875 242.367188 253.730469 245.628906 253.730469 249.65625 "/>
<path fill-rule="nonzero" fill="rgb(56.078431%, 16.470588%, 26.27451%)" fill-opacity="0.8" stroke-width="0.708661" stroke-linecap="round" stroke-linejoin="round" stroke="rgb(56.078431%, 16.470588%, 26.27451%)" stroke-opacity="0.8" stroke-miterlimit="10" d="M 276.558594 207.746094 C 276.558594 211.773438 273.292969 215.035156 269.265625 215.035156 C 265.242188 215.035156 261.976562 211.773438 261.976562 207.746094 C 261.976562 203.722656 265.242188 200.457031 269.265625 200.457031 C 273.292969 200.457031 276.558594 203.722656 276.558594 207.746094 "/>
<path fill-rule="nonzero" fill="rgb(56.078431%, 16.470588%, 26.27451%)" fill-opacity="0.8" stroke-width="0.708661" stroke-linecap="round" stroke-linejoin="round" stroke="rgb(56.078431%, 16.470588%, 26.27451%)" stroke-opacity="0.8" stroke-miterlimit="10" d="M 250.511719 273.371094 C 250.511719 277.398438 247.246094 280.660156 243.222656 280.660156 C 239.195312 280.660156 235.933594 277.398438 235.933594 273.371094 C 235.933594 269.34375 239.195312 266.082031 243.222656 266.082031 C 247.246094 266.082031 250.511719 269.34375 250.511719 273.371094 "/>
<path fill-rule="nonzero" fill="rgb(56.078431%, 16.470588%, 26.27451%)" fill-opacity="0.8" stroke-width="0.708661" stroke-linecap="round" stroke-linejoin="round" stroke="rgb(56.078431%, 16.470588%, 26.27451%)" stroke-opacity="0.8" stroke-miterlimit="10" d="M 141.28125 260.628906 C 141.28125 264.65625 138.019531 267.917969 133.992188 267.917969 C 129.96875 267.917969 126.703125 264.65625 126.703125 260.628906 C 126.703125 256.605469 129.96875 253.339844 133.992188 253.339844 C 138.019531 253.339844 141.28125 256.605469 141.28125 260.628906 "/>
<path fill-rule="nonzero" fill="rgb(56.078431%, 16.470588%, 26.27451%)" fill-opacity="0.8" stroke-width="0.708661" stroke-linecap="round" stroke-linejoin="round" stroke="rgb(56.078431%, 16.470588%, 26.27451%)" stroke-opacity="0.8" stroke-miterlimit="10" d="M 296.460938 275.804688 C 296.460938 279.832031 293.195312 283.09375 289.171875 283.09375 C 285.144531 283.09375 281.878906 279.832031 281.878906 275.804688 C 281.878906 271.78125 285.144531 268.515625 289.171875 268.515625 C 293.195312 268.515625 296.460938 271.78125 296.460938 275.804688 "/>
<path fill-rule="nonzero" fill="rgb(56.078431%, 16.470588%, 26.27451%)" fill-opacity="0.8" stroke-width="0.708661" stroke-linecap="round" stroke-linejoin="round" stroke="rgb(56.078431%, 16.470588%, 26.27451%)" stroke-opacity="0.8" stroke-miterlimit="10" d="M 273.835938 280.992188 C 273.835938 285.015625 270.574219 288.28125 266.546875 288.28125 C 262.519531 288.28125 259.257812 285.015625 259.257812 280.992188 C 259.257812 276.964844 262.519531 273.703125 266.546875 273.703125 C 270.574219 273.703125 273.835938 276.964844 273.835938 280.992188 "/>
<path fill-rule="nonzero" fill="rgb(56.078431%, 16.470588%, 26.27451%)" fill-opacity="0.8" stroke-width="0.708661" stroke-linecap="round" stroke-linejoin="round" stroke="rgb(56.078431%, 16.470588%, 26.27451%)" stroke-opacity="0.8" stroke-miterlimit="10" d="M 231.769531 232.058594 C 231.769531 236.082031 228.507812 239.347656 224.480469 239.347656 C 220.457031 239.347656 217.191406 236.082031 217.191406 232.058594 C 217.191406 228.03125 220.457031 224.769531 224.480469 224.769531 C 228.507812 224.769531 231.769531 228.03125 231.769531 232.058594 "/>
<path fill-rule="nonzero" fill="rgb(56.078431%, 16.470588%, 26.27451%)" fill-opacity="0.8" stroke-width="0.708661" stroke-linecap="round" stroke-linejoin="round" stroke="rgb(56.078431%, 16.470588%, 26.27451%)" stroke-opacity="0.8" stroke-miterlimit="10" d="M 256.546875 256.515625 C 256.546875 260.542969 253.28125 263.808594 249.253906 263.808594 C 245.230469 263.808594 241.964844 260.542969 241.964844 256.515625 C 241.964844 252.492188 245.230469 249.226562 249.253906 249.226562 C 253.28125 249.226562 256.546875 252.492188 256.546875 256.515625 "/>
<path fill-rule="nonzero" fill="rgb(56.078431%, 16.470588%, 26.27451%)" fill-opacity="0.8" stroke-width="0.708661" stroke-linecap="round" stroke-linejoin="round" stroke="rgb(56.078431%, 16.470588%, 26.27451%)" stroke-opacity="0.8" stroke-miterlimit="10" d="M 257.570312 339.539062 C 257.570312 343.566406 254.308594 346.828125 250.28125 346.828125 C 246.253906 346.828125 242.992188 343.566406 242.992188 339.539062 C 242.992188 335.515625 246.253906 332.25 250.28125 332.25 C 254.308594 332.25 257.570312 335.515625 257.570312 339.539062 "/>
<path fill-rule="nonzero" fill="rgb(56.078431%, 16.470588%, 26.27451%)" fill-opacity="0.8" stroke-width="0.708661" stroke-linecap="round" stroke-linejoin="round" stroke="rgb(56.078431%, 16.470588%, 26.27451%)" stroke-opacity="0.8" stroke-miterlimit="10" d="M 263.1875 311.6875 C 263.1875 315.714844 259.921875 318.976562 255.894531 318.976562 C 251.871094 318.976562 248.605469 315.714844 248.605469 311.6875 C 248.605469 307.660156 251.871094 304.398438 255.894531 304.398438 C 259.921875 304.398438 263.1875 307.660156 263.1875 311.6875 "/>
<path fill-rule="nonzero" fill="rgb(56.078431%, 16.470588%, 26.27451%)" fill-opacity="0.8" stroke-width="0.708661" stroke-linecap="round" stroke-linejoin="round" stroke="rgb(56.078431%, 16.470588%, 26.27451%)" stroke-opacity="0.8" stroke-miterlimit="10" d="M 354.835938 167.296875 C 354.835938 171.324219 351.574219 174.589844 347.546875 174.589844 C 343.519531 174.589844 340.257812 171.324219 340.257812 167.296875 C 340.257812 163.273438 343.519531 160.007812 347.546875 160.007812 C 351.574219 160.007812 354.835938 163.273438 354.835938 167.296875 "/>
<path fill-rule="nonzero" fill="rgb(56.078431%, 16.470588%, 26.27451%)" fill-opacity="0.8" stroke-width="0.708661" stroke-linecap="round" stroke-linejoin="round" stroke="rgb(56.078431%, 16.470588%, 26.27451%)" stroke-opacity="0.8" stroke-miterlimit="10" d="M 234.777344 253.042969 C 234.777344 257.070312 231.515625 260.332031 227.488281 260.332031 C 223.464844 260.332031 220.199219 257.070312 220.199219 253.042969 C 220.199219 249.019531 223.464844 245.753906 227.488281 245.753906 C 231.515625 245.753906 234.777344 249.019531 234.777344 253.042969 "/>
<path fill-rule="nonzero" fill="rgb(56.078431%, 16.470588%, 26.27451%)" fill-opacity="0.8" stroke-width="0.708661" stroke-linecap="round" stroke-linejoin="round" stroke="rgb(56.078431%, 16.470588%, 26.27451%)" stroke-opacity="0.8" stroke-miterlimit="10" d="M 259.765625 270.726562 C 259.765625 274.753906 256.503906 278.015625 252.476562 278.015625 C 248.453125 278.015625 245.1875 274.753906 245.1875 270.726562 C 245.1875 266.699219 248.453125 263.4375 252.476562 263.4375 C 256.503906 263.4375 259.765625 266.699219 259.765625 270.726562 "/>
<path fill-rule="nonzero" fill="rgb(56.078431%, 16.470588%, 26.27451%)" fill-opacity="0.8" stroke-width="0.708661" stroke-linecap="round" stroke-linejoin="round" stroke="rgb(56.078431%, 16.470588%, 26.27451%)" stroke-opacity="0.8" stroke-miterlimit="10" d="M 324.339844 181.28125 C 324.339844 185.304688 321.074219 188.570312 317.050781 188.570312 C 313.023438 188.570312 309.757812 185.304688 309.757812 181.28125 C 309.757812 177.253906 313.023438 173.992188 317.050781 173.992188 C 321.074219 173.992188 324.339844 177.253906 324.339844 181.28125 "/>
<path fill-rule="nonzero" fill="rgb(56.078431%, 16.470588%, 26.27451%)" fill-opacity="0.8" stroke-width="0.708661" stroke-linecap="round" stroke-linejoin="round" stroke="rgb(56.078431%, 16.470588%, 26.27451%)" stroke-opacity="0.8" stroke-miterlimit="10" d="M 316.964844 178.835938 C 316.964844 182.863281 313.703125 186.128906 309.675781 186.128906 C 305.652344 186.128906 302.386719 182.863281 302.386719 178.835938 C 302.386719 174.8125 305.652344 171.546875 309.675781 171.546875 C 313.703125 171.546875 316.964844 174.8125 316.964844 178.835938 "/>
<path fill-rule="nonzero" fill="rgb(56.078431%, 16.470588%, 26.27451%)" fill-opacity="0.8" stroke-width="0.708661" stroke-linecap="round" stroke-linejoin="round" stroke="rgb(56.078431%, 16.470588%, 26.27451%)" stroke-opacity="0.8" stroke-miterlimit="10" d="M 322.847656 147.074219 C 322.847656 151.097656 319.582031 154.363281 315.554688 154.363281 C 311.53125 154.363281 308.265625 151.097656 308.265625 147.074219 C 308.265625 143.046875 311.53125 139.78125 315.554688 139.78125 C 319.582031 139.78125 322.847656 143.046875 322.847656 147.074219 "/>
<path fill-rule="nonzero" fill="rgb(56.078431%, 16.470588%, 26.27451%)" fill-opacity="0.8" stroke-width="0.708661" stroke-linecap="round" stroke-linejoin="round" stroke="rgb(56.078431%, 16.470588%, 26.27451%)" stroke-opacity="0.8" stroke-miterlimit="10" d="M 211.644531 290.863281 C 211.644531 294.886719 208.378906 298.152344 204.351562 298.152344 C 200.328125 298.152344 197.0625 294.886719 197.0625 290.863281 C 197.0625 286.835938 200.328125 283.570312 204.351562 283.570312 C 208.378906 283.570312 211.644531 286.835938 211.644531 290.863281 "/>
<path fill-rule="nonzero" fill="rgb(56.078431%, 16.470588%, 26.27451%)" fill-opacity="0.8" stroke-width="0.708661" stroke-linecap="round" stroke-linejoin="round" stroke="rgb(56.078431%, 16.470588%, 26.27451%)" stroke-opacity="0.8" stroke-miterlimit="10" d="M 378.179688 124.503906 C 378.179688 128.527344 374.917969 131.792969 370.890625 131.792969 C 366.863281 131.792969 363.601562 128.527344 363.601562 124.503906 C 363.601562 120.476562 366.863281 117.210938 370.890625 117.210938 C 374.917969 117.210938 378.179688 120.476562 378.179688 124.503906 "/>
<path fill-rule="nonzero" fill="rgb(56.078431%, 16.470588%, 26.27451%)" fill-opacity="0.8" stroke-width="0.708661" stroke-linecap="round" stroke-linejoin="round" stroke="rgb(56.078431%, 16.470588%, 26.27451%)" stroke-opacity="0.8" stroke-miterlimit="10" d="M 253.222656 332.253906 C 253.222656 336.277344 249.960938 339.542969 245.933594 339.542969 C 241.910156 339.542969 238.644531 336.277344 238.644531 332.253906 C 238.644531 328.226562 241.910156 324.960938 245.933594 324.960938 C 249.960938 324.960938 253.222656 328.226562 253.222656 332.253906 "/>
<path fill-rule="nonzero" fill="rgb(56.078431%, 16.470588%, 26.27451%)" fill-opacity="0.8" stroke-width="0.708661" stroke-linecap="round" stroke-linejoin="round" stroke="rgb(56.078431%, 16.470588%, 26.27451%)" stroke-opacity="0.8" stroke-miterlimit="10" d="M 369.425781 133.941406 C 369.425781 137.96875 366.160156 141.230469 362.136719 141.230469 C 358.109375 141.230469 354.84375 137.96875 354.84375 133.941406 C 354.84375 129.914062 358.109375 126.652344 362.136719 126.652344 C 366.160156 126.652344 369.425781 129.914062 369.425781 133.941406 "/>
<path fill-rule="nonzero" fill="rgb(56.078431%, 16.470588%, 26.27451%)" fill-opacity="0.8" stroke-width="0.708661" stroke-linecap="round" stroke-linejoin="round" stroke="rgb(56.078431%, 16.470588%, 26.27451%)" stroke-opacity="0.8" stroke-miterlimit="10" d="M 161.71875 318.792969 C 161.71875 322.816406 158.453125 326.082031 154.425781 326.082031 C 150.402344 326.082031 147.136719 322.816406 147.136719 318.792969 C 147.136719 314.765625 150.402344 311.5 154.425781 311.5 C 158.453125 311.5 161.71875 314.765625 161.71875 318.792969 "/>
<path fill-rule="nonzero" fill="rgb(56.078431%, 16.470588%, 26.27451%)" fill-opacity="0.8" stroke-width="0.708661" stroke-linecap="round" stroke-linejoin="round" stroke="rgb(56.078431%, 16.470588%, 26.27451%)" stroke-opacity="0.8" stroke-miterlimit="10" d="M 250.273438 307.351562 C 250.273438 311.378906 247.007812 314.640625 242.984375 314.640625 C 238.957031 314.640625 235.695312 311.378906 235.695312 307.351562 C 235.695312 303.328125 238.957031 300.0625 242.984375 300.0625 C 247.007812 300.0625 250.273438 303.328125 250.273438 307.351562 "/>
<path fill-rule="nonzero" fill="rgb(56.078431%, 16.470588%, 26.27451%)" fill-opacity="0.8" stroke-width="0.708661" stroke-linecap="round" stroke-linejoin="round" stroke="rgb(56.078431%, 16.470588%, 26.27451%)" stroke-opacity="0.8" stroke-miterlimit="10" d="M 329.601562 202.226562 C 329.601562 206.253906 326.335938 209.515625 322.3125 209.515625 C 318.285156 209.515625 315.023438 206.253906 315.023438 202.226562 C 315.023438 198.199219 318.285156 194.9375 322.3125 194.9375 C 326.335938 194.9375 329.601562 198.199219 329.601562 202.226562 "/>
<path fill-rule="nonzero" fill="rgb(56.078431%, 16.470588%, 26.27451%)" fill-opacity="0.8" stroke-width="0.708661" stroke-linecap="round" stroke-linejoin="round" stroke="rgb(56.078431%, 16.470588%, 26.27451%)" stroke-opacity="0.8" stroke-miterlimit="10" d="M 202.75 260.4375 C 202.75 264.460938 199.484375 267.726562 195.460938 267.726562 C 191.433594 267.726562 188.171875 264.460938 188.171875 260.4375 C 188.171875 256.410156 191.433594 253.148438 195.460938 253.148438 C 199.484375 253.148438 202.75 256.410156 202.75 260.4375 "/>
<path fill-rule="nonzero" fill="rgb(56.078431%, 16.470588%, 26.27451%)" fill-opacity="0.8" stroke-width="0.708661" stroke-linecap="round" stroke-linejoin="round" stroke="rgb(56.078431%, 16.470588%, 26.27451%)" stroke-opacity="0.8" stroke-miterlimit="10" d="M 200.332031 364.714844 C 200.332031 368.738281 197.070312 372.003906 193.042969 372.003906 C 189.015625 372.003906 185.753906 368.738281 185.753906 364.714844 C 185.753906 360.6875 189.015625 357.425781 193.042969 357.425781 C 197.070312 357.425781 200.332031 360.6875 200.332031 364.714844 "/>
<path fill-rule="nonzero" fill="rgb(56.078431%, 16.470588%, 26.27451%)" fill-opacity="0.8" stroke-width="0.708661" stroke-linecap="round" stroke-linejoin="round" stroke="rgb(56.078431%, 16.470588%, 26.27451%)" stroke-opacity="0.8" stroke-miterlimit="10" d="M 188.335938 313.023438 C 188.335938 317.046875 185.070312 320.3125 181.046875 320.3125 C 177.019531 320.3125 173.757812 317.046875 173.757812 313.023438 C 173.757812 308.996094 177.019531 305.734375 181.046875 305.734375 C 185.070312 305.734375 188.335938 308.996094 188.335938 313.023438 "/>
<path fill-rule="nonzero" fill="rgb(56.078431%, 16.470588%, 26.27451%)" fill-opacity="0.8" stroke-width="0.708661" stroke-linecap="round" stroke-linejoin="round" stroke="rgb(56.078431%, 16.470588%, 26.27451%)" stroke-opacity="0.8" stroke-miterlimit="10" d="M 180.980469 295.078125 C 180.980469 299.101562 177.714844 302.367188 173.6875 302.367188 C 169.664062 302.367188 166.398438 299.101562 166.398438 295.078125 C 166.398438 291.050781 169.664062 287.785156 173.6875 287.785156 C 177.714844 287.785156 180.980469 291.050781 180.980469 295.078125 "/>
<path fill-rule="nonzero" fill="rgb(56.078431%, 16.470588%, 26.27451%)" fill-opacity="0.8" stroke-width="0.708661" stroke-linecap="round" stroke-linejoin="round" stroke="rgb(56.078431%, 16.470588%, 26.27451%)" stroke-opacity="0.8" stroke-miterlimit="10" d="M 220.699219 320.230469 C 220.699219 324.257812 217.4375 327.519531 213.410156 327.519531 C 209.382812 327.519531 206.121094 324.257812 206.121094 320.230469 C 206.121094 316.207031 209.382812 312.941406 213.410156 312.941406 C 217.4375 312.941406 220.699219 316.207031 220.699219 320.230469 "/>
<path fill-rule="nonzero" fill="rgb(56.078431%, 16.470588%, 26.27451%)" fill-opacity="0.8" stroke-width="0.708661" stroke-linecap="round" stroke-linejoin="round" stroke="rgb(56.078431%, 16.470588%, 26.27451%)" stroke-opacity="0.8" stroke-miterlimit="10" d="M 270.296875 247.554688 C 270.296875 251.582031 267.03125 254.84375 263.007812 254.84375 C 258.980469 254.84375 255.71875 251.582031 255.71875 247.554688 C 255.71875 243.527344 258.980469 240.265625 263.007812 240.265625 C 267.03125 240.265625 270.296875 243.527344 270.296875 247.554688 "/>
<path fill-rule="nonzero" fill="rgb(56.078431%, 16.470588%, 26.27451%)" fill-opacity="0.8" stroke-width="0.708661" stroke-linecap="round" stroke-linejoin="round" stroke="rgb(56.078431%, 16.470588%, 26.27451%)" stroke-opacity="0.8" stroke-miterlimit="10" d="M 118.902344 273.863281 C 118.902344 277.890625 115.636719 281.152344 111.609375 281.152344 C 107.585938 281.152344 104.320312 277.890625 104.320312 273.863281 C 104.320312 269.839844 107.585938 266.574219 111.609375 266.574219 C 115.636719 266.574219 118.902344 269.839844 118.902344 273.863281 "/>
<path fill-rule="nonzero" fill="rgb(56.078431%, 16.470588%, 26.27451%)" fill-opacity="0.8" stroke-width="0.708661" stroke-linecap="round" stroke-linejoin="round" stroke="rgb(56.078431%, 16.470588%, 26.27451%)" stroke-opacity="0.8" stroke-miterlimit="10" d="M 262.601562 266.25 C 262.601562 270.273438 259.339844 273.539062 255.3125 273.539062 C 251.285156 273.539062 248.023438 270.273438 248.023438 266.25 C 248.023438 262.222656 251.285156 258.960938 255.3125 258.960938 C 259.339844 258.960938 262.601562 262.222656 262.601562 266.25 "/>
<path fill-rule="nonzero" fill="rgb(56.078431%, 16.470588%, 26.27451%)" fill-opacity="0.8" stroke-width="0.708661" stroke-linecap="round" stroke-linejoin="round" stroke="rgb(56.078431%, 16.470588%, 26.27451%)" stroke-opacity="0.8" stroke-miterlimit="10" d="M 328.746094 282.140625 C 328.746094 286.167969 325.484375 289.429688 321.457031 289.429688 C 317.429688 289.429688 314.167969 286.167969 314.167969 282.140625 C 314.167969 278.113281 317.429688 274.851562 321.457031 274.851562 C 325.484375 274.851562 328.746094 278.113281 328.746094 282.140625 "/>
<path fill-rule="nonzero" fill="rgb(56.078431%, 16.470588%, 26.27451%)" fill-opacity="0.8" stroke-width="0.708661" stroke-linecap="round" stroke-linejoin="round" stroke="rgb(56.078431%, 16.470588%, 26.27451%)" stroke-opacity="0.8" stroke-miterlimit="10" d="M 380.445312 30.175781 C 380.445312 34.203125 377.179688 37.464844 373.15625 37.464844 C 369.128906 37.464844 365.867188 34.203125 365.867188 30.175781 C 365.867188 26.152344 369.128906 22.886719 373.15625 22.886719 C 377.179688 22.886719 380.445312 26.152344 380.445312 30.175781 "/>
<path fill="none" stroke-width="2.133957" stroke-linecap="butt" stroke-linejoin="round" stroke="rgb(0%, 0%, 0%)" stroke-opacity="1" stroke-miterlimit="10" d="M 111.609375 356.382812 L 125.6875 345.664062 L 129.207031 342.988281 L 146.804688 329.589844 L 150.324219 326.914062 L 171.441406 310.835938 L 174.960938 308.160156 L 192.558594 294.761719 L 196.078125 292.085938 L 213.675781 278.6875 L 217.195312 276.011719 L 238.3125 259.933594 L 241.832031 257.257812 L 259.429688 243.859375 L 262.949219 241.183594 L 280.546875 227.785156 L 284.066406 225.109375 L 291.105469 219.75 L 294.621094 217.070312 L 301.660156 211.710938 L 305.179688 209.035156 L 326.296875 192.957031 L 329.816406 190.28125 L 347.414062 176.882812 L 350.933594 174.207031 L 368.53125 160.808594 L 372.050781 158.132812 L 389.648438 144.734375 "/>
<path fill-rule="nonzero" fill="rgb(10.196078%, 10.196078%, 10.196078%)" fill-opacity="1" d="M 60.878906 369.066406 L 60.910156 368.429688 L 60.945312 367.804688 L 60.992188 367.191406 L 61.042969 366.59375 L 61.105469 366.011719 L 61.171875 365.441406 L 61.25 364.882812 L 61.335938 364.339844 L 61.429688 363.808594 L 61.53125 363.292969 L 61.640625 362.785156 L 61.757812 362.285156 L 61.890625 361.792969 L 62.03125 361.308594 L 62.179688 360.828125 L 62.339844 360.359375 L 62.507812 359.894531 L 62.6875 359.4375 L 62.878906 358.984375 L 63.078125 358.542969 L 63.289062 358.097656 L 63.511719 357.652344 L 63.746094 357.203125 L 63.992188 356.757812 L 64.25 356.308594 L 64.515625 355.863281 L 64.796875 355.414062 L 65.085938 354.964844 L 65.390625 354.515625 L 65.703125 354.066406 L 57.28125 354.066406 L 57.28125 353.089844 L 67.105469 353.089844 L 67.105469 353.742188 L 66.824219 354.121094 L 66.554688 354.496094 L 66.292969 354.871094 L 66.039062 355.242188 L 65.796875 355.609375 L 65.566406 355.976562 L 65.34375 356.339844 L 65.128906 356.703125 L 64.925781 357.058594 L 64.730469 357.417969 L 64.546875 357.765625 L 64.375 358.117188 L 64.207031 358.472656 L 64.050781 358.824219 L 63.898438 359.179688 L 63.753906 359.535156 L 63.617188 359.890625 L 63.488281 360.25 L 63.367188 360.605469 L 63.253906 360.964844 L 63.148438 361.328125 L 63.046875 361.695312 L 62.949219 362.0625 L 62.859375 362.433594 L 62.773438 362.808594 L 62.691406 363.191406 L 62.617188 363.574219 L 62.550781 363.957031 L 62.488281 364.347656 L 62.429688 364.742188 L 62.378906 365.140625 L 62.335938 365.546875 L 62.292969 365.960938 L 62.253906 366.382812 L 62.21875 366.808594 L 62.183594 367.246094 L 62.152344 367.691406 L 62.125 368.140625 L 62.101562 368.601562 L 62.078125 369.066406 Z M 60.878906 369.066406 "/>
<path fill-rule="nonzero" fill="rgb(10.196078%, 10.196078%, 10.196078%)" fill-opacity="1" d="M 70.90625 369.367188 L 70.824219 369.363281 L 70.746094 369.355469 L 70.667969 369.339844 L 70.59375 369.320312 L 70.515625 369.292969 L 70.441406 369.257812 L 70.367188 369.21875 L 70.296875 369.175781 L 70.226562 369.125 L 70.15625 369.066406 L 70.09375 369.003906 L 70.039062 368.9375 L 69.988281 368.867188 L 69.945312 368.789062 L 69.910156 368.710938 L 69.882812 368.625 L 69.859375 368.535156 L 69.84375 368.441406 L 69.832031 368.34375 L 69.828125 368.242188 L 69.832031 368.132812 L 69.84375 368.03125 L 69.859375 367.933594 L 69.882812 367.839844 L 69.910156 367.753906 L 69.945312 367.671875 L 69.988281 367.59375 L 70.039062 367.523438 L 70.09375 367.453125 L 70.15625 367.390625 L 70.226562 367.335938 L 70.296875 367.285156 L 70.367188 367.238281 L 70.441406 367.199219 L 70.515625 367.167969 L 70.59375 367.140625 L 70.667969 367.117188 L 70.824219 367.09375 L 70.90625 367.089844 L 70.988281 367.09375 L 71.070312 367.105469 L 71.148438 367.117188 L 71.222656 367.140625 L 71.296875 367.167969 L 71.371094 367.199219 L 71.4375 367.238281 L 71.503906 367.285156 L 71.566406 367.335938 L 71.628906 367.390625 L 71.691406 367.453125 L 71.746094 367.523438 L 71.796875 367.59375 L 71.835938 367.671875 L 71.875 367.753906 L 71.902344 367.839844 L 71.925781 367.933594 L 71.941406 368.03125 L 71.949219 368.132812 L 71.953125 368.242188 L 71.949219 368.34375 L 71.941406 368.441406 L 71.925781 368.535156 L 71.902344 368.625 L 71.875 368.710938 L 71.796875 368.867188 L 71.746094 368.9375 L 71.691406 369.003906 L 71.628906 369.066406 L 71.566406 369.125 L 71.503906 369.175781 L 71.4375 369.21875 L 71.371094 369.257812 L 71.296875 369.292969 L 71.222656 369.320312 L 71.148438 369.339844 L 71.070312 369.355469 L 70.988281 369.363281 Z M 70.90625 369.367188 "/>
<path fill-rule="nonzero" fill="rgb(10.196078%, 10.196078%, 10.196078%)" fill-opacity="1" d="M 79.304688 369.367188 L 79.050781 369.363281 L 78.808594 369.355469 L 78.570312 369.335938 L 78.335938 369.316406 L 78.109375 369.285156 L 77.890625 369.25 L 77.679688 369.207031 L 77.472656 369.160156 L 77.273438 369.101562 L 77.078125 369.042969 L 76.898438 368.976562 L 76.71875 368.90625 L 76.546875 368.832031 L 76.378906 368.753906 L 76.058594 368.589844 L 75.90625 368.5 L 75.757812 368.410156 L 75.617188 368.316406 L 75.480469 368.214844 L 75.347656 368.117188 L 75.214844 368.015625 L 75.085938 367.917969 L 74.84375 367.714844 L 74.722656 367.617188 L 74.609375 367.515625 L 74.496094 367.417969 L 74.386719 367.316406 L 74.28125 367.214844 L 74.90625 366.441406 L 75.050781 366.585938 L 75.363281 366.867188 L 75.527344 367.003906 L 75.699219 367.140625 L 75.875 367.277344 L 76.054688 367.40625 L 76.242188 367.539062 L 76.433594 367.664062 L 76.628906 367.792969 L 76.839844 367.90625 L 77.0625 368.007812 L 77.296875 368.097656 L 77.546875 368.175781 L 77.804688 368.242188 L 78.074219 368.296875 L 78.359375 368.335938 L 78.652344 368.367188 L 78.960938 368.386719 L 79.28125 368.390625 L 79.492188 368.386719 L 79.703125 368.371094 L 79.910156 368.34375 L 80.113281 368.308594 L 80.3125 368.261719 L 80.507812 368.203125 L 80.699219 368.132812 L 80.886719 368.054688 L 81.074219 367.964844 L 81.253906 367.867188 L 81.429688 367.753906 L 81.601562 367.628906 L 81.761719 367.5 L 81.917969 367.359375 L 82.066406 367.210938 L 82.207031 367.054688 L 82.34375 366.886719 L 82.46875 366.714844 L 82.589844 366.53125 L 82.703125 366.339844 L 82.808594 366.144531 L 82.902344 365.941406 L 82.984375 365.730469 L 83.054688 365.515625 L 83.117188 365.292969 L 83.167969 365.0625 L 83.203125 364.828125 L 83.230469 364.589844 L 83.25 364.34375 L 83.253906 364.089844 L 83.242188 363.714844 L 83.210938 363.355469 L 83.15625 363.011719 L 83.082031 362.683594 L 82.984375 362.371094 L 82.867188 362.078125 L 82.726562 361.800781 L 82.566406 361.539062 L 82.382812 361.296875 L 82.179688 361.066406 L 81.960938 360.859375 L 81.730469 360.671875 L 81.484375 360.503906 L 81.222656 360.363281 L 80.949219 360.242188 L 80.660156 360.144531 L 80.355469 360.066406 L 80.035156 360.011719 L 79.703125 359.976562 L 79.355469 359.964844 L 79.171875 359.96875 L 78.820312 359.992188 L 78.65625 360.015625 L 78.492188 360.042969 L 78.335938 360.074219 L 78.183594 360.113281 L 78.035156 360.160156 L 77.890625 360.210938 L 77.753906 360.265625 L 77.625 360.324219 L 77.492188 360.386719 L 77.359375 360.453125 L 77.222656 360.523438 L 77.085938 360.597656 L 76.949219 360.675781 L 76.808594 360.761719 L 76.667969 360.851562 L 76.523438 360.945312 L 76.378906 361.042969 L 75.605469 360.566406 L 76.179688 353.089844 L 83.554688 353.089844 L 83.554688 354.066406 L 77.179688 354.066406 L 76.679688 359.839844 L 76.929688 359.699219 L 77.058594 359.628906 L 77.316406 359.503906 L 77.449219 359.445312 L 77.578125 359.390625 L 77.710938 359.335938 L 77.84375 359.289062 L 78.117188 359.195312 L 78.257812 359.152344 L 78.402344 359.113281 L 78.550781 359.082031 L 78.703125 359.054688 L 78.863281 359.03125 L 79.023438 359.015625 L 79.1875 359 L 79.355469 358.996094 L 79.53125 358.992188 L 79.796875 358.996094 L 80.058594 359.015625 L 80.316406 359.042969 L 80.570312 359.078125 L 80.816406 359.128906 L 81.058594 359.191406 L 81.296875 359.261719 L 81.53125 359.34375 L 81.757812 359.4375 L 81.980469 359.542969 L 82.199219 359.652344 L 82.410156 359.777344 L 82.613281 359.910156 L 82.804688 360.058594 L 82.984375 360.214844 L 83.160156 360.386719 L 83.320312 360.570312 L 83.476562 360.765625 L 83.621094 360.972656 L 83.753906 361.191406 L 83.878906 361.417969 L 83.988281 361.65625 L 84.085938 361.910156 L 84.171875 362.175781 L 84.242188 362.453125 L 84.300781 362.746094 L 84.347656 363.050781 L 84.378906 363.367188 L 84.398438 363.699219 L 84.40625 364.042969 L 84.398438 364.375 L 84.375 364.703125 L 84.335938 365.015625 L 84.285156 365.320312 L 84.21875 365.617188 L 84.132812 365.902344 L 84.035156 366.175781 L 83.925781 366.441406 L 83.796875 366.695312 L 83.65625 366.941406 L 83.503906 367.171875 L 83.347656 367.390625 L 83.179688 367.597656 L 83.003906 367.792969 L 82.816406 367.980469 L 82.621094 368.152344 L 82.417969 368.316406 L 82.207031 368.46875 L 81.984375 368.609375 L 81.753906 368.742188 L 81.523438 368.859375 L 81.289062 368.964844 L 81.050781 369.058594 L 80.808594 369.140625 L 80.566406 369.210938 L 80.320312 369.265625 L 80.070312 369.308594 L 79.816406 369.339844 L 79.5625 369.359375 Z M 79.304688 369.367188 "/>
<path fill-rule="nonzero" fill="rgb(10.196078%, 10.196078%, 10.196078%)" fill-opacity="1" d="M 46.304688 282.890625 L 46.304688 281.914062 L 50.054688 281.914062 L 50.054688 268.664062 L 47.203125 268.664062 L 47.203125 267.914062 L 47.398438 267.878906 L 47.585938 267.84375 L 47.953125 267.765625 L 48.128906 267.722656 L 48.300781 267.679688 L 48.472656 267.632812 L 48.636719 267.589844 L 48.796875 267.539062 L 48.953125 267.492188 L 49.105469 267.441406 L 49.253906 267.386719 L 49.398438 267.335938 L 49.539062 267.277344 L 49.671875 267.222656 L 49.804688 267.164062 L 49.929688 267.105469 L 50.050781 267.042969 L 50.167969 266.980469 L 50.28125 266.914062 L 51.179688 266.914062 L 51.179688 281.914062 L 54.65625 281.914062 L 54.65625 282.890625 Z M 46.304688 282.890625 "/>
<path fill-rule="nonzero" fill="rgb(10.196078%, 10.196078%, 10.196078%)" fill-opacity="1" d="M 62.15625 283.191406 L 61.710938 283.167969 L 61.285156 283.105469 L 60.882812 282.996094 L 60.5 282.84375 L 60.136719 282.648438 L 59.792969 282.40625 L 59.472656 282.125 L 59.171875 281.800781 L 58.890625 281.429688 L 58.628906 281.015625 L 58.390625 280.5625 L 58.179688 280.074219 L 57.992188 279.546875 L 57.828125 278.984375 L 57.691406 278.382812 L 57.578125 277.75 L 57.492188 277.078125 L 57.429688 276.367188 L 57.390625 275.621094 L 57.378906 274.839844 L 57.390625 274.066406 L 57.429688 273.324219 L 57.492188 272.621094 L 57.578125 271.957031 L 57.691406 271.328125 L 57.828125 270.738281 L 57.992188 270.183594 L 58.179688 269.664062 L 58.390625 269.183594 L 58.628906 268.742188 L 58.890625 268.335938 L 59.171875 267.976562 L 59.472656 267.65625 L 59.792969 267.382812 L 60.136719 267.148438 L 60.5 266.957031 L 60.882812 266.808594 L 61.285156 266.699219 L 61.710938 266.636719 L 62.15625 266.617188 L 62.605469 266.636719 L 63.03125 266.699219 L 63.4375 266.808594 L 63.824219 266.957031 L 64.1875 267.148438 L 64.527344 267.382812 L 64.847656 267.65625 L 65.144531 267.976562 L 65.421875 268.335938 L 65.679688 268.742188 L 65.917969 269.183594 L 66.128906 269.664062 L 66.316406 270.183594 L 66.480469 270.738281 L 66.617188 271.328125 L 66.730469 271.957031 L 66.816406 272.621094 L 66.878906 273.324219 L 66.917969 274.066406 L 66.929688 274.839844 L 66.917969 275.621094 L 66.878906 276.367188 L 66.816406 277.078125 L 66.730469 277.75 L 66.617188 278.382812 L 66.480469 278.984375 L 66.316406 279.546875 L 66.128906 280.074219 L 65.917969 280.5625 L 65.679688 281.015625 L 65.421875 281.429688 L 65.144531 281.800781 L 64.847656 282.125 L 64.527344 282.40625 L 64.1875 282.648438 L 63.824219 282.84375 L 63.4375 282.996094 L 63.03125 283.105469 L 62.605469 283.167969 Z M 62.15625 282.242188 L 62.480469 282.222656 L 62.796875 282.164062 L 63.097656 282.070312 L 63.382812 281.941406 L 63.65625 281.773438 L 63.914062 281.566406 L 64.15625 281.320312 L 64.386719 281.039062 L 64.601562 280.722656 L 64.804688 280.367188 L 64.996094 279.972656 L 65.164062 279.546875 L 65.3125 279.082031 L 65.445312 278.582031 L 65.554688 278.046875 L 65.644531 277.476562 L 65.714844 276.871094 L 65.765625 276.230469 L 65.792969 275.554688 L 65.804688 274.839844 L 65.792969 274.128906 L 65.765625 273.453125 L 65.714844 272.816406 L 65.644531 272.21875 L 65.554688 271.652344 L 65.445312 271.128906 L 65.3125 270.636719 L 65.164062 270.183594 L 64.996094 269.769531 L 64.804688 269.390625 L 64.601562 269.042969 L 64.386719 268.734375 L 64.15625 268.460938 L 63.914062 268.222656 L 63.65625 268.023438 L 63.382812 267.859375 L 63.097656 267.730469 L 62.796875 267.640625 L 62.480469 267.585938 L 62.15625 267.566406 L 61.832031 267.585938 L 61.519531 267.640625 L 61.222656 267.730469 L 60.9375 267.859375 L 60.667969 268.023438 L 60.410156 268.222656 L 60.164062 268.460938 L 59.929688 268.734375 L 59.710938 269.042969 L 59.503906 269.390625 L 59.3125 269.769531 L 59.144531 270.183594 L 58.996094 270.636719 L 58.863281 271.128906 L 58.753906 271.652344 L 58.664062 272.21875 L 58.59375 272.816406 L 58.542969 273.453125 L 58.515625 274.128906 L 58.503906 274.839844 L 58.515625 275.554688 L 58.542969 276.230469 L 58.59375 276.871094 L 58.664062 277.476562 L 58.753906 278.046875 L 58.863281 278.582031 L 58.996094 279.082031 L 59.144531 279.546875 L 59.3125 279.972656 L 59.503906 280.367188 L 59.710938 280.722656 L 59.929688 281.039062 L 60.164062 281.320312 L 60.410156 281.566406 L 60.667969 281.773438 L 60.9375 281.941406 L 61.222656 282.070312 L 61.519531 282.164062 L 61.832031 282.222656 Z M 62.15625 282.242188 "/>
<path fill-rule="nonzero" fill="rgb(10.196078%, 10.196078%, 10.196078%)" fill-opacity="1" d="M 70.90625 283.191406 L 70.824219 283.1875 L 70.746094 283.179688 L 70.667969 283.164062 L 70.59375 283.144531 L 70.515625 283.117188 L 70.441406 283.082031 L 70.367188 283.042969 L 70.296875 283 L 70.226562 282.949219 L 70.15625 282.890625 L 70.09375 282.828125 L 70.039062 282.761719 L 69.988281 282.691406 L 69.945312 282.613281 L 69.910156 282.535156 L 69.882812 282.449219 L 69.859375 282.359375 L 69.84375 282.265625 L 69.832031 282.167969 L 69.828125 282.066406 L 69.832031 281.957031 L 69.84375 281.855469 L 69.859375 281.757812 L 69.882812 281.664062 L 69.910156 281.578125 L 69.945312 281.496094 L 69.988281 281.417969 L 70.039062 281.347656 L 70.09375 281.277344 L 70.15625 281.214844 L 70.226562 281.160156 L 70.296875 281.109375 L 70.367188 281.0625 L 70.441406 281.023438 L 70.515625 280.992188 L 70.59375 280.964844 L 70.667969 280.941406 L 70.824219 280.917969 L 70.90625 280.914062 L 70.988281 280.917969 L 71.070312 280.929688 L 71.148438 280.941406 L 71.222656 280.964844 L 71.296875 280.992188 L 71.371094 281.023438 L 71.4375 281.0625 L 71.503906 281.109375 L 71.566406 281.160156 L 71.628906 281.214844 L 71.691406 281.277344 L 71.746094 281.347656 L 71.796875 281.417969 L 71.835938 281.496094 L 71.875 281.578125 L 71.902344 281.664062 L 71.925781 281.757812 L 71.941406 281.855469 L 71.949219 281.957031 L 71.953125 282.066406 L 71.949219 282.167969 L 71.941406 282.265625 L 71.925781 282.359375 L 71.902344 282.449219 L 71.875 282.535156 L 71.796875 282.691406 L 71.746094 282.761719 L 71.691406 282.828125 L 71.628906 282.890625 L 71.566406 282.949219 L 71.503906 283 L 71.4375 283.042969 L 71.371094 283.082031 L 71.296875 283.117188 L 71.222656 283.144531 L 71.148438 283.164062 L 71.070312 283.179688 L 70.988281 283.1875 Z M 70.90625 283.191406 "/>
<path fill-rule="nonzero" fill="rgb(10.196078%, 10.196078%, 10.196078%)" fill-opacity="1" d="M 79.605469 283.191406 L 79.160156 283.167969 L 78.734375 283.105469 L 78.332031 282.996094 L 77.949219 282.84375 L 77.585938 282.648438 L 77.242188 282.40625 L 76.921875 282.125 L 76.621094 281.800781 L 76.339844 281.429688 L 76.078125 281.015625 L 75.84375 280.5625 L 75.628906 280.074219 L 75.441406 279.546875 L 75.28125 278.984375 L 75.140625 278.382812 L 75.03125 277.75 L 74.941406 277.078125 L 74.878906 276.367188 L 74.84375 275.621094 L 74.828125 274.839844 L 74.84375 274.066406 L 74.878906 273.324219 L 74.941406 272.621094 L 75.03125 271.957031 L 75.140625 271.328125 L 75.28125 270.738281 L 75.441406 270.183594 L 75.628906 269.664062 L 75.84375 269.183594 L 76.078125 268.742188 L 76.339844 268.335938 L 76.621094 267.976562 L 76.921875 267.65625 L 77.242188 267.382812 L 77.585938 267.148438 L 77.949219 266.957031 L 78.332031 266.808594 L 78.734375 266.699219 L 79.160156 266.636719 L 79.605469 266.617188 L 80.054688 266.636719 L 80.480469 266.699219 L 80.886719 266.808594 L 81.273438 266.957031 L 81.636719 267.148438 L 81.976562 267.382812 L 82.296875 267.65625 L 82.597656 267.976562 L 82.875 268.335938 L 83.128906 268.742188 L 83.367188 269.183594 L 83.578125 269.664062 L 83.765625 270.183594 L 83.929688 270.738281 L 84.066406 271.328125 L 84.179688 271.957031 L 84.265625 272.621094 L 84.328125 273.324219 L 84.367188 274.066406 L 84.378906 274.839844 L 84.367188 275.621094 L 84.328125 276.367188 L 84.265625 277.078125 L 84.179688 277.75 L 84.066406 278.382812 L 83.929688 278.984375 L 83.765625 279.546875 L 83.578125 280.074219 L 83.367188 280.5625 L 83.128906 281.015625 L 82.875 281.429688 L 82.597656 281.800781 L 82.296875 282.125 L 81.976562 282.40625 L 81.636719 282.648438 L 81.273438 282.84375 L 80.886719 282.996094 L 80.480469 283.105469 L 80.054688 283.167969 Z M 79.605469 282.242188 L 79.933594 282.222656 L 80.246094 282.164062 L 80.546875 282.070312 L 80.832031 281.941406 L 81.105469 281.773438 L 81.363281 281.566406 L 81.605469 281.320312 L 81.835938 281.039062 L 82.050781 280.722656 L 82.253906 280.367188 L 82.445312 279.972656 L 82.613281 279.546875 L 82.765625 279.082031 L 82.894531 278.582031 L 83.003906 278.046875 L 83.09375 277.476562 L 83.164062 276.871094 L 83.214844 276.230469 L 83.246094 275.554688 L 83.253906 274.839844 L 83.246094 274.128906 L 83.214844 273.453125 L 83.164062 272.816406 L 83.09375 272.21875 L 83.003906 271.652344 L 82.894531 271.128906 L 82.765625 270.636719 L 82.613281 270.183594 L 82.445312 269.769531 L 82.253906 269.390625 L 82.050781 269.042969 L 81.835938 268.734375 L 81.605469 268.460938 L 81.363281 268.222656 L 81.105469 268.023438 L 80.832031 267.859375 L 80.546875 267.730469 L 80.246094 267.640625 L 79.933594 267.585938 L 79.605469 267.566406 L 79.28125 267.585938 L 78.96875 267.640625 L 78.671875 267.730469 L 78.386719 267.859375 L 78.117188 268.023438 L 77.859375 268.222656 L 77.613281 268.460938 L 77.378906 268.734375 L 77.160156 269.042969 L 76.953125 269.390625 L 76.765625 269.769531 L 76.59375 270.183594 L 76.445312 270.636719 L 76.3125 271.128906 L 76.203125 271.652344 L 76.113281 272.21875 L 76.042969 272.816406 L 75.996094 273.453125 L 75.964844 274.128906 L 75.953125 274.839844 L 75.964844 275.554688 L 75.996094 276.230469 L 76.042969 276.871094 L 76.113281 277.476562 L 76.203125 278.046875 L 76.3125 278.582031 L 76.445312 279.082031 L 76.59375 279.546875 L 76.765625 279.972656 L 76.953125 280.367188 L 77.160156 280.722656 L 77.378906 281.039062 L 77.613281 281.320312 L 77.859375 281.566406 L 78.117188 281.773438 L 78.386719 281.941406 L 78.671875 282.070312 L 78.96875 282.164062 L 79.28125 282.222656 Z M 79.605469 282.242188 "/>
<path fill-rule="nonzero" fill="rgb(10.196078%, 10.196078%, 10.196078%)" fill-opacity="1" d="M 46.304688 196.714844 L 46.304688 195.742188 L 50.054688 195.742188 L 50.054688 182.492188 L 47.203125 182.492188 L 47.203125 181.742188 L 47.398438 181.703125 L 47.585938 181.667969 L 47.953125 181.589844 L 48.128906 181.546875 L 48.300781 181.503906 L 48.472656 181.457031 L 48.636719 181.414062 L 48.796875 181.363281 L 48.953125 181.316406 L 49.105469 181.265625 L 49.253906 181.210938 L 49.398438 181.160156 L 49.539062 181.101562 L 49.671875 181.046875 L 49.804688 180.988281 L 49.929688 180.929688 L 50.050781 180.867188 L 50.167969 180.804688 L 50.28125 180.742188 L 51.179688 180.742188 L 51.179688 195.742188 L 54.65625 195.742188 L 54.65625 196.714844 Z M 46.304688 196.714844 "/>
<path fill-rule="nonzero" fill="rgb(10.196078%, 10.196078%, 10.196078%)" fill-opacity="1" d="M 57.203125 196.714844 L 57.203125 196.015625 L 57.71875 195.488281 L 58.21875 194.972656 L 58.699219 194.476562 L 59.164062 193.992188 L 59.609375 193.523438 L 60.039062 193.066406 L 60.449219 192.625 L 60.84375 192.199219 L 61.21875 191.789062 L 61.578125 191.390625 L 61.921875 191 L 62.246094 190.617188 L 62.550781 190.242188 L 62.839844 189.878906 L 63.109375 189.523438 L 63.363281 189.171875 L 63.601562 188.832031 L 63.820312 188.503906 L 64.019531 188.179688 L 64.203125 187.867188 L 64.371094 187.558594 L 64.519531 187.253906 L 64.652344 186.949219 L 64.765625 186.652344 L 64.859375 186.359375 L 64.9375 186.066406 L 65 185.78125 L 65.042969 185.496094 L 65.070312 185.21875 L 65.078125 184.941406 L 65.070312 184.644531 L 65.046875 184.359375 L 65.003906 184.082031 L 64.941406 183.816406 L 64.867188 183.558594 L 64.773438 183.3125 L 64.664062 183.074219 L 64.535156 182.84375 L 64.390625 182.625 L 64.230469 182.414062 L 64.054688 182.21875 L 63.859375 182.046875 L 63.648438 181.890625 L 63.414062 181.757812 L 63.160156 181.648438 L 62.886719 181.554688 L 62.597656 181.484375 L 62.285156 181.429688 L 61.953125 181.402344 L 61.605469 181.390625 L 61.390625 181.394531 L 61.179688 181.414062 L 60.96875 181.445312 L 60.761719 181.484375 L 60.554688 181.539062 L 60.351562 181.605469 L 60.148438 181.683594 L 59.949219 181.773438 L 59.75 181.875 L 59.554688 181.992188 L 59.367188 182.113281 L 59.183594 182.242188 L 59.003906 182.378906 L 58.832031 182.519531 L 58.660156 182.664062 L 58.496094 182.816406 L 58.335938 182.976562 L 58.179688 183.140625 L 58.027344 183.3125 L 57.878906 183.492188 L 57.15625 182.789062 L 57.335938 182.59375 L 57.523438 182.402344 L 57.710938 182.21875 L 57.90625 182.042969 L 58.105469 181.871094 L 58.304688 181.707031 L 58.511719 181.550781 L 58.722656 181.398438 L 58.9375 181.253906 L 59.15625 181.117188 L 59.378906 180.988281 L 59.609375 180.871094 L 59.847656 180.769531 L 60.089844 180.683594 L 60.34375 180.609375 L 60.601562 180.546875 L 60.867188 180.5 L 61.136719 180.46875 L 61.417969 180.445312 L 61.703125 180.441406 L 62.125 180.453125 L 62.523438 180.488281 L 62.90625 180.550781 L 63.269531 180.636719 L 63.609375 180.746094 L 63.933594 180.882812 L 64.238281 181.039062 L 64.519531 181.222656 L 64.785156 181.433594 L 65.03125 181.664062 L 65.253906 181.917969 L 65.453125 182.1875 L 65.628906 182.472656 L 65.78125 182.773438 L 65.910156 183.089844 L 66.015625 183.421875 L 66.097656 183.773438 L 66.15625 184.136719 L 66.191406 184.519531 L 66.203125 184.914062 L 66.195312 185.230469 L 66.167969 185.546875 L 66.121094 185.863281 L 66.054688 186.183594 L 65.972656 186.503906 L 65.871094 186.824219 L 65.75 187.144531 L 65.613281 187.46875 L 65.457031 187.789062 L 65.28125 188.117188 L 65.09375 188.441406 L 64.890625 188.773438 L 64.671875 189.113281 L 64.4375 189.457031 L 64.191406 189.804688 L 63.929688 190.15625 L 63.652344 190.511719 L 63.359375 190.875 L 63.050781 191.242188 L 62.730469 191.617188 L 62.398438 191.996094 L 62.054688 192.382812 L 61.699219 192.78125 L 61.332031 193.191406 L 60.953125 193.609375 L 60.5625 194.035156 L 60.160156 194.472656 L 59.746094 194.917969 L 59.316406 195.375 L 58.878906 195.839844 L 59.007812 195.832031 L 59.140625 195.820312 L 59.273438 195.8125 L 59.402344 195.804688 L 59.800781 195.78125 L 59.933594 195.777344 L 60.070312 195.769531 L 60.203125 195.765625 L 60.34375 195.753906 L 60.480469 195.746094 L 60.621094 195.738281 L 60.757812 195.734375 L 60.890625 195.726562 L 61.027344 195.722656 L 61.160156 195.71875 L 61.292969 195.71875 L 61.425781 195.714844 L 67.003906 195.714844 L 67.003906 196.714844 Z M 57.203125 196.714844 "/>
<path fill-rule="nonzero" fill="rgb(10.196078%, 10.196078%, 10.196078%)" fill-opacity="1" d="M 70.90625 197.015625 L 70.824219 197.011719 L 70.746094 197.003906 L 70.667969 196.988281 L 70.59375 196.96875 L 70.515625 196.941406 L 70.441406 196.90625 L 70.367188 196.867188 L 70.296875 196.824219 L 70.226562 196.773438 L 70.15625 196.714844 L 70.09375 196.652344 L 70.039062 196.585938 L 69.988281 196.515625 L 69.945312 196.4375 L 69.910156 196.359375 L 69.882812 196.273438 L 69.859375 196.183594 L 69.84375 196.089844 L 69.832031 195.992188 L 69.828125 195.890625 L 69.832031 195.78125 L 69.84375 195.679688 L 69.859375 195.582031 L 69.882812 195.492188 L 69.910156 195.402344 L 69.945312 195.320312 L 69.988281 195.242188 L 70.039062 195.171875 L 70.09375 195.101562 L 70.15625 195.039062 L 70.226562 194.984375 L 70.296875 194.933594 L 70.367188 194.886719 L 70.441406 194.847656 L 70.515625 194.816406 L 70.59375 194.789062 L 70.667969 194.765625 L 70.824219 194.742188 L 70.988281 194.742188 L 71.070312 194.753906 L 71.148438 194.765625 L 71.222656 194.789062 L 71.296875 194.816406 L 71.371094 194.847656 L 71.4375 194.886719 L 71.503906 194.933594 L 71.566406 194.984375 L 71.628906 195.039062 L 71.691406 195.101562 L 71.746094 195.171875 L 71.796875 195.242188 L 71.835938 195.320312 L 71.875 195.402344 L 71.902344 195.492188 L 71.925781 195.582031 L 71.941406 195.679688 L 71.949219 195.78125 L 71.953125 195.890625 L 71.949219 195.992188 L 71.941406 196.089844 L 71.925781 196.183594 L 71.902344 196.273438 L 71.875 196.359375 L 71.796875 196.515625 L 71.746094 196.585938 L 71.691406 196.652344 L 71.628906 196.714844 L 71.566406 196.773438 L 71.503906 196.824219 L 71.4375 196.867188 L 71.371094 196.90625 L 71.296875 196.941406 L 71.222656 196.96875 L 71.148438 196.988281 L 71.070312 197.003906 L 70.988281 197.011719 Z M 70.90625 197.015625 "/>
<path fill-rule="nonzero" fill="rgb(10.196078%, 10.196078%, 10.196078%)" fill-opacity="1" d="M 79.304688 197.015625 L 79.050781 197.011719 L 78.808594 197.003906 L 78.570312 196.984375 L 78.335938 196.964844 L 78.109375 196.933594 L 77.890625 196.898438 L 77.679688 196.855469 L 77.472656 196.808594 L 77.273438 196.753906 L 77.078125 196.691406 L 76.898438 196.625 L 76.71875 196.554688 L 76.546875 196.480469 L 76.378906 196.402344 L 76.058594 196.238281 L 75.90625 196.148438 L 75.757812 196.058594 L 75.617188 195.964844 L 75.480469 195.867188 L 75.214844 195.664062 L 75.085938 195.566406 L 74.964844 195.464844 L 74.84375 195.367188 L 74.722656 195.265625 L 74.609375 195.164062 L 74.496094 195.066406 L 74.386719 194.964844 L 74.28125 194.867188 L 74.90625 194.089844 L 75.050781 194.234375 L 75.363281 194.515625 L 75.527344 194.652344 L 75.699219 194.789062 L 75.875 194.925781 L 76.054688 195.054688 L 76.242188 195.1875 L 76.433594 195.3125 L 76.628906 195.441406 L 76.839844 195.554688 L 77.0625 195.65625 L 77.296875 195.746094 L 77.546875 195.824219 L 77.804688 195.890625 L 78.074219 195.945312 L 78.359375 195.984375 L 78.652344 196.015625 L 78.960938 196.035156 L 79.28125 196.039062 L 79.492188 196.035156 L 79.703125 196.019531 L 79.910156 195.992188 L 80.113281 195.957031 L 80.3125 195.910156 L 80.507812 195.851562 L 80.699219 195.78125 L 80.886719 195.703125 L 81.074219 195.613281 L 81.253906 195.515625 L 81.429688 195.402344 L 81.601562 195.277344 L 81.761719 195.148438 L 81.917969 195.007812 L 82.066406 194.859375 L 82.207031 194.703125 L 82.34375 194.535156 L 82.46875 194.363281 L 82.589844 194.179688 L 82.703125 193.992188 L 82.808594 193.792969 L 82.902344 193.589844 L 82.984375 193.378906 L 83.054688 193.164062 L 83.117188 192.941406 L 83.167969 192.710938 L 83.203125 192.476562 L 83.230469 192.238281 L 83.25 191.992188 L 83.253906 191.742188 L 83.242188 191.363281 L 83.210938 191.003906 L 83.15625 190.660156 L 83.082031 190.332031 L 82.984375 190.023438 L 82.867188 189.726562 L 82.726562 189.449219 L 82.566406 189.1875 L 82.382812 188.945312 L 82.179688 188.714844 L 81.960938 188.507812 L 81.730469 188.320312 L 81.484375 188.152344 L 81.222656 188.011719 L 80.949219 187.890625 L 80.660156 187.792969 L 80.355469 187.714844 L 80.035156 187.660156 L 79.703125 187.625 L 79.355469 187.617188 L 79.171875 187.617188 L 78.820312 187.640625 L 78.65625 187.664062 L 78.492188 187.691406 L 78.335938 187.722656 L 78.183594 187.761719 L 78.035156 187.808594 L 77.890625 187.859375 L 77.753906 187.914062 L 77.625 187.972656 L 77.492188 188.035156 L 77.359375 188.101562 L 77.222656 188.171875 L 77.085938 188.246094 L 76.949219 188.328125 L 76.808594 188.410156 L 76.667969 188.5 L 76.523438 188.59375 L 76.378906 188.691406 L 75.605469 188.214844 L 76.179688 180.742188 L 83.554688 180.742188 L 83.554688 181.714844 L 77.179688 181.714844 L 76.679688 187.492188 L 76.804688 187.417969 L 76.929688 187.347656 L 77.058594 187.277344 L 77.316406 187.152344 L 77.449219 187.09375 L 77.578125 187.039062 L 77.710938 186.984375 L 77.84375 186.9375 L 78.117188 186.84375 L 78.257812 186.800781 L 78.402344 186.761719 L 78.550781 186.730469 L 78.703125 186.703125 L 78.863281 186.679688 L 79.023438 186.664062 L 79.1875 186.648438 L 79.355469 186.644531 L 79.53125 186.640625 L 79.796875 186.644531 L 80.058594 186.664062 L 80.316406 186.691406 L 80.570312 186.726562 L 80.816406 186.777344 L 81.058594 186.839844 L 81.296875 186.910156 L 81.53125 186.992188 L 81.757812 187.085938 L 81.980469 187.191406 L 82.199219 187.300781 L 82.410156 187.425781 L 82.613281 187.558594 L 82.804688 187.707031 L 82.984375 187.867188 L 83.160156 188.035156 L 83.320312 188.21875 L 83.476562 188.414062 L 83.621094 188.621094 L 83.753906 188.839844 L 83.878906 189.066406 L 83.988281 189.304688 L 84.085938 189.558594 L 84.171875 189.824219 L 84.242188 190.101562 L 84.300781 190.394531 L 84.347656 190.699219 L 84.378906 191.015625 L 84.398438 191.347656 L 84.40625 191.691406 L 84.398438 192.023438 L 84.375 192.351562 L 84.335938 192.664062 L 84.285156 192.96875 L 84.21875 193.265625 L 84.132812 193.550781 L 84.035156 193.824219 L 83.925781 194.089844 L 83.796875 194.34375 L 83.65625 194.589844 L 83.503906 194.820312 L 83.347656 195.039062 L 83.179688 195.246094 L 83.003906 195.441406 L 82.816406 195.628906 L 82.621094 195.800781 L 82.417969 195.964844 L 82.207031 196.117188 L 81.984375 196.261719 L 81.753906 196.390625 L 81.523438 196.507812 L 81.289062 196.617188 L 81.050781 196.710938 L 80.808594 196.789062 L 80.566406 196.859375 L 80.320312 196.914062 L 80.070312 196.960938 L 79.816406 196.992188 L 79.5625 197.007812 Z M 79.304688 197.015625 "/>
<path fill-rule="nonzero" fill="rgb(10.196078%, 10.196078%, 10.196078%)" fill-opacity="1" d="M 46.304688 110.539062 L 46.304688 109.566406 L 50.054688 109.566406 L 50.054688 96.316406 L 47.203125 96.316406 L 47.203125 95.566406 L 47.398438 95.527344 L 47.585938 95.492188 L 47.953125 95.414062 L 48.128906 95.371094 L 48.300781 95.328125 L 48.472656 95.28125 L 48.636719 95.238281 L 48.796875 95.1875 L 48.953125 95.140625 L 49.105469 95.089844 L 49.253906 95.035156 L 49.398438 94.984375 L 49.539062 94.925781 L 49.671875 94.871094 L 49.804688 94.8125 L 49.929688 94.753906 L 50.050781 94.691406 L 50.167969 94.628906 L 50.28125 94.566406 L 51.179688 94.566406 L 51.179688 109.566406 L 54.65625 109.566406 L 54.65625 110.539062 Z M 46.304688 110.539062 "/>
<path fill-rule="nonzero" fill="rgb(10.196078%, 10.196078%, 10.196078%)" fill-opacity="1" d="M 61.855469 110.839844 L 61.601562 110.835938 L 61.355469 110.828125 L 61.117188 110.808594 L 60.886719 110.789062 L 60.660156 110.757812 L 60.441406 110.722656 L 60.230469 110.679688 L 60.023438 110.632812 L 59.824219 110.578125 L 59.628906 110.515625 L 59.445312 110.449219 L 59.269531 110.378906 L 59.097656 110.304688 L 58.929688 110.226562 L 58.765625 110.144531 L 58.609375 110.0625 L 58.457031 109.972656 L 58.308594 109.882812 L 58.167969 109.789062 L 58.03125 109.691406 L 57.894531 109.589844 L 57.765625 109.488281 L 57.636719 109.390625 L 57.511719 109.289062 L 57.390625 109.191406 L 57.15625 108.988281 L 57.046875 108.890625 L 56.9375 108.789062 L 56.828125 108.691406 L 57.453125 107.914062 L 57.601562 108.058594 L 57.753906 108.199219 L 57.914062 108.339844 L 58.078125 108.480469 L 58.25 108.613281 L 58.421875 108.75 L 58.605469 108.878906 L 58.789062 109.011719 L 58.980469 109.136719 L 59.179688 109.265625 L 59.390625 109.378906 L 59.613281 109.480469 L 59.847656 109.570312 L 60.09375 109.648438 L 60.355469 109.714844 L 60.625 109.769531 L 60.910156 109.8125 L 61.203125 109.839844 L 61.511719 109.859375 L 61.828125 109.863281 L 62.042969 109.859375 L 62.253906 109.84375 L 62.457031 109.816406 L 62.660156 109.78125 L 62.859375 109.734375 L 63.054688 109.675781 L 63.25 109.605469 L 63.4375 109.527344 L 63.621094 109.4375 L 63.804688 109.339844 L 63.980469 109.226562 L 64.148438 109.101562 L 64.3125 108.972656 L 64.46875 108.832031 L 64.617188 108.683594 L 64.757812 108.527344 L 64.894531 108.363281 L 65.019531 108.1875 L 65.140625 108.003906 L 65.253906 107.816406 L 65.359375 107.617188 L 65.453125 107.414062 L 65.535156 107.203125 L 65.605469 106.988281 L 65.667969 106.765625 L 65.714844 106.535156 L 65.753906 106.300781 L 65.78125 106.0625 L 65.800781 105.816406 L 65.804688 105.566406 L 65.792969 105.1875 L 65.761719 104.828125 L 65.707031 104.484375 L 65.632812 104.15625 L 65.535156 103.847656 L 65.417969 103.550781 L 65.277344 103.273438 L 65.117188 103.011719 L 64.933594 102.769531 L 64.730469 102.539062 L 64.511719 102.332031 L 64.28125 102.144531 L 64.035156 101.980469 L 63.773438 101.835938 L 63.5 101.714844 L 63.207031 101.617188 L 62.902344 101.539062 L 62.585938 101.484375 L 62.253906 101.449219 L 61.90625 101.441406 L 61.722656 101.441406 L 61.542969 101.453125 L 61.371094 101.464844 L 61.203125 101.488281 L 61.042969 101.515625 L 60.882812 101.546875 L 60.730469 101.585938 L 60.585938 101.632812 L 60.441406 101.683594 L 60.304688 101.738281 L 60.171875 101.796875 L 60.042969 101.859375 L 59.90625 101.925781 L 59.773438 101.996094 L 59.636719 102.070312 L 59.496094 102.152344 L 59.359375 102.234375 L 59.214844 102.324219 L 59.074219 102.417969 L 58.929688 102.515625 L 58.15625 102.039062 L 58.730469 94.566406 L 66.105469 94.566406 L 66.105469 95.539062 L 59.730469 95.539062 L 59.230469 101.316406 L 59.355469 101.242188 L 59.480469 101.171875 L 59.609375 101.101562 L 59.867188 100.976562 L 59.996094 100.917969 L 60.128906 100.863281 L 60.394531 100.761719 L 60.667969 100.667969 L 60.808594 100.625 L 60.953125 100.585938 L 61.101562 100.554688 L 61.253906 100.527344 L 61.410156 100.503906 L 61.738281 100.472656 L 61.90625 100.46875 L 62.078125 100.464844 L 62.347656 100.46875 L 62.609375 100.488281 L 62.867188 100.515625 L 63.121094 100.550781 L 63.367188 100.601562 L 63.609375 100.664062 L 63.847656 100.734375 L 64.078125 100.816406 L 64.308594 100.910156 L 64.53125 101.015625 L 64.75 101.125 L 64.960938 101.25 L 65.160156 101.382812 L 65.351562 101.53125 L 65.535156 101.691406 L 65.707031 101.859375 L 65.871094 102.042969 L 66.023438 102.238281 L 66.167969 102.445312 L 66.304688 102.664062 L 66.429688 102.890625 L 66.539062 103.128906 L 66.636719 103.382812 L 66.71875 103.648438 L 66.792969 103.925781 L 66.851562 104.21875 L 66.894531 104.523438 L 66.929688 104.839844 L 66.949219 105.171875 L 66.953125 105.515625 L 66.945312 105.847656 L 66.925781 106.175781 L 66.886719 106.488281 L 66.835938 106.792969 L 66.765625 107.089844 L 66.683594 107.375 L 66.585938 107.648438 L 66.472656 107.914062 L 66.347656 108.167969 L 66.203125 108.414062 L 66.054688 108.644531 L 65.894531 108.863281 L 65.730469 109.070312 L 65.550781 109.265625 L 65.367188 109.453125 L 65.171875 109.625 L 64.96875 109.789062 L 64.757812 109.941406 L 64.535156 110.085938 L 64.304688 110.214844 L 64.074219 110.332031 L 63.839844 110.441406 L 63.601562 110.535156 L 63.359375 110.613281 L 63.117188 110.683594 L 62.871094 110.738281 L 62.621094 110.785156 L 62.367188 110.816406 L 62.113281 110.832031 Z M 61.855469 110.839844 "/>
<path fill-rule="nonzero" fill="rgb(10.196078%, 10.196078%, 10.196078%)" fill-opacity="1" d="M 70.90625 110.839844 L 70.824219 110.835938 L 70.746094 110.828125 L 70.667969 110.8125 L 70.59375 110.792969 L 70.515625 110.765625 L 70.441406 110.730469 L 70.367188 110.691406 L 70.296875 110.648438 L 70.226562 110.597656 L 70.15625 110.539062 L 70.09375 110.476562 L 70.039062 110.410156 L 69.988281 110.339844 L 69.945312 110.261719 L 69.910156 110.183594 L 69.882812 110.097656 L 69.859375 110.007812 L 69.84375 109.914062 L 69.832031 109.816406 L 69.828125 109.714844 L 69.832031 109.605469 L 69.84375 109.503906 L 69.859375 109.40625 L 69.882812 109.316406 L 69.910156 109.226562 L 69.945312 109.144531 L 69.988281 109.066406 L 70.039062 108.996094 L 70.09375 108.925781 L 70.15625 108.863281 L 70.226562 108.808594 L 70.296875 108.757812 L 70.367188 108.710938 L 70.441406 108.671875 L 70.515625 108.640625 L 70.59375 108.613281 L 70.667969 108.589844 L 70.824219 108.566406 L 70.988281 108.566406 L 71.070312 108.578125 L 71.148438 108.589844 L 71.222656 108.613281 L 71.296875 108.640625 L 71.371094 108.671875 L 71.4375 108.710938 L 71.503906 108.757812 L 71.566406 108.808594 L 71.628906 108.863281 L 71.691406 108.925781 L 71.746094 108.996094 L 71.796875 109.066406 L 71.835938 109.144531 L 71.875 109.226562 L 71.902344 109.316406 L 71.925781 109.40625 L 71.941406 109.503906 L 71.949219 109.605469 L 71.953125 109.714844 L 71.949219 109.816406 L 71.941406 109.914062 L 71.925781 110.007812 L 71.902344 110.097656 L 71.875 110.183594 L 71.796875 110.339844 L 71.746094 110.410156 L 71.691406 110.476562 L 71.628906 110.539062 L 71.566406 110.597656 L 71.503906 110.648438 L 71.4375 110.691406 L 71.371094 110.730469 L 71.296875 110.765625 L 71.222656 110.792969 L 71.148438 110.8125 L 71.070312 110.828125 L 70.988281 110.835938 Z M 70.90625 110.839844 "/>
<path fill-rule="nonzero" fill="rgb(10.196078%, 10.196078%, 10.196078%)" fill-opacity="1" d="M 79.605469 110.839844 L 79.160156 110.816406 L 78.734375 110.753906 L 78.332031 110.644531 L 77.949219 110.492188 L 77.585938 110.296875 L 77.242188 110.054688 L 76.921875 109.773438 L 76.621094 109.449219 L 76.339844 109.078125 L 76.078125 108.664062 L 75.84375 108.210938 L 75.628906 107.722656 L 75.441406 107.195312 L 75.28125 106.632812 L 75.140625 106.035156 L 75.03125 105.398438 L 74.941406 104.726562 L 74.878906 104.015625 L 74.84375 103.269531 L 74.828125 102.488281 L 74.84375 101.714844 L 74.878906 100.972656 L 74.941406 100.269531 L 75.03125 99.605469 L 75.140625 98.976562 L 75.28125 98.386719 L 75.441406 97.832031 L 75.628906 97.3125 L 75.84375 96.832031 L 76.078125 96.390625 L 76.339844 95.984375 L 76.621094 95.625 L 76.921875 95.304688 L 77.242188 95.03125 L 77.585938 94.796875 L 77.949219 94.605469 L 78.332031 94.457031 L 78.734375 94.347656 L 79.160156 94.285156 L 79.605469 94.265625 L 80.054688 94.285156 L 80.480469 94.347656 L 80.886719 94.457031 L 81.273438 94.605469 L 81.636719 94.796875 L 81.976562 95.03125 L 82.296875 95.304688 L 82.597656 95.625 L 82.875 95.984375 L 83.128906 96.390625 L 83.367188 96.832031 L 83.578125 97.3125 L 83.765625 97.832031 L 83.929688 98.386719 L 84.066406 98.976562 L 84.179688 99.605469 L 84.265625 100.269531 L 84.328125 100.972656 L 84.367188 101.714844 L 84.378906 102.488281 L 84.367188 103.269531 L 84.328125 104.015625 L 84.265625 104.726562 L 84.179688 105.398438 L 84.066406 106.035156 L 83.929688 106.632812 L 83.765625 107.195312 L 83.578125 107.722656 L 83.367188 108.210938 L 83.128906 108.664062 L 82.875 109.078125 L 82.597656 109.449219 L 82.296875 109.773438 L 81.976562 110.054688 L 81.636719 110.296875 L 81.273438 110.492188 L 80.886719 110.644531 L 80.480469 110.753906 L 80.054688 110.816406 Z M 79.605469 109.890625 L 79.933594 109.871094 L 80.246094 109.816406 L 80.546875 109.722656 L 80.832031 109.589844 L 81.105469 109.421875 L 81.363281 109.214844 L 81.605469 108.972656 L 81.835938 108.691406 L 82.050781 108.371094 L 82.253906 108.015625 L 82.445312 107.621094 L 82.613281 107.195312 L 82.765625 106.730469 L 82.894531 106.230469 L 83.003906 105.695312 L 83.09375 105.125 L 83.164062 104.519531 L 83.214844 103.878906 L 83.246094 103.203125 L 83.253906 102.488281 L 83.246094 101.777344 L 83.214844 101.105469 L 83.164062 100.464844 L 83.09375 99.867188 L 83.003906 99.300781 L 82.894531 98.777344 L 82.765625 98.285156 L 82.613281 97.832031 L 82.445312 97.417969 L 82.253906 97.039062 L 82.050781 96.691406 L 81.835938 96.382812 L 81.605469 96.109375 L 81.363281 95.871094 L 81.105469 95.671875 L 80.832031 95.507812 L 80.546875 95.378906 L 80.246094 95.289062 L 79.933594 95.234375 L 79.605469 95.214844 L 79.28125 95.234375 L 78.96875 95.289062 L 78.671875 95.378906 L 78.386719 95.507812 L 78.117188 95.671875 L 77.859375 95.871094 L 77.613281 96.109375 L 77.378906 96.382812 L 77.160156 96.691406 L 76.953125 97.039062 L 76.765625 97.417969 L 76.59375 97.832031 L 76.445312 98.285156 L 76.3125 98.777344 L 76.203125 99.300781 L 76.113281 99.867188 L 76.042969 100.464844 L 75.996094 101.105469 L 75.964844 101.777344 L 75.953125 102.488281 L 75.964844 103.203125 L 75.996094 103.878906 L 76.042969 104.519531 L 76.113281 105.125 L 76.203125 105.695312 L 76.3125 106.230469 L 76.445312 106.730469 L 76.59375 107.195312 L 76.765625 107.621094 L 76.953125 108.015625 L 77.160156 108.371094 L 77.378906 108.691406 L 77.613281 108.972656 L 77.859375 109.214844 L 78.117188 109.421875 L 78.386719 109.589844 L 78.671875 109.722656 L 78.96875 109.816406 L 79.28125 109.871094 Z M 79.605469 109.890625 "/>
<path fill-rule="nonzero" fill="rgb(10.196078%, 10.196078%, 10.196078%)" fill-opacity="1" d="M 46.304688 24.363281 L 46.304688 23.390625 L 50.054688 23.390625 L 50.054688 10.140625 L 47.203125 10.140625 L 47.203125 9.390625 L 47.398438 9.351562 L 47.585938 9.316406 L 47.953125 9.238281 L 48.128906 9.195312 L 48.300781 9.152344 L 48.472656 9.105469 L 48.636719 9.0625 L 48.796875 9.011719 L 48.953125 8.964844 L 49.105469 8.914062 L 49.253906 8.859375 L 49.398438 8.808594 L 49.539062 8.75 L 49.671875 8.695312 L 49.804688 8.636719 L 49.929688 8.578125 L 50.050781 8.515625 L 50.167969 8.453125 L 50.28125 8.390625 L 51.179688 8.390625 L 51.179688 23.390625 L 54.65625 23.390625 L 54.65625 24.363281 Z M 46.304688 24.363281 "/>
<path fill-rule="nonzero" fill="rgb(10.196078%, 10.196078%, 10.196078%)" fill-opacity="1" d="M 60.878906 24.363281 L 60.910156 23.726562 L 60.945312 23.101562 L 60.992188 22.488281 L 61.042969 21.890625 L 61.105469 21.308594 L 61.171875 20.738281 L 61.25 20.179688 L 61.335938 19.636719 L 61.429688 19.105469 L 61.53125 18.589844 L 61.640625 18.082031 L 61.757812 17.582031 L 61.890625 17.089844 L 62.03125 16.605469 L 62.179688 16.125 L 62.339844 15.65625 L 62.507812 15.191406 L 62.6875 14.734375 L 62.878906 14.28125 L 63.078125 13.839844 L 63.289062 13.394531 L 63.511719 12.949219 L 63.746094 12.5 L 63.992188 12.054688 L 64.25 11.609375 L 64.515625 11.160156 L 64.796875 10.710938 L 65.085938 10.261719 L 65.390625 9.8125 L 65.703125 9.363281 L 57.28125 9.363281 L 57.28125 8.390625 L 67.105469 8.390625 L 67.105469 9.039062 L 66.824219 9.417969 L 66.554688 9.792969 L 66.292969 10.167969 L 66.039062 10.539062 L 65.796875 10.90625 L 65.566406 11.273438 L 65.34375 11.636719 L 65.128906 12 L 64.925781 12.359375 L 64.730469 12.714844 L 64.546875 13.0625 L 64.375 13.414062 L 64.207031 13.769531 L 64.050781 14.121094 L 63.898438 14.476562 L 63.753906 14.832031 L 63.617188 15.1875 L 63.488281 15.546875 L 63.367188 15.90625 L 63.253906 16.265625 L 63.148438 16.625 L 63.046875 16.992188 L 62.949219 17.359375 L 62.859375 17.730469 L 62.773438 18.109375 L 62.691406 18.488281 L 62.617188 18.871094 L 62.550781 19.257812 L 62.488281 19.644531 L 62.429688 20.039062 L 62.378906 20.4375 L 62.335938 20.84375 L 62.292969 21.257812 L 62.253906 21.679688 L 62.21875 22.109375 L 62.183594 22.542969 L 62.152344 22.988281 L 62.125 23.4375 L 62.101562 23.898438 L 62.078125 24.363281 Z M 60.878906 24.363281 "/>
<path fill-rule="nonzero" fill="rgb(10.196078%, 10.196078%, 10.196078%)" fill-opacity="1" d="M 70.90625 24.664062 L 70.824219 24.660156 L 70.746094 24.652344 L 70.667969 24.636719 L 70.59375 24.617188 L 70.515625 24.589844 L 70.441406 24.554688 L 70.367188 24.515625 L 70.296875 24.472656 L 70.226562 24.421875 L 70.15625 24.363281 L 70.09375 24.300781 L 70.039062 24.234375 L 69.988281 24.164062 L 69.945312 24.089844 L 69.910156 24.007812 L 69.882812 23.921875 L 69.859375 23.832031 L 69.84375 23.738281 L 69.832031 23.640625 L 69.828125 23.539062 L 69.832031 23.429688 L 69.84375 23.328125 L 69.859375 23.230469 L 69.882812 23.140625 L 69.910156 23.050781 L 69.945312 22.96875 L 69.988281 22.890625 L 70.039062 22.820312 L 70.09375 22.75 L 70.15625 22.6875 L 70.226562 22.632812 L 70.296875 22.582031 L 70.367188 22.535156 L 70.441406 22.496094 L 70.515625 22.464844 L 70.59375 22.4375 L 70.667969 22.414062 L 70.824219 22.390625 L 70.988281 22.390625 L 71.070312 22.402344 L 71.148438 22.414062 L 71.222656 22.4375 L 71.296875 22.464844 L 71.371094 22.496094 L 71.4375 22.535156 L 71.503906 22.582031 L 71.566406 22.632812 L 71.628906 22.6875 L 71.691406 22.75 L 71.746094 22.820312 L 71.796875 22.890625 L 71.835938 22.96875 L 71.875 23.050781 L 71.902344 23.140625 L 71.925781 23.230469 L 71.941406 23.328125 L 71.949219 23.429688 L 71.953125 23.539062 L 71.949219 23.640625 L 71.941406 23.738281 L 71.925781 23.832031 L 71.902344 23.921875 L 71.875 24.007812 L 71.835938 24.089844 L 71.796875 24.164062 L 71.746094 24.234375 L 71.691406 24.300781 L 71.628906 24.363281 L 71.566406 24.421875 L 71.503906 24.472656 L 71.4375 24.515625 L 71.371094 24.554688 L 71.296875 24.589844 L 71.222656 24.617188 L 71.148438 24.636719 L 71.070312 24.652344 L 70.988281 24.660156 Z M 70.90625 24.664062 "/>
<path fill-rule="nonzero" fill="rgb(10.196078%, 10.196078%, 10.196078%)" fill-opacity="1" d="M 79.304688 24.664062 L 79.050781 24.660156 L 78.808594 24.652344 L 78.570312 24.632812 L 78.335938 24.613281 L 78.109375 24.582031 L 77.890625 24.546875 L 77.679688 24.503906 L 77.472656 24.457031 L 77.273438 24.402344 L 77.078125 24.339844 L 76.898438 24.273438 L 76.71875 24.203125 L 76.546875 24.128906 L 76.378906 24.050781 L 76.058594 23.886719 L 75.90625 23.796875 L 75.757812 23.707031 L 75.617188 23.613281 L 75.480469 23.515625 L 75.214844 23.3125 L 75.085938 23.214844 L 74.964844 23.113281 L 74.84375 23.015625 L 74.722656 22.914062 L 74.609375 22.8125 L 74.496094 22.714844 L 74.386719 22.613281 L 74.28125 22.515625 L 74.90625 21.738281 L 75.050781 21.882812 L 75.363281 22.164062 L 75.527344 22.304688 L 75.699219 22.4375 L 75.875 22.574219 L 76.054688 22.703125 L 76.242188 22.835938 L 76.433594 22.964844 L 76.628906 23.089844 L 76.839844 23.203125 L 77.0625 23.304688 L 77.296875 23.394531 L 77.546875 23.472656 L 77.804688 23.539062 L 78.074219 23.59375 L 78.359375 23.636719 L 78.652344 23.664062 L 78.960938 23.683594 L 79.28125 23.6875 L 79.492188 23.683594 L 79.703125 23.667969 L 79.910156 23.640625 L 80.113281 23.605469 L 80.3125 23.558594 L 80.507812 23.5 L 80.699219 23.433594 L 80.886719 23.351562 L 81.074219 23.261719 L 81.253906 23.164062 L 81.429688 23.050781 L 81.601562 22.925781 L 81.761719 22.796875 L 81.917969 22.65625 L 82.066406 22.507812 L 82.207031 22.351562 L 82.34375 22.1875 L 82.46875 22.011719 L 82.589844 21.828125 L 82.703125 21.640625 L 82.808594 21.441406 L 82.902344 21.238281 L 82.984375 21.027344 L 83.054688 20.8125 L 83.117188 20.589844 L 83.167969 20.359375 L 83.203125 20.125 L 83.230469 19.886719 L 83.25 19.640625 L 83.253906 19.390625 L 83.242188 19.011719 L 83.210938 18.652344 L 83.15625 18.308594 L 83.082031 17.980469 L 82.984375 17.671875 L 82.867188 17.375 L 82.726562 17.097656 L 82.566406 16.835938 L 82.382812 16.59375 L 82.179688 16.363281 L 81.960938 16.15625 L 81.730469 15.96875 L 81.484375 15.804688 L 81.222656 15.660156 L 80.949219 15.539062 L 80.660156 15.441406 L 80.355469 15.363281 L 80.035156 15.308594 L 79.703125 15.273438 L 79.355469 15.265625 L 79.171875 15.265625 L 78.820312 15.289062 L 78.65625 15.3125 L 78.492188 15.339844 L 78.335938 15.371094 L 78.183594 15.410156 L 78.035156 15.457031 L 77.890625 15.507812 L 77.753906 15.5625 L 77.625 15.621094 L 77.492188 15.683594 L 77.359375 15.75 L 77.222656 15.820312 L 77.085938 15.894531 L 76.949219 15.976562 L 76.808594 16.058594 L 76.667969 16.148438 L 76.523438 16.242188 L 76.378906 16.339844 L 75.605469 15.863281 L 76.179688 8.390625 L 83.554688 8.390625 L 83.554688 9.363281 L 77.179688 9.363281 L 76.679688 15.140625 L 76.804688 15.066406 L 76.929688 14.996094 L 77.058594 14.925781 L 77.316406 14.800781 L 77.449219 14.742188 L 77.578125 14.6875 L 77.84375 14.585938 L 78.117188 14.492188 L 78.257812 14.449219 L 78.402344 14.410156 L 78.550781 14.378906 L 78.703125 14.351562 L 78.863281 14.328125 L 79.023438 14.3125 L 79.1875 14.300781 L 79.355469 14.292969 L 79.53125 14.289062 L 79.796875 14.292969 L 80.058594 14.3125 L 80.316406 14.339844 L 80.570312 14.375 L 80.816406 14.425781 L 81.058594 14.488281 L 81.296875 14.558594 L 81.53125 14.640625 L 81.757812 14.734375 L 81.980469 14.839844 L 82.199219 14.949219 L 82.410156 15.074219 L 82.613281 15.207031 L 82.804688 15.355469 L 82.984375 15.515625 L 83.160156 15.683594 L 83.320312 15.867188 L 83.476562 16.0625 L 83.621094 16.269531 L 83.753906 16.488281 L 83.878906 16.714844 L 83.988281 16.953125 L 84.085938 17.207031 L 84.171875 17.472656 L 84.242188 17.75 L 84.300781 18.042969 L 84.347656 18.347656 L 84.378906 18.664062 L 84.398438 18.996094 L 84.40625 19.339844 L 84.398438 19.675781 L 84.375 20 L 84.335938 20.3125 L 84.285156 20.617188 L 84.21875 20.914062 L 84.132812 21.199219 L 84.035156 21.472656 L 83.925781 21.738281 L 83.796875 21.992188 L 83.65625 22.238281 L 83.503906 22.46875 L 83.347656 22.6875 L 83.179688 22.894531 L 83.003906 23.089844 L 82.816406 23.277344 L 82.621094 23.449219 L 82.417969 23.613281 L 82.207031 23.765625 L 81.984375 23.910156 L 81.753906 24.039062 L 81.523438 24.15625 L 81.289062 24.265625 L 81.050781 24.359375 L 80.808594 24.4375 L 80.566406 24.507812 L 80.320312 24.5625 L 80.070312 24.609375 L 79.816406 24.640625 L 79.5625 24.65625 Z M 79.304688 24.664062 "/>
<path fill-rule="nonzero" fill="rgb(10.196078%, 10.196078%, 10.196078%)" fill-opacity="1" d="M 103.804688 404.269531 L 103.804688 403.296875 L 109.304688 403.296875 L 109.304688 404.269531 Z M 103.804688 404.269531 "/>
<path fill-rule="nonzero" fill="rgb(10.196078%, 10.196078%, 10.196078%)" fill-opacity="1" d="M 111.304688 410.019531 L 111.304688 409.320312 L 111.820312 408.792969 L 112.316406 408.28125 L 112.800781 407.78125 L 113.261719 407.296875 L 113.710938 406.828125 L 114.136719 406.371094 L 114.550781 405.929688 L 114.941406 405.503906 L 115.320312 405.09375 L 115.679688 404.695312 L 116.019531 404.304688 L 116.34375 403.921875 L 116.648438 403.550781 L 116.9375 403.183594 L 117.210938 402.828125 L 117.464844 402.480469 L 117.699219 402.140625 L 117.917969 401.808594 L 118.121094 401.484375 L 118.304688 401.171875 L 118.46875 400.863281 L 118.617188 400.558594 L 118.75 400.257812 L 118.863281 399.957031 L 118.960938 399.664062 L 119.039062 399.375 L 119.097656 399.085938 L 119.144531 398.800781 L 119.167969 398.523438 L 119.179688 398.246094 L 119.167969 397.949219 L 119.144531 397.664062 L 119.101562 397.386719 L 119.042969 397.121094 L 118.964844 396.863281 L 118.871094 396.617188 L 118.761719 396.378906 L 118.632812 396.148438 L 118.488281 395.929688 L 118.328125 395.71875 L 118.152344 395.527344 L 117.960938 395.351562 L 117.746094 395.199219 L 117.511719 395.066406 L 117.257812 394.953125 L 116.988281 394.859375 L 116.695312 394.789062 L 116.382812 394.738281 L 116.054688 394.707031 L 115.703125 394.695312 L 115.488281 394.703125 L 115.277344 394.71875 L 115.066406 394.75 L 114.859375 394.792969 L 114.652344 394.84375 L 114.449219 394.910156 L 114.246094 394.988281 L 114.046875 395.078125 L 113.847656 395.183594 L 113.652344 395.296875 L 113.464844 395.417969 L 113.28125 395.546875 L 113.101562 395.683594 L 112.929688 395.824219 L 112.757812 395.96875 L 112.59375 396.125 L 112.433594 396.28125 L 112.277344 396.449219 L 112.125 396.617188 L 111.976562 396.796875 L 111.253906 396.09375 L 111.433594 395.898438 L 111.621094 395.707031 L 111.8125 395.523438 L 112.003906 395.347656 L 112.203125 395.175781 L 112.40625 395.011719 L 112.609375 394.855469 L 112.820312 394.703125 L 113.035156 394.558594 L 113.253906 394.421875 L 113.476562 394.292969 L 113.707031 394.175781 L 113.945312 394.078125 L 114.1875 393.988281 L 114.441406 393.914062 L 114.699219 393.855469 L 114.964844 393.804688 L 115.238281 393.773438 L 115.515625 393.753906 L 115.804688 393.746094 L 116.222656 393.757812 L 116.625 393.792969 L 117.003906 393.855469 L 117.367188 393.941406 L 117.710938 394.050781 L 118.03125 394.1875 L 118.335938 394.347656 L 118.617188 394.53125 L 118.882812 394.738281 L 119.128906 394.96875 L 119.351562 395.222656 L 119.550781 395.492188 L 119.726562 395.777344 L 119.878906 396.078125 L 120.007812 396.394531 L 120.113281 396.730469 L 120.199219 397.078125 L 120.257812 397.441406 L 120.292969 397.824219 L 120.304688 398.21875 L 120.292969 398.535156 L 120.265625 398.851562 L 120.21875 399.171875 L 120.15625 399.488281 L 120.070312 399.808594 L 119.96875 400.128906 L 119.851562 400.449219 L 119.710938 400.773438 L 119.554688 401.097656 L 119.378906 401.421875 L 119.191406 401.75 L 118.988281 402.082031 L 118.769531 402.417969 L 118.539062 402.761719 L 118.289062 403.109375 L 118.027344 403.460938 L 117.75 403.816406 L 117.457031 404.179688 L 117.152344 404.546875 L 116.828125 404.921875 L 116.496094 405.300781 L 116.152344 405.691406 L 115.800781 406.089844 L 115.433594 406.496094 L 115.054688 406.914062 L 114.664062 407.339844 L 114.257812 407.777344 L 113.84375 408.226562 L 113.417969 408.679688 L 112.976562 409.144531 L 113.109375 409.136719 L 113.238281 409.125 L 113.503906 409.109375 L 113.632812 409.101562 L 113.765625 409.09375 L 113.898438 409.089844 L 114.035156 409.082031 L 114.167969 409.074219 L 114.304688 409.070312 L 114.441406 409.0625 L 114.582031 409.050781 L 114.71875 409.046875 L 114.992188 409.03125 L 115.257812 409.023438 L 115.390625 409.023438 L 115.523438 409.019531 L 121.101562 409.019531 L 121.101562 410.019531 Z M 111.304688 410.019531 "/>
<path fill-rule="nonzero" fill="rgb(10.196078%, 10.196078%, 10.196078%)" fill-opacity="1" d="M 168.355469 404.269531 L 168.355469 403.296875 L 173.855469 403.296875 L 173.855469 404.269531 Z M 168.355469 404.269531 "/>
<path fill-rule="nonzero" fill="rgb(10.196078%, 10.196078%, 10.196078%)" fill-opacity="1" d="M 176.929688 410.019531 L 176.929688 409.046875 L 180.679688 409.046875 L 180.679688 395.796875 L 177.828125 395.796875 L 177.828125 395.046875 L 178.023438 395.011719 L 178.210938 394.972656 L 178.578125 394.894531 L 178.753906 394.851562 L 178.925781 394.808594 L 179.09375 394.765625 L 179.261719 394.71875 L 179.421875 394.667969 L 179.578125 394.621094 L 179.730469 394.570312 L 179.878906 394.519531 L 180.023438 394.464844 L 180.164062 394.410156 L 180.296875 394.351562 L 180.554688 394.234375 L 180.675781 394.171875 L 180.792969 394.109375 L 180.902344 394.046875 L 181.804688 394.046875 L 181.804688 409.046875 L 185.277344 409.046875 L 185.277344 410.019531 Z M 176.929688 410.019531 "/>
<path fill-rule="nonzero" fill="rgb(10.196078%, 10.196078%, 10.196078%)" fill-opacity="1" d="M 241.617188 410.320312 L 241.171875 410.300781 L 240.746094 410.234375 L 240.34375 410.125 L 239.960938 409.972656 L 239.597656 409.777344 L 239.253906 409.539062 L 238.933594 409.253906 L 238.632812 408.929688 L 238.351562 408.558594 L 238.089844 408.144531 L 237.855469 407.691406 L 237.640625 407.203125 L 237.453125 406.675781 L 237.292969 406.113281 L 237.152344 405.515625 L 237.042969 404.878906 L 236.953125 404.207031 L 236.890625 403.496094 L 236.855469 402.753906 L 236.839844 401.96875 L 236.855469 401.195312 L 236.890625 400.453125 L 236.953125 399.753906 L 237.042969 399.085938 L 237.152344 398.457031 L 237.292969 397.867188 L 237.453125 397.3125 L 237.640625 396.792969 L 237.855469 396.3125 L 238.089844 395.871094 L 238.351562 395.46875 L 238.632812 395.105469 L 238.933594 394.785156 L 239.253906 394.511719 L 239.597656 394.277344 L 239.960938 394.085938 L 240.34375 393.9375 L 240.746094 393.832031 L 241.171875 393.765625 L 241.617188 393.746094 L 242.066406 393.765625 L 242.492188 393.832031 L 242.898438 393.9375 L 243.285156 394.085938 L 243.648438 394.277344 L 243.988281 394.511719 L 244.308594 394.785156 L 244.609375 395.105469 L 244.886719 395.46875 L 245.140625 395.871094 L 245.378906 396.3125 L 245.589844 396.792969 L 245.777344 397.3125 L 245.941406 397.867188 L 246.078125 398.457031 L 246.191406 399.085938 L 246.277344 399.753906 L 246.339844 400.453125 L 246.378906 401.195312 L 246.390625 401.96875 L 246.378906 402.753906 L 246.339844 403.496094 L 246.277344 404.207031 L 246.191406 404.878906 L 246.078125 405.515625 L 245.941406 406.113281 L 245.777344 406.675781 L 245.589844 407.203125 L 245.378906 407.691406 L 245.140625 408.144531 L 244.886719 408.558594 L 244.609375 408.929688 L 244.308594 409.253906 L 243.988281 409.539062 L 243.648438 409.777344 L 243.285156 409.972656 L 242.898438 410.125 L 242.492188 410.234375 L 242.066406 410.300781 Z M 241.617188 409.371094 L 241.945312 409.351562 L 242.257812 409.296875 L 242.558594 409.203125 L 242.84375 409.070312 L 243.117188 408.902344 L 243.375 408.695312 L 243.617188 408.453125 L 243.847656 408.171875 L 244.066406 407.851562 L 244.265625 407.496094 L 244.457031 407.101562 L 244.625 406.675781 L 244.777344 406.210938 L 244.90625 405.710938 L 245.015625 405.175781 L 245.105469 404.605469 L 245.175781 404 L 245.226562 403.359375 L 245.257812 402.683594 L 245.265625 401.96875 L 245.257812 401.257812 L 245.226562 400.585938 L 245.175781 399.945312 L 245.105469 399.347656 L 245.015625 398.78125 L 244.90625 398.257812 L 244.777344 397.765625 L 244.625 397.316406 L 244.457031 396.898438 L 244.265625 396.519531 L 244.066406 396.175781 L 243.847656 395.863281 L 243.617188 395.589844 L 243.375 395.351562 L 243.117188 395.152344 L 242.84375 394.988281 L 242.558594 394.859375 L 242.257812 394.769531 L 241.945312 394.714844 L 241.617188 394.695312 L 241.292969 394.714844 L 240.984375 394.769531 L 240.683594 394.859375 L 240.402344 394.988281 L 240.128906 395.152344 L 239.871094 395.351562 L 239.625 395.589844 L 239.394531 395.863281 L 239.171875 396.175781 L 238.964844 396.519531 L 238.777344 396.898438 L 238.605469 397.316406 L 238.457031 397.765625 L 238.328125 398.257812 L 238.214844 398.78125 L 238.125 399.347656 L 238.058594 399.945312 L 238.007812 400.585938 L 237.976562 401.257812 L 237.964844 401.96875 L 237.976562 402.683594 L 238.007812 403.359375 L 238.058594 404 L 238.125 404.605469 L 238.214844 405.175781 L 238.328125 405.710938 L 238.457031 406.210938 L 238.605469 406.675781 L 238.777344 407.101562 L 238.964844 407.496094 L 239.171875 407.851562 L 239.394531 408.171875 L 239.625 408.453125 L 239.871094 408.695312 L 240.128906 408.902344 L 240.402344 409.070312 L 240.683594 409.203125 L 240.984375 409.296875 L 241.292969 409.351562 Z M 241.617188 409.371094 "/>
<path fill-rule="nonzero" fill="rgb(10.196078%, 10.196078%, 10.196078%)" fill-opacity="1" d="M 302.292969 410.019531 L 302.292969 409.046875 L 306.042969 409.046875 L 306.042969 395.796875 L 303.191406 395.796875 L 303.191406 395.046875 L 303.386719 395.011719 L 303.574219 394.972656 L 303.941406 394.894531 L 304.117188 394.851562 L 304.460938 394.765625 L 304.625 394.71875 L 304.785156 394.667969 L 304.941406 394.621094 L 305.09375 394.570312 L 305.242188 394.519531 L 305.386719 394.464844 L 305.527344 394.410156 L 305.792969 394.292969 L 305.917969 394.234375 L 306.039062 394.171875 L 306.15625 394.109375 L 306.265625 394.046875 L 307.167969 394.046875 L 307.167969 409.046875 L 310.640625 409.046875 L 310.640625 410.019531 Z M 302.292969 410.019531 "/>
<path fill-rule="nonzero" fill="rgb(10.196078%, 10.196078%, 10.196078%)" fill-opacity="1" d="M 365.769531 410.019531 L 365.769531 409.320312 L 366.285156 408.792969 L 366.78125 408.28125 L 367.265625 407.78125 L 367.726562 407.296875 L 368.175781 406.828125 L 368.601562 406.371094 L 369.015625 405.929688 L 369.40625 405.503906 L 369.785156 405.09375 L 370.144531 404.695312 L 370.484375 404.304688 L 370.808594 403.921875 L 371.113281 403.550781 L 371.402344 403.183594 L 371.675781 402.828125 L 371.925781 402.480469 L 372.164062 402.140625 L 372.382812 401.808594 L 372.582031 401.484375 L 372.769531 401.171875 L 372.933594 400.863281 L 373.082031 400.558594 L 373.214844 400.257812 L 373.328125 399.957031 L 373.425781 399.664062 L 373.503906 399.375 L 373.5625 399.085938 L 373.609375 398.800781 L 373.632812 398.523438 L 373.644531 398.246094 L 373.632812 397.949219 L 373.609375 397.664062 L 373.566406 397.386719 L 373.507812 397.121094 L 373.429688 396.863281 L 373.335938 396.617188 L 373.226562 396.378906 L 373.097656 396.148438 L 372.953125 395.929688 L 372.792969 395.71875 L 372.617188 395.527344 L 372.421875 395.351562 L 372.210938 395.199219 L 371.976562 395.066406 L 371.722656 394.953125 L 371.453125 394.859375 L 371.160156 394.789062 L 370.847656 394.738281 L 370.519531 394.707031 L 370.167969 394.695312 L 369.953125 394.703125 L 369.742188 394.71875 L 369.53125 394.75 L 369.324219 394.792969 L 369.117188 394.84375 L 368.914062 394.910156 L 368.710938 394.988281 L 368.511719 395.078125 L 368.3125 395.183594 L 368.117188 395.296875 L 367.929688 395.417969 L 367.746094 395.546875 L 367.566406 395.683594 L 367.394531 395.824219 L 367.222656 395.96875 L 367.058594 396.125 L 366.898438 396.28125 L 366.742188 396.449219 L 366.589844 396.617188 L 366.441406 396.796875 L 365.71875 396.09375 L 365.898438 395.898438 L 366.085938 395.707031 L 366.277344 395.523438 L 366.46875 395.347656 L 366.667969 395.175781 L 366.871094 395.011719 L 367.074219 394.855469 L 367.285156 394.703125 L 367.5 394.558594 L 367.71875 394.421875 L 367.941406 394.292969 L 368.171875 394.175781 L 368.410156 394.078125 L 368.652344 393.988281 L 368.90625 393.914062 L 369.164062 393.855469 L 369.429688 393.804688 L 369.703125 393.773438 L 369.980469 393.753906 L 370.269531 393.746094 L 370.6875 393.757812 L 371.089844 393.792969 L 371.46875 393.855469 L 371.832031 393.941406 L 372.175781 394.050781 L 372.496094 394.1875 L 372.800781 394.347656 L 373.082031 394.53125 L 373.347656 394.738281 L 373.59375 394.96875 L 373.816406 395.222656 L 374.015625 395.492188 L 374.191406 395.777344 L 374.34375 396.078125 L 374.472656 396.394531 L 374.578125 396.730469 L 374.660156 397.078125 L 374.71875 397.441406 L 374.757812 397.824219 L 374.769531 398.21875 L 374.757812 398.535156 L 374.730469 398.851562 L 374.683594 399.171875 L 374.621094 399.488281 L 374.535156 399.808594 L 374.433594 400.128906 L 374.3125 400.449219 L 374.175781 400.773438 L 374.019531 401.097656 L 373.84375 401.421875 L 373.65625 401.75 L 373.453125 402.082031 L 373.234375 402.417969 L 373.003906 402.761719 L 372.753906 403.109375 L 372.492188 403.460938 L 372.214844 403.816406 L 371.921875 404.179688 L 371.613281 404.546875 L 371.292969 404.921875 L 370.960938 405.300781 L 370.617188 405.691406 L 370.261719 406.089844 L 369.898438 406.496094 L 369.519531 406.914062 L 369.125 407.339844 L 368.722656 407.777344 L 368.308594 408.226562 L 367.882812 408.679688 L 367.441406 409.144531 L 367.574219 409.136719 L 367.703125 409.125 L 367.835938 409.117188 L 367.964844 409.109375 L 368.230469 409.09375 L 368.363281 409.089844 L 368.5 409.082031 L 368.632812 409.074219 L 368.769531 409.070312 L 368.90625 409.0625 L 369.046875 409.050781 L 369.183594 409.046875 L 369.457031 409.03125 L 369.722656 409.023438 L 369.855469 409.023438 L 369.988281 409.019531 L 375.566406 409.019531 L 375.566406 410.019531 Z M 365.769531 410.019531 "/>
<path fill-rule="nonzero" fill="rgb(0%, 0%, 0%)" fill-opacity="1" d="M 244.582031 440.3125 L 249.925781 431.105469 L 244.960938 422.519531 L 246.308594 422.519531 L 249.226562 427.757812 L 249.300781 427.878906 L 249.449219 428.113281 L 249.519531 428.230469 L 249.589844 428.34375 L 249.660156 428.460938 L 249.726562 428.578125 L 249.796875 428.691406 L 249.863281 428.804688 L 249.925781 428.917969 L 249.992188 429.03125 L 250.0625 429.144531 L 250.132812 429.261719 L 250.203125 429.382812 L 250.277344 429.507812 L 250.355469 429.636719 L 250.433594 429.769531 L 250.597656 430.042969 L 250.683594 430.1875 L 250.792969 430.1875 L 250.867188 430.042969 L 250.941406 429.90625 L 251.011719 429.769531 L 251.082031 429.636719 L 251.148438 429.507812 L 251.214844 429.382812 L 251.28125 429.261719 L 251.34375 429.144531 L 251.40625 429.03125 L 251.464844 428.917969 L 251.527344 428.804688 L 251.585938 428.691406 L 251.648438 428.578125 L 251.714844 428.460938 L 251.777344 428.34375 L 251.84375 428.230469 L 251.976562 427.996094 L 252.046875 427.878906 L 252.113281 427.757812 L 255.03125 422.519531 L 256.300781 422.519531 L 251.332031 431.160156 L 256.675781 440.3125 L 255.328125 440.3125 L 252.222656 434.859375 L 252.152344 434.722656 L 252.082031 434.589844 L 252.007812 434.453125 L 251.933594 434.320312 L 251.859375 434.183594 L 251.78125 434.050781 L 251.703125 433.914062 L 251.625 433.78125 L 251.546875 433.644531 L 251.464844 433.507812 L 251.386719 433.375 L 251.214844 433.09375 L 251.128906 432.949219 L 251.042969 432.800781 L 250.953125 432.652344 L 250.859375 432.5 L 250.765625 432.34375 L 250.671875 432.183594 L 250.574219 432.023438 L 250.46875 432.023438 L 250.296875 432.34375 L 250.214844 432.5 L 250.136719 432.652344 L 250.054688 432.800781 L 249.976562 432.949219 L 249.902344 433.09375 L 249.753906 433.375 L 249.683594 433.507812 L 249.542969 433.78125 L 249.472656 433.914062 L 249.398438 434.050781 L 249.328125 434.183594 L 249.253906 434.320312 L 249.179688 434.453125 L 249.105469 434.589844 L 249.03125 434.722656 L 248.957031 434.859375 L 245.851562 440.3125 Z M 244.582031 440.3125 "/>
<path fill-rule="nonzero" fill="rgb(0%, 0%, 0%)" fill-opacity="1" d="M 31.242188 198.078125 L 24.035156 198.078125 L 13.449219 203.398438 L 13.449219 202.074219 L 19.011719 199.375 L 19.207031 199.285156 L 19.398438 199.191406 L 19.59375 199.101562 L 19.785156 199.007812 L 19.976562 198.917969 L 20.167969 198.824219 L 20.359375 198.734375 L 20.550781 198.640625 L 20.738281 198.550781 L 20.929688 198.457031 L 21.117188 198.367188 L 21.308594 198.273438 L 21.5 198.175781 L 21.691406 198.082031 L 22.277344 197.789062 L 22.476562 197.6875 L 22.671875 197.585938 L 22.871094 197.484375 L 22.871094 197.378906 L 22.671875 197.277344 L 22.476562 197.171875 L 22.277344 197.074219 L 21.886719 196.871094 L 21.691406 196.773438 L 21.5 196.671875 L 21.117188 196.476562 L 20.929688 196.378906 L 20.738281 196.28125 L 20.550781 196.1875 L 19.976562 195.90625 L 19.59375 195.726562 L 19.398438 195.636719 L 19.207031 195.546875 L 19.011719 195.460938 L 13.449219 192.761719 L 13.449219 191.492188 L 24.035156 196.835938 L 31.242188 196.835938 Z M 31.242188 198.078125 "/>
</svg>
