<?xml version="1.0" encoding="UTF-8"?>
<svg xmlns="http://www.w3.org/2000/svg" xmlns:xlink="http://www.w3.org/1999/xlink" width="460" height="410" viewBox="0 0 460 410">
<defs>
<clipPath id="clip-0">
<path clip-rule="nonzero" d="M 50.929688 13.449219 L 446.550781 13.449219 L 446.550781 362.195312 L 50.929688 362.195312 Z M 50.929688 13.449219 "/>
</clipPath>
<clipPath id="clip-1">
<path clip-rule="nonzero" d="M 50.929688 345 L 446.550781 345 L 446.550781 348 L 50.929688 348 Z M 50.929688 345 "/>
</clipPath>
<clipPath id="clip-2">
<path clip-rule="nonzero" d="M 50.929688 265 L 446.550781 265 L 446.550781 269 L 50.929688 269 Z M 50.929688 265 "/>
</clipPath>
<clipPath id="clip-3">
<path clip-rule="nonzero" d="M 50.929688 186 L 446.550781 186 L 446.550781 190 L 50.929688 190 Z M 50.929688 186 "/>
</clipPath>
<clipPath id="clip-4">
<path clip-rule="nonzero" d="M 50.929688 107 L 446.550781 107 L 446.550781 110 L 50.929688 110 Z M 50.929688 107 "/>
</clipPath>
<clipPath id="clip-5">
<path clip-rule="nonzero" d="M 50.929688 27 L 446.550781 27 L 446.550781 31 L 50.929688 31 Z M 50.929688 27 "/>
</clipPath>
<clipPath id="clip-6">
<path clip-rule="nonzero" d="M 157 13.449219 L 161 13.449219 L 161 362.195312 L 157 362.195312 Z M 157 13.449219 "/>
</clipPath>
<clipPath id="clip-7">
<path clip-rule="nonzero" d="M 337 13.449219 L 340 13.449219 L 340 362.195312 L 337 362.195312 Z M 337 13.449219 "/>
</clipPath>
</defs>
<rect x="-46" y="-41" width="552" height="492" fill="rgb(100%, 100%, 100%)" fill-opacity="1"/>
<rect x="-46" y="-41" width="552" height="492" fill="rgb(95.294118%, 95.294118%, 95.294118%)" fill-opacity="1"/>
<path fill="none" stroke-width="2.618947" stroke-linecap="round" stroke-linejoin="round" stroke="rgb(95.294118%, 95.294118%, 95.294118%)" stroke-opacity="1" stroke-miterlimit="10" d="M 0 410 L 460 410 L 460 0 L 0 0 Z M 0 410 "/>
<g clip-path="url(#clip-0)">
<path fill-rule="nonzero" fill="rgb(95.294118%, 95.294118%, 95.294118%)" fill-opacity="1" stroke-width="2.618947" stroke-linecap="round" stroke-linejoin="round" stroke="rgb(95.294118%, 95.294118%, 95.294118%)" stroke-opacity="1" stroke-miterlimit="10" d="M 50.929688 362.195312 L 446.550781 362.195312 L 446.550781 13.449219 L 50.929688 13.449219 Z M 50.929688 362.195312 "/>
</g>
<g clip-path="url(#clip-1)">
<path fill="none" stroke-width="2.618947" stroke-linecap="butt" stroke-linejoin="round" stroke="rgb(92.156863%, 92.156863%, 92.156863%)" stroke-opacity="1" stroke-miterlimit="10" d="M 50.929688 346.34375 L 446.550781 346.34375 "/>
</g>
<g clip-path="url(#clip-2)">
<path fill="none" stroke-width="2.618947" stroke-linecap="butt" stroke-linejoin="round" stroke="rgb(92.156863%, 92.156863%, 92.156863%)" stroke-opacity="1" stroke-miterlimit="10" d="M 50.929688 267.082031 L 446.550781 267.082031 "/>
</g>
<g clip-path="url(#clip-3)">
<path fill="none" stroke-width="2.618947" stroke-linecap="butt" stroke-linejoin="round" stroke="rgb(92.156863%, 92.156863%, 92.156863%)" stroke-opacity="1" stroke-miterlimit="10" d="M 50.929688 187.824219 L 446.550781 187.824219 "/>
</g>
<g clip-path="url(#clip-4)">
<path fill="none" stroke-width="2.618947" stroke-linecap="butt" stroke-linejoin="round" stroke="rgb(92.156863%, 92.156863%, 92.156863%)" stroke-opacity="1" stroke-miterlimit="10" d="M 50.929688 108.5625 L 446.550781 108.5625 "/>
</g>
<g clip-path="url(#clip-5)">
<path fill="none" stroke-width="2.618947" stroke-linecap="butt" stroke-linejoin="round" stroke="rgb(92.156863%, 92.156863%, 92.156863%)" stroke-opacity="1" stroke-miterlimit="10" d="M 50.929688 29.300781 L 446.550781 29.300781 "/>
</g>
<g clip-path="url(#clip-6)">
<path fill="none" stroke-width="2.618947" stroke-linecap="butt" stroke-linejoin="round" stroke="rgb(92.156863%, 92.156863%, 92.156863%)" stroke-opacity="1" stroke-miterlimit="10" d="M 158.824219 362.195312 L 158.824219 13.449219 "/>
</g>
<g clip-path="url(#clip-7)">
<path fill="none" stroke-width="2.618947" stroke-linecap="butt" stroke-linejoin="round" stroke="rgb(92.156863%, 92.156863%, 92.156863%)" stroke-opacity="1" stroke-miterlimit="10" d="M 338.652344 362.195312 L 338.652344 13.449219 "/>
</g>
<path fill="none" stroke-width="3.841122" stroke-linecap="butt" stroke-linejoin="round" stroke="rgb(0%, 0%, 0%)" stroke-opacity="1" stroke-miterlimit="10" d="M 158.824219 267.082031 L 338.652344 227.453125 "/>
<path fill="none" stroke-width="3.841122" stroke-linecap="butt" stroke-linejoin="round" stroke="rgb(56.078431%, 16.470588%, 26.27451%)" stroke-opacity="1" stroke-miterlimit="10" d="M 158.824219 187.824219 L 338.652344 45.152344 "/>
<path fill-rule="nonzero" fill="rgb(0%, 0%, 0%)" fill-opacity="1" stroke-width="0.708661" stroke-linecap="round" stroke-linejoin="round" stroke="rgb(0%, 0%, 0%)" stroke-opacity="1" stroke-miterlimit="10" d="M 165.15625 267.082031 C 165.15625 270.578125 162.320312 273.414062 158.824219 273.414062 C 155.332031 273.414062 152.496094 270.578125 152.496094 267.082031 C 152.496094 263.585938 155.332031 260.753906 158.824219 260.753906 C 162.320312 260.753906 165.15625 263.585938 165.15625 267.082031 "/>
<path fill-rule="nonzero" fill="rgb(0%, 0%, 0%)" fill-opacity="1" stroke-width="0.708661" stroke-linecap="round" stroke-linejoin="round" stroke="rgb(0%, 0%, 0%)" stroke-opacity="1" stroke-miterlimit="10" d="M 344.984375 227.453125 C 344.984375 230.949219 342.148438 233.78125 338.652344 233.78125 C 335.15625 233.78125 332.324219 230.949219 332.324219 227.453125 C 332.324219 223.957031 335.15625 221.125 338.652344 221.125 C 342.148438 221.125 344.984375 223.957031 344.984375 227.453125 "/>
<path fill-rule="nonzero" fill="rgb(56.078431%, 16.470588%, 26.27451%)" fill-opacity="1" stroke-width="0.708661" stroke-linecap="round" stroke-linejoin="round" stroke="rgb(56.078431%, 16.470588%, 26.27451%)" stroke-opacity="1" stroke-miterlimit="10" d="M 165.15625 187.824219 C 165.15625 191.316406 162.320312 194.152344 158.824219 194.152344 C 155.332031 194.152344 152.496094 191.316406 152.496094 187.824219 C 152.496094 184.328125 155.332031 181.492188 158.824219 181.492188 C 162.320312 181.492188 165.15625 184.328125 165.15625 187.824219 "/>
<path fill-rule="nonzero" fill="rgb(56.078431%, 16.470588%, 26.27451%)" fill-opacity="1" stroke-width="0.708661" stroke-linecap="round" stroke-linejoin="round" stroke="rgb(56.078431%, 16.470588%, 26.27451%)" stroke-opacity="1" stroke-miterlimit="10" d="M 344.984375 45.152344 C 344.984375 48.648438 342.148438 51.484375 338.652344 51.484375 C 335.15625 51.484375 332.324219 48.648438 332.324219 45.152344 C 332.324219 41.65625 335.15625 38.824219 338.652344 38.824219 C 342.148438 38.824219 344.984375 41.65625 344.984375 45.152344 "/>
<path fill="none" stroke-width="1.707165" stroke-linecap="butt" stroke-linejoin="round" stroke="rgb(16.470588%, 56.078431%, 46.27451%)" stroke-opacity="1" stroke-dasharray="1.707165 5.121496" stroke-miterlimit="10" d="M 158.824219 187.824219 L 338.652344 148.191406 "/>
<path fill="none" stroke-width="1.707165" stroke-linecap="butt" stroke-linejoin="round" stroke="rgb(16.470588%, 56.078431%, 46.27451%)" stroke-opacity="1" stroke-dasharray="1.707165 5.121496" stroke-miterlimit="10" d="M 158.824219 187.824219 L 338.652344 148.191406 "/>
<path fill="none" stroke-width="1.707165" stroke-linecap="butt" stroke-linejoin="round" stroke="rgb(16.470588%, 56.078431%, 46.27451%)" stroke-opacity="1" stroke-dasharray="1.707165 5.121496" stroke-miterlimit="10" d="M 158.824219 187.824219 L 338.652344 148.191406 "/>
<path fill="none" stroke-width="1.707165" stroke-linecap="butt" stroke-linejoin="round" stroke="rgb(16.470588%, 56.078431%, 46.27451%)" stroke-opacity="1" stroke-dasharray="1.707165 5.121496" stroke-miterlimit="10" d="M 158.824219 187.824219 L 338.652344 148.191406 "/>
<path fill-rule="nonzero" fill="rgb(10.196078%, 10.196078%, 10.196078%)" fill-opacity="1" d="M 135.300781 381.074219 L 134.25 384.152344 L 140.101562 384.152344 L 139.050781 381.074219 L 138.953125 380.78125 L 138.851562 380.492188 L 138.753906 380.203125 L 138.660156 379.914062 L 138.5625 379.632812 L 138.375 379.070312 L 138.28125 378.796875 L 138.101562 378.25 L 138.011719 377.980469 L 137.832031 377.425781 L 137.746094 377.140625 L 137.65625 376.855469 L 137.570312 376.566406 L 137.484375 376.273438 L 137.3125 375.679688 L 137.226562 375.375 L 137.125 375.375 L 137.039062 375.679688 L 136.867188 376.273438 L 136.78125 376.566406 L 136.695312 376.855469 L 136.605469 377.140625 L 136.519531 377.425781 L 136.339844 377.980469 L 136.25 378.25 L 136.070312 378.796875 L 135.976562 379.070312 L 135.789062 379.632812 L 135.691406 379.914062 L 135.597656 380.203125 L 135.5 380.492188 L 135.398438 380.78125 Z M 130.800781 390.777344 L 136.601562 374.300781 L 137.75 374.300781 L 143.550781 390.777344 L 142.351562 390.777344 L 140.425781 385.125 L 133.902344 385.125 L 131.949219 390.777344 Z M 130.800781 390.777344 "/>
<path fill-rule="nonzero" fill="rgb(10.196078%, 10.196078%, 10.196078%)" fill-opacity="1" d="M 146.050781 390.777344 L 146.050781 378.777344 L 147 378.777344 L 147.101562 380.625 L 147.175781 380.625 L 147.363281 380.445312 L 147.546875 380.269531 L 147.734375 380.101562 L 147.925781 379.9375 L 148.113281 379.78125 L 148.304688 379.632812 L 148.496094 379.488281 L 148.6875 379.351562 L 148.882812 379.222656 L 149.074219 379.101562 L 149.277344 378.980469 L 149.484375 378.875 L 149.695312 378.78125 L 149.910156 378.699219 L 150.132812 378.632812 L 150.355469 378.574219 L 150.585938 378.53125 L 150.820312 378.5 L 151.058594 378.480469 L 151.300781 378.476562 L 151.660156 378.488281 L 152 378.519531 L 152.324219 378.578125 L 152.625 378.660156 L 152.90625 378.761719 L 153.167969 378.890625 L 153.414062 379.039062 L 153.636719 379.210938 L 153.839844 379.40625 L 154.027344 379.625 L 154.195312 379.863281 L 154.351562 380.125 L 154.484375 380.410156 L 154.601562 380.71875 L 154.699219 381.050781 L 154.78125 381.40625 L 154.84375 381.789062 L 154.890625 382.195312 L 154.917969 382.621094 L 154.925781 383.074219 L 154.925781 390.777344 L 153.824219 390.777344 L 153.824219 383.226562 L 153.820312 382.851562 L 153.800781 382.496094 L 153.765625 382.164062 L 153.722656 381.847656 L 153.664062 381.558594 L 153.59375 381.285156 L 153.507812 381.03125 L 153.410156 380.800781 L 153.300781 380.589844 L 153.175781 380.402344 L 153.042969 380.226562 L 152.890625 380.066406 L 152.722656 379.929688 L 152.539062 379.808594 L 152.339844 379.707031 L 152.121094 379.625 L 151.882812 379.558594 L 151.632812 379.511719 L 151.363281 379.484375 L 151.074219 379.476562 L 150.863281 379.480469 L 150.652344 379.5 L 150.449219 379.527344 L 150.246094 379.566406 L 150.050781 379.621094 L 149.859375 379.683594 L 149.667969 379.757812 L 149.484375 379.84375 L 149.304688 379.941406 L 149.125 380.050781 L 148.949219 380.167969 L 148.765625 380.292969 L 148.582031 380.433594 L 148.390625 380.582031 L 148.195312 380.746094 L 147.996094 380.917969 L 147.789062 381.101562 L 147.582031 381.296875 L 147.367188 381.507812 L 147.152344 381.726562 L 147.152344 390.777344 Z M 146.050781 390.777344 "/>
<path fill-rule="nonzero" fill="rgb(10.196078%, 10.196078%, 10.196078%)" fill-opacity="1" d="M 162.625 391.074219 L 162.285156 391.066406 L 161.972656 391.035156 L 161.675781 390.984375 L 161.40625 390.914062 L 161.15625 390.824219 L 160.929688 390.714844 L 160.726562 390.585938 L 160.546875 390.433594 L 160.386719 390.265625 L 160.25 390.074219 L 160.132812 389.863281 L 160.027344 389.640625 L 159.933594 389.410156 L 159.851562 389.164062 L 159.78125 388.90625 L 159.726562 388.636719 L 159.683594 388.359375 L 159.652344 388.066406 L 159.632812 387.765625 L 159.625 387.449219 L 159.625 379.726562 L 157.75 379.726562 L 157.75 378.875 L 159.652344 378.777344 L 159.800781 375.300781 L 160.75 375.300781 L 160.75 378.777344 L 164.226562 378.777344 L 164.226562 379.726562 L 160.75 379.726562 L 160.75 387.550781 L 160.753906 387.777344 L 160.765625 387.992188 L 160.785156 388.199219 L 160.816406 388.398438 L 160.851562 388.589844 L 160.894531 388.769531 L 160.945312 388.941406 L 161.007812 389.101562 L 161.074219 389.257812 L 161.152344 389.402344 L 161.238281 389.535156 L 161.34375 389.652344 L 161.464844 389.757812 L 161.601562 389.847656 L 161.757812 389.925781 L 161.929688 389.988281 L 162.113281 390.039062 L 162.320312 390.074219 L 162.539062 390.09375 L 162.777344 390.101562 L 162.847656 390.097656 L 162.917969 390.097656 L 162.992188 390.089844 L 163.0625 390.085938 L 163.136719 390.074219 L 163.214844 390.0625 L 163.289062 390.050781 L 163.445312 390.019531 L 163.527344 390 L 163.609375 389.976562 L 163.773438 389.921875 L 163.851562 389.894531 L 163.925781 389.871094 L 164 389.839844 L 164.140625 389.785156 L 164.210938 389.753906 L 164.277344 389.726562 L 164.574219 390.625 L 164.363281 390.695312 L 164.152344 390.757812 L 164.042969 390.789062 L 163.9375 390.816406 L 163.828125 390.847656 L 163.71875 390.875 L 163.609375 390.898438 L 163.5 390.925781 L 163.296875 390.980469 L 163.109375 391.019531 L 163.019531 391.039062 L 162.933594 391.050781 L 162.851562 391.0625 L 162.773438 391.070312 L 162.699219 391.074219 Z M 162.625 391.074219 "/>
<path fill-rule="nonzero" fill="rgb(10.196078%, 10.196078%, 10.196078%)" fill-opacity="1" d="M 171.699219 391.074219 L 171.398438 391.066406 L 171.101562 391.046875 L 170.808594 391.007812 L 170.519531 390.957031 L 170.238281 390.886719 L 169.960938 390.804688 L 169.6875 390.707031 L 169.421875 390.59375 L 169.160156 390.46875 L 168.902344 390.324219 L 168.65625 390.167969 L 168.421875 390 L 168.195312 389.816406 L 167.980469 389.621094 L 167.777344 389.414062 L 167.582031 389.191406 L 167.394531 388.957031 L 167.222656 388.710938 L 167.054688 388.449219 L 166.902344 388.175781 L 166.757812 387.886719 L 166.628906 387.585938 L 166.519531 387.273438 L 166.421875 386.953125 L 166.339844 386.621094 L 166.269531 386.277344 L 166.21875 385.921875 L 166.179688 385.558594 L 166.160156 385.183594 L 166.152344 384.800781 L 166.160156 384.410156 L 166.179688 384.035156 L 166.21875 383.667969 L 166.269531 383.3125 L 166.339844 382.96875 L 166.421875 382.636719 L 166.519531 382.316406 L 166.628906 382.007812 L 166.757812 381.710938 L 166.902344 381.425781 L 167.054688 381.148438 L 167.21875 380.882812 L 167.390625 380.632812 L 167.574219 380.394531 L 167.761719 380.167969 L 167.960938 379.957031 L 168.171875 379.761719 L 168.390625 379.578125 L 168.617188 379.40625 L 168.851562 379.25 L 169.09375 379.101562 L 169.335938 378.972656 L 169.582031 378.855469 L 169.832031 378.753906 L 170.082031 378.667969 L 170.335938 378.597656 L 170.59375 378.546875 L 170.851562 378.507812 L 171.113281 378.484375 L 171.375 378.476562 L 171.796875 378.488281 L 172.199219 378.535156 L 172.582031 378.605469 L 172.949219 378.707031 L 173.292969 378.839844 L 173.621094 378.996094 L 173.933594 379.1875 L 174.222656 379.402344 L 174.496094 379.648438 L 174.75 379.925781 L 174.984375 380.226562 L 175.191406 380.554688 L 175.375 380.902344 L 175.535156 381.277344 L 175.667969 381.675781 L 175.78125 382.097656 L 175.867188 382.542969 L 175.925781 383.011719 L 175.964844 383.507812 L 175.976562 384.027344 L 175.976562 384.117188 L 175.972656 384.160156 L 175.972656 384.207031 L 175.96875 384.25 L 175.96875 384.296875 L 175.964844 384.339844 L 175.960938 384.386719 L 175.957031 384.429688 L 175.949219 384.476562 L 175.949219 384.566406 L 175.945312 384.609375 L 175.941406 384.65625 L 175.9375 384.699219 L 175.933594 384.746094 L 175.925781 384.789062 L 175.917969 384.835938 L 175.910156 384.878906 L 175.902344 384.925781 L 167.277344 384.925781 L 167.285156 385.222656 L 167.308594 385.511719 L 167.339844 385.796875 L 167.378906 386.074219 L 167.433594 386.34375 L 167.496094 386.609375 L 167.566406 386.867188 L 167.652344 387.117188 L 167.746094 387.363281 L 167.851562 387.601562 L 167.96875 387.832031 L 168.097656 388.050781 L 168.234375 388.261719 L 168.378906 388.460938 L 168.53125 388.652344 L 168.695312 388.832031 L 168.863281 389 L 169.042969 389.160156 L 169.230469 389.308594 L 169.425781 389.449219 L 169.632812 389.578125 L 169.847656 389.695312 L 170.070312 389.792969 L 170.296875 389.882812 L 170.53125 389.957031 L 170.773438 390.015625 L 171.019531 390.066406 L 171.273438 390.097656 L 171.535156 390.117188 L 171.800781 390.125 L 171.992188 390.121094 L 172.183594 390.113281 L 172.367188 390.097656 L 172.550781 390.078125 L 172.726562 390.050781 L 172.898438 390.015625 L 173.066406 389.976562 L 173.234375 389.933594 L 173.394531 389.882812 L 173.550781 389.824219 L 173.710938 389.765625 L 173.867188 389.699219 L 174.171875 389.558594 L 174.320312 389.480469 L 174.464844 389.402344 L 174.609375 389.320312 L 174.75 389.234375 L 174.890625 389.144531 L 175.027344 389.050781 L 175.476562 389.902344 L 175.335938 389.984375 L 175.1875 390.070312 L 175.039062 390.152344 L 174.886719 390.234375 L 174.410156 390.472656 L 174.242188 390.546875 L 174.074219 390.625 L 173.902344 390.699219 L 173.722656 390.773438 L 173.53125 390.835938 L 173.335938 390.890625 L 173.128906 390.941406 L 172.914062 390.980469 L 172.6875 391.015625 L 172.457031 391.042969 L 172.210938 391.058594 L 171.960938 391.070312 Z M 167.277344 384.027344 L 174.925781 384.027344 L 174.917969 383.578125 L 174.886719 383.152344 L 174.839844 382.75 L 174.773438 382.371094 L 174.6875 382.011719 L 174.582031 381.679688 L 174.460938 381.367188 L 174.316406 381.082031 L 174.15625 380.816406 L 173.976562 380.574219 L 173.777344 380.355469 L 173.570312 380.160156 L 173.34375 379.988281 L 173.109375 379.839844 L 172.855469 379.714844 L 172.59375 379.609375 L 172.316406 379.527344 L 172.023438 379.472656 L 171.71875 379.4375 L 171.402344 379.425781 L 171.195312 379.429688 L 170.996094 379.449219 L 170.796875 379.476562 L 170.601562 379.511719 L 170.40625 379.5625 L 170.214844 379.625 L 170.027344 379.695312 L 169.839844 379.777344 L 169.65625 379.871094 L 169.476562 379.976562 L 169.304688 380.089844 L 169.136719 380.214844 L 168.976562 380.347656 L 168.820312 380.492188 L 168.667969 380.644531 L 168.523438 380.804688 L 168.386719 380.976562 L 168.25 381.160156 L 168.125 381.351562 L 168 381.550781 L 167.886719 381.757812 L 167.78125 381.976562 L 167.683594 382.203125 L 167.597656 382.4375 L 167.519531 382.683594 L 167.453125 382.933594 L 167.394531 383.195312 L 167.34375 383.460938 L 167.304688 383.738281 Z M 167.277344 384.027344 "/>
<path fill-rule="nonzero" fill="rgb(10.196078%, 10.196078%, 10.196078%)" fill-opacity="1" d="M 182.125 391.074219 L 181.863281 391.070312 L 181.601562 391.054688 L 181.347656 391.03125 L 181.09375 391 L 180.84375 390.957031 L 180.597656 390.90625 L 180.355469 390.84375 L 180.117188 390.769531 L 179.882812 390.691406 L 179.652344 390.601562 L 179.429688 390.5 L 179.214844 390.394531 L 179.003906 390.285156 L 178.605469 390.058594 L 178.417969 389.9375 L 178.234375 389.816406 L 178.058594 389.6875 L 177.890625 389.558594 L 177.726562 389.425781 L 178.375 388.601562 L 178.53125 388.722656 L 178.691406 388.84375 L 178.851562 388.960938 L 179.011719 389.074219 L 179.175781 389.183594 L 179.34375 389.289062 L 179.511719 389.390625 L 179.679688 389.488281 L 179.851562 389.582031 L 180.027344 389.675781 L 180.207031 389.761719 L 180.394531 389.835938 L 180.589844 389.90625 L 180.792969 389.964844 L 181.007812 390.011719 L 181.230469 390.054688 L 181.460938 390.085938 L 181.699219 390.109375 L 181.945312 390.121094 L 182.199219 390.125 L 182.472656 390.117188 L 182.734375 390.097656 L 182.980469 390.0625 L 183.210938 390.011719 L 183.433594 389.949219 L 183.636719 389.875 L 183.832031 389.78125 L 184.007812 389.675781 L 184.175781 389.558594 L 184.324219 389.425781 L 184.464844 389.277344 L 184.585938 389.125 L 184.695312 388.96875 L 184.789062 388.808594 L 184.871094 388.644531 L 184.933594 388.472656 L 184.984375 388.300781 L 185.023438 388.121094 L 185.042969 387.9375 L 185.050781 387.75 L 185.046875 387.601562 L 185.03125 387.460938 L 185.011719 387.324219 L 184.980469 387.191406 L 184.9375 387.0625 L 184.890625 386.941406 L 184.832031 386.824219 L 184.761719 386.710938 L 184.6875 386.601562 L 184.601562 386.5 L 184.507812 386.402344 L 184.3125 386.214844 L 184.09375 386.042969 L 183.980469 385.964844 L 183.859375 385.886719 L 183.738281 385.8125 L 183.609375 385.742188 L 183.34375 385.609375 L 183.214844 385.546875 L 183.082031 385.488281 L 182.949219 385.425781 L 182.8125 385.371094 L 182.679688 385.3125 L 182.542969 385.257812 L 182.402344 385.203125 L 182.265625 385.152344 L 182.125 385.101562 L 181.765625 384.96875 L 181.589844 384.898438 L 181.230469 384.757812 L 180.878906 384.609375 L 180.351562 384.375 L 180.183594 384.292969 L 180.023438 384.207031 L 179.867188 384.113281 L 179.71875 384.019531 L 179.574219 383.917969 L 179.4375 383.8125 L 179.308594 383.707031 L 179.183594 383.589844 L 179.0625 383.472656 L 178.949219 383.351562 L 178.847656 383.214844 L 178.753906 383.074219 L 178.671875 382.925781 L 178.597656 382.769531 L 178.539062 382.605469 L 178.488281 382.433594 L 178.449219 382.257812 L 178.421875 382.070312 L 178.40625 381.875 L 178.402344 381.675781 L 178.410156 381.414062 L 178.441406 381.160156 L 178.488281 380.917969 L 178.558594 380.679688 L 178.644531 380.449219 L 178.75 380.230469 L 178.878906 380.015625 L 179.023438 379.8125 L 179.191406 379.613281 L 179.375 379.425781 L 179.585938 379.246094 L 179.8125 379.082031 L 180.054688 378.941406 L 180.316406 378.816406 L 180.59375 378.714844 L 180.890625 378.628906 L 181.203125 378.5625 L 181.535156 378.511719 L 181.882812 378.484375 L 182.25 378.476562 L 182.445312 378.480469 L 182.636719 378.488281 L 182.828125 378.507812 L 183.019531 378.53125 L 183.207031 378.5625 L 183.394531 378.601562 L 183.578125 378.648438 L 183.761719 378.699219 L 183.945312 378.757812 L 184.125 378.824219 L 184.308594 378.898438 L 184.484375 378.972656 L 184.65625 379.054688 L 184.820312 379.136719 L 184.980469 379.226562 L 185.136719 379.316406 L 185.285156 379.414062 L 185.429688 379.511719 L 185.566406 379.617188 L 185.699219 379.726562 L 185.101562 380.5 L 184.976562 380.410156 L 184.847656 380.328125 L 184.722656 380.242188 L 184.59375 380.164062 L 184.464844 380.089844 L 184.332031 380.015625 L 184.203125 379.945312 L 184.070312 379.875 L 183.933594 379.8125 L 183.800781 379.75 L 183.664062 379.6875 L 183.523438 379.632812 L 183.375 379.585938 L 183.226562 379.542969 L 183.070312 379.507812 L 182.910156 379.476562 L 182.746094 379.453125 L 182.578125 379.4375 L 182.402344 379.429688 L 182.226562 379.425781 L 181.953125 379.433594 L 181.695312 379.453125 L 181.449219 379.484375 L 181.222656 379.535156 L 181.007812 379.59375 L 180.808594 379.667969 L 180.621094 379.757812 L 180.449219 379.859375 L 180.292969 379.972656 L 180.152344 380.101562 L 180.027344 380.238281 L 179.917969 380.375 L 179.820312 380.519531 L 179.734375 380.664062 L 179.664062 380.8125 L 179.605469 380.964844 L 179.558594 381.117188 L 179.527344 381.277344 L 179.507812 381.4375 L 179.5 381.601562 L 179.503906 381.734375 L 179.515625 381.863281 L 179.535156 381.984375 L 179.5625 382.105469 L 179.59375 382.21875 L 179.636719 382.328125 L 179.683594 382.433594 L 179.742188 382.535156 L 179.804688 382.632812 L 179.875 382.726562 L 179.957031 382.8125 L 180.042969 382.898438 L 180.230469 383.0625 L 180.332031 383.136719 L 180.4375 383.210938 L 180.546875 383.28125 L 180.660156 383.347656 L 180.777344 383.414062 L 180.902344 383.476562 L 181.03125 383.53125 L 181.5625 383.75 L 181.972656 383.914062 L 182.113281 383.96875 L 182.25 384.027344 L 182.441406 384.097656 L 182.816406 384.238281 L 183.003906 384.3125 L 183.1875 384.386719 L 183.371094 384.464844 L 183.554688 384.539062 L 183.921875 384.695312 L 184.101562 384.777344 L 184.277344 384.859375 L 184.449219 384.945312 L 184.613281 385.039062 L 184.769531 385.140625 L 184.917969 385.246094 L 185.0625 385.355469 L 185.203125 385.46875 L 185.332031 385.589844 L 185.457031 385.71875 L 185.574219 385.851562 L 185.691406 385.992188 L 185.792969 386.140625 L 185.882812 386.300781 L 185.960938 386.46875 L 186.027344 386.652344 L 186.078125 386.839844 L 186.121094 387.039062 L 186.152344 387.25 L 186.167969 387.46875 L 186.175781 387.699219 L 186.171875 387.878906 L 186.15625 388.054688 L 186.132812 388.230469 L 186.101562 388.402344 L 186.058594 388.570312 L 186.003906 388.734375 L 185.941406 388.898438 L 185.871094 389.058594 L 185.792969 389.21875 L 185.699219 389.375 L 185.601562 389.523438 L 185.492188 389.664062 L 185.378906 389.800781 L 185.253906 389.929688 L 185.121094 390.058594 L 184.976562 390.175781 L 184.828125 390.289062 L 184.667969 390.398438 L 184.5 390.503906 L 184.324219 390.601562 L 184.140625 390.691406 L 183.949219 390.769531 L 183.75 390.84375 L 183.542969 390.90625 L 183.324219 390.957031 L 183.101562 391 L 182.871094 391.03125 L 182.628906 391.054688 L 182.382812 391.070312 Z M 182.125 391.074219 "/>
<path fill-rule="nonzero" fill="rgb(10.196078%, 10.196078%, 10.196078%)" fill-opacity="1" d="M 306.078125 390.777344 L 306.078125 374.300781 L 309.902344 374.300781 L 310.40625 374.3125 L 310.886719 374.339844 L 311.351562 374.394531 L 311.800781 374.464844 L 312.230469 374.558594 L 312.640625 374.667969 L 313.03125 374.800781 L 313.40625 374.957031 L 313.765625 375.128906 L 314.105469 375.324219 L 314.425781 375.535156 L 314.730469 375.757812 L 315.015625 376 L 315.289062 376.257812 L 315.542969 376.53125 L 315.777344 376.824219 L 315.996094 377.128906 L 316.199219 377.453125 L 316.386719 377.792969 L 316.554688 378.152344 L 316.710938 378.523438 L 316.851562 378.90625 L 316.972656 379.304688 L 317.082031 379.71875 L 317.171875 380.144531 L 317.246094 380.582031 L 317.304688 381.035156 L 317.347656 381.503906 L 317.371094 381.980469 L 317.378906 382.476562 L 317.371094 382.96875 L 317.347656 383.449219 L 317.304688 383.917969 L 317.246094 384.375 L 317.171875 384.820312 L 317.082031 385.25 L 316.972656 385.667969 L 316.851562 386.074219 L 316.710938 386.46875 L 316.554688 386.851562 L 316.386719 387.210938 L 316.199219 387.558594 L 315.996094 387.886719 L 315.777344 388.203125 L 315.542969 388.5 L 315.289062 388.78125 L 315.015625 389.046875 L 314.730469 389.296875 L 314.425781 389.53125 L 314.105469 389.75 L 313.765625 389.945312 L 313.410156 390.121094 L 313.035156 390.273438 L 312.644531 390.40625 L 312.234375 390.519531 L 311.808594 390.613281 L 311.363281 390.683594 L 310.902344 390.734375 L 310.425781 390.765625 L 309.929688 390.777344 Z M 307.230469 389.800781 L 309.777344 389.800781 L 310.21875 389.792969 L 310.644531 389.761719 L 311.050781 389.71875 L 311.441406 389.652344 L 311.816406 389.570312 L 312.171875 389.46875 L 312.511719 389.347656 L 312.835938 389.207031 L 313.140625 389.050781 L 313.429688 388.875 L 313.707031 388.679688 L 313.96875 388.46875 L 314.214844 388.242188 L 314.445312 388.003906 L 314.660156 387.75 L 314.859375 387.484375 L 315.042969 387.203125 L 315.210938 386.90625 L 315.367188 386.597656 L 315.503906 386.277344 L 315.632812 385.941406 L 315.746094 385.59375 L 315.847656 385.242188 L 315.9375 384.875 L 316.011719 384.5 L 316.070312 384.117188 L 316.117188 383.71875 L 316.152344 383.316406 L 316.171875 382.902344 L 316.179688 382.476562 L 316.171875 382.050781 L 316.152344 381.636719 L 316.117188 381.234375 L 316.070312 380.84375 L 316.011719 380.464844 L 315.9375 380.09375 L 315.847656 379.734375 L 315.746094 379.386719 L 315.632812 379.050781 L 315.503906 378.726562 L 315.367188 378.40625 L 315.210938 378.105469 L 315.042969 377.816406 L 314.859375 377.542969 L 314.660156 377.28125 L 314.445312 377.035156 L 314.214844 376.804688 L 313.96875 376.589844 L 313.707031 376.386719 L 313.429688 376.199219 L 313.140625 376.023438 L 312.835938 375.867188 L 312.511719 375.730469 L 312.171875 375.609375 L 311.816406 375.507812 L 311.441406 375.421875 L 311.050781 375.359375 L 310.644531 375.3125 L 310.21875 375.285156 L 309.777344 375.277344 L 307.230469 375.277344 Z M 307.230469 389.800781 "/>
<path fill-rule="nonzero" fill="rgb(10.196078%, 10.196078%, 10.196078%)" fill-opacity="1" d="M 325.605469 391.074219 L 325.300781 391.066406 L 325.003906 391.046875 L 324.710938 391.007812 L 324.421875 390.957031 L 324.140625 390.886719 L 323.863281 390.804688 L 323.589844 390.707031 L 323.324219 390.59375 L 323.0625 390.46875 L 322.804688 390.324219 L 322.558594 390.167969 L 322.324219 390 L 322.097656 389.816406 L 321.882812 389.621094 L 321.679688 389.414062 L 321.484375 389.191406 L 321.296875 388.957031 L 321.125 388.710938 L 320.957031 388.449219 L 320.804688 388.175781 L 320.660156 387.886719 L 320.535156 387.585938 L 320.421875 387.273438 L 320.324219 386.953125 L 320.242188 386.621094 L 320.171875 386.277344 L 320.121094 385.921875 L 320.082031 385.558594 L 320.0625 385.183594 L 320.054688 384.800781 L 320.0625 384.410156 L 320.082031 384.035156 L 320.121094 383.667969 L 320.171875 383.3125 L 320.242188 382.96875 L 320.324219 382.636719 L 320.421875 382.316406 L 320.535156 382.007812 L 320.660156 381.710938 L 320.804688 381.425781 L 320.957031 381.148438 L 321.121094 380.882812 L 321.292969 380.632812 L 321.476562 380.394531 L 321.667969 380.167969 L 321.867188 379.957031 L 322.074219 379.761719 L 322.292969 379.578125 L 322.519531 379.40625 L 322.753906 379.25 L 322.996094 379.101562 L 323.238281 378.972656 L 323.484375 378.855469 L 323.734375 378.753906 L 323.984375 378.667969 L 324.238281 378.597656 L 324.496094 378.546875 L 324.753906 378.507812 L 325.015625 378.484375 L 325.277344 378.476562 L 325.699219 378.488281 L 326.101562 378.535156 L 326.484375 378.605469 L 326.851562 378.707031 L 327.199219 378.839844 L 327.527344 378.996094 L 327.835938 379.1875 L 328.125 379.402344 L 328.398438 379.648438 L 328.652344 379.925781 L 328.886719 380.226562 L 329.09375 380.554688 L 329.277344 380.902344 L 329.4375 381.277344 L 329.574219 381.675781 L 329.683594 382.097656 L 329.769531 382.542969 L 329.828125 383.011719 L 329.867188 383.507812 L 329.878906 384.027344 L 329.878906 384.117188 L 329.875 384.160156 L 329.875 384.207031 L 329.871094 384.25 L 329.871094 384.296875 L 329.867188 384.339844 L 329.863281 384.386719 L 329.859375 384.429688 L 329.855469 384.476562 L 329.851562 384.519531 L 329.851562 384.566406 L 329.847656 384.609375 L 329.847656 384.65625 L 329.839844 384.699219 L 329.835938 384.746094 L 329.828125 384.789062 L 329.820312 384.835938 L 329.8125 384.878906 L 329.804688 384.925781 L 321.179688 384.925781 L 321.1875 385.222656 L 321.210938 385.511719 L 321.242188 385.796875 L 321.28125 386.074219 L 321.335938 386.34375 L 321.398438 386.609375 L 321.472656 386.867188 L 321.554688 387.117188 L 321.648438 387.363281 L 321.753906 387.601562 L 321.871094 387.832031 L 322 388.050781 L 322.136719 388.261719 L 322.28125 388.460938 L 322.433594 388.652344 L 322.597656 388.832031 L 322.765625 389 L 322.945312 389.160156 L 323.132812 389.308594 L 323.328125 389.449219 L 323.535156 389.578125 L 323.75 389.695312 L 323.972656 389.792969 L 324.199219 389.882812 L 324.433594 389.957031 L 324.675781 390.015625 L 324.921875 390.066406 L 325.175781 390.097656 L 325.4375 390.117188 L 325.703125 390.125 L 325.898438 390.121094 L 326.085938 390.113281 L 326.269531 390.097656 L 326.453125 390.078125 L 326.628906 390.050781 L 326.800781 390.015625 L 326.972656 389.976562 L 327.136719 389.933594 L 327.296875 389.882812 L 327.453125 389.824219 L 327.613281 389.765625 L 327.769531 389.699219 L 328.074219 389.558594 L 328.222656 389.480469 L 328.367188 389.402344 L 328.511719 389.320312 L 328.652344 389.234375 L 328.792969 389.144531 L 328.929688 389.050781 L 329.378906 389.902344 L 329.238281 389.984375 L 329.089844 390.070312 L 328.941406 390.152344 L 328.789062 390.234375 L 328.636719 390.3125 L 328.476562 390.390625 L 328.3125 390.472656 L 328.148438 390.546875 L 327.976562 390.625 L 327.804688 390.699219 L 327.625 390.773438 L 327.4375 390.835938 L 327.238281 390.890625 L 327.03125 390.941406 L 326.816406 390.980469 L 326.589844 391.015625 L 326.359375 391.042969 L 326.117188 391.058594 L 325.863281 391.070312 Z M 321.179688 384.027344 L 328.828125 384.027344 L 328.820312 383.578125 L 328.789062 383.152344 L 328.742188 382.75 L 328.675781 382.371094 L 328.589844 382.011719 L 328.488281 381.679688 L 328.363281 381.367188 L 328.222656 381.082031 L 328.058594 380.816406 L 327.878906 380.574219 L 327.683594 380.355469 L 327.472656 380.160156 L 327.246094 379.988281 L 327.011719 379.839844 L 326.761719 379.714844 L 326.496094 379.609375 L 326.21875 379.527344 L 325.925781 379.472656 L 325.621094 379.4375 L 325.304688 379.425781 L 325.101562 379.429688 L 324.898438 379.449219 L 324.699219 379.476562 L 324.503906 379.511719 L 324.308594 379.5625 L 324.117188 379.625 L 323.929688 379.695312 L 323.742188 379.777344 L 323.558594 379.871094 L 323.378906 379.976562 L 323.207031 380.089844 L 323.039062 380.214844 L 322.878906 380.347656 L 322.722656 380.492188 L 322.574219 380.644531 L 322.425781 380.804688 L 322.289062 380.976562 L 322.15625 381.160156 L 322.027344 381.351562 L 321.902344 381.550781 L 321.789062 381.757812 L 321.683594 381.976562 L 321.585938 382.203125 L 321.5 382.4375 L 321.421875 382.683594 L 321.355469 382.933594 L 321.296875 383.195312 L 321.246094 383.460938 L 321.207031 383.738281 Z M 321.179688 384.027344 "/>
<path fill-rule="nonzero" fill="rgb(10.196078%, 10.196078%, 10.196078%)" fill-opacity="1" d="M 333.128906 396.199219 L 333.128906 378.777344 L 334.078125 378.777344 L 334.179688 380.277344 L 334.253906 380.277344 L 334.429688 380.136719 L 334.609375 380 L 334.792969 379.867188 L 334.980469 379.738281 L 335.171875 379.613281 L 335.367188 379.488281 L 335.566406 379.367188 L 335.765625 379.25 L 335.96875 379.136719 L 336.179688 379.027344 L 336.390625 378.921875 L 336.601562 378.828125 L 336.8125 378.746094 L 337.027344 378.671875 L 337.242188 378.613281 L 337.457031 378.5625 L 337.671875 378.523438 L 337.890625 378.496094 L 338.109375 378.480469 L 338.328125 378.476562 L 338.796875 378.492188 L 339.242188 378.542969 L 339.660156 378.625 L 340.058594 378.742188 L 340.429688 378.894531 L 340.777344 379.078125 L 341.101562 379.296875 L 341.402344 379.546875 L 341.675781 379.832031 L 341.929688 380.152344 L 342.15625 380.492188 L 342.359375 380.855469 L 342.539062 381.242188 L 342.695312 381.65625 L 342.828125 382.089844 L 342.9375 382.542969 L 343.019531 383.023438 L 343.082031 383.527344 L 343.117188 384.050781 L 343.128906 384.601562 L 343.121094 385 L 343.097656 385.386719 L 343.0625 385.765625 L 343.007812 386.128906 L 342.941406 386.480469 L 342.859375 386.824219 L 342.761719 387.152344 L 342.648438 387.472656 L 342.519531 387.78125 L 342.378906 388.074219 L 342.230469 388.359375 L 342.070312 388.628906 L 341.902344 388.882812 L 341.722656 389.128906 L 341.535156 389.355469 L 341.335938 389.574219 L 341.132812 389.773438 L 340.914062 389.964844 L 340.6875 390.140625 L 340.453125 390.300781 L 340.210938 390.449219 L 339.964844 390.578125 L 339.714844 390.695312 L 339.457031 390.796875 L 339.199219 390.882812 L 338.933594 390.953125 L 338.664062 391.003906 L 338.390625 391.042969 L 338.113281 391.066406 L 337.828125 391.074219 L 337.660156 391.070312 L 337.488281 391.058594 L 337.3125 391.042969 L 337.140625 391.015625 L 336.964844 390.980469 L 336.789062 390.941406 L 336.613281 390.890625 L 336.4375 390.835938 L 336.257812 390.773438 L 336.078125 390.699219 L 335.898438 390.617188 L 335.714844 390.527344 L 335.535156 390.433594 L 335.351562 390.332031 L 335.167969 390.226562 L 334.980469 390.113281 L 334.792969 389.992188 L 334.605469 389.867188 L 334.417969 389.738281 L 334.230469 389.601562 L 334.230469 396.199219 Z M 337.777344 390.101562 L 338.019531 390.09375 L 338.257812 390.074219 L 338.488281 390.039062 L 338.710938 389.988281 L 338.929688 389.925781 L 339.140625 389.847656 L 339.347656 389.757812 L 339.546875 389.652344 L 339.742188 389.535156 L 339.929688 389.402344 L 340.113281 389.253906 L 340.292969 389.097656 L 340.460938 388.933594 L 340.621094 388.757812 L 340.773438 388.570312 L 340.914062 388.371094 L 341.050781 388.164062 L 341.175781 387.945312 L 341.292969 387.714844 L 341.402344 387.476562 L 341.507812 387.222656 L 341.601562 386.960938 L 341.683594 386.691406 L 341.753906 386.414062 L 341.816406 386.132812 L 341.867188 385.839844 L 341.902344 385.542969 L 341.933594 385.234375 L 341.949219 384.921875 L 341.953125 384.601562 L 341.949219 384.308594 L 341.9375 384.023438 L 341.921875 383.746094 L 341.894531 383.472656 L 341.859375 383.207031 L 341.820312 382.949219 L 341.769531 382.695312 L 341.714844 382.449219 L 341.648438 382.207031 L 341.578125 381.976562 L 341.5 381.746094 L 341.410156 381.527344 L 341.3125 381.316406 L 341.203125 381.117188 L 341.085938 380.925781 L 340.957031 380.746094 L 340.820312 380.574219 L 340.675781 380.414062 L 340.519531 380.265625 L 340.355469 380.125 L 340.183594 379.996094 L 340 379.882812 L 339.808594 379.78125 L 339.605469 379.695312 L 339.390625 379.621094 L 339.164062 379.558594 L 338.929688 379.511719 L 338.683594 379.476562 L 338.421875 379.457031 L 338.152344 379.449219 L 337.972656 379.457031 L 337.789062 379.472656 L 337.605469 379.496094 L 337.421875 379.535156 L 337.234375 379.582031 L 337.046875 379.640625 L 336.855469 379.707031 L 336.664062 379.785156 L 336.472656 379.875 L 336.277344 379.976562 L 336.085938 380.078125 L 335.894531 380.195312 L 335.695312 380.316406 L 335.496094 380.449219 L 335.292969 380.589844 L 335.085938 380.738281 L 334.875 380.894531 L 334.664062 381.0625 L 334.445312 381.238281 L 334.230469 381.425781 L 334.230469 388.550781 L 334.433594 388.714844 L 334.632812 388.871094 L 334.832031 389.015625 L 335.027344 389.152344 L 335.222656 389.277344 L 335.414062 389.390625 L 335.601562 389.496094 L 335.789062 389.589844 L 335.972656 389.675781 L 336.152344 389.75 L 336.335938 389.816406 L 336.515625 389.875 L 336.6875 389.929688 L 336.859375 389.972656 L 337.023438 390.011719 L 337.183594 390.042969 L 337.339844 390.070312 L 337.488281 390.085938 L 337.636719 390.097656 Z M 337.777344 390.101562 "/>
<path fill-rule="nonzero" fill="rgb(10.196078%, 10.196078%, 10.196078%)" fill-opacity="1" d="M 351.105469 391.074219 L 350.820312 391.066406 L 350.542969 391.046875 L 350.265625 391.011719 L 349.996094 390.960938 L 349.730469 390.894531 L 349.464844 390.8125 L 349.207031 390.71875 L 348.953125 390.613281 L 348.699219 390.488281 L 348.453125 390.351562 L 348.214844 390.195312 L 347.984375 390.023438 L 347.761719 389.84375 L 347.550781 389.644531 L 347.347656 389.4375 L 347.15625 389.214844 L 346.972656 388.980469 L 346.796875 388.734375 L 346.632812 388.472656 L 346.480469 388.199219 L 346.335938 387.910156 L 346.207031 387.609375 L 346.097656 387.296875 L 346 386.972656 L 345.917969 386.636719 L 345.847656 386.292969 L 345.796875 385.9375 L 345.757812 385.570312 L 345.734375 385.191406 L 345.730469 384.800781 L 345.734375 384.402344 L 345.757812 384.015625 L 345.796875 383.640625 L 345.847656 383.28125 L 345.917969 382.933594 L 346 382.59375 L 346.097656 382.273438 L 346.207031 381.960938 L 346.335938 381.660156 L 346.480469 381.375 L 346.632812 381.097656 L 346.796875 380.832031 L 346.972656 380.582031 L 347.15625 380.347656 L 347.347656 380.125 L 347.550781 379.917969 L 347.761719 379.722656 L 347.984375 379.542969 L 348.214844 379.378906 L 348.453125 379.226562 L 348.699219 379.082031 L 348.953125 378.957031 L 349.207031 378.84375 L 349.464844 378.746094 L 349.730469 378.664062 L 349.996094 378.59375 L 350.265625 378.542969 L 350.542969 378.503906 L 350.820312 378.484375 L 351.105469 378.476562 L 351.390625 378.484375 L 351.675781 378.503906 L 351.953125 378.542969 L 352.226562 378.59375 L 352.496094 378.664062 L 352.761719 378.746094 L 353.023438 378.84375 L 353.28125 378.957031 L 353.53125 379.082031 L 353.777344 379.226562 L 354.019531 379.378906 L 354.25 379.542969 L 354.472656 379.722656 L 354.683594 379.917969 L 354.886719 380.125 L 355.078125 380.347656 L 355.261719 380.582031 L 355.433594 380.832031 L 355.597656 381.097656 L 355.753906 381.375 L 355.894531 381.660156 L 356.023438 381.960938 L 356.136719 382.273438 L 356.234375 382.59375 L 356.316406 382.933594 L 356.382812 383.28125 L 356.4375 383.640625 L 356.472656 384.015625 L 356.496094 384.402344 L 356.503906 384.800781 L 356.496094 385.191406 L 356.472656 385.570312 L 356.4375 385.9375 L 356.382812 386.292969 L 356.316406 386.636719 L 356.234375 386.972656 L 356.136719 387.296875 L 356.023438 387.609375 L 355.894531 387.910156 L 355.753906 388.199219 L 355.597656 388.472656 L 355.433594 388.734375 L 355.261719 388.980469 L 355.078125 389.214844 L 354.886719 389.4375 L 354.683594 389.644531 L 354.472656 389.84375 L 354.25 390.023438 L 354.019531 390.195312 L 353.777344 390.351562 L 353.53125 390.488281 L 353.28125 390.613281 L 353.023438 390.71875 L 352.761719 390.8125 L 352.496094 390.894531 L 352.226562 390.960938 L 351.953125 391.011719 L 351.675781 391.046875 L 351.390625 391.066406 Z M 351.105469 390.101562 L 351.347656 390.09375 L 351.582031 390.074219 L 351.8125 390.039062 L 352.039062 389.992188 L 352.261719 389.933594 L 352.476562 389.859375 L 352.683594 389.769531 L 352.886719 389.667969 L 353.085938 389.554688 L 353.277344 389.425781 L 353.464844 389.285156 L 353.644531 389.136719 L 353.8125 388.976562 L 353.976562 388.804688 L 354.128906 388.625 L 354.273438 388.433594 L 354.414062 388.234375 L 354.542969 388.027344 L 354.664062 387.804688 L 354.777344 387.574219 L 354.886719 387.332031 L 354.984375 387.082031 L 355.070312 386.820312 L 355.148438 386.554688 L 355.210938 386.28125 L 355.261719 386 L 355.300781 385.710938 L 355.332031 385.414062 L 355.347656 385.113281 L 355.355469 384.800781 L 355.347656 384.484375 L 355.332031 384.175781 L 355.300781 383.875 L 355.261719 383.585938 L 355.210938 383.300781 L 355.148438 383.023438 L 355.070312 382.757812 L 354.984375 382.496094 L 354.886719 382.246094 L 354.777344 382 L 354.664062 381.765625 L 354.542969 381.542969 L 354.414062 381.328125 L 354.273438 381.125 L 354.128906 380.933594 L 353.976562 380.75 L 353.8125 380.578125 L 353.644531 380.417969 L 353.464844 380.265625 L 353.277344 380.125 L 353.085938 379.996094 L 352.886719 379.882812 L 352.683594 379.78125 L 352.476562 379.695312 L 352.261719 379.621094 L 352.039062 379.558594 L 351.8125 379.511719 L 351.582031 379.476562 L 351.347656 379.457031 L 351.105469 379.449219 L 350.867188 379.457031 L 350.632812 379.476562 L 350.402344 379.511719 L 350.179688 379.558594 L 349.960938 379.621094 L 349.746094 379.695312 L 349.535156 379.78125 L 349.328125 379.882812 L 349.125 379.996094 L 348.929688 380.125 L 348.742188 380.265625 L 348.566406 380.417969 L 348.394531 380.578125 L 348.234375 380.75 L 348.078125 380.933594 L 347.933594 381.125 L 347.792969 381.328125 L 347.664062 381.542969 L 347.542969 381.765625 L 347.429688 382 L 347.324219 382.246094 L 347.230469 382.496094 L 347.148438 382.757812 L 347.078125 383.023438 L 347.015625 383.300781 L 346.964844 383.585938 L 346.929688 383.875 L 346.902344 384.175781 L 346.882812 384.484375 L 346.878906 384.800781 L 346.882812 385.113281 L 346.902344 385.414062 L 346.929688 385.710938 L 346.964844 386 L 347.015625 386.28125 L 347.078125 386.554688 L 347.148438 386.820312 L 347.230469 387.082031 L 347.324219 387.332031 L 347.429688 387.574219 L 347.542969 387.804688 L 347.664062 388.027344 L 347.792969 388.234375 L 347.933594 388.433594 L 348.078125 388.625 L 348.234375 388.804688 L 348.394531 388.976562 L 348.566406 389.136719 L 348.742188 389.285156 L 348.929688 389.425781 L 349.125 389.554688 L 349.328125 389.667969 L 349.535156 389.769531 L 349.746094 389.859375 L 349.960938 389.933594 L 350.179688 389.992188 L 350.402344 390.039062 L 350.632812 390.074219 L 350.867188 390.09375 Z M 351.105469 390.101562 "/>
<path fill-rule="nonzero" fill="rgb(10.196078%, 10.196078%, 10.196078%)" fill-opacity="1" d="M 360.105469 390.777344 L 360.105469 378.777344 L 361.203125 378.777344 L 361.203125 390.777344 Z M 360.679688 375.875 L 360.601562 375.871094 L 360.523438 375.863281 L 360.449219 375.851562 L 360.378906 375.832031 L 360.308594 375.808594 L 360.242188 375.777344 L 360.179688 375.742188 L 360.117188 375.699219 L 360.058594 375.652344 L 360.003906 375.601562 L 359.953125 375.542969 L 359.90625 375.484375 L 359.863281 375.417969 L 359.828125 375.347656 L 359.796875 375.277344 L 359.773438 375.199219 L 359.753906 375.117188 L 359.738281 375.03125 L 359.730469 374.945312 L 359.730469 374.765625 L 359.738281 374.6875 L 359.753906 374.609375 L 359.773438 374.535156 L 359.796875 374.464844 L 359.828125 374.394531 L 359.863281 374.328125 L 359.90625 374.265625 L 359.953125 374.207031 L 360.003906 374.152344 L 360.058594 374.097656 L 360.117188 374.050781 L 360.242188 373.972656 L 360.308594 373.945312 L 360.378906 373.917969 L 360.449219 373.898438 L 360.523438 373.886719 L 360.601562 373.878906 L 360.679688 373.875 L 360.761719 373.878906 L 360.839844 373.886719 L 360.917969 373.898438 L 360.992188 373.917969 L 361.125 373.972656 L 361.1875 374.011719 L 361.246094 374.050781 L 361.300781 374.097656 L 361.355469 374.152344 L 361.40625 374.207031 L 361.453125 374.265625 L 361.492188 374.328125 L 361.53125 374.394531 L 361.585938 374.535156 L 361.605469 374.609375 L 361.617188 374.6875 L 361.625 374.765625 L 361.628906 374.851562 L 361.625 374.945312 L 361.617188 375.03125 L 361.605469 375.117188 L 361.585938 375.199219 L 361.558594 375.277344 L 361.53125 375.347656 L 361.492188 375.417969 L 361.453125 375.484375 L 361.40625 375.542969 L 361.355469 375.601562 L 361.300781 375.652344 L 361.246094 375.699219 L 361.1875 375.742188 L 361.125 375.777344 L 361.058594 375.808594 L 360.992188 375.832031 L 360.917969 375.851562 L 360.839844 375.863281 L 360.761719 375.871094 Z M 360.679688 375.875 "/>
<path fill-rule="nonzero" fill="rgb(10.196078%, 10.196078%, 10.196078%)" fill-opacity="1" d="M 368.730469 391.074219 L 368.464844 391.070312 L 368.207031 391.054688 L 367.949219 391.03125 L 367.695312 391 L 367.449219 390.957031 L 367.203125 390.90625 L 366.960938 390.84375 L 366.722656 390.769531 L 366.484375 390.691406 L 366.253906 390.601562 L 366.03125 390.5 L 365.816406 390.394531 L 365.609375 390.285156 L 365.40625 390.171875 L 365.210938 390.058594 L 365.019531 389.9375 L 364.839844 389.816406 L 364.660156 389.6875 L 364.492188 389.558594 L 364.328125 389.425781 L 364.980469 388.601562 L 365.132812 388.722656 L 365.292969 388.84375 L 365.453125 388.960938 L 365.613281 389.074219 L 365.777344 389.183594 L 365.945312 389.289062 L 366.113281 389.390625 L 366.28125 389.488281 L 366.453125 389.582031 L 366.628906 389.675781 L 366.808594 389.761719 L 366.996094 389.835938 L 367.191406 389.90625 L 367.398438 389.964844 L 367.609375 390.011719 L 367.832031 390.054688 L 368.0625 390.085938 L 368.300781 390.109375 L 368.546875 390.121094 L 368.804688 390.125 L 369.078125 390.117188 L 369.335938 390.097656 L 369.582031 390.0625 L 369.816406 390.011719 L 370.035156 389.949219 L 370.242188 389.875 L 370.433594 389.78125 L 370.613281 389.675781 L 370.777344 389.558594 L 370.929688 389.425781 L 371.066406 389.277344 L 371.191406 389.125 L 371.296875 388.96875 L 371.394531 388.808594 L 371.472656 388.644531 L 371.539062 388.472656 L 371.589844 388.300781 L 371.625 388.121094 L 371.644531 387.9375 L 371.652344 387.75 L 371.648438 387.601562 L 371.636719 387.460938 L 371.613281 387.324219 L 371.582031 387.191406 L 371.542969 387.0625 L 371.492188 386.941406 L 371.433594 386.824219 L 371.367188 386.710938 L 371.289062 386.601562 L 371.203125 386.5 L 371.113281 386.402344 L 371.015625 386.308594 L 370.914062 386.214844 L 370.808594 386.128906 L 370.699219 386.042969 L 370.464844 385.886719 L 370.339844 385.8125 L 370.210938 385.742188 L 370.078125 385.675781 L 369.949219 385.609375 L 369.816406 385.546875 L 369.683594 385.488281 L 369.550781 385.425781 L 369.417969 385.371094 L 369.28125 385.3125 L 369.007812 385.203125 L 368.867188 385.152344 L 368.730469 385.101562 L 368.371094 384.96875 L 368.011719 384.828125 L 367.835938 384.757812 L 367.65625 384.683594 L 367.480469 384.609375 L 366.953125 384.375 L 366.785156 384.292969 L 366.625 384.207031 L 366.320312 384.019531 L 366.179688 383.917969 L 366.042969 383.8125 L 365.910156 383.707031 L 365.785156 383.589844 L 365.667969 383.472656 L 365.554688 383.351562 L 365.449219 383.214844 L 365.355469 383.074219 L 365.273438 382.925781 L 365.203125 382.769531 L 365.140625 382.605469 L 365.089844 382.433594 L 365.054688 382.257812 L 365.027344 382.070312 L 365.007812 381.875 L 365.003906 381.675781 L 365.011719 381.414062 L 365.042969 381.160156 L 365.089844 380.917969 L 365.160156 380.679688 L 365.246094 380.449219 L 365.355469 380.230469 L 365.480469 380.015625 L 365.628906 379.8125 L 365.792969 379.613281 L 365.980469 379.425781 L 366.1875 379.246094 L 366.414062 379.082031 L 366.65625 378.941406 L 366.917969 378.816406 L 367.199219 378.714844 L 367.492188 378.628906 L 367.808594 378.5625 L 368.140625 378.511719 L 368.488281 378.484375 L 368.855469 378.476562 L 369.046875 378.480469 L 369.242188 378.488281 L 369.433594 378.507812 L 369.621094 378.53125 L 369.808594 378.5625 L 369.996094 378.601562 L 370.183594 378.648438 L 370.367188 378.699219 L 370.546875 378.757812 L 370.730469 378.824219 L 370.910156 378.898438 L 371.085938 378.972656 L 371.257812 379.054688 L 371.425781 379.136719 L 371.585938 379.226562 L 371.738281 379.316406 L 371.890625 379.414062 L 372.03125 379.511719 L 372.171875 379.617188 L 372.304688 379.726562 L 371.703125 380.5 L 371.578125 380.410156 L 371.453125 380.328125 L 371.324219 380.242188 L 371.195312 380.164062 L 370.9375 380.015625 L 370.671875 379.875 L 370.539062 379.8125 L 370.265625 379.6875 L 370.125 379.632812 L 369.976562 379.585938 L 369.828125 379.542969 L 369.671875 379.507812 L 369.511719 379.476562 L 369.347656 379.453125 L 369.179688 379.4375 L 369.007812 379.429688 L 368.828125 379.425781 L 368.554688 379.433594 L 368.296875 379.453125 L 368.054688 379.484375 L 367.824219 379.535156 L 367.609375 379.59375 L 367.410156 379.667969 L 367.222656 379.757812 L 367.050781 379.859375 L 366.894531 379.972656 L 366.753906 380.101562 L 366.628906 380.238281 L 366.519531 380.375 L 366.421875 380.519531 L 366.335938 380.664062 L 366.265625 380.8125 L 366.207031 380.964844 L 366.164062 381.117188 L 366.128906 381.277344 L 366.109375 381.4375 L 366.105469 381.601562 L 366.109375 381.734375 L 366.117188 381.863281 L 366.136719 381.984375 L 366.164062 382.105469 L 366.199219 382.21875 L 366.238281 382.328125 L 366.289062 382.433594 L 366.34375 382.535156 L 366.40625 382.632812 L 366.480469 382.726562 L 366.5625 382.8125 L 366.648438 382.898438 L 366.738281 382.980469 L 366.835938 383.0625 L 366.933594 383.136719 L 367.039062 383.210938 L 367.148438 383.28125 L 367.261719 383.347656 L 367.382812 383.414062 L 367.503906 383.476562 L 367.632812 383.53125 L 368.03125 383.695312 L 368.167969 383.75 L 368.300781 383.804688 L 368.574219 383.914062 L 368.714844 383.96875 L 368.855469 384.027344 L 369.417969 384.238281 L 369.792969 384.386719 L 369.976562 384.464844 L 370.160156 384.539062 L 370.339844 384.617188 L 370.523438 384.695312 L 370.703125 384.777344 L 370.878906 384.859375 L 371.050781 384.945312 L 371.214844 385.039062 L 371.371094 385.140625 L 371.523438 385.246094 L 371.667969 385.355469 L 371.804688 385.46875 L 371.9375 385.589844 L 372.058594 385.71875 L 372.179688 385.851562 L 372.292969 385.992188 L 372.394531 386.140625 L 372.484375 386.300781 L 372.5625 386.46875 L 372.628906 386.652344 L 372.683594 386.839844 L 372.726562 387.039062 L 372.753906 387.25 L 372.773438 387.46875 L 372.777344 387.699219 L 372.773438 387.878906 L 372.757812 388.054688 L 372.734375 388.230469 L 372.703125 388.402344 L 372.660156 388.570312 L 372.609375 388.734375 L 372.546875 388.898438 L 372.476562 389.058594 L 372.394531 389.21875 L 372.304688 389.375 L 372.203125 389.523438 L 372.097656 389.664062 L 371.980469 389.800781 L 371.855469 389.929688 L 371.722656 390.058594 L 371.582031 390.175781 L 371.429688 390.289062 L 371.273438 390.398438 L 371.105469 390.503906 L 370.929688 390.601562 L 370.746094 390.691406 L 370.550781 390.769531 L 370.351562 390.84375 L 370.144531 390.90625 L 369.929688 390.957031 L 369.703125 391 L 369.472656 391.03125 L 369.234375 391.054688 L 368.984375 391.070312 Z M 368.730469 391.074219 "/>
<path fill-rule="nonzero" fill="rgb(0%, 0%, 0%)" fill-opacity="1" d="M 31.242188 188.457031 L 24.035156 188.457031 L 13.449219 193.777344 L 13.449219 192.453125 L 19.011719 189.753906 L 19.207031 189.660156 L 19.398438 189.570312 L 19.59375 189.476562 L 19.785156 189.386719 L 19.976562 189.292969 L 20.167969 189.203125 L 20.359375 189.109375 L 20.550781 189.019531 L 20.738281 188.925781 L 20.929688 188.835938 L 21.117188 188.742188 L 21.691406 188.460938 L 22.277344 188.167969 L 22.476562 188.066406 L 22.671875 187.964844 L 22.871094 187.863281 L 22.871094 187.753906 L 22.671875 187.652344 L 22.476562 187.550781 L 22.277344 187.449219 L 22.082031 187.347656 L 21.886719 187.25 L 21.691406 187.148438 L 21.117188 186.855469 L 20.929688 186.757812 L 20.738281 186.660156 L 20.550781 186.5625 L 20.167969 186.375 L 19.976562 186.285156 L 19.785156 186.191406 L 19.59375 186.101562 L 19.398438 186.011719 L 19.207031 185.925781 L 19.011719 185.839844 L 13.449219 183.136719 L 13.449219 181.871094 L 24.035156 187.214844 L 31.242188 187.214844 Z M 31.242188 188.457031 "/>
</svg>
