<?xml version="1.0" encoding="UTF-8"?>
<svg xmlns="http://www.w3.org/2000/svg" xmlns:xlink="http://www.w3.org/1999/xlink" width="792" height="504" viewBox="0 0 792 504">
<defs>
<clipPath id="clip-0">
<path clip-rule="nonzero" d="M 50.929688 13.449219 L 778.550781 13.449219 L 778.550781 453.070312 L 50.929688 453.070312 Z M 50.929688 13.449219 "/>
</clipPath>
<clipPath id="clip-1">
<path clip-rule="nonzero" d="M 416 13.449219 L 418 13.449219 L 418 453.070312 L 416 453.070312 Z M 416 13.449219 "/>
</clipPath>
</defs>
<rect x="-79.2" y="-50.4" width="950.4" height="604.8" fill="rgb(100%, 100%, 100%)" fill-opacity="1"/>
<rect x="-79.2" y="-50.4" width="950.4" height="604.8" fill="rgb(95.294118%, 95.294118%, 95.294118%)" fill-opacity="1"/>
<path fill="none" stroke-width="2.618947" stroke-linecap="round" stroke-linejoin="round" stroke="rgb(95.294118%, 95.294118%, 95.294118%)" stroke-opacity="1" stroke-miterlimit="10" d="M 0 504 L 792 504 L 792 0 L 0 0 Z M 0 504 "/>
<g clip-path="url(#clip-0)">
<path fill-rule="nonzero" fill="rgb(95.294118%, 95.294118%, 95.294118%)" fill-opacity="1" stroke-width="2.618947" stroke-linecap="round" stroke-linejoin="round" stroke="rgb(95.294118%, 95.294118%, 95.294118%)" stroke-opacity="1" stroke-miterlimit="10" d="M 50.929688 453.070312 L 778.550781 453.070312 L 778.550781 13.449219 L 50.929688 13.449219 Z M 50.929688 453.070312 "/>
</g>
<path fill-rule="nonzero" fill="rgb(56.078431%, 16.470588%, 26.27451%)" fill-opacity="0.8" stroke-width="0.708661" stroke-linecap="round" stroke-linejoin="round" stroke="rgb(56.078431%, 16.470588%, 26.27451%)" stroke-opacity="0.8" stroke-miterlimit="10" d="M 262.300781 362.152344 C 262.300781 366.179688 259.035156 369.441406 255.007812 369.441406 C 250.984375 369.441406 247.71875 366.179688 247.71875 362.152344 C 247.71875 358.128906 250.984375 354.863281 255.007812 354.863281 C 259.035156 354.863281 262.300781 358.128906 262.300781 362.152344 "/>
<path fill-rule="nonzero" fill="rgb(56.078431%, 16.470588%, 26.27451%)" fill-opacity="0.8" stroke-width="0.708661" stroke-linecap="round" stroke-linejoin="round" stroke="rgb(56.078431%, 16.470588%, 26.27451%)" stroke-opacity="0.8" stroke-miterlimit="10" d="M 482.453125 128.25 C 482.453125 132.277344 479.191406 135.539062 475.164062 135.539062 C 471.136719 135.539062 467.875 132.277344 467.875 128.25 C 467.875 124.222656 471.136719 120.960938 475.164062 120.960938 C 479.191406 120.960938 482.453125 124.222656 482.453125 128.25 "/>
<path fill-rule="nonzero" fill="rgb(56.078431%, 16.470588%, 26.27451%)" fill-opacity="0.8" stroke-width="0.708661" stroke-linecap="round" stroke-linejoin="round" stroke="rgb(56.078431%, 16.470588%, 26.27451%)" stroke-opacity="0.8" stroke-miterlimit="10" d="M 367.839844 277.730469 C 367.839844 281.753906 364.578125 285.019531 360.550781 285.019531 C 356.523438 285.019531 353.261719 281.753906 353.261719 277.730469 C 353.261719 273.703125 356.523438 270.441406 360.550781 270.441406 C 364.578125 270.441406 367.839844 273.703125 367.839844 277.730469 "/>
<path fill-rule="nonzero" fill="rgb(56.078431%, 16.470588%, 26.27451%)" fill-opacity="0.8" stroke-width="0.708661" stroke-linecap="round" stroke-linejoin="round" stroke="rgb(56.078431%, 16.470588%, 26.27451%)" stroke-opacity="0.8" stroke-miterlimit="10" d="M 344.886719 320.96875 C 344.886719 324.996094 341.625 328.261719 337.597656 328.261719 C 333.570312 328.261719 330.308594 324.996094 330.308594 320.96875 C 330.308594 316.945312 333.570312 313.679688 337.597656 313.679688 C 341.625 313.679688 344.886719 316.945312 344.886719 320.96875 "/>
<path fill-rule="nonzero" fill="rgb(56.078431%, 16.470588%, 26.27451%)" fill-opacity="0.8" stroke-width="0.708661" stroke-linecap="round" stroke-linejoin="round" stroke="rgb(56.078431%, 16.470588%, 26.27451%)" stroke-opacity="0.8" stroke-miterlimit="10" d="M 207.398438 323.402344 C 207.398438 327.429688 204.136719 330.691406 200.109375 330.691406 C 196.082031 330.691406 192.820312 327.429688 192.820312 323.402344 C 192.820312 319.375 196.082031 316.113281 200.109375 316.113281 C 204.136719 316.113281 207.398438 319.375 207.398438 323.402344 "/>
<path fill-rule="nonzero" fill="rgb(56.078431%, 16.470588%, 26.27451%)" fill-opacity="0.8" stroke-width="0.708661" stroke-linecap="round" stroke-linejoin="round" stroke="rgb(56.078431%, 16.470588%, 26.27451%)" stroke-opacity="0.8" stroke-miterlimit="10" d="M 413.738281 251.90625 C 413.738281 255.933594 410.476562 259.195312 406.449219 259.195312 C 402.421875 259.195312 399.160156 255.933594 399.160156 251.90625 C 399.160156 247.882812 402.421875 244.617188 406.449219 244.617188 C 410.476562 244.617188 413.738281 247.882812 413.738281 251.90625 "/>
<path fill-rule="nonzero" fill="rgb(56.078431%, 16.470588%, 26.27451%)" fill-opacity="0.8" stroke-width="0.708661" stroke-linecap="round" stroke-linejoin="round" stroke="rgb(56.078431%, 16.470588%, 26.27451%)" stroke-opacity="0.8" stroke-miterlimit="10" d="M 245.34375 217.878906 C 245.34375 221.90625 242.078125 225.167969 238.054688 225.167969 C 234.027344 225.167969 230.765625 221.90625 230.765625 217.878906 C 230.765625 213.855469 234.027344 210.589844 238.054688 210.589844 C 242.078125 210.589844 245.34375 213.855469 245.34375 217.878906 "/>
<path fill-rule="nonzero" fill="rgb(56.078431%, 16.470588%, 26.27451%)" fill-opacity="0.8" stroke-width="0.708661" stroke-linecap="round" stroke-linejoin="round" stroke="rgb(56.078431%, 16.470588%, 26.27451%)" stroke-opacity="0.8" stroke-miterlimit="10" d="M 337.449219 211.722656 C 337.449219 215.746094 334.183594 219.011719 330.160156 219.011719 C 326.132812 219.011719 322.867188 215.746094 322.867188 211.722656 C 322.867188 207.695312 326.132812 204.429688 330.160156 204.429688 C 334.183594 204.429688 337.449219 207.695312 337.449219 211.722656 "/>
<path fill-rule="nonzero" fill="rgb(56.078431%, 16.470588%, 26.27451%)" fill-opacity="0.8" stroke-width="0.708661" stroke-linecap="round" stroke-linejoin="round" stroke="rgb(56.078431%, 16.470588%, 26.27451%)" stroke-opacity="0.8" stroke-miterlimit="10" d="M 633.152344 199.59375 C 633.152344 203.617188 629.886719 206.882812 625.859375 206.882812 C 621.835938 206.882812 618.570312 203.617188 618.570312 199.59375 C 618.570312 195.566406 621.835938 192.304688 625.859375 192.304688 C 629.886719 192.304688 633.152344 195.566406 633.152344 199.59375 "/>
<path fill-rule="nonzero" fill="rgb(56.078431%, 16.470588%, 26.27451%)" fill-opacity="0.8" stroke-width="0.708661" stroke-linecap="round" stroke-linejoin="round" stroke="rgb(56.078431%, 16.470588%, 26.27451%)" stroke-opacity="0.8" stroke-miterlimit="10" d="M 293.039062 263.753906 C 293.039062 267.78125 289.773438 271.042969 285.75 271.042969 C 281.722656 271.042969 278.460938 267.78125 278.460938 263.753906 C 278.460938 259.726562 281.722656 256.464844 285.75 256.464844 C 289.773438 256.464844 293.039062 259.726562 293.039062 263.753906 "/>
<path fill-rule="nonzero" fill="rgb(56.078431%, 16.470588%, 26.27451%)" fill-opacity="0.8" stroke-width="0.708661" stroke-linecap="round" stroke-linejoin="round" stroke="rgb(56.078431%, 16.470588%, 26.27451%)" stroke-opacity="0.8" stroke-miterlimit="10" d="M 562.359375 211.152344 C 562.359375 215.175781 559.097656 218.441406 555.070312 218.441406 C 551.042969 218.441406 547.78125 215.175781 547.78125 211.152344 C 547.78125 207.125 551.042969 203.859375 555.070312 203.859375 C 559.097656 203.859375 562.359375 207.125 562.359375 211.152344 "/>
<path fill-rule="nonzero" fill="rgb(56.078431%, 16.470588%, 26.27451%)" fill-opacity="0.8" stroke-width="0.708661" stroke-linecap="round" stroke-linejoin="round" stroke="rgb(56.078431%, 16.470588%, 26.27451%)" stroke-opacity="0.8" stroke-miterlimit="10" d="M 411.339844 300.871094 C 411.339844 304.898438 408.078125 308.164062 404.050781 308.164062 C 400.027344 308.164062 396.761719 304.898438 396.761719 300.871094 C 396.761719 296.847656 400.027344 293.582031 404.050781 293.582031 C 408.078125 293.582031 411.339844 296.847656 411.339844 300.871094 "/>
<path fill-rule="nonzero" fill="rgb(56.078431%, 16.470588%, 26.27451%)" fill-opacity="0.8" stroke-width="0.708661" stroke-linecap="round" stroke-linejoin="round" stroke="rgb(56.078431%, 16.470588%, 26.27451%)" stroke-opacity="0.8" stroke-miterlimit="10" d="M 542.203125 285.898438 C 542.203125 289.925781 538.941406 293.191406 534.914062 293.191406 C 530.886719 293.191406 527.625 289.925781 527.625 285.898438 C 527.625 281.875 530.886719 278.609375 534.914062 278.609375 C 538.941406 278.609375 542.203125 281.875 542.203125 285.898438 "/>
<path fill-rule="nonzero" fill="rgb(56.078431%, 16.470588%, 26.27451%)" fill-opacity="0.8" stroke-width="0.708661" stroke-linecap="round" stroke-linejoin="round" stroke="rgb(56.078431%, 16.470588%, 26.27451%)" stroke-opacity="0.8" stroke-miterlimit="10" d="M 492.53125 74.25 C 492.53125 78.277344 489.265625 81.539062 485.238281 81.539062 C 481.214844 81.539062 477.949219 78.277344 477.949219 74.25 C 477.949219 70.226562 481.214844 66.960938 485.238281 66.960938 C 489.265625 66.960938 492.53125 70.226562 492.53125 74.25 "/>
<path fill-rule="nonzero" fill="rgb(56.078431%, 16.470588%, 26.27451%)" fill-opacity="0.8" stroke-width="0.708661" stroke-linecap="round" stroke-linejoin="round" stroke="rgb(56.078431%, 16.470588%, 26.27451%)" stroke-opacity="0.8" stroke-miterlimit="10" d="M 448.039062 185.425781 C 448.039062 189.453125 444.777344 192.714844 440.75 192.714844 C 436.722656 192.714844 433.460938 189.453125 433.460938 185.425781 C 433.460938 181.402344 436.722656 178.136719 440.75 178.136719 C 444.777344 178.136719 448.039062 181.402344 448.039062 185.425781 "/>
<path fill-rule="nonzero" fill="rgb(56.078431%, 16.470588%, 26.27451%)" fill-opacity="0.8" stroke-width="0.708661" stroke-linecap="round" stroke-linejoin="round" stroke="rgb(56.078431%, 16.470588%, 26.27451%)" stroke-opacity="0.8" stroke-miterlimit="10" d="M 278.164062 369.828125 C 278.164062 373.855469 274.898438 377.121094 270.875 377.121094 C 266.847656 377.121094 263.582031 373.855469 263.582031 369.828125 C 263.582031 365.804688 266.847656 362.539062 270.875 362.539062 C 274.898438 362.539062 278.164062 365.804688 278.164062 369.828125 "/>
<path fill-rule="nonzero" fill="rgb(56.078431%, 16.470588%, 26.27451%)" fill-opacity="0.8" stroke-width="0.708661" stroke-linecap="round" stroke-linejoin="round" stroke="rgb(56.078431%, 16.470588%, 26.27451%)" stroke-opacity="0.8" stroke-miterlimit="10" d="M 230.59375 341.53125 C 230.59375 345.558594 227.332031 348.820312 223.304688 348.820312 C 219.28125 348.820312 216.015625 345.558594 216.015625 341.53125 C 216.015625 337.503906 219.28125 334.242188 223.304688 334.242188 C 227.332031 334.242188 230.59375 337.503906 230.59375 341.53125 "/>
<path fill-rule="nonzero" fill="rgb(56.078431%, 16.470588%, 26.27451%)" fill-opacity="0.8" stroke-width="0.708661" stroke-linecap="round" stroke-linejoin="round" stroke="rgb(56.078431%, 16.470588%, 26.27451%)" stroke-opacity="0.8" stroke-miterlimit="10" d="M 190.894531 394.386719 C 190.894531 398.414062 187.632812 401.675781 183.605469 401.675781 C 179.582031 401.675781 176.316406 398.414062 176.316406 394.386719 C 176.316406 390.363281 179.582031 387.097656 183.605469 387.097656 C 187.632812 387.097656 190.894531 390.363281 190.894531 394.386719 "/>
<path fill-rule="nonzero" fill="rgb(56.078431%, 16.470588%, 26.27451%)" fill-opacity="0.8" stroke-width="0.708661" stroke-linecap="round" stroke-linejoin="round" stroke="rgb(56.078431%, 16.470588%, 26.27451%)" stroke-opacity="0.8" stroke-miterlimit="10" d="M 450.765625 74.269531 C 450.765625 78.296875 447.5 81.558594 443.472656 81.558594 C 439.449219 81.558594 436.183594 78.296875 436.183594 74.269531 C 436.183594 70.242188 439.449219 66.980469 443.472656 66.980469 C 447.5 66.980469 450.765625 70.242188 450.765625 74.269531 "/>
<path fill-rule="nonzero" fill="rgb(56.078431%, 16.470588%, 26.27451%)" fill-opacity="0.8" stroke-width="0.708661" stroke-linecap="round" stroke-linejoin="round" stroke="rgb(56.078431%, 16.470588%, 26.27451%)" stroke-opacity="0.8" stroke-miterlimit="10" d="M 208.34375 216.246094 C 208.34375 220.273438 205.078125 223.539062 201.054688 223.539062 C 197.027344 223.539062 193.761719 220.273438 193.761719 216.246094 C 193.761719 212.222656 197.027344 208.957031 201.054688 208.957031 C 205.078125 208.957031 208.34375 212.222656 208.34375 216.246094 "/>
<path fill-rule="nonzero" fill="rgb(56.078431%, 16.470588%, 26.27451%)" fill-opacity="0.8" stroke-width="0.708661" stroke-linecap="round" stroke-linejoin="round" stroke="rgb(56.078431%, 16.470588%, 26.27451%)" stroke-opacity="0.8" stroke-miterlimit="10" d="M 312.335938 290.40625 C 312.335938 294.429688 309.074219 297.695312 305.046875 297.695312 C 301.019531 297.695312 297.757812 294.429688 297.757812 290.40625 C 297.757812 286.378906 301.019531 283.117188 305.046875 283.117188 C 309.074219 283.117188 312.335938 286.378906 312.335938 290.40625 "/>
<path fill-rule="nonzero" fill="rgb(56.078431%, 16.470588%, 26.27451%)" fill-opacity="0.8" stroke-width="0.708661" stroke-linecap="round" stroke-linejoin="round" stroke="rgb(56.078431%, 16.470588%, 26.27451%)" stroke-opacity="0.8" stroke-miterlimit="10" d="M 365.699219 216.847656 C 365.699219 220.875 362.4375 224.136719 358.410156 224.136719 C 354.386719 224.136719 351.121094 220.875 351.121094 216.847656 C 351.121094 212.820312 354.386719 209.558594 358.410156 209.558594 C 362.4375 209.558594 365.699219 212.820312 365.699219 216.847656 "/>
<path fill-rule="nonzero" fill="rgb(56.078431%, 16.470588%, 26.27451%)" fill-opacity="0.8" stroke-width="0.708661" stroke-linecap="round" stroke-linejoin="round" stroke="rgb(56.078431%, 16.470588%, 26.27451%)" stroke-opacity="0.8" stroke-miterlimit="10" d="M 275.605469 317.214844 C 275.605469 321.242188 272.339844 324.507812 268.3125 324.507812 C 264.289062 324.507812 261.023438 321.242188 261.023438 317.214844 C 261.023438 313.191406 264.289062 309.925781 268.3125 309.925781 C 272.339844 309.925781 275.605469 313.191406 275.605469 317.214844 "/>
<path fill-rule="nonzero" fill="rgb(56.078431%, 16.470588%, 26.27451%)" fill-opacity="0.8" stroke-width="0.708661" stroke-linecap="round" stroke-linejoin="round" stroke="rgb(56.078431%, 16.470588%, 26.27451%)" stroke-opacity="0.8" stroke-miterlimit="10" d="M 477.5625 271.429688 C 477.5625 275.453125 474.296875 278.71875 470.273438 278.71875 C 466.246094 278.71875 462.980469 275.453125 462.980469 271.429688 C 462.980469 267.402344 466.246094 264.140625 470.273438 264.140625 C 474.296875 264.140625 477.5625 267.402344 477.5625 271.429688 "/>
<path fill-rule="nonzero" fill="rgb(56.078431%, 16.470588%, 26.27451%)" fill-opacity="0.8" stroke-width="0.708661" stroke-linecap="round" stroke-linejoin="round" stroke="rgb(56.078431%, 16.470588%, 26.27451%)" stroke-opacity="0.8" stroke-miterlimit="10" d="M 441.730469 269.992188 C 441.730469 274.019531 438.46875 277.28125 434.441406 277.28125 C 430.414062 277.28125 427.152344 274.019531 427.152344 269.992188 C 427.152344 265.964844 430.414062 262.703125 434.441406 262.703125 C 438.46875 262.703125 441.730469 265.964844 441.730469 269.992188 "/>
<path fill-rule="nonzero" fill="rgb(56.078431%, 16.470588%, 26.27451%)" fill-opacity="0.8" stroke-width="0.708661" stroke-linecap="round" stroke-linejoin="round" stroke="rgb(56.078431%, 16.470588%, 26.27451%)" stroke-opacity="0.8" stroke-miterlimit="10" d="M 205.070312 193.988281 C 205.070312 198.011719 201.804688 201.277344 197.78125 201.277344 C 193.753906 201.277344 190.488281 198.011719 190.488281 193.988281 C 190.488281 189.960938 193.753906 186.699219 197.78125 186.699219 C 201.804688 186.699219 205.070312 189.960938 205.070312 193.988281 "/>
<path fill-rule="nonzero" fill="rgb(56.078431%, 16.470588%, 26.27451%)" fill-opacity="0.8" stroke-width="0.708661" stroke-linecap="round" stroke-linejoin="round" stroke="rgb(56.078431%, 16.470588%, 26.27451%)" stroke-opacity="0.8" stroke-miterlimit="10" d="M 407.757812 244.027344 C 407.757812 248.050781 404.492188 251.316406 400.46875 251.316406 C 396.441406 251.316406 393.179688 248.050781 393.179688 244.027344 C 393.179688 240 396.441406 236.734375 400.46875 236.734375 C 404.492188 236.734375 407.757812 240 407.757812 244.027344 "/>
<path fill-rule="nonzero" fill="rgb(56.078431%, 16.470588%, 26.27451%)" fill-opacity="0.8" stroke-width="0.708661" stroke-linecap="round" stroke-linejoin="round" stroke="rgb(56.078431%, 16.470588%, 26.27451%)" stroke-opacity="0.8" stroke-miterlimit="10" d="M 752.765625 117.039062 C 752.765625 121.066406 749.503906 124.328125 745.476562 124.328125 C 741.449219 124.328125 738.1875 121.066406 738.1875 117.039062 C 738.1875 113.011719 741.449219 109.75 745.476562 109.75 C 749.503906 109.75 752.765625 113.011719 752.765625 117.039062 "/>
<path fill-rule="nonzero" fill="rgb(56.078431%, 16.470588%, 26.27451%)" fill-opacity="0.8" stroke-width="0.708661" stroke-linecap="round" stroke-linejoin="round" stroke="rgb(56.078431%, 16.470588%, 26.27451%)" stroke-opacity="0.8" stroke-miterlimit="10" d="M 526.75 183.8125 C 526.75 187.839844 523.484375 191.101562 519.460938 191.101562 C 515.433594 191.101562 512.171875 187.839844 512.171875 183.8125 C 512.171875 179.785156 515.433594 176.523438 519.460938 176.523438 C 523.484375 176.523438 526.75 179.785156 526.75 183.8125 "/>
<path fill-rule="nonzero" fill="rgb(56.078431%, 16.470588%, 26.27451%)" fill-opacity="0.8" stroke-width="0.708661" stroke-linecap="round" stroke-linejoin="round" stroke="rgb(56.078431%, 16.470588%, 26.27451%)" stroke-opacity="0.8" stroke-miterlimit="10" d="M 433.371094 146.734375 C 433.371094 150.757812 430.109375 154.023438 426.082031 154.023438 C 422.054688 154.023438 418.792969 150.757812 418.792969 146.734375 C 418.792969 142.707031 422.054688 139.441406 426.082031 139.441406 C 430.109375 139.441406 433.371094 142.707031 433.371094 146.734375 "/>
<path fill-rule="nonzero" fill="rgb(56.078431%, 16.470588%, 26.27451%)" fill-opacity="0.8" stroke-width="0.708661" stroke-linecap="round" stroke-linejoin="round" stroke="rgb(56.078431%, 16.470588%, 26.27451%)" stroke-opacity="0.8" stroke-miterlimit="10" d="M 327.828125 302.550781 C 327.828125 306.578125 324.5625 309.839844 320.539062 309.839844 C 316.511719 309.839844 313.246094 306.578125 313.246094 302.550781 C 313.246094 298.523438 316.511719 295.261719 320.539062 295.261719 C 324.5625 295.261719 327.828125 298.523438 327.828125 302.550781 "/>
<path fill-rule="nonzero" fill="rgb(56.078431%, 16.470588%, 26.27451%)" fill-opacity="0.8" stroke-width="0.708661" stroke-linecap="round" stroke-linejoin="round" stroke="rgb(56.078431%, 16.470588%, 26.27451%)" stroke-opacity="0.8" stroke-miterlimit="10" d="M 681.480469 33.433594 C 681.480469 37.457031 678.214844 40.722656 674.191406 40.722656 C 670.164062 40.722656 666.898438 37.457031 666.898438 33.433594 C 666.898438 29.40625 670.164062 26.144531 674.191406 26.144531 C 678.214844 26.144531 681.480469 29.40625 681.480469 33.433594 "/>
<path fill-rule="nonzero" fill="rgb(56.078431%, 16.470588%, 26.27451%)" fill-opacity="0.8" stroke-width="0.708661" stroke-linecap="round" stroke-linejoin="round" stroke="rgb(56.078431%, 16.470588%, 26.27451%)" stroke-opacity="0.8" stroke-miterlimit="10" d="M 91.546875 376.164062 C 91.546875 380.191406 88.28125 383.453125 84.257812 383.453125 C 80.230469 383.453125 76.96875 380.191406 76.96875 376.164062 C 76.96875 372.136719 80.230469 368.875 84.257812 368.875 C 88.28125 368.875 91.546875 372.136719 91.546875 376.164062 "/>
<path fill-rule="nonzero" fill="rgb(56.078431%, 16.470588%, 26.27451%)" fill-opacity="0.8" stroke-width="0.708661" stroke-linecap="round" stroke-linejoin="round" stroke="rgb(56.078431%, 16.470588%, 26.27451%)" stroke-opacity="0.8" stroke-miterlimit="10" d="M 592.398438 228.617188 C 592.398438 232.644531 589.136719 235.90625 585.109375 235.90625 C 581.082031 235.90625 577.820312 232.644531 577.820312 228.617188 C 577.820312 224.59375 581.082031 221.328125 585.109375 221.328125 C 589.136719 221.328125 592.398438 224.59375 592.398438 228.617188 "/>
<path fill-rule="nonzero" fill="rgb(56.078431%, 16.470588%, 26.27451%)" fill-opacity="0.8" stroke-width="0.708661" stroke-linecap="round" stroke-linejoin="round" stroke="rgb(56.078431%, 16.470588%, 26.27451%)" stroke-opacity="0.8" stroke-miterlimit="10" d="M 95.359375 433.089844 C 95.359375 437.113281 92.09375 440.378906 88.066406 440.378906 C 84.042969 440.378906 80.777344 437.113281 80.777344 433.089844 C 80.777344 429.0625 84.042969 425.796875 88.066406 425.796875 C 92.09375 425.796875 95.359375 429.0625 95.359375 433.089844 "/>
<path fill-rule="nonzero" fill="rgb(56.078431%, 16.470588%, 26.27451%)" fill-opacity="0.8" stroke-width="0.708661" stroke-linecap="round" stroke-linejoin="round" stroke="rgb(56.078431%, 16.470588%, 26.27451%)" stroke-opacity="0.8" stroke-miterlimit="10" d="M 583.714844 221.226562 C 583.714844 225.253906 580.449219 228.519531 576.421875 228.519531 C 572.398438 228.519531 569.132812 225.253906 569.132812 221.226562 C 569.132812 217.203125 572.398438 213.9375 576.421875 213.9375 C 580.449219 213.9375 583.714844 217.203125 583.714844 221.226562 "/>
<path fill-rule="nonzero" fill="rgb(56.078431%, 16.470588%, 26.27451%)" fill-opacity="0.8" stroke-width="0.708661" stroke-linecap="round" stroke-linejoin="round" stroke="rgb(56.078431%, 16.470588%, 26.27451%)" stroke-opacity="0.8" stroke-miterlimit="10" d="M 364.3125 212.152344 C 364.3125 216.175781 361.046875 219.441406 357.023438 219.441406 C 352.996094 219.441406 349.730469 216.175781 349.730469 212.152344 C 349.730469 208.125 352.996094 204.863281 357.023438 204.863281 C 361.046875 204.863281 364.3125 208.125 364.3125 212.152344 "/>
<path fill-rule="nonzero" fill="rgb(56.078431%, 16.470588%, 26.27451%)" fill-opacity="0.8" stroke-width="0.708661" stroke-linecap="round" stroke-linejoin="round" stroke="rgb(56.078431%, 16.470588%, 26.27451%)" stroke-opacity="0.8" stroke-miterlimit="10" d="M 303.152344 271.054688 C 303.152344 275.078125 299.890625 278.34375 295.863281 278.34375 C 291.835938 278.34375 288.574219 275.078125 288.574219 271.054688 C 288.574219 267.027344 291.835938 263.765625 295.863281 263.765625 C 299.890625 263.765625 303.152344 267.027344 303.152344 271.054688 "/>
<path fill-rule="nonzero" fill="rgb(56.078431%, 16.470588%, 26.27451%)" fill-opacity="0.8" stroke-width="0.708661" stroke-linecap="round" stroke-linejoin="round" stroke="rgb(56.078431%, 16.470588%, 26.27451%)" stroke-opacity="0.8" stroke-miterlimit="10" d="M 91.292969 394.421875 C 91.292969 398.449219 88.027344 401.710938 84.003906 401.710938 C 79.976562 401.710938 76.714844 398.449219 76.714844 394.421875 C 76.714844 390.398438 79.976562 387.132812 84.003906 387.132812 C 88.027344 387.132812 91.292969 390.398438 91.292969 394.421875 "/>
<path fill-rule="nonzero" fill="rgb(56.078431%, 16.470588%, 26.27451%)" fill-opacity="0.8" stroke-width="0.708661" stroke-linecap="round" stroke-linejoin="round" stroke="rgb(56.078431%, 16.470588%, 26.27451%)" stroke-opacity="0.8" stroke-miterlimit="10" d="M 580.558594 232.164062 C 580.558594 236.1875 577.292969 239.453125 573.265625 239.453125 C 569.242188 239.453125 565.976562 236.1875 565.976562 232.164062 C 565.976562 228.136719 569.242188 224.875 573.265625 224.875 C 577.292969 224.875 580.558594 228.136719 580.558594 232.164062 "/>
<path fill-rule="nonzero" fill="rgb(56.078431%, 16.470588%, 26.27451%)" fill-opacity="0.8" stroke-width="0.708661" stroke-linecap="round" stroke-linejoin="round" stroke="rgb(56.078431%, 16.470588%, 26.27451%)" stroke-opacity="0.8" stroke-miterlimit="10" d="M 131.058594 402.617188 C 131.058594 406.644531 127.796875 409.90625 123.769531 409.90625 C 119.746094 409.90625 116.480469 406.644531 116.480469 402.617188 C 116.480469 398.59375 119.746094 395.328125 123.769531 395.328125 C 127.796875 395.328125 131.058594 398.59375 131.058594 402.617188 "/>
<path fill-rule="nonzero" fill="rgb(56.078431%, 16.470588%, 26.27451%)" fill-opacity="0.8" stroke-width="0.708661" stroke-linecap="round" stroke-linejoin="round" stroke="rgb(56.078431%, 16.470588%, 26.27451%)" stroke-opacity="0.8" stroke-miterlimit="10" d="M 603.277344 40.21875 C 603.277344 44.242188 600.011719 47.507812 595.988281 47.507812 C 591.960938 47.507812 588.695312 44.242188 588.695312 40.21875 C 588.695312 36.191406 591.960938 32.929688 595.988281 32.929688 C 600.011719 32.929688 603.277344 36.191406 603.277344 40.21875 "/>
<path fill-rule="nonzero" fill="rgb(56.078431%, 16.470588%, 26.27451%)" fill-opacity="0.8" stroke-width="0.708661" stroke-linecap="round" stroke-linejoin="round" stroke="rgb(56.078431%, 16.470588%, 26.27451%)" stroke-opacity="0.8" stroke-miterlimit="10" d="M 599.019531 182.757812 C 599.019531 186.785156 595.757812 190.046875 591.730469 190.046875 C 587.707031 190.046875 584.441406 186.785156 584.441406 182.757812 C 584.441406 178.734375 587.707031 175.46875 591.730469 175.46875 C 595.757812 175.46875 599.019531 178.734375 599.019531 182.757812 "/>
<path fill-rule="nonzero" fill="rgb(56.078431%, 16.470588%, 26.27451%)" fill-opacity="0.8" stroke-width="0.708661" stroke-linecap="round" stroke-linejoin="round" stroke="rgb(56.078431%, 16.470588%, 26.27451%)" stroke-opacity="0.8" stroke-miterlimit="10" d="M 499.597656 194.878906 C 499.597656 198.902344 496.332031 202.167969 492.308594 202.167969 C 488.28125 202.167969 485.015625 198.902344 485.015625 194.878906 C 485.015625 190.851562 488.28125 187.585938 492.308594 187.585938 C 496.332031 187.585938 499.597656 190.851562 499.597656 194.878906 "/>
<path fill-rule="nonzero" fill="rgb(56.078431%, 16.470588%, 26.27451%)" fill-opacity="0.8" stroke-width="0.708661" stroke-linecap="round" stroke-linejoin="round" stroke="rgb(56.078431%, 16.470588%, 26.27451%)" stroke-opacity="0.8" stroke-miterlimit="10" d="M 194.480469 362.359375 C 194.480469 366.382812 191.21875 369.648438 187.191406 369.648438 C 183.164062 369.648438 179.902344 366.382812 179.902344 362.359375 C 179.902344 358.332031 183.164062 355.070312 187.191406 355.070312 C 191.21875 355.070312 194.480469 358.332031 194.480469 362.359375 "/>
<path fill-rule="nonzero" fill="rgb(56.078431%, 16.470588%, 26.27451%)" fill-opacity="0.8" stroke-width="0.708661" stroke-linecap="round" stroke-linejoin="round" stroke="rgb(56.078431%, 16.470588%, 26.27451%)" stroke-opacity="0.8" stroke-miterlimit="10" d="M 396.800781 283.578125 C 396.800781 287.605469 393.535156 290.867188 389.511719 290.867188 C 385.484375 290.867188 382.21875 287.605469 382.21875 283.578125 C 382.21875 279.550781 385.484375 276.289062 389.511719 276.289062 C 393.535156 276.289062 396.800781 279.550781 396.800781 283.578125 "/>
<path fill-rule="nonzero" fill="rgb(56.078431%, 16.470588%, 26.27451%)" fill-opacity="0.8" stroke-width="0.708661" stroke-linecap="round" stroke-linejoin="round" stroke="rgb(56.078431%, 16.470588%, 26.27451%)" stroke-opacity="0.8" stroke-miterlimit="10" d="M 360.167969 347.023438 C 360.167969 351.050781 356.90625 354.3125 352.878906 354.3125 C 348.855469 354.3125 345.589844 351.050781 345.589844 347.023438 C 345.589844 342.996094 348.855469 339.734375 352.878906 339.734375 C 356.90625 339.734375 360.167969 342.996094 360.167969 347.023438 "/>
<path fill-rule="nonzero" fill="rgb(56.078431%, 16.470588%, 26.27451%)" fill-opacity="0.8" stroke-width="0.708661" stroke-linecap="round" stroke-linejoin="round" stroke="rgb(56.078431%, 16.470588%, 26.27451%)" stroke-opacity="0.8" stroke-miterlimit="10" d="M 552.125 204.785156 C 552.125 208.808594 548.859375 212.074219 544.832031 212.074219 C 540.808594 212.074219 537.542969 208.808594 537.542969 204.785156 C 537.542969 200.757812 540.808594 197.492188 544.832031 197.492188 C 548.859375 197.492188 552.125 200.757812 552.125 204.785156 "/>
<path fill-rule="nonzero" fill="rgb(56.078431%, 16.470588%, 26.27451%)" fill-opacity="0.8" stroke-width="0.708661" stroke-linecap="round" stroke-linejoin="round" stroke="rgb(56.078431%, 16.470588%, 26.27451%)" stroke-opacity="0.8" stroke-miterlimit="10" d="M 339.21875 234.246094 C 339.21875 238.273438 335.957031 241.535156 331.929688 241.535156 C 327.90625 241.535156 324.640625 238.273438 324.640625 234.246094 C 324.640625 230.21875 327.90625 226.957031 331.929688 226.957031 C 335.957031 226.957031 339.21875 230.21875 339.21875 234.246094 "/>
<path fill-rule="nonzero" fill="rgb(56.078431%, 16.470588%, 26.27451%)" fill-opacity="0.8" stroke-width="0.708661" stroke-linecap="round" stroke-linejoin="round" stroke="rgb(56.078431%, 16.470588%, 26.27451%)" stroke-opacity="0.8" stroke-miterlimit="10" d="M 646.347656 138.375 C 646.347656 142.402344 643.082031 145.664062 639.054688 145.664062 C 635.03125 145.664062 631.765625 142.402344 631.765625 138.375 C 631.765625 134.347656 635.03125 131.085938 639.054688 131.085938 C 643.082031 131.085938 646.347656 134.347656 646.347656 138.375 "/>
<path fill-rule="nonzero" fill="rgb(56.078431%, 16.470588%, 26.27451%)" fill-opacity="0.8" stroke-width="0.708661" stroke-linecap="round" stroke-linejoin="round" stroke="rgb(56.078431%, 16.470588%, 26.27451%)" stroke-opacity="0.8" stroke-miterlimit="10" d="M 338.734375 317.230469 C 338.734375 321.253906 335.46875 324.519531 331.441406 324.519531 C 327.417969 324.519531 324.152344 321.253906 324.152344 317.230469 C 324.152344 313.203125 327.417969 309.9375 331.441406 309.9375 C 335.46875 309.9375 338.734375 313.203125 338.734375 317.230469 "/>
<path fill-rule="nonzero" fill="rgb(56.078431%, 16.470588%, 26.27451%)" fill-opacity="0.8" stroke-width="0.708661" stroke-linecap="round" stroke-linejoin="round" stroke="rgb(56.078431%, 16.470588%, 26.27451%)" stroke-opacity="0.8" stroke-miterlimit="10" d="M 663.582031 209.40625 C 663.582031 213.433594 660.320312 216.695312 656.292969 216.695312 C 652.269531 216.695312 649.003906 213.433594 649.003906 209.40625 C 649.003906 205.378906 652.269531 202.117188 656.292969 202.117188 C 660.320312 202.117188 663.582031 205.378906 663.582031 209.40625 "/>
<path fill-rule="nonzero" fill="rgb(56.078431%, 16.470588%, 26.27451%)" fill-opacity="0.8" stroke-width="0.708661" stroke-linecap="round" stroke-linejoin="round" stroke="rgb(56.078431%, 16.470588%, 26.27451%)" stroke-opacity="0.8" stroke-miterlimit="10" d="M 185.195312 349.152344 C 185.195312 353.175781 181.929688 356.441406 177.90625 356.441406 C 173.878906 356.441406 170.617188 353.175781 170.617188 349.152344 C 170.617188 345.125 173.878906 341.859375 177.90625 341.859375 C 181.929688 341.859375 185.195312 345.125 185.195312 349.152344 "/>
<path fill-rule="nonzero" fill="rgb(56.078431%, 16.470588%, 26.27451%)" fill-opacity="0.8" stroke-width="0.708661" stroke-linecap="round" stroke-linejoin="round" stroke="rgb(56.078431%, 16.470588%, 26.27451%)" stroke-opacity="0.8" stroke-miterlimit="10" d="M 137.175781 227.304688 C 137.175781 231.332031 133.914062 234.597656 129.886719 234.597656 C 125.859375 234.597656 122.597656 231.332031 122.597656 227.304688 C 122.597656 223.28125 125.859375 220.015625 129.886719 220.015625 C 133.914062 220.015625 137.175781 223.28125 137.175781 227.304688 "/>
<path fill-rule="nonzero" fill="rgb(56.078431%, 16.470588%, 26.27451%)" fill-opacity="0.8" stroke-width="0.708661" stroke-linecap="round" stroke-linejoin="round" stroke="rgb(56.078431%, 16.470588%, 26.27451%)" stroke-opacity="0.8" stroke-miterlimit="10" d="M 329.109375 278.875 C 329.109375 282.898438 325.847656 286.164062 321.820312 286.164062 C 317.796875 286.164062 314.53125 282.898438 314.53125 278.875 C 314.53125 274.847656 317.796875 271.582031 321.820312 271.582031 C 325.847656 271.582031 329.109375 274.847656 329.109375 278.875 "/>
<path fill-rule="nonzero" fill="rgb(56.078431%, 16.470588%, 26.27451%)" fill-opacity="0.8" stroke-width="0.708661" stroke-linecap="round" stroke-linejoin="round" stroke="rgb(56.078431%, 16.470588%, 26.27451%)" stroke-opacity="0.8" stroke-miterlimit="10" d="M 491.863281 81.015625 C 491.863281 85.042969 488.601562 88.304688 484.574219 88.304688 C 480.546875 88.304688 477.285156 85.042969 477.285156 81.015625 C 477.285156 76.992188 480.546875 73.726562 484.574219 73.726562 C 488.601562 73.726562 491.863281 76.992188 491.863281 81.015625 "/>
<path fill-rule="nonzero" fill="rgb(56.078431%, 16.470588%, 26.27451%)" fill-opacity="0.8" stroke-width="0.708661" stroke-linecap="round" stroke-linejoin="round" stroke="rgb(56.078431%, 16.470588%, 26.27451%)" stroke-opacity="0.8" stroke-miterlimit="10" d="M 568.871094 193.546875 C 568.871094 197.574219 565.605469 200.835938 561.582031 200.835938 C 557.554688 200.835938 554.289062 197.574219 554.289062 193.546875 C 554.289062 189.519531 557.554688 186.257812 561.582031 186.257812 C 565.605469 186.257812 568.871094 189.519531 568.871094 193.546875 "/>
<path fill-rule="nonzero" fill="rgb(56.078431%, 16.470588%, 26.27451%)" fill-opacity="0.8" stroke-width="0.708661" stroke-linecap="round" stroke-linejoin="round" stroke="rgb(56.078431%, 16.470588%, 26.27451%)" stroke-opacity="0.8" stroke-miterlimit="10" d="M 313.878906 365.410156 C 313.878906 369.4375 310.617188 372.703125 306.589844 372.703125 C 302.5625 372.703125 299.300781 369.4375 299.300781 365.410156 C 299.300781 361.386719 302.5625 358.121094 306.589844 358.121094 C 310.617188 358.121094 313.878906 361.386719 313.878906 365.410156 "/>
<path fill-rule="nonzero" fill="rgb(56.078431%, 16.470588%, 26.27451%)" fill-opacity="0.8" stroke-width="0.708661" stroke-linecap="round" stroke-linejoin="round" stroke="rgb(56.078431%, 16.470588%, 26.27451%)" stroke-opacity="0.8" stroke-miterlimit="10" d="M 541.625 241.523438 C 541.625 245.550781 538.359375 248.816406 534.335938 248.816406 C 530.308594 248.816406 527.046875 245.550781 527.046875 241.523438 C 527.046875 237.5 530.308594 234.234375 534.335938 234.234375 C 538.359375 234.234375 541.625 237.5 541.625 241.523438 "/>
<path fill-rule="nonzero" fill="rgb(56.078431%, 16.470588%, 26.27451%)" fill-opacity="0.8" stroke-width="0.708661" stroke-linecap="round" stroke-linejoin="round" stroke="rgb(56.078431%, 16.470588%, 26.27451%)" stroke-opacity="0.8" stroke-miterlimit="10" d="M 507.964844 173.398438 C 507.964844 177.421875 504.699219 180.6875 500.671875 180.6875 C 496.648438 180.6875 493.382812 177.421875 493.382812 173.398438 C 493.382812 169.371094 496.648438 166.109375 500.671875 166.109375 C 504.699219 166.109375 507.964844 169.371094 507.964844 173.398438 "/>
<path fill-rule="nonzero" fill="rgb(56.078431%, 16.470588%, 26.27451%)" fill-opacity="0.8" stroke-width="0.708661" stroke-linecap="round" stroke-linejoin="round" stroke="rgb(56.078431%, 16.470588%, 26.27451%)" stroke-opacity="0.8" stroke-miterlimit="10" d="M 374.96875 277.144531 C 374.96875 281.167969 371.703125 284.433594 367.675781 284.433594 C 363.652344 284.433594 360.386719 281.167969 360.386719 277.144531 C 360.386719 273.117188 363.652344 269.855469 367.675781 269.855469 C 371.703125 269.855469 374.96875 273.117188 374.96875 277.144531 "/>
<path fill-rule="nonzero" fill="rgb(56.078431%, 16.470588%, 26.27451%)" fill-opacity="0.8" stroke-width="0.708661" stroke-linecap="round" stroke-linejoin="round" stroke="rgb(56.078431%, 16.470588%, 26.27451%)" stroke-opacity="0.8" stroke-miterlimit="10" d="M 438.847656 268.695312 C 438.847656 272.722656 435.585938 275.984375 431.558594 275.984375 C 427.53125 275.984375 424.269531 272.722656 424.269531 268.695312 C 424.269531 264.667969 427.53125 261.40625 431.558594 261.40625 C 435.585938 261.40625 438.847656 264.667969 438.847656 268.695312 "/>
<path fill-rule="nonzero" fill="rgb(56.078431%, 16.470588%, 26.27451%)" fill-opacity="0.8" stroke-width="0.708661" stroke-linecap="round" stroke-linejoin="round" stroke="rgb(56.078431%, 16.470588%, 26.27451%)" stroke-opacity="0.8" stroke-miterlimit="10" d="M 416.234375 261.199219 C 416.234375 265.222656 412.96875 268.488281 408.945312 268.488281 C 404.917969 268.488281 401.652344 265.222656 401.652344 261.199219 C 401.652344 257.171875 404.917969 253.910156 408.945312 253.910156 C 412.96875 253.910156 416.234375 257.171875 416.234375 261.199219 "/>
<path fill-rule="nonzero" fill="rgb(56.078431%, 16.470588%, 26.27451%)" fill-opacity="0.8" stroke-width="0.708661" stroke-linecap="round" stroke-linejoin="round" stroke="rgb(56.078431%, 16.470588%, 26.27451%)" stroke-opacity="0.8" stroke-miterlimit="10" d="M 255.257812 180.867188 C 255.257812 184.894531 251.996094 188.15625 247.96875 188.15625 C 243.945312 188.15625 240.679688 184.894531 240.679688 180.867188 C 240.679688 176.839844 243.945312 173.578125 247.96875 173.578125 C 251.996094 173.578125 255.257812 176.839844 255.257812 180.867188 "/>
<path fill-rule="nonzero" fill="rgb(56.078431%, 16.470588%, 26.27451%)" fill-opacity="0.8" stroke-width="0.708661" stroke-linecap="round" stroke-linejoin="round" stroke="rgb(56.078431%, 16.470588%, 26.27451%)" stroke-opacity="0.8" stroke-miterlimit="10" d="M 174.539062 324.167969 C 174.539062 328.195312 171.277344 331.457031 167.25 331.457031 C 163.222656 331.457031 159.960938 328.195312 159.960938 324.167969 C 159.960938 320.140625 163.222656 316.878906 167.25 316.878906 C 171.277344 316.878906 174.539062 320.140625 174.539062 324.167969 "/>
<path fill-rule="nonzero" fill="rgb(56.078431%, 16.470588%, 26.27451%)" fill-opacity="0.8" stroke-width="0.708661" stroke-linecap="round" stroke-linejoin="round" stroke="rgb(56.078431%, 16.470588%, 26.27451%)" stroke-opacity="0.8" stroke-miterlimit="10" d="M 432.589844 157.457031 C 432.589844 161.484375 429.324219 164.746094 425.296875 164.746094 C 421.273438 164.746094 418.007812 161.484375 418.007812 157.457031 C 418.007812 153.433594 421.273438 150.167969 425.296875 150.167969 C 429.324219 150.167969 432.589844 153.433594 432.589844 157.457031 "/>
<path fill-rule="nonzero" fill="rgb(56.078431%, 16.470588%, 26.27451%)" fill-opacity="0.8" stroke-width="0.708661" stroke-linecap="round" stroke-linejoin="round" stroke="rgb(56.078431%, 16.470588%, 26.27451%)" stroke-opacity="0.8" stroke-miterlimit="10" d="M 494.652344 167.8125 C 494.652344 171.839844 491.390625 175.101562 487.363281 175.101562 C 483.335938 175.101562 480.074219 171.839844 480.074219 167.8125 C 480.074219 163.785156 483.335938 160.523438 487.363281 160.523438 C 491.390625 160.523438 494.652344 163.785156 494.652344 167.8125 "/>
<path fill-rule="nonzero" fill="rgb(56.078431%, 16.470588%, 26.27451%)" fill-opacity="0.8" stroke-width="0.708661" stroke-linecap="round" stroke-linejoin="round" stroke="rgb(56.078431%, 16.470588%, 26.27451%)" stroke-opacity="0.8" stroke-miterlimit="10" d="M 523.339844 209.601562 C 523.339844 213.625 520.078125 216.890625 516.050781 216.890625 C 512.023438 216.890625 508.761719 213.625 508.761719 209.601562 C 508.761719 205.574219 512.023438 202.3125 516.050781 202.3125 C 520.078125 202.3125 523.339844 205.574219 523.339844 209.601562 "/>
<path fill-rule="nonzero" fill="rgb(56.078431%, 16.470588%, 26.27451%)" fill-opacity="0.8" stroke-width="0.708661" stroke-linecap="round" stroke-linejoin="round" stroke="rgb(56.078431%, 16.470588%, 26.27451%)" stroke-opacity="0.8" stroke-miterlimit="10" d="M 319.664062 375.421875 C 319.664062 379.449219 316.398438 382.710938 312.375 382.710938 C 308.347656 382.710938 305.085938 379.449219 305.085938 375.421875 C 305.085938 371.394531 308.347656 368.132812 312.375 368.132812 C 316.398438 368.132812 319.664062 371.394531 319.664062 375.421875 "/>
<g clip-path="url(#clip-1)">
<path fill="none" stroke-width="1.066978" stroke-linecap="butt" stroke-linejoin="round" stroke="rgb(0%, 0%, 0%)" stroke-opacity="1" stroke-dasharray="4.267913 4.267913" stroke-miterlimit="10" d="M 416.699219 453.070312 L 416.699219 13.449219 "/>
</g>
<path fill="none" stroke-width="3.200935" stroke-linecap="butt" stroke-linejoin="round" stroke="rgb(0%, 0%, 0%)" stroke-opacity="1" stroke-miterlimit="10" d="M 84.003906 398.53125 L 88.117188 392.046875 L 92.230469 385.832031 L 96.34375 379.886719 L 100.457031 374.207031 L 104.570312 368.78125 L 108.683594 363.609375 L 112.796875 358.679688 L 116.910156 353.988281 L 121.019531 349.53125 L 125.132812 345.300781 L 129.246094 341.289062 L 133.359375 337.492188 L 137.472656 333.902344 L 141.585938 330.519531 L 145.699219 327.328125 L 149.8125 324.328125 L 153.925781 321.515625 L 158.039062 318.878906 L 162.152344 316.414062 L 166.265625 314.117188 L 170.378906 311.980469 L 174.492188 309.996094 L 178.605469 308.164062 L 182.71875 306.46875 L 186.832031 304.914062 L 190.945312 303.488281 L 195.058594 302.183594 L 199.171875 301 L 203.285156 299.925781 L 207.398438 298.960938 L 211.511719 298.09375 L 215.625 297.320312 L 219.738281 296.636719 L 223.851562 296.035156 L 227.964844 295.507812 L 232.078125 295.050781 L 236.191406 294.65625 L 240.304688 294.320312 L 244.417969 294.035156 L 248.53125 293.796875 L 252.644531 293.597656 L 256.757812 293.433594 L 260.871094 293.296875 L 264.984375 293.179688 L 269.097656 293.078125 L 273.210938 292.988281 L 277.320312 292.902344 L 281.433594 292.8125 L 285.546875 292.710938 L 289.660156 292.597656 L 293.773438 292.464844 L 297.886719 292.304688 L 302 292.109375 L 306.113281 291.878906 L 310.226562 291.601562 L 314.339844 291.273438 L 318.453125 290.890625 L 322.566406 290.441406 L 326.679688 289.925781 L 330.792969 289.335938 L 334.90625 288.664062 L 339.019531 287.90625 L 343.132812 287.054688 L 347.246094 286.101562 L 351.359375 285.046875 L 355.472656 283.878906 L 359.585938 282.59375 L 363.699219 281.1875 L 367.8125 279.652344 L 371.925781 277.980469 L 376.039062 276.167969 L 380.152344 274.207031 L 384.265625 272.09375 L 388.378906 269.820312 L 392.492188 267.382812 L 396.605469 264.773438 L 400.71875 261.984375 L 404.832031 259.015625 L 408.945312 255.855469 "/>
<path fill="none" stroke-width="3.200935" stroke-linecap="butt" stroke-linejoin="round" stroke="rgb(0%, 0%, 0%)" stroke-opacity="1" stroke-miterlimit="10" d="M 425.296875 171.621094 L 429.351562 173.257812 L 433.402344 174.824219 L 437.457031 176.316406 L 441.511719 177.742188 L 445.5625 179.089844 L 449.617188 180.371094 L 453.667969 181.578125 L 457.722656 182.71875 L 461.773438 183.785156 L 465.828125 184.777344 L 469.878906 185.703125 L 473.933594 186.558594 L 477.984375 187.339844 L 482.039062 188.054688 L 486.089844 188.695312 L 490.144531 189.265625 L 494.199219 189.769531 L 498.25 190.199219 L 502.304688 190.5625 L 506.355469 190.851562 L 510.410156 191.074219 L 514.460938 191.226562 L 518.515625 191.308594 L 522.566406 191.320312 L 526.621094 191.261719 L 530.671875 191.136719 L 534.726562 190.941406 L 538.777344 190.675781 L 542.832031 190.339844 L 546.886719 189.9375 L 550.9375 189.464844 L 554.992188 188.925781 L 559.042969 188.3125 L 563.097656 187.636719 L 567.148438 186.886719 L 571.203125 186.074219 L 575.253906 185.1875 L 579.308594 184.238281 L 583.359375 183.214844 L 587.414062 182.128906 L 591.46875 180.972656 L 595.519531 179.746094 L 599.574219 178.453125 L 603.625 177.09375 L 607.679688 175.664062 L 611.730469 174.171875 L 615.785156 172.609375 L 619.835938 170.976562 L 623.890625 169.28125 L 627.941406 167.515625 L 631.996094 165.683594 L 636.046875 163.785156 L 640.101562 161.820312 L 644.15625 159.789062 L 648.207031 157.6875 L 652.261719 155.523438 L 656.3125 153.289062 L 660.367188 150.992188 L 664.417969 148.628906 L 668.472656 146.195312 L 672.523438 143.699219 L 676.578125 141.136719 L 680.628906 138.507812 L 684.683594 135.8125 L 688.734375 133.050781 L 692.789062 130.222656 L 696.84375 127.332031 L 700.894531 124.375 L 704.949219 121.351562 L 709 118.261719 L 713.054688 115.109375 L 717.105469 111.890625 L 721.160156 108.609375 L 725.210938 105.257812 L 729.265625 101.847656 L 733.316406 98.367188 L 737.371094 94.824219 L 741.425781 91.21875 L 745.476562 87.546875 "/>
<path fill="none" stroke-width="1.066978" stroke-linecap="butt" stroke-linejoin="round" stroke="rgb(0%, 0%, 0%)" stroke-opacity="1" stroke-miterlimit="10" d="M 50.929688 453.070312 L 778.550781 453.070312 "/>
<path fill-rule="nonzero" fill="rgb(0%, 0%, 0%)" fill-opacity="1" d="M 408.691406 484.3125 L 414.039062 475.105469 L 409.070312 466.519531 L 410.417969 466.519531 L 413.335938 471.757812 L 413.410156 471.878906 L 413.558594 472.113281 L 413.628906 472.230469 L 413.699219 472.34375 L 413.839844 472.578125 L 414.171875 473.144531 L 414.242188 473.261719 L 414.3125 473.382812 L 414.390625 473.507812 L 414.464844 473.636719 L 414.542969 473.769531 L 414.707031 474.042969 L 414.792969 474.1875 L 414.902344 474.1875 L 414.976562 474.042969 L 415.050781 473.90625 L 415.121094 473.769531 L 415.191406 473.636719 L 415.257812 473.507812 L 415.328125 473.382812 L 415.390625 473.261719 L 415.453125 473.144531 L 415.578125 472.917969 L 415.636719 472.804688 L 415.761719 472.578125 L 415.886719 472.34375 L 415.953125 472.230469 L 416.085938 471.996094 L 416.15625 471.878906 L 416.226562 471.757812 L 419.140625 466.519531 L 420.410156 466.519531 L 415.441406 475.160156 L 420.789062 484.3125 L 419.4375 484.3125 L 416.332031 478.859375 L 416.261719 478.722656 L 416.191406 478.589844 L 416.117188 478.453125 L 416.042969 478.320312 L 415.96875 478.183594 L 415.890625 478.050781 L 415.816406 477.914062 L 415.738281 477.78125 L 415.65625 477.644531 L 415.578125 477.507812 L 415.496094 477.375 L 415.410156 477.234375 L 415.328125 477.09375 L 415.238281 476.949219 L 415.152344 476.800781 L 415.0625 476.652344 L 414.96875 476.5 L 414.875 476.34375 L 414.6875 476.023438 L 414.578125 476.023438 L 414.492188 476.183594 L 414.410156 476.34375 L 414.324219 476.5 L 414.246094 476.652344 L 414.089844 476.949219 L 414.011719 477.09375 L 413.9375 477.234375 L 413.867188 477.375 L 413.792969 477.507812 L 413.652344 477.78125 L 413.582031 477.914062 L 413.507812 478.050781 L 413.4375 478.183594 L 413.363281 478.320312 L 413.289062 478.453125 L 413.214844 478.589844 L 413.140625 478.722656 L 413.066406 478.859375 L 409.960938 484.3125 Z M 408.691406 484.3125 "/>
<path fill-rule="nonzero" fill="rgb(0%, 0%, 0%)" fill-opacity="1" d="M 31.242188 233.894531 L 24.035156 233.894531 L 13.449219 239.214844 L 13.449219 237.890625 L 19.011719 235.191406 L 19.207031 235.097656 L 19.398438 235.007812 L 19.59375 234.914062 L 19.785156 234.824219 L 19.976562 234.730469 L 20.167969 234.640625 L 20.359375 234.546875 L 20.550781 234.457031 L 20.738281 234.363281 L 20.929688 234.273438 L 21.117188 234.179688 L 21.691406 233.898438 L 22.277344 233.605469 L 22.476562 233.503906 L 22.671875 233.402344 L 22.871094 233.300781 L 22.871094 233.191406 L 22.671875 233.089844 L 22.476562 232.988281 L 22.277344 232.886719 L 22.082031 232.785156 L 21.886719 232.6875 L 21.691406 232.585938 L 21.117188 232.292969 L 20.929688 232.195312 L 20.738281 232.097656 L 20.550781 232 L 20.167969 231.8125 L 19.976562 231.722656 L 19.785156 231.628906 L 19.59375 231.539062 L 19.398438 231.449219 L 19.207031 231.363281 L 19.011719 231.277344 L 13.449219 228.574219 L 13.449219 227.308594 L 24.035156 232.652344 L 31.242188 232.652344 Z M 31.242188 233.894531 "/>
</svg>
