<?xml version="1.0" encoding="UTF-8"?>
<svg xmlns="http://www.w3.org/2000/svg" xmlns:xlink="http://www.w3.org/1999/xlink" width="792" height="432" viewBox="0 0 792 432">
<defs>
<clipPath id="clip-0">
<path clip-rule="nonzero" d="M 87.394531 14.945312 L 777.058594 14.945312 L 777.058594 382.246094 L 87.394531 382.246094 Z M 87.394531 14.945312 "/>
</clipPath>
<clipPath id="clip-1">
<path clip-rule="nonzero" d="M 87.394531 364 L 777.058594 364 L 777.058594 368 L 87.394531 368 Z M 87.394531 364 "/>
</clipPath>
<clipPath id="clip-2">
<path clip-rule="nonzero" d="M 87.394531 280 L 777.058594 280 L 777.058594 284 L 87.394531 284 Z M 87.394531 280 "/>
</clipPath>
<clipPath id="clip-3">
<path clip-rule="nonzero" d="M 87.394531 197 L 777.058594 197 L 777.058594 201 L 87.394531 201 Z M 87.394531 197 "/>
</clipPath>
<clipPath id="clip-4">
<path clip-rule="nonzero" d="M 87.394531 113 L 777.058594 113 L 777.058594 117 L 87.394531 117 Z M 87.394531 113 "/>
</clipPath>
<clipPath id="clip-5">
<path clip-rule="nonzero" d="M 87.394531 30 L 777.058594 30 L 777.058594 34 L 87.394531 34 Z M 87.394531 30 "/>
</clipPath>
<clipPath id="clip-6">
<path clip-rule="nonzero" d="M 234 14.945312 L 238 14.945312 L 238 382.246094 L 234 382.246094 Z M 234 14.945312 "/>
</clipPath>
<clipPath id="clip-7">
<path clip-rule="nonzero" d="M 626 14.945312 L 630 14.945312 L 630 382.246094 L 626 382.246094 Z M 626 14.945312 "/>
</clipPath>
</defs>
<rect x="-79.2" y="-43.2" width="950.4" height="518.4" fill="rgb(100%, 100%, 100%)" fill-opacity="1"/>
<rect x="-79.2" y="-43.2" width="950.4" height="518.4" fill="rgb(95.294118%, 95.294118%, 95.294118%)" fill-opacity="1"/>
<path fill="none" stroke-width="2.909941" stroke-linecap="round" stroke-linejoin="round" stroke="rgb(95.294118%, 95.294118%, 95.294118%)" stroke-opacity="1" stroke-miterlimit="10" d="M 0 432 L 792 432 L 792 0 L 0 0 Z M 0 432 "/>
<g clip-path="url(#clip-0)">
<path fill-rule="nonzero" fill="rgb(95.294118%, 95.294118%, 95.294118%)" fill-opacity="1" stroke-width="2.909941" stroke-linecap="round" stroke-linejoin="round" stroke="rgb(95.294118%, 95.294118%, 95.294118%)" stroke-opacity="1" stroke-miterlimit="10" d="M 87.394531 382.246094 L 777.058594 382.246094 L 777.058594 14.945312 L 87.394531 14.945312 Z M 87.394531 382.246094 "/>
</g>
<g clip-path="url(#clip-1)">
<path fill="none" stroke-width="2.909941" stroke-linecap="butt" stroke-linejoin="round" stroke="rgb(92.156863%, 92.156863%, 92.156863%)" stroke-opacity="1" stroke-miterlimit="10" d="M 87.394531 365.550781 L 777.054688 365.550781 "/>
</g>
<g clip-path="url(#clip-2)">
<path fill="none" stroke-width="2.909941" stroke-linecap="butt" stroke-linejoin="round" stroke="rgb(92.156863%, 92.156863%, 92.156863%)" stroke-opacity="1" stroke-miterlimit="10" d="M 87.394531 282.074219 L 777.054688 282.074219 "/>
</g>
<g clip-path="url(#clip-3)">
<path fill="none" stroke-width="2.909941" stroke-linecap="butt" stroke-linejoin="round" stroke="rgb(92.156863%, 92.156863%, 92.156863%)" stroke-opacity="1" stroke-miterlimit="10" d="M 87.394531 198.59375 L 777.054688 198.59375 "/>
</g>
<g clip-path="url(#clip-4)">
<path fill="none" stroke-width="2.909941" stroke-linecap="butt" stroke-linejoin="round" stroke="rgb(92.156863%, 92.156863%, 92.156863%)" stroke-opacity="1" stroke-miterlimit="10" d="M 87.394531 115.117188 L 777.054688 115.117188 "/>
</g>
<g clip-path="url(#clip-5)">
<path fill="none" stroke-width="2.909941" stroke-linecap="butt" stroke-linejoin="round" stroke="rgb(92.156863%, 92.156863%, 92.156863%)" stroke-opacity="1" stroke-miterlimit="10" d="M 87.394531 31.640625 L 777.054688 31.640625 "/>
</g>
<g clip-path="url(#clip-6)">
<path fill="none" stroke-width="2.909941" stroke-linecap="butt" stroke-linejoin="round" stroke="rgb(92.156863%, 92.156863%, 92.156863%)" stroke-opacity="1" stroke-miterlimit="10" d="M 236.296875 382.246094 L 236.296875 14.945312 "/>
</g>
<g clip-path="url(#clip-7)">
<path fill="none" stroke-width="2.909941" stroke-linecap="butt" stroke-linejoin="round" stroke="rgb(92.156863%, 92.156863%, 92.156863%)" stroke-opacity="1" stroke-miterlimit="10" d="M 628.152344 382.246094 L 628.152344 14.945312 "/>
</g>
<path fill-rule="nonzero" fill="rgb(56.078431%, 16.470588%, 26.27451%)" fill-opacity="0.8" stroke-width="0.708661" stroke-linecap="round" stroke-linejoin="round" stroke="rgb(56.078431%, 16.470588%, 26.27451%)" stroke-opacity="0.8" stroke-miterlimit="10" d="M 634.375 365.550781 C 634.375 368.988281 631.589844 371.773438 628.152344 371.773438 C 624.714844 371.773438 621.929688 368.988281 621.929688 365.550781 C 621.929688 362.113281 624.714844 359.328125 628.152344 359.328125 C 631.589844 359.328125 634.375 362.113281 634.375 365.550781 "/>
<path fill-rule="nonzero" fill="rgb(56.078431%, 16.470588%, 26.27451%)" fill-opacity="0.8" stroke-width="0.708661" stroke-linecap="round" stroke-linejoin="round" stroke="rgb(56.078431%, 16.470588%, 26.27451%)" stroke-opacity="0.8" stroke-miterlimit="10" d="M 634.375 348.855469 C 634.375 352.292969 631.589844 355.078125 628.152344 355.078125 C 624.714844 355.078125 621.929688 352.292969 621.929688 348.855469 C 621.929688 345.417969 624.714844 342.632812 628.152344 342.632812 C 631.589844 342.632812 634.375 345.417969 634.375 348.855469 "/>
<path fill-rule="nonzero" fill="rgb(56.078431%, 16.470588%, 26.27451%)" fill-opacity="0.8" stroke-width="0.708661" stroke-linecap="round" stroke-linejoin="round" stroke="rgb(56.078431%, 16.470588%, 26.27451%)" stroke-opacity="0.8" stroke-miterlimit="10" d="M 634.375 348.855469 C 634.375 352.292969 631.589844 355.078125 628.152344 355.078125 C 624.714844 355.078125 621.929688 352.292969 621.929688 348.855469 C 621.929688 345.417969 624.714844 342.632812 628.152344 342.632812 C 631.589844 342.632812 634.375 345.417969 634.375 348.855469 "/>
<path fill-rule="nonzero" fill="rgb(56.078431%, 16.470588%, 26.27451%)" fill-opacity="0.8" stroke-width="0.708661" stroke-linecap="round" stroke-linejoin="round" stroke="rgb(56.078431%, 16.470588%, 26.27451%)" stroke-opacity="0.8" stroke-miterlimit="10" d="M 242.519531 31.640625 C 242.519531 35.078125 239.734375 37.863281 236.296875 37.863281 C 232.859375 37.863281 230.074219 35.078125 230.074219 31.640625 C 230.074219 28.203125 232.859375 25.417969 236.296875 25.417969 C 239.734375 25.417969 242.519531 28.203125 242.519531 31.640625 "/>
<path fill-rule="nonzero" fill="rgb(56.078431%, 16.470588%, 26.27451%)" fill-opacity="0.8" stroke-width="0.708661" stroke-linecap="round" stroke-linejoin="round" stroke="rgb(56.078431%, 16.470588%, 26.27451%)" stroke-opacity="0.8" stroke-miterlimit="10" d="M 242.519531 65.03125 C 242.519531 68.46875 239.734375 71.253906 236.296875 71.253906 C 232.859375 71.253906 230.074219 68.46875 230.074219 65.03125 C 230.074219 61.59375 232.859375 58.808594 236.296875 58.808594 C 239.734375 58.808594 242.519531 61.59375 242.519531 65.03125 "/>
<path fill-rule="nonzero" fill="rgb(56.078431%, 16.470588%, 26.27451%)" fill-opacity="0.8" stroke-width="0.708661" stroke-linecap="round" stroke-linejoin="round" stroke="rgb(56.078431%, 16.470588%, 26.27451%)" stroke-opacity="0.8" stroke-miterlimit="10" d="M 242.519531 181.898438 C 242.519531 185.335938 239.734375 188.121094 236.296875 188.121094 C 232.859375 188.121094 230.074219 185.335938 230.074219 181.898438 C 230.074219 178.464844 232.859375 175.675781 236.296875 175.675781 C 239.734375 175.675781 242.519531 178.464844 242.519531 181.898438 "/>
<path fill-rule="nonzero" fill="rgb(56.078431%, 16.470588%, 26.27451%)" fill-opacity="0.8" stroke-width="0.708661" stroke-linecap="round" stroke-linejoin="round" stroke="rgb(56.078431%, 16.470588%, 26.27451%)" stroke-opacity="0.8" stroke-miterlimit="10" d="M 634.375 48.335938 C 634.375 51.773438 631.589844 54.558594 628.152344 54.558594 C 624.714844 54.558594 621.929688 51.773438 621.929688 48.335938 C 621.929688 44.898438 624.714844 42.113281 628.152344 42.113281 C 631.589844 42.113281 634.375 44.898438 634.375 48.335938 "/>
<path fill-rule="nonzero" fill="rgb(56.078431%, 16.470588%, 26.27451%)" fill-opacity="0.8" stroke-width="0.708661" stroke-linecap="round" stroke-linejoin="round" stroke="rgb(56.078431%, 16.470588%, 26.27451%)" stroke-opacity="0.8" stroke-miterlimit="10" d="M 242.519531 231.988281 C 242.519531 235.421875 239.734375 238.210938 236.296875 238.210938 C 232.859375 238.210938 230.074219 235.421875 230.074219 231.988281 C 230.074219 228.550781 232.859375 225.761719 236.296875 225.761719 C 239.734375 225.761719 242.519531 228.550781 242.519531 231.988281 "/>
<path fill-rule="nonzero" fill="rgb(0%, 0%, 0%)" fill-opacity="1" d="M 619.261719 286.789062 L 637.042969 286.789062 L 637.042969 269.007812 L 619.261719 269.007812 Z M 619.261719 286.789062 "/>
<path fill-rule="nonzero" fill="rgb(0%, 0%, 0%)" fill-opacity="1" d="M 619.261719 286.789062 L 637.042969 286.789062 L 637.042969 269.007812 L 619.261719 269.007812 Z M 619.261719 286.789062 "/>
<path fill-rule="nonzero" fill="rgb(0%, 0%, 0%)" fill-opacity="1" d="M 619.261719 286.789062 L 637.042969 286.789062 L 637.042969 269.007812 L 619.261719 269.007812 Z M 619.261719 286.789062 "/>
<path fill-rule="nonzero" fill="rgb(0%, 0%, 0%)" fill-opacity="1" d="M 619.261719 286.789062 L 637.042969 286.789062 L 637.042969 269.007812 L 619.261719 269.007812 Z M 619.261719 286.789062 "/>
<path fill-rule="nonzero" fill="rgb(0%, 0%, 0%)" fill-opacity="1" d="M 619.261719 286.789062 L 637.042969 286.789062 L 637.042969 269.007812 L 619.261719 269.007812 Z M 619.261719 286.789062 "/>
<path fill-rule="nonzero" fill="rgb(0%, 0%, 0%)" fill-opacity="1" d="M 619.261719 286.789062 L 637.042969 286.789062 L 637.042969 269.007812 L 619.261719 269.007812 Z M 619.261719 286.789062 "/>
<path fill-rule="nonzero" fill="rgb(0%, 0%, 0%)" fill-opacity="1" d="M 619.261719 286.789062 L 637.042969 286.789062 L 637.042969 269.007812 L 619.261719 269.007812 Z M 619.261719 286.789062 "/>
<path fill-rule="nonzero" fill="rgb(0%, 0%, 0%)" fill-opacity="1" d="M 619.261719 286.789062 L 637.042969 286.789062 L 637.042969 269.007812 L 619.261719 269.007812 Z M 619.261719 286.789062 "/>
<path fill-rule="nonzero" fill="rgb(0%, 0%, 0%)" fill-opacity="1" d="M 227.40625 136.527344 L 245.1875 136.527344 L 245.1875 118.75 L 227.40625 118.75 Z M 227.40625 136.527344 "/>
<path fill-rule="nonzero" fill="rgb(0%, 0%, 0%)" fill-opacity="1" d="M 227.40625 136.527344 L 245.1875 136.527344 L 245.1875 118.75 L 227.40625 118.75 Z M 227.40625 136.527344 "/>
<path fill-rule="nonzero" fill="rgb(0%, 0%, 0%)" fill-opacity="1" d="M 227.40625 136.527344 L 245.1875 136.527344 L 245.1875 118.75 L 227.40625 118.75 Z M 227.40625 136.527344 "/>
<path fill-rule="nonzero" fill="rgb(0%, 0%, 0%)" fill-opacity="1" d="M 227.40625 136.527344 L 245.1875 136.527344 L 245.1875 118.75 L 227.40625 118.75 Z M 227.40625 136.527344 "/>
<path fill-rule="nonzero" fill="rgb(0%, 0%, 0%)" fill-opacity="1" d="M 227.40625 136.527344 L 245.1875 136.527344 L 245.1875 118.75 L 227.40625 118.75 Z M 227.40625 136.527344 "/>
<path fill-rule="nonzero" fill="rgb(0%, 0%, 0%)" fill-opacity="1" d="M 227.40625 136.527344 L 245.1875 136.527344 L 245.1875 118.75 L 227.40625 118.75 Z M 227.40625 136.527344 "/>
<path fill-rule="nonzero" fill="rgb(0%, 0%, 0%)" fill-opacity="1" d="M 227.40625 136.527344 L 245.1875 136.527344 L 245.1875 118.75 L 227.40625 118.75 Z M 227.40625 136.527344 "/>
<path fill-rule="nonzero" fill="rgb(0%, 0%, 0%)" fill-opacity="1" d="M 227.40625 136.527344 L 245.1875 136.527344 L 245.1875 118.75 L 227.40625 118.75 Z M 227.40625 136.527344 "/>
<path fill="none" stroke-width="2.133957" stroke-linecap="butt" stroke-linejoin="round" stroke="rgb(0%, 0%, 0%)" stroke-opacity="1" stroke-miterlimit="10" d="M 236.296875 127.640625 L 241.257812 129.542969 L 246.21875 131.441406 L 251.179688 133.34375 L 256.136719 135.246094 L 280.941406 144.757812 L 285.898438 146.660156 L 300.78125 152.367188 L 305.742188 154.265625 L 310.699219 156.167969 L 330.542969 163.777344 L 335.5 165.679688 L 355.34375 173.289062 L 360.300781 175.191406 L 365.261719 177.089844 L 380.144531 182.796875 L 385.101562 184.699219 L 404.945312 192.308594 L 409.902344 194.210938 L 424.785156 199.917969 L 429.746094 201.816406 L 434.703125 203.71875 L 454.546875 211.328125 L 459.503906 213.230469 L 479.347656 220.839844 L 484.304688 222.742188 L 489.265625 224.640625 L 509.109375 232.25 L 514.066406 234.152344 L 533.910156 241.761719 L 538.867188 243.664062 L 543.828125 245.566406 L 548.789062 247.464844 L 558.710938 251.269531 L 563.667969 253.171875 L 583.511719 260.78125 L 588.46875 262.683594 L 608.3125 270.292969 L 613.269531 272.191406 L 628.152344 277.898438 "/>
<path fill-rule="nonzero" fill="rgb(10.196078%, 10.196078%, 10.196078%)" fill-opacity="1" d="M 44.734375 367.9375 L 44.734375 367.003906 L 50.015625 367.003906 L 50.015625 367.9375 Z M 44.734375 367.9375 "/>
<path fill-rule="nonzero" fill="rgb(10.196078%, 10.196078%, 10.196078%)" fill-opacity="1" d="M 52.96875 373.457031 L 52.96875 372.523438 L 56.566406 372.523438 L 56.566406 359.804688 L 53.832031 359.804688 L 53.832031 359.082031 L 54.199219 359.011719 L 54.375 358.976562 L 54.550781 358.9375 L 54.71875 358.898438 L 54.886719 358.855469 L 55.207031 358.769531 L 55.511719 358.675781 L 55.660156 358.625 L 55.800781 358.574219 L 56.074219 358.472656 L 56.203125 358.417969 L 56.328125 358.359375 L 56.449219 358.304688 L 56.5625 358.246094 L 56.675781 358.183594 L 56.785156 358.121094 L 57.648438 358.121094 L 57.648438 372.523438 L 60.984375 372.523438 L 60.984375 373.457031 Z M 52.96875 373.457031 "/>
<path fill-rule="nonzero" fill="rgb(10.196078%, 10.196078%, 10.196078%)" fill-opacity="1" d="M 68.183594 373.746094 L 67.757812 373.726562 L 67.351562 373.664062 L 66.960938 373.558594 L 66.59375 373.414062 L 66.246094 373.226562 L 65.917969 372.996094 L 65.609375 372.722656 L 65.320312 372.410156 L 65.050781 372.054688 L 64.800781 371.660156 L 64.570312 371.222656 L 64.367188 370.753906 L 64.1875 370.25 L 64.03125 369.707031 L 63.898438 369.132812 L 63.792969 368.523438 L 63.707031 367.878906 L 63.648438 367.195312 L 63.613281 366.480469 L 63.601562 365.730469 L 63.613281 364.984375 L 63.648438 364.277344 L 63.707031 363.601562 L 63.792969 362.960938 L 63.898438 362.359375 L 64.03125 361.792969 L 64.1875 361.257812 L 64.367188 360.761719 L 64.570312 360.300781 L 64.800781 359.875 L 65.050781 359.488281 L 65.320312 359.140625 L 65.609375 358.835938 L 65.917969 358.570312 L 66.246094 358.34375 L 66.59375 358.160156 L 66.960938 358.019531 L 67.351562 357.917969 L 67.757812 357.855469 L 68.183594 357.835938 L 68.613281 357.855469 L 69.027344 357.917969 L 69.414062 358.019531 L 69.785156 358.160156 L 70.132812 358.34375 L 70.460938 358.570312 L 70.769531 358.835938 L 71.054688 359.140625 L 71.324219 359.488281 L 71.566406 359.875 L 71.796875 360.300781 L 72 360.761719 L 72.179688 361.257812 L 72.335938 361.792969 L 72.46875 362.359375 L 72.574219 362.960938 L 72.660156 363.601562 L 72.71875 364.277344 L 72.757812 364.984375 L 72.769531 365.730469 L 72.757812 366.480469 L 72.71875 367.195312 L 72.660156 367.878906 L 72.574219 368.523438 L 72.46875 369.132812 L 72.335938 369.707031 L 72.179688 370.25 L 72 370.753906 L 71.796875 371.222656 L 71.566406 371.660156 L 71.324219 372.054688 L 71.054688 372.410156 L 70.769531 372.722656 L 70.460938 372.996094 L 70.132812 373.226562 L 69.785156 373.414062 L 69.414062 373.558594 L 69.027344 373.664062 L 68.613281 373.726562 Z M 68.183594 372.835938 L 68.5 372.816406 L 68.800781 372.761719 L 69.089844 372.671875 L 69.363281 372.546875 L 69.625 372.386719 L 69.871094 372.1875 L 70.105469 371.953125 L 70.328125 371.683594 L 70.535156 371.375 L 70.726562 371.035156 L 70.910156 370.65625 L 71.074219 370.246094 L 71.21875 369.800781 L 71.34375 369.324219 L 71.449219 368.808594 L 71.535156 368.261719 L 71.601562 367.679688 L 71.648438 367.0625 L 71.679688 366.414062 L 71.6875 365.730469 L 71.679688 365.046875 L 71.648438 364.398438 L 71.601562 363.789062 L 71.535156 363.210938 L 71.449219 362.671875 L 71.34375 362.164062 L 71.21875 361.695312 L 71.074219 361.261719 L 70.910156 360.863281 L 70.726562 360.5 L 70.535156 360.167969 L 70.328125 359.867188 L 70.105469 359.605469 L 69.871094 359.378906 L 69.625 359.183594 L 69.363281 359.027344 L 69.089844 358.90625 L 68.800781 358.816406 L 68.5 358.765625 L 68.183594 358.746094 L 67.875 358.765625 L 67.574219 358.816406 L 67.289062 358.90625 L 67.015625 359.027344 L 66.757812 359.183594 L 66.507812 359.378906 L 66.273438 359.605469 L 66.050781 359.867188 L 65.839844 360.167969 L 65.640625 360.5 L 65.457031 360.863281 L 65.292969 361.261719 L 65.148438 361.695312 L 65.027344 362.164062 L 64.921875 362.671875 L 64.832031 363.210938 L 64.765625 363.789062 L 64.71875 364.398438 L 64.691406 365.046875 L 64.679688 365.730469 L 64.691406 366.414062 L 64.71875 367.0625 L 64.765625 367.679688 L 64.832031 368.261719 L 64.921875 368.808594 L 65.027344 369.324219 L 65.148438 369.800781 L 65.292969 370.246094 L 65.457031 370.65625 L 65.640625 371.035156 L 65.839844 371.375 L 66.050781 371.683594 L 66.273438 371.953125 L 66.507812 372.1875 L 66.757812 372.386719 L 67.015625 372.546875 L 67.289062 372.671875 L 67.574219 372.761719 L 67.875 372.816406 Z M 68.183594 372.835938 "/>
<path fill-rule="nonzero" fill="rgb(10.196078%, 10.196078%, 10.196078%)" fill-opacity="1" d="M 56.230469 284.460938 L 56.230469 283.523438 L 61.511719 283.523438 L 61.511719 284.460938 Z M 56.230469 284.460938 "/>
<path fill-rule="nonzero" fill="rgb(10.196078%, 10.196078%, 10.196078%)" fill-opacity="1" d="M 67.894531 290.269531 L 67.652344 290.265625 L 67.417969 290.257812 L 67.191406 290.242188 L 66.964844 290.21875 L 66.75 290.191406 L 66.539062 290.15625 L 66.335938 290.117188 L 66.136719 290.070312 L 65.945312 290.015625 L 65.761719 289.957031 L 65.585938 289.894531 L 65.414062 289.824219 L 65.25 289.753906 L 65.089844 289.679688 L 64.933594 289.601562 L 64.78125 289.523438 L 64.632812 289.4375 L 64.492188 289.351562 L 64.355469 289.257812 L 64.222656 289.164062 L 64.097656 289.070312 L 63.96875 288.972656 L 63.847656 288.878906 L 63.613281 288.683594 L 63.5 288.589844 L 63.386719 288.492188 L 63.28125 288.398438 L 63.070312 288.203125 L 63.671875 287.460938 L 63.8125 287.597656 L 63.960938 287.734375 L 64.113281 287.871094 L 64.269531 288.003906 L 64.433594 288.132812 L 64.601562 288.261719 L 64.953125 288.511719 L 65.136719 288.636719 L 65.328125 288.757812 L 65.53125 288.867188 L 65.746094 288.964844 L 65.96875 289.050781 L 66.207031 289.125 L 66.457031 289.1875 L 66.714844 289.242188 L 66.988281 289.28125 L 67.269531 289.308594 L 67.566406 289.328125 L 67.871094 289.332031 L 68.078125 289.328125 L 68.277344 289.3125 L 68.476562 289.289062 L 68.671875 289.253906 L 68.863281 289.207031 L 69.050781 289.152344 L 69.234375 289.085938 L 69.414062 289.011719 L 69.59375 288.925781 L 69.769531 288.828125 L 69.9375 288.71875 L 70.101562 288.601562 L 70.257812 288.476562 L 70.40625 288.339844 L 70.546875 288.199219 L 70.683594 288.046875 L 70.8125 287.890625 L 70.933594 287.722656 L 71.050781 287.546875 L 71.160156 287.363281 L 71.261719 287.175781 L 71.351562 286.980469 L 71.429688 286.777344 L 71.496094 286.570312 L 71.554688 286.355469 L 71.601562 286.136719 L 71.640625 285.914062 L 71.667969 285.683594 L 71.683594 285.445312 L 71.6875 285.203125 L 71.675781 284.84375 L 71.648438 284.496094 L 71.59375 284.167969 L 71.523438 283.851562 L 71.429688 283.554688 L 71.316406 283.273438 L 71.183594 283.007812 L 71.027344 282.753906 L 70.851562 282.519531 L 70.65625 282.300781 L 70.449219 282.101562 L 70.226562 281.921875 L 69.988281 281.761719 L 69.738281 281.625 L 69.472656 281.507812 L 69.195312 281.414062 L 68.902344 281.339844 L 68.597656 281.289062 L 68.277344 281.253906 L 67.945312 281.246094 L 67.769531 281.246094 L 67.597656 281.257812 L 67.433594 281.269531 L 67.273438 281.292969 L 67.117188 281.316406 L 66.964844 281.347656 L 66.816406 281.386719 L 66.675781 281.429688 L 66.539062 281.476562 L 66.40625 281.53125 L 66.15625 281.648438 L 66.027344 281.710938 L 65.898438 281.777344 L 65.632812 281.925781 L 65.5 282.007812 L 65.363281 282.09375 L 65.226562 282.183594 L 65.089844 282.277344 L 64.34375 281.820312 L 64.894531 274.644531 L 71.976562 274.644531 L 71.976562 275.582031 L 65.855469 275.582031 L 65.375 281.125 L 65.496094 281.054688 L 65.617188 280.988281 L 65.742188 280.921875 L 65.863281 280.859375 L 65.988281 280.800781 L 66.238281 280.691406 L 66.367188 280.640625 L 66.496094 280.59375 L 66.625 280.550781 L 66.753906 280.503906 L 66.890625 280.460938 L 67.03125 280.425781 L 67.171875 280.394531 L 67.320312 280.367188 L 67.46875 280.347656 L 67.625 280.332031 L 67.785156 280.320312 L 67.945312 280.3125 L 68.113281 280.308594 L 68.367188 280.3125 L 68.621094 280.332031 L 68.867188 280.355469 L 69.109375 280.394531 L 69.347656 280.441406 L 69.582031 280.5 L 69.808594 280.566406 L 70.03125 280.648438 L 70.25 280.738281 L 70.464844 280.835938 L 70.675781 280.945312 L 70.878906 281.0625 L 71.070312 281.191406 L 71.253906 281.332031 L 71.429688 281.484375 L 71.597656 281.648438 L 71.753906 281.824219 L 71.898438 282.011719 L 72.039062 282.210938 L 72.167969 282.421875 L 72.285156 282.636719 L 72.394531 282.867188 L 72.484375 283.109375 L 72.566406 283.367188 L 72.636719 283.632812 L 72.691406 283.914062 L 72.734375 284.207031 L 72.765625 284.511719 L 72.785156 284.828125 L 72.792969 285.15625 L 72.785156 285.480469 L 72.761719 285.789062 L 72.726562 286.09375 L 72.675781 286.386719 L 72.613281 286.667969 L 72.53125 286.941406 L 72.4375 287.207031 L 72.332031 287.460938 L 72.207031 287.707031 L 72.070312 287.941406 L 71.929688 288.160156 L 71.777344 288.371094 L 71.617188 288.570312 L 71.445312 288.757812 L 71.269531 288.9375 L 71.082031 289.105469 L 70.886719 289.261719 L 70.683594 289.40625 L 70.46875 289.542969 L 70.246094 289.667969 L 70.027344 289.78125 L 69.800781 289.886719 L 69.574219 289.976562 L 69.339844 290.054688 L 69.109375 290.117188 L 68.871094 290.171875 L 68.632812 290.214844 L 68.390625 290.246094 L 68.144531 290.261719 Z M 67.894531 290.269531 "/>
<path fill-rule="nonzero" fill="rgb(10.196078%, 10.196078%, 10.196078%)" fill-opacity="1" d="M 68.183594 206.792969 L 67.757812 206.769531 L 67.351562 206.707031 L 66.960938 206.601562 L 66.59375 206.457031 L 66.246094 206.269531 L 65.917969 206.039062 L 65.609375 205.769531 L 65.320312 205.453125 L 65.050781 205.101562 L 64.800781 204.703125 L 64.570312 204.269531 L 64.367188 203.796875 L 64.1875 203.292969 L 64.03125 202.753906 L 63.898438 202.175781 L 63.792969 201.566406 L 63.707031 200.921875 L 63.648438 200.242188 L 63.613281 199.527344 L 63.601562 198.773438 L 63.613281 198.03125 L 63.648438 197.320312 L 63.707031 196.644531 L 63.792969 196.007812 L 63.898438 195.402344 L 64.03125 194.835938 L 64.1875 194.304688 L 64.367188 193.804688 L 64.570312 193.34375 L 64.800781 192.917969 L 65.050781 192.53125 L 65.320312 192.183594 L 65.609375 191.878906 L 65.917969 191.613281 L 66.246094 191.390625 L 66.59375 191.207031 L 66.960938 191.0625 L 67.351562 190.960938 L 67.757812 190.898438 L 68.183594 190.878906 L 68.613281 190.898438 L 69.027344 190.960938 L 69.414062 191.0625 L 69.785156 191.207031 L 70.132812 191.390625 L 70.460938 191.613281 L 70.769531 191.878906 L 71.054688 192.183594 L 71.324219 192.53125 L 71.566406 192.917969 L 71.796875 193.34375 L 72 193.804688 L 72.179688 194.304688 L 72.335938 194.835938 L 72.46875 195.402344 L 72.574219 196.007812 L 72.660156 196.644531 L 72.71875 197.320312 L 72.757812 198.03125 L 72.769531 198.773438 L 72.757812 199.527344 L 72.71875 200.242188 L 72.660156 200.921875 L 72.574219 201.566406 L 72.46875 202.175781 L 72.335938 202.753906 L 72.179688 203.292969 L 72 203.796875 L 71.796875 204.269531 L 71.566406 204.703125 L 71.324219 205.101562 L 71.054688 205.453125 L 70.769531 205.769531 L 70.460938 206.039062 L 70.132812 206.269531 L 69.785156 206.457031 L 69.414062 206.601562 L 69.027344 206.707031 L 68.613281 206.769531 Z M 68.183594 205.878906 L 68.5 205.859375 L 68.800781 205.808594 L 69.089844 205.71875 L 69.363281 205.589844 L 69.625 205.429688 L 69.871094 205.230469 L 70.105469 204.996094 L 70.328125 204.726562 L 70.535156 204.421875 L 70.726562 204.078125 L 70.910156 203.703125 L 71.074219 203.292969 L 71.21875 202.847656 L 71.34375 202.367188 L 71.449219 201.851562 L 71.535156 201.304688 L 71.601562 200.722656 L 71.648438 200.109375 L 71.679688 199.457031 L 71.6875 198.773438 L 71.679688 198.09375 L 71.648438 197.445312 L 71.601562 196.832031 L 71.535156 196.257812 L 71.449219 195.714844 L 71.34375 195.210938 L 71.21875 194.738281 L 71.074219 194.304688 L 70.910156 193.90625 L 70.726562 193.542969 L 70.535156 193.210938 L 70.328125 192.914062 L 70.105469 192.648438 L 69.871094 192.421875 L 69.625 192.230469 L 69.363281 192.070312 L 69.089844 191.949219 L 68.800781 191.859375 L 68.5 191.808594 L 68.183594 191.792969 L 67.875 191.808594 L 67.574219 191.859375 L 67.289062 191.949219 L 67.015625 192.070312 L 66.757812 192.230469 L 66.507812 192.421875 L 66.273438 192.648438 L 66.050781 192.914062 L 65.839844 193.210938 L 65.640625 193.542969 L 65.457031 193.90625 L 65.292969 194.304688 L 65.148438 194.738281 L 65.027344 195.210938 L 64.921875 195.714844 L 64.832031 196.257812 L 64.765625 196.832031 L 64.71875 197.445312 L 64.691406 198.09375 L 64.679688 198.773438 L 64.691406 199.457031 L 64.71875 200.109375 L 64.765625 200.722656 L 64.832031 201.304688 L 64.921875 201.851562 L 65.027344 202.367188 L 65.148438 202.847656 L 65.292969 203.292969 L 65.457031 203.703125 L 65.640625 204.078125 L 65.839844 204.421875 L 66.050781 204.726562 L 66.273438 204.996094 L 66.507812 205.230469 L 66.757812 205.429688 L 67.015625 205.589844 L 67.289062 205.71875 L 67.574219 205.808594 L 67.875 205.859375 Z M 68.183594 205.878906 "/>
<path fill-rule="nonzero" fill="rgb(10.196078%, 10.196078%, 10.196078%)" fill-opacity="1" d="M 67.894531 123.3125 L 67.652344 123.308594 L 67.417969 123.300781 L 67.191406 123.285156 L 66.964844 123.261719 L 66.75 123.234375 L 66.539062 123.199219 L 66.335938 123.160156 L 66.136719 123.113281 L 65.945312 123.0625 L 65.761719 123 L 65.585938 122.9375 L 65.414062 122.871094 L 65.25 122.800781 L 65.089844 122.726562 L 64.933594 122.648438 L 64.78125 122.566406 L 64.632812 122.480469 L 64.492188 122.394531 L 64.355469 122.304688 L 64.222656 122.210938 L 64.097656 122.113281 L 63.96875 122.015625 L 63.847656 121.921875 L 63.730469 121.824219 L 63.613281 121.730469 L 63.5 121.632812 L 63.386719 121.539062 L 63.175781 121.34375 L 63.070312 121.25 L 63.671875 120.503906 L 63.8125 120.644531 L 63.960938 120.78125 L 64.113281 120.914062 L 64.269531 121.046875 L 64.433594 121.175781 L 64.601562 121.304688 L 64.777344 121.433594 L 64.953125 121.558594 L 65.136719 121.679688 L 65.328125 121.800781 L 65.53125 121.910156 L 65.746094 122.007812 L 65.96875 122.09375 L 66.207031 122.171875 L 66.457031 122.234375 L 66.714844 122.285156 L 66.988281 122.324219 L 67.269531 122.355469 L 67.566406 122.371094 L 67.871094 122.378906 L 68.078125 122.371094 L 68.277344 122.355469 L 68.476562 122.332031 L 68.671875 122.296875 L 68.863281 122.25 L 69.050781 122.195312 L 69.234375 122.128906 L 69.414062 122.054688 L 69.59375 121.96875 L 69.769531 121.875 L 69.9375 121.765625 L 70.101562 121.644531 L 70.257812 121.519531 L 70.40625 121.386719 L 70.546875 121.242188 L 70.683594 121.09375 L 70.8125 120.933594 L 70.933594 120.765625 L 71.050781 120.59375 L 71.160156 120.410156 L 71.261719 120.21875 L 71.351562 120.023438 L 71.429688 119.820312 L 71.496094 119.613281 L 71.554688 119.402344 L 71.601562 119.183594 L 71.640625 118.957031 L 71.667969 118.726562 L 71.683594 118.492188 L 71.6875 118.25 L 71.675781 117.886719 L 71.648438 117.542969 L 71.59375 117.210938 L 71.523438 116.898438 L 71.429688 116.597656 L 71.316406 116.316406 L 71.183594 116.050781 L 71.027344 115.800781 L 70.851562 115.566406 L 70.65625 115.34375 L 70.449219 115.144531 L 70.226562 114.964844 L 69.988281 114.808594 L 69.738281 114.667969 L 69.472656 114.554688 L 69.195312 114.457031 L 68.902344 114.382812 L 68.597656 114.332031 L 68.277344 114.300781 L 67.945312 114.289062 L 67.769531 114.292969 L 67.597656 114.300781 L 67.433594 114.316406 L 67.273438 114.335938 L 67.117188 114.363281 L 66.964844 114.394531 L 66.816406 114.429688 L 66.675781 114.472656 L 66.539062 114.523438 L 66.40625 114.578125 L 66.28125 114.632812 L 66.15625 114.691406 L 66.027344 114.753906 L 65.898438 114.824219 L 65.765625 114.894531 L 65.632812 114.972656 L 65.5 115.054688 L 65.363281 115.136719 L 65.226562 115.226562 L 65.089844 115.320312 L 64.34375 114.867188 L 64.894531 107.6875 L 71.976562 107.6875 L 71.976562 108.625 L 65.855469 108.625 L 65.375 114.167969 L 65.496094 114.097656 L 65.617188 114.03125 L 65.742188 113.964844 L 65.863281 113.90625 L 65.988281 113.84375 L 66.238281 113.734375 L 66.367188 113.683594 L 66.496094 113.636719 L 66.625 113.59375 L 66.753906 113.546875 L 66.890625 113.507812 L 67.03125 113.472656 L 67.171875 113.441406 L 67.320312 113.414062 L 67.46875 113.390625 L 67.625 113.375 L 67.785156 113.363281 L 67.945312 113.355469 L 68.113281 113.351562 L 68.367188 113.359375 L 68.621094 113.375 L 68.867188 113.402344 L 69.109375 113.4375 L 69.347656 113.484375 L 69.582031 113.542969 L 69.808594 113.613281 L 70.03125 113.691406 L 70.25 113.78125 L 70.464844 113.882812 L 70.675781 113.988281 L 70.878906 114.105469 L 71.070312 114.234375 L 71.253906 114.375 L 71.429688 114.53125 L 71.597656 114.695312 L 71.753906 114.871094 L 71.898438 115.054688 L 72.039062 115.253906 L 72.167969 115.464844 L 72.285156 115.683594 L 72.394531 115.914062 L 72.484375 116.15625 L 72.566406 116.410156 L 72.636719 116.675781 L 72.691406 116.957031 L 72.734375 117.25 L 72.765625 117.554688 L 72.785156 117.871094 L 72.792969 118.203125 L 72.785156 118.523438 L 72.761719 118.835938 L 72.726562 119.136719 L 72.675781 119.429688 L 72.613281 119.714844 L 72.53125 119.988281 L 72.4375 120.25 L 72.332031 120.503906 L 72.207031 120.75 L 72.070312 120.984375 L 71.929688 121.207031 L 71.777344 121.414062 L 71.617188 121.613281 L 71.445312 121.804688 L 71.269531 121.980469 L 71.082031 122.148438 L 70.886719 122.304688 L 70.683594 122.453125 L 70.46875 122.589844 L 70.246094 122.714844 L 70.027344 122.828125 L 69.800781 122.929688 L 69.574219 123.019531 L 69.339844 123.097656 L 69.109375 123.164062 L 68.871094 123.21875 L 68.632812 123.257812 L 68.390625 123.289062 L 68.144531 123.308594 Z M 67.894531 123.3125 "/>
<path fill-rule="nonzero" fill="rgb(10.196078%, 10.196078%, 10.196078%)" fill-opacity="1" d="M 52.96875 39.546875 L 52.96875 38.613281 L 56.566406 38.613281 L 56.566406 25.890625 L 53.832031 25.890625 L 53.832031 25.171875 L 54.199219 25.101562 L 54.375 25.0625 L 54.550781 25.027344 L 54.71875 24.984375 L 54.886719 24.945312 L 55.046875 24.902344 L 55.207031 24.855469 L 55.359375 24.8125 L 55.511719 24.761719 L 55.660156 24.714844 L 55.800781 24.664062 L 55.9375 24.613281 L 56.074219 24.558594 L 56.203125 24.503906 L 56.328125 24.449219 L 56.449219 24.390625 L 56.675781 24.273438 L 56.785156 24.210938 L 57.648438 24.210938 L 57.648438 38.613281 L 60.984375 38.613281 L 60.984375 39.546875 Z M 52.96875 39.546875 "/>
<path fill-rule="nonzero" fill="rgb(10.196078%, 10.196078%, 10.196078%)" fill-opacity="1" d="M 68.183594 39.835938 L 67.757812 39.816406 L 67.351562 39.753906 L 66.960938 39.648438 L 66.59375 39.5 L 66.246094 39.3125 L 65.917969 39.082031 L 65.609375 38.8125 L 65.320312 38.5 L 65.050781 38.144531 L 64.800781 37.746094 L 64.570312 37.3125 L 64.367188 36.84375 L 64.1875 36.335938 L 64.03125 35.796875 L 63.898438 35.222656 L 63.792969 34.609375 L 63.707031 33.964844 L 63.648438 33.285156 L 63.613281 32.570312 L 63.601562 31.820312 L 63.613281 31.074219 L 63.648438 30.363281 L 63.707031 29.691406 L 63.792969 29.050781 L 63.898438 28.449219 L 64.03125 27.878906 L 64.1875 27.347656 L 64.367188 26.851562 L 64.570312 26.390625 L 64.800781 25.964844 L 65.050781 25.574219 L 65.320312 25.230469 L 65.609375 24.921875 L 65.917969 24.65625 L 66.246094 24.433594 L 66.59375 24.25 L 66.960938 24.105469 L 67.351562 24.003906 L 67.757812 23.945312 L 68.183594 23.921875 L 68.613281 23.945312 L 69.027344 24.003906 L 69.414062 24.105469 L 69.785156 24.25 L 70.132812 24.433594 L 70.460938 24.65625 L 70.769531 24.921875 L 71.054688 25.230469 L 71.324219 25.574219 L 71.566406 25.964844 L 71.796875 26.390625 L 72 26.851562 L 72.179688 27.347656 L 72.335938 27.878906 L 72.46875 28.449219 L 72.574219 29.050781 L 72.660156 29.691406 L 72.71875 30.363281 L 72.757812 31.074219 L 72.769531 31.820312 L 72.757812 32.570312 L 72.71875 33.285156 L 72.660156 33.964844 L 72.574219 34.609375 L 72.46875 35.222656 L 72.335938 35.796875 L 72.179688 36.335938 L 72 36.84375 L 71.796875 37.3125 L 71.566406 37.746094 L 71.324219 38.144531 L 71.054688 38.5 L 70.769531 38.8125 L 70.460938 39.082031 L 70.132812 39.3125 L 69.785156 39.5 L 69.414062 39.648438 L 69.027344 39.753906 L 68.613281 39.816406 Z M 68.183594 38.921875 L 68.5 38.90625 L 68.800781 38.851562 L 69.089844 38.761719 L 69.363281 38.636719 L 69.625 38.472656 L 69.871094 38.277344 L 70.105469 38.042969 L 70.328125 37.773438 L 70.535156 37.464844 L 70.726562 37.125 L 70.910156 36.746094 L 71.074219 36.335938 L 71.21875 35.890625 L 71.34375 35.410156 L 71.449219 34.898438 L 71.535156 34.351562 L 71.601562 33.769531 L 71.648438 33.152344 L 71.679688 32.503906 L 71.6875 31.820312 L 71.679688 31.136719 L 71.648438 30.488281 L 71.601562 29.878906 L 71.535156 29.300781 L 71.449219 28.757812 L 71.34375 28.253906 L 71.21875 27.785156 L 71.074219 27.351562 L 70.910156 26.949219 L 70.726562 26.585938 L 70.535156 26.253906 L 70.328125 25.957031 L 70.105469 25.695312 L 69.871094 25.464844 L 69.625 25.273438 L 69.363281 25.117188 L 69.089844 24.992188 L 68.800781 24.90625 L 68.5 24.851562 L 68.183594 24.835938 L 67.875 24.851562 L 67.574219 24.90625 L 67.289062 24.992188 L 67.015625 25.117188 L 66.757812 25.273438 L 66.507812 25.464844 L 66.273438 25.695312 L 66.050781 25.957031 L 65.839844 26.253906 L 65.640625 26.585938 L 65.457031 26.949219 L 65.292969 27.351562 L 65.148438 27.785156 L 65.027344 28.253906 L 64.921875 28.757812 L 64.832031 29.300781 L 64.765625 29.878906 L 64.71875 30.488281 L 64.691406 31.136719 L 64.679688 31.820312 L 64.691406 32.503906 L 64.71875 33.152344 L 64.765625 33.769531 L 64.832031 34.351562 L 64.921875 34.898438 L 65.027344 35.410156 L 65.148438 35.890625 L 65.292969 36.335938 L 65.457031 36.746094 L 65.640625 37.125 L 65.839844 37.464844 L 66.050781 37.773438 L 66.273438 38.042969 L 66.507812 38.277344 L 66.757812 38.472656 L 67.015625 38.636719 L 67.289062 38.761719 L 67.574219 38.851562 L 67.875 38.90625 Z M 68.183594 38.921875 "/>
<path fill-rule="nonzero" fill="rgb(10.196078%, 10.196078%, 10.196078%)" fill-opacity="1" d="M 236.285156 411.800781 L 235.859375 411.777344 L 235.453125 411.714844 L 235.0625 411.613281 L 234.695312 411.464844 L 234.347656 411.277344 L 234.019531 411.046875 L 233.710938 410.777344 L 233.421875 410.464844 L 233.152344 410.109375 L 232.902344 409.710938 L 232.675781 409.277344 L 232.46875 408.808594 L 232.289062 408.300781 L 232.132812 407.761719 L 232 407.1875 L 231.894531 406.574219 L 231.808594 405.929688 L 231.75 405.25 L 231.714844 404.535156 L 231.703125 403.785156 L 231.714844 403.039062 L 231.75 402.328125 L 231.808594 401.652344 L 231.894531 401.015625 L 232 400.410156 L 232.132812 399.84375 L 232.289062 399.3125 L 232.46875 398.816406 L 232.675781 398.355469 L 232.902344 397.929688 L 233.152344 397.539062 L 233.421875 397.195312 L 233.710938 396.886719 L 234.019531 396.621094 L 234.347656 396.398438 L 234.695312 396.214844 L 235.0625 396.070312 L 235.453125 395.96875 L 235.859375 395.910156 L 236.285156 395.886719 L 236.71875 395.910156 L 237.128906 395.96875 L 237.519531 396.070312 L 237.886719 396.214844 L 238.234375 396.398438 L 238.5625 396.621094 L 238.871094 396.886719 L 239.160156 397.195312 L 239.425781 397.539062 L 239.667969 397.929688 L 239.898438 398.355469 L 240.101562 398.816406 L 240.28125 399.3125 L 240.4375 399.84375 L 240.570312 400.410156 L 240.679688 401.015625 L 240.761719 401.652344 L 240.820312 402.328125 L 240.859375 403.039062 L 240.871094 403.785156 L 240.859375 404.535156 L 240.820312 405.25 L 240.761719 405.929688 L 240.679688 406.574219 L 240.570312 407.1875 L 240.4375 407.761719 L 240.28125 408.300781 L 240.101562 408.808594 L 239.898438 409.277344 L 239.667969 409.710938 L 239.425781 410.109375 L 239.160156 410.464844 L 238.871094 410.777344 L 238.5625 411.046875 L 238.234375 411.277344 L 237.886719 411.464844 L 237.519531 411.613281 L 237.128906 411.714844 L 236.71875 411.777344 Z M 236.285156 410.886719 L 236.601562 410.871094 L 236.902344 410.816406 L 237.191406 410.726562 L 237.464844 410.601562 L 237.726562 410.4375 L 237.972656 410.238281 L 238.207031 410.007812 L 238.429688 409.734375 L 238.636719 409.429688 L 238.828125 409.089844 L 239.011719 408.710938 L 239.175781 408.300781 L 239.320312 407.855469 L 239.445312 407.375 L 239.550781 406.863281 L 239.636719 406.316406 L 239.703125 405.734375 L 239.75 405.117188 L 239.78125 404.46875 L 239.789062 403.785156 L 239.78125 403.101562 L 239.75 402.453125 L 239.703125 401.839844 L 239.636719 401.265625 L 239.550781 400.722656 L 239.445312 400.21875 L 239.320312 399.75 L 239.175781 399.3125 L 239.011719 398.914062 L 238.828125 398.550781 L 238.636719 398.21875 L 238.429688 397.921875 L 238.207031 397.660156 L 237.972656 397.429688 L 237.726562 397.238281 L 237.464844 397.082031 L 237.191406 396.957031 L 236.902344 396.871094 L 236.601562 396.816406 L 236.285156 396.800781 L 235.976562 396.816406 L 235.675781 396.871094 L 235.390625 396.957031 L 235.117188 397.082031 L 234.859375 397.238281 L 234.609375 397.429688 L 234.375 397.660156 L 234.152344 397.921875 L 233.941406 398.21875 L 233.742188 398.550781 L 233.558594 398.914062 L 233.394531 399.3125 L 233.253906 399.75 L 233.128906 400.21875 L 233.023438 400.722656 L 232.933594 401.265625 L 232.867188 401.839844 L 232.820312 402.453125 L 232.792969 403.101562 L 232.78125 403.785156 L 232.792969 404.46875 L 232.820312 405.117188 L 232.867188 405.734375 L 232.933594 406.316406 L 233.023438 406.863281 L 233.128906 407.375 L 233.253906 407.855469 L 233.394531 408.300781 L 233.558594 408.710938 L 233.742188 409.089844 L 233.941406 409.429688 L 234.152344 409.734375 L 234.375 410.007812 L 234.609375 410.238281 L 234.859375 410.4375 L 235.117188 410.601562 L 235.390625 410.726562 L 235.675781 410.816406 L 235.976562 410.871094 Z M 236.285156 410.886719 "/>
<path fill-rule="nonzero" fill="rgb(10.196078%, 10.196078%, 10.196078%)" fill-opacity="1" d="M 624.417969 411.511719 L 624.417969 410.574219 L 628.019531 410.574219 L 628.019531 397.855469 L 625.285156 397.855469 L 625.285156 397.136719 L 625.46875 397.101562 L 625.648438 397.066406 L 625.828125 397.027344 L 626.171875 396.949219 L 626.335938 396.910156 L 626.5 396.867188 L 626.660156 396.820312 L 626.964844 396.726562 L 627.109375 396.679688 L 627.253906 396.628906 L 627.390625 396.578125 L 627.523438 396.523438 L 627.652344 396.46875 L 627.777344 396.414062 L 627.898438 396.355469 L 628.015625 396.296875 L 628.128906 396.238281 L 628.234375 396.175781 L 629.101562 396.175781 L 629.101562 410.574219 L 632.4375 410.574219 L 632.4375 411.511719 Z M 624.417969 411.511719 "/>
<path fill-rule="nonzero" fill="rgb(0%, 0%, 0%)" fill-opacity="1" d="M 30.761719 281 L 14.945312 281 L 14.945312 277.015625 L 14.953125 276.488281 L 14.984375 275.988281 L 15.03125 275.507812 L 15.101562 275.054688 L 15.191406 274.621094 L 15.296875 274.214844 L 15.425781 273.828125 L 15.574219 273.46875 L 15.742188 273.128906 L 15.929688 272.816406 L 16.140625 272.523438 L 16.378906 272.261719 L 16.648438 272.03125 L 16.949219 271.832031 L 17.277344 271.664062 L 17.636719 271.523438 L 18.023438 271.417969 L 18.4375 271.339844 L 18.886719 271.292969 L 19.359375 271.277344 L 19.8125 271.292969 L 20.242188 271.339844 L 20.652344 271.414062 L 21.035156 271.519531 L 21.394531 271.65625 L 21.730469 271.824219 L 22.042969 272.019531 L 22.332031 272.246094 L 22.597656 272.503906 L 22.839844 272.792969 L 23.054688 273.101562 L 23.246094 273.433594 L 23.414062 273.789062 L 23.5625 274.164062 L 23.6875 274.566406 L 23.789062 274.992188 L 23.867188 275.4375 L 23.921875 275.910156 L 23.957031 276.402344 L 23.96875 276.917969 L 23.96875 279.894531 L 30.761719 279.894531 Z M 23.03125 279.894531 L 23.03125 277.183594 L 23.023438 276.710938 L 22.996094 276.261719 L 22.953125 275.839844 L 22.894531 275.445312 L 22.816406 275.070312 L 22.722656 274.722656 L 22.609375 274.402344 L 22.480469 274.105469 L 22.332031 273.832031 L 22.167969 273.582031 L 21.984375 273.359375 L 21.777344 273.160156 L 21.550781 272.984375 L 21.304688 272.832031 L 21.035156 272.703125 L 20.742188 272.59375 L 20.429688 272.511719 L 20.09375 272.453125 L 19.738281 272.417969 L 19.359375 272.40625 L 18.972656 272.417969 L 18.613281 272.457031 L 18.277344 272.515625 L 17.964844 272.601562 L 17.679688 272.714844 L 17.417969 272.847656 L 17.183594 273.007812 L 16.972656 273.191406 L 16.785156 273.398438 L 16.625 273.632812 L 16.484375 273.882812 L 16.355469 274.160156 L 16.246094 274.464844 L 16.148438 274.789062 L 16.066406 275.144531 L 16 275.519531 L 15.945312 275.921875 L 15.910156 276.351562 L 15.886719 276.800781 L 15.878906 277.277344 L 15.878906 279.894531 Z M 23.03125 279.894531 "/>
<path fill-rule="nonzero" fill="rgb(0%, 0%, 0%)" fill-opacity="1" d="M 31.046875 263.742188 L 31.039062 264.015625 L 31.019531 264.28125 L 30.984375 264.546875 L 30.9375 264.808594 L 30.875 265.0625 L 30.796875 265.316406 L 30.707031 265.5625 L 30.601562 265.808594 L 30.484375 266.050781 L 30.351562 266.289062 L 30.203125 266.519531 L 30.039062 266.738281 L 29.863281 266.953125 L 29.675781 267.15625 L 29.476562 267.347656 L 29.261719 267.535156 L 29.039062 267.710938 L 28.800781 267.878906 L 28.550781 268.035156 L 28.289062 268.183594 L 28.007812 268.320312 L 27.71875 268.441406 L 27.417969 268.550781 L 27.109375 268.644531 L 26.789062 268.722656 L 26.457031 268.789062 L 26.113281 268.839844 L 25.761719 268.875 L 25.398438 268.894531 L 25.023438 268.902344 L 24.640625 268.894531 L 24.269531 268.875 L 23.910156 268.839844 L 23.566406 268.789062 L 23.230469 268.722656 L 22.90625 268.644531 L 22.597656 268.550781 L 22.296875 268.441406 L 22.011719 268.320312 L 21.734375 268.183594 L 21.46875 268.035156 L 21.214844 267.878906 L 20.976562 267.710938 L 20.75 267.535156 L 20.535156 267.347656 L 20.335938 267.15625 L 20.148438 266.953125 L 19.976562 266.738281 L 19.816406 266.519531 L 19.671875 266.289062 L 19.535156 266.050781 L 19.414062 265.808594 L 19.304688 265.5625 L 19.210938 265.316406 L 19.132812 265.0625 L 19.066406 264.808594 L 19.015625 264.546875 L 18.980469 264.28125 L 18.960938 264.015625 L 18.953125 263.742188 L 18.960938 263.46875 L 18.980469 263.195312 L 19.015625 262.925781 L 19.066406 262.664062 L 19.132812 262.40625 L 19.210938 262.152344 L 19.304688 261.898438 L 19.414062 261.652344 L 19.535156 261.414062 L 19.671875 261.175781 L 19.816406 260.945312 L 19.976562 260.722656 L 20.148438 260.511719 L 20.335938 260.308594 L 20.535156 260.113281 L 20.75 259.929688 L 20.976562 259.753906 L 21.214844 259.585938 L 21.46875 259.429688 L 21.734375 259.277344 L 22.011719 259.140625 L 22.296875 259.019531 L 22.597656 258.910156 L 22.90625 258.820312 L 23.230469 258.738281 L 23.566406 258.675781 L 23.910156 258.625 L 24.269531 258.589844 L 24.640625 258.566406 L 25.023438 258.558594 L 25.398438 258.566406 L 25.761719 258.589844 L 26.113281 258.625 L 26.457031 258.675781 L 26.789062 258.738281 L 27.109375 258.820312 L 27.417969 258.910156 L 27.71875 259.019531 L 28.007812 259.140625 L 28.289062 259.277344 L 28.550781 259.429688 L 28.800781 259.585938 L 29.039062 259.753906 L 29.261719 259.929688 L 29.476562 260.113281 L 29.675781 260.308594 L 29.863281 260.511719 L 30.039062 260.722656 L 30.203125 260.945312 L 30.351562 261.175781 L 30.484375 261.414062 L 30.601562 261.652344 L 30.707031 261.898438 L 30.796875 262.152344 L 30.875 262.40625 L 30.9375 262.664062 L 30.984375 262.925781 L 31.019531 263.195312 L 31.039062 263.46875 Z M 30.113281 263.742188 L 30.105469 263.511719 L 30.085938 263.285156 L 30.054688 263.0625 L 30.007812 262.84375 L 29.949219 262.632812 L 29.878906 262.425781 L 29.792969 262.226562 L 29.695312 262.03125 L 29.585938 261.839844 L 29.464844 261.65625 L 29.328125 261.476562 L 29.1875 261.304688 L 29.03125 261.140625 L 28.867188 260.988281 L 28.695312 260.839844 L 28.511719 260.699219 L 28.320312 260.566406 L 28.121094 260.441406 L 27.910156 260.324219 L 27.6875 260.214844 L 27.453125 260.109375 L 27.210938 260.015625 L 26.964844 259.933594 L 26.707031 259.863281 L 26.445312 259.800781 L 26.175781 259.75 L 25.898438 259.714844 L 25.613281 259.683594 L 25.324219 259.667969 L 25.023438 259.664062 L 24.71875 259.667969 L 24.425781 259.683594 L 24.136719 259.714844 L 23.855469 259.75 L 23.582031 259.800781 L 23.320312 259.863281 L 23.0625 259.933594 L 22.8125 260.015625 L 22.570312 260.109375 L 22.335938 260.214844 L 22.109375 260.324219 L 21.894531 260.441406 L 21.691406 260.566406 L 21.496094 260.699219 L 21.308594 260.839844 L 21.136719 260.988281 L 20.96875 261.140625 L 20.816406 261.304688 L 20.671875 261.476562 L 20.535156 261.65625 L 20.414062 261.839844 L 20.300781 262.03125 L 20.207031 262.226562 L 20.121094 262.425781 L 20.050781 262.632812 L 19.992188 262.84375 L 19.945312 263.0625 L 19.914062 263.285156 L 19.894531 263.511719 L 19.886719 263.742188 L 19.894531 263.972656 L 19.914062 264.195312 L 19.945312 264.414062 L 19.992188 264.628906 L 20.050781 264.839844 L 20.121094 265.046875 L 20.207031 265.25 L 20.300781 265.449219 L 20.414062 265.640625 L 20.535156 265.832031 L 20.671875 266.011719 L 20.816406 266.179688 L 20.96875 266.34375 L 21.136719 266.5 L 21.308594 266.648438 L 21.496094 266.789062 L 21.691406 266.917969 L 21.894531 267.042969 L 22.109375 267.160156 L 22.335938 267.269531 L 22.570312 267.371094 L 22.8125 267.460938 L 23.0625 267.539062 L 23.320312 267.609375 L 23.582031 267.667969 L 23.855469 267.714844 L 24.136719 267.75 L 24.425781 267.777344 L 24.71875 267.792969 L 25.023438 267.800781 L 25.324219 267.792969 L 25.613281 267.777344 L 25.898438 267.75 L 26.175781 267.714844 L 26.445312 267.667969 L 26.707031 267.609375 L 26.964844 267.539062 L 27.210938 267.460938 L 27.453125 267.371094 L 27.6875 267.269531 L 27.910156 267.160156 L 28.121094 267.042969 L 28.320312 266.917969 L 28.511719 266.789062 L 28.695312 266.648438 L 28.867188 266.5 L 29.03125 266.34375 L 29.1875 266.179688 L 29.328125 266.011719 L 29.464844 265.832031 L 29.585938 265.640625 L 29.695312 265.449219 L 29.792969 265.25 L 29.878906 265.046875 L 29.949219 264.839844 L 30.007812 264.628906 L 30.054688 264.414062 L 30.085938 264.195312 L 30.105469 263.972656 Z M 30.113281 263.742188 "/>
<path fill-rule="nonzero" fill="rgb(0%, 0%, 0%)" fill-opacity="1" d="M 31.046875 253.6875 L 31.03125 253.957031 L 30.976562 254.195312 L 30.882812 254.410156 L 30.757812 254.59375 L 30.59375 254.75 L 30.390625 254.875 L 30.152344 254.976562 L 29.878906 255.046875 L 29.570312 255.089844 L 29.222656 255.101562 L 13.503906 255.101562 L 13.503906 254.046875 L 29.367188 254.046875 L 29.507812 254.042969 L 29.636719 254.027344 L 29.746094 254 L 29.84375 253.964844 L 29.925781 253.921875 L 29.992188 253.867188 L 30.046875 253.800781 L 30.082031 253.726562 L 30.105469 253.640625 L 30.113281 253.542969 L 30.113281 253.375 L 30.105469 253.355469 L 30.101562 253.332031 L 30.097656 253.3125 L 30.09375 253.285156 L 30.089844 253.261719 L 30.082031 253.234375 L 30.078125 253.207031 L 30.070312 253.144531 L 30.0625 253.109375 L 30.929688 252.917969 L 30.945312 252.988281 L 30.953125 253.019531 L 30.960938 253.054688 L 30.96875 253.085938 L 30.984375 253.15625 L 30.988281 253.1875 L 30.996094 253.222656 L 31 253.253906 L 31.007812 253.289062 L 31.015625 253.328125 L 31.023438 253.363281 L 31.03125 253.40625 L 31.035156 253.445312 L 31.046875 253.585938 Z M 31.046875 253.6875 "/>
<path fill-rule="nonzero" fill="rgb(0%, 0%, 0%)" fill-opacity="1" d="M 30.761719 249.414062 L 19.238281 249.414062 L 19.238281 248.359375 L 30.761719 248.359375 Z M 16.457031 248.863281 L 16.453125 248.9375 L 16.445312 249.011719 L 16.433594 249.082031 L 16.414062 249.152344 L 16.390625 249.21875 L 16.328125 249.34375 L 16.285156 249.402344 L 16.242188 249.457031 L 16.191406 249.511719 L 16.136719 249.5625 L 16.078125 249.605469 L 16.015625 249.644531 L 15.949219 249.679688 L 15.878906 249.710938 L 15.804688 249.734375 L 15.648438 249.765625 L 15.5625 249.773438 L 15.390625 249.773438 L 15.316406 249.765625 L 15.238281 249.75 L 15.167969 249.734375 L 15.101562 249.710938 L 15.035156 249.679688 L 14.972656 249.644531 L 14.910156 249.605469 L 14.855469 249.5625 L 14.800781 249.511719 L 14.75 249.457031 L 14.703125 249.402344 L 14.664062 249.34375 L 14.601562 249.21875 L 14.578125 249.152344 L 14.558594 249.082031 L 14.546875 249.011719 L 14.539062 248.9375 L 14.535156 248.863281 L 14.539062 248.785156 L 14.546875 248.707031 L 14.558594 248.632812 L 14.578125 248.5625 L 14.601562 248.496094 L 14.632812 248.433594 L 14.664062 248.375 L 14.703125 248.316406 L 14.75 248.265625 L 14.800781 248.214844 L 14.855469 248.164062 L 14.910156 248.121094 L 14.972656 248.082031 L 15.035156 248.046875 L 15.101562 248.015625 L 15.167969 247.992188 L 15.238281 247.976562 L 15.316406 247.960938 L 15.390625 247.953125 L 15.5625 247.953125 L 15.648438 247.960938 L 15.804688 247.992188 L 15.878906 248.015625 L 15.949219 248.046875 L 16.015625 248.082031 L 16.078125 248.121094 L 16.136719 248.164062 L 16.191406 248.214844 L 16.242188 248.265625 L 16.285156 248.316406 L 16.328125 248.375 L 16.359375 248.433594 L 16.390625 248.496094 L 16.414062 248.5625 L 16.433594 248.632812 L 16.445312 248.707031 L 16.453125 248.785156 Z M 16.457031 248.863281 "/>
<path fill-rule="nonzero" fill="rgb(0%, 0%, 0%)" fill-opacity="1" d="M 31.046875 240.773438 L 31.039062 241.101562 L 31.007812 241.402344 L 30.960938 241.6875 L 30.894531 241.945312 L 30.808594 242.183594 L 30.703125 242.402344 L 30.578125 242.597656 L 30.433594 242.773438 L 30.269531 242.925781 L 30.089844 243.054688 L 29.886719 243.167969 L 29.671875 243.269531 L 29.449219 243.359375 L 29.210938 243.4375 L 28.964844 243.503906 L 28.707031 243.558594 L 28.441406 243.601562 L 28.160156 243.632812 L 27.871094 243.648438 L 27.566406 243.65625 L 20.152344 243.65625 L 20.152344 245.457031 L 19.335938 245.457031 L 19.238281 243.632812 L 15.902344 243.488281 L 15.902344 242.574219 L 19.238281 242.574219 L 19.238281 239.238281 L 20.152344 239.238281 L 20.152344 242.574219 L 27.664062 242.574219 L 27.878906 242.570312 L 28.089844 242.558594 L 28.289062 242.539062 L 28.476562 242.515625 L 28.660156 242.480469 L 28.832031 242.4375 L 28.996094 242.386719 L 29.152344 242.328125 L 29.300781 242.265625 L 29.441406 242.191406 L 29.566406 242.105469 L 29.683594 242.007812 L 29.78125 241.890625 L 29.871094 241.757812 L 29.945312 241.609375 L 30.003906 241.445312 L 30.050781 241.265625 L 30.085938 241.070312 L 30.105469 240.859375 L 30.113281 240.632812 L 30.109375 240.5625 L 30.109375 240.496094 L 30.101562 240.425781 L 30.097656 240.355469 L 30.089844 240.285156 L 30.066406 240.136719 L 30.035156 239.988281 L 30.015625 239.910156 L 29.992188 239.832031 L 29.96875 239.75 L 29.941406 239.675781 L 29.917969 239.601562 L 29.890625 239.527344 L 29.835938 239.386719 L 29.78125 239.253906 L 29.753906 239.191406 L 30.617188 238.902344 L 30.742188 239.308594 L 30.773438 239.414062 L 30.800781 239.515625 L 30.855469 239.726562 L 30.878906 239.828125 L 30.902344 239.933594 L 30.929688 240.035156 L 30.957031 240.128906 L 30.976562 240.222656 L 30.996094 240.3125 L 31.011719 240.398438 L 31.023438 240.480469 L 31.035156 240.558594 L 31.042969 240.632812 L 31.046875 240.707031 Z M 31.046875 240.773438 "/>
<path fill-rule="nonzero" fill="rgb(0%, 0%, 0%)" fill-opacity="1" d="M 36.015625 236.886719 L 36.011719 237.015625 L 36.007812 237.140625 L 35.996094 237.265625 L 35.976562 237.386719 L 35.957031 237.503906 L 35.929688 237.621094 L 35.898438 237.734375 L 35.863281 237.847656 L 35.820312 237.957031 L 35.777344 238.0625 L 34.839844 237.824219 L 34.855469 237.785156 L 34.867188 237.746094 L 34.882812 237.703125 L 34.894531 237.660156 L 34.90625 237.621094 L 34.917969 237.574219 L 34.929688 237.53125 L 34.941406 237.484375 L 34.949219 237.4375 L 34.960938 237.390625 L 34.972656 237.339844 L 34.984375 237.285156 L 35.007812 237.183594 L 35.015625 237.132812 L 35.019531 237.082031 L 35.027344 237.035156 L 35.027344 236.984375 L 35.03125 236.933594 L 35.03125 236.886719 L 35.023438 236.679688 L 34.996094 236.476562 L 34.953125 236.285156 L 34.894531 236.097656 L 34.816406 235.914062 L 34.722656 235.742188 L 34.609375 235.574219 L 34.480469 235.414062 L 34.332031 235.257812 L 34.167969 235.109375 L 33.992188 234.964844 L 33.804688 234.824219 L 33.609375 234.691406 L 33.402344 234.566406 L 33.191406 234.445312 L 32.96875 234.332031 L 32.734375 234.222656 L 32.492188 234.121094 L 32.242188 234.023438 L 31.984375 233.933594 L 30.976562 233.625 L 19.238281 238.351562 L 19.238281 237.199219 L 26.488281 234.414062 L 26.632812 234.363281 L 26.78125 234.308594 L 27.085938 234.191406 L 27.242188 234.132812 L 27.402344 234.074219 L 27.566406 234.011719 L 27.730469 233.945312 L 27.902344 233.882812 L 28.070312 233.816406 L 28.414062 233.683594 L 28.582031 233.617188 L 28.910156 233.484375 L 29.074219 233.421875 L 29.234375 233.355469 L 29.394531 233.292969 L 29.550781 233.230469 L 29.703125 233.167969 L 29.703125 233.070312 L 29.550781 233.019531 L 29.394531 232.964844 L 29.234375 232.914062 L 29.074219 232.859375 L 28.910156 232.808594 L 28.746094 232.753906 L 28.582031 232.703125 L 28.414062 232.648438 L 28.242188 232.597656 L 28.070312 232.542969 L 27.902344 232.484375 L 27.730469 232.429688 L 27.402344 232.320312 L 27.242188 232.265625 L 27.085938 232.214844 L 26.78125 232.113281 L 26.632812 232.0625 L 26.488281 232.015625 L 19.238281 229.542969 L 19.238281 228.464844 L 32.199219 233.023438 L 32.390625 233.085938 L 32.582031 233.15625 L 32.765625 233.230469 L 32.953125 233.308594 L 33.136719 233.390625 L 33.316406 233.476562 L 33.496094 233.566406 L 33.675781 233.660156 L 33.851562 233.761719 L 34.023438 233.863281 L 34.199219 233.964844 L 34.367188 234.074219 L 34.527344 234.1875 L 34.679688 234.304688 L 34.828125 234.425781 L 34.96875 234.554688 L 35.101562 234.6875 L 35.230469 234.824219 L 35.351562 234.964844 L 35.464844 235.109375 L 35.570312 235.261719 L 35.664062 235.421875 L 35.746094 235.582031 L 35.816406 235.753906 L 35.878906 235.925781 L 35.925781 236.109375 L 35.964844 236.292969 L 35.992188 236.484375 L 36.011719 236.683594 Z M 36.015625 236.886719 "/>
<path fill-rule="nonzero" fill="rgb(0%, 0%, 0%)" fill-opacity="1" d="M 34.960938 218.09375 L 34.476562 218.382812 L 33.992188 218.65625 L 33.5 218.917969 L 33 219.171875 L 32.5 219.410156 L 31.992188 219.636719 L 31.480469 219.851562 L 30.964844 220.054688 L 30.445312 220.246094 L 29.921875 220.421875 L 29.382812 220.582031 L 28.835938 220.726562 L 28.277344 220.851562 L 27.707031 220.960938 L 27.128906 221.054688 L 26.542969 221.128906 L 25.945312 221.1875 L 25.335938 221.230469 L 24.714844 221.253906 L 24.089844 221.261719 L 23.460938 221.253906 L 22.84375 221.230469 L 22.234375 221.1875 L 21.636719 221.128906 L 21.050781 221.054688 L 20.476562 220.960938 L 19.910156 220.851562 L 19.355469 220.726562 L 18.8125 220.582031 L 18.28125 220.421875 L 17.75 220.246094 L 17.226562 220.054688 L 16.707031 219.851562 L 16.191406 219.636719 L 15.683594 219.410156 L 15.179688 219.171875 L 14.679688 218.917969 L 14.1875 218.65625 L 13.699219 218.382812 L 13.214844 218.09375 L 13.601562 217.445312 L 14.054688 217.722656 L 14.519531 217.988281 L 14.992188 218.238281 L 15.472656 218.472656 L 15.964844 218.695312 L 16.460938 218.90625 L 16.96875 219.101562 L 17.484375 219.28125 L 18.011719 219.453125 L 18.542969 219.605469 L 19.082031 219.742188 L 19.625 219.867188 L 20.171875 219.972656 L 20.722656 220.066406 L 21.273438 220.148438 L 21.828125 220.210938 L 22.390625 220.261719 L 22.953125 220.296875 L 23.519531 220.320312 L 24.089844 220.328125 L 24.652344 220.320312 L 25.214844 220.296875 L 25.773438 220.261719 L 26.332031 220.210938 L 26.882812 220.148438 L 27.433594 220.066406 L 27.980469 219.972656 L 28.527344 219.867188 L 29.070312 219.742188 L 29.609375 219.605469 L 30.140625 219.453125 L 30.667969 219.28125 L 31.183594 219.101562 L 31.691406 218.90625 L 32.195312 218.695312 L 32.6875 218.472656 L 33.171875 218.238281 L 33.648438 217.988281 L 34.117188 217.722656 L 34.574219 217.445312 Z M 34.960938 218.09375 "/>
<path fill-rule="nonzero" fill="rgb(0%, 0%, 0%)" fill-opacity="1" d="M 30.761719 214.351562 L 14.945312 214.351562 L 14.945312 209.816406 L 14.953125 209.355469 L 14.980469 208.910156 L 15.03125 208.488281 L 15.097656 208.082031 L 15.183594 207.695312 L 15.289062 207.328125 L 15.414062 206.980469 L 15.558594 206.652344 L 15.722656 206.339844 L 15.902344 206.046875 L 16.105469 205.777344 L 16.332031 205.539062 L 16.585938 205.324219 L 16.867188 205.140625 L 17.175781 204.984375 L 17.511719 204.859375 L 17.871094 204.757812 L 18.261719 204.6875 L 18.675781 204.644531 L 19.121094 204.632812 L 19.492188 204.640625 L 19.847656 204.675781 L 20.183594 204.730469 L 20.507812 204.808594 L 20.8125 204.90625 L 21.101562 205.027344 L 21.375 205.171875 L 21.632812 205.335938 L 21.871094 205.527344 L 22.097656 205.734375 L 22.304688 205.960938 L 22.496094 206.199219 L 22.667969 206.453125 L 22.824219 206.726562 L 22.964844 207.011719 L 23.089844 207.316406 L 23.195312 207.636719 L 23.285156 207.96875 L 23.359375 208.320312 L 23.414062 208.6875 L 30.761719 204.320312 L 30.761719 205.589844 L 23.488281 209.886719 L 23.488281 213.246094 L 30.761719 213.246094 Z M 22.574219 213.246094 L 22.574219 210.101562 L 22.566406 209.695312 L 22.542969 209.304688 L 22.5 208.9375 L 22.441406 208.585938 L 22.367188 208.253906 L 22.273438 207.941406 L 22.164062 207.652344 L 22.039062 207.375 L 21.894531 207.121094 L 21.734375 206.886719 L 21.554688 206.671875 L 21.355469 206.480469 L 21.136719 206.3125 L 20.902344 206.164062 L 20.648438 206.042969 L 20.378906 205.941406 L 20.089844 205.859375 L 19.785156 205.804688 L 19.460938 205.769531 L 19.121094 205.757812 L 18.773438 205.769531 L 18.453125 205.804688 L 18.148438 205.859375 L 17.867188 205.941406 L 17.609375 206.042969 L 17.367188 206.164062 L 17.152344 206.3125 L 16.953125 206.480469 L 16.777344 206.671875 L 16.625 206.886719 L 16.484375 207.121094 L 16.355469 207.375 L 16.246094 207.652344 L 16.148438 207.941406 L 16.066406 208.253906 L 16 208.585938 L 15.945312 208.9375 L 15.910156 209.304688 L 15.886719 209.695312 L 15.878906 210.101562 L 15.878906 213.246094 Z M 22.574219 213.246094 "/>
<path fill-rule="nonzero" fill="rgb(0%, 0%, 0%)" fill-opacity="1" d="M 31.046875 197.214844 L 31.039062 197.488281 L 31.019531 197.753906 L 30.984375 198.019531 L 30.9375 198.277344 L 30.875 198.535156 L 30.796875 198.789062 L 30.707031 199.035156 L 30.601562 199.28125 L 30.484375 199.523438 L 30.351562 199.757812 L 30.203125 199.988281 L 30.039062 200.210938 L 29.863281 200.421875 L 29.675781 200.628906 L 29.476562 200.820312 L 29.261719 201.007812 L 29.039062 201.183594 L 28.800781 201.347656 L 28.550781 201.507812 L 28.289062 201.65625 L 28.007812 201.792969 L 27.71875 201.914062 L 27.417969 202.023438 L 27.109375 202.117188 L 26.789062 202.195312 L 26.457031 202.261719 L 26.113281 202.308594 L 25.761719 202.347656 L 25.398438 202.367188 L 25.023438 202.375 L 24.640625 202.367188 L 24.269531 202.347656 L 23.910156 202.308594 L 23.566406 202.261719 L 23.230469 202.195312 L 22.90625 202.117188 L 22.597656 202.023438 L 22.296875 201.914062 L 22.011719 201.792969 L 21.734375 201.65625 L 21.46875 201.507812 L 21.214844 201.347656 L 20.976562 201.183594 L 20.75 201.007812 L 20.535156 200.820312 L 20.335938 200.628906 L 20.148438 200.421875 L 19.976562 200.210938 L 19.816406 199.988281 L 19.671875 199.757812 L 19.535156 199.523438 L 19.414062 199.28125 L 19.304688 199.035156 L 19.210938 198.789062 L 19.132812 198.535156 L 19.066406 198.277344 L 19.015625 198.019531 L 18.980469 197.753906 L 18.960938 197.488281 L 18.953125 197.214844 L 18.960938 196.9375 L 18.980469 196.667969 L 19.015625 196.398438 L 19.066406 196.136719 L 19.132812 195.878906 L 19.210938 195.621094 L 19.304688 195.371094 L 19.414062 195.125 L 19.535156 194.882812 L 19.671875 194.648438 L 19.816406 194.417969 L 19.976562 194.195312 L 20.148438 193.984375 L 20.335938 193.78125 L 20.535156 193.585938 L 20.75 193.398438 L 20.976562 193.222656 L 21.214844 193.058594 L 21.46875 192.898438 L 21.734375 192.75 L 22.011719 192.613281 L 22.296875 192.492188 L 22.597656 192.382812 L 22.90625 192.289062 L 23.230469 192.210938 L 23.566406 192.144531 L 23.910156 192.097656 L 24.269531 192.058594 L 24.640625 192.039062 L 25.023438 192.03125 L 25.398438 192.039062 L 25.761719 192.058594 L 26.113281 192.097656 L 26.457031 192.144531 L 26.789062 192.210938 L 27.109375 192.289062 L 27.417969 192.382812 L 27.71875 192.492188 L 28.007812 192.613281 L 28.289062 192.75 L 28.550781 192.898438 L 28.800781 193.058594 L 29.039062 193.222656 L 29.261719 193.398438 L 29.476562 193.585938 L 29.675781 193.78125 L 29.863281 193.984375 L 30.039062 194.195312 L 30.203125 194.417969 L 30.351562 194.648438 L 30.484375 194.882812 L 30.601562 195.125 L 30.707031 195.371094 L 30.796875 195.621094 L 30.875 195.878906 L 30.9375 196.136719 L 30.984375 196.398438 L 31.019531 196.667969 L 31.039062 196.9375 Z M 30.113281 197.214844 L 30.105469 196.984375 L 30.085938 196.753906 L 30.054688 196.535156 L 30.007812 196.316406 L 29.949219 196.105469 L 29.878906 195.898438 L 29.792969 195.699219 L 29.695312 195.503906 L 29.585938 195.3125 L 29.464844 195.128906 L 29.328125 194.949219 L 29.1875 194.777344 L 29.03125 194.613281 L 28.867188 194.460938 L 28.695312 194.3125 L 28.511719 194.171875 L 28.320312 194.039062 L 28.121094 193.914062 L 27.910156 193.796875 L 27.6875 193.6875 L 27.453125 193.582031 L 27.210938 193.488281 L 26.964844 193.40625 L 26.707031 193.332031 L 26.445312 193.273438 L 26.175781 193.222656 L 25.898438 193.183594 L 25.613281 193.15625 L 25.324219 193.140625 L 25.023438 193.136719 L 24.71875 193.140625 L 24.425781 193.15625 L 24.136719 193.183594 L 23.855469 193.222656 L 23.582031 193.273438 L 23.320312 193.332031 L 23.0625 193.40625 L 22.8125 193.488281 L 22.570312 193.582031 L 22.335938 193.6875 L 22.109375 193.796875 L 21.894531 193.914062 L 21.691406 194.039062 L 21.496094 194.171875 L 21.308594 194.3125 L 21.136719 194.460938 L 20.96875 194.613281 L 20.816406 194.777344 L 20.671875 194.949219 L 20.535156 195.128906 L 20.414062 195.3125 L 20.300781 195.503906 L 20.207031 195.699219 L 20.121094 195.898438 L 20.050781 196.105469 L 19.992188 196.316406 L 19.945312 196.535156 L 19.914062 196.753906 L 19.894531 196.984375 L 19.886719 197.214844 L 19.894531 197.445312 L 19.914062 197.667969 L 19.945312 197.886719 L 19.992188 198.101562 L 20.050781 198.3125 L 20.121094 198.519531 L 20.207031 198.722656 L 20.300781 198.921875 L 20.414062 199.113281 L 20.535156 199.304688 L 20.671875 199.480469 L 20.816406 199.652344 L 20.96875 199.816406 L 21.136719 199.972656 L 21.308594 200.121094 L 21.496094 200.257812 L 21.691406 200.390625 L 21.894531 200.515625 L 22.109375 200.632812 L 22.335938 200.742188 L 22.570312 200.84375 L 22.8125 200.933594 L 23.0625 201.011719 L 23.320312 201.082031 L 23.582031 201.140625 L 23.855469 201.1875 L 24.136719 201.222656 L 24.425781 201.25 L 24.71875 201.265625 L 25.023438 201.269531 L 25.324219 201.265625 L 25.613281 201.25 L 25.898438 201.222656 L 26.175781 201.1875 L 26.445312 201.140625 L 26.707031 201.082031 L 26.964844 201.011719 L 27.210938 200.933594 L 27.453125 200.84375 L 27.6875 200.742188 L 27.910156 200.632812 L 28.121094 200.515625 L 28.320312 200.390625 L 28.511719 200.257812 L 28.695312 200.121094 L 28.867188 199.972656 L 29.03125 199.816406 L 29.1875 199.652344 L 29.328125 199.480469 L 29.464844 199.304688 L 29.585938 199.113281 L 29.695312 198.921875 L 29.792969 198.722656 L 29.878906 198.519531 L 29.949219 198.3125 L 30.007812 198.101562 L 30.054688 197.886719 L 30.085938 197.667969 L 30.105469 197.445312 Z M 30.113281 197.214844 "/>
<path fill-rule="nonzero" fill="rgb(0%, 0%, 0%)" fill-opacity="1" d="M 31.046875 185.792969 L 31.042969 186.042969 L 31.03125 186.292969 L 31.007812 186.539062 L 30.976562 186.78125 L 30.933594 187.019531 L 30.882812 187.257812 L 30.824219 187.488281 L 30.757812 187.71875 L 30.679688 187.945312 L 30.59375 188.167969 L 30.496094 188.378906 L 30.394531 188.585938 L 30.289062 188.789062 L 30.179688 188.980469 L 30.070312 189.167969 L 29.957031 189.351562 L 29.835938 189.527344 L 29.714844 189.695312 L 29.59375 189.859375 L 29.464844 190.015625 L 28.671875 189.390625 L 28.789062 189.242188 L 28.90625 189.089844 L 29.015625 188.9375 L 29.125 188.78125 L 29.230469 188.625 L 29.332031 188.464844 L 29.429688 188.300781 L 29.523438 188.140625 L 29.617188 187.972656 L 29.703125 187.808594 L 29.785156 187.636719 L 29.859375 187.453125 L 29.925781 187.265625 L 29.980469 187.070312 L 30.027344 186.863281 L 30.066406 186.652344 L 30.097656 186.429688 L 30.117188 186.203125 L 30.132812 185.964844 L 30.136719 185.71875 L 30.128906 185.457031 L 30.109375 185.207031 L 30.074219 184.972656 L 30.027344 184.746094 L 29.96875 184.539062 L 29.894531 184.339844 L 29.808594 184.15625 L 29.707031 183.984375 L 29.589844 183.824219 L 29.464844 183.679688 L 29.324219 183.546875 L 29.175781 183.429688 L 29.027344 183.324219 L 28.871094 183.234375 L 28.714844 183.15625 L 28.550781 183.09375 L 28.382812 183.046875 L 28.210938 183.011719 L 28.035156 182.988281 L 27.855469 182.984375 L 27.714844 182.988281 L 27.578125 183 L 27.445312 183.023438 L 27.320312 183.050781 L 27.195312 183.089844 L 27.078125 183.140625 L 26.964844 183.195312 L 26.859375 183.257812 L 26.753906 183.332031 L 26.65625 183.414062 L 26.5625 183.503906 L 26.46875 183.597656 L 26.382812 183.695312 L 26.300781 183.796875 L 26.21875 183.902344 L 26.140625 184.011719 L 26.066406 184.125 L 25.996094 184.246094 L 25.929688 184.367188 L 25.863281 184.496094 L 25.800781 184.621094 L 25.742188 184.746094 L 25.625 185.003906 L 25.460938 185.390625 L 25.359375 185.65625 L 25.3125 185.792969 L 25.25 185.964844 L 25.050781 186.480469 L 24.980469 186.648438 L 24.910156 186.820312 L 24.839844 186.988281 L 24.765625 187.160156 L 24.617188 187.496094 L 24.535156 187.65625 L 24.453125 187.808594 L 24.367188 187.957031 L 24.273438 188.101562 L 24.179688 188.238281 L 24.078125 188.371094 L 23.972656 188.496094 L 23.863281 188.617188 L 23.75 188.730469 L 23.632812 188.839844 L 23.503906 188.941406 L 23.367188 189.03125 L 23.226562 189.109375 L 23.074219 189.175781 L 22.917969 189.234375 L 22.753906 189.28125 L 22.582031 189.320312 L 22.402344 189.347656 L 22.21875 189.363281 L 22.023438 189.367188 L 21.773438 189.359375 L 21.53125 189.328125 L 21.296875 189.28125 L 21.066406 189.21875 L 20.847656 189.132812 L 20.636719 189.03125 L 20.429688 188.910156 L 20.234375 188.769531 L 20.046875 188.609375 L 19.863281 188.429688 L 19.691406 188.230469 L 19.535156 188.011719 L 19.398438 187.78125 L 19.28125 187.527344 L 19.179688 187.261719 L 19.097656 186.976562 L 19.035156 186.675781 L 18.988281 186.359375 L 18.960938 186.023438 L 18.953125 185.671875 L 18.957031 185.484375 L 18.964844 185.300781 L 18.980469 185.117188 L 19.003906 184.933594 L 19.035156 184.753906 L 19.074219 184.574219 L 19.117188 184.394531 L 19.167969 184.21875 L 19.222656 184.042969 L 19.289062 183.871094 L 19.355469 183.695312 L 19.429688 183.527344 L 19.507812 183.363281 L 19.585938 183.203125 L 19.671875 183.050781 L 19.761719 182.902344 L 19.851562 182.757812 L 19.949219 182.621094 L 20.046875 182.488281 L 20.152344 182.359375 L 20.894531 182.933594 L 20.730469 183.175781 L 20.648438 183.300781 L 20.574219 183.421875 L 20.5 183.546875 L 20.429688 183.671875 L 20.363281 183.796875 L 20.296875 183.925781 L 20.234375 184.054688 L 20.175781 184.183594 L 20.117188 184.316406 L 20.0625 184.449219 L 20.015625 184.589844 L 19.976562 184.734375 L 19.941406 184.886719 L 19.914062 185.039062 L 19.890625 185.195312 L 19.875 185.359375 L 19.867188 185.523438 L 19.863281 185.695312 L 19.871094 185.957031 L 19.890625 186.203125 L 19.921875 186.4375 L 19.96875 186.660156 L 20.027344 186.863281 L 20.097656 187.058594 L 20.179688 187.234375 L 20.277344 187.398438 L 20.390625 187.550781 L 20.511719 187.6875 L 20.644531 187.804688 L 20.777344 187.910156 L 20.914062 188.003906 L 21.054688 188.085938 L 21.195312 188.15625 L 21.339844 188.210938 L 21.488281 188.253906 L 21.640625 188.285156 L 21.796875 188.304688 L 21.953125 188.3125 L 22.078125 188.308594 L 22.203125 188.296875 L 22.320312 188.277344 L 22.4375 188.253906 L 22.546875 188.222656 L 22.652344 188.179688 L 22.753906 188.136719 L 22.851562 188.082031 L 22.945312 188.019531 L 23.03125 187.953125 L 23.117188 187.871094 L 23.199219 187.789062 L 23.277344 187.703125 L 23.355469 187.609375 L 23.429688 187.511719 L 23.5 187.414062 L 23.566406 187.308594 L 23.632812 187.199219 L 23.691406 187.085938 L 23.753906 186.96875 L 23.804688 186.84375 L 23.859375 186.714844 L 23.910156 186.589844 L 23.964844 186.460938 L 24.015625 186.332031 L 24.070312 186.199219 L 24.121094 186.070312 L 24.175781 185.9375 L 24.226562 185.804688 L 24.28125 185.671875 L 24.347656 185.488281 L 24.417969 185.308594 L 24.484375 185.128906 L 24.554688 184.949219 L 24.628906 184.769531 L 24.699219 184.59375 L 24.847656 184.242188 L 24.921875 184.070312 L 25 183.894531 L 25.078125 183.726562 L 25.164062 183.5625 L 25.253906 183.40625 L 25.347656 183.253906 L 25.449219 183.109375 L 25.554688 182.972656 L 25.667969 182.839844 L 25.785156 182.710938 L 25.90625 182.59375 L 26.03125 182.480469 L 26.167969 182.371094 L 26.308594 182.273438 L 26.464844 182.183594 L 26.628906 182.109375 L 26.800781 182.046875 L 26.980469 181.996094 L 27.175781 181.953125 L 27.375 181.925781 L 27.585938 181.910156 L 27.808594 181.902344 L 27.980469 181.90625 L 28.148438 181.921875 L 28.316406 181.945312 L 28.480469 181.976562 L 28.640625 182.015625 L 28.800781 182.066406 L 28.957031 182.125 L 29.113281 182.195312 L 29.265625 182.273438 L 29.414062 182.359375 L 29.558594 182.453125 L 29.695312 182.558594 L 29.824219 182.667969 L 29.949219 182.789062 L 30.070312 182.917969 L 30.183594 183.054688 L 30.292969 183.199219 L 30.398438 183.351562 L 30.5 183.511719 L 30.59375 183.679688 L 30.679688 183.855469 L 30.757812 184.039062 L 30.824219 184.230469 L 30.882812 184.433594 L 30.933594 184.640625 L 30.976562 184.855469 L 31.007812 185.078125 L 31.03125 185.308594 L 31.042969 185.546875 Z M 31.046875 185.792969 "/>
<path fill-rule="nonzero" fill="rgb(0%, 0%, 0%)" fill-opacity="1" d="M 31.046875 176.070312 L 31.042969 176.324219 L 31.03125 176.574219 L 31.007812 176.820312 L 30.976562 177.0625 L 30.933594 177.300781 L 30.882812 177.539062 L 30.824219 177.769531 L 30.757812 178 L 30.679688 178.226562 L 30.59375 178.445312 L 30.496094 178.660156 L 30.394531 178.867188 L 30.289062 179.066406 L 30.179688 179.261719 L 30.070312 179.449219 L 29.957031 179.632812 L 29.714844 179.976562 L 29.59375 180.136719 L 29.464844 180.296875 L 28.671875 179.671875 L 28.789062 179.519531 L 28.90625 179.371094 L 29.015625 179.214844 L 29.125 179.0625 L 29.230469 178.902344 L 29.332031 178.742188 L 29.429688 178.582031 L 29.617188 178.253906 L 29.703125 178.085938 L 29.785156 177.914062 L 29.859375 177.734375 L 29.925781 177.546875 L 29.980469 177.351562 L 30.027344 177.144531 L 30.066406 176.933594 L 30.097656 176.710938 L 30.117188 176.480469 L 30.132812 176.246094 L 30.136719 176 L 30.128906 175.738281 L 30.109375 175.488281 L 30.074219 175.25 L 30.027344 175.027344 L 29.96875 174.816406 L 29.894531 174.621094 L 29.808594 174.433594 L 29.707031 174.261719 L 29.589844 174.105469 L 29.464844 173.960938 L 29.324219 173.828125 L 29.175781 173.707031 L 29.027344 173.605469 L 28.871094 173.515625 L 28.714844 173.4375 L 28.550781 173.375 L 28.382812 173.324219 L 28.210938 173.292969 L 28.035156 173.269531 L 27.855469 173.261719 L 27.714844 173.265625 L 27.578125 173.28125 L 27.445312 173.300781 L 27.320312 173.332031 L 27.195312 173.371094 L 27.078125 173.417969 L 26.964844 173.476562 L 26.859375 173.539062 L 26.753906 173.613281 L 26.65625 173.695312 L 26.46875 173.875 L 26.382812 173.972656 L 26.300781 174.074219 L 26.21875 174.179688 L 26.140625 174.292969 L 26.066406 174.40625 L 25.996094 174.523438 L 25.863281 174.773438 L 25.800781 174.902344 L 25.683594 175.152344 L 25.625 175.28125 L 25.570312 175.410156 L 25.515625 175.542969 L 25.460938 175.671875 L 25.359375 175.9375 L 25.3125 176.070312 L 25.25 176.242188 L 25.050781 176.757812 L 24.980469 176.929688 L 24.910156 177.097656 L 24.839844 177.269531 L 24.617188 177.773438 L 24.535156 177.933594 L 24.453125 178.089844 L 24.367188 178.238281 L 24.273438 178.382812 L 24.179688 178.519531 L 24.078125 178.652344 L 23.972656 178.777344 L 23.863281 178.898438 L 23.75 179.011719 L 23.632812 179.121094 L 23.503906 179.21875 L 23.367188 179.308594 L 23.226562 179.386719 L 23.074219 179.457031 L 22.917969 179.515625 L 22.753906 179.5625 L 22.582031 179.601562 L 22.402344 179.625 L 22.21875 179.640625 L 22.023438 179.648438 L 21.773438 179.636719 L 21.53125 179.609375 L 21.296875 179.5625 L 21.066406 179.496094 L 20.847656 179.414062 L 20.636719 179.308594 L 20.429688 179.1875 L 20.234375 179.046875 L 20.046875 178.890625 L 19.863281 178.710938 L 19.691406 178.511719 L 19.535156 178.292969 L 19.398438 178.058594 L 19.28125 177.808594 L 19.179688 177.542969 L 19.097656 177.257812 L 19.035156 176.957031 L 18.988281 176.636719 L 18.960938 176.304688 L 18.953125 175.953125 L 18.957031 175.765625 L 18.964844 175.578125 L 18.980469 175.394531 L 19.003906 175.214844 L 19.035156 175.035156 L 19.074219 174.855469 L 19.117188 174.675781 L 19.167969 174.5 L 19.222656 174.324219 L 19.289062 174.152344 L 19.355469 173.976562 L 19.429688 173.804688 L 19.507812 173.640625 L 19.585938 173.484375 L 19.671875 173.328125 L 19.761719 173.179688 L 19.851562 173.039062 L 19.949219 172.898438 L 20.046875 172.765625 L 20.152344 172.640625 L 20.894531 173.214844 L 20.648438 173.578125 L 20.5 173.828125 L 20.429688 173.953125 L 20.363281 174.078125 L 20.296875 174.207031 L 20.234375 174.335938 L 20.117188 174.59375 L 20.0625 174.730469 L 20.015625 174.871094 L 19.976562 175.015625 L 19.941406 175.164062 L 19.914062 175.320312 L 19.890625 175.476562 L 19.875 175.636719 L 19.867188 175.804688 L 19.863281 175.976562 L 19.871094 176.238281 L 19.890625 176.484375 L 19.921875 176.71875 L 19.96875 176.9375 L 20.027344 177.144531 L 20.097656 177.335938 L 20.179688 177.515625 L 20.277344 177.679688 L 20.390625 177.832031 L 20.511719 177.96875 L 20.644531 178.085938 L 20.777344 178.191406 L 20.914062 178.285156 L 21.054688 178.367188 L 21.195312 178.433594 L 21.339844 178.492188 L 21.488281 178.535156 L 21.640625 178.566406 L 21.796875 178.585938 L 21.953125 178.589844 L 22.078125 178.585938 L 22.203125 178.578125 L 22.320312 178.558594 L 22.4375 178.535156 L 22.546875 178.5 L 22.652344 178.460938 L 22.753906 178.414062 L 22.851562 178.359375 L 22.945312 178.300781 L 23.03125 178.230469 L 23.117188 178.152344 L 23.199219 178.070312 L 23.355469 177.890625 L 23.429688 177.792969 L 23.5 177.691406 L 23.632812 177.480469 L 23.691406 177.363281 L 23.753906 177.246094 L 23.804688 177.121094 L 23.859375 176.996094 L 23.910156 176.867188 L 23.964844 176.742188 L 24.015625 176.609375 L 24.070312 176.480469 L 24.121094 176.351562 L 24.175781 176.21875 L 24.226562 176.085938 L 24.28125 175.953125 L 24.347656 175.769531 L 24.417969 175.589844 L 24.484375 175.410156 L 24.554688 175.230469 L 24.628906 175.050781 L 24.699219 174.875 L 24.921875 174.347656 L 25.078125 174.003906 L 25.164062 173.84375 L 25.253906 173.683594 L 25.347656 173.535156 L 25.449219 173.390625 L 25.554688 173.25 L 25.667969 173.117188 L 25.785156 172.992188 L 25.90625 172.871094 L 26.03125 172.757812 L 26.167969 172.648438 L 26.308594 172.550781 L 26.464844 172.464844 L 26.628906 172.390625 L 26.800781 172.328125 L 26.980469 172.273438 L 27.175781 172.234375 L 27.375 172.207031 L 27.585938 172.1875 L 27.808594 172.183594 L 27.980469 172.1875 L 28.148438 172.203125 L 28.316406 172.222656 L 28.480469 172.257812 L 28.640625 172.296875 L 28.800781 172.347656 L 28.957031 172.40625 L 29.113281 172.476562 L 29.265625 172.550781 L 29.414062 172.640625 L 29.558594 172.734375 L 29.695312 172.839844 L 29.824219 172.949219 L 29.949219 173.070312 L 30.070312 173.195312 L 30.183594 173.332031 L 30.292969 173.476562 L 30.398438 173.628906 L 30.5 173.789062 L 30.59375 173.960938 L 30.679688 174.136719 L 30.757812 174.320312 L 30.824219 174.511719 L 30.882812 174.710938 L 30.933594 174.917969 L 30.976562 175.132812 L 31.007812 175.355469 L 31.03125 175.585938 L 31.042969 175.824219 Z M 31.046875 176.070312 "/>
<path fill-rule="nonzero" fill="rgb(0%, 0%, 0%)" fill-opacity="1" d="M 30.761719 165.558594 L 30.089844 165.558594 L 29.582031 165.0625 L 29.089844 164.585938 L 28.609375 164.121094 L 28.144531 163.675781 L 27.695312 163.25 L 27.257812 162.835938 L 26.832031 162.441406 L 26.425781 162.066406 L 26.03125 161.703125 L 25.648438 161.359375 L 25.273438 161.03125 L 24.90625 160.722656 L 24.546875 160.425781 L 24.195312 160.148438 L 23.855469 159.890625 L 23.519531 159.644531 L 23.195312 159.417969 L 22.875 159.207031 L 22.566406 159.015625 L 22.265625 158.839844 L 21.96875 158.679688 L 21.675781 158.535156 L 21.386719 158.410156 L 21.101562 158.300781 L 20.816406 158.210938 L 20.539062 158.132812 L 20.261719 158.074219 L 19.992188 158.03125 L 19.722656 158.007812 L 19.457031 158 L 19.171875 158.007812 L 18.898438 158.03125 L 18.632812 158.074219 L 18.375 158.128906 L 18.128906 158.203125 L 17.890625 158.292969 L 17.664062 158.398438 L 17.445312 158.519531 L 17.234375 158.660156 L 17.03125 158.816406 L 16.84375 158.984375 L 16.675781 159.167969 L 16.53125 159.375 L 16.402344 159.597656 L 16.292969 159.839844 L 16.207031 160.101562 L 16.136719 160.382812 L 16.085938 160.679688 L 16.058594 161 L 16.046875 161.335938 L 16.054688 161.539062 L 16.070312 161.746094 L 16.101562 161.945312 L 16.140625 162.144531 L 16.191406 162.34375 L 16.253906 162.539062 L 16.332031 162.734375 L 16.417969 162.925781 L 16.515625 163.113281 L 16.625 163.304688 L 16.742188 163.484375 L 16.867188 163.660156 L 16.996094 163.832031 L 17.128906 164 L 17.417969 164.320312 L 17.570312 164.472656 L 17.730469 164.625 L 17.894531 164.769531 L 18.0625 164.910156 L 17.390625 165.605469 L 17.203125 165.433594 L 17.019531 165.253906 L 16.84375 165.070312 L 16.675781 164.886719 L 16.511719 164.695312 L 16.351562 164.5 L 16.199219 164.304688 L 16.054688 164.101562 L 15.917969 163.898438 L 15.785156 163.6875 L 15.660156 163.472656 L 15.550781 163.25 L 15.453125 163.023438 L 15.371094 162.789062 L 15.296875 162.546875 L 15.238281 162.300781 L 15.195312 162.042969 L 15.160156 161.78125 L 15.140625 161.515625 L 15.136719 161.238281 L 15.148438 160.835938 L 15.183594 160.449219 L 15.242188 160.085938 L 15.324219 159.738281 L 15.429688 159.410156 L 15.558594 159.097656 L 15.710938 158.808594 L 15.886719 158.535156 L 16.089844 158.28125 L 16.3125 158.046875 L 16.554688 157.832031 L 16.8125 157.640625 L 17.085938 157.472656 L 17.375 157.324219 L 17.679688 157.203125 L 18 157.101562 L 18.335938 157.019531 L 18.683594 156.964844 L 19.050781 156.929688 L 19.433594 156.917969 L 19.734375 156.929688 L 20.039062 156.953125 L 20.34375 157 L 20.648438 157.0625 L 20.957031 157.140625 L 21.261719 157.238281 L 21.574219 157.355469 L 21.882812 157.488281 L 22.191406 157.636719 L 22.503906 157.808594 L 22.820312 157.988281 L 23.136719 158.179688 L 23.460938 158.390625 L 23.789062 158.613281 L 24.125 158.851562 L 24.460938 159.101562 L 24.804688 159.371094 L 25.152344 159.652344 L 25.507812 159.945312 L 25.863281 160.253906 L 26.230469 160.574219 L 26.601562 160.902344 L 26.984375 161.242188 L 27.375 161.59375 L 27.777344 161.960938 L 28.1875 162.335938 L 28.605469 162.722656 L 29.035156 163.121094 L 29.472656 163.53125 L 29.921875 163.953125 L 29.910156 163.828125 L 29.902344 163.699219 L 29.886719 163.449219 L 29.878906 163.320312 L 29.871094 163.195312 L 29.863281 163.066406 L 29.859375 162.9375 L 29.851562 162.808594 L 29.847656 162.679688 L 29.816406 162.148438 L 29.800781 161.632812 L 29.800781 156.152344 L 30.761719 156.152344 Z M 30.761719 165.558594 "/>
<path fill-rule="nonzero" fill="rgb(0%, 0%, 0%)" fill-opacity="1" d="M 31.046875 149.3125 L 31.027344 149.738281 L 30.964844 150.144531 L 30.859375 150.53125 L 30.714844 150.902344 L 30.527344 151.25 L 30.296875 151.578125 L 30.023438 151.886719 L 29.710938 152.175781 L 29.355469 152.445312 L 28.960938 152.695312 L 28.523438 152.921875 L 28.054688 153.128906 L 27.550781 153.308594 L 27.007812 153.464844 L 26.433594 153.59375 L 25.824219 153.703125 L 25.179688 153.789062 L 24.496094 153.847656 L 23.78125 153.882812 L 23.03125 153.894531 L 22.285156 153.882812 L 21.578125 153.847656 L 20.902344 153.789062 L 20.261719 153.703125 L 19.660156 153.59375 L 19.09375 153.464844 L 18.558594 153.308594 L 18.0625 153.128906 L 17.601562 152.921875 L 17.175781 152.695312 L 16.789062 152.445312 L 16.441406 152.175781 L 16.136719 151.886719 L 15.871094 151.578125 L 15.644531 151.25 L 15.460938 150.902344 L 15.320312 150.53125 L 15.21875 150.144531 L 15.15625 149.738281 L 15.136719 149.3125 L 15.15625 148.878906 L 15.21875 148.46875 L 15.320312 148.078125 L 15.460938 147.710938 L 15.644531 147.359375 L 15.871094 147.03125 L 16.136719 146.726562 L 16.441406 146.4375 L 16.789062 146.171875 L 17.175781 145.925781 L 17.601562 145.699219 L 18.0625 145.496094 L 18.558594 145.316406 L 19.09375 145.160156 L 19.660156 145.027344 L 20.261719 144.917969 L 20.902344 144.835938 L 21.578125 144.773438 L 22.285156 144.738281 L 23.03125 144.726562 L 23.78125 144.738281 L 24.496094 144.773438 L 25.179688 144.835938 L 25.824219 144.917969 L 26.433594 145.027344 L 27.007812 145.160156 L 27.550781 145.316406 L 28.054688 145.496094 L 28.523438 145.699219 L 28.960938 145.925781 L 29.355469 146.171875 L 29.710938 146.4375 L 30.023438 146.726562 L 30.296875 147.03125 L 30.527344 147.359375 L 30.714844 147.710938 L 30.859375 148.078125 L 30.964844 148.46875 L 31.027344 148.878906 Z M 30.136719 149.3125 L 30.117188 148.996094 L 30.0625 148.695312 L 29.972656 148.40625 L 29.847656 148.132812 L 29.6875 147.871094 L 29.488281 147.625 L 29.253906 147.390625 L 28.984375 147.167969 L 28.679688 146.960938 L 28.335938 146.765625 L 27.957031 146.585938 L 27.546875 146.421875 L 27.101562 146.277344 L 26.625 146.152344 L 26.109375 146.046875 L 25.5625 145.960938 L 24.980469 145.894531 L 24.367188 145.84375 L 23.714844 145.816406 L 23.03125 145.808594 L 22.347656 145.816406 L 21.703125 145.84375 L 21.089844 145.894531 L 20.511719 145.960938 L 19.972656 146.046875 L 19.464844 146.152344 L 18.996094 146.277344 L 18.5625 146.421875 L 18.164062 146.585938 L 17.800781 146.765625 L 17.46875 146.960938 L 17.167969 147.167969 L 16.90625 147.390625 L 16.679688 147.625 L 16.484375 147.871094 L 16.328125 148.132812 L 16.207031 148.40625 L 16.117188 148.695312 L 16.066406 148.996094 L 16.046875 149.3125 L 16.066406 149.621094 L 16.117188 149.917969 L 16.207031 150.207031 L 16.328125 150.480469 L 16.484375 150.738281 L 16.679688 150.988281 L 16.90625 151.222656 L 17.167969 151.445312 L 17.46875 151.65625 L 17.800781 151.855469 L 18.164062 152.039062 L 18.5625 152.199219 L 18.996094 152.34375 L 19.464844 152.46875 L 19.972656 152.574219 L 20.511719 152.660156 L 21.089844 152.730469 L 21.703125 152.777344 L 22.347656 152.804688 L 23.03125 152.816406 L 23.714844 152.804688 L 24.367188 152.777344 L 24.980469 152.730469 L 25.5625 152.660156 L 26.109375 152.574219 L 26.625 152.46875 L 27.101562 152.34375 L 27.546875 152.199219 L 27.957031 152.039062 L 28.335938 151.855469 L 28.679688 151.65625 L 28.984375 151.445312 L 29.253906 151.222656 L 29.488281 150.988281 L 29.6875 150.738281 L 29.847656 150.480469 L 29.972656 150.207031 L 30.0625 149.917969 L 30.117188 149.621094 Z M 30.136719 149.3125 "/>
<path fill-rule="nonzero" fill="rgb(0%, 0%, 0%)" fill-opacity="1" d="M 31.046875 137.816406 L 31.027344 138.242188 L 30.964844 138.648438 L 30.859375 139.035156 L 30.714844 139.40625 L 30.527344 139.753906 L 30.296875 140.082031 L 30.023438 140.390625 L 29.710938 140.679688 L 29.355469 140.949219 L 28.960938 141.199219 L 28.523438 141.425781 L 28.054688 141.632812 L 27.550781 141.8125 L 27.007812 141.96875 L 26.433594 142.097656 L 25.824219 142.207031 L 25.179688 142.292969 L 24.496094 142.351562 L 23.78125 142.386719 L 23.03125 142.398438 L 22.285156 142.386719 L 21.578125 142.351562 L 20.902344 142.292969 L 20.261719 142.207031 L 19.660156 142.097656 L 19.09375 141.96875 L 18.558594 141.8125 L 18.0625 141.632812 L 17.601562 141.425781 L 17.175781 141.199219 L 16.789062 140.949219 L 16.441406 140.679688 L 16.136719 140.390625 L 15.871094 140.082031 L 15.644531 139.753906 L 15.460938 139.40625 L 15.320312 139.035156 L 15.21875 138.648438 L 15.15625 138.242188 L 15.136719 137.816406 L 15.15625 137.382812 L 15.21875 136.972656 L 15.320312 136.582031 L 15.460938 136.214844 L 15.644531 135.863281 L 15.871094 135.539062 L 16.136719 135.230469 L 16.441406 134.941406 L 16.789062 134.675781 L 17.175781 134.429688 L 17.601562 134.203125 L 18.0625 134 L 18.558594 133.820312 L 19.09375 133.664062 L 19.660156 133.53125 L 20.261719 133.421875 L 20.902344 133.339844 L 21.578125 133.277344 L 22.285156 133.242188 L 23.03125 133.230469 L 23.78125 133.242188 L 24.496094 133.277344 L 25.179688 133.339844 L 25.824219 133.421875 L 26.433594 133.53125 L 27.007812 133.664062 L 27.550781 133.820312 L 28.054688 134 L 28.523438 134.203125 L 28.960938 134.429688 L 29.355469 134.675781 L 29.710938 134.941406 L 30.023438 135.230469 L 30.296875 135.539062 L 30.527344 135.863281 L 30.714844 136.214844 L 30.859375 136.582031 L 30.964844 136.972656 L 31.027344 137.382812 Z M 30.136719 137.816406 L 30.117188 137.5 L 30.0625 137.199219 L 29.972656 136.910156 L 29.847656 136.636719 L 29.6875 136.375 L 29.488281 136.128906 L 29.253906 135.894531 L 28.984375 135.671875 L 28.679688 135.464844 L 28.335938 135.269531 L 27.957031 135.089844 L 27.546875 134.925781 L 27.101562 134.78125 L 26.625 134.65625 L 26.109375 134.550781 L 25.5625 134.464844 L 24.980469 134.398438 L 24.367188 134.351562 L 23.714844 134.320312 L 23.03125 134.3125 L 22.347656 134.320312 L 21.703125 134.351562 L 21.089844 134.398438 L 20.511719 134.464844 L 19.972656 134.550781 L 19.464844 134.65625 L 18.996094 134.78125 L 18.5625 134.925781 L 18.164062 135.089844 L 17.800781 135.269531 L 17.46875 135.464844 L 17.167969 135.671875 L 16.90625 135.894531 L 16.679688 136.128906 L 16.484375 136.375 L 16.328125 136.636719 L 16.207031 136.910156 L 16.117188 137.199219 L 16.066406 137.5 L 16.046875 137.816406 L 16.066406 138.125 L 16.117188 138.425781 L 16.207031 138.710938 L 16.328125 138.984375 L 16.484375 139.242188 L 16.679688 139.492188 L 16.90625 139.726562 L 17.167969 139.949219 L 17.46875 140.160156 L 17.800781 140.359375 L 18.164062 140.542969 L 18.5625 140.703125 L 18.996094 140.847656 L 19.464844 140.972656 L 19.972656 141.078125 L 20.511719 141.164062 L 21.089844 141.234375 L 21.703125 141.28125 L 22.347656 141.308594 L 23.03125 141.320312 L 23.714844 141.308594 L 24.367188 141.28125 L 24.980469 141.234375 L 25.5625 141.164062 L 26.109375 141.078125 L 26.625 140.972656 L 27.101562 140.847656 L 27.546875 140.703125 L 27.957031 140.542969 L 28.335938 140.359375 L 28.679688 140.160156 L 28.984375 139.949219 L 29.253906 139.726562 L 29.488281 139.492188 L 29.6875 139.242188 L 29.847656 138.984375 L 29.972656 138.710938 L 30.0625 138.425781 L 30.117188 138.125 Z M 30.136719 137.816406 "/>
<path fill-rule="nonzero" fill="rgb(0%, 0%, 0%)" fill-opacity="1" d="M 30.761719 130.039062 L 29.824219 130.039062 L 29.824219 126.4375 L 17.105469 126.4375 L 17.105469 129.175781 L 16.382812 129.175781 L 16.351562 128.988281 L 16.3125 128.808594 L 16.277344 128.632812 L 16.238281 128.457031 L 16.199219 128.289062 L 16.15625 128.121094 L 16.113281 127.957031 L 16.070312 127.800781 L 16.023438 127.644531 L 15.976562 127.496094 L 15.925781 127.347656 L 15.878906 127.207031 L 15.824219 127.066406 L 15.773438 126.933594 L 15.71875 126.804688 L 15.660156 126.679688 L 15.605469 126.558594 L 15.546875 126.441406 L 15.484375 126.332031 L 15.425781 126.222656 L 15.425781 125.359375 L 29.824219 125.359375 L 29.824219 122.023438 L 30.761719 122.023438 Z M 30.761719 130.039062 "/>
<path fill-rule="nonzero" fill="rgb(0%, 0%, 0%)" fill-opacity="1" d="M 34.960938 119.144531 L 34.574219 119.792969 L 34.117188 119.515625 L 33.648438 119.253906 L 33.171875 119.003906 L 32.6875 118.769531 L 32.195312 118.550781 L 31.691406 118.34375 L 31.183594 118.148438 L 30.667969 117.972656 L 30.140625 117.804688 L 29.609375 117.65625 L 29.070312 117.515625 L 28.527344 117.386719 L 27.980469 117.277344 L 27.433594 117.179688 L 26.882812 117.097656 L 26.332031 117.03125 L 25.773438 116.976562 L 25.214844 116.941406 L 24.652344 116.917969 L 24.089844 116.910156 L 23.519531 116.917969 L 22.953125 116.941406 L 22.390625 116.976562 L 21.828125 117.03125 L 21.273438 117.097656 L 20.722656 117.179688 L 20.171875 117.277344 L 19.625 117.386719 L 19.082031 117.515625 L 18.542969 117.65625 L 18.011719 117.804688 L 17.484375 117.972656 L 16.96875 118.148438 L 16.460938 118.34375 L 15.964844 118.550781 L 15.472656 118.769531 L 14.992188 119.003906 L 14.519531 119.253906 L 14.054688 119.515625 L 13.601562 119.792969 L 13.214844 119.144531 L 13.699219 118.851562 L 14.1875 118.574219 L 14.679688 118.308594 L 15.179688 118.054688 L 15.683594 117.816406 L 16.191406 117.589844 L 16.707031 117.378906 L 17.226562 117.175781 L 17.75 116.988281 L 18.28125 116.816406 L 18.8125 116.65625 L 19.355469 116.511719 L 19.910156 116.386719 L 20.476562 116.277344 L 21.050781 116.183594 L 21.636719 116.109375 L 22.234375 116.050781 L 22.84375 116.007812 L 23.460938 115.984375 L 24.089844 115.976562 L 24.714844 115.984375 L 25.335938 116.007812 L 25.945312 116.050781 L 26.542969 116.109375 L 27.128906 116.183594 L 27.707031 116.277344 L 28.277344 116.386719 L 28.835938 116.511719 L 29.382812 116.65625 L 29.921875 116.816406 L 30.445312 116.988281 L 30.964844 117.175781 L 31.480469 117.378906 L 31.992188 117.589844 L 32.5 117.816406 L 33 118.054688 L 33.5 118.308594 L 33.992188 118.574219 L 34.476562 118.851562 Z M 34.960938 119.144531 "/>
</svg>
