<?xml version="1.0" encoding="UTF-8"?>
<svg xmlns="http://www.w3.org/2000/svg" xmlns:xlink="http://www.w3.org/1999/xlink" width="626" height="396" viewBox="0 0 626 396">
<defs>
<clipPath id="clip-0">
<path clip-rule="nonzero" d="M 75.757812 13.449219 L 612.550781 13.449219 L 612.550781 275.171875 L 75.757812 275.171875 Z M 75.757812 13.449219 "/>
</clipPath>
<clipPath id="clip-1">
<path clip-rule="nonzero" d="M 75.757812 261 L 612.550781 261 L 612.550781 265 L 75.757812 265 Z M 75.757812 261 "/>
</clipPath>
<clipPath id="clip-2">
<path clip-rule="nonzero" d="M 75.757812 202 L 612.550781 202 L 612.550781 206 L 75.757812 206 Z M 75.757812 202 "/>
</clipPath>
<clipPath id="clip-3">
<path clip-rule="nonzero" d="M 75.757812 143 L 612.550781 143 L 612.550781 146 L 75.757812 146 Z M 75.757812 143 "/>
</clipPath>
<clipPath id="clip-4">
<path clip-rule="nonzero" d="M 75.757812 83 L 612.550781 83 L 612.550781 87 L 75.757812 87 Z M 75.757812 83 "/>
</clipPath>
<clipPath id="clip-5">
<path clip-rule="nonzero" d="M 75.757812 24 L 612.550781 24 L 612.550781 27 L 75.757812 27 Z M 75.757812 24 "/>
</clipPath>
<clipPath id="clip-6">
<path clip-rule="nonzero" d="M 220 13.449219 L 224 13.449219 L 224 275.171875 L 220 275.171875 Z M 220 13.449219 "/>
</clipPath>
<clipPath id="clip-7">
<path clip-rule="nonzero" d="M 464 13.449219 L 468 13.449219 L 468 275.171875 L 464 275.171875 Z M 464 13.449219 "/>
</clipPath>
</defs>
<rect x="-62.6" y="-39.6" width="751.2" height="475.2" fill="rgb(100%, 100%, 100%)" fill-opacity="1"/>
<rect x="-62.6" y="-39.6" width="751.2" height="475.2" fill="rgb(95.294118%, 95.294118%, 95.294118%)" fill-opacity="1"/>
<path fill="none" stroke-width="2.618947" stroke-linecap="round" stroke-linejoin="round" stroke="rgb(95.294118%, 95.294118%, 95.294118%)" stroke-opacity="1" stroke-miterlimit="10" d="M 0 396 L 626 396 L 626 0 L 0 0 Z M 0 396 "/>
<g clip-path="url(#clip-0)">
<path fill-rule="nonzero" fill="rgb(95.294118%, 95.294118%, 95.294118%)" fill-opacity="1" stroke-width="2.618947" stroke-linecap="round" stroke-linejoin="round" stroke="rgb(95.294118%, 95.294118%, 95.294118%)" stroke-opacity="1" stroke-miterlimit="10" d="M 75.757812 275.171875 L 612.550781 275.171875 L 612.550781 13.449219 L 75.757812 13.449219 Z M 75.757812 275.171875 "/>
</g>
<g clip-path="url(#clip-1)">
<path fill="none" stroke-width="2.618947" stroke-linecap="butt" stroke-linejoin="round" stroke="rgb(92.156863%, 92.156863%, 92.156863%)" stroke-opacity="1" stroke-miterlimit="10" d="M 75.757812 263.277344 L 612.550781 263.277344 "/>
</g>
<g clip-path="url(#clip-2)">
<path fill="none" stroke-width="2.618947" stroke-linecap="butt" stroke-linejoin="round" stroke="rgb(92.156863%, 92.156863%, 92.156863%)" stroke-opacity="1" stroke-miterlimit="10" d="M 75.757812 203.792969 L 612.550781 203.792969 "/>
</g>
<g clip-path="url(#clip-3)">
<path fill="none" stroke-width="2.618947" stroke-linecap="butt" stroke-linejoin="round" stroke="rgb(92.156863%, 92.156863%, 92.156863%)" stroke-opacity="1" stroke-miterlimit="10" d="M 75.757812 144.3125 L 612.550781 144.3125 "/>
</g>
<g clip-path="url(#clip-4)">
<path fill="none" stroke-width="2.618947" stroke-linecap="butt" stroke-linejoin="round" stroke="rgb(92.156863%, 92.156863%, 92.156863%)" stroke-opacity="1" stroke-miterlimit="10" d="M 75.757812 84.828125 L 612.550781 84.828125 "/>
</g>
<g clip-path="url(#clip-5)">
<path fill="none" stroke-width="2.618947" stroke-linecap="butt" stroke-linejoin="round" stroke="rgb(92.156863%, 92.156863%, 92.156863%)" stroke-opacity="1" stroke-miterlimit="10" d="M 75.757812 25.347656 L 612.550781 25.347656 "/>
</g>
<g clip-path="url(#clip-6)">
<path fill="none" stroke-width="2.618947" stroke-linecap="butt" stroke-linejoin="round" stroke="rgb(92.156863%, 92.156863%, 92.156863%)" stroke-opacity="1" stroke-miterlimit="10" d="M 222.15625 275.171875 L 222.15625 13.449219 "/>
</g>
<g clip-path="url(#clip-7)">
<path fill="none" stroke-width="2.618947" stroke-linecap="butt" stroke-linejoin="round" stroke="rgb(92.156863%, 92.156863%, 92.156863%)" stroke-opacity="1" stroke-miterlimit="10" d="M 466.152344 275.171875 L 466.152344 13.449219 "/>
</g>
<path fill-rule="nonzero" fill="rgb(0%, 0%, 0%)" fill-opacity="1" stroke-width="0.708661" stroke-linecap="round" stroke-linejoin="round" stroke="rgb(0%, 0%, 0%)" stroke-opacity="1" stroke-miterlimit="10" d="M 228.484375 159.183594 C 228.484375 162.679688 225.652344 165.511719 222.15625 165.511719 C 218.660156 165.511719 215.828125 162.679688 215.828125 159.183594 C 215.828125 155.6875 218.660156 152.851562 222.15625 152.851562 C 225.652344 152.851562 228.484375 155.6875 228.484375 159.183594 "/>
<path fill-rule="nonzero" fill="rgb(0%, 0%, 0%)" fill-opacity="1" stroke-width="0.708661" stroke-linecap="round" stroke-linejoin="round" stroke="rgb(0%, 0%, 0%)" stroke-opacity="1" stroke-miterlimit="10" d="M 472.480469 129.441406 C 472.480469 132.9375 469.648438 135.769531 466.152344 135.769531 C 462.65625 135.769531 459.824219 132.9375 459.824219 129.441406 C 459.824219 125.945312 462.65625 123.113281 466.152344 123.113281 C 469.648438 123.113281 472.480469 125.945312 472.480469 129.441406 "/>
<path fill-rule="nonzero" fill="rgb(56.078431%, 16.470588%, 26.27451%)" fill-opacity="1" stroke-width="0.708661" stroke-linecap="round" stroke-linejoin="round" stroke="rgb(56.078431%, 16.470588%, 26.27451%)" stroke-opacity="1" stroke-miterlimit="10" d="M 228.484375 188.921875 C 228.484375 192.417969 225.652344 195.253906 222.15625 195.253906 C 218.660156 195.253906 215.828125 192.417969 215.828125 188.921875 C 215.828125 185.429688 218.660156 182.59375 222.15625 182.59375 C 225.652344 182.59375 228.484375 185.429688 228.484375 188.921875 "/>
<path fill-rule="nonzero" fill="rgb(56.078431%, 16.470588%, 26.27451%)" fill-opacity="1" stroke-width="0.708661" stroke-linecap="round" stroke-linejoin="round" stroke="rgb(56.078431%, 16.470588%, 26.27451%)" stroke-opacity="1" stroke-miterlimit="10" d="M 472.480469 99.699219 C 472.480469 103.195312 469.648438 106.027344 466.152344 106.027344 C 462.65625 106.027344 459.824219 103.195312 459.824219 99.699219 C 459.824219 96.203125 462.65625 93.371094 466.152344 93.371094 C 469.648438 93.371094 472.480469 96.203125 472.480469 99.699219 "/>
<path fill="none" stroke-width="2.560748" stroke-linecap="butt" stroke-linejoin="round" stroke="rgb(0%, 0%, 0%)" stroke-opacity="1" stroke-miterlimit="10" d="M 222.15625 144.3125 L 466.152344 144.3125 "/>
<path fill="none" stroke-width="2.560748" stroke-linecap="butt" stroke-linejoin="round" stroke="rgb(56.078431%, 16.470588%, 26.27451%)" stroke-opacity="1" stroke-miterlimit="10" d="M 222.15625 144.3125 L 466.152344 144.3125 "/>
<path fill="none" stroke-width="1.920561" stroke-linecap="butt" stroke-linejoin="round" stroke="rgb(40%, 40%, 40%)" stroke-opacity="1" stroke-dasharray="1.920561 5.761683" stroke-miterlimit="10" d="M 222.15625 144.3125 L 222.15625 159.183594 "/>
<path fill="none" stroke-width="1.920561" stroke-linecap="butt" stroke-linejoin="round" stroke="rgb(40%, 40%, 40%)" stroke-opacity="1" stroke-dasharray="1.920561 5.761683" stroke-miterlimit="10" d="M 466.152344 144.3125 L 466.152344 129.441406 "/>
<path fill="none" stroke-width="1.920561" stroke-linecap="butt" stroke-linejoin="round" stroke="rgb(40%, 40%, 40%)" stroke-opacity="1" stroke-dasharray="1.920561 5.761683" stroke-miterlimit="10" d="M 222.15625 144.3125 L 222.15625 188.921875 "/>
<path fill="none" stroke-width="1.920561" stroke-linecap="butt" stroke-linejoin="round" stroke="rgb(40%, 40%, 40%)" stroke-opacity="1" stroke-dasharray="1.920561 5.761683" stroke-miterlimit="10" d="M 466.152344 144.3125 L 466.152344 99.699219 "/>
<path fill-rule="nonzero" fill="rgb(10.196078%, 10.196078%, 10.196078%)" fill-opacity="1" d="M 45.203125 265.765625 L 45.203125 264.789062 L 50.703125 264.789062 L 50.703125 265.765625 Z M 45.203125 265.765625 "/>
<path fill-rule="nonzero" fill="rgb(10.196078%, 10.196078%, 10.196078%)" fill-opacity="1" d="M 52.703125 271.515625 L 52.703125 270.816406 L 53.21875 270.285156 L 53.71875 269.773438 L 54.199219 269.273438 L 54.664062 268.789062 L 55.109375 268.320312 L 55.539062 267.867188 L 55.949219 267.425781 L 56.34375 267 L 56.71875 266.585938 L 57.078125 266.191406 L 57.421875 265.796875 L 57.746094 265.417969 L 58.050781 265.042969 L 58.339844 264.675781 L 58.609375 264.320312 L 58.863281 263.972656 L 59.101562 263.632812 L 59.320312 263.300781 L 59.519531 262.980469 L 59.703125 262.664062 L 59.871094 262.355469 L 60.019531 262.050781 L 60.152344 261.75 L 60.265625 261.453125 L 60.359375 261.160156 L 60.4375 260.867188 L 60.5 260.582031 L 60.542969 260.296875 L 60.570312 260.015625 L 60.578125 259.738281 L 60.570312 259.445312 L 60.546875 259.160156 L 60.503906 258.882812 L 60.441406 258.617188 L 60.367188 258.359375 L 60.273438 258.109375 L 60.164062 257.871094 L 60.035156 257.644531 L 59.890625 257.425781 L 59.730469 257.214844 L 59.554688 257.019531 L 59.359375 256.84375 L 59.148438 256.691406 L 58.914062 256.558594 L 58.660156 256.445312 L 58.386719 256.355469 L 58.097656 256.28125 L 57.785156 256.230469 L 57.453125 256.199219 L 57.105469 256.191406 L 56.890625 256.195312 L 56.679688 256.214844 L 56.46875 256.242188 L 56.261719 256.285156 L 56.054688 256.339844 L 55.851562 256.40625 L 55.648438 256.484375 L 55.449219 256.574219 L 55.25 256.675781 L 55.054688 256.789062 L 54.867188 256.914062 L 54.683594 257.042969 L 54.503906 257.175781 L 54.332031 257.316406 L 54.160156 257.464844 L 53.996094 257.617188 L 53.835938 257.777344 L 53.679688 257.941406 L 53.527344 258.113281 L 53.378906 258.289062 L 52.65625 257.589844 L 52.835938 257.394531 L 53.023438 257.203125 L 53.210938 257.019531 L 53.40625 256.839844 L 53.605469 256.671875 L 53.804688 256.507812 L 54.011719 256.347656 L 54.222656 256.199219 L 54.4375 256.054688 L 54.65625 255.914062 L 54.878906 255.785156 L 55.109375 255.671875 L 55.347656 255.570312 L 55.589844 255.484375 L 55.84375 255.410156 L 56.101562 255.347656 L 56.367188 255.300781 L 56.636719 255.265625 L 56.917969 255.246094 L 57.203125 255.238281 L 57.625 255.25 L 58.023438 255.289062 L 58.40625 255.351562 L 58.769531 255.433594 L 59.109375 255.546875 L 59.433594 255.679688 L 59.738281 255.839844 L 60.019531 256.023438 L 60.285156 256.230469 L 60.53125 256.464844 L 60.753906 256.71875 L 60.953125 256.988281 L 61.128906 257.273438 L 61.28125 257.574219 L 61.410156 257.890625 L 61.515625 258.222656 L 61.597656 258.570312 L 61.65625 258.9375 L 61.691406 259.316406 L 61.703125 259.714844 L 61.695312 260.03125 L 61.667969 260.347656 L 61.621094 260.664062 L 61.554688 260.984375 L 61.472656 261.300781 L 61.371094 261.621094 L 61.25 261.945312 L 61.113281 262.265625 L 60.957031 262.589844 L 60.78125 262.914062 L 60.59375 263.242188 L 60.390625 263.574219 L 60.171875 263.910156 L 59.9375 264.253906 L 59.691406 264.601562 L 59.429688 264.953125 L 59.152344 265.3125 L 58.859375 265.675781 L 58.550781 266.042969 L 58.230469 266.414062 L 57.898438 266.792969 L 57.554688 267.183594 L 57.199219 267.582031 L 56.832031 267.992188 L 56.453125 268.410156 L 56.0625 268.835938 L 55.660156 269.273438 L 55.246094 269.71875 L 54.816406 270.175781 L 54.378906 270.640625 L 54.507812 270.628906 L 54.773438 270.613281 L 54.902344 270.605469 L 55.433594 270.574219 L 55.570312 270.570312 L 55.703125 270.566406 L 55.84375 270.554688 L 55.980469 270.546875 L 56.121094 270.539062 L 56.257812 270.53125 L 56.390625 270.527344 L 56.527344 270.523438 L 56.792969 270.515625 L 62.503906 270.515625 L 62.503906 271.515625 Z M 52.703125 271.515625 "/>
<path fill-rule="nonzero" fill="rgb(10.196078%, 10.196078%, 10.196078%)" fill-opacity="1" d="M 45.203125 206.28125 L 45.203125 205.308594 L 50.703125 205.308594 L 50.703125 206.28125 Z M 45.203125 206.28125 "/>
<path fill-rule="nonzero" fill="rgb(10.196078%, 10.196078%, 10.196078%)" fill-opacity="1" d="M 53.78125 212.03125 L 53.78125 211.058594 L 57.53125 211.058594 L 57.53125 197.808594 L 54.679688 197.808594 L 54.679688 197.058594 L 54.871094 197.019531 L 55.0625 196.984375 L 55.246094 196.945312 L 55.425781 196.90625 L 55.605469 196.863281 L 55.777344 196.820312 L 55.945312 196.773438 L 56.113281 196.730469 L 56.273438 196.679688 L 56.429688 196.632812 L 56.582031 196.582031 L 56.730469 196.527344 L 56.875 196.476562 L 57.011719 196.417969 L 57.148438 196.363281 L 57.277344 196.304688 L 57.402344 196.246094 L 57.523438 196.183594 L 57.640625 196.121094 L 57.753906 196.058594 L 58.65625 196.058594 L 58.65625 211.058594 L 62.128906 211.058594 L 62.128906 212.03125 Z M 53.78125 212.03125 "/>
<path fill-rule="nonzero" fill="rgb(10.196078%, 10.196078%, 10.196078%)" fill-opacity="1" d="M 57.65625 152.847656 L 57.210938 152.828125 L 56.785156 152.761719 L 56.382812 152.652344 L 56 152.5 L 55.636719 152.304688 L 55.292969 152.066406 L 54.972656 151.785156 L 54.671875 151.457031 L 54.390625 151.085938 L 54.128906 150.675781 L 53.890625 150.222656 L 53.679688 149.730469 L 53.492188 149.203125 L 53.328125 148.640625 L 53.191406 148.042969 L 53.078125 147.40625 L 52.992188 146.734375 L 52.929688 146.027344 L 52.890625 145.28125 L 52.878906 144.5 L 52.890625 143.722656 L 52.929688 142.984375 L 52.992188 142.28125 L 53.078125 141.613281 L 53.191406 140.988281 L 53.328125 140.394531 L 53.492188 139.839844 L 53.679688 139.324219 L 53.890625 138.84375 L 54.128906 138.398438 L 54.390625 137.996094 L 54.671875 137.632812 L 54.972656 137.316406 L 55.292969 137.039062 L 55.636719 136.804688 L 56 136.613281 L 56.382812 136.464844 L 56.785156 136.359375 L 57.210938 136.296875 L 57.65625 136.273438 L 58.105469 136.296875 L 58.53125 136.359375 L 58.9375 136.464844 L 59.324219 136.613281 L 59.6875 136.804688 L 60.027344 137.039062 L 60.347656 137.316406 L 60.644531 137.632812 L 60.921875 137.996094 L 61.179688 138.398438 L 61.417969 138.84375 L 61.628906 139.324219 L 61.816406 139.839844 L 61.980469 140.394531 L 62.117188 140.988281 L 62.230469 141.613281 L 62.316406 142.28125 L 62.378906 142.984375 L 62.417969 143.722656 L 62.429688 144.5 L 62.417969 145.28125 L 62.378906 146.027344 L 62.316406 146.734375 L 62.230469 147.40625 L 62.117188 148.042969 L 61.980469 148.640625 L 61.816406 149.203125 L 61.628906 149.730469 L 61.417969 150.222656 L 61.179688 150.675781 L 60.921875 151.085938 L 60.644531 151.457031 L 60.347656 151.785156 L 60.027344 152.066406 L 59.6875 152.304688 L 59.324219 152.5 L 58.9375 152.652344 L 58.53125 152.761719 L 58.105469 152.828125 Z M 57.65625 151.898438 L 57.980469 151.878906 L 58.296875 151.824219 L 58.597656 151.730469 L 58.882812 151.597656 L 59.15625 151.429688 L 59.414062 151.222656 L 59.65625 150.980469 L 59.886719 150.699219 L 60.101562 150.378906 L 60.304688 150.023438 L 60.496094 149.632812 L 60.664062 149.203125 L 60.8125 148.738281 L 60.945312 148.238281 L 61.054688 147.707031 L 61.144531 147.136719 L 61.214844 146.53125 L 61.265625 145.886719 L 61.292969 145.210938 L 61.304688 144.5 L 61.292969 143.789062 L 61.265625 143.113281 L 61.214844 142.476562 L 61.144531 141.875 L 61.054688 141.3125 L 60.945312 140.785156 L 60.8125 140.296875 L 60.664062 139.84375 L 60.496094 139.425781 L 60.304688 139.050781 L 60.101562 138.703125 L 59.886719 138.390625 L 59.65625 138.117188 L 59.414062 137.882812 L 59.15625 137.679688 L 58.882812 137.515625 L 58.597656 137.386719 L 58.296875 137.296875 L 57.980469 137.242188 L 57.65625 137.222656 L 57.332031 137.242188 L 57.019531 137.296875 L 56.722656 137.386719 L 56.4375 137.515625 L 56.167969 137.679688 L 55.910156 137.882812 L 55.664062 138.117188 L 55.429688 138.390625 L 55.210938 138.703125 L 55.003906 139.050781 L 54.8125 139.425781 L 54.644531 139.84375 L 54.496094 140.296875 L 54.363281 140.785156 L 54.253906 141.3125 L 54.164062 141.875 L 54.09375 142.476562 L 54.042969 143.113281 L 54.015625 143.789062 L 54.003906 144.5 L 54.015625 145.210938 L 54.042969 145.886719 L 54.09375 146.53125 L 54.164062 147.136719 L 54.253906 147.707031 L 54.363281 148.238281 L 54.496094 148.738281 L 54.644531 149.203125 L 54.8125 149.632812 L 55.003906 150.023438 L 55.210938 150.378906 L 55.429688 150.699219 L 55.664062 150.980469 L 55.910156 151.222656 L 56.167969 151.429688 L 56.4375 151.597656 L 56.722656 151.730469 L 57.019531 151.824219 L 57.332031 151.878906 Z M 57.65625 151.898438 "/>
<path fill-rule="nonzero" fill="rgb(10.196078%, 10.196078%, 10.196078%)" fill-opacity="1" d="M 53.78125 93.066406 L 53.78125 92.089844 L 57.53125 92.089844 L 57.53125 78.839844 L 54.679688 78.839844 L 54.679688 78.089844 L 55.0625 78.019531 L 55.246094 77.980469 L 55.425781 77.9375 L 55.605469 77.898438 L 55.777344 77.855469 L 56.113281 77.761719 L 56.273438 77.714844 L 56.429688 77.667969 L 56.582031 77.617188 L 56.730469 77.5625 L 56.875 77.507812 L 57.148438 77.398438 L 57.277344 77.339844 L 57.402344 77.28125 L 57.523438 77.21875 L 57.640625 77.15625 L 57.753906 77.089844 L 58.65625 77.089844 L 58.65625 92.089844 L 62.128906 92.089844 L 62.128906 93.066406 Z M 53.78125 93.066406 "/>
<path fill-rule="nonzero" fill="rgb(10.196078%, 10.196078%, 10.196078%)" fill-opacity="1" d="M 52.703125 33.582031 L 52.703125 32.882812 L 53.21875 32.355469 L 53.71875 31.84375 L 54.199219 31.34375 L 54.664062 30.859375 L 55.109375 30.390625 L 55.539062 29.933594 L 55.949219 29.492188 L 56.34375 29.066406 L 56.71875 28.65625 L 57.078125 28.257812 L 57.421875 27.867188 L 57.746094 27.484375 L 58.050781 27.113281 L 58.339844 26.746094 L 58.609375 26.390625 L 58.863281 26.042969 L 59.101562 25.703125 L 59.320312 25.371094 L 59.519531 25.046875 L 59.703125 24.734375 L 59.871094 24.425781 L 60.019531 24.121094 L 60.152344 23.820312 L 60.265625 23.523438 L 60.359375 23.226562 L 60.4375 22.9375 L 60.5 22.648438 L 60.542969 22.367188 L 60.570312 22.085938 L 60.578125 21.808594 L 60.570312 21.511719 L 60.546875 21.226562 L 60.503906 20.953125 L 60.441406 20.683594 L 60.367188 20.425781 L 60.273438 20.179688 L 60.164062 19.941406 L 60.035156 19.710938 L 59.890625 19.492188 L 59.730469 19.285156 L 59.554688 19.089844 L 59.359375 18.914062 L 59.148438 18.761719 L 58.914062 18.628906 L 58.660156 18.515625 L 58.386719 18.421875 L 58.097656 18.351562 L 57.785156 18.300781 L 57.453125 18.269531 L 57.105469 18.257812 L 56.890625 18.265625 L 56.679688 18.28125 L 56.46875 18.3125 L 56.261719 18.355469 L 56.054688 18.410156 L 55.851562 18.476562 L 55.648438 18.550781 L 55.449219 18.644531 L 55.25 18.746094 L 55.054688 18.859375 L 54.867188 18.980469 L 54.683594 19.109375 L 54.503906 19.246094 L 54.332031 19.386719 L 54.160156 19.535156 L 53.996094 19.6875 L 53.835938 19.84375 L 53.679688 20.011719 L 53.527344 20.179688 L 53.378906 20.359375 L 52.65625 19.660156 L 52.835938 19.460938 L 53.210938 19.085938 L 53.40625 18.910156 L 53.605469 18.738281 L 53.804688 18.574219 L 54.011719 18.417969 L 54.222656 18.265625 L 54.4375 18.121094 L 54.65625 17.984375 L 54.878906 17.855469 L 55.109375 17.742188 L 55.347656 17.640625 L 55.589844 17.550781 L 55.84375 17.476562 L 56.101562 17.417969 L 56.367188 17.371094 L 56.636719 17.335938 L 56.917969 17.316406 L 57.203125 17.308594 L 57.625 17.320312 L 58.023438 17.359375 L 58.40625 17.417969 L 58.769531 17.503906 L 59.109375 17.613281 L 59.433594 17.75 L 59.738281 17.910156 L 60.019531 18.09375 L 60.285156 18.300781 L 60.53125 18.535156 L 60.753906 18.785156 L 60.953125 19.054688 L 61.128906 19.339844 L 61.28125 19.640625 L 61.410156 19.957031 L 61.515625 20.292969 L 61.597656 20.640625 L 61.65625 21.003906 L 61.691406 21.386719 L 61.703125 21.785156 L 61.695312 22.097656 L 61.667969 22.414062 L 61.621094 22.734375 L 61.554688 23.050781 L 61.472656 23.371094 L 61.371094 23.691406 L 61.25 24.011719 L 61.113281 24.335938 L 60.957031 24.660156 L 60.78125 24.984375 L 60.59375 25.3125 L 60.390625 25.644531 L 60.171875 25.980469 L 59.9375 26.324219 L 59.691406 26.671875 L 59.429688 27.023438 L 59.152344 27.382812 L 58.859375 27.742188 L 58.550781 28.109375 L 58.230469 28.484375 L 57.898438 28.863281 L 57.554688 29.253906 L 57.199219 29.652344 L 56.832031 30.058594 L 56.453125 30.476562 L 56.0625 30.90625 L 55.660156 31.339844 L 55.246094 31.789062 L 54.816406 32.242188 L 54.378906 32.707031 L 54.507812 32.699219 L 54.640625 32.691406 L 54.773438 32.679688 L 54.902344 32.671875 L 55.167969 32.65625 L 55.300781 32.652344 L 55.433594 32.644531 L 55.570312 32.640625 L 55.703125 32.632812 L 55.84375 32.625 L 55.980469 32.617188 L 56.121094 32.609375 L 56.257812 32.601562 L 56.390625 32.597656 L 56.527344 32.589844 L 56.660156 32.589844 L 56.792969 32.585938 L 56.925781 32.585938 L 57.054688 32.582031 L 62.503906 32.582031 L 62.503906 33.582031 Z M 52.703125 33.582031 "/>
<path fill-rule="nonzero" fill="rgb(10.196078%, 10.196078%, 10.196078%)" fill-opacity="1" d="M 198.632812 294.054688 L 197.582031 297.128906 L 203.429688 297.128906 L 202.382812 294.054688 L 202.28125 293.757812 L 202.085938 293.179688 L 201.988281 292.894531 L 201.894531 292.609375 L 201.800781 292.328125 L 201.613281 291.773438 L 201.523438 291.5 L 201.429688 291.226562 L 201.34375 290.957031 L 201.164062 290.402344 L 201.074219 290.121094 L 200.988281 289.835938 L 200.902344 289.546875 L 200.8125 289.253906 L 200.726562 288.957031 L 200.640625 288.65625 L 200.554688 288.351562 L 200.457031 288.351562 L 200.371094 288.65625 L 200.285156 288.957031 L 200.199219 289.253906 L 200.113281 289.546875 L 200.023438 289.835938 L 199.9375 290.121094 L 199.847656 290.402344 L 199.761719 290.679688 L 199.671875 290.957031 L 199.582031 291.226562 L 199.492188 291.5 L 199.398438 291.773438 L 199.308594 292.050781 L 199.214844 292.328125 L 199.117188 292.609375 L 199.023438 292.894531 L 198.925781 293.179688 L 198.730469 293.757812 Z M 194.132812 303.753906 L 199.929688 287.277344 L 201.082031 287.277344 L 206.882812 303.753906 L 205.679688 303.753906 L 203.757812 298.101562 L 197.230469 298.101562 L 195.28125 303.753906 Z M 194.132812 303.753906 "/>
<path fill-rule="nonzero" fill="rgb(10.196078%, 10.196078%, 10.196078%)" fill-opacity="1" d="M 209.382812 303.753906 L 209.382812 291.753906 L 210.332031 291.753906 L 210.429688 293.601562 L 210.507812 293.601562 L 210.691406 293.421875 L 210.878906 293.246094 L 211.066406 293.078125 L 211.253906 292.914062 L 211.445312 292.757812 L 211.632812 292.609375 L 211.824219 292.46875 L 212.019531 292.332031 L 212.210938 292.203125 L 212.40625 292.078125 L 212.609375 291.960938 L 212.816406 291.851562 L 213.027344 291.757812 L 213.242188 291.679688 L 213.460938 291.609375 L 213.6875 291.554688 L 213.917969 291.507812 L 214.152344 291.476562 L 214.390625 291.460938 L 214.632812 291.453125 L 214.992188 291.464844 L 215.332031 291.5 L 215.652344 291.558594 L 215.957031 291.636719 L 216.238281 291.742188 L 216.5 291.867188 L 216.742188 292.015625 L 216.96875 292.1875 L 217.171875 292.382812 L 217.355469 292.601562 L 217.527344 292.839844 L 217.679688 293.101562 L 217.816406 293.386719 L 217.933594 293.695312 L 218.03125 294.027344 L 218.113281 294.386719 L 218.175781 294.765625 L 218.21875 295.171875 L 218.246094 295.601562 L 218.257812 296.054688 L 218.257812 303.753906 L 217.15625 303.753906 L 217.15625 296.203125 L 217.148438 295.828125 L 217.128906 295.472656 L 217.097656 295.140625 L 217.050781 294.828125 L 216.992188 294.535156 L 216.921875 294.261719 L 216.839844 294.011719 L 216.742188 293.777344 L 216.628906 293.570312 L 216.507812 293.378906 L 216.375 293.203125 L 216.222656 293.046875 L 216.054688 292.90625 L 215.871094 292.785156 L 215.667969 292.683594 L 215.449219 292.601562 L 215.214844 292.535156 L 214.960938 292.488281 L 214.691406 292.460938 L 214.40625 292.453125 L 214.195312 292.457031 L 213.984375 292.476562 L 213.78125 292.503906 L 213.578125 292.546875 L 213.382812 292.597656 L 213.1875 292.660156 L 213 292.734375 L 212.816406 292.820312 L 212.632812 292.917969 L 212.457031 293.027344 L 212.28125 293.144531 L 212.097656 293.269531 L 211.910156 293.410156 L 211.71875 293.558594 L 211.523438 293.722656 L 211.324219 293.894531 L 211.121094 294.078125 L 210.914062 294.277344 L 210.699219 294.484375 L 210.480469 294.703125 L 210.480469 303.753906 Z M 209.382812 303.753906 "/>
<path fill-rule="nonzero" fill="rgb(10.196078%, 10.196078%, 10.196078%)" fill-opacity="1" d="M 225.957031 304.054688 L 225.617188 304.042969 L 225.300781 304.011719 L 225.007812 303.964844 L 224.738281 303.894531 L 224.488281 303.804688 L 224.261719 303.691406 L 224.058594 303.5625 L 223.875 303.414062 L 223.71875 303.242188 L 223.582031 303.054688 L 223.460938 302.84375 L 223.355469 302.621094 L 223.261719 302.386719 L 223.179688 302.140625 L 223.113281 301.882812 L 223.054688 301.617188 L 223.011719 301.335938 L 222.980469 301.046875 L 222.960938 300.742188 L 222.957031 300.429688 L 222.957031 292.703125 L 221.082031 292.703125 L 221.082031 291.851562 L 222.980469 291.753906 L 223.132812 288.277344 L 224.082031 288.277344 L 224.082031 291.753906 L 227.554688 291.753906 L 227.554688 292.703125 L 224.082031 292.703125 L 224.082031 300.527344 L 224.085938 300.753906 L 224.097656 300.96875 L 224.117188 301.175781 L 224.144531 301.375 L 224.179688 301.566406 L 224.226562 301.746094 L 224.277344 301.917969 L 224.335938 302.082031 L 224.40625 302.234375 L 224.480469 302.378906 L 224.570312 302.511719 L 224.675781 302.628906 L 224.796875 302.734375 L 224.933594 302.828125 L 225.085938 302.902344 L 225.257812 302.964844 L 225.445312 303.015625 L 225.648438 303.050781 L 225.871094 303.070312 L 226.105469 303.078125 L 226.175781 303.078125 L 226.25 303.074219 L 226.320312 303.070312 L 226.46875 303.054688 L 226.542969 303.042969 L 226.621094 303.027344 L 226.699219 303.015625 L 226.855469 302.976562 L 226.941406 302.953125 L 227.023438 302.925781 L 227.101562 302.902344 L 227.257812 302.847656 L 227.332031 302.820312 L 227.402344 302.789062 L 227.472656 302.761719 L 227.539062 302.734375 L 227.605469 302.703125 L 227.90625 303.601562 L 227.695312 303.671875 L 227.484375 303.734375 L 227.375 303.765625 L 227.269531 303.796875 L 226.941406 303.878906 L 226.832031 303.902344 L 226.726562 303.933594 L 226.53125 303.980469 L 226.441406 304 L 226.351562 304.015625 L 226.265625 304.027344 L 226.183594 304.039062 L 226.105469 304.046875 L 226.027344 304.050781 Z M 225.957031 304.054688 "/>
<path fill-rule="nonzero" fill="rgb(10.196078%, 10.196078%, 10.196078%)" fill-opacity="1" d="M 235.03125 304.054688 L 234.730469 304.046875 L 234.429688 304.023438 L 234.140625 303.984375 L 233.851562 303.933594 L 233.570312 303.867188 L 233.292969 303.78125 L 233.019531 303.6875 L 232.75 303.574219 L 232.488281 303.445312 L 232.230469 303.304688 L 231.988281 303.148438 L 231.75 302.976562 L 231.527344 302.792969 L 231.3125 302.597656 L 231.105469 302.390625 L 230.910156 302.167969 L 230.726562 301.933594 L 230.550781 301.6875 L 230.386719 301.425781 L 230.230469 301.152344 L 230.089844 300.863281 L 229.960938 300.5625 L 229.847656 300.25 L 229.75 299.929688 L 229.667969 299.597656 L 229.601562 299.253906 L 229.550781 298.902344 L 229.511719 298.539062 L 229.488281 298.164062 L 229.480469 297.777344 L 229.488281 297.390625 L 229.511719 297.011719 L 229.550781 296.644531 L 229.601562 296.289062 L 229.667969 295.945312 L 229.75 295.613281 L 229.847656 295.296875 L 229.960938 294.984375 L 230.089844 294.6875 L 230.230469 294.402344 L 230.386719 294.125 L 230.550781 293.859375 L 230.722656 293.609375 L 230.902344 293.371094 L 231.09375 293.148438 L 231.292969 292.9375 L 231.503906 292.738281 L 231.71875 292.554688 L 231.945312 292.386719 L 232.179688 292.226562 L 232.421875 292.082031 L 232.667969 291.949219 L 232.914062 291.832031 L 233.160156 291.730469 L 233.414062 291.648438 L 233.667969 291.578125 L 233.921875 291.523438 L 234.179688 291.484375 L 234.441406 291.460938 L 234.707031 291.453125 L 235.128906 291.46875 L 235.53125 291.511719 L 235.914062 291.582031 L 236.277344 291.683594 L 236.625 291.816406 L 236.953125 291.976562 L 237.261719 292.164062 L 237.554688 292.382812 L 237.828125 292.628906 L 238.082031 292.902344 L 238.3125 293.207031 L 238.523438 293.53125 L 238.707031 293.882812 L 238.867188 294.253906 L 239 294.652344 L 239.109375 295.074219 L 239.195312 295.519531 L 239.257812 295.992188 L 239.292969 296.484375 L 239.304688 297.003906 L 239.304688 297.136719 L 239.300781 297.183594 L 239.300781 297.226562 L 239.296875 297.273438 L 239.292969 297.316406 L 239.289062 297.363281 L 239.285156 297.40625 L 239.28125 297.453125 L 239.28125 297.542969 L 239.277344 297.589844 L 239.273438 297.632812 L 239.269531 297.679688 L 239.261719 297.722656 L 239.257812 297.769531 L 239.25 297.8125 L 239.242188 297.859375 L 239.230469 297.902344 L 230.605469 297.902344 L 230.617188 298.199219 L 230.636719 298.488281 L 230.667969 298.773438 L 230.710938 299.050781 L 230.761719 299.320312 L 230.824219 299.585938 L 230.898438 299.84375 L 230.984375 300.09375 L 231.078125 300.339844 L 231.179688 300.578125 L 231.300781 300.808594 L 231.429688 301.027344 L 231.566406 301.238281 L 231.710938 301.4375 L 231.863281 301.628906 L 232.023438 301.808594 L 232.195312 301.976562 L 232.375 302.136719 L 232.5625 302.289062 L 232.757812 302.429688 L 232.964844 302.554688 L 233.179688 302.671875 L 233.402344 302.773438 L 233.628906 302.859375 L 233.863281 302.933594 L 234.105469 302.996094 L 234.351562 303.042969 L 234.605469 303.078125 L 234.863281 303.097656 L 235.132812 303.101562 L 235.324219 303.101562 L 235.699219 303.078125 L 235.878906 303.054688 L 236.054688 303.027344 L 236.230469 302.996094 L 236.398438 302.957031 L 236.5625 302.910156 L 236.726562 302.859375 L 236.882812 302.804688 L 237.039062 302.742188 L 237.351562 302.609375 L 237.648438 302.460938 L 237.796875 302.378906 L 237.941406 302.296875 L 238.082031 302.210938 L 238.21875 302.121094 L 238.355469 302.027344 L 238.804688 302.878906 L 238.664062 302.960938 L 238.519531 303.046875 L 238.371094 303.128906 L 238.21875 303.210938 L 238.0625 303.289062 L 237.902344 303.371094 L 237.742188 303.449219 L 237.574219 303.527344 L 237.40625 303.601562 L 237.230469 303.679688 L 237.050781 303.75 L 236.863281 303.8125 L 236.667969 303.871094 L 236.460938 303.917969 L 236.242188 303.960938 L 236.019531 303.992188 L 235.785156 304.019531 L 235.542969 304.039062 L 235.292969 304.050781 Z M 230.605469 297.003906 L 238.257812 297.003906 L 238.246094 296.554688 L 238.21875 296.128906 L 238.171875 295.726562 L 238.105469 295.347656 L 238.019531 294.992188 L 237.914062 294.65625 L 237.792969 294.347656 L 237.648438 294.058594 L 237.488281 293.792969 L 237.304688 293.554688 L 237.109375 293.335938 L 236.898438 293.140625 L 236.675781 292.964844 L 236.4375 292.816406 L 236.1875 292.691406 L 235.921875 292.585938 L 235.644531 292.507812 L 235.355469 292.449219 L 235.050781 292.414062 L 234.730469 292.402344 L 234.527344 292.410156 L 234.328125 292.425781 L 234.128906 292.453125 L 233.929688 292.492188 L 233.738281 292.539062 L 233.546875 292.601562 L 233.359375 292.671875 L 233.171875 292.753906 L 232.988281 292.847656 L 232.804688 292.953125 L 232.632812 293.066406 L 232.46875 293.191406 L 232.304688 293.324219 L 232.152344 293.46875 L 232 293.621094 L 231.855469 293.785156 L 231.714844 293.957031 L 231.582031 294.136719 L 231.453125 294.328125 L 231.332031 294.527344 L 231.214844 294.738281 L 231.109375 294.957031 L 231.015625 295.179688 L 230.925781 295.417969 L 230.851562 295.660156 L 230.78125 295.910156 L 230.722656 296.171875 L 230.675781 296.441406 L 230.636719 296.71875 Z M 230.605469 297.003906 "/>
<path fill-rule="nonzero" fill="rgb(10.196078%, 10.196078%, 10.196078%)" fill-opacity="1" d="M 245.457031 304.054688 L 245.195312 304.046875 L 244.933594 304.035156 L 244.675781 304.011719 L 244.425781 303.976562 L 244.175781 303.933594 L 243.929688 303.882812 L 243.6875 303.820312 L 243.449219 303.75 L 243.214844 303.667969 L 242.980469 303.578125 L 242.761719 303.476562 L 242.542969 303.371094 L 242.335938 303.261719 L 242.132812 303.148438 L 241.9375 303.035156 L 241.75 302.914062 L 241.566406 302.792969 L 241.390625 302.667969 L 241.21875 302.535156 L 241.054688 302.402344 L 241.707031 301.578125 L 241.863281 301.703125 L 242.019531 301.820312 L 242.179688 301.9375 L 242.34375 302.050781 L 242.507812 302.160156 L 242.671875 302.265625 L 242.839844 302.367188 L 243.183594 302.5625 L 243.355469 302.652344 L 243.535156 302.738281 L 243.722656 302.816406 L 243.917969 302.882812 L 244.125 302.941406 L 244.335938 302.992188 L 244.558594 303.03125 L 244.789062 303.0625 L 245.027344 303.085938 L 245.277344 303.097656 L 245.53125 303.101562 L 245.804688 303.097656 L 246.066406 303.074219 L 246.3125 303.039062 L 246.542969 302.992188 L 246.761719 302.929688 L 246.96875 302.851562 L 247.160156 302.761719 L 247.339844 302.65625 L 247.503906 302.535156 L 247.65625 302.402344 L 247.792969 302.257812 L 247.917969 302.105469 L 248.027344 301.949219 L 248.121094 301.789062 L 248.199219 301.621094 L 248.265625 301.453125 L 248.316406 301.277344 L 248.351562 301.097656 L 248.375 300.914062 L 248.382812 300.726562 L 248.378906 300.582031 L 248.363281 300.4375 L 248.339844 300.300781 L 248.308594 300.167969 L 248.269531 300.039062 L 248.21875 299.917969 L 248.160156 299.800781 L 248.09375 299.6875 L 248.015625 299.582031 L 247.929688 299.476562 L 247.839844 299.378906 L 247.742188 299.285156 L 247.640625 299.195312 L 247.535156 299.105469 L 247.425781 299.023438 L 247.3125 298.941406 L 247.191406 298.863281 L 247.066406 298.789062 L 246.9375 298.71875 L 246.804688 298.652344 L 246.675781 298.589844 L 246.542969 298.527344 L 246.414062 298.464844 L 246.277344 298.40625 L 246.144531 298.347656 L 246.007812 298.289062 L 245.734375 298.179688 L 245.597656 298.128906 L 245.457031 298.078125 L 245.097656 297.945312 L 244.917969 297.875 L 244.742188 297.804688 L 244.5625 297.734375 L 244.386719 297.660156 L 244.207031 297.585938 L 244.03125 297.511719 L 243.855469 297.433594 L 243.679688 297.351562 L 243.515625 297.269531 L 243.355469 297.183594 L 243.199219 297.09375 L 243.050781 296.996094 L 242.90625 296.898438 L 242.769531 296.792969 L 242.636719 296.683594 L 242.511719 296.570312 L 242.394531 296.449219 L 242.28125 296.328125 L 242.175781 296.195312 L 242.082031 296.054688 L 242 295.90625 L 241.929688 295.75 L 241.867188 295.585938 L 241.820312 295.414062 L 241.78125 295.234375 L 241.753906 295.046875 L 241.738281 294.855469 L 241.730469 294.652344 L 241.742188 294.390625 L 241.769531 294.140625 L 241.820312 293.894531 L 241.886719 293.65625 L 241.976562 293.429688 L 242.082031 293.207031 L 242.210938 292.996094 L 242.355469 292.789062 L 242.519531 292.59375 L 242.707031 292.402344 L 242.914062 292.222656 L 243.140625 292.0625 L 243.386719 291.917969 L 243.648438 291.796875 L 243.925781 291.691406 L 244.222656 291.605469 L 244.535156 291.539062 L 244.867188 291.492188 L 245.214844 291.460938 L 245.582031 291.453125 L 245.777344 291.457031 L 245.96875 291.46875 L 246.160156 291.484375 L 246.351562 291.507812 L 246.539062 291.539062 L 246.726562 291.578125 L 246.910156 291.625 L 247.09375 291.675781 L 247.277344 291.738281 L 247.457031 291.804688 L 247.640625 291.875 L 247.816406 291.953125 L 247.988281 292.03125 L 248.152344 292.113281 L 248.3125 292.203125 L 248.46875 292.296875 L 248.617188 292.390625 L 248.761719 292.492188 L 248.898438 292.59375 L 249.03125 292.703125 L 248.429688 293.476562 L 248.179688 293.304688 L 247.921875 293.140625 L 247.664062 292.992188 L 247.53125 292.921875 L 247.265625 292.789062 L 247.132812 292.726562 L 246.996094 292.667969 L 246.851562 292.609375 L 246.707031 292.5625 L 246.554688 292.519531 L 246.398438 292.484375 L 246.242188 292.457031 L 246.078125 292.433594 L 245.90625 292.417969 L 245.734375 292.40625 L 245.554688 292.402344 L 245.285156 292.410156 L 245.027344 292.429688 L 244.78125 292.464844 L 244.550781 292.511719 L 244.335938 292.570312 L 244.136719 292.644531 L 243.953125 292.734375 L 243.78125 292.835938 L 243.625 292.949219 L 243.480469 293.078125 L 243.359375 293.214844 L 243.246094 293.355469 L 243.148438 293.496094 L 243.066406 293.640625 L 242.992188 293.789062 L 242.9375 293.941406 L 242.890625 294.097656 L 242.859375 294.253906 L 242.839844 294.414062 L 242.832031 294.578125 L 242.835938 294.710938 L 242.847656 294.839844 L 242.867188 294.964844 L 242.890625 295.082031 L 242.925781 295.195312 L 242.964844 295.308594 L 243.015625 295.414062 L 243.070312 295.515625 L 243.136719 295.609375 L 243.207031 295.703125 L 243.289062 295.792969 L 243.375 295.878906 L 243.46875 295.960938 L 243.5625 296.039062 L 243.664062 296.117188 L 243.875 296.257812 L 243.992188 296.328125 L 244.109375 296.390625 L 244.230469 296.453125 L 244.363281 296.507812 L 244.492188 296.5625 L 244.757812 296.671875 L 245.03125 296.78125 L 245.167969 296.839844 L 245.441406 296.949219 L 245.582031 297.003906 L 245.769531 297.074219 L 245.960938 297.144531 L 246.148438 297.21875 L 246.332031 297.292969 L 246.519531 297.367188 L 246.703125 297.441406 L 246.886719 297.519531 L 247.070312 297.59375 L 247.25 297.671875 L 247.609375 297.835938 L 247.777344 297.925781 L 247.941406 298.019531 L 248.101562 298.117188 L 248.25 298.222656 L 248.394531 298.332031 L 248.53125 298.449219 L 248.664062 298.570312 L 248.789062 298.695312 L 248.90625 298.828125 L 249.019531 298.96875 L 249.121094 299.117188 L 249.210938 299.277344 L 249.289062 299.449219 L 249.355469 299.628906 L 249.410156 299.816406 L 249.453125 300.019531 L 249.484375 300.226562 L 249.5 300.449219 L 249.507812 300.679688 L 249.5 300.855469 L 249.488281 301.03125 L 249.464844 301.207031 L 249.429688 301.378906 L 249.386719 301.546875 L 249.335938 301.714844 L 249.273438 301.875 L 249.203125 302.039062 L 249.121094 302.195312 L 249.03125 302.351562 L 248.933594 302.5 L 248.824219 302.640625 L 248.707031 302.777344 L 248.582031 302.910156 L 248.449219 303.035156 L 248.308594 303.152344 L 248.160156 303.269531 L 248 303.378906 L 247.832031 303.480469 L 247.65625 303.578125 L 247.472656 303.667969 L 247.28125 303.75 L 247.082031 303.820312 L 246.871094 303.882812 L 246.65625 303.933594 L 246.433594 303.976562 L 246.199219 304.011719 L 245.960938 304.035156 L 245.710938 304.046875 Z M 245.457031 304.054688 "/>
<path fill-rule="nonzero" fill="rgb(10.196078%, 10.196078%, 10.196078%)" fill-opacity="1" d="M 433.578125 303.753906 L 433.578125 287.277344 L 437.402344 287.277344 L 437.902344 287.289062 L 438.386719 287.320312 L 438.851562 287.371094 L 439.296875 287.441406 L 439.726562 287.535156 L 440.140625 287.648438 L 440.53125 287.78125 L 440.90625 287.933594 L 441.265625 288.109375 L 441.601562 288.304688 L 441.925781 288.511719 L 442.230469 288.734375 L 442.515625 288.976562 L 442.785156 289.234375 L 443.039062 289.507812 L 443.277344 289.800781 L 443.496094 290.109375 L 443.699219 290.429688 L 443.882812 290.769531 L 444.054688 291.128906 L 444.210938 291.5 L 444.351562 291.886719 L 444.472656 292.285156 L 444.582031 292.695312 L 444.671875 293.121094 L 444.746094 293.5625 L 444.804688 294.015625 L 444.84375 294.480469 L 444.871094 294.960938 L 444.878906 295.453125 L 444.871094 295.945312 L 444.84375 296.429688 L 444.804688 296.898438 L 444.746094 297.351562 L 444.671875 297.796875 L 444.582031 298.226562 L 444.472656 298.648438 L 444.351562 299.054688 L 444.210938 299.445312 L 444.054688 299.828125 L 443.882812 300.191406 L 443.699219 300.535156 L 443.496094 300.867188 L 443.277344 301.179688 L 443.039062 301.476562 L 442.785156 301.761719 L 442.515625 302.027344 L 442.230469 302.277344 L 441.925781 302.511719 L 441.601562 302.726562 L 441.265625 302.921875 L 440.90625 303.097656 L 440.535156 303.25 L 440.144531 303.382812 L 439.734375 303.496094 L 439.308594 303.589844 L 438.863281 303.660156 L 438.402344 303.710938 L 437.925781 303.742188 L 437.429688 303.753906 Z M 434.726562 302.777344 L 437.277344 302.777344 L 437.71875 302.769531 L 438.144531 302.742188 L 438.550781 302.695312 L 438.941406 302.628906 L 439.316406 302.546875 L 439.671875 302.445312 L 440.011719 302.324219 L 440.332031 302.1875 L 440.640625 302.027344 L 440.929688 301.851562 L 441.203125 301.65625 L 441.464844 301.445312 L 441.714844 301.21875 L 441.945312 300.980469 L 442.160156 300.726562 L 442.359375 300.460938 L 442.542969 300.179688 L 442.710938 299.886719 L 442.863281 299.578125 L 443.003906 299.253906 L 443.132812 298.917969 L 443.246094 298.574219 L 443.347656 298.21875 L 443.433594 297.851562 L 443.507812 297.476562 L 443.570312 297.09375 L 443.617188 296.699219 L 443.652344 296.292969 L 443.671875 295.878906 L 443.679688 295.453125 L 443.671875 295.027344 L 443.652344 294.613281 L 443.617188 294.210938 L 443.570312 293.820312 L 443.507812 293.441406 L 443.433594 293.070312 L 443.347656 292.710938 L 443.246094 292.363281 L 443.132812 292.027344 L 443.003906 291.703125 L 442.863281 291.386719 L 442.710938 291.082031 L 442.542969 290.792969 L 442.359375 290.519531 L 442.160156 290.257812 L 441.945312 290.015625 L 441.714844 289.785156 L 441.464844 289.566406 L 441.203125 289.367188 L 440.929688 289.179688 L 440.640625 289.003906 L 440.332031 288.84375 L 440.011719 288.707031 L 439.671875 288.585938 L 439.316406 288.484375 L 438.941406 288.402344 L 438.550781 288.335938 L 438.144531 288.289062 L 437.71875 288.261719 L 437.277344 288.253906 L 434.726562 288.253906 Z M 434.726562 302.777344 "/>
<path fill-rule="nonzero" fill="rgb(10.196078%, 10.196078%, 10.196078%)" fill-opacity="1" d="M 453.101562 304.054688 L 452.800781 304.046875 L 452.503906 304.023438 L 452.210938 303.984375 L 451.921875 303.933594 L 451.640625 303.867188 L 451.363281 303.78125 L 451.089844 303.6875 L 450.824219 303.574219 L 450.558594 303.445312 L 450.304688 303.304688 L 450.058594 303.148438 L 449.824219 302.976562 L 449.597656 302.792969 L 449.382812 302.597656 L 449.179688 302.390625 L 448.984375 302.167969 L 448.796875 301.933594 L 448.621094 301.6875 L 448.457031 301.425781 L 448.304688 301.152344 L 448.160156 300.863281 L 448.03125 300.5625 L 447.921875 300.25 L 447.824219 299.929688 L 447.742188 299.597656 L 447.671875 299.253906 L 447.621094 298.902344 L 447.582031 298.539062 L 447.558594 298.164062 L 447.554688 297.777344 L 447.558594 297.390625 L 447.582031 297.011719 L 447.621094 296.644531 L 447.671875 296.289062 L 447.742188 295.945312 L 447.824219 295.613281 L 447.921875 295.296875 L 448.03125 294.984375 L 448.160156 294.6875 L 448.304688 294.402344 L 448.457031 294.125 L 448.621094 293.859375 L 448.792969 293.609375 L 448.976562 293.371094 L 449.164062 293.148438 L 449.363281 292.9375 L 449.574219 292.738281 L 449.789062 292.554688 L 450.015625 292.386719 L 450.253906 292.226562 L 450.492188 292.082031 L 450.738281 291.949219 L 450.984375 291.832031 L 451.234375 291.730469 L 451.484375 291.648438 L 451.738281 291.578125 L 451.992188 291.523438 L 452.253906 291.484375 L 452.515625 291.460938 L 452.777344 291.453125 L 453.199219 291.46875 L 453.601562 291.511719 L 453.984375 291.582031 L 454.351562 291.683594 L 454.695312 291.816406 L 455.023438 291.976562 L 455.335938 292.164062 L 455.625 292.382812 L 455.898438 292.628906 L 456.152344 292.902344 L 456.386719 293.207031 L 456.59375 293.53125 L 456.777344 293.882812 L 456.9375 294.253906 L 457.070312 294.652344 L 457.183594 295.074219 L 457.265625 295.519531 L 457.328125 295.992188 L 457.367188 296.484375 L 457.378906 297.003906 L 457.378906 297.046875 L 457.375 297.09375 L 457.375 297.183594 L 457.371094 297.226562 L 457.367188 297.273438 L 457.367188 297.316406 L 457.363281 297.363281 L 457.359375 297.40625 L 457.351562 297.453125 L 457.351562 297.542969 L 457.347656 297.589844 L 457.34375 297.632812 L 457.339844 297.679688 L 457.335938 297.722656 L 457.328125 297.769531 L 457.320312 297.8125 L 457.3125 297.859375 L 457.304688 297.902344 L 448.679688 297.902344 L 448.6875 298.199219 L 448.707031 298.488281 L 448.738281 298.773438 L 448.78125 299.050781 L 448.835938 299.320312 L 448.898438 299.585938 L 448.96875 299.84375 L 449.054688 300.09375 L 449.148438 300.339844 L 449.253906 300.578125 L 449.371094 300.808594 L 449.5 301.027344 L 449.636719 301.238281 L 449.78125 301.4375 L 449.933594 301.628906 L 450.097656 301.808594 L 450.265625 301.976562 L 450.445312 302.136719 L 450.632812 302.289062 L 450.828125 302.429688 L 451.035156 302.554688 L 451.25 302.671875 L 451.472656 302.773438 L 451.699219 302.859375 L 451.933594 302.933594 L 452.175781 302.996094 L 452.421875 303.042969 L 452.675781 303.078125 L 452.9375 303.097656 L 453.203125 303.101562 L 453.394531 303.101562 L 453.585938 303.089844 L 453.769531 303.078125 L 453.949219 303.054688 L 454.128906 303.027344 L 454.300781 302.996094 L 454.46875 302.957031 L 454.632812 302.910156 L 454.796875 302.859375 L 454.953125 302.804688 L 455.113281 302.742188 L 455.269531 302.675781 L 455.421875 302.609375 L 455.574219 302.535156 L 455.722656 302.460938 L 456.011719 302.296875 L 456.152344 302.210938 L 456.292969 302.121094 L 456.429688 302.027344 L 456.878906 302.878906 L 456.734375 302.960938 L 456.589844 303.046875 L 456.441406 303.128906 L 456.289062 303.210938 L 456.132812 303.289062 L 455.976562 303.371094 L 455.8125 303.449219 L 455.644531 303.527344 L 455.476562 303.601562 L 455.304688 303.679688 L 455.125 303.75 L 454.933594 303.8125 L 454.738281 303.871094 L 454.53125 303.917969 L 454.316406 303.960938 L 454.089844 303.992188 L 453.855469 304.019531 L 453.613281 304.039062 L 453.363281 304.050781 Z M 448.679688 297.003906 L 456.328125 297.003906 L 456.316406 296.554688 L 456.289062 296.128906 L 456.242188 295.726562 L 456.175781 295.347656 L 456.089844 294.992188 L 455.984375 294.65625 L 455.863281 294.347656 L 455.71875 294.058594 L 455.558594 293.792969 L 455.378906 293.554688 L 455.179688 293.335938 L 454.972656 293.140625 L 454.746094 292.964844 L 454.507812 292.816406 L 454.257812 292.691406 L 453.996094 292.585938 L 453.71875 292.507812 L 453.425781 292.449219 L 453.121094 292.414062 L 452.804688 292.402344 L 452.597656 292.410156 L 452.398438 292.425781 L 452.199219 292.453125 L 452.003906 292.492188 L 451.808594 292.539062 L 451.617188 292.601562 L 451.429688 292.671875 L 451.242188 292.753906 L 451.058594 292.847656 L 450.878906 292.953125 L 450.707031 293.066406 L 450.539062 293.191406 L 450.378906 293.324219 L 450.222656 293.46875 L 450.070312 293.621094 L 449.925781 293.785156 L 449.789062 293.957031 L 449.652344 294.136719 L 449.527344 294.328125 L 449.402344 294.527344 L 449.289062 294.738281 L 449.183594 294.957031 L 449.085938 295.179688 L 449 295.417969 L 448.921875 295.660156 L 448.855469 295.910156 L 448.796875 296.171875 L 448.746094 296.441406 L 448.707031 296.71875 Z M 448.679688 297.003906 "/>
<path fill-rule="nonzero" fill="rgb(10.196078%, 10.196078%, 10.196078%)" fill-opacity="1" d="M 460.628906 309.179688 L 460.628906 291.753906 L 461.578125 291.753906 L 461.679688 293.253906 L 461.753906 293.253906 L 461.929688 293.113281 L 462.109375 292.980469 L 462.292969 292.847656 L 462.480469 292.71875 L 462.671875 292.589844 L 463.0625 292.347656 L 463.46875 292.113281 L 463.679688 292.003906 L 463.886719 291.898438 L 464.101562 291.804688 L 464.3125 291.722656 L 464.527344 291.652344 L 464.742188 291.589844 L 464.957031 291.542969 L 465.171875 291.503906 L 465.390625 291.476562 L 465.609375 291.457031 L 465.828125 291.453125 L 466.296875 291.46875 L 466.738281 291.519531 L 467.160156 291.605469 L 467.554688 291.722656 L 467.929688 291.871094 L 468.277344 292.054688 L 468.601562 292.273438 L 468.898438 292.523438 L 469.175781 292.808594 L 469.429688 293.128906 L 469.65625 293.46875 L 469.859375 293.835938 L 470.039062 294.222656 L 470.195312 294.632812 L 470.328125 295.066406 L 470.4375 295.523438 L 470.519531 296 L 470.578125 296.503906 L 470.617188 297.03125 L 470.628906 297.578125 L 470.621094 297.976562 L 470.597656 298.363281 L 470.558594 298.742188 L 470.507812 299.105469 L 470.441406 299.460938 L 470.359375 299.800781 L 470.261719 300.132812 L 470.148438 300.449219 L 470.019531 300.757812 L 469.878906 301.054688 L 469.726562 301.335938 L 469.570312 301.605469 L 469.398438 301.863281 L 469.222656 302.105469 L 469.035156 302.335938 L 468.835938 302.550781 L 468.628906 302.753906 L 468.414062 302.941406 L 468.1875 303.117188 L 467.953125 303.277344 L 467.710938 303.425781 L 467.464844 303.558594 L 467.210938 303.671875 L 466.957031 303.773438 L 466.695312 303.859375 L 466.433594 303.929688 L 466.164062 303.984375 L 465.890625 304.023438 L 465.609375 304.046875 L 465.328125 304.054688 L 465.15625 304.050781 L 464.984375 304.039062 L 464.8125 304.019531 L 464.640625 303.992188 L 464.464844 303.960938 L 464.289062 303.917969 L 464.113281 303.871094 L 463.9375 303.8125 L 463.757812 303.75 L 463.578125 303.679688 L 463.398438 303.59375 L 463.214844 303.507812 L 463.035156 303.410156 L 462.851562 303.308594 L 462.664062 303.203125 L 462.480469 303.089844 L 462.292969 302.972656 L 462.105469 302.847656 L 461.917969 302.714844 L 461.726562 302.578125 L 461.726562 309.179688 Z M 465.277344 303.078125 L 465.519531 303.070312 L 465.753906 303.050781 L 465.984375 303.015625 L 466.210938 302.964844 L 466.429688 302.902344 L 466.640625 302.828125 L 466.847656 302.734375 L 467.046875 302.628906 L 467.238281 302.511719 L 467.429688 302.378906 L 467.613281 302.234375 L 467.789062 302.078125 L 467.960938 301.910156 L 468.121094 301.734375 L 468.273438 301.546875 L 468.414062 301.347656 L 468.550781 301.140625 L 468.675781 300.921875 L 468.792969 300.691406 L 468.902344 300.453125 L 469.007812 300.199219 L 469.101562 299.9375 L 469.183594 299.667969 L 469.253906 299.394531 L 469.316406 299.109375 L 469.363281 298.816406 L 469.402344 298.519531 L 469.429688 298.214844 L 469.445312 297.898438 L 469.453125 297.578125 L 469.449219 297.285156 L 469.4375 297 L 469.417969 296.722656 L 469.394531 296.449219 L 469.359375 296.183594 L 469.316406 295.925781 L 469.269531 295.671875 L 469.210938 295.425781 L 469.148438 295.1875 L 469.078125 294.953125 L 468.996094 294.722656 L 468.910156 294.503906 L 468.808594 294.292969 L 468.703125 294.09375 L 468.585938 293.902344 L 468.457031 293.722656 L 468.320312 293.554688 L 468.171875 293.394531 L 468.019531 293.242188 L 467.851562 293.101562 L 467.683594 292.976562 L 467.5 292.859375 L 467.308594 292.757812 L 467.105469 292.671875 L 466.890625 292.597656 L 466.664062 292.535156 L 466.429688 292.488281 L 466.179688 292.457031 L 465.921875 292.433594 L 465.652344 292.429688 L 465.472656 292.433594 L 465.289062 292.449219 L 465.105469 292.476562 L 464.921875 292.511719 L 464.734375 292.558594 L 464.546875 292.617188 L 464.355469 292.683594 L 464.164062 292.765625 L 463.972656 292.851562 L 463.777344 292.953125 L 463.585938 293.058594 L 463.390625 293.171875 L 463.195312 293.292969 L 462.992188 293.425781 L 462.789062 293.566406 L 462.582031 293.714844 L 462.375 293.875 L 462.160156 294.042969 L 461.945312 294.21875 L 461.726562 294.402344 L 461.726562 301.527344 L 461.929688 301.691406 L 462.132812 301.847656 L 462.332031 301.992188 L 462.527344 302.128906 L 462.722656 302.253906 L 462.914062 302.367188 L 463.101562 302.472656 L 463.289062 302.566406 L 463.472656 302.652344 L 463.652344 302.726562 L 463.835938 302.792969 L 464.015625 302.855469 L 464.1875 302.90625 L 464.355469 302.953125 L 464.523438 302.992188 L 464.683594 303.023438 L 464.835938 303.046875 L 464.988281 303.0625 L 465.136719 303.074219 Z M 465.277344 303.078125 "/>
<path fill-rule="nonzero" fill="rgb(10.196078%, 10.196078%, 10.196078%)" fill-opacity="1" d="M 478.601562 304.054688 L 478.320312 304.046875 L 478.039062 304.023438 L 477.765625 303.988281 L 477.496094 303.9375 L 477.226562 303.871094 L 476.964844 303.792969 L 476.707031 303.699219 L 476.449219 303.589844 L 476.199219 303.464844 L 475.953125 303.328125 L 475.710938 303.171875 L 475.480469 303.003906 L 475.261719 302.820312 L 475.046875 302.625 L 474.847656 302.414062 L 474.652344 302.195312 L 474.46875 301.960938 L 474.296875 301.710938 L 474.132812 301.453125 L 473.976562 301.179688 L 473.835938 300.886719 L 473.707031 300.585938 L 473.59375 300.273438 L 473.496094 299.949219 L 473.414062 299.617188 L 473.347656 299.269531 L 473.296875 298.914062 L 473.257812 298.546875 L 473.234375 298.167969 L 473.226562 297.777344 L 473.234375 297.378906 L 473.257812 296.992188 L 473.296875 296.621094 L 473.347656 296.257812 L 473.414062 295.910156 L 473.496094 295.574219 L 473.59375 295.25 L 473.707031 294.9375 L 473.835938 294.640625 L 473.976562 294.351562 L 474.132812 294.074219 L 474.296875 293.8125 L 474.46875 293.5625 L 474.652344 293.324219 L 474.847656 293.101562 L 475.046875 292.894531 L 475.261719 292.703125 L 475.480469 292.519531 L 475.710938 292.355469 L 475.953125 292.203125 L 476.199219 292.0625 L 476.449219 291.933594 L 476.707031 291.820312 L 476.964844 291.722656 L 477.226562 291.640625 L 477.496094 291.574219 L 477.765625 291.519531 L 478.039062 291.484375 L 478.320312 291.460938 L 478.601562 291.453125 L 478.890625 291.460938 L 479.171875 291.484375 L 479.453125 291.519531 L 479.726562 291.574219 L 479.996094 291.640625 L 480.261719 291.722656 L 480.523438 291.820312 L 480.777344 291.933594 L 481.03125 292.0625 L 481.277344 292.203125 L 481.519531 292.355469 L 481.75 292.519531 L 481.96875 292.703125 L 482.183594 292.894531 L 482.382812 293.101562 L 482.578125 293.324219 L 482.761719 293.5625 L 482.933594 293.8125 L 483.097656 294.074219 L 483.253906 294.351562 L 483.394531 294.640625 L 483.523438 294.9375 L 483.636719 295.25 L 483.734375 295.574219 L 483.816406 295.910156 L 483.882812 296.257812 L 483.933594 296.621094 L 483.972656 296.992188 L 483.996094 297.378906 L 484.003906 297.777344 L 483.996094 298.167969 L 483.972656 298.546875 L 483.933594 298.914062 L 483.882812 299.269531 L 483.816406 299.617188 L 483.734375 299.949219 L 483.636719 300.273438 L 483.523438 300.585938 L 483.394531 300.886719 L 483.253906 301.179688 L 483.097656 301.453125 L 482.933594 301.710938 L 482.761719 301.960938 L 482.578125 302.195312 L 482.382812 302.414062 L 482.183594 302.625 L 481.96875 302.820312 L 481.75 303.003906 L 481.519531 303.171875 L 481.277344 303.328125 L 481.03125 303.464844 L 480.777344 303.589844 L 480.523438 303.699219 L 480.261719 303.792969 L 479.996094 303.871094 L 479.726562 303.9375 L 479.453125 303.988281 L 479.171875 304.023438 L 478.890625 304.046875 Z M 478.601562 303.078125 L 478.84375 303.070312 L 479.082031 303.050781 L 479.3125 303.015625 L 479.539062 302.96875 L 479.757812 302.910156 L 479.972656 302.835938 L 480.183594 302.746094 L 480.386719 302.644531 L 480.585938 302.53125 L 480.777344 302.402344 L 480.964844 302.261719 L 481.140625 302.113281 L 481.3125 301.953125 L 481.472656 301.78125 L 481.628906 301.601562 L 481.773438 301.414062 L 481.910156 301.214844 L 482.042969 301.003906 L 482.164062 300.78125 L 482.277344 300.554688 L 482.386719 300.308594 L 482.484375 300.058594 L 482.570312 299.800781 L 482.644531 299.53125 L 482.710938 299.257812 L 482.761719 298.976562 L 482.800781 298.6875 L 482.828125 298.394531 L 482.847656 298.089844 L 482.851562 297.777344 L 482.847656 297.460938 L 482.828125 297.152344 L 482.800781 296.855469 L 482.761719 296.5625 L 482.710938 296.277344 L 482.644531 296.003906 L 482.570312 295.734375 L 482.484375 295.472656 L 482.386719 295.222656 L 482.277344 294.976562 L 482.164062 294.742188 L 482.042969 294.519531 L 481.910156 294.304688 L 481.773438 294.101562 L 481.628906 293.910156 L 481.472656 293.726562 L 481.3125 293.554688 L 481.140625 293.394531 L 480.964844 293.242188 L 480.777344 293.101562 L 480.585938 292.976562 L 480.386719 292.859375 L 480.183594 292.757812 L 479.972656 292.671875 L 479.757812 292.597656 L 479.539062 292.535156 L 479.3125 292.488281 L 479.082031 292.457031 L 478.84375 292.433594 L 478.601562 292.429688 L 478.363281 292.433594 L 478.132812 292.457031 L 477.902344 292.488281 L 477.679688 292.535156 L 477.460938 292.597656 L 477.242188 292.671875 L 477.03125 292.757812 L 476.828125 292.859375 L 476.625 292.976562 L 476.429688 293.101562 L 476.242188 293.242188 L 476.0625 293.394531 L 475.894531 293.554688 L 475.730469 293.726562 L 475.578125 293.910156 L 475.433594 294.101562 L 475.292969 294.304688 L 475.164062 294.519531 L 475.042969 294.742188 L 474.929688 294.976562 L 474.824219 295.222656 L 474.730469 295.472656 L 474.648438 295.734375 L 474.574219 296.003906 L 474.515625 296.277344 L 474.464844 296.5625 L 474.425781 296.855469 L 474.398438 297.152344 L 474.382812 297.460938 L 474.378906 297.777344 L 474.382812 298.089844 L 474.398438 298.394531 L 474.425781 298.6875 L 474.464844 298.976562 L 474.515625 299.257812 L 474.574219 299.53125 L 474.648438 299.800781 L 474.730469 300.058594 L 474.824219 300.308594 L 474.929688 300.554688 L 475.042969 300.78125 L 475.164062 301.003906 L 475.292969 301.214844 L 475.433594 301.414062 L 475.578125 301.601562 L 475.730469 301.78125 L 475.894531 301.953125 L 476.0625 302.113281 L 476.242188 302.261719 L 476.429688 302.402344 L 476.625 302.53125 L 476.828125 302.644531 L 477.03125 302.746094 L 477.242188 302.835938 L 477.460938 302.910156 L 477.679688 302.96875 L 477.902344 303.015625 L 478.132812 303.050781 L 478.363281 303.070312 Z M 478.601562 303.078125 "/>
<path fill-rule="nonzero" fill="rgb(10.196078%, 10.196078%, 10.196078%)" fill-opacity="1" d="M 487.601562 303.753906 L 487.601562 291.753906 L 488.703125 291.753906 L 488.703125 303.753906 Z M 488.179688 288.851562 L 488.097656 288.851562 L 488.023438 288.84375 L 487.949219 288.828125 L 487.878906 288.808594 L 487.808594 288.785156 L 487.742188 288.753906 L 487.679688 288.71875 L 487.617188 288.675781 L 487.558594 288.628906 L 487.503906 288.578125 L 487.449219 288.519531 L 487.402344 288.460938 L 487.363281 288.394531 L 487.328125 288.328125 L 487.296875 288.253906 L 487.273438 288.175781 L 487.253906 288.09375 L 487.238281 288.011719 L 487.230469 287.921875 L 487.226562 287.828125 L 487.230469 287.746094 L 487.238281 287.664062 L 487.253906 287.585938 L 487.273438 287.511719 L 487.296875 287.441406 L 487.328125 287.371094 L 487.363281 287.308594 L 487.402344 287.246094 L 487.449219 287.183594 L 487.558594 287.074219 L 487.617188 287.027344 L 487.679688 286.988281 L 487.742188 286.953125 L 487.808594 286.921875 L 487.878906 286.898438 L 487.949219 286.878906 L 488.023438 286.863281 L 488.097656 286.855469 L 488.179688 286.851562 L 488.261719 286.855469 L 488.339844 286.863281 L 488.417969 286.878906 L 488.488281 286.898438 L 488.558594 286.921875 L 488.625 286.953125 L 488.6875 286.988281 L 488.746094 287.027344 L 488.800781 287.074219 L 488.851562 287.128906 L 488.90625 287.183594 L 488.953125 287.246094 L 488.992188 287.308594 L 489.027344 287.371094 L 489.058594 287.441406 L 489.082031 287.511719 L 489.101562 287.585938 L 489.117188 287.664062 L 489.125 287.746094 L 489.128906 287.828125 L 489.125 287.921875 L 489.117188 288.011719 L 489.101562 288.09375 L 489.082031 288.175781 L 489.058594 288.253906 L 489.027344 288.328125 L 488.992188 288.394531 L 488.953125 288.460938 L 488.90625 288.519531 L 488.851562 288.578125 L 488.800781 288.628906 L 488.746094 288.675781 L 488.6875 288.71875 L 488.625 288.753906 L 488.558594 288.785156 L 488.488281 288.808594 L 488.417969 288.828125 L 488.339844 288.84375 L 488.261719 288.851562 Z M 488.179688 288.851562 "/>
<path fill-rule="nonzero" fill="rgb(10.196078%, 10.196078%, 10.196078%)" fill-opacity="1" d="M 496.226562 304.054688 L 495.964844 304.046875 L 495.703125 304.035156 L 495.449219 304.011719 L 495.195312 303.976562 L 494.945312 303.933594 L 494.699219 303.882812 L 494.457031 303.820312 L 494.21875 303.75 L 493.984375 303.667969 L 493.753906 303.578125 L 493.53125 303.476562 L 493.316406 303.371094 L 493.105469 303.261719 L 492.90625 303.148438 L 492.710938 303.035156 L 492.519531 302.914062 L 492.335938 302.792969 L 492.160156 302.667969 L 491.992188 302.535156 L 491.828125 302.402344 L 492.476562 301.578125 L 492.632812 301.703125 L 492.953125 301.9375 L 493.113281 302.050781 L 493.277344 302.160156 L 493.445312 302.265625 L 493.613281 302.367188 L 493.78125 302.464844 L 493.953125 302.5625 L 494.128906 302.652344 L 494.308594 302.738281 L 494.496094 302.816406 L 494.691406 302.882812 L 494.894531 302.941406 L 495.109375 302.992188 L 495.332031 303.03125 L 495.5625 303.0625 L 495.800781 303.085938 L 496.046875 303.097656 L 496.304688 303.101562 L 496.574219 303.097656 L 496.835938 303.074219 L 497.082031 303.039062 L 497.316406 302.992188 L 497.535156 302.929688 L 497.738281 302.851562 L 497.933594 302.761719 L 498.109375 302.65625 L 498.277344 302.535156 L 498.429688 302.402344 L 498.566406 302.257812 L 498.6875 302.105469 L 498.796875 301.949219 L 498.890625 301.789062 L 498.972656 301.621094 L 499.035156 301.453125 L 499.085938 301.277344 L 499.125 301.097656 L 499.144531 300.914062 L 499.152344 300.726562 L 499.148438 300.582031 L 499.132812 300.4375 L 499.113281 300.300781 L 499.082031 300.167969 L 499.039062 300.039062 L 498.992188 299.917969 L 498.933594 299.800781 L 498.863281 299.6875 L 498.789062 299.582031 L 498.703125 299.476562 L 498.609375 299.378906 L 498.515625 299.285156 L 498.414062 299.195312 L 498.308594 299.105469 L 498.082031 298.941406 L 497.960938 298.863281 L 497.839844 298.789062 L 497.710938 298.71875 L 497.578125 298.652344 L 497.445312 298.589844 L 497.316406 298.527344 L 497.183594 298.464844 L 497.050781 298.40625 L 496.914062 298.347656 L 496.78125 298.289062 L 496.644531 298.234375 L 496.503906 298.179688 L 496.367188 298.128906 L 496.226562 298.078125 L 495.867188 297.945312 L 495.691406 297.875 L 495.511719 297.804688 L 495.335938 297.734375 L 495.15625 297.660156 L 494.804688 297.511719 L 494.628906 297.433594 L 494.453125 297.351562 L 494.285156 297.269531 L 494.125 297.183594 L 493.96875 297.09375 L 493.820312 296.996094 L 493.679688 296.898438 L 493.539062 296.792969 L 493.410156 296.683594 L 493.285156 296.570312 L 493.164062 296.449219 L 493.054688 296.328125 L 492.949219 296.195312 L 492.855469 296.054688 L 492.773438 295.90625 L 492.699219 295.75 L 492.640625 295.585938 L 492.589844 295.414062 L 492.550781 295.234375 L 492.523438 295.046875 L 492.507812 294.855469 L 492.503906 294.652344 L 492.511719 294.390625 L 492.542969 294.140625 L 492.589844 293.894531 L 492.660156 293.65625 L 492.746094 293.429688 L 492.855469 293.207031 L 492.980469 292.996094 L 493.125 292.789062 L 493.292969 292.59375 L 493.476562 292.402344 L 493.6875 292.222656 L 493.914062 292.0625 L 494.15625 291.917969 L 494.417969 291.796875 L 494.695312 291.691406 L 494.992188 291.605469 L 495.304688 291.539062 L 495.636719 291.492188 L 495.988281 291.460938 L 496.351562 291.453125 L 496.546875 291.457031 L 496.738281 291.46875 L 496.929688 291.484375 L 497.121094 291.507812 L 497.308594 291.539062 L 497.496094 291.578125 L 497.679688 291.625 L 497.863281 291.675781 L 498.046875 291.738281 L 498.226562 291.804688 L 498.410156 291.875 L 498.585938 291.953125 L 498.757812 292.03125 L 498.921875 292.113281 L 499.085938 292.203125 L 499.238281 292.296875 L 499.386719 292.390625 L 499.53125 292.492188 L 499.671875 292.59375 L 499.804688 292.703125 L 499.203125 293.476562 L 499.078125 293.390625 L 498.949219 293.304688 L 498.824219 293.222656 L 498.695312 293.140625 L 498.566406 293.066406 L 498.433594 292.992188 L 498.304688 292.921875 L 498.039062 292.789062 L 497.902344 292.726562 L 497.765625 292.667969 L 497.625 292.609375 L 497.476562 292.5625 L 497.328125 292.519531 L 497.171875 292.484375 L 497.011719 292.457031 L 496.847656 292.433594 L 496.679688 292.417969 L 496.503906 292.40625 L 496.328125 292.402344 L 496.054688 292.410156 L 495.796875 292.429688 L 495.554688 292.464844 L 495.324219 292.511719 L 495.109375 292.570312 L 494.910156 292.644531 L 494.722656 292.734375 L 494.550781 292.835938 L 494.394531 292.949219 L 494.253906 293.078125 L 494.128906 293.214844 L 494.019531 293.355469 L 493.921875 293.496094 L 493.835938 293.640625 L 493.765625 293.789062 L 493.707031 293.941406 L 493.660156 294.097656 L 493.628906 294.253906 L 493.609375 294.414062 L 493.601562 294.578125 L 493.605469 294.710938 L 493.617188 294.839844 L 493.636719 294.964844 L 493.664062 295.082031 L 493.695312 295.195312 L 493.738281 295.308594 L 493.785156 295.414062 L 493.84375 295.515625 L 493.90625 295.609375 L 493.976562 295.703125 L 494.058594 295.792969 L 494.148438 295.878906 L 494.238281 295.960938 L 494.332031 296.039062 L 494.433594 296.117188 L 494.539062 296.1875 L 494.648438 296.257812 L 494.761719 296.328125 L 494.878906 296.390625 L 495.003906 296.453125 L 495.132812 296.507812 L 495.664062 296.726562 L 495.800781 296.78125 L 495.9375 296.839844 L 496.074219 296.894531 L 496.214844 296.949219 L 496.351562 297.003906 L 496.542969 297.074219 L 496.730469 297.144531 L 497.105469 297.292969 L 497.289062 297.367188 L 497.476562 297.441406 L 497.660156 297.519531 L 497.839844 297.59375 L 498.023438 297.671875 L 498.203125 297.753906 L 498.378906 297.835938 L 498.550781 297.925781 L 498.714844 298.019531 L 498.871094 298.117188 L 499.023438 298.222656 L 499.164062 298.332031 L 499.304688 298.449219 L 499.433594 298.570312 L 499.558594 298.695312 L 499.679688 298.828125 L 499.792969 298.96875 L 499.894531 299.117188 L 499.984375 299.277344 L 500.0625 299.449219 L 500.128906 299.628906 L 500.183594 299.816406 L 500.222656 300.019531 L 500.253906 300.226562 L 500.273438 300.449219 L 500.277344 300.679688 L 500.273438 300.855469 L 500.257812 301.03125 L 500.234375 301.207031 L 500.203125 301.378906 L 500.160156 301.546875 L 500.105469 301.714844 L 500.046875 301.875 L 499.972656 302.039062 L 499.894531 302.195312 L 499.804688 302.351562 L 499.703125 302.5 L 499.597656 302.640625 L 499.480469 302.777344 L 499.355469 302.910156 L 499.222656 303.035156 L 499.078125 303.152344 L 498.929688 303.269531 L 498.769531 303.378906 L 498.601562 303.480469 L 498.429688 303.578125 L 498.242188 303.667969 L 498.050781 303.75 L 497.851562 303.820312 L 497.644531 303.882812 L 497.429688 303.933594 L 497.203125 303.976562 L 496.972656 304.011719 L 496.730469 304.035156 L 496.484375 304.046875 Z M 496.226562 304.054688 "/>
<path fill-rule="nonzero" fill="rgb(0%, 0%, 0%)" fill-opacity="1" d="M 31.242188 144.945312 L 24.035156 144.945312 L 13.449219 150.265625 L 13.449219 148.941406 L 19.011719 146.242188 L 19.207031 146.148438 L 19.398438 146.058594 L 19.59375 145.964844 L 19.785156 145.875 L 19.976562 145.78125 L 20.167969 145.691406 L 20.359375 145.597656 L 20.550781 145.507812 L 20.738281 145.414062 L 20.929688 145.324219 L 21.117188 145.230469 L 21.691406 144.949219 L 22.277344 144.65625 L 22.476562 144.554688 L 22.671875 144.453125 L 22.871094 144.351562 L 22.871094 144.242188 L 22.671875 144.140625 L 22.476562 144.039062 L 22.277344 143.9375 L 22.082031 143.839844 L 21.691406 143.636719 L 21.117188 143.34375 L 20.929688 143.246094 L 20.738281 143.148438 L 20.550781 143.054688 L 20.359375 142.957031 L 20.167969 142.863281 L 19.976562 142.773438 L 19.785156 142.679688 L 19.59375 142.589844 L 19.398438 142.503906 L 19.207031 142.414062 L 19.011719 142.328125 L 13.449219 139.628906 L 13.449219 138.359375 L 24.035156 143.703125 L 31.242188 143.703125 Z M 31.242188 144.945312 "/>
<path fill-rule="nonzero" fill="rgb(0%, 0%, 0%)" fill-opacity="1" stroke-width="0.708661" stroke-linecap="round" stroke-linejoin="round" stroke="rgb(0%, 0%, 0%)" stroke-opacity="1" stroke-miterlimit="10" d="M 311.324219 359.488281 C 311.324219 362.984375 308.488281 365.816406 304.992188 365.816406 C 301.5 365.816406 298.664062 362.984375 298.664062 359.488281 C 298.664062 355.992188 301.5 353.160156 304.992188 353.160156 C 308.488281 353.160156 311.324219 355.992188 311.324219 359.488281 "/>
<path fill="none" stroke-width="2.560748" stroke-linecap="butt" stroke-linejoin="round" stroke="rgb(0%, 0%, 0%)" stroke-opacity="1" stroke-miterlimit="10" d="M 298.082031 359.488281 L 311.90625 359.488281 "/>
<path fill-rule="nonzero" fill="rgb(56.078431%, 16.470588%, 26.27451%)" fill-opacity="1" stroke-width="0.708661" stroke-linecap="round" stroke-linejoin="round" stroke="rgb(56.078431%, 16.470588%, 26.27451%)" stroke-opacity="1" stroke-miterlimit="10" d="M 365.847656 359.488281 C 365.847656 362.984375 363.015625 365.816406 359.519531 365.816406 C 356.023438 365.816406 353.191406 362.984375 353.191406 359.488281 C 353.191406 355.992188 356.023438 353.160156 359.519531 353.160156 C 363.015625 353.160156 365.847656 355.992188 365.847656 359.488281 "/>
<path fill="none" stroke-width="2.560748" stroke-linecap="butt" stroke-linejoin="round" stroke="rgb(56.078431%, 16.470588%, 26.27451%)" stroke-opacity="1" stroke-miterlimit="10" d="M 352.609375 359.488281 L 366.429688 359.488281 "/>
<path fill-rule="nonzero" fill="rgb(0%, 0%, 0%)" fill-opacity="1" d="M 332.246094 366.867188 L 331.863281 366.847656 L 331.496094 366.789062 L 331.144531 366.695312 L 330.816406 366.566406 L 330.5 366.394531 L 330.207031 366.1875 L 329.929688 365.945312 L 329.667969 365.664062 L 329.425781 365.34375 L 329.199219 364.984375 L 328.996094 364.59375 L 328.8125 364.171875 L 328.648438 363.714844 L 328.507812 363.230469 L 328.390625 362.710938 L 328.292969 362.164062 L 328.21875 361.582031 L 328.164062 360.96875 L 328.132812 360.328125 L 328.121094 359.652344 L 328.132812 358.980469 L 328.164062 358.339844 L 328.21875 357.734375 L 328.292969 357.160156 L 328.390625 356.617188 L 328.507812 356.105469 L 328.648438 355.625 L 328.8125 355.179688 L 328.996094 354.761719 L 329.199219 354.378906 L 329.425781 354.03125 L 329.667969 353.71875 L 329.929688 353.445312 L 330.207031 353.207031 L 330.5 353.003906 L 330.816406 352.839844 L 331.144531 352.710938 L 331.496094 352.617188 L 331.863281 352.5625 L 332.246094 352.542969 L 332.632812 352.5625 L 333.003906 352.617188 L 333.355469 352.710938 L 333.6875 352.839844 L 334 353.003906 L 334.296875 353.207031 L 334.574219 353.445312 L 334.832031 353.71875 L 335.070312 354.03125 L 335.292969 354.378906 L 335.496094 354.761719 L 335.679688 355.179688 L 335.84375 355.625 L 335.984375 356.105469 L 336.101562 356.617188 L 336.199219 357.160156 L 336.273438 357.734375 L 336.328125 358.339844 L 336.359375 358.980469 L 336.371094 359.652344 L 336.359375 360.328125 L 336.328125 360.96875 L 336.273438 361.582031 L 336.199219 362.164062 L 336.101562 362.710938 L 335.984375 363.230469 L 335.84375 363.714844 L 335.679688 364.171875 L 335.496094 364.59375 L 335.292969 364.984375 L 335.070312 365.34375 L 334.832031 365.664062 L 334.574219 365.945312 L 334.296875 366.1875 L 334 366.394531 L 333.6875 366.566406 L 333.355469 366.695312 L 333.003906 366.789062 L 332.632812 366.847656 Z M 332.246094 366.042969 L 332.53125 366.027344 L 332.800781 365.980469 L 333.058594 365.898438 L 333.308594 365.785156 L 333.542969 365.640625 L 333.765625 365.460938 L 333.976562 365.25 L 334.175781 365.007812 L 334.359375 364.730469 L 334.535156 364.425781 L 334.699219 364.085938 L 334.847656 363.714844 L 334.976562 363.3125 L 335.089844 362.882812 L 335.183594 362.421875 L 335.261719 361.929688 L 335.320312 361.40625 L 335.363281 360.851562 L 335.390625 360.265625 L 335.398438 359.652344 L 335.390625 359.035156 L 335.363281 358.453125 L 335.320312 357.902344 L 335.261719 357.382812 L 335.183594 356.898438 L 335.089844 356.441406 L 334.976562 356.019531 L 334.847656 355.628906 L 334.699219 355.269531 L 334.535156 354.941406 L 334.359375 354.640625 L 334.175781 354.375 L 333.976562 354.136719 L 333.765625 353.933594 L 333.542969 353.757812 L 333.308594 353.617188 L 333.058594 353.507812 L 332.800781 353.429688 L 332.53125 353.382812 L 332.246094 353.367188 L 331.964844 353.382812 L 331.699219 353.429688 L 331.441406 353.507812 L 331.195312 353.617188 L 330.960938 353.757812 L 330.738281 353.933594 L 330.523438 354.136719 L 330.324219 354.375 L 330.132812 354.640625 L 329.957031 354.941406 L 329.792969 355.269531 L 329.644531 355.628906 L 329.515625 356.019531 L 329.402344 356.441406 L 329.308594 356.898438 L 329.230469 357.382812 L 329.171875 357.902344 L 329.125 358.453125 L 329.101562 359.035156 L 329.09375 359.652344 L 329.101562 360.265625 L 329.125 360.851562 L 329.171875 361.40625 L 329.230469 361.929688 L 329.308594 362.421875 L 329.402344 362.882812 L 329.515625 363.3125 L 329.644531 363.714844 L 329.792969 364.085938 L 329.957031 364.425781 L 330.132812 364.730469 L 330.324219 365.007812 L 330.523438 365.25 L 330.738281 365.460938 L 330.960938 365.640625 L 331.195312 365.785156 L 331.441406 365.898438 L 331.699219 365.980469 L 331.964844 366.027344 Z M 332.246094 366.042969 "/>
<path fill-rule="nonzero" fill="rgb(0%, 0%, 0%)" fill-opacity="1" d="M 383.421875 366.605469 L 383.421875 365.761719 L 386.664062 365.761719 L 386.664062 354.316406 L 384.199219 354.316406 L 384.199219 353.667969 L 384.367188 353.636719 L 384.53125 353.605469 L 384.691406 353.570312 L 384.847656 353.535156 L 385 353.5 L 385.148438 353.464844 L 385.296875 353.425781 L 385.4375 353.382812 L 385.578125 353.34375 L 385.714844 353.300781 L 385.84375 353.257812 L 385.972656 353.210938 L 386.097656 353.164062 L 386.21875 353.117188 L 386.335938 353.066406 L 386.445312 353.019531 L 386.554688 352.964844 L 386.660156 352.914062 L 386.761719 352.859375 L 386.859375 352.804688 L 387.636719 352.804688 L 387.636719 365.761719 L 390.636719 365.761719 L 390.636719 366.605469 Z M 383.421875 366.605469 "/>
</svg>
