<?xml version="1.0" encoding="UTF-8"?>
<svg xmlns="http://www.w3.org/2000/svg" xmlns:xlink="http://www.w3.org/1999/xlink" width="504" height="396" viewBox="0 0 504 396">
<defs>
<clipPath id="clip-0">
<path clip-rule="nonzero" d="M 22.414062 14.945312 L 489.054688 14.945312 L 489.054688 342.6875 L 22.414062 342.6875 Z M 22.414062 14.945312 "/>
</clipPath>
<clipPath id="clip-1">
<path clip-rule="nonzero" d="M 354 14.945312 L 357 14.945312 L 357 342.6875 L 354 342.6875 Z M 354 14.945312 "/>
</clipPath>
</defs>
<rect x="-50.4" y="-39.6" width="604.8" height="475.2" fill="rgb(100%, 100%, 100%)" fill-opacity="1"/>
<rect x="-50.4" y="-39.6" width="604.8" height="475.2" fill="rgb(95.294118%, 95.294118%, 95.294118%)" fill-opacity="1"/>
<path fill="none" stroke-width="2.909941" stroke-linecap="round" stroke-linejoin="round" stroke="rgb(95.294118%, 95.294118%, 95.294118%)" stroke-opacity="1" stroke-miterlimit="10" d="M 0 396 L 504 396 L 504 0 L 0 0 Z M 0 396 "/>
<g clip-path="url(#clip-0)">
<path fill-rule="nonzero" fill="rgb(95.294118%, 95.294118%, 95.294118%)" fill-opacity="1" stroke-width="2.909941" stroke-linecap="round" stroke-linejoin="round" stroke="rgb(95.294118%, 95.294118%, 95.294118%)" stroke-opacity="1" stroke-miterlimit="10" d="M 22.414062 342.6875 L 489.054688 342.6875 L 489.054688 14.945312 L 22.414062 14.945312 Z M 22.414062 342.6875 "/>
</g>
<path fill="none" stroke-width="2.560748" stroke-linecap="butt" stroke-linejoin="round" stroke="rgb(56.078431%, 16.470588%, 26.27451%)" stroke-opacity="1" stroke-miterlimit="10" d="M 43.625 327.136719 L 44.234375 327.113281 L 45.445312 327.066406 L 46.65625 327.011719 L 47.261719 326.988281 L 47.867188 326.957031 L 48.476562 326.929688 L 50.898438 326.804688 L 52.109375 326.734375 L 52.71875 326.699219 L 53.324219 326.664062 L 54.535156 326.585938 L 55.140625 326.542969 L 55.746094 326.503906 L 56.351562 326.460938 L 56.960938 326.414062 L 57.566406 326.371094 L 58.171875 326.320312 L 58.777344 326.273438 L 60.59375 326.121094 L 61.203125 326.066406 L 63.019531 325.890625 L 64.835938 325.703125 L 65.445312 325.636719 L 67.261719 325.425781 L 67.867188 325.347656 L 68.472656 325.273438 L 69.078125 325.195312 L 69.6875 325.113281 L 70.292969 325.03125 L 70.898438 324.945312 L 72.109375 324.765625 L 73.320312 324.578125 L 73.929688 324.480469 L 74.535156 324.378906 L 75.746094 324.167969 L 76.957031 323.949219 L 77.5625 323.832031 L 78.171875 323.714844 L 79.382812 323.472656 L 80.59375 323.214844 L 81.804688 322.941406 L 82.414062 322.800781 L 83.019531 322.65625 L 83.625 322.507812 L 84.230469 322.355469 L 84.835938 322.199219 L 86.046875 321.878906 L 86.65625 321.710938 L 87.261719 321.539062 L 87.867188 321.363281 L 88.472656 321.183594 L 89.683594 320.808594 L 90.289062 320.613281 L 90.898438 320.417969 L 91.503906 320.214844 L 92.109375 320.007812 L 92.714844 319.792969 L 93.320312 319.574219 L 93.925781 319.351562 L 94.53125 319.125 L 95.140625 318.890625 L 95.746094 318.652344 L 96.351562 318.410156 L 96.957031 318.160156 L 97.5625 317.90625 L 98.167969 317.644531 L 98.773438 317.378906 L 99.382812 317.105469 L 99.988281 316.828125 L 100.59375 316.542969 L 101.199219 316.25 L 101.804688 315.953125 L 102.410156 315.648438 L 103.015625 315.339844 L 103.625 315.023438 L 104.230469 314.699219 L 104.835938 314.367188 L 105.441406 314.03125 L 106.046875 313.683594 L 106.652344 313.332031 L 107.257812 312.972656 L 107.867188 312.605469 L 108.472656 312.234375 L 109.078125 311.851562 L 109.683594 311.460938 L 110.289062 311.0625 L 110.894531 310.660156 L 111.5 310.246094 L 112.109375 309.824219 L 112.714844 309.394531 L 113.320312 308.953125 L 113.925781 308.507812 L 114.53125 308.050781 L 115.136719 307.589844 L 115.742188 307.117188 L 116.351562 306.632812 L 116.957031 306.140625 L 117.5625 305.640625 L 118.167969 305.132812 L 118.773438 304.613281 L 119.378906 304.085938 L 119.984375 303.546875 L 120.59375 303 L 121.199219 302.441406 L 121.804688 301.871094 L 122.410156 301.296875 L 123.015625 300.707031 L 123.621094 300.109375 L 124.226562 299.5 L 124.835938 298.882812 L 125.441406 298.25 L 126.046875 297.609375 L 126.652344 296.960938 L 127.257812 296.296875 L 127.863281 295.625 L 128.46875 294.941406 L 129.078125 294.246094 L 129.683594 293.539062 L 130.289062 292.820312 L 130.894531 292.089844 L 131.5 291.347656 L 132.105469 290.597656 L 132.710938 289.832031 L 133.320312 289.054688 L 133.925781 288.265625 L 134.53125 287.464844 L 135.136719 286.652344 L 135.742188 285.828125 L 136.347656 284.992188 L 136.953125 284.144531 L 137.5625 283.28125 L 138.167969 282.40625 L 138.773438 281.519531 L 139.378906 280.621094 L 139.984375 279.710938 L 140.589844 278.785156 L 141.195312 277.847656 L 141.804688 276.894531 L 142.410156 275.933594 L 143.015625 274.957031 L 143.621094 273.96875 L 144.226562 272.964844 L 144.832031 271.949219 L 145.4375 270.921875 L 146.046875 269.878906 L 146.652344 268.824219 L 147.257812 267.757812 L 147.863281 266.675781 L 148.46875 265.582031 L 149.074219 264.472656 L 149.679688 263.351562 L 150.289062 262.21875 L 150.894531 261.070312 L 151.5 259.910156 L 152.105469 258.738281 L 152.710938 257.550781 L 153.316406 256.347656 L 153.921875 255.132812 L 154.53125 253.90625 L 155.136719 252.667969 L 155.742188 251.414062 L 156.347656 250.144531 L 156.953125 248.867188 L 157.558594 247.574219 L 158.164062 246.265625 L 158.773438 244.949219 L 159.378906 243.617188 L 159.984375 242.273438 L 160.589844 240.914062 L 161.195312 239.542969 L 161.800781 238.160156 L 162.40625 236.765625 L 163.015625 235.359375 L 163.621094 233.9375 L 164.226562 232.503906 L 164.832031 231.058594 L 165.4375 229.601562 L 166.042969 228.132812 L 166.648438 226.652344 L 167.257812 225.160156 L 167.863281 223.65625 L 168.46875 222.140625 L 169.074219 220.613281 L 169.679688 219.074219 L 170.285156 217.527344 L 170.890625 215.964844 L 171.5 214.394531 L 172.105469 212.8125 L 172.710938 211.222656 L 173.316406 209.621094 L 173.921875 208.007812 L 174.527344 206.386719 L 175.132812 204.753906 L 175.742188 203.113281 L 176.347656 201.460938 L 176.953125 199.804688 L 177.558594 198.136719 L 178.164062 196.457031 L 178.769531 194.773438 L 179.375 193.078125 L 179.984375 191.378906 L 180.589844 189.667969 L 181.195312 187.953125 L 181.800781 186.230469 L 182.40625 184.5 L 183.011719 182.761719 L 183.617188 181.019531 L 184.226562 179.269531 L 184.832031 177.515625 L 185.4375 175.753906 L 186.042969 173.988281 L 187.253906 170.441406 L 187.859375 168.660156 L 188.46875 166.875 L 189.679688 163.296875 L 191.496094 157.90625 L 192.101562 156.101562 L 192.710938 154.300781 L 193.316406 152.496094 L 193.921875 150.6875 L 194.527344 148.882812 L 195.738281 145.265625 L 196.34375 143.460938 L 196.953125 141.65625 L 198.164062 138.046875 L 199.375 134.445312 L 199.980469 132.648438 L 200.585938 130.855469 L 201.195312 129.066406 L 201.800781 127.277344 L 202.40625 125.496094 L 203.011719 123.71875 L 203.617188 121.945312 L 204.222656 120.175781 L 204.828125 118.414062 L 205.4375 116.660156 L 206.042969 114.910156 L 206.648438 113.167969 L 207.253906 111.433594 L 207.859375 109.707031 L 208.464844 107.988281 L 209.070312 106.277344 L 209.679688 104.578125 L 210.285156 102.886719 L 210.890625 101.203125 L 211.496094 99.53125 L 212.101562 97.871094 L 212.707031 96.222656 L 213.3125 94.585938 L 213.921875 92.957031 L 214.527344 91.34375 L 215.132812 89.742188 L 215.738281 88.152344 L 216.34375 86.578125 L 216.949219 85.019531 L 217.554688 83.472656 L 218.164062 81.941406 L 218.769531 80.421875 L 219.375 78.921875 L 219.980469 77.4375 L 220.585938 75.96875 L 221.191406 74.515625 L 221.796875 73.082031 L 222.40625 71.664062 L 223.011719 70.265625 L 223.617188 68.882812 L 224.222656 67.519531 L 224.828125 66.175781 L 225.433594 64.851562 L 226.039062 63.546875 L 226.648438 62.261719 L 227.253906 60.996094 L 227.859375 59.753906 L 228.464844 58.53125 L 229.070312 57.332031 L 229.675781 56.152344 L 230.28125 54.996094 L 230.890625 53.859375 L 231.496094 52.75 L 232.101562 51.660156 L 232.707031 50.59375 L 233.3125 49.554688 L 233.917969 48.535156 L 234.523438 47.542969 L 235.132812 46.574219 L 235.738281 45.628906 L 236.34375 44.710938 L 236.949219 43.820312 L 237.554688 42.953125 L 238.160156 42.109375 L 238.765625 41.296875 L 239.375 40.507812 L 239.980469 39.742188 L 240.585938 39.007812 L 241.191406 38.300781 L 241.796875 37.617188 L 242.402344 36.964844 L 243.007812 36.339844 L 243.617188 35.742188 L 244.222656 35.171875 L 244.828125 34.628906 L 245.433594 34.117188 L 246.039062 33.628906 L 246.644531 33.175781 L 247.25 32.746094 L 247.859375 32.347656 L 248.464844 31.980469 L 249.070312 31.636719 L 249.675781 31.328125 L 250.28125 31.046875 L 250.886719 30.792969 L 251.492188 30.570312 L 252.101562 30.378906 L 252.707031 30.214844 L 253.3125 30.078125 L 253.917969 29.976562 L 254.523438 29.902344 L 255.128906 29.855469 L 255.734375 29.839844 L 256.34375 29.855469 L 256.949219 29.902344 L 257.554688 29.976562 L 258.160156 30.078125 L 258.765625 30.214844 L 259.371094 30.378906 L 259.976562 30.570312 L 260.585938 30.792969 L 261.191406 31.046875 L 261.796875 31.328125 L 262.402344 31.636719 L 263.007812 31.980469 L 263.613281 32.347656 L 264.21875 32.746094 L 264.828125 33.175781 L 265.433594 33.628906 L 266.039062 34.117188 L 266.644531 34.628906 L 267.25 35.171875 L 267.855469 35.742188 L 268.460938 36.339844 L 269.070312 36.964844 L 269.675781 37.617188 L 270.28125 38.300781 L 270.886719 39.007812 L 271.492188 39.742188 L 272.097656 40.507812 L 272.703125 41.296875 L 273.3125 42.109375 L 273.917969 42.953125 L 274.523438 43.820312 L 275.128906 44.710938 L 275.734375 45.628906 L 276.339844 46.574219 L 276.945312 47.542969 L 277.554688 48.535156 L 278.160156 49.554688 L 278.765625 50.59375 L 279.371094 51.660156 L 279.976562 52.75 L 280.582031 53.859375 L 281.1875 54.996094 L 281.796875 56.152344 L 282.402344 57.332031 L 283.007812 58.53125 L 283.613281 59.753906 L 284.21875 60.996094 L 284.824219 62.261719 L 285.429688 63.546875 L 286.039062 64.851562 L 286.644531 66.175781 L 287.25 67.519531 L 287.855469 68.882812 L 288.460938 70.265625 L 289.066406 71.664062 L 289.671875 73.082031 L 290.28125 74.515625 L 290.886719 75.96875 L 291.492188 77.4375 L 292.097656 78.921875 L 292.703125 80.421875 L 293.308594 81.941406 L 293.914062 83.472656 L 294.523438 85.019531 L 295.128906 86.578125 L 295.734375 88.152344 L 296.339844 89.742188 L 296.945312 91.34375 L 297.550781 92.957031 L 298.15625 94.585938 L 298.765625 96.222656 L 299.371094 97.871094 L 299.976562 99.53125 L 300.582031 101.203125 L 301.1875 102.886719 L 301.792969 104.578125 L 302.398438 106.277344 L 303.007812 107.988281 L 303.613281 109.707031 L 304.21875 111.433594 L 304.824219 113.167969 L 305.429688 114.910156 L 306.035156 116.660156 L 306.640625 118.414062 L 307.25 120.175781 L 307.855469 121.945312 L 308.460938 123.71875 L 309.066406 125.496094 L 309.671875 127.277344 L 310.882812 130.855469 L 311.492188 132.648438 L 312.097656 134.445312 L 313.308594 138.046875 L 315.125 143.460938 L 315.734375 145.265625 L 316.945312 148.882812 L 317.550781 150.6875 L 318.15625 152.496094 L 318.761719 154.300781 L 319.367188 156.101562 L 319.976562 157.90625 L 321.792969 163.296875 L 323.003906 166.875 L 323.609375 168.660156 L 324.21875 170.441406 L 325.429688 173.988281 L 326.035156 175.753906 L 326.640625 177.515625 L 327.246094 179.269531 L 327.851562 181.019531 L 328.460938 182.761719 L 329.066406 184.5 L 329.671875 186.230469 L 330.277344 187.953125 L 330.882812 189.667969 L 331.488281 191.378906 L 332.09375 193.078125 L 332.703125 194.773438 L 333.308594 196.457031 L 333.914062 198.136719 L 334.519531 199.804688 L 335.125 201.460938 L 335.730469 203.113281 L 336.335938 204.753906 L 336.945312 206.386719 L 337.550781 208.007812 L 338.15625 209.621094 L 338.761719 211.222656 L 339.367188 212.8125 L 339.972656 214.394531 L 340.578125 215.964844 L 341.1875 217.527344 L 341.792969 219.074219 L 342.398438 220.613281 L 343.003906 222.140625 L 343.609375 223.65625 L 344.214844 225.160156 L 344.820312 226.652344 L 345.429688 228.132812 L 346.035156 229.601562 L 346.640625 231.058594 L 347.246094 232.503906 L 347.851562 233.9375 L 348.457031 235.359375 L 349.0625 236.765625 L 349.671875 238.160156 L 350.277344 239.542969 L 350.882812 240.914062 L 351.488281 242.273438 L 352.09375 243.617188 L 352.699219 244.949219 L 353.304688 246.265625 L 353.914062 247.574219 L 354.519531 248.867188 L 355.125 250.144531 L 355.730469 251.414062 L 356.335938 252.667969 L 356.941406 253.90625 L 357.546875 255.132812 L 358.15625 256.347656 L 358.761719 257.550781 L 359.367188 258.738281 L 359.972656 259.910156 L 360.578125 261.070312 L 361.183594 262.21875 L 361.789062 263.351562 L 362.398438 264.472656 L 363.003906 265.582031 L 363.609375 266.675781 L 364.214844 267.757812 L 364.820312 268.824219 L 365.425781 269.878906 L 366.03125 270.921875 L 366.640625 271.949219 L 367.246094 272.964844 L 367.851562 273.96875 L 368.457031 274.957031 L 369.0625 275.933594 L 369.667969 276.894531 L 370.273438 277.847656 L 370.882812 278.785156 L 371.488281 279.710938 L 372.09375 280.621094 L 372.699219 281.519531 L 373.304688 282.40625 L 373.910156 283.28125 L 374.515625 284.144531 L 375.125 284.992188 L 375.730469 285.828125 L 376.335938 286.652344 L 376.941406 287.464844 L 377.546875 288.265625 L 378.152344 289.054688 L 378.757812 289.832031 L 379.367188 290.597656 L 379.972656 291.347656 L 380.578125 292.089844 L 381.183594 292.820312 L 381.789062 293.539062 L 382.394531 294.246094 L 383 294.941406 L 383.609375 295.625 L 384.214844 296.296875 L 384.820312 296.960938 L 385.425781 297.609375 L 386.03125 298.25 L 386.636719 298.882812 L 387.242188 299.5 L 387.851562 300.109375 L 388.457031 300.707031 L 389.0625 301.296875 L 389.667969 301.871094 L 390.273438 302.441406 L 390.878906 303 L 391.484375 303.546875 L 392.09375 304.085938 L 392.699219 304.613281 L 393.304688 305.132812 L 393.910156 305.640625 L 394.515625 306.140625 L 395.121094 306.632812 L 395.726562 307.117188 L 396.335938 307.589844 L 396.941406 308.050781 L 397.546875 308.507812 L 398.152344 308.953125 L 398.757812 309.394531 L 399.363281 309.824219 L 399.96875 310.246094 L 400.578125 310.660156 L 401.183594 311.0625 L 401.789062 311.460938 L 402.394531 311.851562 L 403 312.234375 L 403.605469 312.605469 L 404.210938 312.972656 L 404.820312 313.332031 L 405.425781 313.683594 L 406.03125 314.03125 L 406.636719 314.367188 L 407.242188 314.699219 L 407.847656 315.023438 L 408.453125 315.339844 L 409.0625 315.648438 L 409.667969 315.953125 L 410.273438 316.25 L 410.878906 316.542969 L 411.484375 316.828125 L 412.089844 317.105469 L 412.695312 317.378906 L 413.304688 317.644531 L 413.910156 317.90625 L 414.515625 318.160156 L 415.121094 318.410156 L 415.726562 318.652344 L 416.332031 318.890625 L 416.9375 319.125 L 417.546875 319.351562 L 418.152344 319.574219 L 418.757812 319.792969 L 419.363281 320.007812 L 419.96875 320.214844 L 420.574219 320.417969 L 421.179688 320.613281 L 421.789062 320.808594 L 423 321.183594 L 423.605469 321.363281 L 424.210938 321.539062 L 424.816406 321.710938 L 425.421875 321.878906 L 426.03125 322.039062 L 426.636719 322.199219 L 427.242188 322.355469 L 427.847656 322.507812 L 428.453125 322.65625 L 429.058594 322.800781 L 429.664062 322.941406 L 430.273438 323.078125 L 430.878906 323.214844 L 432.089844 323.472656 L 433.300781 323.714844 L 433.90625 323.832031 L 434.515625 323.949219 L 435.726562 324.167969 L 436.9375 324.378906 L 437.542969 324.480469 L 438.148438 324.578125 L 438.757812 324.671875 L 439.363281 324.765625 L 440.574219 324.945312 L 441.179688 325.03125 L 442.390625 325.195312 L 443 325.273438 L 443.605469 325.347656 L 444.210938 325.425781 L 446.027344 325.636719 L 446.632812 325.703125 L 447.242188 325.765625 L 448.453125 325.890625 L 450.269531 326.066406 L 450.875 326.121094 L 451.480469 326.171875 L 452.089844 326.222656 L 452.695312 326.273438 L 453.300781 326.320312 L 453.90625 326.371094 L 454.511719 326.414062 L 455.117188 326.460938 L 455.722656 326.503906 L 456.332031 326.542969 L 456.9375 326.585938 L 458.148438 326.664062 L 459.964844 326.769531 L 460.574219 326.804688 L 462.996094 326.929688 L 463.601562 326.957031 L 464.207031 326.988281 L 464.816406 327.011719 L 466.027344 327.066406 L 467.84375 327.136719 "/>
<path fill-rule="nonzero" fill="rgb(56.078431%, 16.470588%, 26.27451%)" fill-opacity="0.501961" d="M 355.417969 250.761719 L 355.53125 250.996094 L 355.914062 251.789062 L 356.023438 252.023438 L 356.136719 252.253906 L 356.519531 253.039062 L 356.628906 253.269531 L 356.742188 253.5 L 357.125 254.277344 L 357.238281 254.503906 L 357.347656 254.730469 L 357.730469 255.5 L 357.84375 255.726562 L 357.953125 255.949219 L 358.335938 256.710938 L 358.449219 256.933594 L 358.5625 257.152344 L 358.941406 257.90625 L 359.054688 258.128906 L 359.167969 258.34375 L 359.546875 259.089844 L 359.660156 259.308594 L 359.773438 259.523438 L 360.15625 260.257812 L 360.265625 260.476562 L 360.378906 260.6875 L 360.761719 261.417969 L 360.871094 261.628906 L 360.984375 261.839844 L 361.367188 262.558594 L 361.480469 262.769531 L 361.589844 262.980469 L 361.972656 263.691406 L 362.085938 263.898438 L 362.195312 264.105469 L 362.578125 264.808594 L 362.691406 265.011719 L 362.804688 265.21875 L 363.183594 265.910156 L 363.410156 266.316406 L 363.789062 267 L 363.902344 267.203125 L 364.015625 267.402344 L 364.398438 268.078125 L 364.507812 268.277344 L 364.621094 268.472656 L 365.003906 269.144531 L 365.113281 269.339844 L 365.226562 269.53125 L 365.609375 270.195312 L 365.722656 270.386719 L 365.832031 270.578125 L 366.214844 271.230469 L 366.328125 271.421875 L 366.4375 271.613281 L 366.820312 272.253906 L 366.933594 272.445312 L 367.046875 272.632812 L 367.425781 273.265625 L 367.539062 273.453125 L 367.652344 273.636719 L 368.03125 274.265625 L 368.257812 274.632812 L 368.640625 275.25 L 368.75 275.433594 L 368.863281 275.613281 L 369.246094 276.222656 L 369.355469 276.402344 L 369.46875 276.578125 L 369.851562 277.183594 L 369.964844 277.359375 L 370.074219 277.535156 L 370.457031 278.128906 L 370.570312 278.304688 L 370.679688 278.476562 L 371.0625 279.0625 L 371.289062 279.40625 L 371.667969 279.984375 L 371.894531 280.320312 L 372.273438 280.890625 L 372.386719 281.058594 L 372.5 281.222656 L 372.882812 281.785156 L 372.992188 281.953125 L 373.105469 282.113281 L 373.488281 282.667969 L 373.597656 282.832031 L 373.710938 282.992188 L 374.09375 283.539062 L 374.207031 283.699219 L 374.316406 283.859375 L 374.699219 284.398438 L 374.8125 284.554688 L 374.921875 284.710938 L 375.304688 285.242188 L 375.53125 285.554688 L 375.910156 286.078125 L 376.136719 286.382812 L 376.515625 286.898438 L 376.628906 287.050781 L 376.742188 287.199219 L 377.125 287.707031 L 377.234375 287.855469 L 377.347656 288.003906 L 377.730469 288.503906 L 377.839844 288.652344 L 377.953125 288.796875 L 378.335938 289.289062 L 378.449219 289.433594 L 378.558594 289.574219 L 378.941406 290.0625 L 379.054688 290.203125 L 379.164062 290.34375 L 379.546875 290.824219 L 379.660156 290.964844 L 379.773438 291.101562 L 380.152344 291.570312 L 380.265625 291.710938 L 380.378906 291.847656 L 380.757812 292.308594 L 380.871094 292.445312 L 380.984375 292.578125 L 381.367188 293.035156 L 381.476562 293.167969 L 381.589844 293.300781 L 381.972656 293.75 L 382.082031 293.882812 L 382.195312 294.011719 L 382.578125 294.453125 L 382.691406 294.582031 L 382.800781 294.710938 L 383.183594 295.144531 L 383.296875 295.273438 L 383.40625 295.398438 L 383.789062 295.828125 L 383.902344 295.953125 L 384.015625 296.074219 L 384.394531 296.496094 L 384.507812 296.621094 L 384.621094 296.742188 L 385 297.15625 L 385.226562 297.398438 L 385.609375 297.804688 L 385.71875 297.921875 L 385.832031 298.039062 L 386.214844 298.441406 L 386.324219 298.558594 L 386.4375 298.675781 L 386.820312 299.066406 L 386.933594 299.183594 L 387.042969 299.296875 L 387.425781 299.683594 L 387.539062 299.796875 L 387.648438 299.910156 L 388.03125 300.289062 L 388.144531 300.402344 L 388.257812 300.511719 L 388.636719 300.882812 L 388.863281 301.101562 L 389.242188 301.46875 L 389.355469 301.578125 L 389.46875 301.683594 L 389.851562 302.042969 L 389.960938 302.148438 L 390.074219 302.253906 L 390.566406 302.710938 L 390.679688 302.816406 L 391.0625 303.164062 L 391.175781 303.265625 L 391.285156 303.367188 L 391.667969 303.707031 L 391.78125 303.808594 L 391.890625 303.90625 L 392.273438 304.242188 L 392.386719 304.34375 L 392.5 304.4375 L 392.878906 304.769531 L 392.992188 304.867188 L 393.105469 304.960938 L 393.484375 305.285156 L 393.710938 305.472656 L 394.09375 305.792969 L 394.203125 305.886719 L 394.316406 305.976562 L 394.699219 306.289062 L 394.808594 306.382812 L 394.921875 306.472656 L 395.304688 306.777344 L 395.417969 306.867188 L 395.527344 306.957031 L 395.910156 307.257812 L 396.023438 307.347656 L 396.132812 307.433594 L 396.515625 307.726562 L 396.628906 307.816406 L 396.742188 307.898438 L 397.121094 308.191406 L 397.234375 308.273438 L 397.347656 308.359375 L 397.726562 308.644531 L 397.953125 308.808594 L 398.335938 309.085938 L 398.445312 309.167969 L 398.558594 309.25 L 399.050781 309.601562 L 399.164062 309.683594 L 399.546875 309.949219 L 399.660156 310.027344 L 399.769531 310.105469 L 400.152344 310.371094 L 400.265625 310.445312 L 400.375 310.523438 L 400.757812 310.78125 L 400.984375 310.929688 L 401.363281 311.183594 L 401.589844 311.332031 L 401.96875 311.578125 L 402.082031 311.652344 L 402.195312 311.722656 L 402.578125 311.964844 L 402.6875 312.039062 L 402.800781 312.105469 L 403.183594 312.34375 L 403.292969 312.414062 L 403.40625 312.484375 L 403.789062 312.71875 L 403.902344 312.785156 L 404.011719 312.851562 L 404.394531 313.082031 L 404.507812 313.148438 L 404.617188 313.214844 L 405 313.4375 L 405.226562 313.570312 L 405.605469 313.789062 L 405.71875 313.851562 L 405.832031 313.917969 L 406.210938 314.132812 L 406.4375 314.257812 L 406.820312 314.46875 L 406.929688 314.527344 L 407.042969 314.589844 L 407.425781 314.796875 L 407.535156 314.855469 L 407.648438 314.914062 L 408.03125 315.117188 L 408.144531 315.175781 L 408.253906 315.234375 L 408.636719 315.433594 L 408.75 315.492188 L 408.859375 315.546875 L 409.242188 315.742188 L 409.46875 315.851562 L 409.847656 316.042969 L 410.074219 316.152344 L 410.453125 316.339844 L 410.566406 316.394531 L 410.679688 316.445312 L 411.0625 316.628906 L 411.171875 316.679688 L 411.285156 316.734375 L 411.667969 316.910156 L 411.777344 316.960938 L 411.890625 317.015625 L 412.273438 317.1875 L 412.386719 317.238281 L 412.496094 317.289062 L 412.878906 317.457031 L 412.992188 317.507812 L 413.101562 317.558594 L 413.484375 317.722656 L 413.597656 317.773438 L 413.710938 317.820312 L 414.089844 317.980469 L 414.203125 318.03125 L 414.316406 318.078125 L 414.695312 318.234375 L 414.921875 318.328125 L 415.304688 318.484375 L 415.414062 318.527344 L 415.527344 318.574219 L 415.910156 318.726562 L 416.019531 318.769531 L 416.132812 318.8125 L 416.515625 318.960938 L 416.628906 319.007812 L 416.738281 319.050781 L 417.121094 319.195312 L 417.234375 319.238281 L 417.34375 319.277344 L 417.726562 319.421875 L 417.839844 319.460938 L 417.953125 319.503906 L 418.332031 319.640625 L 418.445312 319.683594 L 418.558594 319.722656 L 418.9375 319.859375 L 419.164062 319.9375 L 419.546875 320.070312 L 419.65625 320.109375 L 419.769531 320.144531 L 420.152344 320.273438 L 420.261719 320.3125 L 420.375 320.351562 L 420.757812 320.476562 L 420.871094 320.511719 L 420.980469 320.550781 L 421.363281 320.671875 L 421.476562 320.710938 L 421.585938 320.746094 L 421.96875 320.867188 L 422.082031 320.902344 L 422.195312 320.933594 L 422.574219 321.054688 L 422.6875 321.085938 L 422.800781 321.121094 L 423.179688 321.238281 L 423.292969 321.269531 L 423.40625 321.304688 L 423.789062 321.414062 L 423.898438 321.449219 L 424.011719 321.480469 L 424.503906 321.621094 L 424.617188 321.652344 L 425 321.761719 L 425.113281 321.792969 L 425.222656 321.824219 L 425.605469 321.925781 L 425.71875 321.957031 L 425.828125 321.988281 L 426.210938 322.089844 L 426.324219 322.117188 L 426.4375 322.148438 L 426.816406 322.246094 L 426.929688 322.277344 L 427.042969 322.304688 L 427.421875 322.402344 L 427.648438 322.457031 L 428.03125 322.550781 L 428.140625 322.582031 L 428.253906 322.609375 L 428.636719 322.699219 L 428.746094 322.726562 L 428.859375 322.753906 L 429.242188 322.84375 L 429.355469 322.871094 L 429.464844 322.894531 L 429.847656 322.984375 L 429.960938 323.007812 L 430.070312 323.035156 L 430.453125 323.121094 L 430.679688 323.167969 L 431.058594 323.253906 L 431.285156 323.300781 L 431.664062 323.382812 L 431.890625 323.429688 L 432.273438 323.507812 L 432.382812 323.53125 L 432.496094 323.554688 L 432.878906 323.632812 L 432.988281 323.652344 L 433.101562 323.675781 L 433.484375 323.75 L 433.597656 323.773438 L 433.707031 323.792969 L 434.089844 323.867188 L 434.203125 323.890625 L 434.3125 323.910156 L 434.695312 323.980469 L 434.808594 324.003906 L 434.921875 324.023438 L 435.300781 324.09375 L 435.527344 324.132812 L 435.90625 324.199219 L 436.019531 324.222656 L 436.132812 324.242188 L 436.515625 324.304688 L 436.625 324.324219 L 436.738281 324.34375 L 437.121094 324.410156 L 437.230469 324.425781 L 437.34375 324.445312 L 437.726562 324.507812 L 437.839844 324.527344 L 437.949219 324.546875 L 438.332031 324.605469 L 438.445312 324.625 L 438.554688 324.640625 L 438.9375 324.699219 L 439.050781 324.71875 L 439.164062 324.734375 L 439.542969 324.792969 L 439.769531 324.824219 L 440.148438 324.882812 L 440.375 324.914062 L 440.867188 324.984375 L 440.980469 325 L 441.472656 325.070312 L 441.585938 325.085938 L 441.96875 325.136719 L 442.082031 325.152344 L 442.191406 325.167969 L 442.574219 325.21875 L 442.6875 325.230469 L 442.796875 325.246094 L 443.179688 325.296875 L 443.292969 325.308594 L 443.40625 325.324219 L 443.785156 325.371094 L 443.898438 325.386719 L 444.011719 325.398438 L 444.390625 325.445312 L 444.503906 325.460938 L 444.617188 325.472656 L 445 325.519531 L 445.109375 325.53125 L 445.222656 325.542969 L 445.605469 325.585938 L 445.714844 325.601562 L 445.828125 325.613281 L 446.210938 325.65625 L 446.324219 325.667969 L 446.433594 325.679688 L 446.816406 325.722656 L 446.929688 325.734375 L 447.039062 325.746094 L 447.421875 325.785156 L 447.648438 325.808594 L 448.027344 325.847656 L 448.253906 325.871094 L 448.632812 325.910156 L 448.746094 325.921875 L 448.859375 325.929688 L 449.242188 325.96875 L 449.351562 325.980469 L 449.464844 325.988281 L 449.847656 326.027344 L 449.957031 326.035156 L 450.070312 326.046875 L 450.453125 326.082031 L 450.566406 326.089844 L 450.675781 326.101562 L 451.058594 326.136719 L 451.171875 326.144531 L 451.28125 326.15625 L 451.664062 326.1875 L 451.777344 326.199219 L 451.890625 326.207031 L 452.269531 326.238281 L 452.382812 326.25 L 452.496094 326.257812 L 452.875 326.289062 L 453.101562 326.304688 L 453.484375 326.335938 L 453.59375 326.34375 L 453.707031 326.355469 L 454.199219 326.390625 L 454.3125 326.398438 L 454.695312 326.429688 L 454.808594 326.4375 L 455.300781 326.472656 L 455.414062 326.480469 L 455.90625 326.515625 L 456.132812 326.53125 L 456.511719 326.558594 L 456.625 326.5625 L 456.738281 326.570312 L 457.117188 326.597656 L 457.34375 326.613281 L 457.726562 326.636719 L 457.835938 326.644531 L 457.949219 326.648438 L 458.332031 326.671875 L 458.441406 326.679688 L 458.554688 326.6875 L 458.9375 326.710938 L 459.050781 326.71875 L 459.160156 326.722656 L 459.542969 326.746094 L 459.65625 326.753906 L 459.765625 326.757812 L 460.148438 326.78125 L 460.261719 326.785156 L 460.371094 326.792969 L 460.753906 326.8125 L 460.980469 326.828125 L 461.359375 326.847656 L 461.472656 326.851562 L 461.585938 326.859375 L 461.96875 326.878906 L 462.078125 326.882812 L 462.191406 326.890625 L 462.574219 326.910156 L 462.683594 326.914062 L 462.796875 326.917969 L 463.179688 326.9375 L 463.292969 326.945312 L 463.402344 326.949219 L 463.785156 326.96875 L 463.898438 326.972656 L 464.007812 326.976562 L 464.390625 326.996094 L 464.503906 327 L 464.613281 327.003906 L 464.996094 327.023438 L 465.222656 327.03125 L 465.601562 327.046875 L 465.714844 327.050781 L 465.828125 327.058594 L 466.210938 327.074219 L 466.320312 327.078125 L 466.433594 327.082031 L 466.816406 327.097656 L 466.925781 327.101562 L 467.039062 327.105469 L 467.421875 327.121094 L 467.535156 327.125 L 467.644531 327.789062 L 355.304688 327.789062 Z M 355.417969 250.761719 "/>
<g clip-path="url(#clip-1)">
<path fill="none" stroke-width="1.920561" stroke-linecap="butt" stroke-linejoin="round" stroke="rgb(0%, 0%, 0%)" stroke-opacity="1" stroke-dasharray="7.682244 7.682244" stroke-miterlimit="10" d="M 355.417969 342.6875 L 355.417969 14.945312 "/>
</g>
<path fill-rule="nonzero" fill="rgb(10.196078%, 10.196078%, 10.196078%)" fill-opacity="1" d="M 124.757812 368.148438 L 124.757812 367.054688 L 130.917969 367.054688 L 130.917969 368.148438 Z M 124.757812 368.148438 "/>
<path fill-rule="nonzero" fill="rgb(10.196078%, 10.196078%, 10.196078%)" fill-opacity="1" d="M 133.160156 374.589844 L 133.160156 373.804688 L 133.738281 373.214844 L 134.296875 372.636719 L 134.835938 372.078125 L 135.355469 371.539062 L 135.855469 371.011719 L 136.332031 370.5 L 136.792969 370.007812 L 137.234375 369.53125 L 137.65625 369.070312 L 138.058594 368.625 L 138.441406 368.1875 L 138.804688 367.757812 L 139.148438 367.339844 L 139.46875 366.929688 L 139.773438 366.53125 L 140.058594 366.140625 L 140.324219 365.761719 L 140.566406 365.390625 L 140.792969 365.027344 L 141 364.675781 L 141.183594 364.332031 L 141.351562 363.988281 L 141.5 363.652344 L 141.625 363.320312 L 141.734375 362.988281 L 141.820312 362.664062 L 141.890625 362.339844 L 141.941406 362.023438 L 141.96875 361.710938 L 141.980469 361.398438 L 141.96875 361.070312 L 141.941406 360.75 L 141.894531 360.441406 L 141.828125 360.140625 L 141.742188 359.851562 L 141.636719 359.574219 L 141.511719 359.308594 L 141.371094 359.050781 L 141.207031 358.808594 L 141.027344 358.570312 L 140.832031 358.355469 L 140.613281 358.160156 L 140.375 357.988281 L 140.113281 357.835938 L 139.828125 357.710938 L 139.523438 357.609375 L 139.199219 357.527344 L 138.847656 357.46875 L 138.480469 357.433594 L 138.085938 357.425781 L 137.847656 357.429688 L 137.609375 357.449219 L 137.375 357.484375 L 137.140625 357.53125 L 136.910156 357.59375 L 136.683594 357.664062 L 136.457031 357.753906 L 136.230469 357.855469 L 136.011719 357.96875 L 135.789062 358.097656 L 135.582031 358.234375 L 135.375 358.378906 L 135.175781 358.53125 L 134.980469 358.6875 L 134.789062 358.851562 L 134.605469 359.023438 L 134.425781 359.203125 L 134.25 359.386719 L 134.078125 359.578125 L 133.914062 359.777344 L 133.101562 358.992188 L 133.304688 358.773438 L 133.515625 358.558594 L 133.726562 358.351562 L 133.945312 358.152344 L 134.167969 357.964844 L 134.394531 357.777344 L 134.625 357.601562 L 134.859375 357.433594 L 135.097656 357.269531 L 135.34375 357.117188 L 135.59375 356.972656 L 135.851562 356.84375 L 136.117188 356.730469 L 136.390625 356.632812 L 136.671875 356.550781 L 136.960938 356.480469 L 137.257812 356.429688 L 137.566406 356.390625 L 137.878906 356.367188 L 138.199219 356.359375 L 138.667969 356.375 L 139.117188 356.414062 L 139.546875 356.484375 L 139.949219 356.578125 L 140.332031 356.703125 L 140.695312 356.855469 L 141.035156 357.03125 L 141.351562 357.238281 L 141.648438 357.472656 L 141.921875 357.730469 L 142.171875 358.015625 L 142.398438 358.316406 L 142.59375 358.636719 L 142.765625 358.972656 L 142.910156 359.328125 L 143.027344 359.699219 L 143.121094 360.09375 L 143.1875 360.5 L 143.226562 360.925781 L 143.238281 361.371094 L 143.226562 361.726562 L 143.199219 362.078125 L 143.144531 362.433594 L 143.074219 362.792969 L 142.980469 363.148438 L 142.867188 363.507812 L 142.730469 363.867188 L 142.574219 364.230469 L 142.398438 364.59375 L 142.203125 364.957031 L 141.992188 365.324219 L 141.765625 365.695312 L 141.523438 366.074219 L 141.261719 366.457031 L 140.984375 366.847656 L 140.691406 367.242188 L 140.378906 367.640625 L 140.050781 368.046875 L 139.707031 368.457031 L 139.347656 368.875 L 138.976562 369.300781 L 138.59375 369.738281 L 138.195312 370.183594 L 137.785156 370.640625 L 137.359375 371.109375 L 136.921875 371.585938 L 136.46875 372.078125 L 136.003906 372.578125 L 135.527344 373.085938 L 135.035156 373.609375 L 135.179688 373.597656 L 135.328125 373.585938 L 135.472656 373.578125 L 135.621094 373.566406 L 136.066406 373.542969 L 136.21875 373.535156 L 136.367188 373.53125 L 136.519531 373.523438 L 136.675781 373.511719 L 136.832031 373.503906 L 137.289062 373.480469 L 137.4375 373.476562 L 137.589844 373.472656 L 137.738281 373.46875 L 144.136719 373.46875 L 144.136719 374.589844 Z M 133.160156 374.589844 "/>
<path fill-rule="nonzero" fill="rgb(10.196078%, 10.196078%, 10.196078%)" fill-opacity="1" d="M 255.722656 374.925781 L 255.222656 374.898438 L 254.75 374.828125 L 254.296875 374.703125 L 253.867188 374.535156 L 253.460938 374.316406 L 253.078125 374.046875 L 252.71875 373.730469 L 252.378906 373.363281 L 252.066406 372.949219 L 251.773438 372.488281 L 251.507812 371.980469 L 251.269531 371.433594 L 251.058594 370.84375 L 250.878906 370.210938 L 250.722656 369.542969 L 250.597656 368.828125 L 250.5 368.074219 L 250.429688 367.28125 L 250.386719 366.449219 L 250.375 365.570312 L 250.386719 364.703125 L 250.429688 363.875 L 250.5 363.085938 L 250.597656 362.34375 L 250.722656 361.636719 L 250.878906 360.976562 L 251.058594 360.355469 L 251.269531 359.773438 L 251.507812 359.238281 L 251.773438 358.738281 L 252.066406 358.289062 L 252.378906 357.882812 L 252.71875 357.527344 L 253.078125 357.21875 L 253.460938 356.953125 L 253.867188 356.742188 L 254.296875 356.574219 L 254.75 356.457031 L 255.222656 356.382812 L 255.722656 356.359375 L 256.226562 356.382812 L 256.703125 356.457031 L 257.160156 356.574219 L 257.589844 356.742188 L 257.996094 356.953125 L 258.378906 357.21875 L 258.738281 357.527344 L 259.074219 357.882812 L 259.382812 358.289062 L 259.671875 358.738281 L 259.9375 359.238281 L 260.175781 359.773438 L 260.382812 360.355469 L 260.566406 360.976562 L 260.71875 361.636719 L 260.847656 362.34375 L 260.945312 363.085938 L 261.015625 363.875 L 261.054688 364.703125 L 261.070312 365.570312 L 261.054688 366.449219 L 261.015625 367.28125 L 260.945312 368.074219 L 260.847656 368.828125 L 260.71875 369.542969 L 260.566406 370.210938 L 260.382812 370.84375 L 260.175781 371.433594 L 259.9375 371.980469 L 259.671875 372.488281 L 259.382812 372.949219 L 259.074219 373.363281 L 258.738281 373.730469 L 258.378906 374.046875 L 257.996094 374.316406 L 257.589844 374.535156 L 257.160156 374.703125 L 256.703125 374.828125 L 256.226562 374.898438 Z M 255.722656 373.859375 L 256.089844 373.839844 L 256.441406 373.777344 L 256.777344 373.671875 L 257.097656 373.523438 L 257.402344 373.335938 L 257.691406 373.105469 L 257.964844 372.832031 L 258.222656 372.515625 L 258.464844 372.160156 L 258.691406 371.761719 L 258.902344 371.320312 L 259.09375 370.839844 L 259.261719 370.320312 L 259.40625 369.761719 L 259.53125 369.164062 L 259.628906 368.523438 L 259.710938 367.847656 L 259.765625 367.128906 L 259.796875 366.371094 L 259.808594 365.570312 L 259.796875 364.773438 L 259.765625 364.019531 L 259.710938 363.304688 L 259.628906 362.632812 L 259.53125 362.003906 L 259.40625 361.414062 L 259.261719 360.863281 L 259.09375 360.355469 L 258.902344 359.890625 L 258.691406 359.46875 L 258.464844 359.078125 L 258.222656 358.730469 L 257.964844 358.425781 L 257.691406 358.160156 L 257.402344 357.933594 L 257.097656 357.75 L 256.777344 357.609375 L 256.441406 357.503906 L 256.089844 357.445312 L 255.722656 357.425781 L 255.359375 357.445312 L 255.011719 357.503906 L 254.679688 357.609375 L 254.359375 357.75 L 254.054688 357.933594 L 253.765625 358.160156 L 253.492188 358.425781 L 253.230469 358.730469 L 252.984375 359.078125 L 252.753906 359.46875 L 252.542969 359.890625 L 252.351562 360.355469 L 252.183594 360.863281 L 252.039062 361.414062 L 251.914062 362.003906 L 251.8125 362.632812 L 251.734375 363.304688 L 251.679688 364.019531 L 251.644531 364.773438 L 251.632812 365.570312 L 251.644531 366.371094 L 251.679688 367.128906 L 251.734375 367.847656 L 251.8125 368.523438 L 251.914062 369.164062 L 252.039062 369.761719 L 252.183594 370.320312 L 252.351562 370.839844 L 252.542969 371.320312 L 252.753906 371.761719 L 252.984375 372.160156 L 253.230469 372.515625 L 253.492188 372.832031 L 253.765625 373.105469 L 254.054688 373.335938 L 254.359375 373.523438 L 254.679688 373.671875 L 255.011719 373.777344 L 255.359375 373.839844 Z M 255.722656 373.859375 "/>
<path fill-rule="nonzero" fill="rgb(10.196078%, 10.196078%, 10.196078%)" fill-opacity="1" d="M 371.382812 374.589844 L 371.382812 373.804688 L 371.960938 373.214844 L 372.519531 372.636719 L 373.058594 372.078125 L 373.578125 371.539062 L 374.078125 371.011719 L 374.558594 370.5 L 375.019531 370.007812 L 375.460938 369.53125 L 375.882812 369.070312 L 376.285156 368.625 L 376.664062 368.1875 L 377.027344 367.757812 L 377.371094 367.339844 L 377.695312 366.929688 L 378 366.53125 L 378.28125 366.140625 L 378.546875 365.761719 L 378.792969 365.390625 L 379.015625 365.027344 L 379.222656 364.675781 L 379.410156 364.332031 L 379.574219 363.988281 L 379.722656 363.652344 L 379.851562 363.320312 L 379.957031 362.988281 L 380.046875 362.664062 L 380.113281 362.339844 L 380.164062 362.023438 L 380.195312 361.710938 L 380.203125 361.398438 L 380.195312 361.070312 L 380.164062 360.75 L 380.117188 360.441406 L 380.050781 360.140625 L 379.964844 359.851562 L 379.859375 359.574219 L 379.738281 359.308594 L 379.59375 359.050781 L 379.433594 358.808594 L 379.25 358.570312 L 379.054688 358.355469 L 378.839844 358.160156 L 378.597656 357.988281 L 378.335938 357.835938 L 378.054688 357.710938 L 377.75 357.609375 L 377.421875 357.527344 L 377.074219 357.46875 L 376.703125 357.433594 L 376.3125 357.425781 L 376.070312 357.429688 L 375.835938 357.449219 L 375.597656 357.484375 L 375.367188 357.53125 L 375.136719 357.59375 L 374.90625 357.664062 L 374.679688 357.753906 L 374.457031 357.855469 L 374.234375 357.96875 L 374.015625 358.097656 L 373.804688 358.234375 L 373.601562 358.378906 L 373.398438 358.53125 L 373.203125 358.6875 L 373.015625 358.851562 L 372.828125 359.023438 L 372.648438 359.203125 L 372.472656 359.386719 L 372.304688 359.578125 L 372.140625 359.777344 L 371.328125 358.992188 L 371.53125 358.773438 L 371.738281 358.558594 L 371.953125 358.351562 L 372.167969 358.152344 L 372.390625 357.964844 L 372.617188 357.777344 L 372.847656 357.601562 L 373.082031 357.433594 L 373.324219 357.269531 L 373.566406 357.117188 L 373.816406 356.972656 L 374.074219 356.84375 L 374.339844 356.730469 L 374.617188 356.632812 L 374.898438 356.550781 L 375.1875 356.480469 L 375.484375 356.429688 L 375.789062 356.390625 L 376.101562 356.367188 L 376.421875 356.359375 L 376.894531 356.375 L 377.34375 356.414062 L 377.769531 356.484375 L 378.175781 356.578125 L 378.558594 356.703125 L 378.917969 356.855469 L 379.257812 357.03125 L 379.578125 357.238281 L 379.875 357.472656 L 380.148438 357.730469 L 380.398438 358.015625 L 380.621094 358.316406 L 380.820312 358.636719 L 380.988281 358.972656 L 381.132812 359.328125 L 381.253906 359.699219 L 381.34375 360.09375 L 381.410156 360.5 L 381.449219 360.925781 L 381.464844 361.371094 L 381.453125 361.726562 L 381.421875 362.078125 L 381.371094 362.433594 L 381.296875 362.792969 L 381.203125 363.148438 L 381.089844 363.507812 L 380.957031 363.867188 L 380.800781 364.230469 L 380.625 364.59375 L 380.425781 364.957031 L 380.21875 365.324219 L 379.992188 365.695312 L 379.746094 366.074219 L 379.488281 366.457031 L 379.210938 366.847656 L 378.914062 367.242188 L 378.605469 367.640625 L 378.277344 368.046875 L 377.933594 368.457031 L 377.570312 368.875 L 377.199219 369.300781 L 376.816406 369.738281 L 376.417969 370.183594 L 376.007812 370.640625 L 375.582031 371.109375 L 375.144531 371.585938 L 374.695312 372.078125 L 374.230469 372.578125 L 373.75 373.085938 L 373.257812 373.609375 L 373.40625 373.597656 L 373.550781 373.585938 L 373.699219 373.578125 L 373.847656 373.566406 L 374.441406 373.535156 L 374.59375 373.53125 L 374.742188 373.523438 L 374.898438 373.511719 L 375.054688 373.503906 L 375.207031 373.496094 L 375.363281 373.488281 L 375.511719 373.480469 L 375.664062 373.476562 L 375.960938 373.46875 L 382.359375 373.46875 L 382.359375 374.589844 Z M 371.382812 374.589844 "/>
</svg>
