<?xml version="1.0" encoding="UTF-8"?>
<svg xmlns="http://www.w3.org/2000/svg" xmlns:xlink="http://www.w3.org/1999/xlink" width="432" height="396" viewBox="0 0 432 396">
<defs>
<clipPath id="clip-0">
<path clip-rule="nonzero" d="M 23.910156 15.941406 L 416.058594 15.941406 L 416.058594 339.015625 L 23.910156 339.015625 Z M 23.910156 15.941406 "/>
</clipPath>
<clipPath id="clip-1">
<path clip-rule="nonzero" d="M 204 15.941406 L 207 15.941406 L 207 339.015625 L 204 339.015625 Z M 204 15.941406 "/>
</clipPath>
</defs>
<rect x="-43.2" y="-39.6" width="518.4" height="475.2" fill="rgb(100%, 100%, 100%)" fill-opacity="1"/>
<rect x="-43.2" y="-39.6" width="518.4" height="475.2" fill="rgb(95.294118%, 95.294118%, 95.294118%)" fill-opacity="1"/>
<path fill="none" stroke-width="3.103937" stroke-linecap="round" stroke-linejoin="round" stroke="rgb(95.294118%, 95.294118%, 95.294118%)" stroke-opacity="1" stroke-miterlimit="10" d="M 0 396 L 432 396 L 432 0 L 0 0 Z M 0 396 "/>
<g clip-path="url(#clip-0)">
<path fill-rule="nonzero" fill="rgb(95.294118%, 95.294118%, 95.294118%)" fill-opacity="1" stroke-width="3.103937" stroke-linecap="round" stroke-linejoin="round" stroke="rgb(95.294118%, 95.294118%, 95.294118%)" stroke-opacity="1" stroke-miterlimit="10" d="M 23.910156 339.011719 L 416.058594 339.011719 L 416.058594 15.9375 L 23.910156 15.9375 Z M 23.910156 339.011719 "/>
</g>
<path fill-rule="nonzero" fill="rgb(56.078431%, 16.470588%, 26.27451%)" fill-opacity="0.501961" d="M 41.734375 324.328125 L 53.617188 324.328125 L 53.617188 322.167969 L 41.734375 322.167969 Z M 41.734375 324.328125 "/>
<path fill-rule="nonzero" fill="rgb(56.078431%, 16.470588%, 26.27451%)" fill-opacity="0.501961" d="M 65.5 324.328125 L 77.382812 324.328125 L 77.382812 313.53125 L 65.5 313.53125 Z M 65.5 324.328125 "/>
<path fill-rule="nonzero" fill="rgb(56.078431%, 16.470588%, 26.27451%)" fill-opacity="0.501961" d="M 89.269531 324.328125 L 101.152344 324.328125 L 101.152344 296.253906 L 89.269531 296.253906 Z M 89.269531 324.328125 "/>
<path fill-rule="nonzero" fill="rgb(56.078431%, 16.470588%, 26.27451%)" fill-opacity="0.501961" d="M 101.152344 324.328125 L 113.035156 324.328125 L 113.035156 257.382812 L 101.152344 257.382812 Z M 101.152344 324.328125 "/>
<path fill-rule="nonzero" fill="rgb(56.078431%, 16.470588%, 26.27451%)" fill-opacity="0.501961" d="M 124.917969 324.328125 L 136.800781 324.328125 L 136.800781 205.550781 L 124.917969 205.550781 Z M 124.917969 324.328125 "/>
<path fill-rule="nonzero" fill="rgb(56.078431%, 16.470588%, 26.27451%)" fill-opacity="0.501961" d="M 136.800781 324.328125 L 148.683594 324.328125 L 148.683594 123.488281 L 136.800781 123.488281 Z M 136.800781 324.328125 "/>
<path fill-rule="nonzero" fill="rgb(56.078431%, 16.470588%, 26.27451%)" fill-opacity="0.501961" d="M 160.570312 324.328125 L 172.453125 324.328125 L 172.453125 30.625 L 160.570312 30.625 Z M 160.570312 324.328125 "/>
<path fill-rule="nonzero" fill="rgb(56.078431%, 16.470588%, 26.27451%)" fill-opacity="0.501961" d="M 184.335938 324.328125 L 196.21875 324.328125 L 196.21875 69.496094 L 184.335938 69.496094 Z M 184.335938 324.328125 "/>
<path fill-rule="nonzero" fill="rgb(56.078431%, 16.470588%, 26.27451%)" fill-opacity="0.501961" d="M 196.21875 324.328125 L 208.101562 324.328125 L 208.101562 56.539062 L 196.21875 56.539062 Z M 196.21875 324.328125 "/>
<path fill-rule="nonzero" fill="rgb(56.078431%, 16.470588%, 26.27451%)" fill-opacity="0.501961" d="M 219.984375 324.328125 L 231.867188 324.328125 L 231.867188 119.167969 L 219.984375 119.167969 Z M 219.984375 324.328125 "/>
<path fill-rule="nonzero" fill="rgb(56.078431%, 16.470588%, 26.27451%)" fill-opacity="0.501961" d="M 231.867188 324.328125 L 243.75 324.328125 L 243.75 117.007812 L 231.867188 117.007812 Z M 231.867188 324.328125 "/>
<path fill-rule="nonzero" fill="rgb(56.078431%, 16.470588%, 26.27451%)" fill-opacity="0.501961" d="M 255.636719 324.328125 L 267.519531 324.328125 L 267.519531 147.242188 L 255.636719 147.242188 Z M 255.636719 324.328125 "/>
<path fill-rule="nonzero" fill="rgb(56.078431%, 16.470588%, 26.27451%)" fill-opacity="0.501961" d="M 279.402344 324.328125 L 291.285156 324.328125 L 291.285156 194.753906 L 279.402344 194.753906 Z M 279.402344 324.328125 "/>
<path fill-rule="nonzero" fill="rgb(56.078431%, 16.470588%, 26.27451%)" fill-opacity="0.501961" d="M 291.285156 324.328125 L 303.167969 324.328125 L 303.167969 237.945312 L 291.285156 237.945312 Z M 291.285156 324.328125 "/>
<path fill-rule="nonzero" fill="rgb(56.078431%, 16.470588%, 26.27451%)" fill-opacity="0.501961" d="M 315.050781 324.328125 L 326.933594 324.328125 L 326.933594 270.339844 L 315.050781 270.339844 Z M 315.050781 324.328125 "/>
<path fill-rule="nonzero" fill="rgb(56.078431%, 16.470588%, 26.27451%)" fill-opacity="0.501961" d="M 338.816406 324.328125 L 350.699219 324.328125 L 350.699219 300.574219 L 338.816406 300.574219 Z M 338.816406 324.328125 "/>
<path fill-rule="nonzero" fill="rgb(56.078431%, 16.470588%, 26.27451%)" fill-opacity="0.501961" d="M 350.703125 324.328125 L 362.585938 324.328125 L 362.585938 300.574219 L 350.703125 300.574219 Z M 350.703125 324.328125 "/>
<path fill-rule="nonzero" fill="rgb(56.078431%, 16.470588%, 26.27451%)" fill-opacity="0.501961" d="M 374.46875 324.328125 L 386.351562 324.328125 L 386.351562 320.007812 L 374.46875 320.007812 Z M 374.46875 324.328125 "/>
<path fill-rule="nonzero" fill="rgb(56.078431%, 16.470588%, 26.27451%)" fill-opacity="0.501961" d="M 386.351562 324.328125 L 398.234375 324.328125 L 398.234375 320.007812 L 386.351562 320.007812 Z M 386.351562 324.328125 "/>
<g clip-path="url(#clip-1)">
<path fill="none" stroke-width="1.920561" stroke-linecap="butt" stroke-linejoin="round" stroke="rgb(56.078431%, 16.470588%, 26.27451%)" stroke-opacity="1" stroke-dasharray="7.682244 7.682244" stroke-miterlimit="10" d="M 205.460938 339.011719 L 205.460938 15.941406 "/>
</g>
<path fill-rule="nonzero" fill="rgb(10.196078%, 10.196078%, 10.196078%)" fill-opacity="1" d="M 117.03125 373.128906 L 117.03125 371.960938 L 121.53125 371.960938 L 121.53125 356.058594 L 118.109375 356.058594 L 118.109375 355.160156 L 118.339844 355.117188 L 118.566406 355.070312 L 118.789062 355.027344 L 119.007812 354.976562 L 119.21875 354.925781 L 119.425781 354.875 L 119.628906 354.820312 L 119.828125 354.765625 L 120.210938 354.648438 L 120.394531 354.589844 L 120.570312 354.527344 L 120.742188 354.460938 L 120.910156 354.394531 L 121.070312 354.328125 L 121.226562 354.257812 L 121.378906 354.1875 L 121.523438 354.113281 L 121.664062 354.035156 L 121.800781 353.960938 L 122.878906 353.960938 L 122.878906 371.960938 L 127.050781 371.960938 L 127.050781 373.128906 Z M 117.03125 373.128906 "/>
<path fill-rule="nonzero" fill="rgb(10.196078%, 10.196078%, 10.196078%)" fill-opacity="1" d="M 135.691406 373.488281 L 135.386719 373.484375 L 135.09375 373.472656 L 134.808594 373.453125 L 134.527344 373.425781 L 134.257812 373.390625 L 133.992188 373.347656 L 133.738281 373.296875 L 133.492188 373.238281 L 133.25 373.175781 L 133.019531 373.101562 L 132.800781 373.019531 L 132.585938 372.933594 L 132.378906 372.847656 L 132.179688 372.753906 L 131.984375 372.65625 L 131.796875 372.554688 L 131.613281 372.449219 L 131.4375 372.339844 L 131.265625 372.226562 L 131.101562 372.109375 L 130.9375 371.988281 L 130.78125 371.871094 L 130.628906 371.75 L 130.480469 371.628906 L 130.335938 371.511719 L 130.191406 371.390625 L 129.917969 371.148438 L 129.789062 371.03125 L 129.660156 370.910156 L 130.410156 369.980469 L 130.585938 370.152344 L 130.769531 370.324219 L 130.960938 370.492188 L 131.160156 370.65625 L 131.363281 370.820312 L 131.574219 370.980469 L 131.789062 371.140625 L 132.011719 371.296875 L 132.242188 371.449219 L 132.480469 371.601562 L 132.734375 371.738281 L 133 371.859375 L 133.28125 371.96875 L 133.578125 372.0625 L 133.890625 372.140625 L 134.214844 372.203125 L 134.554688 372.253906 L 134.910156 372.289062 L 135.277344 372.3125 L 135.660156 372.320312 L 135.914062 372.3125 L 136.167969 372.292969 L 136.414062 372.261719 L 136.65625 372.21875 L 136.898438 372.164062 L 137.132812 372.09375 L 137.363281 372.011719 L 137.589844 371.917969 L 137.8125 371.808594 L 138.03125 371.691406 L 138.242188 371.550781 L 138.445312 371.40625 L 138.640625 371.246094 L 138.828125 371.082031 L 139.003906 370.902344 L 139.175781 370.714844 L 139.335938 370.515625 L 139.488281 370.308594 L 139.632812 370.089844 L 139.769531 369.859375 L 139.894531 369.621094 L 140.007812 369.378906 L 140.105469 369.125 L 140.191406 368.867188 L 140.265625 368.601562 L 140.324219 368.328125 L 140.371094 368.046875 L 140.402344 367.757812 L 140.421875 367.460938 L 140.429688 367.160156 L 140.417969 366.707031 L 140.378906 366.273438 L 140.3125 365.863281 L 140.222656 365.46875 L 140.105469 365.097656 L 139.964844 364.746094 L 139.796875 364.410156 L 139.605469 364.097656 L 139.382812 363.804688 L 139.140625 363.53125 L 138.878906 363.277344 L 138.601562 363.054688 L 138.304688 362.855469 L 137.992188 362.683594 L 137.664062 362.539062 L 137.3125 362.421875 L 136.949219 362.328125 L 136.566406 362.261719 L 136.167969 362.222656 L 135.75 362.210938 L 135.53125 362.214844 L 135.316406 362.222656 L 135.109375 362.242188 L 134.910156 362.265625 L 134.714844 362.300781 L 134.527344 362.339844 L 134.34375 362.386719 L 134.164062 362.441406 L 133.996094 362.5 L 133.828125 362.570312 L 133.671875 362.636719 L 133.515625 362.710938 L 133.355469 362.792969 L 133.191406 362.878906 L 133.027344 362.96875 L 132.859375 363.0625 L 132.695312 363.164062 L 132.523438 363.269531 L 132.351562 363.382812 L 132.179688 363.5 L 131.25 362.929688 L 131.941406 353.960938 L 140.789062 353.960938 L 140.789062 355.128906 L 133.140625 355.128906 L 132.539062 362.058594 L 132.84375 361.886719 L 132.996094 361.804688 L 133.148438 361.730469 L 133.304688 361.65625 L 133.460938 361.585938 L 133.617188 361.519531 L 133.777344 361.453125 L 133.9375 361.394531 L 134.101562 361.339844 L 134.265625 361.28125 L 134.433594 361.230469 L 134.605469 361.1875 L 134.785156 361.148438 L 134.96875 361.113281 L 135.15625 361.085938 L 135.351562 361.066406 L 135.550781 361.050781 L 135.753906 361.042969 L 135.960938 361.039062 L 136.28125 361.046875 L 136.59375 361.066406 L 136.90625 361.097656 L 137.207031 361.144531 L 137.503906 361.203125 L 137.796875 361.277344 L 138.082031 361.363281 L 138.359375 361.460938 L 138.632812 361.574219 L 138.898438 361.699219 L 139.164062 361.832031 L 139.417969 361.980469 L 139.660156 362.140625 L 139.886719 362.320312 L 140.105469 362.511719 L 140.3125 362.714844 L 140.511719 362.933594 L 140.695312 363.167969 L 140.867188 363.417969 L 141.03125 363.679688 L 141.179688 363.953125 L 141.308594 364.238281 L 141.425781 364.542969 L 141.527344 364.859375 L 141.613281 365.195312 L 141.683594 365.542969 L 141.738281 365.910156 L 141.777344 366.289062 L 141.800781 366.6875 L 141.808594 367.101562 L 141.800781 367.5 L 141.773438 367.890625 L 141.730469 368.269531 L 141.664062 368.636719 L 141.585938 368.988281 L 141.484375 369.332031 L 141.367188 369.660156 L 141.234375 369.980469 L 141.082031 370.285156 L 140.910156 370.578125 L 140.730469 370.855469 L 140.539062 371.117188 L 140.339844 371.367188 L 140.128906 371.601562 L 139.90625 371.824219 L 139.671875 372.035156 L 139.425781 372.230469 L 139.171875 372.414062 L 138.90625 372.582031 L 138.628906 372.738281 L 138.351562 372.882812 L 138.070312 373.011719 L 137.785156 373.121094 L 137.496094 373.21875 L 137.203125 373.300781 L 136.910156 373.371094 L 136.609375 373.421875 L 136.304688 373.460938 L 136 373.480469 Z M 135.691406 373.488281 "/>
<path fill-rule="nonzero" fill="rgb(10.196078%, 10.196078%, 10.196078%)" fill-opacity="1" d="M 249.757812 373.128906 L 249.757812 372.289062 L 250.375 371.65625 L 250.976562 371.039062 L 251.550781 370.441406 L 252.109375 369.859375 L 252.644531 369.296875 L 253.160156 368.75 L 253.652344 368.222656 L 254.125 367.710938 L 254.578125 367.214844 L 255.007812 366.738281 L 255.417969 366.269531 L 255.804688 365.8125 L 256.171875 365.363281 L 256.519531 364.925781 L 256.84375 364.496094 L 257.148438 364.078125 L 257.433594 363.671875 L 257.695312 363.273438 L 257.9375 362.886719 L 258.15625 362.511719 L 258.355469 362.140625 L 258.535156 361.773438 L 258.691406 361.414062 L 258.828125 361.054688 L 258.945312 360.703125 L 259.039062 360.351562 L 259.113281 360.007812 L 259.164062 359.667969 L 259.195312 359.332031 L 259.207031 359 L 259.195312 358.644531 L 259.167969 358.300781 L 259.113281 357.972656 L 259.042969 357.652344 L 258.953125 357.34375 L 258.839844 357.046875 L 258.707031 356.757812 L 258.554688 356.484375 L 258.378906 356.222656 L 258.1875 355.96875 L 257.976562 355.734375 L 257.746094 355.527344 L 257.488281 355.34375 L 257.207031 355.183594 L 256.90625 355.046875 L 256.578125 354.9375 L 256.226562 354.851562 L 255.855469 354.789062 L 255.457031 354.753906 L 255.035156 354.738281 L 254.78125 354.746094 L 254.527344 354.769531 L 254.273438 354.804688 L 254.023438 354.855469 L 253.777344 354.917969 L 253.53125 355 L 253.289062 355.09375 L 253.050781 355.199219 L 252.8125 355.324219 L 252.578125 355.460938 L 252.351562 355.605469 L 252.132812 355.761719 L 251.917969 355.925781 L 251.707031 356.09375 L 251.503906 356.269531 L 251.304688 356.453125 L 251.113281 356.644531 L 250.925781 356.84375 L 250.742188 357.046875 L 250.566406 357.261719 L 249.695312 356.417969 L 249.914062 356.183594 L 250.136719 355.957031 L 250.367188 355.734375 L 250.597656 355.523438 L 250.835938 355.316406 L 251.078125 355.121094 L 251.328125 354.929688 L 251.578125 354.75 L 251.835938 354.574219 L 252.097656 354.410156 L 252.363281 354.257812 L 252.640625 354.117188 L 252.925781 353.996094 L 253.21875 353.890625 L 253.523438 353.800781 L 253.832031 353.730469 L 254.152344 353.671875 L 254.476562 353.632812 L 254.8125 353.609375 L 255.15625 353.601562 L 255.660156 353.613281 L 256.140625 353.660156 L 256.601562 353.730469 L 257.035156 353.835938 L 257.445312 353.96875 L 257.832031 354.128906 L 258.195312 354.320312 L 258.535156 354.539062 L 258.851562 354.789062 L 259.148438 355.070312 L 259.414062 355.375 L 259.65625 355.695312 L 259.867188 356.039062 L 260.050781 356.398438 L 260.203125 356.78125 L 260.332031 357.179688 L 260.429688 357.597656 L 260.5 358.035156 L 260.542969 358.492188 L 260.558594 358.96875 L 260.546875 359.347656 L 260.511719 359.726562 L 260.457031 360.109375 L 260.378906 360.492188 L 260.28125 360.875 L 260.15625 361.257812 L 260.011719 361.644531 L 259.847656 362.03125 L 259.65625 362.421875 L 259.445312 362.808594 L 259.222656 363.203125 L 258.980469 363.601562 L 258.71875 364.007812 L 258.4375 364.417969 L 258.140625 364.835938 L 257.828125 365.257812 L 257.492188 365.6875 L 257.144531 366.121094 L 256.773438 366.5625 L 256.386719 367.011719 L 255.988281 367.464844 L 255.578125 367.933594 L 255.152344 368.410156 L 254.710938 368.902344 L 254.257812 369.402344 L 253.789062 369.914062 L 253.304688 370.4375 L 252.804688 370.972656 L 252.292969 371.519531 L 251.765625 372.078125 L 251.921875 372.066406 L 252.082031 372.058594 L 252.394531 372.035156 L 253.355469 371.988281 L 253.523438 371.976562 L 253.691406 371.96875 L 254.183594 371.945312 L 254.34375 371.9375 L 254.503906 371.933594 L 254.664062 371.933594 L 254.820312 371.929688 L 261.515625 371.929688 L 261.515625 373.128906 Z M 249.757812 373.128906 "/>
<path fill-rule="nonzero" fill="rgb(10.196078%, 10.196078%, 10.196078%)" fill-opacity="1" d="M 270.066406 373.488281 L 269.535156 373.464844 L 269.023438 373.386719 L 268.539062 373.253906 L 268.078125 373.070312 L 267.644531 372.835938 L 267.234375 372.550781 L 266.847656 372.210938 L 266.484375 371.820312 L 266.148438 371.375 L 265.835938 370.878906 L 265.550781 370.335938 L 265.296875 369.75 L 265.070312 369.117188 L 264.878906 368.441406 L 264.710938 367.722656 L 264.578125 366.960938 L 264.472656 366.152344 L 264.398438 365.300781 L 264.351562 364.40625 L 264.335938 363.46875 L 264.351562 362.539062 L 264.398438 361.652344 L 264.472656 360.808594 L 264.578125 360.007812 L 264.710938 359.253906 L 264.878906 358.546875 L 265.070312 357.878906 L 265.296875 357.257812 L 265.550781 356.683594 L 265.835938 356.148438 L 266.148438 355.664062 L 266.484375 355.230469 L 266.847656 354.847656 L 267.234375 354.519531 L 267.644531 354.238281 L 268.078125 354.007812 L 268.539062 353.828125 L 269.023438 353.703125 L 269.535156 353.625 L 270.066406 353.601562 L 270.605469 353.625 L 271.121094 353.703125 L 271.605469 353.828125 L 272.070312 354.007812 L 272.503906 354.238281 L 272.914062 354.519531 L 273.300781 354.847656 L 273.65625 355.230469 L 273.988281 355.664062 L 274.296875 356.148438 L 274.582031 356.683594 L 274.835938 357.257812 L 275.0625 357.878906 L 275.257812 358.546875 L 275.421875 359.253906 L 275.558594 360.007812 L 275.660156 360.808594 L 275.738281 361.652344 L 275.78125 362.539062 L 275.796875 363.46875 L 275.78125 364.40625 L 275.738281 365.300781 L 275.660156 366.152344 L 275.558594 366.960938 L 275.421875 367.722656 L 275.257812 368.441406 L 275.0625 369.117188 L 274.835938 369.75 L 274.582031 370.335938 L 274.296875 370.878906 L 273.988281 371.375 L 273.65625 371.820312 L 273.300781 372.210938 L 272.914062 372.550781 L 272.503906 372.835938 L 272.070312 373.070312 L 271.605469 373.253906 L 271.121094 373.386719 L 270.605469 373.464844 Z M 270.066406 372.351562 L 270.460938 372.328125 L 270.835938 372.261719 L 271.199219 372.148438 L 271.539062 371.988281 L 271.867188 371.789062 L 272.175781 371.539062 L 272.46875 371.246094 L 272.746094 370.910156 L 273.003906 370.527344 L 273.246094 370.101562 L 273.476562 369.628906 L 273.679688 369.113281 L 273.859375 368.558594 L 274.015625 367.957031 L 274.148438 367.316406 L 274.253906 366.632812 L 274.339844 365.90625 L 274.398438 365.136719 L 274.433594 364.324219 L 274.445312 363.46875 L 274.433594 362.617188 L 274.398438 361.804688 L 274.339844 361.042969 L 274.253906 360.320312 L 274.148438 359.644531 L 274.015625 359.011719 L 273.859375 358.425781 L 273.679688 357.882812 L 273.476562 357.382812 L 273.246094 356.929688 L 273.003906 356.515625 L 272.746094 356.140625 L 272.46875 355.8125 L 272.175781 355.527344 L 271.867188 355.289062 L 271.539062 355.089844 L 271.199219 354.9375 L 270.835938 354.828125 L 270.460938 354.761719 L 270.066406 354.738281 L 269.679688 354.761719 L 269.304688 354.828125 L 268.949219 354.9375 L 268.609375 355.089844 L 268.28125 355.289062 L 267.972656 355.527344 L 267.675781 355.8125 L 267.398438 356.140625 L 267.136719 356.515625 L 266.886719 356.929688 L 266.660156 357.382812 L 266.453125 357.882812 L 266.273438 358.425781 L 266.117188 359.011719 L 265.988281 359.644531 L 265.878906 360.320312 L 265.796875 361.042969 L 265.734375 361.804688 L 265.699219 362.617188 L 265.6875 363.46875 L 265.699219 364.324219 L 265.734375 365.136719 L 265.796875 365.90625 L 265.878906 366.632812 L 265.988281 367.316406 L 266.117188 367.957031 L 266.273438 368.558594 L 266.453125 369.113281 L 266.660156 369.628906 L 266.886719 370.101562 L 267.136719 370.527344 L 267.398438 370.910156 L 267.675781 371.246094 L 267.972656 371.539062 L 268.28125 371.789062 L 268.609375 371.988281 L 268.949219 372.148438 L 269.304688 372.261719 L 269.679688 372.328125 Z M 270.066406 372.351562 "/>
<path fill-rule="nonzero" fill="rgb(10.196078%, 10.196078%, 10.196078%)" fill-opacity="1" d="M 383.773438 373.128906 L 383.773438 372.289062 L 384.394531 371.65625 L 384.992188 371.039062 L 385.570312 370.441406 L 386.125 369.859375 L 386.660156 369.296875 L 387.175781 368.75 L 387.671875 368.222656 L 388.140625 367.710938 L 388.59375 367.214844 L 389.023438 366.738281 L 389.433594 366.269531 L 389.824219 365.8125 L 390.191406 365.363281 L 390.535156 364.925781 L 390.863281 364.496094 L 391.167969 364.078125 L 391.449219 363.671875 L 391.710938 363.273438 L 391.953125 362.886719 L 392.175781 362.511719 L 392.375 362.140625 L 392.550781 361.773438 L 392.710938 361.414062 L 392.847656 361.054688 L 392.960938 360.703125 L 393.054688 360.351562 L 393.128906 360.007812 L 393.183594 359.667969 L 393.214844 359.332031 L 393.222656 359 L 393.214844 358.644531 L 393.183594 358.300781 L 393.132812 357.972656 L 393.0625 357.652344 L 392.96875 357.34375 L 392.855469 357.046875 L 392.726562 356.757812 L 392.570312 356.484375 L 392.398438 356.222656 L 392.203125 355.96875 L 391.996094 355.734375 L 391.761719 355.527344 L 391.503906 355.34375 L 391.226562 355.183594 L 390.921875 355.046875 L 390.59375 354.9375 L 390.246094 354.851562 L 389.871094 354.789062 L 389.476562 354.753906 L 389.054688 354.738281 L 388.796875 354.746094 L 388.542969 354.769531 L 388.292969 354.804688 L 388.042969 354.855469 L 387.792969 354.917969 L 387.550781 355 L 387.308594 355.09375 L 387.066406 355.199219 L 386.828125 355.324219 L 386.59375 355.460938 L 386.367188 355.605469 L 386.148438 355.761719 L 385.933594 355.925781 L 385.726562 356.09375 L 385.523438 356.269531 L 385.324219 356.453125 L 385.128906 356.644531 L 384.941406 356.84375 L 384.761719 357.046875 L 384.585938 357.261719 L 383.714844 356.417969 L 383.933594 356.183594 L 384.15625 355.957031 L 384.382812 355.734375 L 384.617188 355.523438 L 384.855469 355.316406 L 385.097656 355.121094 L 385.34375 354.929688 L 385.597656 354.75 L 385.851562 354.574219 L 386.113281 354.410156 L 386.382812 354.257812 L 386.660156 354.117188 L 386.945312 353.996094 L 387.238281 353.890625 L 387.539062 353.800781 L 387.851562 353.730469 L 388.167969 353.671875 L 388.496094 353.632812 L 388.832031 353.609375 L 389.175781 353.601562 L 389.679688 353.613281 L 390.160156 353.660156 L 390.617188 353.730469 L 391.050781 353.835938 L 391.460938 353.96875 L 391.847656 354.128906 L 392.214844 354.320312 L 392.554688 354.539062 L 392.871094 354.789062 L 393.164062 355.070312 L 393.433594 355.375 L 393.671875 355.695312 L 393.882812 356.039062 L 394.066406 356.398438 L 394.222656 356.78125 L 394.347656 357.179688 L 394.449219 357.597656 L 394.519531 358.035156 L 394.558594 358.492188 L 394.574219 358.96875 L 394.5625 359.347656 L 394.53125 359.726562 L 394.472656 360.109375 L 394.398438 360.492188 L 394.296875 360.875 L 394.175781 361.257812 L 394.03125 361.644531 L 393.863281 362.03125 L 393.675781 362.421875 L 393.464844 362.808594 L 393.238281 363.203125 L 392.996094 363.601562 L 392.734375 364.007812 L 392.457031 364.417969 L 392.160156 364.835938 L 391.84375 365.257812 L 391.511719 365.6875 L 391.160156 366.121094 L 390.792969 366.5625 L 390.40625 367.011719 L 390.007812 367.464844 L 389.59375 367.933594 L 389.167969 368.410156 L 388.730469 368.902344 L 388.273438 369.402344 L 387.804688 369.914062 L 387.320312 370.4375 L 386.824219 370.972656 L 386.3125 371.519531 L 385.785156 372.078125 L 385.941406 372.066406 L 386.097656 372.058594 L 386.253906 372.046875 L 386.414062 372.035156 L 386.570312 372.027344 L 387.210938 371.996094 L 387.375 371.988281 L 387.542969 371.976562 L 388.199219 371.945312 L 388.359375 371.9375 L 388.519531 371.933594 L 388.679688 371.933594 L 388.835938 371.929688 L 395.535156 371.929688 L 395.535156 373.128906 Z M 383.773438 373.128906 "/>
<path fill-rule="nonzero" fill="rgb(10.196078%, 10.196078%, 10.196078%)" fill-opacity="1" d="M 403.722656 373.488281 L 403.421875 373.484375 L 403.128906 373.472656 L 402.839844 373.453125 L 402.5625 373.425781 L 402.292969 373.390625 L 402.027344 373.347656 L 401.773438 373.296875 L 401.527344 373.238281 L 401.285156 373.175781 L 401.054688 373.101562 L 400.835938 373.019531 L 400.621094 372.933594 L 400.414062 372.847656 L 400.214844 372.753906 L 400.019531 372.65625 L 399.832031 372.554688 L 399.648438 372.449219 L 399.46875 372.339844 L 399.300781 372.226562 L 399.132812 372.109375 L 398.972656 371.988281 L 398.816406 371.871094 L 398.664062 371.75 L 398.515625 371.628906 L 398.371094 371.511719 L 398.226562 371.390625 L 397.953125 371.148438 L 397.820312 371.03125 L 397.695312 370.910156 L 398.445312 369.980469 L 398.621094 370.152344 L 398.804688 370.324219 L 398.996094 370.492188 L 399.191406 370.65625 L 399.398438 370.820312 L 399.605469 370.980469 L 399.824219 371.140625 L 400.046875 371.296875 L 400.277344 371.449219 L 400.515625 371.601562 L 400.769531 371.738281 L 401.035156 371.859375 L 401.316406 371.96875 L 401.613281 372.0625 L 401.925781 372.140625 L 402.25 372.203125 L 402.589844 372.253906 L 402.941406 372.289062 L 403.3125 372.3125 L 403.695312 372.320312 L 403.949219 372.3125 L 404.203125 372.292969 L 404.449219 372.261719 L 404.691406 372.21875 L 404.933594 372.164062 L 405.167969 372.09375 L 405.398438 372.011719 L 405.625 371.917969 L 405.847656 371.808594 L 406.0625 371.691406 L 406.277344 371.550781 L 406.480469 371.40625 L 406.675781 371.246094 L 406.859375 371.082031 L 407.039062 370.902344 L 407.210938 370.714844 L 407.371094 370.515625 L 407.523438 370.308594 L 407.667969 370.089844 L 407.804688 369.859375 L 407.929688 369.621094 L 408.042969 369.378906 L 408.140625 369.125 L 408.226562 368.867188 L 408.300781 368.601562 L 408.359375 368.328125 L 408.40625 368.046875 L 408.4375 367.757812 L 408.457031 367.460938 L 408.464844 367.160156 L 408.453125 366.707031 L 408.414062 366.273438 L 408.347656 365.863281 L 408.257812 365.46875 L 408.140625 365.097656 L 408 364.746094 L 407.832031 364.410156 L 407.640625 364.097656 L 407.417969 363.804688 L 407.175781 363.53125 L 406.914062 363.277344 L 406.636719 363.054688 L 406.339844 362.855469 L 406.027344 362.683594 L 405.695312 362.539062 L 405.347656 362.421875 L 404.984375 362.328125 L 404.601562 362.261719 L 404.203125 362.222656 L 403.785156 362.210938 L 403.566406 362.214844 L 403.351562 362.222656 L 403.144531 362.242188 L 402.945312 362.265625 L 402.75 362.300781 L 402.558594 362.339844 L 402.378906 362.386719 L 402.199219 362.441406 L 402.03125 362.5 L 401.863281 362.570312 L 401.707031 362.636719 L 401.550781 362.710938 L 401.386719 362.792969 L 401.226562 362.878906 L 401.0625 362.96875 L 400.894531 363.0625 L 400.726562 363.164062 L 400.558594 363.269531 L 400.386719 363.382812 L 400.214844 363.5 L 399.285156 362.929688 L 399.972656 353.960938 L 408.824219 353.960938 L 408.824219 355.128906 L 401.175781 355.128906 L 400.574219 362.058594 L 400.726562 361.972656 L 400.875 361.886719 L 401.03125 361.804688 L 401.183594 361.730469 L 401.339844 361.65625 L 401.496094 361.585938 L 401.652344 361.519531 L 401.8125 361.453125 L 401.972656 361.394531 L 402.132812 361.339844 L 402.300781 361.28125 L 402.46875 361.230469 L 402.640625 361.1875 L 402.820312 361.148438 L 403.003906 361.113281 L 403.191406 361.085938 L 403.386719 361.066406 L 403.585938 361.050781 L 403.785156 361.042969 L 403.996094 361.039062 L 404.316406 361.046875 L 404.628906 361.066406 L 404.9375 361.097656 L 405.242188 361.144531 L 405.539062 361.203125 L 405.832031 361.277344 L 406.117188 361.363281 L 406.394531 361.460938 L 406.667969 361.574219 L 406.933594 361.699219 L 407.199219 361.832031 L 407.453125 361.980469 L 407.691406 362.140625 L 407.921875 362.320312 L 408.140625 362.511719 L 408.347656 362.714844 L 408.546875 362.933594 L 408.730469 363.167969 L 408.902344 363.417969 L 409.0625 363.679688 L 409.210938 363.953125 L 409.34375 364.238281 L 409.460938 364.542969 L 409.5625 364.859375 L 409.648438 365.195312 L 409.71875 365.542969 L 409.773438 365.910156 L 409.8125 366.289062 L 409.835938 366.6875 L 409.84375 367.101562 L 409.835938 367.5 L 409.808594 367.890625 L 409.761719 368.269531 L 409.699219 368.636719 L 409.621094 368.988281 L 409.519531 369.332031 L 409.402344 369.660156 L 409.269531 369.980469 L 409.117188 370.285156 L 408.945312 370.578125 L 408.765625 370.855469 L 408.574219 371.117188 L 408.375 371.367188 L 408.160156 371.601562 L 407.9375 371.824219 L 407.707031 372.035156 L 407.460938 372.230469 L 407.207031 372.414062 L 406.941406 372.582031 L 406.664062 372.738281 L 406.386719 372.882812 L 406.105469 373.011719 L 405.820312 373.121094 L 405.53125 373.21875 L 405.238281 373.300781 L 404.945312 373.371094 L 404.644531 373.421875 L 404.339844 373.460938 L 404.035156 373.480469 Z M 403.722656 373.488281 "/>
</svg>
