<?xml version="1.0" encoding="UTF-8"?>
<svg xmlns="http://www.w3.org/2000/svg" xmlns:xlink="http://www.w3.org/1999/xlink" width="432pt" height="396pt" viewBox="0 0 432 396">
<defs>
<clipPath id="clip-0">
<path clip-rule="nonzero" d="M 15.941406 15.941406 L 416.0625 15.941406 L 416.0625 339.015625 L 15.941406 339.015625 Z M 15.941406 15.941406 "/>
</clipPath>
<clipPath id="clip-1">
<path clip-rule="nonzero" d="M 320 15.941406 L 323 15.941406 L 323 339.015625 L 320 339.015625 Z M 320 15.941406 "/>
</clipPath>
</defs>
<rect x="-43.2" y="-39.6" width="518.4" height="475.2" fill="rgb(100%, 100%, 100%)" fill-opacity="1"/>
<rect x="-43.2" y="-39.6" width="518.4" height="475.2" fill="rgb(95.294118%, 95.294118%, 95.294118%)" fill-opacity="1"/>
<path fill="none" stroke-width="3.103937" stroke-linecap="round" stroke-linejoin="round" stroke="rgb(95.294118%, 95.294118%, 95.294118%)" stroke-opacity="1" stroke-miterlimit="10" d="M 0 396 L 432 396 L 432 0 L 0 0 Z M 0 396 "/>
<g clip-path="url(#clip-0)">
<path fill-rule="nonzero" fill="rgb(95.294118%, 95.294118%, 95.294118%)" fill-opacity="1" stroke-width="3.103937" stroke-linecap="round" stroke-linejoin="round" stroke="rgb(95.294118%, 95.294118%, 95.294118%)" stroke-opacity="1" stroke-miterlimit="10" d="M 15.941406 339.011719 L 416.0625 339.011719 L 416.0625 15.9375 L 15.941406 15.9375 Z M 15.941406 339.011719 "/>
</g>
<path fill-rule="nonzero" fill="rgb(56.078431%, 16.470588%, 26.27451%)" fill-opacity="0.8" d="M 34.128906 324.328125 L 46.253906 324.328125 L 46.253906 177.476562 L 34.128906 177.476562 Z M 34.128906 324.328125 "/>
<path fill-rule="nonzero" fill="rgb(56.078431%, 16.470588%, 26.27451%)" fill-opacity="0.8" d="M 106.875 324.328125 L 119 324.328125 L 119 79.574219 L 106.875 79.574219 Z M 106.875 324.328125 "/>
<path fill-rule="nonzero" fill="rgb(56.078431%, 16.470588%, 26.27451%)" fill-opacity="0.8" d="M 179.625 324.328125 L 191.75 324.328125 L 191.75 30.625 L 179.625 30.625 Z M 179.625 324.328125 "/>
<path fill-rule="nonzero" fill="rgb(56.078431%, 16.470588%, 26.27451%)" fill-opacity="0.8" d="M 240.25 324.328125 L 252.375 324.328125 L 252.375 226.425781 L 240.25 226.425781 Z M 240.25 324.328125 "/>
<path fill-rule="nonzero" fill="rgb(56.078431%, 16.470588%, 26.27451%)" fill-opacity="0.8" d="M 313 324.328125 L 325.125 324.328125 L 325.125 177.476562 L 313 177.476562 Z M 313 324.328125 "/>
<path fill-rule="nonzero" fill="rgb(56.078431%, 16.470588%, 26.27451%)" fill-opacity="0.8" d="M 385.746094 324.328125 L 397.871094 324.328125 L 397.871094 226.425781 L 385.746094 226.425781 Z M 385.746094 324.328125 "/>
<g clip-path="url(#clip-1)">
<path fill="none" stroke-width="1.920561" stroke-linecap="butt" stroke-linejoin="round" stroke="rgb(0%, 0%, 0%)" stroke-opacity="1" stroke-dasharray="7.682244 7.682244" stroke-miterlimit="10" d="M 321.484375 339.011719 L 321.484375 15.941406 "/>
</g>
<path fill-rule="nonzero" fill="rgb(10.196078%, 10.196078%, 10.196078%)" fill-opacity="1" d="M 79.140625 365.269531 L 79.140625 363.769531 L 87.089844 363.769531 L 87.089844 365.269531 Z M 79.140625 365.269531 "/>
<path fill-rule="nonzero" fill="rgb(10.196078%, 10.196078%, 10.196078%)" fill-opacity="1" d="M 101.28125 355.398438 L 93.179688 355.398438 L 93.179688 362.210938 L 93.511719 362.03125 L 93.847656 361.875 L 94.183594 361.734375 L 94.519531 361.613281 L 94.863281 361.511719 L 95.203125 361.429688 L 95.550781 361.363281 L 95.898438 361.316406 L 96.25 361.289062 L 96.601562 361.28125 L 97.105469 361.296875 L 97.589844 361.347656 L 98.050781 361.429688 L 98.492188 361.546875 L 98.910156 361.699219 L 99.308594 361.882812 L 99.683594 362.101562 L 100.039062 362.355469 L 100.371094 362.640625 L 100.679688 362.960938 L 100.972656 363.300781 L 101.230469 363.667969 L 101.460938 364.058594 L 101.660156 364.476562 L 101.828125 364.917969 L 101.964844 365.382812 L 102.074219 365.871094 L 102.148438 366.386719 L 102.195312 366.925781 L 102.210938 367.488281 L 102.203125 367.875 L 102.179688 368.253906 L 102.136719 368.625 L 102.082031 368.988281 L 102.007812 369.34375 L 101.917969 369.6875 L 101.8125 370.027344 L 101.691406 370.359375 L 101.554688 370.683594 L 101.402344 371 L 101.238281 371.300781 L 101.0625 371.585938 L 100.871094 371.859375 L 100.667969 372.117188 L 100.449219 372.363281 L 100.21875 372.597656 L 99.972656 372.820312 L 99.710938 373.023438 L 99.4375 373.21875 L 99.152344 373.398438 L 98.859375 373.558594 L 98.554688 373.703125 L 98.246094 373.828125 L 97.921875 373.9375 L 97.589844 374.03125 L 97.25 374.105469 L 96.898438 374.164062 L 96.539062 374.207031 L 96.171875 374.230469 L 95.792969 374.238281 L 95.136719 374.214844 L 94.5 374.144531 L 93.886719 374.023438 L 93.289062 373.855469 L 92.714844 373.640625 L 92.164062 373.375 L 91.628906 373.0625 L 91.117188 372.703125 L 90.625 372.296875 L 90.152344 371.839844 L 91.230469 370.789062 L 91.425781 370.988281 L 91.621094 371.175781 L 91.816406 371.351562 L 92.019531 371.519531 L 92.222656 371.675781 L 92.425781 371.820312 L 92.632812 371.953125 L 92.84375 372.078125 L 93.054688 372.1875 L 93.269531 372.289062 L 93.492188 372.382812 L 93.71875 372.460938 L 93.953125 372.535156 L 94.191406 372.597656 L 94.441406 372.648438 L 94.695312 372.691406 L 94.960938 372.726562 L 95.230469 372.75 L 95.507812 372.765625 L 95.792969 372.769531 L 96.207031 372.753906 L 96.605469 372.714844 L 96.988281 372.644531 L 97.351562 372.542969 L 97.695312 372.417969 L 98.023438 372.261719 L 98.332031 372.078125 L 98.625 371.867188 L 98.894531 371.628906 L 99.152344 371.359375 L 99.386719 371.0625 L 99.59375 370.742188 L 99.777344 370.402344 L 99.9375 370.042969 L 100.074219 369.664062 L 100.183594 369.265625 L 100.269531 368.84375 L 100.332031 368.402344 L 100.367188 367.941406 L 100.382812 367.460938 L 100.371094 366.992188 L 100.335938 366.550781 L 100.277344 366.128906 L 100.199219 365.738281 L 100.097656 365.367188 L 99.972656 365.023438 L 99.824219 364.703125 L 99.652344 364.40625 L 99.457031 364.136719 L 99.242188 363.890625 L 99.011719 363.660156 L 98.765625 363.457031 L 98.503906 363.277344 L 98.222656 363.121094 L 97.929688 362.988281 L 97.617188 362.882812 L 97.289062 362.796875 L 96.945312 362.738281 L 96.585938 362.703125 L 96.210938 362.691406 L 96.019531 362.691406 L 95.835938 362.699219 L 95.652344 362.710938 L 95.476562 362.726562 L 95.304688 362.75 L 95.136719 362.777344 L 94.96875 362.808594 L 94.808594 362.84375 L 94.652344 362.882812 L 94.5 362.929688 L 94.355469 362.976562 L 94.207031 363.027344 L 94.054688 363.082031 L 93.898438 363.144531 L 93.738281 363.214844 L 93.574219 363.289062 L 93.40625 363.371094 L 93.234375 363.457031 L 93.058594 363.550781 L 92.882812 363.648438 L 91.5 363.648438 L 91.5 353.960938 L 101.550781 353.960938 Z M 101.28125 355.398438 "/>
<path fill-rule="nonzero" fill="rgb(10.196078%, 10.196078%, 10.196078%)" fill-opacity="1" d="M 190.882812 353.628906 L 191.488281 353.65625 L 192.058594 353.734375 L 192.601562 353.867188 L 193.117188 354.050781 L 193.597656 354.289062 L 194.050781 354.582031 L 194.476562 354.921875 L 194.867188 355.320312 L 195.230469 355.769531 L 195.5625 356.269531 L 195.867188 356.816406 L 196.136719 357.414062 L 196.375 358.058594 L 196.582031 358.75 L 196.757812 359.496094 L 196.898438 360.289062 L 197.011719 361.128906 L 197.089844 362.019531 L 197.136719 362.960938 L 197.152344 363.949219 L 197.136719 364.933594 L 197.089844 365.871094 L 197.007812 366.757812 L 196.894531 367.597656 L 196.75 368.390625 L 196.570312 369.132812 L 196.359375 369.828125 L 196.117188 370.476562 L 195.84375 371.078125 L 195.535156 371.628906 L 195.203125 372.125 L 194.839844 372.570312 L 194.449219 372.960938 L 194.027344 373.300781 L 193.578125 373.585938 L 193.097656 373.820312 L 192.589844 374.003906 L 192.050781 374.136719 L 191.480469 374.214844 L 190.882812 374.238281 L 190.28125 374.214844 L 189.707031 374.136719 L 189.164062 374.003906 L 188.652344 373.820312 L 188.167969 373.585938 L 187.714844 373.300781 L 187.292969 372.960938 L 186.898438 372.570312 L 186.539062 372.125 L 186.203125 371.628906 L 185.902344 371.078125 L 185.632812 370.476562 L 185.394531 369.828125 L 185.1875 369.128906 L 185.011719 368.382812 L 184.867188 367.585938 L 184.757812 366.742188 L 184.679688 365.851562 L 184.628906 364.910156 L 184.613281 363.917969 L 184.628906 362.929688 L 184.679688 361.988281 L 184.757812 361.097656 L 184.867188 360.257812 L 185.011719 359.464844 L 185.1875 358.722656 L 185.394531 358.027344 L 185.632812 357.382812 L 185.902344 356.785156 L 186.203125 356.238281 L 186.539062 355.742188 L 186.898438 355.300781 L 187.292969 354.910156 L 187.714844 354.570312 L 188.167969 354.28125 L 188.652344 354.046875 L 189.164062 353.863281 L 189.707031 353.734375 L 190.28125 353.65625 Z M 190.882812 355.070312 L 190.035156 355.160156 L 189.273438 355.421875 L 188.605469 355.867188 L 188.023438 356.484375 L 187.53125 357.28125 L 187.128906 358.253906 L 186.816406 359.40625 L 186.59375 360.734375 L 186.457031 362.238281 L 186.414062 363.917969 L 186.457031 365.605469 L 186.59375 367.117188 L 186.816406 368.449219 L 187.128906 369.601562 L 187.53125 370.578125 L 188.023438 371.378906 L 188.605469 372 L 189.273438 372.445312 L 190.035156 372.710938 L 190.882812 372.800781 L 191.3125 372.777344 L 191.71875 372.714844 L 192.101562 372.605469 L 192.464844 372.453125 L 192.804688 372.261719 L 193.125 372.023438 L 193.421875 371.742188 L 193.695312 371.417969 L 193.953125 371.050781 L 194.183594 370.640625 L 194.402344 370.183594 L 194.59375 369.679688 L 194.765625 369.128906 L 194.914062 368.53125 L 195.039062 367.886719 L 195.140625 367.195312 L 195.222656 366.453125 L 195.277344 365.667969 L 195.3125 364.832031 L 195.324219 363.949219 L 195.3125 363.066406 L 195.277344 362.234375 L 195.222656 361.445312 L 195.140625 360.703125 L 195.039062 360.011719 L 194.914062 359.367188 L 194.765625 358.769531 L 194.59375 358.21875 L 194.402344 357.714844 L 194.183594 357.261719 L 193.953125 356.84375 L 193.695312 356.472656 L 193.421875 356.144531 L 193.125 355.859375 L 192.804688 355.617188 L 192.464844 355.421875 L 192.101562 355.265625 L 191.71875 355.15625 L 191.3125 355.089844 Z M 190.882812 355.070312 "/>
<path fill-rule="nonzero" fill="rgb(10.196078%, 10.196078%, 10.196078%)" fill-opacity="1" d="M 296.191406 355.398438 L 288.09375 355.398438 L 288.09375 362.210938 L 288.421875 362.03125 L 288.757812 361.875 L 289.09375 361.734375 L 289.429688 361.613281 L 289.773438 361.511719 L 290.117188 361.429688 L 290.460938 361.363281 L 290.808594 361.316406 L 291.160156 361.289062 L 291.511719 361.28125 L 292.015625 361.296875 L 292.5 361.347656 L 292.964844 361.429688 L 293.402344 361.546875 L 293.820312 361.699219 L 294.21875 361.882812 L 294.59375 362.101562 L 294.949219 362.355469 L 295.28125 362.640625 L 295.59375 362.960938 L 295.882812 363.300781 L 296.144531 363.667969 L 296.371094 364.058594 L 296.570312 364.476562 L 296.738281 364.917969 L 296.878906 365.382812 L 296.984375 365.871094 L 297.0625 366.386719 L 297.105469 366.925781 L 297.121094 367.488281 L 297.113281 367.875 L 297.089844 368.253906 L 297.050781 368.625 L 296.992188 368.988281 L 296.917969 369.34375 L 296.832031 369.6875 L 296.726562 370.027344 L 296.605469 370.359375 L 296.464844 370.683594 L 296.3125 371 L 296.148438 371.300781 L 295.972656 371.585938 L 295.78125 371.859375 L 295.578125 372.117188 L 295.359375 372.363281 L 295.128906 372.597656 L 294.882812 372.820312 L 294.621094 373.023438 L 294.347656 373.21875 L 294.0625 373.398438 L 293.769531 373.558594 L 293.46875 373.703125 L 293.15625 373.828125 L 292.832031 373.9375 L 292.503906 374.03125 L 292.160156 374.105469 L 291.8125 374.164062 L 291.449219 374.207031 L 291.082031 374.230469 L 290.703125 374.238281 L 290.046875 374.214844 L 289.410156 374.144531 L 288.796875 374.023438 L 288.203125 373.855469 L 287.628906 373.640625 L 287.074219 373.375 L 286.539062 373.0625 L 286.027344 372.703125 L 285.535156 372.296875 L 285.0625 371.839844 L 286.140625 370.789062 L 286.335938 370.988281 L 286.53125 371.175781 L 286.730469 371.351562 L 286.929688 371.519531 L 287.132812 371.675781 L 287.335938 371.820312 L 287.546875 371.953125 L 287.753906 372.078125 L 287.96875 372.1875 L 288.183594 372.289062 L 288.402344 372.382812 L 288.628906 372.460938 L 288.863281 372.535156 L 289.105469 372.597656 L 289.351562 372.648438 L 289.609375 372.691406 L 289.871094 372.726562 L 290.140625 372.75 L 290.417969 372.765625 L 290.703125 372.769531 L 291.121094 372.753906 L 291.519531 372.714844 L 291.898438 372.644531 L 292.261719 372.542969 L 292.605469 372.417969 L 292.933594 372.261719 L 293.242188 372.078125 L 293.535156 371.867188 L 293.808594 371.628906 L 294.0625 371.359375 L 294.296875 371.0625 L 294.503906 370.742188 L 294.691406 370.402344 L 294.847656 370.042969 L 294.984375 369.664062 L 295.09375 369.265625 L 295.179688 368.84375 L 295.242188 368.402344 L 295.28125 367.941406 L 295.292969 367.460938 L 295.28125 366.992188 L 295.246094 366.550781 L 295.191406 366.128906 L 295.109375 365.738281 L 295.007812 365.367188 L 294.882812 365.023438 L 294.734375 364.703125 L 294.5625 364.40625 L 294.367188 364.136719 L 294.152344 363.890625 L 293.921875 363.660156 L 293.675781 363.457031 L 293.414062 363.277344 L 293.132812 363.121094 L 292.839844 362.988281 L 292.527344 362.882812 L 292.203125 362.796875 L 291.859375 362.738281 L 291.5 362.703125 L 291.121094 362.691406 L 290.933594 362.691406 L 290.746094 362.699219 L 290.566406 362.710938 L 290.386719 362.726562 L 290.214844 362.75 L 290.046875 362.777344 L 289.882812 362.808594 L 289.71875 362.84375 L 289.5625 362.882812 L 289.265625 362.976562 L 289.117188 363.027344 L 288.964844 363.082031 L 288.808594 363.144531 L 288.648438 363.214844 L 288.484375 363.289062 L 288.316406 363.371094 L 288.144531 363.457031 L 287.96875 363.550781 L 287.792969 363.648438 L 286.414062 363.648438 L 286.414062 353.960938 L 296.460938 353.960938 Z M 296.191406 355.398438 "/>
<path fill-rule="nonzero" fill="rgb(10.196078%, 10.196078%, 10.196078%)" fill-opacity="1" d="M 386.125 353.960938 L 386.125 373.910156 L 384.386719 373.910156 L 384.386719 355.878906 L 379.464844 358.941406 L 378.65625 357.648438 L 384.625 353.960938 Z M 386.125 353.960938 "/>
<path fill-rule="nonzero" fill="rgb(10.196078%, 10.196078%, 10.196078%)" fill-opacity="1" d="M 398.003906 353.628906 L 398.609375 353.65625 L 399.179688 353.734375 L 399.722656 353.867188 L 400.238281 354.050781 L 400.71875 354.289062 L 401.171875 354.582031 L 401.597656 354.921875 L 401.988281 355.320312 L 402.351562 355.769531 L 402.683594 356.269531 L 402.988281 356.816406 L 403.257812 357.414062 L 403.496094 358.058594 L 403.703125 358.75 L 403.878906 359.496094 L 404.019531 360.289062 L 404.132812 361.128906 L 404.210938 362.019531 L 404.257812 362.960938 L 404.273438 363.949219 L 404.257812 364.933594 L 404.210938 365.871094 L 404.128906 366.757812 L 404.015625 367.597656 L 403.871094 368.390625 L 403.691406 369.132812 L 403.480469 369.828125 L 403.238281 370.476562 L 402.964844 371.078125 L 402.65625 371.628906 L 402.324219 372.125 L 401.960938 372.570312 L 401.570312 372.960938 L 401.148438 373.300781 L 400.699219 373.585938 L 400.21875 373.820312 L 399.707031 374.003906 L 399.171875 374.136719 L 398.601562 374.214844 L 398.003906 374.238281 L 397.402344 374.214844 L 396.828125 374.136719 L 396.285156 374.003906 L 395.773438 373.820312 L 395.289062 373.585938 L 394.835938 373.300781 L 394.414062 372.960938 L 394.019531 372.570312 L 393.65625 372.125 L 393.324219 371.628906 L 393.023438 371.078125 L 392.753906 370.476562 L 392.515625 369.828125 L 392.308594 369.128906 L 392.132812 368.382812 L 391.988281 367.585938 L 391.878906 366.742188 L 391.796875 365.851562 L 391.75 364.910156 L 391.734375 363.917969 L 391.75 362.929688 L 391.796875 361.988281 L 391.878906 361.097656 L 391.988281 360.257812 L 392.132812 359.464844 L 392.308594 358.722656 L 392.515625 358.027344 L 392.753906 357.382812 L 393.023438 356.785156 L 393.324219 356.238281 L 393.65625 355.742188 L 394.019531 355.300781 L 394.414062 354.910156 L 394.835938 354.570312 L 395.289062 354.28125 L 395.773438 354.046875 L 396.285156 353.863281 L 396.828125 353.734375 L 397.402344 353.65625 Z M 398.003906 355.070312 L 397.15625 355.160156 L 396.394531 355.421875 L 395.726562 355.867188 L 395.144531 356.484375 L 394.652344 357.28125 L 394.25 358.253906 L 393.9375 359.40625 L 393.714844 360.734375 L 393.578125 362.238281 L 393.535156 363.917969 L 393.578125 365.605469 L 393.714844 367.117188 L 393.9375 368.449219 L 394.25 369.601562 L 394.652344 370.578125 L 395.144531 371.378906 L 395.726562 372 L 396.394531 372.445312 L 397.15625 372.710938 L 398.003906 372.800781 L 398.433594 372.777344 L 398.839844 372.714844 L 399.222656 372.605469 L 399.585938 372.453125 L 399.925781 372.261719 L 400.246094 372.023438 L 400.542969 371.742188 L 400.816406 371.417969 L 401.074219 371.050781 L 401.304688 370.640625 L 401.523438 370.183594 L 401.714844 369.679688 L 401.886719 369.128906 L 402.035156 368.53125 L 402.160156 367.886719 L 402.261719 367.195312 L 402.34375 366.453125 L 402.398438 365.667969 L 402.433594 364.832031 L 402.445312 363.949219 L 402.433594 363.066406 L 402.398438 362.234375 L 402.34375 361.445312 L 402.261719 360.703125 L 402.160156 360.011719 L 402.035156 359.367188 L 401.886719 358.769531 L 401.714844 358.21875 L 401.523438 357.714844 L 401.304688 357.261719 L 401.074219 356.84375 L 400.816406 356.472656 L 400.542969 356.144531 L 400.246094 355.859375 L 399.925781 355.617188 L 399.585938 355.421875 L 399.222656 355.265625 L 398.839844 355.15625 L 398.433594 355.089844 Z M 398.003906 355.070312 "/>
</svg>
