<?xml version="1.0" encoding="UTF-8"?>
<svg xmlns="http://www.w3.org/2000/svg" xmlns:xlink="http://www.w3.org/1999/xlink" width="432" height="396" viewBox="0 0 432 396">
<defs>
<clipPath id="clip-0">
<path clip-rule="nonzero" d="M 23.910156 15.941406 L 416.058594 15.941406 L 416.058594 339.015625 L 23.910156 339.015625 Z M 23.910156 15.941406 "/>
</clipPath>
<clipPath id="clip-1">
<path clip-rule="nonzero" d="M 322 15.941406 L 325 15.941406 L 325 339.015625 L 322 339.015625 Z M 322 15.941406 "/>
</clipPath>
</defs>
<rect x="-43.2" y="-39.6" width="518.4" height="475.2" fill="rgb(100%, 100%, 100%)" fill-opacity="1"/>
<rect x="-43.2" y="-39.6" width="518.4" height="475.2" fill="rgb(95.294118%, 95.294118%, 95.294118%)" fill-opacity="1"/>
<path fill="none" stroke-width="3.103937" stroke-linecap="round" stroke-linejoin="round" stroke="rgb(95.294118%, 95.294118%, 95.294118%)" stroke-opacity="1" stroke-miterlimit="10" d="M 0 396 L 432 396 L 432 0 L 0 0 Z M 0 396 "/>
<g clip-path="url(#clip-0)">
<path fill-rule="nonzero" fill="rgb(95.294118%, 95.294118%, 95.294118%)" fill-opacity="1" stroke-width="3.103937" stroke-linecap="round" stroke-linejoin="round" stroke="rgb(95.294118%, 95.294118%, 95.294118%)" stroke-opacity="1" stroke-miterlimit="10" d="M 23.910156 339.011719 L 416.058594 339.011719 L 416.058594 15.9375 L 23.910156 15.9375 Z M 23.910156 339.011719 "/>
</g>
<path fill-rule="nonzero" fill="rgb(56.078431%, 16.470588%, 26.27451%)" fill-opacity="0.8" d="M 41.734375 324.328125 L 53.617188 324.328125 L 53.617188 180.738281 L 41.734375 180.738281 Z M 41.734375 324.328125 "/>
<path fill-rule="nonzero" fill="rgb(56.078431%, 16.470588%, 26.27451%)" fill-opacity="0.8" d="M 113.035156 324.328125 L 124.917969 324.328125 L 124.917969 61.082031 L 113.035156 61.082031 Z M 113.035156 324.328125 "/>
<path fill-rule="nonzero" fill="rgb(56.078431%, 16.470588%, 26.27451%)" fill-opacity="0.8" d="M 184.335938 324.328125 L 196.21875 324.328125 L 196.21875 30.625 L 184.335938 30.625 Z M 184.335938 324.328125 "/>
<path fill-rule="nonzero" fill="rgb(56.078431%, 16.470588%, 26.27451%)" fill-opacity="0.8" d="M 243.75 324.328125 L 255.632812 324.328125 L 255.632812 227.515625 L 243.75 227.515625 Z M 243.75 324.328125 "/>
<path fill-rule="nonzero" fill="rgb(56.078431%, 16.470588%, 26.27451%)" fill-opacity="0.8" d="M 315.050781 324.328125 L 326.933594 324.328125 L 326.933594 151.371094 L 315.050781 151.371094 Z M 315.050781 324.328125 "/>
<path fill-rule="nonzero" fill="rgb(56.078431%, 16.470588%, 26.27451%)" fill-opacity="0.8" d="M 386.351562 324.328125 L 398.234375 324.328125 L 398.234375 206.847656 L 386.351562 206.847656 Z M 386.351562 324.328125 "/>
<g clip-path="url(#clip-1)">
<path fill="none" stroke-width="1.920561" stroke-linecap="butt" stroke-linejoin="round" stroke="rgb(0%, 0%, 0%)" stroke-opacity="1" stroke-dasharray="7.682244 7.682244" stroke-miterlimit="10" d="M 323.371094 339.011719 L 323.371094 15.941406 "/>
</g>
<path fill-rule="nonzero" fill="rgb(10.196078%, 10.196078%, 10.196078%)" fill-opacity="1" d="M 104.75 373.128906 L 104.75 371.960938 L 109.25 371.960938 L 109.25 356.058594 L 105.832031 356.058594 L 105.832031 355.160156 L 106.0625 355.117188 L 106.289062 355.070312 L 106.511719 355.027344 L 106.941406 354.925781 L 107.148438 354.875 L 107.351562 354.820312 L 107.546875 354.765625 L 107.742188 354.707031 L 107.929688 354.648438 L 108.113281 354.589844 L 108.292969 354.527344 L 108.464844 354.460938 L 108.632812 354.394531 L 108.792969 354.328125 L 108.949219 354.257812 L 109.101562 354.1875 L 109.246094 354.113281 L 109.386719 354.035156 L 109.519531 353.960938 L 110.601562 353.960938 L 110.601562 371.960938 L 114.769531 371.960938 L 114.769531 373.128906 Z M 104.75 373.128906 "/>
<path fill-rule="nonzero" fill="rgb(10.196078%, 10.196078%, 10.196078%)" fill-opacity="1" d="M 123.410156 373.488281 L 123.109375 373.484375 L 122.8125 373.472656 L 122.527344 373.453125 L 122.25 373.425781 L 121.976562 373.390625 L 121.714844 373.347656 L 121.460938 373.296875 L 121.210938 373.238281 L 120.972656 373.175781 L 120.738281 373.101562 L 120.519531 373.019531 L 120.308594 372.933594 L 120.101562 372.847656 L 119.898438 372.753906 L 119.707031 372.65625 L 119.515625 372.554688 L 119.332031 372.449219 L 119.15625 372.339844 L 118.984375 372.226562 L 118.820312 372.109375 L 118.660156 371.988281 L 118.503906 371.871094 L 118.199219 371.628906 L 118.054688 371.511719 L 117.773438 371.269531 L 117.640625 371.148438 L 117.507812 371.03125 L 117.378906 370.910156 L 118.128906 369.980469 L 118.308594 370.152344 L 118.492188 370.324219 L 118.683594 370.492188 L 118.878906 370.65625 L 119.082031 370.820312 L 119.292969 370.980469 L 119.511719 371.140625 L 119.734375 371.296875 L 119.964844 371.449219 L 120.199219 371.601562 L 120.453125 371.738281 L 120.722656 371.859375 L 121.003906 371.96875 L 121.300781 372.0625 L 121.609375 372.140625 L 121.933594 372.203125 L 122.273438 372.253906 L 122.628906 372.289062 L 122.996094 372.3125 L 123.378906 372.320312 L 123.636719 372.3125 L 123.886719 372.292969 L 124.136719 372.261719 L 124.378906 372.21875 L 124.617188 372.164062 L 124.851562 372.09375 L 125.082031 372.011719 L 125.308594 371.917969 L 125.53125 371.808594 L 125.75 371.691406 L 125.960938 371.550781 L 126.164062 371.40625 L 126.359375 371.246094 L 126.546875 371.082031 L 126.726562 370.902344 L 126.894531 370.714844 L 127.054688 370.515625 L 127.210938 370.308594 L 127.355469 370.089844 L 127.488281 369.859375 L 127.617188 369.621094 L 127.726562 369.378906 L 127.828125 369.125 L 127.914062 368.867188 L 127.984375 368.601562 L 128.042969 368.328125 L 128.089844 368.046875 L 128.125 367.757812 L 128.144531 367.460938 L 128.148438 367.160156 L 128.136719 366.707031 L 128.097656 366.273438 L 128.035156 365.863281 L 127.945312 365.46875 L 127.828125 365.097656 L 127.6875 364.746094 L 127.519531 364.410156 L 127.324219 364.097656 L 127.105469 363.804688 L 126.859375 363.53125 L 126.597656 363.277344 L 126.320312 363.054688 L 126.027344 362.855469 L 125.714844 362.683594 L 125.382812 362.539062 L 125.035156 362.421875 L 124.667969 362.328125 L 124.289062 362.261719 L 123.886719 362.222656 L 123.46875 362.210938 L 123.25 362.214844 L 123.039062 362.222656 L 122.832031 362.242188 L 122.628906 362.265625 L 122.433594 362.300781 L 122.246094 362.339844 L 122.0625 362.386719 L 121.886719 362.441406 L 121.714844 362.5 L 121.550781 362.570312 L 121.394531 362.636719 L 121.234375 362.710938 L 121.074219 362.792969 L 120.910156 362.878906 L 120.746094 362.96875 L 120.582031 363.0625 L 120.414062 363.164062 L 120.246094 363.269531 L 120.074219 363.382812 L 119.898438 363.5 L 118.96875 362.929688 L 119.660156 353.960938 L 128.511719 353.960938 L 128.511719 355.128906 L 120.859375 355.128906 L 120.261719 362.058594 L 120.410156 361.972656 L 120.5625 361.886719 L 120.714844 361.804688 L 120.871094 361.730469 L 121.023438 361.65625 L 121.183594 361.585938 L 121.339844 361.519531 L 121.5 361.453125 L 121.660156 361.394531 L 121.820312 361.339844 L 121.984375 361.28125 L 122.152344 361.230469 L 122.328125 361.1875 L 122.507812 361.148438 L 122.691406 361.113281 L 122.878906 361.085938 L 123.070312 361.066406 L 123.269531 361.050781 L 123.472656 361.042969 L 123.679688 361.039062 L 124 361.046875 L 124.316406 361.066406 L 124.625 361.097656 L 124.929688 361.144531 L 125.226562 361.203125 L 125.515625 361.277344 L 125.800781 361.363281 L 126.082031 361.460938 L 126.351562 361.574219 L 126.621094 361.699219 L 126.882812 361.832031 L 127.136719 361.980469 L 127.378906 362.140625 L 127.609375 362.320312 L 127.828125 362.511719 L 128.035156 362.714844 L 128.230469 362.933594 L 128.414062 363.167969 L 128.589844 363.417969 L 128.75 363.679688 L 128.898438 363.953125 L 129.03125 364.238281 L 129.148438 364.542969 L 129.25 364.859375 L 129.335938 365.195312 L 129.40625 365.542969 L 129.460938 365.910156 L 129.5 366.289062 L 129.523438 366.6875 L 129.53125 367.101562 L 129.519531 367.5 L 129.496094 367.890625 L 129.449219 368.269531 L 129.386719 368.636719 L 129.304688 368.988281 L 129.207031 369.332031 L 129.089844 369.660156 L 128.953125 369.980469 L 128.800781 370.285156 L 128.628906 370.578125 L 128.449219 370.855469 L 128.261719 371.117188 L 128.058594 371.367188 L 127.847656 371.601562 L 127.625 371.824219 L 127.390625 372.035156 L 127.148438 372.230469 L 126.894531 372.414062 L 126.625 372.582031 L 126.351562 372.738281 L 126.074219 372.882812 L 125.789062 373.011719 L 125.507812 373.121094 L 125.21875 373.21875 L 124.925781 373.300781 L 124.628906 373.371094 L 124.328125 373.421875 L 124.027344 373.460938 L 123.71875 373.480469 Z M 123.410156 373.488281 "/>
<path fill-rule="nonzero" fill="rgb(10.196078%, 10.196078%, 10.196078%)" fill-opacity="1" d="M 241.308594 373.128906 L 241.308594 372.289062 L 241.925781 371.65625 L 242.523438 371.039062 L 243.101562 370.441406 L 243.660156 369.859375 L 244.195312 369.296875 L 244.707031 368.75 L 245.203125 368.222656 L 245.675781 367.710938 L 246.125 367.214844 L 246.558594 366.738281 L 246.964844 366.269531 L 247.355469 365.8125 L 247.722656 365.363281 L 248.070312 364.925781 L 248.394531 364.496094 L 248.699219 364.078125 L 248.980469 363.671875 L 249.246094 363.273438 L 249.484375 362.886719 L 249.707031 362.511719 L 249.90625 362.140625 L 250.085938 361.773438 L 250.242188 361.414062 L 250.378906 361.054688 L 250.496094 360.703125 L 250.589844 360.351562 L 250.664062 360.007812 L 250.714844 359.667969 L 250.746094 359.332031 L 250.757812 359 L 250.746094 358.644531 L 250.714844 358.300781 L 250.664062 357.972656 L 250.59375 357.652344 L 250.5 357.34375 L 250.390625 357.046875 L 250.257812 356.757812 L 250.105469 356.484375 L 249.929688 356.222656 L 249.738281 355.96875 L 249.527344 355.734375 L 249.292969 355.527344 L 249.039062 355.34375 L 248.757812 355.183594 L 248.453125 355.046875 L 248.128906 354.9375 L 247.777344 354.851562 L 247.402344 354.789062 L 247.007812 354.753906 L 246.585938 354.738281 L 246.328125 354.746094 L 246.074219 354.769531 L 245.824219 354.804688 L 245.574219 354.855469 L 245.328125 354.917969 L 245.082031 355 L 244.839844 355.09375 L 244.597656 355.199219 L 244.363281 355.324219 L 244.125 355.460938 L 243.902344 355.605469 L 243.679688 355.761719 L 243.46875 355.925781 L 243.257812 356.09375 L 243.054688 356.269531 L 242.855469 356.453125 L 242.664062 356.644531 L 242.476562 356.84375 L 242.292969 357.046875 L 242.117188 357.261719 L 241.246094 356.417969 L 241.464844 356.183594 L 241.6875 355.957031 L 241.917969 355.734375 L 242.148438 355.523438 L 242.386719 355.316406 L 242.628906 355.121094 L 242.875 354.929688 L 243.128906 354.75 L 243.386719 354.574219 L 243.648438 354.410156 L 243.914062 354.257812 L 244.191406 354.117188 L 244.476562 353.996094 L 244.769531 353.890625 L 245.070312 353.800781 L 245.382812 353.730469 L 245.699219 353.671875 L 246.027344 353.632812 L 246.363281 353.609375 L 246.707031 353.601562 L 247.210938 353.613281 L 247.691406 353.660156 L 248.148438 353.730469 L 248.582031 353.835938 L 248.996094 353.96875 L 249.382812 354.128906 L 249.746094 354.320312 L 250.085938 354.539062 L 250.402344 354.789062 L 250.695312 355.070312 L 250.964844 355.375 L 251.203125 355.695312 L 251.414062 356.039062 L 251.597656 356.398438 L 251.753906 356.78125 L 251.882812 357.179688 L 251.980469 357.597656 L 252.050781 358.035156 L 252.09375 358.492188 L 252.105469 358.96875 L 252.09375 359.347656 L 252.0625 359.726562 L 252.007812 360.109375 L 251.929688 360.492188 L 251.828125 360.875 L 251.707031 361.257812 L 251.5625 361.644531 L 251.394531 362.03125 L 251.207031 362.421875 L 250.996094 362.808594 L 250.773438 363.203125 L 250.527344 363.601562 L 250.269531 364.007812 L 249.988281 364.417969 L 249.691406 364.835938 L 249.375 365.257812 L 249.042969 365.6875 L 248.691406 366.121094 L 248.324219 366.5625 L 247.9375 367.011719 L 247.539062 367.464844 L 247.128906 367.933594 L 246.703125 368.410156 L 246.261719 368.902344 L 245.808594 369.402344 L 245.335938 369.914062 L 244.855469 370.4375 L 244.355469 370.972656 L 243.84375 371.519531 L 243.316406 372.078125 L 243.472656 372.066406 L 243.628906 372.058594 L 243.789062 372.046875 L 243.945312 372.035156 L 244.105469 372.027344 L 244.261719 372.019531 L 244.582031 372.003906 L 244.746094 371.996094 L 244.90625 371.988281 L 245.074219 371.976562 L 245.242188 371.96875 L 245.570312 371.953125 L 245.730469 371.945312 L 245.894531 371.9375 L 246.054688 371.933594 L 246.210938 371.933594 L 246.371094 371.929688 L 253.066406 371.929688 L 253.066406 373.128906 Z M 241.308594 373.128906 "/>
<path fill-rule="nonzero" fill="rgb(10.196078%, 10.196078%, 10.196078%)" fill-opacity="1" d="M 261.617188 373.488281 L 261.082031 373.464844 L 260.574219 373.386719 L 260.089844 373.253906 L 259.628906 373.070312 L 259.195312 372.835938 L 258.785156 372.550781 L 258.398438 372.210938 L 258.035156 371.820312 L 257.699219 371.375 L 257.386719 370.878906 L 257.101562 370.335938 L 256.847656 369.75 L 256.621094 369.117188 L 256.425781 368.441406 L 256.261719 367.722656 L 256.125 366.960938 L 256.023438 366.152344 L 255.945312 365.300781 L 255.902344 364.40625 L 255.886719 363.46875 L 255.902344 362.539062 L 255.945312 361.652344 L 256.023438 360.808594 L 256.125 360.007812 L 256.261719 359.253906 L 256.425781 358.546875 L 256.621094 357.878906 L 256.847656 357.257812 L 257.101562 356.683594 L 257.386719 356.148438 L 257.699219 355.664062 L 258.035156 355.230469 L 258.398438 354.847656 L 258.785156 354.519531 L 259.195312 354.238281 L 259.628906 354.007812 L 260.089844 353.828125 L 260.574219 353.703125 L 261.082031 353.625 L 261.617188 353.601562 L 262.15625 353.625 L 262.667969 353.703125 L 263.15625 353.828125 L 263.617188 354.007812 L 264.054688 354.238281 L 264.464844 354.519531 L 264.847656 354.847656 L 265.207031 355.230469 L 265.539062 355.664062 L 265.847656 356.148438 L 266.132812 356.683594 L 266.386719 357.257812 L 266.613281 357.878906 L 266.808594 358.546875 L 266.972656 359.253906 L 267.105469 360.007812 L 267.210938 360.808594 L 267.285156 361.652344 L 267.332031 362.539062 L 267.347656 363.46875 L 267.332031 364.40625 L 267.285156 365.300781 L 267.210938 366.152344 L 267.105469 366.960938 L 266.972656 367.722656 L 266.808594 368.441406 L 266.613281 369.117188 L 266.386719 369.75 L 266.132812 370.335938 L 265.847656 370.878906 L 265.539062 371.375 L 265.207031 371.820312 L 264.847656 372.210938 L 264.464844 372.550781 L 264.054688 372.835938 L 263.617188 373.070312 L 263.15625 373.253906 L 262.667969 373.386719 L 262.15625 373.464844 Z M 261.617188 372.351562 L 262.011719 372.328125 L 262.386719 372.261719 L 262.746094 372.148438 L 263.089844 371.988281 L 263.417969 371.789062 L 263.726562 371.539062 L 264.019531 371.246094 L 264.296875 370.910156 L 264.554688 370.527344 L 264.796875 370.101562 L 265.023438 369.628906 L 265.230469 369.113281 L 265.410156 368.558594 L 265.566406 367.957031 L 265.695312 367.316406 L 265.804688 366.632812 L 265.890625 365.90625 L 265.949219 365.136719 L 265.984375 364.324219 L 265.996094 363.46875 L 265.984375 362.617188 L 265.949219 361.804688 L 265.890625 361.042969 L 265.804688 360.320312 L 265.695312 359.644531 L 265.566406 359.011719 L 265.410156 358.425781 L 265.230469 357.882812 L 265.023438 357.382812 L 264.796875 356.929688 L 264.554688 356.515625 L 264.296875 356.140625 L 264.019531 355.8125 L 263.726562 355.527344 L 263.417969 355.289062 L 263.089844 355.089844 L 262.746094 354.9375 L 262.386719 354.828125 L 262.011719 354.761719 L 261.617188 354.738281 L 261.226562 354.761719 L 260.855469 354.828125 L 260.5 354.9375 L 260.15625 355.089844 L 259.832031 355.289062 L 259.519531 355.527344 L 259.226562 355.8125 L 258.949219 356.140625 L 258.683594 356.515625 L 258.4375 356.929688 L 258.207031 357.382812 L 258.003906 357.882812 L 257.824219 358.425781 L 257.667969 359.011719 L 257.535156 359.644531 L 257.429688 360.320312 L 257.34375 361.042969 L 257.285156 361.804688 L 257.25 362.617188 L 257.238281 363.46875 L 257.25 364.324219 L 257.285156 365.136719 L 257.34375 365.90625 L 257.429688 366.632812 L 257.535156 367.316406 L 257.667969 367.957031 L 257.824219 368.558594 L 258.003906 369.113281 L 258.207031 369.628906 L 258.4375 370.101562 L 258.683594 370.527344 L 258.949219 370.910156 L 259.226562 371.246094 L 259.519531 371.539062 L 259.832031 371.789062 L 260.15625 371.988281 L 260.5 372.148438 L 260.855469 372.261719 L 261.226562 372.328125 Z M 261.617188 372.351562 "/>
<path fill-rule="nonzero" fill="rgb(10.196078%, 10.196078%, 10.196078%)" fill-opacity="1" d="M 379.152344 373.128906 L 379.152344 372.289062 L 379.773438 371.65625 L 380.371094 371.039062 L 380.949219 370.441406 L 381.503906 369.859375 L 382.039062 369.296875 L 382.554688 368.75 L 383.046875 368.222656 L 383.519531 367.710938 L 383.972656 367.214844 L 384.402344 366.738281 L 384.8125 366.269531 L 385.199219 365.8125 L 385.570312 365.363281 L 385.914062 364.925781 L 386.242188 364.496094 L 386.546875 364.078125 L 386.828125 363.671875 L 387.089844 363.273438 L 387.332031 362.886719 L 387.554688 362.511719 L 387.753906 362.140625 L 387.929688 361.773438 L 388.089844 361.414062 L 388.226562 361.054688 L 388.339844 360.703125 L 388.433594 360.351562 L 388.507812 360.007812 L 388.5625 359.667969 L 388.59375 359.332031 L 388.601562 359 L 388.59375 358.644531 L 388.5625 358.300781 L 388.511719 357.972656 L 388.441406 357.652344 L 388.347656 357.34375 L 388.234375 357.046875 L 388.101562 356.757812 L 387.949219 356.484375 L 387.777344 356.222656 L 387.582031 355.96875 L 387.375 355.734375 L 387.140625 355.527344 L 386.882812 355.34375 L 386.605469 355.183594 L 386.300781 355.046875 L 385.972656 354.9375 L 385.625 354.851562 L 385.25 354.789062 L 384.851562 354.753906 L 384.433594 354.738281 L 384.175781 354.746094 L 383.921875 354.769531 L 383.671875 354.804688 L 383.421875 354.855469 L 383.171875 354.917969 L 382.929688 355 L 382.6875 355.09375 L 382.445312 355.199219 L 382.207031 355.324219 L 381.972656 355.460938 L 381.746094 355.605469 L 381.527344 355.761719 L 381.3125 355.925781 L 381.105469 356.09375 L 380.902344 356.269531 L 380.703125 356.453125 L 380.507812 356.644531 L 380.320312 356.84375 L 380.140625 357.046875 L 379.964844 357.261719 L 379.09375 356.417969 L 379.3125 356.183594 L 379.535156 355.957031 L 379.761719 355.734375 L 379.996094 355.523438 L 380.234375 355.316406 L 380.476562 355.121094 L 380.722656 354.929688 L 380.976562 354.75 L 381.230469 354.574219 L 381.492188 354.410156 L 381.761719 354.257812 L 382.039062 354.117188 L 382.324219 353.996094 L 382.617188 353.890625 L 382.917969 353.800781 L 383.226562 353.730469 L 383.546875 353.671875 L 383.875 353.632812 L 384.210938 353.609375 L 384.554688 353.601562 L 385.058594 353.613281 L 385.539062 353.660156 L 385.996094 353.730469 L 386.429688 353.835938 L 386.839844 353.96875 L 387.226562 354.128906 L 387.59375 354.320312 L 387.933594 354.539062 L 388.25 354.789062 L 388.542969 355.070312 L 388.8125 355.375 L 389.050781 355.695312 L 389.261719 356.039062 L 389.445312 356.398438 L 389.601562 356.78125 L 389.726562 357.179688 L 389.828125 357.597656 L 389.898438 358.035156 L 389.9375 358.492188 L 389.953125 358.96875 L 389.941406 359.347656 L 389.910156 359.726562 L 389.851562 360.109375 L 389.777344 360.492188 L 389.675781 360.875 L 389.554688 361.257812 L 389.410156 361.644531 L 389.242188 362.03125 L 389.054688 362.421875 L 388.84375 362.808594 L 388.617188 363.203125 L 388.375 363.601562 L 388.113281 364.007812 L 387.835938 364.417969 L 387.539062 364.835938 L 387.222656 365.257812 L 386.890625 365.6875 L 386.539062 366.121094 L 386.171875 366.5625 L 385.78125 367.011719 L 385.386719 367.464844 L 384.972656 367.933594 L 384.546875 368.410156 L 384.109375 368.902344 L 383.652344 369.402344 L 383.183594 369.914062 L 382.699219 370.4375 L 382.203125 370.972656 L 381.691406 371.519531 L 381.164062 372.078125 L 381.320312 372.066406 L 381.476562 372.058594 L 381.632812 372.046875 L 381.792969 372.035156 L 381.949219 372.027344 L 382.589844 371.996094 L 382.753906 371.988281 L 382.921875 371.976562 L 383.578125 371.945312 L 383.738281 371.9375 L 383.898438 371.933594 L 384.058594 371.933594 L 384.214844 371.929688 L 390.914062 371.929688 L 390.914062 373.128906 Z M 379.152344 373.128906 "/>
<path fill-rule="nonzero" fill="rgb(10.196078%, 10.196078%, 10.196078%)" fill-opacity="1" d="M 399.101562 373.488281 L 398.800781 373.484375 L 398.507812 373.472656 L 398.21875 373.453125 L 397.941406 373.425781 L 397.671875 373.390625 L 397.40625 373.347656 L 397.152344 373.296875 L 396.90625 373.238281 L 396.664062 373.175781 L 396.433594 373.101562 L 396.214844 373.019531 L 396 372.933594 L 395.792969 372.847656 L 395.59375 372.753906 L 395.398438 372.65625 L 395.210938 372.554688 L 395.027344 372.449219 L 394.847656 372.339844 L 394.679688 372.226562 L 394.511719 372.109375 L 394.351562 371.988281 L 394.195312 371.871094 L 394.042969 371.75 L 393.894531 371.628906 L 393.75 371.511719 L 393.605469 371.390625 L 393.332031 371.148438 L 393.199219 371.03125 L 393.074219 370.910156 L 393.824219 369.980469 L 394 370.152344 L 394.183594 370.324219 L 394.375 370.492188 L 394.570312 370.65625 L 394.777344 370.820312 L 394.984375 370.980469 L 395.203125 371.140625 L 395.425781 371.296875 L 395.65625 371.449219 L 395.894531 371.601562 L 396.144531 371.738281 L 396.414062 371.859375 L 396.695312 371.96875 L 396.992188 372.0625 L 397.304688 372.140625 L 397.628906 372.203125 L 397.96875 372.253906 L 398.320312 372.289062 L 398.691406 372.3125 L 399.074219 372.320312 L 399.328125 372.3125 L 399.582031 372.292969 L 399.828125 372.261719 L 400.070312 372.21875 L 400.3125 372.164062 L 400.546875 372.09375 L 400.777344 372.011719 L 401.003906 371.917969 L 401.226562 371.808594 L 401.441406 371.691406 L 401.65625 371.550781 L 401.859375 371.40625 L 402.054688 371.246094 L 402.238281 371.082031 L 402.417969 370.902344 L 402.589844 370.714844 L 402.75 370.515625 L 402.902344 370.308594 L 403.046875 370.089844 L 403.183594 369.859375 L 403.308594 369.621094 L 403.421875 369.378906 L 403.519531 369.125 L 403.605469 368.867188 L 403.679688 368.601562 L 403.738281 368.328125 L 403.785156 368.046875 L 403.816406 367.757812 L 403.835938 367.460938 L 403.84375 367.160156 L 403.832031 366.707031 L 403.792969 366.273438 L 403.726562 365.863281 L 403.636719 365.46875 L 403.519531 365.097656 L 403.378906 364.746094 L 403.210938 364.410156 L 403.015625 364.097656 L 402.796875 363.804688 L 402.554688 363.53125 L 402.292969 363.277344 L 402.015625 363.054688 L 401.71875 362.855469 L 401.40625 362.683594 L 401.074219 362.539062 L 400.726562 362.421875 L 400.363281 362.328125 L 399.980469 362.261719 L 399.582031 362.222656 L 399.164062 362.210938 L 398.945312 362.214844 L 398.730469 362.222656 L 398.523438 362.242188 L 398.324219 362.265625 L 398.128906 362.300781 L 397.9375 362.339844 L 397.757812 362.386719 L 397.578125 362.441406 L 397.40625 362.5 L 397.242188 362.570312 L 397.085938 362.636719 L 396.925781 362.710938 L 396.765625 362.792969 L 396.605469 362.878906 L 396.441406 362.96875 L 396.273438 363.0625 L 396.105469 363.164062 L 395.9375 363.269531 L 395.765625 363.382812 L 395.59375 363.5 L 394.664062 362.929688 L 395.351562 353.960938 L 404.203125 353.960938 L 404.203125 355.128906 L 396.554688 355.128906 L 395.953125 362.058594 L 396.105469 361.972656 L 396.253906 361.886719 L 396.410156 361.804688 L 396.5625 361.730469 L 396.71875 361.65625 L 396.875 361.585938 L 397.03125 361.519531 L 397.191406 361.453125 L 397.351562 361.394531 L 397.511719 361.339844 L 397.675781 361.28125 L 397.847656 361.230469 L 398.019531 361.1875 L 398.199219 361.148438 L 398.382812 361.113281 L 398.570312 361.085938 L 398.765625 361.066406 L 398.960938 361.050781 L 399.164062 361.042969 L 399.375 361.039062 L 399.695312 361.046875 L 400.007812 361.066406 L 400.316406 361.097656 L 400.621094 361.144531 L 400.917969 361.203125 L 401.210938 361.277344 L 401.496094 361.363281 L 401.773438 361.460938 L 402.046875 361.574219 L 402.3125 361.699219 L 402.578125 361.832031 L 402.832031 361.980469 L 403.070312 362.140625 L 403.300781 362.320312 L 403.519531 362.511719 L 403.726562 362.714844 L 403.925781 362.933594 L 404.109375 363.167969 L 404.28125 363.417969 L 404.441406 363.679688 L 404.589844 363.953125 L 404.722656 364.238281 L 404.839844 364.542969 L 404.941406 364.859375 L 405.027344 365.195312 L 405.097656 365.542969 L 405.152344 365.910156 L 405.191406 366.289062 L 405.214844 366.6875 L 405.222656 367.101562 L 405.214844 367.5 L 405.1875 367.890625 L 405.140625 368.269531 L 405.078125 368.636719 L 405 368.988281 L 404.898438 369.332031 L 404.78125 369.660156 L 404.648438 369.980469 L 404.496094 370.285156 L 404.324219 370.578125 L 404.144531 370.855469 L 403.953125 371.117188 L 403.753906 371.367188 L 403.539062 371.601562 L 403.316406 371.824219 L 403.085938 372.035156 L 402.839844 372.230469 L 402.585938 372.414062 L 402.320312 372.582031 L 402.042969 372.738281 L 401.765625 372.882812 L 401.484375 373.011719 L 401.199219 373.121094 L 400.910156 373.21875 L 400.617188 373.300781 L 400.324219 373.371094 L 400.023438 373.421875 L 399.71875 373.460938 L 399.414062 373.480469 Z M 399.101562 373.488281 "/>
</svg>
