<?xml version="1.0" encoding="UTF-8"?>
<svg xmlns="http://www.w3.org/2000/svg" xmlns:xlink="http://www.w3.org/1999/xlink" width="792" height="324" viewBox="0 0 792 324">
<defs>
<clipPath id="clip-0">
<path clip-rule="nonzero" d="M 98.828125 13.449219 L 778.550781 13.449219 L 778.550781 271.613281 L 98.828125 271.613281 Z M 98.828125 13.449219 "/>
</clipPath>
<clipPath id="clip-1">
<path clip-rule="nonzero" d="M 98.828125 258 L 778.550781 258 L 778.550781 262 L 98.828125 262 Z M 98.828125 258 "/>
</clipPath>
<clipPath id="clip-2">
<path clip-rule="nonzero" d="M 98.828125 168 L 778.550781 168 L 778.550781 171 L 98.828125 171 Z M 98.828125 168 "/>
</clipPath>
<clipPath id="clip-3">
<path clip-rule="nonzero" d="M 98.828125 78 L 778.550781 78 L 778.550781 81 L 98.828125 81 Z M 98.828125 78 "/>
</clipPath>
<clipPath id="clip-4">
<path clip-rule="nonzero" d="M 282 13.449219 L 286 13.449219 L 286 271.613281 L 282 271.613281 Z M 282 13.449219 "/>
</clipPath>
<clipPath id="clip-5">
<path clip-rule="nonzero" d="M 591 13.449219 L 595 13.449219 L 595 271.613281 L 591 271.613281 Z M 591 13.449219 "/>
</clipPath>
</defs>
<rect x="-79.2" y="-32.4" width="950.4" height="388.8" fill="rgb(100%, 100%, 100%)" fill-opacity="1"/>
<rect x="-79.2" y="-32.4" width="950.4" height="388.8" fill="rgb(95.294118%, 95.294118%, 95.294118%)" fill-opacity="1"/>
<path fill="none" stroke-width="2.618947" stroke-linecap="round" stroke-linejoin="round" stroke="rgb(95.294118%, 95.294118%, 95.294118%)" stroke-opacity="1" stroke-miterlimit="10" d="M 0 324 L 792 324 L 792 0 L 0 0 Z M 0 324 "/>
<g clip-path="url(#clip-0)">
<path fill-rule="nonzero" fill="rgb(95.294118%, 95.294118%, 95.294118%)" fill-opacity="1" stroke-width="2.618947" stroke-linecap="round" stroke-linejoin="round" stroke="rgb(95.294118%, 95.294118%, 95.294118%)" stroke-opacity="1" stroke-miterlimit="10" d="M 98.828125 271.613281 L 778.550781 271.613281 L 778.550781 13.449219 L 98.828125 13.449219 Z M 98.828125 271.613281 "/>
</g>
<g clip-path="url(#clip-1)">
<path fill="none" stroke-width="2.618947" stroke-linecap="butt" stroke-linejoin="round" stroke="rgb(92.156863%, 92.156863%, 92.156863%)" stroke-opacity="1" stroke-miterlimit="10" d="M 98.828125 259.878906 L 778.550781 259.878906 "/>
</g>
<g clip-path="url(#clip-2)">
<path fill="none" stroke-width="2.618947" stroke-linecap="butt" stroke-linejoin="round" stroke="rgb(92.156863%, 92.156863%, 92.156863%)" stroke-opacity="1" stroke-miterlimit="10" d="M 98.828125 169.613281 L 778.550781 169.613281 "/>
</g>
<g clip-path="url(#clip-3)">
<path fill="none" stroke-width="2.618947" stroke-linecap="butt" stroke-linejoin="round" stroke="rgb(92.156863%, 92.156863%, 92.156863%)" stroke-opacity="1" stroke-miterlimit="10" d="M 98.828125 79.34375 L 778.550781 79.34375 "/>
</g>
<g clip-path="url(#clip-4)">
<path fill="none" stroke-width="2.618947" stroke-linecap="butt" stroke-linejoin="round" stroke="rgb(92.156863%, 92.156863%, 92.156863%)" stroke-opacity="1" stroke-miterlimit="10" d="M 284.207031 271.613281 L 284.207031 13.449219 "/>
</g>
<g clip-path="url(#clip-5)">
<path fill="none" stroke-width="2.618947" stroke-linecap="butt" stroke-linejoin="round" stroke="rgb(92.156863%, 92.156863%, 92.156863%)" stroke-opacity="1" stroke-miterlimit="10" d="M 593.171875 271.613281 L 593.171875 13.449219 "/>
</g>
<path fill-rule="nonzero" fill="rgb(56.078431%, 16.470588%, 26.27451%)" fill-opacity="0.8" stroke-width="0.708661" stroke-linecap="round" stroke-linejoin="round" stroke="rgb(56.078431%, 16.470588%, 26.27451%)" stroke-opacity="0.8" stroke-miterlimit="10" d="M 298.308594 65.238281 C 298.308594 71.117188 289.488281 71.117188 289.488281 65.238281 C 289.488281 59.359375 298.308594 59.359375 298.308594 65.238281 "/>
<path fill-rule="nonzero" fill="rgb(56.078431%, 16.470588%, 26.27451%)" fill-opacity="0.8" stroke-width="0.708661" stroke-linecap="round" stroke-linejoin="round" stroke="rgb(56.078431%, 16.470588%, 26.27451%)" stroke-opacity="0.8" stroke-miterlimit="10" d="M 295.246094 78.246094 C 295.246094 84.125 286.429688 84.125 286.429688 78.246094 C 286.429688 72.367188 295.246094 72.367188 295.246094 78.246094 "/>
<path fill-rule="nonzero" fill="rgb(56.078431%, 16.470588%, 26.27451%)" fill-opacity="0.8" stroke-width="0.708661" stroke-linecap="round" stroke-linejoin="round" stroke="rgb(56.078431%, 16.470588%, 26.27451%)" stroke-opacity="0.8" stroke-miterlimit="10" d="M 286.859375 85.246094 C 286.859375 91.125 278.039062 91.125 278.039062 85.246094 C 278.039062 79.371094 286.859375 79.371094 286.859375 85.246094 "/>
<path fill-rule="nonzero" fill="rgb(56.078431%, 16.470588%, 26.27451%)" fill-opacity="0.8" stroke-width="0.708661" stroke-linecap="round" stroke-linejoin="round" stroke="rgb(56.078431%, 16.470588%, 26.27451%)" stroke-opacity="0.8" stroke-miterlimit="10" d="M 289.085938 88.621094 C 289.085938 94.5 280.265625 94.5 280.265625 88.621094 C 280.265625 82.742188 289.085938 82.742188 289.085938 88.621094 "/>
<path fill-rule="nonzero" fill="rgb(56.078431%, 16.470588%, 26.27451%)" fill-opacity="0.8" stroke-width="0.708661" stroke-linecap="round" stroke-linejoin="round" stroke="rgb(56.078431%, 16.470588%, 26.27451%)" stroke-opacity="0.8" stroke-miterlimit="10" d="M 295.867188 100.082031 C 295.867188 105.960938 287.050781 105.960938 287.050781 100.082031 C 287.050781 94.203125 295.867188 94.203125 295.867188 100.082031 "/>
<path fill-rule="nonzero" fill="rgb(56.078431%, 16.470588%, 26.27451%)" fill-opacity="0.8" stroke-width="0.708661" stroke-linecap="round" stroke-linejoin="round" stroke="rgb(56.078431%, 16.470588%, 26.27451%)" stroke-opacity="0.8" stroke-miterlimit="10" d="M 293.167969 60.523438 C 293.167969 66.398438 284.351562 66.398438 284.351562 60.523438 C 284.351562 54.644531 293.167969 54.644531 293.167969 60.523438 "/>
<path fill-rule="nonzero" fill="rgb(56.078431%, 16.470588%, 26.27451%)" fill-opacity="0.8" stroke-width="0.708661" stroke-linecap="round" stroke-linejoin="round" stroke="rgb(56.078431%, 16.470588%, 26.27451%)" stroke-opacity="0.8" stroke-miterlimit="10" d="M 276.09375 92.972656 C 276.09375 98.851562 267.277344 98.851562 267.277344 92.972656 C 267.277344 87.09375 276.09375 87.09375 276.09375 92.972656 "/>
<path fill-rule="nonzero" fill="rgb(56.078431%, 16.470588%, 26.27451%)" fill-opacity="0.8" stroke-width="0.708661" stroke-linecap="round" stroke-linejoin="round" stroke="rgb(56.078431%, 16.470588%, 26.27451%)" stroke-opacity="0.8" stroke-miterlimit="10" d="M 287.355469 69.011719 C 287.355469 74.890625 278.539062 74.890625 278.539062 69.011719 C 278.539062 63.132812 287.355469 63.132812 287.355469 69.011719 "/>
<path fill-rule="nonzero" fill="rgb(56.078431%, 16.470588%, 26.27451%)" fill-opacity="0.8" stroke-width="0.708661" stroke-linecap="round" stroke-linejoin="round" stroke="rgb(56.078431%, 16.470588%, 26.27451%)" stroke-opacity="0.8" stroke-miterlimit="10" d="M 286.320312 83.882812 C 286.320312 89.761719 277.5 89.761719 277.5 83.882812 C 277.5 78.007812 286.320312 78.007812 286.320312 83.882812 "/>
<path fill-rule="nonzero" fill="rgb(56.078431%, 16.470588%, 26.27451%)" fill-opacity="0.8" stroke-width="0.708661" stroke-linecap="round" stroke-linejoin="round" stroke="rgb(56.078431%, 16.470588%, 26.27451%)" stroke-opacity="0.8" stroke-miterlimit="10" d="M 292.460938 50.023438 C 292.460938 55.902344 283.644531 55.902344 283.644531 50.023438 C 283.644531 44.144531 292.460938 44.144531 292.460938 50.023438 "/>
<path fill-rule="nonzero" fill="rgb(56.078431%, 16.470588%, 26.27451%)" fill-opacity="0.8" stroke-width="0.708661" stroke-linecap="round" stroke-linejoin="round" stroke="rgb(56.078431%, 16.470588%, 26.27451%)" stroke-opacity="0.8" stroke-miterlimit="10" d="M 585.671875 83.238281 C 585.671875 89.117188 576.855469 89.117188 576.855469 83.238281 C 576.855469 77.359375 585.671875 77.359375 585.671875 83.238281 "/>
<path fill-rule="nonzero" fill="rgb(56.078431%, 16.470588%, 26.27451%)" fill-opacity="0.8" stroke-width="0.708661" stroke-linecap="round" stroke-linejoin="round" stroke="rgb(56.078431%, 16.470588%, 26.27451%)" stroke-opacity="0.8" stroke-miterlimit="10" d="M 607.351562 95.28125 C 607.351562 101.160156 598.535156 101.160156 598.535156 95.28125 C 598.535156 89.402344 607.351562 89.402344 607.351562 95.28125 "/>
<path fill-rule="nonzero" fill="rgb(56.078431%, 16.470588%, 26.27451%)" fill-opacity="0.8" stroke-width="0.708661" stroke-linecap="round" stroke-linejoin="round" stroke="rgb(56.078431%, 16.470588%, 26.27451%)" stroke-opacity="0.8" stroke-miterlimit="10" d="M 605.054688 89.589844 C 605.054688 95.464844 596.234375 95.464844 596.234375 89.589844 C 596.234375 83.710938 605.054688 83.710938 605.054688 89.589844 "/>
<path fill-rule="nonzero" fill="rgb(56.078431%, 16.470588%, 26.27451%)" fill-opacity="0.8" stroke-width="0.708661" stroke-linecap="round" stroke-linejoin="round" stroke="rgb(56.078431%, 16.470588%, 26.27451%)" stroke-opacity="0.8" stroke-miterlimit="10" d="M 602.257812 79.375 C 602.257812 85.253906 593.4375 85.253906 593.4375 79.375 C 593.4375 73.496094 602.257812 73.496094 602.257812 79.375 "/>
<path fill-rule="nonzero" fill="rgb(56.078431%, 16.470588%, 26.27451%)" fill-opacity="0.8" stroke-width="0.708661" stroke-linecap="round" stroke-linejoin="round" stroke="rgb(56.078431%, 16.470588%, 26.27451%)" stroke-opacity="0.8" stroke-miterlimit="10" d="M 595.191406 105.242188 C 595.191406 111.121094 586.375 111.121094 586.375 105.242188 C 586.375 99.363281 595.191406 99.363281 595.191406 105.242188 "/>
<path fill-rule="nonzero" fill="rgb(56.078431%, 16.470588%, 26.27451%)" fill-opacity="0.8" stroke-width="0.708661" stroke-linecap="round" stroke-linejoin="round" stroke="rgb(56.078431%, 16.470588%, 26.27451%)" stroke-opacity="0.8" stroke-miterlimit="10" d="M 595.191406 96.960938 C 595.191406 102.839844 586.375 102.839844 586.375 96.960938 C 586.375 91.085938 595.191406 91.085938 595.191406 96.960938 "/>
<path fill-rule="nonzero" fill="rgb(56.078431%, 16.470588%, 26.27451%)" fill-opacity="0.8" stroke-width="0.708661" stroke-linecap="round" stroke-linejoin="round" stroke="rgb(56.078431%, 16.470588%, 26.27451%)" stroke-opacity="0.8" stroke-miterlimit="10" d="M 589.84375 76.273438 C 589.84375 82.152344 581.027344 82.152344 581.027344 76.273438 C 581.027344 70.394531 589.84375 70.394531 589.84375 76.273438 "/>
<path fill-rule="nonzero" fill="rgb(56.078431%, 16.470588%, 26.27451%)" fill-opacity="0.8" stroke-width="0.708661" stroke-linecap="round" stroke-linejoin="round" stroke="rgb(56.078431%, 16.470588%, 26.27451%)" stroke-opacity="0.8" stroke-miterlimit="10" d="M 598.507812 56.789062 C 598.507812 62.667969 589.691406 62.667969 589.691406 56.789062 C 589.691406 50.910156 598.507812 50.910156 598.507812 56.789062 "/>
<path fill-rule="nonzero" fill="rgb(56.078431%, 16.470588%, 26.27451%)" fill-opacity="0.8" stroke-width="0.708661" stroke-linecap="round" stroke-linejoin="round" stroke="rgb(56.078431%, 16.470588%, 26.27451%)" stroke-opacity="0.8" stroke-miterlimit="10" d="M 596.914062 58.816406 C 596.914062 64.695312 588.09375 64.695312 588.09375 58.816406 C 588.09375 52.9375 596.914062 52.9375 596.914062 58.816406 "/>
<path fill-rule="nonzero" fill="rgb(56.078431%, 16.470588%, 26.27451%)" fill-opacity="0.8" stroke-width="0.708661" stroke-linecap="round" stroke-linejoin="round" stroke="rgb(56.078431%, 16.470588%, 26.27451%)" stroke-opacity="0.8" stroke-miterlimit="10" d="M 583.316406 92.246094 C 583.316406 98.125 574.5 98.125 574.5 92.246094 C 574.5 86.367188 583.316406 86.367188 583.316406 92.246094 "/>
<path fill-rule="nonzero" fill="rgb(10.196078%, 10.196078%, 10.196078%)" fill-opacity="1" d="M 68.140625 268.414062 L 67.695312 268.394531 L 67.273438 268.328125 L 66.867188 268.21875 L 66.484375 268.066406 L 66.125 267.871094 L 65.78125 267.632812 L 65.460938 267.351562 L 65.15625 267.023438 L 64.878906 266.652344 L 64.617188 266.242188 L 64.378906 265.789062 L 64.167969 265.296875 L 63.980469 264.773438 L 63.816406 264.207031 L 63.679688 263.609375 L 63.566406 262.972656 L 63.480469 262.300781 L 63.417969 261.59375 L 63.378906 260.847656 L 63.367188 260.066406 L 63.378906 259.289062 L 63.417969 258.550781 L 63.480469 257.847656 L 63.566406 257.183594 L 63.679688 256.554688 L 63.816406 255.960938 L 63.980469 255.40625 L 64.167969 254.890625 L 64.378906 254.410156 L 64.617188 253.964844 L 64.878906 253.5625 L 65.15625 253.199219 L 65.460938 252.882812 L 65.78125 252.605469 L 66.125 252.371094 L 66.484375 252.179688 L 66.867188 252.03125 L 67.273438 251.925781 L 67.695312 251.863281 L 68.140625 251.839844 L 68.589844 251.863281 L 69.019531 251.925781 L 69.425781 252.03125 L 69.808594 252.179688 L 70.171875 252.371094 L 70.515625 252.605469 L 70.835938 252.882812 L 71.132812 253.199219 L 71.410156 253.5625 L 71.667969 253.964844 L 71.90625 254.410156 L 72.117188 254.890625 L 72.304688 255.40625 L 72.46875 255.960938 L 72.605469 256.554688 L 72.71875 257.183594 L 72.804688 257.847656 L 72.867188 258.550781 L 72.90625 259.289062 L 72.917969 260.066406 L 72.90625 260.847656 L 72.867188 261.59375 L 72.804688 262.300781 L 72.71875 262.972656 L 72.605469 263.609375 L 72.46875 264.207031 L 72.304688 264.773438 L 72.117188 265.296875 L 71.90625 265.789062 L 71.667969 266.242188 L 71.410156 266.652344 L 71.132812 267.023438 L 70.835938 267.351562 L 70.515625 267.632812 L 70.171875 267.871094 L 69.808594 268.066406 L 69.425781 268.21875 L 69.019531 268.328125 L 68.589844 268.394531 Z M 68.140625 267.464844 L 68.46875 267.445312 L 68.785156 267.390625 L 69.082031 267.296875 L 69.371094 267.164062 L 69.640625 266.996094 L 69.898438 266.789062 L 70.144531 266.546875 L 70.375 266.265625 L 70.589844 265.945312 L 70.792969 265.589844 L 70.980469 265.199219 L 71.152344 264.769531 L 71.300781 264.304688 L 71.433594 263.808594 L 71.542969 263.273438 L 71.632812 262.703125 L 71.703125 262.097656 L 71.75 261.453125 L 71.78125 260.777344 L 71.792969 260.066406 L 71.78125 259.355469 L 71.75 258.679688 L 71.703125 258.042969 L 71.632812 257.441406 L 71.542969 256.878906 L 71.433594 256.351562 L 71.300781 255.863281 L 71.152344 255.410156 L 70.980469 254.996094 L 70.792969 254.617188 L 70.589844 254.269531 L 70.375 253.957031 L 70.144531 253.683594 L 69.898438 253.449219 L 69.640625 253.246094 L 69.371094 253.082031 L 69.082031 252.953125 L 68.785156 252.863281 L 68.46875 252.808594 L 68.140625 252.789062 L 67.816406 252.808594 L 67.507812 252.863281 L 67.210938 252.953125 L 66.925781 253.082031 L 66.65625 253.246094 L 66.394531 253.449219 L 66.148438 253.683594 L 65.917969 253.957031 L 65.699219 254.269531 L 65.492188 254.617188 L 65.300781 254.996094 L 65.132812 255.410156 L 64.980469 255.863281 L 64.851562 256.351562 L 64.742188 256.878906 L 64.652344 257.441406 L 64.582031 258.042969 L 64.53125 258.679688 L 64.5 259.355469 L 64.492188 260.066406 L 64.5 260.777344 L 64.53125 261.453125 L 64.582031 262.097656 L 64.652344 262.703125 L 64.742188 263.273438 L 64.851562 263.808594 L 64.980469 264.304688 L 65.132812 264.769531 L 65.300781 265.199219 L 65.492188 265.589844 L 65.699219 265.945312 L 65.917969 266.265625 L 66.148438 266.546875 L 66.394531 266.789062 L 66.65625 266.996094 L 66.925781 267.164062 L 67.210938 267.296875 L 67.507812 267.390625 L 67.816406 267.445312 Z M 68.140625 267.464844 "/>
<path fill-rule="nonzero" fill="rgb(10.196078%, 10.196078%, 10.196078%)" fill-opacity="1" d="M 55.867188 178.148438 L 55.613281 178.144531 L 55.371094 178.136719 L 55.132812 178.121094 L 54.898438 178.097656 L 54.671875 178.066406 L 54.453125 178.03125 L 54.242188 177.988281 L 54.035156 177.941406 L 53.835938 177.886719 L 53.640625 177.824219 L 53.460938 177.757812 L 53.28125 177.6875 L 53.109375 177.613281 L 52.941406 177.535156 L 52.78125 177.457031 L 52.621094 177.371094 L 52.46875 177.28125 L 52.320312 177.191406 L 52.179688 177.097656 L 52.042969 177 L 51.910156 176.898438 L 51.777344 176.800781 L 51.648438 176.699219 L 51.527344 176.597656 L 51.40625 176.5 L 51.285156 176.398438 L 51.171875 176.300781 L 51.058594 176.199219 L 50.949219 176.097656 L 50.84375 176 L 51.46875 175.222656 L 51.613281 175.367188 L 51.769531 175.511719 L 51.925781 175.648438 L 52.089844 175.789062 L 52.261719 175.925781 L 52.4375 176.058594 L 52.617188 176.191406 L 52.804688 176.320312 L 52.996094 176.449219 L 53.191406 176.574219 L 53.402344 176.6875 L 53.625 176.789062 L 53.859375 176.878906 L 54.109375 176.957031 L 54.367188 177.023438 L 54.636719 177.078125 L 54.921875 177.121094 L 55.214844 177.148438 L 55.523438 177.167969 L 55.84375 177.175781 L 56.054688 177.167969 L 56.265625 177.152344 L 56.472656 177.125 L 56.675781 177.089844 L 56.875 177.042969 L 57.070312 176.984375 L 57.261719 176.917969 L 57.449219 176.835938 L 57.636719 176.75 L 57.816406 176.648438 L 57.992188 176.535156 L 58.164062 176.410156 L 58.324219 176.28125 L 58.480469 176.140625 L 58.628906 175.992188 L 58.769531 175.835938 L 58.90625 175.671875 L 59.03125 175.496094 L 59.152344 175.316406 L 59.265625 175.125 L 59.371094 174.925781 L 59.464844 174.722656 L 59.546875 174.511719 L 59.617188 174.296875 L 59.679688 174.074219 L 59.730469 173.847656 L 59.765625 173.613281 L 59.792969 173.371094 L 59.8125 173.125 L 59.816406 172.875 L 59.804688 172.496094 L 59.773438 172.136719 L 59.71875 171.792969 L 59.644531 171.464844 L 59.546875 171.15625 L 59.429688 170.859375 L 59.289062 170.582031 L 59.128906 170.320312 L 58.945312 170.078125 L 58.742188 169.847656 L 58.523438 169.640625 L 58.292969 169.453125 L 58.046875 169.289062 L 57.785156 169.144531 L 57.511719 169.023438 L 57.222656 168.925781 L 56.917969 168.847656 L 56.597656 168.792969 L 56.265625 168.761719 L 55.917969 168.75 L 55.734375 168.75 L 55.558594 168.761719 L 55.382812 168.777344 L 55.21875 168.796875 L 55.054688 168.824219 L 54.898438 168.855469 L 54.746094 168.894531 L 54.597656 168.941406 L 54.453125 168.992188 L 54.316406 169.050781 L 54.1875 169.105469 L 54.054688 169.167969 L 53.921875 169.234375 L 53.785156 169.304688 L 53.648438 169.378906 L 53.511719 169.460938 L 53.371094 169.542969 L 53.230469 169.632812 L 53.085938 169.726562 L 52.941406 169.824219 L 52.167969 169.347656 L 52.742188 161.875 L 60.117188 161.875 L 60.117188 162.847656 L 53.742188 162.847656 L 53.242188 168.625 L 53.367188 168.550781 L 53.492188 168.480469 L 53.75 168.347656 L 53.878906 168.285156 L 54.011719 168.226562 L 54.140625 168.171875 L 54.40625 168.070312 L 54.679688 167.976562 L 54.820312 167.933594 L 54.964844 167.894531 L 55.113281 167.863281 L 55.265625 167.835938 L 55.425781 167.8125 L 55.585938 167.796875 L 55.75 167.785156 L 55.917969 167.777344 L 56.09375 167.773438 L 56.359375 167.78125 L 56.621094 167.796875 L 56.878906 167.824219 L 57.132812 167.863281 L 57.378906 167.910156 L 57.621094 167.972656 L 57.859375 168.042969 L 58.09375 168.125 L 58.320312 168.21875 L 58.542969 168.324219 L 58.761719 168.433594 L 58.972656 168.558594 L 59.175781 168.691406 L 59.367188 168.839844 L 59.546875 169 L 59.722656 169.167969 L 59.882812 169.351562 L 60.039062 169.546875 L 60.183594 169.753906 L 60.316406 169.972656 L 60.441406 170.199219 L 60.550781 170.441406 L 60.648438 170.691406 L 60.734375 170.957031 L 60.804688 171.238281 L 60.863281 171.527344 L 60.910156 171.832031 L 60.941406 172.148438 L 60.960938 172.480469 L 60.96875 172.824219 L 60.960938 173.160156 L 60.9375 173.484375 L 60.898438 173.800781 L 60.847656 174.105469 L 60.78125 174.398438 L 60.695312 174.683594 L 60.597656 174.957031 L 60.488281 175.222656 L 60.359375 175.480469 L 60.21875 175.722656 L 60.066406 175.953125 L 59.910156 176.171875 L 59.742188 176.378906 L 59.566406 176.574219 L 59.378906 176.761719 L 59.183594 176.9375 L 58.980469 177.097656 L 58.769531 177.25 L 58.546875 177.394531 L 58.316406 177.523438 L 58.085938 177.644531 L 57.851562 177.75 L 57.613281 177.84375 L 57.371094 177.925781 L 57.128906 177.992188 L 56.882812 178.050781 L 56.632812 178.09375 L 56.378906 178.125 L 56.125 178.144531 Z M 55.867188 178.148438 "/>
<path fill-rule="nonzero" fill="rgb(10.196078%, 10.196078%, 10.196078%)" fill-opacity="1" d="M 68.140625 178.148438 L 67.695312 178.128906 L 67.273438 178.0625 L 66.867188 177.953125 L 66.484375 177.800781 L 66.125 177.605469 L 65.78125 177.367188 L 65.460938 177.082031 L 65.15625 176.757812 L 64.878906 176.386719 L 64.617188 175.972656 L 64.378906 175.519531 L 64.167969 175.03125 L 63.980469 174.503906 L 63.816406 173.941406 L 63.679688 173.34375 L 63.566406 172.707031 L 63.480469 172.035156 L 63.417969 171.324219 L 63.378906 170.582031 L 63.367188 169.800781 L 63.378906 169.023438 L 63.417969 168.28125 L 63.480469 167.582031 L 63.566406 166.914062 L 63.679688 166.285156 L 63.816406 165.695312 L 63.980469 165.140625 L 64.167969 164.621094 L 64.378906 164.140625 L 64.617188 163.699219 L 64.878906 163.296875 L 65.15625 162.933594 L 65.460938 162.613281 L 65.78125 162.339844 L 66.125 162.105469 L 66.484375 161.914062 L 66.867188 161.765625 L 67.273438 161.660156 L 67.695312 161.59375 L 68.140625 161.574219 L 68.589844 161.59375 L 69.019531 161.660156 L 69.425781 161.765625 L 69.808594 161.914062 L 70.171875 162.105469 L 70.515625 162.339844 L 70.835938 162.613281 L 71.132812 162.933594 L 71.410156 163.296875 L 71.667969 163.699219 L 71.90625 164.140625 L 72.117188 164.621094 L 72.304688 165.140625 L 72.46875 165.695312 L 72.605469 166.285156 L 72.71875 166.914062 L 72.804688 167.582031 L 72.867188 168.28125 L 72.90625 169.023438 L 72.917969 169.800781 L 72.90625 170.582031 L 72.867188 171.324219 L 72.804688 172.035156 L 72.71875 172.707031 L 72.605469 173.34375 L 72.46875 173.941406 L 72.304688 174.503906 L 72.117188 175.03125 L 71.90625 175.519531 L 71.667969 175.972656 L 71.410156 176.386719 L 71.132812 176.757812 L 70.835938 177.082031 L 70.515625 177.367188 L 70.171875 177.605469 L 69.808594 177.800781 L 69.425781 177.953125 L 69.019531 178.0625 L 68.589844 178.128906 Z M 68.140625 177.199219 L 68.46875 177.179688 L 68.785156 177.125 L 69.082031 177.03125 L 69.371094 176.898438 L 69.640625 176.730469 L 69.898438 176.523438 L 70.144531 176.28125 L 70.375 176 L 70.589844 175.679688 L 70.792969 175.324219 L 70.980469 174.929688 L 71.152344 174.503906 L 71.300781 174.039062 L 71.433594 173.539062 L 71.542969 173.003906 L 71.632812 172.433594 L 71.703125 171.828125 L 71.75 171.1875 L 71.78125 170.511719 L 71.792969 169.800781 L 71.78125 169.085938 L 71.75 168.414062 L 71.703125 167.773438 L 71.632812 167.175781 L 71.542969 166.613281 L 71.433594 166.085938 L 71.300781 165.59375 L 71.152344 165.144531 L 70.980469 164.726562 L 70.792969 164.347656 L 70.589844 164.003906 L 70.375 163.691406 L 70.144531 163.417969 L 69.898438 163.179688 L 69.640625 162.980469 L 69.371094 162.816406 L 69.082031 162.6875 L 68.785156 162.597656 L 68.46875 162.542969 L 68.140625 162.523438 L 67.816406 162.542969 L 67.507812 162.597656 L 67.210938 162.6875 L 66.925781 162.816406 L 66.65625 162.980469 L 66.394531 163.179688 L 66.148438 163.417969 L 65.917969 163.691406 L 65.699219 164.003906 L 65.492188 164.347656 L 65.300781 164.726562 L 65.132812 165.144531 L 64.980469 165.59375 L 64.851562 166.085938 L 64.742188 166.613281 L 64.652344 167.175781 L 64.582031 167.773438 L 64.53125 168.414062 L 64.5 169.085938 L 64.492188 169.800781 L 64.5 170.511719 L 64.53125 171.1875 L 64.582031 171.828125 L 64.652344 172.433594 L 64.742188 173.003906 L 64.851562 173.539062 L 64.980469 174.039062 L 65.132812 174.503906 L 65.300781 174.929688 L 65.492188 175.324219 L 65.699219 175.679688 L 65.917969 176 L 66.148438 176.28125 L 66.394531 176.523438 L 66.65625 176.730469 L 66.925781 176.898438 L 67.210938 177.03125 L 67.507812 177.125 L 67.816406 177.179688 Z M 68.140625 177.199219 "/>
<path fill-rule="nonzero" fill="rgb(10.196078%, 10.196078%, 10.196078%)" fill-opacity="1" d="M 80.117188 178.148438 L 79.671875 178.128906 L 79.246094 178.0625 L 78.84375 177.953125 L 78.460938 177.800781 L 78.097656 177.605469 L 77.753906 177.367188 L 77.433594 177.082031 L 77.132812 176.757812 L 76.851562 176.386719 L 76.59375 175.972656 L 76.355469 175.519531 L 76.140625 175.03125 L 75.953125 174.503906 L 75.792969 173.941406 L 75.65625 173.34375 L 75.542969 172.707031 L 75.453125 172.035156 L 75.390625 171.324219 L 75.355469 170.582031 L 75.34375 169.800781 L 75.355469 169.023438 L 75.390625 168.28125 L 75.453125 167.582031 L 75.542969 166.914062 L 75.65625 166.285156 L 75.792969 165.695312 L 75.953125 165.140625 L 76.140625 164.621094 L 76.355469 164.140625 L 76.59375 163.699219 L 76.851562 163.296875 L 77.132812 162.933594 L 77.433594 162.613281 L 77.753906 162.339844 L 78.097656 162.105469 L 78.460938 161.914062 L 78.84375 161.765625 L 79.246094 161.660156 L 79.671875 161.59375 L 80.117188 161.574219 L 80.566406 161.59375 L 80.992188 161.660156 L 81.398438 161.765625 L 81.785156 161.914062 L 82.148438 162.105469 L 82.488281 162.339844 L 82.808594 162.613281 L 83.109375 162.933594 L 83.386719 163.296875 L 83.640625 163.699219 L 83.878906 164.140625 L 84.09375 164.621094 L 84.28125 165.140625 L 84.441406 165.695312 L 84.578125 166.285156 L 84.691406 166.914062 L 84.78125 167.582031 L 84.84375 168.28125 L 84.878906 169.023438 L 84.890625 169.800781 L 84.878906 170.582031 L 84.84375 171.324219 L 84.78125 172.035156 L 84.691406 172.707031 L 84.578125 173.34375 L 84.441406 173.941406 L 84.28125 174.503906 L 84.09375 175.03125 L 83.878906 175.519531 L 83.640625 175.972656 L 83.386719 176.386719 L 83.109375 176.757812 L 82.808594 177.082031 L 82.488281 177.367188 L 82.148438 177.605469 L 81.785156 177.800781 L 81.398438 177.953125 L 80.992188 178.0625 L 80.566406 178.128906 Z M 80.117188 177.199219 L 80.445312 177.179688 L 80.757812 177.125 L 81.058594 177.03125 L 81.34375 176.898438 L 81.617188 176.730469 L 81.875 176.523438 L 82.117188 176.28125 L 82.347656 176 L 82.566406 175.679688 L 82.765625 175.324219 L 82.957031 174.929688 L 83.125 174.503906 L 83.277344 174.039062 L 83.40625 173.539062 L 83.515625 173.003906 L 83.605469 172.433594 L 83.675781 171.828125 L 83.726562 171.1875 L 83.757812 170.511719 L 83.765625 169.800781 L 83.757812 169.085938 L 83.726562 168.414062 L 83.675781 167.773438 L 83.605469 167.175781 L 83.515625 166.613281 L 83.40625 166.085938 L 83.277344 165.59375 L 83.125 165.144531 L 82.957031 164.726562 L 82.765625 164.347656 L 82.566406 164.003906 L 82.347656 163.691406 L 82.117188 163.417969 L 81.875 163.179688 L 81.617188 162.980469 L 81.34375 162.816406 L 81.058594 162.6875 L 80.757812 162.597656 L 80.445312 162.542969 L 80.117188 162.523438 L 79.792969 162.542969 L 79.484375 162.597656 L 79.183594 162.6875 L 78.902344 162.816406 L 78.628906 162.980469 L 78.371094 163.179688 L 78.125 163.417969 L 77.894531 163.691406 L 77.671875 164.003906 L 77.46875 164.347656 L 77.277344 164.726562 L 77.105469 165.144531 L 76.957031 165.59375 L 76.828125 166.085938 L 76.71875 166.613281 L 76.625 167.175781 L 76.558594 167.773438 L 76.507812 168.414062 L 76.476562 169.085938 L 76.46875 169.800781 L 76.476562 170.511719 L 76.507812 171.1875 L 76.558594 171.828125 L 76.625 172.433594 L 76.71875 173.003906 L 76.828125 173.539062 L 76.957031 174.039062 L 77.105469 174.503906 L 77.277344 174.929688 L 77.46875 175.324219 L 77.671875 175.679688 L 77.894531 176 L 78.125 176.28125 L 78.371094 176.523438 L 78.628906 176.730469 L 78.902344 176.898438 L 79.183594 177.03125 L 79.484375 177.125 L 79.792969 177.179688 Z M 80.117188 177.199219 "/>
<path fill-rule="nonzero" fill="rgb(10.196078%, 10.196078%, 10.196078%)" fill-opacity="1" d="M 46.304688 87.582031 L 46.304688 86.605469 L 50.054688 86.605469 L 50.054688 73.355469 L 47.203125 73.355469 L 47.203125 72.605469 L 47.398438 72.570312 L 47.585938 72.535156 L 47.769531 72.496094 L 47.953125 72.453125 L 48.128906 72.414062 L 48.300781 72.371094 L 48.472656 72.324219 L 48.636719 72.277344 L 48.796875 72.230469 L 48.953125 72.183594 L 49.105469 72.132812 L 49.253906 72.078125 L 49.398438 72.023438 L 49.539062 71.96875 L 49.671875 71.914062 L 49.804688 71.855469 L 49.929688 71.796875 L 50.050781 71.734375 L 50.167969 71.671875 L 50.28125 71.605469 L 51.179688 71.605469 L 51.179688 86.605469 L 54.65625 86.605469 L 54.65625 87.582031 Z M 46.304688 87.582031 "/>
<path fill-rule="nonzero" fill="rgb(10.196078%, 10.196078%, 10.196078%)" fill-opacity="1" d="M 62.15625 87.882812 L 61.710938 87.859375 L 61.285156 87.796875 L 60.882812 87.6875 L 60.5 87.535156 L 60.136719 87.339844 L 59.792969 87.097656 L 59.472656 86.816406 L 59.171875 86.488281 L 58.890625 86.121094 L 58.628906 85.707031 L 58.390625 85.253906 L 58.179688 84.765625 L 57.992188 84.238281 L 57.828125 83.675781 L 57.691406 83.074219 L 57.578125 82.441406 L 57.492188 81.769531 L 57.429688 81.058594 L 57.390625 80.3125 L 57.378906 79.53125 L 57.390625 78.753906 L 57.429688 78.015625 L 57.492188 77.3125 L 57.578125 76.648438 L 57.691406 76.019531 L 57.828125 75.429688 L 57.992188 74.875 L 58.179688 74.355469 L 58.390625 73.875 L 58.628906 73.433594 L 58.890625 73.027344 L 59.171875 72.667969 L 59.472656 72.347656 L 59.792969 72.070312 L 60.136719 71.839844 L 60.5 71.648438 L 60.882812 71.5 L 61.285156 71.390625 L 61.710938 71.328125 L 62.15625 71.308594 L 62.605469 71.328125 L 63.03125 71.390625 L 63.4375 71.5 L 63.824219 71.648438 L 64.1875 71.839844 L 64.527344 72.070312 L 64.847656 72.347656 L 65.144531 72.667969 L 65.421875 73.027344 L 65.679688 73.433594 L 65.917969 73.875 L 66.128906 74.355469 L 66.316406 74.875 L 66.480469 75.429688 L 66.617188 76.019531 L 66.730469 76.648438 L 66.816406 77.3125 L 66.878906 78.015625 L 66.917969 78.753906 L 66.929688 79.53125 L 66.917969 80.3125 L 66.878906 81.058594 L 66.816406 81.769531 L 66.730469 82.441406 L 66.617188 83.074219 L 66.480469 83.675781 L 66.316406 84.238281 L 66.128906 84.765625 L 65.917969 85.253906 L 65.679688 85.707031 L 65.421875 86.121094 L 65.144531 86.488281 L 64.847656 86.816406 L 64.527344 87.097656 L 64.1875 87.339844 L 63.824219 87.535156 L 63.4375 87.6875 L 63.03125 87.796875 L 62.605469 87.859375 Z M 62.15625 86.933594 L 62.480469 86.914062 L 62.796875 86.855469 L 63.097656 86.761719 L 63.382812 86.632812 L 63.65625 86.464844 L 63.914062 86.257812 L 64.15625 86.011719 L 64.386719 85.730469 L 64.601562 85.414062 L 64.804688 85.058594 L 64.996094 84.664062 L 65.164062 84.234375 L 65.3125 83.773438 L 65.445312 83.273438 L 65.554688 82.738281 L 65.644531 82.167969 L 65.714844 81.5625 L 65.765625 80.921875 L 65.792969 80.246094 L 65.804688 79.53125 L 65.792969 78.820312 L 65.765625 78.144531 L 65.714844 77.507812 L 65.644531 76.90625 L 65.554688 76.34375 L 65.445312 75.816406 L 65.3125 75.328125 L 65.164062 74.875 L 64.996094 74.460938 L 64.804688 74.082031 L 64.601562 73.734375 L 64.386719 73.425781 L 64.15625 73.152344 L 63.914062 72.914062 L 63.65625 72.714844 L 63.382812 72.550781 L 63.097656 72.421875 L 62.796875 72.328125 L 62.480469 72.273438 L 62.15625 72.257812 L 61.832031 72.273438 L 61.519531 72.328125 L 61.222656 72.421875 L 60.9375 72.550781 L 60.667969 72.714844 L 60.410156 72.914062 L 60.164062 73.152344 L 59.929688 73.425781 L 59.710938 73.734375 L 59.503906 74.082031 L 59.3125 74.460938 L 59.144531 74.875 L 58.996094 75.328125 L 58.863281 75.816406 L 58.753906 76.34375 L 58.664062 76.90625 L 58.59375 77.507812 L 58.542969 78.144531 L 58.515625 78.820312 L 58.503906 79.53125 L 58.515625 80.246094 L 58.542969 80.921875 L 58.59375 81.5625 L 58.664062 82.167969 L 58.753906 82.738281 L 58.863281 83.273438 L 58.996094 83.773438 L 59.144531 84.234375 L 59.3125 84.664062 L 59.503906 85.058594 L 59.710938 85.414062 L 59.929688 85.730469 L 60.164062 86.011719 L 60.410156 86.257812 L 60.667969 86.464844 L 60.9375 86.632812 L 61.222656 86.761719 L 61.519531 86.855469 L 61.832031 86.914062 Z M 62.15625 86.933594 "/>
<path fill-rule="nonzero" fill="rgb(10.196078%, 10.196078%, 10.196078%)" fill-opacity="1" d="M 74.128906 87.882812 L 73.683594 87.859375 L 73.261719 87.796875 L 72.855469 87.6875 L 72.472656 87.535156 L 72.109375 87.339844 L 71.769531 87.097656 L 71.445312 86.816406 L 71.144531 86.488281 L 70.863281 86.121094 L 70.605469 85.707031 L 70.367188 85.253906 L 70.15625 84.765625 L 69.96875 84.238281 L 69.804688 83.675781 L 69.667969 83.074219 L 69.554688 82.441406 L 69.46875 81.769531 L 69.40625 81.058594 L 69.367188 80.3125 L 69.355469 79.53125 L 69.367188 78.753906 L 69.40625 78.015625 L 69.46875 77.3125 L 69.554688 76.648438 L 69.667969 76.019531 L 69.804688 75.429688 L 69.96875 74.875 L 70.15625 74.355469 L 70.367188 73.875 L 70.605469 73.433594 L 70.863281 73.027344 L 71.144531 72.667969 L 71.445312 72.347656 L 71.769531 72.070312 L 72.109375 71.839844 L 72.472656 71.648438 L 72.855469 71.5 L 73.261719 71.390625 L 73.683594 71.328125 L 74.128906 71.308594 L 74.578125 71.328125 L 75.007812 71.390625 L 75.414062 71.5 L 75.796875 71.648438 L 76.160156 71.839844 L 76.503906 72.070312 L 76.824219 72.347656 L 77.121094 72.667969 L 77.398438 73.027344 L 77.65625 73.433594 L 77.890625 73.875 L 78.105469 74.355469 L 78.292969 74.875 L 78.453125 75.429688 L 78.59375 76.019531 L 78.703125 76.648438 L 78.792969 77.3125 L 78.855469 78.015625 L 78.890625 78.753906 L 78.90625 79.53125 L 78.890625 80.3125 L 78.855469 81.058594 L 78.792969 81.769531 L 78.703125 82.441406 L 78.59375 83.074219 L 78.453125 83.675781 L 78.292969 84.238281 L 78.105469 84.765625 L 77.890625 85.253906 L 77.65625 85.707031 L 77.398438 86.121094 L 77.121094 86.488281 L 76.824219 86.816406 L 76.503906 87.097656 L 76.160156 87.339844 L 75.796875 87.535156 L 75.414062 87.6875 L 75.007812 87.796875 L 74.578125 87.859375 Z M 74.128906 86.933594 L 74.457031 86.914062 L 74.769531 86.855469 L 75.070312 86.761719 L 75.355469 86.632812 L 75.628906 86.464844 L 75.886719 86.257812 L 76.132812 86.011719 L 76.363281 85.730469 L 76.578125 85.414062 L 76.78125 85.058594 L 76.96875 84.664062 L 77.140625 84.234375 L 77.289062 83.773438 L 77.417969 83.273438 L 77.53125 82.738281 L 77.621094 82.167969 L 77.6875 81.5625 L 77.738281 80.921875 L 77.769531 80.246094 L 77.78125 79.53125 L 77.769531 78.820312 L 77.738281 78.144531 L 77.6875 77.507812 L 77.621094 76.90625 L 77.53125 76.34375 L 77.417969 75.816406 L 77.289062 75.328125 L 77.140625 74.875 L 76.96875 74.460938 L 76.78125 74.082031 L 76.578125 73.734375 L 76.363281 73.425781 L 76.132812 73.152344 L 75.886719 72.914062 L 75.628906 72.714844 L 75.355469 72.550781 L 75.070312 72.421875 L 74.769531 72.328125 L 74.457031 72.273438 L 74.128906 72.257812 L 73.804688 72.273438 L 73.496094 72.328125 L 73.199219 72.421875 L 72.914062 72.550781 L 72.640625 72.714844 L 72.382812 72.914062 L 72.136719 73.152344 L 71.90625 73.425781 L 71.6875 73.734375 L 71.480469 74.082031 L 71.289062 74.460938 L 71.121094 74.875 L 70.96875 75.328125 L 70.839844 75.816406 L 70.730469 76.34375 L 70.640625 76.90625 L 70.570312 77.507812 L 70.519531 78.144531 L 70.488281 78.820312 L 70.480469 79.53125 L 70.488281 80.246094 L 70.519531 80.921875 L 70.570312 81.5625 L 70.640625 82.167969 L 70.730469 82.738281 L 70.839844 83.273438 L 70.96875 83.773438 L 71.121094 84.234375 L 71.289062 84.664062 L 71.480469 85.058594 L 71.6875 85.414062 L 71.90625 85.730469 L 72.136719 86.011719 L 72.382812 86.257812 L 72.640625 86.464844 L 72.914062 86.632812 L 73.199219 86.761719 L 73.496094 86.855469 L 73.804688 86.914062 Z M 74.128906 86.933594 "/>
<path fill-rule="nonzero" fill="rgb(10.196078%, 10.196078%, 10.196078%)" fill-opacity="1" d="M 86.105469 87.882812 L 85.660156 87.859375 L 85.234375 87.796875 L 84.832031 87.6875 L 84.449219 87.535156 L 84.085938 87.339844 L 83.742188 87.097656 L 83.421875 86.816406 L 83.121094 86.488281 L 82.839844 86.121094 L 82.578125 85.707031 L 82.34375 85.253906 L 82.128906 84.765625 L 81.941406 84.238281 L 81.78125 83.675781 L 81.640625 83.074219 L 81.53125 82.441406 L 81.441406 81.769531 L 81.378906 81.058594 L 81.34375 80.3125 L 81.328125 79.53125 L 81.34375 78.753906 L 81.378906 78.015625 L 81.441406 77.3125 L 81.53125 76.648438 L 81.640625 76.019531 L 81.78125 75.429688 L 81.941406 74.875 L 82.128906 74.355469 L 82.34375 73.875 L 82.578125 73.433594 L 82.839844 73.027344 L 83.121094 72.667969 L 83.421875 72.347656 L 83.742188 72.070312 L 84.085938 71.839844 L 84.449219 71.648438 L 84.832031 71.5 L 85.234375 71.390625 L 85.660156 71.328125 L 86.105469 71.308594 L 86.554688 71.328125 L 86.980469 71.390625 L 87.386719 71.5 L 87.773438 71.648438 L 88.136719 71.839844 L 88.476562 72.070312 L 88.796875 72.347656 L 89.097656 72.667969 L 89.375 73.027344 L 89.628906 73.433594 L 89.867188 73.875 L 90.078125 74.355469 L 90.265625 74.875 L 90.429688 75.429688 L 90.566406 76.019531 L 90.679688 76.648438 L 90.765625 77.3125 L 90.828125 78.015625 L 90.867188 78.753906 L 90.878906 79.53125 L 90.867188 80.3125 L 90.828125 81.058594 L 90.765625 81.769531 L 90.679688 82.441406 L 90.566406 83.074219 L 90.429688 83.675781 L 90.265625 84.238281 L 90.078125 84.765625 L 89.867188 85.253906 L 89.628906 85.707031 L 89.375 86.121094 L 89.097656 86.488281 L 88.796875 86.816406 L 88.476562 87.097656 L 88.136719 87.339844 L 87.773438 87.535156 L 87.386719 87.6875 L 86.980469 87.796875 L 86.554688 87.859375 Z M 86.105469 86.933594 L 86.433594 86.914062 L 86.746094 86.855469 L 87.046875 86.761719 L 87.332031 86.632812 L 87.605469 86.464844 L 87.863281 86.257812 L 88.105469 86.011719 L 88.335938 85.730469 L 88.550781 85.414062 L 88.753906 85.058594 L 88.945312 84.664062 L 89.113281 84.234375 L 89.265625 83.773438 L 89.394531 83.273438 L 89.503906 82.738281 L 89.59375 82.167969 L 89.664062 81.5625 L 89.714844 80.921875 L 89.746094 80.246094 L 89.753906 79.53125 L 89.746094 78.820312 L 89.714844 78.144531 L 89.664062 77.507812 L 89.59375 76.90625 L 89.503906 76.34375 L 89.394531 75.816406 L 89.265625 75.328125 L 89.113281 74.875 L 88.945312 74.460938 L 88.753906 74.082031 L 88.550781 73.734375 L 88.335938 73.425781 L 88.105469 73.152344 L 87.863281 72.914062 L 87.605469 72.714844 L 87.332031 72.550781 L 87.046875 72.421875 L 86.746094 72.328125 L 86.433594 72.273438 L 86.105469 72.257812 L 85.78125 72.273438 L 85.46875 72.328125 L 85.171875 72.421875 L 84.886719 72.550781 L 84.617188 72.714844 L 84.359375 72.914062 L 84.113281 73.152344 L 83.878906 73.425781 L 83.660156 73.734375 L 83.453125 74.082031 L 83.265625 74.460938 L 83.09375 74.875 L 82.945312 75.328125 L 82.8125 75.816406 L 82.703125 76.34375 L 82.613281 76.90625 L 82.542969 77.507812 L 82.496094 78.144531 L 82.464844 78.820312 L 82.453125 79.53125 L 82.464844 80.246094 L 82.496094 80.921875 L 82.542969 81.5625 L 82.613281 82.167969 L 82.703125 82.738281 L 82.8125 83.273438 L 82.945312 83.773438 L 83.09375 84.234375 L 83.265625 84.664062 L 83.453125 85.058594 L 83.660156 85.414062 L 83.878906 85.730469 L 84.113281 86.011719 L 84.359375 86.257812 L 84.617188 86.464844 L 84.886719 86.632812 L 85.171875 86.761719 L 85.46875 86.855469 L 85.78125 86.914062 Z M 86.105469 86.933594 "/>
<path fill-rule="nonzero" fill="rgb(10.196078%, 10.196078%, 10.196078%)" fill-opacity="1" d="M 282.332031 297.964844 L 281.28125 301.039062 L 287.132812 301.039062 L 286.082031 297.964844 L 285.984375 297.667969 L 285.882812 297.378906 L 285.789062 297.089844 L 285.59375 296.519531 L 285.5 296.238281 L 285.40625 295.960938 L 285.316406 295.683594 L 285.222656 295.410156 L 285.132812 295.136719 L 285.042969 294.867188 L 284.863281 294.3125 L 284.777344 294.03125 L 284.6875 293.746094 L 284.601562 293.453125 L 284.515625 293.164062 L 284.429688 292.867188 L 284.34375 292.566406 L 284.257812 292.261719 L 284.15625 292.261719 L 284.074219 292.566406 L 283.988281 292.867188 L 283.902344 293.164062 L 283.8125 293.453125 L 283.726562 293.746094 L 283.636719 294.03125 L 283.550781 294.3125 L 283.371094 294.867188 L 283.28125 295.136719 L 283.101562 295.683594 L 282.914062 296.238281 L 282.820312 296.519531 L 282.726562 296.804688 L 282.628906 297.089844 L 282.433594 297.667969 Z M 277.832031 307.664062 L 283.632812 291.1875 L 284.78125 291.1875 L 290.582031 307.664062 L 289.382812 307.664062 L 287.457031 302.011719 L 280.933594 302.011719 L 278.984375 307.664062 Z M 277.832031 307.664062 "/>
<path fill-rule="nonzero" fill="rgb(10.196078%, 10.196078%, 10.196078%)" fill-opacity="1" d="M 588.371094 307.664062 L 588.371094 291.1875 L 592.820312 291.1875 L 593.3125 291.199219 L 593.78125 291.226562 L 594.230469 291.277344 L 594.65625 291.34375 L 595.066406 291.433594 L 595.453125 291.539062 L 595.820312 291.664062 L 596.164062 291.8125 L 596.492188 291.976562 L 596.796875 292.164062 L 597.078125 292.363281 L 597.328125 292.589844 L 597.550781 292.835938 L 597.742188 293.101562 L 597.902344 293.394531 L 598.035156 293.707031 L 598.140625 294.042969 L 598.214844 294.402344 L 598.257812 294.785156 L 598.273438 295.1875 L 598.265625 295.445312 L 598.246094 295.695312 L 598.214844 295.9375 L 598.167969 296.175781 L 598.109375 296.40625 L 598.039062 296.632812 L 597.953125 296.847656 L 597.855469 297.058594 L 597.746094 297.265625 L 597.621094 297.464844 L 597.484375 297.648438 L 597.339844 297.820312 L 597.179688 297.980469 L 597.007812 298.132812 L 596.820312 298.269531 L 596.625 298.394531 L 596.417969 298.511719 L 596.199219 298.613281 L 595.964844 298.707031 L 595.722656 298.789062 L 595.722656 298.886719 L 596.035156 298.945312 L 596.335938 299.019531 L 596.625 299.109375 L 596.902344 299.210938 L 597.164062 299.332031 L 597.417969 299.46875 L 597.65625 299.617188 L 597.882812 299.785156 L 598.09375 299.964844 L 598.296875 300.164062 L 598.480469 300.371094 L 598.648438 300.589844 L 598.792969 300.824219 L 598.921875 301.074219 L 599.027344 301.339844 L 599.117188 301.613281 L 599.183594 301.90625 L 599.234375 302.210938 L 599.261719 302.53125 L 599.273438 302.863281 L 599.253906 303.328125 L 599.203125 303.765625 L 599.121094 304.183594 L 599.003906 304.578125 L 598.851562 304.949219 L 598.667969 305.300781 L 598.449219 305.625 L 598.199219 305.925781 L 597.914062 306.207031 L 597.597656 306.464844 L 597.253906 306.691406 L 596.890625 306.894531 L 596.503906 307.074219 L 596.09375 307.230469 L 595.660156 307.363281 L 595.203125 307.472656 L 594.722656 307.554688 L 594.222656 307.613281 L 593.695312 307.652344 L 593.148438 307.664062 Z M 589.523438 298.4375 L 592.371094 298.4375 L 592.863281 298.429688 L 593.324219 298.40625 L 593.757812 298.363281 L 594.164062 298.304688 L 594.539062 298.230469 L 594.890625 298.140625 L 595.207031 298.035156 L 595.5 297.910156 L 595.761719 297.769531 L 595.996094 297.613281 L 596.210938 297.4375 L 596.402344 297.25 L 596.570312 297.050781 L 596.71875 296.835938 L 596.839844 296.613281 L 596.941406 296.375 L 597.019531 296.128906 L 597.078125 295.867188 L 597.109375 295.597656 L 597.121094 295.3125 L 597.109375 294.972656 L 597.074219 294.65625 L 597.015625 294.359375 L 596.933594 294.082031 L 596.828125 293.824219 L 596.699219 293.589844 L 596.546875 293.378906 L 596.371094 293.183594 L 596.171875 293.011719 L 595.945312 292.863281 L 595.699219 292.726562 L 595.433594 292.601562 L 595.144531 292.492188 L 594.832031 292.398438 L 594.496094 292.320312 L 594.140625 292.253906 L 593.761719 292.203125 L 593.363281 292.167969 L 592.941406 292.144531 L 592.496094 292.136719 L 589.523438 292.136719 Z M 589.523438 306.714844 L 592.847656 306.714844 L 593.328125 306.703125 L 593.785156 306.675781 L 594.226562 306.628906 L 594.644531 306.566406 L 595.039062 306.480469 L 595.417969 306.378906 L 595.773438 306.257812 L 596.109375 306.121094 L 596.425781 305.964844 L 596.722656 305.789062 L 596.992188 305.59375 L 597.234375 305.375 L 597.449219 305.136719 L 597.632812 304.878906 L 597.789062 304.601562 L 597.917969 304.300781 L 598.019531 303.976562 L 598.089844 303.636719 L 598.132812 303.273438 L 598.148438 302.886719 L 598.132812 302.542969 L 598.089844 302.214844 L 598.019531 301.90625 L 597.921875 301.617188 L 597.796875 301.34375 L 597.644531 301.089844 L 597.460938 300.855469 L 597.25 300.640625 L 597.011719 300.441406 L 596.746094 300.261719 L 596.460938 300.097656 L 596.152344 299.949219 L 595.820312 299.816406 L 595.464844 299.703125 L 595.085938 299.605469 L 594.683594 299.527344 L 594.257812 299.464844 L 593.8125 299.421875 L 593.339844 299.398438 L 592.847656 299.386719 L 589.523438 299.386719 Z M 589.523438 306.714844 "/>
<path fill-rule="nonzero" fill="rgb(0%, 0%, 0%)" fill-opacity="1" d="M 31.242188 174.929688 L 13.449219 174.929688 L 13.449219 169.828125 L 13.460938 169.308594 L 13.492188 168.8125 L 13.546875 168.335938 L 13.621094 167.878906 L 13.71875 167.445312 L 13.839844 167.03125 L 13.980469 166.640625 L 14.140625 166.269531 L 14.324219 165.917969 L 14.53125 165.589844 L 14.753906 165.285156 L 15.011719 165.015625 L 15.296875 164.777344 L 15.613281 164.570312 L 15.960938 164.394531 L 16.335938 164.25 L 16.746094 164.140625 L 17.183594 164.058594 L 17.648438 164.011719 L 18.148438 163.996094 L 18.566406 164.007812 L 18.964844 164.046875 L 19.34375 164.109375 L 19.707031 164.195312 L 20.050781 164.308594 L 20.375 164.445312 L 20.683594 164.605469 L 20.972656 164.792969 L 21.242188 165.003906 L 21.496094 165.238281 L 21.730469 165.488281 L 21.945312 165.761719 L 22.140625 166.046875 L 22.316406 166.351562 L 22.472656 166.675781 L 22.613281 167.015625 L 22.734375 167.375 L 22.835938 167.753906 L 22.917969 168.148438 L 22.980469 168.558594 L 31.242188 163.644531 L 31.242188 165.078125 L 23.0625 169.910156 L 23.0625 173.6875 L 31.242188 173.6875 Z M 22.035156 173.6875 L 22.035156 170.152344 L 22.027344 169.691406 L 21.996094 169.257812 L 21.949219 168.839844 L 21.882812 168.445312 L 21.800781 168.074219 L 21.695312 167.722656 L 21.574219 167.394531 L 21.429688 167.085938 L 21.269531 166.800781 L 21.089844 166.535156 L 20.886719 166.292969 L 20.660156 166.078125 L 20.417969 165.886719 L 20.152344 165.722656 L 19.867188 165.582031 L 19.566406 165.46875 L 19.242188 165.378906 L 18.894531 165.316406 L 18.53125 165.277344 L 18.148438 165.265625 L 17.761719 165.277344 L 17.394531 165.316406 L 17.054688 165.378906 L 16.738281 165.46875 L 16.445312 165.582031 L 16.175781 165.722656 L 15.933594 165.886719 L 15.710938 166.078125 L 15.511719 166.292969 L 15.339844 166.535156 L 15.179688 166.800781 L 15.039062 167.085938 L 14.914062 167.394531 L 14.804688 167.722656 L 14.710938 168.074219 L 14.636719 168.445312 L 14.578125 168.839844 L 14.535156 169.257812 L 14.511719 169.691406 L 14.503906 170.152344 L 14.503906 173.6875 Z M 22.035156 173.6875 "/>
<path fill-rule="nonzero" fill="rgb(0%, 0%, 0%)" fill-opacity="1" d="M 31.566406 155.464844 L 31.558594 155.789062 L 31.535156 156.113281 L 31.492188 156.429688 L 31.4375 156.738281 L 31.363281 157.042969 L 31.273438 157.34375 L 31.167969 157.636719 L 31.046875 157.925781 L 30.910156 158.210938 L 30.757812 158.488281 L 30.585938 158.753906 L 30.40625 159.007812 L 30.207031 159.25 L 29.996094 159.480469 L 29.769531 159.703125 L 29.53125 159.914062 L 29.277344 160.113281 L 29.011719 160.300781 L 28.730469 160.480469 L 28.433594 160.648438 L 28.121094 160.800781 L 27.796875 160.941406 L 27.460938 161.0625 L 27.113281 161.167969 L 26.753906 161.253906 L 26.382812 161.328125 L 26.003906 161.386719 L 25.609375 161.425781 L 25.207031 161.449219 L 24.789062 161.457031 L 24.371094 161.449219 L 23.960938 161.425781 L 23.566406 161.386719 L 23.183594 161.328125 L 22.8125 161.253906 L 22.453125 161.167969 L 22.109375 161.0625 L 21.773438 160.941406 L 21.453125 160.800781 L 21.144531 160.648438 L 20.84375 160.480469 L 20.558594 160.304688 L 20.285156 160.117188 L 20.03125 159.921875 L 19.789062 159.714844 L 19.558594 159.5 L 19.347656 159.277344 L 19.148438 159.042969 L 18.964844 158.796875 L 18.796875 158.542969 L 18.636719 158.28125 L 18.496094 158.019531 L 18.367188 157.753906 L 18.261719 157.484375 L 18.167969 157.210938 L 18.09375 156.9375 L 18.035156 156.660156 L 17.992188 156.382812 L 17.96875 156.101562 L 17.957031 155.816406 L 17.972656 155.359375 L 18.019531 154.925781 L 18.097656 154.511719 L 18.210938 154.117188 L 18.351562 153.742188 L 18.523438 153.386719 L 18.726562 153.054688 L 18.960938 152.738281 L 19.226562 152.445312 L 19.523438 152.171875 L 19.851562 151.917969 L 20.203125 151.695312 L 20.582031 151.496094 L 20.984375 151.324219 L 21.414062 151.179688 L 21.871094 151.058594 L 22.351562 150.964844 L 22.859375 150.898438 L 23.394531 150.859375 L 23.953125 150.847656 L 24.050781 150.847656 L 24.097656 150.851562 L 24.148438 150.851562 L 24.195312 150.855469 L 24.246094 150.855469 L 24.339844 150.863281 L 24.390625 150.871094 L 24.4375 150.875 L 24.535156 150.875 L 24.585938 150.878906 L 24.679688 150.886719 L 24.730469 150.894531 L 24.777344 150.902344 L 24.828125 150.910156 L 24.875 150.917969 L 24.925781 150.929688 L 24.925781 160.242188 L 25.246094 160.230469 L 25.558594 160.210938 L 25.863281 160.175781 L 26.164062 160.132812 L 26.457031 160.074219 L 26.742188 160.007812 L 27.019531 159.925781 L 27.292969 159.835938 L 27.554688 159.734375 L 27.8125 159.621094 L 28.0625 159.492188 L 28.300781 159.355469 L 28.527344 159.207031 L 28.742188 159.050781 L 28.949219 158.886719 L 29.140625 158.710938 L 29.324219 158.527344 L 29.5 158.335938 L 29.660156 158.132812 L 29.8125 157.921875 L 29.949219 157.695312 L 30.074219 157.464844 L 30.183594 157.226562 L 30.277344 156.980469 L 30.359375 156.726562 L 30.425781 156.464844 L 30.476562 156.199219 L 30.511719 155.925781 L 30.535156 155.644531 L 30.539062 155.355469 L 30.539062 155.148438 L 30.527344 154.945312 L 30.511719 154.742188 L 30.488281 154.546875 L 30.460938 154.355469 L 30.425781 154.171875 L 30.382812 153.988281 L 30.332031 153.808594 L 30.277344 153.636719 L 30.214844 153.464844 L 30.148438 153.292969 L 30.078125 153.125 L 30.003906 152.960938 L 29.925781 152.796875 L 29.84375 152.636719 L 29.757812 152.476562 L 29.671875 152.324219 L 29.578125 152.171875 L 29.480469 152.019531 L 29.378906 151.875 L 30.296875 151.386719 L 30.390625 151.539062 L 30.480469 151.695312 L 30.566406 151.859375 L 30.65625 152.023438 L 30.742188 152.191406 L 30.828125 152.363281 L 30.914062 152.539062 L 30.996094 152.71875 L 31.078125 152.902344 L 31.160156 153.089844 L 31.238281 153.28125 L 31.308594 153.484375 L 31.367188 153.699219 L 31.421875 153.921875 L 31.464844 154.15625 L 31.5 154.398438 L 31.53125 154.648438 L 31.550781 154.910156 L 31.5625 155.183594 Z M 23.953125 160.242188 L 23.953125 151.980469 L 23.46875 151.992188 L 23.007812 152.023438 L 22.574219 152.074219 L 22.164062 152.144531 L 21.777344 152.238281 L 21.417969 152.351562 L 21.082031 152.484375 L 20.773438 152.636719 L 20.488281 152.8125 L 20.226562 153.007812 L 19.992188 153.21875 L 19.78125 153.445312 L 19.59375 153.6875 L 19.433594 153.945312 L 19.296875 154.214844 L 19.183594 154.5 L 19.097656 154.800781 L 19.035156 155.117188 L 18.996094 155.445312 L 18.984375 155.789062 L 18.992188 156.007812 L 19.007812 156.226562 L 19.039062 156.441406 L 19.078125 156.652344 L 19.132812 156.863281 L 19.199219 157.066406 L 19.277344 157.273438 L 19.363281 157.472656 L 19.464844 157.671875 L 19.578125 157.867188 L 19.703125 158.054688 L 19.835938 158.234375 L 19.980469 158.40625 L 20.136719 158.574219 L 20.300781 158.738281 L 20.476562 158.894531 L 20.660156 159.042969 L 20.855469 159.1875 L 21.0625 159.328125 L 21.28125 159.460938 L 21.503906 159.585938 L 21.742188 159.699219 L 21.984375 159.804688 L 22.238281 159.898438 L 22.5 159.980469 L 22.773438 160.054688 L 23.054688 160.117188 L 23.34375 160.167969 L 23.644531 160.210938 Z M 23.953125 160.242188 "/>
<path fill-rule="nonzero" fill="rgb(0%, 0%, 0%)" fill-opacity="1" d="M 31.242188 147.335938 L 18.28125 147.335938 L 18.28125 146.3125 L 20.28125 146.203125 L 20.28125 146.121094 L 20.085938 145.921875 L 19.894531 145.71875 L 19.710938 145.519531 L 19.539062 145.3125 L 19.371094 145.109375 L 19.207031 144.902344 L 19.054688 144.695312 L 18.90625 144.488281 L 18.765625 144.28125 L 18.632812 144.070312 L 18.503906 143.851562 L 18.390625 143.628906 L 18.289062 143.402344 L 18.203125 143.167969 L 18.128906 142.929688 L 18.066406 142.6875 L 18.019531 142.4375 L 17.984375 142.1875 L 17.964844 141.929688 L 17.957031 141.667969 L 17.972656 141.277344 L 18.007812 140.910156 L 18.070312 140.5625 L 18.15625 140.238281 L 18.269531 139.933594 L 18.40625 139.648438 L 18.566406 139.386719 L 18.753906 139.144531 L 18.964844 138.921875 L 19.199219 138.722656 L 19.457031 138.539062 L 19.738281 138.375 L 20.046875 138.230469 L 20.378906 138.101562 L 20.738281 137.996094 L 21.125 137.90625 L 21.535156 137.839844 L 21.972656 137.792969 L 22.4375 137.761719 L 22.925781 137.753906 L 31.242188 137.753906 L 31.242188 138.941406 L 23.089844 138.941406 L 22.683594 138.949219 L 22.300781 138.96875 L 21.941406 139.003906 L 21.601562 139.050781 L 21.285156 139.117188 L 20.992188 139.191406 L 20.71875 139.285156 L 20.46875 139.390625 L 20.242188 139.507812 L 20.039062 139.640625 L 19.847656 139.785156 L 19.679688 139.949219 L 19.527344 140.128906 L 19.398438 140.328125 L 19.289062 140.546875 L 19.199219 140.78125 L 19.128906 141.035156 L 19.078125 141.308594 L 19.046875 141.601562 L 19.039062 141.910156 L 19.042969 142.140625 L 19.0625 142.367188 L 19.09375 142.585938 L 19.136719 142.804688 L 19.195312 143.015625 L 19.261719 143.226562 L 19.34375 143.429688 L 19.4375 143.628906 L 19.542969 143.824219 L 19.660156 144.015625 L 19.785156 144.207031 L 19.921875 144.402344 L 20.070312 144.605469 L 20.234375 144.8125 L 20.410156 145.023438 L 20.597656 145.238281 L 20.796875 145.457031 L 21.007812 145.683594 L 21.230469 145.914062 L 21.46875 146.148438 L 31.242188 146.148438 Z M 31.242188 147.335938 "/>
<path fill-rule="nonzero" fill="rgb(0%, 0%, 0%)" fill-opacity="1" d="M 31.566406 128.679688 L 31.550781 129.160156 L 31.496094 129.625 L 31.410156 130.066406 L 31.285156 130.484375 L 31.128906 130.886719 L 30.933594 131.269531 L 30.707031 131.628906 L 30.445312 131.972656 L 30.144531 132.292969 L 29.8125 132.59375 L 29.445312 132.871094 L 29.050781 133.121094 L 28.621094 133.339844 L 28.164062 133.527344 L 27.679688 133.6875 L 27.160156 133.820312 L 26.613281 133.921875 L 26.035156 133.996094 L 25.429688 134.039062 L 24.789062 134.054688 L 24.375 134.046875 L 23.972656 134.023438 L 23.578125 133.984375 L 23.199219 133.929688 L 22.832031 133.859375 L 22.476562 133.769531 L 22.132812 133.667969 L 21.800781 133.550781 L 21.480469 133.417969 L 21.171875 133.269531 L 20.871094 133.101562 L 20.585938 132.925781 L 20.3125 132.742188 L 20.050781 132.542969 L 19.808594 132.339844 L 19.578125 132.125 L 19.359375 131.898438 L 19.160156 131.664062 L 18.96875 131.417969 L 18.796875 131.164062 L 18.636719 130.898438 L 18.496094 130.625 L 18.367188 130.351562 L 18.261719 130.070312 L 18.167969 129.789062 L 18.09375 129.5 L 18.035156 129.207031 L 17.992188 128.910156 L 17.96875 128.609375 L 17.957031 128.300781 L 17.960938 128.066406 L 17.976562 127.839844 L 17.996094 127.617188 L 18.027344 127.402344 L 18.066406 127.195312 L 18.113281 126.992188 L 18.171875 126.796875 L 18.234375 126.609375 L 18.308594 126.425781 L 18.390625 126.25 L 18.476562 126.070312 L 18.566406 125.890625 L 18.664062 125.707031 L 18.769531 125.523438 L 18.882812 125.339844 L 19.003906 125.152344 L 19.128906 124.964844 L 19.261719 124.773438 L 19.402344 124.582031 L 19.550781 124.386719 L 17.175781 124.441406 L 11.828125 124.441406 L 11.828125 123.253906 L 31.242188 123.253906 L 31.242188 124.277344 L 29.570312 124.386719 L 29.570312 124.46875 L 29.722656 124.628906 L 29.875 124.792969 L 30.023438 124.964844 L 30.167969 125.140625 L 30.3125 125.324219 L 30.449219 125.515625 L 30.585938 125.710938 L 30.71875 125.910156 L 30.847656 126.117188 L 30.972656 126.332031 L 31.085938 126.542969 L 31.1875 126.761719 L 31.277344 126.984375 L 31.351562 127.210938 L 31.417969 127.445312 L 31.472656 127.683594 L 31.511719 127.925781 L 31.542969 128.171875 L 31.5625 128.421875 Z M 30.511719 128.519531 L 30.507812 128.304688 L 30.492188 128.089844 L 30.464844 127.878906 L 30.425781 127.671875 L 30.378906 127.464844 L 30.320312 127.261719 L 30.25 127.058594 L 30.167969 126.859375 L 30.074219 126.660156 L 29.972656 126.464844 L 29.855469 126.265625 L 29.726562 126.066406 L 29.59375 125.863281 L 29.445312 125.664062 L 29.292969 125.460938 L 29.128906 125.257812 L 28.953125 125.054688 L 28.773438 124.851562 L 28.582031 124.644531 L 28.378906 124.441406 L 20.6875 124.441406 L 20.507812 124.644531 L 20.339844 124.847656 L 20.183594 125.046875 L 20.039062 125.246094 L 19.902344 125.441406 L 19.777344 125.632812 L 19.664062 125.824219 L 19.5625 126.015625 L 19.46875 126.199219 L 19.390625 126.386719 L 19.316406 126.5625 L 19.253906 126.742188 L 19.195312 126.925781 L 19.148438 127.105469 L 19.105469 127.289062 L 19.070312 127.472656 L 19.046875 127.660156 L 19.027344 127.84375 L 19.015625 128.03125 L 19.011719 128.222656 L 19.019531 128.476562 L 19.042969 128.730469 L 19.082031 128.972656 L 19.136719 129.214844 L 19.207031 129.449219 L 19.292969 129.679688 L 19.394531 129.902344 L 19.511719 130.121094 L 19.644531 130.335938 L 19.792969 130.542969 L 19.949219 130.746094 L 20.117188 130.9375 L 20.296875 131.121094 L 20.484375 131.300781 L 20.6875 131.46875 L 20.894531 131.628906 L 21.117188 131.78125 L 21.351562 131.925781 L 21.59375 132.0625 L 21.847656 132.191406 L 22.109375 132.304688 L 22.378906 132.402344 L 22.65625 132.492188 L 22.941406 132.570312 L 23.230469 132.636719 L 23.527344 132.6875 L 23.832031 132.730469 L 24.144531 132.761719 L 24.464844 132.777344 L 24.789062 132.785156 L 25.292969 132.773438 L 25.777344 132.738281 L 26.242188 132.683594 L 26.6875 132.605469 L 27.113281 132.507812 L 27.519531 132.386719 L 27.902344 132.242188 L 28.269531 132.074219 L 28.621094 131.886719 L 28.949219 131.675781 L 29.246094 131.445312 L 29.511719 131.195312 L 29.746094 130.929688 L 29.949219 130.640625 L 30.121094 130.335938 L 30.261719 130.007812 L 30.371094 129.664062 L 30.449219 129.300781 L 30.496094 128.917969 Z M 30.511719 128.519531 "/>
<path fill-rule="nonzero" fill="rgb(0%, 0%, 0%)" fill-opacity="1" d="M 31.566406 115.449219 L 31.558594 115.753906 L 31.53125 116.046875 L 31.488281 116.335938 L 31.429688 116.613281 L 31.351562 116.882812 L 31.253906 117.140625 L 31.144531 117.394531 L 31.011719 117.636719 L 30.867188 117.871094 L 30.703125 118.097656 L 30.519531 118.304688 L 30.316406 118.496094 L 30.097656 118.660156 L 29.855469 118.804688 L 29.59375 118.925781 L 29.316406 119.027344 L 29.015625 119.105469 L 28.699219 119.160156 L 28.359375 119.191406 L 28.003906 119.203125 L 27.582031 119.183594 L 27.179688 119.121094 L 26.800781 119.019531 L 26.441406 118.878906 L 26.105469 118.695312 L 25.789062 118.472656 L 25.496094 118.210938 L 25.21875 117.90625 L 24.96875 117.5625 L 24.734375 117.179688 L 24.515625 116.75 L 24.308594 116.277344 L 24.113281 115.757812 L 23.933594 115.191406 L 23.761719 114.578125 L 23.609375 113.921875 L 23.464844 113.21875 L 23.335938 112.46875 L 23.21875 111.675781 L 23.117188 110.832031 L 22.71875 110.832031 L 22.523438 110.839844 L 22.328125 110.855469 L 22.136719 110.875 L 21.945312 110.898438 L 21.570312 110.960938 L 21.382812 111.003906 L 21.199219 111.050781 L 21.011719 111.101562 L 20.832031 111.164062 L 20.660156 111.234375 L 20.496094 111.3125 L 20.335938 111.398438 L 20.179688 111.496094 L 20.035156 111.601562 L 19.894531 111.714844 L 19.761719 111.835938 L 19.632812 111.96875 L 19.515625 112.101562 L 19.410156 112.253906 L 19.316406 112.414062 L 19.234375 112.589844 L 19.167969 112.777344 L 19.109375 112.976562 L 19.066406 113.191406 L 19.035156 113.417969 L 19.019531 113.660156 L 19.011719 113.910156 L 19.015625 114.167969 L 19.03125 114.421875 L 19.058594 114.667969 L 19.09375 114.914062 L 19.140625 115.152344 L 19.195312 115.390625 L 19.261719 115.621094 L 19.339844 115.847656 L 19.425781 116.070312 L 19.523438 116.289062 L 19.625 116.5 L 19.730469 116.703125 L 19.828125 116.898438 L 19.929688 117.085938 L 20.03125 117.265625 L 20.128906 117.4375 L 20.230469 117.601562 L 20.328125 117.757812 L 20.425781 117.902344 L 20.523438 118.042969 L 19.632812 118.582031 L 19.566406 118.488281 L 19.5 118.386719 L 19.433594 118.28125 L 19.363281 118.171875 L 19.296875 118.054688 L 19.222656 117.933594 L 19.152344 117.808594 L 19.078125 117.675781 L 19.003906 117.539062 L 18.929688 117.394531 L 18.851562 117.246094 L 18.773438 117.09375 L 18.699219 116.941406 L 18.628906 116.78125 L 18.558594 116.617188 L 18.492188 116.453125 L 18.429688 116.28125 L 18.367188 116.105469 L 18.3125 115.929688 L 18.253906 115.746094 L 18.199219 115.558594 L 18.148438 115.363281 L 18.105469 115.171875 L 18.066406 114.972656 L 18.03125 114.773438 L 18.007812 114.574219 L 17.984375 114.371094 L 17.96875 114.167969 L 17.960938 113.957031 L 17.957031 113.75 L 17.964844 113.449219 L 17.984375 113.160156 L 18.019531 112.882812 L 18.066406 112.621094 L 18.128906 112.371094 L 18.203125 112.136719 L 18.289062 111.914062 L 18.390625 111.703125 L 18.503906 111.503906 L 18.632812 111.320312 L 18.773438 111.144531 L 18.921875 110.984375 L 19.078125 110.832031 L 19.246094 110.6875 L 19.421875 110.554688 L 19.609375 110.433594 L 19.804688 110.324219 L 20.007812 110.222656 L 20.21875 110.132812 L 20.441406 110.050781 L 20.667969 109.972656 L 20.898438 109.90625 L 21.132812 109.84375 L 21.375 109.792969 L 21.625 109.746094 L 21.878906 109.710938 L 22.136719 109.683594 L 22.402344 109.660156 L 22.675781 109.648438 L 22.953125 109.644531 L 31.242188 109.644531 L 31.242188 110.671875 L 29.570312 110.777344 L 29.570312 110.859375 L 29.875 111.265625 L 30.023438 111.472656 L 30.167969 111.683594 L 30.3125 111.898438 L 30.449219 112.117188 L 30.585938 112.339844 L 30.71875 112.5625 L 30.847656 112.789062 L 30.972656 113.019531 L 31.085938 113.253906 L 31.1875 113.488281 L 31.277344 113.726562 L 31.351562 113.964844 L 31.417969 114.207031 L 31.472656 114.453125 L 31.511719 114.699219 L 31.542969 114.945312 L 31.5625 115.199219 Z M 30.539062 115.234375 L 30.535156 115.015625 L 30.519531 114.792969 L 30.492188 114.578125 L 30.453125 114.363281 L 30.40625 114.148438 L 30.347656 113.933594 L 30.277344 113.722656 L 30.195312 113.515625 L 30.101562 113.308594 L 30 113.101562 L 29.886719 112.890625 L 29.765625 112.671875 L 29.632812 112.453125 L 29.492188 112.234375 L 29.339844 112.007812 L 29.175781 111.78125 L 29.007812 111.546875 L 28.824219 111.3125 L 28.636719 111.074219 L 28.433594 110.832031 L 24.035156 110.832031 L 24.101562 111.355469 L 24.171875 111.859375 L 24.246094 112.335938 L 24.324219 112.792969 L 24.40625 113.230469 L 24.492188 113.640625 L 24.578125 114.03125 L 24.671875 114.402344 L 24.769531 114.746094 L 24.871094 115.074219 L 24.976562 115.375 L 25.085938 115.664062 L 25.203125 115.933594 L 25.324219 116.183594 L 25.449219 116.414062 L 25.582031 116.628906 L 25.722656 116.828125 L 25.863281 117.007812 L 26.011719 117.167969 L 26.167969 117.3125 L 26.320312 117.441406 L 26.480469 117.554688 L 26.644531 117.65625 L 26.816406 117.746094 L 26.988281 117.820312 L 27.171875 117.878906 L 27.355469 117.925781 L 27.550781 117.960938 L 27.746094 117.980469 L 27.949219 117.988281 L 28.222656 117.980469 L 28.476562 117.957031 L 28.71875 117.914062 L 28.941406 117.859375 L 29.148438 117.785156 L 29.339844 117.695312 L 29.515625 117.589844 L 29.675781 117.46875 L 29.820312 117.332031 L 29.945312 117.179688 L 30.058594 117.007812 L 30.160156 116.832031 L 30.25 116.652344 L 30.328125 116.464844 L 30.390625 116.273438 L 30.445312 116.078125 L 30.488281 115.875 L 30.515625 115.667969 L 30.535156 115.453125 Z M 30.539062 115.234375 "/>
</svg>
