<?xml version="1.0" encoding="UTF-8"?>
<svg xmlns="http://www.w3.org/2000/svg" xmlns:xlink="http://www.w3.org/1999/xlink" width="792" height="374" viewBox="0 0 792 374">
<defs>
<clipPath id="clip-0">
<path clip-rule="nonzero" d="M 61.480469 13.449219 L 778.550781 13.449219 L 778.550781 326.195312 L 61.480469 326.195312 Z M 61.480469 13.449219 "/>
</clipPath>
<clipPath id="clip-1">
<path clip-rule="nonzero" d="M 61.480469 310 L 778.550781 310 L 778.550781 314 L 61.480469 314 Z M 61.480469 310 "/>
</clipPath>
<clipPath id="clip-2">
<path clip-rule="nonzero" d="M 61.480469 237 L 778.550781 237 L 778.550781 241 L 61.480469 241 Z M 61.480469 237 "/>
</clipPath>
<clipPath id="clip-3">
<path clip-rule="nonzero" d="M 61.480469 164 L 778.550781 164 L 778.550781 168 L 61.480469 168 Z M 61.480469 164 "/>
</clipPath>
<clipPath id="clip-4">
<path clip-rule="nonzero" d="M 61.480469 91 L 778.550781 91 L 778.550781 95 L 61.480469 95 Z M 61.480469 91 "/>
</clipPath>
<clipPath id="clip-5">
<path clip-rule="nonzero" d="M 61.480469 19 L 778.550781 19 L 778.550781 22 L 61.480469 22 Z M 61.480469 19 "/>
</clipPath>
<clipPath id="clip-6">
<path clip-rule="nonzero" d="M 207 13.449219 L 211 13.449219 L 211 326.195312 L 207 326.195312 Z M 207 13.449219 "/>
</clipPath>
<clipPath id="clip-7">
<path clip-rule="nonzero" d="M 386 13.449219 L 389 13.449219 L 389 326.195312 L 386 326.195312 Z M 386 13.449219 "/>
</clipPath>
<clipPath id="clip-8">
<path clip-rule="nonzero" d="M 564 13.449219 L 568 13.449219 L 568 326.195312 L 564 326.195312 Z M 564 13.449219 "/>
</clipPath>
<clipPath id="clip-9">
<path clip-rule="nonzero" d="M 742 13.449219 L 746 13.449219 L 746 326.195312 L 742 326.195312 Z M 742 13.449219 "/>
</clipPath>
</defs>
<rect x="-79.2" y="-37.4" width="950.4" height="448.8" fill="rgb(100%, 100%, 100%)" fill-opacity="1"/>
<rect x="-79.2" y="-37.4" width="950.4" height="448.8" fill="rgb(95.294118%, 95.294118%, 95.294118%)" fill-opacity="1"/>
<path fill="none" stroke-width="2.618947" stroke-linecap="round" stroke-linejoin="round" stroke="rgb(95.294118%, 95.294118%, 95.294118%)" stroke-opacity="1" stroke-miterlimit="10" d="M 0 374 L 792 374 L 792 0 L 0 0 Z M 0 374 "/>
<g clip-path="url(#clip-0)">
<path fill-rule="nonzero" fill="rgb(95.294118%, 95.294118%, 95.294118%)" fill-opacity="1" stroke-width="2.618947" stroke-linecap="round" stroke-linejoin="round" stroke="rgb(95.294118%, 95.294118%, 95.294118%)" stroke-opacity="1" stroke-miterlimit="10" d="M 61.480469 326.195312 L 778.550781 326.195312 L 778.550781 13.449219 L 61.480469 13.449219 Z M 61.480469 326.195312 "/>
</g>
<g clip-path="url(#clip-1)">
<path fill="none" stroke-width="2.618947" stroke-linecap="butt" stroke-linejoin="round" stroke="rgb(92.156863%, 92.156863%, 92.156863%)" stroke-opacity="1" stroke-miterlimit="10" d="M 61.480469 311.980469 L 778.550781 311.980469 "/>
</g>
<g clip-path="url(#clip-2)">
<path fill="none" stroke-width="2.618947" stroke-linecap="butt" stroke-linejoin="round" stroke="rgb(92.156863%, 92.156863%, 92.156863%)" stroke-opacity="1" stroke-miterlimit="10" d="M 61.480469 239.078125 L 778.550781 239.078125 "/>
</g>
<g clip-path="url(#clip-3)">
<path fill="none" stroke-width="2.618947" stroke-linecap="butt" stroke-linejoin="round" stroke="rgb(92.156863%, 92.156863%, 92.156863%)" stroke-opacity="1" stroke-miterlimit="10" d="M 61.480469 166.175781 L 778.550781 166.175781 "/>
</g>
<g clip-path="url(#clip-4)">
<path fill="none" stroke-width="2.618947" stroke-linecap="butt" stroke-linejoin="round" stroke="rgb(92.156863%, 92.156863%, 92.156863%)" stroke-opacity="1" stroke-miterlimit="10" d="M 61.480469 93.277344 L 778.550781 93.277344 "/>
</g>
<g clip-path="url(#clip-5)">
<path fill="none" stroke-width="2.618947" stroke-linecap="butt" stroke-linejoin="round" stroke="rgb(92.156863%, 92.156863%, 92.156863%)" stroke-opacity="1" stroke-miterlimit="10" d="M 61.480469 20.375 L 778.550781 20.375 "/>
</g>
<g clip-path="url(#clip-6)">
<path fill="none" stroke-width="2.618947" stroke-linecap="butt" stroke-linejoin="round" stroke="rgb(92.156863%, 92.156863%, 92.156863%)" stroke-opacity="1" stroke-miterlimit="10" d="M 208.996094 326.195312 L 208.996094 13.449219 "/>
</g>
<g clip-path="url(#clip-7)">
<path fill="none" stroke-width="2.618947" stroke-linecap="butt" stroke-linejoin="round" stroke="rgb(92.156863%, 92.156863%, 92.156863%)" stroke-opacity="1" stroke-miterlimit="10" d="M 387.421875 326.195312 L 387.421875 13.449219 "/>
</g>
<g clip-path="url(#clip-8)">
<path fill="none" stroke-width="2.618947" stroke-linecap="butt" stroke-linejoin="round" stroke="rgb(92.156863%, 92.156863%, 92.156863%)" stroke-opacity="1" stroke-miterlimit="10" d="M 565.847656 326.195312 L 565.847656 13.449219 "/>
</g>
<g clip-path="url(#clip-9)">
<path fill="none" stroke-width="2.618947" stroke-linecap="butt" stroke-linejoin="round" stroke="rgb(92.156863%, 92.156863%, 92.156863%)" stroke-opacity="1" stroke-miterlimit="10" d="M 744.269531 326.195312 L 744.269531 13.449219 "/>
</g>
<path fill-rule="nonzero" fill="rgb(56.078431%, 16.470588%, 26.27451%)" fill-opacity="0.698039" d="M 94.074219 311.980469 L 115.804688 311.980469 L 115.804688 309.0625 L 94.074219 309.0625 Z M 94.074219 311.980469 "/>
<path fill-rule="nonzero" fill="rgb(56.078431%, 16.470588%, 26.27451%)" fill-opacity="0.698039" d="M 115.804688 311.980469 L 137.535156 311.980469 L 137.535156 304.691406 L 115.804688 304.691406 Z M 115.804688 311.980469 "/>
<path fill-rule="nonzero" fill="rgb(56.078431%, 16.470588%, 26.27451%)" fill-opacity="0.698039" d="M 137.53125 311.980469 L 159.261719 311.980469 L 159.261719 304.691406 L 137.53125 304.691406 Z M 137.53125 311.980469 "/>
<path fill-rule="nonzero" fill="rgb(56.078431%, 16.470588%, 26.27451%)" fill-opacity="0.698039" d="M 159.261719 311.980469 L 180.992188 311.980469 L 180.992188 282.820312 L 159.261719 282.820312 Z M 159.261719 311.980469 "/>
<path fill-rule="nonzero" fill="rgb(56.078431%, 16.470588%, 26.27451%)" fill-opacity="0.698039" d="M 180.992188 311.980469 L 202.722656 311.980469 L 202.722656 279.902344 L 180.992188 279.902344 Z M 180.992188 311.980469 "/>
<path fill-rule="nonzero" fill="rgb(56.078431%, 16.470588%, 26.27451%)" fill-opacity="0.698039" d="M 202.71875 311.980469 L 224.449219 311.980469 L 224.449219 262.40625 L 202.71875 262.40625 Z M 202.71875 311.980469 "/>
<path fill-rule="nonzero" fill="rgb(56.078431%, 16.470588%, 26.27451%)" fill-opacity="0.698039" d="M 224.449219 311.980469 L 246.179688 311.980469 L 246.179688 250.742188 L 224.449219 250.742188 Z M 224.449219 311.980469 "/>
<path fill-rule="nonzero" fill="rgb(56.078431%, 16.470588%, 26.27451%)" fill-opacity="0.698039" d="M 246.179688 311.980469 L 267.910156 311.980469 L 267.910156 205.542969 L 246.179688 205.542969 Z M 246.179688 311.980469 "/>
<path fill-rule="nonzero" fill="rgb(56.078431%, 16.470588%, 26.27451%)" fill-opacity="0.698039" d="M 267.910156 311.980469 L 289.640625 311.980469 L 289.640625 174.925781 L 267.910156 174.925781 Z M 267.910156 311.980469 "/>
<path fill-rule="nonzero" fill="rgb(56.078431%, 16.470588%, 26.27451%)" fill-opacity="0.698039" d="M 289.636719 311.980469 L 311.367188 311.980469 L 311.367188 138.476562 L 289.636719 138.476562 Z M 289.636719 311.980469 "/>
<path fill-rule="nonzero" fill="rgb(56.078431%, 16.470588%, 26.27451%)" fill-opacity="0.698039" d="M 311.367188 311.980469 L 333.097656 311.980469 L 333.097656 112.230469 L 311.367188 112.230469 Z M 311.367188 311.980469 "/>
<path fill-rule="nonzero" fill="rgb(56.078431%, 16.470588%, 26.27451%)" fill-opacity="0.698039" d="M 333.097656 311.980469 L 354.828125 311.980469 L 354.828125 52.453125 L 333.097656 52.453125 Z M 333.097656 311.980469 "/>
<path fill-rule="nonzero" fill="rgb(56.078431%, 16.470588%, 26.27451%)" fill-opacity="0.698039" d="M 354.828125 311.980469 L 376.558594 311.980469 L 376.558594 27.664062 L 354.828125 27.664062 Z M 354.828125 311.980469 "/>
<path fill-rule="nonzero" fill="rgb(56.078431%, 16.470588%, 26.27451%)" fill-opacity="0.698039" d="M 376.554688 311.980469 L 398.285156 311.980469 L 398.285156 37.871094 L 376.554688 37.871094 Z M 376.554688 311.980469 "/>
<path fill-rule="nonzero" fill="rgb(56.078431%, 16.470588%, 26.27451%)" fill-opacity="0.698039" d="M 398.285156 311.980469 L 420.015625 311.980469 L 420.015625 55.367188 L 398.285156 55.367188 Z M 398.285156 311.980469 "/>
<path fill-rule="nonzero" fill="rgb(56.078431%, 16.470588%, 26.27451%)" fill-opacity="0.698039" d="M 420.015625 311.980469 L 441.746094 311.980469 L 441.746094 97.652344 L 420.015625 97.652344 Z M 420.015625 311.980469 "/>
<path fill-rule="nonzero" fill="rgb(56.078431%, 16.470588%, 26.27451%)" fill-opacity="0.698039" d="M 441.746094 311.980469 L 463.476562 311.980469 L 463.476562 87.445312 L 441.746094 87.445312 Z M 441.746094 311.980469 "/>
<path fill-rule="nonzero" fill="rgb(56.078431%, 16.470588%, 26.27451%)" fill-opacity="0.698039" d="M 463.472656 311.980469 L 485.203125 311.980469 L 485.203125 128.269531 L 463.472656 128.269531 Z M 463.472656 311.980469 "/>
<path fill-rule="nonzero" fill="rgb(56.078431%, 16.470588%, 26.27451%)" fill-opacity="0.698039" d="M 485.203125 311.980469 L 506.933594 311.980469 L 506.933594 179.300781 L 485.203125 179.300781 Z M 485.203125 311.980469 "/>
<path fill-rule="nonzero" fill="rgb(56.078431%, 16.470588%, 26.27451%)" fill-opacity="0.698039" d="M 506.933594 311.980469 L 528.664062 311.980469 L 528.664062 220.125 L 506.933594 220.125 Z M 506.933594 311.980469 "/>
<path fill-rule="nonzero" fill="rgb(56.078431%, 16.470588%, 26.27451%)" fill-opacity="0.698039" d="M 528.660156 311.980469 L 550.390625 311.980469 L 550.390625 231.789062 L 528.660156 231.789062 Z M 528.660156 311.980469 "/>
<path fill-rule="nonzero" fill="rgb(56.078431%, 16.470588%, 26.27451%)" fill-opacity="0.698039" d="M 550.390625 311.980469 L 572.121094 311.980469 L 572.121094 269.699219 L 550.390625 269.699219 Z M 550.390625 311.980469 "/>
<path fill-rule="nonzero" fill="rgb(56.078431%, 16.470588%, 26.27451%)" fill-opacity="0.698039" d="M 572.121094 311.980469 L 593.851562 311.980469 L 593.851562 276.988281 L 572.121094 276.988281 Z M 572.121094 311.980469 "/>
<path fill-rule="nonzero" fill="rgb(56.078431%, 16.470588%, 26.27451%)" fill-opacity="0.698039" d="M 593.851562 311.980469 L 615.582031 311.980469 L 615.582031 295.941406 L 593.851562 295.941406 Z M 593.851562 311.980469 "/>
<path fill-rule="nonzero" fill="rgb(56.078431%, 16.470588%, 26.27451%)" fill-opacity="0.698039" d="M 615.578125 311.980469 L 637.308594 311.980469 L 637.308594 306.148438 L 615.578125 306.148438 Z M 615.578125 311.980469 "/>
<path fill-rule="nonzero" fill="rgb(56.078431%, 16.470588%, 26.27451%)" fill-opacity="0.698039" d="M 637.308594 311.980469 L 659.039062 311.980469 L 659.039062 309.0625 L 637.308594 309.0625 Z M 637.308594 311.980469 "/>
<path fill-rule="nonzero" fill="rgb(56.078431%, 16.470588%, 26.27451%)" fill-opacity="0.698039" d="M 659.039062 311.980469 L 680.769531 311.980469 L 680.769531 309.0625 L 659.039062 309.0625 Z M 659.039062 311.980469 "/>
<path fill-rule="nonzero" fill="rgb(56.078431%, 16.470588%, 26.27451%)" fill-opacity="0.698039" d="M 702.496094 311.980469 L 724.226562 311.980469 L 724.226562 310.523438 L 702.496094 310.523438 Z M 702.496094 311.980469 "/>
<path fill-rule="nonzero" fill="rgb(56.078431%, 16.470588%, 26.27451%)" fill-opacity="0.698039" d="M 724.226562 311.980469 L 745.957031 311.980469 L 745.957031 310.523438 L 724.226562 310.523438 Z M 724.226562 311.980469 "/>
<path fill-rule="nonzero" fill="rgb(10.196078%, 10.196078%, 10.196078%)" fill-opacity="1" d="M 43.375 320.519531 L 42.929688 320.496094 L 42.503906 320.429688 L 42.101562 320.320312 L 41.71875 320.167969 L 41.355469 319.972656 L 41.011719 319.734375 L 40.691406 319.453125 L 40.390625 319.125 L 40.109375 318.753906 L 39.847656 318.34375 L 39.613281 317.890625 L 39.398438 317.398438 L 39.210938 316.875 L 39.050781 316.3125 L 38.910156 315.710938 L 38.800781 315.074219 L 38.710938 314.402344 L 38.648438 313.695312 L 38.613281 312.949219 L 38.597656 312.167969 L 38.613281 311.390625 L 38.648438 310.652344 L 38.710938 309.949219 L 38.800781 309.285156 L 38.910156 308.65625 L 39.050781 308.0625 L 39.210938 307.507812 L 39.398438 306.992188 L 39.613281 306.511719 L 39.847656 306.066406 L 40.109375 305.664062 L 40.390625 305.300781 L 40.691406 304.984375 L 41.011719 304.707031 L 41.355469 304.472656 L 41.71875 304.28125 L 42.101562 304.132812 L 42.503906 304.027344 L 42.929688 303.964844 L 43.375 303.941406 L 43.824219 303.964844 L 44.25 304.027344 L 44.65625 304.132812 L 45.042969 304.28125 L 45.40625 304.472656 L 45.746094 304.707031 L 46.066406 304.984375 L 46.367188 305.300781 L 46.644531 305.664062 L 46.898438 306.066406 L 47.136719 306.511719 L 47.347656 306.992188 L 47.535156 307.507812 L 47.699219 308.0625 L 47.835938 308.65625 L 47.949219 309.285156 L 48.035156 309.949219 L 48.097656 310.652344 L 48.136719 311.390625 L 48.148438 312.167969 L 48.136719 312.949219 L 48.097656 313.695312 L 48.035156 314.402344 L 47.949219 315.074219 L 47.835938 315.710938 L 47.699219 316.3125 L 47.535156 316.875 L 47.347656 317.398438 L 47.136719 317.890625 L 46.898438 318.34375 L 46.644531 318.753906 L 46.367188 319.125 L 46.066406 319.453125 L 45.746094 319.734375 L 45.40625 319.972656 L 45.042969 320.167969 L 44.65625 320.320312 L 44.25 320.429688 L 43.824219 320.496094 Z M 43.375 319.566406 L 43.703125 319.550781 L 44.015625 319.492188 L 44.316406 319.398438 L 44.601562 319.269531 L 44.875 319.097656 L 45.132812 318.894531 L 45.375 318.648438 L 45.605469 318.367188 L 45.824219 318.050781 L 46.023438 317.691406 L 46.214844 317.300781 L 46.382812 316.871094 L 46.535156 316.40625 L 46.664062 315.910156 L 46.773438 315.375 L 46.863281 314.804688 L 46.933594 314.199219 L 46.984375 313.554688 L 47.015625 312.878906 L 47.023438 312.167969 L 47.015625 311.457031 L 46.984375 310.78125 L 46.933594 310.144531 L 46.863281 309.542969 L 46.773438 308.980469 L 46.664062 308.453125 L 46.535156 307.964844 L 46.382812 307.511719 L 46.214844 307.097656 L 46.023438 306.71875 L 45.824219 306.371094 L 45.605469 306.0625 L 45.375 305.785156 L 45.132812 305.550781 L 44.875 305.347656 L 44.601562 305.183594 L 44.316406 305.058594 L 44.015625 304.964844 L 43.703125 304.910156 L 43.375 304.894531 L 43.050781 304.910156 L 42.742188 304.964844 L 42.441406 305.058594 L 42.160156 305.183594 L 41.886719 305.347656 L 41.628906 305.550781 L 41.382812 305.785156 L 41.152344 306.0625 L 40.929688 306.371094 L 40.722656 306.71875 L 40.535156 307.097656 L 40.363281 307.511719 L 40.214844 307.964844 L 40.085938 308.453125 L 39.972656 308.980469 L 39.882812 309.542969 L 39.816406 310.144531 L 39.765625 310.78125 L 39.734375 311.457031 L 39.722656 312.167969 L 39.734375 312.878906 L 39.765625 313.554688 L 39.816406 314.199219 L 39.882812 314.804688 L 39.972656 315.375 L 40.085938 315.910156 L 40.214844 316.40625 L 40.363281 316.871094 L 40.535156 317.300781 L 40.722656 317.691406 L 40.929688 318.050781 L 41.152344 318.367188 L 41.382812 318.648438 L 41.628906 318.894531 L 41.886719 319.097656 L 42.160156 319.269531 L 42.441406 319.398438 L 42.742188 319.492188 L 43.050781 319.550781 Z M 43.375 319.566406 "/>
<path fill-rule="nonzero" fill="rgb(10.196078%, 10.196078%, 10.196078%)" fill-opacity="1" d="M 31.097656 247.617188 L 30.847656 247.613281 L 30.601562 247.601562 L 30.363281 247.585938 L 30.132812 247.5625 L 29.90625 247.535156 L 29.6875 247.5 L 29.472656 247.457031 L 29.265625 247.410156 L 29.066406 247.351562 L 28.875 247.292969 L 28.691406 247.226562 L 28.515625 247.15625 L 28.34375 247.082031 L 28.175781 247.003906 L 28.011719 246.921875 L 27.855469 246.839844 L 27.703125 246.75 L 27.554688 246.660156 L 27.410156 246.566406 L 27.273438 246.464844 L 27.140625 246.367188 L 27.011719 246.265625 L 26.882812 246.167969 L 26.757812 246.066406 L 26.636719 245.964844 L 26.519531 245.867188 L 26.402344 245.765625 L 26.289062 245.667969 L 26.179688 245.566406 L 26.074219 245.464844 L 26.699219 244.691406 L 26.847656 244.835938 L 27 244.976562 L 27.160156 245.117188 L 27.324219 245.253906 L 27.492188 245.390625 L 27.667969 245.523438 L 27.847656 245.65625 L 28.035156 245.789062 L 28.226562 245.914062 L 28.425781 246.042969 L 28.636719 246.15625 L 28.859375 246.257812 L 29.09375 246.347656 L 29.339844 246.425781 L 29.597656 246.492188 L 29.871094 246.546875 L 30.152344 246.585938 L 30.449219 246.617188 L 30.753906 246.636719 L 31.074219 246.640625 L 31.289062 246.636719 L 31.496094 246.621094 L 31.703125 246.59375 L 31.90625 246.558594 L 32.105469 246.511719 L 32.300781 246.453125 L 32.492188 246.382812 L 32.683594 246.304688 L 32.867188 246.214844 L 33.050781 246.117188 L 33.226562 246.003906 L 33.394531 245.878906 L 33.558594 245.75 L 33.714844 245.609375 L 33.863281 245.460938 L 34.003906 245.304688 L 34.136719 245.136719 L 34.265625 244.964844 L 34.386719 244.78125 L 34.5 244.589844 L 34.605469 244.394531 L 34.699219 244.1875 L 34.78125 243.980469 L 34.851562 243.761719 L 34.910156 243.542969 L 34.960938 243.3125 L 35 243.078125 L 35.027344 242.839844 L 35.042969 242.59375 L 35.050781 242.339844 L 35.039062 241.964844 L 35.007812 241.605469 L 34.953125 241.261719 L 34.878906 240.933594 L 34.78125 240.621094 L 34.664062 240.328125 L 34.523438 240.050781 L 34.363281 239.789062 L 34.179688 239.542969 L 33.972656 239.316406 L 33.757812 239.105469 L 33.527344 238.921875 L 33.28125 238.753906 L 33.019531 238.613281 L 32.742188 238.492188 L 32.453125 238.390625 L 32.148438 238.316406 L 31.832031 238.261719 L 31.496094 238.226562 L 31.148438 238.214844 L 30.96875 238.21875 L 30.789062 238.226562 L 30.617188 238.242188 L 30.449219 238.265625 L 30.285156 238.292969 L 30.128906 238.324219 L 29.976562 238.363281 L 29.828125 238.410156 L 29.6875 238.460938 L 29.550781 238.515625 L 29.417969 238.574219 L 29.285156 238.636719 L 29.152344 238.703125 L 29.015625 238.773438 L 28.878906 238.847656 L 28.742188 238.925781 L 28.601562 239.011719 L 28.460938 239.101562 L 28.320312 239.195312 L 28.175781 239.292969 L 27.398438 238.816406 L 27.972656 231.339844 L 35.347656 231.339844 L 35.347656 232.316406 L 28.972656 232.316406 L 28.472656 238.089844 L 28.601562 238.019531 L 28.726562 237.949219 L 28.855469 237.878906 L 29.113281 237.753906 L 29.242188 237.695312 L 29.507812 237.585938 L 29.773438 237.492188 L 29.910156 237.445312 L 30.050781 237.402344 L 30.199219 237.363281 L 30.347656 237.332031 L 30.5 237.304688 L 30.65625 237.28125 L 30.816406 237.265625 L 30.984375 237.25 L 31.152344 237.242188 L 31.324219 237.242188 L 31.59375 237.246094 L 31.855469 237.261719 L 32.113281 237.289062 L 32.363281 237.328125 L 32.613281 237.378906 L 32.855469 237.4375 L 33.09375 237.511719 L 33.324219 237.59375 L 33.550781 237.6875 L 33.773438 237.792969 L 33.996094 237.902344 L 34.207031 238.023438 L 34.40625 238.160156 L 34.597656 238.308594 L 34.78125 238.464844 L 34.953125 238.636719 L 35.117188 238.820312 L 35.269531 239.015625 L 35.414062 239.222656 L 35.550781 239.441406 L 35.671875 239.667969 L 35.785156 239.90625 L 35.882812 240.160156 L 35.964844 240.425781 L 36.035156 240.703125 L 36.09375 240.996094 L 36.140625 241.300781 L 36.171875 241.617188 L 36.191406 241.949219 L 36.199219 242.292969 L 36.191406 242.625 L 36.167969 242.953125 L 36.132812 243.265625 L 36.078125 243.570312 L 36.011719 243.867188 L 35.929688 244.152344 L 35.832031 244.425781 L 35.71875 244.691406 L 35.59375 244.945312 L 35.449219 245.191406 L 35.300781 245.421875 L 35.140625 245.640625 L 34.972656 245.847656 L 34.796875 246.042969 L 34.613281 246.230469 L 34.417969 246.402344 L 34.214844 246.566406 L 34 246.71875 L 33.78125 246.859375 L 33.550781 246.992188 L 33.316406 247.109375 L 33.082031 247.214844 L 32.847656 247.308594 L 32.605469 247.390625 L 32.363281 247.460938 L 32.117188 247.515625 L 31.867188 247.558594 L 31.613281 247.589844 L 31.359375 247.609375 Z M 31.097656 247.617188 "/>
<path fill-rule="nonzero" fill="rgb(10.196078%, 10.196078%, 10.196078%)" fill-opacity="1" d="M 43.375 247.617188 L 42.929688 247.59375 L 42.503906 247.53125 L 42.101562 247.421875 L 41.71875 247.269531 L 41.355469 247.074219 L 41.011719 246.832031 L 40.691406 246.550781 L 40.390625 246.222656 L 40.109375 245.855469 L 39.847656 245.441406 L 39.613281 244.988281 L 39.398438 244.5 L 39.210938 243.972656 L 39.050781 243.410156 L 38.910156 242.808594 L 38.800781 242.175781 L 38.710938 241.503906 L 38.648438 240.792969 L 38.613281 240.046875 L 38.597656 239.265625 L 38.613281 238.488281 L 38.648438 237.75 L 38.710938 237.046875 L 38.800781 236.382812 L 38.910156 235.753906 L 39.050781 235.164062 L 39.210938 234.609375 L 39.398438 234.089844 L 39.613281 233.609375 L 39.847656 233.167969 L 40.109375 232.761719 L 40.390625 232.402344 L 40.691406 232.082031 L 41.011719 231.804688 L 41.355469 231.574219 L 41.71875 231.382812 L 42.101562 231.234375 L 42.503906 231.125 L 42.929688 231.0625 L 43.375 231.042969 L 43.824219 231.0625 L 44.25 231.125 L 44.65625 231.234375 L 45.042969 231.382812 L 45.40625 231.574219 L 45.746094 231.804688 L 46.066406 232.082031 L 46.367188 232.402344 L 46.644531 232.761719 L 46.898438 233.167969 L 47.136719 233.609375 L 47.347656 234.089844 L 47.535156 234.609375 L 47.699219 235.164062 L 47.835938 235.753906 L 47.949219 236.382812 L 48.035156 237.046875 L 48.097656 237.75 L 48.136719 238.488281 L 48.148438 239.265625 L 48.136719 240.046875 L 48.097656 240.792969 L 48.035156 241.503906 L 47.949219 242.175781 L 47.835938 242.808594 L 47.699219 243.410156 L 47.535156 243.972656 L 47.347656 244.5 L 47.136719 244.988281 L 46.898438 245.441406 L 46.644531 245.855469 L 46.367188 246.222656 L 46.066406 246.550781 L 45.746094 246.832031 L 45.40625 247.074219 L 45.042969 247.269531 L 44.65625 247.421875 L 44.25 247.53125 L 43.824219 247.59375 Z M 43.375 246.667969 L 43.703125 246.648438 L 44.015625 246.589844 L 44.316406 246.496094 L 44.601562 246.367188 L 44.875 246.199219 L 45.132812 245.992188 L 45.375 245.746094 L 45.605469 245.464844 L 45.824219 245.148438 L 46.023438 244.792969 L 46.214844 244.398438 L 46.382812 243.96875 L 46.535156 243.507812 L 46.664062 243.007812 L 46.773438 242.472656 L 46.863281 241.902344 L 46.933594 241.296875 L 46.984375 240.65625 L 47.015625 239.980469 L 47.023438 239.265625 L 47.015625 238.554688 L 46.984375 237.878906 L 46.933594 237.242188 L 46.863281 236.640625 L 46.773438 236.078125 L 46.664062 235.550781 L 46.535156 235.0625 L 46.382812 234.609375 L 46.214844 234.195312 L 46.023438 233.816406 L 45.824219 233.46875 L 45.605469 233.160156 L 45.375 232.886719 L 45.132812 232.648438 L 44.875 232.449219 L 44.601562 232.285156 L 44.316406 232.15625 L 44.015625 232.0625 L 43.703125 232.007812 L 43.375 231.992188 L 43.050781 232.007812 L 42.742188 232.0625 L 42.441406 232.15625 L 42.160156 232.285156 L 41.886719 232.449219 L 41.628906 232.648438 L 41.382812 232.886719 L 41.152344 233.160156 L 40.929688 233.46875 L 40.722656 233.816406 L 40.535156 234.195312 L 40.363281 234.609375 L 40.214844 235.0625 L 40.085938 235.550781 L 39.972656 236.078125 L 39.882812 236.640625 L 39.816406 237.242188 L 39.765625 237.878906 L 39.734375 238.554688 L 39.722656 239.265625 L 39.734375 239.980469 L 39.765625 240.65625 L 39.816406 241.296875 L 39.882812 241.902344 L 39.972656 242.472656 L 40.085938 243.007812 L 40.214844 243.507812 L 40.363281 243.96875 L 40.535156 244.398438 L 40.722656 244.792969 L 40.929688 245.148438 L 41.152344 245.464844 L 41.382812 245.746094 L 41.628906 245.992188 L 41.886719 246.199219 L 42.160156 246.367188 L 42.441406 246.496094 L 42.742188 246.589844 L 43.050781 246.648438 Z M 43.375 246.667969 "/>
<path fill-rule="nonzero" fill="rgb(10.196078%, 10.196078%, 10.196078%)" fill-opacity="1" d="M 15.550781 174.414062 L 15.550781 173.441406 L 19.300781 173.441406 L 19.300781 160.191406 L 16.449219 160.191406 L 16.449219 159.441406 L 16.640625 159.40625 L 16.832031 159.367188 L 17.199219 159.289062 L 17.375 159.246094 L 17.546875 159.203125 L 17.714844 159.160156 L 17.882812 159.113281 L 18.042969 159.0625 L 18.199219 159.015625 L 18.351562 158.964844 L 18.5 158.914062 L 18.644531 158.859375 L 18.785156 158.804688 L 18.917969 158.746094 L 19.175781 158.628906 L 19.296875 158.566406 L 19.414062 158.503906 L 19.523438 158.441406 L 20.425781 158.441406 L 20.425781 173.441406 L 23.898438 173.441406 L 23.898438 174.414062 Z M 15.550781 174.414062 "/>
<path fill-rule="nonzero" fill="rgb(10.196078%, 10.196078%, 10.196078%)" fill-opacity="1" d="M 31.398438 174.714844 L 30.953125 174.695312 L 30.53125 174.628906 L 30.125 174.519531 L 29.742188 174.367188 L 29.378906 174.171875 L 29.039062 173.933594 L 28.71875 173.648438 L 28.414062 173.324219 L 28.136719 172.953125 L 27.875 172.539062 L 27.636719 172.085938 L 27.425781 171.597656 L 27.238281 171.070312 L 27.074219 170.507812 L 26.9375 169.910156 L 26.824219 169.273438 L 26.738281 168.601562 L 26.675781 167.890625 L 26.636719 167.148438 L 26.625 166.363281 L 26.636719 165.589844 L 26.675781 164.847656 L 26.738281 164.148438 L 26.824219 163.480469 L 26.9375 162.851562 L 27.074219 162.261719 L 27.238281 161.707031 L 27.425781 161.1875 L 27.636719 160.707031 L 27.875 160.265625 L 28.136719 159.863281 L 28.414062 159.5 L 28.71875 159.179688 L 29.039062 158.90625 L 29.378906 158.671875 L 29.742188 158.480469 L 30.125 158.332031 L 30.53125 158.226562 L 30.953125 158.160156 L 31.398438 158.140625 L 31.847656 158.160156 L 32.277344 158.226562 L 32.683594 158.332031 L 33.066406 158.480469 L 33.429688 158.671875 L 33.773438 158.90625 L 34.09375 159.179688 L 34.390625 159.5 L 34.667969 159.863281 L 34.925781 160.265625 L 35.160156 160.707031 L 35.375 161.1875 L 35.5625 161.707031 L 35.722656 162.261719 L 35.863281 162.851562 L 35.972656 163.480469 L 36.0625 164.148438 L 36.125 164.847656 L 36.160156 165.589844 L 36.175781 166.363281 L 36.160156 167.148438 L 36.125 167.890625 L 36.0625 168.601562 L 35.972656 169.273438 L 35.863281 169.910156 L 35.722656 170.507812 L 35.5625 171.070312 L 35.375 171.597656 L 35.160156 172.085938 L 34.925781 172.539062 L 34.667969 172.953125 L 34.390625 173.324219 L 34.09375 173.648438 L 33.773438 173.933594 L 33.429688 174.171875 L 33.066406 174.367188 L 32.683594 174.519531 L 32.277344 174.628906 L 31.847656 174.695312 Z M 31.398438 173.765625 L 31.726562 173.746094 L 32.042969 173.691406 L 32.339844 173.597656 L 32.628906 173.464844 L 32.898438 173.296875 L 33.15625 173.089844 L 33.402344 172.847656 L 33.632812 172.566406 L 33.847656 172.246094 L 34.050781 171.890625 L 34.238281 171.496094 L 34.410156 171.070312 L 34.558594 170.605469 L 34.691406 170.105469 L 34.800781 169.570312 L 34.890625 169 L 34.960938 168.394531 L 35.007812 167.753906 L 35.039062 167.078125 L 35.050781 166.363281 L 35.039062 165.652344 L 35.007812 164.980469 L 34.960938 164.339844 L 34.890625 163.742188 L 34.800781 163.175781 L 34.691406 162.652344 L 34.558594 162.160156 L 34.410156 161.710938 L 34.238281 161.292969 L 34.050781 160.914062 L 33.847656 160.570312 L 33.632812 160.257812 L 33.402344 159.984375 L 33.15625 159.746094 L 32.898438 159.546875 L 32.628906 159.382812 L 32.339844 159.253906 L 32.042969 159.164062 L 31.726562 159.109375 L 31.398438 159.089844 L 31.074219 159.109375 L 30.765625 159.164062 L 30.46875 159.253906 L 30.183594 159.382812 L 29.910156 159.546875 L 29.652344 159.746094 L 29.40625 159.984375 L 29.175781 160.257812 L 28.957031 160.570312 L 28.75 160.914062 L 28.558594 161.292969 L 28.390625 161.710938 L 28.238281 162.160156 L 28.109375 162.652344 L 28 163.175781 L 27.910156 163.742188 L 27.839844 164.339844 L 27.789062 164.980469 L 27.757812 165.652344 L 27.75 166.363281 L 27.757812 167.078125 L 27.789062 167.753906 L 27.839844 168.394531 L 27.910156 169 L 28 169.570312 L 28.109375 170.105469 L 28.238281 170.605469 L 28.390625 171.070312 L 28.558594 171.496094 L 28.75 171.890625 L 28.957031 172.246094 L 29.175781 172.566406 L 29.40625 172.847656 L 29.652344 173.089844 L 29.910156 173.296875 L 30.183594 173.464844 L 30.46875 173.597656 L 30.765625 173.691406 L 31.074219 173.746094 Z M 31.398438 173.765625 "/>
<path fill-rule="nonzero" fill="rgb(10.196078%, 10.196078%, 10.196078%)" fill-opacity="1" d="M 43.375 174.714844 L 42.929688 174.695312 L 42.503906 174.628906 L 42.101562 174.519531 L 41.71875 174.367188 L 41.355469 174.171875 L 41.011719 173.933594 L 40.691406 173.648438 L 40.390625 173.324219 L 40.109375 172.953125 L 39.847656 172.539062 L 39.613281 172.085938 L 39.398438 171.597656 L 39.210938 171.070312 L 39.050781 170.507812 L 38.910156 169.910156 L 38.800781 169.273438 L 38.710938 168.601562 L 38.648438 167.890625 L 38.613281 167.148438 L 38.597656 166.363281 L 38.613281 165.589844 L 38.648438 164.847656 L 38.710938 164.148438 L 38.800781 163.480469 L 38.910156 162.851562 L 39.050781 162.261719 L 39.210938 161.707031 L 39.398438 161.1875 L 39.613281 160.707031 L 39.847656 160.265625 L 40.109375 159.863281 L 40.390625 159.5 L 40.691406 159.179688 L 41.011719 158.90625 L 41.355469 158.671875 L 41.71875 158.480469 L 42.101562 158.332031 L 42.503906 158.226562 L 42.929688 158.160156 L 43.375 158.140625 L 43.824219 158.160156 L 44.25 158.226562 L 44.65625 158.332031 L 45.042969 158.480469 L 45.40625 158.671875 L 45.746094 158.90625 L 46.066406 159.179688 L 46.367188 159.5 L 46.644531 159.863281 L 46.898438 160.265625 L 47.136719 160.707031 L 47.347656 161.1875 L 47.535156 161.707031 L 47.699219 162.261719 L 47.835938 162.851562 L 47.949219 163.480469 L 48.035156 164.148438 L 48.097656 164.847656 L 48.136719 165.589844 L 48.148438 166.363281 L 48.136719 167.148438 L 48.097656 167.890625 L 48.035156 168.601562 L 47.949219 169.273438 L 47.835938 169.910156 L 47.699219 170.507812 L 47.535156 171.070312 L 47.347656 171.597656 L 47.136719 172.085938 L 46.898438 172.539062 L 46.644531 172.953125 L 46.367188 173.324219 L 46.066406 173.648438 L 45.746094 173.933594 L 45.40625 174.171875 L 45.042969 174.367188 L 44.65625 174.519531 L 44.25 174.628906 L 43.824219 174.695312 Z M 43.375 173.765625 L 43.703125 173.746094 L 44.015625 173.691406 L 44.316406 173.597656 L 44.601562 173.464844 L 44.875 173.296875 L 45.132812 173.089844 L 45.375 172.847656 L 45.605469 172.566406 L 45.824219 172.246094 L 46.023438 171.890625 L 46.214844 171.496094 L 46.382812 171.070312 L 46.535156 170.605469 L 46.664062 170.105469 L 46.773438 169.570312 L 46.863281 169 L 46.933594 168.394531 L 46.984375 167.753906 L 47.015625 167.078125 L 47.023438 166.363281 L 47.015625 165.652344 L 46.984375 164.980469 L 46.933594 164.339844 L 46.863281 163.742188 L 46.773438 163.175781 L 46.664062 162.652344 L 46.535156 162.160156 L 46.382812 161.710938 L 46.214844 161.292969 L 46.023438 160.914062 L 45.824219 160.570312 L 45.605469 160.257812 L 45.375 159.984375 L 45.132812 159.746094 L 44.875 159.546875 L 44.601562 159.382812 L 44.316406 159.253906 L 44.015625 159.164062 L 43.703125 159.109375 L 43.375 159.089844 L 43.050781 159.109375 L 42.742188 159.164062 L 42.441406 159.253906 L 42.160156 159.382812 L 41.886719 159.546875 L 41.628906 159.746094 L 41.382812 159.984375 L 41.152344 160.257812 L 40.929688 160.570312 L 40.722656 160.914062 L 40.535156 161.292969 L 40.363281 161.710938 L 40.214844 162.160156 L 40.085938 162.652344 L 39.972656 163.175781 L 39.882812 163.742188 L 39.816406 164.339844 L 39.765625 164.980469 L 39.734375 165.652344 L 39.722656 166.363281 L 39.734375 167.078125 L 39.765625 167.753906 L 39.816406 168.394531 L 39.882812 169 L 39.972656 169.570312 L 40.085938 170.105469 L 40.214844 170.605469 L 40.363281 171.070312 L 40.535156 171.496094 L 40.722656 171.890625 L 40.929688 172.246094 L 41.152344 172.566406 L 41.382812 172.847656 L 41.628906 173.089844 L 41.886719 173.296875 L 42.160156 173.464844 L 42.441406 173.597656 L 42.742188 173.691406 L 43.050781 173.746094 Z M 43.375 173.765625 "/>
<path fill-rule="nonzero" fill="rgb(10.196078%, 10.196078%, 10.196078%)" fill-opacity="1" d="M 15.550781 101.515625 L 15.550781 100.539062 L 19.300781 100.539062 L 19.300781 87.289062 L 16.449219 87.289062 L 16.449219 86.539062 L 16.640625 86.503906 L 16.832031 86.464844 L 17.199219 86.386719 L 17.375 86.34375 L 17.546875 86.300781 L 17.714844 86.257812 L 17.882812 86.210938 L 18.042969 86.164062 L 18.199219 86.113281 L 18.351562 86.0625 L 18.5 86.011719 L 18.644531 85.957031 L 18.785156 85.902344 L 18.917969 85.84375 L 19.175781 85.726562 L 19.296875 85.664062 L 19.414062 85.601562 L 19.523438 85.539062 L 20.425781 85.539062 L 20.425781 100.539062 L 23.898438 100.539062 L 23.898438 101.515625 Z M 15.550781 101.515625 "/>
<path fill-rule="nonzero" fill="rgb(10.196078%, 10.196078%, 10.196078%)" fill-opacity="1" d="M 31.097656 101.8125 L 30.847656 101.8125 L 30.601562 101.800781 L 30.363281 101.785156 L 30.132812 101.761719 L 29.90625 101.734375 L 29.6875 101.695312 L 29.472656 101.65625 L 29.265625 101.605469 L 29.066406 101.550781 L 28.875 101.488281 L 28.691406 101.421875 L 28.515625 101.351562 L 28.34375 101.277344 L 28.175781 101.199219 L 28.011719 101.121094 L 27.855469 101.035156 L 27.703125 100.949219 L 27.554688 100.855469 L 27.410156 100.761719 L 27.273438 100.664062 L 27.140625 100.5625 L 27.011719 100.464844 L 26.882812 100.363281 L 26.757812 100.265625 L 26.636719 100.164062 L 26.519531 100.0625 L 26.402344 99.964844 L 26.289062 99.863281 L 26.179688 99.765625 L 26.074219 99.664062 L 26.699219 98.890625 L 26.847656 99.03125 L 27 99.175781 L 27.160156 99.316406 L 27.324219 99.453125 L 27.492188 99.589844 L 27.667969 99.722656 L 27.847656 99.855469 L 28.035156 99.984375 L 28.226562 100.113281 L 28.425781 100.238281 L 28.636719 100.351562 L 28.859375 100.453125 L 29.09375 100.542969 L 29.339844 100.621094 L 29.597656 100.6875 L 29.871094 100.742188 L 30.152344 100.785156 L 30.449219 100.816406 L 30.753906 100.832031 L 31.074219 100.839844 L 31.289062 100.832031 L 31.496094 100.816406 L 31.703125 100.792969 L 31.90625 100.753906 L 32.105469 100.707031 L 32.300781 100.648438 L 32.492188 100.582031 L 32.683594 100.503906 L 32.867188 100.414062 L 33.050781 100.3125 L 33.226562 100.199219 L 33.394531 100.078125 L 33.558594 99.945312 L 33.714844 99.804688 L 33.863281 99.65625 L 34.003906 99.5 L 34.136719 99.335938 L 34.265625 99.160156 L 34.386719 98.980469 L 34.5 98.789062 L 34.605469 98.589844 L 34.699219 98.386719 L 34.78125 98.175781 L 34.851562 97.960938 L 34.910156 97.738281 L 34.960938 97.511719 L 35 97.277344 L 35.027344 97.035156 L 35.042969 96.789062 L 35.050781 96.539062 L 35.039062 96.164062 L 35.007812 95.800781 L 34.953125 95.457031 L 34.878906 95.132812 L 34.78125 94.820312 L 34.664062 94.527344 L 34.523438 94.25 L 34.363281 93.988281 L 34.179688 93.742188 L 33.972656 93.515625 L 33.757812 93.304688 L 33.527344 93.117188 L 33.28125 92.953125 L 33.019531 92.808594 L 32.742188 92.6875 L 32.453125 92.589844 L 32.148438 92.511719 L 31.832031 92.457031 L 31.496094 92.425781 L 31.148438 92.414062 L 30.96875 92.417969 L 30.789062 92.425781 L 30.617188 92.441406 L 30.449219 92.460938 L 30.285156 92.488281 L 30.128906 92.523438 L 29.976562 92.5625 L 29.828125 92.605469 L 29.6875 92.65625 L 29.550781 92.714844 L 29.417969 92.769531 L 29.285156 92.832031 L 29.152344 92.898438 L 29.015625 92.96875 L 28.742188 93.125 L 28.460938 93.296875 L 28.320312 93.390625 L 28.175781 93.488281 L 27.398438 93.015625 L 27.972656 85.539062 L 35.347656 85.539062 L 35.347656 86.515625 L 28.972656 86.515625 L 28.472656 92.289062 L 28.601562 92.214844 L 28.726562 92.144531 L 28.984375 92.011719 L 29.242188 91.894531 L 29.375 91.835938 L 29.640625 91.734375 L 29.773438 91.6875 L 29.910156 91.640625 L 30.050781 91.597656 L 30.347656 91.527344 L 30.5 91.5 L 30.65625 91.480469 L 30.816406 91.460938 L 30.984375 91.449219 L 31.152344 91.441406 L 31.324219 91.4375 L 31.59375 91.445312 L 31.855469 91.460938 L 32.113281 91.488281 L 32.363281 91.527344 L 32.613281 91.578125 L 32.855469 91.636719 L 33.09375 91.707031 L 33.324219 91.789062 L 33.550781 91.882812 L 33.773438 91.988281 L 33.996094 92.101562 L 34.207031 92.222656 L 34.40625 92.359375 L 34.597656 92.503906 L 34.78125 92.664062 L 34.953125 92.835938 L 35.117188 93.019531 L 35.269531 93.214844 L 35.414062 93.417969 L 35.550781 93.640625 L 35.671875 93.867188 L 35.785156 94.105469 L 35.882812 94.355469 L 35.964844 94.621094 L 36.035156 94.902344 L 36.09375 95.191406 L 36.140625 95.496094 L 36.171875 95.816406 L 36.191406 96.144531 L 36.199219 96.488281 L 36.191406 96.824219 L 36.167969 97.148438 L 36.132812 97.464844 L 36.078125 97.769531 L 36.011719 98.0625 L 35.929688 98.347656 L 35.832031 98.625 L 35.71875 98.890625 L 35.59375 99.144531 L 35.449219 99.390625 L 35.300781 99.617188 L 35.140625 99.835938 L 34.972656 100.042969 L 34.796875 100.242188 L 34.613281 100.425781 L 34.417969 100.601562 L 34.214844 100.765625 L 34 100.917969 L 33.78125 101.058594 L 33.550781 101.1875 L 33.316406 101.308594 L 33.082031 101.414062 L 32.847656 101.507812 L 32.605469 101.589844 L 32.363281 101.65625 L 32.117188 101.714844 L 31.867188 101.757812 L 31.613281 101.789062 L 31.359375 101.808594 Z M 31.097656 101.8125 "/>
<path fill-rule="nonzero" fill="rgb(10.196078%, 10.196078%, 10.196078%)" fill-opacity="1" d="M 43.375 101.8125 L 42.929688 101.792969 L 42.503906 101.726562 L 42.101562 101.617188 L 41.71875 101.464844 L 41.355469 101.269531 L 41.011719 101.03125 L 40.691406 100.75 L 40.390625 100.421875 L 40.109375 100.050781 L 39.847656 99.640625 L 39.613281 99.1875 L 39.398438 98.695312 L 39.210938 98.167969 L 39.050781 97.605469 L 38.910156 97.007812 L 38.800781 96.371094 L 38.710938 95.699219 L 38.648438 94.992188 L 38.613281 94.246094 L 38.597656 93.464844 L 38.613281 92.6875 L 38.648438 91.949219 L 38.710938 91.246094 L 38.800781 90.578125 L 38.910156 89.953125 L 39.050781 89.359375 L 39.210938 88.804688 L 39.398438 88.289062 L 39.613281 87.808594 L 39.847656 87.363281 L 40.109375 86.960938 L 40.390625 86.597656 L 40.691406 86.28125 L 41.011719 86.003906 L 41.355469 85.769531 L 41.71875 85.578125 L 42.101562 85.429688 L 42.503906 85.324219 L 42.929688 85.261719 L 43.375 85.238281 L 43.824219 85.261719 L 44.25 85.324219 L 44.65625 85.429688 L 45.042969 85.578125 L 45.40625 85.769531 L 45.746094 86.003906 L 46.066406 86.28125 L 46.367188 86.597656 L 46.644531 86.960938 L 46.898438 87.363281 L 47.136719 87.808594 L 47.347656 88.289062 L 47.535156 88.804688 L 47.699219 89.359375 L 47.835938 89.953125 L 47.949219 90.578125 L 48.035156 91.246094 L 48.097656 91.949219 L 48.136719 92.6875 L 48.148438 93.464844 L 48.136719 94.246094 L 48.097656 94.992188 L 48.035156 95.699219 L 47.949219 96.371094 L 47.835938 97.007812 L 47.699219 97.605469 L 47.535156 98.167969 L 47.347656 98.695312 L 47.136719 99.1875 L 46.898438 99.640625 L 46.644531 100.050781 L 46.367188 100.421875 L 46.066406 100.75 L 45.746094 101.03125 L 45.40625 101.269531 L 45.042969 101.464844 L 44.65625 101.617188 L 44.25 101.726562 L 43.824219 101.792969 Z M 43.375 100.863281 L 43.703125 100.84375 L 44.015625 100.789062 L 44.316406 100.695312 L 44.601562 100.5625 L 44.875 100.394531 L 45.132812 100.1875 L 45.375 99.945312 L 45.605469 99.664062 L 45.824219 99.34375 L 46.023438 98.988281 L 46.214844 98.597656 L 46.382812 98.167969 L 46.535156 97.703125 L 46.664062 97.203125 L 46.773438 96.671875 L 46.863281 96.101562 L 46.933594 95.496094 L 46.984375 94.851562 L 47.015625 94.175781 L 47.023438 93.464844 L 47.015625 92.753906 L 46.984375 92.078125 L 46.933594 91.441406 L 46.863281 90.839844 L 46.773438 90.277344 L 46.664062 89.75 L 46.535156 89.261719 L 46.382812 88.808594 L 46.214844 88.390625 L 46.023438 88.015625 L 45.824219 87.667969 L 45.605469 87.355469 L 45.375 87.082031 L 45.132812 86.847656 L 44.875 86.644531 L 44.601562 86.480469 L 44.316406 86.351562 L 44.015625 86.261719 L 43.703125 86.207031 L 43.375 86.1875 L 43.050781 86.207031 L 42.742188 86.261719 L 42.441406 86.351562 L 42.160156 86.480469 L 41.886719 86.644531 L 41.628906 86.847656 L 41.382812 87.082031 L 41.152344 87.355469 L 40.929688 87.667969 L 40.722656 88.015625 L 40.535156 88.390625 L 40.363281 88.808594 L 40.214844 89.261719 L 40.085938 89.75 L 39.972656 90.277344 L 39.882812 90.839844 L 39.816406 91.441406 L 39.765625 92.078125 L 39.734375 92.753906 L 39.722656 93.464844 L 39.734375 94.175781 L 39.765625 94.851562 L 39.816406 95.496094 L 39.882812 96.101562 L 39.972656 96.671875 L 40.085938 97.203125 L 40.214844 97.703125 L 40.363281 98.167969 L 40.535156 98.597656 L 40.722656 98.988281 L 40.929688 99.34375 L 41.152344 99.664062 L 41.382812 99.945312 L 41.628906 100.1875 L 41.886719 100.394531 L 42.160156 100.5625 L 42.441406 100.695312 L 42.742188 100.789062 L 43.050781 100.84375 Z M 43.375 100.863281 "/>
<path fill-rule="nonzero" fill="rgb(10.196078%, 10.196078%, 10.196078%)" fill-opacity="1" d="M 14.472656 28.613281 L 14.472656 27.914062 L 14.992188 27.386719 L 15.488281 26.871094 L 15.972656 26.371094 L 16.433594 25.890625 L 16.878906 25.417969 L 17.308594 24.964844 L 17.722656 24.523438 L 18.113281 24.097656 L 18.492188 23.683594 L 18.847656 23.289062 L 19.191406 22.898438 L 19.515625 22.515625 L 19.820312 22.140625 L 20.109375 21.777344 L 20.378906 21.417969 L 20.632812 21.070312 L 20.871094 20.730469 L 21.089844 20.398438 L 21.289062 20.078125 L 21.472656 19.761719 L 21.640625 19.453125 L 21.789062 19.148438 L 21.921875 18.847656 L 22.035156 18.550781 L 22.128906 18.257812 L 22.210938 17.964844 L 22.269531 17.679688 L 22.316406 17.394531 L 22.339844 17.113281 L 22.347656 16.835938 L 22.339844 16.542969 L 22.316406 16.257812 L 22.273438 15.980469 L 22.214844 15.714844 L 22.136719 15.457031 L 22.042969 15.207031 L 21.933594 14.96875 L 21.804688 14.742188 L 21.660156 14.523438 L 21.5 14.3125 L 21.324219 14.117188 L 21.128906 13.945312 L 20.917969 13.789062 L 20.683594 13.65625 L 20.429688 13.542969 L 20.160156 13.453125 L 19.867188 13.378906 L 19.554688 13.328125 L 19.226562 13.296875 L 18.875 13.289062 L 18.660156 13.292969 L 18.449219 13.3125 L 18.238281 13.339844 L 18.03125 13.382812 L 17.824219 13.4375 L 17.621094 13.503906 L 17.417969 13.582031 L 17.21875 13.671875 L 17.019531 13.773438 L 16.824219 13.886719 L 16.636719 14.011719 L 16.453125 14.140625 L 16.273438 14.273438 L 16.101562 14.414062 L 15.929688 14.5625 L 15.765625 14.714844 L 15.605469 14.875 L 15.449219 15.039062 L 15.296875 15.210938 L 15.148438 15.386719 L 14.425781 14.6875 L 14.605469 14.492188 L 14.792969 14.300781 L 14.984375 14.117188 L 15.175781 13.941406 L 15.375 13.769531 L 15.578125 13.605469 L 15.78125 13.445312 L 15.992188 13.296875 L 16.207031 13.152344 L 16.425781 13.011719 L 16.648438 12.882812 L 16.878906 12.769531 L 17.117188 12.667969 L 17.359375 12.582031 L 17.613281 12.507812 L 17.871094 12.445312 L 18.136719 12.398438 L 18.410156 12.363281 L 18.6875 12.34375 L 18.972656 12.335938 L 19.394531 12.351562 L 19.796875 12.386719 L 20.175781 12.449219 L 20.539062 12.535156 L 20.878906 12.644531 L 21.203125 12.777344 L 21.507812 12.9375 L 21.789062 13.121094 L 22.054688 13.328125 L 22.300781 13.5625 L 22.523438 13.816406 L 22.722656 14.085938 L 22.898438 14.371094 L 23.050781 14.671875 L 23.179688 14.988281 L 23.285156 15.320312 L 23.367188 15.667969 L 23.425781 16.035156 L 23.460938 16.414062 L 23.472656 16.8125 L 23.464844 17.128906 L 23.4375 17.445312 L 23.390625 17.761719 L 23.328125 18.082031 L 23.242188 18.398438 L 23.140625 18.71875 L 23.019531 19.042969 L 22.882812 19.363281 L 22.726562 19.6875 L 22.550781 20.011719 L 22.363281 20.339844 L 22.160156 20.671875 L 21.941406 21.011719 L 21.710938 21.351562 L 21.460938 21.699219 L 21.199219 22.050781 L 20.921875 22.410156 L 20.628906 22.773438 L 20.320312 23.140625 L 20 23.511719 L 19.667969 23.890625 L 19.324219 24.28125 L 18.96875 24.679688 L 18.605469 25.089844 L 18.222656 25.507812 L 17.832031 25.933594 L 17.429688 26.371094 L 17.015625 26.816406 L 16.589844 27.273438 L 16.148438 27.738281 L 16.28125 27.726562 L 16.410156 27.71875 L 16.542969 27.710938 L 16.671875 27.703125 L 17.070312 27.679688 L 17.207031 27.671875 L 17.472656 27.664062 L 17.613281 27.652344 L 17.753906 27.644531 L 18.027344 27.628906 L 18.160156 27.625 L 18.296875 27.621094 L 18.5625 27.613281 L 24.273438 27.613281 L 24.273438 28.613281 Z M 14.472656 28.613281 "/>
<path fill-rule="nonzero" fill="rgb(10.196078%, 10.196078%, 10.196078%)" fill-opacity="1" d="M 31.398438 28.914062 L 30.953125 28.890625 L 30.53125 28.824219 L 30.125 28.71875 L 29.742188 28.566406 L 29.378906 28.367188 L 29.039062 28.128906 L 28.71875 27.847656 L 28.414062 27.519531 L 28.136719 27.152344 L 27.875 26.738281 L 27.636719 26.285156 L 27.425781 25.792969 L 27.238281 25.269531 L 27.074219 24.707031 L 26.9375 24.105469 L 26.824219 23.46875 L 26.738281 22.796875 L 26.675781 22.089844 L 26.636719 21.34375 L 26.625 20.5625 L 26.636719 19.785156 L 26.675781 19.046875 L 26.738281 18.34375 L 26.824219 17.679688 L 26.9375 17.050781 L 27.074219 16.457031 L 27.238281 15.902344 L 27.425781 15.386719 L 27.636719 14.90625 L 27.875 14.460938 L 28.136719 14.058594 L 28.414062 13.699219 L 28.71875 13.378906 L 29.039062 13.101562 L 29.378906 12.867188 L 29.742188 12.675781 L 30.125 12.527344 L 30.53125 12.421875 L 30.953125 12.359375 L 31.398438 12.335938 L 31.847656 12.359375 L 32.277344 12.421875 L 32.683594 12.527344 L 33.066406 12.675781 L 33.429688 12.867188 L 33.773438 13.101562 L 34.09375 13.378906 L 34.390625 13.699219 L 34.667969 14.058594 L 34.925781 14.460938 L 35.160156 14.90625 L 35.375 15.386719 L 35.5625 15.902344 L 35.722656 16.457031 L 35.863281 17.050781 L 35.972656 17.679688 L 36.0625 18.34375 L 36.125 19.046875 L 36.160156 19.785156 L 36.175781 20.5625 L 36.160156 21.34375 L 36.125 22.089844 L 36.0625 22.796875 L 35.972656 23.46875 L 35.863281 24.105469 L 35.722656 24.707031 L 35.5625 25.269531 L 35.375 25.792969 L 35.160156 26.285156 L 34.925781 26.738281 L 34.667969 27.152344 L 34.390625 27.519531 L 34.09375 27.847656 L 33.773438 28.128906 L 33.429688 28.367188 L 33.066406 28.566406 L 32.683594 28.71875 L 32.277344 28.824219 L 31.847656 28.890625 Z M 31.398438 27.960938 L 31.726562 27.945312 L 32.042969 27.886719 L 32.339844 27.792969 L 32.628906 27.664062 L 32.898438 27.492188 L 33.15625 27.289062 L 33.402344 27.042969 L 33.632812 26.761719 L 33.847656 26.445312 L 34.050781 26.085938 L 34.238281 25.695312 L 34.410156 25.265625 L 34.558594 24.804688 L 34.691406 24.304688 L 34.800781 23.769531 L 34.890625 23.199219 L 34.960938 22.59375 L 35.007812 21.953125 L 35.039062 21.273438 L 35.050781 20.5625 L 35.039062 19.851562 L 35.007812 19.175781 L 34.960938 18.539062 L 34.890625 17.9375 L 34.800781 17.375 L 34.691406 16.847656 L 34.558594 16.359375 L 34.410156 15.90625 L 34.238281 15.492188 L 34.050781 15.113281 L 33.847656 14.765625 L 33.632812 14.457031 L 33.402344 14.183594 L 33.15625 13.945312 L 32.898438 13.742188 L 32.628906 13.578125 L 32.339844 13.453125 L 32.042969 13.359375 L 31.726562 13.304688 L 31.398438 13.289062 L 31.074219 13.304688 L 30.765625 13.359375 L 30.46875 13.453125 L 30.183594 13.578125 L 29.910156 13.742188 L 29.652344 13.945312 L 29.40625 14.183594 L 29.175781 14.457031 L 28.957031 14.765625 L 28.75 15.113281 L 28.558594 15.492188 L 28.390625 15.90625 L 28.238281 16.359375 L 28.109375 16.847656 L 28 17.375 L 27.910156 17.9375 L 27.839844 18.539062 L 27.789062 19.175781 L 27.757812 19.851562 L 27.75 20.5625 L 27.757812 21.273438 L 27.789062 21.953125 L 27.839844 22.59375 L 27.910156 23.199219 L 28 23.769531 L 28.109375 24.304688 L 28.238281 24.804688 L 28.390625 25.265625 L 28.558594 25.695312 L 28.75 26.085938 L 28.957031 26.445312 L 29.175781 26.761719 L 29.40625 27.042969 L 29.652344 27.289062 L 29.910156 27.492188 L 30.183594 27.664062 L 30.46875 27.792969 L 30.765625 27.886719 L 31.074219 27.945312 Z M 31.398438 27.960938 "/>
<path fill-rule="nonzero" fill="rgb(10.196078%, 10.196078%, 10.196078%)" fill-opacity="1" d="M 43.375 28.914062 L 42.929688 28.890625 L 42.503906 28.824219 L 42.101562 28.71875 L 41.71875 28.566406 L 41.355469 28.367188 L 41.011719 28.128906 L 40.691406 27.847656 L 40.390625 27.519531 L 40.109375 27.152344 L 39.847656 26.738281 L 39.613281 26.285156 L 39.398438 25.792969 L 39.210938 25.269531 L 39.050781 24.707031 L 38.910156 24.105469 L 38.800781 23.46875 L 38.710938 22.796875 L 38.648438 22.089844 L 38.613281 21.34375 L 38.597656 20.5625 L 38.613281 19.785156 L 38.648438 19.046875 L 38.710938 18.34375 L 38.800781 17.679688 L 38.910156 17.050781 L 39.050781 16.457031 L 39.210938 15.902344 L 39.398438 15.386719 L 39.613281 14.90625 L 39.847656 14.460938 L 40.109375 14.058594 L 40.390625 13.699219 L 40.691406 13.378906 L 41.011719 13.101562 L 41.355469 12.867188 L 41.71875 12.675781 L 42.101562 12.527344 L 42.503906 12.421875 L 42.929688 12.359375 L 43.375 12.335938 L 43.824219 12.359375 L 44.25 12.421875 L 44.65625 12.527344 L 45.042969 12.675781 L 45.40625 12.867188 L 45.746094 13.101562 L 46.066406 13.378906 L 46.367188 13.699219 L 46.644531 14.058594 L 46.898438 14.460938 L 47.136719 14.90625 L 47.347656 15.386719 L 47.535156 15.902344 L 47.699219 16.457031 L 47.835938 17.050781 L 47.949219 17.679688 L 48.035156 18.34375 L 48.097656 19.046875 L 48.136719 19.785156 L 48.148438 20.5625 L 48.136719 21.34375 L 48.097656 22.089844 L 48.035156 22.796875 L 47.949219 23.46875 L 47.835938 24.105469 L 47.699219 24.707031 L 47.535156 25.269531 L 47.347656 25.792969 L 47.136719 26.285156 L 46.898438 26.738281 L 46.644531 27.152344 L 46.367188 27.519531 L 46.066406 27.847656 L 45.746094 28.128906 L 45.40625 28.367188 L 45.042969 28.566406 L 44.65625 28.71875 L 44.25 28.824219 L 43.824219 28.890625 Z M 43.375 27.960938 L 43.703125 27.945312 L 44.015625 27.886719 L 44.316406 27.792969 L 44.601562 27.664062 L 44.875 27.492188 L 45.132812 27.289062 L 45.375 27.042969 L 45.605469 26.761719 L 45.824219 26.445312 L 46.023438 26.085938 L 46.214844 25.695312 L 46.382812 25.265625 L 46.535156 24.804688 L 46.664062 24.304688 L 46.773438 23.769531 L 46.863281 23.199219 L 46.933594 22.59375 L 46.984375 21.953125 L 47.015625 21.273438 L 47.023438 20.5625 L 47.015625 19.851562 L 46.984375 19.175781 L 46.933594 18.539062 L 46.863281 17.9375 L 46.773438 17.375 L 46.664062 16.847656 L 46.535156 16.359375 L 46.382812 15.90625 L 46.214844 15.492188 L 46.023438 15.113281 L 45.824219 14.765625 L 45.605469 14.457031 L 45.375 14.183594 L 45.132812 13.945312 L 44.875 13.742188 L 44.601562 13.578125 L 44.316406 13.453125 L 44.015625 13.359375 L 43.703125 13.304688 L 43.375 13.289062 L 43.050781 13.304688 L 42.742188 13.359375 L 42.441406 13.453125 L 42.160156 13.578125 L 41.886719 13.742188 L 41.628906 13.945312 L 41.382812 14.183594 L 41.152344 14.457031 L 40.929688 14.765625 L 40.722656 15.113281 L 40.535156 15.492188 L 40.363281 15.90625 L 40.214844 16.359375 L 40.085938 16.847656 L 39.972656 17.375 L 39.882812 17.9375 L 39.816406 18.539062 L 39.765625 19.175781 L 39.734375 19.851562 L 39.722656 20.5625 L 39.734375 21.273438 L 39.765625 21.953125 L 39.816406 22.59375 L 39.882812 23.199219 L 39.972656 23.769531 L 40.085938 24.304688 L 40.214844 24.804688 L 40.363281 25.265625 L 40.535156 25.695312 L 40.722656 26.085938 L 40.929688 26.445312 L 41.152344 26.761719 L 41.382812 27.042969 L 41.628906 27.289062 L 41.886719 27.492188 L 42.160156 27.664062 L 42.441406 27.792969 L 42.742188 27.886719 L 43.050781 27.945312 Z M 43.375 27.960938 "/>
<path fill-rule="nonzero" fill="rgb(10.196078%, 10.196078%, 10.196078%)" fill-opacity="1" d="M 200.269531 349.027344 L 200.269531 348.050781 L 205.769531 348.050781 L 205.769531 349.027344 Z M 200.269531 349.027344 "/>
<path fill-rule="nonzero" fill="rgb(10.196078%, 10.196078%, 10.196078%)" fill-opacity="1" d="M 207.769531 354.777344 L 207.769531 354.074219 L 208.285156 353.546875 L 208.785156 353.035156 L 209.265625 352.535156 L 209.730469 352.050781 L 210.175781 351.582031 L 210.605469 351.125 L 211.015625 350.6875 L 211.410156 350.257812 L 211.785156 349.847656 L 212.144531 349.449219 L 212.488281 349.058594 L 212.808594 348.675781 L 213.117188 348.304688 L 213.40625 347.9375 L 213.675781 347.582031 L 213.929688 347.234375 L 214.167969 346.894531 L 214.386719 346.5625 L 214.585938 346.238281 L 214.769531 345.925781 L 214.9375 345.617188 L 215.085938 345.3125 L 215.214844 345.011719 L 215.332031 344.714844 L 215.425781 344.417969 L 215.503906 344.128906 L 215.566406 343.839844 L 215.609375 343.558594 L 215.636719 343.277344 L 215.644531 343 L 215.636719 342.707031 L 215.609375 342.417969 L 215.570312 342.144531 L 215.507812 341.875 L 215.433594 341.621094 L 215.339844 341.371094 L 215.230469 341.132812 L 215.101562 340.90625 L 214.957031 340.683594 L 214.796875 340.476562 L 214.621094 340.28125 L 214.425781 340.105469 L 214.210938 339.953125 L 213.980469 339.820312 L 213.726562 339.707031 L 213.453125 339.613281 L 213.164062 339.542969 L 212.851562 339.492188 L 212.519531 339.460938 L 212.171875 339.449219 L 211.957031 339.457031 L 211.746094 339.472656 L 211.535156 339.503906 L 211.328125 339.546875 L 211.121094 339.601562 L 210.917969 339.667969 L 210.714844 339.746094 L 210.515625 339.835938 L 210.316406 339.9375 L 210.121094 340.050781 L 209.933594 340.171875 L 209.75 340.300781 L 209.570312 340.4375 L 209.394531 340.578125 L 209.226562 340.726562 L 209.0625 340.878906 L 208.902344 341.039062 L 208.746094 341.203125 L 208.59375 341.375 L 208.445312 341.550781 L 207.71875 340.851562 L 207.902344 340.652344 L 208.089844 340.464844 L 208.277344 340.28125 L 208.472656 340.101562 L 208.871094 339.765625 L 209.078125 339.609375 L 209.289062 339.457031 L 209.503906 339.3125 L 209.71875 339.175781 L 209.945312 339.046875 L 210.175781 338.933594 L 210.410156 338.832031 L 210.65625 338.742188 L 210.90625 338.667969 L 211.167969 338.609375 L 211.433594 338.5625 L 211.703125 338.527344 L 211.984375 338.507812 L 212.269531 338.5 L 212.691406 338.511719 L 213.089844 338.550781 L 213.472656 338.609375 L 213.835938 338.695312 L 214.175781 338.808594 L 214.5 338.941406 L 214.800781 339.101562 L 215.085938 339.285156 L 215.351562 339.492188 L 215.59375 339.726562 L 215.820312 339.976562 L 216.019531 340.246094 L 216.195312 340.53125 L 216.347656 340.832031 L 216.476562 341.152344 L 216.582031 341.484375 L 216.664062 341.832031 L 216.722656 342.199219 L 216.757812 342.578125 L 216.769531 342.976562 L 216.761719 343.289062 L 216.734375 343.609375 L 216.6875 343.925781 L 216.621094 344.242188 L 216.539062 344.5625 L 216.4375 344.882812 L 216.316406 345.203125 L 216.179688 345.527344 L 216.019531 345.851562 L 215.84375 346.175781 L 215.65625 346.503906 L 215.457031 346.835938 L 215.238281 347.171875 L 215.003906 347.515625 L 214.757812 347.863281 L 214.496094 348.214844 L 214.21875 348.574219 L 213.925781 348.933594 L 213.617188 349.304688 L 213.296875 349.675781 L 212.964844 350.054688 L 212.621094 350.445312 L 212.265625 350.84375 L 211.898438 351.25 L 211.519531 351.667969 L 211.128906 352.097656 L 210.726562 352.53125 L 210.3125 352.980469 L 209.882812 353.433594 L 209.445312 353.902344 L 209.574219 353.890625 L 209.707031 353.882812 L 209.835938 353.871094 L 210.234375 353.847656 L 210.367188 353.84375 L 210.5 353.835938 L 210.636719 353.832031 L 210.769531 353.824219 L 210.910156 353.816406 L 211.046875 353.808594 L 211.1875 353.800781 L 211.324219 353.792969 L 211.457031 353.789062 L 211.59375 353.785156 L 211.859375 353.777344 L 217.570312 353.777344 L 217.570312 354.777344 Z M 207.769531 354.777344 "/>
<path fill-rule="nonzero" fill="rgb(10.196078%, 10.196078%, 10.196078%)" fill-opacity="1" d="M 387.40625 355.074219 L 386.964844 355.054688 L 386.539062 354.988281 L 386.136719 354.878906 L 385.753906 354.726562 L 385.390625 354.53125 L 385.046875 354.292969 L 384.726562 354.007812 L 384.425781 353.683594 L 384.144531 353.3125 L 383.882812 352.902344 L 383.644531 352.445312 L 383.433594 351.957031 L 383.246094 351.429688 L 383.082031 350.867188 L 382.945312 350.269531 L 382.832031 349.632812 L 382.746094 348.960938 L 382.683594 348.253906 L 382.644531 347.507812 L 382.632812 346.726562 L 382.644531 345.949219 L 382.683594 345.210938 L 382.746094 344.507812 L 382.832031 343.839844 L 382.945312 343.214844 L 383.082031 342.621094 L 383.246094 342.066406 L 383.433594 341.550781 L 383.644531 341.070312 L 383.882812 340.625 L 384.144531 340.222656 L 384.425781 339.859375 L 384.726562 339.542969 L 385.046875 339.265625 L 385.390625 339.03125 L 385.753906 338.839844 L 386.136719 338.691406 L 386.539062 338.585938 L 386.964844 338.523438 L 387.40625 338.5 L 387.855469 338.523438 L 388.285156 338.585938 L 388.691406 338.691406 L 389.074219 338.839844 L 389.4375 339.03125 L 389.78125 339.265625 L 390.101562 339.542969 L 390.398438 339.859375 L 390.675781 340.222656 L 390.933594 340.625 L 391.171875 341.070312 L 391.382812 341.550781 L 391.570312 342.066406 L 391.734375 342.621094 L 391.871094 343.214844 L 391.984375 343.839844 L 392.070312 344.507812 L 392.132812 345.210938 L 392.171875 345.949219 L 392.183594 346.726562 L 392.171875 347.507812 L 392.132812 348.253906 L 392.070312 348.960938 L 391.984375 349.632812 L 391.871094 350.269531 L 391.734375 350.867188 L 391.570312 351.429688 L 391.382812 351.957031 L 391.171875 352.445312 L 390.933594 352.902344 L 390.675781 353.3125 L 390.398438 353.683594 L 390.101562 354.007812 L 389.78125 354.292969 L 389.4375 354.53125 L 389.074219 354.726562 L 388.691406 354.878906 L 388.285156 354.988281 L 387.855469 355.054688 Z M 387.40625 354.125 L 387.734375 354.105469 L 388.050781 354.050781 L 388.351562 353.957031 L 388.636719 353.824219 L 388.90625 353.65625 L 389.167969 353.449219 L 389.410156 353.207031 L 389.640625 352.925781 L 389.855469 352.605469 L 390.058594 352.25 L 390.25 351.859375 L 390.417969 351.429688 L 390.566406 350.964844 L 390.699219 350.464844 L 390.808594 349.933594 L 390.898438 349.363281 L 390.96875 348.753906 L 391.019531 348.113281 L 391.046875 347.4375 L 391.058594 346.726562 L 391.046875 346.015625 L 391.019531 345.339844 L 390.96875 344.703125 L 390.898438 344.101562 L 390.808594 343.539062 L 390.699219 343.011719 L 390.566406 342.523438 L 390.417969 342.070312 L 390.25 341.652344 L 390.058594 341.277344 L 389.855469 340.929688 L 389.640625 340.617188 L 389.410156 340.34375 L 389.167969 340.109375 L 388.90625 339.90625 L 388.636719 339.742188 L 388.351562 339.613281 L 388.050781 339.523438 L 387.734375 339.46875 L 387.40625 339.449219 L 387.085938 339.46875 L 386.773438 339.523438 L 386.476562 339.613281 L 386.191406 339.742188 L 385.921875 339.90625 L 385.664062 340.109375 L 385.417969 340.34375 L 385.183594 340.617188 L 384.964844 340.929688 L 384.757812 341.277344 L 384.566406 341.652344 L 384.398438 342.070312 L 384.25 342.523438 L 384.117188 343.011719 L 384.007812 343.539062 L 383.917969 344.101562 L 383.847656 344.703125 L 383.796875 345.339844 L 383.769531 346.015625 L 383.757812 346.726562 L 383.769531 347.4375 L 383.796875 348.113281 L 383.847656 348.753906 L 383.917969 349.363281 L 384.007812 349.933594 L 384.117188 350.464844 L 384.25 350.964844 L 384.398438 351.429688 L 384.566406 351.859375 L 384.757812 352.25 L 384.964844 352.605469 L 385.183594 352.925781 L 385.417969 353.207031 L 385.664062 353.449219 L 385.921875 353.65625 L 386.191406 353.824219 L 386.476562 353.957031 L 386.773438 354.050781 L 387.085938 354.105469 Z M 387.40625 354.125 "/>
<path fill-rule="nonzero" fill="rgb(10.196078%, 10.196078%, 10.196078%)" fill-opacity="1" d="M 560.882812 354.777344 L 560.882812 354.074219 L 561.398438 353.546875 L 561.898438 353.035156 L 562.378906 352.535156 L 562.84375 352.050781 L 563.289062 351.582031 L 563.71875 351.125 L 564.128906 350.6875 L 564.523438 350.257812 L 564.898438 349.847656 L 565.257812 349.449219 L 565.601562 349.058594 L 565.921875 348.675781 L 566.230469 348.304688 L 566.519531 347.9375 L 566.789062 347.582031 L 567.042969 347.234375 L 567.28125 346.894531 L 567.5 346.5625 L 567.699219 346.238281 L 567.882812 345.925781 L 568.050781 345.617188 L 568.199219 345.3125 L 568.328125 345.011719 L 568.445312 344.714844 L 568.539062 344.417969 L 568.617188 344.128906 L 568.679688 343.839844 L 568.722656 343.558594 L 568.75 343.277344 L 568.757812 343 L 568.75 342.707031 L 568.722656 342.417969 L 568.683594 342.144531 L 568.621094 341.875 L 568.546875 341.621094 L 568.453125 341.371094 L 568.34375 341.132812 L 568.214844 340.90625 L 568.070312 340.683594 L 567.910156 340.476562 L 567.734375 340.28125 L 567.539062 340.105469 L 567.324219 339.953125 L 567.09375 339.820312 L 566.839844 339.707031 L 566.566406 339.613281 L 566.277344 339.542969 L 565.964844 339.492188 L 565.632812 339.460938 L 565.285156 339.449219 L 565.070312 339.457031 L 564.859375 339.472656 L 564.648438 339.503906 L 564.441406 339.546875 L 564.234375 339.601562 L 564.03125 339.667969 L 563.828125 339.746094 L 563.628906 339.835938 L 563.429688 339.9375 L 563.234375 340.050781 L 563.046875 340.171875 L 562.863281 340.300781 L 562.683594 340.4375 L 562.507812 340.578125 L 562.339844 340.726562 L 562.175781 340.878906 L 562.015625 341.039062 L 561.859375 341.203125 L 561.707031 341.375 L 561.558594 341.550781 L 560.832031 340.851562 L 561.015625 340.652344 L 561.203125 340.464844 L 561.390625 340.28125 L 561.585938 340.101562 L 561.984375 339.765625 L 562.191406 339.609375 L 562.402344 339.457031 L 562.617188 339.3125 L 562.832031 339.175781 L 563.058594 339.046875 L 563.289062 338.933594 L 563.523438 338.832031 L 563.769531 338.742188 L 564.019531 338.667969 L 564.28125 338.609375 L 564.546875 338.5625 L 564.816406 338.527344 L 565.097656 338.507812 L 565.382812 338.5 L 565.804688 338.511719 L 566.203125 338.550781 L 566.585938 338.609375 L 566.949219 338.695312 L 567.289062 338.808594 L 567.613281 338.941406 L 567.914062 339.101562 L 568.199219 339.285156 L 568.464844 339.492188 L 568.707031 339.726562 L 568.933594 339.976562 L 569.132812 340.246094 L 569.308594 340.53125 L 569.460938 340.832031 L 569.589844 341.152344 L 569.695312 341.484375 L 569.777344 341.832031 L 569.835938 342.199219 L 569.871094 342.578125 L 569.882812 342.976562 L 569.875 343.289062 L 569.847656 343.609375 L 569.800781 343.925781 L 569.734375 344.242188 L 569.652344 344.5625 L 569.550781 344.882812 L 569.429688 345.203125 L 569.292969 345.527344 L 569.132812 345.851562 L 568.957031 346.175781 L 568.769531 346.503906 L 568.570312 346.835938 L 568.351562 347.171875 L 568.117188 347.515625 L 567.871094 347.863281 L 567.609375 348.214844 L 567.332031 348.574219 L 567.039062 348.933594 L 566.730469 349.304688 L 566.410156 349.675781 L 566.078125 350.054688 L 565.734375 350.445312 L 565.378906 350.84375 L 565.011719 351.25 L 564.632812 351.667969 L 564.242188 352.097656 L 563.839844 352.53125 L 563.425781 352.980469 L 562.996094 353.433594 L 562.558594 353.902344 L 562.6875 353.890625 L 562.820312 353.882812 L 562.949219 353.871094 L 563.347656 353.847656 L 563.480469 353.84375 L 563.613281 353.835938 L 563.75 353.832031 L 563.882812 353.824219 L 564.023438 353.816406 L 564.160156 353.808594 L 564.300781 353.800781 L 564.433594 353.792969 L 564.707031 353.785156 L 564.972656 353.777344 L 570.683594 353.777344 L 570.683594 354.777344 Z M 560.882812 354.777344 "/>
<path fill-rule="nonzero" fill="rgb(10.196078%, 10.196078%, 10.196078%)" fill-opacity="1" d="M 740.035156 349.050781 L 746.035156 349.050781 L 746.035156 342.84375 L 746.039062 342.714844 L 746.039062 342.582031 L 746.042969 342.441406 L 746.046875 342.296875 L 746.050781 342.144531 L 746.054688 341.988281 L 746.058594 341.824219 L 746.070312 341.664062 L 746.078125 341.507812 L 746.085938 341.355469 L 746.09375 341.210938 L 746.101562 341.070312 L 746.109375 340.933594 L 746.117188 340.804688 L 746.121094 340.679688 L 746.128906 340.5625 L 746.132812 340.449219 L 746.035156 340.449219 L 745.972656 340.550781 L 745.914062 340.648438 L 745.851562 340.75 L 745.664062 341.042969 L 745.601562 341.136719 L 745.539062 341.234375 L 745.472656 341.332031 L 745.410156 341.425781 L 745.34375 341.519531 L 745.277344 341.617188 L 745.210938 341.71875 L 745.144531 341.816406 L 745.078125 341.917969 L 745.011719 342.023438 L 744.871094 342.234375 L 744.804688 342.339844 L 744.734375 342.449219 Z M 746.035156 354.777344 L 746.035156 350 L 738.683594 350 L 738.683594 349.351562 L 746.109375 338.800781 L 747.109375 338.800781 L 747.109375 349.050781 L 749.484375 349.050781 L 749.484375 350 L 747.109375 350 L 747.109375 354.777344 Z M 746.035156 354.777344 "/>
</svg>
