<?xml version="1.0" encoding="UTF-8"?>
<svg xmlns="http://www.w3.org/2000/svg" xmlns:xlink="http://www.w3.org/1999/xlink" width="792" height="489" viewBox="0 0 792 489">
<defs>
<clipPath id="clip-0">
<path clip-rule="nonzero" d="M 82.929688 17.933594 L 774.066406 17.933594 L 774.066406 387.117188 L 82.929688 387.117188 Z M 82.929688 17.933594 "/>
</clipPath>
<clipPath id="clip-1">
<path clip-rule="nonzero" d="M 82.929688 368 L 774.066406 368 L 774.066406 373 L 82.929688 373 Z M 82.929688 368 "/>
</clipPath>
<clipPath id="clip-2">
<path clip-rule="nonzero" d="M 82.929688 260 L 774.066406 260 L 774.066406 265 L 82.929688 265 Z M 82.929688 260 "/>
</clipPath>
<clipPath id="clip-3">
<path clip-rule="nonzero" d="M 82.929688 152 L 774.066406 152 L 774.066406 157 L 82.929688 157 Z M 82.929688 152 "/>
</clipPath>
<clipPath id="clip-4">
<path clip-rule="nonzero" d="M 82.929688 44 L 774.066406 44 L 774.066406 49 L 82.929688 49 Z M 82.929688 44 "/>
</clipPath>
<clipPath id="clip-5">
<path clip-rule="nonzero" d="M 206 17.933594 L 211 17.933594 L 211 387.117188 L 206 387.117188 Z M 206 17.933594 "/>
</clipPath>
<clipPath id="clip-6">
<path clip-rule="nonzero" d="M 395 17.933594 L 399 17.933594 L 399 387.117188 L 395 387.117188 Z M 395 17.933594 "/>
</clipPath>
<clipPath id="clip-7">
<path clip-rule="nonzero" d="M 583 17.933594 L 588 17.933594 L 588 387.117188 L 583 387.117188 Z M 583 17.933594 "/>
</clipPath>
</defs>
<rect x="-79.2" y="-48.9" width="950.4" height="586.8" fill="rgb(100%, 100%, 100%)" fill-opacity="1"/>
<rect x="-79.2" y="-48.9" width="950.4" height="586.8" fill="rgb(95.294118%, 95.294118%, 95.294118%)" fill-opacity="1"/>
<path fill="none" stroke-width="3.491929" stroke-linecap="round" stroke-linejoin="round" stroke="rgb(95.294118%, 95.294118%, 95.294118%)" stroke-opacity="1" stroke-miterlimit="10" d="M 0 489 L 792 489 L 792 0 L 0 0 Z M 0 489 "/>
<g clip-path="url(#clip-0)">
<path fill-rule="nonzero" fill="rgb(95.294118%, 95.294118%, 95.294118%)" fill-opacity="1" stroke-width="3.491929" stroke-linecap="round" stroke-linejoin="round" stroke="rgb(95.294118%, 95.294118%, 95.294118%)" stroke-opacity="1" stroke-miterlimit="10" d="M 82.929688 387.113281 L 774.066406 387.113281 L 774.066406 17.929688 L 82.929688 17.929688 Z M 82.929688 387.113281 "/>
</g>
<g clip-path="url(#clip-1)">
<path fill="none" stroke-width="3.491929" stroke-linecap="butt" stroke-linejoin="round" stroke="rgb(92.156863%, 92.156863%, 92.156863%)" stroke-opacity="1" stroke-miterlimit="10" d="M 82.929688 370.335938 L 774.066406 370.335938 "/>
</g>
<g clip-path="url(#clip-2)">
<path fill="none" stroke-width="3.491929" stroke-linecap="butt" stroke-linejoin="round" stroke="rgb(92.156863%, 92.156863%, 92.156863%)" stroke-opacity="1" stroke-miterlimit="10" d="M 82.929688 262.417969 L 774.066406 262.417969 "/>
</g>
<g clip-path="url(#clip-3)">
<path fill="none" stroke-width="3.491929" stroke-linecap="butt" stroke-linejoin="round" stroke="rgb(92.156863%, 92.156863%, 92.156863%)" stroke-opacity="1" stroke-miterlimit="10" d="M 82.929688 154.5 L 774.066406 154.5 "/>
</g>
<g clip-path="url(#clip-4)">
<path fill="none" stroke-width="3.491929" stroke-linecap="butt" stroke-linejoin="round" stroke="rgb(92.156863%, 92.156863%, 92.156863%)" stroke-opacity="1" stroke-miterlimit="10" d="M 82.929688 46.585938 L 774.066406 46.585938 "/>
</g>
<g clip-path="url(#clip-5)">
<path fill="none" stroke-width="3.491929" stroke-linecap="butt" stroke-linejoin="round" stroke="rgb(92.156863%, 92.156863%, 92.156863%)" stroke-opacity="1" stroke-miterlimit="10" d="M 208.589844 387.113281 L 208.589844 17.933594 "/>
</g>
<g clip-path="url(#clip-6)">
<path fill="none" stroke-width="3.491929" stroke-linecap="butt" stroke-linejoin="round" stroke="rgb(92.156863%, 92.156863%, 92.156863%)" stroke-opacity="1" stroke-miterlimit="10" d="M 397.082031 387.113281 L 397.082031 17.933594 "/>
</g>
<g clip-path="url(#clip-7)">
<path fill="none" stroke-width="3.491929" stroke-linecap="butt" stroke-linejoin="round" stroke="rgb(92.156863%, 92.156863%, 92.156863%)" stroke-opacity="1" stroke-miterlimit="10" d="M 585.574219 387.113281 L 585.574219 17.933594 "/>
</g>
<path fill-rule="nonzero" fill="rgb(56.078431%, 16.470588%, 26.27451%)" fill-opacity="0.698039" d="M 114.34375 370.335938 L 177.175781 370.335938 L 177.175781 369.257812 L 114.34375 369.257812 Z M 114.34375 370.335938 "/>
<path fill-rule="nonzero" fill="rgb(56.078431%, 16.470588%, 26.27451%)" fill-opacity="0.698039" d="M 177.175781 370.335938 L 240.007812 370.335938 L 240.007812 364.941406 L 177.175781 364.941406 Z M 177.175781 370.335938 "/>
<path fill-rule="nonzero" fill="rgb(56.078431%, 16.470588%, 26.27451%)" fill-opacity="0.698039" d="M 240.007812 370.335938 L 302.839844 370.335938 L 302.839844 282.921875 L 240.007812 282.921875 Z M 240.007812 370.335938 "/>
<path fill-rule="nonzero" fill="rgb(56.078431%, 16.470588%, 26.27451%)" fill-opacity="0.698039" d="M 302.835938 370.335938 L 365.667969 370.335938 L 365.667969 286.160156 L 302.835938 286.160156 Z M 302.835938 370.335938 "/>
<path fill-rule="nonzero" fill="rgb(56.078431%, 16.470588%, 26.27451%)" fill-opacity="0.698039" d="M 365.667969 370.335938 L 428.5 370.335938 L 428.5 213.855469 L 365.667969 213.855469 Z M 365.667969 370.335938 "/>
<path fill-rule="nonzero" fill="rgb(56.078431%, 16.470588%, 26.27451%)" fill-opacity="0.698039" d="M 428.5 370.335938 L 491.332031 370.335938 L 491.332031 34.714844 L 428.5 34.714844 Z M 428.5 370.335938 "/>
<path fill-rule="nonzero" fill="rgb(56.078431%, 16.470588%, 26.27451%)" fill-opacity="0.698039" d="M 491.328125 370.335938 L 554.160156 370.335938 L 554.160156 260.261719 L 491.328125 260.261719 Z M 491.328125 370.335938 "/>
<path fill-rule="nonzero" fill="rgb(56.078431%, 16.470588%, 26.27451%)" fill-opacity="0.698039" d="M 554.160156 370.335938 L 616.992188 370.335938 L 616.992188 321.773438 L 554.160156 321.773438 Z M 554.160156 370.335938 "/>
<path fill-rule="nonzero" fill="rgb(56.078431%, 16.470588%, 26.27451%)" fill-opacity="0.698039" d="M 616.992188 370.335938 L 679.824219 370.335938 L 679.824219 336.882812 L 616.992188 336.882812 Z M 616.992188 370.335938 "/>
<path fill-rule="nonzero" fill="rgb(56.078431%, 16.470588%, 26.27451%)" fill-opacity="0.698039" d="M 679.820312 370.335938 L 742.652344 370.335938 L 742.652344 369.257812 L 679.820312 369.257812 Z M 679.820312 370.335938 "/>
<path fill-rule="nonzero" fill="rgb(10.196078%, 10.196078%, 10.196078%)" fill-opacity="1" d="M 58.628906 381.945312 L 58.027344 381.914062 L 57.449219 381.828125 L 56.898438 381.679688 L 56.378906 381.472656 L 55.886719 381.207031 L 55.417969 380.878906 L 54.980469 380.496094 L 54.574219 380.050781 L 54.191406 379.550781 L 53.835938 378.988281 L 53.515625 378.371094 L 53.226562 377.703125 L 52.96875 376.988281 L 52.75 376.222656 L 52.5625 375.410156 L 52.410156 374.542969 L 52.289062 373.628906 L 52.203125 372.664062 L 52.152344 371.652344 L 52.136719 370.589844 L 52.152344 369.53125 L 52.203125 368.527344 L 52.289062 367.570312 L 52.410156 366.667969 L 52.5625 365.8125 L 52.75 365.007812 L 52.96875 364.253906 L 53.226562 363.550781 L 53.515625 362.894531 L 53.835938 362.292969 L 54.191406 361.742188 L 54.574219 361.253906 L 54.980469 360.820312 L 55.417969 360.445312 L 55.886719 360.125 L 56.378906 359.867188 L 56.898438 359.664062 L 57.449219 359.519531 L 58.027344 359.433594 L 58.628906 359.402344 L 59.242188 359.433594 L 59.824219 359.519531 L 60.375 359.664062 L 60.898438 359.867188 L 61.394531 360.125 L 61.859375 360.445312 L 62.292969 360.820312 L 62.699219 361.253906 L 63.078125 361.742188 L 63.425781 362.292969 L 63.746094 362.894531 L 64.035156 363.550781 L 64.292969 364.253906 L 64.511719 365.007812 L 64.699219 365.8125 L 64.851562 366.667969 L 64.972656 367.570312 L 65.058594 368.527344 L 65.109375 369.53125 L 65.125 370.589844 L 65.109375 371.652344 L 65.058594 372.664062 L 64.972656 373.628906 L 64.851562 374.542969 L 64.699219 375.410156 L 64.511719 376.222656 L 64.292969 376.988281 L 64.035156 377.703125 L 63.746094 378.371094 L 63.425781 378.988281 L 63.078125 379.550781 L 62.699219 380.050781 L 62.292969 380.496094 L 61.859375 380.878906 L 61.394531 381.207031 L 60.898438 381.472656 L 60.375 381.679688 L 59.824219 381.828125 L 59.242188 381.914062 Z M 58.628906 380.652344 L 59.078125 380.628906 L 59.503906 380.550781 L 59.910156 380.421875 L 60.300781 380.246094 L 60.671875 380.015625 L 61.023438 379.734375 L 61.351562 379.402344 L 61.667969 379.019531 L 61.960938 378.585938 L 62.234375 378.101562 L 62.492188 377.570312 L 62.722656 376.988281 L 62.929688 376.355469 L 63.105469 375.675781 L 63.253906 374.949219 L 63.378906 374.175781 L 63.472656 373.351562 L 63.539062 372.476562 L 63.582031 371.558594 L 63.59375 370.589844 L 63.582031 369.621094 L 63.539062 368.703125 L 63.472656 367.835938 L 63.378906 367.019531 L 63.253906 366.253906 L 63.105469 365.539062 L 62.929688 364.871094 L 62.722656 364.257812 L 62.492188 363.691406 L 62.234375 363.175781 L 61.960938 362.707031 L 61.667969 362.285156 L 61.351562 361.910156 L 61.023438 361.589844 L 60.671875 361.316406 L 60.300781 361.09375 L 59.910156 360.917969 L 59.503906 360.792969 L 59.078125 360.71875 L 58.628906 360.695312 L 58.191406 360.71875 L 57.769531 360.792969 L 57.363281 360.917969 L 56.976562 361.09375 L 56.609375 361.316406 L 56.257812 361.589844 L 55.921875 361.910156 L 55.605469 362.285156 L 55.308594 362.707031 L 55.027344 363.175781 L 54.769531 363.691406 L 54.539062 364.257812 L 54.332031 364.871094 L 54.15625 365.539062 L 54.007812 366.253906 L 53.882812 367.019531 L 53.789062 367.835938 L 53.722656 368.703125 L 53.679688 369.621094 L 53.667969 370.589844 L 53.679688 371.558594 L 53.722656 372.476562 L 53.789062 373.351562 L 53.882812 374.175781 L 54.007812 374.949219 L 54.15625 375.675781 L 54.332031 376.355469 L 54.539062 376.988281 L 54.769531 377.570312 L 55.027344 378.101562 L 55.308594 378.585938 L 55.605469 379.019531 L 55.921875 379.402344 L 56.257812 379.734375 L 56.609375 380.015625 L 56.976562 380.246094 L 57.363281 380.421875 L 57.769531 380.550781 L 58.191406 380.628906 Z M 58.628906 380.652344 "/>
<path fill-rule="nonzero" fill="rgb(10.196078%, 10.196078%, 10.196078%)" fill-opacity="1" d="M 20.789062 273.621094 L 20.789062 272.292969 L 25.890625 272.292969 L 25.890625 254.273438 L 22.011719 254.273438 L 22.011719 253.253906 L 22.273438 253.207031 L 22.53125 253.15625 L 22.785156 253.101562 L 23.03125 253.046875 L 23.269531 252.992188 L 23.507812 252.933594 L 23.960938 252.808594 L 24.179688 252.742188 L 24.394531 252.675781 L 24.601562 252.609375 L 24.800781 252.535156 L 24.996094 252.464844 L 25.1875 252.386719 L 25.371094 252.3125 L 25.546875 252.230469 L 25.71875 252.152344 L 25.882812 252.066406 L 26.042969 251.980469 L 26.195312 251.894531 L 27.417969 251.894531 L 27.417969 272.292969 L 32.144531 272.292969 L 32.144531 273.621094 Z M 20.789062 273.621094 "/>
<path fill-rule="nonzero" fill="rgb(10.196078%, 10.196078%, 10.196078%)" fill-opacity="1" d="M 42.34375 274.027344 L 41.738281 274 L 41.164062 273.910156 L 40.613281 273.761719 L 40.09375 273.554688 L 39.597656 273.289062 L 39.132812 272.964844 L 38.695312 272.578125 L 38.285156 272.136719 L 37.90625 271.632812 L 37.550781 271.070312 L 37.226562 270.453125 L 36.9375 269.789062 L 36.683594 269.074219 L 36.460938 268.308594 L 36.277344 267.492188 L 36.121094 266.628906 L 36.003906 265.714844 L 35.917969 264.75 L 35.867188 263.734375 L 35.851562 262.671875 L 35.867188 261.617188 L 35.917969 260.609375 L 36.003906 259.65625 L 36.121094 258.75 L 36.277344 257.894531 L 36.460938 257.089844 L 36.683594 256.335938 L 36.9375 255.632812 L 37.226562 254.980469 L 37.550781 254.375 L 37.90625 253.828125 L 38.285156 253.335938 L 38.695312 252.902344 L 39.132812 252.527344 L 39.597656 252.210938 L 40.09375 251.949219 L 40.613281 251.746094 L 41.164062 251.601562 L 41.738281 251.515625 L 42.34375 251.488281 L 42.957031 251.515625 L 43.539062 251.601562 L 44.089844 251.746094 L 44.613281 251.949219 L 45.105469 252.210938 L 45.570312 252.527344 L 46.007812 252.902344 L 46.414062 253.335938 L 46.789062 253.828125 L 47.140625 254.375 L 47.460938 254.980469 L 47.75 255.632812 L 48.003906 256.335938 L 48.226562 257.089844 L 48.414062 257.894531 L 48.566406 258.75 L 48.6875 259.65625 L 48.769531 260.609375 L 48.820312 261.617188 L 48.839844 262.671875 L 48.820312 263.734375 L 48.769531 264.75 L 48.6875 265.714844 L 48.566406 266.628906 L 48.414062 267.492188 L 48.226562 268.308594 L 48.003906 269.074219 L 47.75 269.789062 L 47.460938 270.453125 L 47.140625 271.070312 L 46.789062 271.632812 L 46.414062 272.136719 L 46.007812 272.578125 L 45.570312 272.964844 L 45.105469 273.289062 L 44.613281 273.554688 L 44.089844 273.761719 L 43.539062 273.910156 L 42.957031 274 Z M 42.34375 272.738281 L 42.789062 272.710938 L 43.21875 272.632812 L 43.625 272.507812 L 44.015625 272.328125 L 44.382812 272.097656 L 44.734375 271.820312 L 45.066406 271.488281 L 45.378906 271.105469 L 45.675781 270.671875 L 45.949219 270.1875 L 46.207031 269.652344 L 46.4375 269.070312 L 46.640625 268.4375 L 46.820312 267.761719 L 46.96875 267.03125 L 47.089844 266.257812 L 47.1875 265.433594 L 47.253906 264.5625 L 47.296875 263.640625 L 47.308594 262.671875 L 47.296875 261.703125 L 47.253906 260.789062 L 47.1875 259.921875 L 47.089844 259.105469 L 46.96875 258.335938 L 46.820312 257.621094 L 46.640625 256.957031 L 46.4375 256.339844 L 46.207031 255.773438 L 45.949219 255.261719 L 45.675781 254.789062 L 45.378906 254.367188 L 45.066406 253.996094 L 44.734375 253.671875 L 44.382812 253.398438 L 44.015625 253.175781 L 43.625 253.003906 L 43.21875 252.878906 L 42.789062 252.804688 L 42.34375 252.777344 L 41.90625 252.804688 L 41.484375 252.878906 L 41.078125 253.003906 L 40.691406 253.175781 L 40.320312 253.398438 L 39.96875 253.671875 L 39.636719 253.996094 L 39.320312 254.367188 L 39.023438 254.789062 L 38.742188 255.261719 L 38.480469 255.773438 L 38.25 256.339844 L 38.046875 256.957031 L 37.871094 257.621094 L 37.722656 258.335938 L 37.597656 259.105469 L 37.503906 259.921875 L 37.433594 260.789062 L 37.394531 261.703125 L 37.378906 262.671875 L 37.394531 263.640625 L 37.433594 264.5625 L 37.503906 265.433594 L 37.597656 266.257812 L 37.722656 267.03125 L 37.871094 267.761719 L 38.046875 268.4375 L 38.25 269.070312 L 38.480469 269.652344 L 38.742188 270.1875 L 39.023438 270.671875 L 39.320312 271.105469 L 39.636719 271.488281 L 39.96875 271.820312 L 40.320312 272.097656 L 40.691406 272.328125 L 41.078125 272.507812 L 41.484375 272.632812 L 41.90625 272.710938 Z M 42.34375 272.738281 "/>
<path fill-rule="nonzero" fill="rgb(10.196078%, 10.196078%, 10.196078%)" fill-opacity="1" d="M 58.628906 274.027344 L 58.027344 274 L 57.449219 273.910156 L 56.898438 273.761719 L 56.378906 273.554688 L 55.886719 273.289062 L 55.417969 272.964844 L 54.980469 272.578125 L 54.574219 272.136719 L 54.191406 271.632812 L 53.835938 271.070312 L 53.515625 270.453125 L 53.226562 269.789062 L 52.96875 269.074219 L 52.75 268.308594 L 52.5625 267.492188 L 52.410156 266.628906 L 52.289062 265.714844 L 52.203125 264.75 L 52.152344 263.734375 L 52.136719 262.671875 L 52.152344 261.617188 L 52.203125 260.609375 L 52.289062 259.65625 L 52.410156 258.75 L 52.5625 257.894531 L 52.75 257.089844 L 52.96875 256.335938 L 53.226562 255.632812 L 53.515625 254.980469 L 53.835938 254.375 L 54.191406 253.828125 L 54.574219 253.335938 L 54.980469 252.902344 L 55.417969 252.527344 L 55.886719 252.210938 L 56.378906 251.949219 L 56.898438 251.746094 L 57.449219 251.601562 L 58.027344 251.515625 L 58.628906 251.488281 L 59.242188 251.515625 L 59.824219 251.601562 L 60.375 251.746094 L 60.898438 251.949219 L 61.394531 252.210938 L 61.859375 252.527344 L 62.292969 252.902344 L 62.699219 253.335938 L 63.078125 253.828125 L 63.425781 254.375 L 63.746094 254.980469 L 64.035156 255.632812 L 64.292969 256.335938 L 64.511719 257.089844 L 64.699219 257.894531 L 64.851562 258.75 L 64.972656 259.65625 L 65.058594 260.609375 L 65.109375 261.617188 L 65.125 262.671875 L 65.109375 263.734375 L 65.058594 264.75 L 64.972656 265.714844 L 64.851562 266.628906 L 64.699219 267.492188 L 64.511719 268.308594 L 64.292969 269.074219 L 64.035156 269.789062 L 63.746094 270.453125 L 63.425781 271.070312 L 63.078125 271.632812 L 62.699219 272.136719 L 62.292969 272.578125 L 61.859375 272.964844 L 61.394531 273.289062 L 60.898438 273.554688 L 60.375 273.761719 L 59.824219 273.910156 L 59.242188 274 Z M 58.628906 272.738281 L 59.078125 272.710938 L 59.503906 272.632812 L 59.910156 272.507812 L 60.300781 272.328125 L 60.671875 272.097656 L 61.023438 271.820312 L 61.351562 271.488281 L 61.667969 271.105469 L 61.960938 270.671875 L 62.234375 270.1875 L 62.492188 269.652344 L 62.722656 269.070312 L 62.929688 268.4375 L 63.105469 267.761719 L 63.253906 267.03125 L 63.378906 266.257812 L 63.472656 265.433594 L 63.539062 264.5625 L 63.582031 263.640625 L 63.59375 262.671875 L 63.582031 261.703125 L 63.539062 260.789062 L 63.472656 259.921875 L 63.378906 259.105469 L 63.253906 258.335938 L 63.105469 257.621094 L 62.929688 256.957031 L 62.722656 256.339844 L 62.492188 255.773438 L 62.234375 255.261719 L 61.960938 254.789062 L 61.667969 254.367188 L 61.351562 253.996094 L 61.023438 253.671875 L 60.671875 253.398438 L 60.300781 253.175781 L 59.910156 253.003906 L 59.503906 252.878906 L 59.078125 252.804688 L 58.628906 252.777344 L 58.191406 252.804688 L 57.769531 252.878906 L 57.363281 253.003906 L 56.976562 253.175781 L 56.609375 253.398438 L 56.257812 253.671875 L 55.921875 253.996094 L 55.605469 254.367188 L 55.308594 254.789062 L 55.027344 255.261719 L 54.769531 255.773438 L 54.539062 256.339844 L 54.332031 256.957031 L 54.15625 257.621094 L 54.007812 258.335938 L 53.882812 259.105469 L 53.789062 259.921875 L 53.722656 260.789062 L 53.679688 261.703125 L 53.667969 262.671875 L 53.679688 263.640625 L 53.722656 264.5625 L 53.789062 265.433594 L 53.882812 266.257812 L 54.007812 267.03125 L 54.15625 267.761719 L 54.332031 268.4375 L 54.539062 269.070312 L 54.769531 269.652344 L 55.027344 270.1875 L 55.308594 270.671875 L 55.605469 271.105469 L 55.921875 271.488281 L 56.257812 271.820312 L 56.609375 272.097656 L 56.976562 272.328125 L 57.363281 272.507812 L 57.769531 272.632812 L 58.191406 272.710938 Z M 58.628906 272.738281 "/>
<path fill-rule="nonzero" fill="rgb(10.196078%, 10.196078%, 10.196078%)" fill-opacity="1" d="M 19.328125 165.703125 L 19.328125 164.753906 L 20.027344 164.035156 L 20.707031 163.335938 L 21.363281 162.65625 L 21.992188 162 L 22.597656 161.359375 L 23.183594 160.742188 L 23.742188 160.140625 L 24.277344 159.5625 L 24.789062 159.003906 L 25.277344 158.460938 L 25.742188 157.929688 L 26.179688 157.410156 L 26.597656 156.902344 L 26.992188 156.40625 L 27.359375 155.921875 L 27.703125 155.445312 L 28.027344 154.984375 L 28.324219 154.535156 L 28.597656 154.09375 L 28.847656 153.667969 L 29.074219 153.25 L 29.273438 152.835938 L 29.453125 152.425781 L 29.609375 152.019531 L 29.738281 151.621094 L 29.847656 151.222656 L 29.929688 150.832031 L 29.988281 150.449219 L 30.023438 150.066406 L 30.035156 149.691406 L 30.023438 149.289062 L 29.992188 148.898438 L 29.933594 148.523438 L 29.851562 148.160156 L 29.746094 147.8125 L 29.621094 147.476562 L 29.46875 147.152344 L 29.296875 146.839844 L 29.101562 146.542969 L 28.878906 146.257812 L 28.644531 145.992188 L 28.378906 145.753906 L 28.089844 145.546875 L 27.769531 145.363281 L 27.425781 145.210938 L 27.058594 145.085938 L 26.660156 144.988281 L 26.238281 144.917969 L 25.785156 144.875 L 25.3125 144.863281 L 25.019531 144.871094 L 24.730469 144.894531 L 24.445312 144.933594 L 24.164062 144.992188 L 23.882812 145.066406 L 23.605469 145.15625 L 23.332031 145.261719 L 23.058594 145.382812 L 22.789062 145.523438 L 22.523438 145.679688 L 22.265625 145.84375 L 22.019531 146.019531 L 21.773438 146.203125 L 21.539062 146.394531 L 21.308594 146.597656 L 21.082031 146.804688 L 20.863281 147.019531 L 20.652344 147.246094 L 20.445312 147.476562 L 20.246094 147.71875 L 19.257812 146.765625 L 19.507812 146.5 L 19.757812 146.238281 L 20.019531 145.988281 L 20.28125 145.75 L 20.550781 145.515625 L 20.824219 145.292969 L 21.105469 145.078125 L 21.390625 144.871094 L 21.683594 144.675781 L 21.980469 144.488281 L 22.28125 144.3125 L 22.597656 144.15625 L 22.917969 144.019531 L 23.25 143.902344 L 23.59375 143.800781 L 23.945312 143.71875 L 24.304688 143.652344 L 24.675781 143.605469 L 25.058594 143.578125 L 25.445312 143.570312 L 26.019531 143.585938 L 26.5625 143.636719 L 27.082031 143.71875 L 27.574219 143.835938 L 28.039062 143.988281 L 28.476562 144.167969 L 28.890625 144.386719 L 29.277344 144.636719 L 29.636719 144.917969 L 29.96875 145.234375 L 30.273438 145.582031 L 30.542969 145.945312 L 30.785156 146.332031 L 30.992188 146.742188 L 31.167969 147.175781 L 31.3125 147.628906 L 31.421875 148.101562 L 31.503906 148.597656 L 31.550781 149.117188 L 31.566406 149.65625 L 31.554688 150.085938 L 31.515625 150.515625 L 31.453125 150.949219 L 31.367188 151.378906 L 31.253906 151.816406 L 31.113281 152.25 L 30.949219 152.6875 L 30.761719 153.125 L 30.546875 153.566406 L 30.308594 154.007812 L 30.054688 154.453125 L 29.777344 154.90625 L 29.484375 155.363281 L 29.167969 155.832031 L 28.828125 156.304688 L 28.472656 156.78125 L 28.09375 157.269531 L 27.699219 157.761719 L 27.28125 158.261719 L 26.839844 158.769531 L 26.390625 159.285156 L 25.925781 159.8125 L 25.441406 160.355469 L 24.941406 160.910156 L 24.425781 161.480469 L 23.894531 162.0625 L 23.347656 162.65625 L 22.78125 163.261719 L 22.203125 163.882812 L 21.605469 164.515625 L 21.78125 164.5 L 21.960938 164.488281 L 22.136719 164.476562 L 22.496094 164.453125 L 22.679688 164.445312 L 22.859375 164.4375 L 23.039062 164.425781 L 23.40625 164.410156 L 23.597656 164.398438 L 23.785156 164.386719 L 23.972656 164.378906 L 24.15625 164.367188 L 24.339844 164.359375 L 24.707031 164.351562 L 25.066406 164.34375 L 32.65625 164.34375 L 32.65625 165.703125 Z M 19.328125 165.703125 "/>
<path fill-rule="nonzero" fill="rgb(10.196078%, 10.196078%, 10.196078%)" fill-opacity="1" d="M 42.34375 166.113281 L 41.738281 166.082031 L 41.164062 165.992188 L 40.613281 165.847656 L 40.09375 165.640625 L 39.597656 165.371094 L 39.132812 165.046875 L 38.695312 164.664062 L 38.285156 164.21875 L 37.90625 163.714844 L 37.550781 163.152344 L 37.226562 162.539062 L 36.9375 161.871094 L 36.683594 161.15625 L 36.460938 160.390625 L 36.277344 159.574219 L 36.121094 158.710938 L 36.003906 157.796875 L 35.917969 156.832031 L 35.867188 155.820312 L 35.851562 154.757812 L 35.867188 153.699219 L 35.917969 152.695312 L 36.003906 151.738281 L 36.121094 150.832031 L 36.277344 149.980469 L 36.460938 149.175781 L 36.683594 148.421875 L 36.9375 147.714844 L 37.226562 147.0625 L 37.550781 146.460938 L 37.90625 145.910156 L 38.285156 145.417969 L 38.695312 144.984375 L 39.132812 144.609375 L 39.597656 144.292969 L 40.09375 144.03125 L 40.613281 143.832031 L 41.164062 143.6875 L 41.738281 143.597656 L 42.34375 143.570312 L 42.957031 143.597656 L 43.539062 143.6875 L 44.089844 143.832031 L 44.613281 144.03125 L 45.105469 144.292969 L 45.570312 144.609375 L 46.007812 144.984375 L 46.414062 145.417969 L 46.789062 145.910156 L 47.140625 146.460938 L 47.460938 147.0625 L 47.75 147.714844 L 48.003906 148.421875 L 48.226562 149.175781 L 48.414062 149.980469 L 48.566406 150.832031 L 48.6875 151.738281 L 48.769531 152.695312 L 48.820312 153.699219 L 48.839844 154.757812 L 48.820312 155.820312 L 48.769531 156.832031 L 48.6875 157.796875 L 48.566406 158.710938 L 48.414062 159.574219 L 48.226562 160.390625 L 48.003906 161.15625 L 47.75 161.871094 L 47.460938 162.539062 L 47.140625 163.152344 L 46.789062 163.714844 L 46.414062 164.21875 L 46.007812 164.664062 L 45.570312 165.046875 L 45.105469 165.371094 L 44.613281 165.640625 L 44.089844 165.847656 L 43.539062 165.992188 L 42.957031 166.082031 Z M 42.34375 164.820312 L 42.789062 164.792969 L 43.21875 164.71875 L 43.625 164.589844 L 44.015625 164.410156 L 44.382812 164.183594 L 44.734375 163.902344 L 45.066406 163.570312 L 45.378906 163.1875 L 45.675781 162.753906 L 45.949219 162.269531 L 46.207031 161.734375 L 46.4375 161.152344 L 46.640625 160.523438 L 46.820312 159.84375 L 46.96875 159.117188 L 47.089844 158.339844 L 47.1875 157.515625 L 47.253906 156.644531 L 47.296875 155.726562 L 47.308594 154.757812 L 47.296875 153.789062 L 47.253906 152.871094 L 47.1875 152.003906 L 47.089844 151.1875 L 46.96875 150.421875 L 46.820312 149.703125 L 46.640625 149.039062 L 46.4375 148.425781 L 46.207031 147.859375 L 45.949219 147.34375 L 45.675781 146.871094 L 45.378906 146.449219 L 45.066406 146.078125 L 44.734375 145.753906 L 44.382812 145.484375 L 44.015625 145.257812 L 43.625 145.085938 L 43.21875 144.960938 L 42.789062 144.886719 L 42.34375 144.863281 L 41.90625 144.886719 L 41.484375 144.960938 L 41.078125 145.085938 L 40.691406 145.257812 L 40.320312 145.484375 L 39.96875 145.753906 L 39.636719 146.078125 L 39.320312 146.449219 L 39.023438 146.871094 L 38.742188 147.34375 L 38.480469 147.859375 L 38.25 148.425781 L 38.046875 149.039062 L 37.871094 149.703125 L 37.722656 150.421875 L 37.597656 151.1875 L 37.503906 152.003906 L 37.433594 152.871094 L 37.394531 153.789062 L 37.378906 154.757812 L 37.394531 155.726562 L 37.433594 156.644531 L 37.503906 157.515625 L 37.597656 158.339844 L 37.722656 159.117188 L 37.871094 159.84375 L 38.046875 160.523438 L 38.25 161.152344 L 38.480469 161.734375 L 38.742188 162.269531 L 39.023438 162.753906 L 39.320312 163.1875 L 39.636719 163.570312 L 39.96875 163.902344 L 40.320312 164.183594 L 40.691406 164.410156 L 41.078125 164.589844 L 41.484375 164.71875 L 41.90625 164.792969 Z M 42.34375 164.820312 "/>
<path fill-rule="nonzero" fill="rgb(10.196078%, 10.196078%, 10.196078%)" fill-opacity="1" d="M 58.628906 166.113281 L 58.027344 166.082031 L 57.449219 165.992188 L 56.898438 165.847656 L 56.378906 165.640625 L 55.886719 165.371094 L 55.417969 165.046875 L 54.980469 164.664062 L 54.574219 164.21875 L 54.191406 163.714844 L 53.835938 163.152344 L 53.515625 162.539062 L 53.226562 161.871094 L 52.96875 161.15625 L 52.75 160.390625 L 52.5625 159.574219 L 52.410156 158.710938 L 52.289062 157.796875 L 52.203125 156.832031 L 52.152344 155.820312 L 52.136719 154.757812 L 52.152344 153.699219 L 52.203125 152.695312 L 52.289062 151.738281 L 52.410156 150.832031 L 52.5625 149.980469 L 52.75 149.175781 L 52.96875 148.421875 L 53.226562 147.714844 L 53.515625 147.0625 L 53.835938 146.460938 L 54.191406 145.910156 L 54.574219 145.417969 L 54.980469 144.984375 L 55.417969 144.609375 L 55.886719 144.292969 L 56.378906 144.03125 L 56.898438 143.832031 L 57.449219 143.6875 L 58.027344 143.597656 L 58.628906 143.570312 L 59.242188 143.597656 L 59.824219 143.6875 L 60.375 143.832031 L 60.898438 144.03125 L 61.394531 144.292969 L 61.859375 144.609375 L 62.292969 144.984375 L 62.699219 145.417969 L 63.078125 145.910156 L 63.425781 146.460938 L 63.746094 147.0625 L 64.035156 147.714844 L 64.292969 148.421875 L 64.511719 149.175781 L 64.699219 149.980469 L 64.851562 150.832031 L 64.972656 151.738281 L 65.058594 152.695312 L 65.109375 153.699219 L 65.125 154.757812 L 65.109375 155.820312 L 65.058594 156.832031 L 64.972656 157.796875 L 64.851562 158.710938 L 64.699219 159.574219 L 64.511719 160.390625 L 64.292969 161.15625 L 64.035156 161.871094 L 63.746094 162.539062 L 63.425781 163.152344 L 63.078125 163.714844 L 62.699219 164.21875 L 62.292969 164.664062 L 61.859375 165.046875 L 61.394531 165.371094 L 60.898438 165.640625 L 60.375 165.847656 L 59.824219 165.992188 L 59.242188 166.082031 Z M 58.628906 164.820312 L 59.078125 164.792969 L 59.503906 164.71875 L 59.910156 164.589844 L 60.300781 164.410156 L 60.671875 164.183594 L 61.023438 163.902344 L 61.351562 163.570312 L 61.667969 163.1875 L 61.960938 162.753906 L 62.234375 162.269531 L 62.492188 161.734375 L 62.722656 161.152344 L 62.929688 160.523438 L 63.105469 159.84375 L 63.253906 159.117188 L 63.378906 158.339844 L 63.472656 157.515625 L 63.539062 156.644531 L 63.582031 155.726562 L 63.59375 154.757812 L 63.582031 153.789062 L 63.539062 152.871094 L 63.472656 152.003906 L 63.378906 151.1875 L 63.253906 150.421875 L 63.105469 149.703125 L 62.929688 149.039062 L 62.722656 148.425781 L 62.492188 147.859375 L 62.234375 147.34375 L 61.960938 146.871094 L 61.667969 146.449219 L 61.351562 146.078125 L 61.023438 145.753906 L 60.671875 145.484375 L 60.300781 145.257812 L 59.910156 145.085938 L 59.503906 144.960938 L 59.078125 144.886719 L 58.628906 144.863281 L 58.191406 144.886719 L 57.769531 144.960938 L 57.363281 145.085938 L 56.976562 145.257812 L 56.609375 145.484375 L 56.257812 145.753906 L 55.921875 146.078125 L 55.605469 146.449219 L 55.308594 146.871094 L 55.027344 147.34375 L 54.769531 147.859375 L 54.539062 148.425781 L 54.332031 149.039062 L 54.15625 149.703125 L 54.007812 150.421875 L 53.882812 151.1875 L 53.789062 152.003906 L 53.722656 152.871094 L 53.679688 153.789062 L 53.667969 154.757812 L 53.679688 155.726562 L 53.722656 156.644531 L 53.789062 157.515625 L 53.882812 158.339844 L 54.007812 159.117188 L 54.15625 159.84375 L 54.332031 160.523438 L 54.539062 161.152344 L 54.769531 161.734375 L 55.027344 162.269531 L 55.308594 162.753906 L 55.605469 163.1875 L 55.921875 163.570312 L 56.257812 163.902344 L 56.609375 164.183594 L 56.976562 164.410156 L 57.363281 164.589844 L 57.769531 164.71875 L 58.191406 164.792969 Z M 58.628906 164.820312 "/>
<path fill-rule="nonzero" fill="rgb(10.196078%, 10.196078%, 10.196078%)" fill-opacity="1" d="M 25.820312 58.195312 L 25.476562 58.191406 L 25.144531 58.179688 L 24.820312 58.15625 L 24.503906 58.125 L 24.195312 58.085938 L 23.898438 58.035156 L 23.609375 57.980469 L 23.328125 57.914062 L 23.058594 57.835938 L 22.792969 57.753906 L 22.539062 57.65625 L 22.292969 57.554688 L 22.050781 57.445312 L 21.816406 57.335938 L 21.585938 57.21875 L 21.367188 57.097656 L 21.152344 56.96875 L 20.945312 56.839844 L 20.746094 56.703125 L 20.550781 56.5625 L 20.371094 56.421875 L 20.191406 56.277344 L 20.019531 56.136719 L 19.847656 55.992188 L 19.683594 55.847656 L 19.523438 55.707031 L 19.367188 55.5625 L 19.210938 55.421875 L 19.0625 55.277344 L 18.917969 55.136719 L 19.804688 54.082031 L 20.003906 54.289062 L 20.214844 54.496094 L 20.429688 54.699219 L 20.65625 54.898438 L 20.890625 55.09375 L 21.132812 55.285156 L 21.382812 55.472656 L 21.640625 55.660156 L 21.90625 55.839844 L 22.183594 56.019531 L 22.46875 56.179688 L 22.773438 56.324219 L 23.09375 56.453125 L 23.433594 56.5625 L 23.789062 56.65625 L 24.160156 56.734375 L 24.550781 56.792969 L 24.957031 56.835938 L 25.378906 56.859375 L 25.820312 56.871094 L 26.253906 56.855469 L 26.671875 56.816406 L 27.078125 56.753906 L 27.464844 56.664062 L 27.835938 56.546875 L 28.191406 56.40625 L 28.53125 56.238281 L 28.855469 56.042969 L 29.164062 55.824219 L 29.457031 55.578125 L 29.730469 55.304688 L 29.972656 55.011719 L 30.1875 54.707031 L 30.371094 54.378906 L 30.53125 54.039062 L 30.660156 53.679688 L 30.757812 53.304688 L 30.828125 52.910156 L 30.871094 52.503906 L 30.886719 52.074219 L 30.867188 51.636719 L 30.816406 51.210938 L 30.726562 50.804688 L 30.605469 50.417969 L 30.445312 50.042969 L 30.25 49.6875 L 30.019531 49.351562 L 29.753906 49.027344 L 29.453125 48.726562 L 29.117188 48.4375 L 28.75 48.171875 L 28.332031 47.9375 L 27.867188 47.726562 L 27.355469 47.546875 L 26.796875 47.390625 L 26.195312 47.265625 L 25.542969 47.167969 L 24.84375 47.097656 L 24.097656 47.058594 L 23.304688 47.042969 L 23.304688 45.71875 L 23.796875 45.710938 L 24.269531 45.691406 L 24.722656 45.664062 L 25.15625 45.621094 L 25.566406 45.566406 L 25.957031 45.496094 L 26.328125 45.417969 L 26.675781 45.324219 L 27.007812 45.222656 L 27.316406 45.105469 L 27.609375 44.972656 L 27.882812 44.828125 L 28.136719 44.679688 L 28.378906 44.519531 L 28.601562 44.347656 L 28.804688 44.171875 L 28.996094 43.984375 L 29.167969 43.789062 L 29.320312 43.585938 L 29.457031 43.371094 L 29.582031 43.152344 L 29.691406 42.929688 L 29.789062 42.699219 L 29.871094 42.46875 L 29.941406 42.234375 L 30 41.992188 L 30.046875 41.75 L 30.078125 41.5 L 30.097656 41.246094 L 30.105469 40.992188 L 30.09375 40.632812 L 30.058594 40.285156 L 29.996094 39.957031 L 29.914062 39.640625 L 29.808594 39.34375 L 29.675781 39.058594 L 29.523438 38.789062 L 29.34375 38.53125 L 29.140625 38.292969 L 28.914062 38.066406 L 28.667969 37.855469 L 28.40625 37.664062 L 28.128906 37.496094 L 27.832031 37.347656 L 27.519531 37.226562 L 27.191406 37.125 L 26.847656 37.046875 L 26.488281 36.992188 L 26.113281 36.957031 L 25.71875 36.945312 L 25.421875 36.953125 L 25.128906 36.972656 L 24.839844 37.011719 L 24.554688 37.058594 L 24.273438 37.125 L 23.996094 37.203125 L 23.722656 37.296875 L 23.457031 37.402344 L 23.191406 37.523438 L 22.929688 37.660156 L 22.683594 37.796875 L 22.441406 37.945312 L 22.203125 38.09375 L 21.972656 38.253906 L 21.75 38.417969 L 21.53125 38.585938 L 21.320312 38.761719 L 21.113281 38.945312 L 20.914062 39.132812 L 20.722656 39.324219 L 19.835938 38.304688 L 20.0625 38.089844 L 20.296875 37.882812 L 20.539062 37.679688 L 20.785156 37.484375 L 21.035156 37.292969 L 21.292969 37.109375 L 21.558594 36.933594 L 21.828125 36.761719 L 22.105469 36.59375 L 22.386719 36.4375 L 22.683594 36.285156 L 22.988281 36.152344 L 23.300781 36.035156 L 23.621094 35.933594 L 23.949219 35.847656 L 24.289062 35.777344 L 24.632812 35.722656 L 24.988281 35.683594 L 25.347656 35.660156 L 25.71875 35.652344 L 26.054688 35.660156 L 26.382812 35.679688 L 26.707031 35.707031 L 27.019531 35.75 L 27.324219 35.804688 L 27.625 35.875 L 27.914062 35.953125 L 28.199219 36.046875 L 28.476562 36.148438 L 28.746094 36.265625 L 29.011719 36.394531 L 29.265625 36.535156 L 29.507812 36.683594 L 29.742188 36.847656 L 29.960938 37.023438 L 30.167969 37.207031 L 30.367188 37.40625 L 30.550781 37.613281 L 30.722656 37.835938 L 30.886719 38.066406 L 31.035156 38.304688 L 31.167969 38.550781 L 31.285156 38.808594 L 31.386719 39.074219 L 31.472656 39.351562 L 31.542969 39.636719 L 31.597656 39.9375 L 31.636719 40.242188 L 31.660156 40.5625 L 31.667969 40.890625 L 31.65625 41.308594 L 31.621094 41.714844 L 31.5625 42.101562 L 31.476562 42.472656 L 31.371094 42.828125 L 31.242188 43.167969 L 31.085938 43.488281 L 30.90625 43.792969 L 30.703125 44.085938 L 30.480469 44.359375 L 30.242188 44.609375 L 29.992188 44.847656 L 29.726562 45.070312 L 29.449219 45.28125 L 29.160156 45.480469 L 28.859375 45.664062 L 28.542969 45.832031 L 28.214844 45.988281 L 27.875 46.132812 L 27.519531 46.261719 L 27.519531 46.398438 L 27.789062 46.457031 L 28.054688 46.527344 L 28.3125 46.605469 L 28.566406 46.695312 L 28.8125 46.796875 L 29.054688 46.90625 L 29.292969 47.027344 L 29.523438 47.160156 L 29.75 47.300781 L 30.1875 47.605469 L 30.398438 47.765625 L 30.601562 47.9375 L 30.796875 48.117188 L 30.980469 48.300781 L 31.15625 48.496094 L 31.324219 48.699219 L 31.480469 48.910156 L 31.628906 49.128906 L 31.769531 49.355469 L 31.898438 49.589844 L 32.015625 49.832031 L 32.117188 50.082031 L 32.207031 50.339844 L 32.28125 50.605469 L 32.34375 50.878906 L 32.390625 51.15625 L 32.421875 51.445312 L 32.445312 51.738281 L 32.449219 52.042969 L 32.441406 52.410156 L 32.414062 52.769531 L 32.371094 53.121094 L 32.308594 53.460938 L 32.230469 53.792969 L 32.132812 54.113281 L 32.019531 54.425781 L 31.886719 54.730469 L 31.734375 55.023438 L 31.566406 55.304688 L 31.382812 55.578125 L 31.1875 55.835938 L 30.980469 56.082031 L 30.761719 56.316406 L 30.53125 56.539062 L 30.285156 56.746094 L 30.027344 56.941406 L 29.761719 57.121094 L 29.480469 57.292969 L 29.1875 57.449219 L 28.882812 57.589844 L 28.574219 57.71875 L 28.253906 57.828125 L 27.929688 57.925781 L 27.597656 58.007812 L 27.257812 58.074219 L 26.910156 58.128906 L 26.554688 58.164062 L 26.191406 58.1875 Z M 25.820312 58.195312 "/>
<path fill-rule="nonzero" fill="rgb(10.196078%, 10.196078%, 10.196078%)" fill-opacity="1" d="M 42.34375 58.195312 L 41.738281 58.164062 L 41.164062 58.078125 L 40.613281 57.929688 L 40.09375 57.722656 L 39.597656 57.457031 L 39.132812 57.128906 L 38.695312 56.746094 L 38.285156 56.300781 L 37.90625 55.800781 L 37.550781 55.238281 L 37.226562 54.621094 L 36.9375 53.957031 L 36.683594 53.238281 L 36.460938 52.472656 L 36.277344 51.660156 L 36.121094 50.792969 L 36.003906 49.878906 L 35.917969 48.917969 L 35.867188 47.902344 L 35.851562 46.839844 L 35.867188 45.785156 L 35.917969 44.777344 L 36.003906 43.824219 L 36.121094 42.917969 L 36.277344 42.0625 L 36.460938 41.257812 L 36.683594 40.503906 L 36.9375 39.800781 L 37.226562 39.148438 L 37.550781 38.542969 L 37.90625 37.996094 L 38.285156 37.503906 L 38.695312 37.070312 L 39.132812 36.695312 L 39.597656 36.375 L 40.09375 36.117188 L 40.613281 35.914062 L 41.164062 35.769531 L 41.738281 35.683594 L 42.34375 35.652344 L 42.957031 35.683594 L 43.539062 35.769531 L 44.089844 35.914062 L 44.613281 36.117188 L 45.105469 36.375 L 45.570312 36.695312 L 46.007812 37.070312 L 46.414062 37.503906 L 46.789062 37.996094 L 47.140625 38.542969 L 47.460938 39.148438 L 47.75 39.800781 L 48.003906 40.503906 L 48.226562 41.257812 L 48.414062 42.0625 L 48.566406 42.917969 L 48.6875 43.824219 L 48.769531 44.777344 L 48.820312 45.785156 L 48.839844 46.839844 L 48.820312 47.902344 L 48.769531 48.917969 L 48.6875 49.878906 L 48.566406 50.792969 L 48.414062 51.660156 L 48.226562 52.472656 L 48.003906 53.238281 L 47.75 53.957031 L 47.460938 54.621094 L 47.140625 55.238281 L 46.789062 55.800781 L 46.414062 56.300781 L 46.007812 56.746094 L 45.570312 57.128906 L 45.105469 57.457031 L 44.613281 57.722656 L 44.089844 57.929688 L 43.539062 58.078125 L 42.957031 58.164062 Z M 42.34375 56.902344 L 42.789062 56.878906 L 43.21875 56.800781 L 43.625 56.675781 L 44.015625 56.496094 L 44.382812 56.265625 L 44.734375 55.984375 L 45.066406 55.652344 L 45.378906 55.273438 L 45.675781 54.839844 L 45.949219 54.355469 L 46.207031 53.820312 L 46.4375 53.238281 L 46.640625 52.605469 L 46.820312 51.925781 L 46.96875 51.199219 L 47.089844 50.425781 L 47.1875 49.601562 L 47.253906 48.730469 L 47.296875 47.808594 L 47.308594 46.839844 L 47.296875 45.871094 L 47.253906 44.953125 L 47.1875 44.085938 L 47.089844 43.269531 L 46.96875 42.503906 L 46.820312 41.789062 L 46.640625 41.121094 L 46.4375 40.507812 L 46.207031 39.941406 L 45.949219 39.425781 L 45.675781 38.957031 L 45.378906 38.535156 L 45.066406 38.160156 L 44.734375 37.839844 L 44.382812 37.566406 L 44.015625 37.34375 L 43.625 37.167969 L 43.21875 37.042969 L 42.789062 36.96875 L 42.34375 36.945312 L 41.90625 36.96875 L 41.484375 37.042969 L 41.078125 37.167969 L 40.691406 37.34375 L 40.320312 37.566406 L 39.96875 37.839844 L 39.636719 38.160156 L 39.320312 38.535156 L 39.023438 38.957031 L 38.742188 39.425781 L 38.480469 39.941406 L 38.25 40.507812 L 38.046875 41.121094 L 37.871094 41.789062 L 37.722656 42.503906 L 37.597656 43.269531 L 37.503906 44.085938 L 37.433594 44.953125 L 37.394531 45.871094 L 37.378906 46.839844 L 37.394531 47.808594 L 37.433594 48.730469 L 37.503906 49.601562 L 37.597656 50.425781 L 37.722656 51.199219 L 37.871094 51.925781 L 38.046875 52.605469 L 38.25 53.238281 L 38.480469 53.820312 L 38.742188 54.355469 L 39.023438 54.839844 L 39.320312 55.273438 L 39.636719 55.652344 L 39.96875 55.984375 L 40.320312 56.265625 L 40.691406 56.496094 L 41.078125 56.675781 L 41.484375 56.800781 L 41.90625 56.878906 Z M 42.34375 56.902344 "/>
<path fill-rule="nonzero" fill="rgb(10.196078%, 10.196078%, 10.196078%)" fill-opacity="1" d="M 58.628906 58.195312 L 58.027344 58.164062 L 57.449219 58.078125 L 56.898438 57.929688 L 56.378906 57.722656 L 55.886719 57.457031 L 55.417969 57.128906 L 54.980469 56.746094 L 54.574219 56.300781 L 54.191406 55.800781 L 53.835938 55.238281 L 53.515625 54.621094 L 53.226562 53.957031 L 52.96875 53.238281 L 52.75 52.472656 L 52.5625 51.660156 L 52.410156 50.792969 L 52.289062 49.878906 L 52.203125 48.917969 L 52.152344 47.902344 L 52.136719 46.839844 L 52.152344 45.785156 L 52.203125 44.777344 L 52.289062 43.824219 L 52.410156 42.917969 L 52.5625 42.0625 L 52.75 41.257812 L 52.96875 40.503906 L 53.226562 39.800781 L 53.515625 39.148438 L 53.835938 38.542969 L 54.191406 37.996094 L 54.574219 37.503906 L 54.980469 37.070312 L 55.417969 36.695312 L 55.886719 36.375 L 56.378906 36.117188 L 56.898438 35.914062 L 57.449219 35.769531 L 58.027344 35.683594 L 58.628906 35.652344 L 59.242188 35.683594 L 59.824219 35.769531 L 60.375 35.914062 L 60.898438 36.117188 L 61.394531 36.375 L 61.859375 36.695312 L 62.292969 37.070312 L 62.699219 37.503906 L 63.078125 37.996094 L 63.425781 38.542969 L 63.746094 39.148438 L 64.035156 39.800781 L 64.292969 40.503906 L 64.511719 41.257812 L 64.699219 42.0625 L 64.851562 42.917969 L 64.972656 43.824219 L 65.058594 44.777344 L 65.109375 45.785156 L 65.125 46.839844 L 65.109375 47.902344 L 65.058594 48.917969 L 64.972656 49.878906 L 64.851562 50.792969 L 64.699219 51.660156 L 64.511719 52.472656 L 64.292969 53.238281 L 64.035156 53.957031 L 63.746094 54.621094 L 63.425781 55.238281 L 63.078125 55.800781 L 62.699219 56.300781 L 62.292969 56.746094 L 61.859375 57.128906 L 61.394531 57.457031 L 60.898438 57.722656 L 60.375 57.929688 L 59.824219 58.078125 L 59.242188 58.164062 Z M 58.628906 56.902344 L 59.078125 56.878906 L 59.503906 56.800781 L 59.910156 56.675781 L 60.300781 56.496094 L 60.671875 56.265625 L 61.023438 55.984375 L 61.351562 55.652344 L 61.667969 55.273438 L 61.960938 54.839844 L 62.234375 54.355469 L 62.492188 53.820312 L 62.722656 53.238281 L 62.929688 52.605469 L 63.105469 51.925781 L 63.253906 51.199219 L 63.378906 50.425781 L 63.472656 49.601562 L 63.539062 48.730469 L 63.582031 47.808594 L 63.59375 46.839844 L 63.582031 45.871094 L 63.539062 44.953125 L 63.472656 44.085938 L 63.378906 43.269531 L 63.253906 42.503906 L 63.105469 41.789062 L 62.929688 41.121094 L 62.722656 40.507812 L 62.492188 39.941406 L 62.234375 39.425781 L 61.960938 38.957031 L 61.667969 38.535156 L 61.351562 38.160156 L 61.023438 37.839844 L 60.671875 37.566406 L 60.300781 37.34375 L 59.910156 37.167969 L 59.503906 37.042969 L 59.078125 36.96875 L 58.628906 36.945312 L 58.191406 36.96875 L 57.769531 37.042969 L 57.363281 37.167969 L 56.976562 37.34375 L 56.609375 37.566406 L 56.257812 37.839844 L 55.921875 38.160156 L 55.605469 38.535156 L 55.308594 38.957031 L 55.027344 39.425781 L 54.769531 39.941406 L 54.539062 40.507812 L 54.332031 41.121094 L 54.15625 41.789062 L 54.007812 42.503906 L 53.882812 43.269531 L 53.789062 44.085938 L 53.722656 44.953125 L 53.679688 45.871094 L 53.667969 46.839844 L 53.679688 47.808594 L 53.722656 48.730469 L 53.789062 49.601562 L 53.882812 50.425781 L 54.007812 51.199219 L 54.15625 51.925781 L 54.332031 52.605469 L 54.539062 53.238281 L 54.769531 53.820312 L 55.027344 54.355469 L 55.308594 54.839844 L 55.605469 55.273438 L 55.921875 55.652344 L 56.257812 55.984375 L 56.609375 56.265625 L 56.976562 56.496094 L 57.363281 56.675781 L 57.769531 56.800781 L 58.191406 56.878906 Z M 58.628906 56.902344 "/>
<path fill-rule="nonzero" fill="rgb(10.196078%, 10.196078%, 10.196078%)" fill-opacity="1" d="M 193.699219 425.660156 L 193.699219 424.707031 L 194.402344 423.992188 L 195.078125 423.292969 L 195.734375 422.613281 L 196.363281 421.957031 L 196.972656 421.316406 L 197.554688 420.699219 L 198.113281 420.097656 L 198.648438 419.519531 L 199.160156 418.957031 L 199.648438 418.417969 L 200.113281 417.886719 L 200.554688 417.367188 L 200.96875 416.859375 L 201.363281 416.363281 L 201.730469 415.878906 L 202.078125 415.402344 L 202.398438 414.941406 L 202.695312 414.492188 L 202.96875 414.050781 L 203.21875 413.625 L 203.445312 413.207031 L 203.648438 412.789062 L 203.828125 412.382812 L 203.980469 411.976562 L 204.113281 411.574219 L 204.21875 411.179688 L 204.300781 410.789062 L 204.363281 410.402344 L 204.398438 410.023438 L 204.410156 409.648438 L 204.398438 409.246094 L 204.363281 408.855469 L 204.304688 408.480469 L 204.222656 408.117188 L 204.121094 407.769531 L 203.992188 407.429688 L 203.84375 407.105469 L 203.667969 406.796875 L 203.472656 406.496094 L 203.253906 406.210938 L 203.015625 405.949219 L 202.75 405.710938 L 202.460938 405.5 L 202.144531 405.320312 L 201.800781 405.167969 L 201.429688 405.042969 L 201.03125 404.945312 L 200.609375 404.875 L 200.160156 404.832031 L 199.683594 404.820312 L 199.390625 404.828125 L 199.105469 404.851562 L 198.820312 404.890625 L 198.535156 404.949219 L 198.253906 405.023438 L 197.976562 405.113281 L 197.703125 405.21875 L 197.429688 405.339844 L 197.160156 405.480469 L 196.894531 405.632812 L 196.640625 405.800781 L 196.390625 405.976562 L 196.148438 406.160156 L 195.910156 406.351562 L 195.679688 406.550781 L 195.457031 406.761719 L 195.238281 406.976562 L 195.023438 407.203125 L 194.816406 407.433594 L 194.617188 407.675781 L 193.632812 406.722656 L 193.878906 406.453125 L 194.132812 406.195312 L 194.390625 405.945312 L 194.652344 405.707031 L 194.921875 405.472656 L 195.199219 405.25 L 195.476562 405.035156 L 195.765625 404.828125 L 196.054688 404.632812 L 196.351562 404.445312 L 196.65625 404.269531 L 196.96875 404.113281 L 197.292969 403.976562 L 197.625 403.855469 L 197.964844 403.757812 L 198.316406 403.671875 L 198.679688 403.609375 L 199.050781 403.5625 L 199.429688 403.535156 L 199.820312 403.527344 L 200.390625 403.542969 L 200.9375 403.59375 L 201.453125 403.675781 L 201.945312 403.792969 L 202.410156 403.941406 L 202.851562 404.125 L 203.261719 404.34375 L 203.648438 404.59375 L 204.007812 404.875 L 204.339844 405.191406 L 204.644531 405.535156 L 204.917969 405.902344 L 205.15625 406.289062 L 205.363281 406.699219 L 205.539062 407.128906 L 205.683594 407.582031 L 205.796875 408.058594 L 205.875 408.554688 L 205.921875 409.074219 L 205.941406 409.613281 L 205.925781 410.042969 L 205.890625 410.472656 L 205.828125 410.902344 L 205.738281 411.335938 L 205.625 411.773438 L 205.488281 412.207031 L 205.324219 412.644531 L 205.132812 413.082031 L 204.921875 413.523438 L 204.679688 413.964844 L 204.425781 414.410156 L 204.152344 414.863281 L 203.855469 415.320312 L 203.539062 415.785156 L 203.203125 416.257812 L 202.84375 416.738281 L 202.46875 417.226562 L 202.070312 417.71875 L 201.652344 418.21875 L 201.214844 418.722656 L 200.761719 419.242188 L 200.296875 419.769531 L 199.8125 420.3125 L 199.316406 420.867188 L 198.800781 421.4375 L 198.269531 422.015625 L 197.71875 422.609375 L 197.15625 423.21875 L 196.574219 423.835938 L 195.976562 424.46875 L 196.15625 424.457031 L 196.332031 424.445312 L 196.871094 424.410156 L 197.050781 424.402344 L 197.230469 424.390625 L 197.78125 424.367188 L 198.34375 424.332031 L 198.53125 424.324219 L 198.714844 424.316406 L 198.898438 424.3125 L 199.4375 424.300781 L 207.027344 424.300781 L 207.027344 425.660156 Z M 193.699219 425.660156 "/>
<path fill-rule="nonzero" fill="rgb(10.196078%, 10.196078%, 10.196078%)" fill-opacity="1" d="M 216.71875 426.070312 L 216.113281 426.039062 L 215.535156 425.949219 L 214.988281 425.800781 L 214.464844 425.59375 L 213.972656 425.328125 L 213.507812 425.003906 L 213.070312 424.621094 L 212.660156 424.175781 L 212.277344 423.671875 L 211.921875 423.109375 L 211.601562 422.496094 L 211.3125 421.828125 L 211.054688 421.113281 L 210.835938 420.347656 L 210.648438 419.53125 L 210.496094 418.667969 L 210.375 417.753906 L 210.292969 416.789062 L 210.242188 415.777344 L 210.222656 414.710938 L 210.242188 413.65625 L 210.292969 412.652344 L 210.375 411.695312 L 210.496094 410.789062 L 210.648438 409.9375 L 210.835938 409.132812 L 211.054688 408.378906 L 211.3125 407.671875 L 211.601562 407.019531 L 211.921875 406.417969 L 212.277344 405.867188 L 212.660156 405.375 L 213.070312 404.941406 L 213.507812 404.566406 L 213.972656 404.25 L 214.464844 403.988281 L 214.988281 403.785156 L 215.535156 403.640625 L 216.113281 403.554688 L 216.71875 403.527344 L 217.328125 403.554688 L 217.910156 403.640625 L 218.460938 403.785156 L 218.984375 403.988281 L 219.480469 404.25 L 219.945312 404.566406 L 220.378906 404.941406 L 220.785156 405.375 L 221.164062 405.867188 L 221.511719 406.417969 L 221.835938 407.019531 L 222.125 407.671875 L 222.378906 408.378906 L 222.597656 409.132812 L 222.785156 409.9375 L 222.941406 410.789062 L 223.058594 411.695312 L 223.144531 412.652344 L 223.195312 413.65625 L 223.210938 414.710938 L 223.195312 415.777344 L 223.144531 416.789062 L 223.058594 417.753906 L 222.941406 418.667969 L 222.785156 419.53125 L 222.597656 420.347656 L 222.378906 421.113281 L 222.125 421.828125 L 221.835938 422.496094 L 221.511719 423.109375 L 221.164062 423.671875 L 220.785156 424.175781 L 220.378906 424.621094 L 219.945312 425.003906 L 219.480469 425.328125 L 218.984375 425.59375 L 218.460938 425.800781 L 217.910156 425.949219 L 217.328125 426.039062 Z M 216.71875 424.777344 L 217.164062 424.75 L 217.589844 424.675781 L 218 424.546875 L 218.386719 424.367188 L 218.757812 424.140625 L 219.109375 423.859375 L 219.441406 423.527344 L 219.753906 423.144531 L 220.046875 422.710938 L 220.320312 422.226562 L 220.578125 421.691406 L 220.8125 421.109375 L 221.015625 420.480469 L 221.191406 419.800781 L 221.339844 419.074219 L 221.464844 418.296875 L 221.558594 417.472656 L 221.628906 416.601562 L 221.667969 415.679688 L 221.679688 414.710938 L 221.667969 413.746094 L 221.628906 412.828125 L 221.558594 411.960938 L 221.464844 411.144531 L 221.339844 410.378906 L 221.191406 409.660156 L 221.015625 408.996094 L 220.8125 408.378906 L 220.578125 407.816406 L 220.320312 407.300781 L 220.046875 406.828125 L 219.753906 406.40625 L 219.441406 406.035156 L 219.109375 405.710938 L 218.757812 405.4375 L 218.386719 405.214844 L 218 405.042969 L 217.589844 404.917969 L 217.164062 404.84375 L 216.71875 404.820312 L 216.277344 404.84375 L 215.855469 404.917969 L 215.449219 405.042969 L 215.0625 405.214844 L 214.695312 405.4375 L 214.34375 405.710938 L 214.007812 406.035156 L 213.691406 406.40625 L 213.394531 406.828125 L 213.113281 407.300781 L 212.855469 407.816406 L 212.625 408.378906 L 212.417969 408.996094 L 212.242188 409.660156 L 212.09375 410.378906 L 211.972656 411.144531 L 211.875 411.960938 L 211.808594 412.828125 L 211.765625 413.746094 L 211.753906 414.710938 L 211.765625 415.679688 L 211.808594 416.601562 L 211.875 417.472656 L 211.972656 418.296875 L 212.09375 419.074219 L 212.242188 419.800781 L 212.417969 420.480469 L 212.625 421.109375 L 212.855469 421.691406 L 213.113281 422.226562 L 213.394531 422.710938 L 213.691406 423.144531 L 214.007812 423.527344 L 214.34375 423.859375 L 214.695312 424.140625 L 215.0625 424.367188 L 215.449219 424.546875 L 215.855469 424.675781 L 216.277344 424.75 Z M 216.71875 424.777344 "/>
<path fill-rule="nonzero" fill="rgb(10.196078%, 10.196078%, 10.196078%)" fill-opacity="1" d="M 382.191406 425.660156 L 382.191406 424.707031 L 382.894531 423.992188 L 383.570312 423.292969 L 384.226562 422.613281 L 384.855469 421.957031 L 385.464844 421.316406 L 386.046875 420.699219 L 386.605469 420.097656 L 387.140625 419.519531 L 387.652344 418.957031 L 388.140625 418.417969 L 388.605469 417.886719 L 389.046875 417.367188 L 389.460938 416.859375 L 389.855469 416.363281 L 390.222656 415.878906 L 390.570312 415.402344 L 390.890625 414.941406 L 391.1875 414.492188 L 391.460938 414.050781 L 391.710938 413.625 L 391.9375 413.207031 L 392.140625 412.789062 L 392.316406 412.382812 L 392.472656 411.976562 L 392.605469 411.574219 L 392.710938 411.179688 L 392.792969 410.789062 L 392.855469 410.402344 L 392.890625 410.023438 L 392.902344 409.648438 L 392.890625 409.246094 L 392.855469 408.855469 L 392.796875 408.480469 L 392.714844 408.117188 L 392.613281 407.769531 L 392.484375 407.429688 L 392.335938 407.105469 L 392.160156 406.796875 L 391.964844 406.496094 L 391.746094 406.210938 L 391.507812 405.949219 L 391.242188 405.710938 L 390.953125 405.5 L 390.636719 405.320312 L 390.292969 405.167969 L 389.921875 405.042969 L 389.523438 404.945312 L 389.101562 404.875 L 388.652344 404.832031 L 388.175781 404.820312 L 387.882812 404.828125 L 387.597656 404.851562 L 387.308594 404.890625 L 387.027344 404.949219 L 386.746094 405.023438 L 386.46875 405.113281 L 386.195312 405.21875 L 385.921875 405.339844 L 385.652344 405.480469 L 385.386719 405.632812 L 385.132812 405.800781 L 384.882812 405.976562 L 384.640625 406.160156 L 384.402344 406.351562 L 384.171875 406.550781 L 383.945312 406.761719 L 383.730469 406.976562 L 383.515625 407.203125 L 383.308594 407.433594 L 383.109375 407.675781 L 382.125 406.722656 L 382.371094 406.453125 L 382.625 406.195312 L 382.882812 405.945312 L 383.144531 405.707031 L 383.414062 405.472656 L 383.691406 405.25 L 383.96875 405.035156 L 384.257812 404.828125 L 384.546875 404.632812 L 384.84375 404.445312 L 385.148438 404.269531 L 385.460938 404.113281 L 385.785156 403.976562 L 386.117188 403.855469 L 386.457031 403.757812 L 386.808594 403.671875 L 387.171875 403.609375 L 387.542969 403.5625 L 387.921875 403.535156 L 388.3125 403.527344 L 388.882812 403.542969 L 389.429688 403.59375 L 389.945312 403.675781 L 390.4375 403.792969 L 390.902344 403.941406 L 391.34375 404.125 L 391.753906 404.34375 L 392.140625 404.59375 L 392.5 404.875 L 392.832031 405.191406 L 393.136719 405.535156 L 393.410156 405.902344 L 393.648438 406.289062 L 393.855469 406.699219 L 394.03125 407.128906 L 394.175781 407.582031 L 394.289062 408.058594 L 394.367188 408.554688 L 394.414062 409.074219 L 394.429688 409.613281 L 394.417969 410.042969 L 394.382812 410.472656 L 394.316406 410.902344 L 394.230469 411.335938 L 394.117188 411.773438 L 393.980469 412.207031 L 393.816406 412.644531 L 393.625 413.082031 L 393.414062 413.523438 L 393.171875 413.964844 L 392.917969 414.410156 L 392.644531 414.863281 L 392.347656 415.320312 L 392.03125 415.785156 L 391.695312 416.257812 L 391.335938 416.738281 L 390.960938 417.226562 L 390.5625 417.71875 L 390.144531 418.21875 L 389.707031 418.722656 L 389.253906 419.242188 L 388.789062 419.769531 L 388.304688 420.3125 L 387.808594 420.867188 L 387.292969 421.4375 L 386.757812 422.015625 L 386.210938 422.609375 L 385.648438 423.21875 L 385.066406 423.835938 L 384.46875 424.46875 L 384.648438 424.457031 L 384.824219 424.445312 L 385.363281 424.410156 L 385.542969 424.402344 L 385.722656 424.390625 L 386.089844 424.375 L 386.269531 424.367188 L 386.460938 424.355469 L 386.835938 424.332031 L 387.023438 424.324219 L 387.207031 424.316406 L 387.390625 424.3125 L 387.929688 424.300781 L 395.519531 424.300781 L 395.519531 425.660156 Z M 382.191406 425.660156 "/>
<path fill-rule="nonzero" fill="rgb(10.196078%, 10.196078%, 10.196078%)" fill-opacity="1" d="M 399.464844 417.875 L 407.625 417.875 L 407.625 409.4375 L 407.628906 409.261719 L 407.632812 409.078125 L 407.636719 408.886719 L 407.640625 408.6875 L 407.644531 408.484375 L 407.652344 408.269531 L 407.65625 408.046875 L 407.671875 407.828125 L 407.683594 407.613281 L 407.695312 407.410156 L 407.707031 407.210938 L 407.71875 407.019531 L 407.726562 406.835938 L 407.734375 406.660156 L 407.746094 406.492188 L 407.753906 406.332031 L 407.757812 406.179688 L 407.625 406.179688 L 407.542969 406.3125 L 407.457031 406.449219 L 407.375 406.582031 L 407.292969 406.71875 L 407.207031 406.851562 L 407.121094 406.980469 L 406.949219 407.246094 L 406.863281 407.375 L 406.773438 407.503906 L 406.683594 407.636719 L 406.59375 407.765625 L 406.324219 408.175781 L 406.230469 408.316406 L 406.136719 408.460938 L 406.042969 408.601562 L 405.855469 408.898438 Z M 407.625 425.660156 L 407.625 419.167969 L 397.628906 419.167969 L 397.628906 418.28125 L 407.726562 403.933594 L 409.085938 403.933594 L 409.085938 417.875 L 412.316406 417.875 L 412.316406 419.167969 L 409.085938 419.167969 L 409.085938 425.660156 Z M 407.625 425.660156 "/>
<path fill-rule="nonzero" fill="rgb(10.196078%, 10.196078%, 10.196078%)" fill-opacity="1" d="M 570.683594 425.660156 L 570.683594 424.707031 L 571.386719 423.992188 L 572.0625 423.292969 L 572.71875 422.613281 L 573.347656 421.957031 L 573.957031 421.316406 L 574.539062 420.699219 L 575.097656 420.097656 L 575.632812 419.519531 L 576.144531 418.957031 L 576.632812 418.417969 L 577.097656 417.886719 L 577.539062 417.367188 L 577.953125 416.859375 L 578.347656 416.363281 L 578.714844 415.878906 L 579.0625 415.402344 L 579.382812 414.941406 L 579.679688 414.492188 L 579.953125 414.050781 L 580.203125 413.625 L 580.429688 413.207031 L 580.632812 412.789062 L 580.808594 412.382812 L 580.964844 411.976562 L 581.097656 411.574219 L 581.203125 411.179688 L 581.285156 410.789062 L 581.347656 410.402344 L 581.382812 410.023438 L 581.394531 409.648438 L 581.382812 409.246094 L 581.347656 408.855469 L 581.289062 408.480469 L 581.207031 408.117188 L 581.105469 407.769531 L 580.976562 407.429688 L 580.828125 407.105469 L 580.652344 406.796875 L 580.457031 406.496094 L 580.238281 406.210938 L 580 405.949219 L 579.734375 405.710938 L 579.445312 405.5 L 579.128906 405.320312 L 578.785156 405.167969 L 578.414062 405.042969 L 578.015625 404.945312 L 577.59375 404.875 L 577.144531 404.832031 L 576.667969 404.820312 L 576.375 404.828125 L 576.089844 404.851562 L 575.800781 404.890625 L 575.519531 404.949219 L 575.238281 405.023438 L 574.960938 405.113281 L 574.6875 405.21875 L 574.414062 405.339844 L 574.144531 405.480469 L 573.878906 405.632812 L 573.625 405.800781 L 573.375 405.976562 L 573.132812 406.160156 L 572.894531 406.351562 L 572.664062 406.550781 L 572.4375 406.761719 L 572.21875 406.976562 L 572.007812 407.203125 L 571.800781 407.433594 L 571.601562 407.675781 L 570.617188 406.722656 L 570.863281 406.453125 L 571.117188 406.195312 L 571.375 405.945312 L 571.636719 405.707031 L 571.90625 405.472656 L 572.183594 405.25 L 572.460938 405.035156 L 572.746094 404.828125 L 573.039062 404.632812 L 573.335938 404.445312 L 573.640625 404.269531 L 573.953125 404.113281 L 574.277344 403.976562 L 574.609375 403.855469 L 574.949219 403.757812 L 575.300781 403.671875 L 575.664062 403.609375 L 576.035156 403.5625 L 576.414062 403.535156 L 576.804688 403.527344 L 577.375 403.542969 L 577.917969 403.59375 L 578.4375 403.675781 L 578.929688 403.792969 L 579.394531 403.941406 L 579.835938 404.125 L 580.246094 404.34375 L 580.632812 404.59375 L 580.992188 404.875 L 581.324219 405.191406 L 581.628906 405.535156 L 581.902344 405.902344 L 582.140625 406.289062 L 582.347656 406.699219 L 582.523438 407.128906 L 582.667969 407.582031 L 582.78125 408.058594 L 582.859375 408.554688 L 582.90625 409.074219 L 582.921875 409.613281 L 582.910156 410.042969 L 582.871094 410.472656 L 582.808594 410.902344 L 582.722656 411.335938 L 582.609375 411.773438 L 582.46875 412.207031 L 582.308594 412.644531 L 582.117188 413.082031 L 581.90625 413.523438 L 581.664062 413.964844 L 581.410156 414.410156 L 581.136719 414.863281 L 580.839844 415.320312 L 580.523438 415.785156 L 580.1875 416.257812 L 579.828125 416.738281 L 579.453125 417.226562 L 579.054688 417.71875 L 578.636719 418.21875 L 578.199219 418.722656 L 577.746094 419.242188 L 577.28125 419.769531 L 576.796875 420.3125 L 576.296875 420.867188 L 575.785156 421.4375 L 575.25 422.015625 L 574.703125 422.609375 L 574.140625 423.21875 L 573.558594 423.835938 L 572.960938 424.46875 L 573.136719 424.457031 L 573.855469 424.410156 L 574.035156 424.402344 L 574.214844 424.390625 L 574.398438 424.382812 L 574.578125 424.375 L 574.761719 424.367188 L 574.953125 424.355469 L 575.328125 424.332031 L 575.515625 424.324219 L 575.699219 424.316406 L 575.882812 424.3125 L 576.421875 424.300781 L 584.011719 424.300781 L 584.011719 425.660156 Z M 570.683594 425.660156 "/>
<path fill-rule="nonzero" fill="rgb(10.196078%, 10.196078%, 10.196078%)" fill-opacity="1" d="M 593.835938 426.070312 L 593.445312 426.0625 L 593.066406 426.039062 L 592.691406 426 L 592.324219 425.945312 L 591.96875 425.875 L 591.617188 425.785156 L 591.277344 425.683594 L 590.941406 425.566406 L 590.617188 425.433594 L 590.300781 425.285156 L 589.996094 425.125 L 589.703125 424.949219 L 589.421875 424.765625 L 589.152344 424.570312 L 588.898438 424.359375 L 588.65625 424.140625 L 588.429688 423.910156 L 588.210938 423.664062 L 588.007812 423.410156 L 587.820312 423.144531 L 587.652344 422.871094 L 587.5 422.585938 L 587.367188 422.296875 L 587.253906 422.003906 L 587.15625 421.699219 L 587.078125 421.390625 L 587.015625 421.074219 L 586.96875 420.75 L 586.945312 420.421875 L 586.933594 420.085938 L 586.941406 419.796875 L 586.960938 419.511719 L 586.992188 419.230469 L 587.039062 418.957031 L 587.097656 418.691406 L 587.167969 418.429688 L 587.25 418.171875 L 587.347656 417.917969 L 587.457031 417.671875 L 587.582031 417.433594 L 587.71875 417.199219 L 587.867188 416.96875 L 588.015625 416.75 L 588.175781 416.535156 L 588.335938 416.328125 L 588.507812 416.128906 L 588.683594 415.933594 L 588.863281 415.746094 L 589.054688 415.566406 L 589.246094 415.394531 L 589.453125 415.21875 L 589.65625 415.050781 L 590.0625 414.738281 L 590.265625 414.59375 L 590.472656 414.453125 L 590.675781 414.320312 L 590.878906 414.195312 L 591.082031 414.078125 L 591.289062 413.964844 L 591.289062 413.828125 L 591.050781 413.667969 L 590.820312 413.5 L 590.589844 413.320312 L 590.367188 413.132812 L 590.148438 412.9375 L 589.933594 412.730469 L 589.722656 412.515625 L 589.515625 412.292969 L 589.3125 412.0625 L 589.113281 411.824219 L 588.929688 411.566406 L 588.769531 411.300781 L 588.625 411.023438 L 588.503906 410.738281 L 588.398438 410.445312 L 588.3125 410.140625 L 588.246094 409.828125 L 588.199219 409.503906 L 588.167969 409.171875 L 588.160156 408.832031 L 588.167969 408.523438 L 588.1875 408.21875 L 588.226562 407.925781 L 588.277344 407.640625 L 588.347656 407.359375 L 588.429688 407.089844 L 588.527344 406.824219 L 588.636719 406.566406 L 588.765625 406.316406 L 588.90625 406.078125 L 589.070312 405.84375 L 589.242188 405.621094 L 589.421875 405.410156 L 589.613281 405.207031 L 589.816406 405.015625 L 590.03125 404.832031 L 590.253906 404.660156 L 590.484375 404.5 L 590.726562 404.347656 L 590.980469 404.207031 L 591.242188 404.078125 L 591.507812 403.960938 L 591.78125 403.859375 L 592.058594 403.769531 L 592.339844 403.695312 L 592.628906 403.636719 L 592.921875 403.585938 L 593.222656 403.554688 L 593.527344 403.535156 L 593.835938 403.527344 L 594.382812 403.542969 L 594.902344 403.59375 L 595.398438 403.671875 L 595.867188 403.789062 L 596.3125 403.933594 L 596.730469 404.113281 L 597.125 404.328125 L 597.492188 404.570312 L 597.835938 404.847656 L 598.15625 405.160156 L 598.453125 405.488281 L 598.71875 405.832031 L 598.953125 406.195312 L 599.15625 406.574219 L 599.328125 406.96875 L 599.46875 407.382812 L 599.578125 407.8125 L 599.65625 408.257812 L 599.703125 408.722656 L 599.71875 409.203125 L 599.714844 409.441406 L 599.699219 409.675781 L 599.671875 409.910156 L 599.636719 410.140625 L 599.59375 410.367188 L 599.535156 410.597656 L 599.46875 410.820312 L 599.394531 411.042969 L 599.304688 411.265625 L 599.210938 411.484375 L 599.105469 411.691406 L 598.886719 412.097656 L 598.769531 412.292969 L 598.648438 412.484375 L 598.523438 412.675781 L 598.394531 412.859375 L 598.261719 413.039062 L 598.125 413.214844 L 597.984375 413.386719 L 597.84375 413.546875 L 597.703125 413.699219 L 597.5625 413.847656 L 597.425781 413.992188 L 597.289062 414.125 L 597.152344 414.253906 L 597.019531 414.378906 L 596.886719 414.496094 L 596.753906 414.609375 L 596.625 414.710938 L 596.625 414.847656 L 596.816406 414.964844 L 597.003906 415.085938 L 597.1875 415.210938 L 597.371094 415.339844 L 597.550781 415.46875 L 597.730469 415.601562 L 598.082031 415.882812 L 598.257812 416.027344 L 598.425781 416.175781 L 598.601562 416.320312 L 598.765625 416.472656 L 598.925781 416.628906 L 599.082031 416.792969 L 599.226562 416.964844 L 599.367188 417.140625 L 599.5 417.324219 L 599.625 417.511719 L 599.742188 417.707031 L 599.855469 417.910156 L 599.964844 418.117188 L 600.0625 418.335938 L 600.148438 418.558594 L 600.226562 418.796875 L 600.289062 419.039062 L 600.339844 419.292969 L 600.382812 419.554688 L 600.410156 419.824219 L 600.425781 420.101562 L 600.433594 420.390625 L 600.425781 420.699219 L 600.398438 421.003906 L 600.355469 421.304688 L 600.296875 421.597656 L 600.222656 421.886719 L 600.128906 422.167969 L 600.015625 422.445312 L 599.890625 422.71875 L 599.746094 422.984375 L 599.582031 423.246094 L 599.414062 423.5 L 599.230469 423.742188 L 599.03125 423.976562 L 598.820312 424.199219 L 598.597656 424.410156 L 598.359375 424.613281 L 598.109375 424.804688 L 597.84375 424.988281 L 597.5625 425.160156 L 597.269531 425.320312 L 596.972656 425.460938 L 596.667969 425.589844 L 596.347656 425.703125 L 596.019531 425.800781 L 595.683594 425.882812 L 595.332031 425.949219 L 594.976562 426 L 594.605469 426.039062 L 594.226562 426.0625 Z M 595.433594 414.269531 L 595.707031 414.042969 L 595.964844 413.816406 L 596.210938 413.585938 L 596.441406 413.351562 L 596.660156 413.113281 L 596.863281 412.875 L 597.054688 412.632812 L 597.230469 412.386719 L 597.394531 412.140625 L 597.542969 411.890625 L 597.683594 411.636719 L 597.8125 411.382812 L 597.925781 411.125 L 598.023438 410.863281 L 598.105469 410.597656 L 598.171875 410.332031 L 598.222656 410.0625 L 598.261719 409.789062 L 598.285156 409.515625 L 598.292969 409.238281 L 598.28125 408.882812 L 598.242188 408.535156 L 598.183594 408.199219 L 598.101562 407.875 L 597.992188 407.554688 L 597.863281 407.246094 L 597.707031 406.949219 L 597.53125 406.660156 L 597.328125 406.378906 L 597.101562 406.109375 L 596.859375 405.859375 L 596.601562 405.632812 L 596.320312 405.433594 L 596.023438 405.261719 L 595.707031 405.117188 L 595.371094 404.996094 L 595.015625 404.902344 L 594.640625 404.835938 L 594.25 404.796875 L 593.835938 404.785156 L 593.484375 404.796875 L 593.140625 404.832031 L 592.8125 404.886719 L 592.492188 404.96875 L 592.1875 405.074219 L 591.894531 405.199219 L 591.613281 405.351562 L 591.347656 405.523438 L 591.089844 405.722656 L 590.84375 405.941406 L 590.621094 406.171875 L 590.417969 406.414062 L 590.238281 406.671875 L 590.082031 406.941406 L 589.953125 407.222656 L 589.847656 407.519531 L 589.761719 407.828125 L 589.703125 408.148438 L 589.667969 408.484375 L 589.65625 408.832031 L 589.664062 409.132812 L 589.6875 409.421875 L 589.730469 409.703125 L 589.792969 409.972656 L 589.867188 410.234375 L 589.960938 410.484375 L 590.070312 410.722656 L 590.199219 410.953125 L 590.34375 411.171875 L 590.503906 411.378906 L 590.679688 411.574219 L 590.863281 411.761719 L 591.058594 411.945312 L 591.261719 412.121094 L 591.472656 412.289062 L 591.695312 412.453125 L 591.929688 412.609375 L 592.171875 412.761719 L 592.421875 412.90625 L 592.679688 413.046875 L 592.949219 413.175781 L 593.214844 413.300781 L 593.484375 413.429688 L 593.757812 413.550781 L 594.03125 413.675781 L 594.585938 413.917969 L 594.867188 414.035156 L 595.152344 414.15625 Z M 593.835938 424.8125 L 594.289062 424.796875 L 594.722656 424.757812 L 595.140625 424.695312 L 595.535156 424.605469 L 595.910156 424.488281 L 596.269531 424.34375 L 596.609375 424.175781 L 596.925781 423.984375 L 597.226562 423.765625 L 597.507812 423.519531 L 597.773438 423.253906 L 598.011719 422.980469 L 598.21875 422.691406 L 598.402344 422.390625 L 598.554688 422.082031 L 598.679688 421.761719 L 598.777344 421.425781 L 598.847656 421.082031 L 598.890625 420.726562 L 598.902344 420.355469 L 598.894531 420.03125 L 598.867188 419.714844 L 598.816406 419.414062 L 598.75 419.128906 L 598.664062 418.851562 L 598.5625 418.589844 L 598.4375 418.339844 L 598.292969 418.105469 L 598.132812 417.882812 L 597.953125 417.671875 L 597.753906 417.464844 L 597.546875 417.261719 L 597.328125 417.070312 L 597.097656 416.882812 L 596.855469 416.703125 L 596.601562 416.527344 L 596.335938 416.363281 L 596.058594 416.203125 L 595.769531 416.046875 L 595.46875 415.902344 L 595.167969 415.761719 L 594.863281 415.621094 L 594.554688 415.480469 L 593.921875 415.207031 L 593.601562 415.070312 L 592.945312 414.804688 L 592.609375 414.671875 L 592.273438 414.542969 L 591.945312 414.738281 L 591.628906 414.941406 L 591.324219 415.152344 L 591.03125 415.371094 L 590.75 415.597656 L 590.480469 415.832031 L 590.222656 416.074219 L 589.976562 416.328125 L 589.742188 416.585938 L 589.519531 416.855469 L 589.3125 417.132812 L 589.128906 417.417969 L 588.964844 417.710938 L 588.824219 418.011719 L 588.703125 418.324219 L 588.605469 418.644531 L 588.527344 418.976562 L 588.476562 419.3125 L 588.441406 419.660156 L 588.429688 420.015625 L 588.4375 420.285156 L 588.457031 420.550781 L 588.492188 420.808594 L 588.539062 421.0625 L 588.601562 421.308594 L 588.675781 421.550781 L 588.765625 421.789062 L 588.867188 422.019531 L 588.980469 422.246094 L 589.113281 422.464844 L 589.257812 422.671875 L 589.417969 422.871094 L 589.585938 423.058594 L 589.765625 423.242188 L 589.953125 423.417969 L 590.152344 423.582031 L 590.359375 423.742188 L 590.582031 423.890625 L 590.808594 424.03125 L 591.050781 424.164062 L 591.296875 424.289062 L 591.550781 424.398438 L 591.8125 424.492188 L 592.082031 424.578125 L 592.359375 424.648438 L 592.640625 424.707031 L 592.929688 424.753906 L 593.226562 424.785156 L 593.527344 424.804688 Z M 593.835938 424.8125 "/>
<path fill-rule="nonzero" fill="rgb(10.196078%, 10.196078%, 10.196078%)" fill-opacity="1" d="M 395.824219 467.488281 L 395.824219 447.058594 L 397.25 447.058594 L 397.25 467.488281 Z M 395.824219 467.488281 "/>
<path fill-rule="nonzero" fill="rgb(10.196078%, 10.196078%, 10.196078%)" fill-opacity="1" d="M 408.039062 467.859375 L 407.484375 467.839844 L 406.957031 467.777344 L 406.449219 467.675781 L 405.964844 467.535156 L 405.503906 467.355469 L 405.066406 467.132812 L 404.652344 466.871094 L 404.257812 466.570312 L 403.890625 466.226562 L 403.542969 465.84375 L 403.226562 465.421875 L 402.941406 464.96875 L 402.691406 464.476562 L 402.472656 463.953125 L 402.289062 463.394531 L 402.136719 462.800781 L 402.019531 462.171875 L 401.9375 461.507812 L 401.886719 460.8125 L 401.871094 460.078125 L 401.878906 459.601562 L 401.90625 459.136719 L 401.949219 458.6875 L 402.011719 458.253906 L 402.09375 457.832031 L 402.195312 457.421875 L 402.308594 457.027344 L 402.445312 456.644531 L 402.597656 456.277344 L 402.769531 455.921875 L 402.960938 455.578125 L 403.164062 455.25 L 403.378906 454.9375 L 403.601562 454.640625 L 403.839844 454.359375 L 404.085938 454.09375 L 404.34375 453.84375 L 404.613281 453.613281 L 404.894531 453.394531 L 405.1875 453.195312 L 405.492188 453.011719 L 405.804688 452.851562 L 406.121094 452.707031 L 406.441406 452.582031 L 406.769531 452.476562 L 407.097656 452.386719 L 407.433594 452.320312 L 407.777344 452.273438 L 408.121094 452.246094 L 408.472656 452.234375 L 408.742188 452.238281 L 409.003906 452.253906 L 409.257812 452.28125 L 409.503906 452.3125 L 409.742188 452.359375 L 409.976562 452.414062 L 410.199219 452.476562 L 410.417969 452.550781 L 410.625 452.636719 L 410.828125 452.730469 L 411.035156 452.828125 L 411.242188 452.933594 L 411.449219 453.046875 L 411.660156 453.167969 L 411.875 453.296875 L 412.089844 453.433594 L 412.304688 453.578125 L 412.523438 453.734375 L 412.746094 453.894531 L 412.96875 454.0625 L 412.90625 451.335938 L 412.90625 445.199219 L 414.269531 445.199219 L 414.269531 467.488281 L 413.089844 467.488281 L 412.96875 465.566406 L 412.875 465.566406 L 412.691406 465.742188 L 412.5 465.917969 L 412.304688 466.085938 L 412.101562 466.253906 L 411.890625 466.417969 L 411.671875 466.578125 L 411.449219 466.730469 L 411.21875 466.882812 L 410.980469 467.03125 L 410.734375 467.175781 L 410.492188 467.304688 L 410.242188 467.421875 L 409.984375 467.523438 L 409.722656 467.613281 L 409.457031 467.6875 L 409.183594 467.75 L 408.90625 467.796875 L 408.621094 467.832031 L 408.332031 467.851562 Z M 408.226562 466.648438 L 408.472656 466.644531 L 408.714844 466.625 L 408.957031 466.59375 L 409.195312 466.550781 L 409.433594 466.496094 L 409.667969 466.425781 L 409.898438 466.347656 L 410.128906 466.253906 L 410.355469 466.148438 L 410.582031 466.03125 L 410.808594 465.894531 L 411.039062 465.75 L 411.273438 465.589844 L 411.503906 465.425781 L 411.734375 465.246094 L 411.96875 465.058594 L 412.203125 464.859375 L 412.4375 464.652344 L 412.671875 464.429688 L 412.90625 464.199219 L 412.90625 455.367188 L 412.671875 455.160156 L 412.441406 454.96875 L 412.210938 454.789062 L 411.984375 454.621094 L 411.757812 454.464844 L 411.535156 454.324219 L 411.316406 454.195312 L 411.101562 454.074219 L 410.886719 453.972656 L 410.671875 453.878906 L 410.46875 453.796875 L 410.261719 453.722656 L 410.054688 453.65625 L 409.84375 453.601562 L 409.636719 453.550781 L 409.421875 453.511719 L 409.210938 453.484375 L 408.996094 453.460938 L 408.78125 453.449219 L 408.566406 453.445312 L 408.269531 453.453125 L 407.984375 453.480469 L 407.699219 453.523438 L 407.425781 453.585938 L 407.15625 453.667969 L 406.890625 453.765625 L 406.632812 453.882812 L 406.382812 454.019531 L 406.136719 454.171875 L 405.898438 454.34375 L 405.667969 454.523438 L 405.445312 454.714844 L 405.234375 454.917969 L 405.03125 455.136719 L 404.839844 455.367188 L 404.652344 455.609375 L 404.476562 455.863281 L 404.3125 456.128906 L 404.15625 456.40625 L 404.007812 456.699219 L 403.878906 457 L 403.761719 457.308594 L 403.660156 457.628906 L 403.570312 457.953125 L 403.496094 458.289062 L 403.4375 458.628906 L 403.386719 458.980469 L 403.355469 459.335938 L 403.332031 459.703125 L 403.328125 460.078125 L 403.339844 460.65625 L 403.378906 461.210938 L 403.441406 461.746094 L 403.53125 462.253906 L 403.644531 462.742188 L 403.785156 463.210938 L 403.949219 463.652344 L 404.140625 464.074219 L 404.355469 464.476562 L 404.597656 464.851562 L 404.863281 465.195312 L 405.148438 465.5 L 405.457031 465.769531 L 405.789062 466.003906 L 406.140625 466.199219 L 406.511719 466.363281 L 406.910156 466.488281 L 407.324219 466.578125 L 407.765625 466.632812 Z M 408.226562 466.648438 "/>
<path fill-rule="nonzero" fill="rgb(10.196078%, 10.196078%, 10.196078%)" fill-opacity="1" d="M 423.230469 467.859375 L 422.878906 467.847656 L 422.542969 467.820312 L 422.214844 467.769531 L 421.894531 467.699219 L 421.585938 467.609375 L 421.285156 467.5 L 420.996094 467.371094 L 420.71875 467.222656 L 420.449219 467.054688 L 420.191406 466.867188 L 419.949219 466.65625 L 419.734375 466.425781 L 419.542969 466.171875 L 419.378906 465.894531 L 419.238281 465.597656 L 419.125 465.273438 L 419.035156 464.929688 L 418.96875 464.566406 L 418.933594 464.175781 L 418.917969 463.765625 L 418.941406 463.28125 L 419.011719 462.824219 L 419.128906 462.386719 L 419.292969 461.976562 L 419.5 461.589844 L 419.757812 461.226562 L 420.058594 460.886719 L 420.40625 460.574219 L 420.804688 460.28125 L 421.246094 460.015625 L 421.734375 459.761719 L 422.28125 459.523438 L 422.875 459.300781 L 423.527344 459.09375 L 424.226562 458.898438 L 424.984375 458.722656 L 425.789062 458.558594 L 426.652344 458.410156 L 427.5625 458.273438 L 428.53125 458.15625 L 428.53125 457.699219 L 428.519531 457.476562 L 428.503906 457.253906 L 428.484375 457.03125 L 428.457031 456.8125 L 428.421875 456.59375 L 428.382812 456.378906 L 428.335938 456.167969 L 428.28125 455.953125 L 428.222656 455.742188 L 428.148438 455.535156 L 428.070312 455.335938 L 427.980469 455.144531 L 427.878906 454.960938 L 427.769531 454.785156 L 427.648438 454.617188 L 427.519531 454.457031 L 427.378906 454.304688 L 427.226562 454.15625 L 427.070312 454.019531 L 426.898438 453.898438 L 426.714844 453.792969 L 426.511719 453.699219 L 426.296875 453.621094 L 426.066406 453.558594 L 425.820312 453.507812 L 425.5625 453.472656 L 425.285156 453.449219 L 424.996094 453.445312 L 424.699219 453.449219 L 424.410156 453.46875 L 424.125 453.496094 L 423.84375 453.539062 L 423.570312 453.589844 L 423.300781 453.65625 L 423.035156 453.730469 L 422.773438 453.820312 L 422.519531 453.921875 L 422.269531 454.03125 L 422.023438 454.148438 L 421.789062 454.265625 L 421.566406 454.382812 L 421.351562 454.5 L 421.144531 454.613281 L 420.945312 454.726562 L 420.757812 454.84375 L 420.582031 454.957031 L 420.414062 455.066406 L 420.253906 455.179688 L 419.632812 454.15625 L 419.742188 454.082031 L 419.855469 454.003906 L 419.976562 453.929688 L 420.105469 453.847656 L 420.238281 453.769531 L 420.375 453.6875 L 420.523438 453.605469 L 420.675781 453.523438 L 420.832031 453.4375 L 420.996094 453.351562 L 421.167969 453.257812 L 421.339844 453.171875 L 421.519531 453.085938 L 421.699219 453.003906 L 421.886719 452.925781 L 422.078125 452.847656 L 422.273438 452.777344 L 422.476562 452.707031 L 422.679688 452.640625 L 422.886719 452.574219 L 423.105469 452.511719 L 423.328125 452.453125 L 423.550781 452.402344 L 423.777344 452.359375 L 424.003906 452.320312 L 424.234375 452.289062 L 424.46875 452.265625 L 424.703125 452.25 L 424.941406 452.238281 L 425.183594 452.234375 L 425.527344 452.242188 L 425.859375 452.265625 L 426.175781 452.304688 L 426.476562 452.359375 L 426.761719 452.429688 L 427.035156 452.515625 L 427.289062 452.613281 L 427.53125 452.730469 L 427.757812 452.863281 L 427.972656 453.007812 L 428.171875 453.171875 L 428.355469 453.339844 L 428.53125 453.523438 L 428.695312 453.714844 L 428.847656 453.917969 L 428.988281 454.128906 L 429.117188 454.351562 L 429.230469 454.585938 L 429.335938 454.832031 L 429.429688 455.085938 L 429.515625 455.34375 L 429.597656 455.609375 L 429.664062 455.878906 L 429.726562 456.15625 L 429.777344 456.441406 L 429.820312 456.734375 L 429.851562 457.035156 L 429.875 457.339844 L 429.890625 457.652344 L 429.894531 457.96875 L 429.894531 467.488281 L 428.714844 467.488281 L 428.589844 465.566406 L 428.5 465.566406 L 428.03125 465.917969 L 427.792969 466.085938 L 427.550781 466.253906 L 427.304688 466.417969 L 427.054688 466.578125 L 426.800781 466.730469 L 426.542969 466.882812 L 426.285156 467.03125 L 426.019531 467.175781 L 425.75 467.304688 L 425.480469 467.421875 L 425.207031 467.523438 L 424.933594 467.613281 L 424.65625 467.6875 L 424.375 467.75 L 424.089844 467.796875 L 423.804688 467.832031 L 423.519531 467.851562 Z M 423.476562 466.679688 L 423.730469 466.675781 L 423.980469 466.65625 L 424.230469 466.625 L 424.480469 466.582031 L 424.722656 466.527344 L 424.96875 466.457031 L 425.210938 466.375 L 425.449219 466.285156 L 425.6875 466.179688 L 425.925781 466.0625 L 426.167969 465.929688 L 426.417969 465.789062 L 426.667969 465.636719 L 426.921875 465.476562 L 427.179688 465.300781 L 427.445312 465.117188 L 427.710938 464.917969 L 427.980469 464.710938 L 428.253906 464.492188 L 428.53125 464.261719 L 428.53125 459.210938 L 427.929688 459.285156 L 427.351562 459.367188 L 426.800781 459.453125 L 426.277344 459.542969 L 425.777344 459.636719 L 425.304688 459.734375 L 424.855469 459.835938 L 424.433594 459.945312 L 424.035156 460.054688 L 423.664062 460.171875 L 423.3125 460.292969 L 422.984375 460.417969 L 422.675781 460.550781 L 422.386719 460.691406 L 422.121094 460.835938 L 421.875 460.988281 L 421.648438 461.148438 L 421.441406 461.3125 L 421.253906 461.480469 L 421.089844 461.660156 L 420.941406 461.835938 L 420.8125 462.019531 L 420.695312 462.207031 L 420.59375 462.402344 L 420.507812 462.605469 L 420.4375 462.8125 L 420.382812 463.027344 L 420.347656 463.246094 L 420.324219 463.472656 L 420.316406 463.703125 L 420.324219 464.019531 L 420.351562 464.3125 L 420.398438 464.589844 L 420.464844 464.84375 L 420.546875 465.085938 L 420.648438 465.304688 L 420.769531 465.503906 L 420.910156 465.6875 L 421.066406 465.851562 L 421.246094 466 L 421.441406 466.128906 L 421.640625 466.246094 L 421.847656 466.347656 L 422.0625 466.433594 L 422.285156 466.511719 L 422.507812 466.570312 L 422.742188 466.621094 L 422.980469 466.652344 L 423.226562 466.675781 Z M 423.476562 466.679688 "/>
<path fill-rule="nonzero" fill="rgb(10.196078%, 10.196078%, 10.196078%)" fill-opacity="1" d="M 440.125 467.859375 L 439.570312 467.839844 L 439.042969 467.777344 L 438.535156 467.675781 L 438.050781 467.535156 L 437.589844 467.355469 L 437.152344 467.132812 L 436.738281 466.871094 L 436.34375 466.570312 L 435.976562 466.226562 L 435.628906 465.84375 L 435.3125 465.421875 L 435.027344 464.96875 L 434.773438 464.476562 L 434.558594 463.953125 L 434.375 463.394531 L 434.222656 462.800781 L 434.105469 462.171875 L 434.023438 461.507812 L 433.972656 460.8125 L 433.953125 460.078125 L 433.964844 459.601562 L 433.992188 459.136719 L 434.035156 458.6875 L 434.097656 458.253906 L 434.179688 457.832031 L 434.277344 457.421875 L 434.394531 457.027344 L 434.53125 456.644531 L 434.683594 456.277344 L 434.855469 455.921875 L 435.046875 455.578125 L 435.25 455.25 L 435.460938 454.9375 L 435.6875 454.640625 L 435.921875 454.359375 L 436.171875 454.09375 L 436.429688 453.84375 L 436.699219 453.613281 L 436.980469 453.394531 L 437.273438 453.195312 L 437.578125 453.011719 L 437.890625 452.851562 L 438.207031 452.707031 L 438.527344 452.582031 L 438.851562 452.476562 L 439.183594 452.386719 L 439.519531 452.320312 L 439.859375 452.273438 L 440.207031 452.246094 L 440.558594 452.234375 L 440.828125 452.238281 L 441.089844 452.253906 L 441.34375 452.28125 L 441.589844 452.3125 L 441.828125 452.359375 L 442.0625 452.414062 L 442.285156 452.476562 L 442.503906 452.550781 L 442.710938 452.636719 L 442.914062 452.730469 L 443.121094 452.828125 L 443.328125 452.933594 L 443.535156 453.046875 L 443.746094 453.167969 L 443.960938 453.296875 L 444.175781 453.433594 L 444.390625 453.578125 L 444.609375 453.734375 L 444.832031 453.894531 L 445.054688 454.0625 L 444.992188 451.335938 L 444.992188 445.199219 L 446.355469 445.199219 L 446.355469 467.488281 L 445.175781 467.488281 L 445.054688 465.566406 L 444.960938 465.566406 L 444.777344 465.742188 L 444.585938 465.917969 L 444.390625 466.085938 L 444.1875 466.253906 L 443.976562 466.417969 L 443.757812 466.578125 L 443.535156 466.730469 L 443.304688 466.882812 L 443.066406 467.03125 L 442.820312 467.175781 L 442.574219 467.304688 L 442.324219 467.421875 L 442.070312 467.523438 L 441.808594 467.613281 L 441.542969 467.6875 L 441.269531 467.75 L 440.992188 467.796875 L 440.707031 467.832031 L 440.417969 467.851562 Z M 440.308594 466.648438 L 440.554688 466.644531 L 440.800781 466.625 L 441.042969 466.59375 L 441.28125 466.550781 L 441.519531 466.496094 L 441.753906 466.425781 L 441.984375 466.347656 L 442.214844 466.253906 L 442.441406 466.148438 L 442.664062 466.03125 L 442.894531 465.894531 L 443.125 465.75 L 443.355469 465.589844 L 443.589844 465.425781 L 443.820312 465.246094 L 444.054688 465.058594 L 444.285156 464.859375 L 444.519531 464.652344 L 444.753906 464.429688 L 444.992188 464.199219 L 444.992188 455.367188 L 444.757812 455.160156 L 444.523438 454.96875 L 444.296875 454.789062 L 444.066406 454.621094 L 443.84375 454.464844 L 443.621094 454.324219 L 443.402344 454.195312 L 443.183594 454.074219 L 442.972656 453.972656 L 442.757812 453.878906 L 442.554688 453.796875 L 442.347656 453.722656 L 442.140625 453.65625 L 441.929688 453.601562 L 441.71875 453.550781 L 441.507812 453.511719 L 441.296875 453.484375 L 441.082031 453.460938 L 440.867188 453.449219 L 440.652344 453.445312 L 440.355469 453.453125 L 440.066406 453.480469 L 439.785156 453.523438 L 439.511719 453.585938 L 439.242188 453.667969 L 438.976562 453.765625 L 438.71875 453.882812 L 438.46875 454.019531 L 438.222656 454.171875 L 437.984375 454.34375 L 437.753906 454.523438 L 437.53125 454.714844 L 437.320312 454.917969 L 437.117188 455.136719 L 436.921875 455.367188 L 436.738281 455.609375 L 436.5625 455.863281 L 436.398438 456.128906 L 436.242188 456.40625 L 436.09375 456.699219 L 435.964844 457 L 435.847656 457.308594 L 435.746094 457.628906 L 435.65625 457.953125 L 435.582031 458.289062 L 435.519531 458.628906 L 435.472656 458.980469 L 435.4375 459.335938 L 435.417969 459.703125 L 435.410156 460.078125 L 435.425781 460.65625 L 435.460938 461.210938 L 435.527344 461.746094 L 435.613281 462.253906 L 435.730469 462.742188 L 435.871094 463.210938 L 436.035156 463.652344 L 436.226562 464.074219 L 436.441406 464.476562 L 436.683594 464.851562 L 436.949219 465.195312 L 437.234375 465.5 L 437.542969 465.769531 L 437.875 466.003906 L 438.226562 466.199219 L 438.597656 466.363281 L 438.992188 466.488281 L 439.410156 466.578125 L 439.847656 466.632812 Z M 440.308594 466.648438 "/>
<path fill-rule="nonzero" fill="rgb(10.196078%, 10.196078%, 10.196078%)" fill-opacity="1" d="M 457.699219 467.859375 L 457.324219 467.847656 L 456.957031 467.820312 L 456.59375 467.773438 L 456.238281 467.710938 L 455.886719 467.625 L 455.542969 467.523438 L 455.207031 467.402344 L 454.875 467.261719 L 454.546875 467.105469 L 454.230469 466.929688 L 453.925781 466.734375 L 453.632812 466.523438 L 453.355469 466.296875 L 453.089844 466.054688 L 452.832031 465.796875 L 452.59375 465.523438 L 452.363281 465.230469 L 452.144531 464.925781 L 451.941406 464.601562 L 451.75 464.261719 L 451.570312 463.902344 L 451.414062 463.53125 L 451.273438 463.144531 L 451.152344 462.746094 L 451.050781 462.332031 L 450.96875 461.90625 L 450.902344 461.46875 L 450.855469 461.019531 L 450.828125 460.554688 L 450.820312 460.078125 L 450.828125 459.59375 L 450.855469 459.125 L 450.902344 458.671875 L 450.96875 458.234375 L 451.050781 457.808594 L 451.152344 457.394531 L 451.273438 457 L 451.414062 456.617188 L 451.570312 456.246094 L 451.75 455.894531 L 451.941406 455.546875 L 452.144531 455.21875 L 452.355469 454.90625 L 452.582031 454.613281 L 452.816406 454.335938 L 453.066406 454.074219 L 453.324219 453.828125 L 453.59375 453.601562 L 453.875 453.390625 L 454.167969 453.195312 L 454.464844 453.011719 L 454.769531 452.851562 L 455.074219 452.707031 L 455.382812 452.582031 L 455.695312 452.476562 L 456.007812 452.386719 L 456.324219 452.320312 L 456.648438 452.273438 L 456.96875 452.246094 L 457.296875 452.234375 L 457.820312 452.253906 L 458.316406 452.308594 L 458.792969 452.398438 L 459.246094 452.523438 L 459.675781 452.683594 L 460.085938 452.882812 L 460.46875 453.117188 L 460.828125 453.386719 L 461.167969 453.691406 L 461.484375 454.03125 L 461.769531 454.40625 L 462.03125 454.8125 L 462.257812 455.246094 L 462.453125 455.710938 L 462.621094 456.203125 L 462.757812 456.726562 L 462.863281 457.277344 L 462.941406 457.863281 L 462.988281 458.472656 L 463 459.117188 L 463 459.285156 L 462.992188 459.394531 L 462.992188 459.453125 L 462.988281 459.507812 L 462.980469 459.5625 L 462.976562 459.617188 L 462.972656 459.675781 L 462.96875 459.730469 L 462.96875 459.785156 L 462.964844 459.84375 L 462.957031 459.953125 L 462.949219 460.007812 L 462.941406 460.066406 L 462.929688 460.121094 L 462.921875 460.175781 L 462.910156 460.234375 L 452.214844 460.234375 L 452.226562 460.601562 L 452.253906 460.960938 L 452.289062 461.3125 L 452.34375 461.65625 L 452.40625 461.992188 L 452.484375 462.320312 L 452.574219 462.640625 L 452.679688 462.949219 L 452.796875 463.253906 L 452.925781 463.550781 L 453.074219 463.835938 L 453.234375 464.109375 L 453.402344 464.367188 L 453.582031 464.617188 L 453.773438 464.851562 L 453.972656 465.074219 L 454.183594 465.285156 L 454.40625 465.484375 L 454.636719 465.671875 L 454.878906 465.84375 L 455.136719 466.003906 L 455.402344 466.144531 L 455.679688 466.269531 L 455.960938 466.378906 L 456.25 466.472656 L 456.550781 466.546875 L 456.855469 466.605469 L 457.171875 466.648438 L 457.492188 466.671875 L 457.824219 466.679688 L 458.0625 466.675781 L 458.296875 466.664062 L 458.527344 466.648438 L 458.753906 466.621094 L 458.972656 466.585938 L 459.1875 466.546875 L 459.394531 466.5 L 459.601562 466.441406 L 459.800781 466.378906 L 459.996094 466.308594 L 460.386719 466.152344 L 460.574219 466.066406 L 460.761719 465.976562 L 460.949219 465.882812 L 461.128906 465.785156 L 461.308594 465.679688 L 461.484375 465.574219 L 461.65625 465.464844 L 461.824219 465.347656 L 462.382812 466.402344 L 462.207031 466.507812 L 462.027344 466.609375 L 461.652344 466.8125 L 461.460938 466.914062 L 461.261719 467.011719 L 460.855469 467.207031 L 460.644531 467.300781 L 460.429688 467.394531 L 460.207031 467.480469 L 459.972656 467.5625 L 459.726562 467.632812 L 459.472656 467.691406 L 459.203125 467.742188 L 458.925781 467.785156 L 458.636719 467.816406 L 458.335938 467.839844 L 458.023438 467.855469 Z M 452.214844 459.117188 L 461.699219 459.117188 L 461.6875 458.5625 L 461.652344 458.03125 L 461.59375 457.535156 L 461.511719 457.0625 L 461.40625 456.621094 L 461.277344 456.207031 L 461.121094 455.824219 L 460.945312 455.464844 L 460.746094 455.136719 L 460.523438 454.839844 L 460.277344 454.566406 L 460.015625 454.324219 L 459.738281 454.113281 L 459.445312 453.925781 L 459.132812 453.769531 L 458.808594 453.640625 L 458.460938 453.542969 L 458.101562 453.46875 L 457.722656 453.425781 L 457.328125 453.414062 L 457.074219 453.417969 L 456.828125 453.441406 L 456.582031 453.472656 L 456.335938 453.523438 L 456.097656 453.582031 L 455.859375 453.660156 L 455.625 453.746094 L 455.394531 453.847656 L 455.167969 453.964844 L 454.941406 454.09375 L 454.726562 454.238281 L 454.519531 454.390625 L 454.320312 454.558594 L 454.128906 454.734375 L 453.941406 454.925781 L 453.761719 455.125 L 453.589844 455.339844 L 453.425781 455.5625 L 453.265625 455.800781 L 453.113281 456.046875 L 452.96875 456.308594 L 452.839844 456.578125 L 452.71875 456.859375 L 452.613281 457.148438 L 452.515625 457.449219 L 452.433594 457.761719 L 452.359375 458.085938 L 452.300781 458.417969 L 452.25 458.761719 Z M 452.214844 459.117188 "/>
</svg>
