<?xml version="1.0" encoding="UTF-8"?>
<svg xmlns="http://www.w3.org/2000/svg" xmlns:xlink="http://www.w3.org/1999/xlink" width="504pt" height="396pt" viewBox="0 0 504 396">
<defs>
<clipPath id="clip-0">
<path clip-rule="nonzero" d="M 37.808594 12.953125 L 491.050781 12.953125 L 491.050781 350.035156 L 37.808594 350.035156 Z M 37.808594 12.953125 "/>
</clipPath>
<clipPath id="clip-1">
<path clip-rule="nonzero" d="M 37.808594 334 L 491.050781 334 L 491.050781 335 L 37.808594 335 Z M 37.808594 334 "/>
</clipPath>
<clipPath id="clip-2">
<path clip-rule="nonzero" d="M 37.808594 251 L 491.050781 251 L 491.050781 252 L 37.808594 252 Z M 37.808594 251 "/>
</clipPath>
<clipPath id="clip-3">
<path clip-rule="nonzero" d="M 37.808594 167 L 491.050781 167 L 491.050781 168 L 37.808594 168 Z M 37.808594 167 "/>
</clipPath>
<clipPath id="clip-4">
<path clip-rule="nonzero" d="M 37.808594 83 L 491.050781 83 L 491.050781 85 L 37.808594 85 Z M 37.808594 83 "/>
</clipPath>
<clipPath id="clip-5">
<path clip-rule="nonzero" d="M 143 12.953125 L 144 12.953125 L 144 350.035156 L 143 350.035156 Z M 143 12.953125 "/>
</clipPath>
<clipPath id="clip-6">
<path clip-rule="nonzero" d="M 385 12.953125 L 386 12.953125 L 386 350.035156 L 385 350.035156 Z M 385 12.953125 "/>
</clipPath>
</defs>
<rect x="-50.4" y="-39.6" width="604.8" height="475.2" fill="rgb(100%, 100%, 100%)" fill-opacity="1"/>
<rect x="-50.4" y="-39.6" width="604.8" height="475.2" fill="rgb(95.294118%, 95.294118%, 95.294118%)" fill-opacity="1"/>
<path fill="none" stroke-width="2.521949" stroke-linecap="round" stroke-linejoin="round" stroke="rgb(95.294118%, 95.294118%, 95.294118%)" stroke-opacity="1" stroke-miterlimit="10" d="M 0 396 L 504 396 L 504 0 L 0 0 Z M 0 396 "/>
<g clip-path="url(#clip-0)">
<path fill-rule="nonzero" fill="rgb(95.294118%, 95.294118%, 95.294118%)" fill-opacity="1" stroke-width="2.521949" stroke-linecap="round" stroke-linejoin="round" stroke="rgb(95.294118%, 95.294118%, 95.294118%)" stroke-opacity="1" stroke-miterlimit="10" d="M 37.808594 350.03125 L 491.050781 350.03125 L 491.050781 12.949219 L 37.808594 12.949219 Z M 37.808594 350.03125 "/>
</g>
<g clip-path="url(#clip-1)">
<path fill="none" stroke-width="0.213396" stroke-linecap="butt" stroke-linejoin="round" stroke="rgb(95.294118%, 95.294118%, 95.294118%)" stroke-opacity="1" stroke-miterlimit="10" d="M 37.808594 334.710938 L 491.046875 334.710938 "/>
</g>
<g clip-path="url(#clip-2)">
<path fill="none" stroke-width="0.213396" stroke-linecap="butt" stroke-linejoin="round" stroke="rgb(95.294118%, 95.294118%, 95.294118%)" stroke-opacity="1" stroke-miterlimit="10" d="M 37.808594 251.136719 L 491.046875 251.136719 "/>
</g>
<g clip-path="url(#clip-3)">
<path fill="none" stroke-width="0.213396" stroke-linecap="butt" stroke-linejoin="round" stroke="rgb(95.294118%, 95.294118%, 95.294118%)" stroke-opacity="1" stroke-miterlimit="10" d="M 37.808594 167.5625 L 491.046875 167.5625 "/>
</g>
<g clip-path="url(#clip-4)">
<path fill="none" stroke-width="0.213396" stroke-linecap="butt" stroke-linejoin="round" stroke="rgb(95.294118%, 95.294118%, 95.294118%)" stroke-opacity="1" stroke-miterlimit="10" d="M 37.808594 83.988281 L 491.046875 83.988281 "/>
</g>
<g clip-path="url(#clip-5)">
<path fill="none" stroke-width="0.213396" stroke-linecap="butt" stroke-linejoin="round" stroke="rgb(95.294118%, 95.294118%, 95.294118%)" stroke-opacity="1" stroke-miterlimit="10" d="M 143.242188 350.03125 L 143.242188 12.953125 "/>
</g>
<g clip-path="url(#clip-6)">
<path fill="none" stroke-width="0.213396" stroke-linecap="butt" stroke-linejoin="round" stroke="rgb(95.294118%, 95.294118%, 95.294118%)" stroke-opacity="1" stroke-miterlimit="10" d="M 385.617188 350.03125 L 385.617188 12.953125 "/>
</g>
<path fill-rule="nonzero" fill="rgb(56.078431%, 16.470588%, 26.27451%)" fill-opacity="1" d="M 58.410156 334.710938 L 228.074219 334.710938 L 228.074219 28.273438 L 58.410156 28.273438 Z M 58.410156 334.710938 "/>
<path fill-rule="nonzero" fill="rgb(56.078431%, 16.470588%, 26.27451%)" fill-opacity="1" d="M 300.785156 334.710938 L 470.449219 334.710938 L 470.449219 83.988281 L 300.785156 83.988281 Z M 300.785156 334.710938 "/>
<path fill-rule="nonzero" fill="rgb(10.196078%, 10.196078%, 10.196078%)" fill-opacity="1" d="M 19.550781 326.707031 L 20.035156 326.726562 L 20.492188 326.789062 L 20.925781 326.898438 L 21.335938 327.042969 L 21.722656 327.234375 L 22.085938 327.464844 L 22.425781 327.742188 L 22.738281 328.058594 L 23.027344 328.417969 L 23.296875 328.820312 L 23.539062 329.253906 L 23.753906 329.730469 L 23.945312 330.25 L 24.109375 330.804688 L 24.25 331.398438 L 24.363281 332.03125 L 24.453125 332.707031 L 24.515625 333.417969 L 24.554688 334.171875 L 24.566406 334.960938 L 24.554688 335.75 L 24.515625 336.5 L 24.449219 337.207031 L 24.359375 337.878906 L 24.242188 338.515625 L 24.101562 339.109375 L 23.933594 339.667969 L 23.738281 340.183594 L 23.519531 340.664062 L 23.269531 341.105469 L 23.003906 341.503906 L 22.714844 341.859375 L 22.402344 342.171875 L 22.066406 342.441406 L 21.707031 342.671875 L 21.320312 342.859375 L 20.914062 343.007812 L 20.484375 343.109375 L 20.027344 343.171875 L 19.550781 343.195312 L 19.070312 343.171875 L 18.609375 343.109375 L 18.175781 343.007812 L 17.765625 342.859375 L 17.378906 342.671875 L 17.015625 342.441406 L 16.679688 342.171875 L 16.363281 341.859375 L 16.074219 341.503906 L 15.808594 341.105469 L 15.566406 340.664062 L 15.347656 340.183594 L 15.160156 339.664062 L 14.992188 339.105469 L 14.851562 338.507812 L 14.738281 337.871094 L 14.648438 337.195312 L 14.585938 336.484375 L 14.546875 335.730469 L 14.535156 334.9375 L 14.546875 334.148438 L 14.585938 333.394531 L 14.648438 332.683594 L 14.738281 332.007812 L 14.851562 331.375 L 14.992188 330.78125 L 15.160156 330.222656 L 15.347656 329.707031 L 15.566406 329.230469 L 15.808594 328.792969 L 16.074219 328.398438 L 16.363281 328.042969 L 16.679688 327.730469 L 17.015625 327.457031 L 17.378906 327.226562 L 17.765625 327.039062 L 18.175781 326.894531 L 18.609375 326.789062 L 19.070312 326.726562 Z M 19.550781 327.859375 L 18.871094 327.929688 L 18.265625 328.140625 L 17.726562 328.496094 L 17.261719 328.992188 L 16.871094 329.628906 L 16.546875 330.40625 L 16.296875 331.328125 L 16.117188 332.390625 L 16.011719 333.59375 L 15.976562 334.9375 L 16.011719 336.289062 L 16.117188 337.496094 L 16.296875 338.5625 L 16.546875 339.484375 L 16.871094 340.265625 L 17.261719 340.90625 L 17.726562 341.402344 L 18.265625 341.757812 L 18.871094 341.972656 L 19.550781 342.042969 L 19.894531 342.023438 L 20.21875 341.972656 L 20.523438 341.886719 L 20.816406 341.765625 L 21.085938 341.609375 L 21.34375 341.421875 L 21.582031 341.195312 L 21.800781 340.9375 L 22.003906 340.644531 L 22.191406 340.3125 L 22.363281 339.949219 L 22.519531 339.546875 L 22.65625 339.105469 L 22.773438 338.628906 L 22.875 338.113281 L 22.957031 337.558594 L 23.019531 336.964844 L 23.066406 336.335938 L 23.09375 335.667969 L 23.101562 334.960938 L 23.09375 334.257812 L 23.066406 333.589844 L 23.019531 332.957031 L 22.957031 332.367188 L 22.875 331.8125 L 22.773438 331.296875 L 22.65625 330.816406 L 22.519531 330.378906 L 22.363281 329.976562 L 22.191406 329.609375 L 22.003906 329.277344 L 21.800781 328.980469 L 21.582031 328.71875 L 21.34375 328.488281 L 21.085938 328.296875 L 20.816406 328.140625 L 20.523438 328.015625 L 20.21875 327.929688 L 19.894531 327.875 Z M 19.550781 327.859375 "/>
<path fill-rule="nonzero" fill="rgb(10.196078%, 10.196078%, 10.196078%)" fill-opacity="1" d="M 19.792969 243.132812 L 20.054688 243.136719 L 20.316406 243.152344 L 20.566406 243.179688 L 20.808594 243.21875 L 21.046875 243.265625 L 21.273438 243.324219 L 21.496094 243.390625 L 21.710938 243.46875 L 21.917969 243.558594 L 22.121094 243.660156 L 22.316406 243.769531 L 22.503906 243.886719 L 22.679688 244.011719 L 22.847656 244.144531 L 23.007812 244.285156 L 23.15625 244.433594 L 23.296875 244.589844 L 23.425781 244.75 L 23.546875 244.921875 L 23.65625 245.101562 L 23.753906 245.28125 L 23.84375 245.464844 L 23.925781 245.65625 L 23.992188 245.847656 L 24.050781 246.046875 L 24.097656 246.253906 L 24.136719 246.460938 L 24.164062 246.675781 L 24.179688 246.894531 L 24.183594 247.117188 L 24.175781 247.421875 L 24.148438 247.71875 L 24.101562 248 L 24.042969 248.273438 L 23.960938 248.53125 L 23.863281 248.78125 L 23.75 249.019531 L 23.613281 249.242188 L 23.464844 249.457031 L 23.296875 249.660156 L 23.117188 249.84375 L 22.929688 250.015625 L 22.730469 250.171875 L 22.519531 250.3125 L 22.300781 250.441406 L 22.070312 250.554688 L 21.828125 250.652344 L 21.574219 250.734375 L 21.3125 250.804688 L 21.039062 250.859375 L 21.347656 250.886719 L 21.640625 250.929688 L 21.925781 250.992188 L 22.199219 251.074219 L 22.460938 251.179688 L 22.710938 251.300781 L 22.953125 251.445312 L 23.183594 251.605469 L 23.398438 251.789062 L 23.609375 251.988281 L 23.804688 252.203125 L 23.980469 252.433594 L 24.132812 252.679688 L 24.269531 252.941406 L 24.382812 253.21875 L 24.472656 253.511719 L 24.546875 253.820312 L 24.597656 254.148438 L 24.628906 254.488281 L 24.640625 254.84375 L 24.632812 255.121094 L 24.613281 255.390625 L 24.582031 255.652344 L 24.539062 255.910156 L 24.484375 256.160156 L 24.414062 256.402344 L 24.332031 256.640625 L 24.238281 256.871094 L 24.132812 257.097656 L 24.015625 257.316406 L 23.886719 257.527344 L 23.742188 257.730469 L 23.589844 257.921875 L 23.429688 258.109375 L 23.253906 258.28125 L 23.066406 258.449219 L 22.871094 258.605469 L 22.664062 258.753906 L 22.445312 258.890625 L 22.214844 259.019531 L 21.980469 259.132812 L 21.738281 259.238281 L 21.492188 259.328125 L 21.234375 259.40625 L 20.972656 259.46875 L 20.703125 259.523438 L 20.425781 259.566406 L 20.140625 259.597656 L 19.851562 259.613281 L 19.550781 259.621094 L 19.003906 259.601562 L 18.476562 259.539062 L 17.96875 259.433594 L 17.480469 259.289062 L 17.011719 259.105469 L 16.566406 258.878906 L 16.136719 258.609375 L 15.726562 258.300781 L 15.335938 257.949219 L 14.96875 257.558594 L 15.855469 256.765625 L 16.019531 256.9375 L 16.183594 257.101562 L 16.347656 257.253906 L 16.515625 257.398438 L 16.683594 257.53125 L 16.851562 257.65625 L 17.019531 257.773438 L 17.191406 257.878906 L 17.363281 257.972656 L 17.535156 258.0625 L 17.714844 258.132812 L 17.898438 258.199219 L 18.085938 258.257812 L 18.277344 258.304688 L 18.472656 258.347656 L 18.671875 258.382812 L 18.871094 258.410156 L 19.078125 258.429688 L 19.289062 258.441406 L 19.503906 258.445312 L 19.839844 258.433594 L 20.164062 258.40625 L 20.472656 258.355469 L 20.765625 258.289062 L 21.046875 258.199219 L 21.308594 258.089844 L 21.558594 257.960938 L 21.792969 257.816406 L 22.011719 257.648438 L 22.214844 257.460938 L 22.402344 257.257812 L 22.570312 257.042969 L 22.71875 256.8125 L 22.84375 256.574219 L 22.953125 256.320312 L 23.042969 256.054688 L 23.109375 255.777344 L 23.160156 255.488281 L 23.191406 255.183594 L 23.199219 254.867188 L 23.164062 254.230469 L 23.054688 253.660156 L 22.875 253.15625 L 22.625 252.71875 L 22.300781 252.347656 L 21.902344 252.046875 L 21.433594 251.8125 L 20.894531 251.644531 L 20.285156 251.542969 L 19.597656 251.507812 L 18.542969 251.507812 L 18.734375 250.378906 L 19.503906 250.378906 L 19.773438 250.371094 L 20.035156 250.347656 L 20.289062 250.308594 L 20.53125 250.25 L 20.769531 250.175781 L 21 250.085938 L 21.21875 249.980469 L 21.429688 249.859375 L 21.636719 249.71875 L 21.832031 249.566406 L 22.015625 249.390625 L 22.175781 249.199219 L 22.320312 248.996094 L 22.445312 248.78125 L 22.550781 248.550781 L 22.636719 248.304688 L 22.703125 248.046875 L 22.753906 247.773438 L 22.78125 247.488281 L 22.792969 247.1875 L 22.78125 246.929688 L 22.757812 246.683594 L 22.714844 246.445312 L 22.65625 246.222656 L 22.582031 246.007812 L 22.488281 245.804688 L 22.378906 245.609375 L 22.253906 245.429688 L 22.109375 245.261719 L 21.953125 245.101562 L 21.777344 244.949219 L 21.59375 244.816406 L 21.398438 244.695312 L 21.191406 244.59375 L 20.972656 244.507812 L 20.746094 244.433594 L 20.503906 244.378906 L 20.253906 244.339844 L 19.992188 244.316406 L 19.71875 244.308594 L 19.519531 244.3125 L 19.324219 244.324219 L 19.128906 244.339844 L 18.941406 244.367188 L 18.753906 244.398438 L 18.570312 244.4375 L 18.390625 244.484375 L 18.214844 244.539062 L 18.042969 244.601562 L 17.871094 244.667969 L 17.703125 244.742188 L 17.535156 244.820312 L 17.367188 244.910156 L 17.195312 245.011719 L 17.027344 245.117188 L 16.855469 245.234375 L 16.683594 245.363281 L 16.511719 245.5 L 16.339844 245.644531 L 16.167969 245.796875 L 15.421875 244.933594 L 15.617188 244.753906 L 15.8125 244.585938 L 16.007812 244.429688 L 16.207031 244.28125 L 16.40625 244.140625 L 16.609375 244.011719 L 16.816406 243.890625 L 17.019531 243.78125 L 17.230469 243.679688 L 17.4375 243.589844 L 17.652344 243.503906 L 17.871094 243.425781 L 18.09375 243.355469 L 18.324219 243.296875 L 18.554688 243.246094 L 18.792969 243.207031 L 19.035156 243.171875 L 19.28125 243.152344 L 19.535156 243.136719 Z M 19.792969 243.132812 "/>
<path fill-rule="nonzero" fill="rgb(10.196078%, 10.196078%, 10.196078%)" fill-opacity="1" d="M 20.679688 165.390625 L 21.042969 165.402344 L 21.394531 165.441406 L 21.730469 165.507812 L 22.054688 165.597656 L 22.367188 165.714844 L 22.664062 165.859375 L 22.949219 166.027344 L 23.222656 166.21875 L 23.480469 166.441406 L 23.726562 166.6875 L 23.957031 166.953125 L 24.160156 167.242188 L 24.339844 167.554688 L 24.496094 167.894531 L 24.628906 168.253906 L 24.734375 168.636719 L 24.820312 169.042969 L 24.878906 169.476562 L 24.914062 169.929688 L 24.925781 170.40625 L 24.921875 170.742188 L 24.902344 171.070312 L 24.871094 171.390625 L 24.828125 171.703125 L 24.769531 172.007812 L 24.703125 172.304688 L 24.621094 172.59375 L 24.527344 172.871094 L 24.421875 173.144531 L 24.304688 173.40625 L 24.179688 173.65625 L 24.042969 173.894531 L 23.898438 174.117188 L 23.746094 174.332031 L 23.582031 174.535156 L 23.410156 174.726562 L 23.226562 174.90625 L 23.035156 175.074219 L 22.835938 175.230469 L 22.625 175.375 L 22.410156 175.503906 L 22.191406 175.617188 L 21.964844 175.71875 L 21.734375 175.804688 L 21.496094 175.878906 L 21.253906 175.9375 L 21.003906 175.988281 L 20.75 176.019531 L 20.488281 176.039062 L 20.222656 176.046875 L 19.710938 176.027344 L 19.222656 175.964844 L 18.765625 175.867188 L 18.339844 175.722656 L 17.9375 175.542969 L 17.566406 175.320312 L 17.222656 175.058594 L 16.90625 174.757812 L 16.617188 174.414062 L 16.359375 174.03125 L 16.132812 173.609375 L 15.925781 173.160156 L 15.746094 172.683594 L 15.589844 172.179688 L 15.460938 171.648438 L 15.351562 171.089844 L 15.265625 170.503906 L 15.207031 169.890625 L 15.171875 169.25 L 15.160156 168.582031 L 15.167969 168.039062 L 15.1875 167.507812 L 15.222656 166.992188 L 15.269531 166.488281 L 15.332031 166.003906 L 15.410156 165.53125 L 15.5 165.070312 L 15.605469 164.628906 L 15.722656 164.199219 L 15.855469 163.78125 L 16 163.382812 L 16.15625 163.003906 L 16.328125 162.644531 L 16.507812 162.304688 L 16.703125 161.984375 L 16.90625 161.679688 L 17.125 161.398438 L 17.351562 161.132812 L 17.59375 160.886719 L 17.847656 160.664062 L 18.113281 160.453125 L 18.386719 160.265625 L 18.667969 160.101562 L 18.960938 159.957031 L 19.261719 159.835938 L 19.574219 159.734375 L 19.898438 159.660156 L 20.226562 159.601562 L 20.570312 159.570312 L 20.917969 159.558594 L 21.238281 159.566406 L 21.554688 159.597656 L 21.863281 159.644531 L 22.167969 159.707031 L 22.46875 159.792969 L 22.761719 159.894531 L 23.054688 160.015625 L 23.339844 160.15625 L 23.621094 160.316406 L 23.894531 160.496094 L 23.296875 161.453125 L 23.0625 161.3125 L 22.832031 161.1875 L 22.59375 161.074219 L 22.359375 160.980469 L 22.121094 160.898438 L 21.878906 160.828125 L 21.636719 160.777344 L 21.390625 160.742188 L 21.144531 160.71875 L 20.894531 160.710938 L 20.515625 160.730469 L 20.148438 160.789062 L 19.800781 160.886719 L 19.46875 161.023438 L 19.148438 161.195312 L 18.847656 161.410156 L 18.5625 161.664062 L 18.292969 161.953125 L 18.039062 162.285156 L 17.800781 162.65625 L 17.578125 163.054688 L 17.382812 163.480469 L 17.207031 163.929688 L 17.050781 164.402344 L 16.917969 164.898438 L 16.804688 165.417969 L 16.714844 165.964844 L 16.648438 166.535156 L 16.601562 167.125 L 16.574219 167.742188 L 16.90625 167.296875 L 17.253906 166.894531 L 17.621094 166.542969 L 18.003906 166.238281 L 18.40625 165.980469 L 18.824219 165.765625 L 19.261719 165.601562 L 19.714844 165.484375 L 20.1875 165.414062 Z M 20.222656 174.894531 L 20.53125 174.882812 L 20.828125 174.847656 L 21.105469 174.785156 L 21.371094 174.703125 L 21.621094 174.59375 L 21.855469 174.464844 L 22.078125 174.308594 L 22.28125 174.125 L 22.472656 173.921875 L 22.648438 173.695312 L 22.8125 173.441406 L 22.957031 173.171875 L 23.089844 172.890625 L 23.199219 172.589844 L 23.296875 172.273438 L 23.375 171.941406 L 23.433594 171.59375 L 23.476562 171.230469 L 23.503906 170.851562 L 23.511719 170.453125 L 23.503906 170.066406 L 23.476562 169.699219 L 23.4375 169.351562 L 23.378906 169.027344 L 23.300781 168.722656 L 23.210938 168.4375 L 23.101562 168.171875 L 22.972656 167.929688 L 22.832031 167.707031 L 22.671875 167.503906 L 22.503906 167.320312 L 22.324219 167.15625 L 22.132812 167.011719 L 21.929688 166.886719 L 21.71875 166.78125 L 21.492188 166.695312 L 21.257812 166.628906 L 21.011719 166.582031 L 20.753906 166.550781 L 20.488281 166.542969 L 20.25 166.550781 L 20.015625 166.570312 L 19.785156 166.609375 L 19.558594 166.65625 L 19.335938 166.722656 L 19.117188 166.800781 L 18.902344 166.894531 L 18.691406 167.003906 L 18.484375 167.125 L 18.28125 167.261719 L 18.085938 167.40625 L 17.894531 167.5625 L 17.710938 167.726562 L 17.535156 167.902344 L 17.363281 168.089844 L 17.195312 168.289062 L 17.03125 168.496094 L 16.875 168.714844 L 16.722656 168.945312 L 16.574219 169.183594 L 16.597656 169.726562 L 16.636719 170.242188 L 16.691406 170.734375 L 16.757812 171.199219 L 16.84375 171.636719 L 16.945312 172.046875 L 17.0625 172.433594 L 17.199219 172.792969 L 17.347656 173.125 L 17.511719 173.429688 L 17.695312 173.710938 L 17.894531 173.957031 L 18.117188 174.175781 L 18.359375 174.367188 L 18.621094 174.527344 L 18.902344 174.660156 L 19.203125 174.761719 L 19.523438 174.835938 L 19.863281 174.878906 Z M 20.222656 174.894531 "/>
<path fill-rule="nonzero" fill="rgb(10.196078%, 10.196078%, 10.196078%)" fill-opacity="1" d="M 19.839844 75.984375 L 20.3125 76.003906 L 20.761719 76.054688 L 21.183594 76.136719 L 21.582031 76.257812 L 21.957031 76.410156 L 22.308594 76.597656 L 22.632812 76.820312 L 22.933594 77.074219 L 23.210938 77.367188 L 23.464844 77.6875 L 23.695312 78.039062 L 23.902344 78.414062 L 24.085938 78.820312 L 24.246094 79.253906 L 24.382812 79.710938 L 24.492188 80.199219 L 24.578125 80.710938 L 24.636719 81.253906 L 24.675781 81.820312 L 24.6875 82.417969 L 24.679688 83.023438 L 24.652344 83.609375 L 24.609375 84.171875 L 24.546875 84.714844 L 24.464844 85.230469 L 24.367188 85.726562 L 24.253906 86.199219 L 24.117188 86.648438 L 23.96875 87.078125 L 23.800781 87.480469 L 23.613281 87.867188 L 23.410156 88.238281 L 23.191406 88.589844 L 22.953125 88.929688 L 22.703125 89.25 L 22.429688 89.558594 L 22.144531 89.847656 L 21.839844 90.125 L 21.519531 90.382812 L 21.183594 90.625 L 20.832031 90.855469 L 20.457031 91.082031 L 20.0625 91.300781 L 19.644531 91.515625 L 19.203125 91.722656 L 18.742188 91.925781 L 18.257812 92.117188 L 17.75 92.308594 L 17.222656 92.488281 L 16.671875 92.664062 L 16.3125 91.585938 L 16.957031 91.375 L 17.574219 91.152344 L 18.15625 90.914062 L 18.707031 90.660156 L 19.226562 90.390625 L 19.714844 90.109375 L 20.171875 89.808594 L 20.597656 89.496094 L 20.988281 89.167969 L 21.351562 88.824219 L 21.6875 88.460938 L 21.988281 88.074219 L 22.261719 87.65625 L 22.5 87.214844 L 22.707031 86.75 L 22.882812 86.257812 L 23.027344 85.738281 L 23.140625 85.191406 L 23.222656 84.621094 L 23.269531 84.023438 L 23.125 84.230469 L 22.972656 84.429688 L 22.8125 84.617188 L 22.648438 84.796875 L 22.480469 84.96875 L 22.304688 85.128906 L 22.121094 85.28125 L 21.933594 85.421875 L 21.742188 85.554688 L 21.542969 85.679688 L 21.339844 85.789062 L 21.132812 85.886719 L 20.921875 85.976562 L 20.707031 86.050781 L 20.488281 86.113281 L 20.265625 86.164062 L 20.039062 86.207031 L 19.808594 86.234375 L 19.574219 86.25 L 19.335938 86.257812 L 19.089844 86.25 L 18.847656 86.234375 L 18.609375 86.203125 L 18.378906 86.160156 L 18.152344 86.105469 L 17.933594 86.042969 L 17.71875 85.964844 L 17.507812 85.875 L 17.304688 85.769531 L 17.101562 85.65625 L 16.910156 85.527344 L 16.726562 85.386719 L 16.550781 85.238281 L 16.382812 85.078125 L 16.222656 84.90625 L 16.070312 84.726562 L 15.925781 84.535156 L 15.789062 84.335938 L 15.664062 84.125 L 15.542969 83.90625 L 15.4375 83.671875 L 15.34375 83.429688 L 15.261719 83.179688 L 15.191406 82.921875 L 15.128906 82.65625 L 15.078125 82.382812 L 15.042969 82.105469 L 15.011719 81.816406 L 14.996094 81.519531 L 14.992188 81.21875 L 14.996094 80.90625 L 15.015625 80.601562 L 15.046875 80.304688 L 15.089844 80.015625 L 15.148438 79.734375 L 15.214844 79.464844 L 15.296875 79.199219 L 15.390625 78.945312 L 15.496094 78.695312 L 15.617188 78.457031 L 15.75 78.222656 L 15.894531 78 L 16.046875 77.789062 L 16.207031 77.589844 L 16.378906 77.402344 L 16.558594 77.222656 L 16.746094 77.058594 L 16.945312 76.90625 L 17.152344 76.765625 L 17.367188 76.632812 L 17.589844 76.511719 L 17.820312 76.398438 L 18.054688 76.300781 L 18.292969 76.21875 L 18.539062 76.148438 L 18.789062 76.089844 L 19.042969 76.042969 L 19.304688 76.011719 L 19.570312 75.992188 Z M 19.574219 85.105469 L 19.796875 85.097656 L 20.015625 85.082031 L 20.230469 85.050781 L 20.4375 85.007812 L 20.644531 84.957031 L 20.84375 84.890625 L 21.035156 84.8125 L 21.226562 84.722656 L 21.410156 84.617188 L 21.589844 84.503906 L 21.773438 84.375 L 21.949219 84.234375 L 22.125 84.082031 L 22.296875 83.917969 L 22.46875 83.742188 L 22.632812 83.558594 L 22.796875 83.359375 L 22.957031 83.152344 L 23.117188 82.933594 L 23.269531 82.707031 L 23.269531 82.148438 L 23.246094 81.625 L 23.210938 81.128906 L 23.15625 80.664062 L 23.085938 80.226562 L 22.996094 79.820312 L 22.894531 79.449219 L 22.773438 79.101562 L 22.632812 78.789062 L 22.480469 78.503906 L 22.304688 78.246094 L 22.113281 78.011719 L 21.902344 77.808594 L 21.671875 77.628906 L 21.421875 77.480469 L 21.15625 77.355469 L 20.867188 77.261719 L 20.558594 77.191406 L 20.234375 77.152344 L 19.886719 77.136719 L 19.574219 77.148438 L 19.269531 77.179688 L 18.984375 77.234375 L 18.707031 77.308594 L 18.449219 77.40625 L 18.199219 77.527344 L 17.964844 77.667969 L 17.746094 77.828125 L 17.539062 78.011719 L 17.34375 78.21875 L 17.171875 78.4375 L 17.015625 78.675781 L 16.878906 78.933594 L 16.757812 79.207031 L 16.660156 79.5 L 16.578125 79.8125 L 16.511719 80.140625 L 16.46875 80.492188 L 16.441406 80.855469 L 16.429688 81.242188 L 16.441406 81.601562 L 16.464844 81.945312 L 16.507812 82.273438 L 16.566406 82.585938 L 16.640625 82.878906 L 16.734375 83.15625 L 16.84375 83.417969 L 16.96875 83.660156 L 17.113281 83.886719 L 17.269531 84.097656 L 17.449219 84.289062 L 17.640625 84.460938 L 17.839844 84.609375 L 18.054688 84.742188 L 18.28125 84.851562 L 18.515625 84.945312 L 18.761719 85.015625 L 19.023438 85.066406 L 19.292969 85.09375 Z M 19.574219 85.105469 "/>
<path fill-rule="nonzero" fill="rgb(10.196078%, 10.196078%, 10.196078%)" fill-opacity="1" d="M 143.242188 361.90625 L 143.722656 361.925781 L 144.179688 361.988281 L 144.617188 362.09375 L 145.027344 362.242188 L 145.414062 362.433594 L 145.773438 362.664062 L 146.113281 362.9375 L 146.429688 363.257812 L 146.71875 363.617188 L 146.984375 364.015625 L 147.226562 364.453125 L 147.441406 364.929688 L 147.632812 365.445312 L 147.800781 366 L 147.9375 366.597656 L 148.054688 367.230469 L 148.140625 367.902344 L 148.207031 368.617188 L 148.242188 369.367188 L 148.257812 370.160156 L 148.242188 370.949219 L 148.203125 371.695312 L 148.140625 372.40625 L 148.050781 373.078125 L 147.933594 373.710938 L 147.789062 374.308594 L 147.621094 374.863281 L 147.425781 375.382812 L 147.207031 375.863281 L 146.960938 376.304688 L 146.695312 376.703125 L 146.40625 377.054688 L 146.089844 377.371094 L 145.753906 377.640625 L 145.394531 377.871094 L 145.011719 378.058594 L 144.605469 378.203125 L 144.171875 378.308594 L 143.71875 378.371094 L 143.242188 378.390625 L 142.757812 378.371094 L 142.300781 378.308594 L 141.867188 378.203125 L 141.457031 378.058594 L 141.070312 377.871094 L 140.707031 377.640625 L 140.367188 377.371094 L 140.054688 377.054688 L 139.761719 376.703125 L 139.496094 376.304688 L 139.253906 375.863281 L 139.039062 375.382812 L 138.847656 374.863281 L 138.683594 374.304688 L 138.542969 373.707031 L 138.429688 373.070312 L 138.339844 372.394531 L 138.277344 371.679688 L 138.238281 370.929688 L 138.226562 370.136719 L 138.238281 369.34375 L 138.277344 368.59375 L 138.339844 367.878906 L 138.429688 367.207031 L 138.542969 366.574219 L 138.683594 365.976562 L 138.847656 365.421875 L 139.039062 364.90625 L 139.253906 364.429688 L 139.496094 363.992188 L 139.761719 363.597656 L 140.054688 363.242188 L 140.367188 362.925781 L 140.707031 362.65625 L 141.070312 362.425781 L 141.457031 362.238281 L 141.867188 362.09375 L 142.300781 361.988281 L 142.757812 361.925781 Z M 143.242188 363.054688 L 142.5625 363.128906 L 141.953125 363.339844 L 141.417969 363.695312 L 140.953125 364.1875 L 140.558594 364.828125 L 140.238281 365.605469 L 139.988281 366.527344 L 139.808594 367.585938 L 139.699219 368.792969 L 139.664062 370.136719 L 139.699219 371.484375 L 139.808594 372.695312 L 139.988281 373.757812 L 140.238281 374.683594 L 140.558594 375.464844 L 140.953125 376.105469 L 141.417969 376.601562 L 141.953125 376.957031 L 142.5625 377.167969 L 143.242188 377.242188 L 143.582031 377.222656 L 143.90625 377.171875 L 144.214844 377.085938 L 144.503906 376.964844 L 144.777344 376.808594 L 145.03125 376.617188 L 145.269531 376.394531 L 145.492188 376.132812 L 145.695312 375.839844 L 145.878906 375.511719 L 146.054688 375.148438 L 146.210938 374.746094 L 146.347656 374.304688 L 146.464844 373.828125 L 146.566406 373.3125 L 146.648438 372.757812 L 146.710938 372.164062 L 146.757812 371.535156 L 146.785156 370.867188 L 146.792969 370.160156 L 146.785156 369.453125 L 146.757812 368.785156 L 146.710938 368.15625 L 146.648438 367.566406 L 146.566406 367.011719 L 146.464844 366.496094 L 146.347656 366.015625 L 146.210938 365.574219 L 146.054688 365.171875 L 145.878906 364.808594 L 145.695312 364.476562 L 145.492188 364.179688 L 145.269531 363.914062 L 145.03125 363.6875 L 144.777344 363.496094 L 144.503906 363.335938 L 144.214844 363.214844 L 143.90625 363.125 L 143.582031 363.074219 Z M 143.242188 363.054688 "/>
<path fill-rule="nonzero" fill="rgb(10.196078%, 10.196078%, 10.196078%)" fill-opacity="1" d="M 387.667969 362.167969 L 387.667969 378.128906 L 386.277344 378.128906 L 386.277344 363.703125 L 382.339844 366.152344 L 381.691406 365.121094 L 386.46875 362.167969 Z M 387.667969 362.167969 "/>
</svg>
