<?xml version="1.0" encoding="UTF-8"?>
<svg xmlns="http://www.w3.org/2000/svg" xmlns:xlink="http://www.w3.org/1999/xlink" width="504" height="396" viewBox="0 0 504 396">
<defs>
<clipPath id="clip-0">
<path clip-rule="nonzero" d="M 68.628906 14.945312 L 489.054688 14.945312 L 489.054688 342.6875 L 68.628906 342.6875 Z M 68.628906 14.945312 "/>
</clipPath>
<clipPath id="clip-1">
<path clip-rule="nonzero" d="M 68.628906 326 L 489.054688 326 L 489.054688 330 L 68.628906 330 Z M 68.628906 326 "/>
</clipPath>
<clipPath id="clip-2">
<path clip-rule="nonzero" d="M 68.628906 267 L 489.054688 267 L 489.054688 271 L 68.628906 271 Z M 68.628906 267 "/>
</clipPath>
<clipPath id="clip-3">
<path clip-rule="nonzero" d="M 68.628906 208 L 489.054688 208 L 489.054688 212 L 68.628906 212 Z M 68.628906 208 "/>
</clipPath>
<clipPath id="clip-4">
<path clip-rule="nonzero" d="M 68.628906 150 L 489.054688 150 L 489.054688 153 L 68.628906 153 Z M 68.628906 150 "/>
</clipPath>
<clipPath id="clip-5">
<path clip-rule="nonzero" d="M 68.628906 91 L 489.054688 91 L 489.054688 95 L 68.628906 95 Z M 68.628906 91 "/>
</clipPath>
<clipPath id="clip-6">
<path clip-rule="nonzero" d="M 68.628906 32 L 489.054688 32 L 489.054688 36 L 68.628906 36 Z M 68.628906 32 "/>
</clipPath>
<clipPath id="clip-7">
<path clip-rule="nonzero" d="M 164 14.945312 L 168 14.945312 L 168 342.6875 L 164 342.6875 Z M 164 14.945312 "/>
</clipPath>
<clipPath id="clip-8">
<path clip-rule="nonzero" d="M 389 14.945312 L 393 14.945312 L 393 342.6875 L 389 342.6875 Z M 389 14.945312 "/>
</clipPath>
</defs>
<rect x="-50.4" y="-39.6" width="604.8" height="475.2" fill="rgb(100%, 100%, 100%)" fill-opacity="1"/>
<rect x="-50.4" y="-39.6" width="604.8" height="475.2" fill="rgb(95.294118%, 95.294118%, 95.294118%)" fill-opacity="1"/>
<path fill="none" stroke-width="2.909941" stroke-linecap="round" stroke-linejoin="round" stroke="rgb(95.294118%, 95.294118%, 95.294118%)" stroke-opacity="1" stroke-miterlimit="10" d="M 0 396 L 504 396 L 504 0 L 0 0 Z M 0 396 "/>
<g clip-path="url(#clip-0)">
<path fill-rule="nonzero" fill="rgb(95.294118%, 95.294118%, 95.294118%)" fill-opacity="1" stroke-width="2.909941" stroke-linecap="round" stroke-linejoin="round" stroke="rgb(95.294118%, 95.294118%, 95.294118%)" stroke-opacity="1" stroke-miterlimit="10" d="M 68.628906 342.6875 L 489.054688 342.6875 L 489.054688 14.945312 L 68.628906 14.945312 Z M 68.628906 342.6875 "/>
</g>
<g clip-path="url(#clip-1)">
<path fill="none" stroke-width="2.909941" stroke-linecap="butt" stroke-linejoin="round" stroke="rgb(92.156863%, 92.156863%, 92.156863%)" stroke-opacity="1" stroke-miterlimit="10" d="M 68.628906 327.789062 L 489.054688 327.789062 "/>
</g>
<g clip-path="url(#clip-2)">
<path fill="none" stroke-width="2.909941" stroke-linecap="butt" stroke-linejoin="round" stroke="rgb(92.156863%, 92.156863%, 92.156863%)" stroke-opacity="1" stroke-miterlimit="10" d="M 68.628906 269.023438 L 489.054688 269.023438 "/>
</g>
<g clip-path="url(#clip-3)">
<path fill="none" stroke-width="2.909941" stroke-linecap="butt" stroke-linejoin="round" stroke="rgb(92.156863%, 92.156863%, 92.156863%)" stroke-opacity="1" stroke-miterlimit="10" d="M 68.628906 210.253906 L 489.054688 210.253906 "/>
</g>
<g clip-path="url(#clip-4)">
<path fill="none" stroke-width="2.909941" stroke-linecap="butt" stroke-linejoin="round" stroke="rgb(92.156863%, 92.156863%, 92.156863%)" stroke-opacity="1" stroke-miterlimit="10" d="M 68.628906 151.488281 L 489.054688 151.488281 "/>
</g>
<g clip-path="url(#clip-5)">
<path fill="none" stroke-width="2.909941" stroke-linecap="butt" stroke-linejoin="round" stroke="rgb(92.156863%, 92.156863%, 92.156863%)" stroke-opacity="1" stroke-miterlimit="10" d="M 68.628906 92.722656 L 489.054688 92.722656 "/>
</g>
<g clip-path="url(#clip-6)">
<path fill="none" stroke-width="2.909941" stroke-linecap="butt" stroke-linejoin="round" stroke="rgb(92.156863%, 92.156863%, 92.156863%)" stroke-opacity="1" stroke-miterlimit="10" d="M 68.628906 33.953125 L 489.054688 33.953125 "/>
</g>
<g clip-path="url(#clip-7)">
<path fill="none" stroke-width="2.909941" stroke-linecap="butt" stroke-linejoin="round" stroke="rgb(92.156863%, 92.156863%, 92.156863%)" stroke-opacity="1" stroke-miterlimit="10" d="M 166.429688 342.6875 L 166.429688 14.945312 "/>
</g>
<g clip-path="url(#clip-8)">
<path fill="none" stroke-width="2.909941" stroke-linecap="butt" stroke-linejoin="round" stroke="rgb(92.156863%, 92.156863%, 92.156863%)" stroke-opacity="1" stroke-miterlimit="10" d="M 391.257812 342.6875 L 391.257812 14.945312 "/>
</g>
<path fill-rule="nonzero" fill="rgb(56.078431%, 16.470588%, 26.27451%)" fill-opacity="1" d="M 87.738281 327.789062 L 245.117188 327.789062 L 245.117188 38.070312 L 87.738281 38.070312 Z M 87.738281 327.789062 "/>
<path fill-rule="nonzero" fill="rgb(56.078431%, 16.470588%, 26.27451%)" fill-opacity="1" d="M 312.566406 327.789062 L 469.945312 327.789062 L 469.945312 29.839844 L 312.566406 29.839844 Z M 312.566406 327.789062 "/>
<path fill-rule="nonzero" fill="rgb(10.196078%, 10.196078%, 10.196078%)" fill-opacity="1" d="M 48.460938 337.351562 L 47.960938 337.328125 L 47.488281 337.253906 L 47.035156 337.132812 L 46.605469 336.960938 L 46.199219 336.742188 L 45.816406 336.472656 L 45.457031 336.15625 L 45.117188 335.792969 L 44.804688 335.378906 L 44.511719 334.914062 L 44.246094 334.40625 L 44.007812 333.859375 L 43.796875 333.269531 L 43.617188 332.640625 L 43.460938 331.96875 L 43.335938 331.257812 L 43.238281 330.503906 L 43.167969 329.710938 L 43.125 328.875 L 43.113281 328 L 43.125 327.128906 L 43.167969 326.300781 L 43.238281 325.515625 L 43.335938 324.769531 L 43.460938 324.066406 L 43.617188 323.402344 L 43.796875 322.78125 L 44.007812 322.203125 L 44.246094 321.664062 L 44.511719 321.167969 L 44.804688 320.714844 L 45.117188 320.308594 L 45.457031 319.953125 L 45.816406 319.644531 L 46.199219 319.382812 L 46.605469 319.167969 L 47.035156 319 L 47.488281 318.882812 L 47.960938 318.8125 L 48.460938 318.785156 L 48.964844 318.8125 L 49.441406 318.882812 L 49.898438 319 L 50.328125 319.167969 L 50.734375 319.382812 L 51.117188 319.644531 L 51.476562 319.953125 L 51.8125 320.308594 L 52.121094 320.714844 L 52.40625 321.167969 L 52.675781 321.664062 L 52.910156 322.203125 L 53.121094 322.78125 L 53.304688 323.402344 L 53.457031 324.066406 L 53.582031 324.769531 L 53.683594 325.515625 L 53.753906 326.300781 L 53.792969 327.128906 L 53.808594 328 L 53.792969 328.875 L 53.753906 329.710938 L 53.683594 330.503906 L 53.582031 331.257812 L 53.457031 331.96875 L 53.304688 332.640625 L 53.121094 333.269531 L 52.910156 333.859375 L 52.675781 334.40625 L 52.40625 334.914062 L 52.121094 335.378906 L 51.8125 335.792969 L 51.476562 336.15625 L 51.117188 336.472656 L 50.734375 336.742188 L 50.328125 336.960938 L 49.898438 337.132812 L 49.441406 337.253906 L 48.964844 337.328125 Z M 48.460938 336.285156 L 48.828125 336.265625 L 49.179688 336.203125 L 49.515625 336.097656 L 49.835938 335.949219 L 50.140625 335.761719 L 50.429688 335.53125 L 50.703125 335.257812 L 50.960938 334.941406 L 51.203125 334.585938 L 51.429688 334.1875 L 51.640625 333.746094 L 51.832031 333.265625 L 52 332.75 L 52.144531 332.1875 L 52.269531 331.589844 L 52.367188 330.953125 L 52.445312 330.273438 L 52.503906 329.554688 L 52.535156 328.796875 L 52.546875 328 L 52.535156 327.203125 L 52.503906 326.445312 L 52.445312 325.734375 L 52.367188 325.058594 L 52.269531 324.429688 L 52.144531 323.839844 L 52 323.292969 L 51.832031 322.785156 L 51.640625 322.320312 L 51.429688 321.894531 L 51.203125 321.507812 L 50.960938 321.160156 L 50.703125 320.851562 L 50.429688 320.585938 L 50.140625 320.363281 L 49.835938 320.179688 L 49.515625 320.035156 L 49.179688 319.933594 L 48.828125 319.871094 L 48.460938 319.851562 L 48.097656 319.871094 L 47.75 319.933594 L 47.417969 320.035156 L 47.097656 320.179688 L 46.792969 320.363281 L 46.503906 320.585938 L 46.230469 320.851562 L 45.96875 321.160156 L 45.722656 321.507812 L 45.492188 321.894531 L 45.277344 322.320312 L 45.089844 322.785156 L 44.921875 323.292969 L 44.773438 323.839844 L 44.652344 324.429688 L 44.550781 325.058594 L 44.472656 325.734375 L 44.417969 326.445312 L 44.382812 327.203125 L 44.371094 328 L 44.382812 328.796875 L 44.417969 329.554688 L 44.472656 330.273438 L 44.550781 330.953125 L 44.652344 331.589844 L 44.773438 332.1875 L 44.921875 332.75 L 45.089844 333.265625 L 45.277344 333.746094 L 45.492188 334.1875 L 45.722656 334.585938 L 45.96875 334.941406 L 46.230469 335.257812 L 46.503906 335.53125 L 46.792969 335.761719 L 47.097656 335.949219 L 47.417969 336.097656 L 47.75 336.203125 L 48.097656 336.265625 Z M 48.460938 336.285156 "/>
<path fill-rule="nonzero" fill="rgb(10.196078%, 10.196078%, 10.196078%)" fill-opacity="1" d="M 17.296875 278.25 L 17.296875 277.15625 L 21.496094 277.15625 L 21.496094 262.316406 L 18.304688 262.316406 L 18.304688 261.476562 L 18.519531 261.4375 L 18.730469 261.394531 L 18.9375 261.351562 L 19.140625 261.304688 L 19.339844 261.257812 L 19.535156 261.210938 L 19.722656 261.160156 L 19.90625 261.109375 L 20.089844 261.054688 L 20.265625 261 L 20.433594 260.945312 L 20.601562 260.886719 L 20.761719 260.824219 L 20.917969 260.761719 L 21.070312 260.699219 L 21.214844 260.632812 L 21.355469 260.566406 L 21.492188 260.5 L 21.621094 260.429688 L 21.746094 260.355469 L 22.757812 260.355469 L 22.757812 277.15625 L 26.648438 277.15625 L 26.648438 278.25 Z M 17.296875 278.25 "/>
<path fill-rule="nonzero" fill="rgb(10.196078%, 10.196078%, 10.196078%)" fill-opacity="1" d="M 35.046875 278.585938 L 34.550781 278.558594 L 34.074219 278.488281 L 33.621094 278.363281 L 33.191406 278.195312 L 32.785156 277.976562 L 32.402344 277.707031 L 32.042969 277.390625 L 31.707031 277.023438 L 31.390625 276.609375 L 31.101562 276.148438 L 30.832031 275.640625 L 30.597656 275.09375 L 30.386719 274.503906 L 30.203125 273.871094 L 30.050781 273.203125 L 29.925781 272.488281 L 29.824219 271.734375 L 29.757812 270.941406 L 29.714844 270.109375 L 29.699219 269.230469 L 29.714844 268.363281 L 29.757812 267.535156 L 29.824219 266.746094 L 29.925781 266.003906 L 30.050781 265.296875 L 30.203125 264.636719 L 30.386719 264.015625 L 30.597656 263.433594 L 30.832031 262.898438 L 31.101562 262.398438 L 31.390625 261.949219 L 31.707031 261.542969 L 32.042969 261.1875 L 32.402344 260.878906 L 32.785156 260.617188 L 33.191406 260.402344 L 33.621094 260.234375 L 34.074219 260.117188 L 34.550781 260.042969 L 35.046875 260.019531 L 35.550781 260.042969 L 36.03125 260.117188 L 36.484375 260.234375 L 36.917969 260.402344 L 37.324219 260.617188 L 37.707031 260.878906 L 38.0625 261.1875 L 38.398438 261.542969 L 38.710938 261.949219 L 38.996094 262.398438 L 39.261719 262.898438 L 39.5 263.433594 L 39.710938 264.015625 L 39.890625 264.636719 L 40.046875 265.296875 L 40.171875 266.003906 L 40.269531 266.746094 L 40.339844 267.535156 L 40.382812 268.363281 L 40.394531 269.230469 L 40.382812 270.109375 L 40.339844 270.941406 L 40.269531 271.734375 L 40.171875 272.488281 L 40.046875 273.203125 L 39.890625 273.871094 L 39.710938 274.503906 L 39.5 275.09375 L 39.261719 275.640625 L 38.996094 276.148438 L 38.710938 276.609375 L 38.398438 277.023438 L 38.0625 277.390625 L 37.707031 277.707031 L 37.324219 277.976562 L 36.917969 278.195312 L 36.484375 278.363281 L 36.03125 278.488281 L 35.550781 278.558594 Z M 35.046875 277.519531 L 35.414062 277.5 L 35.765625 277.4375 L 36.101562 277.332031 L 36.421875 277.183594 L 36.726562 276.996094 L 37.015625 276.765625 L 37.289062 276.492188 L 37.546875 276.175781 L 37.789062 275.820312 L 38.015625 275.421875 L 38.230469 274.980469 L 38.417969 274.5 L 38.585938 273.980469 L 38.734375 273.421875 L 38.855469 272.824219 L 38.957031 272.183594 L 39.035156 271.507812 L 39.089844 270.789062 L 39.125 270.03125 L 39.136719 269.230469 L 39.125 268.433594 L 39.089844 267.679688 L 39.035156 266.964844 L 38.957031 266.292969 L 38.855469 265.664062 L 38.734375 265.074219 L 38.585938 264.523438 L 38.417969 264.015625 L 38.230469 263.550781 L 38.015625 263.128906 L 37.789062 262.738281 L 37.546875 262.390625 L 37.289062 262.085938 L 37.015625 261.820312 L 36.726562 261.59375 L 36.421875 261.410156 L 36.101562 261.269531 L 35.765625 261.167969 L 35.414062 261.105469 L 35.046875 261.085938 L 34.6875 261.105469 L 34.335938 261.167969 L 34.003906 261.269531 L 33.6875 261.410156 L 33.382812 261.59375 L 33.09375 261.820312 L 32.816406 262.085938 L 32.558594 262.390625 L 32.3125 262.738281 L 32.078125 263.128906 L 31.867188 263.550781 L 31.675781 264.015625 L 31.507812 264.523438 L 31.363281 265.074219 L 31.238281 265.664062 L 31.140625 266.292969 L 31.0625 266.964844 L 31.003906 267.679688 L 30.972656 268.433594 L 30.960938 269.230469 L 30.972656 270.03125 L 31.003906 270.789062 L 31.0625 271.507812 L 31.140625 272.183594 L 31.238281 272.824219 L 31.363281 273.421875 L 31.507812 273.980469 L 31.675781 274.5 L 31.867188 274.980469 L 32.078125 275.421875 L 32.3125 275.820312 L 32.558594 276.175781 L 32.816406 276.492188 L 33.09375 276.765625 L 33.382812 276.996094 L 33.6875 277.183594 L 34.003906 277.332031 L 34.335938 277.4375 L 34.6875 277.5 Z M 35.046875 277.519531 "/>
<path fill-rule="nonzero" fill="rgb(10.196078%, 10.196078%, 10.196078%)" fill-opacity="1" d="M 48.460938 278.585938 L 47.960938 278.558594 L 47.488281 278.488281 L 47.035156 278.363281 L 46.605469 278.195312 L 46.199219 277.976562 L 45.816406 277.707031 L 45.457031 277.390625 L 45.117188 277.023438 L 44.804688 276.609375 L 44.511719 276.148438 L 44.246094 275.640625 L 44.007812 275.09375 L 43.796875 274.503906 L 43.617188 273.871094 L 43.460938 273.203125 L 43.335938 272.488281 L 43.238281 271.734375 L 43.167969 270.941406 L 43.125 270.109375 L 43.113281 269.230469 L 43.125 268.363281 L 43.167969 267.535156 L 43.238281 266.746094 L 43.335938 266.003906 L 43.460938 265.296875 L 43.617188 264.636719 L 43.796875 264.015625 L 44.007812 263.433594 L 44.246094 262.898438 L 44.511719 262.398438 L 44.804688 261.949219 L 45.117188 261.542969 L 45.457031 261.1875 L 45.816406 260.878906 L 46.199219 260.617188 L 46.605469 260.402344 L 47.035156 260.234375 L 47.488281 260.117188 L 47.960938 260.042969 L 48.460938 260.019531 L 48.964844 260.042969 L 49.441406 260.117188 L 49.898438 260.234375 L 50.328125 260.402344 L 50.734375 260.617188 L 51.117188 260.878906 L 51.476562 261.1875 L 51.8125 261.542969 L 52.121094 261.949219 L 52.40625 262.398438 L 52.675781 262.898438 L 52.910156 263.433594 L 53.121094 264.015625 L 53.304688 264.636719 L 53.457031 265.296875 L 53.582031 266.003906 L 53.683594 266.746094 L 53.753906 267.535156 L 53.792969 268.363281 L 53.808594 269.230469 L 53.792969 270.109375 L 53.753906 270.941406 L 53.683594 271.734375 L 53.582031 272.488281 L 53.457031 273.203125 L 53.304688 273.871094 L 53.121094 274.503906 L 52.910156 275.09375 L 52.675781 275.640625 L 52.40625 276.148438 L 52.121094 276.609375 L 51.8125 277.023438 L 51.476562 277.390625 L 51.117188 277.707031 L 50.734375 277.976562 L 50.328125 278.195312 L 49.898438 278.363281 L 49.441406 278.488281 L 48.964844 278.558594 Z M 48.460938 277.519531 L 48.828125 277.5 L 49.179688 277.4375 L 49.515625 277.332031 L 49.835938 277.183594 L 50.140625 276.996094 L 50.429688 276.765625 L 50.703125 276.492188 L 50.960938 276.175781 L 51.203125 275.820312 L 51.429688 275.421875 L 51.640625 274.980469 L 51.832031 274.5 L 52 273.980469 L 52.144531 273.421875 L 52.269531 272.824219 L 52.367188 272.183594 L 52.445312 271.507812 L 52.503906 270.789062 L 52.535156 270.03125 L 52.546875 269.230469 L 52.535156 268.433594 L 52.503906 267.679688 L 52.445312 266.964844 L 52.367188 266.292969 L 52.269531 265.664062 L 52.144531 265.074219 L 52 264.523438 L 51.832031 264.015625 L 51.640625 263.550781 L 51.429688 263.128906 L 51.203125 262.738281 L 50.960938 262.390625 L 50.703125 262.085938 L 50.429688 261.820312 L 50.140625 261.59375 L 49.835938 261.410156 L 49.515625 261.269531 L 49.179688 261.167969 L 48.828125 261.105469 L 48.460938 261.085938 L 48.097656 261.105469 L 47.75 261.167969 L 47.417969 261.269531 L 47.097656 261.410156 L 46.792969 261.59375 L 46.503906 261.820312 L 46.230469 262.085938 L 45.96875 262.390625 L 45.722656 262.738281 L 45.492188 263.128906 L 45.277344 263.550781 L 45.089844 264.015625 L 44.921875 264.523438 L 44.773438 265.074219 L 44.652344 265.664062 L 44.550781 266.292969 L 44.472656 266.964844 L 44.417969 267.679688 L 44.382812 268.433594 L 44.371094 269.230469 L 44.382812 270.03125 L 44.417969 270.789062 L 44.472656 271.507812 L 44.550781 272.183594 L 44.652344 272.824219 L 44.773438 273.421875 L 44.921875 273.980469 L 45.089844 274.5 L 45.277344 274.980469 L 45.492188 275.421875 L 45.722656 275.820312 L 45.96875 276.175781 L 46.230469 276.492188 L 46.503906 276.765625 L 46.792969 276.996094 L 47.097656 277.183594 L 47.417969 277.332031 L 47.75 277.4375 L 48.097656 277.5 Z M 48.460938 277.519531 "/>
<path fill-rule="nonzero" fill="rgb(10.196078%, 10.196078%, 10.196078%)" fill-opacity="1" d="M 16.09375 219.480469 L 16.09375 218.699219 L 16.671875 218.105469 L 17.230469 217.53125 L 17.769531 216.972656 L 18.289062 216.429688 L 18.785156 215.90625 L 19.265625 215.394531 L 19.726562 214.902344 L 20.167969 214.421875 L 20.589844 213.960938 L 20.992188 213.515625 L 21.375 213.078125 L 21.738281 212.652344 L 22.078125 212.234375 L 22.402344 211.824219 L 22.707031 211.425781 L 22.992188 211.035156 L 23.253906 210.652344 L 23.5 210.28125 L 23.726562 209.921875 L 23.933594 209.570312 L 24.117188 209.222656 L 24.285156 208.882812 L 24.433594 208.546875 L 24.558594 208.210938 L 24.667969 207.882812 L 24.753906 207.558594 L 24.824219 207.234375 L 24.871094 206.917969 L 24.902344 206.601562 L 24.910156 206.292969 L 24.902344 205.960938 L 24.875 205.644531 L 24.828125 205.332031 L 24.757812 205.035156 L 24.675781 204.746094 L 24.570312 204.46875 L 24.445312 204.203125 L 24.300781 203.945312 L 24.140625 203.699219 L 23.960938 203.464844 L 23.765625 203.246094 L 23.546875 203.050781 L 23.308594 202.878906 L 23.046875 202.730469 L 22.761719 202.605469 L 22.457031 202.5 L 22.132812 202.421875 L 21.78125 202.363281 L 21.414062 202.328125 L 21.019531 202.316406 L 20.78125 202.324219 L 20.542969 202.34375 L 20.308594 202.378906 L 20.074219 202.425781 L 19.84375 202.484375 L 19.617188 202.558594 L 19.390625 202.648438 L 19.164062 202.746094 L 18.945312 202.863281 L 18.722656 202.988281 L 18.515625 203.128906 L 18.308594 203.273438 L 18.109375 203.421875 L 17.914062 203.582031 L 17.722656 203.746094 L 17.539062 203.917969 L 17.359375 204.09375 L 17.183594 204.28125 L 17.011719 204.472656 L 16.847656 204.667969 L 16.035156 203.886719 L 16.238281 203.664062 L 16.449219 203.453125 L 16.660156 203.246094 L 16.878906 203.046875 L 17.101562 202.855469 L 17.328125 202.671875 L 17.558594 202.496094 L 17.792969 202.328125 L 18.03125 202.164062 L 18.277344 202.007812 L 18.527344 201.867188 L 18.785156 201.738281 L 19.050781 201.625 L 19.324219 201.527344 L 19.605469 201.441406 L 19.894531 201.375 L 20.191406 201.320312 L 20.496094 201.285156 L 20.8125 201.261719 L 21.132812 201.253906 L 21.601562 201.265625 L 22.050781 201.308594 L 22.476562 201.375 L 22.882812 201.472656 L 23.265625 201.597656 L 23.628906 201.746094 L 23.96875 201.925781 L 24.285156 202.132812 L 24.582031 202.363281 L 24.855469 202.625 L 25.105469 202.910156 L 25.328125 203.210938 L 25.527344 203.53125 L 25.699219 203.867188 L 25.84375 204.222656 L 25.960938 204.59375 L 26.054688 204.984375 L 26.121094 205.394531 L 26.160156 205.820312 L 26.171875 206.265625 L 26.160156 206.617188 L 26.128906 206.972656 L 26.078125 207.328125 L 26.007812 207.6875 L 25.914062 208.042969 L 25.800781 208.402344 L 25.664062 208.761719 L 25.507812 209.125 L 25.332031 209.484375 L 25.136719 209.847656 L 24.925781 210.214844 L 24.699219 210.589844 L 24.457031 210.964844 L 24.195312 211.351562 L 23.917969 211.738281 L 23.625 212.132812 L 23.3125 212.535156 L 22.984375 212.941406 L 22.640625 213.351562 L 22.28125 213.769531 L 21.910156 214.195312 L 21.523438 214.628906 L 21.128906 215.078125 L 20.714844 215.535156 L 20.292969 216.003906 L 19.855469 216.480469 L 19.402344 216.96875 L 18.9375 217.46875 L 18.460938 217.980469 L 17.96875 218.5 L 18.113281 218.492188 L 18.261719 218.480469 L 18.40625 218.46875 L 19 218.4375 L 19.152344 218.429688 L 19.300781 218.421875 L 19.453125 218.417969 L 19.609375 218.40625 L 19.761719 218.398438 L 19.917969 218.390625 L 20.222656 218.375 L 20.371094 218.371094 L 20.523438 218.367188 L 20.671875 218.363281 L 27.066406 218.363281 L 27.066406 219.480469 Z M 16.09375 219.480469 "/>
<path fill-rule="nonzero" fill="rgb(10.196078%, 10.196078%, 10.196078%)" fill-opacity="1" d="M 35.046875 219.816406 L 34.550781 219.792969 L 34.074219 219.71875 L 33.621094 219.597656 L 33.191406 219.425781 L 32.785156 219.207031 L 32.402344 218.941406 L 32.042969 218.625 L 31.707031 218.257812 L 31.390625 217.84375 L 31.101562 217.382812 L 30.832031 216.875 L 30.597656 216.324219 L 30.386719 215.734375 L 30.203125 215.105469 L 30.050781 214.433594 L 29.925781 213.722656 L 29.824219 212.96875 L 29.757812 212.175781 L 29.714844 211.339844 L 29.699219 210.464844 L 29.714844 209.597656 L 29.757812 208.765625 L 29.824219 207.980469 L 29.925781 207.234375 L 30.050781 206.53125 L 30.203125 205.867188 L 30.386719 205.246094 L 30.597656 204.667969 L 30.832031 204.128906 L 31.101562 203.632812 L 31.390625 203.179688 L 31.707031 202.777344 L 32.042969 202.417969 L 32.402344 202.109375 L 32.785156 201.847656 L 33.191406 201.632812 L 33.621094 201.46875 L 34.074219 201.347656 L 34.550781 201.277344 L 35.046875 201.253906 L 35.550781 201.277344 L 36.03125 201.347656 L 36.484375 201.46875 L 36.917969 201.632812 L 37.324219 201.847656 L 37.707031 202.109375 L 38.0625 202.417969 L 38.398438 202.777344 L 38.710938 203.179688 L 38.996094 203.632812 L 39.261719 204.128906 L 39.5 204.667969 L 39.710938 205.246094 L 39.890625 205.867188 L 40.046875 206.53125 L 40.171875 207.234375 L 40.269531 207.980469 L 40.339844 208.765625 L 40.382812 209.597656 L 40.394531 210.464844 L 40.382812 211.339844 L 40.339844 212.175781 L 40.269531 212.96875 L 40.171875 213.722656 L 40.046875 214.433594 L 39.890625 215.105469 L 39.710938 215.734375 L 39.5 216.324219 L 39.261719 216.875 L 38.996094 217.382812 L 38.710938 217.84375 L 38.398438 218.257812 L 38.0625 218.625 L 37.707031 218.941406 L 37.324219 219.207031 L 36.917969 219.425781 L 36.484375 219.597656 L 36.03125 219.71875 L 35.550781 219.792969 Z M 35.046875 218.753906 L 35.414062 218.734375 L 35.765625 218.667969 L 36.101562 218.566406 L 36.421875 218.417969 L 36.726562 218.226562 L 37.015625 217.996094 L 37.289062 217.722656 L 37.546875 217.410156 L 37.789062 217.050781 L 38.015625 216.652344 L 38.230469 216.214844 L 38.417969 215.734375 L 38.585938 215.214844 L 38.734375 214.65625 L 38.855469 214.054688 L 38.957031 213.417969 L 39.035156 212.738281 L 39.089844 212.019531 L 39.125 211.261719 L 39.136719 210.464844 L 39.125 209.667969 L 39.089844 208.914062 L 39.035156 208.199219 L 38.957031 207.527344 L 38.855469 206.894531 L 38.734375 206.304688 L 38.585938 205.757812 L 38.417969 205.25 L 38.230469 204.785156 L 38.015625 204.363281 L 37.789062 203.972656 L 37.546875 203.625 L 37.289062 203.320312 L 37.015625 203.054688 L 36.726562 202.828125 L 36.421875 202.644531 L 36.101562 202.5 L 35.765625 202.398438 L 35.414062 202.339844 L 35.046875 202.316406 L 34.6875 202.339844 L 34.335938 202.398438 L 34.003906 202.5 L 33.6875 202.644531 L 33.382812 202.828125 L 33.09375 203.054688 L 32.816406 203.320312 L 32.558594 203.625 L 32.3125 203.972656 L 32.078125 204.363281 L 31.867188 204.785156 L 31.675781 205.25 L 31.507812 205.757812 L 31.363281 206.304688 L 31.238281 206.894531 L 31.140625 207.527344 L 31.0625 208.199219 L 31.003906 208.914062 L 30.972656 209.667969 L 30.960938 210.464844 L 30.972656 211.261719 L 31.003906 212.019531 L 31.0625 212.738281 L 31.140625 213.417969 L 31.238281 214.054688 L 31.363281 214.65625 L 31.507812 215.214844 L 31.675781 215.734375 L 31.867188 216.214844 L 32.078125 216.652344 L 32.3125 217.050781 L 32.558594 217.410156 L 32.816406 217.722656 L 33.09375 217.996094 L 33.382812 218.226562 L 33.6875 218.417969 L 34.003906 218.566406 L 34.335938 218.667969 L 34.6875 218.734375 Z M 35.046875 218.753906 "/>
<path fill-rule="nonzero" fill="rgb(10.196078%, 10.196078%, 10.196078%)" fill-opacity="1" d="M 48.460938 219.816406 L 47.960938 219.792969 L 47.488281 219.71875 L 47.035156 219.597656 L 46.605469 219.425781 L 46.199219 219.207031 L 45.816406 218.941406 L 45.457031 218.625 L 45.117188 218.257812 L 44.804688 217.84375 L 44.511719 217.382812 L 44.246094 216.875 L 44.007812 216.324219 L 43.796875 215.734375 L 43.617188 215.105469 L 43.460938 214.433594 L 43.335938 213.722656 L 43.238281 212.96875 L 43.167969 212.175781 L 43.125 211.339844 L 43.113281 210.464844 L 43.125 209.597656 L 43.167969 208.765625 L 43.238281 207.980469 L 43.335938 207.234375 L 43.460938 206.53125 L 43.617188 205.867188 L 43.796875 205.246094 L 44.007812 204.667969 L 44.246094 204.128906 L 44.511719 203.632812 L 44.804688 203.179688 L 45.117188 202.777344 L 45.457031 202.417969 L 45.816406 202.109375 L 46.199219 201.847656 L 46.605469 201.632812 L 47.035156 201.46875 L 47.488281 201.347656 L 47.960938 201.277344 L 48.460938 201.253906 L 48.964844 201.277344 L 49.441406 201.347656 L 49.898438 201.46875 L 50.328125 201.632812 L 50.734375 201.847656 L 51.117188 202.109375 L 51.476562 202.417969 L 51.8125 202.777344 L 52.121094 203.179688 L 52.40625 203.632812 L 52.675781 204.128906 L 52.910156 204.667969 L 53.121094 205.246094 L 53.304688 205.867188 L 53.457031 206.53125 L 53.582031 207.234375 L 53.683594 207.980469 L 53.753906 208.765625 L 53.792969 209.597656 L 53.808594 210.464844 L 53.792969 211.339844 L 53.753906 212.175781 L 53.683594 212.96875 L 53.582031 213.722656 L 53.457031 214.433594 L 53.304688 215.105469 L 53.121094 215.734375 L 52.910156 216.324219 L 52.675781 216.875 L 52.40625 217.382812 L 52.121094 217.84375 L 51.8125 218.257812 L 51.476562 218.625 L 51.117188 218.941406 L 50.734375 219.207031 L 50.328125 219.425781 L 49.898438 219.597656 L 49.441406 219.71875 L 48.964844 219.792969 Z M 48.460938 218.753906 L 48.828125 218.734375 L 49.179688 218.667969 L 49.515625 218.566406 L 49.835938 218.417969 L 50.140625 218.226562 L 50.429688 217.996094 L 50.703125 217.722656 L 50.960938 217.410156 L 51.203125 217.050781 L 51.429688 216.652344 L 51.640625 216.214844 L 51.832031 215.734375 L 52 215.214844 L 52.144531 214.65625 L 52.269531 214.054688 L 52.367188 213.417969 L 52.445312 212.738281 L 52.503906 212.019531 L 52.535156 211.261719 L 52.546875 210.464844 L 52.535156 209.667969 L 52.503906 208.914062 L 52.445312 208.199219 L 52.367188 207.527344 L 52.269531 206.894531 L 52.144531 206.304688 L 52 205.757812 L 51.832031 205.25 L 51.640625 204.785156 L 51.429688 204.363281 L 51.203125 203.972656 L 50.960938 203.625 L 50.703125 203.320312 L 50.429688 203.054688 L 50.140625 202.828125 L 49.835938 202.644531 L 49.515625 202.5 L 49.179688 202.398438 L 48.828125 202.339844 L 48.460938 202.316406 L 48.097656 202.339844 L 47.75 202.398438 L 47.417969 202.5 L 47.097656 202.644531 L 46.792969 202.828125 L 46.503906 203.054688 L 46.230469 203.320312 L 45.96875 203.625 L 45.722656 203.972656 L 45.492188 204.363281 L 45.277344 204.785156 L 45.089844 205.25 L 44.921875 205.757812 L 44.773438 206.304688 L 44.652344 206.894531 L 44.550781 207.527344 L 44.472656 208.199219 L 44.417969 208.914062 L 44.382812 209.667969 L 44.371094 210.464844 L 44.382812 211.261719 L 44.417969 212.019531 L 44.472656 212.738281 L 44.550781 213.417969 L 44.652344 214.054688 L 44.773438 214.65625 L 44.921875 215.214844 L 45.089844 215.734375 L 45.277344 216.214844 L 45.492188 216.652344 L 45.722656 217.050781 L 45.96875 217.410156 L 46.230469 217.722656 L 46.503906 217.996094 L 46.792969 218.226562 L 47.097656 218.417969 L 47.417969 218.566406 L 47.75 218.667969 L 48.097656 218.734375 Z M 48.460938 218.753906 "/>
<path fill-rule="nonzero" fill="rgb(10.196078%, 10.196078%, 10.196078%)" fill-opacity="1" d="M 21.441406 161.050781 L 21.15625 161.046875 L 20.882812 161.035156 L 20.617188 161.019531 L 20.355469 160.992188 L 20.101562 160.960938 L 19.855469 160.917969 L 19.617188 160.871094 L 19.386719 160.816406 L 19.164062 160.753906 L 18.949219 160.6875 L 18.738281 160.605469 L 18.535156 160.523438 L 18.335938 160.433594 L 18.140625 160.339844 L 17.953125 160.246094 L 17.59375 160.042969 L 17.257812 159.824219 L 17.101562 159.707031 L 16.949219 159.589844 L 16.660156 159.355469 L 16.523438 159.234375 L 16.386719 159.117188 L 16.253906 159 L 15.996094 158.765625 L 15.875 158.648438 L 15.757812 158.53125 L 16.484375 157.664062 L 16.648438 157.835938 L 16.820312 158.003906 L 17 158.171875 L 17.1875 158.335938 L 17.378906 158.496094 L 17.578125 158.652344 L 17.785156 158.808594 L 18 158.960938 L 18.21875 159.113281 L 18.445312 159.257812 L 18.679688 159.390625 L 18.929688 159.511719 L 19.195312 159.617188 L 19.472656 159.707031 L 19.765625 159.785156 L 20.074219 159.847656 L 20.394531 159.894531 L 20.730469 159.929688 L 21.078125 159.953125 L 21.441406 159.957031 L 21.796875 159.949219 L 22.140625 159.917969 L 22.472656 159.863281 L 22.792969 159.789062 L 23.097656 159.691406 L 23.390625 159.574219 L 23.671875 159.4375 L 23.941406 159.277344 L 24.195312 159.097656 L 24.4375 158.894531 L 24.660156 158.667969 L 24.859375 158.429688 L 25.035156 158.175781 L 25.1875 157.910156 L 25.316406 157.628906 L 25.421875 157.332031 L 25.507812 157.023438 L 25.566406 156.699219 L 25.601562 156.363281 L 25.613281 156.011719 L 25.597656 155.648438 L 25.554688 155.300781 L 25.480469 154.964844 L 25.378906 154.644531 L 25.246094 154.335938 L 25.085938 154.046875 L 24.898438 153.765625 L 24.679688 153.5 L 24.433594 153.25 L 24.15625 153.015625 L 23.851562 152.796875 L 23.507812 152.601562 L 23.125 152.429688 L 22.703125 152.28125 L 22.246094 152.152344 L 21.746094 152.050781 L 21.210938 151.96875 L 20.632812 151.914062 L 20.019531 151.878906 L 19.367188 151.867188 L 19.367188 150.773438 L 19.773438 150.769531 L 20.164062 150.753906 L 20.535156 150.730469 L 20.890625 150.695312 L 21.230469 150.648438 L 21.550781 150.59375 L 21.855469 150.527344 L 22.144531 150.453125 L 22.417969 150.367188 L 22.671875 150.269531 L 22.910156 150.160156 L 23.136719 150.042969 L 23.347656 149.917969 L 23.546875 149.785156 L 23.730469 149.648438 L 23.898438 149.5 L 24.054688 149.347656 L 24.195312 149.1875 L 24.324219 149.019531 L 24.4375 148.84375 L 24.535156 148.660156 L 24.628906 148.476562 L 24.707031 148.289062 L 24.777344 148.097656 L 24.835938 147.90625 L 24.882812 147.707031 L 24.921875 147.507812 L 24.945312 147.300781 L 24.960938 147.09375 L 24.96875 146.882812 L 24.957031 146.585938 L 24.929688 146.300781 L 24.878906 146.03125 L 24.8125 145.773438 L 24.722656 145.523438 L 24.613281 145.289062 L 24.488281 145.066406 L 24.339844 144.859375 L 24.175781 144.660156 L 23.988281 144.476562 L 23.785156 144.300781 L 23.570312 144.140625 L 23.339844 144.003906 L 23.097656 143.882812 L 22.839844 143.78125 L 22.570312 143.699219 L 22.285156 143.632812 L 21.988281 143.585938 L 21.679688 143.558594 L 21.355469 143.550781 L 21.109375 143.554688 L 20.871094 143.574219 L 20.632812 143.605469 L 20.398438 143.644531 L 20.164062 143.699219 L 19.9375 143.761719 L 19.714844 143.839844 L 19.492188 143.925781 L 19.273438 144.027344 L 19.058594 144.136719 L 18.855469 144.253906 L 18.65625 144.371094 L 18.460938 144.496094 L 18.269531 144.628906 L 18.085938 144.761719 L 17.90625 144.902344 L 17.734375 145.046875 L 17.5625 145.195312 L 17.398438 145.351562 L 17.238281 145.511719 L 16.511719 144.671875 L 16.699219 144.492188 L 16.890625 144.324219 L 17.089844 144.15625 L 17.292969 143.996094 L 17.5 143.835938 L 17.710938 143.6875 L 17.929688 143.539062 L 18.152344 143.398438 L 18.378906 143.261719 L 18.613281 143.128906 L 18.855469 143.007812 L 19.105469 142.898438 L 19.363281 142.800781 L 19.628906 142.71875 L 19.898438 142.648438 L 20.175781 142.589844 L 20.460938 142.542969 L 20.753906 142.511719 L 21.050781 142.492188 L 21.355469 142.488281 L 21.632812 142.492188 L 21.902344 142.507812 L 22.167969 142.53125 L 22.425781 142.566406 L 22.679688 142.613281 L 22.925781 142.667969 L 23.164062 142.734375 L 23.398438 142.808594 L 23.625 142.894531 L 23.847656 142.992188 L 24.066406 143.097656 L 24.277344 143.210938 L 24.476562 143.335938 L 24.667969 143.46875 L 24.847656 143.613281 L 25.019531 143.765625 L 25.183594 143.929688 L 25.335938 144.101562 L 25.476562 144.285156 L 25.613281 144.476562 L 25.734375 144.667969 L 25.84375 144.871094 L 25.941406 145.082031 L 26.023438 145.304688 L 26.09375 145.53125 L 26.152344 145.769531 L 26.199219 146.011719 L 26.230469 146.265625 L 26.25 146.527344 L 26.257812 146.796875 L 26.246094 147.144531 L 26.214844 147.476562 L 26.167969 147.796875 L 26.097656 148.101562 L 26.011719 148.394531 L 25.902344 148.671875 L 25.777344 148.9375 L 25.628906 149.191406 L 25.460938 149.429688 L 25.277344 149.65625 L 25.082031 149.863281 L 24.875 150.058594 L 24.65625 150.242188 L 24.429688 150.417969 L 24.191406 150.578125 L 23.941406 150.730469 L 23.683594 150.871094 L 23.414062 151 L 23.132812 151.117188 L 22.839844 151.222656 L 22.839844 151.335938 L 23.0625 151.382812 L 23.277344 151.441406 L 23.492188 151.507812 L 23.699219 151.582031 L 23.902344 151.664062 L 24.101562 151.753906 L 24.296875 151.855469 L 24.488281 151.960938 L 24.675781 152.078125 L 24.855469 152.203125 L 25.039062 152.328125 L 25.210938 152.460938 L 25.378906 152.601562 L 25.535156 152.75 L 25.6875 152.902344 L 25.832031 153.0625 L 25.972656 153.230469 L 26.101562 153.402344 L 26.222656 153.582031 L 26.339844 153.769531 L 26.445312 153.964844 L 26.542969 154.164062 L 26.625 154.371094 L 26.699219 154.582031 L 26.761719 154.800781 L 26.808594 155.023438 L 26.847656 155.253906 L 26.878906 155.492188 L 26.894531 155.734375 L 26.898438 155.984375 L 26.894531 156.285156 L 26.871094 156.582031 L 26.835938 156.871094 L 26.785156 157.152344 L 26.71875 157.425781 L 26.636719 157.691406 L 26.542969 157.945312 L 26.433594 158.195312 L 26.308594 158.4375 L 26.171875 158.671875 L 26.019531 158.894531 L 25.859375 159.109375 L 25.691406 159.3125 L 25.507812 159.503906 L 25.316406 159.6875 L 25.117188 159.855469 L 24.90625 160.015625 L 24.683594 160.167969 L 24.453125 160.304688 L 24.210938 160.433594 L 23.960938 160.550781 L 23.707031 160.65625 L 23.445312 160.75 L 23.175781 160.828125 L 22.902344 160.898438 L 22.621094 160.953125 L 22.335938 160.996094 L 22.042969 161.027344 L 21.746094 161.042969 Z M 21.441406 161.050781 "/>
<path fill-rule="nonzero" fill="rgb(10.196078%, 10.196078%, 10.196078%)" fill-opacity="1" d="M 35.046875 161.050781 L 34.550781 161.027344 L 34.074219 160.953125 L 33.621094 160.832031 L 33.191406 160.660156 L 32.785156 160.441406 L 32.402344 160.171875 L 32.042969 159.855469 L 31.707031 159.492188 L 31.390625 159.078125 L 31.101562 158.613281 L 30.832031 158.105469 L 30.597656 157.558594 L 30.386719 156.96875 L 30.203125 156.339844 L 30.050781 155.667969 L 29.925781 154.957031 L 29.824219 154.203125 L 29.757812 153.410156 L 29.714844 152.574219 L 29.699219 151.699219 L 29.714844 150.828125 L 29.757812 150 L 29.824219 149.214844 L 29.925781 148.46875 L 30.050781 147.765625 L 30.203125 147.101562 L 30.386719 146.480469 L 30.597656 145.902344 L 30.832031 145.363281 L 31.101562 144.867188 L 31.390625 144.414062 L 31.707031 144.011719 L 32.042969 143.652344 L 32.402344 143.34375 L 32.785156 143.082031 L 33.191406 142.867188 L 33.621094 142.699219 L 34.074219 142.582031 L 34.550781 142.511719 L 35.046875 142.488281 L 35.550781 142.511719 L 36.03125 142.582031 L 36.484375 142.699219 L 36.917969 142.867188 L 37.324219 143.082031 L 37.707031 143.34375 L 38.0625 143.652344 L 38.398438 144.011719 L 38.710938 144.414062 L 38.996094 144.867188 L 39.261719 145.363281 L 39.5 145.902344 L 39.710938 146.480469 L 39.890625 147.101562 L 40.046875 147.765625 L 40.171875 148.46875 L 40.269531 149.214844 L 40.339844 150 L 40.382812 150.828125 L 40.394531 151.699219 L 40.382812 152.574219 L 40.339844 153.410156 L 40.269531 154.203125 L 40.171875 154.957031 L 40.046875 155.667969 L 39.890625 156.339844 L 39.710938 156.96875 L 39.5 157.558594 L 39.261719 158.105469 L 38.996094 158.613281 L 38.710938 159.078125 L 38.398438 159.492188 L 38.0625 159.855469 L 37.707031 160.171875 L 37.324219 160.441406 L 36.917969 160.660156 L 36.484375 160.832031 L 36.03125 160.953125 L 35.550781 161.027344 Z M 35.046875 159.988281 L 35.414062 159.964844 L 35.765625 159.902344 L 36.101562 159.796875 L 36.421875 159.652344 L 36.726562 159.460938 L 37.015625 159.230469 L 37.289062 158.957031 L 37.546875 158.644531 L 37.789062 158.285156 L 38.015625 157.886719 L 38.230469 157.445312 L 38.417969 156.96875 L 38.585938 156.449219 L 38.734375 155.886719 L 38.855469 155.289062 L 38.957031 154.652344 L 39.035156 153.972656 L 39.089844 153.253906 L 39.125 152.496094 L 39.136719 151.699219 L 39.125 150.902344 L 39.089844 150.144531 L 39.035156 149.433594 L 38.957031 148.761719 L 38.855469 148.128906 L 38.734375 147.539062 L 38.585938 146.992188 L 38.417969 146.484375 L 38.230469 146.019531 L 38.015625 145.59375 L 37.789062 145.207031 L 37.546875 144.859375 L 37.289062 144.550781 L 37.015625 144.285156 L 36.726562 144.0625 L 36.421875 143.878906 L 36.101562 143.734375 L 35.765625 143.632812 L 35.414062 143.570312 L 35.046875 143.550781 L 34.6875 143.570312 L 34.335938 143.632812 L 34.003906 143.734375 L 33.6875 143.878906 L 33.382812 144.0625 L 33.09375 144.285156 L 32.816406 144.550781 L 32.558594 144.859375 L 32.3125 145.207031 L 32.078125 145.59375 L 31.867188 146.019531 L 31.675781 146.484375 L 31.507812 146.992188 L 31.363281 147.539062 L 31.238281 148.128906 L 31.140625 148.761719 L 31.0625 149.433594 L 31.003906 150.144531 L 30.972656 150.902344 L 30.960938 151.699219 L 30.972656 152.496094 L 31.003906 153.253906 L 31.0625 153.972656 L 31.140625 154.652344 L 31.238281 155.289062 L 31.363281 155.886719 L 31.507812 156.449219 L 31.675781 156.96875 L 31.867188 157.445312 L 32.078125 157.886719 L 32.3125 158.285156 L 32.558594 158.644531 L 32.816406 158.957031 L 33.09375 159.230469 L 33.382812 159.460938 L 33.6875 159.652344 L 34.003906 159.796875 L 34.335938 159.902344 L 34.6875 159.964844 Z M 35.046875 159.988281 "/>
<path fill-rule="nonzero" fill="rgb(10.196078%, 10.196078%, 10.196078%)" fill-opacity="1" d="M 48.460938 161.050781 L 47.960938 161.027344 L 47.488281 160.953125 L 47.035156 160.832031 L 46.605469 160.660156 L 46.199219 160.441406 L 45.816406 160.171875 L 45.457031 159.855469 L 45.117188 159.492188 L 44.804688 159.078125 L 44.511719 158.613281 L 44.246094 158.105469 L 44.007812 157.558594 L 43.796875 156.96875 L 43.617188 156.339844 L 43.460938 155.667969 L 43.335938 154.957031 L 43.238281 154.203125 L 43.167969 153.410156 L 43.125 152.574219 L 43.113281 151.699219 L 43.125 150.828125 L 43.167969 150 L 43.238281 149.214844 L 43.335938 148.46875 L 43.460938 147.765625 L 43.617188 147.101562 L 43.796875 146.480469 L 44.007812 145.902344 L 44.246094 145.363281 L 44.511719 144.867188 L 44.804688 144.414062 L 45.117188 144.011719 L 45.457031 143.652344 L 45.816406 143.34375 L 46.199219 143.082031 L 46.605469 142.867188 L 47.035156 142.699219 L 47.488281 142.582031 L 47.960938 142.511719 L 48.460938 142.488281 L 48.964844 142.511719 L 49.441406 142.582031 L 49.898438 142.699219 L 50.328125 142.867188 L 50.734375 143.082031 L 51.117188 143.34375 L 51.476562 143.652344 L 51.8125 144.011719 L 52.121094 144.414062 L 52.40625 144.867188 L 52.675781 145.363281 L 52.910156 145.902344 L 53.121094 146.480469 L 53.304688 147.101562 L 53.457031 147.765625 L 53.582031 148.46875 L 53.683594 149.214844 L 53.753906 150 L 53.792969 150.828125 L 53.808594 151.699219 L 53.792969 152.574219 L 53.753906 153.410156 L 53.683594 154.203125 L 53.582031 154.957031 L 53.457031 155.667969 L 53.304688 156.339844 L 53.121094 156.96875 L 52.910156 157.558594 L 52.675781 158.105469 L 52.40625 158.613281 L 52.121094 159.078125 L 51.8125 159.492188 L 51.476562 159.855469 L 51.117188 160.171875 L 50.734375 160.441406 L 50.328125 160.660156 L 49.898438 160.832031 L 49.441406 160.953125 L 48.964844 161.027344 Z M 48.460938 159.988281 L 48.828125 159.964844 L 49.179688 159.902344 L 49.515625 159.796875 L 49.835938 159.652344 L 50.140625 159.460938 L 50.429688 159.230469 L 50.703125 158.957031 L 50.960938 158.644531 L 51.203125 158.285156 L 51.429688 157.886719 L 51.640625 157.445312 L 51.832031 156.96875 L 52 156.449219 L 52.144531 155.886719 L 52.269531 155.289062 L 52.367188 154.652344 L 52.445312 153.972656 L 52.503906 153.253906 L 52.535156 152.496094 L 52.546875 151.699219 L 52.535156 150.902344 L 52.503906 150.144531 L 52.445312 149.433594 L 52.367188 148.761719 L 52.269531 148.128906 L 52.144531 147.539062 L 52 146.992188 L 51.832031 146.484375 L 51.640625 146.019531 L 51.429688 145.59375 L 51.203125 145.207031 L 50.960938 144.859375 L 50.703125 144.550781 L 50.429688 144.285156 L 50.140625 144.0625 L 49.835938 143.878906 L 49.515625 143.734375 L 49.179688 143.632812 L 48.828125 143.570312 L 48.460938 143.550781 L 48.097656 143.570312 L 47.75 143.632812 L 47.417969 143.734375 L 47.097656 143.878906 L 46.792969 144.0625 L 46.503906 144.285156 L 46.230469 144.550781 L 45.96875 144.859375 L 45.722656 145.207031 L 45.492188 145.59375 L 45.277344 146.019531 L 45.089844 146.484375 L 44.921875 146.992188 L 44.773438 147.539062 L 44.652344 148.128906 L 44.550781 148.761719 L 44.472656 149.433594 L 44.417969 150.144531 L 44.382812 150.902344 L 44.371094 151.699219 L 44.382812 152.496094 L 44.417969 153.253906 L 44.472656 153.972656 L 44.550781 154.652344 L 44.652344 155.289062 L 44.773438 155.886719 L 44.921875 156.449219 L 45.089844 156.96875 L 45.277344 157.445312 L 45.492188 157.886719 L 45.722656 158.285156 L 45.96875 158.644531 L 46.230469 158.957031 L 46.503906 159.230469 L 46.792969 159.460938 L 47.097656 159.652344 L 47.417969 159.796875 L 47.75 159.902344 L 48.097656 159.964844 Z M 48.460938 159.988281 "/>
<path fill-rule="nonzero" fill="rgb(10.196078%, 10.196078%, 10.196078%)" fill-opacity="1" d="M 16.902344 95.535156 L 23.625 95.535156 L 23.625 88.585938 L 23.628906 88.441406 L 23.632812 88.289062 L 23.632812 88.132812 L 23.636719 87.96875 L 23.640625 87.800781 L 23.648438 87.625 L 23.652344 87.445312 L 23.664062 87.261719 L 23.671875 87.085938 L 23.683594 86.917969 L 23.691406 86.753906 L 23.699219 86.597656 L 23.710938 86.445312 L 23.714844 86.300781 L 23.722656 86.164062 L 23.730469 86.03125 L 23.734375 85.902344 L 23.625 85.902344 L 23.554688 86.015625 L 23.488281 86.125 L 23.417969 86.238281 L 23.351562 86.347656 L 23.140625 86.675781 L 23.070312 86.78125 L 22.996094 86.890625 L 22.925781 86.996094 L 22.851562 87.101562 L 22.777344 87.210938 L 22.703125 87.324219 L 22.628906 87.433594 L 22.554688 87.550781 L 22.476562 87.664062 L 22.402344 87.78125 L 22.324219 87.902344 L 22.246094 88.019531 L 22.167969 88.144531 Z M 23.625 101.949219 L 23.625 96.601562 L 15.390625 96.601562 L 15.390625 95.871094 L 23.707031 84.054688 L 24.828125 84.054688 L 24.828125 95.535156 L 27.488281 95.535156 L 27.488281 96.601562 L 24.828125 96.601562 L 24.828125 101.949219 Z M 23.625 101.949219 "/>
<path fill-rule="nonzero" fill="rgb(10.196078%, 10.196078%, 10.196078%)" fill-opacity="1" d="M 35.046875 102.285156 L 34.550781 102.257812 L 34.074219 102.1875 L 33.621094 102.066406 L 33.191406 101.894531 L 32.785156 101.675781 L 32.402344 101.40625 L 32.042969 101.089844 L 31.707031 100.726562 L 31.390625 100.3125 L 31.101562 99.847656 L 30.832031 99.339844 L 30.597656 98.792969 L 30.386719 98.203125 L 30.203125 97.570312 L 30.050781 96.902344 L 29.925781 96.1875 L 29.824219 95.4375 L 29.757812 94.640625 L 29.714844 93.808594 L 29.699219 92.933594 L 29.714844 92.0625 L 29.757812 91.234375 L 29.824219 90.445312 L 29.925781 89.703125 L 30.050781 88.996094 L 30.203125 88.335938 L 30.386719 87.714844 L 30.597656 87.132812 L 30.832031 86.597656 L 31.101562 86.101562 L 31.390625 85.648438 L 31.707031 85.242188 L 32.042969 84.886719 L 32.402344 84.578125 L 32.785156 84.316406 L 33.191406 84.101562 L 33.621094 83.933594 L 34.074219 83.816406 L 34.550781 83.742188 L 35.046875 83.71875 L 35.550781 83.742188 L 36.03125 83.816406 L 36.484375 83.933594 L 36.917969 84.101562 L 37.324219 84.316406 L 37.707031 84.578125 L 38.0625 84.886719 L 38.398438 85.242188 L 38.710938 85.648438 L 38.996094 86.101562 L 39.261719 86.597656 L 39.5 87.132812 L 39.710938 87.714844 L 39.890625 88.335938 L 40.046875 88.996094 L 40.171875 89.703125 L 40.269531 90.445312 L 40.339844 91.234375 L 40.382812 92.0625 L 40.394531 92.933594 L 40.382812 93.808594 L 40.339844 94.640625 L 40.269531 95.4375 L 40.171875 96.1875 L 40.046875 96.902344 L 39.890625 97.570312 L 39.710938 98.203125 L 39.5 98.792969 L 39.261719 99.339844 L 38.996094 99.847656 L 38.710938 100.3125 L 38.398438 100.726562 L 38.0625 101.089844 L 37.707031 101.40625 L 37.324219 101.675781 L 36.917969 101.894531 L 36.484375 102.066406 L 36.03125 102.1875 L 35.550781 102.257812 Z M 35.046875 101.21875 L 35.414062 101.199219 L 35.765625 101.136719 L 36.101562 101.03125 L 36.421875 100.882812 L 36.726562 100.695312 L 37.015625 100.464844 L 37.289062 100.191406 L 37.546875 99.875 L 37.789062 99.519531 L 38.015625 99.121094 L 38.230469 98.679688 L 38.417969 98.199219 L 38.585938 97.679688 L 38.734375 97.121094 L 38.855469 96.523438 L 38.957031 95.882812 L 39.035156 95.207031 L 39.089844 94.488281 L 39.125 93.730469 L 39.136719 92.933594 L 39.125 92.136719 L 39.089844 91.378906 L 39.035156 90.664062 L 38.957031 89.992188 L 38.855469 89.363281 L 38.734375 88.773438 L 38.585938 88.222656 L 38.417969 87.71875 L 38.230469 87.25 L 38.015625 86.828125 L 37.789062 86.441406 L 37.546875 86.09375 L 37.289062 85.785156 L 37.015625 85.519531 L 36.726562 85.292969 L 36.421875 85.109375 L 36.101562 84.96875 L 35.765625 84.867188 L 35.414062 84.804688 L 35.046875 84.785156 L 34.6875 84.804688 L 34.335938 84.867188 L 34.003906 84.96875 L 33.6875 85.109375 L 33.382812 85.292969 L 33.09375 85.519531 L 32.816406 85.785156 L 32.558594 86.09375 L 32.3125 86.441406 L 32.078125 86.828125 L 31.867188 87.25 L 31.675781 87.71875 L 31.507812 88.222656 L 31.363281 88.773438 L 31.238281 89.363281 L 31.140625 89.992188 L 31.0625 90.664062 L 31.003906 91.378906 L 30.972656 92.136719 L 30.960938 92.933594 L 30.972656 93.730469 L 31.003906 94.488281 L 31.0625 95.207031 L 31.140625 95.882812 L 31.238281 96.523438 L 31.363281 97.121094 L 31.507812 97.679688 L 31.675781 98.199219 L 31.867188 98.679688 L 32.078125 99.121094 L 32.3125 99.519531 L 32.558594 99.875 L 32.816406 100.191406 L 33.09375 100.464844 L 33.382812 100.695312 L 33.6875 100.882812 L 34.003906 101.03125 L 34.335938 101.136719 L 34.6875 101.199219 Z M 35.046875 101.21875 "/>
<path fill-rule="nonzero" fill="rgb(10.196078%, 10.196078%, 10.196078%)" fill-opacity="1" d="M 48.460938 102.285156 L 47.960938 102.257812 L 47.488281 102.1875 L 47.035156 102.066406 L 46.605469 101.894531 L 46.199219 101.675781 L 45.816406 101.40625 L 45.457031 101.089844 L 45.117188 100.726562 L 44.804688 100.3125 L 44.511719 99.847656 L 44.246094 99.339844 L 44.007812 98.792969 L 43.796875 98.203125 L 43.617188 97.570312 L 43.460938 96.902344 L 43.335938 96.1875 L 43.238281 95.4375 L 43.167969 94.640625 L 43.125 93.808594 L 43.113281 92.933594 L 43.125 92.0625 L 43.167969 91.234375 L 43.238281 90.445312 L 43.335938 89.703125 L 43.460938 88.996094 L 43.617188 88.335938 L 43.796875 87.714844 L 44.007812 87.132812 L 44.246094 86.597656 L 44.511719 86.101562 L 44.804688 85.648438 L 45.117188 85.242188 L 45.457031 84.886719 L 45.816406 84.578125 L 46.199219 84.316406 L 46.605469 84.101562 L 47.035156 83.933594 L 47.488281 83.816406 L 47.960938 83.742188 L 48.460938 83.71875 L 48.964844 83.742188 L 49.441406 83.816406 L 49.898438 83.933594 L 50.328125 84.101562 L 50.734375 84.316406 L 51.117188 84.578125 L 51.476562 84.886719 L 51.8125 85.242188 L 52.121094 85.648438 L 52.40625 86.101562 L 52.675781 86.597656 L 52.910156 87.132812 L 53.121094 87.714844 L 53.304688 88.335938 L 53.457031 88.996094 L 53.582031 89.703125 L 53.683594 90.445312 L 53.753906 91.234375 L 53.792969 92.0625 L 53.808594 92.933594 L 53.792969 93.808594 L 53.753906 94.640625 L 53.683594 95.4375 L 53.582031 96.1875 L 53.457031 96.902344 L 53.304688 97.570312 L 53.121094 98.203125 L 52.910156 98.792969 L 52.675781 99.339844 L 52.40625 99.847656 L 52.121094 100.3125 L 51.8125 100.726562 L 51.476562 101.089844 L 51.117188 101.40625 L 50.734375 101.675781 L 50.328125 101.894531 L 49.898438 102.066406 L 49.441406 102.1875 L 48.964844 102.257812 Z M 48.460938 101.21875 L 48.828125 101.199219 L 49.179688 101.136719 L 49.515625 101.03125 L 49.835938 100.882812 L 50.140625 100.695312 L 50.429688 100.464844 L 50.703125 100.191406 L 50.960938 99.875 L 51.203125 99.519531 L 51.429688 99.121094 L 51.640625 98.679688 L 51.832031 98.199219 L 52 97.679688 L 52.144531 97.121094 L 52.269531 96.523438 L 52.367188 95.882812 L 52.445312 95.207031 L 52.503906 94.488281 L 52.535156 93.730469 L 52.546875 92.933594 L 52.535156 92.136719 L 52.503906 91.378906 L 52.445312 90.664062 L 52.367188 89.992188 L 52.269531 89.363281 L 52.144531 88.773438 L 52 88.222656 L 51.832031 87.71875 L 51.640625 87.25 L 51.429688 86.828125 L 51.203125 86.441406 L 50.960938 86.09375 L 50.703125 85.785156 L 50.429688 85.519531 L 50.140625 85.292969 L 49.835938 85.109375 L 49.515625 84.96875 L 49.179688 84.867188 L 48.828125 84.804688 L 48.460938 84.785156 L 48.097656 84.804688 L 47.75 84.867188 L 47.417969 84.96875 L 47.097656 85.109375 L 46.792969 85.292969 L 46.503906 85.519531 L 46.230469 85.785156 L 45.96875 86.09375 L 45.722656 86.441406 L 45.492188 86.828125 L 45.277344 87.25 L 45.089844 87.71875 L 44.921875 88.222656 L 44.773438 88.773438 L 44.652344 89.363281 L 44.550781 89.992188 L 44.472656 90.664062 L 44.417969 91.378906 L 44.382812 92.136719 L 44.371094 92.933594 L 44.382812 93.730469 L 44.417969 94.488281 L 44.472656 95.207031 L 44.550781 95.882812 L 44.652344 96.523438 L 44.773438 97.121094 L 44.921875 97.679688 L 45.089844 98.199219 L 45.277344 98.679688 L 45.492188 99.121094 L 45.722656 99.519531 L 45.96875 99.875 L 46.230469 100.191406 L 46.503906 100.464844 L 46.792969 100.695312 L 47.097656 100.882812 L 47.417969 101.03125 L 47.75 101.136719 L 48.097656 101.199219 Z M 48.460938 101.21875 "/>
<path fill-rule="nonzero" fill="rgb(10.196078%, 10.196078%, 10.196078%)" fill-opacity="1" d="M 21.300781 43.515625 L 21.019531 43.511719 L 20.742188 43.503906 L 20.476562 43.484375 L 20.214844 43.457031 L 19.964844 43.425781 L 19.71875 43.386719 L 19.480469 43.339844 L 19.25 43.285156 L 19.023438 43.222656 L 18.808594 43.152344 L 18.605469 43.078125 L 18.40625 43 L 18.210938 42.917969 L 18.023438 42.832031 L 17.664062 42.644531 L 17.496094 42.546875 L 17.328125 42.445312 L 17.171875 42.339844 L 17.015625 42.230469 L 16.71875 42.003906 L 16.578125 41.894531 L 16.4375 41.78125 L 16.300781 41.667969 L 16.167969 41.558594 L 16.039062 41.445312 L 15.914062 41.332031 L 15.792969 41.222656 L 15.671875 41.109375 L 16.371094 40.242188 L 16.539062 40.402344 L 16.710938 40.5625 L 16.886719 40.71875 L 17.070312 40.871094 L 17.261719 41.023438 L 17.457031 41.175781 L 17.660156 41.324219 L 17.867188 41.46875 L 18.082031 41.613281 L 18.304688 41.753906 L 18.539062 41.878906 L 18.789062 41.996094 L 19.054688 42.097656 L 19.328125 42.183594 L 19.621094 42.257812 L 19.921875 42.316406 L 20.242188 42.363281 L 20.570312 42.398438 L 20.914062 42.417969 L 21.273438 42.425781 L 21.511719 42.417969 L 21.746094 42.402344 L 21.976562 42.371094 L 22.203125 42.332031 L 22.425781 42.277344 L 22.644531 42.214844 L 22.863281 42.136719 L 23.074219 42.046875 L 23.28125 41.949219 L 23.484375 41.835938 L 23.679688 41.710938 L 23.871094 41.570312 L 24.054688 41.425781 L 24.226562 41.269531 L 24.394531 41.101562 L 24.550781 40.925781 L 24.703125 40.742188 L 24.847656 40.546875 L 24.980469 40.34375 L 25.109375 40.128906 L 25.226562 39.90625 L 25.328125 39.679688 L 25.421875 39.445312 L 25.503906 39.203125 L 25.570312 38.953125 L 25.625 38.699219 L 25.667969 38.4375 L 25.699219 38.167969 L 25.71875 37.890625 L 25.722656 37.609375 L 25.710938 37.1875 L 25.675781 36.785156 L 25.617188 36.398438 L 25.53125 36.03125 L 25.421875 35.683594 L 25.289062 35.355469 L 25.132812 35.042969 L 24.953125 34.75 L 24.75 34.476562 L 24.519531 34.222656 L 24.277344 33.988281 L 24.015625 33.777344 L 23.742188 33.59375 L 23.449219 33.433594 L 23.140625 33.296875 L 22.816406 33.1875 L 22.476562 33.101562 L 22.117188 33.039062 L 21.746094 33 L 21.355469 32.988281 L 21.152344 32.992188 L 20.953125 33.003906 L 20.757812 33.019531 L 20.570312 33.042969 L 20.390625 33.074219 L 20.214844 33.109375 L 20.042969 33.152344 L 19.878906 33.203125 L 19.71875 33.261719 L 19.5625 33.324219 L 19.417969 33.390625 L 19.269531 33.457031 L 19.121094 33.53125 L 18.816406 33.695312 L 18.660156 33.785156 L 18.503906 33.878906 L 18.183594 34.082031 L 18.023438 34.191406 L 17.15625 33.660156 L 17.800781 25.289062 L 26.058594 25.289062 L 26.058594 26.382812 L 18.921875 26.382812 L 18.359375 32.847656 L 18.5 32.765625 L 18.640625 32.6875 L 18.929688 32.539062 L 19.21875 32.40625 L 19.367188 32.34375 L 19.515625 32.285156 L 19.664062 32.230469 L 19.816406 32.175781 L 19.96875 32.125 L 20.128906 32.078125 L 20.289062 32.035156 L 20.457031 31.996094 L 20.628906 31.96875 L 20.804688 31.941406 L 20.984375 31.921875 L 21.167969 31.910156 L 21.359375 31.898438 L 21.550781 31.898438 L 21.851562 31.902344 L 22.144531 31.921875 L 22.433594 31.953125 L 22.714844 31.996094 L 22.992188 32.050781 L 23.265625 32.117188 L 23.53125 32.199219 L 23.792969 32.292969 L 24.046875 32.394531 L 24.296875 32.511719 L 24.542969 32.636719 L 24.777344 32.773438 L 25.003906 32.925781 L 25.21875 33.089844 L 25.421875 33.269531 L 25.617188 33.460938 L 25.800781 33.664062 L 25.972656 33.882812 L 26.132812 34.117188 L 26.285156 34.359375 L 26.421875 34.613281 L 26.546875 34.882812 L 26.65625 35.164062 L 26.75 35.464844 L 26.828125 35.773438 L 26.894531 36.101562 L 26.945312 36.441406 L 26.984375 36.796875 L 27.003906 37.167969 L 27.011719 37.554688 L 27.003906 37.929688 L 26.976562 38.292969 L 26.9375 38.644531 L 26.878906 38.988281 L 26.800781 39.316406 L 26.710938 39.636719 L 26.601562 39.945312 L 26.472656 40.242188 L 26.332031 40.527344 L 26.171875 40.800781 L 26.003906 41.058594 L 25.828125 41.304688 L 25.640625 41.535156 L 25.441406 41.753906 L 25.234375 41.964844 L 25.015625 42.160156 L 24.789062 42.339844 L 24.550781 42.511719 L 24.300781 42.671875 L 24.042969 42.816406 L 23.785156 42.949219 L 23.523438 43.070312 L 23.257812 43.175781 L 22.988281 43.265625 L 22.714844 43.34375 L 22.4375 43.40625 L 22.160156 43.453125 L 21.875 43.488281 L 21.589844 43.511719 Z M 21.300781 43.515625 "/>
<path fill-rule="nonzero" fill="rgb(10.196078%, 10.196078%, 10.196078%)" fill-opacity="1" d="M 35.046875 43.515625 L 34.550781 43.492188 L 34.074219 43.417969 L 33.621094 43.296875 L 33.191406 43.128906 L 32.785156 42.90625 L 32.402344 42.640625 L 32.042969 42.324219 L 31.707031 41.957031 L 31.390625 41.542969 L 31.101562 41.082031 L 30.832031 40.574219 L 30.597656 40.023438 L 30.386719 39.433594 L 30.203125 38.804688 L 30.050781 38.132812 L 29.925781 37.421875 L 29.824219 36.667969 L 29.757812 35.875 L 29.714844 35.039062 L 29.699219 34.164062 L 29.714844 33.296875 L 29.757812 32.46875 L 29.824219 31.679688 L 29.925781 30.933594 L 30.050781 30.230469 L 30.203125 29.570312 L 30.386719 28.949219 L 30.597656 28.367188 L 30.832031 27.828125 L 31.101562 27.332031 L 31.390625 26.878906 L 31.707031 26.476562 L 32.042969 26.121094 L 32.402344 25.808594 L 32.785156 25.546875 L 33.191406 25.332031 L 33.621094 25.167969 L 34.074219 25.046875 L 34.550781 24.976562 L 35.046875 24.953125 L 35.550781 24.976562 L 36.03125 25.046875 L 36.484375 25.167969 L 36.917969 25.332031 L 37.324219 25.546875 L 37.707031 25.808594 L 38.0625 26.121094 L 38.398438 26.476562 L 38.710938 26.878906 L 38.996094 27.332031 L 39.261719 27.828125 L 39.5 28.367188 L 39.710938 28.949219 L 39.890625 29.570312 L 40.046875 30.230469 L 40.171875 30.933594 L 40.269531 31.679688 L 40.339844 32.46875 L 40.382812 33.296875 L 40.394531 34.164062 L 40.382812 35.039062 L 40.339844 35.875 L 40.269531 36.667969 L 40.171875 37.421875 L 40.046875 38.132812 L 39.890625 38.804688 L 39.710938 39.433594 L 39.5 40.023438 L 39.261719 40.574219 L 38.996094 41.082031 L 38.710938 41.542969 L 38.398438 41.957031 L 38.0625 42.324219 L 37.707031 42.640625 L 37.324219 42.90625 L 36.917969 43.128906 L 36.484375 43.296875 L 36.03125 43.417969 L 35.550781 43.492188 Z M 35.046875 42.453125 L 35.414062 42.433594 L 35.765625 42.367188 L 36.101562 42.265625 L 36.421875 42.117188 L 36.726562 41.929688 L 37.015625 41.695312 L 37.289062 41.425781 L 37.546875 41.109375 L 37.789062 40.753906 L 38.015625 40.351562 L 38.230469 39.914062 L 38.417969 39.433594 L 38.585938 38.914062 L 38.734375 38.355469 L 38.855469 37.757812 L 38.957031 37.117188 L 39.035156 36.4375 L 39.089844 35.722656 L 39.125 34.960938 L 39.136719 34.164062 L 39.125 33.367188 L 39.089844 32.613281 L 39.035156 31.898438 L 38.957031 31.226562 L 38.855469 30.59375 L 38.734375 30.003906 L 38.585938 29.457031 L 38.417969 28.949219 L 38.230469 28.484375 L 38.015625 28.0625 L 37.789062 27.671875 L 37.546875 27.324219 L 37.289062 27.019531 L 37.015625 26.753906 L 36.726562 26.527344 L 36.421875 26.34375 L 36.101562 26.199219 L 35.765625 26.097656 L 35.414062 26.039062 L 35.046875 26.015625 L 34.6875 26.039062 L 34.335938 26.097656 L 34.003906 26.199219 L 33.6875 26.34375 L 33.382812 26.527344 L 33.09375 26.753906 L 32.816406 27.019531 L 32.558594 27.324219 L 32.3125 27.671875 L 32.078125 28.0625 L 31.867188 28.484375 L 31.675781 28.949219 L 31.507812 29.457031 L 31.363281 30.003906 L 31.238281 30.59375 L 31.140625 31.226562 L 31.0625 31.898438 L 31.003906 32.613281 L 30.972656 33.367188 L 30.960938 34.164062 L 30.972656 34.960938 L 31.003906 35.722656 L 31.0625 36.4375 L 31.140625 37.117188 L 31.238281 37.757812 L 31.363281 38.355469 L 31.507812 38.914062 L 31.675781 39.433594 L 31.867188 39.914062 L 32.078125 40.351562 L 32.3125 40.753906 L 32.558594 41.109375 L 32.816406 41.425781 L 33.09375 41.695312 L 33.382812 41.929688 L 33.6875 42.117188 L 34.003906 42.265625 L 34.335938 42.367188 L 34.6875 42.433594 Z M 35.046875 42.453125 "/>
<path fill-rule="nonzero" fill="rgb(10.196078%, 10.196078%, 10.196078%)" fill-opacity="1" d="M 48.460938 43.515625 L 47.960938 43.492188 L 47.488281 43.417969 L 47.035156 43.296875 L 46.605469 43.128906 L 46.199219 42.90625 L 45.816406 42.640625 L 45.457031 42.324219 L 45.117188 41.957031 L 44.804688 41.542969 L 44.511719 41.082031 L 44.246094 40.574219 L 44.007812 40.023438 L 43.796875 39.433594 L 43.617188 38.804688 L 43.460938 38.132812 L 43.335938 37.421875 L 43.238281 36.667969 L 43.167969 35.875 L 43.125 35.039062 L 43.113281 34.164062 L 43.125 33.296875 L 43.167969 32.46875 L 43.238281 31.679688 L 43.335938 30.933594 L 43.460938 30.230469 L 43.617188 29.570312 L 43.796875 28.949219 L 44.007812 28.367188 L 44.246094 27.828125 L 44.511719 27.332031 L 44.804688 26.878906 L 45.117188 26.476562 L 45.457031 26.121094 L 45.816406 25.808594 L 46.199219 25.546875 L 46.605469 25.332031 L 47.035156 25.167969 L 47.488281 25.046875 L 47.960938 24.976562 L 48.460938 24.953125 L 48.964844 24.976562 L 49.441406 25.046875 L 49.898438 25.167969 L 50.328125 25.332031 L 50.734375 25.546875 L 51.117188 25.808594 L 51.476562 26.121094 L 51.8125 26.476562 L 52.121094 26.878906 L 52.40625 27.332031 L 52.675781 27.828125 L 52.910156 28.367188 L 53.121094 28.949219 L 53.304688 29.570312 L 53.457031 30.230469 L 53.582031 30.933594 L 53.683594 31.679688 L 53.753906 32.46875 L 53.792969 33.296875 L 53.808594 34.164062 L 53.792969 35.039062 L 53.753906 35.875 L 53.683594 36.667969 L 53.582031 37.421875 L 53.457031 38.132812 L 53.304688 38.804688 L 53.121094 39.433594 L 52.910156 40.023438 L 52.675781 40.574219 L 52.40625 41.082031 L 52.121094 41.542969 L 51.8125 41.957031 L 51.476562 42.324219 L 51.117188 42.640625 L 50.734375 42.90625 L 50.328125 43.128906 L 49.898438 43.296875 L 49.441406 43.417969 L 48.964844 43.492188 Z M 48.460938 42.453125 L 48.828125 42.433594 L 49.179688 42.367188 L 49.515625 42.265625 L 49.835938 42.117188 L 50.140625 41.929688 L 50.429688 41.695312 L 50.703125 41.425781 L 50.960938 41.109375 L 51.203125 40.753906 L 51.429688 40.351562 L 51.640625 39.914062 L 51.832031 39.433594 L 52 38.914062 L 52.144531 38.355469 L 52.269531 37.757812 L 52.367188 37.117188 L 52.445312 36.4375 L 52.503906 35.722656 L 52.535156 34.960938 L 52.546875 34.164062 L 52.535156 33.367188 L 52.503906 32.613281 L 52.445312 31.898438 L 52.367188 31.226562 L 52.269531 30.59375 L 52.144531 30.003906 L 52 29.457031 L 51.832031 28.949219 L 51.640625 28.484375 L 51.429688 28.0625 L 51.203125 27.671875 L 50.960938 27.324219 L 50.703125 27.019531 L 50.429688 26.753906 L 50.140625 26.527344 L 49.835938 26.34375 L 49.515625 26.199219 L 49.179688 26.097656 L 48.828125 26.039062 L 48.460938 26.015625 L 48.097656 26.039062 L 47.75 26.097656 L 47.417969 26.199219 L 47.097656 26.34375 L 46.792969 26.527344 L 46.503906 26.753906 L 46.230469 27.019531 L 45.96875 27.324219 L 45.722656 27.671875 L 45.492188 28.0625 L 45.277344 28.484375 L 45.089844 28.949219 L 44.921875 29.457031 L 44.773438 30.003906 L 44.652344 30.59375 L 44.550781 31.226562 L 44.472656 31.898438 L 44.417969 32.613281 L 44.382812 33.367188 L 44.371094 34.164062 L 44.382812 34.960938 L 44.417969 35.722656 L 44.472656 36.4375 L 44.550781 37.117188 L 44.652344 37.757812 L 44.773438 38.355469 L 44.921875 38.914062 L 45.089844 39.433594 L 45.277344 39.914062 L 45.492188 40.351562 L 45.722656 40.753906 L 45.96875 41.109375 L 46.230469 41.425781 L 46.503906 41.695312 L 46.792969 41.929688 L 47.097656 42.117188 L 47.417969 42.265625 L 47.75 42.367188 L 48.097656 42.433594 Z M 48.460938 42.453125 "/>
<path fill-rule="nonzero" fill="rgb(10.196078%, 10.196078%, 10.196078%)" fill-opacity="1" d="M 166.414062 374.925781 L 165.917969 374.898438 L 165.441406 374.828125 L 164.988281 374.703125 L 164.5625 374.535156 L 164.152344 374.316406 L 163.769531 374.046875 L 163.410156 373.730469 L 163.074219 373.363281 L 162.757812 372.949219 L 162.46875 372.488281 L 162.203125 371.980469 L 161.964844 371.433594 L 161.753906 370.84375 L 161.570312 370.210938 L 161.417969 369.542969 L 161.292969 368.828125 L 161.191406 368.074219 L 161.125 367.28125 L 161.082031 366.449219 L 161.066406 365.570312 L 161.082031 364.703125 L 161.125 363.875 L 161.191406 363.085938 L 161.292969 362.34375 L 161.417969 361.636719 L 161.570312 360.976562 L 161.753906 360.355469 L 161.964844 359.773438 L 162.203125 359.238281 L 162.46875 358.738281 L 162.757812 358.289062 L 163.074219 357.882812 L 163.410156 357.527344 L 163.769531 357.21875 L 164.152344 356.953125 L 164.5625 356.742188 L 164.988281 356.574219 L 165.441406 356.457031 L 165.917969 356.382812 L 166.414062 356.359375 L 166.917969 356.382812 L 167.398438 356.457031 L 167.851562 356.574219 L 168.285156 356.742188 L 168.691406 356.953125 L 169.074219 357.21875 L 169.433594 357.527344 L 169.765625 357.882812 L 170.078125 358.289062 L 170.363281 358.738281 L 170.628906 359.238281 L 170.867188 359.773438 L 171.078125 360.355469 L 171.257812 360.976562 L 171.414062 361.636719 L 171.539062 362.34375 L 171.636719 363.085938 L 171.707031 363.875 L 171.75 364.703125 L 171.761719 365.570312 L 171.75 366.449219 L 171.707031 367.28125 L 171.636719 368.074219 L 171.539062 368.828125 L 171.414062 369.542969 L 171.257812 370.210938 L 171.078125 370.84375 L 170.867188 371.433594 L 170.628906 371.980469 L 170.363281 372.488281 L 170.078125 372.949219 L 169.765625 373.363281 L 169.433594 373.730469 L 169.074219 374.046875 L 168.691406 374.316406 L 168.285156 374.535156 L 167.851562 374.703125 L 167.398438 374.828125 L 166.917969 374.898438 Z M 166.414062 373.859375 L 166.78125 373.839844 L 167.132812 373.777344 L 167.46875 373.671875 L 167.789062 373.523438 L 168.09375 373.335938 L 168.382812 373.105469 L 168.65625 372.832031 L 168.914062 372.515625 L 169.15625 372.160156 L 169.382812 371.761719 L 169.597656 371.320312 L 169.785156 370.839844 L 169.953125 370.320312 L 170.101562 369.761719 L 170.222656 369.164062 L 170.324219 368.523438 L 170.402344 367.847656 L 170.457031 367.128906 L 170.492188 366.371094 L 170.503906 365.570312 L 170.492188 364.773438 L 170.457031 364.019531 L 170.402344 363.304688 L 170.324219 362.632812 L 170.222656 362.003906 L 170.101562 361.414062 L 169.953125 360.863281 L 169.785156 360.355469 L 169.597656 359.890625 L 169.382812 359.46875 L 169.15625 359.078125 L 168.914062 358.730469 L 168.65625 358.425781 L 168.382812 358.160156 L 168.09375 357.933594 L 167.789062 357.75 L 167.46875 357.609375 L 167.132812 357.503906 L 166.78125 357.445312 L 166.414062 357.425781 L 166.054688 357.445312 L 165.707031 357.503906 L 165.371094 357.609375 L 165.054688 357.75 L 164.75 357.933594 L 164.460938 358.160156 L 164.183594 358.425781 L 163.925781 358.730469 L 163.679688 359.078125 L 163.449219 359.46875 L 163.234375 359.890625 L 163.042969 360.355469 L 162.875 360.863281 L 162.730469 361.414062 L 162.605469 362.003906 L 162.507812 362.632812 L 162.429688 363.304688 L 162.371094 364.019531 L 162.339844 364.773438 L 162.328125 365.570312 L 162.339844 366.371094 L 162.371094 367.128906 L 162.429688 367.847656 L 162.507812 368.523438 L 162.605469 369.164062 L 162.730469 369.761719 L 162.875 370.320312 L 163.042969 370.839844 L 163.234375 371.320312 L 163.449219 371.761719 L 163.679688 372.160156 L 163.925781 372.515625 L 164.183594 372.832031 L 164.460938 373.105469 L 164.75 373.335938 L 165.054688 373.523438 L 165.371094 373.671875 L 165.707031 373.777344 L 166.054688 373.839844 Z M 166.414062 373.859375 "/>
<path fill-rule="nonzero" fill="rgb(10.196078%, 10.196078%, 10.196078%)" fill-opacity="1" d="M 386.902344 374.589844 L 386.902344 373.496094 L 391.101562 373.496094 L 391.101562 358.65625 L 387.910156 358.65625 L 387.910156 357.816406 L 388.125 357.777344 L 388.339844 357.734375 L 388.546875 357.691406 L 388.75 357.644531 L 389.140625 357.550781 L 389.515625 357.449219 L 389.695312 357.394531 L 389.871094 357.339844 L 390.042969 357.28125 L 390.207031 357.226562 L 390.367188 357.164062 L 390.523438 357.101562 L 390.675781 357.039062 L 390.820312 356.972656 L 390.960938 356.90625 L 391.097656 356.839844 L 391.230469 356.769531 L 391.355469 356.695312 L 392.363281 356.695312 L 392.363281 373.496094 L 396.253906 373.496094 L 396.253906 374.589844 Z M 386.902344 374.589844 "/>
</svg>
