<?xml version="1.0" encoding="UTF-8"?>
<svg xmlns="http://www.w3.org/2000/svg" xmlns:xlink="http://www.w3.org/1999/xlink" width="504pt" height="396pt" viewBox="0 0 504 396">
<defs>
<clipPath id="clip-0">
<path clip-rule="nonzero" d="M 63.441406 12.953125 L 491.050781 12.953125 L 491.050781 350.035156 L 63.441406 350.035156 Z M 63.441406 12.953125 "/>
</clipPath>
<clipPath id="clip-1">
<path clip-rule="nonzero" d="M 63.441406 334 L 491.050781 334 L 491.050781 335 L 63.441406 335 Z M 63.441406 334 "/>
</clipPath>
<clipPath id="clip-2">
<path clip-rule="nonzero" d="M 63.441406 274 L 491.050781 274 L 491.050781 275 L 63.441406 275 Z M 63.441406 274 "/>
</clipPath>
<clipPath id="clip-3">
<path clip-rule="nonzero" d="M 63.441406 213 L 491.050781 213 L 491.050781 214 L 63.441406 214 Z M 63.441406 213 "/>
</clipPath>
<clipPath id="clip-4">
<path clip-rule="nonzero" d="M 63.441406 153 L 491.050781 153 L 491.050781 154 L 63.441406 154 Z M 63.441406 153 "/>
</clipPath>
<clipPath id="clip-5">
<path clip-rule="nonzero" d="M 63.441406 92 L 491.050781 92 L 491.050781 94 L 63.441406 94 Z M 63.441406 92 "/>
</clipPath>
<clipPath id="clip-6">
<path clip-rule="nonzero" d="M 63.441406 32 L 491.050781 32 L 491.050781 33 L 63.441406 33 Z M 63.441406 32 "/>
</clipPath>
<clipPath id="clip-7">
<path clip-rule="nonzero" d="M 162 12.953125 L 164 12.953125 L 164 350.035156 L 162 350.035156 Z M 162 12.953125 "/>
</clipPath>
<clipPath id="clip-8">
<path clip-rule="nonzero" d="M 391 12.953125 L 392 12.953125 L 392 350.035156 L 391 350.035156 Z M 391 12.953125 "/>
</clipPath>
</defs>
<rect x="-50.4" y="-39.6" width="604.8" height="475.2" fill="rgb(100%, 100%, 100%)" fill-opacity="1"/>
<rect x="-50.4" y="-39.6" width="604.8" height="475.2" fill="rgb(95.294118%, 95.294118%, 95.294118%)" fill-opacity="1"/>
<path fill="none" stroke-width="2.521949" stroke-linecap="round" stroke-linejoin="round" stroke="rgb(95.294118%, 95.294118%, 95.294118%)" stroke-opacity="1" stroke-miterlimit="10" d="M 0 396 L 504 396 L 504 0 L 0 0 Z M 0 396 "/>
<g clip-path="url(#clip-0)">
<path fill-rule="nonzero" fill="rgb(95.294118%, 95.294118%, 95.294118%)" fill-opacity="1" stroke-width="2.521949" stroke-linecap="round" stroke-linejoin="round" stroke="rgb(95.294118%, 95.294118%, 95.294118%)" stroke-opacity="1" stroke-miterlimit="10" d="M 63.441406 350.03125 L 491.050781 350.03125 L 491.050781 12.949219 L 63.441406 12.949219 Z M 63.441406 350.03125 "/>
</g>
<g clip-path="url(#clip-1)">
<path fill="none" stroke-width="0.213396" stroke-linecap="butt" stroke-linejoin="round" stroke="rgb(95.294118%, 95.294118%, 95.294118%)" stroke-opacity="1" stroke-miterlimit="10" d="M 63.441406 334.710938 L 491.046875 334.710938 "/>
</g>
<g clip-path="url(#clip-2)">
<path fill="none" stroke-width="0.213396" stroke-linecap="butt" stroke-linejoin="round" stroke="rgb(95.294118%, 95.294118%, 95.294118%)" stroke-opacity="1" stroke-miterlimit="10" d="M 63.441406 274.269531 L 491.046875 274.269531 "/>
</g>
<g clip-path="url(#clip-3)">
<path fill="none" stroke-width="0.213396" stroke-linecap="butt" stroke-linejoin="round" stroke="rgb(95.294118%, 95.294118%, 95.294118%)" stroke-opacity="1" stroke-miterlimit="10" d="M 63.441406 213.828125 L 491.046875 213.828125 "/>
</g>
<g clip-path="url(#clip-4)">
<path fill="none" stroke-width="0.213396" stroke-linecap="butt" stroke-linejoin="round" stroke="rgb(95.294118%, 95.294118%, 95.294118%)" stroke-opacity="1" stroke-miterlimit="10" d="M 63.441406 153.386719 L 491.046875 153.386719 "/>
</g>
<g clip-path="url(#clip-5)">
<path fill="none" stroke-width="0.213396" stroke-linecap="butt" stroke-linejoin="round" stroke="rgb(95.294118%, 95.294118%, 95.294118%)" stroke-opacity="1" stroke-miterlimit="10" d="M 63.441406 92.945312 L 491.046875 92.945312 "/>
</g>
<g clip-path="url(#clip-6)">
<path fill="none" stroke-width="0.213396" stroke-linecap="butt" stroke-linejoin="round" stroke="rgb(95.294118%, 95.294118%, 95.294118%)" stroke-opacity="1" stroke-miterlimit="10" d="M 63.441406 32.503906 L 491.046875 32.503906 "/>
</g>
<g clip-path="url(#clip-7)">
<path fill="none" stroke-width="0.213396" stroke-linecap="butt" stroke-linejoin="round" stroke="rgb(95.294118%, 95.294118%, 95.294118%)" stroke-opacity="1" stroke-miterlimit="10" d="M 162.910156 350.03125 L 162.910156 12.953125 "/>
</g>
<g clip-path="url(#clip-8)">
<path fill="none" stroke-width="0.213396" stroke-linecap="butt" stroke-linejoin="round" stroke="rgb(95.294118%, 95.294118%, 95.294118%)" stroke-opacity="1" stroke-miterlimit="10" d="M 391.578125 350.03125 L 391.578125 12.953125 "/>
</g>
<path fill-rule="nonzero" fill="rgb(56.078431%, 16.470588%, 26.27451%)" fill-opacity="1" d="M 82.875 334.710938 L 242.941406 334.710938 L 242.941406 36.734375 L 82.875 36.734375 Z M 82.875 334.710938 "/>
<path fill-rule="nonzero" fill="rgb(56.078431%, 16.470588%, 26.27451%)" fill-opacity="1" d="M 311.542969 334.710938 L 471.609375 334.710938 L 471.609375 28.273438 L 311.542969 28.273438 Z M 311.542969 334.710938 "/>
<path fill-rule="nonzero" fill="rgb(10.196078%, 10.196078%, 10.196078%)" fill-opacity="1" d="M 45.183594 326.707031 L 45.664062 326.726562 L 46.125 326.789062 L 46.558594 326.898438 L 46.96875 327.042969 L 47.355469 327.234375 L 47.71875 327.464844 L 48.054688 327.742188 L 48.371094 328.058594 L 48.660156 328.417969 L 48.925781 328.820312 L 49.167969 329.253906 L 49.386719 329.730469 L 49.574219 330.25 L 49.742188 330.804688 L 49.882812 331.398438 L 49.996094 332.03125 L 50.085938 332.707031 L 50.148438 333.417969 L 50.1875 334.171875 L 50.199219 334.960938 L 50.1875 335.75 L 50.148438 336.5 L 50.082031 337.207031 L 49.992188 337.878906 L 49.875 338.515625 L 49.734375 339.109375 L 49.5625 339.667969 L 49.371094 340.183594 L 49.148438 340.664062 L 48.902344 341.105469 L 48.636719 341.503906 L 48.347656 341.859375 L 48.035156 342.171875 L 47.699219 342.441406 L 47.335938 342.671875 L 46.953125 342.859375 L 46.546875 343.007812 L 46.117188 343.109375 L 45.660156 343.171875 L 45.183594 343.195312 L 44.699219 343.171875 L 44.242188 343.109375 L 43.808594 343.007812 L 43.398438 342.859375 L 43.011719 342.671875 L 42.648438 342.441406 L 42.3125 342.171875 L 41.996094 341.859375 L 41.707031 341.503906 L 41.4375 341.105469 L 41.199219 340.664062 L 40.980469 340.183594 L 40.789062 339.664062 L 40.625 339.105469 L 40.484375 338.507812 L 40.371094 337.871094 L 40.28125 337.195312 L 40.21875 336.484375 L 40.179688 335.730469 L 40.167969 334.9375 L 40.179688 334.148438 L 40.21875 333.394531 L 40.28125 332.683594 L 40.371094 332.007812 L 40.484375 331.375 L 40.625 330.78125 L 40.789062 330.222656 L 40.980469 329.707031 L 41.199219 329.230469 L 41.4375 328.792969 L 41.707031 328.398438 L 41.996094 328.042969 L 42.3125 327.730469 L 42.648438 327.457031 L 43.011719 327.226562 L 43.398438 327.039062 L 43.808594 326.894531 L 44.242188 326.789062 L 44.699219 326.726562 Z M 45.183594 327.859375 L 44.503906 327.929688 L 43.894531 328.140625 L 43.359375 328.496094 L 42.894531 328.992188 L 42.5 329.628906 L 42.179688 330.40625 L 41.929688 331.328125 L 41.75 332.390625 L 41.644531 333.59375 L 41.609375 334.9375 L 41.644531 336.289062 L 41.75 337.496094 L 41.929688 338.5625 L 42.179688 339.484375 L 42.5 340.265625 L 42.894531 340.90625 L 43.359375 341.402344 L 43.894531 341.757812 L 44.503906 341.972656 L 45.183594 342.042969 L 45.523438 342.023438 L 45.851562 341.972656 L 46.15625 341.886719 L 46.445312 341.765625 L 46.71875 341.609375 L 46.976562 341.421875 L 47.210938 341.195312 L 47.433594 340.9375 L 47.636719 340.644531 L 47.824219 340.3125 L 47.996094 339.949219 L 48.152344 339.546875 L 48.289062 339.105469 L 48.40625 338.628906 L 48.507812 338.113281 L 48.589844 337.558594 L 48.652344 336.964844 L 48.699219 336.335938 L 48.726562 335.667969 L 48.734375 334.960938 L 48.726562 334.257812 L 48.699219 333.589844 L 48.652344 332.957031 L 48.589844 332.367188 L 48.507812 331.8125 L 48.40625 331.296875 L 48.289062 330.816406 L 48.152344 330.378906 L 47.996094 329.976562 L 47.824219 329.609375 L 47.636719 329.277344 L 47.433594 328.980469 L 47.210938 328.71875 L 46.976562 328.488281 L 46.71875 328.296875 L 46.445312 328.140625 L 46.15625 328.015625 L 45.851562 327.929688 L 45.523438 327.875 Z M 45.183594 327.859375 "/>
<path fill-rule="nonzero" fill="rgb(10.196078%, 10.196078%, 10.196078%)" fill-opacity="1" d="M 22.480469 266.527344 L 22.480469 282.488281 L 21.085938 282.488281 L 21.085938 268.066406 L 17.152344 270.511719 L 16.503906 269.480469 L 21.28125 266.527344 Z M 22.480469 266.527344 "/>
<path fill-rule="nonzero" fill="rgb(10.196078%, 10.196078%, 10.196078%)" fill-opacity="1" d="M 31.984375 266.265625 L 32.464844 266.285156 L 32.925781 266.351562 L 33.359375 266.457031 L 33.769531 266.601562 L 34.15625 266.792969 L 34.519531 267.027344 L 34.855469 267.300781 L 35.171875 267.617188 L 35.460938 267.976562 L 35.726562 268.378906 L 35.96875 268.8125 L 36.183594 269.292969 L 36.375 269.808594 L 36.542969 270.363281 L 36.679688 270.957031 L 36.796875 271.589844 L 36.886719 272.265625 L 36.949219 272.976562 L 36.988281 273.730469 L 37 274.519531 L 36.988281 275.308594 L 36.949219 276.058594 L 36.882812 276.765625 L 36.792969 277.441406 L 36.675781 278.074219 L 36.53125 278.667969 L 36.363281 279.226562 L 36.171875 279.742188 L 35.949219 280.222656 L 35.703125 280.664062 L 35.4375 281.0625 L 35.148438 281.417969 L 34.835938 281.730469 L 34.496094 282 L 34.136719 282.230469 L 33.753906 282.417969 L 33.347656 282.566406 L 32.914062 282.667969 L 32.460938 282.730469 L 31.984375 282.753906 L 31.5 282.730469 L 31.042969 282.667969 L 30.609375 282.566406 L 30.199219 282.417969 L 29.8125 282.230469 L 29.449219 282 L 29.109375 281.730469 L 28.796875 281.417969 L 28.503906 281.0625 L 28.238281 280.664062 L 27.996094 280.222656 L 27.78125 279.742188 L 27.589844 279.222656 L 27.425781 278.664062 L 27.285156 278.066406 L 27.171875 277.429688 L 27.082031 276.753906 L 27.019531 276.042969 L 26.980469 275.289062 L 26.96875 274.496094 L 26.980469 273.707031 L 27.019531 272.953125 L 27.082031 272.242188 L 27.171875 271.566406 L 27.285156 270.933594 L 27.425781 270.339844 L 27.589844 269.78125 L 27.78125 269.265625 L 27.996094 268.789062 L 28.238281 268.351562 L 28.503906 267.957031 L 28.796875 267.601562 L 29.109375 267.289062 L 29.449219 267.015625 L 29.8125 266.789062 L 30.199219 266.597656 L 30.609375 266.453125 L 31.042969 266.347656 L 31.5 266.285156 Z M 31.984375 267.417969 L 31.304688 267.488281 L 30.695312 267.699219 L 30.160156 268.054688 L 29.695312 268.550781 L 29.300781 269.1875 L 28.980469 269.964844 L 28.730469 270.886719 L 28.550781 271.949219 L 28.441406 273.152344 L 28.40625 274.496094 L 28.441406 275.847656 L 28.550781 277.054688 L 28.730469 278.121094 L 28.980469 279.042969 L 29.300781 279.824219 L 29.695312 280.464844 L 30.160156 280.960938 L 30.695312 281.316406 L 31.304688 281.53125 L 31.984375 281.601562 L 32.324219 281.582031 L 32.648438 281.53125 L 32.957031 281.445312 L 33.246094 281.324219 L 33.519531 281.167969 L 33.773438 280.980469 L 34.011719 280.753906 L 34.234375 280.496094 L 34.4375 280.203125 L 34.625 279.875 L 34.796875 279.507812 L 34.953125 279.105469 L 35.089844 278.664062 L 35.207031 278.1875 L 35.308594 277.671875 L 35.390625 277.117188 L 35.453125 276.523438 L 35.5 275.894531 L 35.527344 275.226562 L 35.535156 274.519531 L 35.527344 273.816406 L 35.5 273.148438 L 35.453125 272.515625 L 35.390625 271.925781 L 35.308594 271.371094 L 35.207031 270.855469 L 35.089844 270.375 L 34.953125 269.9375 L 34.796875 269.535156 L 34.625 269.167969 L 34.4375 268.835938 L 34.234375 268.539062 L 34.011719 268.277344 L 33.773438 268.046875 L 33.519531 267.855469 L 33.246094 267.699219 L 32.957031 267.574219 L 32.648438 267.488281 L 32.324219 267.433594 Z M 31.984375 267.417969 "/>
<path fill-rule="nonzero" fill="rgb(10.196078%, 10.196078%, 10.196078%)" fill-opacity="1" d="M 45.183594 266.265625 L 45.664062 266.285156 L 46.125 266.351562 L 46.558594 266.457031 L 46.96875 266.601562 L 47.355469 266.792969 L 47.71875 267.027344 L 48.054688 267.300781 L 48.371094 267.617188 L 48.660156 267.976562 L 48.925781 268.378906 L 49.167969 268.8125 L 49.386719 269.292969 L 49.574219 269.808594 L 49.742188 270.363281 L 49.882812 270.957031 L 49.996094 271.589844 L 50.085938 272.265625 L 50.148438 272.976562 L 50.1875 273.730469 L 50.199219 274.519531 L 50.1875 275.308594 L 50.148438 276.058594 L 50.082031 276.765625 L 49.992188 277.441406 L 49.875 278.074219 L 49.734375 278.667969 L 49.5625 279.226562 L 49.371094 279.742188 L 49.148438 280.222656 L 48.902344 280.664062 L 48.636719 281.0625 L 48.347656 281.417969 L 48.035156 281.730469 L 47.699219 282 L 47.335938 282.230469 L 46.953125 282.417969 L 46.546875 282.566406 L 46.117188 282.667969 L 45.660156 282.730469 L 45.183594 282.753906 L 44.699219 282.730469 L 44.242188 282.667969 L 43.808594 282.566406 L 43.398438 282.417969 L 43.011719 282.230469 L 42.648438 282 L 42.3125 281.730469 L 41.996094 281.417969 L 41.707031 281.0625 L 41.4375 280.664062 L 41.199219 280.222656 L 40.980469 279.742188 L 40.789062 279.222656 L 40.625 278.664062 L 40.484375 278.066406 L 40.371094 277.429688 L 40.28125 276.753906 L 40.21875 276.042969 L 40.179688 275.289062 L 40.167969 274.496094 L 40.179688 273.707031 L 40.21875 272.953125 L 40.28125 272.242188 L 40.371094 271.566406 L 40.484375 270.933594 L 40.625 270.339844 L 40.789062 269.78125 L 40.980469 269.265625 L 41.199219 268.789062 L 41.4375 268.351562 L 41.707031 267.957031 L 41.996094 267.601562 L 42.3125 267.289062 L 42.648438 267.015625 L 43.011719 266.789062 L 43.398438 266.597656 L 43.808594 266.453125 L 44.242188 266.347656 L 44.699219 266.285156 Z M 45.183594 267.417969 L 44.503906 267.488281 L 43.894531 267.699219 L 43.359375 268.054688 L 42.894531 268.550781 L 42.5 269.1875 L 42.179688 269.964844 L 41.929688 270.886719 L 41.75 271.949219 L 41.644531 273.152344 L 41.609375 274.496094 L 41.644531 275.847656 L 41.75 277.054688 L 41.929688 278.121094 L 42.179688 279.042969 L 42.5 279.824219 L 42.894531 280.464844 L 43.359375 280.960938 L 43.894531 281.316406 L 44.503906 281.53125 L 45.183594 281.601562 L 45.523438 281.582031 L 45.851562 281.53125 L 46.15625 281.445312 L 46.445312 281.324219 L 46.71875 281.167969 L 46.976562 280.980469 L 47.210938 280.753906 L 47.433594 280.496094 L 47.636719 280.203125 L 47.824219 279.875 L 47.996094 279.507812 L 48.152344 279.105469 L 48.289062 278.664062 L 48.40625 278.1875 L 48.507812 277.671875 L 48.589844 277.117188 L 48.652344 276.523438 L 48.699219 275.894531 L 48.726562 275.226562 L 48.734375 274.519531 L 48.726562 273.816406 L 48.699219 273.148438 L 48.652344 272.515625 L 48.589844 271.925781 L 48.507812 271.371094 L 48.40625 270.855469 L 48.289062 270.375 L 48.152344 269.9375 L 47.996094 269.535156 L 47.824219 269.167969 L 47.636719 268.835938 L 47.433594 268.539062 L 47.210938 268.277344 L 46.976562 268.046875 L 46.71875 267.855469 L 46.445312 267.699219 L 46.15625 267.574219 L 45.851562 267.488281 L 45.523438 267.433594 Z M 45.183594 267.417969 "/>
<path fill-rule="nonzero" fill="rgb(10.196078%, 10.196078%, 10.196078%)" fill-opacity="1" d="M 19.289062 205.824219 L 19.683594 205.835938 L 20.058594 205.871094 L 20.421875 205.929688 L 20.765625 206.011719 L 21.09375 206.117188 L 21.402344 206.246094 L 21.699219 206.398438 L 21.976562 206.578125 L 22.234375 206.777344 L 22.480469 207 L 22.707031 207.242188 L 22.910156 207.496094 L 23.089844 207.765625 L 23.246094 208.046875 L 23.378906 208.34375 L 23.488281 208.652344 L 23.570312 208.976562 L 23.632812 209.3125 L 23.667969 209.660156 L 23.679688 210.023438 L 23.671875 210.335938 L 23.652344 210.640625 L 23.621094 210.941406 L 23.574219 211.242188 L 23.515625 211.535156 L 23.445312 211.828125 L 23.363281 212.113281 L 23.265625 212.398438 L 23.15625 212.675781 L 23.03125 212.953125 L 22.894531 213.226562 L 22.742188 213.507812 L 22.574219 213.796875 L 22.394531 214.089844 L 22.199219 214.386719 L 21.984375 214.6875 L 21.757812 214.996094 L 21.519531 215.308594 L 21.261719 215.628906 L 20.992188 215.953125 L 20.699219 216.292969 L 20.375 216.667969 L 20.015625 217.074219 L 19.625 217.515625 L 19.199219 217.984375 L 18.738281 218.488281 L 18.242188 219.023438 L 17.710938 219.59375 L 17.148438 220.191406 L 16.550781 220.824219 L 24.113281 220.824219 L 23.917969 222.046875 L 14.917969 222.046875 L 14.917969 220.871094 L 15.558594 220.1875 L 16.160156 219.542969 L 16.722656 218.933594 L 17.25 218.359375 L 17.738281 217.824219 L 18.191406 217.324219 L 18.605469 216.859375 L 18.980469 216.433594 L 19.320312 216.042969 L 19.625 215.6875 L 19.902344 215.351562 L 20.164062 215.027344 L 20.410156 214.707031 L 20.636719 214.402344 L 20.847656 214.105469 L 21.039062 213.816406 L 21.214844 213.539062 L 21.375 213.269531 L 21.515625 213.007812 L 21.640625 212.761719 L 21.753906 212.507812 L 21.855469 212.253906 L 21.945312 211.996094 L 22.023438 211.734375 L 22.089844 211.46875 L 22.144531 211.203125 L 22.183594 210.929688 L 22.214844 210.65625 L 22.234375 210.378906 L 22.238281 210.097656 L 22.230469 209.820312 L 22.207031 209.550781 L 22.164062 209.296875 L 22.105469 209.054688 L 22.03125 208.824219 L 21.9375 208.605469 L 21.828125 208.394531 L 21.703125 208.199219 L 21.558594 208.015625 L 21.398438 207.839844 L 21.230469 207.679688 L 21.050781 207.539062 L 20.859375 207.410156 L 20.660156 207.300781 L 20.445312 207.210938 L 20.222656 207.132812 L 19.988281 207.074219 L 19.742188 207.035156 L 19.484375 207.007812 L 19.214844 207 L 18.996094 207.003906 L 18.785156 207.019531 L 18.574219 207.039062 L 18.371094 207.074219 L 18.171875 207.113281 L 17.976562 207.164062 L 17.789062 207.222656 L 17.601562 207.292969 L 17.421875 207.371094 L 17.246094 207.457031 L 17.082031 207.550781 L 16.914062 207.65625 L 16.75 207.769531 L 16.585938 207.894531 L 16.425781 208.027344 L 16.265625 208.167969 L 16.105469 208.316406 L 15.949219 208.476562 L 15.792969 208.644531 L 15.640625 208.824219 L 14.679688 208.105469 L 14.871094 207.875 L 15.070312 207.660156 L 15.269531 207.453125 L 15.46875 207.261719 L 15.675781 207.082031 L 15.882812 206.917969 L 16.09375 206.761719 L 16.308594 206.621094 L 16.523438 206.492188 L 16.742188 206.375 L 16.972656 206.269531 L 17.207031 206.175781 L 17.445312 206.09375 L 17.691406 206.023438 L 17.945312 205.960938 L 18.199219 205.914062 L 18.464844 205.875 L 18.734375 205.847656 L 19.007812 205.828125 Z M 19.289062 205.824219 "/>
<path fill-rule="nonzero" fill="rgb(10.196078%, 10.196078%, 10.196078%)" fill-opacity="1" d="M 31.984375 205.824219 L 32.464844 205.84375 L 32.925781 205.910156 L 33.359375 206.015625 L 33.769531 206.160156 L 34.15625 206.351562 L 34.519531 206.585938 L 34.855469 206.859375 L 35.171875 207.175781 L 35.460938 207.535156 L 35.726562 207.9375 L 35.96875 208.375 L 36.183594 208.851562 L 36.375 209.367188 L 36.542969 209.921875 L 36.679688 210.515625 L 36.796875 211.148438 L 36.886719 211.824219 L 36.949219 212.535156 L 36.988281 213.289062 L 37 214.078125 L 36.988281 214.867188 L 36.949219 215.617188 L 36.882812 216.328125 L 36.792969 217 L 36.675781 217.632812 L 36.53125 218.226562 L 36.363281 218.785156 L 36.171875 219.300781 L 35.949219 219.78125 L 35.703125 220.222656 L 35.4375 220.621094 L 35.148438 220.976562 L 34.835938 221.289062 L 34.496094 221.558594 L 34.136719 221.789062 L 33.753906 221.976562 L 33.347656 222.125 L 32.914062 222.226562 L 32.460938 222.292969 L 31.984375 222.3125 L 31.5 222.292969 L 31.042969 222.226562 L 30.609375 222.125 L 30.199219 221.976562 L 29.8125 221.789062 L 29.449219 221.558594 L 29.109375 221.289062 L 28.796875 220.976562 L 28.503906 220.621094 L 28.238281 220.222656 L 27.996094 219.78125 L 27.78125 219.300781 L 27.589844 218.78125 L 27.425781 218.222656 L 27.285156 217.625 L 27.171875 216.988281 L 27.082031 216.316406 L 27.019531 215.601562 L 26.980469 214.847656 L 26.96875 214.054688 L 26.980469 213.265625 L 27.019531 212.511719 L 27.082031 211.800781 L 27.171875 211.125 L 27.285156 210.492188 L 27.425781 209.898438 L 27.589844 209.34375 L 27.78125 208.824219 L 27.996094 208.347656 L 28.238281 207.910156 L 28.503906 207.515625 L 28.796875 207.160156 L 29.109375 206.847656 L 29.449219 206.574219 L 29.8125 206.347656 L 30.199219 206.15625 L 30.609375 206.011719 L 31.042969 205.90625 L 31.5 205.84375 Z M 31.984375 206.976562 L 31.304688 207.046875 L 30.695312 207.257812 L 30.160156 207.613281 L 29.695312 208.109375 L 29.300781 208.746094 L 28.980469 209.523438 L 28.730469 210.445312 L 28.550781 211.507812 L 28.441406 212.710938 L 28.40625 214.054688 L 28.441406 215.40625 L 28.550781 216.613281 L 28.730469 217.679688 L 28.980469 218.601562 L 29.300781 219.382812 L 29.695312 220.023438 L 30.160156 220.519531 L 30.695312 220.875 L 31.304688 221.089844 L 31.984375 221.160156 L 32.324219 221.144531 L 32.648438 221.089844 L 32.957031 221.003906 L 33.246094 220.882812 L 33.519531 220.726562 L 33.773438 220.539062 L 34.011719 220.3125 L 34.234375 220.054688 L 34.4375 219.761719 L 34.625 219.433594 L 34.796875 219.066406 L 34.953125 218.664062 L 35.089844 218.222656 L 35.207031 217.746094 L 35.308594 217.230469 L 35.390625 216.675781 L 35.453125 216.082031 L 35.5 215.453125 L 35.527344 214.785156 L 35.535156 214.078125 L 35.527344 213.375 L 35.5 212.707031 L 35.453125 212.074219 L 35.390625 211.484375 L 35.308594 210.929688 L 35.207031 210.414062 L 35.089844 209.933594 L 34.953125 209.496094 L 34.796875 209.09375 L 34.625 208.726562 L 34.4375 208.394531 L 34.234375 208.097656 L 34.011719 207.835938 L 33.773438 207.605469 L 33.519531 207.414062 L 33.246094 207.257812 L 32.957031 207.132812 L 32.648438 207.046875 L 32.324219 206.992188 Z M 31.984375 206.976562 "/>
<path fill-rule="nonzero" fill="rgb(10.196078%, 10.196078%, 10.196078%)" fill-opacity="1" d="M 45.183594 205.824219 L 45.664062 205.84375 L 46.125 205.910156 L 46.558594 206.015625 L 46.96875 206.160156 L 47.355469 206.351562 L 47.71875 206.585938 L 48.054688 206.859375 L 48.371094 207.175781 L 48.660156 207.535156 L 48.925781 207.9375 L 49.167969 208.375 L 49.386719 208.851562 L 49.574219 209.367188 L 49.742188 209.921875 L 49.882812 210.515625 L 49.996094 211.148438 L 50.085938 211.824219 L 50.148438 212.535156 L 50.1875 213.289062 L 50.199219 214.078125 L 50.1875 214.867188 L 50.148438 215.617188 L 50.082031 216.328125 L 49.992188 217 L 49.875 217.632812 L 49.734375 218.226562 L 49.5625 218.785156 L 49.371094 219.300781 L 49.148438 219.78125 L 48.902344 220.222656 L 48.636719 220.621094 L 48.347656 220.976562 L 48.035156 221.289062 L 47.699219 221.558594 L 47.335938 221.789062 L 46.953125 221.976562 L 46.546875 222.125 L 46.117188 222.226562 L 45.660156 222.292969 L 45.183594 222.3125 L 44.699219 222.292969 L 44.242188 222.226562 L 43.808594 222.125 L 43.398438 221.976562 L 43.011719 221.789062 L 42.648438 221.558594 L 42.3125 221.289062 L 41.996094 220.976562 L 41.707031 220.621094 L 41.4375 220.222656 L 41.199219 219.78125 L 40.980469 219.300781 L 40.789062 218.78125 L 40.625 218.222656 L 40.484375 217.625 L 40.371094 216.988281 L 40.28125 216.316406 L 40.21875 215.601562 L 40.179688 214.847656 L 40.167969 214.054688 L 40.179688 213.265625 L 40.21875 212.511719 L 40.28125 211.800781 L 40.371094 211.125 L 40.484375 210.492188 L 40.625 209.898438 L 40.789062 209.34375 L 40.980469 208.824219 L 41.199219 208.347656 L 41.4375 207.910156 L 41.707031 207.515625 L 41.996094 207.160156 L 42.3125 206.847656 L 42.648438 206.574219 L 43.011719 206.347656 L 43.398438 206.15625 L 43.808594 206.011719 L 44.242188 205.90625 L 44.699219 205.84375 Z M 45.183594 206.976562 L 44.503906 207.046875 L 43.894531 207.257812 L 43.359375 207.613281 L 42.894531 208.109375 L 42.5 208.746094 L 42.179688 209.523438 L 41.929688 210.445312 L 41.75 211.507812 L 41.644531 212.710938 L 41.609375 214.054688 L 41.644531 215.40625 L 41.75 216.613281 L 41.929688 217.679688 L 42.179688 218.601562 L 42.5 219.382812 L 42.894531 220.023438 L 43.359375 220.519531 L 43.894531 220.875 L 44.503906 221.089844 L 45.183594 221.160156 L 45.523438 221.144531 L 45.851562 221.089844 L 46.15625 221.003906 L 46.445312 220.882812 L 46.71875 220.726562 L 46.976562 220.539062 L 47.210938 220.3125 L 47.433594 220.054688 L 47.636719 219.761719 L 47.824219 219.433594 L 47.996094 219.066406 L 48.152344 218.664062 L 48.289062 218.222656 L 48.40625 217.746094 L 48.507812 217.230469 L 48.589844 216.675781 L 48.652344 216.082031 L 48.699219 215.453125 L 48.726562 214.785156 L 48.734375 214.078125 L 48.726562 213.375 L 48.699219 212.707031 L 48.652344 212.074219 L 48.589844 211.484375 L 48.507812 210.929688 L 48.40625 210.414062 L 48.289062 209.933594 L 48.152344 209.496094 L 47.996094 209.09375 L 47.824219 208.726562 L 47.636719 208.394531 L 47.433594 208.097656 L 47.210938 207.835938 L 46.976562 207.605469 L 46.71875 207.414062 L 46.445312 207.257812 L 46.15625 207.132812 L 45.851562 207.046875 L 45.523438 206.992188 Z M 45.183594 206.976562 "/>
<path fill-rule="nonzero" fill="rgb(10.196078%, 10.196078%, 10.196078%)" fill-opacity="1" d="M 19.023438 145.382812 L 19.289062 145.386719 L 19.546875 145.402344 L 19.796875 145.429688 L 20.042969 145.46875 L 20.277344 145.515625 L 20.507812 145.574219 L 20.730469 145.640625 L 20.945312 145.71875 L 21.152344 145.808594 L 21.351562 145.910156 L 21.546875 146.019531 L 21.734375 146.136719 L 21.914062 146.261719 L 22.082031 146.394531 L 22.238281 146.535156 L 22.386719 146.683594 L 22.527344 146.839844 L 22.65625 147 L 22.777344 147.171875 L 22.886719 147.351562 L 22.988281 147.53125 L 23.078125 147.714844 L 23.15625 147.90625 L 23.226562 148.097656 L 23.285156 148.296875 L 23.332031 148.503906 L 23.367188 148.710938 L 23.394531 148.925781 L 23.410156 149.144531 L 23.414062 149.367188 L 23.40625 149.671875 L 23.378906 149.96875 L 23.335938 150.25 L 23.273438 150.523438 L 23.195312 150.78125 L 23.097656 151.03125 L 22.980469 151.269531 L 22.847656 151.492188 L 22.695312 151.707031 L 22.527344 151.910156 L 22.347656 152.09375 L 22.160156 152.265625 L 21.960938 152.421875 L 21.75 152.5625 L 21.53125 152.691406 L 21.300781 152.804688 L 21.058594 152.902344 L 20.808594 152.984375 L 20.542969 153.054688 L 20.269531 153.109375 L 20.578125 153.136719 L 20.875 153.179688 L 21.15625 153.242188 L 21.429688 153.324219 L 21.695312 153.429688 L 21.945312 153.550781 L 22.183594 153.695312 L 22.414062 153.855469 L 22.632812 154.039062 L 22.839844 154.238281 L 23.035156 154.453125 L 23.210938 154.683594 L 23.367188 154.929688 L 23.5 155.191406 L 23.613281 155.46875 L 23.707031 155.761719 L 23.777344 156.070312 L 23.832031 156.398438 L 23.859375 156.738281 L 23.871094 157.09375 L 23.863281 157.371094 L 23.847656 157.640625 L 23.816406 157.902344 L 23.773438 158.160156 L 23.714844 158.410156 L 23.648438 158.652344 L 23.566406 158.890625 L 23.472656 159.121094 L 23.367188 159.347656 L 23.246094 159.566406 L 23.117188 159.777344 L 22.976562 159.980469 L 22.824219 160.171875 L 22.660156 160.359375 L 22.484375 160.53125 L 22.300781 160.699219 L 22.101562 160.855469 L 21.894531 161.003906 L 21.675781 161.140625 L 21.449219 161.269531 L 21.214844 161.382812 L 20.972656 161.488281 L 20.722656 161.578125 L 20.46875 161.65625 L 20.207031 161.71875 L 19.933594 161.773438 L 19.660156 161.816406 L 19.375 161.847656 L 19.082031 161.863281 L 18.785156 161.871094 L 18.238281 161.851562 L 17.710938 161.789062 L 17.203125 161.683594 L 16.714844 161.539062 L 16.246094 161.355469 L 15.796875 161.128906 L 15.367188 160.859375 L 14.957031 160.550781 L 14.570312 160.199219 L 14.199219 159.808594 L 15.085938 159.015625 L 15.25 159.1875 L 15.414062 159.351562 L 15.582031 159.503906 L 15.746094 159.648438 L 15.914062 159.78125 L 16.082031 159.90625 L 16.253906 160.023438 L 16.421875 160.128906 L 16.59375 160.222656 L 16.765625 160.3125 L 16.945312 160.382812 L 17.128906 160.449219 L 17.316406 160.507812 L 17.507812 160.554688 L 17.703125 160.597656 L 17.902344 160.632812 L 18.105469 160.660156 L 18.3125 160.679688 L 18.519531 160.691406 L 18.734375 160.695312 L 19.074219 160.683594 L 19.398438 160.65625 L 19.707031 160.605469 L 20 160.539062 L 20.277344 160.449219 L 20.542969 160.339844 L 20.789062 160.210938 L 21.023438 160.066406 L 21.242188 159.898438 L 21.449219 159.710938 L 21.632812 159.507812 L 21.800781 159.292969 L 21.949219 159.0625 L 22.078125 158.824219 L 22.183594 158.570312 L 22.273438 158.304688 L 22.34375 158.027344 L 22.390625 157.738281 L 22.421875 157.433594 L 22.429688 157.117188 L 22.394531 156.480469 L 22.289062 155.910156 L 22.109375 155.40625 L 21.855469 154.96875 L 21.53125 154.597656 L 21.136719 154.296875 L 20.667969 154.0625 L 20.128906 153.894531 L 19.515625 153.792969 L 18.832031 153.757812 L 17.777344 153.757812 L 17.96875 152.628906 L 18.734375 152.628906 L 19.003906 152.621094 L 19.265625 152.597656 L 19.519531 152.558594 L 19.765625 152.5 L 20 152.425781 L 20.230469 152.335938 L 20.449219 152.230469 L 20.664062 152.109375 L 20.867188 151.96875 L 21.0625 151.816406 L 21.246094 151.640625 L 21.410156 151.449219 L 21.554688 151.246094 L 21.679688 151.03125 L 21.785156 150.800781 L 21.871094 150.554688 L 21.9375 150.296875 L 21.984375 150.023438 L 22.015625 149.738281 L 22.023438 149.4375 L 22.015625 149.179688 L 21.988281 148.933594 L 21.949219 148.695312 L 21.890625 148.472656 L 21.8125 148.257812 L 21.722656 148.054688 L 21.613281 147.859375 L 21.484375 147.679688 L 21.34375 147.511719 L 21.183594 147.351562 L 21.011719 147.199219 L 20.824219 147.066406 L 20.628906 146.945312 L 20.421875 146.84375 L 20.207031 146.757812 L 19.976562 146.683594 L 19.738281 146.628906 L 19.484375 146.589844 L 19.222656 146.566406 L 18.953125 146.558594 L 18.75 146.5625 L 18.554688 146.574219 L 18.363281 146.589844 L 18.171875 146.617188 L 17.984375 146.648438 L 17.800781 146.6875 L 17.621094 146.734375 L 17.445312 146.789062 L 17.273438 146.851562 L 17.101562 146.917969 L 16.933594 146.992188 L 16.765625 147.070312 L 16.597656 147.160156 L 16.425781 147.261719 L 16.257812 147.367188 L 16.085938 147.484375 L 15.914062 147.613281 L 15.742188 147.75 L 15.570312 147.894531 L 15.398438 148.046875 L 14.65625 147.183594 L 14.847656 147.003906 L 15.042969 146.835938 L 15.238281 146.679688 L 15.4375 146.53125 L 15.640625 146.390625 L 15.84375 146.261719 L 16.046875 146.140625 L 16.253906 146.03125 L 16.460938 145.929688 L 16.671875 145.839844 L 16.886719 145.753906 L 17.101562 145.675781 L 17.328125 145.605469 L 17.554688 145.546875 L 17.789062 145.496094 L 18.023438 145.457031 L 18.265625 145.421875 L 18.515625 145.402344 L 18.765625 145.386719 Z M 19.023438 145.382812 "/>
<path fill-rule="nonzero" fill="rgb(10.196078%, 10.196078%, 10.196078%)" fill-opacity="1" d="M 31.984375 145.382812 L 32.464844 145.402344 L 32.925781 145.46875 L 33.359375 145.574219 L 33.769531 145.71875 L 34.15625 145.910156 L 34.519531 146.144531 L 34.855469 146.417969 L 35.171875 146.734375 L 35.460938 147.09375 L 35.726562 147.496094 L 35.96875 147.933594 L 36.183594 148.410156 L 36.375 148.925781 L 36.542969 149.480469 L 36.679688 150.074219 L 36.796875 150.707031 L 36.886719 151.382812 L 36.949219 152.09375 L 36.988281 152.847656 L 37 153.640625 L 36.988281 154.425781 L 36.949219 155.175781 L 36.882812 155.886719 L 36.792969 156.558594 L 36.675781 157.191406 L 36.53125 157.785156 L 36.363281 158.34375 L 36.171875 158.859375 L 35.949219 159.339844 L 35.703125 159.78125 L 35.4375 160.179688 L 35.148438 160.535156 L 34.835938 160.847656 L 34.496094 161.117188 L 34.136719 161.347656 L 33.753906 161.535156 L 33.347656 161.683594 L 32.914062 161.789062 L 32.460938 161.851562 L 31.984375 161.871094 L 31.5 161.851562 L 31.042969 161.789062 L 30.609375 161.683594 L 30.199219 161.535156 L 29.8125 161.347656 L 29.449219 161.117188 L 29.109375 160.847656 L 28.796875 160.535156 L 28.503906 160.179688 L 28.238281 159.78125 L 27.996094 159.339844 L 27.78125 158.859375 L 27.589844 158.339844 L 27.425781 157.78125 L 27.285156 157.183594 L 27.171875 156.546875 L 27.082031 155.875 L 27.019531 155.160156 L 26.980469 154.40625 L 26.96875 153.613281 L 26.980469 152.824219 L 27.019531 152.070312 L 27.082031 151.359375 L 27.171875 150.683594 L 27.285156 150.050781 L 27.425781 149.457031 L 27.589844 148.902344 L 27.78125 148.382812 L 27.996094 147.90625 L 28.238281 147.46875 L 28.503906 147.074219 L 28.796875 146.71875 L 29.109375 146.40625 L 29.449219 146.132812 L 29.8125 145.90625 L 30.199219 145.714844 L 30.609375 145.570312 L 31.042969 145.464844 L 31.5 145.402344 Z M 31.984375 146.535156 L 31.304688 146.605469 L 30.695312 146.816406 L 30.160156 147.171875 L 29.695312 147.667969 L 29.300781 148.304688 L 28.980469 149.082031 L 28.730469 150.003906 L 28.550781 151.066406 L 28.441406 152.269531 L 28.40625 153.613281 L 28.441406 154.964844 L 28.550781 156.171875 L 28.730469 157.238281 L 28.980469 158.160156 L 29.300781 158.941406 L 29.695312 159.582031 L 30.160156 160.078125 L 30.695312 160.433594 L 31.304688 160.648438 L 31.984375 160.71875 L 32.324219 160.703125 L 32.648438 160.648438 L 32.957031 160.5625 L 33.246094 160.441406 L 33.519531 160.285156 L 33.773438 160.097656 L 34.011719 159.871094 L 34.234375 159.613281 L 34.4375 159.320312 L 34.625 158.992188 L 34.796875 158.625 L 34.953125 158.222656 L 35.089844 157.785156 L 35.207031 157.304688 L 35.308594 156.789062 L 35.390625 156.234375 L 35.453125 155.640625 L 35.5 155.011719 L 35.527344 154.34375 L 35.535156 153.640625 L 35.527344 152.933594 L 35.5 152.265625 L 35.453125 151.636719 L 35.390625 151.042969 L 35.308594 150.488281 L 35.207031 149.972656 L 35.089844 149.492188 L 34.953125 149.054688 L 34.796875 148.652344 L 34.625 148.285156 L 34.4375 147.953125 L 34.234375 147.65625 L 34.011719 147.394531 L 33.773438 147.164062 L 33.519531 146.972656 L 33.246094 146.816406 L 32.957031 146.691406 L 32.648438 146.605469 L 32.324219 146.550781 Z M 31.984375 146.535156 "/>
<path fill-rule="nonzero" fill="rgb(10.196078%, 10.196078%, 10.196078%)" fill-opacity="1" d="M 45.183594 145.382812 L 45.664062 145.402344 L 46.125 145.46875 L 46.558594 145.574219 L 46.96875 145.71875 L 47.355469 145.910156 L 47.71875 146.144531 L 48.054688 146.417969 L 48.371094 146.734375 L 48.660156 147.09375 L 48.925781 147.496094 L 49.167969 147.933594 L 49.386719 148.410156 L 49.574219 148.925781 L 49.742188 149.480469 L 49.882812 150.074219 L 49.996094 150.707031 L 50.085938 151.382812 L 50.148438 152.09375 L 50.1875 152.847656 L 50.199219 153.640625 L 50.1875 154.425781 L 50.148438 155.175781 L 50.082031 155.886719 L 49.992188 156.558594 L 49.875 157.191406 L 49.734375 157.785156 L 49.5625 158.34375 L 49.371094 158.859375 L 49.148438 159.339844 L 48.902344 159.78125 L 48.636719 160.179688 L 48.347656 160.535156 L 48.035156 160.847656 L 47.699219 161.117188 L 47.335938 161.347656 L 46.953125 161.535156 L 46.546875 161.683594 L 46.117188 161.789062 L 45.660156 161.851562 L 45.183594 161.871094 L 44.699219 161.851562 L 44.242188 161.789062 L 43.808594 161.683594 L 43.398438 161.535156 L 43.011719 161.347656 L 42.648438 161.117188 L 42.3125 160.847656 L 41.996094 160.535156 L 41.707031 160.179688 L 41.4375 159.78125 L 41.199219 159.339844 L 40.980469 158.859375 L 40.789062 158.339844 L 40.625 157.78125 L 40.484375 157.183594 L 40.371094 156.546875 L 40.28125 155.875 L 40.21875 155.160156 L 40.179688 154.40625 L 40.167969 153.613281 L 40.179688 152.824219 L 40.21875 152.070312 L 40.28125 151.359375 L 40.371094 150.683594 L 40.484375 150.050781 L 40.625 149.457031 L 40.789062 148.902344 L 40.980469 148.382812 L 41.199219 147.90625 L 41.4375 147.46875 L 41.707031 147.074219 L 41.996094 146.71875 L 42.3125 146.40625 L 42.648438 146.132812 L 43.011719 145.90625 L 43.398438 145.714844 L 43.808594 145.570312 L 44.242188 145.464844 L 44.699219 145.402344 Z M 45.183594 146.535156 L 44.503906 146.605469 L 43.894531 146.816406 L 43.359375 147.171875 L 42.894531 147.667969 L 42.5 148.304688 L 42.179688 149.082031 L 41.929688 150.003906 L 41.75 151.066406 L 41.644531 152.269531 L 41.609375 153.613281 L 41.644531 154.964844 L 41.75 156.171875 L 41.929688 157.238281 L 42.179688 158.160156 L 42.5 158.941406 L 42.894531 159.582031 L 43.359375 160.078125 L 43.894531 160.433594 L 44.503906 160.648438 L 45.183594 160.71875 L 45.523438 160.703125 L 45.851562 160.648438 L 46.15625 160.5625 L 46.445312 160.441406 L 46.71875 160.285156 L 46.976562 160.097656 L 47.210938 159.871094 L 47.433594 159.613281 L 47.636719 159.320312 L 47.824219 158.992188 L 47.996094 158.625 L 48.152344 158.222656 L 48.289062 157.785156 L 48.40625 157.304688 L 48.507812 156.789062 L 48.589844 156.234375 L 48.652344 155.640625 L 48.699219 155.011719 L 48.726562 154.34375 L 48.734375 153.640625 L 48.726562 152.933594 L 48.699219 152.265625 L 48.652344 151.636719 L 48.589844 151.042969 L 48.507812 150.488281 L 48.40625 149.972656 L 48.289062 149.492188 L 48.152344 149.054688 L 47.996094 148.652344 L 47.824219 148.285156 L 47.636719 147.953125 L 47.433594 147.65625 L 47.210938 147.394531 L 46.976562 147.164062 L 46.71875 146.972656 L 46.445312 146.816406 L 46.15625 146.691406 L 45.851562 146.605469 L 45.523438 146.550781 Z M 45.183594 146.535156 "/>
<path fill-rule="nonzero" fill="rgb(10.196078%, 10.196078%, 10.196078%)" fill-opacity="1" d="M 24.542969 95.8125 L 24.542969 96.964844 L 22.382812 96.964844 L 22.382812 101.164062 L 21.015625 101.164062 L 21.015625 96.964844 L 14.03125 96.964844 L 14.03125 95.933594 L 18.902344 84.941406 L 20.078125 85.421875 L 15.519531 95.8125 L 21.015625 95.8125 L 21.183594 91.132812 L 22.382812 91.132812 L 22.382812 95.8125 Z M 24.542969 95.8125 "/>
<path fill-rule="nonzero" fill="rgb(10.196078%, 10.196078%, 10.196078%)" fill-opacity="1" d="M 31.984375 84.941406 L 32.464844 84.960938 L 32.925781 85.027344 L 33.359375 85.132812 L 33.769531 85.28125 L 34.15625 85.46875 L 34.519531 85.703125 L 34.855469 85.976562 L 35.171875 86.292969 L 35.460938 86.652344 L 35.726562 87.054688 L 35.96875 87.492188 L 36.183594 87.96875 L 36.375 88.484375 L 36.542969 89.039062 L 36.679688 89.632812 L 36.796875 90.265625 L 36.886719 90.941406 L 36.949219 91.652344 L 36.988281 92.40625 L 37 93.199219 L 36.988281 93.984375 L 36.949219 94.734375 L 36.882812 95.445312 L 36.792969 96.117188 L 36.675781 96.75 L 36.53125 97.34375 L 36.363281 97.902344 L 36.171875 98.417969 L 35.949219 98.898438 L 35.703125 99.339844 L 35.4375 99.738281 L 35.148438 100.09375 L 34.835938 100.40625 L 34.496094 100.679688 L 34.136719 100.90625 L 33.753906 101.09375 L 33.347656 101.242188 L 32.914062 101.347656 L 32.460938 101.410156 L 31.984375 101.429688 L 31.5 101.410156 L 31.042969 101.347656 L 30.609375 101.242188 L 30.199219 101.09375 L 29.8125 100.90625 L 29.449219 100.679688 L 29.109375 100.40625 L 28.796875 100.09375 L 28.503906 99.738281 L 28.238281 99.339844 L 27.996094 98.898438 L 27.78125 98.417969 L 27.589844 97.898438 L 27.425781 97.339844 L 27.285156 96.742188 L 27.171875 96.105469 L 27.082031 95.433594 L 27.019531 94.71875 L 26.980469 93.964844 L 26.96875 93.171875 L 26.980469 92.382812 L 27.019531 91.628906 L 27.082031 90.917969 L 27.171875 90.242188 L 27.285156 89.609375 L 27.425781 89.015625 L 27.589844 88.460938 L 27.78125 87.941406 L 27.996094 87.464844 L 28.238281 87.03125 L 28.503906 86.632812 L 28.796875 86.277344 L 29.109375 85.964844 L 29.449219 85.691406 L 29.8125 85.464844 L 30.199219 85.277344 L 30.609375 85.128906 L 31.042969 85.023438 L 31.5 84.960938 Z M 31.984375 86.09375 L 31.304688 86.164062 L 30.695312 86.375 L 30.160156 86.730469 L 29.695312 87.226562 L 29.300781 87.863281 L 28.980469 88.640625 L 28.730469 89.5625 L 28.550781 90.625 L 28.441406 91.828125 L 28.40625 93.171875 L 28.441406 94.523438 L 28.550781 95.730469 L 28.730469 96.796875 L 28.980469 97.71875 L 29.300781 98.5 L 29.695312 99.140625 L 30.160156 99.636719 L 30.695312 99.992188 L 31.304688 100.207031 L 31.984375 100.277344 L 32.324219 100.261719 L 32.648438 100.207031 L 32.957031 100.121094 L 33.246094 100 L 33.519531 99.84375 L 33.773438 99.65625 L 34.011719 99.429688 L 34.234375 99.171875 L 34.4375 98.878906 L 34.625 98.550781 L 34.796875 98.183594 L 34.953125 97.78125 L 35.089844 97.34375 L 35.207031 96.863281 L 35.308594 96.347656 L 35.390625 95.792969 L 35.453125 95.203125 L 35.5 94.570312 L 35.527344 93.902344 L 35.535156 93.199219 L 35.527344 92.492188 L 35.5 91.824219 L 35.453125 91.195312 L 35.390625 90.601562 L 35.308594 90.046875 L 35.207031 89.53125 L 35.089844 89.054688 L 34.953125 88.613281 L 34.796875 88.210938 L 34.625 87.84375 L 34.4375 87.511719 L 34.234375 87.214844 L 34.011719 86.953125 L 33.773438 86.722656 L 33.519531 86.53125 L 33.246094 86.375 L 32.957031 86.25 L 32.648438 86.164062 L 32.324219 86.109375 Z M 31.984375 86.09375 "/>
<path fill-rule="nonzero" fill="rgb(10.196078%, 10.196078%, 10.196078%)" fill-opacity="1" d="M 45.183594 84.941406 L 45.664062 84.960938 L 46.125 85.027344 L 46.558594 85.132812 L 46.96875 85.28125 L 47.355469 85.46875 L 47.71875 85.703125 L 48.054688 85.976562 L 48.371094 86.292969 L 48.660156 86.652344 L 48.925781 87.054688 L 49.167969 87.492188 L 49.386719 87.96875 L 49.574219 88.484375 L 49.742188 89.039062 L 49.882812 89.632812 L 49.996094 90.265625 L 50.085938 90.941406 L 50.148438 91.652344 L 50.1875 92.40625 L 50.199219 93.199219 L 50.1875 93.984375 L 50.148438 94.734375 L 50.082031 95.445312 L 49.992188 96.117188 L 49.875 96.75 L 49.734375 97.34375 L 49.5625 97.902344 L 49.371094 98.417969 L 49.148438 98.898438 L 48.902344 99.339844 L 48.636719 99.738281 L 48.347656 100.09375 L 48.035156 100.40625 L 47.699219 100.679688 L 47.335938 100.90625 L 46.953125 101.09375 L 46.546875 101.242188 L 46.117188 101.347656 L 45.660156 101.410156 L 45.183594 101.429688 L 44.699219 101.410156 L 44.242188 101.347656 L 43.808594 101.242188 L 43.398438 101.09375 L 43.011719 100.90625 L 42.648438 100.679688 L 42.3125 100.40625 L 41.996094 100.09375 L 41.707031 99.738281 L 41.4375 99.339844 L 41.199219 98.898438 L 40.980469 98.417969 L 40.789062 97.898438 L 40.625 97.339844 L 40.484375 96.742188 L 40.371094 96.105469 L 40.28125 95.433594 L 40.21875 94.71875 L 40.179688 93.964844 L 40.167969 93.171875 L 40.179688 92.382812 L 40.21875 91.628906 L 40.28125 90.917969 L 40.371094 90.242188 L 40.484375 89.609375 L 40.625 89.015625 L 40.789062 88.460938 L 40.980469 87.941406 L 41.199219 87.464844 L 41.4375 87.03125 L 41.707031 86.632812 L 41.996094 86.277344 L 42.3125 85.964844 L 42.648438 85.691406 L 43.011719 85.464844 L 43.398438 85.277344 L 43.808594 85.128906 L 44.242188 85.023438 L 44.699219 84.960938 Z M 45.183594 86.09375 L 44.503906 86.164062 L 43.894531 86.375 L 43.359375 86.730469 L 42.894531 87.226562 L 42.5 87.863281 L 42.179688 88.640625 L 41.929688 89.5625 L 41.75 90.625 L 41.644531 91.828125 L 41.609375 93.171875 L 41.644531 94.523438 L 41.75 95.730469 L 41.929688 96.796875 L 42.179688 97.71875 L 42.5 98.5 L 42.894531 99.140625 L 43.359375 99.636719 L 43.894531 99.992188 L 44.503906 100.207031 L 45.183594 100.277344 L 45.523438 100.261719 L 45.851562 100.207031 L 46.15625 100.121094 L 46.445312 100 L 46.71875 99.84375 L 46.976562 99.65625 L 47.210938 99.429688 L 47.433594 99.171875 L 47.636719 98.878906 L 47.824219 98.550781 L 47.996094 98.183594 L 48.152344 97.78125 L 48.289062 97.34375 L 48.40625 96.863281 L 48.507812 96.347656 L 48.589844 95.792969 L 48.652344 95.203125 L 48.699219 94.570312 L 48.726562 93.902344 L 48.734375 93.199219 L 48.726562 92.492188 L 48.699219 91.824219 L 48.652344 91.195312 L 48.589844 90.601562 L 48.507812 90.046875 L 48.40625 89.53125 L 48.289062 89.054688 L 48.152344 88.613281 L 47.996094 88.210938 L 47.824219 87.84375 L 47.636719 87.511719 L 47.433594 87.214844 L 47.210938 86.953125 L 46.976562 86.722656 L 46.71875 86.53125 L 46.445312 86.375 L 46.15625 86.25 L 45.851562 86.164062 L 45.523438 86.109375 Z M 45.183594 86.09375 "/>
<path fill-rule="nonzero" fill="rgb(10.196078%, 10.196078%, 10.196078%)" fill-opacity="1" d="M 23.414062 25.917969 L 16.933594 25.917969 L 16.933594 31.363281 L 17.199219 31.222656 L 17.46875 31.097656 L 17.734375 30.984375 L 18.007812 30.886719 L 18.28125 30.804688 L 18.554688 30.738281 L 18.832031 30.6875 L 19.109375 30.648438 L 19.390625 30.628906 L 19.671875 30.621094 L 20.074219 30.632812 L 20.460938 30.675781 L 20.832031 30.742188 L 21.183594 30.835938 L 21.519531 30.957031 L 21.835938 31.105469 L 22.136719 31.277344 L 22.421875 31.480469 L 22.6875 31.707031 L 22.933594 31.964844 L 23.167969 32.238281 L 23.375 32.53125 L 23.558594 32.84375 L 23.71875 33.175781 L 23.851562 33.53125 L 23.964844 33.902344 L 24.050781 34.292969 L 24.109375 34.707031 L 24.148438 35.136719 L 24.160156 35.589844 L 24.152344 35.898438 L 24.132812 36.199219 L 24.101562 36.496094 L 24.054688 36.785156 L 23.996094 37.070312 L 23.925781 37.347656 L 23.84375 37.621094 L 23.746094 37.882812 L 23.632812 38.144531 L 23.511719 38.394531 L 23.382812 38.636719 L 23.238281 38.863281 L 23.085938 39.082031 L 22.925781 39.289062 L 22.75 39.488281 L 22.5625 39.675781 L 22.367188 39.851562 L 22.160156 40.015625 L 21.941406 40.171875 L 21.710938 40.316406 L 21.476562 40.445312 L 21.234375 40.558594 L 20.984375 40.660156 L 20.726562 40.746094 L 20.464844 40.820312 L 20.191406 40.878906 L 19.910156 40.925781 L 19.621094 40.960938 L 19.328125 40.980469 L 19.023438 40.988281 L 18.5 40.96875 L 17.992188 40.910156 L 17.5 40.816406 L 17.023438 40.679688 L 16.5625 40.507812 L 16.121094 40.296875 L 15.695312 40.046875 L 15.285156 39.757812 L 14.890625 39.433594 L 14.511719 39.066406 L 15.375 38.226562 L 15.53125 38.386719 L 15.6875 38.539062 L 15.84375 38.679688 L 16.003906 38.8125 L 16.167969 38.9375 L 16.332031 39.050781 L 16.496094 39.160156 L 16.664062 39.257812 L 16.835938 39.347656 L 17.007812 39.429688 L 17.183594 39.5 L 17.363281 39.566406 L 17.550781 39.625 L 17.746094 39.675781 L 17.945312 39.714844 L 18.148438 39.75 L 18.359375 39.777344 L 18.574219 39.796875 L 18.796875 39.808594 L 19.023438 39.8125 L 19.355469 39.800781 L 19.675781 39.765625 L 19.980469 39.710938 L 20.269531 39.632812 L 20.546875 39.53125 L 20.808594 39.40625 L 21.054688 39.257812 L 21.289062 39.089844 L 21.507812 38.898438 L 21.710938 38.683594 L 21.898438 38.445312 L 22.066406 38.191406 L 22.214844 37.917969 L 22.339844 37.632812 L 22.449219 37.328125 L 22.539062 37.007812 L 22.605469 36.671875 L 22.65625 36.320312 L 22.6875 35.949219 L 22.695312 35.5625 L 22.6875 35.191406 L 22.660156 34.835938 L 22.613281 34.5 L 22.550781 34.1875 L 22.46875 33.890625 L 22.367188 33.613281 L 22.25 33.359375 L 22.113281 33.121094 L 21.957031 32.90625 L 21.785156 32.707031 L 21.597656 32.527344 L 21.402344 32.363281 L 21.191406 32.21875 L 20.96875 32.09375 L 20.734375 31.988281 L 20.484375 31.902344 L 20.222656 31.835938 L 19.949219 31.785156 L 19.660156 31.757812 L 19.359375 31.75 L 19.207031 31.75 L 19.058594 31.753906 L 18.914062 31.765625 L 18.773438 31.777344 L 18.632812 31.796875 L 18.5 31.816406 L 18.367188 31.84375 L 18.238281 31.871094 L 18.113281 31.902344 L 17.992188 31.941406 L 17.875 31.976562 L 17.753906 32.015625 L 17.632812 32.0625 L 17.507812 32.113281 L 17.378906 32.167969 L 17.25 32.226562 L 17.113281 32.292969 L 16.976562 32.363281 L 16.839844 32.4375 L 16.695312 32.515625 L 15.589844 32.515625 L 15.589844 24.765625 L 23.632812 24.765625 Z M 23.414062 25.917969 "/>
<path fill-rule="nonzero" fill="rgb(10.196078%, 10.196078%, 10.196078%)" fill-opacity="1" d="M 31.984375 24.5 L 32.464844 24.519531 L 32.925781 24.585938 L 33.359375 24.691406 L 33.769531 24.839844 L 34.15625 25.027344 L 34.519531 25.261719 L 34.855469 25.535156 L 35.171875 25.851562 L 35.460938 26.210938 L 35.726562 26.613281 L 35.96875 27.050781 L 36.183594 27.527344 L 36.375 28.042969 L 36.542969 28.597656 L 36.679688 29.191406 L 36.796875 29.828125 L 36.886719 30.5 L 36.949219 31.210938 L 36.988281 31.964844 L 37 32.757812 L 36.988281 33.542969 L 36.949219 34.292969 L 36.882812 35.003906 L 36.792969 35.675781 L 36.675781 36.308594 L 36.53125 36.902344 L 36.363281 37.460938 L 36.171875 37.980469 L 35.949219 38.457031 L 35.703125 38.898438 L 35.4375 39.296875 L 35.148438 39.652344 L 34.835938 39.964844 L 34.496094 40.238281 L 34.136719 40.464844 L 33.753906 40.652344 L 33.347656 40.800781 L 32.914062 40.90625 L 32.460938 40.96875 L 31.984375 40.988281 L 31.5 40.96875 L 31.042969 40.90625 L 30.609375 40.800781 L 30.199219 40.652344 L 29.8125 40.464844 L 29.449219 40.238281 L 29.109375 39.964844 L 28.796875 39.652344 L 28.503906 39.296875 L 28.238281 38.898438 L 27.996094 38.457031 L 27.78125 37.976562 L 27.589844 37.457031 L 27.425781 36.898438 L 27.285156 36.300781 L 27.171875 35.664062 L 27.082031 34.992188 L 27.019531 34.277344 L 26.980469 33.523438 L 26.96875 32.730469 L 26.980469 31.941406 L 27.019531 31.1875 L 27.082031 30.476562 L 27.171875 29.800781 L 27.285156 29.167969 L 27.425781 28.574219 L 27.589844 28.019531 L 27.78125 27.503906 L 27.996094 27.027344 L 28.238281 26.589844 L 28.503906 26.191406 L 28.796875 25.835938 L 29.109375 25.523438 L 29.449219 25.25 L 29.8125 25.023438 L 30.199219 24.835938 L 30.609375 24.6875 L 31.042969 24.582031 L 31.5 24.519531 Z M 31.984375 25.652344 L 31.304688 25.722656 L 30.695312 25.933594 L 30.160156 26.289062 L 29.695312 26.785156 L 29.300781 27.421875 L 28.980469 28.199219 L 28.730469 29.121094 L 28.550781 30.183594 L 28.441406 31.386719 L 28.40625 32.730469 L 28.441406 34.082031 L 28.550781 35.289062 L 28.730469 36.355469 L 28.980469 37.277344 L 29.300781 38.058594 L 29.695312 38.699219 L 30.160156 39.195312 L 30.695312 39.550781 L 31.304688 39.765625 L 31.984375 39.835938 L 32.324219 39.820312 L 32.648438 39.765625 L 32.957031 39.679688 L 33.246094 39.558594 L 33.519531 39.402344 L 33.773438 39.214844 L 34.011719 38.988281 L 34.234375 38.730469 L 34.4375 38.4375 L 34.625 38.109375 L 34.796875 37.742188 L 34.953125 37.339844 L 35.089844 36.902344 L 35.207031 36.421875 L 35.308594 35.90625 L 35.390625 35.351562 L 35.453125 34.761719 L 35.5 34.128906 L 35.527344 33.460938 L 35.535156 32.757812 L 35.527344 32.050781 L 35.5 31.382812 L 35.453125 30.753906 L 35.390625 30.160156 L 35.308594 29.605469 L 35.207031 29.089844 L 35.089844 28.613281 L 34.953125 28.171875 L 34.796875 27.769531 L 34.625 27.402344 L 34.4375 27.070312 L 34.234375 26.773438 L 34.011719 26.511719 L 33.773438 26.28125 L 33.519531 26.089844 L 33.246094 25.933594 L 32.957031 25.808594 L 32.648438 25.722656 L 32.324219 25.667969 Z M 31.984375 25.652344 "/>
<path fill-rule="nonzero" fill="rgb(10.196078%, 10.196078%, 10.196078%)" fill-opacity="1" d="M 45.183594 24.5 L 45.664062 24.519531 L 46.125 24.585938 L 46.558594 24.691406 L 46.96875 24.839844 L 47.355469 25.027344 L 47.71875 25.261719 L 48.054688 25.535156 L 48.371094 25.851562 L 48.660156 26.210938 L 48.925781 26.613281 L 49.167969 27.050781 L 49.386719 27.527344 L 49.574219 28.042969 L 49.742188 28.597656 L 49.882812 29.191406 L 49.996094 29.828125 L 50.085938 30.5 L 50.148438 31.210938 L 50.1875 31.964844 L 50.199219 32.757812 L 50.1875 33.542969 L 50.148438 34.292969 L 50.082031 35.003906 L 49.992188 35.675781 L 49.875 36.308594 L 49.734375 36.902344 L 49.5625 37.460938 L 49.371094 37.980469 L 49.148438 38.457031 L 48.902344 38.898438 L 48.636719 39.296875 L 48.347656 39.652344 L 48.035156 39.964844 L 47.699219 40.238281 L 47.335938 40.464844 L 46.953125 40.652344 L 46.546875 40.800781 L 46.117188 40.90625 L 45.660156 40.96875 L 45.183594 40.988281 L 44.699219 40.96875 L 44.242188 40.90625 L 43.808594 40.800781 L 43.398438 40.652344 L 43.011719 40.464844 L 42.648438 40.238281 L 42.3125 39.964844 L 41.996094 39.652344 L 41.707031 39.296875 L 41.4375 38.898438 L 41.199219 38.457031 L 40.980469 37.976562 L 40.789062 37.457031 L 40.625 36.898438 L 40.484375 36.300781 L 40.371094 35.664062 L 40.28125 34.992188 L 40.21875 34.277344 L 40.179688 33.523438 L 40.167969 32.730469 L 40.179688 31.941406 L 40.21875 31.1875 L 40.28125 30.476562 L 40.371094 29.800781 L 40.484375 29.167969 L 40.625 28.574219 L 40.789062 28.019531 L 40.980469 27.503906 L 41.199219 27.027344 L 41.4375 26.589844 L 41.707031 26.191406 L 41.996094 25.835938 L 42.3125 25.523438 L 42.648438 25.25 L 43.011719 25.023438 L 43.398438 24.835938 L 43.808594 24.6875 L 44.242188 24.582031 L 44.699219 24.519531 Z M 45.183594 25.652344 L 44.503906 25.722656 L 43.894531 25.933594 L 43.359375 26.289062 L 42.894531 26.785156 L 42.5 27.421875 L 42.179688 28.199219 L 41.929688 29.121094 L 41.75 30.183594 L 41.644531 31.386719 L 41.609375 32.730469 L 41.644531 34.082031 L 41.75 35.289062 L 41.929688 36.355469 L 42.179688 37.277344 L 42.5 38.058594 L 42.894531 38.699219 L 43.359375 39.195312 L 43.894531 39.550781 L 44.503906 39.765625 L 45.183594 39.835938 L 45.523438 39.820312 L 45.851562 39.765625 L 46.15625 39.679688 L 46.445312 39.558594 L 46.71875 39.402344 L 46.976562 39.214844 L 47.210938 38.988281 L 47.433594 38.730469 L 47.636719 38.4375 L 47.824219 38.109375 L 47.996094 37.742188 L 48.152344 37.339844 L 48.289062 36.902344 L 48.40625 36.421875 L 48.507812 35.90625 L 48.589844 35.351562 L 48.652344 34.761719 L 48.699219 34.128906 L 48.726562 33.460938 L 48.734375 32.757812 L 48.726562 32.050781 L 48.699219 31.382812 L 48.652344 30.753906 L 48.589844 30.160156 L 48.507812 29.605469 L 48.40625 29.089844 L 48.289062 28.613281 L 48.152344 28.171875 L 47.996094 27.769531 L 47.824219 27.402344 L 47.636719 27.070312 L 47.433594 26.773438 L 47.210938 26.511719 L 46.976562 26.28125 L 46.71875 26.089844 L 46.445312 25.933594 L 46.15625 25.808594 L 45.851562 25.722656 L 45.523438 25.667969 Z M 45.183594 25.652344 "/>
<path fill-rule="nonzero" fill="rgb(10.196078%, 10.196078%, 10.196078%)" fill-opacity="1" d="M 162.910156 361.90625 L 163.394531 361.925781 L 163.851562 361.988281 L 164.285156 362.09375 L 164.695312 362.242188 L 165.082031 362.433594 L 165.445312 362.664062 L 165.78125 362.9375 L 166.097656 363.257812 L 166.386719 363.617188 L 166.652344 364.015625 L 166.894531 364.453125 L 167.113281 364.929688 L 167.304688 365.445312 L 167.46875 366 L 167.609375 366.597656 L 167.722656 367.230469 L 167.8125 367.902344 L 167.875 368.617188 L 167.914062 369.367188 L 167.925781 370.160156 L 167.914062 370.949219 L 167.875 371.695312 L 167.808594 372.40625 L 167.71875 373.078125 L 167.601562 373.710938 L 167.460938 374.308594 L 167.292969 374.863281 L 167.097656 375.382812 L 166.875 375.863281 L 166.628906 376.304688 L 166.363281 376.703125 L 166.074219 377.054688 L 165.761719 377.371094 L 165.425781 377.640625 L 165.0625 377.871094 L 164.679688 378.058594 L 164.273438 378.203125 L 163.84375 378.308594 L 163.386719 378.371094 L 162.910156 378.390625 L 162.429688 378.371094 L 161.96875 378.308594 L 161.535156 378.203125 L 161.125 378.058594 L 160.738281 377.871094 L 160.375 377.640625 L 160.039062 377.371094 L 159.722656 377.054688 L 159.433594 376.703125 L 159.167969 376.304688 L 158.925781 375.863281 L 158.707031 375.382812 L 158.515625 374.863281 L 158.351562 374.304688 L 158.210938 373.707031 L 158.097656 373.070312 L 158.007812 372.394531 L 157.945312 371.679688 L 157.90625 370.929688 L 157.894531 370.136719 L 157.90625 369.34375 L 157.945312 368.59375 L 158.007812 367.878906 L 158.097656 367.207031 L 158.210938 366.574219 L 158.351562 365.976562 L 158.515625 365.421875 L 158.707031 364.90625 L 158.925781 364.429688 L 159.167969 363.992188 L 159.433594 363.597656 L 159.722656 363.242188 L 160.039062 362.925781 L 160.375 362.65625 L 160.738281 362.425781 L 161.125 362.238281 L 161.535156 362.09375 L 161.96875 361.988281 L 162.429688 361.925781 Z M 162.910156 363.054688 L 162.230469 363.128906 L 161.621094 363.339844 L 161.085938 363.695312 L 160.621094 364.1875 L 160.226562 364.828125 L 159.90625 365.605469 L 159.65625 366.527344 L 159.476562 367.585938 L 159.371094 368.792969 L 159.335938 370.136719 L 159.371094 371.484375 L 159.476562 372.695312 L 159.65625 373.757812 L 159.90625 374.683594 L 160.226562 375.464844 L 160.621094 376.105469 L 161.085938 376.601562 L 161.621094 376.957031 L 162.230469 377.167969 L 162.910156 377.242188 L 163.253906 377.222656 L 163.578125 377.171875 L 163.882812 377.085938 L 164.171875 376.964844 L 164.445312 376.808594 L 164.703125 376.617188 L 164.941406 376.394531 L 165.160156 376.132812 L 165.363281 375.839844 L 165.550781 375.511719 L 165.722656 375.148438 L 165.878906 374.746094 L 166.015625 374.304688 L 166.132812 373.828125 L 166.234375 373.3125 L 166.316406 372.757812 L 166.378906 372.164062 L 166.425781 371.535156 L 166.453125 370.867188 L 166.460938 370.160156 L 166.453125 369.453125 L 166.425781 368.785156 L 166.378906 368.15625 L 166.316406 367.566406 L 166.234375 367.011719 L 166.132812 366.496094 L 166.015625 366.015625 L 165.878906 365.574219 L 165.722656 365.171875 L 165.550781 364.808594 L 165.363281 364.476562 L 165.160156 364.179688 L 164.941406 363.914062 L 164.703125 363.6875 L 164.445312 363.496094 L 164.171875 363.335938 L 163.882812 363.214844 L 163.578125 363.125 L 163.253906 363.074219 Z M 162.910156 363.054688 "/>
<path fill-rule="nonzero" fill="rgb(10.196078%, 10.196078%, 10.196078%)" fill-opacity="1" d="M 393.628906 362.167969 L 393.628906 378.128906 L 392.238281 378.128906 L 392.238281 363.703125 L 388.300781 366.152344 L 387.652344 365.121094 L 392.429688 362.167969 Z M 393.628906 362.167969 "/>
</svg>
