<?xml version="1.0" encoding="UTF-8"?>
<svg xmlns="http://www.w3.org/2000/svg" xmlns:xlink="http://www.w3.org/1999/xlink" width="504pt" height="396pt" viewBox="0 0 504 396">
<defs>
<clipPath id="clip-0">
<path clip-rule="nonzero" d="M 74.121094 12.953125 L 491.050781 12.953125 L 491.050781 350.035156 L 74.121094 350.035156 Z M 74.121094 12.953125 "/>
</clipPath>
<clipPath id="clip-1">
<path clip-rule="nonzero" d="M 74.121094 334 L 491.050781 334 L 491.050781 335 L 74.121094 335 Z M 74.121094 334 "/>
</clipPath>
<clipPath id="clip-2">
<path clip-rule="nonzero" d="M 74.121094 258 L 491.050781 258 L 491.050781 259 L 74.121094 259 Z M 74.121094 258 "/>
</clipPath>
<clipPath id="clip-3">
<path clip-rule="nonzero" d="M 74.121094 182 L 491.050781 182 L 491.050781 184 L 74.121094 184 Z M 74.121094 182 "/>
</clipPath>
<clipPath id="clip-4">
<path clip-rule="nonzero" d="M 74.121094 107 L 491.050781 107 L 491.050781 108 L 74.121094 108 Z M 74.121094 107 "/>
</clipPath>
<clipPath id="clip-5">
<path clip-rule="nonzero" d="M 74.121094 31 L 491.050781 31 L 491.050781 32 L 74.121094 32 Z M 74.121094 31 "/>
</clipPath>
<clipPath id="clip-6">
<path clip-rule="nonzero" d="M 171 12.953125 L 172 12.953125 L 172 350.035156 L 171 350.035156 Z M 171 12.953125 "/>
</clipPath>
<clipPath id="clip-7">
<path clip-rule="nonzero" d="M 393 12.953125 L 395 12.953125 L 395 350.035156 L 393 350.035156 Z M 393 12.953125 "/>
</clipPath>
</defs>
<rect x="-50.4" y="-39.6" width="604.8" height="475.2" fill="rgb(100%, 100%, 100%)" fill-opacity="1"/>
<rect x="-50.4" y="-39.6" width="604.8" height="475.2" fill="rgb(95.294118%, 95.294118%, 95.294118%)" fill-opacity="1"/>
<path fill="none" stroke-width="2.521949" stroke-linecap="round" stroke-linejoin="round" stroke="rgb(95.294118%, 95.294118%, 95.294118%)" stroke-opacity="1" stroke-miterlimit="10" d="M 0 396 L 504 396 L 504 0 L 0 0 Z M 0 396 "/>
<g clip-path="url(#clip-0)">
<path fill-rule="nonzero" fill="rgb(95.294118%, 95.294118%, 95.294118%)" fill-opacity="1" stroke-width="2.521949" stroke-linecap="round" stroke-linejoin="round" stroke="rgb(95.294118%, 95.294118%, 95.294118%)" stroke-opacity="1" stroke-miterlimit="10" d="M 74.121094 350.03125 L 491.050781 350.03125 L 491.050781 12.949219 L 74.121094 12.949219 Z M 74.121094 350.03125 "/>
</g>
<g clip-path="url(#clip-1)">
<path fill="none" stroke-width="0.213396" stroke-linecap="butt" stroke-linejoin="round" stroke="rgb(95.294118%, 95.294118%, 95.294118%)" stroke-opacity="1" stroke-miterlimit="10" d="M 74.121094 334.710938 L 491.046875 334.710938 "/>
</g>
<g clip-path="url(#clip-2)">
<path fill="none" stroke-width="0.213396" stroke-linecap="butt" stroke-linejoin="round" stroke="rgb(95.294118%, 95.294118%, 95.294118%)" stroke-opacity="1" stroke-miterlimit="10" d="M 74.121094 258.859375 L 491.046875 258.859375 "/>
</g>
<g clip-path="url(#clip-3)">
<path fill="none" stroke-width="0.213396" stroke-linecap="butt" stroke-linejoin="round" stroke="rgb(95.294118%, 95.294118%, 95.294118%)" stroke-opacity="1" stroke-miterlimit="10" d="M 74.121094 183.007812 L 491.046875 183.007812 "/>
</g>
<g clip-path="url(#clip-4)">
<path fill="none" stroke-width="0.213396" stroke-linecap="butt" stroke-linejoin="round" stroke="rgb(95.294118%, 95.294118%, 95.294118%)" stroke-opacity="1" stroke-miterlimit="10" d="M 74.121094 107.15625 L 491.046875 107.15625 "/>
</g>
<g clip-path="url(#clip-5)">
<path fill="none" stroke-width="0.213396" stroke-linecap="butt" stroke-linejoin="round" stroke="rgb(95.294118%, 95.294118%, 95.294118%)" stroke-opacity="1" stroke-miterlimit="10" d="M 74.121094 31.308594 L 491.046875 31.308594 "/>
</g>
<g clip-path="url(#clip-6)">
<path fill="none" stroke-width="0.213396" stroke-linecap="butt" stroke-linejoin="round" stroke="rgb(95.294118%, 95.294118%, 95.294118%)" stroke-opacity="1" stroke-miterlimit="10" d="M 171.105469 350.03125 L 171.105469 12.953125 "/>
</g>
<g clip-path="url(#clip-7)">
<path fill="none" stroke-width="0.213396" stroke-linecap="butt" stroke-linejoin="round" stroke="rgb(95.294118%, 95.294118%, 95.294118%)" stroke-opacity="1" stroke-miterlimit="10" d="M 394.0625 350.03125 L 394.0625 12.953125 "/>
</g>
<path fill-rule="nonzero" fill="rgb(56.078431%, 16.470588%, 26.27451%)" fill-opacity="1" d="M 93.070312 334.710938 L 249.140625 334.710938 L 249.140625 34.34375 L 93.070312 34.34375 Z M 93.070312 334.710938 "/>
<path fill-rule="nonzero" fill="rgb(56.078431%, 16.470588%, 26.27451%)" fill-opacity="1" d="M 316.027344 334.710938 L 472.097656 334.710938 L 472.097656 28.273438 L 316.027344 28.273438 Z M 316.027344 334.710938 "/>
<path fill-rule="nonzero" fill="rgb(10.196078%, 10.196078%, 10.196078%)" fill-opacity="1" d="M 55.863281 326.707031 L 56.347656 326.726562 L 56.804688 326.789062 L 57.238281 326.898438 L 57.648438 327.042969 L 58.035156 327.234375 L 58.398438 327.464844 L 58.734375 327.742188 L 59.050781 328.058594 L 59.339844 328.417969 L 59.609375 328.820312 L 59.847656 329.253906 L 60.066406 329.730469 L 60.257812 330.25 L 60.421875 330.804688 L 60.5625 331.398438 L 60.675781 332.03125 L 60.765625 332.707031 L 60.828125 333.417969 L 60.867188 334.171875 L 60.878906 334.960938 L 60.867188 335.75 L 60.828125 336.5 L 60.761719 337.207031 L 60.671875 337.878906 L 60.554688 338.515625 L 60.414062 339.109375 L 60.246094 339.667969 L 60.050781 340.183594 L 59.828125 340.664062 L 59.582031 341.105469 L 59.316406 341.503906 L 59.027344 341.859375 L 58.714844 342.171875 L 58.378906 342.441406 L 58.015625 342.671875 L 57.632812 342.859375 L 57.226562 343.007812 L 56.796875 343.109375 L 56.339844 343.171875 L 55.863281 343.195312 L 55.382812 343.171875 L 54.921875 343.109375 L 54.488281 343.007812 L 54.078125 342.859375 L 53.691406 342.671875 L 53.328125 342.441406 L 52.992188 342.171875 L 52.675781 341.859375 L 52.386719 341.503906 L 52.121094 341.105469 L 51.878906 340.664062 L 51.660156 340.183594 L 51.472656 339.664062 L 51.304688 339.105469 L 51.164062 338.507812 L 51.050781 337.871094 L 50.960938 337.195312 L 50.898438 336.484375 L 50.859375 335.730469 L 50.847656 334.9375 L 50.859375 334.148438 L 50.898438 333.394531 L 50.960938 332.683594 L 51.050781 332.007812 L 51.164062 331.375 L 51.304688 330.78125 L 51.472656 330.222656 L 51.660156 329.707031 L 51.878906 329.230469 L 52.121094 328.792969 L 52.386719 328.398438 L 52.675781 328.042969 L 52.992188 327.730469 L 53.328125 327.457031 L 53.691406 327.226562 L 54.078125 327.039062 L 54.488281 326.894531 L 54.921875 326.789062 L 55.382812 326.726562 Z M 55.863281 327.859375 L 55.183594 327.929688 L 54.574219 328.140625 L 54.039062 328.496094 L 53.574219 328.992188 L 53.179688 329.628906 L 52.859375 330.40625 L 52.609375 331.328125 L 52.429688 332.390625 L 52.324219 333.59375 L 52.289062 334.9375 L 52.324219 336.289062 L 52.429688 337.496094 L 52.609375 338.5625 L 52.859375 339.484375 L 53.179688 340.265625 L 53.574219 340.90625 L 54.039062 341.402344 L 54.574219 341.757812 L 55.183594 341.972656 L 55.863281 342.042969 L 56.207031 342.023438 L 56.53125 341.972656 L 56.835938 341.886719 L 57.125 341.765625 L 57.398438 341.609375 L 57.65625 341.421875 L 57.894531 341.195312 L 58.113281 340.9375 L 58.316406 340.644531 L 58.503906 340.3125 L 58.675781 339.949219 L 58.832031 339.546875 L 58.96875 339.105469 L 59.085938 338.628906 L 59.1875 338.113281 L 59.269531 337.558594 L 59.332031 336.964844 L 59.378906 336.335938 L 59.40625 335.667969 L 59.414062 334.960938 L 59.40625 334.257812 L 59.378906 333.589844 L 59.332031 332.957031 L 59.269531 332.367188 L 59.1875 331.8125 L 59.085938 331.296875 L 58.96875 330.816406 L 58.832031 330.378906 L 58.675781 329.976562 L 58.503906 329.609375 L 58.316406 329.277344 L 58.113281 328.980469 L 57.894531 328.71875 L 57.65625 328.488281 L 57.398438 328.296875 L 57.125 328.140625 L 56.835938 328.015625 L 56.53125 327.929688 L 56.207031 327.875 Z M 55.863281 327.859375 "/>
<path fill-rule="nonzero" fill="rgb(10.196078%, 10.196078%, 10.196078%)" fill-opacity="1" d="M 31.480469 250.855469 L 31.875 250.867188 L 32.253906 250.902344 L 32.613281 250.960938 L 32.957031 251.042969 L 33.285156 251.148438 L 33.597656 251.277344 L 33.890625 251.433594 L 34.167969 251.609375 L 34.429688 251.808594 L 34.671875 252.03125 L 34.898438 252.273438 L 35.101562 252.527344 L 35.285156 252.796875 L 35.4375 253.078125 L 35.570312 253.375 L 35.679688 253.683594 L 35.761719 254.007812 L 35.824219 254.34375 L 35.859375 254.691406 L 35.871094 255.054688 L 35.863281 255.367188 L 35.84375 255.671875 L 35.8125 255.972656 L 35.769531 256.273438 L 35.710938 256.566406 L 35.636719 256.859375 L 35.554688 257.144531 L 35.457031 257.429688 L 35.347656 257.707031 L 35.222656 257.984375 L 35.085938 258.261719 L 34.933594 258.542969 L 34.769531 258.828125 L 34.585938 259.121094 L 34.390625 259.417969 L 34.179688 259.71875 L 33.953125 260.027344 L 33.710938 260.339844 L 33.453125 260.660156 L 33.183594 260.984375 L 32.894531 261.324219 L 32.566406 261.699219 L 32.210938 262.109375 L 31.816406 262.546875 L 31.390625 263.019531 L 30.929688 263.519531 L 30.433594 264.054688 L 29.902344 264.625 L 29.339844 265.222656 L 28.742188 265.855469 L 36.304688 265.855469 L 36.113281 267.078125 L 27.113281 267.078125 L 27.113281 265.902344 L 27.75 265.222656 L 28.351562 264.574219 L 28.914062 263.964844 L 29.441406 263.390625 L 29.929688 262.855469 L 30.382812 262.355469 L 30.796875 261.890625 L 31.175781 261.464844 L 31.511719 261.074219 L 31.816406 260.71875 L 32.09375 260.382812 L 32.355469 260.058594 L 32.601562 259.742188 L 32.828125 259.433594 L 33.039062 259.136719 L 33.230469 258.847656 L 33.40625 258.570312 L 33.566406 258.300781 L 33.707031 258.042969 L 33.832031 257.792969 L 33.945312 257.539062 L 34.046875 257.285156 L 34.136719 257.027344 L 34.214844 256.765625 L 34.28125 256.5 L 34.335938 256.234375 L 34.378906 255.960938 L 34.40625 255.6875 L 34.425781 255.410156 L 34.429688 255.128906 L 34.421875 254.851562 L 34.398438 254.585938 L 34.355469 254.328125 L 34.296875 254.085938 L 34.222656 253.855469 L 34.128906 253.636719 L 34.019531 253.425781 L 33.894531 253.230469 L 33.75 253.046875 L 33.589844 252.871094 L 33.421875 252.710938 L 33.242188 252.570312 L 33.050781 252.441406 L 32.851562 252.335938 L 32.636719 252.242188 L 32.414062 252.167969 L 32.179688 252.105469 L 31.933594 252.066406 L 31.675781 252.039062 L 31.40625 252.03125 L 31.1875 252.035156 L 30.976562 252.050781 L 30.765625 252.074219 L 30.5625 252.105469 L 30.363281 252.144531 L 30.167969 252.195312 L 29.980469 252.253906 L 29.792969 252.324219 L 29.613281 252.402344 L 29.4375 252.488281 L 29.273438 252.582031 L 29.105469 252.6875 L 28.941406 252.800781 L 28.777344 252.925781 L 28.617188 253.058594 L 28.457031 253.199219 L 28.296875 253.347656 L 28.140625 253.507812 L 27.984375 253.679688 L 27.832031 253.855469 L 26.871094 253.136719 L 27.066406 252.90625 L 27.261719 252.691406 L 27.460938 252.484375 L 27.664062 252.292969 L 27.867188 252.117188 L 28.074219 251.949219 L 28.285156 251.796875 L 28.5 251.652344 L 28.714844 251.523438 L 28.933594 251.40625 L 29.164062 251.304688 L 29.398438 251.207031 L 29.636719 251.125 L 29.882812 251.054688 L 30.136719 250.992188 L 30.394531 250.945312 L 30.65625 250.90625 L 30.925781 250.878906 L 31.199219 250.859375 Z M 31.480469 250.855469 "/>
<path fill-rule="nonzero" fill="rgb(10.196078%, 10.196078%, 10.196078%)" fill-opacity="1" d="M 47.296875 252.273438 L 40.816406 252.273438 L 40.816406 257.71875 L 41.082031 257.578125 L 41.347656 257.453125 L 41.617188 257.339844 L 41.886719 257.242188 L 42.160156 257.160156 L 42.433594 257.09375 L 42.710938 257.042969 L 42.988281 257.003906 L 43.269531 256.984375 L 43.550781 256.976562 L 43.957031 256.988281 L 44.34375 257.03125 L 44.710938 257.097656 L 45.0625 257.191406 L 45.398438 257.3125 L 45.71875 257.460938 L 46.019531 257.632812 L 46.300781 257.835938 L 46.566406 258.0625 L 46.816406 258.320312 L 47.046875 258.59375 L 47.257812 258.886719 L 47.441406 259.199219 L 47.597656 259.53125 L 47.734375 259.886719 L 47.84375 260.257812 L 47.929688 260.648438 L 47.992188 261.0625 L 48.027344 261.492188 L 48.039062 261.945312 L 48.03125 262.253906 L 48.011719 262.554688 L 47.980469 262.851562 L 47.9375 263.140625 L 47.878906 263.425781 L 47.804688 263.703125 L 47.722656 263.976562 L 47.625 264.238281 L 47.515625 264.5 L 47.390625 264.75 L 47.261719 264.992188 L 47.121094 265.21875 L 46.96875 265.4375 L 46.804688 265.644531 L 46.628906 265.84375 L 46.445312 266.03125 L 46.246094 266.207031 L 46.039062 266.371094 L 45.820312 266.527344 L 45.589844 266.671875 L 45.355469 266.800781 L 45.117188 266.914062 L 44.867188 267.015625 L 44.609375 267.101562 L 44.34375 267.175781 L 44.070312 267.234375 L 43.789062 267.28125 L 43.503906 267.316406 L 43.207031 267.335938 L 42.902344 267.34375 L 42.378906 267.324219 L 41.871094 267.265625 L 41.378906 267.171875 L 40.902344 267.035156 L 40.445312 266.863281 L 40 266.652344 L 39.574219 266.402344 L 39.164062 266.113281 L 38.769531 265.789062 L 38.390625 265.421875 L 39.253906 264.582031 L 39.410156 264.742188 L 39.566406 264.894531 L 39.726562 265.035156 L 39.886719 265.167969 L 40.046875 265.292969 L 40.210938 265.40625 L 40.378906 265.515625 L 40.546875 265.613281 L 40.714844 265.703125 L 40.886719 265.785156 L 41.0625 265.855469 L 41.246094 265.921875 L 41.433594 265.980469 L 41.625 266.03125 L 41.824219 266.070312 L 42.027344 266.105469 L 42.238281 266.132812 L 42.453125 266.152344 L 42.675781 266.164062 L 42.902344 266.167969 L 43.238281 266.15625 L 43.554688 266.121094 L 43.859375 266.066406 L 44.152344 265.988281 L 44.425781 265.886719 L 44.6875 265.761719 L 44.9375 265.613281 L 45.167969 265.445312 L 45.386719 265.253906 L 45.589844 265.039062 L 45.777344 264.800781 L 45.945312 264.546875 L 46.09375 264.273438 L 46.222656 263.988281 L 46.328125 263.683594 L 46.417969 263.363281 L 46.488281 263.027344 L 46.535156 262.675781 L 46.566406 262.304688 L 46.574219 261.917969 L 46.566406 261.546875 L 46.539062 261.191406 L 46.492188 260.855469 L 46.429688 260.542969 L 46.347656 260.246094 L 46.246094 259.96875 L 46.128906 259.714844 L 45.992188 259.476562 L 45.835938 259.261719 L 45.664062 259.0625 L 45.480469 258.882812 L 45.28125 258.71875 L 45.074219 258.574219 L 44.847656 258.449219 L 44.613281 258.34375 L 44.363281 258.257812 L 44.101562 258.191406 L 43.828125 258.140625 L 43.539062 258.113281 L 43.238281 258.105469 L 43.085938 258.105469 L 42.9375 258.109375 L 42.792969 258.121094 L 42.652344 258.132812 L 42.511719 258.152344 L 42.378906 258.171875 L 42.246094 258.199219 L 42.117188 258.226562 L 41.992188 258.257812 L 41.871094 258.296875 L 41.753906 258.332031 L 41.636719 258.371094 L 41.511719 258.417969 L 41.386719 258.46875 L 41.257812 258.523438 L 41.128906 258.582031 L 40.996094 258.648438 L 40.859375 258.71875 L 40.71875 258.792969 L 40.574219 258.871094 L 39.472656 258.871094 L 39.472656 251.121094 L 47.511719 251.121094 Z M 47.296875 252.273438 "/>
<path fill-rule="nonzero" fill="rgb(10.196078%, 10.196078%, 10.196078%)" fill-opacity="1" d="M 55.863281 250.855469 L 56.347656 250.875 L 56.804688 250.941406 L 57.238281 251.046875 L 57.648438 251.195312 L 58.035156 251.382812 L 58.398438 251.617188 L 58.734375 251.890625 L 59.050781 252.207031 L 59.339844 252.566406 L 59.609375 252.96875 L 59.847656 253.40625 L 60.066406 253.882812 L 60.257812 254.398438 L 60.421875 254.953125 L 60.5625 255.546875 L 60.675781 256.183594 L 60.765625 256.855469 L 60.828125 257.566406 L 60.867188 258.320312 L 60.878906 259.113281 L 60.867188 259.898438 L 60.828125 260.648438 L 60.761719 261.359375 L 60.671875 262.03125 L 60.554688 262.664062 L 60.414062 263.257812 L 60.246094 263.816406 L 60.050781 264.335938 L 59.828125 264.8125 L 59.582031 265.253906 L 59.316406 265.652344 L 59.027344 266.007812 L 58.714844 266.320312 L 58.378906 266.59375 L 58.015625 266.820312 L 57.632812 267.007812 L 57.226562 267.15625 L 56.796875 267.261719 L 56.339844 267.324219 L 55.863281 267.34375 L 55.382812 267.324219 L 54.921875 267.261719 L 54.488281 267.15625 L 54.078125 267.007812 L 53.691406 266.820312 L 53.328125 266.59375 L 52.992188 266.320312 L 52.675781 266.007812 L 52.386719 265.652344 L 52.121094 265.253906 L 51.878906 264.8125 L 51.660156 264.332031 L 51.472656 263.8125 L 51.304688 263.253906 L 51.164062 262.65625 L 51.050781 262.019531 L 50.960938 261.347656 L 50.898438 260.632812 L 50.859375 259.878906 L 50.847656 259.085938 L 50.859375 258.296875 L 50.898438 257.542969 L 50.960938 256.832031 L 51.050781 256.15625 L 51.164062 255.523438 L 51.304688 254.929688 L 51.472656 254.375 L 51.660156 253.859375 L 51.878906 253.382812 L 52.121094 252.945312 L 52.386719 252.546875 L 52.675781 252.191406 L 52.992188 251.878906 L 53.328125 251.605469 L 53.691406 251.378906 L 54.078125 251.191406 L 54.488281 251.042969 L 54.921875 250.9375 L 55.382812 250.875 Z M 55.863281 252.007812 L 55.183594 252.078125 L 54.574219 252.289062 L 54.039062 252.644531 L 53.574219 253.140625 L 53.179688 253.777344 L 52.859375 254.554688 L 52.609375 255.476562 L 52.429688 256.539062 L 52.324219 257.742188 L 52.289062 259.085938 L 52.324219 260.4375 L 52.429688 261.644531 L 52.609375 262.710938 L 52.859375 263.632812 L 53.179688 264.414062 L 53.574219 265.054688 L 54.039062 265.550781 L 54.574219 265.90625 L 55.183594 266.121094 L 55.863281 266.191406 L 56.207031 266.175781 L 56.53125 266.121094 L 56.835938 266.035156 L 57.125 265.914062 L 57.398438 265.757812 L 57.65625 265.570312 L 57.894531 265.34375 L 58.113281 265.085938 L 58.316406 264.792969 L 58.503906 264.464844 L 58.675781 264.097656 L 58.832031 263.695312 L 58.96875 263.257812 L 59.085938 262.777344 L 59.1875 262.261719 L 59.269531 261.707031 L 59.332031 261.117188 L 59.378906 260.484375 L 59.40625 259.816406 L 59.414062 259.113281 L 59.40625 258.40625 L 59.378906 257.738281 L 59.332031 257.109375 L 59.269531 256.515625 L 59.1875 255.960938 L 59.085938 255.445312 L 58.96875 254.96875 L 58.832031 254.527344 L 58.675781 254.125 L 58.503906 253.757812 L 58.316406 253.425781 L 58.113281 253.128906 L 57.894531 252.867188 L 57.65625 252.636719 L 57.398438 252.445312 L 57.125 252.289062 L 56.835938 252.164062 L 56.53125 252.078125 L 56.207031 252.023438 Z M 55.863281 252.007812 "/>
<path fill-rule="nonzero" fill="rgb(10.196078%, 10.196078%, 10.196078%)" fill-opacity="1" d="M 34.09375 176.421875 L 27.617188 176.421875 L 27.617188 181.867188 L 27.878906 181.726562 L 28.148438 181.601562 L 28.417969 181.488281 L 28.6875 181.394531 L 28.960938 181.3125 L 29.234375 181.242188 L 29.511719 181.191406 L 29.789062 181.15625 L 30.070312 181.132812 L 30.351562 181.125 L 30.753906 181.136719 L 31.140625 181.179688 L 31.511719 181.246094 L 31.863281 181.339844 L 32.199219 181.460938 L 32.515625 181.609375 L 32.816406 181.785156 L 33.101562 181.984375 L 33.367188 182.214844 L 33.617188 182.46875 L 33.847656 182.742188 L 34.054688 183.035156 L 34.238281 183.347656 L 34.398438 183.683594 L 34.535156 184.035156 L 34.644531 184.40625 L 34.730469 184.800781 L 34.789062 185.210938 L 34.828125 185.640625 L 34.839844 186.09375 L 34.832031 186.402344 L 34.8125 186.703125 L 34.78125 187 L 34.734375 187.289062 L 34.675781 187.574219 L 34.605469 187.851562 L 34.523438 188.125 L 34.425781 188.390625 L 34.316406 188.648438 L 34.191406 188.902344 L 34.0625 189.140625 L 33.917969 189.371094 L 33.765625 189.585938 L 33.605469 189.796875 L 33.429688 189.992188 L 33.242188 190.179688 L 33.046875 190.355469 L 32.839844 190.519531 L 32.621094 190.675781 L 32.390625 190.820312 L 32.15625 190.949219 L 31.914062 191.0625 L 31.664062 191.164062 L 31.410156 191.25 L 31.144531 191.324219 L 30.871094 191.386719 L 30.589844 191.433594 L 30.300781 191.464844 L 30.007812 191.484375 L 29.703125 191.492188 L 29.179688 191.472656 L 28.671875 191.417969 L 28.179688 191.320312 L 27.703125 191.1875 L 27.242188 191.011719 L 26.800781 190.800781 L 26.375 190.550781 L 25.964844 190.265625 L 25.570312 189.9375 L 25.191406 189.574219 L 26.054688 188.734375 L 26.210938 188.890625 L 26.367188 189.042969 L 26.523438 189.183594 L 26.683594 189.316406 L 26.847656 189.441406 L 27.011719 189.554688 L 27.175781 189.664062 L 27.34375 189.761719 L 27.515625 189.851562 L 27.6875 189.933594 L 27.863281 190.003906 L 28.042969 190.070312 L 28.230469 190.128906 L 28.425781 190.179688 L 28.625 190.222656 L 28.828125 190.253906 L 29.039062 190.28125 L 29.253906 190.300781 L 29.476562 190.3125 L 29.703125 190.316406 L 30.035156 190.304688 L 30.355469 190.273438 L 30.660156 190.214844 L 30.953125 190.136719 L 31.226562 190.035156 L 31.488281 189.910156 L 31.734375 189.765625 L 31.96875 189.59375 L 32.1875 189.402344 L 32.390625 189.1875 L 32.578125 188.949219 L 32.746094 188.695312 L 32.894531 188.425781 L 33.019531 188.136719 L 33.128906 187.832031 L 33.21875 187.511719 L 33.285156 187.175781 L 33.335938 186.824219 L 33.367188 186.453125 L 33.375 186.070312 L 33.367188 185.695312 L 33.339844 185.339844 L 33.292969 185.003906 L 33.230469 184.691406 L 33.148438 184.394531 L 33.046875 184.117188 L 32.929688 183.863281 L 32.792969 183.625 L 32.636719 183.410156 L 32.464844 183.210938 L 32.28125 183.03125 L 32.082031 182.867188 L 31.871094 182.722656 L 31.648438 182.597656 L 31.414062 182.492188 L 31.164062 182.40625 L 30.902344 182.339844 L 30.628906 182.292969 L 30.339844 182.261719 L 30.039062 182.253906 L 29.886719 182.253906 L 29.738281 182.261719 L 29.59375 182.269531 L 29.3125 182.300781 L 29.179688 182.320312 L 29.046875 182.347656 L 28.917969 182.375 L 28.792969 182.410156 L 28.671875 182.445312 L 28.554688 182.480469 L 28.3125 182.566406 L 28.1875 182.617188 L 28.058594 182.671875 L 27.929688 182.734375 L 27.792969 182.796875 L 27.65625 182.867188 L 27.519531 182.941406 L 27.375 183.019531 L 26.269531 183.019531 L 26.269531 175.269531 L 34.3125 175.269531 Z M 34.09375 176.421875 "/>
<path fill-rule="nonzero" fill="rgb(10.196078%, 10.196078%, 10.196078%)" fill-opacity="1" d="M 42.664062 175.003906 L 43.144531 175.027344 L 43.605469 175.089844 L 44.039062 175.195312 L 44.449219 175.34375 L 44.835938 175.53125 L 45.199219 175.765625 L 45.535156 176.039062 L 45.851562 176.355469 L 46.140625 176.714844 L 46.40625 177.117188 L 46.648438 177.554688 L 46.867188 178.03125 L 47.054688 178.546875 L 47.222656 179.101562 L 47.363281 179.695312 L 47.476562 180.332031 L 47.566406 181.003906 L 47.628906 181.71875 L 47.667969 182.46875 L 47.679688 183.261719 L 47.667969 184.046875 L 47.628906 184.796875 L 47.5625 185.507812 L 47.472656 186.179688 L 47.355469 186.8125 L 47.210938 187.40625 L 47.042969 187.964844 L 46.851562 188.484375 L 46.628906 188.964844 L 46.382812 189.40625 L 46.117188 189.800781 L 45.828125 190.15625 L 45.515625 190.46875 L 45.175781 190.742188 L 44.816406 190.972656 L 44.433594 191.160156 L 44.027344 191.304688 L 43.59375 191.410156 L 43.140625 191.472656 L 42.664062 191.492188 L 42.179688 191.472656 L 41.722656 191.410156 L 41.289062 191.304688 L 40.878906 191.160156 L 40.492188 190.972656 L 40.128906 190.742188 L 39.789062 190.46875 L 39.476562 190.15625 L 39.1875 189.800781 L 38.917969 189.40625 L 38.679688 188.964844 L 38.460938 188.480469 L 38.269531 187.960938 L 38.105469 187.402344 L 37.964844 186.808594 L 37.851562 186.171875 L 37.761719 185.496094 L 37.699219 184.78125 L 37.660156 184.027344 L 37.648438 183.238281 L 37.660156 182.445312 L 37.699219 181.691406 L 37.761719 180.980469 L 37.851562 180.308594 L 37.964844 179.671875 L 38.105469 179.078125 L 38.269531 178.523438 L 38.460938 178.007812 L 38.679688 177.53125 L 38.917969 177.09375 L 39.1875 176.695312 L 39.476562 176.339844 L 39.789062 176.027344 L 40.128906 175.757812 L 40.492188 175.527344 L 40.878906 175.339844 L 41.289062 175.191406 L 41.722656 175.089844 L 42.179688 175.027344 Z M 42.664062 176.15625 L 41.984375 176.226562 L 41.375 176.441406 L 40.839844 176.792969 L 40.375 177.289062 L 39.980469 177.925781 L 39.660156 178.707031 L 39.410156 179.625 L 39.230469 180.6875 L 39.125 181.890625 L 39.085938 183.238281 L 39.125 184.585938 L 39.230469 185.792969 L 39.410156 186.859375 L 39.660156 187.785156 L 39.980469 188.566406 L 40.375 189.203125 L 40.839844 189.703125 L 41.375 190.058594 L 41.984375 190.269531 L 42.664062 190.339844 L 43.003906 190.324219 L 43.328125 190.273438 L 43.636719 190.183594 L 43.925781 190.0625 L 44.199219 189.910156 L 44.453125 189.71875 L 44.691406 189.496094 L 44.914062 189.234375 L 45.117188 188.941406 L 45.304688 188.613281 L 45.476562 188.25 L 45.632812 187.847656 L 45.769531 187.40625 L 45.886719 186.925781 L 45.988281 186.410156 L 46.070312 185.855469 L 46.132812 185.265625 L 46.179688 184.632812 L 46.207031 183.964844 L 46.214844 183.261719 L 46.207031 182.554688 L 46.179688 181.886719 L 46.132812 181.257812 L 46.070312 180.664062 L 45.988281 180.109375 L 45.886719 179.59375 L 45.769531 179.117188 L 45.632812 178.675781 L 45.476562 178.273438 L 45.304688 177.910156 L 45.117188 177.574219 L 44.914062 177.277344 L 44.691406 177.015625 L 44.453125 176.789062 L 44.199219 176.59375 L 43.925781 176.4375 L 43.636719 176.316406 L 43.328125 176.226562 L 43.003906 176.175781 Z M 42.664062 176.15625 "/>
<path fill-rule="nonzero" fill="rgb(10.196078%, 10.196078%, 10.196078%)" fill-opacity="1" d="M 55.863281 175.003906 L 56.347656 175.027344 L 56.804688 175.089844 L 57.238281 175.195312 L 57.648438 175.34375 L 58.035156 175.53125 L 58.398438 175.765625 L 58.734375 176.039062 L 59.050781 176.355469 L 59.339844 176.714844 L 59.609375 177.117188 L 59.847656 177.554688 L 60.066406 178.03125 L 60.257812 178.546875 L 60.421875 179.101562 L 60.5625 179.695312 L 60.675781 180.332031 L 60.765625 181.003906 L 60.828125 181.71875 L 60.867188 182.46875 L 60.878906 183.261719 L 60.867188 184.046875 L 60.828125 184.796875 L 60.761719 185.507812 L 60.671875 186.179688 L 60.554688 186.8125 L 60.414062 187.40625 L 60.246094 187.964844 L 60.050781 188.484375 L 59.828125 188.964844 L 59.582031 189.40625 L 59.316406 189.800781 L 59.027344 190.15625 L 58.714844 190.46875 L 58.378906 190.742188 L 58.015625 190.972656 L 57.632812 191.160156 L 57.226562 191.304688 L 56.796875 191.410156 L 56.339844 191.472656 L 55.863281 191.492188 L 55.382812 191.472656 L 54.921875 191.410156 L 54.488281 191.304688 L 54.078125 191.160156 L 53.691406 190.972656 L 53.328125 190.742188 L 52.992188 190.46875 L 52.675781 190.15625 L 52.386719 189.800781 L 52.121094 189.40625 L 51.878906 188.964844 L 51.660156 188.480469 L 51.472656 187.960938 L 51.304688 187.402344 L 51.164062 186.808594 L 51.050781 186.171875 L 50.960938 185.496094 L 50.898438 184.78125 L 50.859375 184.027344 L 50.847656 183.238281 L 50.859375 182.445312 L 50.898438 181.691406 L 50.960938 180.980469 L 51.050781 180.308594 L 51.164062 179.671875 L 51.304688 179.078125 L 51.472656 178.523438 L 51.660156 178.007812 L 51.878906 177.53125 L 52.121094 177.09375 L 52.386719 176.695312 L 52.675781 176.339844 L 52.992188 176.027344 L 53.328125 175.757812 L 53.691406 175.527344 L 54.078125 175.339844 L 54.488281 175.191406 L 54.921875 175.089844 L 55.382812 175.027344 Z M 55.863281 176.15625 L 55.183594 176.226562 L 54.574219 176.441406 L 54.039062 176.792969 L 53.574219 177.289062 L 53.179688 177.925781 L 52.859375 178.707031 L 52.609375 179.625 L 52.429688 180.6875 L 52.324219 181.890625 L 52.289062 183.238281 L 52.324219 184.585938 L 52.429688 185.792969 L 52.609375 186.859375 L 52.859375 187.785156 L 53.179688 188.566406 L 53.574219 189.203125 L 54.039062 189.703125 L 54.574219 190.058594 L 55.183594 190.269531 L 55.863281 190.339844 L 56.207031 190.324219 L 56.53125 190.273438 L 56.835938 190.183594 L 57.125 190.0625 L 57.398438 189.910156 L 57.65625 189.71875 L 57.894531 189.496094 L 58.113281 189.234375 L 58.316406 188.941406 L 58.503906 188.613281 L 58.675781 188.25 L 58.832031 187.847656 L 58.96875 187.40625 L 59.085938 186.925781 L 59.1875 186.410156 L 59.269531 185.855469 L 59.332031 185.265625 L 59.378906 184.632812 L 59.40625 183.964844 L 59.414062 183.261719 L 59.40625 182.554688 L 59.378906 181.886719 L 59.332031 181.257812 L 59.269531 180.664062 L 59.1875 180.109375 L 59.085938 179.59375 L 58.96875 179.117188 L 58.832031 178.675781 L 58.675781 178.273438 L 58.503906 177.910156 L 58.316406 177.574219 L 58.113281 177.277344 L 57.894531 177.015625 L 57.65625 176.789062 L 57.398438 176.59375 L 57.125 176.4375 L 56.835938 176.316406 L 56.53125 176.226562 L 56.207031 176.175781 Z M 55.863281 176.15625 "/>
<path fill-rule="nonzero" fill="rgb(10.196078%, 10.196078%, 10.196078%)" fill-opacity="1" d="M 36.710938 99.417969 L 36.710938 100.5 L 30.421875 115.570312 L 29.128906 115.136719 L 35.269531 100.59375 L 27.808594 100.59375 L 27.808594 99.417969 Z M 36.710938 99.417969 "/>
<path fill-rule="nonzero" fill="rgb(10.196078%, 10.196078%, 10.196078%)" fill-opacity="1" d="M 47.296875 100.570312 L 40.816406 100.570312 L 40.816406 106.019531 L 41.082031 105.875 L 41.347656 105.75 L 41.617188 105.636719 L 41.886719 105.542969 L 42.160156 105.460938 L 42.433594 105.394531 L 42.710938 105.339844 L 42.988281 105.304688 L 43.269531 105.28125 L 43.550781 105.273438 L 43.957031 105.289062 L 44.34375 105.328125 L 44.710938 105.394531 L 45.0625 105.488281 L 45.398438 105.609375 L 45.71875 105.757812 L 46.019531 105.933594 L 46.300781 106.132812 L 46.566406 106.363281 L 46.816406 106.617188 L 47.046875 106.890625 L 47.257812 107.183594 L 47.441406 107.5 L 47.597656 107.832031 L 47.734375 108.183594 L 47.84375 108.554688 L 47.929688 108.949219 L 47.992188 109.359375 L 48.027344 109.792969 L 48.039062 110.242188 L 48.03125 110.550781 L 48.011719 110.855469 L 47.980469 111.148438 L 47.9375 111.441406 L 47.878906 111.722656 L 47.804688 112 L 47.722656 112.273438 L 47.625 112.539062 L 47.515625 112.796875 L 47.390625 113.050781 L 47.261719 113.289062 L 47.121094 113.519531 L 46.96875 113.738281 L 46.804688 113.945312 L 46.628906 114.140625 L 46.445312 114.328125 L 46.246094 114.503906 L 46.039062 114.671875 L 45.820312 114.824219 L 45.589844 114.96875 L 45.355469 115.097656 L 45.117188 115.210938 L 44.867188 115.3125 L 44.609375 115.398438 L 44.34375 115.472656 L 44.070312 115.535156 L 43.789062 115.582031 L 43.503906 115.613281 L 43.207031 115.636719 L 42.902344 115.640625 L 42.378906 115.621094 L 41.871094 115.566406 L 41.378906 115.46875 L 40.902344 115.335938 L 40.445312 115.160156 L 40 114.949219 L 39.574219 114.703125 L 39.164062 114.414062 L 38.769531 114.085938 L 38.390625 113.722656 L 39.253906 112.882812 L 39.410156 113.039062 L 39.566406 113.191406 L 39.726562 113.332031 L 39.886719 113.464844 L 40.046875 113.589844 L 40.210938 113.707031 L 40.378906 113.8125 L 40.546875 113.910156 L 40.714844 114 L 40.886719 114.082031 L 41.0625 114.15625 L 41.246094 114.21875 L 41.433594 114.277344 L 41.625 114.328125 L 41.824219 114.371094 L 42.027344 114.40625 L 42.238281 114.429688 L 42.453125 114.449219 L 42.675781 114.460938 L 42.902344 114.464844 L 43.238281 114.453125 L 43.554688 114.421875 L 43.859375 114.363281 L 44.152344 114.285156 L 44.425781 114.183594 L 44.6875 114.058594 L 44.9375 113.914062 L 45.167969 113.746094 L 45.386719 113.550781 L 45.589844 113.339844 L 45.777344 113.097656 L 45.945312 112.84375 L 46.09375 112.574219 L 46.222656 112.285156 L 46.328125 111.980469 L 46.417969 111.660156 L 46.488281 111.324219 L 46.535156 110.972656 L 46.566406 110.605469 L 46.574219 110.21875 L 46.566406 109.84375 L 46.539062 109.488281 L 46.492188 109.15625 L 46.429688 108.839844 L 46.347656 108.542969 L 46.246094 108.269531 L 46.128906 108.011719 L 45.992188 107.777344 L 45.835938 107.558594 L 45.664062 107.363281 L 45.480469 107.179688 L 45.28125 107.015625 L 45.074219 106.871094 L 44.847656 106.746094 L 44.613281 106.640625 L 44.363281 106.554688 L 44.101562 106.488281 L 43.828125 106.441406 L 43.539062 106.410156 L 43.238281 106.402344 L 43.085938 106.402344 L 42.9375 106.410156 L 42.792969 106.417969 L 42.511719 106.449219 L 42.246094 106.496094 L 42.117188 106.523438 L 41.992188 106.558594 L 41.871094 106.59375 L 41.753906 106.628906 L 41.636719 106.671875 L 41.511719 106.714844 L 41.386719 106.765625 L 41.257812 106.820312 L 41.128906 106.882812 L 40.996094 106.945312 L 40.859375 107.015625 L 40.71875 107.089844 L 40.574219 107.171875 L 39.472656 107.171875 L 39.472656 99.417969 L 47.511719 99.417969 Z M 47.296875 100.570312 "/>
<path fill-rule="nonzero" fill="rgb(10.196078%, 10.196078%, 10.196078%)" fill-opacity="1" d="M 55.863281 99.152344 L 56.347656 99.175781 L 56.804688 99.238281 L 57.238281 99.34375 L 57.648438 99.492188 L 58.035156 99.683594 L 58.398438 99.914062 L 58.734375 100.1875 L 59.050781 100.503906 L 59.339844 100.863281 L 59.609375 101.265625 L 59.847656 101.703125 L 60.066406 102.179688 L 60.257812 102.695312 L 60.421875 103.25 L 60.5625 103.847656 L 60.675781 104.480469 L 60.765625 105.152344 L 60.828125 105.867188 L 60.867188 106.617188 L 60.878906 107.410156 L 60.867188 108.199219 L 60.828125 108.945312 L 60.761719 109.65625 L 60.671875 110.328125 L 60.554688 110.960938 L 60.414062 111.558594 L 60.246094 112.113281 L 60.050781 112.632812 L 59.828125 113.113281 L 59.582031 113.554688 L 59.316406 113.949219 L 59.027344 114.304688 L 58.714844 114.617188 L 58.378906 114.890625 L 58.015625 115.121094 L 57.632812 115.308594 L 57.226562 115.453125 L 56.796875 115.558594 L 56.339844 115.621094 L 55.863281 115.640625 L 55.382812 115.621094 L 54.921875 115.558594 L 54.488281 115.453125 L 54.078125 115.308594 L 53.691406 115.121094 L 53.328125 114.890625 L 52.992188 114.617188 L 52.675781 114.304688 L 52.386719 113.949219 L 52.121094 113.554688 L 51.878906 113.113281 L 51.660156 112.632812 L 51.472656 112.113281 L 51.304688 111.554688 L 51.164062 110.957031 L 51.050781 110.320312 L 50.960938 109.644531 L 50.898438 108.929688 L 50.859375 108.179688 L 50.847656 107.386719 L 50.859375 106.59375 L 50.898438 105.84375 L 50.960938 105.128906 L 51.050781 104.457031 L 51.164062 103.820312 L 51.304688 103.226562 L 51.472656 102.671875 L 51.660156 102.15625 L 51.878906 101.679688 L 52.121094 101.242188 L 52.386719 100.84375 L 52.675781 100.492188 L 52.992188 100.175781 L 53.328125 99.90625 L 53.691406 99.675781 L 54.078125 99.488281 L 54.488281 99.34375 L 54.921875 99.238281 L 55.382812 99.175781 Z M 55.863281 100.304688 L 55.183594 100.375 L 54.574219 100.589844 L 54.039062 100.941406 L 53.574219 101.4375 L 53.179688 102.074219 L 52.859375 102.855469 L 52.609375 103.773438 L 52.429688 104.835938 L 52.324219 106.039062 L 52.289062 107.386719 L 52.324219 108.734375 L 52.429688 109.945312 L 52.609375 111.007812 L 52.859375 111.933594 L 53.179688 112.714844 L 53.574219 113.351562 L 54.039062 113.851562 L 54.574219 114.207031 L 55.183594 114.417969 L 55.863281 114.488281 L 56.207031 114.472656 L 56.53125 114.421875 L 56.835938 114.335938 L 57.125 114.214844 L 57.398438 114.058594 L 57.65625 113.867188 L 57.894531 113.644531 L 58.113281 113.382812 L 58.316406 113.089844 L 58.503906 112.761719 L 58.675781 112.398438 L 58.832031 111.996094 L 58.96875 111.554688 L 59.085938 111.078125 L 59.1875 110.558594 L 59.269531 110.007812 L 59.332031 109.414062 L 59.378906 108.785156 L 59.40625 108.117188 L 59.414062 107.410156 L 59.40625 106.703125 L 59.378906 106.035156 L 59.332031 105.40625 L 59.269531 104.8125 L 59.1875 104.261719 L 59.085938 103.742188 L 58.96875 103.265625 L 58.832031 102.824219 L 58.675781 102.421875 L 58.503906 102.058594 L 58.316406 101.726562 L 58.113281 101.425781 L 57.894531 101.164062 L 57.65625 100.9375 L 57.398438 100.742188 L 57.125 100.585938 L 56.835938 100.464844 L 56.53125 100.375 L 56.207031 100.324219 Z M 55.863281 100.304688 "/>
<path fill-rule="nonzero" fill="rgb(10.196078%, 10.196078%, 10.196078%)" fill-opacity="1" d="M 19.960938 23.566406 L 19.960938 39.527344 L 18.566406 39.527344 L 18.566406 25.101562 L 14.632812 27.550781 L 13.984375 26.519531 L 18.757812 23.566406 Z M 19.960938 23.566406 "/>
<path fill-rule="nonzero" fill="rgb(10.196078%, 10.196078%, 10.196078%)" fill-opacity="1" d="M 29.464844 23.304688 L 29.945312 23.324219 L 30.402344 23.386719 L 30.839844 23.492188 L 31.25 23.640625 L 31.636719 23.832031 L 31.996094 24.0625 L 32.335938 24.339844 L 32.652344 24.65625 L 32.941406 25.015625 L 33.207031 25.414062 L 33.449219 25.851562 L 33.664062 26.328125 L 33.855469 26.84375 L 34.023438 27.402344 L 34.160156 27.996094 L 34.277344 28.628906 L 34.363281 29.304688 L 34.429688 30.015625 L 34.464844 30.769531 L 34.480469 31.558594 L 34.464844 32.347656 L 34.425781 33.09375 L 34.363281 33.804688 L 34.273438 34.476562 L 34.15625 35.109375 L 34.011719 35.707031 L 33.84375 36.261719 L 33.648438 36.78125 L 33.429688 37.261719 L 33.183594 37.703125 L 32.917969 38.101562 L 32.628906 38.453125 L 32.3125 38.769531 L 31.976562 39.039062 L 31.617188 39.269531 L 31.234375 39.457031 L 30.828125 39.601562 L 30.394531 39.707031 L 29.941406 39.769531 L 29.464844 39.792969 L 28.980469 39.769531 L 28.523438 39.707031 L 28.089844 39.601562 L 27.679688 39.457031 L 27.292969 39.269531 L 26.929688 39.039062 L 26.589844 38.769531 L 26.277344 38.453125 L 25.984375 38.101562 L 25.71875 37.703125 L 25.476562 37.261719 L 25.261719 36.78125 L 25.070312 36.261719 L 24.90625 35.703125 L 24.765625 35.105469 L 24.652344 34.46875 L 24.5625 33.792969 L 24.5 33.078125 L 24.460938 32.328125 L 24.449219 31.535156 L 24.460938 30.742188 L 24.5 29.992188 L 24.5625 29.277344 L 24.652344 28.605469 L 24.765625 27.972656 L 24.90625 27.375 L 25.070312 26.820312 L 25.261719 26.304688 L 25.476562 25.828125 L 25.71875 25.390625 L 25.984375 24.996094 L 26.277344 24.640625 L 26.589844 24.328125 L 26.929688 24.054688 L 27.292969 23.824219 L 27.679688 23.636719 L 28.089844 23.492188 L 28.523438 23.386719 L 28.980469 23.324219 Z M 29.464844 24.457031 L 28.785156 24.527344 L 28.175781 24.738281 L 27.640625 25.09375 L 27.175781 25.589844 L 26.78125 26.226562 L 26.460938 27.003906 L 26.210938 27.925781 L 26.03125 28.988281 L 25.921875 30.191406 L 25.886719 31.535156 L 25.921875 32.886719 L 26.03125 34.09375 L 26.210938 35.160156 L 26.460938 36.082031 L 26.78125 36.863281 L 27.175781 37.503906 L 27.640625 38 L 28.175781 38.355469 L 28.785156 38.566406 L 29.464844 38.640625 L 29.804688 38.621094 L 30.128906 38.570312 L 30.4375 38.484375 L 30.726562 38.363281 L 31 38.207031 L 31.253906 38.015625 L 31.492188 37.792969 L 31.714844 37.535156 L 31.917969 37.238281 L 32.101562 36.910156 L 32.277344 36.546875 L 32.433594 36.144531 L 32.570312 35.703125 L 32.6875 35.226562 L 32.789062 34.710938 L 32.871094 34.15625 L 32.933594 33.5625 L 32.980469 32.933594 L 33.007812 32.265625 L 33.015625 31.558594 L 33.007812 30.851562 L 32.980469 30.1875 L 32.933594 29.554688 L 32.871094 28.964844 L 32.789062 28.410156 L 32.6875 27.894531 L 32.570312 27.414062 L 32.433594 26.972656 L 32.277344 26.570312 L 32.101562 26.207031 L 31.917969 25.875 L 31.714844 25.578125 L 31.492188 25.3125 L 31.253906 25.085938 L 31 24.894531 L 30.726562 24.734375 L 30.4375 24.613281 L 30.128906 24.527344 L 29.804688 24.472656 Z M 29.464844 24.457031 "/>
<path fill-rule="nonzero" fill="rgb(10.196078%, 10.196078%, 10.196078%)" fill-opacity="1" d="M 42.664062 23.304688 L 43.144531 23.324219 L 43.605469 23.386719 L 44.039062 23.492188 L 44.449219 23.640625 L 44.835938 23.832031 L 45.199219 24.0625 L 45.535156 24.339844 L 45.851562 24.65625 L 46.140625 25.015625 L 46.40625 25.414062 L 46.648438 25.851562 L 46.867188 26.328125 L 47.054688 26.84375 L 47.222656 27.402344 L 47.363281 27.996094 L 47.476562 28.628906 L 47.566406 29.304688 L 47.628906 30.015625 L 47.667969 30.769531 L 47.679688 31.558594 L 47.667969 32.347656 L 47.628906 33.09375 L 47.5625 33.804688 L 47.472656 34.476562 L 47.355469 35.109375 L 47.210938 35.707031 L 47.042969 36.261719 L 46.851562 36.78125 L 46.628906 37.261719 L 46.382812 37.703125 L 46.117188 38.101562 L 45.828125 38.453125 L 45.515625 38.769531 L 45.175781 39.039062 L 44.816406 39.269531 L 44.433594 39.457031 L 44.027344 39.601562 L 43.59375 39.707031 L 43.140625 39.769531 L 42.664062 39.792969 L 42.179688 39.769531 L 41.722656 39.707031 L 41.289062 39.601562 L 40.878906 39.457031 L 40.492188 39.269531 L 40.128906 39.039062 L 39.789062 38.769531 L 39.476562 38.453125 L 39.1875 38.101562 L 38.917969 37.703125 L 38.679688 37.261719 L 38.460938 36.78125 L 38.269531 36.261719 L 38.105469 35.703125 L 37.964844 35.105469 L 37.851562 34.46875 L 37.761719 33.792969 L 37.699219 33.078125 L 37.660156 32.328125 L 37.648438 31.535156 L 37.660156 30.742188 L 37.699219 29.992188 L 37.761719 29.277344 L 37.851562 28.605469 L 37.964844 27.972656 L 38.105469 27.375 L 38.269531 26.820312 L 38.460938 26.304688 L 38.679688 25.828125 L 38.917969 25.390625 L 39.1875 24.996094 L 39.476562 24.640625 L 39.789062 24.328125 L 40.128906 24.054688 L 40.492188 23.824219 L 40.878906 23.636719 L 41.289062 23.492188 L 41.722656 23.386719 L 42.179688 23.324219 Z M 42.664062 24.457031 L 41.984375 24.527344 L 41.375 24.738281 L 40.839844 25.09375 L 40.375 25.589844 L 39.980469 26.226562 L 39.660156 27.003906 L 39.410156 27.925781 L 39.230469 28.988281 L 39.125 30.191406 L 39.085938 31.535156 L 39.125 32.886719 L 39.230469 34.09375 L 39.410156 35.160156 L 39.660156 36.082031 L 39.980469 36.863281 L 40.375 37.503906 L 40.839844 38 L 41.375 38.355469 L 41.984375 38.566406 L 42.664062 38.640625 L 43.003906 38.621094 L 43.328125 38.570312 L 43.636719 38.484375 L 43.925781 38.363281 L 44.199219 38.207031 L 44.453125 38.015625 L 44.691406 37.792969 L 44.914062 37.535156 L 45.117188 37.238281 L 45.304688 36.910156 L 45.476562 36.546875 L 45.632812 36.144531 L 45.769531 35.703125 L 45.886719 35.226562 L 45.988281 34.710938 L 46.070312 34.15625 L 46.132812 33.5625 L 46.179688 32.933594 L 46.207031 32.265625 L 46.214844 31.558594 L 46.207031 30.851562 L 46.179688 30.1875 L 46.132812 29.554688 L 46.070312 28.964844 L 45.988281 28.410156 L 45.886719 27.894531 L 45.769531 27.414062 L 45.632812 26.972656 L 45.476562 26.570312 L 45.304688 26.207031 L 45.117188 25.875 L 44.914062 25.578125 L 44.691406 25.3125 L 44.453125 25.085938 L 44.199219 24.894531 L 43.925781 24.734375 L 43.636719 24.613281 L 43.328125 24.527344 L 43.003906 24.472656 Z M 42.664062 24.457031 "/>
<path fill-rule="nonzero" fill="rgb(10.196078%, 10.196078%, 10.196078%)" fill-opacity="1" d="M 55.863281 23.304688 L 56.347656 23.324219 L 56.804688 23.386719 L 57.238281 23.492188 L 57.648438 23.640625 L 58.035156 23.832031 L 58.398438 24.0625 L 58.734375 24.339844 L 59.050781 24.65625 L 59.339844 25.015625 L 59.609375 25.414062 L 59.847656 25.851562 L 60.066406 26.328125 L 60.257812 26.84375 L 60.421875 27.402344 L 60.5625 27.996094 L 60.675781 28.628906 L 60.765625 29.304688 L 60.828125 30.015625 L 60.867188 30.769531 L 60.878906 31.558594 L 60.867188 32.347656 L 60.828125 33.09375 L 60.761719 33.804688 L 60.671875 34.476562 L 60.554688 35.109375 L 60.414062 35.707031 L 60.246094 36.261719 L 60.050781 36.78125 L 59.828125 37.261719 L 59.582031 37.703125 L 59.316406 38.101562 L 59.027344 38.453125 L 58.714844 38.769531 L 58.378906 39.039062 L 58.015625 39.269531 L 57.632812 39.457031 L 57.226562 39.601562 L 56.796875 39.707031 L 56.339844 39.769531 L 55.863281 39.792969 L 55.382812 39.769531 L 54.921875 39.707031 L 54.488281 39.601562 L 54.078125 39.457031 L 53.691406 39.269531 L 53.328125 39.039062 L 52.992188 38.769531 L 52.675781 38.453125 L 52.386719 38.101562 L 52.121094 37.703125 L 51.878906 37.261719 L 51.660156 36.78125 L 51.472656 36.261719 L 51.304688 35.703125 L 51.164062 35.105469 L 51.050781 34.46875 L 50.960938 33.792969 L 50.898438 33.078125 L 50.859375 32.328125 L 50.847656 31.535156 L 50.859375 30.742188 L 50.898438 29.992188 L 50.960938 29.277344 L 51.050781 28.605469 L 51.164062 27.972656 L 51.304688 27.375 L 51.472656 26.820312 L 51.660156 26.304688 L 51.878906 25.828125 L 52.121094 25.390625 L 52.386719 24.996094 L 52.675781 24.640625 L 52.992188 24.328125 L 53.328125 24.054688 L 53.691406 23.824219 L 54.078125 23.636719 L 54.488281 23.492188 L 54.921875 23.386719 L 55.382812 23.324219 Z M 55.863281 24.457031 L 55.183594 24.527344 L 54.574219 24.738281 L 54.039062 25.09375 L 53.574219 25.589844 L 53.179688 26.226562 L 52.859375 27.003906 L 52.609375 27.925781 L 52.429688 28.988281 L 52.324219 30.191406 L 52.289062 31.535156 L 52.324219 32.886719 L 52.429688 34.09375 L 52.609375 35.160156 L 52.859375 36.082031 L 53.179688 36.863281 L 53.574219 37.503906 L 54.039062 38 L 54.574219 38.355469 L 55.183594 38.566406 L 55.863281 38.640625 L 56.207031 38.621094 L 56.53125 38.570312 L 56.835938 38.484375 L 57.125 38.363281 L 57.398438 38.207031 L 57.65625 38.015625 L 57.894531 37.792969 L 58.113281 37.535156 L 58.316406 37.238281 L 58.503906 36.910156 L 58.675781 36.546875 L 58.832031 36.144531 L 58.96875 35.703125 L 59.085938 35.226562 L 59.1875 34.710938 L 59.269531 34.15625 L 59.332031 33.5625 L 59.378906 32.933594 L 59.40625 32.265625 L 59.414062 31.558594 L 59.40625 30.851562 L 59.378906 30.1875 L 59.332031 29.554688 L 59.269531 28.964844 L 59.1875 28.410156 L 59.085938 27.894531 L 58.96875 27.414062 L 58.832031 26.972656 L 58.675781 26.570312 L 58.503906 26.207031 L 58.316406 25.875 L 58.113281 25.578125 L 57.894531 25.3125 L 57.65625 25.085938 L 57.398438 24.894531 L 57.125 24.734375 L 56.835938 24.613281 L 56.53125 24.527344 L 56.207031 24.472656 Z M 55.863281 24.457031 "/>
<path fill-rule="nonzero" fill="rgb(10.196078%, 10.196078%, 10.196078%)" fill-opacity="1" d="M 171.105469 361.90625 L 171.589844 361.925781 L 172.046875 361.988281 L 172.480469 362.09375 L 172.890625 362.242188 L 173.277344 362.433594 L 173.640625 362.664062 L 173.980469 362.9375 L 174.292969 363.257812 L 174.582031 363.617188 L 174.851562 364.015625 L 175.089844 364.453125 L 175.308594 364.929688 L 175.5 365.445312 L 175.664062 366 L 175.804688 366.597656 L 175.917969 367.230469 L 176.007812 367.902344 L 176.070312 368.617188 L 176.109375 369.367188 L 176.121094 370.160156 L 176.109375 370.949219 L 176.070312 371.695312 L 176.003906 372.40625 L 175.914062 373.078125 L 175.796875 373.710938 L 175.65625 374.308594 L 175.488281 374.863281 L 175.292969 375.382812 L 175.070312 375.863281 L 174.824219 376.304688 L 174.558594 376.703125 L 174.269531 377.054688 L 173.957031 377.371094 L 173.621094 377.640625 L 173.261719 377.871094 L 172.875 378.058594 L 172.46875 378.203125 L 172.039062 378.308594 L 171.582031 378.371094 L 171.105469 378.390625 L 170.625 378.371094 L 170.164062 378.308594 L 169.730469 378.203125 L 169.320312 378.058594 L 168.933594 377.871094 L 168.570312 377.640625 L 168.234375 377.371094 L 167.917969 377.054688 L 167.628906 376.703125 L 167.363281 376.304688 L 167.121094 375.863281 L 166.902344 375.382812 L 166.714844 374.863281 L 166.546875 374.304688 L 166.40625 373.707031 L 166.292969 373.070312 L 166.203125 372.394531 L 166.140625 371.679688 L 166.101562 370.929688 L 166.089844 370.136719 L 166.101562 369.34375 L 166.140625 368.59375 L 166.203125 367.878906 L 166.292969 367.207031 L 166.40625 366.574219 L 166.546875 365.976562 L 166.714844 365.421875 L 166.902344 364.90625 L 167.121094 364.429688 L 167.363281 363.992188 L 167.628906 363.597656 L 167.917969 363.242188 L 168.234375 362.925781 L 168.570312 362.65625 L 168.933594 362.425781 L 169.320312 362.238281 L 169.730469 362.09375 L 170.164062 361.988281 L 170.625 361.925781 Z M 171.105469 363.054688 L 170.425781 363.128906 L 169.820312 363.339844 L 169.28125 363.695312 L 168.816406 364.1875 L 168.425781 364.828125 L 168.101562 365.605469 L 167.851562 366.527344 L 167.671875 367.585938 L 167.566406 368.792969 L 167.53125 370.136719 L 167.566406 371.484375 L 167.671875 372.695312 L 167.851562 373.757812 L 168.101562 374.683594 L 168.425781 375.464844 L 168.816406 376.105469 L 169.28125 376.601562 L 169.820312 376.957031 L 170.425781 377.167969 L 171.105469 377.242188 L 171.449219 377.222656 L 171.773438 377.171875 L 172.078125 377.085938 L 172.371094 376.964844 L 172.640625 376.808594 L 172.898438 376.617188 L 173.136719 376.394531 L 173.355469 376.132812 L 173.558594 375.839844 L 173.746094 375.511719 L 173.917969 375.148438 L 174.074219 374.746094 L 174.210938 374.304688 L 174.328125 373.828125 L 174.429688 373.3125 L 174.511719 372.757812 L 174.574219 372.164062 L 174.621094 371.535156 L 174.648438 370.867188 L 174.65625 370.160156 L 174.648438 369.453125 L 174.621094 368.785156 L 174.574219 368.15625 L 174.511719 367.566406 L 174.429688 367.011719 L 174.328125 366.496094 L 174.210938 366.015625 L 174.074219 365.574219 L 173.917969 365.171875 L 173.746094 364.808594 L 173.558594 364.476562 L 173.355469 364.179688 L 173.136719 363.914062 L 172.898438 363.6875 L 172.640625 363.496094 L 172.371094 363.335938 L 172.078125 363.214844 L 171.773438 363.125 L 171.449219 363.074219 Z M 171.105469 363.054688 "/>
<path fill-rule="nonzero" fill="rgb(10.196078%, 10.196078%, 10.196078%)" fill-opacity="1" d="M 396.113281 362.167969 L 396.113281 378.128906 L 394.722656 378.128906 L 394.722656 363.703125 L 390.785156 366.152344 L 390.136719 365.121094 L 394.914062 362.167969 Z M 396.113281 362.167969 "/>
</svg>
