<?xml version="1.0" encoding="UTF-8"?>
<svg xmlns="http://www.w3.org/2000/svg" xmlns:xlink="http://www.w3.org/1999/xlink" width="648pt" height="360pt" viewBox="0 0 648 360">
<defs>
<clipPath id="clip-0">
<path clip-rule="nonzero" d="M 10.957031 10.957031 L 637.039062 10.957031 L 637.039062 321.375 L 10.957031 321.375 Z M 10.957031 10.957031 "/>
</clipPath>
</defs>
<rect x="-64.8" y="-36" width="777.6" height="432" fill="rgb(100%, 100%, 100%)" fill-opacity="1"/>
<rect x="-64.8" y="-36" width="777.6" height="432" fill="rgb(95.294118%, 95.294118%, 95.294118%)" fill-opacity="1"/>
<path fill="none" stroke-width="2.133957" stroke-linecap="round" stroke-linejoin="round" stroke="rgb(95.294118%, 95.294118%, 95.294118%)" stroke-opacity="1" stroke-miterlimit="10" d="M 0 360 L 648 360 L 648 0 L 0 0 Z M 0 360 "/>
<g clip-path="url(#clip-0)">
<path fill-rule="nonzero" fill="rgb(95.294118%, 95.294118%, 95.294118%)" fill-opacity="1" stroke-width="2.133957" stroke-linecap="round" stroke-linejoin="round" stroke="rgb(95.294118%, 95.294118%, 95.294118%)" stroke-opacity="1" stroke-miterlimit="10" d="M 10.957031 321.378906 L 637.039062 321.378906 L 637.039062 10.960938 L 10.957031 10.960938 Z M 10.957031 321.378906 "/>
</g>
<path fill-rule="nonzero" fill="rgb(56.078431%, 16.470588%, 26.27451%)" fill-opacity="1" d="M 39.417969 307.269531 L 70.789062 307.269531 L 70.789062 290.972656 L 39.417969 290.972656 Z M 39.417969 307.269531 "/>
<path fill-rule="nonzero" fill="rgb(56.078431%, 16.470588%, 26.27451%)" fill-opacity="1" d="M 84.234375 307.269531 L 115.605469 307.269531 L 115.605469 223.464844 L 84.234375 223.464844 Z M 84.234375 307.269531 "/>
<path fill-rule="nonzero" fill="rgb(56.078431%, 16.470588%, 26.27451%)" fill-opacity="1" d="M 129.050781 307.269531 L 160.421875 307.269531 L 160.421875 109.730469 L 129.050781 109.730469 Z M 129.050781 307.269531 "/>
<path fill-rule="nonzero" fill="rgb(56.078431%, 16.470588%, 26.27451%)" fill-opacity="1" d="M 173.867188 307.269531 L 205.238281 307.269531 L 205.238281 25.070312 L 173.867188 25.070312 Z M 173.867188 307.269531 "/>
<path fill-rule="nonzero" fill="rgb(56.078431%, 16.470588%, 26.27451%)" fill-opacity="1" d="M 218.683594 307.269531 L 250.054688 307.269531 L 250.054688 35.148438 L 218.683594 35.148438 Z M 218.683594 307.269531 "/>
<path fill-rule="nonzero" fill="rgb(56.078431%, 16.470588%, 26.27451%)" fill-opacity="1" d="M 263.5 307.269531 L 294.871094 307.269531 L 294.871094 120.671875 L 263.5 120.671875 Z M 263.5 307.269531 "/>
<path fill-rule="nonzero" fill="rgb(56.078431%, 16.470588%, 26.27451%)" fill-opacity="1" d="M 308.3125 307.269531 L 339.683594 307.269531 L 339.683594 213.972656 L 308.3125 213.972656 Z M 308.3125 307.269531 "/>
<path fill-rule="nonzero" fill="rgb(56.078431%, 16.470588%, 26.27451%)" fill-opacity="1" d="M 353.128906 307.269531 L 384.5 307.269531 L 384.5 272.996094 L 353.128906 272.996094 Z M 353.128906 307.269531 "/>
<path fill-rule="nonzero" fill="rgb(56.078431%, 16.470588%, 26.27451%)" fill-opacity="1" d="M 397.945312 307.269531 L 429.316406 307.269531 L 429.316406 298.089844 L 397.945312 298.089844 Z M 397.945312 307.269531 "/>
<path fill-rule="nonzero" fill="rgb(56.078431%, 16.470588%, 26.27451%)" fill-opacity="1" d="M 442.761719 307.269531 L 474.132812 307.269531 L 474.132812 305.519531 L 442.761719 305.519531 Z M 442.761719 307.269531 "/>
<path fill-rule="nonzero" fill="rgb(56.078431%, 16.470588%, 26.27451%)" fill-opacity="1" d="M 487.578125 307.269531 L 518.949219 307.269531 L 518.949219 307.042969 L 487.578125 307.042969 Z M 487.578125 307.269531 "/>
<path fill-rule="nonzero" fill="rgb(56.078431%, 16.470588%, 26.27451%)" fill-opacity="1" d="M 532.394531 307.269531 L 563.765625 307.269531 L 563.765625 307.253906 L 532.394531 307.253906 Z M 532.394531 307.269531 "/>
<path fill-rule="nonzero" fill="rgb(10.196078%, 10.196078%, 10.196078%)" fill-opacity="1" d="M 55.101562 331.421875 L 55.503906 331.4375 L 55.886719 331.492188 L 56.25 331.578125 L 56.589844 331.703125 L 56.914062 331.859375 L 57.214844 332.054688 L 57.496094 332.285156 L 57.757812 332.546875 L 58 332.847656 L 58.222656 333.179688 L 58.425781 333.546875 L 58.605469 333.941406 L 58.761719 334.371094 L 58.902344 334.835938 L 59.019531 335.332031 L 59.113281 335.859375 L 59.1875 336.421875 L 59.242188 337.015625 L 59.273438 337.640625 L 59.28125 338.300781 L 59.273438 338.957031 L 59.238281 339.582031 L 59.1875 340.171875 L 59.109375 340.734375 L 59.011719 341.261719 L 58.894531 341.757812 L 58.753906 342.222656 L 58.589844 342.652344 L 58.40625 343.054688 L 58.203125 343.421875 L 57.980469 343.75 L 57.738281 344.046875 L 57.480469 344.308594 L 57.199219 344.535156 L 56.898438 344.726562 L 56.578125 344.882812 L 56.238281 345.003906 L 55.878906 345.089844 L 55.5 345.144531 L 55.101562 345.160156 L 54.699219 345.144531 L 54.320312 345.089844 L 53.957031 345.003906 L 53.613281 344.882812 L 53.292969 344.726562 L 52.992188 344.535156 L 52.707031 344.308594 L 52.445312 344.046875 L 52.203125 343.75 L 51.984375 343.421875 L 51.78125 343.054688 L 51.601562 342.652344 L 51.441406 342.21875 L 51.304688 341.753906 L 51.1875 341.257812 L 51.09375 340.726562 L 51.019531 340.164062 L 50.964844 339.566406 L 50.933594 338.941406 L 50.921875 338.28125 L 50.933594 337.621094 L 50.964844 336.996094 L 51.019531 336.402344 L 51.09375 335.839844 L 51.1875 335.3125 L 51.304688 334.816406 L 51.441406 334.351562 L 51.601562 333.921875 L 51.78125 333.527344 L 51.984375 333.160156 L 52.203125 332.832031 L 52.445312 332.535156 L 52.707031 332.273438 L 52.992188 332.046875 L 53.292969 331.855469 L 53.613281 331.699219 L 53.957031 331.578125 L 54.320312 331.492188 L 54.699219 331.4375 Z M 55.101562 332.382812 L 54.535156 332.441406 L 54.03125 332.617188 L 53.582031 332.910156 L 53.195312 333.324219 L 52.867188 333.855469 L 52.601562 334.503906 L 52.390625 335.273438 L 52.242188 336.15625 L 52.152344 337.160156 L 52.121094 338.28125 L 52.152344 339.40625 L 52.242188 340.414062 L 52.390625 341.300781 L 52.601562 342.070312 L 52.867188 342.722656 L 53.195312 343.253906 L 53.582031 343.667969 L 54.03125 343.964844 L 54.535156 344.140625 L 55.101562 344.199219 L 55.386719 344.1875 L 55.65625 344.144531 L 55.914062 344.070312 L 56.15625 343.96875 L 56.382812 343.839844 L 56.59375 343.683594 L 56.792969 343.496094 L 56.976562 343.28125 L 57.148438 343.035156 L 57.304688 342.761719 L 57.445312 342.457031 L 57.578125 342.121094 L 57.691406 341.753906 L 57.789062 341.355469 L 57.871094 340.925781 L 57.941406 340.464844 L 57.996094 339.972656 L 58.03125 339.445312 L 58.054688 338.890625 L 58.0625 338.300781 L 58.054688 337.714844 L 58.03125 337.15625 L 57.996094 336.632812 L 57.941406 336.136719 L 57.871094 335.675781 L 57.789062 335.246094 L 57.691406 334.847656 L 57.578125 334.480469 L 57.445312 334.144531 L 57.304688 333.839844 L 57.148438 333.5625 L 56.976562 333.316406 L 56.792969 333.097656 L 56.59375 332.90625 L 56.382812 332.746094 L 56.15625 332.613281 L 55.914062 332.511719 L 55.65625 332.441406 L 55.386719 332.394531 Z M 55.101562 332.382812 "/>
<path fill-rule="nonzero" fill="rgb(10.196078%, 10.196078%, 10.196078%)" fill-opacity="1" d="M 101.628906 331.640625 L 101.628906 344.941406 L 100.46875 344.941406 L 100.46875 332.921875 L 97.1875 334.960938 L 96.648438 334.101562 L 100.628906 331.640625 Z M 101.628906 331.640625 "/>
<path fill-rule="nonzero" fill="rgb(10.196078%, 10.196078%, 10.196078%)" fill-opacity="1" d="M 144.445312 331.421875 L 144.773438 331.429688 L 145.089844 331.460938 L 145.390625 331.507812 L 145.675781 331.578125 L 145.949219 331.667969 L 146.210938 331.773438 L 146.453125 331.902344 L 146.683594 332.046875 L 146.902344 332.214844 L 147.105469 332.402344 L 147.296875 332.601562 L 147.464844 332.816406 L 147.617188 333.039062 L 147.746094 333.273438 L 147.855469 333.519531 L 147.945312 333.777344 L 148.015625 334.046875 L 148.066406 334.328125 L 148.09375 334.617188 L 148.105469 334.921875 L 148.101562 335.179688 L 148.082031 335.433594 L 148.054688 335.6875 L 148.019531 335.933594 L 147.96875 336.179688 L 147.910156 336.421875 L 147.839844 336.664062 L 147.757812 336.898438 L 147.667969 337.132812 L 147.566406 337.359375 L 147.449219 337.589844 L 147.324219 337.824219 L 147.183594 338.066406 L 147.035156 338.308594 L 146.871094 338.554688 L 146.695312 338.808594 L 146.503906 339.066406 L 146.304688 339.324219 L 146.089844 339.589844 L 145.867188 339.859375 L 145.621094 340.148438 L 145.351562 340.457031 L 145.054688 340.796875 L 144.726562 341.164062 L 144.371094 341.554688 L 143.984375 341.976562 L 143.574219 342.421875 L 143.132812 342.894531 L 142.664062 343.394531 L 142.164062 343.921875 L 148.464844 343.921875 L 148.304688 344.941406 L 140.804688 344.941406 L 140.804688 343.960938 L 141.335938 343.390625 L 141.839844 342.855469 L 142.308594 342.347656 L 142.746094 341.867188 L 143.15625 341.421875 L 143.53125 341.003906 L 143.875 340.617188 L 144.191406 340.261719 L 144.472656 339.9375 L 144.726562 339.640625 L 144.957031 339.359375 L 145.175781 339.089844 L 145.378906 338.824219 L 145.570312 338.570312 L 145.746094 338.320312 L 145.90625 338.082031 L 146.050781 337.847656 L 146.183594 337.625 L 146.300781 337.410156 L 146.40625 337.199219 L 146.5 336.992188 L 146.585938 336.78125 L 146.660156 336.566406 L 146.726562 336.347656 L 146.78125 336.125 L 146.824219 335.902344 L 146.859375 335.675781 L 146.886719 335.449219 L 146.898438 335.214844 L 146.90625 334.980469 L 146.898438 334.75 L 146.878906 334.527344 L 146.84375 334.316406 L 146.792969 334.113281 L 146.730469 333.921875 L 146.652344 333.738281 L 146.5625 333.5625 L 146.457031 333.398438 L 146.339844 333.246094 L 146.207031 333.101562 L 146.066406 332.96875 L 145.914062 332.847656 L 145.753906 332.742188 L 145.585938 332.652344 L 145.410156 332.574219 L 145.222656 332.511719 L 145.027344 332.464844 L 144.824219 332.429688 L 144.609375 332.40625 L 144.386719 332.402344 L 144.203125 332.40625 L 144.023438 332.417969 L 143.851562 332.433594 L 143.679688 332.460938 L 143.515625 332.496094 L 143.351562 332.539062 L 143.195312 332.585938 L 143.042969 332.644531 L 142.890625 332.707031 L 142.746094 332.78125 L 142.605469 332.859375 L 142.46875 332.949219 L 142.332031 333.042969 L 142.195312 333.144531 L 142.058594 333.257812 L 141.925781 333.375 L 141.792969 333.5 L 141.664062 333.632812 L 141.535156 333.773438 L 141.40625 333.921875 L 140.605469 333.320312 L 140.765625 333.128906 L 140.929688 332.949219 L 141.097656 332.78125 L 141.265625 332.621094 L 141.433594 332.472656 L 141.609375 332.332031 L 141.785156 332.203125 L 141.960938 332.085938 L 142.140625 331.976562 L 142.324219 331.882812 L 142.515625 331.792969 L 142.710938 331.714844 L 142.910156 331.648438 L 143.117188 331.585938 L 143.324219 331.535156 L 143.539062 331.496094 L 143.757812 331.460938 L 143.984375 331.441406 L 144.210938 331.425781 Z M 144.445312 331.421875 "/>
<path fill-rule="nonzero" fill="rgb(10.196078%, 10.196078%, 10.196078%)" fill-opacity="1" d="M 189.113281 331.421875 L 189.332031 331.425781 L 189.546875 331.4375 L 189.757812 331.460938 L 189.960938 331.492188 L 190.15625 331.53125 L 190.347656 331.578125 L 190.53125 331.636719 L 190.710938 331.703125 L 190.882812 331.777344 L 191.050781 331.859375 L 191.214844 331.953125 L 191.371094 332.050781 L 191.519531 332.152344 L 191.660156 332.265625 L 191.792969 332.382812 L 191.914062 332.503906 L 192.03125 332.632812 L 192.140625 332.769531 L 192.238281 332.914062 L 192.332031 333.0625 L 192.414062 333.210938 L 192.488281 333.363281 L 192.554688 333.523438 L 192.613281 333.683594 L 192.660156 333.851562 L 192.699219 334.019531 L 192.730469 334.195312 L 192.753906 334.375 L 192.765625 334.554688 L 192.769531 334.742188 L 192.765625 334.996094 L 192.742188 335.242188 L 192.703125 335.476562 L 192.652344 335.703125 L 192.585938 335.921875 L 192.503906 336.128906 L 192.410156 336.324219 L 192.296875 336.515625 L 192.171875 336.691406 L 192.03125 336.859375 L 191.882812 337.015625 L 191.726562 337.15625 L 191.558594 337.285156 L 191.386719 337.40625 L 191.203125 337.511719 L 191.007812 337.605469 L 190.808594 337.6875 L 190.597656 337.757812 L 190.378906 337.816406 L 190.152344 337.859375 L 190.40625 337.882812 L 190.652344 337.917969 L 190.890625 337.972656 L 191.117188 338.039062 L 191.335938 338.125 L 191.546875 338.226562 L 191.746094 338.347656 L 191.9375 338.480469 L 192.117188 338.632812 L 192.292969 338.800781 L 192.453125 338.980469 L 192.601562 339.171875 L 192.730469 339.375 L 192.84375 339.59375 L 192.9375 339.824219 L 193.015625 340.070312 L 193.074219 340.328125 L 193.117188 340.597656 L 193.144531 340.882812 L 193.152344 341.179688 L 193.144531 341.410156 L 193.128906 341.632812 L 193.105469 341.855469 L 193.066406 342.066406 L 193.019531 342.277344 L 192.964844 342.480469 L 192.898438 342.675781 L 192.820312 342.871094 L 192.730469 343.058594 L 192.632812 343.242188 L 192.523438 343.417969 L 192.40625 343.585938 L 192.277344 343.746094 L 192.140625 343.898438 L 191.996094 344.046875 L 191.84375 344.183594 L 191.679688 344.316406 L 191.503906 344.4375 L 191.324219 344.554688 L 191.132812 344.660156 L 190.9375 344.757812 L 190.734375 344.839844 L 190.527344 344.917969 L 190.316406 344.980469 L 190.097656 345.035156 L 189.871094 345.082031 L 189.640625 345.117188 L 189.402344 345.140625 L 189.160156 345.15625 L 188.910156 345.160156 L 188.457031 345.144531 L 188.015625 345.09375 L 187.59375 345.007812 L 187.1875 344.886719 L 186.796875 344.730469 L 186.421875 344.542969 L 186.066406 344.316406 L 185.722656 344.058594 L 185.398438 343.769531 L 185.089844 343.441406 L 185.832031 342.78125 L 185.96875 342.925781 L 186.105469 343.0625 L 186.242188 343.1875 L 186.382812 343.308594 L 186.519531 343.421875 L 186.660156 343.523438 L 186.804688 343.621094 L 186.945312 343.710938 L 187.085938 343.789062 L 187.230469 343.859375 L 187.382812 343.921875 L 187.535156 343.976562 L 187.691406 344.023438 L 187.847656 344.066406 L 188.011719 344.101562 L 188.175781 344.128906 L 188.347656 344.152344 L 188.519531 344.167969 L 188.691406 344.179688 L 188.871094 344.179688 L 189.152344 344.171875 L 189.421875 344.148438 L 189.679688 344.105469 L 189.925781 344.050781 L 190.15625 343.976562 L 190.375 343.886719 L 190.582031 343.777344 L 190.777344 343.65625 L 190.960938 343.515625 L 191.132812 343.359375 L 191.289062 343.191406 L 191.425781 343.011719 L 191.550781 342.824219 L 191.65625 342.621094 L 191.746094 342.410156 L 191.820312 342.191406 L 191.878906 341.957031 L 191.917969 341.714844 L 191.941406 341.464844 L 191.953125 341.199219 L 191.921875 340.667969 L 191.832031 340.191406 L 191.679688 339.773438 L 191.472656 339.410156 L 191.203125 339.101562 L 190.871094 338.847656 L 190.480469 338.652344 L 190.03125 338.511719 L 189.519531 338.429688 L 188.953125 338.402344 L 188.070312 338.402344 L 188.230469 337.460938 L 188.871094 337.460938 L 189.097656 337.453125 L 189.3125 337.433594 L 189.523438 337.398438 L 189.730469 337.351562 L 189.925781 337.292969 L 190.117188 337.214844 L 190.300781 337.128906 L 190.476562 337.027344 L 190.648438 336.910156 L 190.8125 336.78125 L 190.964844 336.636719 L 191.097656 336.476562 L 191.21875 336.308594 L 191.324219 336.128906 L 191.410156 335.9375 L 191.484375 335.730469 L 191.539062 335.515625 L 191.578125 335.289062 L 191.601562 335.050781 L 191.613281 334.800781 L 191.605469 334.585938 L 191.582031 334.378906 L 191.546875 334.183594 L 191.5 333.996094 L 191.4375 333.816406 L 191.359375 333.648438 L 191.269531 333.488281 L 191.164062 333.335938 L 191.042969 333.195312 L 190.910156 333.0625 L 190.765625 332.9375 L 190.613281 332.824219 L 190.449219 332.722656 L 190.277344 332.640625 L 190.097656 332.566406 L 189.90625 332.507812 L 189.707031 332.460938 L 189.496094 332.425781 L 189.277344 332.40625 L 189.050781 332.402344 L 188.886719 332.402344 L 188.722656 332.414062 L 188.558594 332.429688 L 188.402344 332.449219 L 188.246094 332.476562 L 188.09375 332.507812 L 187.945312 332.546875 L 187.796875 332.59375 L 187.652344 332.644531 L 187.511719 332.699219 L 187.371094 332.761719 L 187.230469 332.828125 L 187.089844 332.902344 L 186.949219 332.984375 L 186.804688 333.074219 L 186.523438 333.277344 L 186.378906 333.390625 L 186.234375 333.511719 L 186.089844 333.640625 L 185.472656 332.921875 L 185.632812 332.773438 L 185.792969 332.632812 L 185.957031 332.5 L 186.125 332.378906 L 186.292969 332.261719 L 186.460938 332.152344 L 186.628906 332.054688 L 186.800781 331.960938 L 186.976562 331.878906 L 187.152344 331.800781 L 187.328125 331.730469 L 187.511719 331.664062 L 187.699219 331.605469 L 187.886719 331.558594 L 188.082031 331.515625 L 188.28125 331.480469 L 188.480469 331.457031 L 188.6875 331.4375 L 188.898438 331.425781 Z M 189.113281 331.421875 "/>
<path fill-rule="nonzero" fill="rgb(10.196078%, 10.196078%, 10.196078%)" fill-opacity="1" d="M 238.847656 340.480469 L 238.847656 341.441406 L 237.046875 341.441406 L 237.046875 344.941406 L 235.90625 344.941406 L 235.90625 341.441406 L 230.085938 341.441406 L 230.085938 340.582031 L 234.148438 331.421875 L 235.128906 331.820312 L 231.328125 340.480469 L 235.90625 340.480469 L 236.046875 336.582031 L 237.046875 336.582031 L 237.046875 340.480469 Z M 238.847656 340.480469 "/>
<path fill-rule="nonzero" fill="rgb(10.196078%, 10.196078%, 10.196078%)" fill-opacity="1" d="M 282.414062 332.601562 L 277.015625 332.601562 L 277.015625 337.140625 L 277.234375 337.023438 L 277.457031 336.917969 L 277.679688 336.824219 L 277.90625 336.746094 L 278.132812 336.675781 L 278.363281 336.621094 L 278.59375 336.578125 L 278.824219 336.546875 L 279.058594 336.527344 L 279.292969 336.519531 L 279.628906 336.53125 L 279.953125 336.566406 L 280.261719 336.621094 L 280.554688 336.699219 L 280.832031 336.800781 L 281.097656 336.925781 L 281.347656 337.070312 L 281.585938 337.238281 L 281.804688 337.429688 L 282.015625 337.640625 L 282.207031 337.871094 L 282.382812 338.113281 L 282.535156 338.375 L 282.667969 338.652344 L 282.777344 338.945312 L 282.871094 339.257812 L 282.941406 339.582031 L 282.992188 339.925781 L 283.023438 340.285156 L 283.035156 340.660156 L 283.027344 340.917969 L 283.011719 341.171875 L 282.984375 341.417969 L 282.949219 341.660156 L 282.898438 341.894531 L 282.839844 342.128906 L 282.769531 342.355469 L 282.6875 342.574219 L 282.597656 342.789062 L 282.492188 343 L 282.386719 343.199219 L 282.265625 343.390625 L 282.140625 343.574219 L 282.003906 343.746094 L 281.859375 343.910156 L 281.703125 344.066406 L 281.539062 344.214844 L 281.367188 344.351562 L 281.183594 344.480469 L 280.992188 344.601562 L 280.796875 344.707031 L 280.597656 344.800781 L 280.390625 344.886719 L 280.175781 344.960938 L 279.953125 345.019531 L 279.726562 345.070312 L 279.492188 345.109375 L 279.253906 345.140625 L 279.007812 345.15625 L 278.753906 345.160156 L 278.316406 345.144531 L 277.894531 345.097656 L 277.484375 345.015625 L 277.085938 344.90625 L 276.703125 344.761719 L 276.335938 344.585938 L 275.980469 344.378906 L 275.636719 344.136719 L 275.308594 343.863281 L 274.992188 343.5625 L 275.714844 342.859375 L 275.84375 342.992188 L 275.972656 343.117188 L 276.105469 343.238281 L 276.238281 343.347656 L 276.375 343.449219 L 276.511719 343.546875 L 276.648438 343.636719 L 276.789062 343.71875 L 276.929688 343.792969 L 277.074219 343.859375 L 277.21875 343.921875 L 277.371094 343.976562 L 277.527344 344.023438 L 277.6875 344.066406 L 277.855469 344.101562 L 278.023438 344.128906 L 278.199219 344.152344 L 278.378906 344.167969 L 278.5625 344.179688 L 278.753906 344.179688 L 279.03125 344.171875 L 279.296875 344.144531 L 279.550781 344.097656 L 279.792969 344.03125 L 280.023438 343.945312 L 280.242188 343.84375 L 280.449219 343.71875 L 280.640625 343.578125 L 280.824219 343.417969 L 280.992188 343.242188 L 281.148438 343.042969 L 281.289062 342.828125 L 281.410156 342.605469 L 281.519531 342.363281 L 281.609375 342.109375 L 281.683594 341.84375 L 281.738281 341.5625 L 281.78125 341.269531 L 281.804688 340.960938 L 281.8125 340.640625 L 281.804688 340.328125 L 281.785156 340.035156 L 281.746094 339.753906 L 281.691406 339.492188 L 281.625 339.246094 L 281.539062 339.015625 L 281.441406 338.804688 L 281.328125 338.605469 L 281.199219 338.425781 L 281.054688 338.261719 L 280.902344 338.109375 L 280.734375 337.972656 L 280.5625 337.851562 L 280.375 337.75 L 280.179688 337.660156 L 279.972656 337.589844 L 279.753906 337.53125 L 279.523438 337.492188 L 279.285156 337.46875 L 279.035156 337.460938 L 278.90625 337.460938 L 278.664062 337.476562 L 278.542969 337.488281 L 278.429688 337.5 L 278.316406 337.519531 L 278.207031 337.539062 L 278.097656 337.5625 L 277.996094 337.589844 L 277.894531 337.621094 L 277.796875 337.652344 L 277.695312 337.683594 L 277.59375 337.722656 L 277.492188 337.765625 L 277.273438 337.859375 L 277.164062 337.914062 L 277.050781 337.972656 L 276.933594 338.035156 L 276.8125 338.101562 L 275.894531 338.101562 L 275.894531 331.640625 L 282.59375 331.640625 Z M 282.414062 332.601562 "/>
<path fill-rule="nonzero" fill="rgb(10.196078%, 10.196078%, 10.196078%)" fill-opacity="1" d="M 324.679688 336.28125 L 324.984375 336.292969 L 325.273438 336.324219 L 325.554688 336.378906 L 325.824219 336.453125 L 326.085938 336.550781 L 326.332031 336.667969 L 326.570312 336.808594 L 326.796875 336.972656 L 327.015625 337.15625 L 327.21875 337.359375 L 327.410156 337.582031 L 327.578125 337.824219 L 327.730469 338.085938 L 327.859375 338.367188 L 327.96875 338.667969 L 328.058594 338.984375 L 328.128906 339.324219 L 328.179688 339.683594 L 328.210938 340.0625 L 328.21875 340.460938 L 328.214844 340.742188 L 328.199219 341.015625 L 328.171875 341.28125 L 328.136719 341.542969 L 328.089844 341.796875 L 328.03125 342.042969 L 327.964844 342.28125 L 327.886719 342.515625 L 327.796875 342.742188 L 327.699219 342.960938 L 327.597656 343.167969 L 327.484375 343.367188 L 327.363281 343.554688 L 327.234375 343.730469 L 327.101562 343.902344 L 326.957031 344.058594 L 326.804688 344.210938 L 326.644531 344.351562 L 326.476562 344.480469 L 326.300781 344.601562 L 326.121094 344.707031 L 325.9375 344.800781 L 325.75 344.886719 L 325.558594 344.960938 L 325.359375 345.019531 L 325.15625 345.070312 L 324.949219 345.109375 L 324.738281 345.140625 L 324.523438 345.15625 L 324.300781 345.160156 L 323.871094 345.144531 L 323.46875 345.09375 L 323.085938 345.011719 L 322.730469 344.890625 L 322.394531 344.742188 L 322.085938 344.554688 L 321.796875 344.339844 L 321.535156 344.085938 L 321.296875 343.800781 L 321.078125 343.480469 L 320.890625 343.128906 L 320.71875 342.753906 L 320.570312 342.359375 L 320.441406 341.9375 L 320.328125 341.496094 L 320.238281 341.03125 L 320.171875 340.542969 L 320.121094 340.03125 L 320.089844 339.496094 L 320.078125 338.941406 L 320.085938 338.488281 L 320.101562 338.046875 L 320.132812 337.613281 L 320.171875 337.195312 L 320.226562 336.792969 L 320.289062 336.398438 L 320.363281 336.015625 L 320.453125 335.644531 L 320.550781 335.285156 L 320.660156 334.941406 L 320.78125 334.609375 L 320.910156 334.292969 L 321.054688 333.992188 L 321.203125 333.710938 L 321.363281 333.441406 L 321.535156 333.1875 L 321.71875 332.953125 L 321.90625 332.734375 L 322.109375 332.527344 L 322.320312 332.339844 L 322.539062 332.167969 L 322.769531 332.011719 L 323.003906 331.871094 L 323.246094 331.753906 L 323.5 331.652344 L 323.761719 331.566406 L 324.027344 331.503906 L 324.304688 331.457031 L 324.589844 331.429688 L 324.878906 331.421875 L 325.144531 331.429688 L 325.40625 331.453125 L 325.664062 331.492188 L 325.921875 331.546875 L 326.171875 331.617188 L 326.414062 331.703125 L 326.65625 331.804688 L 326.894531 331.921875 L 327.128906 332.054688 L 327.359375 332.199219 L 326.859375 333 L 326.667969 332.882812 L 326.472656 332.777344 L 326.277344 332.683594 L 326.078125 332.605469 L 325.878906 332.535156 L 325.679688 332.480469 L 325.476562 332.4375 L 325.273438 332.40625 L 325.066406 332.386719 L 324.859375 332.382812 L 324.542969 332.398438 L 324.238281 332.445312 L 323.949219 332.527344 L 323.667969 332.640625 L 323.40625 332.785156 L 323.152344 332.964844 L 322.914062 333.175781 L 322.691406 333.417969 L 322.480469 333.691406 L 322.28125 334 L 322.097656 334.335938 L 321.933594 334.6875 L 321.785156 335.0625 L 321.65625 335.457031 L 321.546875 335.871094 L 321.453125 336.304688 L 321.378906 336.757812 L 321.320312 337.234375 L 321.28125 337.726562 L 321.261719 338.242188 L 321.535156 337.867188 L 321.824219 337.535156 L 322.128906 337.242188 L 322.449219 336.988281 L 322.785156 336.769531 L 323.132812 336.59375 L 323.5 336.457031 L 323.878906 336.359375 L 324.269531 336.300781 Z M 324.300781 344.199219 L 324.558594 344.191406 L 324.804688 344.160156 L 325.035156 344.109375 L 325.257812 344.042969 L 325.464844 343.949219 L 325.660156 343.839844 L 325.84375 343.710938 L 326.015625 343.5625 L 326.171875 343.390625 L 326.320312 343.199219 L 326.457031 342.992188 L 326.578125 342.765625 L 326.6875 342.53125 L 326.78125 342.28125 L 326.859375 342.015625 L 326.925781 341.738281 L 326.976562 341.449219 L 327.011719 341.148438 L 327.03125 340.832031 L 327.039062 340.5 L 327.03125 340.175781 L 327.011719 339.871094 L 326.976562 339.582031 L 326.929688 339.3125 L 326.863281 339.054688 L 326.789062 338.820312 L 326.695312 338.597656 L 326.59375 338.394531 L 326.472656 338.210938 L 326.339844 338.042969 L 326.199219 337.890625 L 326.050781 337.753906 L 325.890625 337.632812 L 325.722656 337.527344 L 325.546875 337.441406 L 325.359375 337.367188 L 325.164062 337.3125 L 324.957031 337.273438 L 324.742188 337.25 L 324.519531 337.242188 L 324.320312 337.246094 L 324.125 337.265625 L 323.933594 337.296875 L 323.746094 337.335938 L 323.558594 337.390625 L 323.378906 337.457031 L 323.199219 337.535156 L 323.023438 337.625 L 322.847656 337.726562 L 322.679688 337.839844 L 322.519531 337.960938 L 322.359375 338.089844 L 322.207031 338.230469 L 322.058594 338.375 L 321.914062 338.53125 L 321.773438 338.695312 L 321.640625 338.867188 L 321.507812 339.050781 L 321.382812 339.242188 L 321.261719 339.441406 L 321.277344 339.894531 L 321.308594 340.324219 L 321.355469 340.734375 L 321.414062 341.121094 L 321.484375 341.484375 L 321.570312 341.828125 L 321.667969 342.148438 L 321.777344 342.449219 L 321.902344 342.726562 L 322.039062 342.980469 L 322.191406 343.214844 L 322.359375 343.421875 L 322.546875 343.601562 L 322.746094 343.761719 L 322.964844 343.894531 L 323.199219 344.007812 L 323.449219 344.089844 L 323.71875 344.152344 L 324 344.1875 Z M 324.300781 344.199219 "/>
<path fill-rule="nonzero" fill="rgb(10.196078%, 10.196078%, 10.196078%)" fill-opacity="1" d="M 372.464844 331.640625 L 372.464844 332.542969 L 367.226562 345.101562 L 366.144531 344.742188 L 371.265625 332.621094 L 365.046875 332.621094 L 365.046875 331.640625 Z M 372.464844 331.640625 "/>
<path fill-rule="nonzero" fill="rgb(10.196078%, 10.196078%, 10.196078%)" fill-opacity="1" d="M 414.992188 337.902344 L 415.292969 338.027344 L 415.574219 338.15625 L 415.839844 338.292969 L 416.089844 338.433594 L 416.324219 338.574219 L 416.539062 338.722656 L 416.738281 338.875 L 416.917969 339.035156 L 417.082031 339.195312 L 417.230469 339.359375 L 417.371094 339.53125 L 417.492188 339.707031 L 417.597656 339.894531 L 417.691406 340.09375 L 417.773438 340.300781 L 417.835938 340.519531 L 417.886719 340.746094 L 417.921875 340.980469 L 417.945312 341.226562 L 417.953125 341.480469 L 417.945312 341.699219 L 417.929688 341.910156 L 417.902344 342.117188 L 417.863281 342.320312 L 417.8125 342.515625 L 417.75 342.707031 L 417.679688 342.894531 L 417.59375 343.074219 L 417.5 343.25 L 417.390625 343.421875 L 417.28125 343.582031 L 417.15625 343.734375 L 417.027344 343.878906 L 416.886719 344.019531 L 416.738281 344.152344 L 416.578125 344.277344 L 416.410156 344.394531 L 416.234375 344.503906 L 416.046875 344.605469 L 415.851562 344.699219 L 415.652344 344.789062 L 415.449219 344.867188 L 415.238281 344.9375 L 415.019531 344.996094 L 414.796875 345.046875 L 414.570312 345.085938 L 414.332031 345.121094 L 414.09375 345.144531 L 413.84375 345.15625 L 413.59375 345.160156 L 413.339844 345.15625 L 413.09375 345.144531 L 412.851562 345.121094 L 412.617188 345.085938 L 412.386719 345.046875 L 412.164062 344.996094 L 411.949219 344.9375 L 411.738281 344.867188 L 411.53125 344.789062 L 411.332031 344.699219 L 411.144531 344.605469 L 410.964844 344.503906 L 410.792969 344.394531 L 410.632812 344.277344 L 410.476562 344.152344 L 410.332031 344.019531 L 410.195312 343.878906 L 410.066406 343.734375 L 409.945312 343.582031 L 409.832031 343.421875 L 409.734375 343.25 L 409.644531 343.074219 L 409.566406 342.894531 L 409.5 342.710938 L 409.441406 342.519531 L 409.394531 342.328125 L 409.359375 342.128906 L 409.332031 341.921875 L 409.316406 341.714844 L 409.3125 341.5 L 409.339844 341.003906 L 409.425781 340.535156 L 409.570312 340.09375 L 409.769531 339.679688 L 410.027344 339.296875 L 410.34375 338.941406 L 410.714844 338.613281 L 411.144531 338.3125 L 411.628906 338.042969 L 412.171875 337.800781 L 411.941406 337.691406 L 411.726562 337.578125 L 411.519531 337.460938 L 411.328125 337.34375 L 411.148438 337.222656 L 410.980469 337.09375 L 410.824219 336.964844 L 410.679688 336.835938 L 410.550781 336.699219 L 410.433594 336.5625 L 410.328125 336.414062 L 410.238281 336.257812 L 410.15625 336.09375 L 410.085938 335.925781 L 410.027344 335.746094 L 409.980469 335.558594 L 409.941406 335.367188 L 409.914062 335.164062 L 409.898438 334.957031 L 409.890625 334.742188 L 409.898438 334.539062 L 409.914062 334.34375 L 409.9375 334.152344 L 409.976562 333.964844 L 410.023438 333.785156 L 410.078125 333.609375 L 410.148438 333.441406 L 410.226562 333.277344 L 410.3125 333.117188 L 410.414062 332.960938 L 410.519531 332.8125 L 410.632812 332.671875 L 410.753906 332.539062 L 410.882812 332.414062 L 411.015625 332.296875 L 411.160156 332.1875 L 411.308594 332.082031 L 411.460938 331.988281 L 411.625 331.902344 L 411.792969 331.820312 L 411.964844 331.746094 L 412.140625 331.675781 L 412.320312 331.617188 L 412.5 331.566406 L 412.683594 331.519531 L 412.867188 331.484375 L 413.054688 331.457031 L 413.246094 331.4375 L 413.4375 331.425781 L 413.632812 331.421875 L 413.828125 331.425781 L 414.019531 331.4375 L 414.210938 331.457031 L 414.398438 331.480469 L 414.582031 331.515625 L 414.765625 331.558594 L 414.945312 331.605469 L 415.125 331.664062 L 415.300781 331.730469 L 415.472656 331.800781 L 415.640625 331.878906 L 415.804688 331.96875 L 415.957031 332.0625 L 416.105469 332.164062 L 416.246094 332.269531 L 416.382812 332.386719 L 416.511719 332.507812 L 416.628906 332.640625 L 416.746094 332.777344 L 416.851562 332.921875 L 416.953125 333.074219 L 417.046875 333.230469 L 417.128906 333.394531 L 417.199219 333.5625 L 417.257812 333.742188 L 417.304688 333.925781 L 417.34375 334.113281 L 417.371094 334.308594 L 417.386719 334.511719 L 417.390625 334.722656 L 417.386719 334.925781 L 417.371094 335.125 L 417.339844 335.320312 L 417.300781 335.507812 L 417.246094 335.691406 L 417.183594 335.867188 L 417.109375 336.039062 L 417.019531 336.207031 L 416.921875 336.367188 L 416.8125 336.519531 L 416.691406 336.667969 L 416.554688 336.8125 L 416.40625 336.957031 L 416.242188 337.097656 L 416.066406 337.234375 L 415.878906 337.375 L 415.675781 337.507812 L 415.460938 337.640625 L 415.234375 337.773438 Z M 411.050781 334.761719 L 411.058594 334.949219 L 411.074219 335.128906 L 411.101562 335.300781 L 411.140625 335.464844 L 411.1875 335.621094 L 411.246094 335.769531 L 411.316406 335.910156 L 411.398438 336.042969 L 411.488281 336.164062 L 411.59375 336.28125 L 411.710938 336.390625 L 411.847656 336.503906 L 412 336.613281 L 412.167969 336.71875 L 412.351562 336.824219 L 412.550781 336.929688 L 412.769531 337.035156 L 413 337.140625 L 413.25 337.242188 L 413.511719 337.339844 L 414.132812 337.5625 L 414.351562 337.441406 L 414.554688 337.320312 L 414.746094 337.199219 L 414.925781 337.074219 L 415.09375 336.949219 L 415.246094 336.828125 L 415.386719 336.703125 L 415.515625 336.574219 L 415.628906 336.449219 L 415.730469 336.320312 L 415.828125 336.191406 L 415.914062 336.054688 L 415.988281 335.910156 L 416.050781 335.765625 L 416.105469 335.609375 L 416.152344 335.453125 L 416.1875 335.289062 L 416.210938 335.117188 L 416.226562 334.941406 L 416.230469 334.761719 L 416.226562 334.539062 L 416.203125 334.324219 L 416.167969 334.121094 L 416.117188 333.929688 L 416.050781 333.746094 L 415.972656 333.574219 L 415.878906 333.410156 L 415.773438 333.257812 L 415.648438 333.113281 L 415.511719 332.980469 L 415.367188 332.859375 L 415.214844 332.75 L 415.050781 332.65625 L 414.875 332.570312 L 414.691406 332.5 L 414.5 332.445312 L 414.296875 332.398438 L 414.085938 332.367188 L 413.863281 332.347656 L 413.632812 332.339844 L 413.410156 332.347656 L 413.191406 332.367188 L 412.984375 332.398438 L 412.789062 332.445312 L 412.597656 332.5 L 412.414062 332.570312 L 412.242188 332.65625 L 412.078125 332.75 L 411.921875 332.859375 L 411.773438 332.980469 L 411.636719 333.113281 L 411.511719 333.257812 L 411.40625 333.410156 L 411.3125 333.574219 L 411.230469 333.746094 L 411.167969 333.929688 L 411.117188 334.121094 L 411.082031 334.324219 L 411.058594 334.539062 Z M 413.613281 344.179688 L 413.890625 344.175781 L 414.15625 344.152344 L 414.414062 344.117188 L 414.65625 344.070312 L 414.886719 344.007812 L 415.109375 343.929688 L 415.316406 343.839844 L 415.511719 343.734375 L 415.699219 343.613281 L 415.871094 343.480469 L 416.035156 343.332031 L 416.183594 343.171875 L 416.3125 343 L 416.421875 342.816406 L 416.515625 342.621094 L 416.59375 342.414062 L 416.65625 342.199219 L 416.699219 341.96875 L 416.722656 341.730469 L 416.730469 341.480469 L 416.730469 341.324219 L 416.71875 341.171875 L 416.707031 341.027344 L 416.683594 340.886719 L 416.65625 340.75 L 416.625 340.621094 L 416.585938 340.5 L 416.539062 340.378906 L 416.488281 340.269531 L 416.433594 340.160156 L 416.371094 340.054688 L 416.300781 339.953125 L 416.222656 339.851562 L 416.140625 339.753906 L 416.050781 339.660156 L 415.957031 339.570312 L 415.855469 339.484375 L 415.746094 339.398438 L 415.632812 339.320312 L 415.511719 339.242188 L 415.382812 339.160156 L 415.246094 339.082031 L 415.09375 339 L 414.9375 338.917969 L 414.765625 338.835938 L 414.589844 338.753906 L 414.398438 338.671875 L 414.199219 338.589844 L 413.992188 338.503906 L 413.773438 338.421875 L 413.09375 338.160156 L 412.832031 338.269531 L 412.585938 338.382812 L 412.351562 338.5 L 412.136719 338.625 L 411.933594 338.757812 L 411.742188 338.894531 L 411.570312 339.035156 L 411.410156 339.183594 L 411.261719 339.339844 L 411.132812 339.5 L 411.019531 339.664062 L 410.917969 339.835938 L 410.828125 340.015625 L 410.75 340.207031 L 410.683594 340.402344 L 410.628906 340.605469 L 410.585938 340.816406 L 410.554688 341.035156 L 410.539062 341.265625 L 410.53125 341.5 L 410.539062 341.75 L 410.566406 341.988281 L 410.609375 342.21875 L 410.667969 342.433594 L 410.742188 342.636719 L 410.835938 342.828125 L 410.945312 343.007812 L 411.070312 343.179688 L 411.210938 343.335938 L 411.371094 343.480469 L 411.546875 343.613281 L 411.730469 343.734375 L 411.925781 343.839844 L 412.132812 343.929688 L 412.351562 344.007812 L 412.582031 344.070312 L 412.824219 344.117188 L 413.074219 344.152344 L 413.339844 344.175781 Z M 413.613281 344.179688 "/>
<path fill-rule="nonzero" fill="rgb(10.196078%, 10.196078%, 10.196078%)" fill-opacity="1" d="M 458.367188 331.421875 L 458.761719 331.433594 L 459.136719 331.476562 L 459.488281 331.550781 L 459.820312 331.648438 L 460.132812 331.777344 L 460.425781 331.933594 L 460.695312 332.117188 L 460.949219 332.328125 L 461.179688 332.570312 L 461.386719 332.839844 L 461.582031 333.132812 L 461.753906 333.445312 L 461.910156 333.785156 L 462.042969 334.144531 L 462.152344 334.527344 L 462.246094 334.929688 L 462.316406 335.359375 L 462.367188 335.8125 L 462.398438 336.285156 L 462.410156 336.78125 L 462.402344 337.289062 L 462.378906 337.777344 L 462.34375 338.246094 L 462.289062 338.695312 L 462.222656 339.125 L 462.140625 339.539062 L 462.046875 339.933594 L 461.933594 340.308594 L 461.808594 340.664062 L 461.667969 341 L 461.511719 341.324219 L 461.34375 341.628906 L 461.160156 341.925781 L 460.964844 342.207031 L 460.753906 342.476562 L 460.527344 342.730469 L 460.289062 342.972656 L 460.035156 343.203125 L 459.769531 343.417969 L 459.488281 343.621094 L 459.195312 343.816406 L 458.882812 344.003906 L 458.554688 344.1875 L 458.207031 344.363281 L 457.839844 344.535156 L 457.453125 344.703125 L 457.050781 344.867188 L 456.628906 345.023438 L 456.1875 345.175781 L 455.730469 345.320312 L 455.429688 344.421875 L 455.96875 344.246094 L 456.480469 344.058594 L 456.964844 343.859375 L 457.425781 343.648438 L 457.859375 343.425781 L 458.265625 343.191406 L 458.644531 342.941406 L 459 342.679688 L 459.328125 342.40625 L 459.628906 342.121094 L 459.90625 341.816406 L 460.160156 341.492188 L 460.386719 341.148438 L 460.585938 340.78125 L 460.757812 340.390625 L 460.90625 339.980469 L 461.027344 339.546875 L 461.121094 339.09375 L 461.1875 338.617188 L 461.230469 338.121094 L 461.105469 338.292969 L 460.980469 338.457031 L 460.847656 338.613281 L 460.710938 338.765625 L 460.570312 338.90625 L 460.421875 339.039062 L 460.269531 339.167969 L 460.113281 339.285156 L 459.953125 339.398438 L 459.789062 339.5 L 459.617188 339.59375 L 459.445312 339.675781 L 459.269531 339.746094 L 459.089844 339.808594 L 458.910156 339.859375 L 458.722656 339.902344 L 458.535156 339.9375 L 458.34375 339.960938 L 458.148438 339.976562 L 457.949219 339.980469 L 457.742188 339.976562 L 457.542969 339.960938 L 457.34375 339.9375 L 457.152344 339.902344 L 456.964844 339.855469 L 456.78125 339.800781 L 456.601562 339.734375 L 456.425781 339.660156 L 456.253906 339.574219 L 456.089844 339.480469 L 455.929688 339.371094 L 455.773438 339.257812 L 455.628906 339.132812 L 455.488281 338.996094 L 455.355469 338.855469 L 455.226562 338.707031 L 455.105469 338.546875 L 454.996094 338.378906 L 454.886719 338.203125 L 454.789062 338.019531 L 454.703125 337.824219 L 454.621094 337.625 L 454.554688 337.417969 L 454.496094 337.203125 L 454.445312 336.980469 L 454.402344 336.753906 L 454.371094 336.519531 L 454.347656 336.28125 L 454.332031 336.035156 L 454.328125 335.78125 L 454.332031 335.519531 L 454.347656 335.265625 L 454.375 335.019531 L 454.410156 334.78125 L 454.457031 334.546875 L 454.515625 334.320312 L 454.582031 334.101562 L 454.660156 333.886719 L 454.75 333.679688 L 454.847656 333.480469 L 454.960938 333.285156 L 455.078125 333.101562 L 455.207031 332.925781 L 455.339844 332.757812 L 455.484375 332.601562 L 455.632812 332.453125 L 455.789062 332.316406 L 455.957031 332.1875 L 456.128906 332.070312 L 456.308594 331.960938 L 456.496094 331.859375 L 456.683594 331.765625 L 456.878906 331.6875 L 457.078125 331.617188 L 457.285156 331.554688 L 457.492188 331.507812 L 457.703125 331.46875 L 457.921875 331.441406 L 458.144531 331.425781 Z M 458.148438 339.019531 L 458.335938 339.015625 L 458.515625 339 L 458.695312 338.976562 L 458.867188 338.941406 L 459.039062 338.894531 L 459.203125 338.839844 L 459.367188 338.777344 L 459.523438 338.699219 L 459.679688 338.617188 L 459.828125 338.519531 L 459.980469 338.414062 L 460.128906 338.292969 L 460.273438 338.167969 L 460.417969 338.03125 L 460.558594 337.886719 L 460.699219 337.730469 L 460.832031 337.566406 L 460.96875 337.394531 L 461.097656 337.210938 L 461.230469 337.019531 L 461.226562 336.558594 L 461.207031 336.121094 L 461.175781 335.707031 L 461.132812 335.320312 L 461.074219 334.957031 L 461 334.617188 L 460.914062 334.304688 L 460.8125 334.019531 L 460.699219 333.757812 L 460.570312 333.519531 L 460.425781 333.304688 L 460.265625 333.109375 L 460.089844 332.941406 L 459.898438 332.792969 L 459.6875 332.667969 L 459.464844 332.5625 L 459.222656 332.484375 L 458.96875 332.425781 L 458.695312 332.390625 L 458.410156 332.382812 L 458.144531 332.390625 L 457.894531 332.417969 L 457.65625 332.460938 L 457.425781 332.523438 L 457.207031 332.605469 L 457.003906 332.707031 L 456.808594 332.820312 L 456.621094 332.957031 L 456.449219 333.109375 L 456.289062 333.28125 L 456.144531 333.464844 L 456.015625 333.664062 L 455.902344 333.878906 L 455.800781 334.105469 L 455.71875 334.351562 L 455.648438 334.609375 L 455.597656 334.886719 L 455.558594 335.175781 L 455.535156 335.480469 L 455.527344 335.800781 L 455.535156 336.101562 L 455.554688 336.390625 L 455.589844 336.660156 L 455.640625 336.921875 L 455.703125 337.167969 L 455.78125 337.398438 L 455.871094 337.613281 L 455.976562 337.816406 L 456.09375 338.007812 L 456.230469 338.179688 L 456.378906 338.339844 L 456.535156 338.484375 L 456.703125 338.609375 L 456.882812 338.71875 L 457.070312 338.8125 L 457.265625 338.886719 L 457.472656 338.945312 L 457.6875 338.988281 L 457.914062 339.011719 Z M 458.148438 339.019531 "/>
<path fill-rule="nonzero" fill="rgb(10.196078%, 10.196078%, 10.196078%)" fill-opacity="1" d="M 499.476562 331.640625 L 499.476562 344.941406 L 498.316406 344.941406 L 498.316406 332.921875 L 495.035156 334.960938 L 494.496094 334.101562 L 498.476562 331.640625 Z M 499.476562 331.640625 "/>
<path fill-rule="nonzero" fill="rgb(10.196078%, 10.196078%, 10.196078%)" fill-opacity="1" d="M 507.394531 331.421875 L 507.796875 331.4375 L 508.179688 331.492188 L 508.539062 331.578125 L 508.882812 331.703125 L 509.203125 331.859375 L 509.507812 332.054688 L 509.789062 332.285156 L 510.050781 332.546875 L 510.292969 332.847656 L 510.515625 333.179688 L 510.714844 333.546875 L 510.894531 333.941406 L 511.054688 334.371094 L 511.191406 334.835938 L 511.308594 335.332031 L 511.40625 335.859375 L 511.480469 336.421875 L 511.53125 337.015625 L 511.5625 337.640625 L 511.574219 338.300781 L 511.5625 338.957031 L 511.53125 339.582031 L 511.476562 340.171875 L 511.402344 340.734375 L 511.304688 341.261719 L 511.1875 341.757812 L 511.046875 342.222656 L 510.882812 342.652344 L 510.699219 343.054688 L 510.496094 343.421875 L 510.273438 343.75 L 510.03125 344.046875 L 509.769531 344.308594 L 509.488281 344.535156 L 509.191406 344.726562 L 508.871094 344.882812 L 508.53125 345.003906 L 508.171875 345.089844 L 507.792969 345.144531 L 507.394531 345.160156 L 506.992188 345.144531 L 506.609375 345.089844 L 506.25 345.003906 L 505.90625 344.882812 L 505.585938 344.726562 L 505.28125 344.535156 L 505 344.308594 L 504.738281 344.046875 L 504.496094 343.75 L 504.273438 343.421875 L 504.074219 343.054688 L 503.894531 342.652344 L 503.734375 342.21875 L 503.597656 341.753906 L 503.480469 341.257812 L 503.382812 340.726562 L 503.308594 340.164062 L 503.257812 339.566406 L 503.226562 338.941406 L 503.214844 338.28125 L 503.226562 337.621094 L 503.257812 336.996094 L 503.308594 336.402344 L 503.382812 335.839844 L 503.480469 335.3125 L 503.597656 334.816406 L 503.734375 334.351562 L 503.894531 333.921875 L 504.074219 333.527344 L 504.273438 333.160156 L 504.496094 332.832031 L 504.738281 332.535156 L 505 332.273438 L 505.28125 332.046875 L 505.585938 331.855469 L 505.90625 331.699219 L 506.25 331.578125 L 506.609375 331.492188 L 506.992188 331.4375 Z M 507.394531 332.382812 L 506.828125 332.441406 L 506.320312 332.617188 L 505.875 332.910156 L 505.488281 333.324219 L 505.160156 333.855469 L 504.890625 334.503906 L 504.683594 335.273438 L 504.535156 336.15625 L 504.445312 337.160156 L 504.414062 338.28125 L 504.445312 339.40625 L 504.535156 340.414062 L 504.683594 341.300781 L 504.890625 342.070312 L 505.160156 342.722656 L 505.488281 343.253906 L 505.875 343.667969 L 506.320312 343.964844 L 506.828125 344.140625 L 507.394531 344.199219 L 507.679688 344.1875 L 507.949219 344.144531 L 508.207031 344.070312 L 508.449219 343.96875 L 508.675781 343.839844 L 508.886719 343.683594 L 509.085938 343.496094 L 509.269531 343.28125 L 509.441406 343.035156 L 509.59375 342.761719 L 509.738281 342.457031 L 509.867188 342.121094 L 509.980469 341.753906 L 510.082031 341.355469 L 510.164062 340.925781 L 510.234375 340.464844 L 510.285156 339.972656 L 510.324219 339.445312 L 510.347656 338.890625 L 510.355469 338.300781 L 510.347656 337.714844 L 510.324219 337.15625 L 510.285156 336.632812 L 510.234375 336.136719 L 510.164062 335.675781 L 510.082031 335.246094 L 509.980469 334.847656 L 509.867188 334.480469 L 509.738281 334.144531 L 509.59375 333.839844 L 509.441406 333.5625 L 509.269531 333.316406 L 509.085938 333.097656 L 508.886719 332.90625 L 508.675781 332.746094 L 508.449219 332.613281 L 508.207031 332.511719 L 507.949219 332.441406 L 507.679688 332.394531 Z M 507.394531 332.382812 "/>
<path fill-rule="nonzero" fill="rgb(10.196078%, 10.196078%, 10.196078%)" fill-opacity="1" d="M 545.660156 331.640625 L 545.660156 344.941406 L 544.5 344.941406 L 544.5 332.921875 L 541.222656 334.960938 L 540.679688 334.101562 L 544.660156 331.640625 Z M 545.660156 331.640625 "/>
<path fill-rule="nonzero" fill="rgb(10.196078%, 10.196078%, 10.196078%)" fill-opacity="1" d="M 553.921875 331.640625 L 553.921875 344.941406 L 552.761719 344.941406 L 552.761719 332.921875 L 549.480469 334.960938 L 548.941406 334.101562 L 552.921875 331.640625 Z M 553.921875 331.640625 "/>
<path fill-rule="nonzero" fill="rgb(10.196078%, 10.196078%, 10.196078%)" fill-opacity="1" d="M 589.816406 331.640625 L 589.816406 344.941406 L 588.65625 344.941406 L 588.65625 332.921875 L 585.378906 334.960938 L 584.835938 334.101562 L 588.816406 331.640625 Z M 589.816406 331.640625 "/>
<path fill-rule="nonzero" fill="rgb(10.196078%, 10.196078%, 10.196078%)" fill-opacity="1" d="M 596.738281 331.421875 L 597.066406 331.429688 L 597.382812 331.460938 L 597.683594 331.507812 L 597.96875 331.578125 L 598.242188 331.667969 L 598.5 331.773438 L 598.746094 331.902344 L 598.976562 332.046875 L 599.195312 332.214844 L 599.398438 332.402344 L 599.585938 332.601562 L 599.757812 332.816406 L 599.90625 333.039062 L 600.039062 333.273438 L 600.148438 333.519531 L 600.238281 333.777344 L 600.308594 334.046875 L 600.355469 334.328125 L 600.386719 334.617188 L 600.398438 334.921875 L 600.390625 335.179688 L 600.375 335.433594 L 600.347656 335.6875 L 600.3125 335.933594 L 600.261719 336.179688 L 600.203125 336.421875 L 600.132812 336.664062 L 600.050781 336.898438 L 599.960938 337.132812 L 599.855469 337.359375 L 599.742188 337.589844 L 599.617188 337.824219 L 599.476562 338.066406 L 599.324219 338.308594 L 599.164062 338.554688 L 598.984375 338.808594 L 598.796875 339.066406 L 598.597656 339.324219 L 598.382812 339.589844 L 598.15625 339.859375 L 597.914062 340.148438 L 597.644531 340.457031 L 597.34375 340.796875 L 597.019531 341.164062 L 596.664062 341.554688 L 596.277344 341.976562 L 595.867188 342.421875 L 595.425781 342.894531 L 594.953125 343.394531 L 594.457031 343.921875 L 600.757812 343.921875 L 600.597656 344.941406 L 593.097656 344.941406 L 593.097656 343.960938 L 593.628906 343.390625 L 594.128906 342.855469 L 594.601562 342.347656 L 595.039062 341.867188 L 595.445312 341.421875 L 595.824219 341.003906 L 596.167969 340.617188 L 596.484375 340.261719 L 596.765625 339.9375 L 597.015625 339.640625 L 597.25 339.359375 L 597.46875 339.089844 L 597.671875 338.824219 L 597.863281 338.570312 L 598.039062 338.320312 L 598.199219 338.082031 L 598.34375 337.847656 L 598.476562 337.625 L 598.59375 337.410156 L 598.695312 337.199219 L 598.792969 336.992188 L 598.878906 336.78125 L 598.953125 336.566406 L 599.015625 336.347656 L 599.070312 336.125 L 599.117188 335.902344 L 599.152344 335.675781 L 599.175781 335.449219 L 599.191406 335.214844 L 599.195312 334.980469 L 599.191406 334.75 L 599.167969 334.527344 L 599.132812 334.316406 L 599.085938 334.113281 L 599.023438 333.921875 L 598.945312 333.738281 L 598.855469 333.5625 L 598.75 333.398438 L 598.628906 333.246094 L 598.496094 333.101562 L 598.355469 332.96875 L 598.207031 332.847656 L 598.046875 332.742188 L 597.878906 332.652344 L 597.703125 332.574219 L 597.515625 332.511719 L 597.320312 332.464844 L 597.113281 332.429688 L 596.902344 332.40625 L 596.675781 332.402344 L 596.496094 332.40625 L 596.316406 332.417969 L 596.144531 332.433594 L 595.972656 332.460938 L 595.808594 332.496094 L 595.644531 332.539062 L 595.488281 332.585938 L 595.332031 332.644531 L 595.183594 332.707031 L 595.039062 332.78125 L 594.898438 332.859375 L 594.757812 332.949219 L 594.621094 333.042969 L 594.488281 333.144531 L 594.351562 333.257812 L 594.21875 333.375 L 594.085938 333.5 L 593.957031 333.632812 L 593.824219 333.773438 L 593.695312 333.921875 L 592.898438 333.320312 L 593.058594 333.128906 L 593.222656 332.949219 L 593.386719 332.78125 L 593.554688 332.621094 L 593.726562 332.472656 L 593.898438 332.332031 L 594.074219 332.203125 L 594.253906 332.085938 L 594.433594 331.976562 L 594.617188 331.882812 L 594.808594 331.792969 L 595.003906 331.714844 L 595.203125 331.648438 L 595.40625 331.585938 L 595.617188 331.535156 L 595.832031 331.496094 L 596.050781 331.460938 L 596.273438 331.441406 L 596.503906 331.425781 Z M 596.738281 331.421875 "/>
</svg>
