<?xml version="1.0" encoding="UTF-8"?>
<svg xmlns="http://www.w3.org/2000/svg" xmlns:xlink="http://www.w3.org/1999/xlink" width="504" height="396" viewBox="0 0 504 396">
<defs>
<clipPath id="clip-0">
<path clip-rule="nonzero" d="M 22.414062 14.945312 L 489.054688 14.945312 L 489.054688 342.6875 L 22.414062 342.6875 Z M 22.414062 14.945312 "/>
</clipPath>
<clipPath id="clip-1">
<path clip-rule="nonzero" d="M 136 14.945312 L 138 14.945312 L 138 342.6875 L 136 342.6875 Z M 136 14.945312 "/>
</clipPath>
<clipPath id="clip-2">
<path clip-rule="nonzero" d="M 373 14.945312 L 376 14.945312 L 376 342.6875 L 373 342.6875 Z M 373 14.945312 "/>
</clipPath>
</defs>
<rect x="-50.4" y="-39.6" width="604.8" height="475.2" fill="rgb(100%, 100%, 100%)" fill-opacity="1"/>
<rect x="-50.4" y="-39.6" width="604.8" height="475.2" fill="rgb(95.294118%, 95.294118%, 95.294118%)" fill-opacity="1"/>
<path fill="none" stroke-width="2.909941" stroke-linecap="round" stroke-linejoin="round" stroke="rgb(95.294118%, 95.294118%, 95.294118%)" stroke-opacity="1" stroke-miterlimit="10" d="M 0 396 L 504 396 L 504 0 L 0 0 Z M 0 396 "/>
<g clip-path="url(#clip-0)">
<path fill-rule="nonzero" fill="rgb(95.294118%, 95.294118%, 95.294118%)" fill-opacity="1" stroke-width="2.909941" stroke-linecap="round" stroke-linejoin="round" stroke="rgb(95.294118%, 95.294118%, 95.294118%)" stroke-opacity="1" stroke-miterlimit="10" d="M 22.414062 342.6875 L 489.054688 342.6875 L 489.054688 14.945312 L 22.414062 14.945312 Z M 22.414062 342.6875 "/>
</g>
<path fill="none" stroke-width="2.560748" stroke-linecap="butt" stroke-linejoin="round" stroke="rgb(56.078431%, 16.470588%, 26.27451%)" stroke-opacity="1" stroke-miterlimit="10" d="M 43.71875 327.136719 L 44.324219 327.113281 L 44.933594 327.089844 L 45.539062 327.066406 L 46.75 327.011719 L 47.355469 326.988281 L 47.960938 326.957031 L 48.566406 326.929688 L 50.988281 326.804688 L 52.804688 326.699219 L 53.414062 326.664062 L 54.625 326.585938 L 55.230469 326.542969 L 55.835938 326.503906 L 56.441406 326.460938 L 57.046875 326.414062 L 57.652344 326.371094 L 58.257812 326.320312 L 58.863281 326.273438 L 60.679688 326.121094 L 61.289062 326.066406 L 63.105469 325.890625 L 64.921875 325.703125 L 65.527344 325.636719 L 67.34375 325.425781 L 67.949219 325.347656 L 68.554688 325.273438 L 69.164062 325.195312 L 70.375 325.03125 L 70.980469 324.945312 L 72.191406 324.765625 L 73.402344 324.578125 L 74.007812 324.480469 L 74.613281 324.378906 L 75.824219 324.167969 L 77.035156 323.949219 L 77.644531 323.832031 L 78.25 323.714844 L 79.460938 323.472656 L 80.671875 323.214844 L 81.882812 322.941406 L 82.488281 322.800781 L 83.09375 322.65625 L 83.699219 322.507812 L 84.304688 322.355469 L 84.910156 322.199219 L 85.519531 322.039062 L 86.125 321.878906 L 86.730469 321.710938 L 87.335938 321.539062 L 87.941406 321.363281 L 88.546875 321.183594 L 89.757812 320.808594 L 90.96875 320.417969 L 91.574219 320.214844 L 92.179688 320.007812 L 92.785156 319.792969 L 93.394531 319.574219 L 94 319.351562 L 94.605469 319.125 L 95.210938 318.890625 L 95.816406 318.652344 L 96.421875 318.410156 L 97.027344 318.160156 L 97.632812 317.90625 L 98.238281 317.644531 L 98.84375 317.378906 L 99.449219 317.105469 L 100.054688 316.828125 L 100.660156 316.542969 L 101.269531 316.25 L 101.875 315.953125 L 102.480469 315.648438 L 103.085938 315.339844 L 103.691406 315.023438 L 104.296875 314.699219 L 104.902344 314.367188 L 105.507812 314.03125 L 106.113281 313.683594 L 106.71875 313.332031 L 107.324219 312.972656 L 107.929688 312.605469 L 108.535156 312.234375 L 109.140625 311.851562 L 109.75 311.460938 L 110.355469 311.0625 L 110.960938 310.660156 L 111.566406 310.246094 L 112.171875 309.824219 L 112.777344 309.394531 L 113.382812 308.953125 L 113.988281 308.507812 L 114.59375 308.050781 L 115.199219 307.589844 L 115.804688 307.117188 L 116.410156 306.632812 L 117.015625 306.140625 L 117.625 305.640625 L 118.230469 305.132812 L 118.835938 304.613281 L 119.441406 304.085938 L 120.046875 303.546875 L 120.652344 303 L 121.257812 302.441406 L 121.863281 301.871094 L 122.46875 301.296875 L 123.074219 300.707031 L 123.679688 300.109375 L 124.285156 299.5 L 124.890625 298.882812 L 125.5 298.25 L 126.105469 297.609375 L 126.710938 296.960938 L 127.316406 296.296875 L 127.921875 295.625 L 128.527344 294.941406 L 129.132812 294.246094 L 129.738281 293.539062 L 130.34375 292.820312 L 130.949219 292.089844 L 131.554688 291.347656 L 132.160156 290.597656 L 132.765625 289.832031 L 133.371094 289.054688 L 133.980469 288.265625 L 134.585938 287.464844 L 135.191406 286.652344 L 135.796875 285.828125 L 136.402344 284.992188 L 137.007812 284.144531 L 137.613281 283.28125 L 138.21875 282.40625 L 138.824219 281.519531 L 139.429688 280.621094 L 140.035156 279.710938 L 140.640625 278.785156 L 141.246094 277.847656 L 141.855469 276.894531 L 142.460938 275.933594 L 143.066406 274.957031 L 143.671875 273.96875 L 144.277344 272.964844 L 144.882812 271.949219 L 145.488281 270.921875 L 146.09375 269.878906 L 146.699219 268.824219 L 147.304688 267.757812 L 147.910156 266.675781 L 148.515625 265.582031 L 149.121094 264.472656 L 149.730469 263.351562 L 150.335938 262.21875 L 150.941406 261.070312 L 151.546875 259.910156 L 152.152344 258.738281 L 152.757812 257.550781 L 153.363281 256.347656 L 153.96875 255.132812 L 154.574219 253.90625 L 155.179688 252.667969 L 155.785156 251.414062 L 156.390625 250.144531 L 156.996094 248.867188 L 157.605469 247.574219 L 158.210938 246.265625 L 158.816406 244.949219 L 159.421875 243.617188 L 160.027344 242.273438 L 160.632812 240.914062 L 161.238281 239.542969 L 161.84375 238.160156 L 162.449219 236.765625 L 163.054688 235.359375 L 163.660156 233.9375 L 164.265625 232.503906 L 164.871094 231.058594 L 165.476562 229.601562 L 166.085938 228.132812 L 166.691406 226.652344 L 167.296875 225.160156 L 167.902344 223.65625 L 168.507812 222.140625 L 169.113281 220.613281 L 169.71875 219.074219 L 170.324219 217.527344 L 170.929688 215.964844 L 171.535156 214.394531 L 172.140625 212.8125 L 172.746094 211.222656 L 173.351562 209.621094 L 173.960938 208.007812 L 174.566406 206.386719 L 175.171875 204.753906 L 175.777344 203.113281 L 176.382812 201.460938 L 176.988281 199.804688 L 177.59375 198.136719 L 178.199219 196.457031 L 178.804688 194.773438 L 179.410156 193.078125 L 180.015625 191.378906 L 180.621094 189.667969 L 181.226562 187.953125 L 181.835938 186.230469 L 182.441406 184.5 L 183.046875 182.761719 L 183.652344 181.019531 L 184.257812 179.269531 L 184.863281 177.515625 L 185.46875 175.753906 L 186.074219 173.988281 L 187.285156 170.441406 L 187.890625 168.660156 L 188.496094 166.875 L 189.707031 163.296875 L 190.316406 161.5 L 191.527344 157.90625 L 192.132812 156.101562 L 192.738281 154.300781 L 193.34375 152.496094 L 193.949219 150.6875 L 194.554688 148.882812 L 195.765625 145.265625 L 197.582031 139.851562 L 198.191406 138.046875 L 199.402344 134.445312 L 200.007812 132.648438 L 200.613281 130.855469 L 201.824219 127.277344 L 202.429688 125.496094 L 203.035156 123.71875 L 203.640625 121.945312 L 204.246094 120.175781 L 204.851562 118.414062 L 205.457031 116.660156 L 206.066406 114.910156 L 206.671875 113.167969 L 207.277344 111.433594 L 207.882812 109.707031 L 208.488281 107.988281 L 209.09375 106.277344 L 209.699219 104.578125 L 210.304688 102.886719 L 210.910156 101.203125 L 211.515625 99.53125 L 212.121094 97.871094 L 212.726562 96.222656 L 213.332031 94.585938 L 213.941406 92.957031 L 214.546875 91.34375 L 215.152344 89.742188 L 215.757812 88.152344 L 216.363281 86.578125 L 216.96875 85.019531 L 217.574219 83.472656 L 218.179688 81.941406 L 218.785156 80.421875 L 219.390625 78.921875 L 219.996094 77.4375 L 220.601562 75.96875 L 221.207031 74.515625 L 221.8125 73.082031 L 222.421875 71.664062 L 223.027344 70.265625 L 223.632812 68.882812 L 224.238281 67.519531 L 224.84375 66.175781 L 225.449219 64.851562 L 226.054688 63.546875 L 226.660156 62.261719 L 227.265625 60.996094 L 227.871094 59.753906 L 228.476562 58.53125 L 229.082031 57.332031 L 229.6875 56.152344 L 230.296875 54.996094 L 230.902344 53.859375 L 231.507812 52.75 L 232.113281 51.660156 L 232.71875 50.59375 L 233.324219 49.554688 L 233.929688 48.535156 L 234.535156 47.542969 L 235.140625 46.574219 L 235.746094 45.628906 L 236.351562 44.710938 L 236.957031 43.820312 L 237.5625 42.953125 L 238.171875 42.109375 L 238.777344 41.296875 L 239.382812 40.507812 L 239.988281 39.742188 L 240.59375 39.007812 L 241.199219 38.300781 L 241.804688 37.617188 L 242.410156 36.964844 L 243.015625 36.339844 L 243.621094 35.742188 L 244.226562 35.171875 L 244.832031 34.628906 L 245.4375 34.117188 L 246.042969 33.628906 L 246.652344 33.175781 L 247.257812 32.746094 L 247.863281 32.347656 L 248.46875 31.980469 L 249.074219 31.636719 L 249.679688 31.328125 L 250.285156 31.046875 L 250.890625 30.792969 L 251.496094 30.570312 L 252.101562 30.378906 L 252.707031 30.214844 L 253.3125 30.078125 L 253.917969 29.976562 L 254.527344 29.902344 L 255.132812 29.855469 L 255.738281 29.839844 L 256.34375 29.855469 L 256.949219 29.902344 L 257.554688 29.976562 L 258.160156 30.078125 L 258.765625 30.214844 L 259.371094 30.378906 L 259.976562 30.570312 L 260.582031 30.792969 L 261.1875 31.046875 L 261.792969 31.328125 L 262.402344 31.636719 L 263.007812 31.980469 L 263.613281 32.347656 L 264.21875 32.746094 L 264.824219 33.175781 L 265.429688 33.628906 L 266.035156 34.117188 L 266.640625 34.628906 L 267.246094 35.171875 L 267.851562 35.742188 L 268.457031 36.339844 L 269.0625 36.964844 L 269.667969 37.617188 L 270.273438 38.300781 L 270.882812 39.007812 L 271.488281 39.742188 L 272.09375 40.507812 L 272.699219 41.296875 L 273.304688 42.109375 L 273.910156 42.953125 L 274.515625 43.820312 L 275.121094 44.710938 L 275.726562 45.628906 L 276.332031 46.574219 L 276.9375 47.542969 L 277.542969 48.535156 L 278.148438 49.554688 L 278.757812 50.59375 L 279.363281 51.660156 L 279.96875 52.75 L 280.574219 53.859375 L 281.179688 54.996094 L 281.785156 56.152344 L 282.390625 57.332031 L 282.996094 58.53125 L 283.601562 59.753906 L 284.207031 60.996094 L 284.8125 62.261719 L 285.417969 63.546875 L 286.023438 64.851562 L 286.632812 66.175781 L 287.238281 67.519531 L 287.84375 68.882812 L 288.449219 70.265625 L 289.054688 71.664062 L 289.660156 73.082031 L 290.265625 74.515625 L 290.871094 75.96875 L 291.476562 77.4375 L 292.082031 78.921875 L 292.6875 80.421875 L 293.292969 81.941406 L 293.898438 83.472656 L 294.507812 85.019531 L 295.113281 86.578125 L 295.71875 88.152344 L 296.324219 89.742188 L 296.929688 91.34375 L 297.535156 92.957031 L 298.140625 94.585938 L 298.746094 96.222656 L 299.351562 97.871094 L 299.957031 99.53125 L 300.5625 101.203125 L 301.167969 102.886719 L 301.773438 104.578125 L 302.378906 106.277344 L 302.988281 107.988281 L 303.59375 109.707031 L 304.199219 111.433594 L 304.804688 113.167969 L 305.410156 114.910156 L 306.015625 116.660156 L 306.621094 118.414062 L 307.226562 120.175781 L 307.832031 121.945312 L 308.4375 123.71875 L 309.042969 125.496094 L 309.648438 127.277344 L 310.253906 129.066406 L 310.863281 130.855469 L 311.46875 132.648438 L 312.074219 134.445312 L 313.285156 138.046875 L 315.707031 145.265625 L 316.917969 148.882812 L 317.523438 150.6875 L 318.128906 152.496094 L 318.738281 154.300781 L 319.34375 156.101562 L 319.949219 157.90625 L 321.765625 163.296875 L 322.976562 166.875 L 323.582031 168.660156 L 324.1875 170.441406 L 325.398438 173.988281 L 326.003906 175.753906 L 326.609375 177.515625 L 327.21875 179.269531 L 327.824219 181.019531 L 328.429688 182.761719 L 329.035156 184.5 L 329.640625 186.230469 L 330.246094 187.953125 L 330.851562 189.667969 L 331.457031 191.378906 L 332.0625 193.078125 L 332.667969 194.773438 L 333.273438 196.457031 L 333.878906 198.136719 L 334.484375 199.804688 L 335.09375 201.460938 L 335.699219 203.113281 L 336.304688 204.753906 L 336.910156 206.386719 L 337.515625 208.007812 L 338.121094 209.621094 L 338.726562 211.222656 L 339.332031 212.8125 L 339.9375 214.394531 L 340.542969 215.964844 L 341.148438 217.527344 L 341.753906 219.074219 L 342.359375 220.613281 L 342.96875 222.140625 L 343.574219 223.65625 L 344.179688 225.160156 L 344.785156 226.652344 L 345.390625 228.132812 L 345.996094 229.601562 L 346.601562 231.058594 L 347.207031 232.503906 L 347.8125 233.9375 L 348.417969 235.359375 L 349.023438 236.765625 L 349.628906 238.160156 L 350.234375 239.542969 L 350.84375 240.914062 L 351.449219 242.273438 L 352.054688 243.617188 L 352.660156 244.949219 L 353.265625 246.265625 L 353.871094 247.574219 L 354.476562 248.867188 L 355.082031 250.144531 L 355.6875 251.414062 L 356.292969 252.667969 L 356.898438 253.90625 L 357.503906 255.132812 L 358.109375 256.347656 L 358.714844 257.550781 L 359.324219 258.738281 L 359.929688 259.910156 L 360.535156 261.070312 L 361.140625 262.21875 L 361.746094 263.351562 L 362.351562 264.472656 L 362.957031 265.582031 L 363.5625 266.675781 L 364.167969 267.757812 L 364.773438 268.824219 L 365.378906 269.878906 L 365.984375 270.921875 L 366.589844 271.949219 L 367.199219 272.964844 L 367.804688 273.96875 L 368.410156 274.957031 L 369.015625 275.933594 L 369.621094 276.894531 L 370.226562 277.847656 L 370.832031 278.785156 L 371.4375 279.710938 L 372.042969 280.621094 L 372.648438 281.519531 L 373.253906 282.40625 L 373.859375 283.28125 L 374.464844 284.144531 L 375.074219 284.992188 L 375.679688 285.828125 L 376.285156 286.652344 L 376.890625 287.464844 L 377.496094 288.265625 L 378.101562 289.054688 L 378.707031 289.832031 L 379.3125 290.597656 L 379.917969 291.347656 L 380.523438 292.089844 L 381.128906 292.820312 L 381.734375 293.539062 L 382.339844 294.246094 L 382.945312 294.941406 L 383.554688 295.625 L 384.160156 296.296875 L 384.765625 296.960938 L 385.371094 297.609375 L 385.976562 298.25 L 386.582031 298.882812 L 387.1875 299.5 L 387.792969 300.109375 L 388.398438 300.707031 L 389.003906 301.296875 L 389.609375 301.871094 L 390.214844 302.441406 L 390.820312 303 L 391.429688 303.546875 L 392.035156 304.085938 L 392.640625 304.613281 L 393.246094 305.132812 L 393.851562 305.640625 L 394.457031 306.140625 L 395.0625 306.632812 L 395.667969 307.117188 L 396.273438 307.589844 L 396.878906 308.050781 L 397.484375 308.507812 L 398.089844 308.953125 L 398.695312 309.394531 L 399.304688 309.824219 L 399.910156 310.246094 L 400.515625 310.660156 L 401.121094 311.0625 L 401.726562 311.460938 L 402.332031 311.851562 L 402.9375 312.234375 L 403.542969 312.605469 L 404.148438 312.972656 L 404.753906 313.332031 L 405.359375 313.683594 L 405.964844 314.03125 L 406.570312 314.367188 L 407.179688 314.699219 L 407.785156 315.023438 L 408.390625 315.339844 L 408.996094 315.648438 L 409.601562 315.953125 L 410.207031 316.25 L 410.8125 316.542969 L 411.417969 316.828125 L 412.023438 317.105469 L 412.628906 317.378906 L 413.234375 317.644531 L 413.839844 317.90625 L 414.445312 318.160156 L 415.050781 318.410156 L 415.660156 318.652344 L 416.265625 318.890625 L 416.871094 319.125 L 417.476562 319.351562 L 418.082031 319.574219 L 418.6875 319.792969 L 419.292969 320.007812 L 419.898438 320.214844 L 420.503906 320.417969 L 421.714844 320.808594 L 422.925781 321.183594 L 423.535156 321.363281 L 424.140625 321.539062 L 424.746094 321.710938 L 425.351562 321.878906 L 426.5625 322.199219 L 427.167969 322.355469 L 427.773438 322.507812 L 428.378906 322.65625 L 428.984375 322.800781 L 429.589844 322.941406 L 430.800781 323.214844 L 431.410156 323.34375 L 432.015625 323.472656 L 433.226562 323.714844 L 434.4375 323.949219 L 435.648438 324.167969 L 436.859375 324.378906 L 437.464844 324.480469 L 438.070312 324.578125 L 439.28125 324.765625 L 439.890625 324.855469 L 440.496094 324.945312 L 441.101562 325.03125 L 442.3125 325.195312 L 442.917969 325.273438 L 443.523438 325.347656 L 444.128906 325.425781 L 445.945312 325.636719 L 446.550781 325.703125 L 447.15625 325.765625 L 447.765625 325.828125 L 448.371094 325.890625 L 450.1875 326.066406 L 450.792969 326.121094 L 452.609375 326.273438 L 453.214844 326.320312 L 453.820312 326.371094 L 454.425781 326.414062 L 455.03125 326.460938 L 455.640625 326.503906 L 456.246094 326.542969 L 456.851562 326.585938 L 458.0625 326.664062 L 460.484375 326.804688 L 462.90625 326.929688 L 463.515625 326.957031 L 464.121094 326.988281 L 464.726562 327.011719 L 465.9375 327.066406 L 467.753906 327.136719 "/>
<path fill-rule="nonzero" fill="rgb(56.078431%, 16.470588%, 26.27451%)" fill-opacity="0.501961" d="M 374.464844 284.140625 L 374.558594 284.269531 L 374.976562 284.859375 L 375.164062 285.117188 L 375.582031 285.695312 L 375.769531 285.953125 L 376.1875 286.523438 L 376.28125 286.652344 L 376.375 286.777344 L 376.792969 287.339844 L 376.886719 287.464844 L 376.980469 287.585938 L 377.398438 288.140625 L 377.492188 288.265625 L 377.585938 288.386719 L 378.003906 288.929688 L 378.191406 289.171875 L 378.613281 289.710938 L 378.703125 289.828125 L 378.796875 289.945312 L 379.21875 290.476562 L 379.308594 290.59375 L 379.402344 290.710938 L 379.824219 291.230469 L 379.917969 291.347656 L 380.007812 291.460938 L 380.429688 291.972656 L 380.617188 292.199219 L 381.035156 292.703125 L 381.222656 292.929688 L 381.640625 293.425781 L 381.828125 293.644531 L 382.246094 294.132812 L 382.339844 294.242188 L 382.433594 294.347656 L 382.851562 294.832031 L 383.039062 295.042969 L 383.457031 295.515625 L 383.644531 295.726562 L 384.0625 296.191406 L 384.15625 296.296875 L 384.25 296.398438 L 384.667969 296.855469 L 384.855469 297.058594 L 385.273438 297.507812 L 385.367188 297.609375 L 385.460938 297.707031 L 385.878906 298.152344 L 386.066406 298.347656 L 386.488281 298.78125 L 386.578125 298.878906 L 386.671875 298.972656 L 387.09375 299.402344 L 387.183594 299.496094 L 387.792969 300.105469 L 387.882812 300.199219 L 388.304688 300.613281 L 388.398438 300.703125 L 388.488281 300.796875 L 388.910156 301.203125 L 389.097656 301.382812 L 389.515625 301.78125 L 389.609375 301.871094 L 389.703125 301.957031 L 390.121094 302.351562 L 390.308594 302.523438 L 390.726562 302.910156 L 390.914062 303.082031 L 391.332031 303.460938 L 391.425781 303.542969 L 391.519531 303.628906 L 391.9375 304 L 392.125 304.164062 L 392.542969 304.53125 L 392.636719 304.609375 L 392.730469 304.691406 L 393.148438 305.050781 L 393.335938 305.207031 L 393.753906 305.5625 L 393.941406 305.71875 L 394.359375 306.0625 L 394.453125 306.140625 L 394.546875 306.214844 L 394.96875 306.554688 L 395.058594 306.632812 L 395.152344 306.707031 L 395.574219 307.039062 L 395.667969 307.113281 L 395.757812 307.1875 L 396.179688 307.515625 L 396.273438 307.585938 L 396.363281 307.65625 L 396.785156 307.980469 L 396.972656 308.121094 L 397.390625 308.4375 L 397.484375 308.507812 L 397.578125 308.574219 L 397.996094 308.882812 L 398.089844 308.953125 L 398.183594 309.019531 L 398.601562 309.324219 L 398.789062 309.457031 L 399.207031 309.753906 L 399.394531 309.886719 L 399.8125 310.179688 L 399.90625 310.242188 L 400 310.308594 L 400.417969 310.59375 L 400.605469 310.71875 L 401.023438 311 L 401.210938 311.125 L 401.628906 311.398438 L 401.722656 311.460938 L 401.816406 311.519531 L 402.234375 311.789062 L 402.328125 311.847656 L 402.421875 311.910156 L 402.84375 312.171875 L 402.933594 312.230469 L 403.027344 312.289062 L 403.449219 312.546875 L 403.539062 312.605469 L 403.632812 312.664062 L 404.054688 312.914062 L 404.148438 312.972656 L 404.238281 313.027344 L 404.660156 313.277344 L 404.847656 313.386719 L 405.265625 313.628906 L 405.453125 313.738281 L 405.871094 313.976562 L 405.964844 314.027344 L 406.058594 314.082031 L 406.476562 314.3125 L 406.570312 314.367188 L 406.664062 314.417969 L 407.082031 314.644531 L 407.269531 314.746094 L 407.6875 314.972656 L 407.78125 315.019531 L 407.875 315.070312 L 408.292969 315.289062 L 408.386719 315.339844 L 408.480469 315.386719 L 408.898438 315.601562 L 409.085938 315.695312 L 409.503906 315.90625 L 409.691406 316 L 410.109375 316.203125 L 410.203125 316.25 L 410.296875 316.292969 L 410.71875 316.496094 L 410.808594 316.539062 L 410.902344 316.585938 L 411.324219 316.78125 L 411.414062 316.824219 L 411.507812 316.867188 L 411.929688 317.0625 L 412.023438 317.105469 L 412.113281 317.144531 L 412.535156 317.335938 L 412.628906 317.378906 L 412.722656 317.417969 L 413.140625 317.601562 L 413.234375 317.644531 L 413.328125 317.683594 L 413.746094 317.863281 L 413.839844 317.90625 L 413.933594 317.945312 L 414.351562 318.121094 L 414.539062 318.199219 L 414.957031 318.371094 L 415.050781 318.410156 L 415.144531 318.445312 L 415.5625 318.617188 L 415.65625 318.652344 L 415.75 318.691406 L 416.167969 318.855469 L 416.355469 318.925781 L 416.773438 319.089844 L 416.960938 319.160156 L 417.378906 319.316406 L 417.566406 319.386719 L 417.984375 319.539062 L 418.171875 319.609375 L 418.589844 319.757812 L 418.683594 319.792969 L 418.777344 319.824219 L 419.199219 319.972656 L 419.289062 320.003906 L 419.382812 320.039062 L 419.804688 320.179688 L 419.898438 320.214844 L 419.988281 320.246094 L 420.503906 320.417969 L 420.59375 320.445312 L 421.015625 320.582031 L 421.203125 320.644531 L 421.621094 320.777344 L 421.714844 320.808594 L 421.808594 320.835938 L 422.226562 320.96875 L 422.414062 321.023438 L 422.832031 321.152344 L 422.925781 321.179688 L 423.019531 321.210938 L 423.4375 321.332031 L 423.53125 321.363281 L 423.625 321.390625 L 424.042969 321.511719 L 424.136719 321.539062 L 424.230469 321.5625 L 424.648438 321.683594 L 424.742188 321.710938 L 424.835938 321.734375 L 425.253906 321.851562 L 425.347656 321.875 L 425.441406 321.902344 L 425.859375 322.015625 L 425.953125 322.039062 L 426.046875 322.066406 L 426.464844 322.175781 L 426.652344 322.222656 L 427.074219 322.332031 L 427.164062 322.355469 L 427.773438 322.507812 L 427.863281 322.53125 L 428.285156 322.632812 L 428.378906 322.65625 L 428.46875 322.679688 L 428.890625 322.777344 L 428.984375 322.800781 L 429.078125 322.820312 L 429.496094 322.917969 L 429.589844 322.941406 L 429.683594 322.960938 L 430.101562 323.058594 L 430.289062 323.097656 L 430.707031 323.191406 L 430.800781 323.210938 L 430.894531 323.234375 L 431.3125 323.324219 L 431.5 323.363281 L 431.917969 323.449219 L 432.105469 323.488281 L 432.523438 323.574219 L 432.710938 323.613281 L 433.128906 323.695312 L 433.316406 323.734375 L 433.734375 323.816406 L 433.828125 323.832031 L 433.921875 323.851562 L 434.339844 323.929688 L 434.433594 323.949219 L 434.527344 323.964844 L 434.949219 324.042969 L 435.039062 324.058594 L 435.132812 324.078125 L 435.554688 324.152344 L 435.644531 324.167969 L 435.738281 324.183594 L 436.160156 324.257812 L 436.253906 324.273438 L 436.34375 324.289062 L 436.765625 324.363281 L 436.953125 324.394531 L 437.371094 324.464844 L 437.464844 324.480469 L 437.558594 324.492188 L 437.976562 324.5625 L 438.070312 324.578125 L 438.164062 324.589844 L 438.582031 324.65625 L 438.769531 324.6875 L 439.1875 324.75 L 439.28125 324.765625 L 439.375 324.777344 L 439.792969 324.839844 L 439.886719 324.855469 L 439.980469 324.867188 L 440.398438 324.929688 L 440.492188 324.945312 L 440.585938 324.957031 L 441.003906 325.015625 L 441.097656 325.027344 L 441.191406 325.042969 L 441.609375 325.097656 L 441.703125 325.113281 L 441.796875 325.125 L 442.214844 325.179688 L 442.308594 325.195312 L 442.402344 325.207031 L 442.824219 325.261719 L 442.914062 325.273438 L 443.007812 325.285156 L 443.429688 325.335938 L 443.519531 325.347656 L 443.613281 325.359375 L 444.035156 325.414062 L 444.128906 325.421875 L 444.21875 325.433594 L 444.640625 325.484375 L 444.734375 325.496094 L 444.824219 325.507812 L 445.246094 325.554688 L 445.433594 325.578125 L 445.851562 325.625 L 445.945312 325.636719 L 446.039062 325.644531 L 446.457031 325.691406 L 446.550781 325.703125 L 446.644531 325.710938 L 447.0625 325.757812 L 447.15625 325.765625 L 447.25 325.777344 L 447.667969 325.820312 L 447.761719 325.828125 L 447.855469 325.839844 L 448.273438 325.882812 L 448.460938 325.898438 L 448.878906 325.941406 L 448.972656 325.949219 L 449.066406 325.960938 L 449.484375 326 L 449.671875 326.015625 L 450.089844 326.054688 L 450.183594 326.066406 L 450.277344 326.074219 L 450.695312 326.109375 L 450.789062 326.117188 L 450.882812 326.128906 L 451.304688 326.164062 L 451.394531 326.171875 L 452.003906 326.222656 L 452.09375 326.230469 L 452.609375 326.273438 L 452.699219 326.28125 L 453.121094 326.316406 L 453.214844 326.320312 L 453.308594 326.328125 L 453.726562 326.363281 L 453.820312 326.371094 L 453.914062 326.375 L 454.332031 326.40625 L 454.519531 326.421875 L 454.9375 326.453125 L 455.03125 326.460938 L 455.125 326.464844 L 455.542969 326.496094 L 455.636719 326.503906 L 455.730469 326.507812 L 456.148438 326.539062 L 456.242188 326.542969 L 456.335938 326.550781 L 456.753906 326.578125 L 456.847656 326.585938 L 456.941406 326.589844 L 457.359375 326.617188 L 457.453125 326.625 L 457.546875 326.628906 L 457.964844 326.65625 L 458.058594 326.664062 L 458.152344 326.667969 L 458.570312 326.695312 L 458.757812 326.703125 L 459.179688 326.730469 L 459.269531 326.734375 L 459.363281 326.742188 L 459.785156 326.765625 L 459.875 326.769531 L 459.96875 326.777344 L 460.390625 326.800781 L 460.484375 326.804688 L 460.574219 326.808594 L 460.996094 326.832031 L 461.089844 326.835938 L 461.183594 326.84375 L 461.601562 326.863281 L 461.695312 326.867188 L 461.789062 326.875 L 462.207031 326.894531 L 462.394531 326.902344 L 462.8125 326.925781 L 463 326.933594 L 463.417969 326.953125 L 463.605469 326.960938 L 464.023438 326.980469 L 464.117188 326.988281 L 464.210938 326.992188 L 464.628906 327.007812 L 464.722656 327.011719 L 464.816406 327.019531 L 465.234375 327.035156 L 465.421875 327.042969 L 465.839844 327.0625 L 466.027344 327.070312 L 466.445312 327.085938 L 466.632812 327.09375 L 467.054688 327.109375 L 467.144531 327.113281 L 467.238281 327.117188 L 467.660156 327.132812 L 467.75 327.136719 L 467.84375 327.789062 L 374.371094 327.789062 Z M 374.464844 284.140625 "/>
<path fill-rule="nonzero" fill="rgb(56.078431%, 16.470588%, 26.27451%)" fill-opacity="0.501961" d="M 43.71875 327.136719 L 43.8125 327.132812 L 44.234375 327.117188 L 44.324219 327.113281 L 44.417969 327.109375 L 44.839844 327.09375 L 44.933594 327.089844 L 45.023438 327.085938 L 45.445312 327.070312 L 45.539062 327.066406 L 45.628906 327.0625 L 46.050781 327.042969 L 46.238281 327.035156 L 46.65625 327.019531 L 46.75 327.011719 L 46.84375 327.007812 L 47.261719 326.992188 L 47.355469 326.988281 L 47.449219 326.980469 L 47.867188 326.960938 L 48.054688 326.953125 L 48.472656 326.933594 L 48.660156 326.925781 L 49.078125 326.902344 L 49.265625 326.894531 L 49.683594 326.875 L 49.777344 326.867188 L 49.871094 326.863281 L 50.289062 326.84375 L 50.382812 326.835938 L 50.476562 326.832031 L 50.894531 326.808594 L 51.082031 326.800781 L 51.5 326.777344 L 51.59375 326.769531 L 51.6875 326.765625 L 52.109375 326.742188 L 52.199219 326.734375 L 52.292969 326.730469 L 52.714844 326.707031 L 52.804688 326.699219 L 52.898438 326.695312 L 53.320312 326.667969 L 53.414062 326.664062 L 53.503906 326.65625 L 53.925781 326.628906 L 54.019531 326.625 L 54.113281 326.617188 L 54.53125 326.589844 L 54.625 326.585938 L 54.71875 326.578125 L 55.136719 326.550781 L 55.230469 326.542969 L 55.324219 326.539062 L 55.742188 326.507812 L 55.835938 326.503906 L 55.929688 326.496094 L 56.347656 326.464844 L 56.441406 326.460938 L 56.535156 326.453125 L 56.953125 326.421875 L 57.140625 326.40625 L 57.558594 326.375 L 57.652344 326.371094 L 57.746094 326.363281 L 58.164062 326.328125 L 58.257812 326.320312 L 58.351562 326.316406 L 58.769531 326.28125 L 58.957031 326.265625 L 59.375 326.230469 L 59.984375 326.179688 L 60.074219 326.171875 L 60.589844 326.128906 L 60.679688 326.121094 L 60.773438 326.109375 L 61.289062 326.066406 L 61.378906 326.054688 L 61.800781 326.015625 L 61.894531 326.007812 L 61.984375 326 L 62.40625 325.960938 L 62.5 325.949219 L 62.59375 325.941406 L 63.011719 325.902344 L 63.105469 325.890625 L 63.199219 325.882812 L 63.617188 325.839844 L 63.710938 325.828125 L 63.804688 325.820312 L 64.222656 325.777344 L 64.316406 325.765625 L 64.410156 325.757812 L 64.828125 325.710938 L 64.921875 325.703125 L 65.015625 325.691406 L 65.433594 325.644531 L 65.527344 325.636719 L 65.621094 325.625 L 66.039062 325.578125 L 66.226562 325.554688 L 66.644531 325.507812 L 66.832031 325.484375 L 67.25 325.433594 L 67.34375 325.425781 L 67.4375 325.414062 L 67.855469 325.359375 L 68.042969 325.335938 L 68.464844 325.285156 L 68.554688 325.273438 L 68.648438 325.261719 L 69.070312 325.207031 L 69.164062 325.195312 L 69.253906 325.179688 L 69.675781 325.125 L 69.769531 325.113281 L 69.859375 325.101562 L 70.28125 325.042969 L 70.375 325.03125 L 70.46875 325.015625 L 70.886719 324.957031 L 70.980469 324.945312 L 71.074219 324.929688 L 71.492188 324.871094 L 71.585938 324.855469 L 71.679688 324.84375 L 72.097656 324.78125 L 72.285156 324.75 L 72.703125 324.6875 L 72.890625 324.65625 L 73.308594 324.59375 L 73.496094 324.5625 L 73.914062 324.496094 L 74.101562 324.464844 L 74.519531 324.394531 L 74.707031 324.363281 L 75.125 324.292969 L 75.21875 324.273438 L 75.3125 324.257812 L 75.730469 324.183594 L 75.917969 324.152344 L 76.339844 324.078125 L 76.429688 324.058594 L 76.523438 324.042969 L 76.945312 323.964844 L 77.035156 323.949219 L 77.128906 323.929688 L 77.550781 323.851562 L 77.644531 323.832031 L 77.734375 323.816406 L 78.15625 323.734375 L 78.34375 323.695312 L 78.761719 323.613281 L 78.949219 323.574219 L 79.367188 323.488281 L 79.460938 323.472656 L 79.554688 323.449219 L 79.972656 323.363281 L 80.160156 323.324219 L 80.578125 323.234375 L 80.671875 323.214844 L 80.765625 323.191406 L 81.183594 323.097656 L 81.371094 323.058594 L 81.789062 322.960938 L 81.882812 322.941406 L 81.976562 322.917969 L 82.394531 322.824219 L 82.582031 322.777344 L 83 322.679688 L 83.1875 322.632812 L 83.605469 322.53125 L 84.214844 322.378906 L 84.304688 322.355469 L 84.398438 322.332031 L 84.820312 322.222656 L 84.910156 322.199219 L 85.003906 322.175781 L 85.425781 322.066406 L 85.519531 322.039062 L 85.609375 322.015625 L 86.03125 321.902344 L 86.125 321.878906 L 86.21875 321.851562 L 86.636719 321.734375 L 86.730469 321.710938 L 86.824219 321.683594 L 87.242188 321.566406 L 87.429688 321.511719 L 87.847656 321.390625 L 88.035156 321.335938 L 88.453125 321.210938 L 88.546875 321.183594 L 88.640625 321.152344 L 89.058594 321.027344 L 89.152344 320.996094 L 89.246094 320.96875 L 89.664062 320.835938 L 89.757812 320.808594 L 89.851562 320.777344 L 90.269531 320.644531 L 90.363281 320.613281 L 90.457031 320.585938 L 90.875 320.449219 L 91.0625 320.386719 L 91.480469 320.246094 L 91.667969 320.183594 L 92.085938 320.039062 L 92.179688 320.007812 L 92.273438 319.972656 L 92.695312 319.828125 L 92.785156 319.792969 L 92.878906 319.761719 L 93.300781 319.609375 L 93.394531 319.574219 L 93.484375 319.542969 L 93.90625 319.386719 L 94 319.351562 L 94.089844 319.316406 L 94.511719 319.160156 L 94.699219 319.089844 L 95.117188 318.929688 L 95.210938 318.890625 L 95.304688 318.855469 L 95.722656 318.691406 L 95.816406 318.652344 L 95.910156 318.617188 L 96.328125 318.449219 L 96.515625 318.371094 L 96.933594 318.199219 L 97.121094 318.121094 L 97.539062 317.945312 L 97.726562 317.867188 L 98.144531 317.683594 L 98.332031 317.605469 L 98.75 317.417969 L 98.84375 317.378906 L 98.9375 317.335938 L 99.355469 317.148438 L 99.542969 317.0625 L 99.960938 316.871094 L 100.054688 316.828125 L 100.148438 316.78125 L 100.570312 316.585938 L 100.660156 316.542969 L 100.753906 316.496094 L 101.175781 316.296875 L 101.269531 316.25 L 101.359375 316.203125 L 101.78125 316 L 101.875 315.953125 L 101.964844 315.90625 L 102.574219 315.601562 L 102.992188 315.386719 L 103.085938 315.339844 L 103.179688 315.289062 L 103.597656 315.070312 L 103.691406 315.023438 L 103.785156 314.972656 L 104.203125 314.75 L 104.390625 314.648438 L 104.808594 314.417969 L 104.996094 314.316406 L 105.414062 314.082031 L 105.507812 314.03125 L 105.601562 313.976562 L 106.019531 313.738281 L 106.207031 313.628906 L 106.625 313.386719 L 106.8125 313.277344 L 107.230469 313.027344 L 107.417969 312.917969 L 107.835938 312.664062 L 107.929688 312.605469 L 108.023438 312.550781 L 108.445312 312.289062 L 108.535156 312.234375 L 108.628906 312.175781 L 109.050781 311.910156 L 109.140625 311.851562 L 109.234375 311.789062 L 109.65625 311.519531 L 109.75 311.460938 L 109.839844 311.398438 L 110.261719 311.125 L 110.449219 311 L 110.867188 310.722656 L 110.960938 310.660156 L 111.054688 310.59375 L 111.472656 310.308594 L 111.566406 310.246094 L 111.660156 310.179688 L 112.078125 309.886719 L 112.171875 309.824219 L 112.265625 309.757812 L 112.683594 309.460938 L 112.777344 309.394531 L 112.871094 309.324219 L 113.289062 309.023438 L 113.382812 308.953125 L 113.476562 308.886719 L 113.894531 308.578125 L 114.082031 308.4375 L 114.5 308.121094 L 114.6875 307.980469 L 115.105469 307.660156 L 115.199219 307.589844 L 115.292969 307.515625 L 115.710938 307.1875 L 115.804688 307.117188 L 115.898438 307.042969 L 116.320312 306.707031 L 116.410156 306.632812 L 116.503906 306.558594 L 116.925781 306.21875 L 117.015625 306.140625 L 117.109375 306.066406 L 117.53125 305.71875 L 117.625 305.640625 L 117.714844 305.5625 L 118.230469 305.132812 L 118.320312 305.050781 L 118.742188 304.691406 L 118.835938 304.613281 L 118.929688 304.53125 L 119.347656 304.164062 L 119.441406 304.085938 L 119.535156 304 L 119.953125 303.628906 L 120.046875 303.546875 L 120.140625 303.460938 L 120.558594 303.082031 L 120.652344 303 L 120.746094 302.914062 L 121.164062 302.527344 L 121.257812 302.441406 L 121.351562 302.351562 L 121.769531 301.960938 L 121.863281 301.871094 L 121.957031 301.785156 L 122.375 301.382812 L 122.46875 301.296875 L 122.5625 301.203125 L 122.980469 300.796875 L 123.074219 300.707031 L 123.167969 300.613281 L 123.585938 300.199219 L 123.679688 300.109375 L 123.773438 300.015625 L 124.191406 299.59375 L 124.378906 299.40625 L 124.800781 298.976562 L 124.890625 298.882812 L 124.984375 298.785156 L 125.40625 298.347656 L 125.5 298.25 L 125.589844 298.152344 L 126.011719 297.710938 L 126.105469 297.609375 L 126.195312 297.511719 L 126.617188 297.058594 L 126.710938 296.960938 L 126.804688 296.859375 L 127.222656 296.398438 L 127.410156 296.195312 L 127.828125 295.726562 L 127.921875 295.625 L 128.015625 295.519531 L 128.433594 295.046875 L 128.527344 294.941406 L 128.621094 294.832031 L 129.039062 294.351562 L 129.132812 294.246094 L 129.226562 294.136719 L 129.644531 293.648438 L 129.738281 293.539062 L 129.832031 293.425781 L 130.25 292.929688 L 130.34375 292.820312 L 130.4375 292.707031 L 130.855469 292.203125 L 131.042969 291.976562 L 131.460938 291.464844 L 131.554688 291.347656 L 131.648438 291.234375 L 132.066406 290.710938 L 132.160156 290.597656 L 132.253906 290.476562 L 132.675781 289.949219 L 132.765625 289.832031 L 132.859375 289.710938 L 133.28125 289.175781 L 133.371094 289.054688 L 133.464844 288.933594 L 133.886719 288.386719 L 133.980469 288.265625 L 134.070312 288.144531 L 134.492188 287.589844 L 134.679688 287.339844 L 135.097656 286.777344 L 135.285156 286.527344 L 135.703125 285.957031 L 135.890625 285.699219 L 136.308594 285.121094 L 136.402344 284.992188 L 136.496094 284.859375 L 136.914062 284.273438 L 137.007812 284.144531 L 137.101562 327.789062 L 43.625 327.789062 Z M 43.71875 327.136719 "/>
<g clip-path="url(#clip-1)">
<path fill="none" stroke-width="1.920561" stroke-linecap="butt" stroke-linejoin="round" stroke="rgb(0%, 0%, 0%)" stroke-opacity="1" stroke-dasharray="7.682244 7.682244" stroke-miterlimit="10" d="M 137.011719 342.6875 L 137.011719 14.945312 "/>
</g>
<g clip-path="url(#clip-2)">
<path fill="none" stroke-width="1.920561" stroke-linecap="butt" stroke-linejoin="round" stroke="rgb(0%, 0%, 0%)" stroke-opacity="1" stroke-dasharray="7.682244 7.682244" stroke-miterlimit="10" d="M 374.464844 342.6875 L 374.464844 14.945312 "/>
</g>
<path fill-rule="nonzero" fill="rgb(10.196078%, 10.196078%, 10.196078%)" fill-opacity="1" d="M 124.8125 368.148438 L 124.8125 367.054688 L 130.972656 367.054688 L 130.972656 368.148438 Z M 124.8125 368.148438 "/>
<path fill-rule="nonzero" fill="rgb(10.196078%, 10.196078%, 10.196078%)" fill-opacity="1" d="M 133.210938 374.589844 L 133.210938 373.804688 L 133.789062 373.214844 L 134.347656 372.636719 L 134.886719 372.078125 L 135.40625 371.539062 L 135.90625 371.011719 L 136.386719 370.5 L 136.847656 370.007812 L 137.289062 369.53125 L 137.710938 369.070312 L 138.113281 368.625 L 138.496094 368.1875 L 138.855469 367.757812 L 139.199219 367.339844 L 139.523438 366.929688 L 139.828125 366.53125 L 140.113281 366.140625 L 140.375 365.761719 L 140.621094 365.390625 L 140.847656 365.027344 L 141.050781 364.675781 L 141.238281 364.332031 L 141.40625 363.988281 L 141.550781 363.652344 L 141.679688 363.320312 L 141.789062 362.988281 L 141.875 362.664062 L 141.945312 362.339844 L 141.992188 362.023438 L 142.023438 361.710938 L 142.03125 361.398438 L 142.023438 361.070312 L 141.996094 360.75 L 141.945312 360.441406 L 141.878906 360.140625 L 141.792969 359.851562 L 141.691406 359.574219 L 141.566406 359.308594 L 141.421875 359.050781 L 141.261719 358.808594 L 141.082031 358.570312 L 140.886719 358.355469 L 140.667969 358.160156 L 140.429688 357.988281 L 140.167969 357.835938 L 139.882812 357.710938 L 139.578125 357.609375 L 139.25 357.527344 L 138.902344 357.46875 L 138.53125 357.433594 L 138.140625 357.425781 L 137.902344 357.429688 L 137.664062 357.449219 L 137.429688 357.484375 L 137.195312 357.53125 L 136.964844 357.59375 L 136.734375 357.664062 L 136.511719 357.753906 L 136.285156 357.855469 L 136.0625 357.96875 L 135.84375 358.097656 L 135.632812 358.234375 L 135.429688 358.378906 L 135.230469 358.53125 L 135.035156 358.6875 L 134.84375 358.851562 L 134.660156 359.023438 L 134.476562 359.203125 L 134.304688 359.386719 L 134.132812 359.578125 L 133.96875 359.777344 L 133.15625 358.992188 L 133.359375 358.773438 L 133.570312 358.558594 L 133.78125 358.351562 L 134 358.152344 L 134.21875 357.964844 L 134.445312 357.777344 L 134.675781 357.601562 L 134.914062 357.433594 L 135.152344 357.269531 L 135.398438 357.117188 L 135.648438 356.972656 L 135.90625 356.84375 L 136.171875 356.730469 L 136.445312 356.632812 L 136.726562 356.550781 L 137.015625 356.480469 L 137.3125 356.429688 L 137.617188 356.390625 L 137.933594 356.367188 L 138.253906 356.359375 L 138.722656 356.375 L 139.171875 356.414062 L 139.597656 356.484375 L 140.003906 356.578125 L 140.386719 356.703125 L 140.75 356.855469 L 141.089844 357.03125 L 141.40625 357.238281 L 141.703125 357.472656 L 141.976562 357.730469 L 142.226562 358.015625 L 142.449219 358.316406 L 142.648438 358.636719 L 142.820312 358.972656 L 142.964844 359.328125 L 143.082031 359.699219 L 143.175781 360.09375 L 143.238281 360.5 L 143.28125 360.925781 L 143.292969 361.371094 L 143.28125 361.726562 L 143.25 362.078125 L 143.199219 362.433594 L 143.125 362.792969 L 143.035156 363.148438 L 142.917969 363.507812 L 142.785156 363.867188 L 142.628906 364.230469 L 142.453125 364.59375 L 142.257812 364.957031 L 142.046875 365.324219 L 141.820312 365.695312 L 141.574219 366.074219 L 141.316406 366.457031 L 141.039062 366.847656 L 140.746094 367.242188 L 140.433594 367.640625 L 140.105469 368.046875 L 139.761719 368.457031 L 139.402344 368.875 L 139.03125 369.300781 L 138.644531 369.738281 L 138.25 370.183594 L 137.835938 370.640625 L 137.414062 371.109375 L 136.976562 371.585938 L 136.523438 372.078125 L 136.058594 372.578125 L 135.582031 373.085938 L 135.089844 373.609375 L 135.234375 373.597656 L 135.382812 373.585938 L 135.527344 373.578125 L 135.675781 373.566406 L 136.269531 373.535156 L 136.421875 373.53125 L 136.574219 373.523438 L 136.730469 373.511719 L 136.882812 373.503906 L 137.039062 373.496094 L 137.34375 373.480469 L 137.492188 373.476562 L 137.644531 373.472656 L 137.792969 373.46875 L 144.1875 373.46875 L 144.1875 374.589844 Z M 133.210938 374.589844 "/>
<path fill-rule="nonzero" fill="rgb(10.196078%, 10.196078%, 10.196078%)" fill-opacity="1" d="M 255.722656 374.925781 L 255.226562 374.898438 L 254.75 374.828125 L 254.296875 374.703125 L 253.867188 374.535156 L 253.460938 374.316406 L 253.078125 374.046875 L 252.71875 373.730469 L 252.382812 373.363281 L 252.066406 372.949219 L 251.773438 372.488281 L 251.507812 371.980469 L 251.269531 371.433594 L 251.0625 370.84375 L 250.878906 370.210938 L 250.726562 369.542969 L 250.597656 368.828125 L 250.5 368.074219 L 250.429688 367.28125 L 250.390625 366.449219 L 250.375 365.570312 L 250.390625 364.703125 L 250.429688 363.875 L 250.5 363.085938 L 250.597656 362.34375 L 250.726562 361.636719 L 250.878906 360.976562 L 251.0625 360.355469 L 251.269531 359.773438 L 251.507812 359.238281 L 251.773438 358.738281 L 252.066406 358.289062 L 252.382812 357.882812 L 252.71875 357.527344 L 253.078125 357.21875 L 253.460938 356.953125 L 253.867188 356.742188 L 254.296875 356.574219 L 254.75 356.457031 L 255.226562 356.382812 L 255.722656 356.359375 L 256.226562 356.382812 L 256.707031 356.457031 L 257.160156 356.574219 L 257.589844 356.742188 L 258 356.953125 L 258.378906 357.21875 L 258.738281 357.527344 L 259.074219 357.882812 L 259.382812 358.289062 L 259.671875 358.738281 L 259.9375 359.238281 L 260.175781 359.773438 L 260.386719 360.355469 L 260.566406 360.976562 L 260.722656 361.636719 L 260.847656 362.34375 L 260.945312 363.085938 L 261.015625 363.875 L 261.058594 364.703125 L 261.070312 365.570312 L 261.058594 366.449219 L 261.015625 367.28125 L 260.945312 368.074219 L 260.847656 368.828125 L 260.722656 369.542969 L 260.566406 370.210938 L 260.386719 370.84375 L 260.175781 371.433594 L 259.9375 371.980469 L 259.671875 372.488281 L 259.382812 372.949219 L 259.074219 373.363281 L 258.738281 373.730469 L 258.378906 374.046875 L 258 374.316406 L 257.589844 374.535156 L 257.160156 374.703125 L 256.707031 374.828125 L 256.226562 374.898438 Z M 255.722656 373.859375 L 256.089844 373.839844 L 256.441406 373.777344 L 256.777344 373.671875 L 257.097656 373.523438 L 257.402344 373.335938 L 257.691406 373.105469 L 257.964844 372.832031 L 258.222656 372.515625 L 258.464844 372.160156 L 258.691406 371.761719 L 258.902344 371.320312 L 259.09375 370.839844 L 259.261719 370.320312 L 259.40625 369.761719 L 259.53125 369.164062 L 259.632812 368.523438 L 259.710938 367.847656 L 259.765625 367.128906 L 259.800781 366.371094 L 259.8125 365.570312 L 259.800781 364.773438 L 259.765625 364.019531 L 259.710938 363.304688 L 259.632812 362.632812 L 259.53125 362.003906 L 259.40625 361.414062 L 259.261719 360.863281 L 259.09375 360.355469 L 258.902344 359.890625 L 258.691406 359.46875 L 258.464844 359.078125 L 258.222656 358.730469 L 257.964844 358.425781 L 257.691406 358.160156 L 257.402344 357.933594 L 257.097656 357.75 L 256.777344 357.609375 L 256.441406 357.503906 L 256.089844 357.445312 L 255.722656 357.425781 L 255.359375 357.445312 L 255.011719 357.503906 L 254.679688 357.609375 L 254.359375 357.75 L 254.058594 357.933594 L 253.765625 358.160156 L 253.492188 358.425781 L 253.230469 358.730469 L 252.988281 359.078125 L 252.753906 359.46875 L 252.542969 359.890625 L 252.351562 360.355469 L 252.183594 360.863281 L 252.039062 361.414062 L 251.914062 362.003906 L 251.8125 362.632812 L 251.734375 363.304688 L 251.679688 364.019531 L 251.644531 364.773438 L 251.636719 365.570312 L 251.644531 366.371094 L 251.679688 367.128906 L 251.734375 367.847656 L 251.8125 368.523438 L 251.914062 369.164062 L 252.039062 369.761719 L 252.183594 370.320312 L 252.351562 370.839844 L 252.542969 371.320312 L 252.753906 371.761719 L 252.988281 372.160156 L 253.230469 372.515625 L 253.492188 372.832031 L 253.765625 373.105469 L 254.058594 373.335938 L 254.359375 373.523438 L 254.679688 373.671875 L 255.011719 373.777344 L 255.359375 373.839844 Z M 255.722656 373.859375 "/>
<path fill-rule="nonzero" fill="rgb(10.196078%, 10.196078%, 10.196078%)" fill-opacity="1" d="M 371.332031 374.589844 L 371.332031 373.804688 L 371.910156 373.214844 L 372.46875 372.636719 L 373.007812 372.078125 L 373.527344 371.539062 L 374.027344 371.011719 L 374.507812 370.5 L 374.96875 370.007812 L 375.410156 369.53125 L 375.828125 369.070312 L 376.230469 368.625 L 376.613281 368.1875 L 376.976562 367.757812 L 377.320312 367.339844 L 377.644531 366.929688 L 377.945312 366.53125 L 378.230469 366.140625 L 378.496094 365.761719 L 378.742188 365.390625 L 378.964844 365.027344 L 379.171875 364.675781 L 379.359375 364.332031 L 379.523438 363.988281 L 379.671875 363.652344 L 379.796875 363.320312 L 379.90625 362.988281 L 379.996094 362.664062 L 380.0625 362.339844 L 380.113281 362.023438 L 380.140625 361.710938 L 380.152344 361.398438 L 380.140625 361.070312 L 380.113281 360.75 L 380.066406 360.441406 L 380 360.140625 L 379.914062 359.851562 L 379.808594 359.574219 L 379.683594 359.308594 L 379.542969 359.050781 L 379.378906 358.808594 L 379.199219 358.570312 L 379.003906 358.355469 L 378.785156 358.160156 L 378.546875 357.988281 L 378.285156 357.835938 L 378.003906 357.710938 L 377.699219 357.609375 L 377.371094 357.527344 L 377.023438 357.46875 L 376.652344 357.433594 L 376.257812 357.425781 L 376.019531 357.429688 L 375.78125 357.449219 L 375.546875 357.484375 L 375.3125 357.53125 L 375.082031 357.59375 L 374.855469 357.664062 L 374.628906 357.753906 L 374.40625 357.855469 L 374.183594 357.96875 L 373.964844 358.097656 L 373.753906 358.234375 L 373.546875 358.378906 L 373.347656 358.53125 L 373.152344 358.6875 L 372.960938 358.851562 L 372.777344 359.023438 L 372.597656 359.203125 L 372.421875 359.386719 L 372.253906 359.578125 L 372.085938 359.777344 L 371.277344 358.992188 L 371.480469 358.773438 L 371.6875 358.558594 L 371.902344 358.351562 L 372.117188 358.152344 L 372.339844 357.964844 L 372.566406 357.777344 L 372.796875 357.601562 L 373.03125 357.433594 L 373.269531 357.269531 L 373.515625 357.117188 L 373.765625 356.972656 L 374.023438 356.84375 L 374.289062 356.730469 L 374.5625 356.632812 L 374.84375 356.550781 L 375.136719 356.480469 L 375.433594 356.429688 L 375.738281 356.390625 L 376.050781 356.367188 L 376.371094 356.359375 L 376.84375 356.375 L 377.292969 356.414062 L 377.71875 356.484375 L 378.125 356.578125 L 378.507812 356.703125 L 378.867188 356.855469 L 379.207031 357.03125 L 379.527344 357.238281 L 379.820312 357.472656 L 380.09375 357.730469 L 380.34375 358.015625 L 380.570312 358.316406 L 380.765625 358.636719 L 380.9375 358.972656 L 381.082031 359.328125 L 381.199219 359.699219 L 381.292969 360.09375 L 381.359375 360.5 L 381.398438 360.925781 L 381.410156 361.371094 L 381.402344 361.726562 L 381.371094 362.078125 L 381.320312 362.433594 L 381.246094 362.792969 L 381.152344 363.148438 L 381.039062 363.507812 L 380.902344 363.867188 L 380.75 364.230469 L 380.574219 364.59375 L 380.375 364.957031 L 380.164062 365.324219 L 379.9375 365.695312 L 379.695312 366.074219 L 379.433594 366.457031 L 379.15625 366.847656 L 378.863281 367.242188 L 378.554688 367.640625 L 378.226562 368.046875 L 377.878906 368.457031 L 377.519531 368.875 L 377.148438 369.300781 L 376.765625 369.738281 L 376.367188 370.183594 L 375.957031 370.640625 L 375.53125 371.109375 L 375.09375 371.585938 L 374.640625 372.078125 L 374.175781 372.578125 L 373.699219 373.085938 L 373.207031 373.609375 L 373.351562 373.597656 L 373.5 373.585938 L 373.648438 373.578125 L 373.792969 373.566406 L 374.089844 373.550781 L 374.242188 373.542969 L 374.390625 373.535156 L 374.539062 373.53125 L 374.691406 373.523438 L 374.847656 373.511719 L 375.003906 373.503906 L 375.460938 373.480469 L 375.613281 373.476562 L 375.910156 373.46875 L 382.308594 373.46875 L 382.308594 374.589844 Z M 371.332031 374.589844 "/>
</svg>
