<?xml version="1.0" encoding="UTF-8"?>
<svg xmlns="http://www.w3.org/2000/svg" xmlns:xlink="http://www.w3.org/1999/xlink" width="792pt" height="489pt" viewBox="0 0 792 489">
<defs>
<clipPath id="clip-0">
<path clip-rule="nonzero" d="M 87.996094 17.933594 L 774.066406 17.933594 L 774.066406 387.117188 L 87.996094 387.117188 Z M 87.996094 17.933594 "/>
</clipPath>
<clipPath id="clip-1">
<path clip-rule="nonzero" d="M 87.996094 370 L 774.066406 370 L 774.066406 371 L 87.996094 371 Z M 87.996094 370 "/>
</clipPath>
<clipPath id="clip-2">
<path clip-rule="nonzero" d="M 87.996094 264 L 774.066406 264 L 774.066406 265 L 87.996094 265 Z M 87.996094 264 "/>
</clipPath>
<clipPath id="clip-3">
<path clip-rule="nonzero" d="M 87.996094 158 L 774.066406 158 L 774.066406 159 L 87.996094 159 Z M 87.996094 158 "/>
</clipPath>
<clipPath id="clip-4">
<path clip-rule="nonzero" d="M 87.996094 52 L 774.066406 52 L 774.066406 53 L 87.996094 53 Z M 87.996094 52 "/>
</clipPath>
<clipPath id="clip-5">
<path clip-rule="nonzero" d="M 197 17.933594 L 198 17.933594 L 198 387.117188 L 197 387.117188 Z M 197 17.933594 "/>
</clipPath>
<clipPath id="clip-6">
<path clip-rule="nonzero" d="M 384 17.933594 L 385 17.933594 L 385 387.117188 L 384 387.117188 Z M 384 17.933594 "/>
</clipPath>
<clipPath id="clip-7">
<path clip-rule="nonzero" d="M 571 17.933594 L 572 17.933594 L 572 387.117188 L 571 387.117188 Z M 571 17.933594 "/>
</clipPath>
<clipPath id="clip-8">
<path clip-rule="nonzero" d="M 758 17.933594 L 759 17.933594 L 759 387.117188 L 758 387.117188 Z M 758 17.933594 "/>
</clipPath>
</defs>
<rect x="-79.2" y="-48.9" width="950.4" height="586.8" fill="rgb(100%, 100%, 100%)" fill-opacity="1"/>
<rect x="-79.2" y="-48.9" width="950.4" height="586.8" fill="rgb(95.294118%, 95.294118%, 95.294118%)" fill-opacity="1"/>
<path fill="none" stroke-width="3.491929" stroke-linecap="round" stroke-linejoin="round" stroke="rgb(95.294118%, 95.294118%, 95.294118%)" stroke-opacity="1" stroke-miterlimit="10" d="M 0 489 L 792 489 L 792 0 L 0 0 Z M 0 489 "/>
<g clip-path="url(#clip-0)">
<path fill-rule="nonzero" fill="rgb(95.294118%, 95.294118%, 95.294118%)" fill-opacity="1" stroke-width="3.491929" stroke-linecap="round" stroke-linejoin="round" stroke="rgb(95.294118%, 95.294118%, 95.294118%)" stroke-opacity="1" stroke-miterlimit="10" d="M 87.996094 387.113281 L 774.066406 387.113281 L 774.066406 17.929688 L 87.996094 17.929688 Z M 87.996094 387.113281 "/>
</g>
<g clip-path="url(#clip-1)">
<path fill="none" stroke-width="0.213396" stroke-linecap="butt" stroke-linejoin="round" stroke="rgb(95.294118%, 95.294118%, 95.294118%)" stroke-opacity="1" stroke-miterlimit="10" d="M 87.996094 370.335938 L 774.066406 370.335938 "/>
</g>
<g clip-path="url(#clip-2)">
<path fill="none" stroke-width="0.213396" stroke-linecap="butt" stroke-linejoin="round" stroke="rgb(95.294118%, 95.294118%, 95.294118%)" stroke-opacity="1" stroke-miterlimit="10" d="M 87.996094 264.460938 L 774.066406 264.460938 "/>
</g>
<g clip-path="url(#clip-3)">
<path fill="none" stroke-width="0.213396" stroke-linecap="butt" stroke-linejoin="round" stroke="rgb(95.294118%, 95.294118%, 95.294118%)" stroke-opacity="1" stroke-miterlimit="10" d="M 87.996094 158.585938 L 774.066406 158.585938 "/>
</g>
<g clip-path="url(#clip-4)">
<path fill="none" stroke-width="0.213396" stroke-linecap="butt" stroke-linejoin="round" stroke="rgb(95.294118%, 95.294118%, 95.294118%)" stroke-opacity="1" stroke-miterlimit="10" d="M 87.996094 52.710938 L 774.066406 52.710938 "/>
</g>
<g clip-path="url(#clip-5)">
<path fill="none" stroke-width="0.213396" stroke-linecap="butt" stroke-linejoin="round" stroke="rgb(95.294118%, 95.294118%, 95.294118%)" stroke-opacity="1" stroke-miterlimit="10" d="M 197.144531 387.113281 L 197.144531 17.933594 "/>
</g>
<g clip-path="url(#clip-6)">
<path fill="none" stroke-width="0.213396" stroke-linecap="butt" stroke-linejoin="round" stroke="rgb(95.294118%, 95.294118%, 95.294118%)" stroke-opacity="1" stroke-miterlimit="10" d="M 384.253906 387.113281 L 384.253906 17.933594 "/>
</g>
<g clip-path="url(#clip-7)">
<path fill="none" stroke-width="0.213396" stroke-linecap="butt" stroke-linejoin="round" stroke="rgb(95.294118%, 95.294118%, 95.294118%)" stroke-opacity="1" stroke-miterlimit="10" d="M 571.363281 387.113281 L 571.363281 17.933594 "/>
</g>
<g clip-path="url(#clip-8)">
<path fill="none" stroke-width="0.213396" stroke-linecap="butt" stroke-linejoin="round" stroke="rgb(95.294118%, 95.294118%, 95.294118%)" stroke-opacity="1" stroke-miterlimit="10" d="M 758.476562 387.113281 L 758.476562 17.933594 "/>
</g>
<path fill-rule="nonzero" fill="rgb(56.078431%, 16.470588%, 26.27451%)" fill-opacity="0.698039" d="M 119.179688 370.335938 L 181.550781 370.335938 L 181.550781 367.160156 L 119.179688 367.160156 Z M 119.179688 370.335938 "/>
<path fill-rule="nonzero" fill="rgb(56.078431%, 16.470588%, 26.27451%)" fill-opacity="0.698039" d="M 181.550781 370.335938 L 243.921875 370.335938 L 243.921875 342.808594 L 181.550781 342.808594 Z M 181.550781 370.335938 "/>
<path fill-rule="nonzero" fill="rgb(56.078431%, 16.470588%, 26.27451%)" fill-opacity="0.698039" d="M 243.921875 370.335938 L 306.292969 370.335938 L 306.292969 311.046875 L 243.921875 311.046875 Z M 243.921875 370.335938 "/>
<path fill-rule="nonzero" fill="rgb(56.078431%, 16.470588%, 26.27451%)" fill-opacity="0.698039" d="M 306.292969 370.335938 L 368.664062 370.335938 L 368.664062 270.8125 L 306.292969 270.8125 Z M 306.292969 370.335938 "/>
<path fill-rule="nonzero" fill="rgb(56.078431%, 16.470588%, 26.27451%)" fill-opacity="0.698039" d="M 368.660156 370.335938 L 431.03125 370.335938 L 431.03125 34.714844 L 368.660156 34.714844 Z M 368.660156 370.335938 "/>
<path fill-rule="nonzero" fill="rgb(56.078431%, 16.470588%, 26.27451%)" fill-opacity="0.698039" d="M 431.03125 370.335938 L 493.402344 370.335938 L 493.402344 235.875 L 431.03125 235.875 Z M 431.03125 370.335938 "/>
<path fill-rule="nonzero" fill="rgb(56.078431%, 16.470588%, 26.27451%)" fill-opacity="0.698039" d="M 493.402344 370.335938 L 555.773438 370.335938 L 555.773438 266.578125 L 493.402344 266.578125 Z M 493.402344 370.335938 "/>
<path fill-rule="nonzero" fill="rgb(56.078431%, 16.470588%, 26.27451%)" fill-opacity="0.698039" d="M 555.773438 370.335938 L 618.144531 370.335938 L 618.144531 295.164062 L 555.773438 295.164062 Z M 555.773438 370.335938 "/>
<path fill-rule="nonzero" fill="rgb(56.078431%, 16.470588%, 26.27451%)" fill-opacity="0.698039" d="M 618.140625 370.335938 L 680.511719 370.335938 L 680.511719 362.925781 L 618.140625 362.925781 Z M 618.140625 370.335938 "/>
<path fill-rule="nonzero" fill="rgb(56.078431%, 16.470588%, 26.27451%)" fill-opacity="0.698039" d="M 680.511719 370.335938 L 742.882812 370.335938 L 742.882812 369.277344 L 680.511719 369.277344 Z M 680.511719 370.335938 "/>
<path fill-rule="nonzero" fill="rgb(10.196078%, 10.196078%, 10.196078%)" fill-opacity="1" d="M 62.507812 358.996094 L 63.191406 359.023438 L 63.839844 359.113281 L 64.453125 359.265625 L 65.035156 359.472656 L 65.582031 359.742188 L 66.097656 360.070312 L 66.578125 360.460938 L 67.023438 360.910156 L 67.433594 361.417969 L 67.8125 361.988281 L 68.152344 362.605469 L 68.460938 363.28125 L 68.730469 364.011719 L 68.964844 364.800781 L 69.164062 365.640625 L 69.324219 366.539062 L 69.449219 367.496094 L 69.539062 368.503906 L 69.59375 369.570312 L 69.613281 370.691406 L 69.59375 371.804688 L 69.539062 372.867188 L 69.449219 373.875 L 69.320312 374.824219 L 69.152344 375.722656 L 68.953125 376.566406 L 68.714844 377.355469 L 68.4375 378.089844 L 68.125 378.769531 L 67.777344 379.394531 L 67.398438 379.957031 L 66.988281 380.460938 L 66.546875 380.902344 L 66.070312 381.289062 L 65.558594 381.613281 L 65.015625 381.878906 L 64.4375 382.085938 L 63.828125 382.234375 L 63.183594 382.324219 L 62.507812 382.351562 L 61.824219 382.324219 L 61.175781 382.234375 L 60.558594 382.085938 L 59.976562 381.878906 L 59.429688 381.613281 L 58.917969 381.289062 L 58.4375 380.902344 L 57.992188 380.460938 L 57.582031 379.957031 L 57.203125 379.394531 L 56.859375 378.769531 L 56.554688 378.089844 L 56.285156 377.351562 L 56.050781 376.5625 L 55.851562 375.714844 L 55.6875 374.8125 L 55.5625 373.855469 L 55.472656 372.84375 L 55.417969 371.777344 L 55.402344 370.65625 L 55.417969 369.535156 L 55.472656 368.46875 L 55.5625 367.460938 L 55.6875 366.507812 L 55.851562 365.609375 L 56.050781 364.765625 L 56.285156 363.980469 L 56.554688 363.246094 L 56.859375 362.574219 L 57.203125 361.953125 L 57.582031 361.390625 L 57.992188 360.886719 L 58.4375 360.445312 L 58.917969 360.058594 L 59.429688 359.734375 L 59.976562 359.46875 L 60.558594 359.261719 L 61.175781 359.113281 L 61.824219 359.023438 Z M 62.507812 360.628906 L 61.542969 360.726562 L 60.683594 361.027344 L 59.921875 361.53125 L 59.265625 362.230469 L 58.707031 363.132812 L 58.25 364.238281 L 57.898438 365.542969 L 57.644531 367.046875 L 57.492188 368.75 L 57.441406 370.65625 L 57.492188 372.570312 L 57.644531 374.28125 L 57.898438 375.789062 L 58.25 377.097656 L 58.707031 378.207031 L 59.265625 379.109375 L 59.921875 379.816406 L 60.683594 380.320312 L 61.542969 380.621094 L 62.507812 380.722656 L 62.992188 380.695312 L 63.449219 380.625 L 63.886719 380.5 L 64.296875 380.328125 L 64.683594 380.109375 L 65.042969 379.839844 L 65.382812 379.523438 L 65.695312 379.15625 L 65.984375 378.738281 L 66.246094 378.273438 L 66.492188 377.757812 L 66.710938 377.1875 L 66.90625 376.5625 L 67.074219 375.886719 L 67.214844 375.152344 L 67.332031 374.367188 L 67.421875 373.53125 L 67.488281 372.636719 L 67.527344 371.691406 L 67.539062 370.691406 L 67.527344 369.691406 L 67.488281 368.746094 L 67.421875 367.851562 L 67.332031 367.015625 L 67.214844 366.230469 L 67.074219 365.496094 L 66.90625 364.820312 L 66.710938 364.195312 L 66.492188 363.625 L 66.246094 363.109375 L 65.984375 362.636719 L 65.695312 362.214844 L 65.382812 361.84375 L 65.042969 361.519531 L 64.683594 361.246094 L 64.296875 361.023438 L 63.886719 360.851562 L 63.449219 360.726562 L 62.992188 360.652344 Z M 62.507812 360.628906 "/>
<path fill-rule="nonzero" fill="rgb(10.196078%, 10.196078%, 10.196078%)" fill-opacity="1" d="M 30.34375 253.496094 L 30.34375 276.105469 L 28.371094 276.105469 L 28.371094 255.671875 L 22.792969 259.140625 L 21.875 257.675781 L 28.644531 253.496094 Z M 30.34375 253.496094 "/>
<path fill-rule="nonzero" fill="rgb(10.196078%, 10.196078%, 10.196078%)" fill-opacity="1" d="M 43.808594 253.121094 L 44.488281 253.152344 L 45.140625 253.242188 L 45.753906 253.390625 L 46.335938 253.601562 L 46.882812 253.871094 L 47.398438 254.199219 L 47.875 254.585938 L 48.320312 255.035156 L 48.734375 255.542969 L 49.109375 256.113281 L 49.453125 256.734375 L 49.757812 257.40625 L 50.03125 258.140625 L 50.265625 258.925781 L 50.460938 259.769531 L 50.625 260.667969 L 50.75 261.621094 L 50.839844 262.628906 L 50.894531 263.695312 L 50.914062 264.816406 L 50.894531 265.933594 L 50.839844 266.992188 L 50.746094 268 L 50.617188 268.953125 L 50.453125 269.847656 L 50.25 270.691406 L 50.011719 271.480469 L 49.738281 272.214844 L 49.425781 272.894531 L 49.078125 273.519531 L 48.699219 274.082031 L 48.289062 274.585938 L 47.84375 275.03125 L 47.367188 275.414062 L 46.859375 275.738281 L 46.316406 276.007812 L 45.738281 276.214844 L 45.128906 276.359375 L 44.484375 276.449219 L 43.808594 276.480469 L 43.125 276.449219 L 42.472656 276.359375 L 41.859375 276.214844 L 41.277344 276.007812 L 40.730469 275.738281 L 40.214844 275.414062 L 39.738281 275.03125 L 39.292969 274.585938 L 38.878906 274.082031 L 38.503906 273.519531 L 38.160156 272.894531 L 37.855469 272.214844 L 37.582031 271.476562 L 37.347656 270.6875 L 37.152344 269.839844 L 36.988281 268.9375 L 36.863281 267.984375 L 36.773438 266.972656 L 36.71875 265.90625 L 36.699219 264.78125 L 36.71875 263.660156 L 36.773438 262.597656 L 36.863281 261.585938 L 36.988281 260.632812 L 37.152344 259.734375 L 37.347656 258.890625 L 37.582031 258.105469 L 37.855469 257.375 L 38.160156 256.699219 L 38.503906 256.078125 L 38.878906 255.515625 L 39.292969 255.015625 L 39.738281 254.570312 L 40.214844 254.1875 L 40.730469 253.859375 L 41.277344 253.59375 L 41.859375 253.386719 L 42.472656 253.238281 L 43.125 253.152344 Z M 43.808594 254.753906 L 42.84375 254.851562 L 41.984375 255.15625 L 41.222656 255.65625 L 40.566406 256.359375 L 40.007812 257.261719 L 39.550781 258.363281 L 39.195312 259.667969 L 38.945312 261.171875 L 38.792969 262.878906 L 38.742188 264.78125 L 38.792969 266.695312 L 38.945312 268.40625 L 39.195312 269.914062 L 39.550781 271.222656 L 40.007812 272.332031 L 40.566406 273.238281 L 41.222656 273.941406 L 41.984375 274.445312 L 42.84375 274.746094 L 43.808594 274.847656 L 44.289062 274.824219 L 44.75 274.75 L 45.1875 274.625 L 45.597656 274.457031 L 45.984375 274.234375 L 46.34375 273.964844 L 46.683594 273.648438 L 46.996094 273.28125 L 47.28125 272.863281 L 47.546875 272.398438 L 47.792969 271.882812 L 48.011719 271.3125 L 48.207031 270.6875 L 48.375 270.011719 L 48.515625 269.28125 L 48.632812 268.496094 L 48.722656 267.65625 L 48.785156 266.761719 L 48.824219 265.816406 L 48.839844 264.816406 L 48.824219 263.816406 L 48.785156 262.871094 L 48.722656 261.980469 L 48.632812 261.140625 L 48.515625 260.355469 L 48.375 259.625 L 48.207031 258.945312 L 48.011719 258.320312 L 47.792969 257.75 L 47.546875 257.234375 L 47.28125 256.761719 L 46.996094 256.339844 L 46.683594 255.96875 L 46.34375 255.648438 L 45.984375 255.375 L 45.597656 255.148438 L 45.1875 254.976562 L 44.75 254.851562 L 44.289062 254.777344 Z M 43.808594 254.753906 "/>
<path fill-rule="nonzero" fill="rgb(10.196078%, 10.196078%, 10.196078%)" fill-opacity="1" d="M 62.507812 253.121094 L 63.191406 253.152344 L 63.839844 253.242188 L 64.453125 253.390625 L 65.035156 253.601562 L 65.582031 253.871094 L 66.097656 254.199219 L 66.578125 254.585938 L 67.023438 255.035156 L 67.433594 255.542969 L 67.8125 256.113281 L 68.152344 256.734375 L 68.460938 257.40625 L 68.730469 258.140625 L 68.964844 258.925781 L 69.164062 259.769531 L 69.324219 260.667969 L 69.449219 261.621094 L 69.539062 262.628906 L 69.59375 263.695312 L 69.613281 264.816406 L 69.59375 265.933594 L 69.539062 266.992188 L 69.449219 268 L 69.320312 268.953125 L 69.152344 269.847656 L 68.953125 270.691406 L 68.714844 271.480469 L 68.4375 272.214844 L 68.125 272.894531 L 67.777344 273.519531 L 67.398438 274.082031 L 66.988281 274.585938 L 66.546875 275.03125 L 66.070312 275.414062 L 65.558594 275.738281 L 65.015625 276.007812 L 64.4375 276.214844 L 63.828125 276.359375 L 63.183594 276.449219 L 62.507812 276.480469 L 61.824219 276.449219 L 61.175781 276.359375 L 60.558594 276.214844 L 59.976562 276.007812 L 59.429688 275.738281 L 58.917969 275.414062 L 58.4375 275.03125 L 57.992188 274.585938 L 57.582031 274.082031 L 57.203125 273.519531 L 56.859375 272.894531 L 56.554688 272.214844 L 56.285156 271.476562 L 56.050781 270.6875 L 55.851562 269.839844 L 55.6875 268.9375 L 55.5625 267.984375 L 55.472656 266.972656 L 55.417969 265.90625 L 55.402344 264.78125 L 55.417969 263.660156 L 55.472656 262.597656 L 55.5625 261.585938 L 55.6875 260.632812 L 55.851562 259.734375 L 56.050781 258.890625 L 56.285156 258.105469 L 56.554688 257.375 L 56.859375 256.699219 L 57.203125 256.078125 L 57.582031 255.515625 L 57.992188 255.015625 L 58.4375 254.570312 L 58.917969 254.1875 L 59.429688 253.859375 L 59.976562 253.59375 L 60.558594 253.386719 L 61.175781 253.238281 L 61.824219 253.152344 Z M 62.507812 254.753906 L 61.542969 254.851562 L 60.683594 255.15625 L 59.921875 255.65625 L 59.265625 256.359375 L 58.707031 257.261719 L 58.25 258.363281 L 57.898438 259.667969 L 57.644531 261.171875 L 57.492188 262.878906 L 57.441406 264.78125 L 57.492188 266.695312 L 57.644531 268.40625 L 57.898438 269.914062 L 58.25 271.222656 L 58.707031 272.332031 L 59.265625 273.238281 L 59.921875 273.941406 L 60.683594 274.445312 L 61.542969 274.746094 L 62.507812 274.847656 L 62.992188 274.824219 L 63.449219 274.75 L 63.886719 274.625 L 64.296875 274.457031 L 64.683594 274.234375 L 65.042969 273.964844 L 65.382812 273.648438 L 65.695312 273.28125 L 65.984375 272.863281 L 66.246094 272.398438 L 66.492188 271.882812 L 66.710938 271.3125 L 66.90625 270.6875 L 67.074219 270.011719 L 67.214844 269.28125 L 67.332031 268.496094 L 67.421875 267.65625 L 67.488281 266.761719 L 67.527344 265.816406 L 67.539062 264.816406 L 67.527344 263.816406 L 67.488281 262.871094 L 67.421875 261.980469 L 67.332031 261.140625 L 67.214844 260.355469 L 67.074219 259.625 L 66.90625 258.945312 L 66.710938 258.320312 L 66.492188 257.75 L 66.246094 257.234375 L 65.984375 256.761719 L 65.695312 256.339844 L 65.382812 255.96875 L 65.042969 255.648438 L 64.683594 255.375 L 64.296875 255.148438 L 63.886719 254.976562 L 63.449219 254.851562 L 62.992188 254.777344 Z M 62.507812 254.753906 "/>
<path fill-rule="nonzero" fill="rgb(10.196078%, 10.196078%, 10.196078%)" fill-opacity="1" d="M 25.820312 147.246094 L 26.378906 147.265625 L 26.914062 147.3125 L 27.425781 147.398438 L 27.914062 147.515625 L 28.378906 147.664062 L 28.820312 147.847656 L 29.234375 148.0625 L 29.628906 148.3125 L 29.996094 148.597656 L 30.34375 148.914062 L 30.664062 149.257812 L 30.953125 149.617188 L 31.210938 150 L 31.429688 150.398438 L 31.617188 150.816406 L 31.769531 151.253906 L 31.890625 151.710938 L 31.976562 152.1875 L 32.027344 152.683594 L 32.042969 153.195312 L 32.035156 153.636719 L 32.007812 154.070312 L 31.960938 154.5 L 31.894531 154.921875 L 31.8125 155.339844 L 31.710938 155.75 L 31.59375 156.15625 L 31.457031 156.558594 L 31.300781 156.953125 L 31.125 157.34375 L 30.929688 157.738281 L 30.714844 158.136719 L 30.480469 158.542969 L 30.222656 158.957031 L 29.941406 159.375 L 29.644531 159.804688 L 29.324219 160.242188 L 28.980469 160.683594 L 28.617188 161.136719 L 28.234375 161.59375 L 27.824219 162.082031 L 27.363281 162.609375 L 26.855469 163.1875 L 26.296875 163.808594 L 25.691406 164.476562 L 25.039062 165.191406 L 24.339844 165.949219 L 23.589844 166.753906 L 22.789062 167.601562 L 21.945312 168.496094 L 32.65625 168.496094 L 32.382812 170.230469 L 19.632812 170.230469 L 19.632812 168.566406 L 20.539062 167.597656 L 21.390625 166.683594 L 22.1875 165.820312 L 22.933594 165.007812 L 23.628906 164.246094 L 24.269531 163.539062 L 24.855469 162.882812 L 25.386719 162.277344 L 25.867188 161.722656 L 26.296875 161.222656 L 26.691406 160.746094 L 27.0625 160.28125 L 27.410156 159.835938 L 27.734375 159.398438 L 28.03125 158.976562 L 28.304688 158.570312 L 28.554688 158.175781 L 28.777344 157.792969 L 28.976562 157.425781 L 29.152344 157.074219 L 29.3125 156.71875 L 29.457031 156.355469 L 29.585938 155.992188 L 29.695312 155.621094 L 29.789062 155.246094 L 29.867188 154.867188 L 29.925781 154.480469 L 29.96875 154.09375 L 29.996094 153.699219 L 30.003906 153.300781 L 29.992188 152.90625 L 29.957031 152.53125 L 29.894531 152.167969 L 29.8125 151.824219 L 29.707031 151.496094 L 29.574219 151.1875 L 29.417969 150.890625 L 29.242188 150.613281 L 29.039062 150.347656 L 28.8125 150.101562 L 28.574219 149.878906 L 28.320312 149.675781 L 28.046875 149.496094 L 27.761719 149.339844 L 27.460938 149.210938 L 27.144531 149.105469 L 26.8125 149.019531 L 26.460938 148.960938 L 26.097656 148.925781 L 25.71875 148.914062 L 25.410156 148.917969 L 25.105469 148.9375 L 24.8125 148.972656 L 24.523438 149.015625 L 24.238281 149.074219 L 23.964844 149.144531 L 23.695312 149.230469 L 23.433594 149.328125 L 23.179688 149.4375 L 22.929688 149.558594 L 22.695312 149.695312 L 22.457031 149.84375 L 22.226562 150.003906 L 21.996094 150.179688 L 21.765625 150.367188 L 21.539062 150.566406 L 21.316406 150.78125 L 21.09375 151.007812 L 20.871094 151.246094 L 20.652344 151.496094 L 19.292969 150.476562 L 19.566406 150.152344 L 19.84375 149.847656 L 20.128906 149.558594 L 20.414062 149.285156 L 20.703125 149.03125 L 21 148.796875 L 21.296875 148.578125 L 21.597656 148.378906 L 21.90625 148.195312 L 22.214844 148.027344 L 22.539062 147.878906 L 22.871094 147.746094 L 23.210938 147.628906 L 23.558594 147.527344 L 23.917969 147.441406 L 24.28125 147.371094 L 24.652344 147.316406 L 25.035156 147.277344 L 25.421875 147.253906 Z M 25.820312 147.246094 "/>
<path fill-rule="nonzero" fill="rgb(10.196078%, 10.196078%, 10.196078%)" fill-opacity="1" d="M 43.808594 147.246094 L 44.488281 147.277344 L 45.140625 147.367188 L 45.753906 147.515625 L 46.335938 147.726562 L 46.882812 147.996094 L 47.398438 148.324219 L 47.875 148.714844 L 48.320312 149.164062 L 48.734375 149.671875 L 49.109375 150.238281 L 49.453125 150.859375 L 49.757812 151.535156 L 50.03125 152.265625 L 50.265625 153.050781 L 50.460938 153.894531 L 50.625 154.792969 L 50.75 155.746094 L 50.839844 156.757812 L 50.894531 157.820312 L 50.914062 158.941406 L 50.894531 160.058594 L 50.839844 161.121094 L 50.746094 162.125 L 50.617188 163.078125 L 50.453125 163.976562 L 50.25 164.820312 L 50.011719 165.605469 L 49.738281 166.339844 L 49.425781 167.023438 L 49.078125 167.648438 L 48.699219 168.210938 L 48.289062 168.710938 L 47.84375 169.15625 L 47.367188 169.539062 L 46.859375 169.867188 L 46.316406 170.132812 L 45.738281 170.339844 L 45.128906 170.488281 L 44.484375 170.574219 L 43.808594 170.605469 L 43.125 170.574219 L 42.472656 170.488281 L 41.859375 170.339844 L 41.277344 170.132812 L 40.730469 169.867188 L 40.214844 169.539062 L 39.738281 169.15625 L 39.292969 168.710938 L 38.878906 168.210938 L 38.503906 167.648438 L 38.160156 167.019531 L 37.855469 166.339844 L 37.582031 165.605469 L 37.347656 164.8125 L 37.152344 163.964844 L 36.988281 163.066406 L 36.863281 162.109375 L 36.773438 161.097656 L 36.71875 160.03125 L 36.699219 158.910156 L 36.71875 157.789062 L 36.773438 156.722656 L 36.863281 155.710938 L 36.988281 154.757812 L 37.152344 153.859375 L 37.347656 153.019531 L 37.582031 152.230469 L 37.855469 151.5 L 38.160156 150.824219 L 38.503906 150.207031 L 38.878906 149.644531 L 39.292969 149.140625 L 39.738281 148.695312 L 40.214844 148.3125 L 40.730469 147.988281 L 41.277344 147.71875 L 41.859375 147.511719 L 42.472656 147.367188 L 43.125 147.277344 Z M 43.808594 148.878906 L 42.84375 148.980469 L 41.984375 149.28125 L 41.222656 149.78125 L 40.566406 150.484375 L 40.007812 151.386719 L 39.550781 152.488281 L 39.195312 153.792969 L 38.945312 155.296875 L 38.792969 157.003906 L 38.742188 158.910156 L 38.792969 160.820312 L 38.945312 162.53125 L 39.195312 164.042969 L 39.550781 165.351562 L 40.007812 166.457031 L 40.566406 167.363281 L 41.222656 168.066406 L 41.984375 168.570312 L 42.84375 168.871094 L 43.808594 168.972656 L 44.289062 168.949219 L 44.75 168.875 L 45.1875 168.753906 L 45.597656 168.582031 L 45.984375 168.359375 L 46.34375 168.09375 L 46.683594 167.773438 L 46.996094 167.40625 L 47.28125 166.992188 L 47.546875 166.523438 L 47.792969 166.007812 L 48.011719 165.4375 L 48.207031 164.816406 L 48.375 164.136719 L 48.515625 163.40625 L 48.632812 162.621094 L 48.722656 161.78125 L 48.785156 160.890625 L 48.824219 159.941406 L 48.839844 158.941406 L 48.824219 157.941406 L 48.785156 156.996094 L 48.722656 156.105469 L 48.632812 155.265625 L 48.515625 154.480469 L 48.375 153.75 L 48.207031 153.070312 L 48.011719 152.449219 L 47.792969 151.878906 L 47.546875 151.359375 L 47.28125 150.890625 L 46.996094 150.46875 L 46.683594 150.09375 L 46.34375 149.773438 L 45.984375 149.5 L 45.597656 149.277344 L 45.1875 149.101562 L 44.75 148.980469 L 44.289062 148.902344 Z M 43.808594 148.878906 "/>
<path fill-rule="nonzero" fill="rgb(10.196078%, 10.196078%, 10.196078%)" fill-opacity="1" d="M 62.507812 147.246094 L 63.191406 147.277344 L 63.839844 147.367188 L 64.453125 147.515625 L 65.035156 147.726562 L 65.582031 147.996094 L 66.097656 148.324219 L 66.578125 148.714844 L 67.023438 149.164062 L 67.433594 149.671875 L 67.8125 150.238281 L 68.152344 150.859375 L 68.460938 151.535156 L 68.730469 152.265625 L 68.964844 153.050781 L 69.164062 153.894531 L 69.324219 154.792969 L 69.449219 155.746094 L 69.539062 156.757812 L 69.59375 157.820312 L 69.613281 158.941406 L 69.59375 160.058594 L 69.539062 161.121094 L 69.449219 162.125 L 69.320312 163.078125 L 69.152344 163.976562 L 68.953125 164.820312 L 68.714844 165.605469 L 68.4375 166.339844 L 68.125 167.023438 L 67.777344 167.648438 L 67.398438 168.210938 L 66.988281 168.710938 L 66.546875 169.15625 L 66.070312 169.539062 L 65.558594 169.867188 L 65.015625 170.132812 L 64.4375 170.339844 L 63.828125 170.488281 L 63.183594 170.574219 L 62.507812 170.605469 L 61.824219 170.574219 L 61.175781 170.488281 L 60.558594 170.339844 L 59.976562 170.132812 L 59.429688 169.867188 L 58.917969 169.539062 L 58.4375 169.15625 L 57.992188 168.710938 L 57.582031 168.210938 L 57.203125 167.648438 L 56.859375 167.019531 L 56.554688 166.339844 L 56.285156 165.605469 L 56.050781 164.8125 L 55.851562 163.964844 L 55.6875 163.066406 L 55.5625 162.109375 L 55.472656 161.097656 L 55.417969 160.03125 L 55.402344 158.910156 L 55.417969 157.789062 L 55.472656 156.722656 L 55.5625 155.710938 L 55.6875 154.757812 L 55.851562 153.859375 L 56.050781 153.019531 L 56.285156 152.230469 L 56.554688 151.5 L 56.859375 150.824219 L 57.203125 150.207031 L 57.582031 149.644531 L 57.992188 149.140625 L 58.4375 148.695312 L 58.917969 148.3125 L 59.429688 147.988281 L 59.976562 147.71875 L 60.558594 147.511719 L 61.175781 147.367188 L 61.824219 147.277344 Z M 62.507812 148.878906 L 61.542969 148.980469 L 60.683594 149.28125 L 59.921875 149.78125 L 59.265625 150.484375 L 58.707031 151.386719 L 58.25 152.488281 L 57.898438 153.792969 L 57.644531 155.296875 L 57.492188 157.003906 L 57.441406 158.910156 L 57.492188 160.820312 L 57.644531 162.53125 L 57.898438 164.042969 L 58.25 165.351562 L 58.707031 166.457031 L 59.265625 167.363281 L 59.921875 168.066406 L 60.683594 168.570312 L 61.542969 168.871094 L 62.507812 168.972656 L 62.992188 168.949219 L 63.449219 168.875 L 63.886719 168.753906 L 64.296875 168.582031 L 64.683594 168.359375 L 65.042969 168.09375 L 65.382812 167.773438 L 65.695312 167.40625 L 65.984375 166.992188 L 66.246094 166.523438 L 66.492188 166.007812 L 66.710938 165.4375 L 66.90625 164.816406 L 67.074219 164.136719 L 67.214844 163.40625 L 67.332031 162.621094 L 67.421875 161.78125 L 67.488281 160.890625 L 67.527344 159.941406 L 67.539062 158.941406 L 67.527344 157.941406 L 67.488281 156.996094 L 67.421875 156.105469 L 67.332031 155.265625 L 67.214844 154.480469 L 67.074219 153.75 L 66.90625 153.070312 L 66.710938 152.449219 L 66.492188 151.878906 L 66.246094 151.359375 L 65.984375 150.890625 L 65.695312 150.46875 L 65.382812 150.09375 L 65.042969 149.773438 L 64.683594 149.5 L 64.296875 149.277344 L 63.886719 149.101562 L 63.449219 148.980469 L 62.992188 148.902344 Z M 62.507812 148.878906 "/>
<path fill-rule="nonzero" fill="rgb(10.196078%, 10.196078%, 10.196078%)" fill-opacity="1" d="M 25.445312 41.375 L 25.824219 41.378906 L 26.1875 41.402344 L 26.542969 41.441406 L 26.886719 41.492188 L 27.222656 41.558594 L 27.546875 41.644531 L 27.863281 41.738281 L 28.167969 41.851562 L 28.460938 41.980469 L 28.746094 42.121094 L 29.023438 42.277344 L 29.289062 42.441406 L 29.539062 42.617188 L 29.777344 42.808594 L 30.003906 43.003906 L 30.214844 43.214844 L 30.410156 43.433594 L 30.59375 43.667969 L 30.765625 43.910156 L 30.921875 44.160156 L 31.0625 44.417969 L 31.191406 44.679688 L 31.300781 44.945312 L 31.398438 45.222656 L 31.480469 45.503906 L 31.550781 45.792969 L 31.601562 46.089844 L 31.640625 46.390625 L 31.660156 46.699219 L 31.667969 47.015625 L 31.65625 47.453125 L 31.617188 47.867188 L 31.554688 48.269531 L 31.46875 48.65625 L 31.355469 49.023438 L 31.214844 49.375 L 31.050781 49.710938 L 30.863281 50.03125 L 30.648438 50.335938 L 30.410156 50.621094 L 30.160156 50.882812 L 29.890625 51.125 L 29.609375 51.34375 L 29.3125 51.546875 L 29 51.726562 L 28.671875 51.886719 L 28.332031 52.027344 L 27.972656 52.144531 L 27.601562 52.242188 L 27.214844 52.320312 L 27.648438 52.355469 L 28.066406 52.417969 L 28.46875 52.507812 L 28.859375 52.625 L 29.230469 52.773438 L 29.585938 52.945312 L 29.925781 53.148438 L 30.25 53.375 L 30.558594 53.632812 L 30.851562 53.917969 L 31.128906 54.222656 L 31.378906 54.550781 L 31.597656 54.898438 L 31.789062 55.269531 L 31.949219 55.660156 L 32.082031 56.078125 L 32.183594 56.515625 L 32.257812 56.976562 L 32.300781 57.460938 L 32.316406 57.964844 L 32.304688 58.355469 L 32.28125 58.738281 L 32.234375 59.109375 L 32.171875 59.472656 L 32.09375 59.828125 L 31.996094 60.171875 L 31.882812 60.507812 L 31.75 60.835938 L 31.597656 61.15625 L 31.429688 61.46875 L 31.246094 61.765625 L 31.046875 62.054688 L 30.828125 62.328125 L 30.597656 62.589844 L 30.351562 62.835938 L 30.089844 63.070312 L 29.808594 63.292969 L 29.515625 63.5 L 29.207031 63.699219 L 28.878906 63.882812 L 28.550781 64.042969 L 28.207031 64.1875 L 27.855469 64.316406 L 27.492188 64.425781 L 27.121094 64.519531 L 26.738281 64.59375 L 26.347656 64.65625 L 25.941406 64.699219 L 25.53125 64.722656 L 25.105469 64.730469 L 24.332031 64.703125 L 23.585938 64.613281 L 22.867188 64.46875 L 22.175781 64.261719 L 21.511719 64 L 20.875 63.679688 L 20.269531 63.296875 L 19.6875 62.859375 L 19.136719 62.363281 L 18.613281 61.808594 L 19.871094 60.683594 L 20.101562 60.929688 L 20.335938 61.160156 L 20.570312 61.378906 L 20.804688 61.582031 L 21.042969 61.773438 L 21.28125 61.949219 L 21.523438 62.113281 L 21.765625 62.261719 L 22.007812 62.398438 L 22.25 62.519531 L 22.503906 62.625 L 22.765625 62.71875 L 23.03125 62.796875 L 23.300781 62.871094 L 23.578125 62.929688 L 23.859375 62.976562 L 24.144531 63.015625 L 24.4375 63.042969 L 24.734375 63.058594 L 25.039062 63.066406 L 25.519531 63.050781 L 25.976562 63.007812 L 26.414062 62.941406 L 26.828125 62.84375 L 27.222656 62.71875 L 27.597656 62.5625 L 27.949219 62.382812 L 28.28125 62.171875 L 28.589844 61.9375 L 28.878906 61.671875 L 29.144531 61.382812 L 29.382812 61.078125 L 29.589844 60.753906 L 29.773438 60.414062 L 29.925781 60.054688 L 30.050781 59.679688 L 30.148438 59.285156 L 30.21875 58.875 L 30.261719 58.445312 L 30.273438 58 L 30.222656 57.09375 L 30.070312 56.285156 L 29.816406 55.570312 L 29.457031 54.953125 L 29 54.429688 L 28.4375 54 L 27.777344 53.667969 L 27.011719 53.429688 L 26.144531 53.285156 L 25.175781 53.238281 L 23.679688 53.238281 L 23.949219 51.640625 L 25.039062 51.640625 L 25.421875 51.628906 L 25.789062 51.59375 L 26.148438 51.539062 L 26.496094 51.457031 L 26.832031 51.351562 L 27.15625 51.226562 L 27.46875 51.074219 L 27.769531 50.902344 L 28.058594 50.703125 L 28.335938 50.484375 L 28.59375 50.238281 L 28.828125 49.96875 L 29.03125 49.683594 L 29.207031 49.375 L 29.355469 49.050781 L 29.480469 48.703125 L 29.574219 48.335938 L 29.640625 47.949219 L 29.683594 47.542969 L 29.695312 47.121094 L 29.683594 46.753906 L 29.648438 46.402344 L 29.589844 46.066406 L 29.507812 45.75 L 29.398438 45.445312 L 29.269531 45.15625 L 29.113281 44.882812 L 28.933594 44.628906 L 28.734375 44.386719 L 28.507812 44.160156 L 28.261719 43.949219 L 28 43.757812 L 27.722656 43.589844 L 27.429688 43.441406 L 27.121094 43.320312 L 26.796875 43.21875 L 26.457031 43.140625 L 26.101562 43.085938 L 25.730469 43.050781 L 25.34375 43.039062 L 25.0625 43.042969 L 24.78125 43.058594 L 24.507812 43.085938 L 24.242188 43.121094 L 23.976562 43.167969 L 23.71875 43.222656 L 23.460938 43.289062 L 23.210938 43.367188 L 22.96875 43.453125 L 22.726562 43.550781 L 22.488281 43.652344 L 22.25 43.765625 L 22.007812 43.894531 L 21.769531 44.035156 L 21.527344 44.1875 L 21.285156 44.351562 L 21.042969 44.53125 L 20.800781 44.722656 L 20.558594 44.929688 L 20.3125 45.148438 L 19.257812 43.921875 L 19.53125 43.671875 L 19.808594 43.433594 L 20.085938 43.210938 L 20.367188 43 L 20.652344 42.800781 L 20.941406 42.617188 L 21.230469 42.449219 L 21.523438 42.292969 L 21.816406 42.148438 L 22.113281 42.019531 L 22.417969 41.898438 L 22.726562 41.785156 L 23.042969 41.691406 L 23.367188 41.605469 L 23.695312 41.535156 L 24.03125 41.476562 L 24.375 41.429688 L 24.726562 41.398438 L 25.082031 41.378906 Z M 25.445312 41.375 "/>
<path fill-rule="nonzero" fill="rgb(10.196078%, 10.196078%, 10.196078%)" fill-opacity="1" d="M 43.808594 41.375 L 44.488281 41.402344 L 45.140625 41.492188 L 45.753906 41.644531 L 46.335938 41.851562 L 46.882812 42.121094 L 47.398438 42.449219 L 47.875 42.839844 L 48.320312 43.289062 L 48.734375 43.796875 L 49.109375 44.367188 L 49.453125 44.984375 L 49.757812 45.660156 L 50.03125 46.390625 L 50.265625 47.179688 L 50.460938 48.019531 L 50.625 48.917969 L 50.75 49.871094 L 50.839844 50.882812 L 50.894531 51.949219 L 50.914062 53.070312 L 50.894531 54.183594 L 50.839844 55.246094 L 50.746094 56.25 L 50.617188 57.203125 L 50.453125 58.101562 L 50.25 58.945312 L 50.011719 59.734375 L 49.738281 60.46875 L 49.425781 61.148438 L 49.078125 61.773438 L 48.699219 62.335938 L 48.289062 62.839844 L 47.84375 63.28125 L 47.367188 63.667969 L 46.859375 63.992188 L 46.316406 64.257812 L 45.738281 64.464844 L 45.128906 64.613281 L 44.484375 64.703125 L 43.808594 64.730469 L 43.125 64.703125 L 42.472656 64.613281 L 41.859375 64.464844 L 41.277344 64.257812 L 40.730469 63.992188 L 40.214844 63.667969 L 39.738281 63.28125 L 39.292969 62.839844 L 38.878906 62.335938 L 38.503906 61.773438 L 38.160156 61.148438 L 37.855469 60.464844 L 37.582031 59.730469 L 37.347656 58.9375 L 37.152344 58.09375 L 36.988281 57.191406 L 36.863281 56.234375 L 36.773438 55.222656 L 36.71875 54.15625 L 36.699219 53.035156 L 36.71875 51.914062 L 36.773438 50.847656 L 36.863281 49.839844 L 36.988281 48.882812 L 37.152344 47.988281 L 37.347656 47.144531 L 37.582031 46.355469 L 37.855469 45.625 L 38.160156 44.949219 L 38.503906 44.332031 L 38.878906 43.769531 L 39.292969 43.265625 L 39.738281 42.824219 L 40.214844 42.4375 L 40.730469 42.113281 L 41.277344 41.847656 L 41.859375 41.640625 L 42.472656 41.492188 L 43.125 41.402344 Z M 43.808594 43.003906 L 42.84375 43.105469 L 41.984375 43.40625 L 41.222656 43.90625 L 40.566406 44.609375 L 40.007812 45.511719 L 39.550781 46.617188 L 39.195312 47.921875 L 38.945312 49.425781 L 38.792969 51.128906 L 38.742188 53.035156 L 38.792969 54.949219 L 38.945312 56.660156 L 39.195312 58.167969 L 39.550781 59.476562 L 40.007812 60.582031 L 40.566406 61.488281 L 41.222656 62.195312 L 41.984375 62.695312 L 42.84375 63 L 43.808594 63.097656 L 44.289062 63.074219 L 44.75 63 L 45.1875 62.878906 L 45.597656 62.707031 L 45.984375 62.488281 L 46.34375 62.21875 L 46.683594 61.898438 L 46.996094 61.53125 L 47.28125 61.117188 L 47.546875 60.652344 L 47.792969 60.136719 L 48.011719 59.566406 L 48.207031 58.941406 L 48.375 58.261719 L 48.515625 57.53125 L 48.632812 56.746094 L 48.722656 55.90625 L 48.785156 55.015625 L 48.824219 54.070312 L 48.839844 53.070312 L 48.824219 52.070312 L 48.785156 51.125 L 48.722656 50.230469 L 48.632812 49.390625 L 48.515625 48.605469 L 48.375 47.875 L 48.207031 47.199219 L 48.011719 46.574219 L 47.792969 46.003906 L 47.546875 45.488281 L 47.28125 45.015625 L 46.996094 44.59375 L 46.683594 44.222656 L 46.34375 43.898438 L 45.984375 43.625 L 45.597656 43.402344 L 45.1875 43.230469 L 44.75 43.105469 L 44.289062 43.03125 Z M 43.808594 43.003906 "/>
<path fill-rule="nonzero" fill="rgb(10.196078%, 10.196078%, 10.196078%)" fill-opacity="1" d="M 62.507812 41.375 L 63.191406 41.402344 L 63.839844 41.492188 L 64.453125 41.644531 L 65.035156 41.851562 L 65.582031 42.121094 L 66.097656 42.449219 L 66.578125 42.839844 L 67.023438 43.289062 L 67.433594 43.796875 L 67.8125 44.367188 L 68.152344 44.984375 L 68.460938 45.660156 L 68.730469 46.390625 L 68.964844 47.179688 L 69.164062 48.019531 L 69.324219 48.917969 L 69.449219 49.871094 L 69.539062 50.882812 L 69.59375 51.949219 L 69.613281 53.070312 L 69.59375 54.183594 L 69.539062 55.246094 L 69.449219 56.25 L 69.320312 57.203125 L 69.152344 58.101562 L 68.953125 58.945312 L 68.714844 59.734375 L 68.4375 60.46875 L 68.125 61.148438 L 67.777344 61.773438 L 67.398438 62.335938 L 66.988281 62.839844 L 66.546875 63.28125 L 66.070312 63.667969 L 65.558594 63.992188 L 65.015625 64.257812 L 64.4375 64.464844 L 63.828125 64.613281 L 63.183594 64.703125 L 62.507812 64.730469 L 61.824219 64.703125 L 61.175781 64.613281 L 60.558594 64.464844 L 59.976562 64.257812 L 59.429688 63.992188 L 58.917969 63.667969 L 58.4375 63.28125 L 57.992188 62.839844 L 57.582031 62.335938 L 57.203125 61.773438 L 56.859375 61.148438 L 56.554688 60.464844 L 56.285156 59.730469 L 56.050781 58.9375 L 55.851562 58.09375 L 55.6875 57.191406 L 55.5625 56.234375 L 55.472656 55.222656 L 55.417969 54.15625 L 55.402344 53.035156 L 55.417969 51.914062 L 55.472656 50.847656 L 55.5625 49.839844 L 55.6875 48.882812 L 55.851562 47.988281 L 56.050781 47.144531 L 56.285156 46.355469 L 56.554688 45.625 L 56.859375 44.949219 L 57.203125 44.332031 L 57.582031 43.769531 L 57.992188 43.265625 L 58.4375 42.824219 L 58.917969 42.4375 L 59.429688 42.113281 L 59.976562 41.847656 L 60.558594 41.640625 L 61.175781 41.492188 L 61.824219 41.402344 Z M 62.507812 43.003906 L 61.542969 43.105469 L 60.683594 43.40625 L 59.921875 43.90625 L 59.265625 44.609375 L 58.707031 45.511719 L 58.25 46.617188 L 57.898438 47.921875 L 57.644531 49.425781 L 57.492188 51.128906 L 57.441406 53.035156 L 57.492188 54.949219 L 57.644531 56.660156 L 57.898438 58.167969 L 58.25 59.476562 L 58.707031 60.582031 L 59.265625 61.488281 L 59.921875 62.195312 L 60.683594 62.695312 L 61.542969 63 L 62.507812 63.097656 L 62.992188 63.074219 L 63.449219 63 L 63.886719 62.878906 L 64.296875 62.707031 L 64.683594 62.488281 L 65.042969 62.21875 L 65.382812 61.898438 L 65.695312 61.53125 L 65.984375 61.117188 L 66.246094 60.652344 L 66.492188 60.136719 L 66.710938 59.566406 L 66.90625 58.941406 L 67.074219 58.261719 L 67.214844 57.53125 L 67.332031 56.746094 L 67.421875 55.90625 L 67.488281 55.015625 L 67.527344 54.070312 L 67.539062 53.070312 L 67.527344 52.070312 L 67.488281 51.125 L 67.421875 50.230469 L 67.332031 49.390625 L 67.214844 48.605469 L 67.074219 47.875 L 66.90625 47.199219 L 66.710938 46.574219 L 66.492188 46.003906 L 66.246094 45.488281 L 65.984375 45.015625 L 65.695312 44.59375 L 65.382812 44.222656 L 65.042969 43.898438 L 64.683594 43.625 L 64.296875 43.402344 L 63.886719 43.230469 L 63.449219 43.105469 L 62.992188 43.03125 Z M 62.507812 43.003906 "/>
<path fill-rule="nonzero" fill="rgb(10.196078%, 10.196078%, 10.196078%)" fill-opacity="1" d="M 187.300781 403.5625 L 187.859375 403.578125 L 188.394531 403.628906 L 188.90625 403.710938 L 189.394531 403.828125 L 189.859375 403.976562 L 190.300781 404.160156 L 190.714844 404.375 L 191.109375 404.625 L 191.476562 404.910156 L 191.824219 405.226562 L 192.144531 405.570312 L 192.433594 405.929688 L 192.691406 406.3125 L 192.910156 406.710938 L 193.097656 407.128906 L 193.25 407.570312 L 193.371094 408.027344 L 193.453125 408.5 L 193.507812 408.996094 L 193.523438 409.511719 L 193.515625 409.949219 L 193.484375 410.382812 L 193.441406 410.8125 L 193.375 411.234375 L 193.292969 411.652344 L 193.191406 412.066406 L 193.074219 412.472656 L 192.933594 412.871094 L 192.78125 413.269531 L 192.605469 413.660156 L 192.410156 414.050781 L 192.195312 414.449219 L 191.960938 414.855469 L 191.703125 415.269531 L 191.421875 415.691406 L 191.125 416.117188 L 190.804688 416.554688 L 190.460938 417 L 190.097656 417.449219 L 189.714844 417.910156 L 189.304688 418.394531 L 188.84375 418.925781 L 188.335938 419.5 L 187.777344 420.121094 L 187.171875 420.789062 L 186.519531 421.503906 L 185.820312 422.261719 L 185.070312 423.066406 L 184.269531 423.914062 L 183.425781 424.8125 L 194.136719 424.8125 L 193.863281 426.542969 L 181.113281 426.542969 L 181.113281 424.878906 L 182.019531 423.910156 L 182.871094 422.996094 L 183.667969 422.132812 L 184.414062 421.320312 L 185.109375 420.5625 L 185.746094 419.851562 L 186.335938 419.195312 L 186.867188 418.589844 L 187.347656 418.035156 L 187.777344 417.535156 L 188.171875 417.058594 L 188.542969 416.597656 L 188.890625 416.148438 L 189.214844 415.710938 L 189.511719 415.289062 L 189.785156 414.882812 L 190.03125 414.488281 L 190.257812 414.105469 L 190.457031 413.738281 L 190.632812 413.386719 L 190.792969 413.03125 L 190.9375 412.667969 L 191.066406 412.304688 L 191.175781 411.933594 L 191.269531 411.558594 L 191.347656 411.179688 L 191.40625 410.792969 L 191.449219 410.40625 L 191.472656 410.011719 L 191.484375 409.613281 L 191.472656 409.21875 L 191.433594 408.84375 L 191.375 408.484375 L 191.292969 408.136719 L 191.183594 407.8125 L 191.054688 407.5 L 190.898438 407.203125 L 190.722656 406.925781 L 190.519531 406.664062 L 190.292969 406.417969 L 190.054688 406.191406 L 189.800781 405.988281 L 189.527344 405.808594 L 189.242188 405.65625 L 188.941406 405.523438 L 188.625 405.417969 L 188.292969 405.332031 L 187.941406 405.273438 L 187.578125 405.238281 L 187.199219 405.226562 L 186.890625 405.234375 L 186.585938 405.253906 L 186.292969 405.285156 L 186.003906 405.328125 L 185.71875 405.386719 L 185.445312 405.460938 L 185.175781 405.542969 L 184.914062 405.640625 L 184.660156 405.75 L 184.410156 405.871094 L 184.175781 406.007812 L 183.9375 406.15625 L 183.707031 406.316406 L 183.476562 406.492188 L 183.246094 406.679688 L 183.019531 406.878906 L 182.792969 407.09375 L 182.570312 407.320312 L 182.351562 407.558594 L 182.132812 407.8125 L 180.773438 406.789062 L 181.046875 406.464844 L 181.324219 406.160156 L 181.605469 405.871094 L 181.894531 405.597656 L 182.183594 405.34375 L 182.476562 405.109375 L 182.777344 404.890625 L 183.078125 404.691406 L 183.386719 404.507812 L 183.695312 404.34375 L 184.019531 404.195312 L 184.351562 404.0625 L 184.691406 403.945312 L 185.039062 403.84375 L 185.398438 403.757812 L 185.761719 403.6875 L 186.132812 403.632812 L 186.515625 403.59375 L 186.902344 403.570312 Z M 187.300781 403.5625 "/>
<path fill-rule="nonzero" fill="rgb(10.196078%, 10.196078%, 10.196078%)" fill-opacity="1" d="M 205.285156 403.5625 L 205.96875 403.589844 L 206.621094 403.679688 L 207.234375 403.828125 L 207.816406 404.039062 L 208.363281 404.308594 L 208.878906 404.636719 L 209.355469 405.027344 L 209.800781 405.476562 L 210.214844 405.984375 L 210.589844 406.550781 L 210.933594 407.171875 L 211.238281 407.847656 L 211.511719 408.578125 L 211.746094 409.363281 L 211.941406 410.207031 L 212.105469 411.105469 L 212.230469 412.058594 L 212.320312 413.070312 L 212.375 414.136719 L 212.394531 415.257812 L 212.375 416.371094 L 212.320312 417.433594 L 212.226562 418.4375 L 212.097656 419.390625 L 211.933594 420.289062 L 211.730469 421.132812 L 211.492188 421.921875 L 211.21875 422.65625 L 210.90625 423.335938 L 210.558594 423.960938 L 210.179688 424.523438 L 209.769531 425.027344 L 209.324219 425.46875 L 208.847656 425.855469 L 208.339844 426.179688 L 207.792969 426.445312 L 207.21875 426.652344 L 206.609375 426.800781 L 205.964844 426.890625 L 205.285156 426.917969 L 204.601562 426.890625 L 203.953125 426.800781 L 203.339844 426.652344 L 202.757812 426.445312 L 202.210938 426.179688 L 201.695312 425.855469 L 201.21875 425.46875 L 200.773438 425.027344 L 200.359375 424.523438 L 199.984375 423.960938 L 199.640625 423.335938 L 199.335938 422.652344 L 199.0625 421.917969 L 198.828125 421.125 L 198.632812 420.28125 L 198.46875 419.378906 L 198.34375 418.421875 L 198.253906 417.410156 L 198.199219 416.34375 L 198.179688 415.222656 L 198.199219 414.101562 L 198.253906 413.035156 L 198.34375 412.027344 L 198.46875 411.070312 L 198.632812 410.171875 L 198.828125 409.332031 L 199.0625 408.542969 L 199.335938 407.8125 L 199.640625 407.136719 L 199.984375 406.519531 L 200.359375 405.957031 L 200.773438 405.453125 L 201.21875 405.011719 L 201.695312 404.625 L 202.210938 404.300781 L 202.757812 404.035156 L 203.339844 403.828125 L 203.953125 403.679688 L 204.601562 403.589844 Z M 205.285156 405.191406 L 204.324219 405.292969 L 203.464844 405.59375 L 202.703125 406.09375 L 202.042969 406.796875 L 201.488281 407.699219 L 201.03125 408.804688 L 200.675781 410.105469 L 200.421875 411.613281 L 200.273438 413.316406 L 200.222656 415.222656 L 200.273438 417.136719 L 200.421875 418.84375 L 200.675781 420.355469 L 201.03125 421.664062 L 201.488281 422.769531 L 202.042969 423.675781 L 202.703125 424.378906 L 203.464844 424.882812 L 204.324219 425.1875 L 205.285156 425.285156 L 205.769531 425.261719 L 206.230469 425.1875 L 206.664062 425.066406 L 207.078125 424.894531 L 207.464844 424.675781 L 207.824219 424.40625 L 208.160156 424.085938 L 208.476562 423.71875 L 208.761719 423.304688 L 209.027344 422.839844 L 209.273438 422.320312 L 209.492188 421.753906 L 209.6875 421.128906 L 209.855469 420.449219 L 209.996094 419.71875 L 210.113281 418.933594 L 210.203125 418.09375 L 210.265625 417.203125 L 210.304688 416.257812 L 210.320312 415.257812 L 210.304688 414.257812 L 210.265625 413.308594 L 210.203125 412.417969 L 210.113281 411.578125 L 209.996094 410.792969 L 209.855469 410.0625 L 209.6875 409.386719 L 209.492188 408.761719 L 209.273438 408.191406 L 209.027344 407.675781 L 208.761719 407.203125 L 208.476562 406.78125 L 208.160156 406.410156 L 207.824219 406.085938 L 207.464844 405.8125 L 207.078125 405.589844 L 206.664062 405.414062 L 206.230469 405.292969 L 205.769531 405.21875 Z M 205.285156 405.191406 "/>
<path fill-rule="nonzero" fill="rgb(10.196078%, 10.196078%, 10.196078%)" fill-opacity="1" d="M 374.957031 403.5625 L 375.515625 403.578125 L 376.050781 403.628906 L 376.5625 403.710938 L 377.050781 403.828125 L 377.511719 403.976562 L 377.953125 404.160156 L 378.371094 404.375 L 378.761719 404.625 L 379.132812 404.910156 L 379.476562 405.226562 L 379.800781 405.570312 L 380.089844 405.929688 L 380.34375 406.3125 L 380.566406 406.710938 L 380.753906 407.128906 L 380.90625 407.570312 L 381.023438 408.027344 L 381.109375 408.5 L 381.160156 408.996094 L 381.175781 409.511719 L 381.167969 409.949219 L 381.140625 410.382812 L 381.09375 410.8125 L 381.03125 411.234375 L 380.949219 411.652344 L 380.847656 412.066406 L 380.726562 412.472656 L 380.589844 412.871094 L 380.433594 413.269531 L 380.257812 413.660156 L 380.066406 414.050781 L 379.851562 414.449219 L 379.613281 414.855469 L 379.355469 415.269531 L 379.078125 415.691406 L 378.777344 416.117188 L 378.457031 416.554688 L 378.117188 417 L 377.753906 417.449219 L 377.371094 417.910156 L 376.957031 418.394531 L 376.496094 418.925781 L 375.988281 419.5 L 375.433594 420.121094 L 374.828125 420.789062 L 374.175781 421.503906 L 373.472656 422.261719 L 372.722656 423.066406 L 371.925781 423.914062 L 371.078125 424.8125 L 381.789062 424.8125 L 381.515625 426.542969 L 368.765625 426.542969 L 368.765625 424.878906 L 369.671875 423.910156 L 370.523438 422.996094 L 371.324219 422.132812 L 372.070312 421.320312 L 372.761719 420.5625 L 373.402344 419.851562 L 373.988281 419.195312 L 374.523438 418.589844 L 375.003906 418.035156 L 375.429688 417.535156 L 375.828125 417.058594 L 376.199219 416.597656 L 376.546875 416.148438 L 376.867188 415.710938 L 377.164062 415.289062 L 377.4375 414.882812 L 377.6875 414.488281 L 377.910156 414.105469 L 378.113281 413.738281 L 378.289062 413.386719 L 378.449219 413.03125 L 378.59375 412.667969 L 378.71875 412.304688 L 378.832031 411.933594 L 378.925781 411.558594 L 379 411.179688 L 379.0625 410.792969 L 379.101562 410.40625 L 379.128906 410.011719 L 379.136719 409.613281 L 379.125 409.21875 L 379.089844 408.84375 L 379.03125 408.484375 L 378.945312 408.136719 L 378.839844 407.8125 L 378.707031 407.5 L 378.554688 407.203125 L 378.375 406.925781 L 378.171875 406.664062 L 377.945312 406.417969 L 377.707031 406.191406 L 377.453125 405.988281 L 377.183594 405.808594 L 376.898438 405.65625 L 376.59375 405.523438 L 376.277344 405.417969 L 375.945312 405.332031 L 375.597656 405.273438 L 375.234375 405.238281 L 374.851562 405.226562 L 374.542969 405.234375 L 374.242188 405.253906 L 373.945312 405.285156 L 373.65625 405.328125 L 373.375 405.386719 L 373.097656 405.460938 L 372.832031 405.542969 L 372.570312 405.640625 L 372.3125 405.75 L 372.066406 405.871094 L 371.828125 406.007812 L 371.59375 406.15625 L 371.359375 406.316406 L 371.128906 406.492188 L 370.902344 406.679688 L 370.675781 406.878906 L 370.449219 407.09375 L 370.226562 407.320312 L 370.003906 407.558594 L 369.789062 407.8125 L 368.425781 406.789062 L 368.703125 406.464844 L 368.980469 406.160156 L 369.261719 405.871094 L 369.546875 405.597656 L 369.839844 405.34375 L 370.132812 405.109375 L 370.429688 404.890625 L 370.734375 404.691406 L 371.039062 404.507812 L 371.351562 404.34375 L 371.675781 404.195312 L 372.007812 404.0625 L 372.347656 403.945312 L 372.695312 403.84375 L 373.050781 403.757812 L 373.414062 403.6875 L 373.789062 403.632812 L 374.167969 403.59375 L 374.558594 403.570312 Z M 374.957031 403.5625 "/>
<path fill-rule="nonzero" fill="rgb(10.196078%, 10.196078%, 10.196078%)" fill-opacity="1" d="M 400.011719 418.960938 L 400.011719 420.59375 L 396.953125 420.59375 L 396.953125 426.542969 L 395.015625 426.542969 L 395.015625 420.59375 L 385.121094 420.59375 L 385.121094 419.132812 L 392.023438 403.5625 L 393.6875 404.242188 L 387.230469 418.960938 L 395.015625 418.960938 L 395.253906 412.332031 L 396.953125 412.332031 L 396.953125 418.960938 Z M 400.011719 418.960938 "/>
<path fill-rule="nonzero" fill="rgb(10.196078%, 10.196078%, 10.196078%)" fill-opacity="1" d="M 561.726562 403.5625 L 562.285156 403.578125 L 562.820312 403.628906 L 563.332031 403.710938 L 563.820312 403.828125 L 564.285156 403.976562 L 564.722656 404.160156 L 565.140625 404.375 L 565.535156 404.625 L 565.902344 404.910156 L 566.246094 405.226562 L 566.570312 405.570312 L 566.859375 405.929688 L 567.113281 406.3125 L 567.335938 406.710938 L 567.523438 407.128906 L 567.675781 407.570312 L 567.792969 408.027344 L 567.878906 408.5 L 567.929688 408.996094 L 567.949219 409.511719 L 567.9375 409.949219 L 567.910156 410.382812 L 567.863281 410.8125 L 567.800781 411.234375 L 567.71875 411.652344 L 567.617188 412.066406 L 567.496094 412.472656 L 567.359375 412.871094 L 567.203125 413.269531 L 567.03125 413.660156 L 566.835938 414.050781 L 566.621094 414.449219 L 566.382812 414.855469 L 566.125 415.269531 L 565.847656 415.691406 L 565.546875 416.117188 L 565.226562 416.554688 L 564.886719 417 L 564.523438 417.449219 L 564.140625 417.910156 L 563.726562 418.394531 L 563.269531 418.925781 L 562.757812 419.5 L 562.203125 420.121094 L 561.597656 420.789062 L 560.945312 421.503906 L 560.242188 422.261719 L 559.492188 423.066406 L 558.695312 423.914062 L 557.847656 424.8125 L 568.558594 424.8125 L 568.289062 426.542969 L 555.539062 426.542969 L 555.539062 424.878906 L 556.441406 423.910156 L 557.292969 422.996094 L 558.09375 422.132812 L 558.839844 421.320312 L 559.53125 420.5625 L 560.171875 419.851562 L 560.757812 419.195312 L 561.292969 418.589844 L 561.773438 418.035156 L 562.203125 417.535156 L 562.597656 417.058594 L 562.96875 416.597656 L 563.316406 416.148438 L 563.636719 415.710938 L 563.933594 415.289062 L 564.207031 414.882812 L 564.457031 414.488281 L 564.683594 414.105469 L 564.882812 413.738281 L 565.058594 413.386719 L 565.21875 413.03125 L 565.363281 412.667969 L 565.492188 412.304688 L 565.601562 411.933594 L 565.695312 411.558594 L 565.769531 411.179688 L 565.832031 410.792969 L 565.875 410.40625 L 565.898438 410.011719 L 565.90625 409.613281 L 565.894531 409.21875 L 565.859375 408.84375 L 565.800781 408.484375 L 565.71875 408.136719 L 565.609375 407.8125 L 565.480469 407.5 L 565.324219 407.203125 L 565.144531 406.925781 L 564.945312 406.664062 L 564.71875 406.417969 L 564.476562 406.191406 L 564.222656 405.988281 L 563.953125 405.808594 L 563.667969 405.65625 L 563.367188 405.523438 L 563.046875 405.417969 L 562.714844 405.332031 L 562.367188 405.273438 L 562.003906 405.238281 L 561.625 405.226562 L 561.3125 405.234375 L 561.011719 405.253906 L 560.714844 405.285156 L 560.425781 405.328125 L 560.144531 405.386719 L 559.867188 405.460938 L 559.601562 405.542969 L 559.339844 405.640625 L 559.082031 405.75 L 558.835938 405.871094 L 558.597656 406.007812 L 558.363281 406.15625 L 558.128906 406.316406 L 557.898438 406.492188 L 557.671875 406.679688 L 557.445312 406.878906 L 557.21875 407.09375 L 556.996094 407.320312 L 556.777344 407.558594 L 556.558594 407.8125 L 555.199219 406.789062 L 555.472656 406.464844 L 555.75 406.160156 L 556.03125 405.871094 L 556.316406 405.597656 L 556.609375 405.34375 L 556.902344 405.109375 L 557.203125 404.890625 L 557.503906 404.691406 L 557.8125 404.507812 L 558.121094 404.34375 L 558.445312 404.195312 L 558.777344 404.0625 L 559.117188 403.945312 L 559.464844 403.84375 L 559.820312 403.757812 L 560.1875 403.6875 L 560.558594 403.632812 L 560.9375 403.59375 L 561.328125 403.570312 Z M 561.726562 403.5625 "/>
<path fill-rule="nonzero" fill="rgb(10.196078%, 10.196078%, 10.196078%)" fill-opacity="1" d="M 581.820312 414.578125 L 582.328125 414.792969 L 582.808594 415.011719 L 583.261719 415.242188 L 583.683594 415.480469 L 584.082031 415.722656 L 584.445312 415.976562 L 584.785156 416.234375 L 585.09375 416.503906 L 585.375 416.777344 L 585.628906 417.058594 L 585.859375 417.34375 L 586.066406 417.648438 L 586.25 417.96875 L 586.410156 418.304688 L 586.546875 418.65625 L 586.65625 419.023438 L 586.742188 419.410156 L 586.800781 419.8125 L 586.839844 420.230469 L 586.851562 420.664062 L 586.84375 421.03125 L 586.8125 421.394531 L 586.765625 421.746094 L 586.699219 422.085938 L 586.613281 422.421875 L 586.507812 422.746094 L 586.386719 423.0625 L 586.242188 423.371094 L 586.082031 423.671875 L 585.898438 423.960938 L 585.707031 424.234375 L 585.5 424.492188 L 585.277344 424.742188 L 585.039062 424.976562 L 584.785156 425.203125 L 584.515625 425.414062 L 584.230469 425.613281 L 583.929688 425.800781 L 583.613281 425.972656 L 583.28125 426.136719 L 582.941406 426.285156 L 582.59375 426.417969 L 582.234375 426.535156 L 581.867188 426.636719 L 581.488281 426.722656 L 581.097656 426.792969 L 580.699219 426.847656 L 580.289062 426.886719 L 579.871094 426.910156 L 579.4375 426.917969 L 579.007812 426.910156 L 578.589844 426.886719 L 578.179688 426.847656 L 577.78125 426.792969 L 577.390625 426.722656 L 577.011719 426.636719 L 576.644531 426.535156 L 576.285156 426.417969 L 575.9375 426.285156 L 575.597656 426.136719 L 575.277344 425.972656 L 574.972656 425.800781 L 574.683594 425.613281 L 574.40625 425.414062 L 574.144531 425.203125 L 573.894531 424.976562 L 573.664062 424.742188 L 573.441406 424.492188 L 573.238281 424.234375 L 573.046875 423.960938 L 572.878906 423.671875 L 572.730469 423.375 L 572.597656 423.066406 L 572.480469 422.753906 L 572.382812 422.429688 L 572.304688 422.101562 L 572.242188 421.761719 L 572.199219 421.414062 L 572.171875 421.058594 L 572.164062 420.695312 L 572.210938 419.851562 L 572.359375 419.050781 L 572.601562 418.300781 L 572.941406 417.601562 L 573.378906 416.949219 L 573.914062 416.34375 L 574.546875 415.785156 L 575.273438 415.277344 L 576.101562 414.816406 L 577.027344 414.40625 L 576.636719 414.21875 L 576.265625 414.027344 L 575.917969 413.832031 L 575.589844 413.628906 L 575.28125 413.421875 L 574.996094 413.207031 L 574.734375 412.988281 L 574.492188 412.765625 L 574.269531 412.535156 L 574.066406 412.296875 L 573.894531 412.046875 L 573.738281 411.78125 L 573.597656 411.507812 L 573.480469 411.214844 L 573.378906 410.914062 L 573.296875 410.597656 L 573.230469 410.269531 L 573.1875 409.925781 L 573.160156 409.570312 L 573.148438 409.203125 L 573.160156 408.863281 L 573.183594 408.527344 L 573.230469 408.203125 L 573.289062 407.886719 L 573.371094 407.582031 L 573.46875 407.28125 L 573.582031 406.992188 L 573.714844 406.714844 L 573.867188 406.441406 L 574.035156 406.179688 L 574.214844 405.925781 L 574.410156 405.6875 L 574.617188 405.460938 L 574.832031 405.25 L 575.0625 405.046875 L 575.300781 404.859375 L 575.554688 404.6875 L 575.816406 404.523438 L 576.09375 404.375 L 576.378906 404.242188 L 576.675781 404.113281 L 576.972656 403.996094 L 577.273438 403.894531 L 577.582031 403.804688 L 577.890625 403.730469 L 578.207031 403.667969 L 578.527344 403.621094 L 578.847656 403.585938 L 579.175781 403.566406 L 579.507812 403.5625 L 579.839844 403.566406 L 580.164062 403.585938 L 580.488281 403.617188 L 580.808594 403.664062 L 581.121094 403.722656 L 581.433594 403.792969 L 581.738281 403.878906 L 582.042969 403.972656 L 582.339844 404.082031 L 582.636719 404.207031 L 582.921875 404.34375 L 583.195312 404.488281 L 583.460938 404.648438 L 583.710938 404.820312 L 583.953125 405.003906 L 584.183594 405.203125 L 584.398438 405.410156 L 584.605469 405.632812 L 584.800781 405.863281 L 584.980469 406.109375 L 585.15625 406.367188 L 585.3125 406.636719 L 585.449219 406.914062 L 585.570312 407.203125 L 585.671875 407.503906 L 585.753906 407.816406 L 585.816406 408.136719 L 585.863281 408.472656 L 585.890625 408.816406 L 585.898438 409.171875 L 585.890625 409.519531 L 585.859375 409.859375 L 585.8125 410.1875 L 585.742188 410.507812 L 585.652344 410.820312 L 585.542969 411.121094 L 585.417969 411.414062 L 585.269531 411.695312 L 585.101562 411.96875 L 584.914062 412.230469 L 584.703125 412.480469 L 584.472656 412.726562 L 584.222656 412.96875 L 583.945312 413.210938 L 583.648438 413.445312 L 583.328125 413.679688 L 582.984375 413.910156 L 582.617188 414.132812 L 582.230469 414.355469 Z M 575.121094 409.238281 L 575.128906 409.558594 L 575.15625 409.863281 L 575.203125 410.15625 L 575.269531 410.433594 L 575.351562 410.699219 L 575.453125 410.953125 L 575.570312 411.191406 L 575.707031 411.414062 L 575.863281 411.625 L 576.039062 411.824219 L 576.242188 412.011719 L 576.476562 412.199219 L 576.734375 412.382812 L 577.019531 412.566406 L 577.332031 412.75 L 577.671875 412.929688 L 578.039062 413.105469 L 578.433594 413.28125 L 578.855469 413.453125 L 579.304688 413.625 L 580.359375 414 L 580.726562 413.792969 L 581.074219 413.585938 L 581.402344 413.378906 L 581.707031 413.171875 L 581.988281 412.960938 L 582.25 412.75 L 582.488281 412.539062 L 582.707031 412.324219 L 582.902344 412.109375 L 583.078125 411.890625 L 583.238281 411.667969 L 583.382812 411.4375 L 583.511719 411.195312 L 583.621094 410.945312 L 583.714844 410.683594 L 583.792969 410.414062 L 583.851562 410.132812 L 583.894531 409.84375 L 583.917969 409.546875 L 583.925781 409.238281 L 583.914062 408.859375 L 583.878906 408.496094 L 583.816406 408.152344 L 583.730469 407.824219 L 583.621094 407.511719 L 583.488281 407.21875 L 583.328125 406.941406 L 583.144531 406.683594 L 582.9375 406.4375 L 582.703125 406.210938 L 582.457031 406.007812 L 582.195312 405.820312 L 581.914062 405.65625 L 581.621094 405.515625 L 581.308594 405.398438 L 580.980469 405.296875 L 580.636719 405.222656 L 580.277344 405.167969 L 579.902344 405.136719 L 579.507812 405.125 L 579.128906 405.136719 L 578.761719 405.167969 L 578.410156 405.222656 L 578.070312 405.296875 L 577.746094 405.398438 L 577.4375 405.515625 L 577.144531 405.65625 L 576.863281 405.820312 L 576.597656 406.007812 L 576.34375 406.210938 L 576.113281 406.4375 L 575.90625 406.683594 L 575.722656 406.941406 L 575.5625 407.21875 L 575.425781 407.511719 L 575.316406 407.824219 L 575.230469 408.152344 L 575.171875 408.496094 L 575.132812 408.859375 Z M 579.472656 425.253906 L 579.945312 425.242188 L 580.398438 425.203125 L 580.832031 425.144531 L 581.246094 425.0625 L 581.640625 424.957031 L 582.015625 424.824219 L 582.371094 424.667969 L 582.703125 424.492188 L 583.019531 424.289062 L 583.316406 424.0625 L 583.59375 423.808594 L 583.839844 423.535156 L 584.0625 423.242188 L 584.25 422.929688 L 584.410156 422.601562 L 584.542969 422.25 L 584.644531 421.882812 L 584.71875 421.496094 L 584.761719 421.089844 L 584.777344 420.664062 L 584.773438 420.394531 L 584.757812 420.136719 L 584.730469 419.890625 L 584.695312 419.652344 L 584.648438 419.421875 L 584.59375 419.203125 L 584.527344 418.992188 L 584.449219 418.792969 L 584.363281 418.601562 L 584.265625 418.417969 L 584.160156 418.238281 L 584.042969 418.0625 L 583.914062 417.890625 L 583.773438 417.726562 L 583.621094 417.570312 L 583.460938 417.414062 L 583.285156 417.265625 L 583.101562 417.125 L 582.910156 416.988281 L 582.703125 416.855469 L 582.484375 416.71875 L 582.246094 416.582031 L 581.996094 416.445312 L 581.722656 416.304688 L 581.4375 416.167969 L 581.132812 416.027344 L 580.8125 415.886719 L 580.472656 415.746094 L 580.117188 415.601562 L 579.746094 415.460938 L 578.589844 415.019531 L 578.144531 415.199219 L 577.726562 415.394531 L 577.332031 415.59375 L 576.960938 415.808594 L 576.617188 416.03125 L 576.296875 416.261719 L 576 416.507812 L 575.726562 416.757812 L 575.480469 417.023438 L 575.257812 417.296875 L 575.0625 417.574219 L 574.890625 417.867188 L 574.738281 418.171875 L 574.605469 418.492188 L 574.492188 418.828125 L 574.402344 419.171875 L 574.328125 419.535156 L 574.277344 419.90625 L 574.246094 420.296875 L 574.238281 420.695312 L 574.25 421.121094 L 574.292969 421.527344 L 574.367188 421.914062 L 574.464844 422.28125 L 574.59375 422.625 L 574.75 422.953125 L 574.9375 423.261719 L 575.152344 423.546875 L 575.394531 423.816406 L 575.664062 424.0625 L 575.960938 424.289062 L 576.273438 424.492188 L 576.609375 424.667969 L 576.960938 424.824219 L 577.332031 424.957031 L 577.722656 425.0625 L 578.132812 425.144531 L 578.558594 425.203125 L 579.007812 425.242188 Z M 579.472656 425.253906 "/>
<path fill-rule="nonzero" fill="rgb(10.196078%, 10.196078%, 10.196078%)" fill-opacity="1" d="M 749.582031 403.5625 L 749.960938 403.566406 L 750.324219 403.589844 L 750.679688 403.628906 L 751.023438 403.679688 L 751.359375 403.746094 L 751.683594 403.828125 L 752 403.925781 L 752.304688 404.039062 L 752.597656 404.167969 L 752.882812 404.308594 L 753.160156 404.464844 L 753.425781 404.628906 L 753.675781 404.804688 L 753.914062 404.992188 L 754.140625 405.191406 L 754.351562 405.402344 L 754.546875 405.621094 L 754.730469 405.855469 L 754.902344 406.09375 L 755.058594 406.347656 L 755.199219 406.605469 L 755.328125 406.867188 L 755.4375 407.132812 L 755.535156 407.410156 L 755.617188 407.691406 L 755.6875 407.980469 L 755.738281 408.277344 L 755.777344 408.578125 L 755.796875 408.886719 L 755.804688 409.203125 L 755.792969 409.636719 L 755.753906 410.054688 L 755.691406 410.457031 L 755.605469 410.84375 L 755.492188 411.210938 L 755.351562 411.5625 L 755.1875 411.898438 L 755 412.21875 L 754.785156 412.523438 L 754.546875 412.808594 L 754.296875 413.070312 L 754.027344 413.3125 L 753.746094 413.53125 L 753.449219 413.734375 L 753.136719 413.914062 L 752.808594 414.074219 L 752.46875 414.210938 L 752.109375 414.332031 L 751.738281 414.429688 L 751.351562 414.507812 L 751.785156 414.542969 L 752.203125 414.605469 L 752.605469 414.695312 L 752.996094 414.8125 L 753.367188 414.960938 L 753.722656 415.132812 L 754.0625 415.335938 L 754.386719 415.5625 L 754.695312 415.820312 L 754.988281 416.105469 L 755.265625 416.410156 L 755.515625 416.734375 L 755.734375 417.085938 L 755.925781 417.457031 L 756.085938 417.847656 L 756.21875 418.265625 L 756.320312 418.703125 L 756.394531 419.164062 L 756.4375 419.648438 L 756.453125 420.152344 L 756.441406 420.542969 L 756.417969 420.921875 L 756.371094 421.296875 L 756.308594 421.660156 L 756.230469 422.015625 L 756.132812 422.359375 L 756.019531 422.695312 L 755.886719 423.023438 L 755.734375 423.34375 L 755.566406 423.65625 L 755.382812 423.953125 L 755.183594 424.242188 L 754.96875 424.515625 L 754.734375 424.773438 L 754.488281 425.023438 L 754.226562 425.257812 L 753.945312 425.480469 L 753.652344 425.6875 L 753.34375 425.886719 L 753.019531 426.070312 L 752.6875 426.230469 L 752.34375 426.375 L 751.992188 426.503906 L 751.628906 426.613281 L 751.257812 426.707031 L 750.875 426.78125 L 750.484375 426.84375 L 750.082031 426.882812 L 749.667969 426.910156 L 749.242188 426.917969 L 748.46875 426.890625 L 747.722656 426.800781 L 747.003906 426.65625 L 746.3125 426.449219 L 745.648438 426.1875 L 745.011719 425.867188 L 744.40625 425.484375 L 743.824219 425.046875 L 743.273438 424.550781 L 742.75 423.996094 L 744.007812 422.871094 L 744.238281 423.117188 L 744.472656 423.347656 L 744.707031 423.566406 L 744.945312 423.769531 L 745.179688 423.960938 L 745.417969 424.136719 L 745.660156 424.300781 L 745.902344 424.449219 L 746.144531 424.585938 L 746.386719 424.707031 L 746.640625 424.8125 L 746.902344 424.90625 L 747.167969 424.984375 L 747.4375 425.058594 L 747.714844 425.117188 L 747.996094 425.164062 L 748.28125 425.203125 L 748.574219 425.230469 L 748.871094 425.246094 L 749.175781 425.253906 L 749.65625 425.238281 L 750.113281 425.195312 L 750.550781 425.128906 L 750.964844 425.03125 L 751.359375 424.902344 L 751.734375 424.75 L 752.085938 424.570312 L 752.417969 424.359375 L 752.726562 424.125 L 753.019531 423.859375 L 753.28125 423.570312 L 753.519531 423.265625 L 753.730469 422.941406 L 753.910156 422.601562 L 754.0625 422.242188 L 754.1875 421.867188 L 754.285156 421.472656 L 754.355469 421.0625 L 754.398438 420.632812 L 754.410156 420.1875 L 754.359375 419.28125 L 754.207031 418.472656 L 753.953125 417.757812 L 753.597656 417.140625 L 753.136719 416.617188 L 752.574219 416.1875 L 751.914062 415.855469 L 751.148438 415.617188 L 750.28125 415.472656 L 749.3125 415.425781 L 747.816406 415.425781 L 748.085938 413.828125 L 749.175781 413.828125 L 749.558594 413.816406 L 749.929688 413.78125 L 750.285156 413.722656 L 750.632812 413.644531 L 750.96875 413.539062 L 751.292969 413.414062 L 751.605469 413.261719 L 751.90625 413.089844 L 752.195312 412.890625 L 752.472656 412.671875 L 752.730469 412.425781 L 752.964844 412.15625 L 753.167969 411.871094 L 753.34375 411.5625 L 753.492188 411.234375 L 753.617188 410.890625 L 753.710938 410.523438 L 753.78125 410.136719 L 753.820312 409.730469 L 753.832031 409.304688 L 753.820312 408.941406 L 753.785156 408.589844 L 753.726562 408.253906 L 753.644531 407.9375 L 753.535156 407.632812 L 753.40625 407.34375 L 753.25 407.070312 L 753.070312 406.816406 L 752.871094 406.574219 L 752.644531 406.347656 L 752.398438 406.136719 L 752.136719 405.945312 L 751.859375 405.777344 L 751.566406 405.628906 L 751.257812 405.507812 L 750.933594 405.40625 L 750.59375 405.328125 L 750.238281 405.273438 L 749.867188 405.238281 L 749.480469 405.226562 L 749.199219 405.230469 L 748.921875 405.246094 L 748.644531 405.273438 L 748.378906 405.308594 L 748.113281 405.355469 L 747.855469 405.410156 L 747.597656 405.476562 L 747.347656 405.554688 L 747.105469 405.640625 L 746.863281 405.738281 L 746.625 405.839844 L 746.386719 405.953125 L 746.148438 406.082031 L 745.90625 406.222656 L 745.664062 406.375 L 745.421875 406.539062 L 745.179688 406.71875 L 744.9375 406.910156 L 744.695312 407.117188 L 744.449219 407.335938 L 743.394531 406.109375 L 743.667969 405.859375 L 743.945312 405.621094 L 744.222656 405.398438 L 744.503906 405.1875 L 744.789062 404.988281 L 745.078125 404.804688 L 745.367188 404.636719 L 745.660156 404.480469 L 745.953125 404.335938 L 746.25 404.207031 L 746.554688 404.082031 L 746.863281 403.972656 L 747.179688 403.878906 L 747.503906 403.792969 L 747.832031 403.722656 L 748.167969 403.664062 L 748.511719 403.617188 L 748.863281 403.585938 L 749.21875 403.566406 Z M 749.582031 403.5625 "/>
<path fill-rule="nonzero" fill="rgb(10.196078%, 10.196078%, 10.196078%)" fill-opacity="1" d="M 766.242188 403.5625 L 766.804688 403.578125 L 767.339844 403.628906 L 767.851562 403.710938 L 768.339844 403.828125 L 768.800781 403.976562 L 769.242188 404.160156 L 769.660156 404.375 L 770.050781 404.625 L 770.421875 404.910156 L 770.765625 405.226562 L 771.089844 405.570312 L 771.378906 405.929688 L 771.632812 406.3125 L 771.855469 406.710938 L 772.039062 407.128906 L 772.195312 407.570312 L 772.3125 408.027344 L 772.398438 408.5 L 772.449219 408.996094 L 772.464844 409.511719 L 772.457031 409.949219 L 772.429688 410.382812 L 772.382812 410.8125 L 772.320312 411.234375 L 772.234375 411.652344 L 772.136719 412.066406 L 772.015625 412.472656 L 771.878906 412.871094 L 771.722656 413.269531 L 771.546875 413.660156 L 771.355469 414.050781 L 771.136719 414.449219 L 770.902344 414.855469 L 770.644531 415.269531 L 770.367188 415.691406 L 770.066406 416.117188 L 769.746094 416.554688 L 769.40625 417 L 769.042969 417.449219 L 768.65625 417.910156 L 768.246094 418.394531 L 767.785156 418.925781 L 767.277344 419.5 L 766.722656 420.121094 L 766.117188 420.789062 L 765.464844 421.503906 L 764.761719 422.261719 L 764.011719 423.066406 L 763.214844 423.914062 L 762.367188 424.8125 L 773.078125 424.8125 L 772.804688 426.542969 L 760.054688 426.542969 L 760.054688 424.878906 L 760.960938 423.910156 L 761.8125 422.996094 L 762.613281 422.132812 L 763.359375 421.320312 L 764.050781 420.5625 L 764.691406 419.851562 L 765.277344 419.195312 L 765.8125 418.589844 L 766.292969 418.035156 L 766.71875 417.535156 L 767.117188 417.058594 L 767.488281 416.597656 L 767.832031 416.148438 L 768.15625 415.710938 L 768.453125 415.289062 L 768.726562 414.882812 L 768.976562 414.488281 L 769.199219 414.105469 L 769.398438 413.738281 L 769.574219 413.386719 L 769.738281 413.03125 L 769.882812 412.667969 L 770.007812 412.304688 L 770.121094 411.933594 L 770.214844 411.558594 L 770.289062 411.179688 L 770.347656 410.792969 L 770.390625 410.40625 L 770.417969 410.011719 L 770.425781 409.613281 L 770.414062 409.21875 L 770.378906 408.84375 L 770.320312 408.484375 L 770.234375 408.136719 L 770.128906 407.8125 L 769.996094 407.5 L 769.84375 407.203125 L 769.664062 406.925781 L 769.460938 406.664062 L 769.234375 406.417969 L 768.996094 406.191406 L 768.742188 405.988281 L 768.472656 405.808594 L 768.1875 405.65625 L 767.882812 405.523438 L 767.566406 405.417969 L 767.234375 405.332031 L 766.886719 405.273438 L 766.523438 405.238281 L 766.140625 405.226562 L 765.832031 405.234375 L 765.53125 405.253906 L 765.234375 405.285156 L 764.945312 405.328125 L 764.664062 405.386719 L 764.386719 405.460938 L 764.117188 405.542969 L 763.855469 405.640625 L 763.601562 405.75 L 763.355469 405.871094 L 763.117188 406.007812 L 762.882812 406.15625 L 762.648438 406.316406 L 762.417969 406.492188 L 762.1875 406.679688 L 761.960938 406.878906 L 761.738281 407.09375 L 761.515625 407.320312 L 761.292969 407.558594 L 761.074219 407.8125 L 759.714844 406.789062 L 759.988281 406.464844 L 760.269531 406.160156 L 760.550781 405.871094 L 760.835938 405.597656 L 761.125 405.34375 L 761.421875 405.109375 L 761.71875 404.890625 L 762.023438 404.691406 L 762.328125 404.507812 L 762.640625 404.34375 L 762.964844 404.195312 L 763.296875 404.0625 L 763.636719 403.945312 L 763.984375 403.84375 L 764.339844 403.757812 L 764.703125 403.6875 L 765.078125 403.632812 L 765.457031 403.59375 L 765.847656 403.570312 Z M 766.242188 403.5625 "/>
<path fill-rule="nonzero" fill="rgb(10.196078%, 10.196078%, 10.196078%)" fill-opacity="1" d="M 397.210938 446.65625 L 397.210938 467.890625 L 395.351562 467.890625 L 395.351562 446.65625 Z M 397.210938 446.65625 "/>
<path fill-rule="nonzero" fill="rgb(10.196078%, 10.196078%, 10.196078%)" fill-opacity="1" d="M 415.5 445.074219 L 415.5 467.890625 L 413.949219 467.890625 L 413.734375 465.410156 L 413.382812 465.945312 L 413.003906 466.425781 L 412.59375 466.847656 L 412.152344 467.214844 L 411.679688 467.527344 L 411.179688 467.78125 L 410.644531 467.976562 L 410.082031 468.117188 L 409.488281 468.203125 L 408.867188 468.230469 L 408.3125 468.207031 L 407.785156 468.140625 L 407.28125 468.03125 L 406.796875 467.875 L 406.339844 467.671875 L 405.90625 467.425781 L 405.496094 467.136719 L 405.105469 466.800781 L 404.742188 466.421875 L 404.402344 466 L 404.097656 465.53125 L 403.824219 465.027344 L 403.582031 464.496094 L 403.371094 463.929688 L 403.195312 463.332031 L 403.046875 462.703125 L 402.9375 462.039062 L 402.855469 461.347656 L 402.808594 460.621094 L 402.789062 459.859375 L 402.796875 459.363281 L 402.820312 458.878906 L 402.859375 458.40625 L 402.910156 457.945312 L 402.976562 457.496094 L 403.058594 457.058594 L 403.15625 456.632812 L 403.265625 456.21875 L 403.394531 455.816406 L 403.535156 455.429688 L 403.695312 455.050781 L 403.871094 454.691406 L 404.058594 454.351562 L 404.257812 454.023438 L 404.472656 453.714844 L 404.699219 453.421875 L 404.9375 453.148438 L 405.191406 452.886719 L 405.457031 452.644531 L 405.734375 452.421875 L 406.03125 452.214844 L 406.339844 452.03125 L 406.65625 451.867188 L 406.980469 451.726562 L 407.316406 451.605469 L 407.664062 451.507812 L 408.019531 451.433594 L 408.382812 451.378906 L 408.761719 451.347656 L 409.144531 451.335938 L 409.6875 451.359375 L 410.210938 451.421875 L 410.714844 451.535156 L 411.199219 451.6875 L 411.664062 451.886719 L 412.109375 452.128906 L 412.539062 452.414062 L 412.945312 452.746094 L 413.332031 453.117188 L 413.703125 453.535156 L 413.703125 444.855469 Z M 409.144531 466.742188 L 409.449219 466.734375 L 409.746094 466.714844 L 410.03125 466.675781 L 410.304688 466.625 L 410.570312 466.558594 L 410.828125 466.476562 L 411.074219 466.378906 L 411.308594 466.265625 L 411.535156 466.140625 L 411.75 466 L 411.964844 465.84375 L 412.175781 465.671875 L 412.382812 465.484375 L 412.582031 465.28125 L 412.78125 465.0625 L 412.972656 464.828125 L 413.164062 464.578125 L 413.347656 464.3125 L 413.527344 464.03125 L 413.703125 463.734375 L 413.703125 455.273438 L 413.347656 454.808594 L 412.976562 454.390625 L 412.589844 454.023438 L 412.191406 453.707031 L 411.773438 453.4375 L 411.339844 453.214844 L 410.894531 453.042969 L 410.429688 452.921875 L 409.949219 452.847656 L 409.457031 452.824219 L 409.023438 452.84375 L 408.609375 452.898438 L 408.214844 452.988281 L 407.839844 453.117188 L 407.480469 453.28125 L 407.136719 453.480469 L 406.816406 453.71875 L 406.507812 453.996094 L 406.222656 454.304688 L 405.953125 454.652344 L 405.710938 455.035156 L 405.496094 455.445312 L 405.308594 455.886719 L 405.144531 456.359375 L 405.007812 456.863281 L 404.894531 457.394531 L 404.8125 457.957031 L 404.753906 458.550781 L 404.71875 459.175781 L 404.710938 459.828125 L 404.722656 460.484375 L 404.761719 461.105469 L 404.820312 461.699219 L 404.902344 462.261719 L 405.007812 462.789062 L 405.136719 463.289062 L 405.289062 463.757812 L 405.464844 464.195312 L 405.667969 464.601562 L 405.890625 464.976562 L 406.136719 465.3125 L 406.398438 465.613281 L 406.679688 465.875 L 406.976562 466.105469 L 407.292969 466.300781 L 407.628906 466.460938 L 407.980469 466.582031 L 408.351562 466.671875 L 408.738281 466.726562 Z M 409.144531 466.742188 "/>
<path fill-rule="nonzero" fill="rgb(10.196078%, 10.196078%, 10.196078%)" fill-opacity="1" d="M 432.148438 464.292969 L 432.152344 464.539062 L 432.160156 464.773438 L 432.175781 464.992188 L 432.199219 465.195312 L 432.226562 465.386719 L 432.257812 465.5625 L 432.300781 465.722656 L 432.347656 465.871094 L 432.398438 466.003906 L 432.457031 466.121094 L 432.53125 466.230469 L 432.609375 466.335938 L 432.695312 466.433594 L 432.789062 466.523438 L 432.890625 466.609375 L 433 466.691406 L 433.117188 466.765625 L 433.242188 466.835938 L 433.371094 466.902344 L 433.511719 466.960938 L 433.109375 468.230469 L 432.890625 468.183594 L 432.683594 468.128906 L 432.484375 468.0625 L 432.296875 467.992188 L 432.117188 467.914062 L 431.949219 467.824219 L 431.789062 467.730469 L 431.640625 467.625 L 431.5 467.515625 L 431.371094 467.394531 L 431.257812 467.261719 L 431.152344 467.121094 L 431.054688 466.964844 L 430.964844 466.792969 L 430.882812 466.609375 L 430.8125 466.414062 L 430.746094 466.207031 L 430.6875 465.984375 L 430.640625 465.75 L 430.597656 465.503906 L 430.246094 466.019531 L 429.859375 466.484375 L 429.441406 466.894531 L 428.984375 467.25 L 428.496094 467.546875 L 427.976562 467.792969 L 427.417969 467.984375 L 426.828125 468.121094 L 426.203125 468.203125 L 425.542969 468.230469 L 425.089844 468.21875 L 424.652344 468.179688 L 424.234375 468.113281 L 423.839844 468.023438 L 423.460938 467.90625 L 423.101562 467.761719 L 422.761719 467.59375 L 422.441406 467.398438 L 422.136719 467.175781 L 421.855469 466.929688 L 421.601562 466.652344 L 421.375 466.359375 L 421.175781 466.050781 L 421.003906 465.722656 L 420.855469 465.378906 L 420.734375 465.015625 L 420.644531 464.636719 L 420.574219 464.242188 L 420.535156 463.828125 L 420.523438 463.394531 L 420.539062 462.902344 L 420.59375 462.4375 L 420.683594 461.992188 L 420.804688 461.570312 L 420.964844 461.171875 L 421.160156 460.792969 L 421.386719 460.441406 L 421.652344 460.109375 L 421.953125 459.804688 L 422.289062 459.519531 L 422.664062 459.261719 L 423.0625 459.027344 L 423.492188 458.824219 L 423.945312 458.648438 L 424.429688 458.496094 L 424.9375 458.375 L 425.476562 458.277344 L 426.039062 458.210938 L 426.632812 458.167969 L 427.25 458.15625 L 430.351562 458.15625 L 430.351562 456.574219 L 430.339844 456.195312 L 430.316406 455.835938 L 430.273438 455.5 L 430.210938 455.1875 L 430.132812 454.894531 L 430.039062 454.621094 L 429.925781 454.371094 L 429.792969 454.144531 L 429.648438 453.9375 L 429.480469 453.753906 L 429.296875 453.582031 L 429.089844 453.429688 L 428.859375 453.296875 L 428.605469 453.179688 L 428.328125 453.078125 L 428.027344 453 L 427.703125 452.9375 L 427.359375 452.890625 L 426.992188 452.863281 L 426.597656 452.855469 L 426.21875 452.863281 L 425.828125 452.890625 L 425.421875 452.9375 L 425 453.003906 L 424.566406 453.085938 L 424.121094 453.191406 L 423.660156 453.308594 L 423.1875 453.449219 L 422.699219 453.609375 L 422.195312 453.785156 L 421.730469 452.421875 L 422.273438 452.214844 L 422.808594 452.03125 L 423.335938 451.867188 L 423.859375 451.726562 L 424.375 451.605469 L 424.882812 451.507812 L 425.382812 451.433594 L 425.878906 451.378906 L 426.367188 451.347656 L 426.847656 451.335938 L 427.855469 451.386719 L 428.753906 451.542969 L 429.550781 451.800781 L 430.238281 452.160156 L 430.824219 452.621094 L 431.300781 453.1875 L 431.671875 453.855469 L 431.9375 454.628906 L 432.09375 455.503906 L 432.148438 456.480469 Z M 425.855469 466.773438 L 426.425781 466.746094 L 426.96875 466.660156 L 427.484375 466.515625 L 427.972656 466.316406 L 428.433594 466.0625 L 428.871094 465.746094 L 429.28125 465.375 L 429.664062 464.949219 L 430.019531 464.464844 L 430.351562 463.921875 L 430.351562 459.457031 L 427.527344 459.457031 L 427.042969 459.46875 L 426.582031 459.496094 L 426.148438 459.542969 L 425.734375 459.613281 L 425.34375 459.699219 L 424.976562 459.804688 L 424.632812 459.929688 L 424.316406 460.074219 L 424.019531 460.234375 L 423.746094 460.417969 L 423.5 460.621094 L 423.277344 460.839844 L 423.082031 461.082031 L 422.914062 461.339844 L 422.769531 461.621094 L 422.652344 461.917969 L 422.5625 462.234375 L 422.496094 462.570312 L 422.457031 462.925781 L 422.445312 463.300781 L 422.453125 463.628906 L 422.480469 463.941406 L 422.527344 464.238281 L 422.589844 464.515625 L 422.667969 464.78125 L 422.769531 465.03125 L 422.886719 465.265625 L 423.019531 465.484375 L 423.171875 465.6875 L 423.34375 465.875 L 423.53125 466.046875 L 423.730469 466.199219 L 423.949219 466.332031 L 424.175781 466.449219 L 424.421875 466.550781 L 424.679688 466.628906 L 424.953125 466.691406 L 425.238281 466.738281 L 425.539062 466.765625 Z M 425.855469 466.773438 "/>
<path fill-rule="nonzero" fill="rgb(10.196078%, 10.196078%, 10.196078%)" fill-opacity="1" d="M 450.25 445.074219 L 450.25 467.890625 L 448.703125 467.890625 L 448.484375 465.410156 L 448.132812 465.945312 L 447.753906 466.425781 L 447.34375 466.847656 L 446.902344 467.214844 L 446.429688 467.527344 L 445.929688 467.78125 L 445.398438 467.976562 L 444.835938 468.117188 L 444.242188 468.203125 L 443.617188 468.230469 L 443.066406 468.207031 L 442.535156 468.140625 L 442.03125 468.03125 L 441.550781 467.875 L 441.089844 467.671875 L 440.65625 467.425781 L 440.246094 467.136719 L 439.859375 466.800781 L 439.492188 466.421875 L 439.152344 466 L 438.847656 465.53125 L 438.574219 465.027344 L 438.332031 464.496094 L 438.121094 463.929688 L 437.945312 463.332031 L 437.800781 462.703125 L 437.6875 462.039062 L 437.605469 461.347656 L 437.558594 460.621094 L 437.542969 459.859375 L 437.550781 459.363281 L 437.570312 458.878906 L 437.609375 458.40625 L 437.660156 457.945312 L 437.726562 457.496094 L 437.808594 457.058594 L 437.90625 456.632812 L 438.019531 456.21875 L 438.144531 455.816406 L 438.285156 455.429688 L 438.445312 455.050781 L 438.621094 454.691406 L 438.808594 454.351562 L 439.011719 454.023438 L 439.222656 453.714844 L 439.449219 453.421875 L 439.691406 453.148438 L 439.941406 452.886719 L 440.207031 452.644531 L 440.488281 452.421875 L 440.78125 452.214844 L 441.089844 452.03125 L 441.40625 451.867188 L 441.730469 451.726562 L 442.066406 451.605469 L 442.414062 451.507812 L 442.769531 451.433594 L 443.136719 451.378906 L 443.511719 451.347656 L 443.898438 451.335938 L 444.4375 451.359375 L 444.960938 451.421875 L 445.464844 451.535156 L 445.949219 451.6875 L 446.414062 451.886719 L 446.863281 452.128906 L 447.289062 452.414062 L 447.695312 452.746094 L 448.085938 453.117188 L 448.453125 453.535156 L 448.453125 444.855469 Z M 443.898438 466.742188 L 444.203125 466.734375 L 444.496094 466.714844 L 444.78125 466.675781 L 445.058594 466.625 L 445.324219 466.558594 L 445.578125 466.476562 L 445.824219 466.378906 L 446.058594 466.265625 L 446.285156 466.140625 L 446.5 466 L 446.714844 465.84375 L 446.925781 465.671875 L 447.132812 465.484375 L 447.335938 465.28125 L 447.53125 465.0625 L 447.726562 464.828125 L 447.914062 464.578125 L 448.097656 464.3125 L 448.277344 464.03125 L 448.453125 463.734375 L 448.453125 455.273438 L 448.097656 454.808594 L 447.726562 454.390625 L 447.34375 454.023438 L 446.941406 453.707031 L 446.523438 453.4375 L 446.089844 453.214844 L 445.644531 453.042969 L 445.179688 452.921875 L 444.703125 452.847656 L 444.207031 452.824219 L 443.777344 452.84375 L 443.363281 452.898438 L 442.96875 452.988281 L 442.589844 453.117188 L 442.230469 453.28125 L 441.890625 453.480469 L 441.566406 453.71875 L 441.261719 453.996094 L 440.972656 454.304688 L 440.703125 454.652344 L 440.460938 455.035156 L 440.246094 455.445312 L 440.058594 455.886719 L 439.894531 456.359375 L 439.757812 456.863281 L 439.648438 457.394531 L 439.5625 457.957031 L 439.503906 458.550781 L 439.46875 459.175781 L 439.464844 459.828125 L 439.476562 460.484375 L 439.511719 461.105469 L 439.570312 461.699219 L 439.652344 462.261719 L 439.757812 462.789062 L 439.886719 463.289062 L 440.039062 463.757812 L 440.21875 464.195312 L 440.417969 464.601562 L 440.640625 464.976562 L 440.886719 465.3125 L 441.148438 465.613281 L 441.429688 465.875 L 441.726562 466.105469 L 442.042969 466.300781 L 442.378906 466.460938 L 442.730469 466.582031 L 443.101562 466.671875 L 443.492188 466.726562 Z M 443.898438 466.742188 "/>
<path fill-rule="nonzero" fill="rgb(10.196078%, 10.196078%, 10.196078%)" fill-opacity="1" d="M 468.324219 459.179688 L 468.324219 459.316406 L 468.320312 459.449219 L 468.320312 459.582031 L 468.316406 459.714844 L 468.308594 459.84375 L 468.300781 459.976562 L 468.292969 460.101562 L 468.285156 460.230469 L 468.261719 460.480469 L 457.445312 460.480469 L 457.488281 461.097656 L 457.554688 461.679688 L 457.644531 462.234375 L 457.757812 462.753906 L 457.894531 463.238281 L 458.054688 463.695312 L 458.238281 464.117188 L 458.445312 464.507812 L 458.675781 464.867188 L 458.933594 465.191406 L 459.214844 465.480469 L 459.511719 465.738281 L 459.824219 465.96875 L 460.15625 466.164062 L 460.503906 466.332031 L 460.871094 466.46875 L 461.25 466.574219 L 461.648438 466.652344 L 462.066406 466.695312 L 462.496094 466.710938 L 462.746094 466.707031 L 462.992188 466.695312 L 463.230469 466.679688 L 463.464844 466.652344 L 463.691406 466.617188 L 463.910156 466.578125 L 464.125 466.53125 L 464.332031 466.472656 L 464.535156 466.410156 L 464.730469 466.339844 L 464.929688 466.253906 L 465.132812 466.160156 L 465.335938 466.058594 L 465.546875 465.949219 L 465.757812 465.828125 L 465.976562 465.699219 L 466.195312 465.5625 L 466.414062 465.417969 L 466.640625 465.261719 L 466.867188 465.101562 L 467.703125 466.246094 L 467.460938 466.441406 L 467.21875 466.625 L 466.972656 466.796875 L 466.726562 466.960938 L 466.480469 467.113281 L 466.230469 467.257812 L 465.980469 467.390625 L 465.730469 467.515625 L 465.476562 467.628906 L 465.226562 467.734375 L 464.96875 467.828125 L 464.707031 467.914062 L 464.4375 467.988281 L 464.164062 468.050781 L 463.882812 468.105469 L 463.597656 468.152344 L 463.308594 468.1875 L 463.011719 468.210938 L 462.710938 468.226562 L 462.402344 468.230469 L 461.773438 468.207031 L 461.171875 468.144531 L 460.59375 468.03125 L 460.046875 467.878906 L 459.527344 467.679688 L 459.039062 467.4375 L 458.574219 467.152344 L 458.136719 466.820312 L 457.730469 466.449219 L 457.351562 466.03125 L 457.003906 465.574219 L 456.691406 465.082031 L 456.417969 464.554688 L 456.179688 463.996094 L 455.980469 463.402344 L 455.8125 462.773438 L 455.6875 462.113281 L 455.59375 461.417969 L 455.539062 460.6875 L 455.523438 459.921875 L 455.53125 459.414062 L 455.554688 458.917969 L 455.589844 458.4375 L 455.644531 457.96875 L 455.714844 457.511719 L 455.800781 457.070312 L 455.902344 456.640625 L 456.019531 456.222656 L 456.148438 455.820312 L 456.296875 455.429688 L 456.464844 455.046875 L 456.644531 454.683594 L 456.839844 454.335938 L 457.046875 454.007812 L 457.265625 453.699219 L 457.5 453.40625 L 457.742188 453.132812 L 458.003906 452.878906 L 458.273438 452.640625 L 458.558594 452.421875 L 458.863281 452.214844 L 459.171875 452.03125 L 459.496094 451.867188 L 459.824219 451.726562 L 460.164062 451.605469 L 460.511719 451.507812 L 460.871094 451.433594 L 461.238281 451.378906 L 461.613281 451.347656 L 462 451.335938 L 462.605469 451.355469 L 463.179688 451.421875 L 463.726562 451.527344 L 464.242188 451.671875 L 464.730469 451.863281 L 465.183594 452.09375 L 465.613281 452.367188 L 466.007812 452.683594 L 466.375 453.042969 L 466.710938 453.445312 L 467.019531 453.875 L 467.292969 454.335938 L 467.535156 454.832031 L 467.746094 455.359375 L 467.921875 455.914062 L 468.066406 456.503906 L 468.179688 457.125 L 468.261719 457.777344 L 468.308594 458.464844 Z M 466.558594 458.621094 L 466.546875 458.085938 L 466.511719 457.578125 L 466.453125 457.09375 L 466.375 456.632812 L 466.269531 456.195312 L 466.144531 455.78125 L 465.996094 455.394531 L 465.824219 455.03125 L 465.628906 454.691406 L 465.410156 454.375 L 465.175781 454.078125 L 464.917969 453.816406 L 464.640625 453.582031 L 464.339844 453.382812 L 464.015625 453.210938 L 463.667969 453.070312 L 463.300781 452.964844 L 462.910156 452.886719 L 462.496094 452.839844 L 462.0625 452.824219 L 461.667969 452.839844 L 461.289062 452.886719 L 460.921875 452.964844 L 460.574219 453.070312 L 460.242188 453.210938 L 459.921875 453.382812 L 459.621094 453.582031 L 459.335938 453.816406 L 459.0625 454.078125 L 458.808594 454.375 L 458.570312 454.699219 L 458.355469 455.058594 L 458.164062 455.449219 L 457.996094 455.871094 L 457.847656 456.328125 L 457.722656 456.8125 L 457.617188 457.332031 L 457.539062 457.886719 L 457.480469 458.46875 L 457.445312 459.085938 L 466.558594 459.085938 Z M 466.558594 458.621094 "/>
</svg>
