<?xml version="1.0" encoding="UTF-8"?>
<svg xmlns="http://www.w3.org/2000/svg" xmlns:xlink="http://www.w3.org/1999/xlink" width="792" height="489" viewBox="0 0 792 489">
<defs>
<clipPath id="clip-0">
<path clip-rule="nonzero" d="M 32.148438 13.449219 L 778.550781 13.449219 L 778.550781 436.613281 L 32.148438 436.613281 Z M 32.148438 13.449219 "/>
</clipPath>
<clipPath id="clip-1">
<path clip-rule="nonzero" d="M 32.148438 416 L 778.550781 416 L 778.550781 419 L 32.148438 419 Z M 32.148438 416 "/>
</clipPath>
<clipPath id="clip-2">
<path clip-rule="nonzero" d="M 32.148438 339 L 778.550781 339 L 778.550781 342 L 32.148438 342 Z M 32.148438 339 "/>
</clipPath>
<clipPath id="clip-3">
<path clip-rule="nonzero" d="M 32.148438 262 L 778.550781 262 L 778.550781 265 L 32.148438 265 Z M 32.148438 262 "/>
</clipPath>
<clipPath id="clip-4">
<path clip-rule="nonzero" d="M 32.148438 185 L 778.550781 185 L 778.550781 188 L 32.148438 188 Z M 32.148438 185 "/>
</clipPath>
<clipPath id="clip-5">
<path clip-rule="nonzero" d="M 32.148438 108 L 778.550781 108 L 778.550781 111 L 32.148438 111 Z M 32.148438 108 "/>
</clipPath>
<clipPath id="clip-6">
<path clip-rule="nonzero" d="M 32.148438 31 L 778.550781 31 L 778.550781 34 L 32.148438 34 Z M 32.148438 31 "/>
</clipPath>
<clipPath id="clip-7">
<path clip-rule="nonzero" d="M 143 13.449219 L 146 13.449219 L 146 436.613281 L 143 436.613281 Z M 143 13.449219 "/>
</clipPath>
<clipPath id="clip-8">
<path clip-rule="nonzero" d="M 317 13.449219 L 320 13.449219 L 320 436.613281 L 317 436.613281 Z M 317 13.449219 "/>
</clipPath>
<clipPath id="clip-9">
<path clip-rule="nonzero" d="M 491 13.449219 L 494 13.449219 L 494 436.613281 L 491 436.613281 Z M 491 13.449219 "/>
</clipPath>
<clipPath id="clip-10">
<path clip-rule="nonzero" d="M 665 13.449219 L 668 13.449219 L 668 436.613281 L 665 436.613281 Z M 665 13.449219 "/>
</clipPath>
</defs>
<rect x="-79.2" y="-48.9" width="950.4" height="586.8" fill="rgb(100%, 100%, 100%)" fill-opacity="1"/>
<rect x="-79.2" y="-48.9" width="950.4" height="586.8" fill="rgb(95.294118%, 95.294118%, 95.294118%)" fill-opacity="1"/>
<path fill="none" stroke-width="2.618947" stroke-linecap="round" stroke-linejoin="round" stroke="rgb(95.294118%, 95.294118%, 95.294118%)" stroke-opacity="1" stroke-miterlimit="10" d="M 0 489 L 792 489 L 792 0 L 0 0 Z M 0 489 "/>
<g clip-path="url(#clip-0)">
<path fill-rule="nonzero" fill="rgb(95.294118%, 95.294118%, 95.294118%)" fill-opacity="1" stroke-width="2.618947" stroke-linecap="round" stroke-linejoin="round" stroke="rgb(95.294118%, 95.294118%, 95.294118%)" stroke-opacity="1" stroke-miterlimit="10" d="M 32.148438 436.613281 L 778.550781 436.613281 L 778.550781 13.449219 L 32.148438 13.449219 Z M 32.148438 436.613281 "/>
</g>
<g clip-path="url(#clip-1)">
<path fill="none" stroke-width="2.618947" stroke-linecap="butt" stroke-linejoin="round" stroke="rgb(92.156863%, 92.156863%, 92.156863%)" stroke-opacity="1" stroke-miterlimit="10" d="M 32.148438 417.378906 L 778.550781 417.378906 "/>
</g>
<g clip-path="url(#clip-2)">
<path fill="none" stroke-width="2.618947" stroke-linecap="butt" stroke-linejoin="round" stroke="rgb(92.156863%, 92.156863%, 92.156863%)" stroke-opacity="1" stroke-miterlimit="10" d="M 32.148438 340.441406 L 778.550781 340.441406 "/>
</g>
<g clip-path="url(#clip-3)">
<path fill="none" stroke-width="2.618947" stroke-linecap="butt" stroke-linejoin="round" stroke="rgb(92.156863%, 92.156863%, 92.156863%)" stroke-opacity="1" stroke-miterlimit="10" d="M 32.148438 263.5 L 778.550781 263.5 "/>
</g>
<g clip-path="url(#clip-4)">
<path fill="none" stroke-width="2.618947" stroke-linecap="butt" stroke-linejoin="round" stroke="rgb(92.156863%, 92.156863%, 92.156863%)" stroke-opacity="1" stroke-miterlimit="10" d="M 32.148438 186.5625 L 778.550781 186.5625 "/>
</g>
<g clip-path="url(#clip-5)">
<path fill="none" stroke-width="2.618947" stroke-linecap="butt" stroke-linejoin="round" stroke="rgb(92.156863%, 92.156863%, 92.156863%)" stroke-opacity="1" stroke-miterlimit="10" d="M 32.148438 109.625 L 778.550781 109.625 "/>
</g>
<g clip-path="url(#clip-6)">
<path fill="none" stroke-width="2.618947" stroke-linecap="butt" stroke-linejoin="round" stroke="rgb(92.156863%, 92.156863%, 92.156863%)" stroke-opacity="1" stroke-miterlimit="10" d="M 32.148438 32.683594 L 778.550781 32.683594 "/>
</g>
<g clip-path="url(#clip-7)">
<path fill="none" stroke-width="2.618947" stroke-linecap="butt" stroke-linejoin="round" stroke="rgb(92.156863%, 92.156863%, 92.156863%)" stroke-opacity="1" stroke-miterlimit="10" d="M 144.371094 436.613281 L 144.371094 13.449219 "/>
</g>
<g clip-path="url(#clip-8)">
<path fill="none" stroke-width="2.618947" stroke-linecap="butt" stroke-linejoin="round" stroke="rgb(92.156863%, 92.156863%, 92.156863%)" stroke-opacity="1" stroke-miterlimit="10" d="M 318.355469 436.613281 L 318.355469 13.449219 "/>
</g>
<g clip-path="url(#clip-9)">
<path fill="none" stroke-width="2.618947" stroke-linecap="butt" stroke-linejoin="round" stroke="rgb(92.156863%, 92.156863%, 92.156863%)" stroke-opacity="1" stroke-miterlimit="10" d="M 492.34375 436.613281 L 492.34375 13.449219 "/>
</g>
<g clip-path="url(#clip-10)">
<path fill="none" stroke-width="2.618947" stroke-linecap="butt" stroke-linejoin="round" stroke="rgb(92.156863%, 92.156863%, 92.156863%)" stroke-opacity="1" stroke-miterlimit="10" d="M 666.328125 436.613281 L 666.328125 13.449219 "/>
</g>
<path fill-rule="nonzero" fill="rgb(56.078431%, 16.470588%, 26.27451%)" fill-opacity="1" d="M 66.078125 417.378906 L 222.664062 417.378906 L 222.664062 186.5625 L 66.078125 186.5625 Z M 66.078125 417.378906 "/>
<path fill-rule="nonzero" fill="rgb(56.078431%, 16.470588%, 26.27451%)" fill-opacity="1" d="M 240.0625 417.378906 L 396.648438 417.378906 L 396.648438 340.441406 L 240.0625 340.441406 Z M 240.0625 417.378906 "/>
<path fill-rule="nonzero" fill="rgb(56.078431%, 16.470588%, 26.27451%)" fill-opacity="1" d="M 414.050781 417.378906 L 570.636719 417.378906 L 570.636719 32.683594 L 414.050781 32.683594 Z M 414.050781 417.378906 "/>
<path fill-rule="nonzero" fill="rgb(56.078431%, 16.470588%, 26.27451%)" fill-opacity="1" d="M 588.035156 417.378906 L 744.621094 417.378906 L 744.621094 32.683594 L 588.035156 32.683594 Z M 588.035156 417.378906 "/>
<path fill-rule="nonzero" fill="rgb(10.196078%, 10.196078%, 10.196078%)" fill-opacity="1" d="M 19.425781 425.914062 L 18.980469 425.894531 L 18.554688 425.828125 L 18.152344 425.71875 L 17.769531 425.566406 L 17.40625 425.371094 L 17.0625 425.132812 L 16.742188 424.851562 L 16.441406 424.523438 L 16.160156 424.152344 L 15.898438 423.742188 L 15.660156 423.289062 L 15.449219 422.796875 L 15.261719 422.273438 L 15.097656 421.707031 L 14.960938 421.109375 L 14.847656 420.472656 L 14.761719 419.800781 L 14.699219 419.09375 L 14.660156 418.347656 L 14.648438 417.566406 L 14.660156 416.789062 L 14.699219 416.050781 L 14.761719 415.347656 L 14.847656 414.683594 L 14.960938 414.054688 L 15.097656 413.460938 L 15.261719 412.90625 L 15.449219 412.390625 L 15.660156 411.910156 L 15.898438 411.464844 L 16.160156 411.0625 L 16.441406 410.699219 L 16.742188 410.382812 L 17.0625 410.105469 L 17.40625 409.871094 L 17.769531 409.679688 L 18.152344 409.53125 L 18.554688 409.425781 L 18.980469 409.363281 L 19.425781 409.339844 L 19.875 409.363281 L 20.300781 409.425781 L 20.707031 409.53125 L 21.09375 409.679688 L 21.457031 409.871094 L 21.796875 410.105469 L 22.117188 410.382812 L 22.417969 410.699219 L 22.695312 411.0625 L 22.949219 411.464844 L 23.1875 411.910156 L 23.398438 412.390625 L 23.585938 412.90625 L 23.75 413.460938 L 23.886719 414.054688 L 24 414.683594 L 24.085938 415.347656 L 24.148438 416.050781 L 24.1875 416.789062 L 24.199219 417.566406 L 24.1875 418.347656 L 24.148438 419.09375 L 24.085938 419.800781 L 24 420.472656 L 23.886719 421.109375 L 23.75 421.707031 L 23.585938 422.273438 L 23.398438 422.796875 L 23.1875 423.289062 L 22.949219 423.742188 L 22.695312 424.152344 L 22.417969 424.523438 L 22.117188 424.851562 L 21.796875 425.132812 L 21.457031 425.371094 L 21.09375 425.566406 L 20.707031 425.71875 L 20.300781 425.828125 L 19.875 425.894531 Z M 19.425781 424.964844 L 19.753906 424.945312 L 20.066406 424.890625 L 20.367188 424.796875 L 20.652344 424.664062 L 20.925781 424.496094 L 21.183594 424.289062 L 21.425781 424.046875 L 21.65625 423.765625 L 21.871094 423.445312 L 22.074219 423.089844 L 22.265625 422.699219 L 22.433594 422.269531 L 22.585938 421.804688 L 22.714844 421.308594 L 22.824219 420.773438 L 22.914062 420.203125 L 22.984375 419.597656 L 23.035156 418.953125 L 23.066406 418.277344 L 23.074219 417.566406 L 23.066406 416.855469 L 23.035156 416.179688 L 22.984375 415.542969 L 22.914062 414.941406 L 22.824219 414.378906 L 22.714844 413.851562 L 22.585938 413.363281 L 22.433594 412.910156 L 22.265625 412.496094 L 22.074219 412.117188 L 21.871094 411.769531 L 21.65625 411.457031 L 21.425781 411.183594 L 21.183594 410.949219 L 20.925781 410.746094 L 20.652344 410.582031 L 20.367188 410.453125 L 20.066406 410.363281 L 19.753906 410.308594 L 19.425781 410.289062 L 19.101562 410.308594 L 18.789062 410.363281 L 18.492188 410.453125 L 18.207031 410.582031 L 17.9375 410.746094 L 17.679688 410.949219 L 17.433594 411.183594 L 17.199219 411.457031 L 16.980469 411.769531 L 16.773438 412.117188 L 16.585938 412.496094 L 16.414062 412.910156 L 16.265625 413.363281 L 16.132812 413.851562 L 16.023438 414.378906 L 15.933594 414.941406 L 15.863281 415.542969 L 15.816406 416.179688 L 15.785156 416.855469 L 15.773438 417.566406 L 15.785156 418.277344 L 15.816406 418.953125 L 15.863281 419.597656 L 15.933594 420.203125 L 16.023438 420.773438 L 16.132812 421.308594 L 16.265625 421.804688 L 16.414062 422.269531 L 16.585938 422.699219 L 16.773438 423.089844 L 16.980469 423.445312 L 17.199219 423.765625 L 17.433594 424.046875 L 17.679688 424.289062 L 17.9375 424.496094 L 18.207031 424.664062 L 18.492188 424.796875 L 18.789062 424.890625 L 19.101562 424.945312 Z M 19.425781 424.964844 "/>
<path fill-rule="nonzero" fill="rgb(10.196078%, 10.196078%, 10.196078%)" fill-opacity="1" d="M 15.550781 348.675781 L 15.550781 347.703125 L 19.300781 347.703125 L 19.300781 334.453125 L 16.449219 334.453125 L 16.449219 333.703125 L 16.640625 333.667969 L 16.832031 333.628906 L 17.199219 333.550781 L 17.375 333.507812 L 17.546875 333.464844 L 17.714844 333.421875 L 17.882812 333.375 L 18.042969 333.328125 L 18.199219 333.277344 L 18.351562 333.226562 L 18.5 333.175781 L 18.644531 333.121094 L 18.785156 333.066406 L 18.917969 333.007812 L 19.175781 332.890625 L 19.296875 332.828125 L 19.414062 332.765625 L 19.523438 332.703125 L 20.425781 332.703125 L 20.425781 347.703125 L 23.898438 347.703125 L 23.898438 348.675781 Z M 15.550781 348.675781 "/>
<path fill-rule="nonzero" fill="rgb(10.196078%, 10.196078%, 10.196078%)" fill-opacity="1" d="M 14.472656 271.738281 L 14.472656 271.039062 L 14.992188 270.511719 L 15.488281 269.996094 L 15.972656 269.5 L 16.433594 269.015625 L 16.878906 268.542969 L 17.308594 268.089844 L 17.722656 267.648438 L 18.113281 267.222656 L 18.492188 266.808594 L 18.847656 266.414062 L 19.191406 266.023438 L 19.515625 265.640625 L 19.820312 265.265625 L 20.109375 264.902344 L 20.378906 264.542969 L 20.632812 264.195312 L 20.871094 263.855469 L 21.089844 263.523438 L 21.289062 263.203125 L 21.472656 262.886719 L 21.640625 262.578125 L 21.789062 262.273438 L 21.921875 261.972656 L 22.035156 261.675781 L 22.128906 261.382812 L 22.210938 261.089844 L 22.269531 260.804688 L 22.316406 260.519531 L 22.339844 260.238281 L 22.347656 259.964844 L 22.339844 259.667969 L 22.316406 259.382812 L 22.273438 259.105469 L 22.214844 258.839844 L 22.136719 258.582031 L 22.042969 258.335938 L 21.933594 258.097656 L 21.804688 257.867188 L 21.660156 257.648438 L 21.5 257.4375 L 21.324219 257.242188 L 21.128906 257.070312 L 20.917969 256.914062 L 20.683594 256.78125 L 20.429688 256.667969 L 20.160156 256.578125 L 19.867188 256.503906 L 19.554688 256.453125 L 19.226562 256.421875 L 18.875 256.414062 L 18.660156 256.417969 L 18.449219 256.4375 L 18.238281 256.46875 L 18.03125 256.507812 L 17.824219 256.5625 L 17.621094 256.628906 L 17.417969 256.707031 L 17.21875 256.796875 L 17.019531 256.898438 L 16.824219 257.011719 L 16.636719 257.136719 L 16.453125 257.265625 L 16.273438 257.398438 L 15.929688 257.6875 L 15.765625 257.839844 L 15.605469 258 L 15.449219 258.164062 L 15.296875 258.335938 L 15.148438 258.511719 L 14.425781 257.8125 L 14.605469 257.617188 L 14.792969 257.425781 L 14.984375 257.242188 L 15.175781 257.066406 L 15.375 256.894531 L 15.578125 256.730469 L 15.78125 256.574219 L 15.992188 256.421875 L 16.207031 256.277344 L 16.425781 256.136719 L 16.648438 256.011719 L 16.878906 255.894531 L 17.117188 255.792969 L 17.359375 255.707031 L 17.613281 255.632812 L 17.871094 255.570312 L 18.136719 255.523438 L 18.410156 255.488281 L 18.6875 255.46875 L 18.972656 255.464844 L 19.394531 255.476562 L 19.796875 255.511719 L 20.175781 255.574219 L 20.539062 255.660156 L 20.878906 255.769531 L 21.203125 255.902344 L 21.507812 256.0625 L 21.789062 256.246094 L 22.054688 256.457031 L 22.300781 256.6875 L 22.523438 256.941406 L 22.722656 257.210938 L 22.898438 257.496094 L 23.050781 257.796875 L 23.179688 258.113281 L 23.285156 258.445312 L 23.367188 258.796875 L 23.425781 259.160156 L 23.460938 259.542969 L 23.472656 259.9375 L 23.464844 260.253906 L 23.4375 260.570312 L 23.390625 260.886719 L 23.328125 261.207031 L 23.242188 261.527344 L 23.140625 261.847656 L 23.019531 262.167969 L 22.882812 262.488281 L 22.726562 262.8125 L 22.550781 263.136719 L 22.363281 263.464844 L 22.160156 263.796875 L 21.941406 264.136719 L 21.710938 264.476562 L 21.460938 264.824219 L 21.199219 265.179688 L 20.921875 265.535156 L 20.628906 265.898438 L 20.320312 266.265625 L 20 266.636719 L 19.667969 267.019531 L 19.324219 267.40625 L 18.96875 267.804688 L 18.605469 268.214844 L 18.222656 268.632812 L 17.832031 269.058594 L 17.429688 269.496094 L 17.015625 269.941406 L 16.589844 270.398438 L 16.148438 270.863281 L 16.28125 270.851562 L 16.410156 270.84375 L 16.542969 270.835938 L 16.671875 270.828125 L 17.070312 270.804688 L 17.207031 270.800781 L 17.339844 270.792969 L 17.472656 270.789062 L 17.613281 270.777344 L 17.753906 270.769531 L 17.890625 270.761719 L 18.027344 270.757812 L 18.160156 270.75 L 18.296875 270.746094 L 18.5625 270.738281 L 24.273438 270.738281 L 24.273438 271.738281 Z M 14.472656 271.738281 "/>
<path fill-rule="nonzero" fill="rgb(10.196078%, 10.196078%, 10.196078%)" fill-opacity="1" d="M 19.25 195.097656 L 18.996094 195.097656 L 18.753906 195.085938 L 18.515625 195.070312 L 18.28125 195.046875 L 18.054688 195.019531 L 17.835938 194.980469 L 17.625 194.941406 L 17.417969 194.890625 L 17.21875 194.835938 L 17.023438 194.773438 L 16.835938 194.703125 L 16.65625 194.628906 L 16.476562 194.546875 L 16.304688 194.464844 L 16.136719 194.378906 L 15.972656 194.292969 L 15.816406 194.199219 L 15.664062 194.101562 L 15.515625 194.003906 L 15.375 193.898438 L 15.109375 193.6875 L 14.984375 193.585938 L 14.859375 193.480469 L 14.617188 193.269531 L 14.390625 193.058594 L 14.28125 192.953125 L 14.175781 192.847656 L 14.824219 192.074219 L 14.972656 192.226562 L 15.125 192.378906 L 15.285156 192.527344 L 15.453125 192.675781 L 15.625 192.816406 L 15.800781 192.960938 L 16.175781 193.234375 L 16.371094 193.367188 L 16.574219 193.5 L 16.785156 193.617188 L 17.007812 193.722656 L 17.246094 193.816406 L 17.496094 193.898438 L 17.753906 193.96875 L 18.03125 194.023438 L 18.316406 194.066406 L 18.613281 194.097656 L 18.925781 194.117188 L 19.25 194.125 L 19.570312 194.113281 L 19.875 194.085938 L 20.171875 194.039062 L 20.457031 193.972656 L 20.730469 193.886719 L 20.992188 193.78125 L 21.242188 193.660156 L 21.480469 193.515625 L 21.707031 193.355469 L 21.925781 193.175781 L 22.125 192.972656 L 22.300781 192.757812 L 22.460938 192.53125 L 22.597656 192.292969 L 22.710938 192.042969 L 22.804688 191.78125 L 22.878906 191.503906 L 22.933594 191.214844 L 22.964844 190.914062 L 22.972656 190.597656 L 22.960938 190.277344 L 22.921875 189.964844 L 22.859375 189.664062 L 22.765625 189.378906 L 22.648438 189.105469 L 22.507812 188.84375 L 22.335938 188.59375 L 22.140625 188.359375 L 21.921875 188.136719 L 21.675781 187.925781 L 21.402344 187.730469 L 21.09375 187.554688 L 20.753906 187.402344 L 20.378906 187.269531 L 19.96875 187.15625 L 19.523438 187.0625 L 19.042969 186.992188 L 18.53125 186.941406 L 17.980469 186.910156 L 17.398438 186.898438 L 17.398438 185.925781 L 17.761719 185.917969 L 18.109375 185.90625 L 18.441406 185.882812 L 18.757812 185.851562 L 19.0625 185.8125 L 19.347656 185.761719 L 19.621094 185.703125 L 19.878906 185.636719 L 20.121094 185.558594 L 20.347656 185.472656 L 20.5625 185.375 L 20.765625 185.269531 L 20.953125 185.160156 L 21.128906 185.042969 L 21.292969 184.917969 L 21.445312 184.789062 L 21.582031 184.648438 L 21.710938 184.507812 L 21.824219 184.355469 L 21.925781 184.199219 L 22.015625 184.039062 L 22.09375 183.875 L 22.167969 183.707031 L 22.230469 183.535156 L 22.28125 183.363281 L 22.324219 183.183594 L 22.355469 183.007812 L 22.378906 182.824219 L 22.394531 182.636719 L 22.398438 182.449219 L 22.390625 182.183594 L 22.363281 181.929688 L 22.320312 181.6875 L 22.257812 181.457031 L 22.179688 181.238281 L 22.085938 181.027344 L 21.972656 180.828125 L 21.839844 180.640625 L 21.691406 180.464844 L 21.523438 180.300781 L 21.34375 180.144531 L 21.152344 180.003906 L 20.945312 179.878906 L 20.730469 179.769531 L 20.5 179.679688 L 20.257812 179.605469 L 20.003906 179.546875 L 19.742188 179.507812 L 19.464844 179.484375 L 19.175781 179.472656 L 18.957031 179.480469 L 18.742188 179.496094 L 18.527344 179.523438 L 18.320312 179.558594 L 18.113281 179.605469 L 17.910156 179.664062 L 17.707031 179.730469 L 17.511719 179.808594 L 17.316406 179.898438 L 17.125 180 L 16.941406 180.101562 L 16.761719 180.207031 L 16.589844 180.320312 L 16.421875 180.433594 L 16.253906 180.554688 L 16.09375 180.679688 L 15.941406 180.808594 L 15.789062 180.945312 L 15.640625 181.082031 L 15.5 181.222656 L 14.847656 180.472656 L 15.015625 180.316406 L 15.1875 180.164062 L 15.363281 180.015625 L 15.546875 179.871094 L 15.730469 179.730469 L 15.921875 179.59375 L 16.113281 179.464844 L 16.3125 179.339844 L 16.515625 179.214844 L 16.722656 179.097656 L 16.941406 178.988281 L 17.167969 178.890625 L 17.398438 178.804688 L 17.632812 178.730469 L 17.875 178.667969 L 18.121094 178.617188 L 18.375 178.574219 L 18.636719 178.546875 L 18.902344 178.53125 L 19.175781 178.523438 L 19.421875 178.527344 L 19.664062 178.542969 L 19.898438 178.566406 L 20.128906 178.597656 L 20.355469 178.636719 L 20.574219 178.6875 L 20.789062 178.746094 L 21 178.8125 L 21.203125 178.890625 L 21.398438 178.972656 L 21.59375 179.070312 L 21.78125 179.171875 L 21.960938 179.28125 L 22.132812 179.402344 L 22.292969 179.53125 L 22.445312 179.667969 L 22.589844 179.8125 L 22.726562 179.964844 L 22.855469 180.128906 L 22.972656 180.300781 L 23.082031 180.472656 L 23.179688 180.65625 L 23.269531 180.84375 L 23.34375 181.039062 L 23.40625 181.242188 L 23.457031 181.453125 L 23.496094 181.671875 L 23.527344 181.898438 L 23.542969 182.132812 L 23.550781 182.375 L 23.539062 182.683594 L 23.515625 182.980469 L 23.472656 183.265625 L 23.410156 183.539062 L 23.332031 183.800781 L 23.234375 184.046875 L 23.121094 184.285156 L 22.988281 184.511719 L 22.839844 184.722656 L 22.675781 184.925781 L 22.5 185.109375 L 22.316406 185.285156 L 22.121094 185.449219 L 21.917969 185.605469 L 21.707031 185.75 L 21.484375 185.882812 L 21.25 186.007812 L 21.011719 186.125 L 20.761719 186.230469 L 20.5 186.324219 L 20.5 186.425781 L 20.699219 186.46875 L 20.890625 186.519531 L 21.082031 186.578125 L 21.265625 186.644531 L 21.449219 186.71875 L 21.628906 186.800781 L 21.800781 186.886719 L 21.972656 186.984375 L 22.136719 187.089844 L 22.300781 187.199219 L 22.460938 187.3125 L 22.617188 187.429688 L 22.765625 187.554688 L 22.90625 187.6875 L 23.042969 187.824219 L 23.171875 187.96875 L 23.296875 188.117188 L 23.410156 188.269531 L 23.519531 188.433594 L 23.625 188.597656 L 23.71875 188.773438 L 23.804688 188.949219 L 23.878906 189.132812 L 23.945312 189.324219 L 24 189.519531 L 24.042969 189.71875 L 24.078125 189.925781 L 24.105469 190.136719 L 24.121094 190.351562 L 24.125 190.574219 L 24.117188 190.847656 L 24.097656 191.109375 L 24.066406 191.367188 L 24.019531 191.617188 L 23.960938 191.863281 L 23.890625 192.097656 L 23.804688 192.328125 L 23.707031 192.550781 L 23.597656 192.765625 L 23.472656 192.972656 L 23.339844 193.175781 L 23.195312 193.367188 L 23.042969 193.546875 L 22.882812 193.71875 L 22.710938 193.878906 L 22.53125 194.035156 L 22.34375 194.175781 L 22.148438 194.308594 L 21.941406 194.433594 L 21.722656 194.550781 L 21.5 194.652344 L 21.273438 194.746094 L 21.039062 194.828125 L 20.800781 194.902344 L 20.554688 194.960938 L 20.304688 195.011719 L 20.050781 195.050781 L 19.789062 195.078125 L 19.523438 195.09375 Z M 19.25 195.097656 "/>
<path fill-rule="nonzero" fill="rgb(10.196078%, 10.196078%, 10.196078%)" fill-opacity="1" d="M 15.199219 112.136719 L 21.199219 112.136719 L 21.199219 106.054688 L 21.203125 105.929688 L 21.203125 105.800781 L 21.207031 105.667969 L 21.207031 105.527344 L 21.214844 105.230469 L 21.21875 105.074219 L 21.222656 104.910156 L 21.234375 104.75 L 21.242188 104.589844 L 21.253906 104.441406 L 21.261719 104.292969 L 21.277344 104.019531 L 21.28125 103.890625 L 21.289062 103.765625 L 21.292969 103.648438 L 21.300781 103.535156 L 21.199219 103.535156 L 21.140625 103.636719 L 21.015625 103.832031 L 20.957031 103.929688 L 20.894531 104.03125 L 20.832031 104.125 L 20.765625 104.222656 L 20.703125 104.320312 L 20.640625 104.414062 L 20.574219 104.511719 L 20.507812 104.605469 L 20.445312 104.703125 L 20.378906 104.800781 L 20.3125 104.902344 L 20.242188 105.003906 L 20.175781 105.109375 L 20.105469 105.210938 L 20.039062 105.320312 L 19.96875 105.425781 L 19.898438 105.535156 Z M 21.199219 117.859375 L 21.199219 113.085938 L 13.847656 113.085938 L 13.847656 112.4375 L 21.273438 101.886719 L 22.273438 101.886719 L 22.273438 112.136719 L 24.648438 112.136719 L 24.648438 113.085938 L 22.273438 113.085938 L 22.273438 117.859375 Z M 21.199219 117.859375 "/>
<path fill-rule="nonzero" fill="rgb(10.196078%, 10.196078%, 10.196078%)" fill-opacity="1" d="M 19.125 41.222656 L 18.871094 41.21875 L 18.628906 41.207031 L 18.390625 41.191406 L 18.15625 41.167969 L 17.929688 41.140625 L 17.710938 41.105469 L 17.5 41.0625 L 17.292969 41.015625 L 17.09375 40.957031 L 16.898438 40.898438 L 16.71875 40.828125 L 16.539062 40.761719 L 16.367188 40.6875 L 16.199219 40.609375 L 16.035156 40.527344 L 15.878906 40.445312 L 15.726562 40.355469 L 15.578125 40.265625 L 15.4375 40.171875 L 15.300781 40.070312 L 15.167969 39.972656 L 15.035156 39.871094 L 14.90625 39.773438 L 14.785156 39.671875 L 14.660156 39.570312 L 14.542969 39.472656 L 14.429688 39.371094 L 14.316406 39.273438 L 14.097656 39.070312 L 14.722656 38.296875 L 14.871094 38.441406 L 15.183594 38.722656 L 15.347656 38.859375 L 15.519531 38.996094 L 15.695312 39.128906 L 15.875 39.261719 L 16.0625 39.394531 L 16.253906 39.519531 L 16.449219 39.648438 L 16.660156 39.761719 L 16.882812 39.863281 L 17.117188 39.953125 L 17.367188 40.03125 L 17.625 40.097656 L 17.894531 40.152344 L 18.179688 40.191406 L 18.472656 40.222656 L 18.78125 40.242188 L 19.097656 40.246094 L 19.3125 40.242188 L 19.523438 40.226562 L 19.730469 40.199219 L 19.929688 40.164062 L 20.128906 40.117188 L 20.328125 40.058594 L 20.519531 39.988281 L 20.707031 39.910156 L 20.894531 39.820312 L 21.074219 39.722656 L 21.25 39.609375 L 21.421875 39.484375 L 21.582031 39.355469 L 21.738281 39.214844 L 21.886719 39.066406 L 22.027344 38.910156 L 22.164062 38.742188 L 22.289062 38.570312 L 22.410156 38.386719 L 22.523438 38.195312 L 22.628906 38 L 22.722656 37.792969 L 22.804688 37.585938 L 22.875 37.367188 L 22.9375 37.148438 L 22.988281 36.917969 L 23.023438 36.683594 L 23.050781 36.445312 L 23.070312 36.199219 L 23.074219 35.945312 L 23.0625 35.570312 L 23.03125 35.210938 L 22.976562 34.867188 L 22.902344 34.539062 L 22.804688 34.226562 L 22.6875 33.933594 L 22.546875 33.65625 L 22.386719 33.394531 L 22.203125 33.148438 L 22 32.921875 L 21.78125 32.710938 L 21.550781 32.527344 L 21.304688 32.359375 L 21.042969 32.21875 L 20.769531 32.097656 L 20.480469 31.996094 L 20.175781 31.921875 L 19.855469 31.867188 L 19.523438 31.832031 L 19.175781 31.820312 L 18.992188 31.824219 L 18.816406 31.832031 L 18.640625 31.847656 L 18.472656 31.871094 L 18.3125 31.898438 L 18.15625 31.929688 L 18.003906 31.96875 L 17.855469 32.015625 L 17.710938 32.066406 L 17.574219 32.121094 L 17.445312 32.179688 L 17.3125 32.242188 L 17.179688 32.308594 L 17.042969 32.378906 L 16.90625 32.453125 L 16.765625 32.53125 L 16.628906 32.617188 L 16.488281 32.707031 L 16.34375 32.800781 L 16.199219 32.898438 L 15.425781 32.421875 L 16 24.945312 L 23.375 24.945312 L 23.375 25.921875 L 17 25.921875 L 16.5 31.695312 L 16.75 31.554688 L 16.878906 31.484375 L 17.136719 31.359375 L 17.265625 31.300781 L 17.53125 31.191406 L 17.664062 31.144531 L 17.9375 31.050781 L 18.078125 31.007812 L 18.222656 30.96875 L 18.371094 30.9375 L 18.523438 30.910156 L 18.679688 30.886719 L 19.007812 30.855469 L 19.175781 30.847656 L 19.347656 30.847656 L 19.617188 30.851562 L 19.878906 30.867188 L 20.136719 30.894531 L 20.390625 30.933594 L 20.636719 30.984375 L 20.878906 31.042969 L 21.117188 31.117188 L 21.347656 31.199219 L 21.578125 31.292969 L 21.800781 31.398438 L 22.019531 31.507812 L 22.230469 31.628906 L 22.433594 31.765625 L 22.625 31.914062 L 22.804688 32.070312 L 22.980469 32.242188 L 23.140625 32.425781 L 23.296875 32.621094 L 23.441406 32.828125 L 23.574219 33.046875 L 23.699219 33.273438 L 23.808594 33.511719 L 23.90625 33.765625 L 23.992188 34.03125 L 24.0625 34.308594 L 24.121094 34.601562 L 24.167969 34.90625 L 24.199219 35.222656 L 24.21875 35.554688 L 24.222656 35.898438 L 24.21875 36.230469 L 24.195312 36.558594 L 24.15625 36.871094 L 24.105469 37.175781 L 24.035156 37.472656 L 23.953125 37.757812 L 23.855469 38.03125 L 23.746094 38.296875 L 23.617188 38.550781 L 23.472656 38.796875 L 23.324219 39.027344 L 23.167969 39.246094 L 23 39.453125 L 22.824219 39.648438 L 22.636719 39.835938 L 22.441406 40.007812 L 22.238281 40.171875 L 22.027344 40.324219 L 21.804688 40.464844 L 21.574219 40.597656 L 21.34375 40.714844 L 21.109375 40.820312 L 20.871094 40.914062 L 20.628906 40.996094 L 20.386719 41.066406 L 20.140625 41.121094 L 19.890625 41.164062 L 19.636719 41.195312 L 19.382812 41.214844 Z M 19.125 41.222656 "/>
<path fill-rule="nonzero" fill="rgb(10.196078%, 10.196078%, 10.196078%)" fill-opacity="1" d="M 140.484375 472.664062 L 140.484375 471.6875 L 144.234375 471.6875 L 144.234375 458.4375 L 141.382812 458.4375 L 141.382812 457.6875 L 141.574219 457.652344 L 141.765625 457.613281 L 141.949219 457.578125 L 142.132812 457.535156 L 142.308594 457.496094 L 142.480469 457.449219 L 142.648438 457.40625 L 142.816406 457.359375 L 142.976562 457.3125 L 143.132812 457.261719 L 143.285156 457.210938 L 143.433594 457.160156 L 143.578125 457.105469 L 143.71875 457.050781 L 143.851562 456.996094 L 143.980469 456.9375 L 144.109375 456.875 L 144.230469 456.816406 L 144.347656 456.753906 L 144.457031 456.6875 L 145.359375 456.6875 L 145.359375 471.6875 L 148.832031 471.6875 L 148.832031 472.664062 Z M 140.484375 472.664062 "/>
<path fill-rule="nonzero" fill="rgb(10.196078%, 10.196078%, 10.196078%)" fill-opacity="1" d="M 313.394531 472.664062 L 313.394531 471.964844 L 313.910156 471.433594 L 314.410156 470.921875 L 314.890625 470.421875 L 315.355469 469.9375 L 315.800781 469.46875 L 316.230469 469.015625 L 316.640625 468.574219 L 317.035156 468.148438 L 317.410156 467.734375 L 317.769531 467.339844 L 318.109375 466.945312 L 318.433594 466.566406 L 318.742188 466.191406 L 319.027344 465.824219 L 319.300781 465.46875 L 319.554688 465.121094 L 319.789062 464.78125 L 320.007812 464.449219 L 320.210938 464.128906 L 320.394531 463.8125 L 320.558594 463.503906 L 320.710938 463.199219 L 320.839844 462.898438 L 320.953125 462.601562 L 321.050781 462.308594 L 321.128906 462.015625 L 321.191406 461.730469 L 321.234375 461.445312 L 321.261719 461.164062 L 321.269531 460.886719 L 321.261719 460.59375 L 321.234375 460.308594 L 321.191406 460.03125 L 321.132812 459.765625 L 321.058594 459.507812 L 320.964844 459.257812 L 320.851562 459.019531 L 320.726562 458.792969 L 320.582031 458.574219 L 320.417969 458.363281 L 320.246094 458.167969 L 320.050781 457.992188 L 319.835938 457.839844 L 319.601562 457.707031 L 319.351562 457.59375 L 319.078125 457.5 L 318.785156 457.429688 L 318.476562 457.378906 L 318.144531 457.347656 L 317.792969 457.339844 L 317.582031 457.34375 L 317.367188 457.363281 L 317.160156 457.390625 L 316.949219 457.433594 L 316.746094 457.488281 L 316.539062 457.554688 L 316.339844 457.632812 L 316.136719 457.722656 L 315.941406 457.824219 L 315.746094 457.9375 L 315.554688 458.0625 L 315.375 458.191406 L 315.195312 458.324219 L 315.019531 458.464844 L 314.851562 458.613281 L 314.683594 458.765625 L 314.523438 458.925781 L 314.367188 459.089844 L 314.214844 459.261719 L 314.070312 459.4375 L 313.34375 458.738281 L 313.527344 458.542969 L 313.710938 458.351562 L 313.902344 458.167969 L 314.097656 457.988281 L 314.292969 457.820312 L 314.496094 457.65625 L 314.703125 457.496094 L 314.914062 457.347656 L 315.125 457.203125 L 315.34375 457.0625 L 315.566406 456.933594 L 315.796875 456.820312 L 316.035156 456.71875 L 316.28125 456.632812 L 316.53125 456.558594 L 316.789062 456.496094 L 317.054688 456.449219 L 317.328125 456.414062 L 317.609375 456.394531 L 317.894531 456.386719 L 318.316406 456.398438 L 318.714844 456.4375 L 319.097656 456.5 L 319.457031 456.582031 L 319.800781 456.695312 L 320.125 456.828125 L 320.425781 456.988281 L 320.710938 457.171875 L 320.972656 457.378906 L 321.21875 457.613281 L 321.441406 457.867188 L 321.640625 458.136719 L 321.820312 458.421875 L 321.972656 458.722656 L 322.101562 459.039062 L 322.207031 459.371094 L 322.289062 459.71875 L 322.347656 460.085938 L 322.382812 460.464844 L 322.394531 460.863281 L 322.386719 461.179688 L 322.355469 461.496094 L 322.3125 461.8125 L 322.246094 462.132812 L 322.164062 462.449219 L 322.0625 462.769531 L 321.941406 463.09375 L 321.800781 463.414062 L 321.644531 463.738281 L 321.46875 464.0625 L 321.28125 464.390625 L 321.078125 464.722656 L 320.863281 465.058594 L 320.628906 465.402344 L 320.382812 465.75 L 320.121094 466.101562 L 319.839844 466.460938 L 319.550781 466.824219 L 319.242188 467.191406 L 318.917969 467.5625 L 318.589844 467.941406 L 318.246094 468.332031 L 317.890625 468.730469 L 317.523438 469.140625 L 317.144531 469.558594 L 316.753906 469.984375 L 316.351562 470.421875 L 315.933594 470.867188 L 315.507812 471.324219 L 315.070312 471.789062 L 315.199219 471.777344 L 315.332031 471.769531 L 315.460938 471.761719 L 315.59375 471.75 L 315.726562 471.746094 L 316.125 471.722656 L 316.257812 471.71875 L 316.394531 471.714844 L 316.535156 471.703125 L 316.945312 471.679688 L 317.082031 471.675781 L 317.214844 471.671875 L 317.351562 471.667969 L 317.480469 471.664062 L 323.195312 471.664062 L 323.195312 472.664062 Z M 313.394531 472.664062 "/>
<path fill-rule="nonzero" fill="rgb(10.196078%, 10.196078%, 10.196078%)" fill-opacity="1" d="M 492.15625 472.964844 L 491.902344 472.960938 L 491.660156 472.949219 L 491.417969 472.933594 L 491.1875 472.910156 L 490.960938 472.882812 L 490.742188 472.847656 L 490.53125 472.804688 L 490.324219 472.753906 L 490.125 472.699219 L 489.929688 472.636719 L 489.742188 472.566406 L 489.558594 472.492188 L 489.382812 472.414062 L 489.210938 472.328125 L 489.042969 472.246094 L 488.878906 472.15625 L 488.722656 472.0625 L 488.570312 471.964844 L 488.421875 471.867188 L 488.28125 471.761719 L 488.148438 471.65625 L 488.015625 471.554688 L 487.765625 471.34375 L 487.523438 471.132812 L 487.296875 470.921875 L 487.1875 470.816406 L 487.082031 470.714844 L 487.730469 469.9375 L 487.878906 470.089844 L 488.03125 470.242188 L 488.191406 470.390625 L 488.359375 470.539062 L 488.53125 470.683594 L 488.707031 470.824219 L 488.890625 470.960938 L 489.082031 471.097656 L 489.277344 471.230469 L 489.480469 471.363281 L 489.691406 471.480469 L 489.914062 471.589844 L 490.152344 471.683594 L 490.402344 471.761719 L 490.660156 471.832031 L 490.933594 471.886719 L 491.222656 471.933594 L 491.519531 471.964844 L 491.832031 471.980469 L 492.15625 471.988281 L 492.476562 471.976562 L 492.78125 471.949219 L 493.078125 471.902344 L 493.363281 471.835938 L 493.636719 471.75 L 493.898438 471.644531 L 494.148438 471.523438 L 494.386719 471.378906 L 494.613281 471.21875 L 494.832031 471.039062 L 495.03125 470.835938 L 495.207031 470.621094 L 495.367188 470.398438 L 495.503906 470.15625 L 495.617188 469.90625 L 495.710938 469.644531 L 495.785156 469.367188 L 495.839844 469.078125 L 495.871094 468.777344 L 495.878906 468.464844 L 495.867188 468.140625 L 495.828125 467.828125 L 495.761719 467.527344 L 495.671875 467.242188 L 495.554688 466.96875 L 495.414062 466.707031 L 495.242188 466.460938 L 495.046875 466.222656 L 494.828125 466 L 494.582031 465.789062 L 494.308594 465.59375 L 494 465.417969 L 493.660156 465.265625 L 493.285156 465.132812 L 492.875 465.019531 L 492.429688 464.925781 L 491.949219 464.855469 L 491.4375 464.804688 L 490.886719 464.773438 L 490.304688 464.761719 L 490.304688 463.789062 L 490.667969 463.785156 L 491.015625 463.769531 L 491.347656 463.746094 L 491.664062 463.714844 L 491.96875 463.675781 L 492.253906 463.625 L 492.527344 463.566406 L 492.785156 463.5 L 493.027344 463.421875 L 493.253906 463.339844 L 493.46875 463.238281 L 493.671875 463.136719 L 493.859375 463.023438 L 494.035156 462.90625 L 494.199219 462.78125 L 494.351562 462.652344 L 494.488281 462.515625 L 494.617188 462.371094 L 494.730469 462.21875 L 494.832031 462.0625 L 494.921875 461.902344 L 495 461.738281 L 495.074219 461.570312 L 495.132812 461.398438 L 495.1875 461.226562 L 495.230469 461.050781 L 495.261719 460.871094 L 495.285156 460.6875 L 495.300781 460.5 L 495.304688 460.3125 L 495.296875 460.046875 L 495.269531 459.796875 L 495.226562 459.550781 L 495.164062 459.320312 L 495.085938 459.101562 L 494.992188 458.890625 L 494.875 458.691406 L 494.746094 458.503906 L 494.597656 458.328125 L 494.429688 458.164062 L 494.25 458.007812 L 494.054688 457.867188 L 493.851562 457.742188 L 493.632812 457.636719 L 493.40625 457.542969 L 493.164062 457.46875 L 492.910156 457.414062 L 492.648438 457.371094 L 492.371094 457.347656 L 492.082031 457.339844 L 491.863281 457.34375 L 491.648438 457.359375 L 491.433594 457.386719 L 491.222656 457.421875 L 491.019531 457.46875 L 490.816406 457.527344 L 490.613281 457.59375 L 490.417969 457.675781 L 490.222656 457.761719 L 490.03125 457.863281 L 489.847656 457.964844 L 489.667969 458.070312 L 489.496094 458.183594 L 489.160156 458.417969 L 489 458.542969 L 488.847656 458.671875 L 488.695312 458.808594 L 488.546875 458.945312 L 488.40625 459.089844 L 487.753906 458.339844 L 487.921875 458.179688 L 488.09375 458.027344 L 488.269531 457.878906 L 488.453125 457.734375 L 488.636719 457.59375 L 488.828125 457.457031 L 489.019531 457.328125 L 489.21875 457.203125 L 489.421875 457.082031 L 489.628906 456.964844 L 489.847656 456.855469 L 490.074219 456.757812 L 490.300781 456.667969 L 490.539062 456.59375 L 490.78125 456.53125 L 491.027344 456.480469 L 491.28125 456.441406 L 491.542969 456.410156 L 491.808594 456.394531 L 492.082031 456.386719 L 492.328125 456.390625 L 492.570312 456.40625 L 492.804688 456.429688 L 493.035156 456.460938 L 493.261719 456.5 L 493.480469 456.550781 L 493.695312 456.609375 L 493.90625 456.675781 L 494.109375 456.753906 L 494.304688 456.839844 L 494.5 456.933594 L 494.6875 457.035156 L 494.867188 457.144531 L 495.039062 457.265625 L 495.199219 457.394531 L 495.351562 457.53125 L 495.496094 457.675781 L 495.632812 457.828125 L 495.761719 457.992188 L 495.878906 458.164062 L 495.988281 458.335938 L 496.085938 458.519531 L 496.171875 458.707031 L 496.25 458.902344 L 496.3125 459.105469 L 496.363281 459.316406 L 496.402344 459.535156 L 496.433594 459.761719 L 496.449219 459.996094 L 496.457031 460.238281 L 496.445312 460.546875 L 496.421875 460.84375 L 496.375 461.128906 L 496.316406 461.402344 L 496.238281 461.664062 L 496.140625 461.910156 L 496.027344 462.148438 L 495.894531 462.375 L 495.746094 462.585938 L 495.582031 462.789062 L 495.40625 462.972656 L 495.222656 463.148438 L 495.027344 463.3125 L 494.824219 463.46875 L 494.613281 463.613281 L 494.390625 463.746094 L 494.15625 463.871094 L 493.917969 463.988281 L 493.664062 464.09375 L 493.40625 464.1875 L 493.40625 464.289062 L 493.605469 464.332031 L 493.796875 464.382812 L 493.988281 464.441406 L 494.171875 464.507812 L 494.355469 464.582031 L 494.535156 464.664062 L 494.707031 464.75 L 494.878906 464.847656 L 495.042969 464.953125 L 495.207031 465.0625 L 495.367188 465.175781 L 495.523438 465.296875 L 495.671875 465.421875 L 495.8125 465.550781 L 495.949219 465.6875 L 496.078125 465.832031 L 496.203125 465.980469 L 496.316406 466.136719 L 496.425781 466.296875 L 496.53125 466.464844 L 496.625 466.636719 L 496.710938 466.8125 L 496.785156 466.996094 L 496.851562 467.1875 L 496.90625 467.382812 L 496.949219 467.582031 L 496.984375 467.789062 L 497.011719 468 L 497.027344 468.214844 L 497.03125 468.4375 L 497.023438 468.710938 L 497.003906 468.972656 L 496.972656 469.230469 L 496.925781 469.480469 L 496.867188 469.726562 L 496.796875 469.960938 L 496.710938 470.191406 L 496.613281 470.414062 L 496.503906 470.628906 L 496.378906 470.839844 L 496.246094 471.039062 L 496.101562 471.230469 L 495.949219 471.410156 L 495.789062 471.582031 L 495.617188 471.746094 L 495.4375 471.898438 L 495.25 472.039062 L 495.050781 472.175781 L 494.847656 472.296875 L 494.628906 472.414062 L 494.40625 472.515625 L 494.179688 472.609375 L 493.945312 472.695312 L 493.707031 472.765625 L 493.460938 472.824219 L 493.210938 472.875 L 492.957031 472.914062 L 492.695312 472.941406 L 492.429688 472.957031 Z M 492.15625 472.964844 "/>
<path fill-rule="nonzero" fill="rgb(10.196078%, 10.196078%, 10.196078%)" fill-opacity="1" d="M 662.089844 466.9375 L 668.089844 466.9375 L 668.089844 461.089844 L 668.09375 460.976562 L 668.09375 460.734375 L 668.097656 460.605469 L 668.097656 460.46875 L 668.101562 460.328125 L 668.105469 460.183594 L 668.109375 460.03125 L 668.113281 459.875 L 668.117188 459.714844 L 668.125 459.550781 L 668.136719 459.394531 L 668.144531 459.242188 L 668.152344 459.097656 L 668.160156 458.957031 L 668.167969 458.820312 L 668.175781 458.691406 L 668.179688 458.570312 L 668.1875 458.449219 L 668.191406 458.339844 L 668.089844 458.339844 L 667.972656 458.535156 L 667.910156 458.636719 L 667.660156 459.027344 L 667.597656 459.121094 L 667.53125 459.21875 L 667.464844 459.3125 L 667.402344 459.410156 L 667.203125 459.703125 L 667.136719 459.808594 L 667.066406 459.910156 L 667 460.015625 L 666.929688 460.121094 L 666.863281 460.230469 L 666.792969 460.339844 Z M 668.089844 472.664062 L 668.089844 467.886719 L 660.742188 467.886719 L 660.742188 467.238281 L 668.167969 456.6875 L 669.167969 456.6875 L 669.167969 466.9375 L 671.542969 466.9375 L 671.542969 467.886719 L 669.167969 467.886719 L 669.167969 472.664062 Z M 668.089844 472.664062 "/>
</svg>
