<?xml version="1.0" encoding="UTF-8"?>
<svg xmlns="http://www.w3.org/2000/svg" xmlns:xlink="http://www.w3.org/1999/xlink" width="648" height="360" viewBox="0 0 648 360">
<defs>
<clipPath id="clip-0">
<path clip-rule="nonzero" d="M 37.527344 13.449219 L 634.546875 13.449219 L 634.546875 312.195312 L 37.527344 312.195312 Z M 37.527344 13.449219 "/>
</clipPath>
<clipPath id="clip-1">
<path clip-rule="nonzero" d="M 37.527344 297 L 634.546875 297 L 634.546875 300 L 37.527344 300 Z M 37.527344 297 "/>
</clipPath>
<clipPath id="clip-2">
<path clip-rule="nonzero" d="M 78 13.449219 L 81 13.449219 L 81 312.195312 L 78 312.195312 Z M 78 13.449219 "/>
</clipPath>
<clipPath id="clip-3">
<path clip-rule="nonzero" d="M 121 13.449219 L 124 13.449219 L 124 312.195312 L 121 312.195312 Z M 121 13.449219 "/>
</clipPath>
<clipPath id="clip-4">
<path clip-rule="nonzero" d="M 163 13.449219 L 167 13.449219 L 167 312.195312 L 163 312.195312 Z M 163 13.449219 "/>
</clipPath>
<clipPath id="clip-5">
<path clip-rule="nonzero" d="M 206 13.449219 L 210 13.449219 L 210 312.195312 L 206 312.195312 Z M 206 13.449219 "/>
</clipPath>
<clipPath id="clip-6">
<path clip-rule="nonzero" d="M 249 13.449219 L 252 13.449219 L 252 312.195312 L 249 312.195312 Z M 249 13.449219 "/>
</clipPath>
<clipPath id="clip-7">
<path clip-rule="nonzero" d="M 291 13.449219 L 295 13.449219 L 295 312.195312 L 291 312.195312 Z M 291 13.449219 "/>
</clipPath>
<clipPath id="clip-8">
<path clip-rule="nonzero" d="M 334 13.449219 L 338 13.449219 L 338 312.195312 L 334 312.195312 Z M 334 13.449219 "/>
</clipPath>
<clipPath id="clip-9">
<path clip-rule="nonzero" d="M 377 13.449219 L 381 13.449219 L 381 312.195312 L 377 312.195312 Z M 377 13.449219 "/>
</clipPath>
<clipPath id="clip-10">
<path clip-rule="nonzero" d="M 420 13.449219 L 423 13.449219 L 423 312.195312 L 420 312.195312 Z M 420 13.449219 "/>
</clipPath>
<clipPath id="clip-11">
<path clip-rule="nonzero" d="M 462 13.449219 L 466 13.449219 L 466 312.195312 L 462 312.195312 Z M 462 13.449219 "/>
</clipPath>
<clipPath id="clip-12">
<path clip-rule="nonzero" d="M 505 13.449219 L 509 13.449219 L 509 312.195312 L 505 312.195312 Z M 505 13.449219 "/>
</clipPath>
<clipPath id="clip-13">
<path clip-rule="nonzero" d="M 548 13.449219 L 552 13.449219 L 552 312.195312 L 548 312.195312 Z M 548 13.449219 "/>
</clipPath>
<clipPath id="clip-14">
<path clip-rule="nonzero" d="M 591 13.449219 L 594 13.449219 L 594 312.195312 L 591 312.195312 Z M 591 13.449219 "/>
</clipPath>
</defs>
<rect x="-64.8" y="-36" width="777.6" height="432" fill="rgb(100%, 100%, 100%)" fill-opacity="1"/>
<rect x="-64.8" y="-36" width="777.6" height="432" fill="rgb(95.294118%, 95.294118%, 95.294118%)" fill-opacity="1"/>
<path fill="none" stroke-width="2.618947" stroke-linecap="round" stroke-linejoin="round" stroke="rgb(95.294118%, 95.294118%, 95.294118%)" stroke-opacity="1" stroke-miterlimit="10" d="M 0 360 L 648 360 L 648 0 L 0 0 Z M 0 360 "/>
<g clip-path="url(#clip-0)">
<path fill-rule="nonzero" fill="rgb(95.294118%, 95.294118%, 95.294118%)" fill-opacity="1" stroke-width="2.618947" stroke-linecap="round" stroke-linejoin="round" stroke="rgb(95.294118%, 95.294118%, 95.294118%)" stroke-opacity="1" stroke-miterlimit="10" d="M 37.527344 312.195312 L 634.546875 312.195312 L 634.546875 13.449219 L 37.527344 13.449219 Z M 37.527344 312.195312 "/>
</g>
<g clip-path="url(#clip-1)">
<path fill="none" stroke-width="2.618947" stroke-linecap="butt" stroke-linejoin="round" stroke="rgb(92.156863%, 92.156863%, 92.156863%)" stroke-opacity="1" stroke-miterlimit="10" d="M 37.527344 298.617188 L 634.550781 298.617188 "/>
</g>
<g clip-path="url(#clip-2)">
<path fill="none" stroke-width="2.618947" stroke-linecap="butt" stroke-linejoin="round" stroke="rgb(92.156863%, 92.156863%, 92.156863%)" stroke-opacity="1" stroke-miterlimit="10" d="M 79.625 312.195312 L 79.625 13.449219 "/>
</g>
<g clip-path="url(#clip-3)">
<path fill="none" stroke-width="2.618947" stroke-linecap="butt" stroke-linejoin="round" stroke="rgb(92.156863%, 92.156863%, 92.156863%)" stroke-opacity="1" stroke-miterlimit="10" d="M 122.359375 312.195312 L 122.359375 13.449219 "/>
</g>
<g clip-path="url(#clip-4)">
<path fill="none" stroke-width="2.618947" stroke-linecap="butt" stroke-linejoin="round" stroke="rgb(92.156863%, 92.156863%, 92.156863%)" stroke-opacity="1" stroke-miterlimit="10" d="M 165.097656 312.195312 L 165.097656 13.449219 "/>
</g>
<g clip-path="url(#clip-5)">
<path fill="none" stroke-width="2.618947" stroke-linecap="butt" stroke-linejoin="round" stroke="rgb(92.156863%, 92.156863%, 92.156863%)" stroke-opacity="1" stroke-miterlimit="10" d="M 207.832031 312.195312 L 207.832031 13.449219 "/>
</g>
<g clip-path="url(#clip-6)">
<path fill="none" stroke-width="2.618947" stroke-linecap="butt" stroke-linejoin="round" stroke="rgb(92.156863%, 92.156863%, 92.156863%)" stroke-opacity="1" stroke-miterlimit="10" d="M 250.566406 312.195312 L 250.566406 13.449219 "/>
</g>
<g clip-path="url(#clip-7)">
<path fill="none" stroke-width="2.618947" stroke-linecap="butt" stroke-linejoin="round" stroke="rgb(92.156863%, 92.156863%, 92.156863%)" stroke-opacity="1" stroke-miterlimit="10" d="M 293.304688 312.195312 L 293.304688 13.449219 "/>
</g>
<g clip-path="url(#clip-8)">
<path fill="none" stroke-width="2.618947" stroke-linecap="butt" stroke-linejoin="round" stroke="rgb(92.156863%, 92.156863%, 92.156863%)" stroke-opacity="1" stroke-miterlimit="10" d="M 336.039062 312.195312 L 336.039062 13.449219 "/>
</g>
<g clip-path="url(#clip-9)">
<path fill="none" stroke-width="2.618947" stroke-linecap="butt" stroke-linejoin="round" stroke="rgb(92.156863%, 92.156863%, 92.156863%)" stroke-opacity="1" stroke-miterlimit="10" d="M 378.777344 312.195312 L 378.777344 13.449219 "/>
</g>
<g clip-path="url(#clip-10)">
<path fill="none" stroke-width="2.618947" stroke-linecap="butt" stroke-linejoin="round" stroke="rgb(92.156863%, 92.156863%, 92.156863%)" stroke-opacity="1" stroke-miterlimit="10" d="M 421.511719 312.195312 L 421.511719 13.449219 "/>
</g>
<g clip-path="url(#clip-11)">
<path fill="none" stroke-width="2.618947" stroke-linecap="butt" stroke-linejoin="round" stroke="rgb(92.156863%, 92.156863%, 92.156863%)" stroke-opacity="1" stroke-miterlimit="10" d="M 464.246094 312.195312 L 464.246094 13.449219 "/>
</g>
<g clip-path="url(#clip-12)">
<path fill="none" stroke-width="2.618947" stroke-linecap="butt" stroke-linejoin="round" stroke="rgb(92.156863%, 92.156863%, 92.156863%)" stroke-opacity="1" stroke-miterlimit="10" d="M 506.984375 312.195312 L 506.984375 13.449219 "/>
</g>
<g clip-path="url(#clip-13)">
<path fill="none" stroke-width="2.618947" stroke-linecap="butt" stroke-linejoin="round" stroke="rgb(92.156863%, 92.156863%, 92.156863%)" stroke-opacity="1" stroke-miterlimit="10" d="M 549.71875 312.195312 L 549.71875 13.449219 "/>
</g>
<g clip-path="url(#clip-14)">
<path fill="none" stroke-width="2.618947" stroke-linecap="butt" stroke-linejoin="round" stroke="rgb(92.156863%, 92.156863%, 92.156863%)" stroke-opacity="1" stroke-miterlimit="10" d="M 592.457031 312.195312 L 592.457031 13.449219 "/>
</g>
<path fill-rule="nonzero" fill="rgb(56.078431%, 16.470588%, 26.27451%)" fill-opacity="1" d="M 64.667969 298.617188 L 94.582031 298.617188 L 94.582031 282.933594 L 64.667969 282.933594 Z M 64.667969 298.617188 "/>
<path fill-rule="nonzero" fill="rgb(56.078431%, 16.470588%, 26.27451%)" fill-opacity="1" d="M 107.402344 298.617188 L 137.316406 298.617188 L 137.316406 217.964844 L 107.402344 217.964844 Z M 107.402344 298.617188 "/>
<path fill-rule="nonzero" fill="rgb(56.078431%, 16.470588%, 26.27451%)" fill-opacity="1" d="M 150.136719 298.617188 L 180.050781 298.617188 L 180.050781 108.507812 L 150.136719 108.507812 Z M 150.136719 298.617188 "/>
<path fill-rule="nonzero" fill="rgb(56.078431%, 16.470588%, 26.27451%)" fill-opacity="1" d="M 192.875 298.617188 L 222.789062 298.617188 L 222.789062 27.03125 L 192.875 27.03125 Z M 192.875 298.617188 "/>
<path fill-rule="nonzero" fill="rgb(56.078431%, 16.470588%, 26.27451%)" fill-opacity="1" d="M 235.609375 298.617188 L 265.523438 298.617188 L 265.523438 36.730469 L 235.609375 36.730469 Z M 235.609375 298.617188 "/>
<path fill-rule="nonzero" fill="rgb(56.078431%, 16.470588%, 26.27451%)" fill-opacity="1" d="M 278.347656 298.617188 L 308.261719 298.617188 L 308.261719 119.035156 L 278.347656 119.035156 Z M 278.347656 298.617188 "/>
<path fill-rule="nonzero" fill="rgb(56.078431%, 16.470588%, 26.27451%)" fill-opacity="1" d="M 321.082031 298.617188 L 350.996094 298.617188 L 350.996094 208.828125 L 321.082031 208.828125 Z M 321.082031 298.617188 "/>
<path fill-rule="nonzero" fill="rgb(56.078431%, 16.470588%, 26.27451%)" fill-opacity="1" d="M 363.816406 298.617188 L 393.730469 298.617188 L 393.730469 265.632812 L 363.816406 265.632812 Z M 363.816406 298.617188 "/>
<path fill-rule="nonzero" fill="rgb(56.078431%, 16.470588%, 26.27451%)" fill-opacity="1" d="M 406.554688 298.617188 L 436.46875 298.617188 L 436.46875 289.78125 L 406.554688 289.78125 Z M 406.554688 298.617188 "/>
<path fill-rule="nonzero" fill="rgb(56.078431%, 16.470588%, 26.27451%)" fill-opacity="1" d="M 449.289062 298.617188 L 479.203125 298.617188 L 479.203125 296.933594 L 449.289062 296.933594 Z M 449.289062 298.617188 "/>
<path fill-rule="nonzero" fill="rgb(56.078431%, 16.470588%, 26.27451%)" fill-opacity="1" d="M 492.027344 298.617188 L 521.941406 298.617188 L 521.941406 298.402344 L 492.027344 298.402344 Z M 492.027344 298.617188 "/>
<path fill-rule="nonzero" fill="rgb(56.078431%, 16.470588%, 26.27451%)" fill-opacity="1" d="M 534.761719 298.617188 L 564.675781 298.617188 L 564.675781 298.601562 L 534.761719 298.601562 Z M 534.761719 298.617188 "/>
<path fill-rule="nonzero" fill="rgb(10.196078%, 10.196078%, 10.196078%)" fill-opacity="1" d="M 19.425781 307.152344 L 18.980469 307.132812 L 18.554688 307.066406 L 18.152344 306.957031 L 17.769531 306.804688 L 17.40625 306.609375 L 17.0625 306.371094 L 16.742188 306.089844 L 16.441406 305.761719 L 16.160156 305.390625 L 15.898438 304.980469 L 15.660156 304.527344 L 15.449219 304.035156 L 15.261719 303.507812 L 15.097656 302.945312 L 14.960938 302.347656 L 14.847656 301.710938 L 14.761719 301.039062 L 14.699219 300.332031 L 14.660156 299.585938 L 14.648438 298.804688 L 14.660156 298.027344 L 14.699219 297.289062 L 14.761719 296.585938 L 14.847656 295.921875 L 14.960938 295.292969 L 15.097656 294.699219 L 15.261719 294.144531 L 15.449219 293.628906 L 15.660156 293.148438 L 15.898438 292.703125 L 16.160156 292.300781 L 16.441406 291.9375 L 16.742188 291.621094 L 17.0625 291.34375 L 17.40625 291.109375 L 17.769531 290.917969 L 18.152344 290.769531 L 18.554688 290.664062 L 18.980469 290.601562 L 19.425781 290.578125 L 19.875 290.601562 L 20.300781 290.664062 L 20.707031 290.769531 L 21.09375 290.917969 L 21.457031 291.109375 L 21.796875 291.34375 L 22.117188 291.621094 L 22.417969 291.9375 L 22.695312 292.300781 L 22.949219 292.703125 L 23.1875 293.148438 L 23.398438 293.628906 L 23.585938 294.144531 L 23.75 294.699219 L 23.886719 295.292969 L 24 295.921875 L 24.085938 296.585938 L 24.148438 297.289062 L 24.1875 298.027344 L 24.199219 298.804688 L 24.1875 299.585938 L 24.148438 300.332031 L 24.085938 301.039062 L 24 301.710938 L 23.886719 302.347656 L 23.75 302.945312 L 23.585938 303.507812 L 23.398438 304.035156 L 23.1875 304.527344 L 22.949219 304.980469 L 22.695312 305.390625 L 22.417969 305.761719 L 22.117188 306.089844 L 21.796875 306.371094 L 21.457031 306.609375 L 21.09375 306.804688 L 20.707031 306.957031 L 20.300781 307.066406 L 19.875 307.132812 Z M 19.425781 306.203125 L 19.753906 306.183594 L 20.066406 306.128906 L 20.367188 306.035156 L 20.652344 305.902344 L 20.925781 305.734375 L 21.183594 305.527344 L 21.425781 305.285156 L 21.65625 305.003906 L 21.871094 304.683594 L 22.074219 304.328125 L 22.265625 303.9375 L 22.433594 303.507812 L 22.585938 303.042969 L 22.714844 302.546875 L 22.824219 302.011719 L 22.914062 301.441406 L 22.984375 300.835938 L 23.035156 300.191406 L 23.066406 299.515625 L 23.074219 298.804688 L 23.066406 298.09375 L 23.035156 297.417969 L 22.984375 296.78125 L 22.914062 296.179688 L 22.824219 295.617188 L 22.714844 295.089844 L 22.585938 294.601562 L 22.433594 294.148438 L 22.265625 293.734375 L 22.074219 293.355469 L 21.871094 293.007812 L 21.65625 292.695312 L 21.425781 292.421875 L 21.183594 292.1875 L 20.925781 291.984375 L 20.652344 291.820312 L 20.367188 291.691406 L 20.066406 291.601562 L 19.753906 291.546875 L 19.425781 291.527344 L 19.101562 291.546875 L 18.789062 291.601562 L 18.492188 291.691406 L 18.207031 291.820312 L 17.9375 291.984375 L 17.679688 292.1875 L 17.433594 292.421875 L 17.199219 292.695312 L 16.980469 293.007812 L 16.773438 293.355469 L 16.585938 293.734375 L 16.414062 294.148438 L 16.265625 294.601562 L 16.132812 295.089844 L 16.023438 295.617188 L 15.933594 296.179688 L 15.863281 296.78125 L 15.816406 297.417969 L 15.785156 298.09375 L 15.773438 298.804688 L 15.785156 299.515625 L 15.816406 300.191406 L 15.863281 300.835938 L 15.933594 301.441406 L 16.023438 302.011719 L 16.132812 302.546875 L 16.265625 303.042969 L 16.414062 303.507812 L 16.585938 303.9375 L 16.773438 304.328125 L 16.980469 304.683594 L 17.199219 305.003906 L 17.433594 305.285156 L 17.679688 305.527344 L 17.9375 305.734375 L 18.207031 305.902344 L 18.492188 306.035156 L 18.789062 306.128906 L 19.101562 306.183594 Z M 19.425781 306.203125 "/>
<path fill-rule="nonzero" fill="rgb(10.196078%, 10.196078%, 10.196078%)" fill-opacity="1" d="M 79.613281 341.074219 L 79.167969 341.054688 L 78.742188 340.988281 L 78.339844 340.878906 L 77.957031 340.726562 L 77.59375 340.53125 L 77.25 340.292969 L 76.929688 340.007812 L 76.628906 339.683594 L 76.347656 339.3125 L 76.085938 338.902344 L 75.847656 338.445312 L 75.636719 337.957031 L 75.449219 337.429688 L 75.285156 336.867188 L 75.148438 336.269531 L 75.035156 335.632812 L 74.949219 334.960938 L 74.886719 334.253906 L 74.847656 333.507812 L 74.835938 332.726562 L 74.847656 331.949219 L 74.886719 331.210938 L 74.949219 330.507812 L 75.035156 329.839844 L 75.148438 329.214844 L 75.285156 328.621094 L 75.449219 328.066406 L 75.636719 327.550781 L 75.847656 327.070312 L 76.085938 326.625 L 76.347656 326.222656 L 76.628906 325.859375 L 76.929688 325.542969 L 77.25 325.265625 L 77.59375 325.03125 L 77.957031 324.839844 L 78.339844 324.691406 L 78.742188 324.585938 L 79.167969 324.523438 L 79.613281 324.5 L 80.0625 324.523438 L 80.488281 324.585938 L 80.894531 324.691406 L 81.28125 324.839844 L 81.644531 325.03125 L 81.984375 325.265625 L 82.304688 325.542969 L 82.605469 325.859375 L 82.878906 326.222656 L 83.136719 326.625 L 83.375 327.070312 L 83.585938 327.550781 L 83.773438 328.066406 L 83.9375 328.621094 L 84.074219 329.214844 L 84.1875 329.839844 L 84.273438 330.507812 L 84.335938 331.210938 L 84.375 331.949219 L 84.386719 332.726562 L 84.375 333.507812 L 84.335938 334.253906 L 84.273438 334.960938 L 84.1875 335.632812 L 84.074219 336.269531 L 83.9375 336.867188 L 83.773438 337.429688 L 83.585938 337.957031 L 83.375 338.445312 L 83.136719 338.902344 L 82.878906 339.3125 L 82.605469 339.683594 L 82.304688 340.007812 L 81.984375 340.292969 L 81.644531 340.53125 L 81.28125 340.726562 L 80.894531 340.878906 L 80.488281 340.988281 L 80.0625 341.054688 Z M 79.613281 340.125 L 79.941406 340.105469 L 80.253906 340.050781 L 80.554688 339.957031 L 80.839844 339.824219 L 81.113281 339.65625 L 81.371094 339.449219 L 81.613281 339.207031 L 81.84375 338.925781 L 82.058594 338.605469 L 82.261719 338.25 L 82.453125 337.859375 L 82.621094 337.429688 L 82.773438 336.964844 L 82.902344 336.464844 L 83.011719 335.933594 L 83.101562 335.363281 L 83.171875 334.753906 L 83.222656 334.113281 L 83.25 333.4375 L 83.261719 332.726562 L 83.25 332.015625 L 83.222656 331.339844 L 83.171875 330.703125 L 83.101562 330.101562 L 83.011719 329.539062 L 82.902344 329.011719 L 82.773438 328.523438 L 82.621094 328.070312 L 82.453125 327.652344 L 82.261719 327.277344 L 82.058594 326.929688 L 81.84375 326.617188 L 81.613281 326.34375 L 81.371094 326.109375 L 81.113281 325.90625 L 80.839844 325.742188 L 80.554688 325.613281 L 80.253906 325.523438 L 79.941406 325.46875 L 79.613281 325.449219 L 79.289062 325.46875 L 78.976562 325.523438 L 78.679688 325.613281 L 78.394531 325.742188 L 78.125 325.90625 L 77.867188 326.109375 L 77.621094 326.34375 L 77.386719 326.617188 L 77.167969 326.929688 L 76.960938 327.277344 L 76.773438 327.652344 L 76.601562 328.070312 L 76.453125 328.523438 L 76.320312 329.011719 L 76.210938 329.539062 L 76.121094 330.101562 L 76.050781 330.703125 L 76 331.339844 L 75.972656 332.015625 L 75.960938 332.726562 L 75.972656 333.4375 L 76 334.113281 L 76.050781 334.753906 L 76.121094 335.363281 L 76.210938 335.933594 L 76.320312 336.464844 L 76.453125 336.964844 L 76.601562 337.429688 L 76.773438 337.859375 L 76.960938 338.25 L 77.167969 338.605469 L 77.386719 338.925781 L 77.621094 339.207031 L 77.867188 339.449219 L 78.125 339.65625 L 78.394531 339.824219 L 78.679688 339.957031 L 78.976562 340.050781 L 79.289062 340.105469 Z M 79.613281 340.125 "/>
<path fill-rule="nonzero" fill="rgb(10.196078%, 10.196078%, 10.196078%)" fill-opacity="1" d="M 118.472656 340.777344 L 118.472656 339.800781 L 122.222656 339.800781 L 122.222656 326.550781 L 119.371094 326.550781 L 119.371094 325.800781 L 119.566406 325.765625 L 119.941406 325.6875 L 120.121094 325.648438 L 120.296875 325.605469 L 120.640625 325.519531 L 120.804688 325.472656 L 120.964844 325.425781 L 121.121094 325.375 L 121.273438 325.324219 L 121.421875 325.273438 L 121.566406 325.21875 L 121.707031 325.164062 L 121.972656 325.046875 L 122.097656 324.988281 L 122.21875 324.925781 L 122.335938 324.863281 L 122.449219 324.800781 L 123.347656 324.800781 L 123.347656 339.800781 L 126.824219 339.800781 L 126.824219 340.777344 Z M 118.472656 340.777344 "/>
<path fill-rule="nonzero" fill="rgb(10.196078%, 10.196078%, 10.196078%)" fill-opacity="1" d="M 160.132812 340.777344 L 160.132812 340.074219 L 160.648438 339.546875 L 161.148438 339.035156 L 161.628906 338.535156 L 162.09375 338.050781 L 162.539062 337.582031 L 162.96875 337.125 L 163.378906 336.6875 L 163.773438 336.257812 L 164.148438 335.847656 L 164.507812 335.449219 L 164.851562 335.058594 L 165.171875 334.675781 L 165.480469 334.304688 L 165.769531 333.9375 L 166.039062 333.582031 L 166.292969 333.234375 L 166.53125 332.894531 L 166.75 332.5625 L 166.949219 332.238281 L 167.132812 331.925781 L 167.300781 331.617188 L 167.449219 331.3125 L 167.578125 331.011719 L 167.695312 330.714844 L 167.789062 330.417969 L 167.867188 330.128906 L 167.929688 329.839844 L 167.972656 329.558594 L 168 329.277344 L 168.007812 329 L 168 328.707031 L 167.972656 328.417969 L 167.933594 328.144531 L 167.871094 327.875 L 167.796875 327.621094 L 167.703125 327.371094 L 167.59375 327.132812 L 167.464844 326.90625 L 167.320312 326.683594 L 167.160156 326.476562 L 166.984375 326.28125 L 166.789062 326.105469 L 166.574219 325.953125 L 166.34375 325.820312 L 166.089844 325.707031 L 165.816406 325.613281 L 165.527344 325.542969 L 165.214844 325.492188 L 164.882812 325.460938 L 164.535156 325.449219 L 164.320312 325.457031 L 164.109375 325.472656 L 163.898438 325.503906 L 163.691406 325.546875 L 163.484375 325.601562 L 163.28125 325.667969 L 163.078125 325.746094 L 162.878906 325.835938 L 162.679688 325.9375 L 162.484375 326.050781 L 162.296875 326.171875 L 162.113281 326.300781 L 161.933594 326.4375 L 161.757812 326.578125 L 161.589844 326.726562 L 161.425781 326.878906 L 161.265625 327.039062 L 161.109375 327.203125 L 160.957031 327.375 L 160.808594 327.550781 L 160.082031 326.851562 L 160.265625 326.652344 L 160.453125 326.464844 L 160.640625 326.28125 L 160.835938 326.101562 L 161.234375 325.765625 L 161.441406 325.609375 L 161.652344 325.457031 L 161.867188 325.3125 L 162.082031 325.175781 L 162.308594 325.046875 L 162.539062 324.933594 L 162.773438 324.832031 L 163.019531 324.742188 L 163.269531 324.667969 L 163.53125 324.609375 L 163.796875 324.5625 L 164.066406 324.527344 L 164.347656 324.507812 L 164.632812 324.5 L 165.054688 324.511719 L 165.453125 324.550781 L 165.835938 324.609375 L 166.199219 324.695312 L 166.539062 324.808594 L 166.863281 324.941406 L 167.164062 325.101562 L 167.449219 325.285156 L 167.714844 325.492188 L 167.957031 325.726562 L 168.183594 325.976562 L 168.382812 326.246094 L 168.558594 326.53125 L 168.710938 326.832031 L 168.839844 327.152344 L 168.945312 327.484375 L 169.027344 327.832031 L 169.085938 328.199219 L 169.121094 328.578125 L 169.132812 328.976562 L 169.125 329.289062 L 169.097656 329.609375 L 169.050781 329.925781 L 168.984375 330.242188 L 168.902344 330.5625 L 168.800781 330.882812 L 168.679688 331.203125 L 168.542969 331.527344 L 168.382812 331.851562 L 168.207031 332.175781 L 168.019531 332.503906 L 167.820312 332.835938 L 167.601562 333.171875 L 167.367188 333.515625 L 167.121094 333.863281 L 166.859375 334.214844 L 166.582031 334.574219 L 166.289062 334.933594 L 165.980469 335.304688 L 165.660156 335.675781 L 165.328125 336.054688 L 164.984375 336.445312 L 164.628906 336.84375 L 164.261719 337.25 L 163.882812 337.667969 L 163.492188 338.097656 L 163.089844 338.53125 L 162.675781 338.980469 L 162.246094 339.433594 L 161.808594 339.902344 L 161.9375 339.890625 L 162.070312 339.882812 L 162.199219 339.871094 L 162.597656 339.847656 L 162.730469 339.84375 L 162.863281 339.835938 L 163 339.832031 L 163.132812 339.824219 L 163.273438 339.816406 L 163.410156 339.808594 L 163.550781 339.800781 L 163.683594 339.792969 L 163.957031 339.785156 L 164.222656 339.777344 L 169.933594 339.777344 L 169.933594 340.777344 Z M 160.132812 340.777344 "/>
<path fill-rule="nonzero" fill="rgb(10.196078%, 10.196078%, 10.196078%)" fill-opacity="1" d="M 207.644531 341.074219 L 207.394531 341.070312 L 207.148438 341.0625 L 206.910156 341.046875 L 206.675781 341.023438 L 206.449219 340.996094 L 206.230469 340.957031 L 206.019531 340.917969 L 205.8125 340.867188 L 205.613281 340.8125 L 205.417969 340.75 L 205.230469 340.679688 L 204.871094 340.523438 L 204.699219 340.441406 L 204.53125 340.355469 L 204.210938 340.175781 L 204.058594 340.078125 L 203.910156 339.980469 L 203.769531 339.875 L 203.503906 339.664062 L 203.378906 339.558594 L 203.253906 339.457031 L 203.011719 339.246094 L 202.785156 339.035156 L 202.675781 338.929688 L 202.570312 338.824219 L 203.21875 338.050781 L 203.367188 338.203125 L 203.519531 338.355469 L 203.679688 338.503906 L 203.847656 338.652344 L 204.019531 338.792969 L 204.199219 338.933594 L 204.382812 339.074219 L 204.570312 339.210938 L 204.765625 339.34375 L 204.96875 339.476562 L 205.179688 339.59375 L 205.40625 339.699219 L 205.640625 339.792969 L 205.890625 339.875 L 206.152344 339.945312 L 206.425781 340 L 206.710938 340.042969 L 207.007812 340.074219 L 207.320312 340.09375 L 207.644531 340.101562 L 207.964844 340.089844 L 208.269531 340.0625 L 208.566406 340.015625 L 208.851562 339.949219 L 209.125 339.863281 L 209.386719 339.757812 L 209.636719 339.636719 L 209.875 339.492188 L 210.105469 339.332031 L 210.320312 339.152344 L 210.519531 338.949219 L 210.699219 338.734375 L 210.855469 338.507812 L 210.992188 338.269531 L 211.105469 338.019531 L 211.203125 337.753906 L 211.273438 337.480469 L 211.328125 337.191406 L 211.359375 336.890625 L 211.371094 336.574219 L 211.355469 336.25 L 211.316406 335.941406 L 211.253906 335.640625 L 211.160156 335.355469 L 211.042969 335.082031 L 210.902344 334.820312 L 210.734375 334.570312 L 210.539062 334.335938 L 210.316406 334.113281 L 210.070312 333.902344 L 209.796875 333.707031 L 209.492188 333.53125 L 209.148438 333.378906 L 208.773438 333.246094 L 208.363281 333.132812 L 207.917969 333.039062 L 207.4375 332.96875 L 206.925781 332.917969 L 206.378906 332.886719 L 205.792969 332.875 L 205.792969 331.902344 L 206.15625 331.894531 L 206.503906 331.882812 L 206.835938 331.859375 L 207.15625 331.828125 L 207.457031 331.789062 L 207.746094 331.738281 L 208.015625 331.679688 L 208.273438 331.613281 L 208.515625 331.535156 L 208.746094 331.449219 L 208.957031 331.351562 L 209.160156 331.246094 L 209.347656 331.136719 L 209.523438 331.019531 L 209.6875 330.894531 L 209.839844 330.761719 L 209.976562 330.625 L 210.105469 330.484375 L 210.21875 330.332031 L 210.320312 330.175781 L 210.410156 330.015625 L 210.492188 329.847656 L 210.5625 329.683594 L 210.625 329.511719 L 210.675781 329.339844 L 210.71875 329.160156 L 210.75 328.980469 L 210.777344 328.800781 L 210.789062 328.613281 L 210.792969 328.425781 L 210.785156 328.160156 L 210.757812 327.90625 L 210.714844 327.664062 L 210.65625 327.433594 L 210.574219 327.214844 L 210.480469 327.003906 L 210.367188 326.804688 L 210.234375 326.617188 L 210.085938 326.441406 L 209.917969 326.277344 L 209.738281 326.117188 L 209.546875 325.976562 L 209.339844 325.855469 L 209.125 325.746094 L 208.894531 325.65625 L 208.652344 325.582031 L 208.402344 325.523438 L 208.136719 325.484375 L 207.859375 325.457031 L 207.570312 325.449219 L 207.351562 325.457031 L 207.136719 325.472656 L 206.921875 325.496094 L 206.714844 325.535156 L 206.507812 325.582031 L 206.304688 325.640625 L 206.101562 325.707031 L 205.90625 325.785156 L 205.710938 325.875 L 205.519531 325.976562 L 205.335938 326.078125 L 205.160156 326.183594 L 204.984375 326.296875 L 204.816406 326.410156 L 204.652344 326.53125 L 204.492188 326.65625 L 204.335938 326.785156 L 204.183594 326.917969 L 204.035156 327.058594 L 203.894531 327.199219 L 203.246094 326.449219 L 203.410156 326.292969 L 203.582031 326.140625 L 203.757812 325.992188 L 203.941406 325.847656 L 204.125 325.707031 L 204.316406 325.570312 L 204.507812 325.441406 L 204.707031 325.3125 L 204.910156 325.191406 L 205.121094 325.074219 L 205.335938 324.964844 L 205.5625 324.867188 L 205.792969 324.78125 L 206.027344 324.707031 L 206.269531 324.644531 L 206.515625 324.59375 L 206.769531 324.550781 L 207.03125 324.523438 L 207.296875 324.507812 L 207.570312 324.5 L 207.816406 324.503906 L 208.058594 324.519531 L 208.292969 324.539062 L 208.527344 324.574219 L 208.75 324.613281 L 208.96875 324.664062 L 209.183594 324.722656 L 209.394531 324.789062 L 209.597656 324.863281 L 209.792969 324.949219 L 209.988281 325.042969 L 210.175781 325.148438 L 210.355469 325.257812 L 210.527344 325.378906 L 210.6875 325.507812 L 210.839844 325.644531 L 210.984375 325.789062 L 211.121094 325.941406 L 211.25 326.105469 L 211.371094 326.277344 L 211.480469 326.449219 L 211.578125 326.628906 L 211.664062 326.820312 L 211.738281 327.015625 L 211.800781 327.21875 L 211.851562 327.429688 L 211.894531 327.648438 L 211.921875 327.875 L 211.9375 328.109375 L 211.945312 328.351562 L 211.9375 328.660156 L 211.910156 328.957031 L 211.867188 329.242188 L 211.804688 329.515625 L 211.726562 329.777344 L 211.628906 330.023438 L 211.515625 330.261719 L 211.382812 330.488281 L 211.234375 330.699219 L 211.070312 330.902344 L 210.894531 331.085938 L 210.710938 331.261719 L 210.515625 331.425781 L 210.3125 331.582031 L 210.101562 331.726562 L 209.878906 331.859375 L 209.648438 331.984375 L 209.40625 332.101562 L 209.15625 332.207031 L 208.894531 332.300781 L 208.894531 332.402344 L 209.09375 332.445312 L 209.285156 332.496094 L 209.476562 332.554688 L 209.664062 332.621094 L 209.84375 332.695312 L 210.023438 332.777344 L 210.195312 332.863281 L 210.367188 332.960938 L 210.53125 333.0625 L 210.695312 333.175781 L 210.855469 333.289062 L 211.011719 333.40625 L 211.160156 333.53125 L 211.300781 333.664062 L 211.4375 333.800781 L 211.566406 333.945312 L 211.691406 334.09375 L 211.804688 334.246094 L 211.917969 334.410156 L 212.019531 334.574219 L 212.113281 334.75 L 212.199219 334.925781 L 212.273438 335.109375 L 212.339844 335.300781 L 212.394531 335.496094 L 212.4375 335.695312 L 212.472656 335.898438 L 212.5 336.113281 L 212.515625 336.328125 L 212.519531 336.550781 L 212.511719 336.820312 L 212.492188 337.085938 L 212.460938 337.34375 L 212.414062 337.59375 L 212.355469 337.839844 L 212.285156 338.074219 L 212.199219 338.304688 L 212.101562 338.527344 L 211.992188 338.742188 L 211.871094 338.949219 L 211.734375 339.152344 L 211.589844 339.339844 L 211.4375 339.523438 L 211.277344 339.695312 L 211.105469 339.855469 L 210.925781 340.007812 L 210.738281 340.152344 L 210.542969 340.285156 L 210.335938 340.410156 L 210.121094 340.527344 L 209.898438 340.628906 L 209.667969 340.722656 L 209.433594 340.804688 L 209.195312 340.878906 L 208.949219 340.9375 L 208.699219 340.988281 L 208.445312 341.027344 L 208.183594 341.054688 L 207.917969 341.070312 Z M 207.644531 341.074219 "/>
<path fill-rule="nonzero" fill="rgb(10.196078%, 10.196078%, 10.196078%)" fill-opacity="1" d="M 246.332031 335.050781 L 252.332031 335.050781 L 252.332031 328.84375 L 252.335938 328.714844 L 252.335938 328.582031 L 252.339844 328.441406 L 252.34375 328.296875 L 252.347656 328.144531 L 252.351562 327.988281 L 252.355469 327.824219 L 252.363281 327.664062 L 252.375 327.507812 L 252.382812 327.355469 L 252.390625 327.210938 L 252.398438 327.070312 L 252.40625 326.933594 L 252.414062 326.804688 L 252.417969 326.679688 L 252.425781 326.5625 L 252.429688 326.449219 L 252.332031 326.449219 L 252.269531 326.550781 L 252.210938 326.648438 L 252.148438 326.75 L 251.960938 327.042969 L 251.898438 327.136719 L 251.835938 327.234375 L 251.769531 327.332031 L 251.707031 327.425781 L 251.640625 327.519531 L 251.574219 327.617188 L 251.507812 327.71875 L 251.441406 327.816406 L 251.375 327.917969 L 251.304688 328.023438 L 251.238281 328.128906 L 251.167969 328.234375 L 251.101562 328.339844 L 251.03125 328.449219 Z M 252.332031 340.777344 L 252.332031 336 L 244.980469 336 L 244.980469 335.351562 L 252.40625 324.800781 L 253.40625 324.800781 L 253.40625 335.050781 L 255.78125 335.050781 L 255.78125 336 L 253.40625 336 L 253.40625 340.777344 Z M 252.332031 340.777344 "/>
<path fill-rule="nonzero" fill="rgb(10.196078%, 10.196078%, 10.196078%)" fill-opacity="1" d="M 292.992188 341.074219 L 292.738281 341.070312 L 292.496094 341.0625 L 292.253906 341.046875 L 292.023438 341.023438 L 291.796875 340.996094 L 291.578125 340.957031 L 291.367188 340.917969 L 291.160156 340.867188 L 290.960938 340.8125 L 290.765625 340.75 L 290.582031 340.683594 L 290.40625 340.613281 L 290.234375 340.539062 L 290.066406 340.460938 L 289.902344 340.382812 L 289.746094 340.296875 L 289.59375 340.210938 L 289.445312 340.117188 L 289.304688 340.023438 L 289.167969 339.925781 L 289.03125 339.824219 L 288.902344 339.726562 L 288.773438 339.625 L 288.648438 339.527344 L 288.527344 339.425781 L 288.410156 339.324219 L 288.292969 339.226562 L 288.183594 339.125 L 288.074219 339.027344 L 287.964844 338.925781 L 288.589844 338.152344 L 288.738281 338.292969 L 288.890625 338.4375 L 289.050781 338.578125 L 289.214844 338.714844 L 289.386719 338.851562 L 289.558594 338.984375 L 289.742188 339.117188 L 289.925781 339.246094 L 290.117188 339.375 L 290.316406 339.5 L 290.527344 339.613281 L 290.75 339.714844 L 290.984375 339.804688 L 291.230469 339.882812 L 291.492188 339.949219 L 291.761719 340.003906 L 292.046875 340.046875 L 292.339844 340.078125 L 292.648438 340.09375 L 292.964844 340.101562 L 293.179688 340.09375 L 293.390625 340.078125 L 293.59375 340.054688 L 293.796875 340.015625 L 293.996094 339.96875 L 294.191406 339.910156 L 294.386719 339.84375 L 294.574219 339.765625 L 294.757812 339.675781 L 294.941406 339.574219 L 295.117188 339.460938 L 295.289062 339.339844 L 295.449219 339.207031 L 295.605469 339.066406 L 295.753906 338.917969 L 295.894531 338.761719 L 296.03125 338.597656 L 296.15625 338.421875 L 296.277344 338.242188 L 296.390625 338.050781 L 296.496094 337.851562 L 296.589844 337.648438 L 296.671875 337.4375 L 296.742188 337.222656 L 296.804688 337 L 296.851562 336.773438 L 296.890625 336.539062 L 296.917969 336.296875 L 296.9375 336.050781 L 296.941406 335.800781 L 296.929688 335.421875 L 296.898438 335.0625 L 296.84375 334.71875 L 296.769531 334.390625 L 296.671875 334.082031 L 296.554688 333.789062 L 296.414062 333.507812 L 296.253906 333.25 L 296.070312 333.003906 L 295.867188 332.777344 L 295.648438 332.566406 L 295.417969 332.378906 L 295.171875 332.214844 L 294.910156 332.070312 L 294.636719 331.949219 L 294.34375 331.851562 L 294.042969 331.773438 L 293.722656 331.71875 L 293.390625 331.6875 L 293.042969 331.675781 L 292.859375 331.679688 L 292.679688 331.6875 L 292.507812 331.703125 L 292.339844 331.722656 L 292.179688 331.75 L 292.019531 331.785156 L 291.867188 331.824219 L 291.722656 331.867188 L 291.578125 331.917969 L 291.441406 331.976562 L 291.3125 332.03125 L 291.179688 332.09375 L 291.042969 332.160156 L 290.910156 332.230469 L 290.773438 332.308594 L 290.632812 332.386719 L 290.496094 332.46875 L 290.351562 332.558594 L 290.210938 332.652344 L 290.066406 332.75 L 289.292969 332.277344 L 289.867188 324.800781 L 297.242188 324.800781 L 297.242188 325.777344 L 290.867188 325.777344 L 290.367188 331.550781 L 290.492188 331.476562 L 290.617188 331.40625 L 290.875 331.273438 L 291.132812 331.15625 L 291.265625 331.097656 L 291.53125 330.996094 L 291.804688 330.902344 L 291.945312 330.859375 L 292.089844 330.824219 L 292.238281 330.789062 L 292.390625 330.761719 L 292.546875 330.742188 L 292.710938 330.722656 L 292.875 330.710938 L 293.042969 330.703125 L 293.214844 330.699219 L 293.484375 330.707031 L 293.746094 330.722656 L 294.003906 330.75 L 294.257812 330.789062 L 294.503906 330.839844 L 294.746094 330.898438 L 294.984375 330.96875 L 295.214844 331.050781 L 295.445312 331.144531 L 295.667969 331.25 L 295.886719 331.363281 L 296.097656 331.484375 L 296.296875 331.621094 L 296.492188 331.765625 L 296.671875 331.925781 L 296.84375 332.097656 L 297.007812 332.28125 L 297.164062 332.472656 L 297.304688 332.679688 L 297.441406 332.902344 L 297.566406 333.125 L 297.675781 333.367188 L 297.773438 333.617188 L 297.855469 333.882812 L 297.929688 334.164062 L 297.988281 334.453125 L 298.03125 334.757812 L 298.066406 335.078125 L 298.085938 335.40625 L 298.089844 335.75 L 298.082031 336.085938 L 298.0625 336.410156 L 298.023438 336.726562 L 297.972656 337.03125 L 297.902344 337.324219 L 297.820312 337.609375 L 297.722656 337.886719 L 297.613281 338.152344 L 297.484375 338.40625 L 297.339844 338.652344 L 297.191406 338.878906 L 297.035156 339.097656 L 296.867188 339.304688 L 296.6875 339.503906 L 296.503906 339.6875 L 296.308594 339.863281 L 296.105469 340.027344 L 295.894531 340.179688 L 295.671875 340.320312 L 295.441406 340.449219 L 295.210938 340.570312 L 294.976562 340.675781 L 294.738281 340.769531 L 294.496094 340.851562 L 294.253906 340.917969 L 294.007812 340.976562 L 293.757812 341.019531 L 293.503906 341.050781 L 293.25 341.070312 Z M 292.992188 341.074219 "/>
<path fill-rule="nonzero" fill="rgb(10.196078%, 10.196078%, 10.196078%)" fill-opacity="1" d="M 336.378906 332.074219 L 336.207031 332.082031 L 336.03125 332.097656 L 335.851562 332.125 L 335.667969 332.164062 L 335.484375 332.214844 L 335.292969 332.273438 L 335.101562 332.34375 L 334.90625 332.425781 L 334.707031 332.519531 L 334.503906 332.625 L 334.296875 332.738281 L 334.09375 332.867188 L 333.890625 333.011719 L 333.691406 333.171875 L 333.488281 333.351562 L 333.289062 333.542969 L 333.09375 333.753906 L 332.894531 333.976562 L 332.699219 334.21875 L 332.503906 334.476562 L 332.539062 334.972656 L 332.597656 335.449219 L 332.667969 335.90625 L 332.757812 336.34375 L 332.863281 336.761719 L 332.988281 337.164062 L 333.128906 337.546875 L 333.285156 337.90625 L 333.460938 338.25 L 333.652344 338.574219 L 333.863281 338.871094 L 334.089844 339.132812 L 334.335938 339.367188 L 334.605469 339.566406 L 334.890625 339.738281 L 335.195312 339.878906 L 335.519531 339.984375 L 335.859375 340.0625 L 336.222656 340.109375 L 336.601562 340.125 L 336.785156 340.121094 L 336.964844 340.105469 L 337.140625 340.078125 L 337.308594 340.042969 L 337.476562 339.996094 L 337.640625 339.9375 L 337.800781 339.867188 L 337.953125 339.789062 L 338.105469 339.699219 L 338.253906 339.601562 L 338.394531 339.488281 L 338.53125 339.367188 L 338.660156 339.238281 L 338.785156 339.105469 L 338.902344 338.964844 L 339.015625 338.8125 L 339.121094 338.660156 L 339.21875 338.496094 L 339.3125 338.328125 L 339.402344 338.152344 L 339.484375 337.964844 L 339.554688 337.769531 L 339.617188 337.574219 L 339.675781 337.375 L 339.722656 337.167969 L 339.757812 336.960938 L 339.789062 336.746094 L 339.808594 336.527344 L 339.824219 336.304688 L 339.828125 336.074219 L 339.820312 335.738281 L 339.792969 335.410156 L 339.753906 335.09375 L 339.695312 334.792969 L 339.621094 334.5 L 339.53125 334.222656 L 339.421875 333.953125 L 339.300781 333.699219 L 339.160156 333.457031 L 339.003906 333.226562 L 338.832031 333.007812 L 338.640625 332.8125 L 338.429688 332.640625 L 338.199219 332.488281 L 337.945312 332.363281 L 337.671875 332.257812 L 337.378906 332.179688 L 337.066406 332.121094 L 336.730469 332.085938 Z M 336.578125 341.074219 L 336.105469 341.054688 L 335.65625 340.996094 L 335.226562 340.898438 L 334.8125 340.761719 L 334.421875 340.589844 L 334.046875 340.375 L 333.695312 340.121094 L 333.359375 339.828125 L 333.046875 339.496094 L 332.753906 339.125 L 332.484375 338.714844 L 332.25 338.269531 L 332.039062 337.792969 L 331.855469 337.28125 L 331.703125 336.738281 L 331.578125 336.160156 L 331.476562 335.550781 L 331.410156 334.910156 L 331.367188 334.234375 L 331.351562 333.527344 L 331.355469 333.027344 L 331.371094 332.546875 L 331.394531 332.082031 L 331.429688 331.632812 L 331.472656 331.199219 L 331.523438 330.785156 L 331.585938 330.382812 L 331.65625 329.996094 L 331.738281 329.628906 L 331.828125 329.277344 L 331.925781 328.9375 L 332.03125 328.613281 L 332.144531 328.300781 L 332.261719 328.003906 L 332.390625 327.71875 L 332.523438 327.449219 L 332.664062 327.191406 L 332.8125 326.949219 L 332.964844 326.71875 L 333.128906 326.5 L 333.292969 326.296875 L 333.464844 326.101562 L 333.640625 325.921875 L 333.824219 325.753906 L 334.007812 325.59375 L 334.199219 325.449219 L 334.390625 325.3125 L 334.589844 325.1875 L 334.792969 325.078125 L 335.003906 324.976562 L 335.21875 324.886719 L 335.433594 324.804688 L 335.652344 324.734375 L 335.875 324.671875 L 336.097656 324.621094 L 336.320312 324.578125 L 336.542969 324.542969 L 336.769531 324.519531 L 337 324.503906 L 337.226562 324.5 L 337.449219 324.503906 L 337.664062 324.515625 L 337.875 324.539062 L 338.074219 324.570312 L 338.269531 324.605469 L 338.460938 324.652344 L 338.644531 324.707031 L 338.820312 324.773438 L 338.988281 324.84375 L 339.152344 324.925781 L 339.316406 325.011719 L 339.472656 325.105469 L 339.628906 325.207031 L 339.78125 325.308594 L 339.925781 325.417969 L 340.070312 325.535156 L 340.210938 325.65625 L 340.34375 325.78125 L 340.476562 325.914062 L 340.601562 326.050781 L 339.925781 326.800781 L 339.820312 326.671875 L 339.710938 326.554688 L 339.597656 326.441406 L 339.480469 326.332031 L 339.359375 326.230469 L 339.234375 326.136719 L 339.105469 326.050781 L 338.976562 325.96875 L 338.839844 325.894531 L 338.703125 325.824219 L 338.5625 325.757812 L 338.417969 325.699219 L 338.277344 325.648438 L 338.128906 325.601562 L 337.984375 325.5625 L 337.835938 325.53125 L 337.6875 325.507812 L 337.535156 325.488281 L 337.382812 325.480469 L 337.226562 325.476562 L 336.972656 325.484375 L 336.722656 325.503906 L 336.476562 325.542969 L 336.234375 325.59375 L 335.996094 325.664062 L 335.761719 325.746094 L 335.527344 325.84375 L 335.300781 325.957031 L 335.074219 326.082031 L 334.851562 326.226562 L 334.640625 326.386719 L 334.4375 326.5625 L 334.246094 326.761719 L 334.058594 326.980469 L 333.882812 327.21875 L 333.714844 327.476562 L 333.554688 327.753906 L 333.40625 328.050781 L 333.261719 328.363281 L 333.128906 328.699219 L 333.003906 329.058594 L 332.894531 329.4375 L 332.796875 329.84375 L 332.710938 330.273438 L 332.640625 330.726562 L 332.582031 331.203125 L 332.535156 331.703125 L 332.503906 332.226562 L 332.484375 332.777344 L 332.476562 333.351562 L 332.644531 333.148438 L 332.816406 332.957031 L 332.992188 332.773438 L 333.171875 332.597656 L 333.359375 332.433594 L 333.546875 332.273438 L 333.742188 332.125 L 333.941406 331.984375 L 334.144531 331.851562 L 334.351562 331.726562 L 334.5625 331.613281 L 334.773438 331.507812 L 334.988281 331.417969 L 335.199219 331.339844 L 335.414062 331.277344 L 335.628906 331.222656 L 335.847656 331.179688 L 336.0625 331.148438 L 336.28125 331.132812 L 336.503906 331.125 L 336.914062 331.136719 L 337.304688 331.175781 L 337.679688 331.238281 L 338.035156 331.328125 L 338.371094 331.445312 L 338.6875 331.585938 L 338.988281 331.75 L 339.269531 331.941406 L 339.53125 332.15625 L 339.777344 332.402344 L 340 332.664062 L 340.199219 332.949219 L 340.375 333.257812 L 340.53125 333.589844 L 340.660156 333.945312 L 340.765625 334.324219 L 340.847656 334.726562 L 340.90625 335.152344 L 340.941406 335.601562 L 340.953125 336.074219 L 340.945312 336.363281 L 340.929688 336.640625 L 340.898438 336.917969 L 340.855469 337.183594 L 340.800781 337.445312 L 340.734375 337.699219 L 340.660156 337.945312 L 340.566406 338.1875 L 340.464844 338.421875 L 340.351562 338.652344 L 340.226562 338.871094 L 340.097656 339.082031 L 339.957031 339.28125 L 339.808594 339.472656 L 339.652344 339.65625 L 339.488281 339.828125 L 339.316406 339.992188 L 339.136719 340.144531 L 338.949219 340.289062 L 338.753906 340.425781 L 338.554688 340.550781 L 338.351562 340.660156 L 338.148438 340.757812 L 337.9375 340.839844 L 337.722656 340.914062 L 337.5 340.972656 L 337.277344 341.015625 L 337.046875 341.050781 L 336.816406 341.070312 Z M 336.578125 341.074219 "/>
<path fill-rule="nonzero" fill="rgb(10.196078%, 10.196078%, 10.196078%)" fill-opacity="1" d="M 377.488281 340.777344 L 377.515625 340.136719 L 377.554688 339.511719 L 377.597656 338.902344 L 377.652344 338.304688 L 377.714844 337.71875 L 377.78125 337.148438 L 377.859375 336.589844 L 377.945312 336.046875 L 378.039062 335.515625 L 378.136719 335 L 378.25 334.492188 L 378.367188 333.996094 L 378.5 333.5 L 378.636719 333.015625 L 378.789062 332.539062 L 378.949219 332.066406 L 379.117188 331.601562 L 379.296875 331.144531 L 379.488281 330.695312 L 379.6875 330.25 L 379.898438 329.804688 L 380.121094 329.359375 L 380.355469 328.914062 L 380.601562 328.464844 L 380.855469 328.019531 L 381.125 327.570312 L 381.40625 327.125 L 381.695312 326.675781 L 382 326.226562 L 382.3125 325.777344 L 373.886719 325.777344 L 373.886719 324.800781 L 383.714844 324.800781 L 383.714844 325.449219 L 383.433594 325.828125 L 383.164062 326.207031 L 382.902344 326.578125 L 382.648438 326.949219 L 382.40625 327.320312 L 382.175781 327.683594 L 381.949219 328.050781 L 381.738281 328.410156 L 381.53125 328.769531 L 381.339844 329.125 L 381.15625 329.476562 L 380.984375 329.828125 L 380.816406 330.179688 L 380.660156 330.535156 L 380.507812 330.886719 L 380.363281 331.242188 L 380.226562 331.601562 L 380.097656 331.957031 L 379.976562 332.316406 L 379.863281 332.675781 L 379.652344 333.402344 L 379.558594 333.769531 L 379.46875 334.144531 L 379.382812 334.519531 L 379.300781 334.898438 L 379.226562 335.28125 L 379.160156 335.667969 L 379.097656 336.058594 L 379.039062 336.449219 L 378.988281 336.847656 L 378.945312 337.253906 L 378.902344 337.667969 L 378.863281 338.089844 L 378.824219 338.519531 L 378.792969 338.957031 L 378.761719 339.398438 L 378.734375 339.851562 L 378.710938 340.308594 L 378.6875 340.777344 Z M 377.488281 340.777344 "/>
<path fill-rule="nonzero" fill="rgb(10.196078%, 10.196078%, 10.196078%)" fill-opacity="1" d="M 421.597656 341.074219 L 421.3125 341.070312 L 421.03125 341.050781 L 420.757812 341.023438 L 420.488281 340.984375 L 420.222656 340.933594 L 419.96875 340.867188 L 419.714844 340.792969 L 419.472656 340.707031 L 419.230469 340.609375 L 419 340.5 L 418.773438 340.382812 L 418.558594 340.253906 L 418.351562 340.117188 L 418.15625 339.972656 L 417.96875 339.820312 L 417.789062 339.65625 L 417.621094 339.488281 L 417.464844 339.308594 L 417.3125 339.121094 L 417.175781 338.925781 L 417.050781 338.722656 L 416.941406 338.515625 L 416.84375 338.304688 L 416.757812 338.085938 L 416.6875 337.863281 L 416.628906 337.636719 L 416.582031 337.402344 L 416.550781 337.164062 L 416.53125 336.921875 L 416.523438 336.675781 L 416.527344 336.460938 L 416.542969 336.253906 L 416.566406 336.046875 L 416.601562 335.847656 L 416.644531 335.652344 L 416.695312 335.457031 L 416.757812 335.269531 L 416.828125 335.082031 L 416.910156 334.902344 L 417 334.726562 L 417.101562 334.554688 L 417.207031 334.386719 L 417.320312 334.222656 L 417.433594 334.066406 L 417.554688 333.914062 L 417.679688 333.765625 L 417.808594 333.621094 L 417.941406 333.484375 L 418.082031 333.351562 L 418.222656 333.226562 L 418.375 333.097656 L 418.523438 332.976562 L 418.675781 332.859375 L 418.824219 332.746094 L 418.972656 332.636719 L 419.125 332.535156 L 419.273438 332.4375 L 419.425781 332.34375 L 419.574219 332.257812 L 419.722656 332.175781 L 419.722656 332.074219 L 419.550781 331.957031 L 419.378906 331.832031 L 419.210938 331.703125 L 419.046875 331.5625 L 418.886719 331.417969 L 418.726562 331.269531 L 418.421875 330.949219 L 418.269531 330.777344 L 418.125 330.601562 L 417.992188 330.410156 L 417.871094 330.214844 L 417.765625 330.015625 L 417.675781 329.804688 L 417.597656 329.589844 L 417.535156 329.363281 L 417.488281 329.132812 L 417.453125 328.894531 L 417.429688 328.652344 L 417.425781 328.402344 L 417.429688 328.171875 L 417.445312 327.953125 L 417.472656 327.734375 L 417.511719 327.523438 L 417.5625 327.320312 L 417.621094 327.121094 L 417.695312 326.925781 L 417.777344 326.738281 L 417.871094 326.554688 L 417.972656 326.375 L 418.09375 326.203125 L 418.21875 326.039062 L 418.351562 325.882812 L 418.496094 325.734375 L 418.644531 325.59375 L 418.800781 325.460938 L 418.964844 325.335938 L 419.132812 325.214844 L 419.3125 325.105469 L 419.5 325 L 419.691406 324.90625 L 419.886719 324.820312 L 420.085938 324.746094 L 420.292969 324.679688 L 420.5 324.625 L 420.710938 324.582031 L 420.925781 324.546875 L 421.148438 324.519531 L 421.371094 324.503906 L 421.597656 324.5 L 422 324.511719 L 422.382812 324.546875 L 422.746094 324.609375 L 423.089844 324.691406 L 423.417969 324.800781 L 423.726562 324.933594 L 424.015625 325.089844 L 424.289062 325.269531 L 424.539062 325.472656 L 424.773438 325.699219 L 424.992188 325.941406 L 425.1875 326.195312 L 425.359375 326.460938 L 425.511719 326.742188 L 425.636719 327.03125 L 425.738281 327.335938 L 425.820312 327.652344 L 425.878906 327.980469 L 425.914062 328.320312 L 425.925781 328.675781 L 425.921875 328.851562 L 425.910156 329.023438 L 425.890625 329.195312 L 425.863281 329.363281 L 425.832031 329.53125 L 425.789062 329.699219 L 425.742188 329.863281 L 425.683594 330.027344 L 425.621094 330.191406 L 425.550781 330.351562 L 425.394531 330.65625 L 425.3125 330.800781 L 425.226562 330.945312 L 425.136719 331.089844 L 425.046875 331.226562 L 424.949219 331.363281 L 424.851562 331.496094 L 424.753906 331.625 L 424.648438 331.75 L 424.542969 331.867188 L 424.441406 331.980469 L 424.339844 332.089844 L 424.238281 332.195312 L 424.136719 332.292969 L 424.039062 332.390625 L 423.9375 332.480469 L 423.839844 332.566406 L 423.746094 332.648438 L 423.648438 332.726562 L 423.648438 332.824219 L 423.789062 332.910156 L 424.0625 333.089844 L 424.195312 333.183594 L 424.332031 333.28125 L 424.460938 333.378906 L 424.59375 333.480469 L 424.722656 333.585938 L 424.847656 333.691406 L 424.972656 333.800781 L 425.101562 333.90625 L 425.222656 334.019531 L 425.339844 334.136719 L 425.453125 334.257812 L 425.5625 334.382812 L 425.664062 334.511719 L 425.761719 334.644531 L 425.855469 334.785156 L 425.941406 334.925781 L 426.023438 335.074219 L 426.105469 335.230469 L 426.175781 335.386719 L 426.242188 335.554688 L 426.296875 335.726562 L 426.34375 335.90625 L 426.382812 336.09375 L 426.410156 336.285156 L 426.433594 336.484375 L 426.445312 336.6875 L 426.449219 336.902344 L 426.441406 337.128906 L 426.425781 337.351562 L 426.394531 337.574219 L 426.347656 337.789062 L 426.292969 338 L 426.222656 338.207031 L 426.144531 338.414062 L 426.050781 338.613281 L 425.941406 338.808594 L 425.824219 339 L 425.699219 339.1875 L 425.5625 339.367188 L 425.417969 339.535156 L 425.265625 339.699219 L 425.097656 339.855469 L 424.925781 340.003906 L 424.738281 340.148438 L 424.542969 340.28125 L 424.339844 340.40625 L 424.125 340.527344 L 423.90625 340.628906 L 423.679688 340.722656 L 423.445312 340.804688 L 423.203125 340.878906 L 422.957031 340.9375 L 422.699219 340.988281 L 422.433594 341.027344 L 422.164062 341.054688 L 421.886719 341.070312 Z M 422.773438 332.402344 L 422.972656 332.234375 L 423.164062 332.066406 L 423.34375 331.894531 L 423.515625 331.722656 L 423.675781 331.550781 L 423.824219 331.375 L 423.964844 331.195312 L 424.09375 331.015625 L 424.214844 330.835938 L 424.324219 330.652344 L 424.429688 330.464844 L 424.523438 330.277344 L 424.605469 330.085938 L 424.675781 329.894531 L 424.738281 329.699219 L 424.785156 329.503906 L 424.824219 329.304688 L 424.851562 329.105469 L 424.867188 328.90625 L 424.875 328.699219 L 424.867188 328.4375 L 424.839844 328.183594 L 424.796875 327.9375 L 424.734375 327.695312 L 424.65625 327.464844 L 424.558594 327.238281 L 424.445312 327.015625 L 424.3125 326.804688 L 424.164062 326.597656 L 424 326.402344 L 423.820312 326.214844 L 423.632812 326.050781 L 423.425781 325.902344 L 423.207031 325.777344 L 422.972656 325.667969 L 422.726562 325.582031 L 422.464844 325.511719 L 422.191406 325.464844 L 421.902344 325.433594 L 421.597656 325.425781 L 421.339844 325.433594 L 421.085938 325.460938 L 420.84375 325.5 L 420.609375 325.5625 L 420.386719 325.636719 L 420.171875 325.730469 L 419.964844 325.84375 L 419.765625 325.96875 L 419.578125 326.113281 L 419.398438 326.277344 L 419.234375 326.445312 L 419.085938 326.625 L 418.953125 326.8125 L 418.839844 327.011719 L 418.742188 327.21875 L 418.664062 327.4375 L 418.601562 327.664062 L 418.558594 327.898438 L 418.53125 328.144531 L 418.523438 328.402344 L 418.53125 328.621094 L 418.550781 328.835938 L 418.582031 329.042969 L 418.625 329.242188 L 418.679688 329.433594 L 418.75 329.617188 L 418.832031 329.792969 L 418.925781 329.960938 L 419.03125 330.121094 L 419.148438 330.277344 L 419.277344 330.417969 L 419.414062 330.554688 L 419.554688 330.691406 L 419.707031 330.820312 L 419.863281 330.945312 L 420.023438 331.0625 L 420.195312 331.179688 L 420.375 331.292969 L 420.558594 331.398438 L 420.75 331.5 L 421.140625 331.6875 L 421.339844 331.78125 L 421.542969 331.871094 L 421.742188 331.964844 L 421.945312 332.050781 L 422.152344 332.140625 L 422.355469 332.226562 L 422.566406 332.316406 Z M 421.597656 340.152344 L 421.933594 340.140625 L 422.25 340.113281 L 422.554688 340.066406 L 422.847656 340 L 423.125 339.914062 L 423.386719 339.808594 L 423.636719 339.683594 L 423.871094 339.542969 L 424.09375 339.382812 L 424.300781 339.199219 L 424.492188 339.007812 L 424.667969 338.804688 L 424.820312 338.59375 L 424.957031 338.371094 L 425.066406 338.144531 L 425.160156 337.90625 L 425.230469 337.664062 L 425.285156 337.410156 L 425.3125 337.144531 L 425.324219 336.875 L 425.316406 336.636719 L 425.296875 336.40625 L 425.261719 336.183594 L 425.210938 335.972656 L 425.148438 335.769531 L 425.070312 335.578125 L 424.980469 335.394531 L 424.875 335.21875 L 424.757812 335.054688 L 424.625 334.902344 L 424.480469 334.746094 L 424.328125 334.601562 L 424.164062 334.457031 L 423.996094 334.320312 L 423.816406 334.1875 L 423.632812 334.058594 L 423.4375 333.9375 L 423.230469 333.820312 L 423.019531 333.707031 L 422.800781 333.601562 L 422.578125 333.496094 L 422.351562 333.390625 L 422.125 333.289062 L 421.894531 333.1875 L 421.660156 333.089844 L 421.425781 332.988281 L 421.1875 332.890625 L 420.941406 332.792969 L 420.699219 332.695312 L 420.449219 332.601562 L 420.207031 332.742188 L 419.976562 332.890625 L 419.753906 333.046875 L 419.539062 333.207031 L 419.332031 333.375 L 419.132812 333.546875 L 418.941406 333.726562 L 418.761719 333.914062 L 418.589844 334.101562 L 418.425781 334.300781 L 418.273438 334.503906 L 418.136719 334.714844 L 418.015625 334.929688 L 417.914062 335.152344 L 417.824219 335.382812 L 417.753906 335.617188 L 417.695312 335.859375 L 417.65625 336.109375 L 417.632812 336.363281 L 417.625 336.625 L 417.628906 336.824219 L 417.644531 337.015625 L 417.667969 337.207031 L 417.703125 337.394531 L 417.75 337.574219 L 417.804688 337.753906 L 417.871094 337.925781 L 417.945312 338.097656 L 418.027344 338.261719 L 418.125 338.425781 L 418.234375 338.578125 L 418.347656 338.722656 L 418.472656 338.863281 L 418.605469 338.996094 L 418.742188 339.125 L 418.890625 339.246094 L 419.042969 339.363281 L 419.203125 339.472656 L 419.371094 339.578125 L 419.550781 339.675781 L 419.730469 339.765625 L 419.917969 339.847656 L 420.113281 339.917969 L 420.308594 339.980469 L 420.511719 340.03125 L 420.71875 340.074219 L 420.933594 340.109375 L 421.148438 340.132812 L 421.371094 340.144531 Z M 421.597656 340.152344 "/>
<path fill-rule="nonzero" fill="rgb(10.196078%, 10.196078%, 10.196078%)" fill-opacity="1" d="M 460.433594 329.476562 L 460.445312 329.820312 L 460.46875 330.152344 L 460.507812 330.472656 L 460.566406 330.78125 L 460.640625 331.074219 L 460.730469 331.359375 L 460.839844 331.632812 L 460.964844 331.890625 L 461.101562 332.140625 L 461.261719 332.375 L 461.433594 332.589844 L 461.628906 332.78125 L 461.84375 332.949219 L 462.082031 333.09375 L 462.335938 333.21875 L 462.609375 333.320312 L 462.90625 333.398438 L 463.21875 333.457031 L 463.554688 333.488281 L 463.910156 333.5 L 464.085938 333.496094 L 464.265625 333.476562 L 464.449219 333.449219 L 464.632812 333.410156 L 464.824219 333.355469 L 465.015625 333.292969 L 465.207031 333.21875 L 465.40625 333.132812 L 465.605469 333.035156 L 465.808594 332.925781 L 466.019531 332.804688 L 466.226562 332.667969 L 466.429688 332.515625 L 466.628906 332.351562 L 466.828125 332.175781 L 467.023438 331.984375 L 467.21875 331.777344 L 467.410156 331.558594 L 467.597656 331.324219 L 467.785156 331.074219 L 467.746094 330.582031 L 467.691406 330.105469 L 467.617188 329.648438 L 467.523438 329.210938 L 467.417969 328.792969 L 467.289062 328.394531 L 467.144531 328.019531 L 466.984375 327.660156 L 466.804688 327.320312 L 466.609375 327 L 466.402344 326.707031 L 466.171875 326.441406 L 465.925781 326.210938 L 465.65625 326.007812 L 465.371094 325.839844 L 465.066406 325.699219 L 464.746094 325.589844 L 464.402344 325.511719 L 464.039062 325.464844 L 463.660156 325.449219 L 463.480469 325.457031 L 463.304688 325.472656 L 463.132812 325.5 L 462.964844 325.539062 L 462.796875 325.589844 L 462.632812 325.648438 L 462.472656 325.71875 L 462.316406 325.800781 L 462.160156 325.894531 L 462.011719 326 L 461.867188 326.109375 L 461.730469 326.226562 L 461.601562 326.347656 L 461.476562 326.480469 L 461.359375 326.621094 L 461.25 326.765625 L 461.140625 326.917969 L 461.042969 327.082031 L 460.949219 327.25 L 460.859375 327.425781 L 460.78125 327.609375 L 460.707031 327.796875 L 460.644531 327.988281 L 460.589844 328.183594 L 460.542969 328.386719 L 460.503906 328.59375 L 460.472656 328.808594 L 460.453125 329.027344 L 460.4375 329.246094 Z M 463.035156 341.074219 L 462.816406 341.070312 L 462.605469 341.058594 L 462.398438 341.039062 L 462.195312 341.007812 L 461.996094 340.96875 L 461.804688 340.921875 L 461.617188 340.867188 L 461.433594 340.804688 L 461.257812 340.730469 L 461.085938 340.652344 L 460.921875 340.5625 L 460.765625 340.46875 L 460.609375 340.371094 L 460.460938 340.265625 L 460.316406 340.15625 L 460.175781 340.042969 L 460.039062 339.921875 L 459.78125 339.664062 L 459.660156 339.527344 L 460.335938 338.777344 L 460.441406 338.902344 L 460.550781 339.023438 L 460.664062 339.136719 L 460.78125 339.246094 L 460.902344 339.351562 L 461.027344 339.449219 L 461.15625 339.539062 L 461.289062 339.625 L 461.421875 339.703125 L 461.558594 339.777344 L 461.707031 339.835938 L 461.851562 339.890625 L 462 339.941406 L 462.148438 339.984375 L 462.296875 340.019531 L 462.449219 340.046875 L 462.601562 340.070312 L 462.753906 340.085938 L 462.90625 340.097656 L 463.058594 340.101562 L 463.3125 340.09375 L 463.5625 340.070312 L 463.808594 340.03125 L 464.046875 339.980469 L 464.285156 339.914062 L 464.519531 339.832031 L 464.746094 339.734375 L 464.972656 339.621094 L 465.191406 339.492188 L 465.410156 339.351562 L 465.621094 339.191406 L 465.824219 339.011719 L 466.015625 338.8125 L 466.203125 338.59375 L 466.378906 338.355469 L 466.546875 338.097656 L 466.707031 337.824219 L 466.859375 337.527344 L 467 337.210938 L 467.136719 336.875 L 467.261719 336.519531 L 467.378906 336.136719 L 467.480469 335.734375 L 467.566406 335.304688 L 467.640625 334.851562 L 467.703125 334.375 L 467.75 333.871094 L 467.78125 333.347656 L 467.804688 332.796875 L 467.808594 332.226562 L 467.644531 332.421875 L 467.472656 332.609375 L 467.292969 332.789062 L 467.113281 332.960938 L 466.929688 333.125 L 466.738281 333.28125 L 466.542969 333.429688 L 466.347656 333.570312 L 466.144531 333.703125 L 465.933594 333.824219 L 465.722656 333.9375 L 465.511719 334.042969 L 465.296875 334.132812 L 465.082031 334.210938 L 464.867188 334.277344 L 464.648438 334.328125 L 464.429688 334.371094 L 464.207031 334.402344 L 463.984375 334.417969 L 463.761719 334.425781 L 463.355469 334.414062 L 462.964844 334.375 L 462.597656 334.3125 L 462.246094 334.226562 L 461.910156 334.113281 L 461.59375 333.976562 L 461.296875 333.8125 L 461.015625 333.625 L 460.753906 333.414062 L 460.511719 333.175781 L 460.285156 332.910156 L 460.085938 332.621094 L 459.910156 332.308594 L 459.757812 331.972656 L 459.628906 331.613281 L 459.523438 331.230469 L 459.441406 330.828125 L 459.382812 330.398438 L 459.347656 329.949219 L 459.335938 329.476562 L 459.339844 329.1875 L 459.359375 328.910156 L 459.390625 328.632812 L 459.429688 328.367188 L 459.484375 328.105469 L 459.550781 327.851562 L 459.628906 327.605469 L 459.71875 327.363281 L 459.820312 327.128906 L 459.933594 326.902344 L 460.058594 326.679688 L 460.191406 326.46875 L 460.332031 326.269531 L 460.480469 326.082031 L 460.636719 325.902344 L 460.800781 325.730469 L 460.972656 325.570312 L 461.152344 325.421875 L 461.339844 325.28125 L 461.535156 325.152344 L 461.738281 325.027344 L 461.941406 324.917969 L 462.152344 324.820312 L 462.363281 324.734375 L 462.578125 324.664062 L 462.796875 324.605469 L 463.019531 324.558594 L 463.246094 324.527344 L 463.476562 324.507812 L 463.710938 324.5 L 464.175781 324.519531 L 464.621094 324.578125 L 465.046875 324.675781 L 465.453125 324.8125 L 465.839844 324.988281 L 466.210938 325.203125 L 466.558594 325.457031 L 466.886719 325.75 L 467.195312 326.078125 L 467.484375 326.449219 L 467.757812 326.851562 L 468 327.289062 L 468.210938 327.761719 L 468.398438 328.265625 L 468.554688 328.808594 L 468.683594 329.382812 L 468.78125 329.992188 L 468.851562 330.632812 L 468.894531 331.3125 L 468.910156 332.027344 L 468.902344 332.683594 L 468.878906 333.3125 L 468.835938 333.914062 L 468.777344 334.488281 L 468.703125 335.039062 L 468.613281 335.558594 L 468.507812 336.054688 L 468.382812 336.519531 L 468.242188 336.960938 L 468.085938 337.375 L 467.914062 337.757812 L 467.734375 338.121094 L 467.542969 338.460938 L 467.339844 338.78125 L 467.128906 339.074219 L 466.90625 339.347656 L 466.671875 339.601562 L 466.429688 339.832031 L 466.175781 340.039062 L 465.910156 340.226562 L 465.644531 340.386719 L 465.371094 340.53125 L 465.09375 340.660156 L 464.8125 340.769531 L 464.527344 340.863281 L 464.238281 340.9375 L 463.945312 341 L 463.644531 341.042969 L 463.34375 341.066406 Z M 463.035156 341.074219 "/>
<path fill-rule="nonzero" fill="rgb(10.196078%, 10.196078%, 10.196078%)" fill-opacity="1" d="M 497.109375 340.777344 L 497.109375 339.800781 L 500.859375 339.800781 L 500.859375 326.550781 L 498.007812 326.550781 L 498.007812 325.800781 L 498.203125 325.765625 L 498.390625 325.726562 L 498.757812 325.648438 L 498.933594 325.605469 L 499.277344 325.519531 L 499.441406 325.472656 L 499.601562 325.425781 L 499.757812 325.375 L 499.910156 325.324219 L 500.058594 325.273438 L 500.203125 325.21875 L 500.34375 325.164062 L 500.609375 325.046875 L 500.734375 324.988281 L 500.855469 324.925781 L 500.972656 324.863281 L 501.082031 324.800781 L 501.984375 324.800781 L 501.984375 339.800781 L 505.457031 339.800781 L 505.457031 340.777344 Z M 497.109375 340.777344 "/>
<path fill-rule="nonzero" fill="rgb(10.196078%, 10.196078%, 10.196078%)" fill-opacity="1" d="M 512.957031 341.074219 L 512.515625 341.054688 L 512.089844 340.988281 L 511.6875 340.878906 L 511.300781 340.726562 L 510.941406 340.53125 L 510.597656 340.292969 L 510.277344 340.007812 L 509.976562 339.683594 L 509.695312 339.3125 L 509.433594 338.902344 L 509.195312 338.445312 L 508.984375 337.957031 L 508.796875 337.429688 L 508.632812 336.867188 L 508.496094 336.269531 L 508.382812 335.632812 L 508.296875 334.960938 L 508.234375 334.253906 L 508.195312 333.507812 L 508.183594 332.726562 L 508.195312 331.949219 L 508.234375 331.210938 L 508.296875 330.507812 L 508.382812 329.839844 L 508.496094 329.214844 L 508.632812 328.621094 L 508.796875 328.066406 L 508.984375 327.550781 L 509.195312 327.070312 L 509.433594 326.625 L 509.695312 326.222656 L 509.976562 325.859375 L 510.277344 325.542969 L 510.597656 325.265625 L 510.941406 325.03125 L 511.300781 324.839844 L 511.6875 324.691406 L 512.089844 324.585938 L 512.515625 324.523438 L 512.957031 324.5 L 513.40625 324.523438 L 513.835938 324.585938 L 514.242188 324.691406 L 514.625 324.839844 L 514.988281 325.03125 L 515.332031 325.265625 L 515.652344 325.542969 L 515.949219 325.859375 L 516.226562 326.222656 L 516.484375 326.625 L 516.722656 327.070312 L 516.933594 327.550781 L 517.121094 328.066406 L 517.285156 328.621094 L 517.421875 329.214844 L 517.535156 329.839844 L 517.621094 330.507812 L 517.683594 331.210938 L 517.722656 331.949219 L 517.734375 332.726562 L 517.722656 333.507812 L 517.683594 334.253906 L 517.621094 334.960938 L 517.535156 335.632812 L 517.421875 336.269531 L 517.285156 336.867188 L 517.121094 337.429688 L 516.933594 337.957031 L 516.722656 338.445312 L 516.484375 338.902344 L 516.226562 339.3125 L 515.949219 339.683594 L 515.652344 340.007812 L 515.332031 340.292969 L 514.988281 340.53125 L 514.625 340.726562 L 514.242188 340.878906 L 513.835938 340.988281 L 513.40625 341.054688 Z M 512.957031 340.125 L 513.285156 340.105469 L 513.601562 340.050781 L 513.902344 339.957031 L 514.1875 339.824219 L 514.457031 339.65625 L 514.714844 339.449219 L 514.960938 339.207031 L 515.191406 338.925781 L 515.40625 338.605469 L 515.609375 338.25 L 515.796875 337.859375 L 515.96875 337.429688 L 516.117188 336.964844 L 516.25 336.464844 L 516.359375 335.933594 L 516.449219 335.363281 L 516.519531 334.753906 L 516.570312 334.113281 L 516.597656 333.4375 L 516.609375 332.726562 L 516.597656 332.015625 L 516.570312 331.339844 L 516.519531 330.703125 L 516.449219 330.101562 L 516.359375 329.539062 L 516.25 329.011719 L 516.117188 328.523438 L 515.96875 328.070312 L 515.796875 327.652344 L 515.609375 327.277344 L 515.40625 326.929688 L 515.191406 326.617188 L 514.960938 326.34375 L 514.714844 326.109375 L 514.457031 325.90625 L 514.1875 325.742188 L 513.902344 325.613281 L 513.601562 325.523438 L 513.285156 325.46875 L 512.957031 325.449219 L 512.636719 325.46875 L 512.324219 325.523438 L 512.027344 325.613281 L 511.742188 325.742188 L 511.472656 325.90625 L 511.210938 326.109375 L 510.96875 326.34375 L 510.734375 326.617188 L 510.515625 326.929688 L 510.308594 327.277344 L 510.117188 327.652344 L 509.949219 328.070312 L 509.796875 328.523438 L 509.667969 329.011719 L 509.558594 329.539062 L 509.46875 330.101562 L 509.398438 330.703125 L 509.347656 331.339844 L 509.320312 332.015625 L 509.308594 332.726562 L 509.320312 333.4375 L 509.347656 334.113281 L 509.398438 334.753906 L 509.46875 335.363281 L 509.558594 335.933594 L 509.667969 336.464844 L 509.796875 336.964844 L 509.949219 337.429688 L 510.117188 337.859375 L 510.308594 338.25 L 510.515625 338.605469 L 510.734375 338.925781 L 510.96875 339.207031 L 511.210938 339.449219 L 511.472656 339.65625 L 511.742188 339.824219 L 512.027344 339.957031 L 512.324219 340.050781 L 512.636719 340.105469 Z M 512.957031 340.125 "/>
<path fill-rule="nonzero" fill="rgb(10.196078%, 10.196078%, 10.196078%)" fill-opacity="1" d="M 539.84375 340.777344 L 539.84375 339.800781 L 543.59375 339.800781 L 543.59375 326.550781 L 540.746094 326.550781 L 540.746094 325.800781 L 540.9375 325.765625 L 541.3125 325.6875 L 541.492188 325.648438 L 541.84375 325.5625 L 542.011719 325.519531 L 542.175781 325.472656 L 542.335938 325.425781 L 542.496094 325.375 L 542.648438 325.324219 L 542.796875 325.273438 L 543.078125 325.164062 L 543.214844 325.105469 L 543.34375 325.046875 L 543.46875 324.988281 L 543.589844 324.925781 L 543.707031 324.863281 L 543.820312 324.800781 L 544.71875 324.800781 L 544.71875 339.800781 L 548.195312 339.800781 L 548.195312 340.777344 Z M 539.84375 340.777344 "/>
<path fill-rule="nonzero" fill="rgb(10.196078%, 10.196078%, 10.196078%)" fill-opacity="1" d="M 551.820312 340.777344 L 551.820312 339.800781 L 555.570312 339.800781 L 555.570312 326.550781 L 552.71875 326.550781 L 552.71875 325.800781 L 552.914062 325.765625 L 553.101562 325.726562 L 553.46875 325.648438 L 553.644531 325.605469 L 553.988281 325.519531 L 554.152344 325.472656 L 554.3125 325.425781 L 554.46875 325.375 L 554.621094 325.324219 L 554.769531 325.273438 L 554.914062 325.21875 L 555.054688 325.164062 L 555.320312 325.046875 L 555.445312 324.988281 L 555.566406 324.925781 L 555.683594 324.863281 L 555.792969 324.800781 L 556.695312 324.800781 L 556.695312 339.800781 L 560.167969 339.800781 L 560.167969 340.777344 Z M 551.820312 340.777344 "/>
<path fill-rule="nonzero" fill="rgb(10.196078%, 10.196078%, 10.196078%)" fill-opacity="1" d="M 582.582031 340.777344 L 582.582031 339.800781 L 586.332031 339.800781 L 586.332031 326.550781 L 583.480469 326.550781 L 583.480469 325.800781 L 583.671875 325.765625 L 583.863281 325.726562 L 584.230469 325.648438 L 584.40625 325.605469 L 584.578125 325.5625 L 584.746094 325.519531 L 584.914062 325.472656 L 585.074219 325.425781 L 585.230469 325.375 L 585.382812 325.324219 L 585.53125 325.273438 L 585.675781 325.21875 L 585.816406 325.164062 L 585.949219 325.105469 L 586.207031 324.988281 L 586.328125 324.925781 L 586.554688 324.800781 L 587.457031 324.800781 L 587.457031 339.800781 L 590.929688 339.800781 L 590.929688 340.777344 Z M 582.582031 340.777344 "/>
<path fill-rule="nonzero" fill="rgb(10.196078%, 10.196078%, 10.196078%)" fill-opacity="1" d="M 593.480469 340.777344 L 593.480469 340.074219 L 593.996094 339.546875 L 594.496094 339.035156 L 594.976562 338.535156 L 595.441406 338.050781 L 595.886719 337.582031 L 596.316406 337.125 L 596.726562 336.6875 L 597.121094 336.257812 L 597.496094 335.847656 L 597.855469 335.449219 L 598.195312 335.058594 L 598.519531 334.675781 L 598.828125 334.304688 L 599.117188 333.9375 L 599.386719 333.582031 L 599.640625 333.234375 L 599.875 332.894531 L 600.09375 332.5625 L 600.296875 332.238281 L 600.480469 331.925781 L 600.648438 331.617188 L 600.796875 331.3125 L 600.925781 331.011719 L 601.039062 330.714844 L 601.136719 330.417969 L 601.214844 330.128906 L 601.277344 329.839844 L 601.320312 329.558594 L 601.347656 329.277344 L 601.355469 329 L 601.347656 328.707031 L 601.320312 328.417969 L 601.277344 328.144531 L 601.21875 327.875 L 601.144531 327.621094 L 601.050781 327.371094 L 600.9375 327.132812 L 600.8125 326.90625 L 600.667969 326.683594 L 600.503906 326.476562 L 600.332031 326.28125 L 600.136719 326.105469 L 599.921875 325.953125 L 599.691406 325.820312 L 599.4375 325.707031 L 599.164062 325.613281 L 598.871094 325.542969 L 598.5625 325.492188 L 598.230469 325.460938 L 597.878906 325.449219 L 597.667969 325.457031 L 597.453125 325.472656 L 597.246094 325.503906 L 597.035156 325.546875 L 596.832031 325.601562 L 596.625 325.667969 L 596.425781 325.746094 L 596.222656 325.835938 L 596.027344 325.9375 L 595.832031 326.050781 L 595.644531 326.171875 L 595.460938 326.300781 L 595.28125 326.4375 L 595.105469 326.578125 L 594.9375 326.726562 L 594.773438 326.878906 L 594.609375 327.039062 L 594.453125 327.203125 L 594.304688 327.375 L 594.15625 327.550781 L 593.429688 326.851562 L 593.613281 326.652344 L 593.796875 326.464844 L 593.988281 326.28125 L 594.183594 326.101562 L 594.378906 325.933594 L 594.582031 325.765625 L 594.789062 325.609375 L 595 325.457031 L 595.210938 325.3125 L 595.429688 325.175781 L 595.652344 325.046875 L 595.882812 324.933594 L 596.121094 324.832031 L 596.367188 324.742188 L 596.617188 324.667969 L 596.875 324.609375 L 597.140625 324.5625 L 597.414062 324.527344 L 597.695312 324.507812 L 597.980469 324.5 L 598.402344 324.511719 L 598.800781 324.550781 L 599.183594 324.609375 L 599.542969 324.695312 L 599.886719 324.808594 L 600.210938 324.941406 L 600.511719 325.101562 L 600.796875 325.285156 L 601.0625 325.492188 L 601.304688 325.726562 L 601.527344 325.976562 L 601.730469 326.246094 L 601.90625 326.53125 L 602.058594 326.832031 L 602.1875 327.152344 L 602.292969 327.484375 L 602.375 327.832031 L 602.433594 328.199219 L 602.46875 328.578125 L 602.480469 328.976562 L 602.472656 329.289062 L 602.445312 329.609375 L 602.398438 329.925781 L 602.332031 330.242188 L 602.25 330.5625 L 602.148438 330.882812 L 602.027344 331.203125 L 601.886719 331.527344 L 601.730469 331.851562 L 601.554688 332.175781 L 601.367188 332.503906 L 601.164062 332.835938 L 600.949219 333.171875 L 600.714844 333.515625 L 600.46875 333.863281 L 600.207031 334.214844 L 599.929688 334.574219 L 599.636719 334.933594 L 599.328125 335.304688 L 599.003906 335.675781 L 598.675781 336.054688 L 598.332031 336.445312 L 597.976562 336.84375 L 597.609375 337.25 L 597.230469 337.667969 L 596.839844 338.097656 L 596.4375 338.53125 L 596.023438 338.980469 L 595.59375 339.433594 L 595.15625 339.902344 L 595.285156 339.890625 L 595.417969 339.882812 L 595.546875 339.871094 L 595.945312 339.847656 L 596.078125 339.84375 L 596.210938 339.835938 L 596.347656 339.832031 L 596.480469 339.824219 L 596.621094 339.816406 L 597.03125 339.792969 L 597.167969 339.789062 L 597.300781 339.785156 L 597.4375 339.78125 L 597.570312 339.777344 L 603.28125 339.777344 L 603.28125 340.777344 Z M 593.480469 340.777344 "/>
</svg>
