<?xml version="1.0" encoding="UTF-8"?>
<svg xmlns="http://www.w3.org/2000/svg" xmlns:xlink="http://www.w3.org/1999/xlink" width="648pt" height="345pt" viewBox="0 0 648 345">
<defs>
<clipPath id="clip-0">
<path clip-rule="nonzero" d="M 10.957031 10.957031 L 637.039062 10.957031 L 637.039062 306.375 L 10.957031 306.375 Z M 10.957031 10.957031 "/>
</clipPath>
</defs>
<rect x="-64.8" y="-34.5" width="777.6" height="414" fill="rgb(100%, 100%, 100%)" fill-opacity="1"/>
<rect x="-64.8" y="-34.5" width="777.6" height="414" fill="rgb(95.294118%, 95.294118%, 95.294118%)" fill-opacity="1"/>
<path fill="none" stroke-width="2.133957" stroke-linecap="round" stroke-linejoin="round" stroke="rgb(95.294118%, 95.294118%, 95.294118%)" stroke-opacity="1" stroke-miterlimit="10" d="M 0 345 L 648 345 L 648 0 L 0 0 Z M 0 345 "/>
<g clip-path="url(#clip-0)">
<path fill-rule="nonzero" fill="rgb(95.294118%, 95.294118%, 95.294118%)" fill-opacity="1" stroke-width="2.133957" stroke-linecap="round" stroke-linejoin="round" stroke="rgb(95.294118%, 95.294118%, 95.294118%)" stroke-opacity="1" stroke-miterlimit="10" d="M 10.957031 306.378906 L 637.039062 306.378906 L 637.039062 10.960938 L 10.957031 10.960938 Z M 10.957031 306.378906 "/>
</g>
<path fill-rule="nonzero" fill="rgb(56.078431%, 16.470588%, 26.27451%)" fill-opacity="1" d="M 39.417969 292.949219 L 109.316406 292.949219 L 109.316406 167.621094 L 39.417969 167.621094 Z M 39.417969 292.949219 "/>
<path fill-rule="nonzero" fill="rgb(56.078431%, 16.470588%, 26.27451%)" fill-opacity="1" d="M 139.269531 292.949219 L 209.167969 292.949219 L 209.167969 24.386719 L 139.269531 24.386719 Z M 139.269531 292.949219 "/>
<path fill-rule="nonzero" fill="rgb(56.078431%, 16.470588%, 26.27451%)" fill-opacity="1" d="M 239.125 292.949219 L 309.023438 292.949219 L 309.023438 62.753906 L 239.125 62.753906 Z M 239.125 292.949219 "/>
<path fill-rule="nonzero" fill="rgb(56.078431%, 16.470588%, 26.27451%)" fill-opacity="1" d="M 338.976562 292.949219 L 408.875 292.949219 L 408.875 194.292969 L 338.976562 194.292969 Z M 338.976562 292.949219 "/>
<path fill-rule="nonzero" fill="rgb(56.078431%, 16.470588%, 26.27451%)" fill-opacity="1" d="M 438.832031 292.949219 L 508.730469 292.949219 L 508.730469 271.808594 L 438.832031 271.808594 Z M 438.832031 292.949219 "/>
<path fill-rule="nonzero" fill="rgb(56.078431%, 16.470588%, 26.27451%)" fill-opacity="1" d="M 538.683594 292.949219 L 608.582031 292.949219 L 608.582031 291.136719 L 538.683594 291.136719 Z M 538.683594 292.949219 "/>
<path fill-rule="nonzero" fill="rgb(10.196078%, 10.196078%, 10.196078%)" fill-opacity="1" d="M 74.367188 316.421875 L 74.769531 316.4375 L 75.148438 316.492188 L 75.511719 316.578125 L 75.855469 316.703125 L 76.175781 316.859375 L 76.476562 317.054688 L 76.761719 317.285156 L 77.023438 317.546875 L 77.265625 317.847656 L 77.484375 318.179688 L 77.6875 318.546875 L 77.867188 318.941406 L 78.027344 319.371094 L 78.164062 319.835938 L 78.28125 320.332031 L 78.375 320.859375 L 78.449219 321.421875 L 78.503906 322.015625 L 78.535156 322.640625 L 78.546875 323.300781 L 78.535156 323.957031 L 78.503906 324.582031 L 78.449219 325.171875 L 78.375 325.734375 L 78.277344 326.261719 L 78.15625 326.757812 L 78.015625 327.222656 L 77.855469 327.652344 L 77.671875 328.054688 L 77.464844 328.421875 L 77.246094 328.75 L 77.003906 329.046875 L 76.742188 329.308594 L 76.460938 329.535156 L 76.160156 329.726562 L 75.839844 329.882812 L 75.5 330.003906 L 75.144531 330.089844 L 74.765625 330.144531 L 74.367188 330.160156 L 73.964844 330.144531 L 73.582031 330.089844 L 73.21875 330.003906 L 72.878906 329.882812 L 72.554688 329.726562 L 72.253906 329.535156 L 71.972656 329.308594 L 71.710938 329.046875 L 71.46875 328.75 L 71.246094 328.421875 L 71.042969 328.054688 L 70.863281 327.652344 L 70.707031 327.21875 L 70.566406 326.753906 L 70.449219 326.257812 L 70.355469 325.726562 L 70.28125 325.164062 L 70.226562 324.566406 L 70.195312 323.941406 L 70.1875 323.28125 L 70.195312 322.621094 L 70.226562 321.996094 L 70.28125 321.402344 L 70.355469 320.839844 L 70.449219 320.3125 L 70.566406 319.816406 L 70.707031 319.351562 L 70.863281 318.921875 L 71.042969 318.527344 L 71.246094 318.160156 L 71.46875 317.832031 L 71.710938 317.535156 L 71.972656 317.273438 L 72.253906 317.046875 L 72.554688 316.855469 L 72.878906 316.699219 L 73.21875 316.578125 L 73.582031 316.492188 L 73.964844 316.4375 Z M 74.367188 317.382812 L 73.800781 317.441406 L 73.292969 317.617188 L 72.847656 317.910156 L 72.457031 318.324219 L 72.132812 318.855469 L 71.863281 319.503906 L 71.652344 320.273438 L 71.503906 321.15625 L 71.414062 322.160156 L 71.386719 323.28125 L 71.414062 324.40625 L 71.503906 325.414062 L 71.652344 326.300781 L 71.863281 327.070312 L 72.132812 327.722656 L 72.457031 328.253906 L 72.847656 328.667969 L 73.292969 328.964844 L 73.800781 329.140625 L 74.367188 329.199219 L 74.652344 329.1875 L 74.921875 329.144531 L 75.175781 329.070312 L 75.417969 328.96875 L 75.644531 328.839844 L 75.859375 328.683594 L 76.058594 328.496094 L 76.242188 328.28125 L 76.410156 328.035156 L 76.566406 327.761719 L 76.710938 327.457031 L 76.839844 327.121094 L 76.953125 326.753906 L 77.050781 326.355469 L 77.136719 325.925781 L 77.203125 325.464844 L 77.257812 324.972656 L 77.296875 324.445312 L 77.316406 323.890625 L 77.324219 323.300781 L 77.316406 322.714844 L 77.296875 322.15625 L 77.257812 321.632812 L 77.203125 321.136719 L 77.136719 320.675781 L 77.050781 320.246094 L 76.953125 319.847656 L 76.839844 319.480469 L 76.710938 319.144531 L 76.566406 318.839844 L 76.410156 318.5625 L 76.242188 318.316406 L 76.058594 318.097656 L 75.859375 317.90625 L 75.644531 317.746094 L 75.417969 317.613281 L 75.175781 317.511719 L 74.921875 317.441406 L 74.652344 317.394531 Z M 74.367188 317.382812 "/>
<path fill-rule="nonzero" fill="rgb(10.196078%, 10.196078%, 10.196078%)" fill-opacity="1" d="M 175.929688 316.640625 L 175.929688 329.941406 L 174.769531 329.941406 L 174.769531 317.921875 L 171.488281 319.960938 L 170.949219 319.101562 L 174.929688 316.640625 Z M 175.929688 316.640625 "/>
<path fill-rule="nonzero" fill="rgb(10.196078%, 10.196078%, 10.196078%)" fill-opacity="1" d="M 273.78125 316.421875 L 274.113281 316.429688 L 274.425781 316.460938 L 274.726562 316.507812 L 275.015625 316.578125 L 275.289062 316.667969 L 275.546875 316.773438 L 275.792969 316.902344 L 276.023438 317.046875 L 276.238281 317.214844 L 276.441406 317.402344 L 276.632812 317.601562 L 276.804688 317.816406 L 276.953125 318.039062 L 277.082031 318.273438 L 277.191406 318.519531 L 277.28125 318.777344 L 277.351562 319.046875 L 277.402344 319.328125 L 277.433594 319.617188 L 277.441406 319.921875 L 277.4375 320.179688 L 277.421875 320.433594 L 277.394531 320.6875 L 277.355469 320.933594 L 277.308594 321.179688 L 277.25 321.421875 L 277.179688 321.664062 L 277.097656 321.898438 L 277.003906 322.132812 L 276.902344 322.359375 L 276.789062 322.589844 L 276.664062 322.824219 L 276.523438 323.066406 L 276.371094 323.308594 L 276.207031 323.554688 L 276.03125 323.808594 L 275.84375 324.066406 L 275.640625 324.324219 L 275.429688 324.589844 L 275.203125 324.859375 L 274.960938 325.148438 L 274.691406 325.457031 L 274.390625 325.796875 L 274.0625 326.164062 L 273.707031 326.554688 L 273.324219 326.976562 L 272.910156 327.421875 L 272.46875 327.894531 L 272 328.394531 L 271.503906 328.921875 L 277.804688 328.921875 L 277.644531 329.941406 L 270.144531 329.941406 L 270.144531 328.960938 L 270.675781 328.390625 L 271.175781 327.855469 L 271.648438 327.347656 L 272.085938 326.867188 L 272.492188 326.421875 L 272.871094 326.003906 L 273.214844 325.617188 L 273.527344 325.261719 L 273.8125 324.9375 L 274.0625 324.640625 L 274.296875 324.359375 L 274.515625 324.089844 L 274.71875 323.824219 L 274.90625 323.570312 L 275.082031 323.320312 L 275.242188 323.082031 L 275.390625 322.847656 L 275.523438 322.625 L 275.640625 322.410156 L 275.742188 322.199219 L 275.839844 321.992188 L 275.921875 321.78125 L 276 321.566406 L 276.0625 321.347656 L 276.117188 321.125 L 276.164062 320.902344 L 276.199219 320.675781 L 276.222656 320.449219 L 276.238281 320.214844 L 276.242188 319.980469 L 276.234375 319.75 L 276.214844 319.527344 L 276.179688 319.316406 L 276.132812 319.113281 L 276.066406 318.921875 L 275.992188 318.738281 L 275.898438 318.5625 L 275.796875 318.398438 L 275.675781 318.246094 L 275.542969 318.101562 L 275.402344 317.96875 L 275.253906 317.847656 L 275.09375 317.742188 L 274.925781 317.652344 L 274.75 317.574219 L 274.5625 317.511719 L 274.367188 317.464844 L 274.160156 317.429688 L 273.945312 317.40625 L 273.722656 317.402344 L 273.542969 317.40625 L 273.363281 317.417969 L 273.1875 317.433594 L 273.019531 317.460938 L 272.851562 317.496094 L 272.691406 317.539062 L 272.53125 317.585938 L 272.378906 317.644531 L 272.230469 317.707031 L 272.082031 317.78125 L 271.945312 317.859375 L 271.804688 317.949219 L 271.667969 318.042969 L 271.53125 318.144531 L 271.398438 318.257812 L 271.265625 318.375 L 271.132812 318.5 L 271 318.632812 L 270.871094 318.773438 L 270.742188 318.921875 L 269.941406 318.320312 L 270.105469 318.128906 L 270.269531 317.949219 L 270.433594 317.78125 L 270.601562 317.621094 L 270.773438 317.472656 L 270.945312 317.332031 L 271.121094 317.203125 L 271.300781 317.085938 L 271.480469 316.976562 L 271.664062 316.882812 L 271.855469 316.792969 L 272.046875 316.714844 L 272.25 316.648438 L 272.453125 316.585938 L 272.664062 316.535156 L 272.878906 316.496094 L 273.097656 316.460938 L 273.320312 316.441406 L 273.550781 316.425781 Z M 273.78125 316.421875 "/>
<path fill-rule="nonzero" fill="rgb(10.196078%, 10.196078%, 10.196078%)" fill-opacity="1" d="M 373.488281 316.421875 L 373.707031 316.425781 L 373.921875 316.4375 L 374.132812 316.460938 L 374.335938 316.492188 L 374.53125 316.53125 L 374.722656 316.578125 L 374.90625 316.636719 L 375.085938 316.703125 L 375.261719 316.777344 L 375.425781 316.859375 L 375.589844 316.953125 L 375.746094 317.050781 L 375.894531 317.152344 L 376.035156 317.265625 L 376.167969 317.382812 L 376.289062 317.503906 L 376.40625 317.632812 L 376.515625 317.769531 L 376.613281 317.914062 L 376.707031 318.0625 L 376.789062 318.210938 L 376.863281 318.363281 L 376.929688 318.523438 L 376.988281 318.683594 L 377.035156 318.851562 L 377.078125 319.019531 L 377.105469 319.195312 L 377.128906 319.375 L 377.140625 319.554688 L 377.148438 319.742188 L 377.140625 319.996094 L 377.117188 320.242188 L 377.082031 320.476562 L 377.027344 320.703125 L 376.960938 320.921875 L 376.878906 321.128906 L 376.785156 321.324219 L 376.671875 321.515625 L 376.546875 321.691406 L 376.40625 321.859375 L 376.257812 322.015625 L 376.101562 322.15625 L 375.933594 322.285156 L 375.761719 322.40625 L 375.578125 322.511719 L 375.382812 322.605469 L 375.183594 322.6875 L 374.972656 322.757812 L 374.753906 322.816406 L 374.527344 322.859375 L 374.78125 322.882812 L 375.027344 322.917969 L 375.265625 322.972656 L 375.492188 323.039062 L 375.710938 323.125 L 375.921875 323.226562 L 376.121094 323.347656 L 376.3125 323.480469 L 376.496094 323.632812 L 376.667969 323.800781 L 376.832031 323.980469 L 376.976562 324.171875 L 377.105469 324.375 L 377.21875 324.59375 L 377.3125 324.824219 L 377.390625 325.070312 L 377.449219 325.328125 L 377.492188 325.597656 L 377.519531 325.882812 L 377.527344 326.179688 L 377.523438 326.410156 L 377.507812 326.632812 L 377.480469 326.855469 L 377.445312 327.066406 L 377.398438 327.277344 L 377.339844 327.480469 L 377.273438 327.675781 L 377.195312 327.871094 L 377.105469 328.058594 L 377.007812 328.242188 L 376.898438 328.417969 L 376.78125 328.585938 L 376.652344 328.746094 L 376.515625 328.898438 L 376.371094 329.046875 L 376.21875 329.183594 L 376.054688 329.316406 L 375.878906 329.4375 L 375.699219 329.554688 L 375.507812 329.660156 L 375.3125 329.757812 L 375.109375 329.839844 L 374.902344 329.917969 L 374.691406 329.980469 L 374.472656 330.035156 L 374.246094 330.082031 L 374.015625 330.117188 L 373.777344 330.140625 L 373.535156 330.15625 L 373.285156 330.160156 L 372.832031 330.144531 L 372.390625 330.09375 L 371.96875 330.007812 L 371.5625 329.886719 L 371.171875 329.730469 L 370.796875 329.542969 L 370.441406 329.316406 L 370.101562 329.058594 L 369.773438 328.769531 L 369.46875 328.441406 L 370.207031 327.78125 L 370.34375 327.925781 L 370.480469 328.0625 L 370.617188 328.1875 L 370.757812 328.308594 L 370.898438 328.421875 L 371.039062 328.523438 L 371.179688 328.621094 L 371.320312 328.710938 L 371.464844 328.789062 L 371.605469 328.859375 L 371.757812 328.921875 L 371.910156 328.976562 L 372.066406 329.023438 L 372.222656 329.066406 L 372.386719 329.101562 L 372.550781 329.128906 L 372.722656 329.152344 L 372.894531 329.167969 L 373.070312 329.179688 L 373.246094 329.179688 L 373.527344 329.171875 L 373.796875 329.148438 L 374.054688 329.105469 L 374.300781 329.050781 L 374.53125 328.976562 L 374.75 328.886719 L 374.960938 328.777344 L 375.152344 328.65625 L 375.335938 328.515625 L 375.507812 328.359375 L 375.664062 328.191406 L 375.800781 328.011719 L 375.925781 327.824219 L 376.03125 327.621094 L 376.121094 327.410156 L 376.195312 327.191406 L 376.253906 326.957031 L 376.292969 326.714844 L 376.320312 326.464844 L 376.328125 326.199219 L 376.296875 325.667969 L 376.207031 325.191406 L 376.058594 324.773438 L 375.847656 324.410156 L 375.578125 324.101562 L 375.246094 323.847656 L 374.855469 323.652344 L 374.40625 323.511719 L 373.898438 323.429688 L 373.328125 323.402344 L 372.445312 323.402344 L 372.605469 322.460938 L 373.246094 322.460938 L 373.472656 322.453125 L 373.6875 322.433594 L 373.898438 322.398438 L 374.105469 322.351562 L 374.300781 322.292969 L 374.492188 322.214844 L 374.675781 322.128906 L 374.851562 322.027344 L 375.023438 321.910156 L 375.1875 321.78125 L 375.339844 321.636719 L 375.476562 321.476562 L 375.59375 321.308594 L 375.699219 321.128906 L 375.785156 320.9375 L 375.859375 320.730469 L 375.914062 320.515625 L 375.953125 320.289062 L 375.980469 320.050781 L 375.988281 319.800781 L 375.980469 319.585938 L 375.957031 319.378906 L 375.921875 319.183594 L 375.875 318.996094 L 375.8125 318.816406 L 375.734375 318.648438 L 375.644531 318.488281 L 375.539062 318.335938 L 375.417969 318.195312 L 375.285156 318.0625 L 375.140625 317.9375 L 374.988281 317.824219 L 374.824219 317.722656 L 374.652344 317.640625 L 374.472656 317.566406 L 374.28125 317.507812 L 374.082031 317.460938 L 373.871094 317.425781 L 373.652344 317.40625 L 373.425781 317.402344 L 373.261719 317.402344 L 373.097656 317.414062 L 372.933594 317.429688 L 372.777344 317.449219 L 372.621094 317.476562 L 372.46875 317.507812 L 372.320312 317.546875 L 372.171875 317.59375 L 372.027344 317.644531 L 371.886719 317.699219 L 371.746094 317.761719 L 371.605469 317.828125 L 371.464844 317.902344 L 371.324219 317.984375 L 371.183594 318.074219 L 371.039062 318.175781 L 370.898438 318.277344 L 370.753906 318.390625 L 370.609375 318.511719 L 370.46875 318.640625 L 369.847656 317.921875 L 370.007812 317.773438 L 370.171875 317.632812 L 370.335938 317.5 L 370.5 317.378906 L 370.667969 317.261719 L 370.835938 317.152344 L 371.007812 317.054688 L 371.179688 316.960938 L 371.351562 316.878906 L 371.527344 316.800781 L 371.703125 316.730469 L 371.886719 316.664062 L 372.074219 316.605469 L 372.261719 316.558594 L 372.457031 316.515625 L 372.65625 316.480469 L 372.855469 316.457031 L 373.0625 316.4375 L 373.273438 316.425781 Z M 373.488281 316.421875 "/>
<path fill-rule="nonzero" fill="rgb(10.196078%, 10.196078%, 10.196078%)" fill-opacity="1" d="M 478.261719 325.480469 L 478.261719 326.441406 L 476.460938 326.441406 L 476.460938 329.941406 L 475.320312 329.941406 L 475.320312 326.441406 L 469.5 326.441406 L 469.5 325.582031 L 473.558594 316.421875 L 474.539062 316.820312 L 470.742188 325.480469 L 475.320312 325.480469 L 475.460938 321.582031 L 476.460938 321.582031 L 476.460938 325.480469 Z M 478.261719 325.480469 "/>
<path fill-rule="nonzero" fill="rgb(10.196078%, 10.196078%, 10.196078%)" fill-opacity="1" d="M 576.863281 317.601562 L 571.464844 317.601562 L 571.464844 322.140625 L 571.683594 322.023438 L 571.90625 321.917969 L 572.132812 321.824219 L 572.355469 321.746094 L 572.585938 321.675781 L 572.8125 321.621094 L 573.042969 321.578125 L 573.273438 321.546875 L 573.507812 321.527344 L 573.742188 321.519531 L 574.082031 321.53125 L 574.402344 321.566406 L 574.710938 321.621094 L 575.003906 321.699219 L 575.285156 321.800781 L 575.550781 321.925781 L 575.800781 322.070312 L 576.035156 322.238281 L 576.257812 322.429688 L 576.464844 322.640625 L 576.65625 322.871094 L 576.832031 323.113281 L 576.984375 323.375 L 577.117188 323.652344 L 577.230469 323.945312 L 577.320312 324.257812 L 577.390625 324.582031 L 577.441406 324.925781 L 577.472656 325.285156 L 577.484375 325.660156 L 577.480469 325.917969 L 577.460938 326.171875 L 577.433594 326.417969 L 577.398438 326.660156 L 577.347656 326.894531 L 577.289062 327.128906 L 577.21875 327.355469 L 577.136719 327.574219 L 577.046875 327.789062 L 576.945312 328 L 576.835938 328.199219 L 576.71875 328.390625 L 576.589844 328.574219 L 576.453125 328.746094 L 576.308594 328.910156 L 576.15625 329.066406 L 575.992188 329.214844 L 575.816406 329.351562 L 575.636719 329.480469 L 575.445312 329.601562 L 575.25 329.707031 L 575.046875 329.800781 L 574.839844 329.886719 L 574.625 329.960938 L 574.402344 330.019531 L 574.175781 330.070312 L 573.941406 330.109375 L 573.703125 330.140625 L 573.457031 330.15625 L 573.203125 330.160156 L 572.765625 330.144531 L 572.34375 330.097656 L 571.933594 330.015625 L 571.535156 329.90625 L 571.152344 329.761719 L 570.785156 329.585938 L 570.429688 329.378906 L 570.085938 329.136719 L 569.757812 328.863281 L 569.445312 328.5625 L 570.164062 327.859375 L 570.292969 327.992188 L 570.421875 328.117188 L 570.554688 328.238281 L 570.6875 328.347656 L 570.824219 328.449219 L 570.960938 328.546875 L 571.097656 328.636719 L 571.238281 328.71875 L 571.378906 328.792969 L 571.523438 328.859375 L 571.671875 328.921875 L 571.820312 328.976562 L 571.976562 329.023438 L 572.136719 329.066406 L 572.304688 329.101562 L 572.472656 329.128906 L 572.648438 329.152344 L 572.828125 329.167969 L 573.015625 329.179688 L 573.203125 329.179688 L 573.480469 329.171875 L 573.75 329.144531 L 574.003906 329.097656 L 574.242188 329.03125 L 574.472656 328.945312 L 574.691406 328.84375 L 574.898438 328.71875 L 575.09375 328.578125 L 575.273438 328.417969 L 575.445312 328.242188 L 575.601562 328.042969 L 575.738281 327.828125 L 575.863281 327.605469 L 575.96875 327.363281 L 576.058594 327.109375 L 576.132812 326.84375 L 576.191406 326.5625 L 576.230469 326.269531 L 576.253906 325.960938 L 576.265625 325.640625 L 576.257812 325.328125 L 576.234375 325.035156 L 576.195312 324.753906 L 576.140625 324.492188 L 576.074219 324.246094 L 575.992188 324.015625 L 575.890625 323.804688 L 575.777344 323.605469 L 575.648438 323.425781 L 575.503906 323.261719 L 575.351562 323.109375 L 575.1875 322.972656 L 575.011719 322.851562 L 574.824219 322.75 L 574.628906 322.660156 L 574.421875 322.589844 L 574.203125 322.53125 L 573.972656 322.492188 L 573.734375 322.46875 L 573.484375 322.460938 L 573.359375 322.460938 L 573.234375 322.46875 L 573.113281 322.476562 L 572.878906 322.5 L 572.765625 322.519531 L 572.65625 322.539062 L 572.550781 322.5625 L 572.445312 322.589844 L 572.34375 322.621094 L 572.148438 322.683594 L 572.046875 322.722656 L 571.941406 322.765625 L 571.835938 322.8125 L 571.726562 322.859375 L 571.613281 322.914062 L 571.5 322.972656 L 571.382812 323.035156 L 571.265625 323.101562 L 570.34375 323.101562 L 570.34375 316.640625 L 577.042969 316.640625 Z M 576.863281 317.601562 "/>
</svg>
