<?xml version="1.0" encoding="UTF-8"?>
<svg xmlns="http://www.w3.org/2000/svg" xmlns:xlink="http://www.w3.org/1999/xlink" width="792" height="374" viewBox="0 0 792 374">
<defs>
<clipPath id="clip-0">
<path clip-rule="nonzero" d="M 20.175781 13.449219 L 778.550781 13.449219 L 778.550781 326.195312 L 20.175781 326.195312 Z M 20.175781 13.449219 "/>
</clipPath>
<clipPath id="clip-1">
<path clip-rule="nonzero" d="M 20.175781 310 L 778.550781 310 L 778.550781 314 L 20.175781 314 Z M 20.175781 310 "/>
</clipPath>
<clipPath id="clip-2">
<path clip-rule="nonzero" d="M 20.175781 243 L 778.550781 243 L 778.550781 247 L 20.175781 247 Z M 20.175781 243 "/>
</clipPath>
<clipPath id="clip-3">
<path clip-rule="nonzero" d="M 20.175781 176 L 778.550781 176 L 778.550781 180 L 20.175781 180 Z M 20.175781 176 "/>
</clipPath>
<clipPath id="clip-4">
<path clip-rule="nonzero" d="M 20.175781 109 L 778.550781 109 L 778.550781 113 L 20.175781 113 Z M 20.175781 109 "/>
</clipPath>
<clipPath id="clip-5">
<path clip-rule="nonzero" d="M 20.175781 42 L 778.550781 42 L 778.550781 46 L 20.175781 46 Z M 20.175781 42 "/>
</clipPath>
<clipPath id="clip-6">
<path clip-rule="nonzero" d="M 53 13.449219 L 56 13.449219 L 56 326.195312 L 53 326.195312 Z M 53 13.449219 "/>
</clipPath>
<clipPath id="clip-7">
<path clip-rule="nonzero" d="M 283 13.449219 L 286 13.449219 L 286 326.195312 L 283 326.195312 Z M 283 13.449219 "/>
</clipPath>
<clipPath id="clip-8">
<path clip-rule="nonzero" d="M 512 13.449219 L 516 13.449219 L 516 326.195312 L 512 326.195312 Z M 512 13.449219 "/>
</clipPath>
<clipPath id="clip-9">
<path clip-rule="nonzero" d="M 742 13.449219 L 746 13.449219 L 746 326.195312 L 742 326.195312 Z M 742 13.449219 "/>
</clipPath>
<clipPath id="clip-10">
<path clip-rule="nonzero" d="M 283 13.449219 L 287 13.449219 L 287 326.195312 L 283 326.195312 Z M 283 13.449219 "/>
</clipPath>
</defs>
<rect x="-79.2" y="-37.4" width="950.4" height="448.8" fill="rgb(100%, 100%, 100%)" fill-opacity="1"/>
<rect x="-79.2" y="-37.4" width="950.4" height="448.8" fill="rgb(95.294118%, 95.294118%, 95.294118%)" fill-opacity="1"/>
<path fill="none" stroke-width="2.618947" stroke-linecap="round" stroke-linejoin="round" stroke="rgb(95.294118%, 95.294118%, 95.294118%)" stroke-opacity="1" stroke-miterlimit="10" d="M 0 374 L 792 374 L 792 0 L 0 0 Z M 0 374 "/>
<g clip-path="url(#clip-0)">
<path fill-rule="nonzero" fill="rgb(95.294118%, 95.294118%, 95.294118%)" fill-opacity="1" stroke-width="2.618947" stroke-linecap="round" stroke-linejoin="round" stroke="rgb(95.294118%, 95.294118%, 95.294118%)" stroke-opacity="1" stroke-miterlimit="10" d="M 20.175781 326.195312 L 778.550781 326.195312 L 778.550781 13.449219 L 20.175781 13.449219 Z M 20.175781 326.195312 "/>
</g>
<g clip-path="url(#clip-1)">
<path fill="none" stroke-width="2.618947" stroke-linecap="butt" stroke-linejoin="round" stroke="rgb(92.156863%, 92.156863%, 92.156863%)" stroke-opacity="1" stroke-miterlimit="10" d="M 20.175781 311.980469 L 778.550781 311.980469 "/>
</g>
<g clip-path="url(#clip-2)">
<path fill="none" stroke-width="2.618947" stroke-linecap="butt" stroke-linejoin="round" stroke="rgb(92.156863%, 92.156863%, 92.156863%)" stroke-opacity="1" stroke-miterlimit="10" d="M 20.175781 244.925781 L 778.550781 244.925781 "/>
</g>
<g clip-path="url(#clip-3)">
<path fill="none" stroke-width="2.618947" stroke-linecap="butt" stroke-linejoin="round" stroke="rgb(92.156863%, 92.156863%, 92.156863%)" stroke-opacity="1" stroke-miterlimit="10" d="M 20.175781 177.871094 L 778.550781 177.871094 "/>
</g>
<g clip-path="url(#clip-4)">
<path fill="none" stroke-width="2.618947" stroke-linecap="butt" stroke-linejoin="round" stroke="rgb(92.156863%, 92.156863%, 92.156863%)" stroke-opacity="1" stroke-miterlimit="10" d="M 20.175781 110.8125 L 778.550781 110.8125 "/>
</g>
<g clip-path="url(#clip-5)">
<path fill="none" stroke-width="2.618947" stroke-linecap="butt" stroke-linejoin="round" stroke="rgb(92.156863%, 92.156863%, 92.156863%)" stroke-opacity="1" stroke-miterlimit="10" d="M 20.175781 43.757812 L 778.550781 43.757812 "/>
</g>
<g clip-path="url(#clip-6)">
<path fill="none" stroke-width="2.618947" stroke-linecap="butt" stroke-linejoin="round" stroke="rgb(92.156863%, 92.156863%, 92.156863%)" stroke-opacity="1" stroke-miterlimit="10" d="M 54.644531 326.195312 L 54.644531 13.449219 "/>
</g>
<g clip-path="url(#clip-7)">
<path fill="none" stroke-width="2.618947" stroke-linecap="butt" stroke-linejoin="round" stroke="rgb(92.156863%, 92.156863%, 92.156863%)" stroke-opacity="1" stroke-miterlimit="10" d="M 284.457031 326.195312 L 284.457031 13.449219 "/>
</g>
<g clip-path="url(#clip-8)">
<path fill="none" stroke-width="2.618947" stroke-linecap="butt" stroke-linejoin="round" stroke="rgb(92.156863%, 92.156863%, 92.156863%)" stroke-opacity="1" stroke-miterlimit="10" d="M 514.269531 326.195312 L 514.269531 13.449219 "/>
</g>
<g clip-path="url(#clip-9)">
<path fill="none" stroke-width="2.618947" stroke-linecap="butt" stroke-linejoin="round" stroke="rgb(92.156863%, 92.156863%, 92.156863%)" stroke-opacity="1" stroke-miterlimit="10" d="M 744.078125 326.195312 L 744.078125 13.449219 "/>
</g>
<path fill-rule="nonzero" fill="rgb(56.078431%, 16.470588%, 26.27451%)" fill-opacity="0.698039" d="M 137.851562 311.980469 L 161.625 311.980469 L 161.625 310.640625 L 137.851562 310.640625 Z M 137.851562 311.980469 "/>
<path fill-rule="nonzero" fill="rgb(56.078431%, 16.470588%, 26.27451%)" fill-opacity="0.698039" d="M 161.625 311.980469 L 185.398438 311.980469 L 185.398438 298.570312 L 161.625 298.570312 Z M 161.625 311.980469 "/>
<path fill-rule="nonzero" fill="rgb(56.078431%, 16.470588%, 26.27451%)" fill-opacity="0.698039" d="M 185.402344 311.980469 L 209.175781 311.980469 L 209.175781 261.019531 L 185.402344 261.019531 Z M 185.402344 311.980469 "/>
<path fill-rule="nonzero" fill="rgb(56.078431%, 16.470588%, 26.27451%)" fill-opacity="0.698039" d="M 209.175781 311.980469 L 232.949219 311.980469 L 232.949219 200.667969 L 209.175781 200.667969 Z M 209.175781 311.980469 "/>
<path fill-rule="nonzero" fill="rgb(56.078431%, 16.470588%, 26.27451%)" fill-opacity="0.698039" d="M 232.949219 311.980469 L 256.722656 311.980469 L 256.722656 143 L 232.949219 143 Z M 232.949219 311.980469 "/>
<path fill-rule="nonzero" fill="rgb(56.078431%, 16.470588%, 26.27451%)" fill-opacity="0.698039" d="M 256.722656 311.980469 L 280.496094 311.980469 L 280.496094 39.734375 L 256.722656 39.734375 Z M 256.722656 311.980469 "/>
<path fill-rule="nonzero" fill="rgb(56.078431%, 16.470588%, 26.27451%)" fill-opacity="0.698039" d="M 280.496094 311.980469 L 304.269531 311.980469 L 304.269531 27.664062 L 280.496094 27.664062 Z M 280.496094 311.980469 "/>
<path fill-rule="nonzero" fill="rgb(56.078431%, 16.470588%, 26.27451%)" fill-opacity="0.698039" d="M 304.269531 311.980469 L 328.042969 311.980469 L 328.042969 101.425781 L 304.269531 101.425781 Z M 304.269531 311.980469 "/>
<path fill-rule="nonzero" fill="rgb(56.078431%, 16.470588%, 26.27451%)" fill-opacity="0.698039" d="M 328.042969 311.980469 L 351.816406 311.980469 L 351.816406 188.597656 L 328.042969 188.597656 Z M 328.042969 311.980469 "/>
<path fill-rule="nonzero" fill="rgb(56.078431%, 16.470588%, 26.27451%)" fill-opacity="0.698039" d="M 351.816406 311.980469 L 375.589844 311.980469 L 375.589844 246.265625 L 351.816406 246.265625 Z M 351.816406 311.980469 "/>
<path fill-rule="nonzero" fill="rgb(56.078431%, 16.470588%, 26.27451%)" fill-opacity="0.698039" d="M 375.589844 311.980469 L 399.363281 311.980469 L 399.363281 281.136719 L 375.589844 281.136719 Z M 375.589844 311.980469 "/>
<path fill-rule="nonzero" fill="rgb(56.078431%, 16.470588%, 26.27451%)" fill-opacity="0.698039" d="M 399.363281 311.980469 L 423.136719 311.980469 L 423.136719 305.273438 L 399.363281 305.273438 Z M 399.363281 311.980469 "/>
<path fill-rule="nonzero" fill="rgb(56.078431%, 16.470588%, 26.27451%)" fill-opacity="0.698039" d="M 423.136719 311.980469 L 446.910156 311.980469 L 446.910156 310.640625 L 423.136719 310.640625 Z M 423.136719 311.980469 "/>
<g clip-path="url(#clip-10)">
<path fill="none" stroke-width="2.560748" stroke-linecap="butt" stroke-linejoin="round" stroke="rgb(56.078431%, 16.470588%, 26.27451%)" stroke-opacity="1" stroke-dasharray="10.242992 10.242992" stroke-miterlimit="10" d="M 285.199219 326.195312 L 285.199219 13.449219 "/>
</g>
<path fill-rule="nonzero" fill="rgb(10.196078%, 10.196078%, 10.196078%)" fill-opacity="1" d="M 54.632812 355.074219 L 54.1875 355.054688 L 53.765625 354.988281 L 53.359375 354.878906 L 52.976562 354.726562 L 52.613281 354.53125 L 52.273438 354.292969 L 51.949219 354.007812 L 51.648438 353.683594 L 51.367188 353.3125 L 51.109375 352.902344 L 50.871094 352.445312 L 50.660156 351.957031 L 50.472656 351.429688 L 50.308594 350.867188 L 50.171875 350.269531 L 50.058594 349.632812 L 49.972656 348.960938 L 49.910156 348.253906 L 49.871094 347.507812 L 49.859375 346.726562 L 49.871094 345.949219 L 49.910156 345.210938 L 49.972656 344.507812 L 50.058594 343.839844 L 50.171875 343.214844 L 50.308594 342.621094 L 50.472656 342.066406 L 50.660156 341.550781 L 50.871094 341.070312 L 51.109375 340.625 L 51.367188 340.222656 L 51.648438 339.859375 L 51.949219 339.542969 L 52.273438 339.265625 L 52.613281 339.03125 L 52.976562 338.839844 L 53.359375 338.691406 L 53.765625 338.585938 L 54.1875 338.523438 L 54.632812 338.5 L 55.082031 338.523438 L 55.511719 338.585938 L 55.917969 338.691406 L 56.300781 338.839844 L 56.664062 339.03125 L 57.007812 339.265625 L 57.328125 339.542969 L 57.625 339.859375 L 57.902344 340.222656 L 58.160156 340.625 L 58.394531 341.070312 L 58.609375 341.550781 L 58.796875 342.066406 L 58.957031 342.621094 L 59.097656 343.214844 L 59.207031 343.839844 L 59.296875 344.507812 L 59.359375 345.210938 L 59.394531 345.949219 L 59.410156 346.726562 L 59.394531 347.507812 L 59.359375 348.253906 L 59.296875 348.960938 L 59.207031 349.632812 L 59.097656 350.269531 L 58.957031 350.867188 L 58.796875 351.429688 L 58.609375 351.957031 L 58.394531 352.445312 L 58.160156 352.902344 L 57.902344 353.3125 L 57.625 353.683594 L 57.328125 354.007812 L 57.007812 354.292969 L 56.664062 354.53125 L 56.300781 354.726562 L 55.917969 354.878906 L 55.511719 354.988281 L 55.082031 355.054688 Z M 54.632812 354.125 L 54.960938 354.105469 L 55.277344 354.050781 L 55.574219 353.957031 L 55.863281 353.824219 L 56.132812 353.65625 L 56.390625 353.449219 L 56.636719 353.207031 L 56.867188 352.925781 L 57.082031 352.605469 L 57.285156 352.25 L 57.472656 351.859375 L 57.644531 351.429688 L 57.792969 350.964844 L 57.921875 350.464844 L 58.035156 349.933594 L 58.125 349.363281 L 58.195312 348.753906 L 58.242188 348.113281 L 58.273438 347.4375 L 58.285156 346.726562 L 58.273438 346.015625 L 58.242188 345.339844 L 58.195312 344.703125 L 58.125 344.101562 L 58.035156 343.539062 L 57.921875 343.011719 L 57.792969 342.523438 L 57.644531 342.070312 L 57.472656 341.652344 L 57.285156 341.277344 L 57.082031 340.929688 L 56.867188 340.617188 L 56.636719 340.34375 L 56.390625 340.109375 L 56.132812 339.90625 L 55.863281 339.742188 L 55.574219 339.613281 L 55.277344 339.523438 L 54.960938 339.46875 L 54.632812 339.449219 L 54.308594 339.46875 L 54 339.523438 L 53.703125 339.613281 L 53.417969 339.742188 L 53.144531 339.90625 L 52.886719 340.109375 L 52.640625 340.34375 L 52.410156 340.617188 L 52.191406 340.929688 L 51.984375 341.277344 L 51.792969 341.652344 L 51.625 342.070312 L 51.472656 342.523438 L 51.34375 343.011719 L 51.234375 343.539062 L 51.144531 344.101562 L 51.074219 344.703125 L 51.023438 345.339844 L 50.992188 346.015625 L 50.984375 346.726562 L 50.992188 347.4375 L 51.023438 348.113281 L 51.074219 348.753906 L 51.144531 349.363281 L 51.234375 349.933594 L 51.34375 350.464844 L 51.472656 350.964844 L 51.625 351.429688 L 51.792969 351.859375 L 51.984375 352.25 L 52.191406 352.605469 L 52.410156 352.925781 L 52.640625 353.207031 L 52.886719 353.449219 L 53.144531 353.65625 L 53.417969 353.824219 L 53.703125 353.957031 L 54 354.050781 L 54.308594 354.105469 Z M 54.632812 354.125 "/>
<path fill-rule="nonzero" fill="rgb(10.196078%, 10.196078%, 10.196078%)" fill-opacity="1" d="M 278.15625 355.074219 L 277.90625 355.070312 L 277.660156 355.0625 L 277.421875 355.046875 L 277.1875 355.023438 L 276.964844 354.996094 L 276.742188 354.957031 L 276.53125 354.917969 L 276.324219 354.867188 L 276.125 354.8125 L 275.933594 354.75 L 275.75 354.683594 L 275.570312 354.613281 L 275.398438 354.539062 L 275.230469 354.460938 L 275.070312 354.382812 L 274.910156 354.296875 L 274.757812 354.210938 L 274.46875 354.023438 L 274.332031 353.925781 L 274.199219 353.824219 L 274.066406 353.726562 L 273.941406 353.625 L 273.816406 353.527344 L 273.574219 353.324219 L 273.460938 353.226562 L 273.347656 353.125 L 273.238281 353.027344 L 273.132812 352.925781 L 273.757812 352.152344 L 273.90625 352.292969 L 274.058594 352.4375 L 274.214844 352.578125 L 274.550781 352.851562 L 274.726562 352.984375 L 274.90625 353.117188 L 275.09375 353.246094 L 275.285156 353.375 L 275.480469 353.5 L 275.691406 353.613281 L 275.914062 353.714844 L 276.152344 353.804688 L 276.398438 353.882812 L 276.65625 353.949219 L 276.929688 354.003906 L 277.210938 354.046875 L 277.507812 354.078125 L 277.8125 354.09375 L 278.132812 354.101562 L 278.34375 354.09375 L 278.554688 354.078125 L 278.761719 354.054688 L 278.964844 354.015625 L 279.164062 353.96875 L 279.359375 353.910156 L 279.550781 353.84375 L 279.738281 353.765625 L 279.925781 353.675781 L 280.105469 353.574219 L 280.285156 353.460938 L 280.453125 353.339844 L 280.617188 353.207031 L 280.769531 353.066406 L 280.917969 352.917969 L 281.0625 352.761719 L 281.195312 352.597656 L 281.324219 352.421875 L 281.445312 352.242188 L 281.558594 352.050781 L 281.660156 351.851562 L 281.753906 351.648438 L 281.835938 351.4375 L 281.910156 351.222656 L 281.96875 351 L 282.019531 350.773438 L 282.058594 350.539062 L 282.085938 350.296875 L 282.101562 350.050781 L 282.105469 349.800781 L 282.097656 349.421875 L 282.0625 349.0625 L 282.011719 348.71875 L 281.933594 348.390625 L 281.839844 348.082031 L 281.71875 347.789062 L 281.582031 347.507812 L 281.417969 347.25 L 281.234375 347.003906 L 281.03125 346.777344 L 280.816406 346.566406 L 280.582031 346.378906 L 280.335938 346.214844 L 280.074219 346.070312 L 279.800781 345.949219 L 279.511719 345.851562 L 279.207031 345.773438 L 278.886719 345.71875 L 278.554688 345.6875 L 278.207031 345.675781 L 278.023438 345.679688 L 277.847656 345.6875 L 277.675781 345.703125 L 277.507812 345.722656 L 277.34375 345.75 L 277.1875 345.785156 L 277.035156 345.824219 L 276.886719 345.867188 L 276.746094 345.917969 L 276.605469 345.976562 L 276.476562 346.03125 L 276.34375 346.09375 L 276.210938 346.160156 L 276.074219 346.230469 L 275.800781 346.386719 L 275.660156 346.46875 L 275.519531 346.558594 L 275.375 346.652344 L 275.230469 346.75 L 274.457031 346.277344 L 275.03125 338.800781 L 282.40625 338.800781 L 282.40625 339.777344 L 276.03125 339.777344 L 275.53125 345.550781 L 275.65625 345.476562 L 275.785156 345.40625 L 275.910156 345.339844 L 276.039062 345.273438 L 276.167969 345.214844 L 276.300781 345.15625 L 276.429688 345.097656 L 276.5625 345.046875 L 276.699219 344.996094 L 276.832031 344.949219 L 276.96875 344.902344 L 277.109375 344.859375 L 277.253906 344.824219 L 277.402344 344.789062 L 277.558594 344.761719 L 277.714844 344.742188 L 277.875 344.722656 L 278.039062 344.710938 L 278.207031 344.703125 L 278.382812 344.699219 L 278.648438 344.707031 L 278.910156 344.722656 L 279.167969 344.75 L 279.421875 344.789062 L 279.667969 344.839844 L 279.910156 344.898438 L 280.148438 344.96875 L 280.382812 345.050781 L 280.609375 345.144531 L 280.832031 345.25 L 281.050781 345.363281 L 281.261719 345.484375 L 281.464844 345.621094 L 281.65625 345.765625 L 281.839844 345.925781 L 282.011719 346.097656 L 282.175781 346.28125 L 282.328125 346.472656 L 282.472656 346.679688 L 282.605469 346.902344 L 282.730469 347.125 L 282.839844 347.367188 L 282.9375 347.617188 L 283.023438 347.882812 L 283.09375 348.164062 L 283.152344 348.453125 L 283.199219 348.757812 L 283.230469 349.078125 L 283.25 349.40625 L 283.257812 349.75 L 283.25 350.085938 L 283.226562 350.410156 L 283.1875 350.726562 L 283.136719 351.03125 L 283.070312 351.324219 L 282.988281 351.609375 L 282.890625 351.886719 L 282.777344 352.152344 L 282.648438 352.40625 L 282.507812 352.652344 L 282.359375 352.878906 L 282.199219 353.097656 L 282.03125 353.304688 L 281.855469 353.503906 L 281.667969 353.6875 L 281.476562 353.863281 L 281.269531 354.027344 L 281.058594 354.179688 L 280.835938 354.320312 L 280.605469 354.449219 L 280.375 354.570312 L 280.140625 354.675781 L 279.902344 354.769531 L 279.664062 354.851562 L 279.417969 354.917969 L 279.171875 354.976562 L 278.921875 355.019531 L 278.671875 355.050781 L 278.414062 355.070312 Z M 278.15625 355.074219 "/>
<path fill-rule="nonzero" fill="rgb(10.196078%, 10.196078%, 10.196078%)" fill-opacity="1" d="M 290.433594 355.074219 L 289.988281 355.054688 L 289.5625 354.988281 L 289.160156 354.878906 L 288.777344 354.726562 L 288.414062 354.53125 L 288.070312 354.292969 L 287.75 354.007812 L 287.449219 353.683594 L 287.167969 353.3125 L 286.90625 352.902344 L 286.667969 352.445312 L 286.457031 351.957031 L 286.269531 351.429688 L 286.105469 350.867188 L 285.96875 350.269531 L 285.855469 349.632812 L 285.769531 348.960938 L 285.707031 348.253906 L 285.667969 347.507812 L 285.65625 346.726562 L 285.667969 345.949219 L 285.707031 345.210938 L 285.769531 344.507812 L 285.855469 343.839844 L 285.96875 343.214844 L 286.105469 342.621094 L 286.269531 342.066406 L 286.457031 341.550781 L 286.667969 341.070312 L 286.90625 340.625 L 287.167969 340.222656 L 287.449219 339.859375 L 287.75 339.542969 L 288.070312 339.265625 L 288.414062 339.03125 L 288.777344 338.839844 L 289.160156 338.691406 L 289.5625 338.585938 L 289.988281 338.523438 L 290.433594 338.5 L 290.882812 338.523438 L 291.308594 338.585938 L 291.714844 338.691406 L 292.101562 338.839844 L 292.464844 339.03125 L 292.804688 339.265625 L 293.125 339.542969 L 293.425781 339.859375 L 293.703125 340.222656 L 293.957031 340.625 L 294.195312 341.070312 L 294.40625 341.550781 L 294.59375 342.066406 L 294.757812 342.621094 L 294.894531 343.214844 L 295.007812 343.839844 L 295.09375 344.507812 L 295.15625 345.210938 L 295.195312 345.949219 L 295.207031 346.726562 L 295.195312 347.507812 L 295.15625 348.253906 L 295.09375 348.960938 L 295.007812 349.632812 L 294.894531 350.269531 L 294.757812 350.867188 L 294.59375 351.429688 L 294.40625 351.957031 L 294.195312 352.445312 L 293.957031 352.902344 L 293.703125 353.3125 L 293.425781 353.683594 L 293.125 354.007812 L 292.804688 354.292969 L 292.464844 354.53125 L 292.101562 354.726562 L 291.714844 354.878906 L 291.308594 354.988281 L 290.882812 355.054688 Z M 290.433594 354.125 L 290.761719 354.105469 L 291.074219 354.050781 L 291.375 353.957031 L 291.660156 353.824219 L 291.933594 353.65625 L 292.191406 353.449219 L 292.433594 353.207031 L 292.664062 352.925781 L 292.878906 352.605469 L 293.082031 352.25 L 293.273438 351.859375 L 293.441406 351.429688 L 293.59375 350.964844 L 293.722656 350.464844 L 293.832031 349.933594 L 293.921875 349.363281 L 293.992188 348.753906 L 294.042969 348.113281 L 294.070312 347.4375 L 294.082031 346.726562 L 294.070312 346.015625 L 294.042969 345.339844 L 293.992188 344.703125 L 293.921875 344.101562 L 293.832031 343.539062 L 293.722656 343.011719 L 293.59375 342.523438 L 293.441406 342.070312 L 293.273438 341.652344 L 293.082031 341.277344 L 292.878906 340.929688 L 292.664062 340.617188 L 292.433594 340.34375 L 292.191406 340.109375 L 291.933594 339.90625 L 291.660156 339.742188 L 291.375 339.613281 L 291.074219 339.523438 L 290.761719 339.46875 L 290.433594 339.449219 L 290.109375 339.46875 L 289.796875 339.523438 L 289.5 339.613281 L 289.214844 339.742188 L 288.945312 339.90625 L 288.6875 340.109375 L 288.441406 340.34375 L 288.207031 340.617188 L 287.988281 340.929688 L 287.78125 341.277344 L 287.59375 341.652344 L 287.421875 342.070312 L 287.273438 342.523438 L 287.140625 343.011719 L 287.03125 343.539062 L 286.941406 344.101562 L 286.871094 344.703125 L 286.820312 345.339844 L 286.792969 346.015625 L 286.78125 346.726562 L 286.792969 347.4375 L 286.820312 348.113281 L 286.871094 348.753906 L 286.941406 349.363281 L 287.03125 349.933594 L 287.140625 350.464844 L 287.273438 350.964844 L 287.421875 351.429688 L 287.59375 351.859375 L 287.78125 352.25 L 287.988281 352.605469 L 288.207031 352.925781 L 288.441406 353.207031 L 288.6875 353.449219 L 288.945312 353.65625 L 289.214844 353.824219 L 289.5 353.957031 L 289.796875 354.050781 L 290.109375 354.105469 Z M 290.433594 354.125 "/>
<path fill-rule="nonzero" fill="rgb(10.196078%, 10.196078%, 10.196078%)" fill-opacity="1" d="M 498.40625 354.777344 L 498.40625 353.800781 L 502.15625 353.800781 L 502.15625 340.550781 L 499.304688 340.550781 L 499.304688 339.800781 L 499.5 339.765625 L 499.6875 339.726562 L 500.054688 339.648438 L 500.230469 339.605469 L 500.574219 339.519531 L 500.738281 339.472656 L 500.898438 339.425781 L 501.054688 339.375 L 501.207031 339.324219 L 501.355469 339.273438 L 501.5 339.21875 L 501.640625 339.164062 L 501.90625 339.046875 L 502.03125 338.988281 L 502.152344 338.925781 L 502.269531 338.863281 L 502.378906 338.800781 L 503.28125 338.800781 L 503.28125 353.800781 L 506.753906 353.800781 L 506.753906 354.777344 Z M 498.40625 354.777344 "/>
<path fill-rule="nonzero" fill="rgb(10.196078%, 10.196078%, 10.196078%)" fill-opacity="1" d="M 514.253906 355.074219 L 513.8125 355.054688 L 513.386719 354.988281 L 512.984375 354.878906 L 512.597656 354.726562 L 512.238281 354.53125 L 511.894531 354.292969 L 511.574219 354.007812 L 511.269531 353.683594 L 510.992188 353.3125 L 510.730469 352.902344 L 510.492188 352.445312 L 510.28125 351.957031 L 510.09375 351.429688 L 509.929688 350.867188 L 509.792969 350.269531 L 509.679688 349.632812 L 509.59375 348.960938 L 509.53125 348.253906 L 509.492188 347.507812 L 509.480469 346.726562 L 509.492188 345.949219 L 509.53125 345.210938 L 509.59375 344.507812 L 509.679688 343.839844 L 509.792969 343.214844 L 509.929688 342.621094 L 510.09375 342.066406 L 510.28125 341.550781 L 510.492188 341.070312 L 510.730469 340.625 L 510.992188 340.222656 L 511.269531 339.859375 L 511.574219 339.542969 L 511.894531 339.265625 L 512.238281 339.03125 L 512.597656 338.839844 L 512.984375 338.691406 L 513.386719 338.585938 L 513.8125 338.523438 L 514.253906 338.5 L 514.703125 338.523438 L 515.132812 338.585938 L 515.539062 338.691406 L 515.921875 338.839844 L 516.285156 339.03125 L 516.628906 339.265625 L 516.949219 339.542969 L 517.246094 339.859375 L 517.523438 340.222656 L 517.78125 340.625 L 518.019531 341.070312 L 518.230469 341.550781 L 518.417969 342.066406 L 518.582031 342.621094 L 518.71875 343.214844 L 518.832031 343.839844 L 518.917969 344.507812 L 518.980469 345.210938 L 519.019531 345.949219 L 519.03125 346.726562 L 519.019531 347.507812 L 518.980469 348.253906 L 518.917969 348.960938 L 518.832031 349.632812 L 518.71875 350.269531 L 518.582031 350.867188 L 518.417969 351.429688 L 518.230469 351.957031 L 518.019531 352.445312 L 517.78125 352.902344 L 517.523438 353.3125 L 517.246094 353.683594 L 516.949219 354.007812 L 516.628906 354.292969 L 516.285156 354.53125 L 515.921875 354.726562 L 515.539062 354.878906 L 515.132812 354.988281 L 514.703125 355.054688 Z M 514.253906 354.125 L 514.582031 354.105469 L 514.898438 354.050781 L 515.199219 353.957031 L 515.484375 353.824219 L 515.753906 353.65625 L 516.011719 353.449219 L 516.257812 353.207031 L 516.488281 352.925781 L 516.703125 352.605469 L 516.90625 352.25 L 517.09375 351.859375 L 517.265625 351.429688 L 517.414062 350.964844 L 517.546875 350.464844 L 517.65625 349.933594 L 517.746094 349.363281 L 517.816406 348.753906 L 517.867188 348.113281 L 517.894531 347.4375 L 517.90625 346.726562 L 517.894531 346.015625 L 517.867188 345.339844 L 517.816406 344.703125 L 517.746094 344.101562 L 517.65625 343.539062 L 517.546875 343.011719 L 517.414062 342.523438 L 517.265625 342.070312 L 517.09375 341.652344 L 516.90625 341.277344 L 516.703125 340.929688 L 516.488281 340.617188 L 516.257812 340.34375 L 516.011719 340.109375 L 515.753906 339.90625 L 515.484375 339.742188 L 515.199219 339.613281 L 514.898438 339.523438 L 514.582031 339.46875 L 514.253906 339.449219 L 513.933594 339.46875 L 513.621094 339.523438 L 513.324219 339.613281 L 513.039062 339.742188 L 512.769531 339.90625 L 512.507812 340.109375 L 512.265625 340.34375 L 512.03125 340.617188 L 511.8125 340.929688 L 511.605469 341.277344 L 511.414062 341.652344 L 511.246094 342.070312 L 511.09375 342.523438 L 510.964844 343.011719 L 510.855469 343.539062 L 510.765625 344.101562 L 510.695312 344.703125 L 510.644531 345.339844 L 510.617188 346.015625 L 510.605469 346.726562 L 510.617188 347.4375 L 510.644531 348.113281 L 510.695312 348.753906 L 510.765625 349.363281 L 510.855469 349.933594 L 510.964844 350.464844 L 511.09375 350.964844 L 511.246094 351.429688 L 511.414062 351.859375 L 511.605469 352.25 L 511.8125 352.605469 L 512.03125 352.925781 L 512.265625 353.207031 L 512.507812 353.449219 L 512.769531 353.65625 L 513.039062 353.824219 L 513.324219 353.957031 L 513.621094 354.050781 L 513.933594 354.105469 Z M 514.253906 354.125 "/>
<path fill-rule="nonzero" fill="rgb(10.196078%, 10.196078%, 10.196078%)" fill-opacity="1" d="M 526.230469 355.074219 L 525.785156 355.054688 L 525.363281 354.988281 L 524.957031 354.878906 L 524.574219 354.726562 L 524.210938 354.53125 L 523.871094 354.292969 L 523.546875 354.007812 L 523.246094 353.683594 L 522.964844 353.3125 L 522.707031 352.902344 L 522.46875 352.445312 L 522.253906 351.957031 L 522.066406 351.429688 L 521.90625 350.867188 L 521.769531 350.269531 L 521.65625 349.632812 L 521.566406 348.960938 L 521.503906 348.253906 L 521.46875 347.507812 L 521.457031 346.726562 L 521.46875 345.949219 L 521.503906 345.210938 L 521.566406 344.507812 L 521.65625 343.839844 L 521.769531 343.214844 L 521.90625 342.621094 L 522.066406 342.066406 L 522.253906 341.550781 L 522.46875 341.070312 L 522.707031 340.625 L 522.964844 340.222656 L 523.246094 339.859375 L 523.546875 339.542969 L 523.871094 339.265625 L 524.210938 339.03125 L 524.574219 338.839844 L 524.957031 338.691406 L 525.363281 338.585938 L 525.785156 338.523438 L 526.230469 338.5 L 526.679688 338.523438 L 527.105469 338.585938 L 527.511719 338.691406 L 527.898438 338.839844 L 528.261719 339.03125 L 528.601562 339.265625 L 528.921875 339.542969 L 529.222656 339.859375 L 529.5 340.222656 L 529.753906 340.625 L 529.992188 341.070312 L 530.207031 341.550781 L 530.394531 342.066406 L 530.554688 342.621094 L 530.691406 343.214844 L 530.804688 343.839844 L 530.894531 344.507812 L 530.957031 345.210938 L 530.992188 345.949219 L 531.003906 346.726562 L 530.992188 347.507812 L 530.957031 348.253906 L 530.894531 348.960938 L 530.804688 349.632812 L 530.691406 350.269531 L 530.554688 350.867188 L 530.394531 351.429688 L 530.207031 351.957031 L 529.992188 352.445312 L 529.753906 352.902344 L 529.5 353.3125 L 529.222656 353.683594 L 528.921875 354.007812 L 528.601562 354.292969 L 528.261719 354.53125 L 527.898438 354.726562 L 527.511719 354.878906 L 527.105469 354.988281 L 526.679688 355.054688 Z M 526.230469 354.125 L 526.558594 354.105469 L 526.871094 354.050781 L 527.171875 353.957031 L 527.457031 353.824219 L 527.730469 353.65625 L 527.988281 353.449219 L 528.230469 353.207031 L 528.460938 352.925781 L 528.679688 352.605469 L 528.878906 352.25 L 529.070312 351.859375 L 529.242188 351.429688 L 529.390625 350.964844 L 529.519531 350.464844 L 529.628906 349.933594 L 529.71875 349.363281 L 529.789062 348.753906 L 529.839844 348.113281 L 529.871094 347.4375 L 529.878906 346.726562 L 529.871094 346.015625 L 529.839844 345.339844 L 529.789062 344.703125 L 529.71875 344.101562 L 529.628906 343.539062 L 529.519531 343.011719 L 529.390625 342.523438 L 529.242188 342.070312 L 529.070312 341.652344 L 528.878906 341.277344 L 528.679688 340.929688 L 528.460938 340.617188 L 528.230469 340.34375 L 527.988281 340.109375 L 527.730469 339.90625 L 527.457031 339.742188 L 527.171875 339.613281 L 526.871094 339.523438 L 526.558594 339.46875 L 526.230469 339.449219 L 525.90625 339.46875 L 525.597656 339.523438 L 525.300781 339.613281 L 525.015625 339.742188 L 524.742188 339.90625 L 524.484375 340.109375 L 524.238281 340.34375 L 524.007812 340.617188 L 523.785156 340.929688 L 523.582031 341.277344 L 523.390625 341.652344 L 523.21875 342.070312 L 523.070312 342.523438 L 522.941406 343.011719 L 522.832031 343.539062 L 522.742188 344.101562 L 522.671875 344.703125 L 522.621094 345.339844 L 522.589844 346.015625 L 522.582031 346.726562 L 522.589844 347.4375 L 522.621094 348.113281 L 522.671875 348.753906 L 522.742188 349.363281 L 522.832031 349.933594 L 522.941406 350.464844 L 523.070312 350.964844 L 523.21875 351.429688 L 523.390625 351.859375 L 523.582031 352.25 L 523.785156 352.605469 L 524.007812 352.925781 L 524.238281 353.207031 L 524.484375 353.449219 L 524.742188 353.65625 L 525.015625 353.824219 L 525.300781 353.957031 L 525.597656 354.050781 L 525.90625 354.105469 Z M 526.230469 354.125 "/>
<path fill-rule="nonzero" fill="rgb(10.196078%, 10.196078%, 10.196078%)" fill-opacity="1" d="M 728.214844 354.777344 L 728.214844 353.800781 L 731.964844 353.800781 L 731.964844 340.550781 L 729.117188 340.550781 L 729.117188 339.800781 L 729.308594 339.765625 L 729.5 339.726562 L 729.683594 339.6875 L 729.863281 339.648438 L 730.042969 339.605469 L 730.214844 339.5625 L 730.382812 339.519531 L 730.710938 339.425781 L 730.867188 339.375 L 731.019531 339.324219 L 731.167969 339.273438 L 731.3125 339.21875 L 731.449219 339.164062 L 731.585938 339.105469 L 731.714844 339.046875 L 731.839844 338.988281 L 731.960938 338.925781 L 732.078125 338.863281 L 732.191406 338.800781 L 733.089844 338.800781 L 733.089844 353.800781 L 736.566406 353.800781 L 736.566406 354.777344 Z M 728.214844 354.777344 "/>
<path fill-rule="nonzero" fill="rgb(10.196078%, 10.196078%, 10.196078%)" fill-opacity="1" d="M 743.765625 355.074219 L 743.515625 355.070312 L 743.269531 355.0625 L 743.03125 355.046875 L 742.796875 355.023438 L 742.574219 354.996094 L 742.351562 354.957031 L 742.140625 354.917969 L 741.933594 354.867188 L 741.734375 354.8125 L 741.542969 354.75 L 741.359375 354.683594 L 741.179688 354.613281 L 741.007812 354.539062 L 740.839844 354.460938 L 740.679688 354.382812 L 740.519531 354.296875 L 740.367188 354.210938 L 740.078125 354.023438 L 739.941406 353.925781 L 739.808594 353.824219 L 739.675781 353.726562 L 739.550781 353.625 L 739.425781 353.527344 L 739.183594 353.324219 L 739.070312 353.226562 L 738.957031 353.125 L 738.847656 353.027344 L 738.742188 352.925781 L 739.367188 352.152344 L 739.515625 352.292969 L 739.667969 352.4375 L 739.824219 352.578125 L 740.160156 352.851562 L 740.335938 352.984375 L 740.515625 353.117188 L 740.703125 353.246094 L 740.894531 353.375 L 741.089844 353.5 L 741.300781 353.613281 L 741.523438 353.714844 L 741.761719 353.804688 L 742.007812 353.882812 L 742.265625 353.949219 L 742.539062 354.003906 L 742.820312 354.046875 L 743.117188 354.078125 L 743.421875 354.09375 L 743.742188 354.101562 L 743.953125 354.09375 L 744.164062 354.078125 L 744.371094 354.054688 L 744.574219 354.015625 L 744.773438 353.96875 L 744.96875 353.910156 L 745.160156 353.84375 L 745.347656 353.765625 L 745.535156 353.675781 L 745.714844 353.574219 L 745.894531 353.460938 L 746.0625 353.339844 L 746.226562 353.207031 L 746.378906 353.066406 L 746.527344 352.917969 L 746.671875 352.761719 L 746.804688 352.597656 L 746.933594 352.421875 L 747.054688 352.242188 L 747.167969 352.050781 L 747.269531 351.851562 L 747.363281 351.648438 L 747.445312 351.4375 L 747.519531 351.222656 L 747.578125 351 L 747.628906 350.773438 L 747.667969 350.539062 L 747.695312 350.296875 L 747.710938 350.050781 L 747.714844 349.800781 L 747.707031 349.421875 L 747.671875 349.0625 L 747.621094 348.71875 L 747.542969 348.390625 L 747.449219 348.082031 L 747.328125 347.789062 L 747.191406 347.507812 L 747.027344 347.25 L 746.84375 347.003906 L 746.640625 346.777344 L 746.425781 346.566406 L 746.191406 346.378906 L 745.945312 346.214844 L 745.683594 346.070312 L 745.410156 345.949219 L 745.121094 345.851562 L 744.816406 345.773438 L 744.496094 345.71875 L 744.164062 345.6875 L 743.816406 345.675781 L 743.632812 345.679688 L 743.457031 345.6875 L 743.285156 345.703125 L 743.117188 345.722656 L 742.953125 345.75 L 742.796875 345.785156 L 742.644531 345.824219 L 742.496094 345.867188 L 742.355469 345.917969 L 742.214844 345.976562 L 742.085938 346.03125 L 741.953125 346.09375 L 741.820312 346.160156 L 741.683594 346.230469 L 741.410156 346.386719 L 741.269531 346.46875 L 741.128906 346.558594 L 740.984375 346.652344 L 740.839844 346.75 L 740.066406 346.277344 L 740.640625 338.800781 L 748.015625 338.800781 L 748.015625 339.777344 L 741.640625 339.777344 L 741.140625 345.550781 L 741.265625 345.476562 L 741.394531 345.40625 L 741.519531 345.339844 L 741.648438 345.273438 L 741.777344 345.214844 L 741.910156 345.15625 L 742.039062 345.097656 L 742.171875 345.046875 L 742.308594 344.996094 L 742.441406 344.949219 L 742.578125 344.902344 L 742.71875 344.859375 L 742.863281 344.824219 L 743.011719 344.789062 L 743.167969 344.761719 L 743.324219 344.742188 L 743.484375 344.722656 L 743.648438 344.710938 L 743.816406 344.703125 L 743.992188 344.699219 L 744.257812 344.707031 L 744.519531 344.722656 L 744.777344 344.75 L 745.03125 344.789062 L 745.277344 344.839844 L 745.519531 344.898438 L 745.757812 344.96875 L 745.992188 345.050781 L 746.21875 345.144531 L 746.441406 345.25 L 746.660156 345.363281 L 746.871094 345.484375 L 747.074219 345.621094 L 747.265625 345.765625 L 747.449219 345.925781 L 747.621094 346.097656 L 747.785156 346.28125 L 747.9375 346.472656 L 748.082031 346.679688 L 748.214844 346.902344 L 748.339844 347.125 L 748.449219 347.367188 L 748.546875 347.617188 L 748.632812 347.882812 L 748.703125 348.164062 L 748.761719 348.453125 L 748.808594 348.757812 L 748.839844 349.078125 L 748.859375 349.40625 L 748.867188 349.75 L 748.859375 350.085938 L 748.835938 350.410156 L 748.796875 350.726562 L 748.746094 351.03125 L 748.679688 351.324219 L 748.597656 351.609375 L 748.5 351.886719 L 748.386719 352.152344 L 748.257812 352.40625 L 748.117188 352.652344 L 747.964844 352.878906 L 747.808594 353.097656 L 747.640625 353.304688 L 747.464844 353.503906 L 747.277344 353.6875 L 747.085938 353.863281 L 746.878906 354.027344 L 746.667969 354.179688 L 746.445312 354.320312 L 746.214844 354.449219 L 745.984375 354.570312 L 745.75 354.675781 L 745.511719 354.769531 L 745.273438 354.851562 L 745.027344 354.917969 L 744.78125 354.976562 L 744.53125 355.019531 L 744.28125 355.050781 L 744.023438 355.070312 Z M 743.765625 355.074219 "/>
<path fill-rule="nonzero" fill="rgb(10.196078%, 10.196078%, 10.196078%)" fill-opacity="1" d="M 756.042969 355.074219 L 755.597656 355.054688 L 755.171875 354.988281 L 754.769531 354.878906 L 754.386719 354.726562 L 754.023438 354.53125 L 753.679688 354.292969 L 753.359375 354.007812 L 753.058594 353.683594 L 752.777344 353.3125 L 752.515625 352.902344 L 752.277344 352.445312 L 752.066406 351.957031 L 751.878906 351.429688 L 751.714844 350.867188 L 751.578125 350.269531 L 751.464844 349.632812 L 751.378906 348.960938 L 751.316406 348.253906 L 751.277344 347.507812 L 751.265625 346.726562 L 751.277344 345.949219 L 751.316406 345.210938 L 751.378906 344.507812 L 751.464844 343.839844 L 751.578125 343.214844 L 751.714844 342.621094 L 751.878906 342.066406 L 752.066406 341.550781 L 752.277344 341.070312 L 752.515625 340.625 L 752.777344 340.222656 L 753.058594 339.859375 L 753.359375 339.542969 L 753.679688 339.265625 L 754.023438 339.03125 L 754.386719 338.839844 L 754.769531 338.691406 L 755.171875 338.585938 L 755.597656 338.523438 L 756.042969 338.5 L 756.492188 338.523438 L 756.917969 338.585938 L 757.324219 338.691406 L 757.710938 338.839844 L 758.074219 339.03125 L 758.414062 339.265625 L 758.734375 339.542969 L 759.035156 339.859375 L 759.308594 340.222656 L 759.566406 340.625 L 759.804688 341.070312 L 760.015625 341.550781 L 760.203125 342.066406 L 760.367188 342.621094 L 760.503906 343.214844 L 760.617188 343.839844 L 760.703125 344.507812 L 760.765625 345.210938 L 760.804688 345.949219 L 760.816406 346.726562 L 760.804688 347.507812 L 760.765625 348.253906 L 760.703125 348.960938 L 760.617188 349.632812 L 760.503906 350.269531 L 760.367188 350.867188 L 760.203125 351.429688 L 760.015625 351.957031 L 759.804688 352.445312 L 759.566406 352.902344 L 759.308594 353.3125 L 759.035156 353.683594 L 758.734375 354.007812 L 758.414062 354.292969 L 758.074219 354.53125 L 757.710938 354.726562 L 757.324219 354.878906 L 756.917969 354.988281 L 756.492188 355.054688 Z M 756.042969 354.125 L 756.371094 354.105469 L 756.683594 354.050781 L 756.984375 353.957031 L 757.269531 353.824219 L 757.542969 353.65625 L 757.800781 353.449219 L 758.042969 353.207031 L 758.273438 352.925781 L 758.488281 352.605469 L 758.691406 352.25 L 758.882812 351.859375 L 759.050781 351.429688 L 759.203125 350.964844 L 759.332031 350.464844 L 759.441406 349.933594 L 759.53125 349.363281 L 759.601562 348.753906 L 759.652344 348.113281 L 759.679688 347.4375 L 759.691406 346.726562 L 759.679688 346.015625 L 759.652344 345.339844 L 759.601562 344.703125 L 759.53125 344.101562 L 759.441406 343.539062 L 759.332031 343.011719 L 759.203125 342.523438 L 759.050781 342.070312 L 758.882812 341.652344 L 758.691406 341.277344 L 758.488281 340.929688 L 758.273438 340.617188 L 758.042969 340.34375 L 757.800781 340.109375 L 757.542969 339.90625 L 757.269531 339.742188 L 756.984375 339.613281 L 756.683594 339.523438 L 756.371094 339.46875 L 756.042969 339.449219 L 755.71875 339.46875 L 755.40625 339.523438 L 755.109375 339.613281 L 754.824219 339.742188 L 754.554688 339.90625 L 754.296875 340.109375 L 754.050781 340.34375 L 753.816406 340.617188 L 753.597656 340.929688 L 753.390625 341.277344 L 753.203125 341.652344 L 753.03125 342.070312 L 752.882812 342.523438 L 752.75 343.011719 L 752.640625 343.539062 L 752.550781 344.101562 L 752.480469 344.703125 L 752.429688 345.339844 L 752.402344 346.015625 L 752.390625 346.726562 L 752.402344 347.4375 L 752.429688 348.113281 L 752.480469 348.753906 L 752.550781 349.363281 L 752.640625 349.933594 L 752.75 350.464844 L 752.882812 350.964844 L 753.03125 351.429688 L 753.203125 351.859375 L 753.390625 352.25 L 753.597656 352.605469 L 753.816406 352.925781 L 754.050781 353.207031 L 754.296875 353.449219 L 754.554688 353.65625 L 754.824219 353.824219 L 755.109375 353.957031 L 755.40625 354.050781 L 755.71875 354.105469 Z M 756.042969 354.125 "/>
</svg>
