<?xml version="1.0" encoding="UTF-8"?>
<svg xmlns="http://www.w3.org/2000/svg" xmlns:xlink="http://www.w3.org/1999/xlink" width="504" height="396" viewBox="0 0 504 396">
<defs>
<clipPath id="clip-0">
<path clip-rule="nonzero" d="M 22.414062 14.945312 L 489.054688 14.945312 L 489.054688 342.6875 L 22.414062 342.6875 Z M 22.414062 14.945312 "/>
</clipPath>
<clipPath id="clip-1">
<path clip-rule="nonzero" d="M 98 14.945312 L 101 14.945312 L 101 342.6875 L 98 342.6875 Z M 98 14.945312 "/>
</clipPath>
<clipPath id="clip-2">
<path clip-rule="nonzero" d="M 410 14.945312 L 413 14.945312 L 413 342.6875 L 410 342.6875 Z M 410 14.945312 "/>
</clipPath>
</defs>
<rect x="-50.4" y="-39.6" width="604.8" height="475.2" fill="rgb(100%, 100%, 100%)" fill-opacity="1"/>
<rect x="-50.4" y="-39.6" width="604.8" height="475.2" fill="rgb(95.294118%, 95.294118%, 95.294118%)" fill-opacity="1"/>
<path fill="none" stroke-width="2.909941" stroke-linecap="round" stroke-linejoin="round" stroke="rgb(95.294118%, 95.294118%, 95.294118%)" stroke-opacity="1" stroke-miterlimit="10" d="M 0 396 L 504 396 L 504 0 L 0 0 Z M 0 396 "/>
<g clip-path="url(#clip-0)">
<path fill-rule="nonzero" fill="rgb(95.294118%, 95.294118%, 95.294118%)" fill-opacity="1" stroke-width="2.909941" stroke-linecap="round" stroke-linejoin="round" stroke="rgb(95.294118%, 95.294118%, 95.294118%)" stroke-opacity="1" stroke-miterlimit="10" d="M 22.414062 342.6875 L 489.054688 342.6875 L 489.054688 14.945312 L 22.414062 14.945312 Z M 22.414062 342.6875 "/>
</g>
<path fill="none" stroke-width="2.560748" stroke-linecap="butt" stroke-linejoin="round" stroke="rgb(56.078431%, 16.470588%, 26.27451%)" stroke-opacity="1" stroke-miterlimit="10" d="M 43.683594 327.136719 L 45.5 327.066406 L 46.710938 327.011719 L 47.316406 326.988281 L 47.925781 326.957031 L 48.53125 326.929688 L 50.953125 326.804688 L 52.164062 326.734375 L 52.773438 326.699219 L 53.378906 326.664062 L 54.589844 326.585938 L 55.195312 326.542969 L 55.800781 326.503906 L 56.40625 326.460938 L 57.011719 326.414062 L 57.621094 326.371094 L 58.226562 326.320312 L 58.832031 326.273438 L 60.648438 326.121094 L 61.253906 326.066406 L 61.859375 326.007812 L 62.46875 325.949219 L 63.074219 325.890625 L 64.890625 325.703125 L 65.496094 325.636719 L 66.707031 325.496094 L 67.316406 325.425781 L 67.921875 325.347656 L 68.527344 325.273438 L 69.132812 325.195312 L 70.34375 325.03125 L 70.949219 324.945312 L 72.160156 324.765625 L 72.769531 324.671875 L 73.375 324.578125 L 73.980469 324.480469 L 74.585938 324.378906 L 75.796875 324.167969 L 77.007812 323.949219 L 77.617188 323.832031 L 78.222656 323.714844 L 79.433594 323.472656 L 80.644531 323.214844 L 81.855469 322.941406 L 82.464844 322.800781 L 83.070312 322.65625 L 83.675781 322.507812 L 84.28125 322.355469 L 84.886719 322.199219 L 86.097656 321.878906 L 86.703125 321.710938 L 87.3125 321.539062 L 87.917969 321.363281 L 88.523438 321.183594 L 89.734375 320.808594 L 90.945312 320.417969 L 91.550781 320.214844 L 92.160156 320.007812 L 92.765625 319.792969 L 93.371094 319.574219 L 93.976562 319.351562 L 94.582031 319.125 L 95.1875 318.890625 L 95.792969 318.652344 L 96.398438 318.410156 L 97.007812 318.160156 L 97.613281 317.90625 L 98.21875 317.644531 L 98.824219 317.378906 L 99.429688 317.105469 L 100.035156 316.828125 L 100.640625 316.542969 L 101.246094 316.25 L 101.851562 315.953125 L 102.460938 315.648438 L 103.066406 315.339844 L 103.671875 315.023438 L 104.277344 314.699219 L 104.882812 314.367188 L 105.488281 314.03125 L 106.09375 313.683594 L 106.699219 313.332031 L 107.308594 312.972656 L 107.914062 312.605469 L 108.519531 312.234375 L 109.125 311.851562 L 109.730469 311.460938 L 110.335938 311.0625 L 110.941406 310.660156 L 111.546875 310.246094 L 112.15625 309.824219 L 112.761719 309.394531 L 113.367188 308.953125 L 113.972656 308.507812 L 114.578125 308.050781 L 115.183594 307.589844 L 115.789062 307.117188 L 116.394531 306.632812 L 117.003906 306.140625 L 117.609375 305.640625 L 118.214844 305.132812 L 118.820312 304.613281 L 119.425781 304.085938 L 120.03125 303.546875 L 120.636719 303 L 121.242188 302.441406 L 121.851562 301.871094 L 122.457031 301.296875 L 123.0625 300.707031 L 123.667969 300.109375 L 124.273438 299.5 L 124.878906 298.882812 L 125.484375 298.25 L 126.089844 297.609375 L 126.699219 296.960938 L 127.304688 296.296875 L 127.910156 295.625 L 128.515625 294.941406 L 129.121094 294.246094 L 129.726562 293.539062 L 130.332031 292.820312 L 130.9375 292.089844 L 131.542969 291.347656 L 132.152344 290.597656 L 132.757812 289.832031 L 133.363281 289.054688 L 133.96875 288.265625 L 134.574219 287.464844 L 135.179688 286.652344 L 135.785156 285.828125 L 136.390625 284.992188 L 137 284.144531 L 137.605469 283.28125 L 138.210938 282.40625 L 138.816406 281.519531 L 139.421875 280.621094 L 140.027344 279.710938 L 140.632812 278.785156 L 141.238281 277.847656 L 141.847656 276.894531 L 142.453125 275.933594 L 143.058594 274.957031 L 143.664062 273.96875 L 144.269531 272.964844 L 144.875 271.949219 L 145.480469 270.921875 L 146.085938 269.878906 L 146.695312 268.824219 L 147.300781 267.757812 L 147.90625 266.675781 L 148.511719 265.582031 L 149.117188 264.472656 L 149.722656 263.351562 L 150.328125 262.21875 L 150.933594 261.070312 L 151.542969 259.910156 L 152.148438 258.738281 L 152.753906 257.550781 L 153.359375 256.347656 L 153.964844 255.132812 L 154.570312 253.90625 L 155.175781 252.667969 L 155.78125 251.414062 L 156.386719 250.144531 L 156.996094 248.867188 L 157.601562 247.574219 L 158.207031 246.265625 L 158.8125 244.949219 L 159.417969 243.617188 L 160.023438 242.273438 L 160.628906 240.914062 L 161.234375 239.542969 L 161.84375 238.160156 L 162.449219 236.765625 L 163.054688 235.359375 L 163.660156 233.9375 L 164.265625 232.503906 L 164.871094 231.058594 L 165.476562 229.601562 L 166.082031 228.132812 L 166.691406 226.652344 L 167.296875 225.160156 L 167.902344 223.65625 L 168.507812 222.140625 L 169.113281 220.613281 L 169.71875 219.074219 L 170.324219 217.527344 L 170.929688 215.964844 L 171.539062 214.394531 L 172.144531 212.8125 L 172.75 211.222656 L 173.355469 209.621094 L 173.960938 208.007812 L 174.566406 206.386719 L 175.171875 204.753906 L 175.777344 203.113281 L 176.386719 201.460938 L 176.992188 199.804688 L 177.597656 198.136719 L 178.203125 196.457031 L 178.808594 194.773438 L 179.414062 193.078125 L 180.019531 191.378906 L 180.625 189.667969 L 181.234375 187.953125 L 181.839844 186.230469 L 182.445312 184.5 L 183.050781 182.761719 L 183.65625 181.019531 L 184.261719 179.269531 L 184.867188 177.515625 L 185.472656 175.753906 L 186.078125 173.988281 L 186.6875 172.214844 L 187.292969 170.441406 L 187.898438 168.660156 L 188.503906 166.875 L 189.714844 163.296875 L 190.925781 159.703125 L 191.535156 157.90625 L 192.140625 156.101562 L 192.746094 154.300781 L 193.351562 152.496094 L 193.957031 150.6875 L 194.5625 148.882812 L 195.773438 145.265625 L 196.382812 143.460938 L 198.199219 138.046875 L 199.410156 134.445312 L 200.015625 132.648438 L 200.621094 130.855469 L 201.230469 129.066406 L 201.835938 127.277344 L 202.441406 125.496094 L 203.046875 123.71875 L 203.652344 121.945312 L 204.257812 120.175781 L 204.863281 118.414062 L 205.46875 116.660156 L 206.078125 114.910156 L 206.683594 113.167969 L 207.289062 111.433594 L 207.894531 109.707031 L 208.5 107.988281 L 209.105469 106.277344 L 209.710938 104.578125 L 210.316406 102.886719 L 210.921875 101.203125 L 211.53125 99.53125 L 212.136719 97.871094 L 212.742188 96.222656 L 213.347656 94.585938 L 213.953125 92.957031 L 214.558594 91.34375 L 215.164062 89.742188 L 215.769531 88.152344 L 216.378906 86.578125 L 216.984375 85.019531 L 217.589844 83.472656 L 218.195312 81.941406 L 218.800781 80.421875 L 219.40625 78.921875 L 220.011719 77.4375 L 220.617188 75.96875 L 221.226562 74.515625 L 221.832031 73.082031 L 222.4375 71.664062 L 223.042969 70.265625 L 223.648438 68.882812 L 224.253906 67.519531 L 224.859375 66.175781 L 225.464844 64.851562 L 226.074219 63.546875 L 226.679688 62.261719 L 227.285156 60.996094 L 227.890625 59.753906 L 228.496094 58.53125 L 229.101562 57.332031 L 229.707031 56.152344 L 230.3125 54.996094 L 230.921875 53.859375 L 231.527344 52.75 L 232.132812 51.660156 L 232.738281 50.59375 L 233.34375 49.554688 L 233.949219 48.535156 L 234.554688 47.542969 L 235.160156 46.574219 L 235.769531 45.628906 L 236.375 44.710938 L 236.980469 43.820312 L 237.585938 42.953125 L 238.191406 42.109375 L 238.796875 41.296875 L 239.402344 40.507812 L 240.007812 39.742188 L 240.613281 39.007812 L 241.222656 38.300781 L 241.828125 37.617188 L 242.433594 36.964844 L 243.039062 36.339844 L 243.644531 35.742188 L 244.25 35.171875 L 244.855469 34.628906 L 245.460938 34.117188 L 246.070312 33.628906 L 246.675781 33.175781 L 247.28125 32.746094 L 247.886719 32.347656 L 248.492188 31.980469 L 249.097656 31.636719 L 249.703125 31.328125 L 250.308594 31.046875 L 250.917969 30.792969 L 251.523438 30.570312 L 252.128906 30.378906 L 252.734375 30.214844 L 253.339844 30.078125 L 253.945312 29.976562 L 254.550781 29.902344 L 255.15625 29.855469 L 255.765625 29.839844 L 256.371094 29.855469 L 256.976562 29.902344 L 257.582031 29.976562 L 258.1875 30.078125 L 258.792969 30.214844 L 259.398438 30.378906 L 260.003906 30.570312 L 260.613281 30.792969 L 261.21875 31.046875 L 261.824219 31.328125 L 262.429688 31.636719 L 263.035156 31.980469 L 263.640625 32.347656 L 264.246094 32.746094 L 264.851562 33.175781 L 265.460938 33.628906 L 266.066406 34.117188 L 266.671875 34.628906 L 267.277344 35.171875 L 267.882812 35.742188 L 268.488281 36.339844 L 269.09375 36.964844 L 269.699219 37.617188 L 270.304688 38.300781 L 270.914062 39.007812 L 271.519531 39.742188 L 272.125 40.507812 L 272.730469 41.296875 L 273.335938 42.109375 L 273.941406 42.953125 L 274.546875 43.820312 L 275.152344 44.710938 L 275.761719 45.628906 L 276.367188 46.574219 L 276.972656 47.542969 L 277.578125 48.535156 L 278.183594 49.554688 L 278.789062 50.59375 L 279.394531 51.660156 L 280 52.75 L 280.609375 53.859375 L 281.214844 54.996094 L 281.820312 56.152344 L 282.425781 57.332031 L 283.03125 58.53125 L 283.636719 59.753906 L 284.242188 60.996094 L 284.847656 62.261719 L 285.457031 63.546875 L 286.0625 64.851562 L 286.667969 66.175781 L 287.273438 67.519531 L 287.878906 68.882812 L 288.484375 70.265625 L 289.089844 71.664062 L 289.695312 73.082031 L 290.304688 74.515625 L 290.910156 75.96875 L 291.515625 77.4375 L 292.121094 78.921875 L 292.726562 80.421875 L 293.332031 81.941406 L 293.9375 83.472656 L 294.542969 85.019531 L 295.148438 86.578125 L 295.757812 88.152344 L 296.363281 89.742188 L 296.96875 91.34375 L 297.574219 92.957031 L 298.179688 94.585938 L 298.785156 96.222656 L 299.390625 97.871094 L 299.996094 99.53125 L 300.605469 101.203125 L 301.210938 102.886719 L 301.816406 104.578125 L 302.421875 106.277344 L 303.027344 107.988281 L 303.632812 109.707031 L 304.238281 111.433594 L 304.84375 113.167969 L 305.453125 114.910156 L 306.058594 116.660156 L 306.664062 118.414062 L 307.269531 120.175781 L 307.875 121.945312 L 308.480469 123.71875 L 309.085938 125.496094 L 309.691406 127.277344 L 310.300781 129.066406 L 310.90625 130.855469 L 311.511719 132.648438 L 312.117188 134.445312 L 313.328125 138.046875 L 314.539062 141.65625 L 315.148438 143.460938 L 315.753906 145.265625 L 316.964844 148.882812 L 317.570312 150.6875 L 318.175781 152.496094 L 318.78125 154.300781 L 319.386719 156.101562 L 319.996094 157.90625 L 321.8125 163.296875 L 323.023438 166.875 L 323.628906 168.660156 L 324.234375 170.441406 L 324.839844 172.214844 L 325.449219 173.988281 L 326.054688 175.753906 L 326.660156 177.515625 L 327.265625 179.269531 L 327.871094 181.019531 L 328.476562 182.761719 L 329.082031 184.5 L 329.6875 186.230469 L 330.296875 187.953125 L 330.902344 189.667969 L 331.507812 191.378906 L 332.113281 193.078125 L 332.71875 194.773438 L 333.324219 196.457031 L 333.929688 198.136719 L 334.535156 199.804688 L 335.144531 201.460938 L 335.75 203.113281 L 336.355469 204.753906 L 336.960938 206.386719 L 337.566406 208.007812 L 338.171875 209.621094 L 338.777344 211.222656 L 339.382812 212.8125 L 339.992188 214.394531 L 340.597656 215.964844 L 341.203125 217.527344 L 341.808594 219.074219 L 342.414062 220.613281 L 343.019531 222.140625 L 343.625 223.65625 L 344.230469 225.160156 L 344.839844 226.652344 L 345.445312 228.132812 L 346.050781 229.601562 L 346.65625 231.058594 L 347.261719 232.503906 L 347.867188 233.9375 L 348.472656 235.359375 L 349.078125 236.765625 L 349.6875 238.160156 L 350.292969 239.542969 L 350.898438 240.914062 L 351.503906 242.273438 L 352.109375 243.617188 L 352.714844 244.949219 L 353.320312 246.265625 L 353.925781 247.574219 L 354.53125 248.867188 L 355.140625 250.144531 L 355.746094 251.414062 L 356.351562 252.667969 L 356.957031 253.90625 L 357.5625 255.132812 L 358.167969 256.347656 L 358.773438 257.550781 L 359.378906 258.738281 L 359.988281 259.910156 L 360.59375 261.070312 L 361.199219 262.21875 L 361.804688 263.351562 L 362.410156 264.472656 L 363.015625 265.582031 L 363.621094 266.675781 L 364.226562 267.757812 L 364.835938 268.824219 L 365.441406 269.878906 L 366.046875 270.921875 L 366.652344 271.949219 L 367.257812 272.964844 L 367.863281 273.96875 L 368.46875 274.957031 L 369.074219 275.933594 L 369.683594 276.894531 L 370.289062 277.847656 L 370.894531 278.785156 L 371.5 279.710938 L 372.105469 280.621094 L 372.710938 281.519531 L 373.316406 282.40625 L 373.921875 283.28125 L 374.53125 284.144531 L 375.136719 284.992188 L 375.742188 285.828125 L 376.347656 286.652344 L 376.953125 287.464844 L 377.558594 288.265625 L 378.164062 289.054688 L 378.769531 289.832031 L 379.375 290.597656 L 379.984375 291.347656 L 380.589844 292.089844 L 381.195312 292.820312 L 381.800781 293.539062 L 382.40625 294.246094 L 383.011719 294.941406 L 383.617188 295.625 L 384.222656 296.296875 L 384.832031 296.960938 L 385.4375 297.609375 L 386.042969 298.25 L 386.648438 298.882812 L 387.253906 299.5 L 387.859375 300.109375 L 388.464844 300.707031 L 389.070312 301.296875 L 389.679688 301.871094 L 390.285156 302.441406 L 390.890625 303 L 391.496094 303.546875 L 392.101562 304.085938 L 392.707031 304.613281 L 393.3125 305.132812 L 393.917969 305.640625 L 394.527344 306.140625 L 395.132812 306.632812 L 395.738281 307.117188 L 396.34375 307.589844 L 396.949219 308.050781 L 397.554688 308.507812 L 398.160156 308.953125 L 398.765625 309.394531 L 399.375 309.824219 L 399.980469 310.246094 L 400.585938 310.660156 L 401.191406 311.0625 L 401.796875 311.460938 L 402.402344 311.851562 L 403.007812 312.234375 L 403.613281 312.605469 L 404.222656 312.972656 L 404.828125 313.332031 L 405.433594 313.683594 L 406.039062 314.03125 L 406.644531 314.367188 L 407.25 314.699219 L 407.855469 315.023438 L 408.460938 315.339844 L 409.066406 315.648438 L 409.675781 315.953125 L 410.28125 316.25 L 410.886719 316.542969 L 411.492188 316.828125 L 412.097656 317.105469 L 412.703125 317.378906 L 413.308594 317.644531 L 413.914062 317.90625 L 414.523438 318.160156 L 415.128906 318.410156 L 415.734375 318.652344 L 416.339844 318.890625 L 416.945312 319.125 L 417.550781 319.351562 L 418.15625 319.574219 L 418.761719 319.792969 L 419.371094 320.007812 L 419.976562 320.214844 L 420.582031 320.417969 L 421.792969 320.808594 L 423.003906 321.183594 L 423.609375 321.363281 L 424.21875 321.539062 L 424.824219 321.710938 L 425.429688 321.878906 L 426.640625 322.199219 L 427.246094 322.355469 L 427.851562 322.507812 L 428.457031 322.65625 L 429.066406 322.800781 L 429.671875 322.941406 L 430.882812 323.214844 L 432.09375 323.472656 L 433.304688 323.714844 L 433.914062 323.832031 L 434.519531 323.949219 L 435.730469 324.167969 L 436.941406 324.378906 L 437.546875 324.480469 L 438.152344 324.578125 L 438.757812 324.671875 L 439.367188 324.765625 L 440.578125 324.945312 L 441.183594 325.03125 L 442.394531 325.195312 L 443 325.273438 L 443.605469 325.347656 L 444.214844 325.425781 L 446.03125 325.636719 L 446.636719 325.703125 L 448.453125 325.890625 L 449.0625 325.949219 L 450.273438 326.066406 L 450.878906 326.121094 L 452.695312 326.273438 L 453.300781 326.320312 L 453.910156 326.371094 L 454.515625 326.414062 L 455.121094 326.460938 L 455.726562 326.503906 L 456.332031 326.542969 L 456.9375 326.585938 L 458.148438 326.664062 L 458.757812 326.699219 L 460.574219 326.804688 L 462.996094 326.929688 L 463.601562 326.957031 L 464.210938 326.988281 L 464.816406 327.011719 L 466.027344 327.066406 L 467.84375 327.136719 "/>
<path fill-rule="nonzero" fill="rgb(56.078431%, 16.470588%, 26.27451%)" fill-opacity="0.501961" d="M 411.84375 316.988281 L 411.902344 317.015625 L 412.394531 317.238281 L 412.453125 317.265625 L 412.507812 317.289062 L 413 317.507812 L 413.058594 317.535156 L 413.113281 317.558594 L 413.609375 317.773438 L 413.71875 317.820312 L 414.214844 318.03125 L 414.324219 318.078125 L 414.820312 318.285156 L 414.875 318.308594 L 414.929688 318.328125 L 415.425781 318.53125 L 415.480469 318.554688 L 415.535156 318.574219 L 416.03125 318.773438 L 416.085938 318.792969 L 416.144531 318.816406 L 416.636719 319.007812 L 416.691406 319.027344 L 416.75 319.050781 L 417.242188 319.238281 L 417.300781 319.257812 L 417.355469 319.28125 L 417.847656 319.464844 L 417.90625 319.484375 L 417.960938 319.503906 L 418.453125 319.683594 L 418.511719 319.703125 L 418.566406 319.722656 L 419.0625 319.898438 L 419.171875 319.9375 L 419.667969 320.109375 L 419.777344 320.148438 L 420.273438 320.3125 L 420.382812 320.351562 L 420.878906 320.515625 L 420.933594 320.53125 L 420.992188 320.550781 L 421.484375 320.710938 L 421.539062 320.726562 L 421.597656 320.746094 L 422.089844 320.902344 L 422.144531 320.917969 L 422.203125 320.9375 L 422.695312 321.089844 L 422.753906 321.105469 L 422.808594 321.121094 L 423.300781 321.269531 L 423.359375 321.289062 L 423.414062 321.304688 L 423.910156 321.449219 L 424.019531 321.480469 L 424.515625 321.621094 L 424.570312 321.640625 L 424.625 321.65625 L 425.121094 321.792969 L 425.230469 321.824219 L 425.726562 321.957031 L 425.835938 321.988281 L 426.332031 322.121094 L 426.386719 322.132812 L 426.445312 322.148438 L 426.9375 322.277344 L 426.992188 322.292969 L 427.050781 322.304688 L 427.542969 322.429688 L 427.601562 322.445312 L 427.65625 322.457031 L 428.148438 322.582031 L 428.207031 322.59375 L 428.261719 322.609375 L 428.757812 322.726562 L 428.8125 322.742188 L 428.867188 322.753906 L 429.363281 322.871094 L 429.472656 322.894531 L 429.96875 323.007812 L 430.023438 323.023438 L 430.078125 323.035156 L 430.574219 323.144531 L 430.683594 323.167969 L 431.179688 323.277344 L 431.234375 323.289062 L 431.292969 323.300781 L 431.839844 323.417969 L 431.898438 323.429688 L 432.390625 323.53125 L 432.449219 323.542969 L 432.503906 323.554688 L 432.996094 323.65625 L 433.054688 323.664062 L 433.109375 323.675781 L 433.605469 323.773438 L 433.714844 323.796875 L 434.210938 323.890625 L 434.265625 323.902344 L 434.320312 323.910156 L 434.816406 324.003906 L 434.871094 324.015625 L 434.925781 324.023438 L 435.421875 324.113281 L 435.476562 324.125 L 435.53125 324.132812 L 436.027344 324.222656 L 436.082031 324.230469 L 436.140625 324.242188 L 436.632812 324.328125 L 436.6875 324.335938 L 436.746094 324.34375 L 437.238281 324.429688 L 437.296875 324.4375 L 437.351562 324.445312 L 437.84375 324.527344 L 437.902344 324.535156 L 437.957031 324.546875 L 438.453125 324.625 L 438.5625 324.640625 L 439.058594 324.71875 L 439.167969 324.734375 L 439.664062 324.808594 L 439.71875 324.820312 L 439.773438 324.828125 L 440.269531 324.898438 L 440.378906 324.914062 L 440.875 324.984375 L 440.929688 324.992188 L 440.988281 325 L 441.535156 325.078125 L 441.59375 325.085938 L 442.085938 325.152344 L 442.144531 325.160156 L 442.199219 325.167969 L 442.691406 325.234375 L 442.75 325.238281 L 442.804688 325.246094 L 443.296875 325.308594 L 443.355469 325.316406 L 443.410156 325.324219 L 443.90625 325.386719 L 443.960938 325.394531 L 444.015625 325.398438 L 444.511719 325.460938 L 444.566406 325.464844 L 444.621094 325.472656 L 445.117188 325.53125 L 445.171875 325.539062 L 445.226562 325.542969 L 445.722656 325.601562 L 445.777344 325.605469 L 445.835938 325.613281 L 446.328125 325.667969 L 446.382812 325.675781 L 446.441406 325.679688 L 446.933594 325.734375 L 446.988281 325.738281 L 447.046875 325.746094 L 447.539062 325.796875 L 447.597656 325.804688 L 447.652344 325.808594 L 448.144531 325.859375 L 448.203125 325.867188 L 448.257812 325.871094 L 448.753906 325.921875 L 448.863281 325.929688 L 449.359375 325.980469 L 449.46875 325.988281 L 449.964844 326.035156 L 450.019531 326.042969 L 450.074219 326.046875 L 450.570312 326.089844 L 450.625 326.097656 L 450.683594 326.101562 L 451.175781 326.144531 L 451.230469 326.148438 L 451.289062 326.15625 L 451.78125 326.199219 L 451.835938 326.203125 L 451.894531 326.207031 L 452.386719 326.25 L 452.445312 326.253906 L 452.5 326.257812 L 452.992188 326.296875 L 453.050781 326.300781 L 453.105469 326.304688 L 453.601562 326.34375 L 453.65625 326.351562 L 453.710938 326.355469 L 454.207031 326.390625 L 454.316406 326.398438 L 454.8125 326.4375 L 454.921875 326.445312 L 455.417969 326.480469 L 455.527344 326.488281 L 456.023438 326.523438 L 456.078125 326.527344 L 456.136719 326.53125 L 456.628906 326.5625 L 456.683594 326.566406 L 456.742188 326.570312 L 457.234375 326.605469 L 457.292969 326.609375 L 457.347656 326.613281 L 457.839844 326.644531 L 457.898438 326.648438 L 457.953125 326.648438 L 458.449219 326.679688 L 458.558594 326.6875 L 459.054688 326.71875 L 459.109375 326.722656 L 459.164062 326.722656 L 459.660156 326.753906 L 459.714844 326.757812 L 459.769531 326.757812 L 460.265625 326.789062 L 460.320312 326.789062 L 460.375 326.792969 L 460.871094 326.820312 L 460.925781 326.824219 L 460.984375 326.828125 L 461.476562 326.851562 L 461.53125 326.855469 L 461.589844 326.859375 L 462.082031 326.882812 L 462.140625 326.886719 L 462.195312 326.890625 L 462.6875 326.914062 L 462.746094 326.917969 L 462.800781 326.917969 L 463.296875 326.945312 L 463.351562 326.945312 L 463.40625 326.949219 L 463.902344 326.972656 L 463.957031 326.976562 L 464.011719 326.976562 L 464.507812 327 L 464.5625 327.003906 L 464.617188 327.003906 L 465.113281 327.027344 L 465.167969 327.027344 L 465.222656 327.03125 L 465.71875 327.050781 L 465.773438 327.054688 L 465.832031 327.058594 L 466.324219 327.078125 L 466.378906 327.078125 L 466.4375 327.082031 L 466.929688 327.101562 L 466.988281 327.105469 L 467.042969 327.105469 L 467.535156 327.125 L 467.59375 327.128906 L 467.648438 327.789062 L 411.789062 327.789062 Z M 411.84375 316.988281 "/>
<path fill-rule="nonzero" fill="rgb(56.078431%, 16.470588%, 26.27451%)" fill-opacity="0.501961" d="M 43.683594 327.136719 L 43.738281 327.136719 L 44.234375 327.117188 L 44.289062 327.113281 L 44.34375 327.113281 L 44.839844 327.09375 L 44.894531 327.089844 L 44.949219 327.089844 L 45.445312 327.066406 L 45.5 327.066406 L 45.554688 327.0625 L 46.050781 327.042969 L 46.105469 327.039062 L 46.164062 327.039062 L 46.65625 327.015625 L 46.710938 327.011719 L 46.769531 327.011719 L 47.261719 326.988281 L 47.316406 326.988281 L 47.375 326.984375 L 47.867188 326.960938 L 47.925781 326.957031 L 47.980469 326.957031 L 48.472656 326.933594 L 48.53125 326.929688 L 48.585938 326.925781 L 49.082031 326.902344 L 49.136719 326.898438 L 49.191406 326.898438 L 49.6875 326.871094 L 49.742188 326.867188 L 49.796875 326.867188 L 50.292969 326.839844 L 50.347656 326.835938 L 50.402344 326.835938 L 50.898438 326.808594 L 51.007812 326.800781 L 51.503906 326.773438 L 51.558594 326.769531 L 51.617188 326.765625 L 52.109375 326.738281 L 52.164062 326.734375 L 52.222656 326.730469 L 52.714844 326.703125 L 52.773438 326.699219 L 52.828125 326.695312 L 53.320312 326.664062 L 53.378906 326.664062 L 53.433594 326.660156 L 53.929688 326.628906 L 54.039062 326.621094 L 54.535156 326.589844 L 54.644531 326.582031 L 55.140625 326.546875 L 55.25 326.539062 L 55.746094 326.507812 L 55.855469 326.5 L 56.351562 326.464844 L 56.40625 326.460938 L 56.464844 326.457031 L 56.957031 326.417969 L 57.011719 326.414062 L 57.070312 326.410156 L 57.5625 326.375 L 57.621094 326.371094 L 57.675781 326.363281 L 58.167969 326.328125 L 58.226562 326.320312 L 58.28125 326.316406 L 58.777344 326.277344 L 58.886719 326.269531 L 59.382812 326.226562 L 59.492188 326.21875 L 59.988281 326.175781 L 60.097656 326.167969 L 60.59375 326.125 L 60.648438 326.121094 L 60.703125 326.113281 L 61.199219 326.070312 L 61.253906 326.066406 L 61.3125 326.058594 L 61.804688 326.015625 L 61.859375 326.007812 L 61.917969 326.003906 L 62.410156 325.957031 L 62.46875 325.949219 L 62.523438 325.945312 L 63.015625 325.898438 L 63.074219 325.890625 L 63.128906 325.886719 L 63.625 325.835938 L 63.679688 325.828125 L 63.734375 325.824219 L 64.230469 325.773438 L 64.285156 325.765625 L 64.339844 325.761719 L 64.835938 325.707031 L 64.890625 325.703125 L 64.945312 325.695312 L 65.441406 325.640625 L 65.496094 325.636719 L 65.550781 325.628906 L 66.046875 325.574219 L 66.101562 325.566406 L 66.160156 325.558594 L 66.652344 325.503906 L 66.707031 325.496094 L 66.765625 325.488281 L 67.257812 325.429688 L 67.316406 325.425781 L 67.371094 325.417969 L 67.863281 325.355469 L 67.921875 325.347656 L 67.976562 325.34375 L 68.46875 325.28125 L 68.527344 325.273438 L 68.582031 325.265625 L 69.078125 325.199219 L 69.132812 325.195312 L 69.1875 325.1875 L 69.683594 325.121094 L 69.792969 325.105469 L 70.289062 325.035156 L 70.34375 325.03125 L 70.398438 325.023438 L 70.894531 324.953125 L 70.949219 324.945312 L 71.007812 324.9375 L 71.5 324.863281 L 71.554688 324.855469 L 71.613281 324.847656 L 72.105469 324.773438 L 72.160156 324.765625 L 72.21875 324.757812 L 72.710938 324.679688 L 72.769531 324.671875 L 72.824219 324.664062 L 73.316406 324.585938 L 73.375 324.578125 L 73.429688 324.566406 L 73.925781 324.488281 L 73.980469 324.480469 L 74.035156 324.46875 L 74.53125 324.386719 L 74.585938 324.378906 L 74.640625 324.367188 L 75.136719 324.285156 L 75.191406 324.273438 L 75.246094 324.265625 L 75.742188 324.179688 L 75.796875 324.167969 L 75.851562 324.160156 L 76.347656 324.070312 L 76.402344 324.058594 L 76.460938 324.050781 L 76.953125 323.957031 L 77.007812 323.949219 L 77.066406 323.9375 L 77.558594 323.84375 L 77.617188 323.832031 L 77.671875 323.824219 L 78.164062 323.726562 L 78.222656 323.714844 L 78.277344 323.703125 L 78.773438 323.605469 L 78.882812 323.582031 L 79.378906 323.480469 L 79.433594 323.472656 L 79.488281 323.460938 L 79.984375 323.355469 L 80.09375 323.332031 L 80.589844 323.226562 L 80.644531 323.214844 L 80.699219 323.199219 L 81.195312 323.089844 L 81.25 323.078125 L 81.308594 323.066406 L 81.800781 322.953125 L 81.855469 322.941406 L 81.914062 322.929688 L 82.40625 322.8125 L 82.464844 322.800781 L 82.519531 322.789062 L 83.011719 322.667969 L 83.070312 322.65625 L 83.125 322.640625 L 83.621094 322.523438 L 83.730469 322.492188 L 84.226562 322.371094 L 84.28125 322.355469 L 84.335938 322.34375 L 84.832031 322.214844 L 84.886719 322.199219 L 84.941406 322.1875 L 85.4375 322.054688 L 85.492188 322.039062 L 85.546875 322.027344 L 86.042969 321.890625 L 86.097656 321.878906 L 86.15625 321.863281 L 86.648438 321.726562 L 86.703125 321.710938 L 86.761719 321.695312 L 87.253906 321.554688 L 87.3125 321.539062 L 87.367188 321.523438 L 87.859375 321.378906 L 87.917969 321.363281 L 87.972656 321.347656 L 88.46875 321.199219 L 88.523438 321.183594 L 88.578125 321.164062 L 89.074219 321.015625 L 89.128906 320.996094 L 89.183594 320.980469 L 89.679688 320.824219 L 89.734375 320.808594 L 89.789062 320.789062 L 90.285156 320.632812 L 90.339844 320.613281 L 90.394531 320.597656 L 90.890625 320.433594 L 90.945312 320.417969 L 91.496094 320.234375 L 91.550781 320.214844 L 91.609375 320.195312 L 92.101562 320.023438 L 92.160156 320.007812 L 92.707031 319.8125 L 92.765625 319.792969 L 92.820312 319.773438 L 93.316406 319.597656 L 93.371094 319.574219 L 93.425781 319.554688 L 93.921875 319.375 L 93.976562 319.351562 L 94.03125 319.332031 L 94.527344 319.148438 L 94.582031 319.125 L 94.636719 319.105469 L 95.132812 318.914062 L 95.1875 318.890625 L 95.242188 318.871094 L 95.738281 318.675781 L 95.792969 318.652344 L 95.851562 318.632812 L 96.34375 318.433594 L 96.398438 318.410156 L 96.457031 318.386719 L 96.949219 318.183594 L 97.007812 318.160156 L 97.0625 318.136719 L 97.554688 317.929688 L 97.613281 317.90625 L 97.667969 317.882812 L 98.160156 317.667969 L 98.21875 317.644531 L 98.273438 317.621094 L 98.769531 317.402344 L 98.824219 317.378906 L 98.878906 317.351562 L 99.375 317.128906 L 99.429688 317.105469 L 99.484375 327.789062 L 43.625 327.789062 Z M 43.683594 327.136719 "/>
<g clip-path="url(#clip-1)">
<path fill="none" stroke-width="1.920561" stroke-linecap="butt" stroke-linejoin="round" stroke="rgb(0%, 0%, 0%)" stroke-opacity="1" stroke-dasharray="7.682244 7.682244" stroke-miterlimit="10" d="M 99.683594 342.6875 L 99.683594 14.945312 "/>
</g>
<g clip-path="url(#clip-2)">
<path fill="none" stroke-width="1.920561" stroke-linecap="butt" stroke-linejoin="round" stroke="rgb(0%, 0%, 0%)" stroke-opacity="1" stroke-dasharray="7.682244 7.682244" stroke-miterlimit="10" d="M 411.84375 342.6875 L 411.84375 14.945312 "/>
</g>
<path fill-rule="nonzero" fill="rgb(10.196078%, 10.196078%, 10.196078%)" fill-opacity="1" d="M 124.800781 368.148438 L 124.800781 367.054688 L 130.960938 367.054688 L 130.960938 368.148438 Z M 124.800781 368.148438 "/>
<path fill-rule="nonzero" fill="rgb(10.196078%, 10.196078%, 10.196078%)" fill-opacity="1" d="M 133.203125 374.589844 L 133.203125 373.804688 L 133.78125 373.214844 L 134.339844 372.636719 L 134.878906 372.078125 L 135.398438 371.539062 L 135.898438 371.011719 L 136.378906 370.5 L 136.839844 370.007812 L 137.28125 369.53125 L 137.699219 369.070312 L 138.101562 368.625 L 138.484375 368.1875 L 138.847656 367.757812 L 139.191406 367.339844 L 139.515625 366.929688 L 139.816406 366.53125 L 140.101562 366.140625 L 140.367188 365.761719 L 140.613281 365.390625 L 140.835938 365.027344 L 141.042969 364.675781 L 141.230469 364.332031 L 141.394531 363.988281 L 141.542969 363.652344 L 141.667969 363.320312 L 141.777344 362.988281 L 141.867188 362.664062 L 141.933594 362.339844 L 141.984375 362.023438 L 142.011719 361.710938 L 142.023438 361.398438 L 142.011719 361.070312 L 141.984375 360.75 L 141.9375 360.441406 L 141.871094 360.140625 L 141.785156 359.851562 L 141.679688 359.574219 L 141.554688 359.308594 L 141.414062 359.050781 L 141.25 358.808594 L 141.070312 358.570312 L 140.875 358.355469 L 140.65625 358.160156 L 140.417969 357.988281 L 140.15625 357.835938 L 139.875 357.710938 L 139.570312 357.609375 L 139.242188 357.527344 L 138.894531 357.46875 L 138.523438 357.433594 L 138.128906 357.425781 L 137.890625 357.429688 L 137.652344 357.449219 L 137.417969 357.484375 L 137.183594 357.53125 L 136.953125 357.59375 L 136.726562 357.664062 L 136.5 357.753906 L 136.277344 357.855469 L 136.054688 357.96875 L 135.835938 358.097656 L 135.625 358.234375 L 135.417969 358.378906 L 135.21875 358.53125 L 135.023438 358.6875 L 134.832031 358.851562 L 134.648438 359.023438 L 134.46875 359.203125 L 134.292969 359.386719 L 134.125 359.578125 L 133.957031 359.777344 L 133.148438 358.992188 L 133.351562 358.773438 L 133.558594 358.558594 L 133.773438 358.351562 L 133.988281 358.152344 L 134.210938 357.964844 L 134.4375 357.777344 L 134.667969 357.601562 L 134.902344 357.433594 L 135.140625 357.269531 L 135.386719 357.117188 L 135.636719 356.972656 L 135.894531 356.84375 L 136.160156 356.730469 L 136.433594 356.632812 L 136.714844 356.550781 L 137.007812 356.480469 L 137.304688 356.429688 L 137.609375 356.390625 L 137.921875 356.367188 L 138.242188 356.359375 L 138.714844 356.375 L 139.160156 356.414062 L 139.589844 356.484375 L 139.996094 356.578125 L 140.378906 356.703125 L 140.738281 356.855469 L 141.078125 357.03125 L 141.398438 357.238281 L 141.691406 357.472656 L 141.964844 357.730469 L 142.214844 358.015625 L 142.441406 358.316406 L 142.636719 358.636719 L 142.808594 358.972656 L 142.953125 359.328125 L 143.070312 359.699219 L 143.164062 360.09375 L 143.230469 360.5 L 143.269531 360.925781 L 143.28125 361.371094 L 143.273438 361.726562 L 143.242188 362.078125 L 143.1875 362.433594 L 143.117188 362.792969 L 143.023438 363.148438 L 142.910156 363.507812 L 142.773438 363.867188 L 142.621094 364.230469 L 142.445312 364.59375 L 142.246094 364.957031 L 142.035156 365.324219 L 141.808594 365.695312 L 141.566406 366.074219 L 141.304688 366.457031 L 141.027344 366.847656 L 140.734375 367.242188 L 140.421875 367.640625 L 140.097656 368.046875 L 139.75 368.457031 L 139.390625 368.875 L 139.019531 369.300781 L 138.636719 369.738281 L 138.238281 370.183594 L 137.828125 370.640625 L 137.402344 371.109375 L 136.964844 371.585938 L 136.511719 372.078125 L 136.046875 372.578125 L 135.570312 373.085938 L 135.078125 373.609375 L 135.222656 373.597656 L 135.371094 373.585938 L 135.519531 373.578125 L 135.664062 373.566406 L 135.960938 373.550781 L 136.113281 373.542969 L 136.261719 373.535156 L 136.410156 373.53125 L 136.5625 373.523438 L 136.71875 373.511719 L 136.875 373.503906 L 137.332031 373.480469 L 137.484375 373.476562 L 137.78125 373.46875 L 144.179688 373.46875 L 144.179688 374.589844 Z M 133.203125 374.589844 "/>
<path fill-rule="nonzero" fill="rgb(10.196078%, 10.196078%, 10.196078%)" fill-opacity="1" d="M 255.75 374.925781 L 255.25 374.898438 L 254.777344 374.828125 L 254.324219 374.703125 L 253.894531 374.535156 L 253.488281 374.316406 L 253.105469 374.046875 L 252.746094 373.730469 L 252.40625 373.363281 L 252.09375 372.949219 L 251.800781 372.488281 L 251.535156 371.980469 L 251.296875 371.433594 L 251.085938 370.84375 L 250.90625 370.210938 L 250.75 369.542969 L 250.625 368.828125 L 250.527344 368.074219 L 250.457031 367.28125 L 250.414062 366.449219 L 250.402344 365.570312 L 250.414062 364.703125 L 250.457031 363.875 L 250.527344 363.085938 L 250.625 362.34375 L 250.75 361.636719 L 250.90625 360.976562 L 251.085938 360.355469 L 251.296875 359.773438 L 251.535156 359.238281 L 251.800781 358.738281 L 252.09375 358.289062 L 252.40625 357.882812 L 252.746094 357.527344 L 253.105469 357.21875 L 253.488281 356.953125 L 253.894531 356.742188 L 254.324219 356.574219 L 254.777344 356.457031 L 255.25 356.382812 L 255.75 356.359375 L 256.253906 356.382812 L 256.730469 356.457031 L 257.1875 356.574219 L 257.617188 356.742188 L 258.023438 356.953125 L 258.40625 357.21875 L 258.765625 357.527344 L 259.101562 357.882812 L 259.410156 358.289062 L 259.699219 358.738281 L 259.964844 359.238281 L 260.203125 359.773438 L 260.410156 360.355469 L 260.59375 360.976562 L 260.746094 361.636719 L 260.875 362.34375 L 260.972656 363.085938 L 261.042969 363.875 L 261.082031 364.703125 L 261.097656 365.570312 L 261.082031 366.449219 L 261.042969 367.28125 L 260.972656 368.074219 L 260.875 368.828125 L 260.746094 369.542969 L 260.59375 370.210938 L 260.410156 370.84375 L 260.203125 371.433594 L 259.964844 371.980469 L 259.699219 372.488281 L 259.410156 372.949219 L 259.101562 373.363281 L 258.765625 373.730469 L 258.40625 374.046875 L 258.023438 374.316406 L 257.617188 374.535156 L 257.1875 374.703125 L 256.730469 374.828125 L 256.253906 374.898438 Z M 255.75 373.859375 L 256.117188 373.839844 L 256.46875 373.777344 L 256.804688 373.671875 L 257.125 373.523438 L 257.429688 373.335938 L 257.71875 373.105469 L 257.992188 372.832031 L 258.25 372.515625 L 258.492188 372.160156 L 258.71875 371.761719 L 258.929688 371.320312 L 259.121094 370.839844 L 259.289062 370.320312 L 259.433594 369.761719 L 259.558594 369.164062 L 259.660156 368.523438 L 259.738281 367.847656 L 259.792969 367.128906 L 259.828125 366.371094 L 259.835938 365.570312 L 259.828125 364.773438 L 259.792969 364.019531 L 259.738281 363.304688 L 259.660156 362.632812 L 259.558594 362.003906 L 259.433594 361.414062 L 259.289062 360.863281 L 259.121094 360.355469 L 258.929688 359.890625 L 258.71875 359.46875 L 258.492188 359.078125 L 258.25 358.730469 L 257.992188 358.425781 L 257.71875 358.160156 L 257.429688 357.933594 L 257.125 357.75 L 256.804688 357.609375 L 256.46875 357.503906 L 256.117188 357.445312 L 255.75 357.425781 L 255.386719 357.445312 L 255.039062 357.503906 L 254.707031 357.609375 L 254.386719 357.75 L 254.082031 357.933594 L 253.792969 358.160156 L 253.519531 358.425781 L 253.257812 358.730469 L 253.011719 359.078125 L 252.78125 359.46875 L 252.570312 359.890625 L 252.378906 360.355469 L 252.210938 360.863281 L 252.066406 361.414062 L 251.941406 362.003906 L 251.839844 362.632812 L 251.761719 363.304688 L 251.707031 364.019531 L 251.671875 364.773438 L 251.660156 365.570312 L 251.671875 366.371094 L 251.707031 367.128906 L 251.761719 367.847656 L 251.839844 368.523438 L 251.941406 369.164062 L 252.066406 369.761719 L 252.210938 370.320312 L 252.378906 370.839844 L 252.570312 371.320312 L 252.78125 371.761719 L 253.011719 372.160156 L 253.257812 372.515625 L 253.519531 372.832031 L 253.792969 373.105469 L 254.082031 373.335938 L 254.386719 373.523438 L 254.707031 373.671875 L 255.039062 373.777344 L 255.386719 373.839844 Z M 255.75 373.859375 "/>
<path fill-rule="nonzero" fill="rgb(10.196078%, 10.196078%, 10.196078%)" fill-opacity="1" d="M 371.394531 374.589844 L 371.394531 373.804688 L 371.972656 373.214844 L 372.53125 372.636719 L 373.070312 372.078125 L 373.589844 371.539062 L 374.089844 371.011719 L 374.570312 370.5 L 375.03125 370.007812 L 375.472656 369.53125 L 375.894531 369.070312 L 376.296875 368.625 L 376.675781 368.1875 L 377.039062 367.757812 L 377.382812 367.339844 L 377.707031 366.929688 L 378.011719 366.53125 L 378.292969 366.140625 L 378.558594 365.761719 L 378.804688 365.390625 L 379.03125 365.027344 L 379.234375 364.675781 L 379.421875 364.332031 L 379.589844 363.988281 L 379.734375 363.652344 L 379.863281 363.320312 L 379.96875 362.988281 L 380.058594 362.664062 L 380.128906 362.339844 L 380.175781 362.023438 L 380.207031 361.710938 L 380.214844 361.398438 L 380.207031 361.070312 L 380.175781 360.75 L 380.128906 360.441406 L 380.0625 360.140625 L 379.976562 359.851562 L 379.871094 359.574219 L 379.75 359.308594 L 379.605469 359.050781 L 379.445312 358.808594 L 379.261719 358.570312 L 379.066406 358.355469 L 378.851562 358.160156 L 378.609375 357.988281 L 378.347656 357.835938 L 378.066406 357.710938 L 377.761719 357.609375 L 377.433594 357.527344 L 377.085938 357.46875 L 376.714844 357.433594 L 376.324219 357.425781 L 376.082031 357.429688 L 375.847656 357.449219 L 375.609375 357.484375 L 375.378906 357.53125 L 375.148438 357.59375 L 374.917969 357.664062 L 374.691406 357.753906 L 374.46875 357.855469 L 374.246094 357.96875 L 374.027344 358.097656 L 373.816406 358.234375 L 373.613281 358.378906 L 373.410156 358.53125 L 373.214844 358.6875 L 373.027344 358.851562 L 372.839844 359.023438 L 372.660156 359.203125 L 372.484375 359.386719 L 372.316406 359.578125 L 372.152344 359.777344 L 371.339844 358.992188 L 371.542969 358.773438 L 371.75 358.558594 L 371.964844 358.351562 L 372.179688 358.152344 L 372.402344 357.964844 L 372.628906 357.777344 L 372.859375 357.601562 L 373.09375 357.433594 L 373.335938 357.269531 L 373.578125 357.117188 L 373.828125 356.972656 L 374.085938 356.84375 L 374.355469 356.730469 L 374.628906 356.632812 L 374.910156 356.550781 L 375.199219 356.480469 L 375.496094 356.429688 L 375.800781 356.390625 L 376.113281 356.367188 L 376.433594 356.359375 L 376.90625 356.375 L 377.355469 356.414062 L 377.78125 356.484375 L 378.1875 356.578125 L 378.570312 356.703125 L 378.929688 356.855469 L 379.269531 357.03125 L 379.589844 357.238281 L 379.886719 357.472656 L 380.160156 357.730469 L 380.410156 358.015625 L 380.632812 358.316406 L 380.832031 358.636719 L 381 358.972656 L 381.144531 359.328125 L 381.265625 359.699219 L 381.355469 360.09375 L 381.421875 360.5 L 381.460938 360.925781 L 381.476562 361.371094 L 381.464844 361.726562 L 381.433594 362.078125 L 381.382812 362.433594 L 381.308594 362.792969 L 381.214844 363.148438 L 381.101562 363.507812 L 380.96875 363.867188 L 380.8125 364.230469 L 380.636719 364.59375 L 380.4375 364.957031 L 380.230469 365.324219 L 380.003906 365.695312 L 379.757812 366.074219 L 379.5 366.457031 L 379.222656 366.847656 L 378.925781 367.242188 L 378.617188 367.640625 L 378.289062 368.046875 L 377.945312 368.457031 L 377.582031 368.875 L 377.210938 369.300781 L 376.828125 369.738281 L 376.429688 370.183594 L 376.019531 370.640625 L 375.59375 371.109375 L 375.15625 371.585938 L 374.707031 372.078125 L 374.242188 372.578125 L 373.761719 373.085938 L 373.269531 373.609375 L 373.417969 373.597656 L 373.5625 373.585938 L 373.710938 373.578125 L 373.859375 373.566406 L 374.453125 373.535156 L 374.605469 373.53125 L 374.753906 373.523438 L 374.910156 373.511719 L 375.066406 373.503906 L 375.21875 373.496094 L 375.375 373.488281 L 375.523438 373.480469 L 375.675781 373.476562 L 375.972656 373.46875 L 382.371094 373.46875 L 382.371094 374.589844 Z M 371.394531 374.589844 "/>
</svg>
