<?xml version="1.0" encoding="UTF-8"?>
<svg xmlns="http://www.w3.org/2000/svg" xmlns:xlink="http://www.w3.org/1999/xlink" width="792" height="432" viewBox="0 0 792 432">
<defs>
<clipPath id="clip-0">
<path clip-rule="nonzero" d="M 23.910156 15.941406 L 776.058594 15.941406 L 776.058594 375.015625 L 23.910156 375.015625 Z M 23.910156 15.941406 "/>
</clipPath>
<clipPath id="clip-1">
<path clip-rule="nonzero" d="M 23.910156 352 L 776.058594 352 L 776.058594 356 L 23.910156 356 Z M 23.910156 352 "/>
</clipPath>
<clipPath id="clip-2">
<path clip-rule="nonzero" d="M 23.910156 317 L 776.058594 317 L 776.058594 321 L 23.910156 321 Z M 23.910156 317 "/>
</clipPath>
<clipPath id="clip-3">
<path clip-rule="nonzero" d="M 23.910156 281 L 776.058594 281 L 776.058594 286 L 23.910156 286 Z M 23.910156 281 "/>
</clipPath>
<clipPath id="clip-4">
<path clip-rule="nonzero" d="M 23.910156 246 L 776.058594 246 L 776.058594 250 L 23.910156 250 Z M 23.910156 246 "/>
</clipPath>
<clipPath id="clip-5">
<path clip-rule="nonzero" d="M 23.910156 211 L 776.058594 211 L 776.058594 215 L 23.910156 215 Z M 23.910156 211 "/>
</clipPath>
<clipPath id="clip-6">
<path clip-rule="nonzero" d="M 23.910156 176 L 776.058594 176 L 776.058594 180 L 23.910156 180 Z M 23.910156 176 "/>
</clipPath>
<clipPath id="clip-7">
<path clip-rule="nonzero" d="M 23.910156 141 L 776.058594 141 L 776.058594 145 L 23.910156 145 Z M 23.910156 141 "/>
</clipPath>
<clipPath id="clip-8">
<path clip-rule="nonzero" d="M 23.910156 105 L 776.058594 105 L 776.058594 110 L 23.910156 110 Z M 23.910156 105 "/>
</clipPath>
<clipPath id="clip-9">
<path clip-rule="nonzero" d="M 23.910156 70 L 776.058594 70 L 776.058594 74 L 23.910156 74 Z M 23.910156 70 "/>
</clipPath>
<clipPath id="clip-10">
<path clip-rule="nonzero" d="M 23.910156 35 L 776.058594 35 L 776.058594 39 L 23.910156 39 Z M 23.910156 35 "/>
</clipPath>
<clipPath id="clip-11">
<path clip-rule="nonzero" d="M 117 15.941406 L 121 15.941406 L 121 375.015625 L 117 375.015625 Z M 117 15.941406 "/>
</clipPath>
<clipPath id="clip-12">
<path clip-rule="nonzero" d="M 346 15.941406 L 350 15.941406 L 350 375.015625 L 346 375.015625 Z M 346 15.941406 "/>
</clipPath>
<clipPath id="clip-13">
<path clip-rule="nonzero" d="M 576 15.941406 L 580 15.941406 L 580 375.015625 L 576 375.015625 Z M 576 15.941406 "/>
</clipPath>
<clipPath id="clip-14">
<path clip-rule="nonzero" d="M 364 15.941406 L 367 15.941406 L 367 375.015625 L 364 375.015625 Z M 364 15.941406 "/>
</clipPath>
</defs>
<rect x="-79.2" y="-43.2" width="950.4" height="518.4" fill="rgb(100%, 100%, 100%)" fill-opacity="1"/>
<rect x="-79.2" y="-43.2" width="950.4" height="518.4" fill="rgb(95.294118%, 95.294118%, 95.294118%)" fill-opacity="1"/>
<path fill="none" stroke-width="3.103937" stroke-linecap="round" stroke-linejoin="round" stroke="rgb(95.294118%, 95.294118%, 95.294118%)" stroke-opacity="1" stroke-miterlimit="10" d="M 0 432 L 792 432 L 792 0 L 0 0 Z M 0 432 "/>
<g clip-path="url(#clip-0)">
<path fill-rule="nonzero" fill="rgb(95.294118%, 95.294118%, 95.294118%)" fill-opacity="1" stroke-width="3.103937" stroke-linecap="round" stroke-linejoin="round" stroke="rgb(95.294118%, 95.294118%, 95.294118%)" stroke-opacity="1" stroke-miterlimit="10" d="M 23.910156 375.011719 L 776.058594 375.011719 L 776.058594 15.9375 L 23.910156 15.9375 Z M 23.910156 375.011719 "/>
</g>
<g clip-path="url(#clip-1)">
<path fill="none" stroke-width="3.103937" stroke-linecap="butt" stroke-linejoin="round" stroke="rgb(92.156863%, 92.156863%, 92.156863%)" stroke-opacity="1" stroke-miterlimit="10" d="M 23.910156 353.890625 L 776.058594 353.890625 "/>
</g>
<g clip-path="url(#clip-2)">
<path fill="none" stroke-width="3.103937" stroke-linecap="butt" stroke-linejoin="round" stroke="rgb(92.156863%, 92.156863%, 92.156863%)" stroke-opacity="1" stroke-miterlimit="10" d="M 23.910156 318.6875 L 776.058594 318.6875 "/>
</g>
<g clip-path="url(#clip-3)">
<path fill="none" stroke-width="3.103937" stroke-linecap="butt" stroke-linejoin="round" stroke="rgb(92.156863%, 92.156863%, 92.156863%)" stroke-opacity="1" stroke-miterlimit="10" d="M 23.910156 283.484375 L 776.058594 283.484375 "/>
</g>
<g clip-path="url(#clip-4)">
<path fill="none" stroke-width="3.103937" stroke-linecap="butt" stroke-linejoin="round" stroke="rgb(92.156863%, 92.156863%, 92.156863%)" stroke-opacity="1" stroke-miterlimit="10" d="M 23.910156 248.28125 L 776.058594 248.28125 "/>
</g>
<g clip-path="url(#clip-5)">
<path fill="none" stroke-width="3.103937" stroke-linecap="butt" stroke-linejoin="round" stroke="rgb(92.156863%, 92.156863%, 92.156863%)" stroke-opacity="1" stroke-miterlimit="10" d="M 23.910156 213.078125 L 776.058594 213.078125 "/>
</g>
<g clip-path="url(#clip-6)">
<path fill="none" stroke-width="3.103937" stroke-linecap="butt" stroke-linejoin="round" stroke="rgb(92.156863%, 92.156863%, 92.156863%)" stroke-opacity="1" stroke-miterlimit="10" d="M 23.910156 177.875 L 776.058594 177.875 "/>
</g>
<g clip-path="url(#clip-7)">
<path fill="none" stroke-width="3.103937" stroke-linecap="butt" stroke-linejoin="round" stroke="rgb(92.156863%, 92.156863%, 92.156863%)" stroke-opacity="1" stroke-miterlimit="10" d="M 23.910156 142.671875 L 776.058594 142.671875 "/>
</g>
<g clip-path="url(#clip-8)">
<path fill="none" stroke-width="3.103937" stroke-linecap="butt" stroke-linejoin="round" stroke="rgb(92.156863%, 92.156863%, 92.156863%)" stroke-opacity="1" stroke-miterlimit="10" d="M 23.910156 107.46875 L 776.058594 107.46875 "/>
</g>
<g clip-path="url(#clip-9)">
<path fill="none" stroke-width="3.103937" stroke-linecap="butt" stroke-linejoin="round" stroke="rgb(92.156863%, 92.156863%, 92.156863%)" stroke-opacity="1" stroke-miterlimit="10" d="M 23.910156 72.265625 L 776.058594 72.265625 "/>
</g>
<g clip-path="url(#clip-10)">
<path fill="none" stroke-width="3.103937" stroke-linecap="butt" stroke-linejoin="round" stroke="rgb(92.156863%, 92.156863%, 92.156863%)" stroke-opacity="1" stroke-miterlimit="10" d="M 23.910156 37.0625 L 776.058594 37.0625 "/>
</g>
<g clip-path="url(#clip-11)">
<path fill="none" stroke-width="3.103937" stroke-linecap="butt" stroke-linejoin="round" stroke="rgb(92.156863%, 92.156863%, 92.156863%)" stroke-opacity="1" stroke-miterlimit="10" d="M 118.914062 375.011719 L 118.914062 15.941406 "/>
</g>
<g clip-path="url(#clip-12)">
<path fill="none" stroke-width="3.103937" stroke-linecap="butt" stroke-linejoin="round" stroke="rgb(92.156863%, 92.156863%, 92.156863%)" stroke-opacity="1" stroke-miterlimit="10" d="M 348.359375 375.011719 L 348.359375 15.941406 "/>
</g>
<g clip-path="url(#clip-13)">
<path fill="none" stroke-width="3.103937" stroke-linecap="butt" stroke-linejoin="round" stroke="rgb(92.156863%, 92.156863%, 92.156863%)" stroke-opacity="1" stroke-miterlimit="10" d="M 577.804688 375.011719 L 577.804688 15.941406 "/>
</g>
<path fill-rule="nonzero" fill="rgb(56.078431%, 16.470588%, 26.27451%)" fill-opacity="1" stroke-width="0.708661" stroke-linecap="round" stroke-linejoin="round" stroke="rgb(56.078431%, 16.470588%, 26.27451%)" stroke-opacity="1" stroke-miterlimit="10" d="M 225.984375 283.484375 C 225.984375 286.921875 223.199219 289.707031 219.761719 289.707031 C 216.324219 289.707031 213.539062 286.921875 213.539062 283.484375 C 213.539062 280.046875 216.324219 277.261719 219.761719 277.261719 C 223.199219 277.261719 225.984375 280.046875 225.984375 283.484375 "/>
<path fill-rule="nonzero" fill="rgb(56.078431%, 16.470588%, 26.27451%)" fill-opacity="1" stroke-width="0.708661" stroke-linecap="round" stroke-linejoin="round" stroke="rgb(56.078431%, 16.470588%, 26.27451%)" stroke-opacity="1" stroke-miterlimit="10" d="M 301.769531 213.078125 C 301.769531 216.515625 298.984375 219.300781 295.546875 219.300781 C 292.109375 219.300781 289.324219 216.515625 289.324219 213.078125 C 289.324219 209.640625 292.109375 206.855469 295.546875 206.855469 C 298.984375 206.855469 301.769531 209.640625 301.769531 213.078125 "/>
<path fill-rule="nonzero" fill="rgb(56.078431%, 16.470588%, 26.27451%)" fill-opacity="1" stroke-width="0.708661" stroke-linecap="round" stroke-linejoin="round" stroke="rgb(56.078431%, 16.470588%, 26.27451%)" stroke-opacity="1" stroke-miterlimit="10" d="M 712.21875 72.265625 C 712.21875 75.703125 709.433594 78.488281 705.996094 78.488281 C 702.558594 78.488281 699.773438 75.703125 699.773438 72.265625 C 699.773438 68.828125 702.558594 66.042969 705.996094 66.042969 C 709.433594 66.042969 712.21875 68.828125 712.21875 72.265625 "/>
<path fill-rule="nonzero" fill="rgb(56.078431%, 16.470588%, 26.27451%)" fill-opacity="1" stroke-width="0.708661" stroke-linecap="round" stroke-linejoin="round" stroke="rgb(56.078431%, 16.470588%, 26.27451%)" stroke-opacity="1" stroke-miterlimit="10" d="M 370.761719 177.875 C 370.761719 181.3125 367.972656 184.097656 364.539062 184.097656 C 361.101562 184.097656 358.316406 181.3125 358.316406 177.875 C 358.316406 174.4375 361.101562 171.652344 364.539062 171.652344 C 367.972656 171.652344 370.761719 174.4375 370.761719 177.875 "/>
<path fill-rule="nonzero" fill="rgb(56.078431%, 16.470588%, 26.27451%)" fill-opacity="1" stroke-width="0.708661" stroke-linecap="round" stroke-linejoin="round" stroke="rgb(56.078431%, 16.470588%, 26.27451%)" stroke-opacity="1" stroke-miterlimit="10" d="M 384.246094 142.671875 C 384.246094 146.109375 381.460938 148.894531 378.023438 148.894531 C 374.585938 148.894531 371.800781 146.109375 371.800781 142.671875 C 371.800781 139.234375 374.585938 136.449219 378.023438 136.449219 C 381.460938 136.449219 384.246094 139.234375 384.246094 142.671875 "/>
<path fill-rule="nonzero" fill="rgb(56.078431%, 16.470588%, 26.27451%)" fill-opacity="1" stroke-width="0.708661" stroke-linecap="round" stroke-linejoin="round" stroke="rgb(56.078431%, 16.470588%, 26.27451%)" stroke-opacity="1" stroke-miterlimit="10" d="M 748.09375 37.0625 C 748.09375 40.5 745.308594 43.285156 741.871094 43.285156 C 738.433594 43.285156 735.648438 40.5 735.648438 37.0625 C 735.648438 33.625 738.433594 30.839844 741.871094 30.839844 C 745.308594 30.839844 748.09375 33.625 748.09375 37.0625 "/>
<path fill-rule="nonzero" fill="rgb(56.078431%, 16.470588%, 26.27451%)" fill-opacity="1" stroke-width="0.708661" stroke-linecap="round" stroke-linejoin="round" stroke="rgb(56.078431%, 16.470588%, 26.27451%)" stroke-opacity="1" stroke-miterlimit="10" d="M 460.335938 107.46875 C 460.335938 110.90625 457.550781 113.691406 454.113281 113.691406 C 450.675781 113.691406 447.890625 110.90625 447.890625 107.46875 C 447.890625 104.03125 450.675781 101.246094 454.113281 101.246094 C 457.550781 101.246094 460.335938 104.03125 460.335938 107.46875 "/>
<path fill-rule="nonzero" fill="rgb(56.078431%, 16.470588%, 26.27451%)" fill-opacity="1" stroke-width="0.708661" stroke-linecap="round" stroke-linejoin="round" stroke="rgb(56.078431%, 16.470588%, 26.27451%)" stroke-opacity="1" stroke-miterlimit="10" d="M 64.320312 353.890625 C 64.320312 357.328125 61.535156 360.113281 58.097656 360.113281 C 54.664062 360.113281 51.875 357.328125 51.875 353.890625 C 51.875 350.453125 54.664062 347.667969 58.097656 347.667969 C 61.535156 347.667969 64.320312 350.453125 64.320312 353.890625 "/>
<path fill-rule="nonzero" fill="rgb(56.078431%, 16.470588%, 26.27451%)" fill-opacity="1" stroke-width="0.708661" stroke-linecap="round" stroke-linejoin="round" stroke="rgb(56.078431%, 16.470588%, 26.27451%)" stroke-opacity="1" stroke-miterlimit="10" d="M 196.988281 318.6875 C 196.988281 322.125 194.203125 324.910156 190.765625 324.910156 C 187.328125 324.910156 184.542969 322.125 184.542969 318.6875 C 184.542969 315.25 187.328125 312.464844 190.765625 312.464844 C 194.203125 312.464844 196.988281 315.25 196.988281 318.6875 "/>
<path fill-rule="nonzero" fill="rgb(56.078431%, 16.470588%, 26.27451%)" fill-opacity="1" stroke-width="0.708661" stroke-linecap="round" stroke-linejoin="round" stroke="rgb(56.078431%, 16.470588%, 26.27451%)" stroke-opacity="1" stroke-miterlimit="10" d="M 252.328125 248.28125 C 252.328125 251.71875 249.542969 254.503906 246.105469 254.503906 C 242.667969 254.503906 239.882812 251.71875 239.882812 248.28125 C 239.882812 244.84375 242.667969 242.058594 246.105469 242.058594 C 249.542969 242.058594 252.328125 244.84375 252.328125 248.28125 "/>
<path fill="none" stroke-width="2.133957" stroke-linecap="butt" stroke-linejoin="round" stroke="rgb(56.078431%, 16.470588%, 26.27451%)" stroke-opacity="1" stroke-miterlimit="10" d="M 219.761719 283.484375 L 365.480469 283.484375 "/>
<path fill="none" stroke-width="2.133957" stroke-linecap="butt" stroke-linejoin="round" stroke="rgb(56.078431%, 16.470588%, 26.27451%)" stroke-opacity="1" stroke-miterlimit="10" d="M 295.546875 213.078125 L 365.480469 213.078125 "/>
<path fill="none" stroke-width="2.133957" stroke-linecap="butt" stroke-linejoin="round" stroke="rgb(56.078431%, 16.470588%, 26.27451%)" stroke-opacity="1" stroke-miterlimit="10" d="M 705.996094 72.265625 L 365.480469 72.265625 "/>
<path fill="none" stroke-width="2.133957" stroke-linecap="butt" stroke-linejoin="round" stroke="rgb(56.078431%, 16.470588%, 26.27451%)" stroke-opacity="1" stroke-miterlimit="10" d="M 364.539062 177.875 L 365.480469 177.875 "/>
<path fill="none" stroke-width="2.133957" stroke-linecap="butt" stroke-linejoin="round" stroke="rgb(56.078431%, 16.470588%, 26.27451%)" stroke-opacity="1" stroke-miterlimit="10" d="M 378.023438 142.671875 L 365.480469 142.671875 "/>
<path fill="none" stroke-width="2.133957" stroke-linecap="butt" stroke-linejoin="round" stroke="rgb(56.078431%, 16.470588%, 26.27451%)" stroke-opacity="1" stroke-miterlimit="10" d="M 741.871094 37.0625 L 365.480469 37.0625 "/>
<path fill="none" stroke-width="2.133957" stroke-linecap="butt" stroke-linejoin="round" stroke="rgb(56.078431%, 16.470588%, 26.27451%)" stroke-opacity="1" stroke-miterlimit="10" d="M 454.113281 107.46875 L 365.480469 107.46875 "/>
<path fill="none" stroke-width="2.133957" stroke-linecap="butt" stroke-linejoin="round" stroke="rgb(56.078431%, 16.470588%, 26.27451%)" stroke-opacity="1" stroke-miterlimit="10" d="M 58.097656 353.890625 L 365.480469 353.890625 "/>
<path fill="none" stroke-width="2.133957" stroke-linecap="butt" stroke-linejoin="round" stroke="rgb(56.078431%, 16.470588%, 26.27451%)" stroke-opacity="1" stroke-miterlimit="10" d="M 190.765625 318.6875 L 365.480469 318.6875 "/>
<path fill="none" stroke-width="2.133957" stroke-linecap="butt" stroke-linejoin="round" stroke="rgb(56.078431%, 16.470588%, 26.27451%)" stroke-opacity="1" stroke-miterlimit="10" d="M 246.105469 248.28125 L 365.480469 248.28125 "/>
<g clip-path="url(#clip-14)">
<path fill="none" stroke-width="2.560748" stroke-linecap="butt" stroke-linejoin="round" stroke="rgb(0%, 0%, 0%)" stroke-opacity="1" stroke-miterlimit="10" d="M 365.480469 375.011719 L 365.480469 15.941406 "/>
</g>
<path fill-rule="nonzero" fill="rgb(10.196078%, 10.196078%, 10.196078%)" fill-opacity="1" d="M 108.445312 402.230469 L 108.445312 401.058594 L 115.046875 401.058594 L 115.046875 402.230469 Z M 108.445312 402.230469 "/>
<path fill-rule="nonzero" fill="rgb(10.196078%, 10.196078%, 10.196078%)" fill-opacity="1" d="M 118.734375 409.128906 L 118.734375 407.960938 L 123.234375 407.960938 L 123.234375 392.058594 L 119.816406 392.058594 L 119.816406 391.160156 L 120.046875 391.117188 L 120.273438 391.070312 L 120.496094 391.027344 L 120.714844 390.976562 L 120.925781 390.925781 L 121.132812 390.875 L 121.335938 390.820312 L 121.535156 390.765625 L 121.726562 390.707031 L 121.914062 390.648438 L 122.097656 390.589844 L 122.277344 390.527344 L 122.449219 390.460938 L 122.617188 390.394531 L 122.777344 390.328125 L 122.933594 390.257812 L 123.085938 390.1875 L 123.230469 390.113281 L 123.371094 390.035156 L 123.503906 389.960938 L 124.585938 389.960938 L 124.585938 407.960938 L 128.753906 407.960938 L 128.753906 409.128906 Z M 118.734375 409.128906 "/>
<path fill-rule="nonzero" fill="rgb(10.196078%, 10.196078%, 10.196078%)" fill-opacity="1" d="M 348.34375 409.488281 L 347.8125 409.464844 L 347.300781 409.386719 L 346.816406 409.253906 L 346.359375 409.070312 L 345.921875 408.835938 L 345.511719 408.550781 L 345.125 408.210938 L 344.765625 407.820312 L 344.425781 407.375 L 344.113281 406.878906 L 343.828125 406.335938 L 343.574219 405.75 L 343.351562 405.117188 L 343.15625 404.441406 L 342.988281 403.722656 L 342.855469 402.960938 L 342.75 402.152344 L 342.675781 401.300781 L 342.628906 400.40625 L 342.613281 399.46875 L 342.628906 398.539062 L 342.675781 397.652344 L 342.75 396.808594 L 342.855469 396.007812 L 342.988281 395.253906 L 343.15625 394.546875 L 343.351562 393.878906 L 343.574219 393.257812 L 343.828125 392.683594 L 344.113281 392.148438 L 344.425781 391.664062 L 344.765625 391.230469 L 345.125 390.847656 L 345.511719 390.519531 L 345.921875 390.238281 L 346.359375 390.007812 L 346.816406 389.828125 L 347.300781 389.703125 L 347.8125 389.625 L 348.34375 389.601562 L 348.882812 389.625 L 349.398438 389.703125 L 349.882812 389.828125 L 350.347656 390.007812 L 350.78125 390.238281 L 351.191406 390.519531 L 351.578125 390.847656 L 351.933594 391.230469 L 352.269531 391.664062 L 352.574219 392.148438 L 352.859375 392.683594 L 353.113281 393.257812 L 353.339844 393.878906 L 353.535156 394.546875 L 353.699219 395.253906 L 353.835938 396.007812 L 353.941406 396.808594 L 354.015625 397.652344 L 354.058594 398.539062 L 354.074219 399.46875 L 354.058594 400.40625 L 354.015625 401.300781 L 353.941406 402.152344 L 353.835938 402.960938 L 353.699219 403.722656 L 353.535156 404.441406 L 353.339844 405.117188 L 353.113281 405.75 L 352.859375 406.335938 L 352.574219 406.878906 L 352.269531 407.375 L 351.933594 407.820312 L 351.578125 408.210938 L 351.191406 408.550781 L 350.78125 408.835938 L 350.347656 409.070312 L 349.882812 409.253906 L 349.398438 409.386719 L 348.882812 409.464844 Z M 348.34375 408.351562 L 348.738281 408.328125 L 349.113281 408.261719 L 349.476562 408.148438 L 349.816406 407.988281 L 350.144531 407.789062 L 350.453125 407.539062 L 350.746094 407.246094 L 351.023438 406.910156 L 351.28125 406.527344 L 351.523438 406.101562 L 351.753906 405.628906 L 351.957031 405.113281 L 352.136719 404.558594 L 352.292969 403.957031 L 352.425781 403.316406 L 352.53125 402.632812 L 352.617188 401.90625 L 352.675781 401.136719 L 352.710938 400.324219 L 352.726562 399.46875 L 352.710938 398.617188 L 352.675781 397.804688 L 352.617188 397.042969 L 352.53125 396.320312 L 352.425781 395.644531 L 352.292969 395.011719 L 352.136719 394.425781 L 351.957031 393.882812 L 351.753906 393.382812 L 351.523438 392.929688 L 351.28125 392.515625 L 351.023438 392.140625 L 350.746094 391.8125 L 350.453125 391.527344 L 350.144531 391.289062 L 349.816406 391.089844 L 349.476562 390.9375 L 349.113281 390.828125 L 348.738281 390.761719 L 348.34375 390.738281 L 347.957031 390.761719 L 347.582031 390.828125 L 347.226562 390.9375 L 346.886719 391.089844 L 346.558594 391.289062 L 346.25 391.527344 L 345.953125 391.8125 L 345.675781 392.140625 L 345.414062 392.515625 L 345.164062 392.929688 L 344.9375 393.382812 L 344.734375 393.882812 L 344.550781 394.425781 L 344.398438 395.011719 L 344.265625 395.644531 L 344.15625 396.320312 L 344.074219 397.042969 L 344.011719 397.804688 L 343.976562 398.617188 L 343.964844 399.46875 L 343.976562 400.324219 L 344.011719 401.136719 L 344.074219 401.90625 L 344.15625 402.632812 L 344.265625 403.316406 L 344.398438 403.957031 L 344.550781 404.558594 L 344.734375 405.113281 L 344.9375 405.628906 L 345.164062 406.101562 L 345.414062 406.527344 L 345.675781 406.910156 L 345.953125 407.246094 L 346.25 407.539062 L 346.558594 407.789062 L 346.886719 407.988281 L 347.226562 408.148438 L 347.582031 408.261719 L 347.957031 408.328125 Z M 348.34375 408.351562 "/>
<path fill-rule="nonzero" fill="rgb(10.196078%, 10.196078%, 10.196078%)" fill-opacity="1" d="M 573.140625 409.128906 L 573.140625 407.960938 L 577.640625 407.960938 L 577.640625 392.058594 L 574.21875 392.058594 L 574.21875 391.160156 L 574.449219 391.117188 L 574.675781 391.070312 L 574.898438 391.027344 L 575.117188 390.976562 L 575.328125 390.925781 L 575.535156 390.875 L 575.738281 390.820312 L 575.9375 390.765625 L 576.320312 390.648438 L 576.503906 390.589844 L 576.679688 390.527344 L 576.851562 390.460938 L 577.019531 390.394531 L 577.179688 390.328125 L 577.335938 390.257812 L 577.488281 390.1875 L 577.632812 390.113281 L 577.773438 390.035156 L 577.910156 389.960938 L 578.988281 389.960938 L 578.988281 407.960938 L 583.160156 407.960938 L 583.160156 409.128906 Z M 573.140625 409.128906 "/>
</svg>
