<?xml version="1.0" encoding="UTF-8"?>
<svg xmlns="http://www.w3.org/2000/svg" xmlns:xlink="http://www.w3.org/1999/xlink" width="504" height="396" viewBox="0 0 504 396">
<defs>
<clipPath id="clip-0">
<path clip-rule="nonzero" d="M 22.414062 14.945312 L 489.054688 14.945312 L 489.054688 342.6875 L 22.414062 342.6875 Z M 22.414062 14.945312 "/>
</clipPath>
<clipPath id="clip-1">
<path clip-rule="nonzero" d="M 155 14.945312 L 158 14.945312 L 158 342.6875 L 155 342.6875 Z M 155 14.945312 "/>
</clipPath>
</defs>
<rect x="-50.4" y="-39.6" width="604.8" height="475.2" fill="rgb(100%, 100%, 100%)" fill-opacity="1"/>
<rect x="-50.4" y="-39.6" width="604.8" height="475.2" fill="rgb(95.294118%, 95.294118%, 95.294118%)" fill-opacity="1"/>
<path fill="none" stroke-width="2.909941" stroke-linecap="round" stroke-linejoin="round" stroke="rgb(95.294118%, 95.294118%, 95.294118%)" stroke-opacity="1" stroke-miterlimit="10" d="M 0 396 L 504 396 L 504 0 L 0 0 Z M 0 396 "/>
<g clip-path="url(#clip-0)">
<path fill-rule="nonzero" fill="rgb(95.294118%, 95.294118%, 95.294118%)" fill-opacity="1" stroke-width="2.909941" stroke-linecap="round" stroke-linejoin="round" stroke="rgb(95.294118%, 95.294118%, 95.294118%)" stroke-opacity="1" stroke-miterlimit="10" d="M 22.414062 342.6875 L 489.054688 342.6875 L 489.054688 14.945312 L 22.414062 14.945312 Z M 22.414062 342.6875 "/>
</g>
<path fill="none" stroke-width="2.560748" stroke-linecap="butt" stroke-linejoin="round" stroke="rgb(56.078431%, 16.470588%, 26.27451%)" stroke-opacity="1" stroke-miterlimit="10" d="M 43.738281 327.136719 L 45.554688 327.066406 L 46.164062 327.039062 L 46.769531 327.011719 L 47.375 326.988281 L 47.980469 326.957031 L 48.585938 326.929688 L 51.007812 326.804688 L 51.613281 326.769531 L 52.222656 326.734375 L 53.433594 326.664062 L 54.644531 326.585938 L 55.25 326.542969 L 55.855469 326.503906 L 56.460938 326.460938 L 57.066406 326.414062 L 57.675781 326.371094 L 58.28125 326.320312 L 58.886719 326.273438 L 60.703125 326.121094 L 61.308594 326.066406 L 63.125 325.890625 L 63.734375 325.828125 L 64.945312 325.703125 L 65.550781 325.636719 L 67.367188 325.425781 L 67.972656 325.347656 L 68.578125 325.273438 L 69.183594 325.195312 L 69.792969 325.113281 L 70.398438 325.03125 L 71.003906 324.945312 L 72.214844 324.765625 L 73.425781 324.578125 L 74.03125 324.480469 L 74.636719 324.378906 L 75.242188 324.273438 L 75.851562 324.167969 L 77.0625 323.949219 L 78.273438 323.714844 L 79.484375 323.472656 L 80.695312 323.214844 L 81.300781 323.078125 L 81.910156 322.941406 L 82.515625 322.800781 L 83.121094 322.65625 L 83.726562 322.507812 L 84.332031 322.355469 L 84.9375 322.199219 L 86.148438 321.878906 L 86.753906 321.710938 L 87.359375 321.539062 L 87.96875 321.363281 L 88.574219 321.183594 L 89.785156 320.808594 L 90.996094 320.417969 L 91.601562 320.214844 L 92.207031 320.007812 L 92.8125 319.792969 L 93.421875 319.574219 L 94.027344 319.351562 L 94.632812 319.125 L 95.238281 318.890625 L 95.84375 318.652344 L 96.449219 318.410156 L 97.054688 318.160156 L 97.660156 317.90625 L 98.265625 317.644531 L 98.871094 317.378906 L 99.480469 317.105469 L 100.085938 316.828125 L 100.691406 316.542969 L 101.296875 316.25 L 101.902344 315.953125 L 102.507812 315.648438 L 103.113281 315.339844 L 103.71875 315.023438 L 104.324219 314.699219 L 104.929688 314.367188 L 105.539062 314.03125 L 106.144531 313.683594 L 106.75 313.332031 L 107.355469 312.972656 L 107.960938 312.605469 L 108.566406 312.234375 L 109.171875 311.851562 L 109.777344 311.460938 L 110.382812 311.0625 L 110.988281 310.660156 L 111.597656 310.246094 L 112.203125 309.824219 L 112.808594 309.394531 L 113.414062 308.953125 L 114.019531 308.507812 L 114.625 308.050781 L 115.230469 307.589844 L 115.835938 307.117188 L 116.441406 306.632812 L 117.046875 306.140625 L 117.65625 305.640625 L 118.261719 305.132812 L 118.867188 304.613281 L 119.472656 304.085938 L 120.078125 303.546875 L 120.683594 303 L 121.289062 302.441406 L 121.894531 301.871094 L 122.5 301.296875 L 123.105469 300.707031 L 123.714844 300.109375 L 124.320312 299.5 L 124.925781 298.882812 L 125.53125 298.25 L 126.136719 297.609375 L 126.742188 296.960938 L 127.347656 296.296875 L 127.953125 295.625 L 128.558594 294.941406 L 129.167969 294.246094 L 129.773438 293.539062 L 130.378906 292.820312 L 130.984375 292.089844 L 131.589844 291.347656 L 132.195312 290.597656 L 132.800781 289.832031 L 133.40625 289.054688 L 134.011719 288.265625 L 134.617188 287.464844 L 135.226562 286.652344 L 135.832031 285.828125 L 136.4375 284.992188 L 137.042969 284.144531 L 137.648438 283.28125 L 138.253906 282.40625 L 138.859375 281.519531 L 139.464844 280.621094 L 140.070312 279.710938 L 140.675781 278.785156 L 141.285156 277.847656 L 141.890625 276.894531 L 142.496094 275.933594 L 143.101562 274.957031 L 143.707031 273.96875 L 144.3125 272.964844 L 144.917969 271.949219 L 145.523438 270.921875 L 146.128906 269.878906 L 146.734375 268.824219 L 147.34375 267.757812 L 147.949219 266.675781 L 148.554688 265.582031 L 149.160156 264.472656 L 149.765625 263.351562 L 150.371094 262.21875 L 150.976562 261.070312 L 151.582031 259.910156 L 152.1875 258.738281 L 152.792969 257.550781 L 153.402344 256.347656 L 154.007812 255.132812 L 154.613281 253.90625 L 155.21875 252.667969 L 155.824219 251.414062 L 156.429688 250.144531 L 157.035156 248.867188 L 157.640625 247.574219 L 158.246094 246.265625 L 158.851562 244.949219 L 159.460938 243.617188 L 160.066406 242.273438 L 160.671875 240.914062 L 161.277344 239.542969 L 161.882812 238.160156 L 162.488281 236.765625 L 163.09375 235.359375 L 163.699219 233.9375 L 164.304688 232.503906 L 164.914062 231.058594 L 165.519531 229.601562 L 166.125 228.132812 L 166.730469 226.652344 L 167.335938 225.160156 L 167.941406 223.65625 L 168.546875 222.140625 L 169.152344 220.613281 L 169.757812 219.074219 L 170.363281 217.527344 L 170.972656 215.964844 L 171.578125 214.394531 L 172.183594 212.8125 L 172.789062 211.222656 L 173.394531 209.621094 L 174 208.007812 L 174.605469 206.386719 L 175.210938 204.753906 L 175.816406 203.113281 L 176.421875 201.460938 L 177.03125 199.804688 L 177.636719 198.136719 L 178.242188 196.457031 L 178.847656 194.773438 L 179.453125 193.078125 L 180.058594 191.378906 L 180.664062 189.667969 L 181.269531 187.953125 L 181.875 186.230469 L 182.480469 184.5 L 183.089844 182.761719 L 183.695312 181.019531 L 184.300781 179.269531 L 184.90625 177.515625 L 185.511719 175.753906 L 186.117188 173.988281 L 187.328125 170.441406 L 187.933594 168.660156 L 188.539062 166.875 L 189.148438 165.085938 L 189.753906 163.296875 L 191.570312 157.90625 L 192.175781 156.101562 L 192.78125 154.300781 L 193.386719 152.496094 L 193.992188 150.6875 L 194.597656 148.882812 L 195.207031 147.074219 L 195.8125 145.265625 L 198.234375 138.046875 L 199.445312 134.445312 L 200.050781 132.648438 L 200.660156 130.855469 L 201.871094 127.277344 L 202.476562 125.496094 L 203.082031 123.71875 L 203.6875 121.945312 L 204.292969 120.175781 L 204.898438 118.414062 L 205.503906 116.660156 L 206.109375 114.910156 L 206.71875 113.167969 L 207.324219 111.433594 L 207.929688 109.707031 L 208.535156 107.988281 L 209.140625 106.277344 L 209.746094 104.578125 L 210.351562 102.886719 L 210.957031 101.203125 L 211.5625 99.53125 L 212.167969 97.871094 L 212.777344 96.222656 L 213.382812 94.585938 L 213.988281 92.957031 L 214.59375 91.34375 L 215.199219 89.742188 L 215.804688 88.152344 L 216.410156 86.578125 L 217.015625 85.019531 L 217.621094 83.472656 L 218.226562 81.941406 L 218.835938 80.421875 L 219.441406 78.921875 L 220.046875 77.4375 L 220.652344 75.96875 L 221.257812 74.515625 L 221.863281 73.082031 L 222.46875 71.664062 L 223.074219 70.265625 L 223.679688 68.882812 L 224.285156 67.519531 L 224.894531 66.175781 L 225.5 64.851562 L 226.105469 63.546875 L 226.710938 62.261719 L 227.316406 60.996094 L 227.921875 59.753906 L 228.527344 58.53125 L 229.132812 57.332031 L 229.738281 56.152344 L 230.34375 54.996094 L 230.953125 53.859375 L 231.558594 52.75 L 232.164062 51.660156 L 232.769531 50.59375 L 233.375 49.554688 L 233.980469 48.535156 L 234.585938 47.542969 L 235.191406 46.574219 L 235.796875 45.628906 L 236.40625 44.710938 L 237.011719 43.820312 L 237.617188 42.953125 L 238.222656 42.109375 L 238.828125 41.296875 L 239.433594 40.507812 L 240.039062 39.742188 L 240.644531 39.007812 L 241.25 38.300781 L 241.855469 37.617188 L 242.464844 36.964844 L 243.070312 36.339844 L 243.675781 35.742188 L 244.28125 35.171875 L 244.886719 34.628906 L 245.492188 34.117188 L 246.097656 33.628906 L 246.703125 33.175781 L 247.308594 32.746094 L 247.914062 32.347656 L 248.523438 31.980469 L 249.128906 31.636719 L 249.734375 31.328125 L 250.339844 31.046875 L 250.945312 30.792969 L 251.550781 30.570312 L 252.15625 30.378906 L 252.761719 30.214844 L 253.367188 30.078125 L 253.972656 29.976562 L 254.582031 29.902344 L 255.1875 29.855469 L 255.792969 29.839844 L 256.398438 29.855469 L 257.003906 29.902344 L 257.609375 29.976562 L 258.214844 30.078125 L 258.820312 30.214844 L 259.425781 30.378906 L 260.03125 30.570312 L 260.640625 30.792969 L 261.246094 31.046875 L 261.851562 31.328125 L 262.457031 31.636719 L 263.0625 31.980469 L 263.667969 32.347656 L 264.273438 32.746094 L 264.878906 33.175781 L 265.484375 33.628906 L 266.089844 34.117188 L 266.699219 34.628906 L 267.304688 35.171875 L 267.910156 35.742188 L 268.515625 36.339844 L 269.121094 36.964844 L 269.726562 37.617188 L 270.332031 38.300781 L 270.9375 39.007812 L 271.542969 39.742188 L 272.152344 40.507812 L 272.757812 41.296875 L 273.363281 42.109375 L 273.96875 42.953125 L 274.574219 43.820312 L 275.179688 44.710938 L 275.785156 45.628906 L 276.390625 46.574219 L 276.996094 47.542969 L 277.601562 48.535156 L 278.210938 49.554688 L 278.816406 50.59375 L 279.421875 51.660156 L 280.027344 52.75 L 280.632812 53.859375 L 281.238281 54.996094 L 281.84375 56.152344 L 282.449219 57.332031 L 283.054688 58.53125 L 283.660156 59.753906 L 284.269531 60.996094 L 284.875 62.261719 L 285.480469 63.546875 L 286.085938 64.851562 L 286.691406 66.175781 L 287.296875 67.519531 L 287.902344 68.882812 L 288.507812 70.265625 L 289.113281 71.664062 L 289.71875 73.082031 L 290.328125 74.515625 L 290.933594 75.96875 L 291.539062 77.4375 L 292.144531 78.921875 L 292.75 80.421875 L 293.355469 81.941406 L 293.960938 83.472656 L 294.566406 85.019531 L 295.171875 86.578125 L 295.777344 88.152344 L 296.386719 89.742188 L 296.992188 91.34375 L 297.597656 92.957031 L 298.203125 94.585938 L 298.808594 96.222656 L 299.414062 97.871094 L 300.019531 99.53125 L 300.625 101.203125 L 301.230469 102.886719 L 301.835938 104.578125 L 302.445312 106.277344 L 303.050781 107.988281 L 303.65625 109.707031 L 304.261719 111.433594 L 304.867188 113.167969 L 305.472656 114.910156 L 306.078125 116.660156 L 306.683594 118.414062 L 307.289062 120.175781 L 307.898438 121.945312 L 308.503906 123.71875 L 309.109375 125.496094 L 309.714844 127.277344 L 310.925781 130.855469 L 311.53125 132.648438 L 312.136719 134.445312 L 313.347656 138.046875 L 313.957031 139.851562 L 315.773438 145.265625 L 316.984375 148.882812 L 317.589844 150.6875 L 318.195312 152.496094 L 318.800781 154.300781 L 319.40625 156.101562 L 320.015625 157.90625 L 321.832031 163.296875 L 323.042969 166.875 L 323.648438 168.660156 L 324.253906 170.441406 L 325.464844 173.988281 L 326.074219 175.753906 L 326.679688 177.515625 L 327.285156 179.269531 L 327.890625 181.019531 L 328.496094 182.761719 L 329.101562 184.5 L 329.707031 186.230469 L 330.3125 187.953125 L 330.917969 189.667969 L 331.523438 191.378906 L 332.132812 193.078125 L 332.738281 194.773438 L 333.34375 196.457031 L 333.949219 198.136719 L 334.554688 199.804688 L 335.160156 201.460938 L 335.765625 203.113281 L 336.371094 204.753906 L 336.976562 206.386719 L 337.582031 208.007812 L 338.191406 209.621094 L 338.796875 211.222656 L 339.402344 212.8125 L 340.007812 214.394531 L 340.613281 215.964844 L 341.21875 217.527344 L 341.824219 219.074219 L 342.429688 220.613281 L 343.035156 222.140625 L 343.644531 223.65625 L 344.25 225.160156 L 344.855469 226.652344 L 345.460938 228.132812 L 346.066406 229.601562 L 346.671875 231.058594 L 347.277344 232.503906 L 347.882812 233.9375 L 348.488281 235.359375 L 349.09375 236.765625 L 349.703125 238.160156 L 350.308594 239.542969 L 350.914062 240.914062 L 351.519531 242.273438 L 352.125 243.617188 L 352.730469 244.949219 L 353.335938 246.265625 L 353.941406 247.574219 L 354.546875 248.867188 L 355.152344 250.144531 L 355.761719 251.414062 L 356.367188 252.667969 L 356.972656 253.90625 L 357.578125 255.132812 L 358.183594 256.347656 L 358.789062 257.550781 L 359.394531 258.738281 L 360 259.910156 L 360.605469 261.070312 L 361.210938 262.21875 L 361.820312 263.351562 L 362.425781 264.472656 L 363.03125 265.582031 L 363.636719 266.675781 L 364.242188 267.757812 L 364.847656 268.824219 L 365.453125 269.878906 L 366.058594 270.921875 L 366.664062 271.949219 L 367.269531 272.964844 L 367.878906 273.96875 L 368.484375 274.957031 L 369.089844 275.933594 L 369.695312 276.894531 L 370.300781 277.847656 L 370.90625 278.785156 L 371.511719 279.710938 L 372.117188 280.621094 L 372.722656 281.519531 L 373.328125 282.40625 L 373.9375 283.28125 L 374.542969 284.144531 L 375.148438 284.992188 L 375.753906 285.828125 L 376.359375 286.652344 L 376.964844 287.464844 L 377.570312 288.265625 L 378.175781 289.054688 L 378.78125 289.832031 L 379.390625 290.597656 L 379.996094 291.347656 L 380.601562 292.089844 L 381.207031 292.820312 L 381.8125 293.539062 L 382.417969 294.246094 L 383.023438 294.941406 L 383.628906 295.625 L 384.234375 296.296875 L 384.839844 296.960938 L 385.449219 297.609375 L 386.054688 298.25 L 386.660156 298.882812 L 387.265625 299.5 L 387.871094 300.109375 L 388.476562 300.707031 L 389.082031 301.296875 L 389.6875 301.871094 L 390.292969 302.441406 L 390.898438 303 L 391.507812 303.546875 L 392.113281 304.085938 L 392.71875 304.613281 L 393.324219 305.132812 L 393.929688 305.640625 L 394.535156 306.140625 L 395.140625 306.632812 L 395.746094 307.117188 L 396.351562 307.589844 L 396.957031 308.050781 L 397.566406 308.507812 L 398.171875 308.953125 L 398.777344 309.394531 L 399.382812 309.824219 L 399.988281 310.246094 L 400.59375 310.660156 L 401.199219 311.0625 L 401.804688 311.460938 L 402.410156 311.851562 L 403.015625 312.234375 L 403.625 312.605469 L 404.230469 312.972656 L 404.835938 313.332031 L 405.441406 313.683594 L 406.046875 314.03125 L 406.652344 314.367188 L 407.257812 314.699219 L 407.863281 315.023438 L 408.46875 315.339844 L 409.074219 315.648438 L 409.683594 315.953125 L 410.289062 316.25 L 410.894531 316.542969 L 411.5 316.828125 L 412.105469 317.105469 L 412.710938 317.378906 L 413.316406 317.644531 L 413.921875 317.90625 L 414.527344 318.160156 L 415.136719 318.410156 L 415.742188 318.652344 L 416.347656 318.890625 L 416.953125 319.125 L 417.558594 319.351562 L 418.164062 319.574219 L 418.769531 319.792969 L 419.375 320.007812 L 419.980469 320.214844 L 420.585938 320.417969 L 421.195312 320.613281 L 421.800781 320.808594 L 423.011719 321.183594 L 423.617188 321.363281 L 424.222656 321.539062 L 424.828125 321.710938 L 425.433594 321.878906 L 426.644531 322.199219 L 427.253906 322.355469 L 427.859375 322.507812 L 428.464844 322.65625 L 429.070312 322.800781 L 429.675781 322.941406 L 430.886719 323.214844 L 432.097656 323.472656 L 432.703125 323.59375 L 433.3125 323.714844 L 434.523438 323.949219 L 435.734375 324.167969 L 436.945312 324.378906 L 437.550781 324.480469 L 438.15625 324.578125 L 438.761719 324.671875 L 439.371094 324.765625 L 440.582031 324.945312 L 441.1875 325.03125 L 442.398438 325.195312 L 443.003906 325.273438 L 443.609375 325.347656 L 444.214844 325.425781 L 444.820312 325.496094 L 445.429688 325.566406 L 446.035156 325.636719 L 446.640625 325.703125 L 448.457031 325.890625 L 450.273438 326.066406 L 450.882812 326.121094 L 452.699219 326.273438 L 453.304688 326.320312 L 453.910156 326.371094 L 454.515625 326.414062 L 455.121094 326.460938 L 455.726562 326.503906 L 456.332031 326.542969 L 456.941406 326.585938 L 458.152344 326.664062 L 460.574219 326.804688 L 462.390625 326.898438 L 463 326.929688 L 463.605469 326.957031 L 464.210938 326.988281 L 464.816406 327.011719 L 466.027344 327.066406 L 467.84375 327.136719 "/>
<path fill-rule="nonzero" fill="rgb(56.078431%, 16.470588%, 26.27451%)" fill-opacity="0.501961" d="M 43.738281 327.136719 L 43.851562 327.132812 L 44.234375 327.117188 L 44.34375 327.113281 L 44.457031 327.109375 L 44.839844 327.09375 L 44.949219 327.089844 L 45.0625 327.085938 L 45.445312 327.070312 L 45.554688 327.066406 L 45.667969 327.0625 L 46.050781 327.042969 L 46.164062 327.039062 L 46.273438 327.035156 L 46.65625 327.019531 L 46.769531 327.011719 L 46.878906 327.007812 L 47.261719 326.992188 L 47.375 326.988281 L 47.484375 326.980469 L 47.867188 326.964844 L 47.980469 326.957031 L 48.09375 326.953125 L 48.472656 326.933594 L 48.699219 326.925781 L 49.078125 326.90625 L 49.191406 326.898438 L 49.304688 326.894531 L 49.683594 326.875 L 49.796875 326.867188 L 49.910156 326.863281 L 50.292969 326.84375 L 50.402344 326.835938 L 50.515625 326.832031 L 50.898438 326.808594 L 51.007812 326.804688 L 51.121094 326.796875 L 51.503906 326.777344 L 51.613281 326.769531 L 51.726562 326.765625 L 52.109375 326.742188 L 52.222656 326.734375 L 52.332031 326.730469 L 52.714844 326.707031 L 52.828125 326.699219 L 52.9375 326.691406 L 53.320312 326.667969 L 53.433594 326.664062 L 53.542969 326.65625 L 53.925781 326.632812 L 54.152344 326.617188 L 54.53125 326.59375 L 54.757812 326.578125 L 55.136719 326.550781 L 55.363281 326.535156 L 55.746094 326.511719 L 55.855469 326.503906 L 55.96875 326.496094 L 56.460938 326.460938 L 56.574219 326.453125 L 56.957031 326.421875 L 57.066406 326.414062 L 57.179688 326.40625 L 57.5625 326.378906 L 57.675781 326.371094 L 57.785156 326.359375 L 58.167969 326.332031 L 58.28125 326.320312 L 58.390625 326.3125 L 58.773438 326.28125 L 58.886719 326.273438 L 58.996094 326.265625 L 59.378906 326.234375 L 59.492188 326.222656 L 59.605469 326.214844 L 59.984375 326.183594 L 60.097656 326.171875 L 60.210938 326.164062 L 60.589844 326.128906 L 60.703125 326.121094 L 60.816406 326.109375 L 61.195312 326.074219 L 61.308594 326.066406 L 61.421875 326.054688 L 61.804688 326.019531 L 61.914062 326.007812 L 62.027344 325.996094 L 62.410156 325.960938 L 62.519531 325.949219 L 62.632812 325.941406 L 63.015625 325.902344 L 63.125 325.890625 L 63.238281 325.878906 L 63.621094 325.839844 L 63.734375 325.828125 L 63.84375 325.820312 L 64.226562 325.777344 L 64.339844 325.765625 L 64.449219 325.753906 L 64.832031 325.714844 L 64.945312 325.703125 L 65.054688 325.691406 L 65.4375 325.648438 L 65.550781 325.636719 L 65.664062 325.621094 L 66.042969 325.578125 L 66.269531 325.554688 L 66.648438 325.507812 L 66.875 325.484375 L 67.253906 325.4375 L 67.367188 325.425781 L 67.480469 325.410156 L 67.863281 325.363281 L 67.972656 325.347656 L 68.085938 325.335938 L 68.46875 325.285156 L 68.578125 325.273438 L 68.691406 325.257812 L 69.074219 325.207031 L 69.183594 325.195312 L 69.296875 325.179688 L 69.679688 325.128906 L 69.792969 325.113281 L 70.285156 325.042969 L 70.398438 325.03125 L 70.507812 325.011719 L 70.890625 324.960938 L 71.003906 324.945312 L 71.113281 324.925781 L 71.496094 324.871094 L 71.722656 324.839844 L 72.101562 324.78125 L 72.328125 324.75 L 72.707031 324.691406 L 72.820312 324.671875 L 72.933594 324.65625 L 73.3125 324.59375 L 73.425781 324.578125 L 73.539062 324.558594 L 73.921875 324.496094 L 74.03125 324.480469 L 74.144531 324.460938 L 74.527344 324.398438 L 74.636719 324.378906 L 74.75 324.359375 L 75.132812 324.292969 L 75.242188 324.273438 L 75.355469 324.253906 L 75.738281 324.1875 L 75.851562 324.167969 L 75.960938 324.148438 L 76.34375 324.082031 L 76.457031 324.058594 L 76.566406 324.039062 L 76.949219 323.96875 L 77.0625 323.949219 L 77.171875 323.925781 L 77.554688 323.855469 L 77.667969 323.832031 L 77.78125 323.8125 L 78.160156 323.738281 L 78.273438 323.714844 L 78.386719 323.695312 L 78.765625 323.617188 L 78.992188 323.570312 L 79.371094 323.492188 L 79.484375 323.472656 L 79.597656 323.445312 L 79.980469 323.367188 L 80.089844 323.34375 L 80.203125 323.320312 L 80.695312 323.214844 L 80.808594 323.1875 L 81.191406 323.105469 L 81.300781 323.078125 L 81.414062 323.054688 L 81.796875 322.96875 L 81.910156 322.941406 L 82.019531 322.914062 L 82.402344 322.828125 L 82.515625 322.800781 L 82.625 322.773438 L 83.007812 322.683594 L 83.121094 322.65625 L 83.230469 322.628906 L 83.613281 322.535156 L 83.839844 322.480469 L 84.21875 322.382812 L 84.445312 322.328125 L 84.824219 322.230469 L 84.9375 322.199219 L 85.050781 322.171875 L 85.429688 322.070312 L 85.542969 322.039062 L 85.65625 322.011719 L 86.039062 321.90625 L 86.148438 321.878906 L 86.261719 321.847656 L 86.644531 321.742188 L 86.753906 321.710938 L 86.867188 321.679688 L 87.359375 321.539062 L 87.472656 321.503906 L 87.855469 321.394531 L 87.96875 321.363281 L 88.078125 321.328125 L 88.460938 321.214844 L 88.574219 321.183594 L 88.683594 321.148438 L 89.066406 321.03125 L 89.179688 320.996094 L 89.289062 320.960938 L 89.671875 320.84375 L 89.898438 320.773438 L 90.277344 320.652344 L 90.390625 320.613281 L 90.503906 320.578125 L 90.882812 320.453125 L 90.996094 320.417969 L 91.109375 320.378906 L 91.492188 320.25 L 91.601562 320.214844 L 91.714844 320.175781 L 92.097656 320.042969 L 92.207031 320.007812 L 92.320312 319.96875 L 92.8125 319.792969 L 92.925781 319.753906 L 93.308594 319.617188 L 93.421875 319.574219 L 93.53125 319.535156 L 93.914062 319.394531 L 94.027344 319.351562 L 94.136719 319.3125 L 94.519531 319.167969 L 94.632812 319.125 L 94.742188 319.082031 L 95.125 318.9375 L 95.238281 318.890625 L 95.351562 318.847656 L 95.730469 318.699219 L 95.84375 318.652344 L 95.957031 318.609375 L 96.335938 318.457031 L 96.5625 318.363281 L 96.941406 318.207031 L 97.167969 318.113281 L 97.550781 317.953125 L 97.660156 317.90625 L 97.773438 317.855469 L 98.265625 317.644531 L 98.378906 317.59375 L 98.761719 317.425781 L 98.871094 317.378906 L 98.984375 317.328125 L 99.367188 317.15625 L 99.480469 317.105469 L 99.589844 317.054688 L 99.972656 316.878906 L 100.085938 316.828125 L 100.195312 316.773438 L 100.578125 316.59375 L 100.691406 316.542969 L 100.800781 316.488281 L 101.183594 316.304688 L 101.410156 316.195312 L 101.789062 316.007812 L 102.015625 315.898438 L 102.394531 315.707031 L 102.507812 315.648438 L 102.621094 315.59375 L 103 315.398438 L 103.226562 315.28125 L 103.609375 315.082031 L 103.71875 315.023438 L 103.832031 314.960938 L 104.214844 314.757812 L 104.324219 314.699219 L 104.4375 314.636719 L 104.820312 314.429688 L 104.929688 314.367188 L 105.042969 314.304688 L 105.425781 314.09375 L 105.539062 314.03125 L 105.648438 313.964844 L 106.03125 313.75 L 106.144531 313.683594 L 106.253906 313.621094 L 106.636719 313.398438 L 106.75 313.332031 L 106.859375 313.265625 L 107.242188 313.039062 L 107.46875 312.90625 L 107.847656 312.675781 L 107.960938 312.605469 L 108.074219 312.539062 L 108.453125 312.300781 L 108.566406 312.234375 L 108.679688 312.160156 L 109.058594 311.921875 L 109.171875 311.851562 L 109.285156 311.777344 L 109.667969 311.535156 L 109.777344 311.460938 L 109.890625 311.386719 L 110.273438 311.136719 L 110.382812 311.0625 L 110.496094 310.988281 L 110.878906 310.734375 L 110.988281 310.660156 L 111.101562 310.582031 L 111.484375 310.320312 L 111.597656 310.246094 L 111.707031 310.167969 L 112.089844 309.902344 L 112.203125 309.824219 L 112.3125 309.742188 L 112.695312 309.472656 L 112.808594 309.394531 L 112.917969 309.3125 L 113.300781 309.035156 L 113.527344 308.871094 L 113.90625 308.589844 L 114.132812 308.425781 L 114.511719 308.136719 L 114.738281 307.964844 L 115.117188 307.675781 L 115.230469 307.589844 L 115.34375 307.5 L 115.726562 307.203125 L 115.835938 307.117188 L 115.949219 307.027344 L 116.332031 306.722656 L 116.441406 306.632812 L 116.554688 306.542969 L 116.9375 306.234375 L 117.046875 306.140625 L 117.160156 306.050781 L 117.542969 305.734375 L 117.65625 305.640625 L 117.765625 305.546875 L 118.148438 305.226562 L 118.261719 305.132812 L 118.371094 305.035156 L 118.753906 304.710938 L 118.867188 304.613281 L 118.976562 304.515625 L 119.359375 304.183594 L 119.472656 304.085938 L 119.585938 303.984375 L 119.964844 303.644531 L 120.078125 303.546875 L 120.191406 303.445312 L 120.570312 303.101562 L 120.683594 303 L 120.796875 302.894531 L 121.175781 302.542969 L 121.289062 302.441406 L 121.402344 302.335938 L 121.785156 301.976562 L 121.894531 301.871094 L 122.007812 301.765625 L 122.390625 301.402344 L 122.5 301.296875 L 122.613281 301.1875 L 122.996094 300.816406 L 123.105469 300.707031 L 123.21875 300.597656 L 123.601562 300.21875 L 123.714844 300.109375 L 123.824219 299.996094 L 124.320312 299.5 L 124.429688 299.386719 L 124.8125 298.996094 L 124.925781 298.882812 L 125.035156 298.765625 L 125.417969 298.367188 L 125.644531 298.132812 L 126.023438 297.730469 L 126.136719 297.609375 L 126.25 297.492188 L 126.628906 297.082031 L 126.742188 296.960938 L 126.855469 296.835938 L 127.238281 296.421875 L 127.347656 296.296875 L 127.460938 296.171875 L 127.84375 295.75 L 127.953125 295.625 L 128.066406 295.496094 L 128.449219 295.066406 L 128.558594 294.941406 L 128.671875 294.8125 L 129.054688 294.375 L 129.167969 294.246094 L 129.277344 294.113281 L 129.660156 293.667969 L 129.773438 293.539062 L 129.882812 293.40625 L 130.265625 292.953125 L 130.378906 292.820312 L 130.488281 292.683594 L 130.871094 292.226562 L 131.097656 291.953125 L 131.476562 291.484375 L 131.703125 291.210938 L 132.082031 290.734375 L 132.195312 290.597656 L 132.308594 290.453125 L 132.6875 289.972656 L 132.800781 289.832031 L 132.914062 289.6875 L 133.296875 289.199219 L 133.40625 289.054688 L 133.519531 288.910156 L 133.902344 288.414062 L 134.011719 288.265625 L 134.125 288.117188 L 134.507812 287.613281 L 134.617188 287.464844 L 134.730469 287.316406 L 135.113281 286.804688 L 135.226562 286.652344 L 135.335938 286.5 L 135.71875 285.980469 L 135.832031 285.828125 L 135.941406 285.675781 L 136.324219 285.148438 L 136.4375 284.992188 L 136.546875 284.835938 L 136.929688 284.300781 L 137.042969 284.144531 L 137.15625 283.984375 L 137.535156 283.441406 L 137.761719 283.121094 L 138.140625 282.570312 L 138.367188 282.242188 L 138.746094 281.683594 L 138.972656 281.355469 L 139.355469 280.789062 L 139.464844 280.621094 L 139.578125 280.453125 L 139.960938 279.878906 L 140.070312 279.710938 L 140.183594 279.539062 L 140.566406 278.957031 L 140.675781 278.785156 L 140.789062 278.609375 L 141.171875 278.019531 L 141.285156 277.847656 L 141.394531 277.671875 L 141.777344 277.074219 L 141.890625 276.894531 L 142 276.71875 L 142.382812 276.113281 L 142.496094 275.933594 L 142.605469 275.753906 L 142.988281 275.136719 L 143.101562 274.957031 L 143.214844 274.773438 L 143.59375 274.152344 L 143.707031 273.96875 L 143.820312 273.78125 L 144.199219 273.152344 L 144.425781 272.777344 L 144.804688 272.136719 L 145.03125 271.761719 L 145.414062 271.113281 L 145.523438 270.921875 L 145.636719 270.730469 L 146.019531 270.074219 L 146.128906 269.878906 L 146.242188 269.683594 L 146.625 269.019531 L 146.734375 268.824219 L 146.847656 268.628906 L 147.230469 267.957031 L 147.34375 267.757812 L 147.453125 267.558594 L 147.835938 266.875 L 147.949219 266.675781 L 148.058594 266.472656 L 148.441406 265.785156 L 148.554688 265.582031 L 148.664062 265.378906 L 149.046875 264.679688 L 149.273438 264.265625 L 149.652344 263.5625 L 149.765625 263.351562 L 149.878906 263.144531 L 150.257812 262.429688 L 150.484375 262.007812 L 150.863281 261.285156 L 151.089844 260.855469 L 151.472656 260.125 L 151.582031 259.910156 L 151.695312 259.695312 L 152.078125 258.953125 L 152.1875 258.738281 L 152.300781 258.515625 L 152.683594 257.769531 L 152.792969 257.550781 L 152.90625 257.328125 L 153.289062 256.570312 L 153.402344 256.347656 L 153.511719 256.125 L 154.007812 255.132812 L 154.117188 254.90625 L 154.5 254.132812 L 154.613281 253.90625 L 154.722656 253.675781 L 155.105469 252.894531 L 155.21875 252.667969 L 155.332031 252.433594 L 155.710938 251.644531 L 155.824219 251.414062 L 155.9375 327.789062 L 43.625 327.789062 Z M 43.738281 327.136719 "/>
<g clip-path="url(#clip-1)">
<path fill="none" stroke-width="1.920561" stroke-linecap="butt" stroke-linejoin="round" stroke="rgb(0%, 0%, 0%)" stroke-opacity="1" stroke-dasharray="7.682244 7.682244" stroke-miterlimit="10" d="M 156.136719 342.6875 L 156.136719 14.945312 "/>
</g>
<path fill-rule="nonzero" fill="rgb(10.196078%, 10.196078%, 10.196078%)" fill-opacity="1" d="M 124.847656 368.148438 L 124.847656 367.054688 L 131.007812 367.054688 L 131.007812 368.148438 Z M 124.847656 368.148438 "/>
<path fill-rule="nonzero" fill="rgb(10.196078%, 10.196078%, 10.196078%)" fill-opacity="1" d="M 133.246094 374.589844 L 133.246094 373.804688 L 133.824219 373.214844 L 134.382812 372.636719 L 134.921875 372.078125 L 135.441406 371.539062 L 135.941406 371.011719 L 136.421875 370.5 L 136.882812 370.007812 L 137.324219 369.53125 L 137.746094 369.070312 L 138.148438 368.625 L 138.527344 368.1875 L 138.890625 367.757812 L 139.234375 367.339844 L 139.558594 366.929688 L 139.863281 366.53125 L 140.144531 366.140625 L 140.410156 365.761719 L 140.65625 365.390625 L 140.882812 365.027344 L 141.085938 364.675781 L 141.273438 364.332031 L 141.441406 363.988281 L 141.585938 363.652344 L 141.714844 363.320312 L 141.820312 362.988281 L 141.910156 362.664062 L 141.980469 362.339844 L 142.027344 362.023438 L 142.058594 361.710938 L 142.066406 361.398438 L 142.058594 361.070312 L 142.027344 360.75 L 141.980469 360.441406 L 141.914062 360.140625 L 141.828125 359.851562 L 141.722656 359.574219 L 141.601562 359.308594 L 141.457031 359.050781 L 141.296875 358.808594 L 141.113281 358.570312 L 140.917969 358.355469 L 140.703125 358.160156 L 140.460938 357.988281 L 140.199219 357.835938 L 139.917969 357.710938 L 139.613281 357.609375 L 139.285156 357.527344 L 138.9375 357.46875 L 138.566406 357.433594 L 138.175781 357.425781 L 137.933594 357.429688 L 137.699219 357.449219 L 137.460938 357.484375 L 137.230469 357.53125 L 137 357.59375 L 136.769531 357.664062 L 136.542969 357.753906 L 136.320312 357.855469 L 136.097656 357.96875 L 135.878906 358.097656 L 135.667969 358.234375 L 135.464844 358.378906 L 135.261719 358.53125 L 135.066406 358.6875 L 134.878906 358.851562 L 134.691406 359.023438 L 134.511719 359.203125 L 134.335938 359.386719 L 134.167969 359.578125 L 134.003906 359.777344 L 133.191406 358.992188 L 133.394531 358.773438 L 133.601562 358.558594 L 133.816406 358.351562 L 134.03125 358.152344 L 134.253906 357.964844 L 134.480469 357.777344 L 134.710938 357.601562 L 134.945312 357.433594 L 135.1875 357.269531 L 135.429688 357.117188 L 135.679688 356.972656 L 135.9375 356.84375 L 136.207031 356.730469 L 136.480469 356.632812 L 136.761719 356.550781 L 137.050781 356.480469 L 137.347656 356.429688 L 137.652344 356.390625 L 137.964844 356.367188 L 138.285156 356.359375 L 138.757812 356.375 L 139.207031 356.414062 L 139.632812 356.484375 L 140.039062 356.578125 L 140.421875 356.703125 L 140.785156 356.855469 L 141.121094 357.03125 L 141.441406 357.238281 L 141.738281 357.472656 L 142.011719 357.730469 L 142.261719 358.015625 L 142.484375 358.316406 L 142.683594 358.636719 L 142.851562 358.972656 L 142.996094 359.328125 L 143.117188 359.699219 L 143.207031 360.09375 L 143.273438 360.5 L 143.3125 360.925781 L 143.328125 361.371094 L 143.316406 361.726562 L 143.285156 362.078125 L 143.234375 362.433594 L 143.160156 362.792969 L 143.066406 363.148438 L 142.953125 363.507812 L 142.820312 363.867188 L 142.664062 364.230469 L 142.488281 364.59375 L 142.289062 364.957031 L 142.082031 365.324219 L 141.855469 365.695312 L 141.609375 366.074219 L 141.351562 366.457031 L 141.074219 366.847656 L 140.777344 367.242188 L 140.46875 367.640625 L 140.140625 368.046875 L 139.796875 368.457031 L 139.433594 368.875 L 139.0625 369.300781 L 138.679688 369.738281 L 138.28125 370.183594 L 137.871094 370.640625 L 137.445312 371.109375 L 137.007812 371.585938 L 136.558594 372.078125 L 136.09375 372.578125 L 135.613281 373.085938 L 135.121094 373.609375 L 135.269531 373.597656 L 135.414062 373.585938 L 135.5625 373.578125 L 135.710938 373.566406 L 136.304688 373.535156 L 136.457031 373.53125 L 136.605469 373.523438 L 136.761719 373.511719 L 136.917969 373.503906 L 137.070312 373.496094 L 137.226562 373.488281 L 137.375 373.480469 L 137.527344 373.476562 L 137.824219 373.46875 L 144.222656 373.46875 L 144.222656 374.589844 Z M 133.246094 374.589844 "/>
<path fill-rule="nonzero" fill="rgb(10.196078%, 10.196078%, 10.196078%)" fill-opacity="1" d="M 255.777344 374.925781 L 255.28125 374.898438 L 254.804688 374.828125 L 254.351562 374.703125 L 253.921875 374.535156 L 253.515625 374.316406 L 253.132812 374.046875 L 252.773438 373.730469 L 252.4375 373.363281 L 252.121094 372.949219 L 251.828125 372.488281 L 251.5625 371.980469 L 251.324219 371.433594 L 251.117188 370.84375 L 250.933594 370.210938 L 250.78125 369.542969 L 250.652344 368.828125 L 250.554688 368.074219 L 250.484375 367.28125 L 250.445312 366.449219 L 250.429688 365.570312 L 250.445312 364.703125 L 250.484375 363.875 L 250.554688 363.085938 L 250.652344 362.34375 L 250.78125 361.636719 L 250.933594 360.976562 L 251.117188 360.355469 L 251.324219 359.773438 L 251.5625 359.238281 L 251.828125 358.738281 L 252.121094 358.289062 L 252.4375 357.882812 L 252.773438 357.527344 L 253.132812 357.21875 L 253.515625 356.953125 L 253.921875 356.742188 L 254.351562 356.574219 L 254.804688 356.457031 L 255.28125 356.382812 L 255.777344 356.359375 L 256.28125 356.382812 L 256.761719 356.457031 L 257.214844 356.574219 L 257.644531 356.742188 L 258.054688 356.953125 L 258.4375 357.21875 L 258.792969 357.527344 L 259.128906 357.882812 L 259.441406 358.289062 L 259.726562 358.738281 L 259.992188 359.238281 L 260.230469 359.773438 L 260.441406 360.355469 L 260.621094 360.976562 L 260.777344 361.636719 L 260.902344 362.34375 L 261 363.085938 L 261.070312 363.875 L 261.113281 364.703125 L 261.125 365.570312 L 261.113281 366.449219 L 261.070312 367.28125 L 261 368.074219 L 260.902344 368.828125 L 260.777344 369.542969 L 260.621094 370.210938 L 260.441406 370.84375 L 260.230469 371.433594 L 259.992188 371.980469 L 259.726562 372.488281 L 259.441406 372.949219 L 259.128906 373.363281 L 258.792969 373.730469 L 258.4375 374.046875 L 258.054688 374.316406 L 257.644531 374.535156 L 257.214844 374.703125 L 256.761719 374.828125 L 256.28125 374.898438 Z M 255.777344 373.859375 L 256.144531 373.839844 L 256.496094 373.777344 L 256.832031 373.671875 L 257.152344 373.523438 L 257.457031 373.335938 L 257.746094 373.105469 L 258.019531 372.832031 L 258.277344 372.515625 L 258.519531 372.160156 L 258.746094 371.761719 L 258.957031 371.320312 L 259.148438 370.839844 L 259.316406 370.320312 L 259.460938 369.761719 L 259.585938 369.164062 L 259.6875 368.523438 L 259.765625 367.847656 L 259.820312 367.128906 L 259.855469 366.371094 L 259.867188 365.570312 L 259.855469 364.773438 L 259.820312 364.019531 L 259.765625 363.304688 L 259.6875 362.632812 L 259.585938 362.003906 L 259.460938 361.414062 L 259.316406 360.863281 L 259.148438 360.355469 L 258.957031 359.890625 L 258.746094 359.46875 L 258.519531 359.078125 L 258.277344 358.730469 L 258.019531 358.425781 L 257.746094 358.160156 L 257.457031 357.933594 L 257.152344 357.75 L 256.832031 357.609375 L 256.496094 357.503906 L 256.144531 357.445312 L 255.777344 357.425781 L 255.414062 357.445312 L 255.066406 357.503906 L 254.734375 357.609375 L 254.417969 357.75 L 254.113281 357.933594 L 253.824219 358.160156 L 253.546875 358.425781 L 253.289062 358.730469 L 253.042969 359.078125 L 252.808594 359.46875 L 252.597656 359.890625 L 252.40625 360.355469 L 252.238281 360.863281 L 252.09375 361.414062 L 251.96875 362.003906 L 251.871094 362.632812 L 251.789062 363.304688 L 251.734375 364.019531 L 251.703125 364.773438 L 251.691406 365.570312 L 251.703125 366.371094 L 251.734375 367.128906 L 251.789062 367.847656 L 251.871094 368.523438 L 251.96875 369.164062 L 252.09375 369.761719 L 252.238281 370.320312 L 252.40625 370.839844 L 252.597656 371.320312 L 252.808594 371.761719 L 253.042969 372.160156 L 253.289062 372.515625 L 253.546875 372.832031 L 253.824219 373.105469 L 254.113281 373.335938 L 254.417969 373.523438 L 254.734375 373.671875 L 255.066406 373.777344 L 255.414062 373.839844 Z M 255.777344 373.859375 "/>
<path fill-rule="nonzero" fill="rgb(10.196078%, 10.196078%, 10.196078%)" fill-opacity="1" d="M 371.40625 374.589844 L 371.40625 373.804688 L 371.984375 373.214844 L 372.542969 372.636719 L 373.082031 372.078125 L 373.601562 371.539062 L 374.101562 371.011719 L 374.582031 370.5 L 375.042969 370.007812 L 375.484375 369.53125 L 375.90625 369.070312 L 376.308594 368.625 L 376.6875 368.1875 L 377.050781 367.757812 L 377.394531 367.339844 L 377.71875 366.929688 L 378.023438 366.53125 L 378.304688 366.140625 L 378.570312 365.761719 L 378.816406 365.390625 L 379.042969 365.027344 L 379.246094 364.675781 L 379.433594 364.332031 L 379.601562 363.988281 L 379.746094 363.652344 L 379.875 363.320312 L 379.980469 362.988281 L 380.070312 362.664062 L 380.140625 362.339844 L 380.1875 362.023438 L 380.21875 361.710938 L 380.226562 361.398438 L 380.21875 361.070312 L 380.1875 360.75 L 380.140625 360.441406 L 380.074219 360.140625 L 379.988281 359.851562 L 379.882812 359.574219 L 379.761719 359.308594 L 379.617188 359.050781 L 379.457031 358.808594 L 379.273438 358.570312 L 379.078125 358.355469 L 378.863281 358.160156 L 378.621094 357.988281 L 378.359375 357.835938 L 378.078125 357.710938 L 377.773438 357.609375 L 377.445312 357.527344 L 377.097656 357.46875 L 376.726562 357.433594 L 376.335938 357.425781 L 376.09375 357.429688 L 375.859375 357.449219 L 375.621094 357.484375 L 375.390625 357.53125 L 375.160156 357.59375 L 374.929688 357.664062 L 374.703125 357.753906 L 374.480469 357.855469 L 374.257812 357.96875 L 374.039062 358.097656 L 373.828125 358.234375 L 373.625 358.378906 L 373.421875 358.53125 L 373.226562 358.6875 L 373.039062 358.851562 L 372.851562 359.023438 L 372.671875 359.203125 L 372.5 359.386719 L 372.328125 359.578125 L 372.164062 359.777344 L 371.351562 358.992188 L 371.554688 358.773438 L 371.761719 358.558594 L 371.976562 358.351562 L 372.195312 358.152344 L 372.414062 357.964844 L 372.640625 357.777344 L 372.871094 357.601562 L 373.105469 357.433594 L 373.347656 357.269531 L 373.589844 357.117188 L 373.839844 356.972656 L 374.101562 356.84375 L 374.367188 356.730469 L 374.640625 356.632812 L 374.921875 356.550781 L 375.210938 356.480469 L 375.507812 356.429688 L 375.8125 356.390625 L 376.125 356.367188 L 376.445312 356.359375 L 376.917969 356.375 L 377.367188 356.414062 L 377.792969 356.484375 L 378.199219 356.578125 L 378.582031 356.703125 L 378.945312 356.855469 L 379.285156 357.03125 L 379.601562 357.238281 L 379.898438 357.472656 L 380.171875 357.730469 L 380.421875 358.015625 L 380.644531 358.316406 L 380.84375 358.636719 L 381.011719 358.972656 L 381.160156 359.328125 L 381.277344 359.699219 L 381.367188 360.09375 L 381.433594 360.5 L 381.472656 360.925781 L 381.488281 361.371094 L 381.476562 361.726562 L 381.445312 362.078125 L 381.394531 362.433594 L 381.320312 362.792969 L 381.226562 363.148438 L 381.113281 363.507812 L 380.980469 363.867188 L 380.824219 364.230469 L 380.648438 364.59375 L 380.453125 364.957031 L 380.242188 365.324219 L 380.015625 365.695312 L 379.769531 366.074219 L 379.511719 366.457031 L 379.234375 366.847656 L 378.9375 367.242188 L 378.628906 367.640625 L 378.300781 368.046875 L 377.957031 368.457031 L 377.59375 368.875 L 377.222656 369.300781 L 376.839844 369.738281 L 376.441406 370.183594 L 376.03125 370.640625 L 375.605469 371.109375 L 375.167969 371.585938 L 374.71875 372.078125 L 374.253906 372.578125 L 373.773438 373.085938 L 373.285156 373.609375 L 373.574219 373.585938 L 373.722656 373.578125 L 373.871094 373.566406 L 374.464844 373.535156 L 374.617188 373.53125 L 374.765625 373.523438 L 374.921875 373.511719 L 375.234375 373.496094 L 375.539062 373.480469 L 375.984375 373.46875 L 382.382812 373.46875 L 382.382812 374.589844 Z M 371.40625 374.589844 "/>
</svg>
