<?xml version="1.0" encoding="UTF-8"?>
<svg xmlns="http://www.w3.org/2000/svg" xmlns:xlink="http://www.w3.org/1999/xlink" width="504pt" height="396pt" viewBox="0 0 504 396">
<defs>
<clipPath id="clip-0">
<path clip-rule="nonzero" d="M 50.238281 12.953125 L 491.046875 12.953125 L 491.046875 350.035156 L 50.238281 350.035156 Z M 50.238281 12.953125 "/>
</clipPath>
<clipPath id="clip-1">
<path clip-rule="nonzero" d="M 50.238281 334 L 491.046875 334 L 491.046875 335 L 50.238281 335 Z M 50.238281 334 "/>
</clipPath>
<clipPath id="clip-2">
<path clip-rule="nonzero" d="M 50.238281 218 L 491.046875 218 L 491.046875 220 L 50.238281 220 Z M 50.238281 218 "/>
</clipPath>
<clipPath id="clip-3">
<path clip-rule="nonzero" d="M 50.238281 103 L 491.046875 103 L 491.046875 104 L 50.238281 104 Z M 50.238281 103 "/>
</clipPath>
<clipPath id="clip-4">
<path clip-rule="nonzero" d="M 152 12.953125 L 153 12.953125 L 153 350.035156 L 152 350.035156 Z M 152 12.953125 "/>
</clipPath>
<clipPath id="clip-5">
<path clip-rule="nonzero" d="M 388 12.953125 L 389 12.953125 L 389 350.035156 L 388 350.035156 Z M 388 12.953125 "/>
</clipPath>
</defs>
<rect x="-50.4" y="-39.6" width="604.8" height="475.2" fill="rgb(100%, 100%, 100%)" fill-opacity="1"/>
<rect x="-50.4" y="-39.6" width="604.8" height="475.2" fill="rgb(95.294118%, 95.294118%, 95.294118%)" fill-opacity="1"/>
<path fill="none" stroke-width="2.521949" stroke-linecap="round" stroke-linejoin="round" stroke="rgb(95.294118%, 95.294118%, 95.294118%)" stroke-opacity="1" stroke-miterlimit="10" d="M 0 396 L 504 396 L 504 0 L 0 0 Z M 0 396 "/>
<g clip-path="url(#clip-0)">
<path fill-rule="nonzero" fill="rgb(95.294118%, 95.294118%, 95.294118%)" fill-opacity="1" stroke-width="2.521949" stroke-linecap="round" stroke-linejoin="round" stroke="rgb(95.294118%, 95.294118%, 95.294118%)" stroke-opacity="1" stroke-miterlimit="10" d="M 50.238281 350.03125 L 491.046875 350.03125 L 491.046875 12.949219 L 50.238281 12.949219 Z M 50.238281 350.03125 "/>
</g>
<g clip-path="url(#clip-1)">
<path fill="none" stroke-width="0.213396" stroke-linecap="butt" stroke-linejoin="round" stroke="rgb(95.294118%, 95.294118%, 95.294118%)" stroke-opacity="1" stroke-miterlimit="10" d="M 50.238281 334.710938 L 491.046875 334.710938 "/>
</g>
<g clip-path="url(#clip-2)">
<path fill="none" stroke-width="0.213396" stroke-linecap="butt" stroke-linejoin="round" stroke="rgb(95.294118%, 95.294118%, 95.294118%)" stroke-opacity="1" stroke-miterlimit="10" d="M 50.238281 219.074219 L 491.046875 219.074219 "/>
</g>
<g clip-path="url(#clip-3)">
<path fill="none" stroke-width="0.213396" stroke-linecap="butt" stroke-linejoin="round" stroke="rgb(95.294118%, 95.294118%, 95.294118%)" stroke-opacity="1" stroke-miterlimit="10" d="M 50.238281 103.4375 L 491.046875 103.4375 "/>
</g>
<g clip-path="url(#clip-4)">
<path fill="none" stroke-width="0.213396" stroke-linecap="butt" stroke-linejoin="round" stroke="rgb(95.294118%, 95.294118%, 95.294118%)" stroke-opacity="1" stroke-miterlimit="10" d="M 152.78125 350.03125 L 152.78125 12.953125 "/>
</g>
<g clip-path="url(#clip-5)">
<path fill="none" stroke-width="0.213396" stroke-linecap="butt" stroke-linejoin="round" stroke="rgb(95.294118%, 95.294118%, 95.294118%)" stroke-opacity="1" stroke-miterlimit="10" d="M 388.507812 350.03125 L 388.507812 12.953125 "/>
</g>
<path fill-rule="nonzero" fill="rgb(56.078431%, 16.470588%, 26.27451%)" fill-opacity="1" d="M 70.277344 334.710938 L 235.285156 334.710938 L 235.285156 62.964844 L 70.277344 62.964844 Z M 70.277344 334.710938 "/>
<path fill-rule="nonzero" fill="rgb(56.078431%, 16.470588%, 26.27451%)" fill-opacity="1" d="M 306.003906 334.710938 L 471.011719 334.710938 L 471.011719 28.273438 L 306.003906 28.273438 Z M 306.003906 334.710938 "/>
<path fill-rule="nonzero" fill="rgb(10.196078%, 10.196078%, 10.196078%)" fill-opacity="1" d="M 31.984375 326.707031 L 32.464844 326.726562 L 32.925781 326.789062 L 33.359375 326.898438 L 33.769531 327.042969 L 34.15625 327.234375 L 34.519531 327.464844 L 34.855469 327.742188 L 35.171875 328.058594 L 35.460938 328.417969 L 35.726562 328.820312 L 35.96875 329.253906 L 36.183594 329.730469 L 36.375 330.25 L 36.542969 330.804688 L 36.679688 331.398438 L 36.796875 332.03125 L 36.886719 332.707031 L 36.949219 333.417969 L 36.988281 334.171875 L 37 334.960938 L 36.988281 335.75 L 36.949219 336.5 L 36.882812 337.207031 L 36.792969 337.878906 L 36.675781 338.515625 L 36.53125 339.109375 L 36.363281 339.667969 L 36.171875 340.183594 L 35.949219 340.664062 L 35.703125 341.105469 L 35.4375 341.503906 L 35.148438 341.859375 L 34.835938 342.171875 L 34.496094 342.441406 L 34.136719 342.671875 L 33.753906 342.859375 L 33.347656 343.007812 L 32.914062 343.109375 L 32.460938 343.171875 L 31.984375 343.195312 L 31.5 343.171875 L 31.042969 343.109375 L 30.609375 343.007812 L 30.199219 342.859375 L 29.8125 342.671875 L 29.449219 342.441406 L 29.109375 342.171875 L 28.796875 341.859375 L 28.503906 341.503906 L 28.238281 341.105469 L 27.996094 340.664062 L 27.78125 340.183594 L 27.589844 339.664062 L 27.425781 339.105469 L 27.285156 338.507812 L 27.171875 337.871094 L 27.082031 337.195312 L 27.019531 336.484375 L 26.980469 335.730469 L 26.96875 334.9375 L 26.980469 334.148438 L 27.019531 333.394531 L 27.082031 332.683594 L 27.171875 332.007812 L 27.285156 331.375 L 27.425781 330.78125 L 27.589844 330.222656 L 27.78125 329.707031 L 27.996094 329.230469 L 28.238281 328.792969 L 28.503906 328.398438 L 28.796875 328.042969 L 29.109375 327.730469 L 29.449219 327.457031 L 29.8125 327.226562 L 30.199219 327.039062 L 30.609375 326.894531 L 31.042969 326.789062 L 31.5 326.726562 Z M 31.984375 327.859375 L 31.304688 327.929688 L 30.695312 328.140625 L 30.160156 328.496094 L 29.695312 328.992188 L 29.300781 329.628906 L 28.980469 330.40625 L 28.730469 331.328125 L 28.550781 332.390625 L 28.441406 333.59375 L 28.40625 334.9375 L 28.441406 336.289062 L 28.550781 337.496094 L 28.730469 338.5625 L 28.980469 339.484375 L 29.300781 340.265625 L 29.695312 340.90625 L 30.160156 341.402344 L 30.695312 341.757812 L 31.304688 341.972656 L 31.984375 342.042969 L 32.324219 342.023438 L 32.648438 341.972656 L 32.957031 341.886719 L 33.246094 341.765625 L 33.519531 341.609375 L 33.773438 341.421875 L 34.011719 341.195312 L 34.234375 340.9375 L 34.4375 340.644531 L 34.625 340.3125 L 34.796875 339.949219 L 34.953125 339.546875 L 35.089844 339.105469 L 35.207031 338.628906 L 35.308594 338.113281 L 35.390625 337.558594 L 35.453125 336.964844 L 35.5 336.335938 L 35.527344 335.667969 L 35.535156 334.960938 L 35.527344 334.257812 L 35.5 333.589844 L 35.453125 332.957031 L 35.390625 332.367188 L 35.308594 331.8125 L 35.207031 331.296875 L 35.089844 330.816406 L 34.953125 330.378906 L 34.796875 329.976562 L 34.625 329.609375 L 34.4375 329.277344 L 34.234375 328.980469 L 34.011719 328.71875 L 33.773438 328.488281 L 33.519531 328.296875 L 33.246094 328.140625 L 32.957031 328.015625 L 32.648438 327.929688 L 32.324219 327.875 Z M 31.984375 327.859375 "/>
<path fill-rule="nonzero" fill="rgb(10.196078%, 10.196078%, 10.196078%)" fill-opacity="1" d="M 19.289062 211.070312 L 19.683594 211.082031 L 20.058594 211.117188 L 20.421875 211.175781 L 20.765625 211.257812 L 21.09375 211.363281 L 21.402344 211.492188 L 21.699219 211.644531 L 21.976562 211.824219 L 22.234375 212.023438 L 22.480469 212.246094 L 22.707031 212.488281 L 22.910156 212.742188 L 23.089844 213.011719 L 23.246094 213.292969 L 23.378906 213.589844 L 23.488281 213.898438 L 23.570312 214.222656 L 23.632812 214.558594 L 23.667969 214.90625 L 23.679688 215.269531 L 23.671875 215.578125 L 23.652344 215.886719 L 23.621094 216.1875 L 23.574219 216.488281 L 23.515625 216.78125 L 23.445312 217.074219 L 23.363281 217.359375 L 23.265625 217.644531 L 23.15625 217.921875 L 23.03125 218.199219 L 22.894531 218.472656 L 22.742188 218.753906 L 22.574219 219.042969 L 22.394531 219.335938 L 22.199219 219.632812 L 21.984375 219.933594 L 21.757812 220.242188 L 21.519531 220.554688 L 21.261719 220.875 L 20.992188 221.199219 L 20.699219 221.539062 L 20.375 221.914062 L 20.015625 222.320312 L 19.625 222.761719 L 19.199219 223.230469 L 18.738281 223.734375 L 18.242188 224.269531 L 17.710938 224.839844 L 17.148438 225.4375 L 16.550781 226.070312 L 24.113281 226.070312 L 23.917969 227.292969 L 14.917969 227.292969 L 14.917969 226.117188 L 15.558594 225.433594 L 16.160156 224.789062 L 16.722656 224.179688 L 17.25 223.605469 L 17.738281 223.070312 L 18.191406 222.570312 L 18.605469 222.105469 L 18.980469 221.679688 L 19.320312 221.289062 L 19.625 220.933594 L 19.902344 220.597656 L 20.164062 220.269531 L 20.410156 219.953125 L 20.636719 219.648438 L 20.847656 219.351562 L 21.039062 219.0625 L 21.214844 218.785156 L 21.375 218.515625 L 21.515625 218.253906 L 21.640625 218.003906 L 21.753906 217.753906 L 21.855469 217.5 L 21.945312 217.242188 L 22.023438 216.980469 L 22.089844 216.714844 L 22.144531 216.449219 L 22.183594 216.175781 L 22.214844 215.902344 L 22.234375 215.625 L 22.238281 215.339844 L 22.230469 215.0625 L 22.207031 214.796875 L 22.164062 214.542969 L 22.105469 214.300781 L 22.03125 214.070312 L 21.9375 213.851562 L 21.828125 213.640625 L 21.703125 213.445312 L 21.558594 213.257812 L 21.398438 213.085938 L 21.230469 212.925781 L 21.050781 212.785156 L 20.859375 212.65625 L 20.660156 212.546875 L 20.445312 212.457031 L 20.222656 212.378906 L 19.988281 212.320312 L 19.742188 212.28125 L 19.484375 212.253906 L 19.214844 212.246094 L 18.996094 212.25 L 18.785156 212.265625 L 18.574219 212.285156 L 18.371094 212.320312 L 18.171875 212.359375 L 17.976562 212.410156 L 17.789062 212.46875 L 17.601562 212.539062 L 17.421875 212.613281 L 17.246094 212.703125 L 17.082031 212.796875 L 16.914062 212.902344 L 16.75 213.015625 L 16.585938 213.140625 L 16.425781 213.273438 L 16.265625 213.414062 L 16.105469 213.5625 L 15.949219 213.722656 L 15.792969 213.890625 L 15.640625 214.070312 L 14.679688 213.351562 L 14.871094 213.121094 L 15.070312 212.90625 L 15.269531 212.699219 L 15.46875 212.507812 L 15.675781 212.328125 L 15.882812 212.164062 L 16.09375 212.007812 L 16.308594 211.867188 L 16.523438 211.738281 L 16.742188 211.621094 L 16.972656 211.515625 L 17.207031 211.421875 L 17.445312 211.339844 L 17.691406 211.269531 L 17.945312 211.207031 L 18.199219 211.15625 L 18.464844 211.121094 L 18.734375 211.09375 L 19.007812 211.074219 Z M 19.289062 211.070312 "/>
<path fill-rule="nonzero" fill="rgb(10.196078%, 10.196078%, 10.196078%)" fill-opacity="1" d="M 31.984375 211.070312 L 32.464844 211.089844 L 32.925781 211.152344 L 33.359375 211.261719 L 33.769531 211.40625 L 34.15625 211.597656 L 34.519531 211.832031 L 34.855469 212.105469 L 35.171875 212.421875 L 35.460938 212.78125 L 35.726562 213.183594 L 35.96875 213.617188 L 36.183594 214.09375 L 36.375 214.613281 L 36.542969 215.167969 L 36.679688 215.761719 L 36.796875 216.394531 L 36.886719 217.070312 L 36.949219 217.78125 L 36.988281 218.535156 L 37 219.324219 L 36.988281 220.113281 L 36.949219 220.863281 L 36.882812 221.570312 L 36.792969 222.246094 L 36.675781 222.878906 L 36.53125 223.472656 L 36.363281 224.03125 L 36.171875 224.546875 L 35.949219 225.027344 L 35.703125 225.46875 L 35.4375 225.867188 L 35.148438 226.222656 L 34.835938 226.535156 L 34.496094 226.804688 L 34.136719 227.035156 L 33.753906 227.222656 L 33.347656 227.371094 L 32.914062 227.472656 L 32.460938 227.535156 L 31.984375 227.558594 L 31.5 227.535156 L 31.042969 227.472656 L 30.609375 227.371094 L 30.199219 227.222656 L 29.8125 227.035156 L 29.449219 226.804688 L 29.109375 226.535156 L 28.796875 226.222656 L 28.503906 225.867188 L 28.238281 225.46875 L 27.996094 225.027344 L 27.78125 224.546875 L 27.589844 224.027344 L 27.425781 223.46875 L 27.285156 222.871094 L 27.171875 222.234375 L 27.082031 221.558594 L 27.019531 220.847656 L 26.980469 220.09375 L 26.96875 219.300781 L 26.980469 218.511719 L 27.019531 217.757812 L 27.082031 217.046875 L 27.171875 216.371094 L 27.285156 215.738281 L 27.425781 215.144531 L 27.589844 214.585938 L 27.78125 214.070312 L 27.996094 213.59375 L 28.238281 213.15625 L 28.503906 212.761719 L 28.796875 212.40625 L 29.109375 212.09375 L 29.449219 211.820312 L 29.8125 211.589844 L 30.199219 211.402344 L 30.609375 211.257812 L 31.042969 211.152344 L 31.5 211.089844 Z M 31.984375 212.222656 L 31.304688 212.292969 L 30.695312 212.503906 L 30.160156 212.859375 L 29.695312 213.355469 L 29.300781 213.992188 L 28.980469 214.769531 L 28.730469 215.691406 L 28.550781 216.753906 L 28.441406 217.957031 L 28.40625 219.300781 L 28.441406 220.652344 L 28.550781 221.859375 L 28.730469 222.925781 L 28.980469 223.847656 L 29.300781 224.628906 L 29.695312 225.269531 L 30.160156 225.765625 L 30.695312 226.121094 L 31.304688 226.335938 L 31.984375 226.40625 L 32.324219 226.386719 L 32.648438 226.335938 L 32.957031 226.25 L 33.246094 226.128906 L 33.519531 225.972656 L 33.773438 225.785156 L 34.011719 225.558594 L 34.234375 225.300781 L 34.4375 225.007812 L 34.625 224.679688 L 34.796875 224.3125 L 34.953125 223.910156 L 35.089844 223.46875 L 35.207031 222.992188 L 35.308594 222.476562 L 35.390625 221.921875 L 35.453125 221.328125 L 35.5 220.699219 L 35.527344 220.03125 L 35.535156 219.324219 L 35.527344 218.621094 L 35.5 217.953125 L 35.453125 217.320312 L 35.390625 216.730469 L 35.308594 216.175781 L 35.207031 215.660156 L 35.089844 215.179688 L 34.953125 214.742188 L 34.796875 214.339844 L 34.625 213.972656 L 34.4375 213.640625 L 34.234375 213.34375 L 34.011719 213.082031 L 33.773438 212.851562 L 33.519531 212.660156 L 33.246094 212.503906 L 32.957031 212.378906 L 32.648438 212.292969 L 32.324219 212.238281 Z M 31.984375 212.222656 "/>
<path fill-rule="nonzero" fill="rgb(10.196078%, 10.196078%, 10.196078%)" fill-opacity="1" d="M 24.542969 106.304688 L 24.542969 107.457031 L 22.382812 107.457031 L 22.382812 111.65625 L 21.015625 111.65625 L 21.015625 107.457031 L 14.03125 107.457031 L 14.03125 106.425781 L 18.902344 95.433594 L 20.078125 95.914062 L 15.519531 106.304688 L 21.015625 106.304688 L 21.183594 101.625 L 22.382812 101.625 L 22.382812 106.304688 Z M 24.542969 106.304688 "/>
<path fill-rule="nonzero" fill="rgb(10.196078%, 10.196078%, 10.196078%)" fill-opacity="1" d="M 31.984375 95.433594 L 32.464844 95.453125 L 32.925781 95.519531 L 33.359375 95.625 L 33.769531 95.769531 L 34.15625 95.960938 L 34.519531 96.195312 L 34.855469 96.46875 L 35.171875 96.785156 L 35.460938 97.144531 L 35.726562 97.546875 L 35.96875 97.980469 L 36.183594 98.460938 L 36.375 98.976562 L 36.542969 99.53125 L 36.679688 100.125 L 36.796875 100.757812 L 36.886719 101.433594 L 36.949219 102.144531 L 36.988281 102.898438 L 37 103.6875 L 36.988281 104.476562 L 36.949219 105.226562 L 36.882812 105.933594 L 36.792969 106.609375 L 36.675781 107.242188 L 36.53125 107.835938 L 36.363281 108.394531 L 36.171875 108.910156 L 35.949219 109.390625 L 35.703125 109.832031 L 35.4375 110.230469 L 35.148438 110.585938 L 34.835938 110.898438 L 34.496094 111.167969 L 34.136719 111.398438 L 33.753906 111.585938 L 33.347656 111.734375 L 32.914062 111.835938 L 32.460938 111.898438 L 31.984375 111.921875 L 31.5 111.898438 L 31.042969 111.835938 L 30.609375 111.734375 L 30.199219 111.585938 L 29.8125 111.398438 L 29.449219 111.167969 L 29.109375 110.898438 L 28.796875 110.585938 L 28.503906 110.230469 L 28.238281 109.832031 L 27.996094 109.390625 L 27.78125 108.910156 L 27.589844 108.390625 L 27.425781 107.832031 L 27.285156 107.234375 L 27.171875 106.597656 L 27.082031 105.921875 L 27.019531 105.210938 L 26.980469 104.457031 L 26.96875 103.664062 L 26.980469 102.875 L 27.019531 102.121094 L 27.082031 101.410156 L 27.171875 100.734375 L 27.285156 100.101562 L 27.425781 99.507812 L 27.589844 98.949219 L 27.78125 98.433594 L 27.996094 97.957031 L 28.238281 97.519531 L 28.503906 97.125 L 28.796875 96.769531 L 29.109375 96.457031 L 29.449219 96.183594 L 29.8125 95.957031 L 30.199219 95.765625 L 30.609375 95.621094 L 31.042969 95.515625 L 31.5 95.453125 Z M 31.984375 96.585938 L 31.304688 96.65625 L 30.695312 96.867188 L 30.160156 97.222656 L 29.695312 97.71875 L 29.300781 98.355469 L 28.980469 99.132812 L 28.730469 100.054688 L 28.550781 101.117188 L 28.441406 102.320312 L 28.40625 103.664062 L 28.441406 105.015625 L 28.550781 106.222656 L 28.730469 107.289062 L 28.980469 108.210938 L 29.300781 108.992188 L 29.695312 109.632812 L 30.160156 110.128906 L 30.695312 110.484375 L 31.304688 110.699219 L 31.984375 110.769531 L 32.324219 110.75 L 32.648438 110.699219 L 32.957031 110.613281 L 33.246094 110.492188 L 33.519531 110.335938 L 33.773438 110.148438 L 34.011719 109.921875 L 34.234375 109.664062 L 34.4375 109.371094 L 34.625 109.042969 L 34.796875 108.675781 L 34.953125 108.273438 L 35.089844 107.832031 L 35.207031 107.355469 L 35.308594 106.839844 L 35.390625 106.285156 L 35.453125 105.691406 L 35.5 105.0625 L 35.527344 104.394531 L 35.535156 103.6875 L 35.527344 102.984375 L 35.5 102.316406 L 35.453125 101.683594 L 35.390625 101.09375 L 35.308594 100.539062 L 35.207031 100.023438 L 35.089844 99.542969 L 34.953125 99.105469 L 34.796875 98.703125 L 34.625 98.335938 L 34.4375 98.003906 L 34.234375 97.707031 L 34.011719 97.445312 L 33.773438 97.214844 L 33.519531 97.023438 L 33.246094 96.867188 L 32.957031 96.742188 L 32.648438 96.65625 L 32.324219 96.601562 Z M 31.984375 96.585938 "/>
<path fill-rule="nonzero" fill="rgb(10.196078%, 10.196078%, 10.196078%)" fill-opacity="1" d="M 152.78125 361.90625 L 153.261719 361.925781 L 153.722656 361.988281 L 154.15625 362.09375 L 154.566406 362.242188 L 154.953125 362.433594 L 155.316406 362.664062 L 155.652344 362.9375 L 155.96875 363.257812 L 156.257812 363.617188 L 156.523438 364.015625 L 156.765625 364.453125 L 156.984375 364.929688 L 157.171875 365.445312 L 157.339844 366 L 157.480469 366.597656 L 157.59375 367.230469 L 157.683594 367.902344 L 157.746094 368.617188 L 157.785156 369.367188 L 157.796875 370.160156 L 157.785156 370.949219 L 157.746094 371.695312 L 157.679688 372.40625 L 157.589844 373.078125 L 157.472656 373.710938 L 157.332031 374.308594 L 157.160156 374.863281 L 156.96875 375.382812 L 156.746094 375.863281 L 156.5 376.304688 L 156.234375 376.703125 L 155.945312 377.054688 L 155.632812 377.371094 L 155.296875 377.640625 L 154.933594 377.871094 L 154.550781 378.058594 L 154.144531 378.203125 L 153.714844 378.308594 L 153.257812 378.371094 L 152.78125 378.390625 L 152.296875 378.371094 L 151.839844 378.308594 L 151.40625 378.203125 L 150.996094 378.058594 L 150.609375 377.871094 L 150.246094 377.640625 L 149.90625 377.371094 L 149.59375 377.054688 L 149.304688 376.703125 L 149.035156 376.304688 L 148.796875 375.863281 L 148.578125 375.382812 L 148.386719 374.863281 L 148.222656 374.304688 L 148.082031 373.707031 L 147.96875 373.070312 L 147.878906 372.394531 L 147.816406 371.679688 L 147.777344 370.929688 L 147.765625 370.136719 L 147.777344 369.34375 L 147.816406 368.59375 L 147.878906 367.878906 L 147.96875 367.207031 L 148.082031 366.574219 L 148.222656 365.976562 L 148.386719 365.421875 L 148.578125 364.90625 L 148.796875 364.429688 L 149.035156 363.992188 L 149.304688 363.597656 L 149.59375 363.242188 L 149.90625 362.925781 L 150.246094 362.65625 L 150.609375 362.425781 L 150.996094 362.238281 L 151.40625 362.09375 L 151.839844 361.988281 L 152.296875 361.925781 Z M 152.78125 363.054688 L 152.101562 363.128906 L 151.492188 363.339844 L 150.957031 363.695312 L 150.492188 364.1875 L 150.097656 364.828125 L 149.777344 365.605469 L 149.527344 366.527344 L 149.347656 367.585938 L 149.242188 368.792969 L 149.203125 370.136719 L 149.242188 371.484375 L 149.347656 372.695312 L 149.527344 373.757812 L 149.777344 374.683594 L 150.097656 375.464844 L 150.492188 376.105469 L 150.957031 376.601562 L 151.492188 376.957031 L 152.101562 377.167969 L 152.78125 377.242188 L 153.121094 377.222656 L 153.445312 377.171875 L 153.753906 377.085938 L 154.042969 376.964844 L 154.316406 376.808594 L 154.570312 376.617188 L 154.808594 376.394531 L 155.03125 376.132812 L 155.234375 375.839844 L 155.421875 375.511719 L 155.59375 375.148438 L 155.75 374.746094 L 155.886719 374.304688 L 156.003906 373.828125 L 156.105469 373.3125 L 156.1875 372.757812 L 156.25 372.164062 L 156.296875 371.535156 L 156.324219 370.867188 L 156.332031 370.160156 L 156.324219 369.453125 L 156.296875 368.785156 L 156.25 368.15625 L 156.1875 367.566406 L 156.105469 367.011719 L 156.003906 366.496094 L 155.886719 366.015625 L 155.75 365.574219 L 155.59375 365.171875 L 155.421875 364.808594 L 155.234375 364.476562 L 155.03125 364.179688 L 154.808594 363.914062 L 154.570312 363.6875 L 154.316406 363.496094 L 154.042969 363.335938 L 153.753906 363.214844 L 153.445312 363.125 L 153.121094 363.074219 Z M 152.78125 363.054688 "/>
<path fill-rule="nonzero" fill="rgb(10.196078%, 10.196078%, 10.196078%)" fill-opacity="1" d="M 390.558594 362.167969 L 390.558594 378.128906 L 389.167969 378.128906 L 389.167969 363.703125 L 385.230469 366.152344 L 384.582031 365.121094 L 389.359375 362.167969 Z M 390.558594 362.167969 "/>
</svg>
