<?xml version="1.0" encoding="UTF-8"?>
<svg xmlns="http://www.w3.org/2000/svg" xmlns:xlink="http://www.w3.org/1999/xlink" width="504" height="396" viewBox="0 0 504 396">
<defs>
<clipPath id="clip-0">
<path clip-rule="nonzero" d="M 55.21875 14.945312 L 489.058594 14.945312 L 489.058594 342.6875 L 55.21875 342.6875 Z M 55.21875 14.945312 "/>
</clipPath>
<clipPath id="clip-1">
<path clip-rule="nonzero" d="M 55.21875 326 L 489.058594 326 L 489.058594 330 L 55.21875 330 Z M 55.21875 326 "/>
</clipPath>
<clipPath id="clip-2">
<path clip-rule="nonzero" d="M 55.21875 213 L 489.058594 213 L 489.058594 217 L 55.21875 217 Z M 55.21875 213 "/>
</clipPath>
<clipPath id="clip-3">
<path clip-rule="nonzero" d="M 55.21875 101 L 489.058594 101 L 489.058594 105 L 55.21875 105 Z M 55.21875 101 "/>
</clipPath>
<clipPath id="clip-4">
<path clip-rule="nonzero" d="M 154 14.945312 L 158 14.945312 L 158 342.6875 L 154 342.6875 Z M 154 14.945312 "/>
</clipPath>
<clipPath id="clip-5">
<path clip-rule="nonzero" d="M 386 14.945312 L 390 14.945312 L 390 342.6875 L 386 342.6875 Z M 386 14.945312 "/>
</clipPath>
</defs>
<rect x="-50.4" y="-39.6" width="604.8" height="475.2" fill="rgb(100%, 100%, 100%)" fill-opacity="1"/>
<rect x="-50.4" y="-39.6" width="604.8" height="475.2" fill="rgb(95.294118%, 95.294118%, 95.294118%)" fill-opacity="1"/>
<path fill="none" stroke-width="2.909941" stroke-linecap="round" stroke-linejoin="round" stroke="rgb(95.294118%, 95.294118%, 95.294118%)" stroke-opacity="1" stroke-miterlimit="10" d="M 0 396 L 504 396 L 504 0 L 0 0 Z M 0 396 "/>
<g clip-path="url(#clip-0)">
<path fill-rule="nonzero" fill="rgb(95.294118%, 95.294118%, 95.294118%)" fill-opacity="1" stroke-width="2.909941" stroke-linecap="round" stroke-linejoin="round" stroke="rgb(95.294118%, 95.294118%, 95.294118%)" stroke-opacity="1" stroke-miterlimit="10" d="M 55.21875 342.6875 L 489.058594 342.6875 L 489.058594 14.945312 L 55.21875 14.945312 Z M 55.21875 342.6875 "/>
</g>
<g clip-path="url(#clip-1)">
<path fill="none" stroke-width="2.909941" stroke-linecap="butt" stroke-linejoin="round" stroke="rgb(92.156863%, 92.156863%, 92.156863%)" stroke-opacity="1" stroke-miterlimit="10" d="M 55.21875 327.789062 L 489.054688 327.789062 "/>
</g>
<g clip-path="url(#clip-2)">
<path fill="none" stroke-width="2.909941" stroke-linecap="butt" stroke-linejoin="round" stroke="rgb(92.156863%, 92.156863%, 92.156863%)" stroke-opacity="1" stroke-miterlimit="10" d="M 55.21875 215.355469 L 489.054688 215.355469 "/>
</g>
<g clip-path="url(#clip-3)">
<path fill="none" stroke-width="2.909941" stroke-linecap="butt" stroke-linejoin="round" stroke="rgb(92.156863%, 92.156863%, 92.156863%)" stroke-opacity="1" stroke-miterlimit="10" d="M 55.21875 102.921875 L 489.054688 102.921875 "/>
</g>
<g clip-path="url(#clip-4)">
<path fill="none" stroke-width="2.909941" stroke-linecap="butt" stroke-linejoin="round" stroke="rgb(92.156863%, 92.156863%, 92.156863%)" stroke-opacity="1" stroke-miterlimit="10" d="M 156.136719 342.6875 L 156.136719 14.945312 "/>
</g>
<g clip-path="url(#clip-5)">
<path fill="none" stroke-width="2.909941" stroke-linecap="butt" stroke-linejoin="round" stroke="rgb(92.156863%, 92.156863%, 92.156863%)" stroke-opacity="1" stroke-miterlimit="10" d="M 388.136719 342.6875 L 388.136719 14.945312 "/>
</g>
<path fill-rule="nonzero" fill="rgb(56.078431%, 16.470588%, 26.27451%)" fill-opacity="1" d="M 74.9375 327.789062 L 237.335938 327.789062 L 237.335938 63.570312 L 74.9375 63.570312 Z M 74.9375 327.789062 "/>
<path fill-rule="nonzero" fill="rgb(56.078431%, 16.470588%, 26.27451%)" fill-opacity="1" d="M 306.9375 327.789062 L 469.335938 327.789062 L 469.335938 29.839844 L 306.9375 29.839844 Z M 306.9375 327.789062 "/>
<path fill-rule="nonzero" fill="rgb(10.196078%, 10.196078%, 10.196078%)" fill-opacity="1" d="M 35.046875 337.351562 L 34.550781 337.328125 L 34.074219 337.253906 L 33.621094 337.132812 L 33.191406 336.960938 L 32.785156 336.742188 L 32.402344 336.472656 L 32.042969 336.15625 L 31.707031 335.792969 L 31.390625 335.378906 L 31.101562 334.914062 L 30.832031 334.40625 L 30.597656 333.859375 L 30.386719 333.269531 L 30.203125 332.640625 L 30.050781 331.96875 L 29.925781 331.257812 L 29.824219 330.503906 L 29.757812 329.710938 L 29.714844 328.875 L 29.699219 328 L 29.714844 327.128906 L 29.757812 326.300781 L 29.824219 325.515625 L 29.925781 324.769531 L 30.050781 324.066406 L 30.203125 323.402344 L 30.386719 322.78125 L 30.597656 322.203125 L 30.832031 321.664062 L 31.101562 321.167969 L 31.390625 320.714844 L 31.707031 320.308594 L 32.042969 319.953125 L 32.402344 319.644531 L 32.785156 319.382812 L 33.191406 319.167969 L 33.621094 319 L 34.074219 318.882812 L 34.550781 318.8125 L 35.046875 318.785156 L 35.550781 318.8125 L 36.03125 318.882812 L 36.484375 319 L 36.917969 319.167969 L 37.324219 319.382812 L 37.707031 319.644531 L 38.0625 319.953125 L 38.398438 320.308594 L 38.710938 320.714844 L 38.996094 321.167969 L 39.261719 321.664062 L 39.5 322.203125 L 39.710938 322.78125 L 39.890625 323.402344 L 40.046875 324.066406 L 40.171875 324.769531 L 40.269531 325.515625 L 40.339844 326.300781 L 40.382812 327.128906 L 40.394531 328 L 40.382812 328.875 L 40.339844 329.710938 L 40.269531 330.503906 L 40.171875 331.257812 L 40.046875 331.96875 L 39.890625 332.640625 L 39.710938 333.269531 L 39.5 333.859375 L 39.261719 334.40625 L 38.996094 334.914062 L 38.710938 335.378906 L 38.398438 335.792969 L 38.0625 336.15625 L 37.707031 336.472656 L 37.324219 336.742188 L 36.917969 336.960938 L 36.484375 337.132812 L 36.03125 337.253906 L 35.550781 337.328125 Z M 35.046875 336.285156 L 35.414062 336.265625 L 35.765625 336.203125 L 36.101562 336.097656 L 36.421875 335.949219 L 36.726562 335.761719 L 37.015625 335.53125 L 37.289062 335.257812 L 37.546875 334.941406 L 37.789062 334.585938 L 38.015625 334.1875 L 38.230469 333.746094 L 38.417969 333.265625 L 38.585938 332.75 L 38.734375 332.1875 L 38.855469 331.589844 L 38.957031 330.953125 L 39.035156 330.273438 L 39.089844 329.554688 L 39.125 328.796875 L 39.136719 328 L 39.125 327.203125 L 39.089844 326.445312 L 39.035156 325.734375 L 38.957031 325.058594 L 38.855469 324.429688 L 38.734375 323.839844 L 38.585938 323.292969 L 38.417969 322.785156 L 38.230469 322.320312 L 38.015625 321.894531 L 37.789062 321.507812 L 37.546875 321.160156 L 37.289062 320.851562 L 37.015625 320.585938 L 36.726562 320.363281 L 36.421875 320.179688 L 36.101562 320.035156 L 35.765625 319.933594 L 35.414062 319.871094 L 35.046875 319.851562 L 34.6875 319.871094 L 34.335938 319.933594 L 34.003906 320.035156 L 33.6875 320.179688 L 33.382812 320.363281 L 33.09375 320.585938 L 32.816406 320.851562 L 32.558594 321.160156 L 32.3125 321.507812 L 32.078125 321.894531 L 31.867188 322.320312 L 31.675781 322.785156 L 31.507812 323.292969 L 31.363281 323.839844 L 31.238281 324.429688 L 31.140625 325.058594 L 31.0625 325.734375 L 31.003906 326.445312 L 30.972656 327.203125 L 30.960938 328 L 30.972656 328.796875 L 31.003906 329.554688 L 31.0625 330.273438 L 31.140625 330.953125 L 31.238281 331.589844 L 31.363281 332.1875 L 31.507812 332.75 L 31.675781 333.265625 L 31.867188 333.746094 L 32.078125 334.1875 L 32.3125 334.585938 L 32.558594 334.941406 L 32.816406 335.257812 L 33.09375 335.53125 L 33.382812 335.761719 L 33.6875 335.949219 L 34.003906 336.097656 L 34.335938 336.203125 L 34.6875 336.265625 Z M 35.046875 336.285156 "/>
<path fill-rule="nonzero" fill="rgb(10.196078%, 10.196078%, 10.196078%)" fill-opacity="1" d="M 16.09375 224.582031 L 16.09375 223.796875 L 16.671875 223.207031 L 17.230469 222.632812 L 17.769531 222.074219 L 18.289062 221.53125 L 18.785156 221.003906 L 19.265625 220.496094 L 19.726562 220 L 20.167969 219.523438 L 20.589844 219.0625 L 20.992188 218.617188 L 21.375 218.179688 L 21.738281 217.753906 L 22.078125 217.332031 L 22.402344 216.925781 L 22.707031 216.523438 L 22.992188 216.136719 L 23.253906 215.753906 L 23.5 215.382812 L 23.726562 215.023438 L 23.933594 214.671875 L 24.117188 214.324219 L 24.285156 213.984375 L 24.433594 213.644531 L 24.558594 213.3125 L 24.667969 212.984375 L 24.753906 212.65625 L 24.824219 212.335938 L 24.871094 212.019531 L 24.902344 211.703125 L 24.910156 211.394531 L 24.902344 211.0625 L 24.875 210.742188 L 24.828125 210.433594 L 24.757812 210.136719 L 24.675781 209.847656 L 24.570312 209.570312 L 24.445312 209.300781 L 24.300781 209.046875 L 24.140625 208.800781 L 23.960938 208.566406 L 23.765625 208.347656 L 23.546875 208.152344 L 23.308594 207.980469 L 23.046875 207.832031 L 22.761719 207.703125 L 22.457031 207.601562 L 22.132812 207.519531 L 21.78125 207.464844 L 21.414062 207.429688 L 21.019531 207.417969 L 20.78125 207.425781 L 20.542969 207.445312 L 20.308594 207.476562 L 20.074219 207.527344 L 19.84375 207.585938 L 19.617188 207.660156 L 19.390625 207.746094 L 19.164062 207.847656 L 18.945312 207.960938 L 18.722656 208.089844 L 18.515625 208.226562 L 18.308594 208.371094 L 18.109375 208.523438 L 17.914062 208.679688 L 17.722656 208.847656 L 17.539062 209.015625 L 17.359375 209.195312 L 17.183594 209.378906 L 17.011719 209.570312 L 16.847656 209.769531 L 16.035156 208.984375 L 16.238281 208.765625 L 16.449219 208.550781 L 16.660156 208.347656 L 16.878906 208.148438 L 17.101562 207.957031 L 17.328125 207.773438 L 17.558594 207.597656 L 17.792969 207.425781 L 18.03125 207.265625 L 18.277344 207.109375 L 18.527344 206.964844 L 18.785156 206.835938 L 19.050781 206.722656 L 19.324219 206.625 L 19.605469 206.542969 L 19.894531 206.476562 L 20.191406 206.421875 L 20.496094 206.382812 L 20.8125 206.363281 L 21.132812 206.355469 L 21.601562 206.367188 L 22.050781 206.410156 L 22.476562 206.476562 L 22.882812 206.574219 L 23.265625 206.695312 L 23.628906 206.847656 L 23.96875 207.027344 L 24.285156 207.230469 L 24.582031 207.464844 L 24.855469 207.726562 L 25.105469 208.007812 L 25.328125 208.3125 L 25.527344 208.628906 L 25.699219 208.96875 L 25.84375 209.320312 L 25.960938 209.695312 L 26.054688 210.085938 L 26.121094 210.496094 L 26.160156 210.921875 L 26.171875 211.367188 L 26.160156 211.71875 L 26.128906 212.074219 L 26.078125 212.429688 L 26.007812 212.785156 L 25.914062 213.144531 L 25.800781 213.503906 L 25.664062 213.863281 L 25.507812 214.222656 L 25.332031 214.585938 L 25.136719 214.949219 L 24.925781 215.316406 L 24.699219 215.6875 L 24.457031 216.066406 L 24.195312 216.449219 L 23.917969 216.839844 L 23.625 217.234375 L 23.3125 217.636719 L 22.984375 218.042969 L 22.640625 218.453125 L 22.28125 218.871094 L 21.910156 219.296875 L 21.523438 219.730469 L 21.128906 220.179688 L 20.714844 220.636719 L 20.292969 221.101562 L 19.855469 221.582031 L 19.402344 222.070312 L 18.9375 222.570312 L 18.460938 223.082031 L 17.96875 223.601562 L 18.113281 223.589844 L 18.261719 223.582031 L 18.40625 223.570312 L 18.703125 223.554688 L 18.851562 223.542969 L 19 223.539062 L 19.152344 223.53125 L 19.300781 223.523438 L 19.453125 223.519531 L 19.609375 223.507812 L 19.761719 223.496094 L 19.917969 223.488281 L 20.070312 223.480469 L 20.222656 223.476562 L 20.371094 223.472656 L 20.523438 223.46875 L 20.671875 223.464844 L 20.816406 223.460938 L 27.066406 223.460938 L 27.066406 224.582031 Z M 16.09375 224.582031 "/>
<path fill-rule="nonzero" fill="rgb(10.196078%, 10.196078%, 10.196078%)" fill-opacity="1" d="M 35.046875 224.917969 L 34.550781 224.894531 L 34.074219 224.820312 L 33.621094 224.699219 L 33.191406 224.527344 L 32.785156 224.308594 L 32.402344 224.042969 L 32.042969 223.722656 L 31.707031 223.359375 L 31.390625 222.945312 L 31.101562 222.480469 L 30.832031 221.972656 L 30.597656 221.425781 L 30.386719 220.835938 L 30.203125 220.207031 L 30.050781 219.535156 L 29.925781 218.824219 L 29.824219 218.070312 L 29.757812 217.277344 L 29.714844 216.441406 L 29.699219 215.566406 L 29.714844 214.695312 L 29.757812 213.867188 L 29.824219 213.082031 L 29.925781 212.335938 L 30.050781 211.632812 L 30.203125 210.96875 L 30.386719 210.347656 L 30.597656 209.769531 L 30.832031 209.230469 L 31.101562 208.734375 L 31.390625 208.28125 L 31.707031 207.878906 L 32.042969 207.519531 L 32.402344 207.210938 L 32.785156 206.949219 L 33.191406 206.734375 L 33.621094 206.566406 L 34.074219 206.449219 L 34.550781 206.378906 L 35.046875 206.355469 L 35.550781 206.378906 L 36.03125 206.449219 L 36.484375 206.566406 L 36.917969 206.734375 L 37.324219 206.949219 L 37.707031 207.210938 L 38.0625 207.519531 L 38.398438 207.878906 L 38.710938 208.28125 L 38.996094 208.734375 L 39.261719 209.230469 L 39.5 209.769531 L 39.710938 210.347656 L 39.890625 210.96875 L 40.046875 211.632812 L 40.171875 212.335938 L 40.269531 213.082031 L 40.339844 213.867188 L 40.382812 214.695312 L 40.394531 215.566406 L 40.382812 216.441406 L 40.339844 217.277344 L 40.269531 218.070312 L 40.171875 218.824219 L 40.046875 219.535156 L 39.890625 220.207031 L 39.710938 220.835938 L 39.5 221.425781 L 39.261719 221.972656 L 38.996094 222.480469 L 38.710938 222.945312 L 38.398438 223.359375 L 38.0625 223.722656 L 37.707031 224.042969 L 37.324219 224.308594 L 36.917969 224.527344 L 36.484375 224.699219 L 36.03125 224.820312 L 35.550781 224.894531 Z M 35.046875 223.855469 L 35.414062 223.832031 L 35.765625 223.769531 L 36.101562 223.664062 L 36.421875 223.519531 L 36.726562 223.328125 L 37.015625 223.097656 L 37.289062 222.824219 L 37.546875 222.511719 L 37.789062 222.152344 L 38.015625 221.753906 L 38.230469 221.3125 L 38.417969 220.835938 L 38.585938 220.316406 L 38.734375 219.757812 L 38.855469 219.15625 L 38.957031 218.519531 L 39.035156 217.839844 L 39.089844 217.121094 L 39.125 216.363281 L 39.136719 215.566406 L 39.125 214.769531 L 39.089844 214.011719 L 39.035156 213.300781 L 38.957031 212.628906 L 38.855469 211.996094 L 38.734375 211.40625 L 38.585938 210.859375 L 38.417969 210.351562 L 38.230469 209.886719 L 38.015625 209.460938 L 37.789062 209.074219 L 37.546875 208.726562 L 37.289062 208.417969 L 37.015625 208.152344 L 36.726562 207.929688 L 36.421875 207.746094 L 36.101562 207.601562 L 35.765625 207.5 L 35.414062 207.4375 L 35.046875 207.417969 L 34.6875 207.4375 L 34.335938 207.5 L 34.003906 207.601562 L 33.6875 207.746094 L 33.382812 207.929688 L 33.09375 208.152344 L 32.816406 208.417969 L 32.558594 208.726562 L 32.3125 209.074219 L 32.078125 209.460938 L 31.867188 209.886719 L 31.675781 210.351562 L 31.507812 210.859375 L 31.363281 211.40625 L 31.238281 211.996094 L 31.140625 212.628906 L 31.0625 213.300781 L 31.003906 214.011719 L 30.972656 214.769531 L 30.960938 215.566406 L 30.972656 216.363281 L 31.003906 217.121094 L 31.0625 217.839844 L 31.140625 218.519531 L 31.238281 219.15625 L 31.363281 219.757812 L 31.507812 220.316406 L 31.675781 220.835938 L 31.867188 221.3125 L 32.078125 221.753906 L 32.3125 222.152344 L 32.558594 222.511719 L 32.816406 222.824219 L 33.09375 223.097656 L 33.382812 223.328125 L 33.6875 223.519531 L 34.003906 223.664062 L 34.335938 223.769531 L 34.6875 223.832031 Z M 35.046875 223.855469 "/>
<path fill-rule="nonzero" fill="rgb(10.196078%, 10.196078%, 10.196078%)" fill-opacity="1" d="M 16.902344 105.738281 L 23.625 105.738281 L 23.625 98.789062 L 23.628906 98.644531 L 23.632812 98.492188 L 23.632812 98.335938 L 23.636719 98.171875 L 23.640625 98.003906 L 23.648438 97.828125 L 23.652344 97.644531 L 23.664062 97.464844 L 23.671875 97.289062 L 23.683594 97.117188 L 23.691406 96.953125 L 23.699219 96.796875 L 23.710938 96.648438 L 23.714844 96.503906 L 23.722656 96.363281 L 23.730469 96.230469 L 23.734375 96.105469 L 23.625 96.105469 L 23.554688 96.214844 L 23.488281 96.328125 L 23.417969 96.4375 L 23.351562 96.546875 L 23.070312 96.984375 L 22.996094 97.089844 L 22.925781 97.195312 L 22.703125 97.523438 L 22.554688 97.75 L 22.476562 97.867188 L 22.402344 97.984375 L 22.324219 98.101562 L 22.167969 98.34375 Z M 23.625 112.148438 L 23.625 106.800781 L 15.390625 106.800781 L 15.390625 106.074219 L 23.707031 94.257812 L 24.828125 94.257812 L 24.828125 105.738281 L 27.488281 105.738281 L 27.488281 106.800781 L 24.828125 106.800781 L 24.828125 112.148438 Z M 23.625 112.148438 "/>
<path fill-rule="nonzero" fill="rgb(10.196078%, 10.196078%, 10.196078%)" fill-opacity="1" d="M 35.046875 112.484375 L 34.550781 112.460938 L 34.074219 112.386719 L 33.621094 112.265625 L 33.191406 112.09375 L 32.785156 111.875 L 32.402344 111.609375 L 32.042969 111.292969 L 31.707031 110.925781 L 31.390625 110.511719 L 31.101562 110.050781 L 30.832031 109.542969 L 30.597656 108.992188 L 30.386719 108.402344 L 30.203125 107.773438 L 30.050781 107.101562 L 29.925781 106.390625 L 29.824219 105.636719 L 29.757812 104.84375 L 29.714844 104.007812 L 29.699219 103.132812 L 29.714844 102.261719 L 29.757812 101.433594 L 29.824219 100.648438 L 29.925781 99.902344 L 30.050781 99.199219 L 30.203125 98.535156 L 30.386719 97.914062 L 30.597656 97.335938 L 30.832031 96.796875 L 31.101562 96.300781 L 31.390625 95.847656 L 31.707031 95.445312 L 32.042969 95.085938 L 32.402344 94.777344 L 32.785156 94.515625 L 33.191406 94.300781 L 33.621094 94.136719 L 34.074219 94.015625 L 34.550781 93.945312 L 35.046875 93.921875 L 35.550781 93.945312 L 36.03125 94.015625 L 36.484375 94.136719 L 36.917969 94.300781 L 37.324219 94.515625 L 37.707031 94.777344 L 38.0625 95.085938 L 38.398438 95.445312 L 38.710938 95.847656 L 38.996094 96.300781 L 39.261719 96.796875 L 39.5 97.335938 L 39.710938 97.914062 L 39.890625 98.535156 L 40.046875 99.199219 L 40.171875 99.902344 L 40.269531 100.648438 L 40.339844 101.433594 L 40.382812 102.261719 L 40.394531 103.132812 L 40.382812 104.007812 L 40.339844 104.84375 L 40.269531 105.636719 L 40.171875 106.390625 L 40.046875 107.101562 L 39.890625 107.773438 L 39.710938 108.402344 L 39.5 108.992188 L 39.261719 109.542969 L 38.996094 110.050781 L 38.710938 110.511719 L 38.398438 110.925781 L 38.0625 111.292969 L 37.707031 111.609375 L 37.324219 111.875 L 36.917969 112.09375 L 36.484375 112.265625 L 36.03125 112.386719 L 35.550781 112.460938 Z M 35.046875 111.421875 L 35.414062 111.398438 L 35.765625 111.335938 L 36.101562 111.230469 L 36.421875 111.085938 L 36.726562 110.894531 L 37.015625 110.664062 L 37.289062 110.390625 L 37.546875 110.078125 L 37.789062 109.71875 L 38.015625 109.320312 L 38.230469 108.882812 L 38.417969 108.402344 L 38.585938 107.882812 L 38.734375 107.324219 L 38.855469 106.722656 L 38.957031 106.085938 L 39.035156 105.40625 L 39.089844 104.6875 L 39.125 103.929688 L 39.136719 103.132812 L 39.125 102.335938 L 39.089844 101.582031 L 39.035156 100.867188 L 38.957031 100.195312 L 38.855469 99.5625 L 38.734375 98.972656 L 38.585938 98.425781 L 38.417969 97.917969 L 38.230469 97.453125 L 38.015625 97.027344 L 37.789062 96.640625 L 37.546875 96.292969 L 37.289062 95.988281 L 37.015625 95.722656 L 36.726562 95.496094 L 36.421875 95.3125 L 36.101562 95.167969 L 35.765625 95.066406 L 35.414062 95.003906 L 35.046875 94.984375 L 34.6875 95.003906 L 34.335938 95.066406 L 34.003906 95.167969 L 33.6875 95.3125 L 33.382812 95.496094 L 33.09375 95.722656 L 32.816406 95.988281 L 32.558594 96.292969 L 32.3125 96.640625 L 32.078125 97.027344 L 31.867188 97.453125 L 31.675781 97.917969 L 31.507812 98.425781 L 31.363281 98.972656 L 31.238281 99.5625 L 31.140625 100.195312 L 31.0625 100.867188 L 31.003906 101.582031 L 30.972656 102.335938 L 30.960938 103.132812 L 30.972656 103.929688 L 31.003906 104.6875 L 31.0625 105.40625 L 31.140625 106.085938 L 31.238281 106.722656 L 31.363281 107.324219 L 31.507812 107.882812 L 31.675781 108.402344 L 31.867188 108.882812 L 32.078125 109.320312 L 32.3125 109.71875 L 32.558594 110.078125 L 32.816406 110.390625 L 33.09375 110.664062 L 33.382812 110.894531 L 33.6875 111.085938 L 34.003906 111.230469 L 34.335938 111.335938 L 34.6875 111.398438 Z M 35.046875 111.421875 "/>
<path fill-rule="nonzero" fill="rgb(10.196078%, 10.196078%, 10.196078%)" fill-opacity="1" d="M 156.125 374.925781 L 155.625 374.898438 L 155.148438 374.828125 L 154.699219 374.703125 L 154.269531 374.535156 L 153.863281 374.316406 L 153.480469 374.046875 L 153.117188 373.730469 L 152.78125 373.363281 L 152.464844 372.949219 L 152.175781 372.488281 L 151.910156 371.980469 L 151.671875 371.433594 L 151.460938 370.84375 L 151.277344 370.210938 L 151.125 369.542969 L 151 368.828125 L 150.902344 368.074219 L 150.832031 367.28125 L 150.789062 366.449219 L 150.773438 365.570312 L 150.789062 364.703125 L 150.832031 363.875 L 150.902344 363.085938 L 151 362.34375 L 151.125 361.636719 L 151.277344 360.976562 L 151.460938 360.355469 L 151.671875 359.773438 L 151.910156 359.238281 L 152.175781 358.738281 L 152.464844 358.289062 L 152.78125 357.882812 L 153.117188 357.527344 L 153.480469 357.21875 L 153.863281 356.953125 L 154.269531 356.742188 L 154.699219 356.574219 L 155.148438 356.457031 L 155.625 356.382812 L 156.125 356.359375 L 156.625 356.382812 L 157.105469 356.457031 L 157.558594 356.574219 L 157.992188 356.742188 L 158.398438 356.953125 L 158.78125 357.21875 L 159.140625 357.527344 L 159.472656 357.882812 L 159.785156 358.289062 L 160.070312 358.738281 L 160.335938 359.238281 L 160.574219 359.773438 L 160.785156 360.355469 L 160.96875 360.976562 L 161.121094 361.636719 L 161.246094 362.34375 L 161.34375 363.085938 L 161.414062 363.875 L 161.457031 364.703125 L 161.472656 365.570312 L 161.457031 366.449219 L 161.414062 367.28125 L 161.34375 368.074219 L 161.246094 368.828125 L 161.121094 369.542969 L 160.96875 370.210938 L 160.785156 370.84375 L 160.574219 371.433594 L 160.335938 371.980469 L 160.070312 372.488281 L 159.785156 372.949219 L 159.472656 373.363281 L 159.140625 373.730469 L 158.78125 374.046875 L 158.398438 374.316406 L 157.992188 374.535156 L 157.558594 374.703125 L 157.105469 374.828125 L 156.625 374.898438 Z M 156.125 373.859375 L 156.492188 373.839844 L 156.84375 373.777344 L 157.179688 373.671875 L 157.5 373.523438 L 157.804688 373.335938 L 158.09375 373.105469 L 158.367188 372.832031 L 158.621094 372.515625 L 158.863281 372.160156 L 159.089844 371.761719 L 159.304688 371.320312 L 159.496094 370.839844 L 159.664062 370.320312 L 159.808594 369.761719 L 159.929688 369.164062 L 160.03125 368.523438 L 160.109375 367.847656 L 160.167969 367.128906 L 160.199219 366.371094 L 160.210938 365.570312 L 160.199219 364.773438 L 160.167969 364.019531 L 160.109375 363.304688 L 160.03125 362.632812 L 159.929688 362.003906 L 159.808594 361.414062 L 159.664062 360.863281 L 159.496094 360.355469 L 159.304688 359.890625 L 159.089844 359.46875 L 158.863281 359.078125 L 158.621094 358.730469 L 158.367188 358.425781 L 158.09375 358.160156 L 157.804688 357.933594 L 157.5 357.75 L 157.179688 357.609375 L 156.84375 357.503906 L 156.492188 357.445312 L 156.125 357.425781 L 155.761719 357.445312 L 155.414062 357.503906 L 155.078125 357.609375 L 154.761719 357.75 L 154.457031 357.933594 L 154.167969 358.160156 L 153.894531 358.425781 L 153.632812 358.730469 L 153.386719 359.078125 L 153.15625 359.46875 L 152.941406 359.890625 L 152.753906 360.355469 L 152.582031 360.863281 L 152.4375 361.414062 L 152.316406 362.003906 L 152.214844 362.632812 L 152.136719 363.304688 L 152.078125 364.019531 L 152.046875 364.773438 L 152.035156 365.570312 L 152.046875 366.371094 L 152.078125 367.128906 L 152.136719 367.847656 L 152.214844 368.523438 L 152.316406 369.164062 L 152.4375 369.761719 L 152.582031 370.320312 L 152.753906 370.839844 L 152.941406 371.320312 L 153.15625 371.761719 L 153.386719 372.160156 L 153.632812 372.515625 L 153.894531 372.832031 L 154.167969 373.105469 L 154.457031 373.335938 L 154.761719 373.523438 L 155.078125 373.671875 L 155.414062 373.777344 L 155.761719 373.839844 Z M 156.125 373.859375 "/>
<path fill-rule="nonzero" fill="rgb(10.196078%, 10.196078%, 10.196078%)" fill-opacity="1" d="M 383.78125 374.589844 L 383.78125 373.496094 L 387.980469 373.496094 L 387.980469 358.65625 L 384.789062 358.65625 L 384.789062 357.816406 L 385.007812 357.777344 L 385.21875 357.734375 L 385.425781 357.691406 L 385.628906 357.644531 L 385.828125 357.597656 L 386.019531 357.550781 L 386.210938 357.5 L 386.394531 357.449219 L 386.574219 357.394531 L 386.75 357.339844 L 386.921875 357.28125 L 387.085938 357.226562 L 387.25 357.164062 L 387.40625 357.101562 L 387.554688 357.039062 L 387.703125 356.972656 L 387.84375 356.90625 L 387.976562 356.839844 L 388.109375 356.769531 L 388.234375 356.695312 L 389.242188 356.695312 L 389.242188 373.496094 L 393.132812 373.496094 L 393.132812 374.589844 Z M 383.78125 374.589844 "/>
</svg>
