<?xml version="1.0" encoding="UTF-8"?>
<svg xmlns="http://www.w3.org/2000/svg" xmlns:xlink="http://www.w3.org/1999/xlink" width="504" height="396" viewBox="0 0 504 396">
<defs>
<clipPath id="clip-0">
<path clip-rule="nonzero" d="M 41.804688 14.945312 L 489.054688 14.945312 L 489.054688 342.6875 L 41.804688 342.6875 Z M 41.804688 14.945312 "/>
</clipPath>
<clipPath id="clip-1">
<path clip-rule="nonzero" d="M 41.804688 326 L 489.054688 326 L 489.054688 330 L 41.804688 330 Z M 41.804688 326 "/>
</clipPath>
<clipPath id="clip-2">
<path clip-rule="nonzero" d="M 41.804688 245 L 489.054688 245 L 489.054688 248 L 41.804688 248 Z M 41.804688 245 "/>
</clipPath>
<clipPath id="clip-3">
<path clip-rule="nonzero" d="M 41.804688 163 L 489.054688 163 L 489.054688 167 L 41.804688 167 Z M 41.804688 163 "/>
</clipPath>
<clipPath id="clip-4">
<path clip-rule="nonzero" d="M 41.804688 82 L 489.054688 82 L 489.054688 86 L 41.804688 86 Z M 41.804688 82 "/>
</clipPath>
<clipPath id="clip-5">
<path clip-rule="nonzero" d="M 144 14.945312 L 148 14.945312 L 148 342.6875 L 144 342.6875 Z M 144 14.945312 "/>
</clipPath>
<clipPath id="clip-6">
<path clip-rule="nonzero" d="M 383 14.945312 L 387 14.945312 L 387 342.6875 L 383 342.6875 Z M 383 14.945312 "/>
</clipPath>
</defs>
<rect x="-50.4" y="-39.6" width="604.8" height="475.2" fill="rgb(100%, 100%, 100%)" fill-opacity="1"/>
<rect x="-50.4" y="-39.6" width="604.8" height="475.2" fill="rgb(95.294118%, 95.294118%, 95.294118%)" fill-opacity="1"/>
<path fill="none" stroke-width="2.909941" stroke-linecap="round" stroke-linejoin="round" stroke="rgb(95.294118%, 95.294118%, 95.294118%)" stroke-opacity="1" stroke-miterlimit="10" d="M 0 396 L 504 396 L 504 0 L 0 0 Z M 0 396 "/>
<g clip-path="url(#clip-0)">
<path fill-rule="nonzero" fill="rgb(95.294118%, 95.294118%, 95.294118%)" fill-opacity="1" stroke-width="2.909941" stroke-linecap="round" stroke-linejoin="round" stroke="rgb(95.294118%, 95.294118%, 95.294118%)" stroke-opacity="1" stroke-miterlimit="10" d="M 41.804688 342.6875 L 489.054688 342.6875 L 489.054688 14.945312 L 41.804688 14.945312 Z M 41.804688 342.6875 "/>
</g>
<g clip-path="url(#clip-1)">
<path fill="none" stroke-width="2.909941" stroke-linecap="butt" stroke-linejoin="round" stroke="rgb(92.156863%, 92.156863%, 92.156863%)" stroke-opacity="1" stroke-miterlimit="10" d="M 41.804688 327.789062 L 489.054688 327.789062 "/>
</g>
<g clip-path="url(#clip-2)">
<path fill="none" stroke-width="2.909941" stroke-linecap="butt" stroke-linejoin="round" stroke="rgb(92.156863%, 92.156863%, 92.156863%)" stroke-opacity="1" stroke-miterlimit="10" d="M 41.804688 246.53125 L 489.054688 246.53125 "/>
</g>
<g clip-path="url(#clip-3)">
<path fill="none" stroke-width="2.909941" stroke-linecap="butt" stroke-linejoin="round" stroke="rgb(92.156863%, 92.156863%, 92.156863%)" stroke-opacity="1" stroke-miterlimit="10" d="M 41.804688 165.273438 L 489.054688 165.273438 "/>
</g>
<g clip-path="url(#clip-4)">
<path fill="none" stroke-width="2.909941" stroke-linecap="butt" stroke-linejoin="round" stroke="rgb(92.156863%, 92.156863%, 92.156863%)" stroke-opacity="1" stroke-miterlimit="10" d="M 41.804688 84.011719 L 489.054688 84.011719 "/>
</g>
<g clip-path="url(#clip-5)">
<path fill="none" stroke-width="2.909941" stroke-linecap="butt" stroke-linejoin="round" stroke="rgb(92.156863%, 92.156863%, 92.156863%)" stroke-opacity="1" stroke-miterlimit="10" d="M 145.84375 342.6875 L 145.84375 14.945312 "/>
</g>
<g clip-path="url(#clip-6)">
<path fill="none" stroke-width="2.909941" stroke-linecap="butt" stroke-linejoin="round" stroke="rgb(92.156863%, 92.156863%, 92.156863%)" stroke-opacity="1" stroke-miterlimit="10" d="M 385.015625 342.6875 L 385.015625 14.945312 "/>
</g>
<path fill-rule="nonzero" fill="rgb(56.078431%, 16.470588%, 26.27451%)" fill-opacity="1" d="M 62.136719 327.789062 L 229.558594 327.789062 L 229.558594 29.839844 L 62.136719 29.839844 Z M 62.136719 327.789062 "/>
<path fill-rule="nonzero" fill="rgb(56.078431%, 16.470588%, 26.27451%)" fill-opacity="1" d="M 301.304688 327.789062 L 468.726562 327.789062 L 468.726562 84.011719 L 301.304688 84.011719 Z M 301.304688 327.789062 "/>
<path fill-rule="nonzero" fill="rgb(10.196078%, 10.196078%, 10.196078%)" fill-opacity="1" d="M 21.636719 337.351562 L 21.136719 337.328125 L 20.664062 337.253906 L 20.210938 337.132812 L 19.78125 336.960938 L 19.375 336.742188 L 18.992188 336.472656 L 18.632812 336.15625 L 18.292969 335.792969 L 17.980469 335.378906 L 17.6875 334.914062 L 17.421875 334.40625 L 17.183594 333.859375 L 16.972656 333.269531 L 16.792969 332.640625 L 16.636719 331.96875 L 16.511719 331.257812 L 16.414062 330.503906 L 16.34375 329.710938 L 16.300781 328.875 L 16.289062 328 L 16.300781 327.128906 L 16.34375 326.300781 L 16.414062 325.515625 L 16.511719 324.769531 L 16.636719 324.066406 L 16.792969 323.402344 L 16.972656 322.78125 L 17.183594 322.203125 L 17.421875 321.664062 L 17.6875 321.167969 L 17.980469 320.714844 L 18.292969 320.308594 L 18.632812 319.953125 L 18.992188 319.644531 L 19.375 319.382812 L 19.78125 319.167969 L 20.210938 319 L 20.664062 318.882812 L 21.136719 318.8125 L 21.636719 318.785156 L 22.140625 318.8125 L 22.617188 318.882812 L 23.074219 319 L 23.503906 319.167969 L 23.910156 319.382812 L 24.292969 319.644531 L 24.652344 319.953125 L 24.988281 320.308594 L 25.296875 320.714844 L 25.582031 321.167969 L 25.851562 321.664062 L 26.089844 322.203125 L 26.296875 322.78125 L 26.480469 323.402344 L 26.632812 324.066406 L 26.761719 324.769531 L 26.859375 325.515625 L 26.929688 326.300781 L 26.96875 327.128906 L 26.984375 328 L 26.96875 328.875 L 26.929688 329.710938 L 26.859375 330.503906 L 26.761719 331.257812 L 26.632812 331.96875 L 26.480469 332.640625 L 26.296875 333.269531 L 26.089844 333.859375 L 25.851562 334.40625 L 25.582031 334.914062 L 25.296875 335.378906 L 24.988281 335.792969 L 24.652344 336.15625 L 24.292969 336.472656 L 23.910156 336.742188 L 23.503906 336.960938 L 23.074219 337.132812 L 22.617188 337.253906 L 22.140625 337.328125 Z M 21.636719 336.285156 L 22.003906 336.265625 L 22.355469 336.203125 L 22.691406 336.097656 L 23.011719 335.949219 L 23.316406 335.761719 L 23.605469 335.53125 L 23.878906 335.257812 L 24.136719 334.941406 L 24.378906 334.585938 L 24.605469 334.1875 L 24.816406 333.746094 L 25.007812 333.265625 L 25.175781 332.75 L 25.320312 332.1875 L 25.445312 331.589844 L 25.542969 330.953125 L 25.625 330.273438 L 25.679688 329.554688 L 25.710938 328.796875 L 25.722656 328 L 25.710938 327.203125 L 25.679688 326.445312 L 25.625 325.734375 L 25.542969 325.058594 L 25.445312 324.429688 L 25.320312 323.839844 L 25.175781 323.292969 L 25.007812 322.785156 L 24.816406 322.320312 L 24.605469 321.894531 L 24.378906 321.507812 L 24.136719 321.160156 L 23.878906 320.851562 L 23.605469 320.585938 L 23.316406 320.363281 L 23.011719 320.179688 L 22.691406 320.035156 L 22.355469 319.933594 L 22.003906 319.871094 L 21.636719 319.851562 L 21.273438 319.871094 L 20.925781 319.933594 L 20.59375 320.035156 L 20.273438 320.179688 L 19.96875 320.363281 L 19.679688 320.585938 L 19.40625 320.851562 L 19.144531 321.160156 L 18.898438 321.507812 L 18.667969 321.894531 L 18.457031 322.320312 L 18.265625 322.785156 L 18.097656 323.292969 L 17.949219 323.839844 L 17.828125 324.429688 L 17.726562 325.058594 L 17.648438 325.734375 L 17.59375 326.445312 L 17.558594 327.203125 L 17.546875 328 L 17.558594 328.796875 L 17.59375 329.554688 L 17.648438 330.273438 L 17.726562 330.953125 L 17.828125 331.589844 L 17.949219 332.1875 L 18.097656 332.75 L 18.265625 333.265625 L 18.457031 333.746094 L 18.667969 334.1875 L 18.898438 334.585938 L 19.144531 334.941406 L 19.40625 335.257812 L 19.679688 335.53125 L 19.96875 335.761719 L 20.273438 335.949219 L 20.59375 336.097656 L 20.925781 336.203125 L 21.273438 336.265625 Z M 21.636719 336.285156 "/>
<path fill-rule="nonzero" fill="rgb(10.196078%, 10.196078%, 10.196078%)" fill-opacity="1" d="M 21.441406 256.09375 L 21.15625 256.089844 L 20.882812 256.078125 L 20.617188 256.058594 L 20.355469 256.035156 L 20.101562 256 L 19.855469 255.960938 L 19.617188 255.914062 L 19.386719 255.859375 L 19.164062 255.796875 L 18.949219 255.730469 L 18.738281 255.648438 L 18.535156 255.5625 L 18.335938 255.476562 L 18.140625 255.382812 L 17.953125 255.289062 L 17.773438 255.1875 L 17.59375 255.082031 L 17.425781 254.976562 L 17.257812 254.863281 L 17.101562 254.75 L 16.949219 254.632812 L 16.804688 254.511719 L 16.660156 254.394531 L 16.386719 254.160156 L 16.253906 254.042969 L 15.996094 253.808594 L 15.875 253.691406 L 15.757812 253.574219 L 16.484375 252.703125 L 16.648438 252.875 L 16.820312 253.046875 L 17 253.210938 L 17.1875 253.375 L 17.378906 253.539062 L 17.578125 253.695312 L 17.785156 253.851562 L 18 254.003906 L 18.21875 254.152344 L 18.445312 254.300781 L 18.679688 254.433594 L 18.929688 254.550781 L 19.195312 254.65625 L 19.472656 254.75 L 19.765625 254.824219 L 20.074219 254.886719 L 20.394531 254.9375 L 20.730469 254.972656 L 21.078125 254.992188 L 21.441406 255 L 21.796875 254.988281 L 22.140625 254.957031 L 22.472656 254.90625 L 22.792969 254.832031 L 23.097656 254.734375 L 23.390625 254.617188 L 23.671875 254.480469 L 23.941406 254.320312 L 24.195312 254.140625 L 24.4375 253.9375 L 24.660156 253.710938 L 24.859375 253.472656 L 25.035156 253.21875 L 25.1875 252.949219 L 25.316406 252.667969 L 25.421875 252.375 L 25.507812 252.066406 L 25.566406 251.742188 L 25.601562 251.402344 L 25.613281 251.050781 L 25.597656 250.691406 L 25.554688 250.339844 L 25.480469 250.007812 L 25.378906 249.6875 L 25.246094 249.378906 L 25.085938 249.085938 L 24.898438 248.808594 L 24.679688 248.542969 L 24.433594 248.292969 L 24.15625 248.054688 L 23.851562 247.839844 L 23.507812 247.644531 L 23.125 247.472656 L 22.703125 247.320312 L 22.246094 247.195312 L 21.746094 247.09375 L 21.210938 247.011719 L 20.632812 246.953125 L 20.019531 246.921875 L 19.367188 246.910156 L 19.367188 245.816406 L 19.773438 245.8125 L 20.164062 245.796875 L 20.535156 245.769531 L 20.890625 245.734375 L 21.230469 245.691406 L 21.550781 245.636719 L 21.855469 245.570312 L 22.144531 245.492188 L 22.417969 245.410156 L 22.671875 245.3125 L 22.910156 245.203125 L 23.136719 245.085938 L 23.347656 244.960938 L 23.546875 244.828125 L 23.730469 244.691406 L 23.898438 244.542969 L 24.054688 244.390625 L 24.195312 244.226562 L 24.324219 244.058594 L 24.4375 243.882812 L 24.535156 243.703125 L 24.628906 243.519531 L 24.707031 243.332031 L 24.777344 243.140625 L 24.835938 242.945312 L 24.882812 242.75 L 24.921875 242.546875 L 24.945312 242.34375 L 24.960938 242.136719 L 24.96875 241.925781 L 24.957031 241.628906 L 24.929688 241.34375 L 24.878906 241.074219 L 24.8125 240.8125 L 24.722656 240.566406 L 24.613281 240.332031 L 24.488281 240.109375 L 24.339844 239.898438 L 24.175781 239.703125 L 23.988281 239.515625 L 23.785156 239.339844 L 23.570312 239.183594 L 23.339844 239.046875 L 23.097656 238.925781 L 22.839844 238.824219 L 22.570312 238.742188 L 22.285156 238.675781 L 21.988281 238.628906 L 21.679688 238.601562 L 21.355469 238.59375 L 21.109375 238.597656 L 20.871094 238.617188 L 20.632812 238.644531 L 20.398438 238.6875 L 20.164062 238.738281 L 19.9375 238.804688 L 19.714844 238.878906 L 19.492188 238.96875 L 19.273438 239.070312 L 19.058594 239.179688 L 18.855469 239.296875 L 18.65625 239.414062 L 18.460938 239.539062 L 18.269531 239.667969 L 18.085938 239.804688 L 17.90625 239.941406 L 17.5625 240.238281 L 17.398438 240.394531 L 17.238281 240.550781 L 16.511719 239.710938 L 16.699219 239.535156 L 16.890625 239.363281 L 17.089844 239.199219 L 17.292969 239.035156 L 17.5 238.878906 L 17.710938 238.726562 L 17.929688 238.582031 L 18.152344 238.441406 L 18.378906 238.304688 L 18.613281 238.171875 L 18.855469 238.050781 L 19.105469 237.941406 L 19.363281 237.84375 L 19.628906 237.761719 L 19.898438 237.691406 L 20.175781 237.632812 L 20.460938 237.585938 L 20.753906 237.554688 L 21.050781 237.535156 L 21.355469 237.527344 L 21.632812 237.535156 L 21.902344 237.546875 L 22.167969 237.574219 L 22.425781 237.609375 L 22.679688 237.65625 L 22.925781 237.710938 L 23.164062 237.777344 L 23.398438 237.851562 L 23.625 237.9375 L 23.847656 238.03125 L 24.066406 238.136719 L 24.277344 238.253906 L 24.476562 238.378906 L 24.667969 238.511719 L 24.847656 238.65625 L 25.019531 238.808594 L 25.183594 238.972656 L 25.335938 239.144531 L 25.476562 239.324219 L 25.613281 239.515625 L 25.734375 239.710938 L 25.84375 239.914062 L 25.941406 240.125 L 26.023438 240.34375 L 26.09375 240.574219 L 26.152344 240.808594 L 26.199219 241.054688 L 26.230469 241.308594 L 26.25 241.570312 L 26.257812 241.839844 L 26.246094 242.1875 L 26.214844 242.519531 L 26.167969 242.839844 L 26.097656 243.144531 L 26.011719 243.4375 L 25.902344 243.714844 L 25.777344 243.980469 L 25.628906 244.234375 L 25.460938 244.472656 L 25.277344 244.695312 L 25.082031 244.902344 L 24.875 245.101562 L 24.65625 245.285156 L 24.429688 245.457031 L 24.191406 245.621094 L 23.941406 245.773438 L 23.683594 245.910156 L 23.414062 246.039062 L 23.132812 246.160156 L 22.839844 246.265625 L 22.839844 246.375 L 23.0625 246.425781 L 23.277344 246.484375 L 23.492188 246.546875 L 23.699219 246.621094 L 23.902344 246.707031 L 24.101562 246.796875 L 24.296875 246.894531 L 24.488281 247.003906 L 24.675781 247.121094 L 24.855469 247.246094 L 25.039062 247.371094 L 25.210938 247.503906 L 25.378906 247.644531 L 25.535156 247.792969 L 25.6875 247.945312 L 25.832031 248.105469 L 25.972656 248.273438 L 26.101562 248.445312 L 26.222656 248.625 L 26.339844 248.8125 L 26.445312 249.007812 L 26.542969 249.207031 L 26.625 249.410156 L 26.699219 249.625 L 26.761719 249.839844 L 26.808594 250.066406 L 26.847656 250.296875 L 26.878906 250.53125 L 26.894531 250.777344 L 26.898438 251.023438 L 26.894531 251.328125 L 26.871094 251.625 L 26.835938 251.914062 L 26.785156 252.195312 L 26.71875 252.464844 L 26.636719 252.730469 L 26.542969 252.988281 L 26.433594 253.238281 L 26.308594 253.480469 L 26.171875 253.710938 L 26.019531 253.9375 L 25.859375 254.152344 L 25.691406 254.355469 L 25.507812 254.546875 L 25.316406 254.726562 L 25.117188 254.898438 L 24.90625 255.058594 L 24.683594 255.207031 L 24.453125 255.347656 L 24.210938 255.476562 L 23.960938 255.59375 L 23.707031 255.699219 L 23.445312 255.789062 L 23.175781 255.871094 L 22.902344 255.9375 L 22.621094 255.992188 L 22.335938 256.039062 L 22.042969 256.066406 L 21.746094 256.085938 Z M 21.441406 256.09375 "/>
<path fill-rule="nonzero" fill="rgb(10.196078%, 10.196078%, 10.196078%)" fill-opacity="1" d="M 22.027344 164.753906 L 21.835938 164.761719 L 21.640625 164.777344 L 21.4375 164.808594 L 21.234375 164.851562 L 21.027344 164.90625 L 20.816406 164.976562 L 20.597656 165.054688 L 20.378906 165.148438 L 20.15625 165.253906 L 19.929688 165.371094 L 19.699219 165.496094 L 19.472656 165.640625 L 19.246094 165.804688 L 19.019531 165.984375 L 18.792969 166.183594 L 18.570312 166.398438 L 18.347656 166.632812 L 18.128906 166.882812 L 17.90625 167.15625 L 17.6875 167.441406 L 17.730469 167.996094 L 17.792969 168.53125 L 17.875 169.042969 L 17.976562 169.535156 L 18.09375 170.003906 L 18.230469 170.453125 L 18.390625 170.878906 L 18.566406 171.285156 L 18.761719 171.671875 L 18.976562 172.035156 L 19.210938 172.363281 L 19.464844 172.660156 L 19.742188 172.917969 L 20.042969 173.144531 L 20.363281 173.335938 L 20.703125 173.492188 L 21.066406 173.613281 L 21.449219 173.699219 L 21.855469 173.753906 L 22.28125 173.769531 L 22.484375 173.765625 L 22.683594 173.746094 L 22.882812 173.71875 L 23.074219 173.675781 L 23.261719 173.625 L 23.441406 173.558594 L 23.621094 173.480469 L 23.792969 173.394531 L 23.964844 173.292969 L 24.128906 173.183594 L 24.285156 173.054688 L 24.4375 172.921875 L 24.585938 172.777344 L 24.722656 172.625 L 24.855469 172.46875 L 24.980469 172.300781 L 25.101562 172.128906 L 25.210938 171.945312 L 25.316406 171.753906 L 25.414062 171.558594 L 25.507812 171.347656 L 25.585938 171.132812 L 25.660156 170.914062 L 25.71875 170.6875 L 25.773438 170.460938 L 25.816406 170.222656 L 25.847656 169.984375 L 25.871094 169.738281 L 25.886719 169.488281 L 25.890625 169.234375 L 25.882812 168.855469 L 25.855469 168.488281 L 25.808594 168.136719 L 25.742188 167.796875 L 25.660156 167.46875 L 25.558594 167.15625 L 25.4375 166.859375 L 25.300781 166.574219 L 25.144531 166.300781 L 24.96875 166.042969 L 24.777344 165.796875 L 24.5625 165.578125 L 24.328125 165.386719 L 24.066406 165.21875 L 23.785156 165.074219 L 23.480469 164.960938 L 23.152344 164.871094 L 22.800781 164.804688 L 22.425781 164.765625 Z M 22.253906 174.835938 L 21.726562 174.8125 L 21.21875 174.746094 L 20.738281 174.636719 L 20.277344 174.484375 L 19.835938 174.289062 L 19.417969 174.046875 L 19.023438 173.765625 L 18.648438 173.4375 L 18.296875 173.066406 L 17.96875 172.648438 L 17.671875 172.1875 L 17.402344 171.691406 L 17.167969 171.15625 L 16.964844 170.585938 L 16.792969 169.976562 L 16.652344 169.332031 L 16.542969 168.648438 L 16.460938 167.929688 L 16.414062 167.171875 L 16.398438 166.378906 L 16.40625 165.820312 L 16.421875 165.28125 L 16.449219 164.761719 L 16.484375 164.257812 L 16.53125 163.773438 L 16.589844 163.308594 L 16.660156 162.859375 L 16.742188 162.425781 L 16.832031 162.011719 L 16.933594 161.617188 L 17.042969 161.238281 L 17.160156 160.875 L 17.285156 160.527344 L 17.421875 160.195312 L 17.5625 159.875 L 17.710938 159.570312 L 17.867188 159.285156 L 18.035156 159.011719 L 18.207031 158.753906 L 18.386719 158.511719 L 18.574219 158.28125 L 18.769531 158.066406 L 18.964844 157.863281 L 19.167969 157.671875 L 19.375 157.496094 L 19.585938 157.332031 L 19.804688 157.179688 L 20.027344 157.039062 L 20.253906 156.914062 L 20.488281 156.800781 L 20.730469 156.699219 L 20.972656 156.609375 L 21.21875 156.53125 L 21.464844 156.460938 L 21.714844 156.402344 L 21.964844 156.355469 L 22.214844 156.316406 L 22.46875 156.292969 L 22.722656 156.277344 L 22.980469 156.269531 L 23.226562 156.273438 L 23.46875 156.289062 L 23.703125 156.3125 L 23.929688 156.347656 L 24.148438 156.390625 L 24.359375 156.441406 L 24.566406 156.503906 L 24.761719 156.574219 L 24.953125 156.65625 L 25.136719 156.746094 L 25.320312 156.84375 L 25.496094 156.949219 L 25.671875 157.058594 L 25.839844 157.175781 L 26.003906 157.300781 L 26.164062 157.429688 L 26.320312 157.5625 L 26.472656 157.703125 L 26.617188 157.851562 L 26.761719 158.007812 L 26.003906 158.847656 L 25.882812 158.703125 L 25.761719 158.570312 L 25.632812 158.441406 L 25.503906 158.320312 L 25.367188 158.210938 L 25.226562 158.105469 L 25.085938 158.003906 L 24.9375 157.914062 L 24.785156 157.832031 L 24.632812 157.753906 L 24.472656 157.679688 L 24.316406 157.613281 L 24.152344 157.554688 L 23.992188 157.503906 L 23.828125 157.460938 L 23.660156 157.425781 L 23.492188 157.398438 L 23.324219 157.378906 L 23.152344 157.367188 L 22.980469 157.363281 L 22.695312 157.371094 L 22.417969 157.394531 L 22.140625 157.4375 L 21.867188 157.496094 L 21.601562 157.570312 L 21.335938 157.664062 L 21.078125 157.773438 L 20.820312 157.898438 L 20.566406 158.042969 L 20.320312 158.203125 L 20.082031 158.382812 L 19.855469 158.582031 L 19.640625 158.804688 L 19.433594 159.050781 L 19.234375 159.316406 L 19.046875 159.601562 L 18.867188 159.914062 L 18.699219 160.246094 L 18.539062 160.597656 L 18.386719 160.972656 L 18.25 161.375 L 18.125 161.800781 L 18.015625 162.253906 L 17.921875 162.734375 L 17.84375 163.242188 L 17.777344 163.777344 L 17.726562 164.335938 L 17.6875 164.925781 L 17.667969 165.539062 L 17.660156 166.183594 L 17.847656 165.957031 L 18.039062 165.742188 L 18.238281 165.535156 L 18.441406 165.339844 L 18.648438 165.152344 L 18.859375 164.976562 L 19.078125 164.808594 L 19.300781 164.648438 L 19.527344 164.5 L 19.761719 164.363281 L 19.996094 164.234375 L 20.234375 164.121094 L 20.46875 164.019531 L 20.710938 163.933594 L 20.949219 163.859375 L 21.191406 163.796875 L 21.433594 163.75 L 21.675781 163.71875 L 21.921875 163.695312 L 22.167969 163.691406 L 22.628906 163.703125 L 23.066406 163.746094 L 23.484375 163.820312 L 23.882812 163.917969 L 24.261719 164.046875 L 24.617188 164.203125 L 24.953125 164.390625 L 25.269531 164.605469 L 25.5625 164.847656 L 25.835938 165.117188 L 26.085938 165.410156 L 26.308594 165.730469 L 26.507812 166.078125 L 26.679688 166.449219 L 26.824219 166.847656 L 26.941406 167.273438 L 27.035156 167.722656 L 27.097656 168.199219 L 27.140625 168.703125 L 27.152344 169.234375 L 27.144531 169.554688 L 27.125 169.871094 L 27.089844 170.175781 L 27.042969 170.476562 L 26.984375 170.765625 L 26.910156 171.050781 L 26.824219 171.328125 L 26.722656 171.597656 L 26.609375 171.863281 L 26.480469 172.117188 L 26.339844 172.363281 L 26.191406 172.601562 L 26.035156 172.828125 L 25.871094 173.042969 L 25.695312 173.246094 L 25.511719 173.4375 L 25.320312 173.621094 L 25.117188 173.792969 L 24.90625 173.957031 L 24.6875 174.105469 L 24.46875 174.246094 L 24.242188 174.367188 L 24.011719 174.476562 L 23.773438 174.570312 L 23.53125 174.652344 L 23.285156 174.71875 L 23.035156 174.769531 L 22.78125 174.804688 L 22.519531 174.828125 Z M 22.253906 174.835938 "/>
<path fill-rule="nonzero" fill="rgb(10.196078%, 10.196078%, 10.196078%)" fill-opacity="1" d="M 17.378906 80.582031 L 17.390625 80.96875 L 17.417969 81.339844 L 17.464844 81.699219 L 17.527344 82.042969 L 17.609375 82.375 L 17.710938 82.695312 L 17.832031 83 L 17.972656 83.289062 L 18.128906 83.566406 L 18.304688 83.832031 L 18.5 84.070312 L 18.71875 84.285156 L 18.960938 84.472656 L 19.222656 84.636719 L 19.507812 84.777344 L 19.816406 84.890625 L 20.144531 84.976562 L 20.5 85.042969 L 20.875 85.078125 L 21.273438 85.089844 L 21.46875 85.085938 L 21.671875 85.066406 L 21.875 85.035156 L 22.082031 84.988281 L 22.292969 84.929688 L 22.507812 84.859375 L 22.726562 84.777344 L 22.949219 84.679688 L 23.171875 84.570312 L 23.398438 84.449219 L 23.632812 84.3125 L 23.863281 84.160156 L 24.09375 83.992188 L 24.320312 83.808594 L 24.539062 83.609375 L 24.761719 83.394531 L 24.976562 83.160156 L 25.191406 82.914062 L 25.402344 82.652344 L 25.613281 82.375 L 25.570312 81.820312 L 25.503906 81.289062 L 25.421875 80.777344 L 25.320312 80.289062 L 25.199219 79.820312 L 25.058594 79.375 L 24.898438 78.953125 L 24.714844 78.550781 L 24.515625 78.167969 L 24.296875 77.8125 L 24.0625 77.480469 L 23.804688 77.1875 L 23.527344 76.925781 L 23.230469 76.699219 L 22.910156 76.507812 L 22.570312 76.351562 L 22.207031 76.230469 L 21.824219 76.144531 L 21.417969 76.09375 L 20.992188 76.074219 L 20.792969 76.082031 L 20.59375 76.101562 L 20.402344 76.132812 L 20.210938 76.175781 L 20.027344 76.230469 L 19.84375 76.296875 L 19.664062 76.378906 L 19.488281 76.46875 L 19.3125 76.574219 L 19.144531 76.691406 L 18.984375 76.8125 L 18.832031 76.945312 L 18.6875 77.082031 L 18.546875 77.230469 L 18.414062 77.382812 L 18.289062 77.546875 L 18.171875 77.71875 L 18.058594 77.902344 L 17.953125 78.089844 L 17.855469 78.289062 L 17.765625 78.492188 L 17.683594 78.703125 L 17.613281 78.917969 L 17.550781 79.140625 L 17.5 79.367188 L 17.457031 79.597656 L 17.421875 79.835938 L 17.398438 80.078125 L 17.382812 80.328125 Z M 20.292969 93.574219 L 20.046875 93.570312 L 19.808594 93.554688 L 19.578125 93.53125 L 19.351562 93.5 L 19.128906 93.457031 L 18.914062 93.40625 L 18.703125 93.34375 L 18.5 93.269531 L 18.300781 93.191406 L 18.109375 93.101562 L 17.925781 93 L 17.75 92.898438 L 17.578125 92.785156 L 17.410156 92.667969 L 17.246094 92.546875 L 17.089844 92.417969 L 16.9375 92.28125 L 16.789062 92.140625 L 16.648438 91.992188 L 16.511719 91.839844 L 17.269531 91 L 17.386719 91.140625 L 17.511719 91.277344 L 17.636719 91.40625 L 17.769531 91.527344 L 17.90625 91.644531 L 18.042969 91.753906 L 18.1875 91.855469 L 18.335938 91.949219 L 18.484375 92.039062 L 18.640625 92.121094 L 18.804688 92.1875 L 18.96875 92.25 L 19.132812 92.304688 L 19.296875 92.351562 L 19.464844 92.394531 L 19.632812 92.425781 L 19.804688 92.449219 L 19.976562 92.46875 L 20.148438 92.480469 L 20.320312 92.484375 L 20.601562 92.476562 L 20.882812 92.449219 L 21.15625 92.40625 L 21.425781 92.347656 L 21.691406 92.273438 L 21.953125 92.179688 L 22.210938 92.070312 L 22.460938 91.945312 L 22.707031 91.804688 L 22.953125 91.644531 L 23.1875 91.464844 L 23.414062 91.265625 L 23.632812 91.042969 L 23.839844 90.796875 L 24.035156 90.53125 L 24.226562 90.242188 L 24.40625 89.933594 L 24.574219 89.601562 L 24.734375 89.246094 L 24.882812 88.871094 L 25.027344 88.472656 L 25.15625 88.046875 L 25.269531 87.589844 L 25.367188 87.109375 L 25.449219 86.605469 L 25.519531 86.070312 L 25.570312 85.507812 L 25.609375 84.921875 L 25.632812 84.304688 L 25.640625 83.664062 L 25.453125 83.882812 L 25.261719 84.09375 L 25.0625 84.296875 L 24.859375 84.488281 L 24.652344 84.671875 L 24.441406 84.847656 L 24.222656 85.011719 L 24 85.167969 L 23.773438 85.316406 L 23.539062 85.457031 L 23.304688 85.582031 L 23.066406 85.699219 L 22.828125 85.796875 L 22.585938 85.886719 L 22.34375 85.960938 L 22.097656 86.019531 L 21.851562 86.066406 L 21.605469 86.101562 L 21.355469 86.121094 L 21.105469 86.128906 L 20.648438 86.113281 L 20.214844 86.070312 L 19.800781 86 L 19.40625 85.902344 L 19.03125 85.777344 L 18.679688 85.625 L 18.34375 85.441406 L 18.03125 85.230469 L 17.738281 84.992188 L 17.464844 84.726562 L 17.214844 84.429688 L 16.988281 84.105469 L 16.792969 83.753906 L 16.621094 83.378906 L 16.476562 82.976562 L 16.359375 82.550781 L 16.265625 82.097656 L 16.199219 81.617188 L 16.160156 81.113281 L 16.148438 80.582031 L 16.15625 80.261719 L 16.175781 79.949219 L 16.207031 79.640625 L 16.253906 79.34375 L 16.316406 79.050781 L 16.390625 78.765625 L 16.476562 78.488281 L 16.578125 78.21875 L 16.691406 77.957031 L 16.820312 77.699219 L 16.957031 77.453125 L 17.105469 77.21875 L 17.261719 76.992188 L 17.429688 76.78125 L 17.605469 76.578125 L 17.789062 76.390625 L 17.980469 76.210938 L 18.183594 76.042969 L 18.390625 75.886719 L 18.613281 75.738281 L 18.839844 75.601562 L 19.066406 75.476562 L 19.300781 75.367188 L 19.539062 75.273438 L 19.78125 75.195312 L 20.027344 75.128906 L 20.277344 75.078125 L 20.53125 75.039062 L 20.785156 75.019531 L 21.046875 75.011719 L 21.570312 75.035156 L 22.066406 75.097656 L 22.546875 75.207031 L 23 75.359375 L 23.433594 75.558594 L 23.847656 75.796875 L 24.238281 76.082031 L 24.605469 76.410156 L 24.953125 76.78125 L 25.277344 77.195312 L 25.578125 77.644531 L 25.851562 78.136719 L 26.089844 78.664062 L 26.296875 79.230469 L 26.472656 79.835938 L 26.617188 80.476562 L 26.726562 81.160156 L 26.808594 81.882812 L 26.855469 82.640625 L 26.871094 83.441406 L 26.863281 84.175781 L 26.835938 84.878906 L 26.789062 85.554688 L 26.722656 86.199219 L 26.640625 86.8125 L 26.539062 87.398438 L 26.417969 87.953125 L 26.28125 88.476562 L 26.125 88.96875 L 25.949219 89.433594 L 25.757812 89.863281 L 25.554688 90.265625 L 25.339844 90.648438 L 25.113281 91.003906 L 24.878906 91.335938 L 24.628906 91.640625 L 24.367188 91.925781 L 24.09375 92.183594 L 23.808594 92.414062 L 23.511719 92.625 L 23.210938 92.804688 L 22.910156 92.964844 L 22.597656 93.109375 L 22.285156 93.234375 L 21.964844 93.335938 L 21.640625 93.421875 L 21.3125 93.488281 L 20.976562 93.539062 L 20.636719 93.566406 Z M 20.292969 93.574219 "/>
<path fill-rule="nonzero" fill="rgb(10.196078%, 10.196078%, 10.196078%)" fill-opacity="1" d="M 145.832031 374.925781 L 145.332031 374.898438 L 144.859375 374.828125 L 144.40625 374.703125 L 143.976562 374.535156 L 143.570312 374.316406 L 143.1875 374.046875 L 142.828125 373.730469 L 142.488281 373.363281 L 142.175781 372.949219 L 141.882812 372.488281 L 141.617188 371.980469 L 141.378906 371.433594 L 141.167969 370.84375 L 140.988281 370.210938 L 140.832031 369.542969 L 140.707031 368.828125 L 140.609375 368.074219 L 140.539062 367.28125 L 140.496094 366.449219 L 140.484375 365.570312 L 140.496094 364.703125 L 140.539062 363.875 L 140.609375 363.085938 L 140.707031 362.34375 L 140.832031 361.636719 L 140.988281 360.976562 L 141.167969 360.355469 L 141.378906 359.773438 L 141.617188 359.238281 L 141.882812 358.738281 L 142.175781 358.289062 L 142.488281 357.882812 L 142.828125 357.527344 L 143.1875 357.21875 L 143.570312 356.953125 L 143.976562 356.742188 L 144.40625 356.574219 L 144.859375 356.457031 L 145.332031 356.382812 L 145.832031 356.359375 L 146.335938 356.382812 L 146.8125 356.457031 L 147.269531 356.574219 L 147.699219 356.742188 L 148.105469 356.953125 L 148.488281 357.21875 L 148.847656 357.527344 L 149.183594 357.882812 L 149.492188 358.289062 L 149.777344 358.738281 L 150.046875 359.238281 L 150.28125 359.773438 L 150.492188 360.355469 L 150.675781 360.976562 L 150.828125 361.636719 L 150.957031 362.34375 L 151.054688 363.085938 L 151.125 363.875 L 151.164062 364.703125 L 151.179688 365.570312 L 151.164062 366.449219 L 151.125 367.28125 L 151.054688 368.074219 L 150.957031 368.828125 L 150.828125 369.542969 L 150.675781 370.210938 L 150.492188 370.84375 L 150.28125 371.433594 L 150.046875 371.980469 L 149.777344 372.488281 L 149.492188 372.949219 L 149.183594 373.363281 L 148.847656 373.730469 L 148.488281 374.046875 L 148.105469 374.316406 L 147.699219 374.535156 L 147.269531 374.703125 L 146.8125 374.828125 L 146.335938 374.898438 Z M 145.832031 373.859375 L 146.199219 373.839844 L 146.550781 373.777344 L 146.886719 373.671875 L 147.207031 373.523438 L 147.511719 373.335938 L 147.800781 373.105469 L 148.074219 372.832031 L 148.332031 372.515625 L 148.574219 372.160156 L 148.800781 371.761719 L 149.011719 371.320312 L 149.203125 370.839844 L 149.371094 370.320312 L 149.515625 369.761719 L 149.640625 369.164062 L 149.738281 368.523438 L 149.816406 367.847656 L 149.875 367.128906 L 149.90625 366.371094 L 149.917969 365.570312 L 149.90625 364.773438 L 149.875 364.019531 L 149.816406 363.304688 L 149.738281 362.632812 L 149.640625 362.003906 L 149.515625 361.414062 L 149.371094 360.863281 L 149.203125 360.355469 L 149.011719 359.890625 L 148.800781 359.46875 L 148.574219 359.078125 L 148.332031 358.730469 L 148.074219 358.425781 L 147.800781 358.160156 L 147.511719 357.933594 L 147.207031 357.75 L 146.886719 357.609375 L 146.550781 357.503906 L 146.199219 357.445312 L 145.832031 357.425781 L 145.46875 357.445312 L 145.121094 357.503906 L 144.789062 357.609375 L 144.46875 357.75 L 144.164062 357.933594 L 143.875 358.160156 L 143.601562 358.425781 L 143.339844 358.730469 L 143.09375 359.078125 L 142.863281 359.46875 L 142.648438 359.890625 L 142.460938 360.355469 L 142.292969 360.863281 L 142.144531 361.414062 L 142.023438 362.003906 L 141.921875 362.632812 L 141.84375 363.304688 L 141.789062 364.019531 L 141.753906 364.773438 L 141.742188 365.570312 L 141.753906 366.371094 L 141.789062 367.128906 L 141.84375 367.847656 L 141.921875 368.523438 L 142.023438 369.164062 L 142.144531 369.761719 L 142.292969 370.320312 L 142.460938 370.839844 L 142.648438 371.320312 L 142.863281 371.761719 L 143.09375 372.160156 L 143.339844 372.515625 L 143.601562 372.832031 L 143.875 373.105469 L 144.164062 373.335938 L 144.46875 373.523438 L 144.789062 373.671875 L 145.121094 373.777344 L 145.46875 373.839844 Z M 145.832031 373.859375 "/>
<path fill-rule="nonzero" fill="rgb(10.196078%, 10.196078%, 10.196078%)" fill-opacity="1" d="M 380.664062 374.589844 L 380.664062 373.496094 L 384.863281 373.496094 L 384.863281 358.65625 L 381.671875 358.65625 L 381.671875 357.816406 L 381.886719 357.777344 L 382.097656 357.734375 L 382.304688 357.691406 L 382.507812 357.644531 L 382.707031 357.597656 L 382.898438 357.550781 L 383.089844 357.5 L 383.273438 357.449219 L 383.453125 357.394531 L 383.628906 357.339844 L 383.800781 357.28125 L 383.96875 357.226562 L 384.128906 357.164062 L 384.285156 357.101562 L 384.433594 357.039062 L 384.582031 356.972656 L 384.722656 356.90625 L 384.859375 356.839844 L 384.988281 356.769531 L 385.113281 356.695312 L 386.121094 356.695312 L 386.121094 373.496094 L 390.015625 373.496094 L 390.015625 374.589844 Z M 380.664062 374.589844 "/>
</svg>
