<?xml version="1.0" encoding="UTF-8"?>
<svg xmlns="http://www.w3.org/2000/svg" xmlns:xlink="http://www.w3.org/1999/xlink" width="720pt" height="432pt" viewBox="0 0 720 432">
<defs>
<clipPath id="clip-0">
<path clip-rule="nonzero" d="M 13.449219 13.449219 L 706.550781 13.449219 L 706.550781 418.550781 L 13.449219 418.550781 Z M 13.449219 13.449219 "/>
</clipPath>
<clipPath id="clip-1">
<path clip-rule="nonzero" d="M 13.449219 398 L 706.550781 398 L 706.550781 402 L 13.449219 402 Z M 13.449219 398 "/>
</clipPath>
<clipPath id="clip-2">
<path clip-rule="nonzero" d="M 13.449219 306 L 706.550781 306 L 706.550781 310 L 13.449219 310 Z M 13.449219 306 "/>
</clipPath>
<clipPath id="clip-3">
<path clip-rule="nonzero" d="M 13.449219 214 L 706.550781 214 L 706.550781 217 L 13.449219 217 Z M 13.449219 214 "/>
</clipPath>
<clipPath id="clip-4">
<path clip-rule="nonzero" d="M 13.449219 121 L 706.550781 121 L 706.550781 125 L 13.449219 125 Z M 13.449219 121 "/>
</clipPath>
<clipPath id="clip-5">
<path clip-rule="nonzero" d="M 13.449219 29 L 706.550781 29 L 706.550781 33 L 13.449219 33 Z M 13.449219 29 "/>
</clipPath>
<clipPath id="clip-6">
<path clip-rule="nonzero" d="M 43 13.449219 L 47 13.449219 L 47 418.550781 L 43 418.550781 Z M 43 13.449219 "/>
</clipPath>
<clipPath id="clip-7">
<path clip-rule="nonzero" d="M 201 13.449219 L 204 13.449219 L 204 418.550781 L 201 418.550781 Z M 201 13.449219 "/>
</clipPath>
<clipPath id="clip-8">
<path clip-rule="nonzero" d="M 358 13.449219 L 362 13.449219 L 362 418.550781 L 358 418.550781 Z M 358 13.449219 "/>
</clipPath>
<clipPath id="clip-9">
<path clip-rule="nonzero" d="M 516 13.449219 L 519 13.449219 L 519 418.550781 L 516 418.550781 Z M 516 13.449219 "/>
</clipPath>
<clipPath id="clip-10">
<path clip-rule="nonzero" d="M 673 13.449219 L 677 13.449219 L 677 418.550781 L 673 418.550781 Z M 673 13.449219 "/>
</clipPath>
</defs>
<rect x="-72" y="-43.2" width="864" height="518.4" fill="rgb(100%, 100%, 100%)" fill-opacity="1"/>
<rect x="-72" y="-43.2" width="864" height="518.4" fill="rgb(95.294118%, 95.294118%, 95.294118%)" fill-opacity="1"/>
<path fill="none" stroke-width="2.618947" stroke-linecap="round" stroke-linejoin="round" stroke="rgb(95.294118%, 95.294118%, 95.294118%)" stroke-opacity="1" stroke-miterlimit="10" d="M 0 432 L 720 432 L 720 0 L 0 0 Z M 0 432 "/>
<g clip-path="url(#clip-0)">
<path fill-rule="nonzero" fill="rgb(95.294118%, 95.294118%, 95.294118%)" fill-opacity="1" stroke-width="2.618947" stroke-linecap="round" stroke-linejoin="round" stroke="rgb(95.294118%, 95.294118%, 95.294118%)" stroke-opacity="1" stroke-miterlimit="10" d="M 13.449219 418.550781 L 706.550781 418.550781 L 706.550781 13.449219 L 13.449219 13.449219 Z M 13.449219 418.550781 "/>
</g>
<g clip-path="url(#clip-1)">
<path fill="none" stroke-width="2.618947" stroke-linecap="butt" stroke-linejoin="round" stroke="rgb(92.156863%, 92.156863%, 92.156863%)" stroke-opacity="1" stroke-miterlimit="10" d="M 13.449219 400.136719 L 706.550781 400.136719 "/>
</g>
<g clip-path="url(#clip-2)">
<path fill="none" stroke-width="2.618947" stroke-linecap="butt" stroke-linejoin="round" stroke="rgb(92.156863%, 92.156863%, 92.156863%)" stroke-opacity="1" stroke-miterlimit="10" d="M 13.449219 307.824219 L 706.550781 307.824219 "/>
</g>
<g clip-path="url(#clip-3)">
<path fill="none" stroke-width="2.618947" stroke-linecap="butt" stroke-linejoin="round" stroke="rgb(92.156863%, 92.156863%, 92.156863%)" stroke-opacity="1" stroke-miterlimit="10" d="M 13.449219 215.511719 L 706.550781 215.511719 "/>
</g>
<g clip-path="url(#clip-4)">
<path fill="none" stroke-width="2.618947" stroke-linecap="butt" stroke-linejoin="round" stroke="rgb(92.156863%, 92.156863%, 92.156863%)" stroke-opacity="1" stroke-miterlimit="10" d="M 13.449219 123.195312 L 706.550781 123.195312 "/>
</g>
<g clip-path="url(#clip-5)">
<path fill="none" stroke-width="2.618947" stroke-linecap="butt" stroke-linejoin="round" stroke="rgb(92.156863%, 92.156863%, 92.156863%)" stroke-opacity="1" stroke-miterlimit="10" d="M 13.449219 30.882812 L 706.550781 30.882812 "/>
</g>
<g clip-path="url(#clip-6)">
<path fill="none" stroke-width="2.618947" stroke-linecap="butt" stroke-linejoin="round" stroke="rgb(92.156863%, 92.156863%, 92.156863%)" stroke-opacity="1" stroke-miterlimit="10" d="M 44.953125 418.550781 L 44.953125 13.449219 "/>
</g>
<g clip-path="url(#clip-7)">
<path fill="none" stroke-width="2.618947" stroke-linecap="butt" stroke-linejoin="round" stroke="rgb(92.156863%, 92.156863%, 92.156863%)" stroke-opacity="1" stroke-miterlimit="10" d="M 202.476562 418.550781 L 202.476562 13.449219 "/>
</g>
<g clip-path="url(#clip-8)">
<path fill="none" stroke-width="2.618947" stroke-linecap="butt" stroke-linejoin="round" stroke="rgb(92.156863%, 92.156863%, 92.156863%)" stroke-opacity="1" stroke-miterlimit="10" d="M 360 418.550781 L 360 13.449219 "/>
</g>
<g clip-path="url(#clip-9)">
<path fill="none" stroke-width="2.618947" stroke-linecap="butt" stroke-linejoin="round" stroke="rgb(92.156863%, 92.156863%, 92.156863%)" stroke-opacity="1" stroke-miterlimit="10" d="M 517.523438 418.550781 L 517.523438 13.449219 "/>
</g>
<g clip-path="url(#clip-10)">
<path fill="none" stroke-width="2.618947" stroke-linecap="butt" stroke-linejoin="round" stroke="rgb(92.156863%, 92.156863%, 92.156863%)" stroke-opacity="1" stroke-miterlimit="10" d="M 675.046875 418.550781 L 675.046875 13.449219 "/>
</g>
<path fill="none" stroke-width="2.560748" stroke-linecap="butt" stroke-linejoin="round" stroke="rgb(0%, 0%, 0%)" stroke-opacity="1" stroke-miterlimit="10" d="M 44.953125 400.011719 L 45.585938 400.007812 L 46.214844 400.003906 L 46.847656 400 L 47.476562 399.996094 L 48.109375 399.992188 L 48.738281 399.988281 L 49.371094 399.980469 L 50.628906 399.972656 L 51.261719 399.96875 L 51.890625 399.960938 L 52.523438 399.957031 L 53.152344 399.949219 L 53.785156 399.945312 L 54.414062 399.9375 L 55.046875 399.933594 L 55.675781 399.925781 L 56.308594 399.917969 L 56.9375 399.914062 L 57.570312 399.90625 L 58.828125 399.890625 L 59.460938 399.882812 L 60.089844 399.875 L 60.722656 399.867188 L 61.351562 399.859375 L 61.984375 399.851562 L 62.613281 399.839844 L 63.246094 399.832031 L 63.875 399.824219 L 64.507812 399.8125 L 65.136719 399.804688 L 65.769531 399.792969 L 66.398438 399.78125 L 67.03125 399.773438 L 68.289062 399.75 L 68.921875 399.738281 L 69.550781 399.726562 L 70.183594 399.714844 L 70.8125 399.703125 L 71.445312 399.6875 L 72.074219 399.675781 L 72.707031 399.660156 L 73.335938 399.648438 L 73.96875 399.632812 L 74.597656 399.617188 L 75.230469 399.601562 L 75.859375 399.585938 L 76.492188 399.570312 L 77.75 399.539062 L 78.382812 399.519531 L 79.011719 399.503906 L 79.644531 399.484375 L 80.273438 399.464844 L 80.90625 399.445312 L 81.535156 399.425781 L 82.167969 399.40625 L 82.796875 399.382812 L 83.429688 399.363281 L 84.058594 399.339844 L 84.691406 399.320312 L 85.320312 399.296875 L 85.949219 399.269531 L 86.582031 399.246094 L 87.210938 399.222656 L 87.84375 399.195312 L 88.472656 399.167969 L 89.105469 399.144531 L 89.734375 399.113281 L 90.367188 399.085938 L 90.996094 399.058594 L 91.628906 399.027344 L 92.257812 398.996094 L 92.890625 398.964844 L 93.519531 398.933594 L 94.152344 398.898438 L 94.78125 398.867188 L 95.410156 398.832031 L 96.042969 398.796875 L 96.671875 398.761719 L 97.304688 398.722656 L 97.933594 398.683594 L 98.566406 398.644531 L 99.195312 398.605469 L 99.828125 398.5625 L 100.457031 398.523438 L 101.089844 398.480469 L 101.71875 398.433594 L 102.351562 398.390625 L 102.980469 398.34375 L 103.613281 398.296875 L 104.871094 398.195312 L 105.503906 398.144531 L 106.132812 398.09375 L 106.765625 398.039062 L 107.394531 397.984375 L 108.027344 397.929688 L 108.65625 397.875 L 109.289062 397.816406 L 109.917969 397.753906 L 110.550781 397.695312 L 111.179688 397.628906 L 111.8125 397.566406 L 113.070312 397.433594 L 113.703125 397.367188 L 114.332031 397.296875 L 114.964844 397.222656 L 115.59375 397.148438 L 116.226562 397.074219 L 116.855469 397 L 117.488281 396.917969 L 118.117188 396.839844 L 118.75 396.757812 L 119.378906 396.671875 L 120.011719 396.589844 L 120.640625 396.5 L 121.273438 396.410156 L 121.902344 396.320312 L 122.53125 396.226562 L 123.164062 396.128906 L 123.792969 396.035156 L 124.425781 395.933594 L 125.054688 395.832031 L 125.6875 395.726562 L 126.316406 395.621094 L 126.949219 395.511719 L 127.578125 395.402344 L 128.210938 395.289062 L 128.839844 395.175781 L 129.472656 395.054688 L 130.101562 394.9375 L 130.730469 394.8125 L 131.363281 394.6875 L 131.992188 394.558594 L 132.625 394.429688 L 133.253906 394.296875 L 133.886719 394.160156 L 134.515625 394.019531 L 135.148438 393.878906 L 135.777344 393.734375 L 136.410156 393.585938 L 137.039062 393.4375 L 137.671875 393.285156 L 138.300781 393.128906 L 138.933594 392.96875 L 140.191406 392.640625 L 140.824219 392.46875 L 141.453125 392.296875 L 142.085938 392.121094 L 142.714844 391.941406 L 143.347656 391.757812 L 143.976562 391.574219 L 144.609375 391.382812 L 145.238281 391.191406 L 145.871094 390.992188 L 146.5 390.792969 L 147.132812 390.585938 L 147.761719 390.378906 L 148.394531 390.164062 L 149.023438 389.949219 L 149.652344 389.730469 L 150.285156 389.503906 L 150.914062 389.273438 L 151.546875 389.042969 L 152.175781 388.804688 L 152.808594 388.5625 L 153.4375 388.316406 L 154.070312 388.066406 L 154.699219 387.8125 L 155.332031 387.550781 L 155.960938 387.289062 L 156.59375 387.019531 L 157.222656 386.746094 L 157.851562 386.464844 L 158.484375 386.183594 L 159.113281 385.894531 L 159.746094 385.601562 L 160.375 385.304688 L 161.007812 385 L 161.636719 384.691406 L 162.269531 384.375 L 162.898438 384.058594 L 163.53125 383.730469 L 164.160156 383.402344 L 164.792969 383.066406 L 165.421875 382.722656 L 166.054688 382.375 L 166.683594 382.023438 L 167.3125 381.664062 L 167.945312 381.300781 L 168.574219 380.929688 L 169.207031 380.550781 L 169.835938 380.167969 L 170.46875 379.78125 L 171.097656 379.382812 L 171.730469 378.980469 L 172.359375 378.574219 L 172.992188 378.160156 L 173.621094 377.738281 L 174.253906 377.3125 L 174.882812 376.875 L 175.515625 376.433594 L 176.144531 375.988281 L 176.773438 375.53125 L 177.40625 375.070312 L 178.035156 374.601562 L 178.667969 374.125 L 179.296875 373.640625 L 179.929688 373.152344 L 180.558594 372.652344 L 181.191406 372.148438 L 181.820312 371.636719 L 182.453125 371.117188 L 183.082031 370.589844 L 183.714844 370.054688 L 184.34375 369.511719 L 184.972656 368.960938 L 185.605469 368.402344 L 186.234375 367.832031 L 186.867188 367.257812 L 187.496094 366.675781 L 188.128906 366.085938 L 188.757812 365.484375 L 189.390625 364.878906 L 190.019531 364.261719 L 190.652344 363.636719 L 191.28125 363.007812 L 191.914062 362.363281 L 192.542969 361.714844 L 193.175781 361.054688 L 193.804688 360.390625 L 194.433594 359.714844 L 195.066406 359.027344 L 195.695312 358.335938 L 196.328125 357.632812 L 196.957031 356.917969 L 197.589844 356.199219 L 198.21875 355.46875 L 198.851562 354.730469 L 199.480469 353.980469 L 200.113281 353.222656 L 200.742188 352.453125 L 201.375 351.679688 L 202.003906 350.890625 L 202.632812 350.097656 L 203.265625 349.289062 L 203.894531 348.476562 L 204.527344 347.652344 L 205.15625 346.816406 L 205.789062 345.972656 L 206.417969 345.117188 L 207.050781 344.253906 L 207.679688 343.378906 L 208.3125 342.496094 L 208.941406 341.601562 L 209.574219 340.699219 L 210.203125 339.785156 L 210.835938 338.859375 L 211.464844 337.925781 L 212.09375 336.980469 L 212.726562 336.023438 L 213.355469 335.058594 L 213.988281 334.085938 L 214.617188 333.097656 L 215.25 332.101562 L 215.878906 331.097656 L 216.511719 330.078125 L 217.140625 329.050781 L 217.773438 328.015625 L 218.402344 326.964844 L 219.035156 325.90625 L 219.664062 324.839844 L 220.296875 323.757812 L 220.925781 322.667969 L 221.554688 321.566406 L 222.1875 320.457031 L 222.816406 319.335938 L 223.449219 318.203125 L 224.078125 317.058594 L 224.710938 315.90625 L 225.339844 314.742188 L 225.972656 313.566406 L 226.601562 312.382812 L 227.234375 311.1875 L 227.863281 309.980469 L 228.496094 308.765625 L 229.125 307.539062 L 229.753906 306.300781 L 230.386719 305.054688 L 231.015625 303.792969 L 231.648438 302.527344 L 232.277344 301.246094 L 232.910156 299.957031 L 233.539062 298.65625 L 234.171875 297.347656 L 234.800781 296.027344 L 235.433594 294.699219 L 236.0625 293.355469 L 236.695312 292.007812 L 237.324219 290.644531 L 237.957031 289.273438 L 238.585938 287.894531 L 239.214844 286.503906 L 239.847656 285.105469 L 240.476562 283.695312 L 241.109375 282.273438 L 241.738281 280.84375 L 242.371094 279.40625 L 243 277.957031 L 243.632812 276.496094 L 244.261719 275.03125 L 244.894531 273.554688 L 245.523438 272.066406 L 246.15625 270.574219 L 246.785156 269.066406 L 247.417969 267.554688 L 248.046875 266.03125 L 248.675781 264.503906 L 249.308594 262.960938 L 249.9375 261.414062 L 250.570312 259.859375 L 251.199219 258.292969 L 251.832031 256.71875 L 252.460938 255.136719 L 253.09375 253.550781 L 253.722656 251.953125 L 254.355469 250.347656 L 254.984375 248.734375 L 255.617188 247.113281 L 256.246094 245.484375 L 256.875 243.851562 L 257.507812 242.207031 L 258.136719 240.558594 L 258.769531 238.902344 L 259.398438 237.238281 L 260.03125 235.570312 L 260.660156 233.894531 L 261.292969 232.210938 L 261.921875 230.523438 L 262.554688 228.828125 L 263.183594 227.128906 L 263.816406 225.425781 L 264.445312 223.710938 L 265.078125 221.996094 L 265.707031 220.273438 L 266.335938 218.546875 L 266.96875 216.816406 L 267.597656 215.078125 L 268.230469 213.339844 L 268.859375 211.59375 L 269.492188 209.84375 L 270.121094 208.089844 L 270.753906 206.335938 L 271.382812 204.574219 L 272.015625 202.808594 L 272.644531 201.042969 L 273.277344 199.273438 L 273.90625 197.5 L 274.539062 195.726562 L 275.167969 193.949219 L 275.796875 192.167969 L 276.429688 190.386719 L 277.058594 188.605469 L 277.691406 186.820312 L 278.320312 185.035156 L 278.953125 183.25 L 279.582031 181.460938 L 280.214844 179.671875 L 280.84375 177.882812 L 281.476562 176.09375 L 282.105469 174.304688 L 282.738281 172.519531 L 283.996094 168.941406 L 284.628906 167.15625 L 285.257812 165.371094 L 285.890625 163.589844 L 286.519531 161.808594 L 287.152344 160.027344 L 287.78125 158.25 L 288.414062 156.476562 L 289.042969 154.703125 L 289.675781 152.933594 L 290.304688 151.167969 L 290.9375 149.40625 L 291.566406 147.648438 L 292.199219 145.894531 L 292.828125 144.140625 L 293.457031 142.394531 L 294.089844 140.65625 L 294.71875 138.917969 L 295.351562 137.1875 L 295.980469 135.460938 L 296.613281 133.742188 L 297.242188 132.027344 L 297.875 130.320312 L 298.503906 128.621094 L 299.136719 126.925781 L 299.765625 125.238281 L 300.398438 123.558594 L 301.027344 121.886719 L 301.65625 120.222656 L 302.289062 118.566406 L 302.917969 116.917969 L 303.550781 115.277344 L 304.179688 113.648438 L 304.8125 112.027344 L 305.441406 110.414062 L 306.074219 108.8125 L 306.703125 107.21875 L 307.335938 105.636719 L 307.964844 104.066406 L 308.597656 102.503906 L 309.226562 100.957031 L 309.859375 99.417969 L 310.488281 97.890625 L 311.117188 96.375 L 311.75 94.871094 L 312.378906 93.378906 L 313.011719 91.898438 L 313.640625 90.433594 L 314.273438 88.980469 L 314.902344 87.539062 L 315.535156 86.113281 L 316.164062 84.699219 L 316.796875 83.300781 L 317.425781 81.917969 L 318.058594 80.546875 L 318.6875 79.191406 L 319.320312 77.851562 L 319.949219 76.523438 L 320.578125 75.214844 L 321.210938 73.921875 L 321.839844 72.640625 L 322.472656 71.378906 L 323.101562 70.132812 L 323.734375 68.902344 L 324.363281 67.691406 L 324.996094 66.496094 L 325.625 65.316406 L 326.257812 64.15625 L 326.886719 63.011719 L 327.519531 61.882812 L 328.148438 60.777344 L 328.777344 59.6875 L 329.410156 58.613281 L 330.039062 57.5625 L 330.671875 56.527344 L 331.300781 55.511719 L 331.933594 54.515625 L 332.5625 53.539062 L 333.195312 52.582031 L 333.824219 51.644531 L 334.457031 50.730469 L 335.085938 49.832031 L 335.71875 48.953125 L 336.347656 48.097656 L 336.980469 47.261719 L 337.609375 46.445312 L 338.238281 45.652344 L 338.871094 44.875 L 339.5 44.125 L 340.132812 43.394531 L 340.761719 42.683594 L 341.394531 41.996094 L 342.023438 41.328125 L 342.65625 40.683594 L 343.285156 40.058594 L 343.917969 39.460938 L 344.546875 38.878906 L 345.179688 38.324219 L 345.808594 37.789062 L 346.441406 37.277344 L 347.070312 36.789062 L 347.699219 36.324219 L 348.332031 35.878906 L 348.960938 35.457031 L 349.59375 35.0625 L 350.222656 34.6875 L 350.855469 34.335938 L 351.484375 34.007812 L 352.117188 33.699219 L 352.746094 33.417969 L 353.378906 33.160156 L 354.007812 32.925781 L 354.640625 32.710938 L 355.269531 32.523438 L 355.898438 32.359375 L 356.53125 32.21875 L 357.160156 32.097656 L 357.792969 32.003906 L 358.421875 31.933594 L 359.054688 31.886719 L 359.683594 31.863281 L 360.316406 31.863281 L 360.945312 31.886719 L 361.578125 31.933594 L 362.207031 32.003906 L 362.839844 32.097656 L 363.46875 32.21875 L 364.101562 32.359375 L 364.730469 32.523438 L 365.359375 32.710938 L 365.992188 32.925781 L 366.621094 33.160156 L 367.253906 33.417969 L 367.882812 33.699219 L 368.515625 34.007812 L 369.144531 34.335938 L 369.777344 34.6875 L 370.40625 35.0625 L 371.039062 35.457031 L 371.667969 35.878906 L 372.300781 36.324219 L 372.929688 36.789062 L 373.558594 37.277344 L 374.191406 37.789062 L 374.820312 38.324219 L 375.453125 38.878906 L 376.082031 39.460938 L 376.714844 40.058594 L 377.34375 40.683594 L 377.976562 41.328125 L 378.605469 41.996094 L 379.238281 42.683594 L 379.867188 43.394531 L 380.5 44.125 L 381.128906 44.875 L 381.761719 45.652344 L 382.390625 46.445312 L 383.019531 47.261719 L 383.652344 48.097656 L 384.28125 48.953125 L 384.914062 49.832031 L 385.542969 50.730469 L 386.175781 51.644531 L 386.804688 52.582031 L 387.4375 53.539062 L 388.066406 54.515625 L 388.699219 55.511719 L 389.328125 56.527344 L 389.960938 57.5625 L 390.589844 58.613281 L 391.222656 59.6875 L 391.851562 60.777344 L 392.480469 61.882812 L 393.113281 63.011719 L 393.742188 64.15625 L 394.375 65.316406 L 395.003906 66.496094 L 395.636719 67.691406 L 396.265625 68.902344 L 396.898438 70.132812 L 397.527344 71.378906 L 398.160156 72.640625 L 398.789062 73.921875 L 399.421875 75.214844 L 400.050781 76.523438 L 400.679688 77.851562 L 401.3125 79.191406 L 401.941406 80.546875 L 402.574219 81.917969 L 403.203125 83.300781 L 403.835938 84.699219 L 404.464844 86.113281 L 405.097656 87.539062 L 405.726562 88.980469 L 406.359375 90.433594 L 406.988281 91.898438 L 407.621094 93.378906 L 408.25 94.871094 L 408.882812 96.375 L 409.511719 97.890625 L 410.140625 99.417969 L 410.773438 100.957031 L 411.402344 102.503906 L 412.035156 104.066406 L 412.664062 105.636719 L 413.296875 107.21875 L 413.925781 108.8125 L 414.558594 110.414062 L 415.1875 112.027344 L 415.820312 113.648438 L 416.449219 115.277344 L 417.082031 116.917969 L 417.710938 118.566406 L 418.34375 120.222656 L 418.972656 121.886719 L 419.601562 123.558594 L 420.234375 125.238281 L 420.863281 126.925781 L 421.496094 128.621094 L 422.125 130.320312 L 422.757812 132.027344 L 423.386719 133.742188 L 424.019531 135.460938 L 424.648438 137.1875 L 425.28125 138.917969 L 425.910156 140.65625 L 426.542969 142.394531 L 427.171875 144.140625 L 427.800781 145.894531 L 428.433594 147.648438 L 429.0625 149.40625 L 429.695312 151.167969 L 430.324219 152.933594 L 430.957031 154.703125 L 431.585938 156.476562 L 432.21875 158.25 L 432.847656 160.027344 L 433.480469 161.808594 L 434.109375 163.589844 L 434.742188 165.371094 L 435.371094 167.15625 L 436.003906 168.941406 L 437.261719 172.519531 L 437.894531 174.304688 L 438.523438 176.09375 L 439.15625 177.882812 L 439.785156 179.671875 L 440.417969 181.460938 L 441.046875 183.25 L 441.679688 185.035156 L 442.308594 186.820312 L 442.941406 188.605469 L 443.570312 190.386719 L 444.203125 192.167969 L 444.832031 193.949219 L 445.460938 195.726562 L 446.09375 197.5 L 446.722656 199.273438 L 447.355469 201.042969 L 447.984375 202.808594 L 448.617188 204.574219 L 449.246094 206.335938 L 449.878906 208.089844 L 450.507812 209.84375 L 451.140625 211.59375 L 451.769531 213.339844 L 452.402344 215.078125 L 453.03125 216.816406 L 453.664062 218.546875 L 454.292969 220.273438 L 454.921875 221.996094 L 455.554688 223.710938 L 456.183594 225.425781 L 456.816406 227.128906 L 457.445312 228.828125 L 458.078125 230.523438 L 458.707031 232.210938 L 459.339844 233.894531 L 459.96875 235.570312 L 460.601562 237.238281 L 461.230469 238.902344 L 461.863281 240.558594 L 462.492188 242.207031 L 463.125 243.851562 L 463.753906 245.484375 L 464.382812 247.113281 L 465.015625 248.734375 L 465.644531 250.347656 L 466.277344 251.953125 L 466.90625 253.550781 L 467.539062 255.136719 L 468.167969 256.71875 L 468.800781 258.292969 L 469.429688 259.859375 L 470.0625 261.414062 L 470.691406 262.960938 L 471.324219 264.503906 L 471.953125 266.03125 L 472.582031 267.554688 L 473.214844 269.066406 L 473.84375 270.574219 L 474.476562 272.066406 L 475.105469 273.554688 L 475.738281 275.03125 L 476.367188 276.496094 L 477 277.957031 L 477.628906 279.40625 L 478.261719 280.84375 L 478.890625 282.273438 L 479.523438 283.695312 L 480.152344 285.105469 L 480.785156 286.503906 L 481.414062 287.894531 L 482.042969 289.273438 L 482.675781 290.644531 L 483.304688 292.007812 L 483.9375 293.355469 L 484.566406 294.699219 L 485.199219 296.027344 L 485.828125 297.347656 L 486.460938 298.65625 L 487.089844 299.957031 L 487.722656 301.246094 L 488.351562 302.527344 L 488.984375 303.792969 L 489.613281 305.054688 L 490.246094 306.300781 L 490.875 307.539062 L 491.503906 308.765625 L 492.136719 309.980469 L 492.765625 311.1875 L 493.398438 312.382812 L 494.027344 313.566406 L 494.660156 314.742188 L 495.289062 315.90625 L 495.921875 317.058594 L 496.550781 318.203125 L 497.183594 319.335938 L 497.8125 320.457031 L 498.445312 321.566406 L 499.074219 322.667969 L 499.703125 323.757812 L 500.335938 324.839844 L 500.964844 325.90625 L 501.597656 326.964844 L 502.226562 328.015625 L 502.859375 329.050781 L 503.488281 330.078125 L 504.121094 331.097656 L 504.75 332.101562 L 505.382812 333.097656 L 506.011719 334.085938 L 506.644531 335.058594 L 507.273438 336.023438 L 507.90625 336.980469 L 508.535156 337.925781 L 509.164062 338.859375 L 509.796875 339.785156 L 510.425781 340.699219 L 511.058594 341.601562 L 511.6875 342.496094 L 512.320312 343.378906 L 512.949219 344.253906 L 513.582031 345.117188 L 514.210938 345.972656 L 514.84375 346.816406 L 515.472656 347.652344 L 516.105469 348.476562 L 516.734375 349.289062 L 517.367188 350.097656 L 517.996094 350.890625 L 518.625 351.679688 L 519.257812 352.453125 L 519.886719 353.222656 L 520.519531 353.980469 L 521.148438 354.730469 L 521.78125 355.46875 L 522.410156 356.199219 L 523.042969 356.917969 L 523.671875 357.632812 L 524.304688 358.335938 L 524.933594 359.027344 L 525.566406 359.714844 L 526.195312 360.390625 L 526.824219 361.054688 L 527.457031 361.714844 L 528.085938 362.363281 L 528.71875 363.007812 L 529.347656 363.636719 L 529.980469 364.261719 L 530.609375 364.878906 L 531.242188 365.484375 L 531.871094 366.085938 L 532.503906 366.675781 L 533.132812 367.257812 L 533.765625 367.832031 L 534.394531 368.402344 L 535.027344 368.960938 L 535.65625 369.511719 L 536.285156 370.054688 L 536.917969 370.589844 L 537.546875 371.117188 L 538.179688 371.636719 L 538.808594 372.148438 L 539.441406 372.652344 L 540.070312 373.152344 L 540.703125 373.640625 L 541.332031 374.125 L 541.964844 374.601562 L 542.59375 375.070312 L 543.226562 375.53125 L 543.855469 375.988281 L 544.484375 376.433594 L 545.117188 376.875 L 545.746094 377.3125 L 546.378906 377.738281 L 547.007812 378.160156 L 547.640625 378.574219 L 548.269531 378.980469 L 548.902344 379.382812 L 549.53125 379.78125 L 550.164062 380.167969 L 550.792969 380.550781 L 551.425781 380.929688 L 552.054688 381.300781 L 552.6875 381.664062 L 553.316406 382.023438 L 553.945312 382.375 L 554.578125 382.722656 L 555.207031 383.066406 L 555.839844 383.402344 L 556.46875 383.730469 L 557.101562 384.058594 L 557.730469 384.375 L 558.363281 384.691406 L 558.992188 385 L 559.625 385.304688 L 560.253906 385.601562 L 560.886719 385.894531 L 561.515625 386.183594 L 562.148438 386.464844 L 562.777344 386.746094 L 563.40625 387.019531 L 564.039062 387.289062 L 564.667969 387.550781 L 565.300781 387.8125 L 565.929688 388.066406 L 566.5625 388.316406 L 567.191406 388.5625 L 567.824219 388.804688 L 568.453125 389.042969 L 569.085938 389.273438 L 569.714844 389.503906 L 570.347656 389.730469 L 570.976562 389.949219 L 571.605469 390.164062 L 572.238281 390.378906 L 572.867188 390.585938 L 573.5 390.792969 L 574.128906 390.992188 L 574.761719 391.191406 L 575.390625 391.382812 L 576.023438 391.574219 L 576.652344 391.757812 L 577.285156 391.941406 L 577.914062 392.121094 L 578.546875 392.296875 L 579.175781 392.46875 L 579.808594 392.640625 L 581.066406 392.96875 L 581.699219 393.128906 L 582.328125 393.285156 L 582.960938 393.4375 L 583.589844 393.585938 L 584.222656 393.734375 L 584.851562 393.878906 L 585.484375 394.019531 L 586.113281 394.160156 L 586.746094 394.296875 L 587.375 394.429688 L 588.007812 394.558594 L 588.636719 394.6875 L 589.269531 394.8125 L 589.898438 394.9375 L 590.527344 395.054688 L 591.160156 395.175781 L 591.789062 395.289062 L 592.421875 395.402344 L 593.050781 395.511719 L 593.683594 395.621094 L 594.3125 395.726562 L 594.945312 395.832031 L 595.574219 395.933594 L 596.207031 396.035156 L 596.835938 396.128906 L 597.46875 396.226562 L 598.097656 396.320312 L 598.726562 396.410156 L 599.359375 396.5 L 599.988281 396.589844 L 600.621094 396.671875 L 601.25 396.757812 L 601.882812 396.839844 L 602.511719 396.917969 L 603.144531 397 L 603.773438 397.074219 L 604.40625 397.148438 L 605.035156 397.222656 L 605.667969 397.296875 L 606.296875 397.367188 L 606.929688 397.433594 L 608.1875 397.566406 L 608.820312 397.628906 L 609.449219 397.695312 L 610.082031 397.753906 L 610.710938 397.816406 L 611.34375 397.875 L 611.972656 397.929688 L 612.605469 397.984375 L 613.234375 398.039062 L 613.867188 398.09375 L 614.496094 398.144531 L 615.128906 398.195312 L 616.386719 398.296875 L 617.019531 398.34375 L 617.648438 398.390625 L 618.28125 398.433594 L 618.910156 398.480469 L 619.542969 398.523438 L 620.171875 398.5625 L 620.804688 398.605469 L 621.433594 398.644531 L 622.066406 398.683594 L 622.695312 398.722656 L 623.328125 398.761719 L 623.957031 398.796875 L 624.589844 398.832031 L 625.21875 398.867188 L 625.847656 398.898438 L 626.480469 398.933594 L 627.109375 398.964844 L 627.742188 398.996094 L 628.371094 399.027344 L 629.003906 399.058594 L 629.632812 399.085938 L 630.265625 399.113281 L 630.894531 399.144531 L 631.527344 399.167969 L 632.15625 399.195312 L 632.789062 399.222656 L 633.417969 399.246094 L 634.050781 399.269531 L 634.679688 399.296875 L 635.308594 399.320312 L 635.941406 399.339844 L 636.570312 399.363281 L 637.203125 399.382812 L 637.832031 399.40625 L 638.464844 399.425781 L 639.09375 399.445312 L 639.726562 399.464844 L 640.355469 399.484375 L 640.988281 399.503906 L 641.617188 399.519531 L 642.25 399.539062 L 643.507812 399.570312 L 644.140625 399.585938 L 644.769531 399.601562 L 645.402344 399.617188 L 646.03125 399.632812 L 646.664062 399.648438 L 647.292969 399.660156 L 647.925781 399.675781 L 648.554688 399.6875 L 649.1875 399.703125 L 649.816406 399.714844 L 650.449219 399.726562 L 651.078125 399.738281 L 651.710938 399.75 L 652.96875 399.773438 L 653.601562 399.78125 L 654.230469 399.792969 L 654.863281 399.804688 L 655.492188 399.8125 L 656.125 399.824219 L 656.753906 399.832031 L 657.386719 399.839844 L 658.015625 399.851562 L 658.648438 399.859375 L 659.277344 399.867188 L 659.910156 399.875 L 660.539062 399.882812 L 661.171875 399.890625 L 662.429688 399.90625 L 663.0625 399.914062 L 663.691406 399.917969 L 664.324219 399.925781 L 664.953125 399.933594 L 665.585938 399.9375 L 666.214844 399.945312 L 666.847656 399.949219 L 667.476562 399.957031 L 668.109375 399.960938 L 668.738281 399.96875 L 669.371094 399.972656 L 670.628906 399.980469 L 671.261719 399.988281 L 671.890625 399.992188 L 672.523438 399.996094 L 673.152344 400 L 673.785156 400.003906 L 674.414062 400.007812 L 675.046875 400.011719 "/>
<path fill-rule="nonzero" fill="rgb(56.078431%, 16.470588%, 26.27451%)" fill-opacity="0.4" d="M 205.789062 345.972656 L 206.417969 345.117188 L 207.050781 344.253906 L 207.679688 343.378906 L 208.3125 342.496094 L 208.941406 341.601562 L 209.574219 340.699219 L 210.203125 339.785156 L 210.835938 338.859375 L 211.464844 337.925781 L 212.09375 336.980469 L 212.726562 336.023438 L 213.355469 335.058594 L 213.988281 334.085938 L 214.617188 333.097656 L 215.25 332.101562 L 215.878906 331.097656 L 216.511719 330.078125 L 217.140625 329.050781 L 217.773438 328.015625 L 218.402344 326.964844 L 219.035156 325.90625 L 219.664062 324.839844 L 220.296875 323.757812 L 220.925781 322.667969 L 221.554688 321.566406 L 222.1875 320.457031 L 222.816406 319.335938 L 223.449219 318.203125 L 224.078125 317.058594 L 224.710938 315.90625 L 225.339844 314.742188 L 225.972656 313.566406 L 226.601562 312.382812 L 227.234375 311.1875 L 227.863281 309.980469 L 228.496094 308.765625 L 229.125 307.539062 L 229.753906 306.300781 L 230.386719 305.054688 L 231.015625 303.792969 L 231.648438 302.527344 L 232.277344 301.246094 L 232.910156 299.957031 L 233.539062 298.65625 L 234.171875 297.347656 L 234.800781 296.027344 L 235.433594 294.699219 L 236.0625 293.355469 L 236.695312 292.007812 L 237.324219 290.644531 L 237.957031 289.273438 L 238.585938 287.894531 L 239.214844 286.503906 L 239.847656 285.105469 L 240.476562 283.695312 L 241.109375 282.273438 L 241.738281 280.84375 L 242.371094 279.40625 L 243 277.957031 L 243.632812 276.496094 L 244.261719 275.03125 L 244.894531 273.554688 L 245.523438 272.066406 L 246.15625 270.574219 L 246.785156 269.066406 L 247.417969 267.554688 L 248.046875 266.03125 L 248.675781 264.503906 L 249.308594 262.960938 L 249.9375 261.414062 L 250.570312 259.859375 L 251.199219 258.292969 L 251.832031 256.71875 L 252.460938 255.136719 L 253.09375 253.550781 L 253.722656 251.953125 L 254.355469 250.347656 L 254.984375 248.734375 L 255.617188 247.113281 L 256.246094 245.484375 L 256.875 243.851562 L 257.507812 242.207031 L 258.136719 240.558594 L 258.769531 238.902344 L 259.398438 237.238281 L 260.03125 235.570312 L 260.660156 233.894531 L 261.292969 232.210938 L 261.921875 230.523438 L 262.554688 228.828125 L 263.183594 227.128906 L 263.816406 225.425781 L 264.445312 223.710938 L 265.078125 221.996094 L 265.707031 220.273438 L 266.335938 218.546875 L 266.96875 216.816406 L 267.597656 215.078125 L 268.230469 213.339844 L 268.859375 211.59375 L 269.492188 209.84375 L 270.121094 208.089844 L 270.753906 206.335938 L 271.382812 204.574219 L 272.015625 202.808594 L 272.644531 201.042969 L 273.277344 199.273438 L 273.90625 197.5 L 274.539062 195.726562 L 275.167969 193.949219 L 275.796875 192.167969 L 276.429688 190.386719 L 277.058594 188.605469 L 277.691406 186.820312 L 278.320312 185.035156 L 278.953125 183.25 L 279.582031 181.460938 L 280.214844 179.671875 L 280.84375 177.882812 L 281.476562 176.09375 L 282.105469 174.304688 L 282.738281 172.519531 L 283.996094 168.941406 L 284.628906 167.15625 L 285.257812 165.371094 L 285.890625 163.589844 L 286.519531 161.808594 L 287.152344 160.027344 L 287.78125 158.25 L 288.414062 156.476562 L 289.042969 154.703125 L 289.675781 152.933594 L 290.304688 151.167969 L 290.9375 149.40625 L 291.566406 147.648438 L 292.199219 145.894531 L 292.828125 144.140625 L 293.457031 142.394531 L 294.089844 140.65625 L 294.71875 138.917969 L 295.351562 137.1875 L 295.980469 135.460938 L 296.613281 133.742188 L 297.242188 132.027344 L 297.875 130.320312 L 298.503906 128.621094 L 299.136719 126.925781 L 299.765625 125.238281 L 300.398438 123.558594 L 301.027344 121.886719 L 301.65625 120.222656 L 302.289062 118.566406 L 302.917969 116.917969 L 303.550781 115.277344 L 304.179688 113.648438 L 304.8125 112.027344 L 305.441406 110.414062 L 306.074219 108.8125 L 306.703125 107.21875 L 307.335938 105.636719 L 307.964844 104.066406 L 308.597656 102.503906 L 309.226562 100.957031 L 309.859375 99.417969 L 310.488281 97.890625 L 311.117188 96.375 L 311.75 94.871094 L 312.378906 93.378906 L 313.011719 91.898438 L 313.640625 90.433594 L 314.273438 88.980469 L 314.902344 87.539062 L 315.535156 86.113281 L 316.164062 84.699219 L 316.796875 83.300781 L 317.425781 81.917969 L 318.058594 80.546875 L 318.6875 79.191406 L 319.320312 77.851562 L 319.949219 76.523438 L 320.578125 75.214844 L 321.210938 73.921875 L 321.839844 72.640625 L 322.472656 71.378906 L 323.101562 70.132812 L 323.734375 68.902344 L 324.363281 67.691406 L 324.996094 66.496094 L 325.625 65.316406 L 326.257812 64.15625 L 326.886719 63.011719 L 327.519531 61.882812 L 328.148438 60.777344 L 328.777344 59.6875 L 329.410156 58.613281 L 330.039062 57.5625 L 330.671875 56.527344 L 331.300781 55.511719 L 331.933594 54.515625 L 332.5625 53.539062 L 333.195312 52.582031 L 333.824219 51.644531 L 334.457031 50.730469 L 335.085938 49.832031 L 335.71875 48.953125 L 336.347656 48.097656 L 336.980469 47.261719 L 337.609375 46.445312 L 338.238281 45.652344 L 338.871094 44.875 L 339.5 44.125 L 340.132812 43.394531 L 340.761719 42.683594 L 341.394531 41.996094 L 342.023438 41.328125 L 342.65625 40.683594 L 343.285156 40.058594 L 343.917969 39.460938 L 344.546875 38.878906 L 345.179688 38.324219 L 345.808594 37.789062 L 346.441406 37.277344 L 347.070312 36.789062 L 347.699219 36.324219 L 348.332031 35.878906 L 348.960938 35.457031 L 349.59375 35.0625 L 350.222656 34.6875 L 350.855469 34.335938 L 351.484375 34.007812 L 352.117188 33.699219 L 352.746094 33.417969 L 353.378906 33.160156 L 354.007812 32.925781 L 354.640625 32.710938 L 355.269531 32.523438 L 355.898438 32.359375 L 356.53125 32.21875 L 357.160156 32.097656 L 357.792969 32.003906 L 358.421875 31.933594 L 359.054688 31.886719 L 359.683594 31.863281 L 360.316406 31.863281 L 360.945312 31.886719 L 361.578125 31.933594 L 362.207031 32.003906 L 362.839844 32.097656 L 363.46875 32.21875 L 364.101562 32.359375 L 364.730469 32.523438 L 365.359375 32.710938 L 365.992188 32.925781 L 366.621094 33.160156 L 367.253906 33.417969 L 367.882812 33.699219 L 368.515625 34.007812 L 369.144531 34.335938 L 369.777344 34.6875 L 370.40625 35.0625 L 371.039062 35.457031 L 371.667969 35.878906 L 372.300781 36.324219 L 372.929688 36.789062 L 373.558594 37.277344 L 374.191406 37.789062 L 374.820312 38.324219 L 375.453125 38.878906 L 376.082031 39.460938 L 376.714844 40.058594 L 377.34375 40.683594 L 377.976562 41.328125 L 378.605469 41.996094 L 379.238281 42.683594 L 379.867188 43.394531 L 380.5 44.125 L 381.128906 44.875 L 381.761719 45.652344 L 382.390625 46.445312 L 383.019531 47.261719 L 383.652344 48.097656 L 384.28125 48.953125 L 384.914062 49.832031 L 385.542969 50.730469 L 386.175781 51.644531 L 386.804688 52.582031 L 387.4375 53.539062 L 388.066406 54.515625 L 388.699219 55.511719 L 389.328125 56.527344 L 389.960938 57.5625 L 390.589844 58.613281 L 391.222656 59.6875 L 391.851562 60.777344 L 392.480469 61.882812 L 393.113281 63.011719 L 393.742188 64.15625 L 394.375 65.316406 L 395.003906 66.496094 L 395.636719 67.691406 L 396.265625 68.902344 L 396.898438 70.132812 L 397.527344 71.378906 L 398.160156 72.640625 L 398.789062 73.921875 L 399.421875 75.214844 L 400.050781 76.523438 L 400.679688 77.851562 L 401.3125 79.191406 L 401.941406 80.546875 L 402.574219 81.917969 L 403.203125 83.300781 L 403.835938 84.699219 L 404.464844 86.113281 L 405.097656 87.539062 L 405.726562 88.980469 L 406.359375 90.433594 L 406.988281 91.898438 L 407.621094 93.378906 L 408.25 94.871094 L 408.882812 96.375 L 409.511719 97.890625 L 410.140625 99.417969 L 410.773438 100.957031 L 411.402344 102.503906 L 412.035156 104.066406 L 412.664062 105.636719 L 413.296875 107.21875 L 413.925781 108.8125 L 414.558594 110.414062 L 415.1875 112.027344 L 415.820312 113.648438 L 416.449219 115.277344 L 417.082031 116.917969 L 417.710938 118.566406 L 418.34375 120.222656 L 418.972656 121.886719 L 419.601562 123.558594 L 420.234375 125.238281 L 420.863281 126.925781 L 421.496094 128.621094 L 422.125 130.320312 L 422.757812 132.027344 L 423.386719 133.742188 L 424.019531 135.460938 L 424.648438 137.1875 L 425.28125 138.917969 L 425.910156 140.65625 L 426.542969 142.394531 L 427.171875 144.140625 L 427.800781 145.894531 L 428.433594 147.648438 L 429.0625 149.40625 L 429.695312 151.167969 L 430.324219 152.933594 L 430.957031 154.703125 L 431.585938 156.476562 L 432.21875 158.25 L 432.847656 160.027344 L 433.480469 161.808594 L 434.109375 163.589844 L 434.742188 165.371094 L 435.371094 167.15625 L 436.003906 168.941406 L 437.261719 172.519531 L 437.894531 174.304688 L 438.523438 176.09375 L 439.15625 177.882812 L 439.785156 179.671875 L 440.417969 181.460938 L 441.046875 183.25 L 441.679688 185.035156 L 442.308594 186.820312 L 442.941406 188.605469 L 443.570312 190.386719 L 444.203125 192.167969 L 444.832031 193.949219 L 445.460938 195.726562 L 446.09375 197.5 L 446.722656 199.273438 L 447.355469 201.042969 L 447.984375 202.808594 L 448.617188 204.574219 L 449.246094 206.335938 L 449.878906 208.089844 L 450.507812 209.84375 L 451.140625 211.59375 L 451.769531 213.339844 L 452.402344 215.078125 L 453.03125 216.816406 L 453.664062 218.546875 L 454.292969 220.273438 L 454.921875 221.996094 L 455.554688 223.710938 L 456.183594 225.425781 L 456.816406 227.128906 L 457.445312 228.828125 L 458.078125 230.523438 L 458.707031 232.210938 L 459.339844 233.894531 L 459.96875 235.570312 L 460.601562 237.238281 L 461.230469 238.902344 L 461.863281 240.558594 L 462.492188 242.207031 L 463.125 243.851562 L 463.753906 245.484375 L 464.382812 247.113281 L 465.015625 248.734375 L 465.644531 250.347656 L 466.277344 251.953125 L 466.90625 253.550781 L 467.539062 255.136719 L 468.167969 256.71875 L 468.800781 258.292969 L 469.429688 259.859375 L 470.0625 261.414062 L 470.691406 262.960938 L 471.324219 264.503906 L 471.953125 266.03125 L 472.582031 267.554688 L 473.214844 269.066406 L 473.84375 270.574219 L 474.476562 272.066406 L 475.105469 273.554688 L 475.738281 275.03125 L 476.367188 276.496094 L 477 277.957031 L 477.628906 279.40625 L 478.261719 280.84375 L 478.890625 282.273438 L 479.523438 283.695312 L 480.152344 285.105469 L 480.785156 286.503906 L 481.414062 287.894531 L 482.042969 289.273438 L 482.675781 290.644531 L 483.304688 292.007812 L 483.9375 293.355469 L 484.566406 294.699219 L 485.199219 296.027344 L 485.828125 297.347656 L 486.460938 298.65625 L 487.089844 299.957031 L 487.722656 301.246094 L 488.351562 302.527344 L 488.984375 303.792969 L 489.613281 305.054688 L 490.246094 306.300781 L 490.875 307.539062 L 491.503906 308.765625 L 492.136719 309.980469 L 492.765625 311.1875 L 493.398438 312.382812 L 494.027344 313.566406 L 494.660156 314.742188 L 495.289062 315.90625 L 495.921875 317.058594 L 496.550781 318.203125 L 497.183594 319.335938 L 497.8125 320.457031 L 498.445312 321.566406 L 499.074219 322.667969 L 499.703125 323.757812 L 500.335938 324.839844 L 500.964844 325.90625 L 501.597656 326.964844 L 502.226562 328.015625 L 502.859375 329.050781 L 503.488281 330.078125 L 504.121094 331.097656 L 504.75 332.101562 L 505.382812 333.097656 L 506.011719 334.085938 L 506.644531 335.058594 L 507.273438 336.023438 L 507.90625 336.980469 L 508.535156 337.925781 L 509.164062 338.859375 L 509.796875 339.785156 L 510.425781 340.699219 L 511.058594 341.601562 L 511.6875 342.496094 L 512.320312 343.378906 L 512.949219 344.253906 L 513.582031 345.117188 L 514.210938 345.972656 L 514.210938 400.136719 L 205.789062 400.136719 Z M 205.789062 345.972656 "/>
</svg>
