<?xml version="1.0" encoding="UTF-8"?>
<svg xmlns="http://www.w3.org/2000/svg" xmlns:xlink="http://www.w3.org/1999/xlink" width="720" height="432" viewBox="0 0 720 432">
<defs>
<clipPath id="clip-0">
<path clip-rule="nonzero" d="M 20.175781 13.449219 L 706.550781 13.449219 L 706.550781 411.824219 L 20.175781 411.824219 Z M 20.175781 13.449219 "/>
</clipPath>
<clipPath id="clip-1">
<path clip-rule="nonzero" d="M 20.175781 392 L 706.550781 392 L 706.550781 396 L 20.175781 396 Z M 20.175781 392 "/>
</clipPath>
<clipPath id="clip-2">
<path clip-rule="nonzero" d="M 20.175781 301 L 706.550781 301 L 706.550781 305 L 20.175781 305 Z M 20.175781 301 "/>
</clipPath>
<clipPath id="clip-3">
<path clip-rule="nonzero" d="M 20.175781 210 L 706.550781 210 L 706.550781 214 L 20.175781 214 Z M 20.175781 210 "/>
</clipPath>
<clipPath id="clip-4">
<path clip-rule="nonzero" d="M 20.175781 120 L 706.550781 120 L 706.550781 123 L 20.175781 123 Z M 20.175781 120 "/>
</clipPath>
<clipPath id="clip-5">
<path clip-rule="nonzero" d="M 20.175781 29 L 706.550781 29 L 706.550781 32 L 20.175781 32 Z M 20.175781 29 "/>
</clipPath>
<clipPath id="clip-6">
<path clip-rule="nonzero" d="M 50 13.449219 L 53 13.449219 L 53 411.824219 L 50 411.824219 Z M 50 13.449219 "/>
</clipPath>
<clipPath id="clip-7">
<path clip-rule="nonzero" d="M 206 13.449219 L 209 13.449219 L 209 411.824219 L 206 411.824219 Z M 206 13.449219 "/>
</clipPath>
<clipPath id="clip-8">
<path clip-rule="nonzero" d="M 362 13.449219 L 365 13.449219 L 365 411.824219 L 362 411.824219 Z M 362 13.449219 "/>
</clipPath>
<clipPath id="clip-9">
<path clip-rule="nonzero" d="M 518 13.449219 L 521 13.449219 L 521 411.824219 L 518 411.824219 Z M 518 13.449219 "/>
</clipPath>
<clipPath id="clip-10">
<path clip-rule="nonzero" d="M 674 13.449219 L 677 13.449219 L 677 411.824219 L 674 411.824219 Z M 674 13.449219 "/>
</clipPath>
</defs>
<rect x="-72" y="-43.2" width="864" height="518.4" fill="rgb(100%, 100%, 100%)" fill-opacity="1"/>
<rect x="-72" y="-43.2" width="864" height="518.4" fill="rgb(95.294118%, 95.294118%, 95.294118%)" fill-opacity="1"/>
<path fill="none" stroke-width="2.618947" stroke-linecap="round" stroke-linejoin="round" stroke="rgb(95.294118%, 95.294118%, 95.294118%)" stroke-opacity="1" stroke-miterlimit="10" d="M 0 432 L 720 432 L 720 0 L 0 0 Z M 0 432 "/>
<g clip-path="url(#clip-0)">
<path fill-rule="nonzero" fill="rgb(95.294118%, 95.294118%, 95.294118%)" fill-opacity="1" stroke-width="2.618947" stroke-linecap="round" stroke-linejoin="round" stroke="rgb(95.294118%, 95.294118%, 95.294118%)" stroke-opacity="1" stroke-miterlimit="10" d="M 20.175781 411.824219 L 706.550781 411.824219 L 706.550781 13.449219 L 20.175781 13.449219 Z M 20.175781 411.824219 "/>
</g>
<g clip-path="url(#clip-1)">
<path fill="none" stroke-width="2.618947" stroke-linecap="butt" stroke-linejoin="round" stroke="rgb(92.156863%, 92.156863%, 92.156863%)" stroke-opacity="1" stroke-miterlimit="10" d="M 20.175781 393.71875 L 706.550781 393.71875 "/>
</g>
<g clip-path="url(#clip-2)">
<path fill="none" stroke-width="2.618947" stroke-linecap="butt" stroke-linejoin="round" stroke="rgb(92.156863%, 92.156863%, 92.156863%)" stroke-opacity="1" stroke-miterlimit="10" d="M 20.175781 302.9375 L 706.550781 302.9375 "/>
</g>
<g clip-path="url(#clip-3)">
<path fill="none" stroke-width="2.618947" stroke-linecap="butt" stroke-linejoin="round" stroke="rgb(92.156863%, 92.156863%, 92.156863%)" stroke-opacity="1" stroke-miterlimit="10" d="M 20.175781 212.15625 L 706.550781 212.15625 "/>
</g>
<g clip-path="url(#clip-4)">
<path fill="none" stroke-width="2.618947" stroke-linecap="butt" stroke-linejoin="round" stroke="rgb(92.156863%, 92.156863%, 92.156863%)" stroke-opacity="1" stroke-miterlimit="10" d="M 20.175781 121.375 L 706.550781 121.375 "/>
</g>
<g clip-path="url(#clip-5)">
<path fill="none" stroke-width="2.618947" stroke-linecap="butt" stroke-linejoin="round" stroke="rgb(92.156863%, 92.156863%, 92.156863%)" stroke-opacity="1" stroke-miterlimit="10" d="M 20.175781 30.59375 L 706.550781 30.59375 "/>
</g>
<g clip-path="url(#clip-6)">
<path fill="none" stroke-width="2.618947" stroke-linecap="butt" stroke-linejoin="round" stroke="rgb(92.156863%, 92.156863%, 92.156863%)" stroke-opacity="1" stroke-miterlimit="10" d="M 51.375 411.824219 L 51.375 13.449219 "/>
</g>
<g clip-path="url(#clip-7)">
<path fill="none" stroke-width="2.618947" stroke-linecap="butt" stroke-linejoin="round" stroke="rgb(92.156863%, 92.156863%, 92.156863%)" stroke-opacity="1" stroke-miterlimit="10" d="M 207.367188 411.824219 L 207.367188 13.449219 "/>
</g>
<g clip-path="url(#clip-8)">
<path fill="none" stroke-width="2.618947" stroke-linecap="butt" stroke-linejoin="round" stroke="rgb(92.156863%, 92.156863%, 92.156863%)" stroke-opacity="1" stroke-miterlimit="10" d="M 363.363281 411.824219 L 363.363281 13.449219 "/>
</g>
<g clip-path="url(#clip-9)">
<path fill="none" stroke-width="2.618947" stroke-linecap="butt" stroke-linejoin="round" stroke="rgb(92.156863%, 92.156863%, 92.156863%)" stroke-opacity="1" stroke-miterlimit="10" d="M 519.355469 411.824219 L 519.355469 13.449219 "/>
</g>
<g clip-path="url(#clip-10)">
<path fill="none" stroke-width="2.618947" stroke-linecap="butt" stroke-linejoin="round" stroke="rgb(92.156863%, 92.156863%, 92.156863%)" stroke-opacity="1" stroke-miterlimit="10" d="M 675.351562 411.824219 L 675.351562 13.449219 "/>
</g>
<path fill="none" stroke-width="2.560748" stroke-linecap="butt" stroke-linejoin="round" stroke="rgb(0%, 0%, 0%)" stroke-opacity="1" stroke-miterlimit="10" d="M 51.375 393.597656 L 51.996094 393.59375 L 52.621094 393.589844 L 53.246094 393.582031 L 56.371094 393.5625 L 56.996094 393.554688 L 57.621094 393.550781 L 58.242188 393.546875 L 58.867188 393.539062 L 59.492188 393.535156 L 60.117188 393.527344 L 60.742188 393.523438 L 61.367188 393.515625 L 61.992188 393.511719 L 63.867188 393.488281 L 64.488281 393.484375 L 68.238281 393.4375 L 68.863281 393.425781 L 70.113281 393.410156 L 70.734375 393.398438 L 71.359375 393.390625 L 71.984375 393.378906 L 72.609375 393.371094 L 75.734375 393.3125 L 76.355469 393.300781 L 78.230469 393.265625 L 78.855469 393.25 L 79.480469 393.238281 L 81.980469 393.175781 L 82.601562 393.160156 L 83.851562 393.128906 L 84.476562 393.109375 L 85.101562 393.09375 L 85.726562 393.074219 L 86.351562 393.058594 L 88.226562 393 L 88.847656 392.976562 L 89.472656 392.957031 L 90.097656 392.933594 L 90.722656 392.914062 L 92.597656 392.84375 L 93.222656 392.816406 L 93.847656 392.792969 L 94.472656 392.765625 L 95.09375 392.738281 L 95.71875 392.714844 L 96.34375 392.683594 L 96.96875 392.65625 L 97.59375 392.625 L 98.21875 392.597656 L 99.46875 392.535156 L 100.09375 392.5 L 100.71875 392.46875 L 101.339844 392.433594 L 103.214844 392.328125 L 105.714844 392.171875 L 106.964844 392.085938 L 107.585938 392.042969 L 108.210938 392 L 110.085938 391.859375 L 110.710938 391.808594 L 111.335938 391.761719 L 111.960938 391.707031 L 112.585938 391.65625 L 113.207031 391.601562 L 114.457031 391.492188 L 116.332031 391.316406 L 117.582031 391.191406 L 118.832031 391.058594 L 119.453125 390.992188 L 121.328125 390.78125 L 122.578125 390.632812 L 123.828125 390.476562 L 125.078125 390.3125 L 125.699219 390.226562 L 126.949219 390.054688 L 127.574219 389.964844 L 129.449219 389.683594 L 130.074219 389.585938 L 131.324219 389.382812 L 131.945312 389.277344 L 132.570312 389.171875 L 133.195312 389.0625 L 135.070312 388.722656 L 135.695312 388.601562 L 136.320312 388.484375 L 137.570312 388.234375 L 138.191406 388.105469 L 139.441406 387.839844 L 140.066406 387.703125 L 141.316406 387.421875 L 141.941406 387.277344 L 143.191406 386.980469 L 143.816406 386.824219 L 144.4375 386.667969 L 145.0625 386.507812 L 146.3125 386.179688 L 147.5625 385.835938 L 148.1875 385.660156 L 148.8125 385.480469 L 149.4375 385.296875 L 150.058594 385.109375 L 151.308594 384.726562 L 152.558594 384.328125 L 153.183594 384.121094 L 154.433594 383.699219 L 155.683594 383.261719 L 156.304688 383.035156 L 156.929688 382.808594 L 157.554688 382.574219 L 158.179688 382.335938 L 158.804688 382.09375 L 159.429688 381.847656 L 160.054688 381.597656 L 160.679688 381.34375 L 161.304688 381.082031 L 161.929688 380.816406 L 162.550781 380.546875 L 163.175781 380.273438 L 163.800781 379.996094 L 164.425781 379.710938 L 165.050781 379.421875 L 165.675781 379.128906 L 166.300781 378.832031 L 166.925781 378.527344 L 167.550781 378.21875 L 168.175781 377.90625 L 168.796875 377.585938 L 169.421875 377.261719 L 170.046875 376.929688 L 170.671875 376.59375 L 171.296875 376.253906 L 171.921875 375.90625 L 172.546875 375.550781 L 173.171875 375.191406 L 173.796875 374.828125 L 174.421875 374.457031 L 175.042969 374.082031 L 175.667969 373.699219 L 176.292969 373.308594 L 176.917969 372.914062 L 177.542969 372.511719 L 178.167969 372.105469 L 178.792969 371.691406 L 179.417969 371.269531 L 180.042969 370.84375 L 180.667969 370.410156 L 181.289062 369.96875 L 181.914062 369.519531 L 182.539062 369.066406 L 183.164062 368.605469 L 183.789062 368.136719 L 184.414062 367.664062 L 185.039062 367.179688 L 185.664062 366.691406 L 186.289062 366.195312 L 186.910156 365.691406 L 187.535156 365.179688 L 188.160156 364.660156 L 188.785156 364.132812 L 189.410156 363.597656 L 190.035156 363.058594 L 190.660156 362.507812 L 191.285156 361.949219 L 191.910156 361.386719 L 192.535156 360.8125 L 193.15625 360.230469 L 193.78125 359.640625 L 194.40625 359.042969 L 195.03125 358.4375 L 195.65625 357.824219 L 196.28125 357.203125 L 196.90625 356.574219 L 197.53125 355.933594 L 198.15625 355.285156 L 198.78125 354.628906 L 199.402344 353.964844 L 200.027344 353.292969 L 200.652344 352.609375 L 201.277344 351.917969 L 201.902344 351.21875 L 202.527344 350.507812 L 203.152344 349.789062 L 203.777344 349.0625 L 204.402344 348.328125 L 205.027344 347.582031 L 205.648438 346.828125 L 206.273438 346.0625 L 206.898438 345.289062 L 207.523438 344.507812 L 208.148438 343.714844 L 208.773438 342.914062 L 209.398438 342.101562 L 210.023438 341.28125 L 210.648438 340.453125 L 211.273438 339.613281 L 211.894531 338.761719 L 212.519531 337.902344 L 213.144531 337.035156 L 213.769531 336.152344 L 214.394531 335.265625 L 215.019531 334.367188 L 215.644531 333.457031 L 216.269531 332.539062 L 216.894531 331.609375 L 217.519531 330.671875 L 218.140625 329.722656 L 218.765625 328.761719 L 219.390625 327.792969 L 220.015625 326.8125 L 220.640625 325.824219 L 221.265625 324.824219 L 221.890625 323.8125 L 222.515625 322.792969 L 223.140625 321.761719 L 223.761719 320.71875 L 224.386719 319.667969 L 225.011719 318.605469 L 225.636719 317.535156 L 226.261719 316.453125 L 226.886719 315.359375 L 227.511719 314.257812 L 228.136719 313.144531 L 228.761719 312.019531 L 229.386719 310.886719 L 230.007812 309.742188 L 230.632812 308.585938 L 231.257812 307.421875 L 231.882812 306.246094 L 232.507812 305.058594 L 233.132812 303.863281 L 233.757812 302.65625 L 234.382812 301.4375 L 235.007812 300.210938 L 235.632812 298.976562 L 236.253906 297.726562 L 236.878906 296.46875 L 237.503906 295.203125 L 238.128906 293.921875 L 238.753906 292.636719 L 239.378906 291.335938 L 240.003906 290.027344 L 240.628906 288.710938 L 241.253906 287.382812 L 241.878906 286.042969 L 242.5 284.695312 L 243.125 283.339844 L 243.75 281.972656 L 244.375 280.59375 L 245 279.207031 L 245.625 277.8125 L 246.25 276.40625 L 246.875 274.988281 L 247.5 273.566406 L 248.125 272.132812 L 248.746094 270.6875 L 249.371094 269.234375 L 249.996094 267.773438 L 250.621094 266.304688 L 251.246094 264.824219 L 251.871094 263.335938 L 252.496094 261.839844 L 253.121094 260.335938 L 253.746094 258.820312 L 254.371094 257.296875 L 254.992188 255.765625 L 255.617188 254.226562 L 256.242188 252.679688 L 256.867188 251.125 L 257.492188 249.5625 L 258.117188 247.992188 L 258.742188 246.414062 L 259.367188 244.828125 L 259.992188 243.234375 L 260.613281 241.632812 L 261.238281 240.027344 L 261.863281 238.410156 L 262.488281 236.789062 L 263.113281 235.160156 L 263.738281 233.523438 L 264.363281 231.882812 L 264.988281 230.234375 L 265.613281 228.582031 L 266.238281 226.921875 L 266.859375 225.253906 L 267.484375 223.582031 L 268.109375 221.90625 L 268.734375 220.222656 L 269.359375 218.535156 L 270.609375 215.144531 L 271.234375 213.441406 L 272.484375 210.019531 L 273.105469 208.304688 L 273.730469 206.585938 L 274.980469 203.132812 L 275.605469 201.402344 L 276.230469 199.667969 L 276.855469 197.929688 L 278.105469 194.445312 L 278.730469 192.699219 L 279.351562 190.953125 L 279.976562 189.203125 L 280.601562 187.449219 L 281.226562 185.699219 L 281.851562 183.941406 L 282.476562 182.1875 L 284.351562 176.914062 L 284.976562 175.152344 L 285.597656 173.394531 L 288.722656 164.605469 L 290.597656 159.34375 L 291.222656 157.59375 L 291.84375 155.847656 L 292.46875 154.101562 L 293.09375 152.359375 L 294.34375 148.882812 L 294.96875 147.148438 L 296.21875 143.695312 L 296.84375 141.972656 L 297.464844 140.257812 L 298.089844 138.542969 L 298.714844 136.835938 L 299.339844 135.132812 L 299.964844 133.4375 L 300.589844 131.746094 L 301.214844 130.058594 L 301.839844 128.378906 L 302.464844 126.707031 L 303.089844 125.042969 L 303.710938 123.382812 L 304.335938 121.730469 L 304.960938 120.085938 L 305.585938 118.449219 L 306.210938 116.820312 L 306.835938 115.199219 L 307.460938 113.589844 L 308.085938 111.984375 L 308.710938 110.390625 L 309.335938 108.804688 L 309.957031 107.230469 L 310.582031 105.664062 L 311.207031 104.109375 L 311.832031 102.5625 L 312.457031 101.027344 L 313.082031 99.503906 L 313.707031 97.988281 L 314.332031 96.488281 L 314.957031 94.996094 L 315.582031 93.519531 L 316.203125 92.050781 L 316.828125 90.597656 L 317.453125 89.15625 L 318.078125 87.726562 L 318.703125 86.308594 L 319.328125 84.90625 L 319.953125 83.519531 L 320.578125 82.140625 L 321.203125 80.78125 L 321.828125 79.433594 L 322.449219 78.101562 L 323.074219 76.78125 L 323.699219 75.476562 L 324.324219 74.191406 L 324.949219 72.917969 L 325.574219 71.660156 L 326.199219 70.417969 L 326.824219 69.191406 L 327.449219 67.984375 L 328.074219 66.789062 L 328.695312 65.613281 L 329.320312 64.453125 L 329.945312 63.3125 L 330.570312 62.1875 L 331.195312 61.082031 L 331.820312 59.992188 L 332.445312 58.917969 L 333.070312 57.867188 L 333.695312 56.828125 L 334.316406 55.8125 L 334.941406 54.816406 L 335.566406 53.835938 L 336.191406 52.875 L 336.816406 51.933594 L 337.441406 51.011719 L 338.066406 50.109375 L 338.691406 49.226562 L 339.316406 48.363281 L 339.941406 47.523438 L 340.5625 46.699219 L 341.1875 45.898438 L 341.8125 45.117188 L 342.4375 44.355469 L 343.0625 43.613281 L 343.6875 42.894531 L 344.3125 42.199219 L 344.9375 41.519531 L 345.5625 40.863281 L 346.1875 40.230469 L 346.808594 39.617188 L 347.433594 39.027344 L 348.058594 38.457031 L 348.683594 37.910156 L 349.308594 37.386719 L 349.933594 36.882812 L 350.558594 36.402344 L 351.183594 35.945312 L 351.808594 35.507812 L 352.433594 35.09375 L 353.054688 34.703125 L 353.679688 34.332031 L 354.304688 33.988281 L 354.929688 33.664062 L 355.554688 33.363281 L 356.179688 33.085938 L 356.804688 32.832031 L 357.429688 32.601562 L 358.054688 32.394531 L 358.679688 32.207031 L 359.300781 32.046875 L 359.925781 31.90625 L 360.550781 31.789062 L 361.175781 31.695312 L 361.800781 31.628906 L 362.425781 31.582031 L 363.050781 31.558594 L 363.675781 31.558594 L 364.300781 31.582031 L 364.925781 31.628906 L 365.546875 31.695312 L 366.171875 31.789062 L 366.796875 31.90625 L 367.421875 32.046875 L 368.046875 32.207031 L 368.671875 32.394531 L 369.296875 32.601562 L 369.921875 32.832031 L 370.546875 33.085938 L 371.171875 33.363281 L 371.792969 33.664062 L 372.417969 33.988281 L 373.042969 34.332031 L 373.667969 34.703125 L 374.292969 35.09375 L 374.917969 35.507812 L 375.542969 35.945312 L 376.167969 36.402344 L 376.792969 36.882812 L 377.414062 37.386719 L 378.039062 37.910156 L 378.664062 38.457031 L 379.289062 39.027344 L 379.914062 39.617188 L 380.539062 40.230469 L 381.164062 40.863281 L 381.789062 41.519531 L 382.414062 42.199219 L 383.039062 42.894531 L 383.660156 43.613281 L 384.285156 44.355469 L 384.910156 45.117188 L 385.535156 45.898438 L 386.160156 46.699219 L 386.785156 47.523438 L 387.410156 48.363281 L 388.035156 49.226562 L 388.660156 50.109375 L 389.285156 51.011719 L 389.90625 51.933594 L 390.53125 52.875 L 391.15625 53.835938 L 391.78125 54.816406 L 392.40625 55.8125 L 393.03125 56.828125 L 393.65625 57.867188 L 394.28125 58.917969 L 394.90625 59.992188 L 395.53125 61.082031 L 396.152344 62.1875 L 396.777344 63.3125 L 397.402344 64.453125 L 398.027344 65.613281 L 398.652344 66.789062 L 399.277344 67.984375 L 399.902344 69.191406 L 400.527344 70.417969 L 401.152344 71.660156 L 401.777344 72.917969 L 402.398438 74.191406 L 403.023438 75.476562 L 403.648438 76.78125 L 404.273438 78.101562 L 404.898438 79.433594 L 405.523438 80.78125 L 406.148438 82.140625 L 406.773438 83.519531 L 407.398438 84.90625 L 408.023438 86.308594 L 408.644531 87.726562 L 409.269531 89.15625 L 409.894531 90.597656 L 410.519531 92.050781 L 411.144531 93.519531 L 411.769531 94.996094 L 412.394531 96.488281 L 413.019531 97.988281 L 413.644531 99.503906 L 414.265625 101.027344 L 414.890625 102.5625 L 415.515625 104.109375 L 416.140625 105.664062 L 416.765625 107.230469 L 417.390625 108.804688 L 418.015625 110.390625 L 418.640625 111.984375 L 419.265625 113.589844 L 419.890625 115.199219 L 420.511719 116.820312 L 421.136719 118.449219 L 421.761719 120.085938 L 422.386719 121.730469 L 423.011719 123.382812 L 423.636719 125.042969 L 424.261719 126.707031 L 424.886719 128.378906 L 425.511719 130.058594 L 426.136719 131.746094 L 426.757812 133.4375 L 427.382812 135.132812 L 428.007812 136.835938 L 428.632812 138.542969 L 429.882812 141.972656 L 430.507812 143.695312 L 431.757812 147.148438 L 432.382812 148.882812 L 433.003906 150.621094 L 433.628906 152.359375 L 434.253906 154.101562 L 435.503906 157.59375 L 436.128906 159.34375 L 438.003906 164.605469 L 438.628906 166.363281 L 439.25 168.121094 L 441.75 175.152344 L 442.375 176.914062 L 444.25 182.1875 L 444.875 183.941406 L 445.496094 185.699219 L 446.121094 187.449219 L 446.746094 189.203125 L 447.371094 190.953125 L 448.621094 194.445312 L 449.871094 197.929688 L 450.496094 199.667969 L 451.117188 201.402344 L 451.742188 203.132812 L 452.992188 206.585938 L 453.617188 208.304688 L 454.242188 210.019531 L 455.492188 213.441406 L 456.117188 215.144531 L 456.742188 216.839844 L 457.363281 218.535156 L 457.988281 220.222656 L 458.613281 221.90625 L 459.238281 223.582031 L 459.863281 225.253906 L 460.488281 226.921875 L 461.113281 228.582031 L 461.738281 230.234375 L 462.363281 231.882812 L 462.988281 233.523438 L 463.609375 235.160156 L 464.234375 236.789062 L 464.859375 238.410156 L 465.484375 240.027344 L 466.109375 241.632812 L 466.734375 243.234375 L 467.359375 244.828125 L 467.984375 246.414062 L 468.609375 247.992188 L 469.234375 249.5625 L 469.855469 251.125 L 470.480469 252.679688 L 471.105469 254.226562 L 471.730469 255.765625 L 472.355469 257.296875 L 472.980469 258.820312 L 473.605469 260.335938 L 474.230469 261.839844 L 474.855469 263.335938 L 475.480469 264.824219 L 476.101562 266.304688 L 476.726562 267.773438 L 477.351562 269.234375 L 477.976562 270.6875 L 478.601562 272.132812 L 479.226562 273.566406 L 479.851562 274.988281 L 480.476562 276.40625 L 481.101562 277.8125 L 481.726562 279.207031 L 482.347656 280.59375 L 482.972656 281.972656 L 483.597656 283.339844 L 484.222656 284.695312 L 484.847656 286.042969 L 485.472656 287.382812 L 486.097656 288.710938 L 486.722656 290.027344 L 487.347656 291.335938 L 487.96875 292.636719 L 488.59375 293.921875 L 489.21875 295.203125 L 489.84375 296.46875 L 490.46875 297.726562 L 491.09375 298.976562 L 491.71875 300.210938 L 492.34375 301.4375 L 492.96875 302.65625 L 493.59375 303.863281 L 494.214844 305.058594 L 494.839844 306.246094 L 495.464844 307.421875 L 496.089844 308.585938 L 496.714844 309.742188 L 497.339844 310.886719 L 497.964844 312.019531 L 498.589844 313.144531 L 499.214844 314.257812 L 499.839844 315.359375 L 500.460938 316.453125 L 501.085938 317.535156 L 501.710938 318.605469 L 502.335938 319.667969 L 502.960938 320.71875 L 503.585938 321.761719 L 504.210938 322.792969 L 504.835938 323.8125 L 505.460938 324.824219 L 506.085938 325.824219 L 506.707031 326.8125 L 507.332031 327.792969 L 507.957031 328.761719 L 508.582031 329.722656 L 509.207031 330.671875 L 509.832031 331.609375 L 510.457031 332.539062 L 511.082031 333.457031 L 511.707031 334.367188 L 512.332031 335.265625 L 512.953125 336.152344 L 513.578125 337.035156 L 514.203125 337.902344 L 514.828125 338.761719 L 515.453125 339.613281 L 516.078125 340.453125 L 516.703125 341.28125 L 517.328125 342.101562 L 517.953125 342.914062 L 518.578125 343.714844 L 519.199219 344.507812 L 519.824219 345.289062 L 520.449219 346.0625 L 521.074219 346.828125 L 521.699219 347.582031 L 522.324219 348.328125 L 522.949219 349.0625 L 523.574219 349.789062 L 524.199219 350.507812 L 524.820312 351.21875 L 525.445312 351.917969 L 526.070312 352.609375 L 526.695312 353.292969 L 527.320312 353.964844 L 527.945312 354.628906 L 528.570312 355.285156 L 529.195312 355.933594 L 529.820312 356.574219 L 530.445312 357.203125 L 531.066406 357.824219 L 531.691406 358.4375 L 532.316406 359.042969 L 532.941406 359.640625 L 533.566406 360.230469 L 534.191406 360.8125 L 534.816406 361.386719 L 535.441406 361.949219 L 536.066406 362.507812 L 536.691406 363.058594 L 537.3125 363.597656 L 537.9375 364.132812 L 538.5625 364.660156 L 539.1875 365.179688 L 539.8125 365.691406 L 540.4375 366.195312 L 541.0625 366.691406 L 541.6875 367.179688 L 542.3125 367.664062 L 542.9375 368.136719 L 543.558594 368.605469 L 544.183594 369.066406 L 544.808594 369.519531 L 545.433594 369.96875 L 546.058594 370.410156 L 546.683594 370.84375 L 547.308594 371.269531 L 547.933594 371.691406 L 548.558594 372.105469 L 549.183594 372.511719 L 549.804688 372.914062 L 550.429688 373.308594 L 551.054688 373.699219 L 551.679688 374.082031 L 552.304688 374.457031 L 552.929688 374.828125 L 553.554688 375.191406 L 554.179688 375.550781 L 554.804688 375.90625 L 555.429688 376.253906 L 556.050781 376.59375 L 556.675781 376.929688 L 557.300781 377.261719 L 557.925781 377.585938 L 558.550781 377.90625 L 559.175781 378.21875 L 559.800781 378.527344 L 560.425781 378.832031 L 561.050781 379.128906 L 561.671875 379.421875 L 562.296875 379.710938 L 562.921875 379.996094 L 563.546875 380.273438 L 564.171875 380.546875 L 564.796875 380.816406 L 565.421875 381.082031 L 566.046875 381.34375 L 566.671875 381.597656 L 567.296875 381.847656 L 567.917969 382.09375 L 568.542969 382.335938 L 569.167969 382.574219 L 569.792969 382.808594 L 571.042969 383.261719 L 572.292969 383.699219 L 573.542969 384.121094 L 574.164062 384.328125 L 575.414062 384.726562 L 576.664062 385.109375 L 577.289062 385.296875 L 577.914062 385.480469 L 578.539062 385.660156 L 579.164062 385.835938 L 579.789062 386.007812 L 580.410156 386.179688 L 581.660156 386.507812 L 582.285156 386.667969 L 583.535156 386.980469 L 584.785156 387.277344 L 585.410156 387.421875 L 586.035156 387.5625 L 586.65625 387.703125 L 587.28125 387.839844 L 588.53125 388.105469 L 589.15625 388.234375 L 590.40625 388.484375 L 591.03125 388.601562 L 591.65625 388.722656 L 592.28125 388.835938 L 592.902344 388.949219 L 593.527344 389.0625 L 594.152344 389.171875 L 595.402344 389.382812 L 596.652344 389.585938 L 597.277344 389.683594 L 597.902344 389.777344 L 598.523438 389.871094 L 599.148438 389.964844 L 599.773438 390.054688 L 601.648438 390.3125 L 602.898438 390.476562 L 604.148438 390.632812 L 604.769531 390.707031 L 605.394531 390.78125 L 607.269531 390.992188 L 609.144531 391.191406 L 610.394531 391.316406 L 611.015625 391.375 L 612.265625 391.492188 L 614.140625 391.65625 L 614.765625 391.707031 L 615.390625 391.761719 L 616.015625 391.808594 L 616.640625 391.859375 L 617.261719 391.90625 L 618.511719 392 L 621.011719 392.171875 L 622.886719 392.289062 L 623.507812 392.328125 L 626.007812 392.46875 L 626.632812 392.5 L 627.257812 392.535156 L 628.507812 392.597656 L 629.132812 392.625 L 629.753906 392.65625 L 630.378906 392.683594 L 631.003906 392.714844 L 631.628906 392.738281 L 632.878906 392.792969 L 633.503906 392.816406 L 634.128906 392.84375 L 634.753906 392.867188 L 635.375 392.890625 L 636 392.914062 L 636.625 392.933594 L 637.25 392.957031 L 637.875 392.976562 L 638.5 393 L 640.375 393.058594 L 641 393.074219 L 641.621094 393.09375 L 642.246094 393.109375 L 642.871094 393.128906 L 647.246094 393.238281 L 647.867188 393.25 L 648.492188 393.265625 L 653.492188 393.359375 L 654.113281 393.371094 L 654.738281 393.378906 L 655.363281 393.390625 L 655.988281 393.398438 L 656.613281 393.410156 L 657.863281 393.425781 L 658.488281 393.4375 L 659.738281 393.453125 L 660.359375 393.460938 L 662.234375 393.484375 L 662.859375 393.488281 L 664.734375 393.511719 L 665.359375 393.515625 L 665.984375 393.523438 L 666.605469 393.527344 L 667.230469 393.535156 L 667.855469 393.539062 L 668.480469 393.546875 L 669.730469 393.554688 L 670.355469 393.5625 L 671.605469 393.570312 L 672.226562 393.574219 L 673.476562 393.582031 L 674.101562 393.589844 L 675.351562 393.597656 "/>
<path fill-rule="nonzero" fill="rgb(56.078431%, 16.470588%, 26.27451%)" fill-opacity="0.4" d="M 210.648438 340.453125 L 211.0625 339.890625 L 211.273438 339.613281 L 211.480469 339.328125 L 211.6875 339.046875 L 211.894531 338.761719 L 212.105469 338.476562 L 212.3125 338.1875 L 212.519531 337.902344 L 212.730469 337.613281 L 213.144531 337.035156 L 213.355469 336.738281 L 213.976562 335.859375 L 214.1875 335.5625 L 214.394531 335.265625 L 214.601562 334.964844 L 214.8125 334.664062 L 215.019531 334.367188 L 215.226562 334.0625 L 215.4375 333.761719 L 215.851562 333.152344 L 216.058594 332.84375 L 216.269531 332.539062 L 216.476562 332.230469 L 216.683594 331.917969 L 216.894531 331.609375 L 217.308594 330.984375 L 217.519531 330.671875 L 218.140625 329.722656 L 218.351562 329.402344 L 218.765625 328.761719 L 218.976562 328.4375 L 219.183594 328.117188 L 219.390625 327.792969 L 219.601562 327.464844 L 219.808594 327.140625 L 220.222656 326.484375 L 220.433594 326.152344 L 220.640625 325.824219 L 220.847656 325.488281 L 221.058594 325.15625 L 221.265625 324.824219 L 221.472656 324.488281 L 221.683594 324.148438 L 221.890625 323.8125 L 222.304688 323.132812 L 222.515625 322.792969 L 222.929688 322.105469 L 223.140625 321.761719 L 223.761719 320.71875 L 223.972656 320.371094 L 224.386719 319.667969 L 224.597656 319.316406 L 225.011719 318.605469 L 225.222656 318.25 L 225.429688 317.894531 L 225.84375 317.175781 L 226.054688 316.8125 L 226.261719 316.453125 L 226.46875 316.089844 L 226.679688 315.722656 L 226.886719 315.359375 L 227.09375 314.992188 L 227.304688 314.625 L 227.511719 314.257812 L 227.925781 313.515625 L 228.136719 313.144531 L 228.550781 312.394531 L 228.761719 312.019531 L 229.175781 311.261719 L 229.386719 310.886719 L 229.800781 310.121094 L 230.007812 309.742188 L 230.21875 309.355469 L 230.425781 308.972656 L 230.632812 308.585938 L 230.84375 308.199219 L 231.050781 307.808594 L 231.257812 307.421875 L 231.46875 307.027344 L 231.882812 306.246094 L 232.089844 305.851562 L 232.300781 305.453125 L 232.507812 305.058594 L 232.714844 304.660156 L 232.925781 304.261719 L 233.132812 303.863281 L 233.339844 303.460938 L 233.550781 303.058594 L 233.757812 302.65625 L 234.171875 301.84375 L 234.382812 301.4375 L 234.589844 301.03125 L 234.796875 300.621094 L 235.007812 300.210938 L 235.214844 299.800781 L 235.421875 299.386719 L 235.632812 298.976562 L 235.839844 298.558594 L 236.046875 298.144531 L 236.253906 297.726562 L 236.464844 297.308594 L 236.671875 296.890625 L 236.878906 296.46875 L 237.089844 296.046875 L 237.503906 295.203125 L 237.714844 294.777344 L 237.921875 294.347656 L 238.128906 293.921875 L 238.335938 293.492188 L 238.546875 293.066406 L 238.753906 292.636719 L 238.960938 292.203125 L 239.171875 291.769531 L 239.585938 290.902344 L 239.796875 290.464844 L 240.210938 289.589844 L 240.417969 289.148438 L 240.628906 288.710938 L 240.835938 288.269531 L 241.042969 287.824219 L 241.253906 287.382812 L 241.667969 286.492188 L 241.878906 286.042969 L 242.5 284.695312 L 242.710938 284.242188 L 242.917969 283.792969 L 243.125 283.339844 L 243.335938 282.882812 L 243.542969 282.425781 L 243.75 281.972656 L 243.960938 281.511719 L 244.167969 281.054688 L 244.582031 280.132812 L 244.792969 279.667969 L 245 279.207031 L 245.207031 278.742188 L 245.417969 278.277344 L 245.625 277.8125 L 245.832031 277.34375 L 246.042969 276.875 L 246.25 276.40625 L 246.664062 275.460938 L 246.875 274.988281 L 247.082031 274.515625 L 247.289062 274.039062 L 247.5 273.566406 L 247.707031 273.085938 L 247.914062 272.609375 L 248.125 272.132812 L 248.332031 271.648438 L 248.746094 270.6875 L 248.957031 270.203125 L 249.371094 269.234375 L 249.582031 268.75 L 249.996094 267.773438 L 250.207031 267.285156 L 250.414062 266.792969 L 250.621094 266.304688 L 250.828125 265.8125 L 251.039062 265.316406 L 251.246094 264.824219 L 251.453125 264.328125 L 251.664062 263.832031 L 251.871094 263.335938 L 252.078125 262.835938 L 252.289062 262.339844 L 252.703125 261.339844 L 252.910156 260.835938 L 253.121094 260.335938 L 253.328125 259.828125 L 253.535156 259.324219 L 253.746094 258.820312 L 254.160156 257.804688 L 254.371094 257.296875 L 254.578125 256.789062 L 254.992188 255.765625 L 255.203125 255.253906 L 255.410156 254.742188 L 255.617188 254.226562 L 255.828125 253.710938 L 256.242188 252.679688 L 256.453125 252.164062 L 257.074219 250.605469 L 257.285156 250.085938 L 257.699219 249.039062 L 257.910156 248.515625 L 258.117188 247.992188 L 258.324219 247.464844 L 258.535156 246.941406 L 258.949219 245.886719 L 259.15625 245.355469 L 259.367188 244.828125 L 259.78125 243.765625 L 259.992188 243.234375 L 260.199219 242.699219 L 260.40625 242.167969 L 260.613281 241.632812 L 260.824219 241.097656 L 261.238281 240.027344 L 261.449219 239.488281 L 261.863281 238.410156 L 262.074219 237.871094 L 262.28125 237.328125 L 262.488281 236.789062 L 262.695312 236.246094 L 262.90625 235.703125 L 263.320312 234.617188 L 263.53125 234.070312 L 263.945312 232.976562 L 264.15625 232.429688 L 264.570312 231.335938 L 264.777344 230.785156 L 264.988281 230.234375 L 265.402344 229.132812 L 265.613281 228.582031 L 266.027344 227.472656 L 266.238281 226.921875 L 266.445312 226.367188 L 266.652344 225.808594 L 266.859375 225.253906 L 267.070312 224.699219 L 267.484375 223.582031 L 267.695312 223.023438 L 268.109375 221.90625 L 268.320312 221.34375 L 268.527344 220.785156 L 268.941406 219.660156 L 269.152344 219.097656 L 269.359375 218.535156 L 269.566406 217.96875 L 269.777344 217.40625 L 270.191406 216.273438 L 270.402344 215.707031 L 270.609375 215.144531 L 270.816406 214.574219 L 271.023438 214.007812 L 271.234375 213.441406 L 271.648438 212.300781 L 271.859375 211.730469 L 272.273438 210.589844 L 272.484375 210.019531 L 272.691406 209.449219 L 272.898438 208.875 L 273.105469 208.304688 L 273.316406 207.730469 L 273.523438 207.15625 L 273.730469 206.585938 L 273.941406 206.007812 L 274.355469 204.859375 L 274.566406 204.285156 L 274.773438 203.707031 L 274.980469 203.132812 L 275.1875 202.554688 L 275.398438 201.976562 L 275.605469 201.402344 L 275.8125 200.824219 L 276.023438 200.246094 L 276.230469 199.667969 L 276.4375 199.085938 L 276.648438 198.507812 L 276.855469 197.929688 L 277.0625 197.347656 L 277.269531 196.769531 L 277.480469 196.1875 L 277.6875 195.609375 L 277.894531 195.027344 L 278.105469 194.445312 L 278.519531 193.28125 L 278.730469 192.699219 L 279.351562 190.953125 L 279.5625 190.371094 L 279.769531 189.785156 L 279.976562 189.203125 L 280.1875 188.617188 L 280.394531 188.035156 L 280.601562 187.449219 L 280.8125 186.867188 L 281.019531 186.28125 L 281.226562 185.699219 L 281.433594 185.113281 L 281.644531 184.527344 L 281.851562 183.941406 L 282.058594 183.359375 L 282.269531 182.773438 L 282.683594 181.601562 L 282.894531 181.015625 L 283.515625 179.257812 L 283.726562 178.671875 L 284.140625 177.5 L 284.351562 176.914062 L 284.765625 175.742188 L 284.976562 175.152344 L 285.597656 173.394531 L 285.808594 172.808594 L 286.222656 171.636719 L 286.433594 171.050781 L 286.847656 169.878906 L 287.058594 169.292969 L 287.679688 167.535156 L 287.890625 166.949219 L 288.304688 165.777344 L 288.515625 165.191406 L 288.929688 164.019531 L 289.140625 163.4375 L 289.761719 161.679688 L 289.972656 161.097656 L 290.179688 160.511719 L 290.386719 159.929688 L 290.597656 159.34375 L 291.011719 158.179688 L 291.222656 157.59375 L 291.84375 155.847656 L 292.054688 155.265625 L 292.46875 154.101562 L 292.679688 153.519531 L 292.886719 152.941406 L 293.09375 152.359375 L 293.304688 151.777344 L 293.71875 150.621094 L 293.925781 150.039062 L 294.136719 149.460938 L 294.550781 148.304688 L 294.761719 147.726562 L 294.96875 147.148438 L 295.175781 146.574219 L 295.386719 145.996094 L 295.59375 145.421875 L 295.800781 144.84375 L 296.007812 144.269531 L 296.21875 143.695312 L 296.632812 142.546875 L 296.84375 141.972656 L 297.050781 141.402344 L 297.257812 140.828125 L 297.464844 140.257812 L 297.675781 139.683594 L 298.089844 138.542969 L 298.300781 137.972656 L 298.507812 137.40625 L 298.714844 136.835938 L 298.925781 136.269531 L 299.132812 135.699219 L 299.546875 134.566406 L 299.757812 134.003906 L 300.171875 132.871094 L 300.382812 132.308594 L 300.796875 131.183594 L 301.007812 130.621094 L 301.214844 130.058594 L 301.628906 128.941406 L 301.839844 128.378906 L 302.046875 127.824219 L 302.253906 127.265625 L 302.464844 126.707031 L 302.878906 125.597656 L 303.089844 125.042969 L 303.296875 124.488281 L 303.503906 123.9375 L 303.710938 123.382812 L 303.921875 122.832031 L 304.335938 121.730469 L 304.546875 121.183594 L 304.753906 120.632812 L 304.960938 120.085938 L 305.171875 119.539062 L 305.378906 118.996094 L 305.585938 118.449219 L 305.792969 117.90625 L 306.003906 117.363281 L 306.210938 116.820312 L 306.417969 116.28125 L 306.628906 115.738281 L 306.835938 115.199219 L 307.042969 114.664062 L 307.253906 114.125 L 307.875 112.519531 L 308.085938 111.984375 L 308.5 110.921875 L 308.710938 110.390625 L 308.917969 109.863281 L 309.125 109.332031 L 309.335938 108.804688 L 309.542969 108.28125 L 309.75 107.753906 L 309.957031 107.230469 L 310.167969 106.707031 L 310.375 106.183594 L 310.582031 105.664062 L 310.792969 105.144531 L 311 104.625 L 311.207031 104.109375 L 311.417969 103.59375 L 311.832031 102.5625 L 312.039062 102.050781 L 312.25 101.539062 L 312.457031 101.027344 L 312.664062 100.519531 L 312.875 100.011719 L 313.082031 99.503906 L 313.289062 99 L 313.5 98.492188 L 313.707031 97.988281 L 314.121094 96.988281 L 314.332031 96.488281 L 314.539062 95.992188 L 314.746094 95.492188 L 314.957031 94.996094 L 315.371094 94.011719 L 315.582031 93.519531 L 315.789062 93.027344 L 316.203125 92.050781 L 316.414062 91.566406 L 316.828125 90.597656 L 317.039062 90.117188 L 317.453125 89.15625 L 317.664062 88.679688 L 318.078125 87.726562 L 318.285156 87.253906 L 318.496094 86.78125 L 318.703125 86.308594 L 318.910156 85.84375 L 319.121094 85.375 L 319.328125 84.90625 L 319.535156 84.445312 L 319.746094 83.980469 L 320.160156 83.058594 L 320.367188 82.601562 L 320.578125 82.140625 L 320.992188 81.234375 L 321.203125 80.78125 L 321.617188 79.882812 L 321.828125 79.433594 L 322.242188 78.542969 L 322.449219 78.101562 L 322.660156 77.660156 L 322.867188 77.222656 L 323.074219 76.78125 L 323.285156 76.347656 L 323.492188 75.914062 L 323.699219 75.476562 L 323.910156 75.046875 L 324.117188 74.621094 L 324.324219 74.191406 L 324.53125 73.765625 L 324.742188 73.339844 L 325.15625 72.496094 L 325.367188 72.078125 L 325.574219 71.660156 L 325.78125 71.246094 L 325.992188 70.832031 L 326.199219 70.417969 L 326.40625 70.007812 L 326.613281 69.601562 L 326.824219 69.191406 L 327.238281 68.386719 L 327.449219 67.984375 L 327.863281 67.1875 L 328.074219 66.789062 L 328.488281 66.007812 L 328.695312 65.613281 L 328.90625 65.226562 L 329.320312 64.453125 L 329.53125 64.074219 L 329.738281 63.695312 L 329.945312 63.3125 L 330.15625 62.9375 L 330.570312 62.1875 L 330.777344 61.820312 L 330.988281 61.449219 L 331.195312 61.082031 L 331.402344 60.71875 L 331.613281 60.355469 L 331.820312 59.992188 L 332.027344 59.632812 L 332.238281 59.277344 L 332.445312 58.917969 L 332.859375 58.214844 L 333.070312 57.867188 L 333.277344 57.519531 L 333.484375 57.175781 L 333.695312 56.828125 L 333.902344 56.492188 L 334.316406 55.8125 L 334.527344 55.480469 L 334.941406 54.816406 L 335.152344 54.488281 L 335.359375 54.160156 L 335.566406 53.835938 L 335.777344 53.515625 L 336.191406 52.875 L 336.398438 52.5625 L 336.609375 52.246094 L 336.816406 51.933594 L 337.023438 51.625 L 337.234375 51.320312 L 337.441406 51.011719 L 337.648438 50.710938 L 337.859375 50.410156 L 338.066406 50.109375 L 338.273438 49.816406 L 338.480469 49.519531 L 338.691406 49.226562 L 338.898438 48.941406 L 339.105469 48.652344 L 339.316406 48.363281 L 339.523438 48.082031 L 339.730469 47.804688 L 339.941406 47.523438 L 340.148438 47.246094 L 340.5625 46.699219 L 340.773438 46.433594 L 340.980469 46.164062 L 341.1875 45.898438 L 341.398438 45.636719 L 341.605469 45.375 L 341.8125 45.117188 L 342.023438 44.863281 L 342.4375 44.355469 L 342.644531 44.109375 L 342.855469 43.863281 L 343.0625 43.613281 L 343.269531 43.375 L 343.480469 43.136719 L 343.6875 42.894531 L 343.894531 42.664062 L 344.105469 42.429688 L 344.3125 42.199219 L 344.726562 41.746094 L 344.9375 41.519531 L 345.351562 41.082031 L 345.5625 40.863281 L 345.976562 40.441406 L 346.1875 40.230469 L 346.601562 39.824219 L 346.808594 39.617188 L 347.019531 39.421875 L 347.226562 39.222656 L 347.433594 39.027344 L 347.644531 38.835938 L 347.851562 38.648438 L 348.058594 38.457031 L 348.269531 38.277344 L 348.683594 37.910156 L 348.890625 37.734375 L 349.101562 37.5625 L 349.308594 37.386719 L 349.515625 37.21875 L 349.726562 37.050781 L 349.933594 36.882812 L 350.140625 36.722656 L 350.351562 36.5625 L 350.558594 36.402344 L 350.972656 36.097656 L 351.183594 35.945312 L 351.390625 35.796875 L 351.597656 35.652344 L 351.808594 35.507812 L 352.015625 35.371094 L 352.222656 35.230469 L 352.433594 35.09375 L 352.640625 34.964844 L 352.847656 34.832031 L 353.054688 34.703125 L 353.265625 34.578125 L 353.472656 34.457031 L 353.679688 34.332031 L 353.890625 34.21875 L 354.097656 34.101562 L 354.304688 33.988281 L 354.515625 33.878906 L 354.722656 33.773438 L 354.929688 33.664062 L 355.136719 33.566406 L 355.347656 33.464844 L 355.554688 33.363281 L 355.761719 33.273438 L 355.972656 33.179688 L 356.179688 33.085938 L 356.386719 33.003906 L 356.597656 32.917969 L 356.804688 32.832031 L 357.011719 32.753906 L 357.21875 32.679688 L 357.429688 32.601562 L 357.84375 32.460938 L 358.054688 32.394531 L 358.46875 32.269531 L 358.679688 32.207031 L 359.09375 32.097656 L 359.300781 32.046875 L 359.511719 32 L 359.925781 31.90625 L 360.136719 31.867188 L 360.550781 31.789062 L 360.761719 31.757812 L 361.175781 31.695312 L 361.382812 31.671875 L 361.59375 31.652344 L 361.800781 31.628906 L 362.007812 31.613281 L 362.21875 31.597656 L 362.425781 31.582031 L 362.632812 31.574219 L 362.84375 31.566406 L 363.050781 31.558594 L 363.675781 31.558594 L 364.089844 31.574219 L 364.300781 31.582031 L 364.714844 31.613281 L 364.925781 31.628906 L 365.132812 31.652344 L 365.339844 31.671875 L 365.546875 31.695312 L 365.757812 31.726562 L 366.171875 31.789062 L 366.382812 31.828125 L 366.796875 31.90625 L 367.007812 31.953125 L 367.421875 32.046875 L 367.628906 32.097656 L 367.839844 32.152344 L 368.046875 32.207031 L 368.253906 32.269531 L 368.464844 32.332031 L 368.671875 32.394531 L 368.878906 32.460938 L 369.089844 32.53125 L 369.296875 32.601562 L 369.503906 32.679688 L 369.710938 32.753906 L 369.921875 32.832031 L 370.335938 33.003906 L 370.546875 33.085938 L 370.960938 33.273438 L 371.171875 33.363281 L 371.585938 33.566406 L 371.792969 33.664062 L 372.003906 33.773438 L 372.210938 33.878906 L 372.417969 33.988281 L 372.628906 34.101562 L 372.835938 34.21875 L 373.042969 34.332031 L 373.25 34.457031 L 373.460938 34.578125 L 373.667969 34.703125 L 373.875 34.832031 L 374.085938 34.964844 L 374.292969 35.09375 L 374.5 35.230469 L 374.710938 35.371094 L 374.917969 35.507812 L 375.332031 35.796875 L 375.542969 35.945312 L 375.957031 36.25 L 376.167969 36.402344 L 376.582031 36.722656 L 376.792969 36.882812 L 377.414062 37.386719 L 377.625 37.5625 L 377.832031 37.734375 L 378.039062 37.910156 L 378.25 38.09375 L 378.457031 38.277344 L 378.664062 38.457031 L 378.875 38.648438 L 379.082031 38.835938 L 379.289062 39.027344 L 379.496094 39.222656 L 379.707031 39.421875 L 379.914062 39.617188 L 380.121094 39.824219 L 380.332031 40.027344 L 380.539062 40.230469 L 380.746094 40.441406 L 380.957031 40.652344 L 381.164062 40.863281 L 381.578125 41.300781 L 381.789062 41.519531 L 382.203125 41.972656 L 382.414062 42.199219 L 382.621094 42.429688 L 382.828125 42.664062 L 383.039062 42.894531 L 383.246094 43.136719 L 383.660156 43.613281 L 383.871094 43.863281 L 384.285156 44.355469 L 384.496094 44.609375 L 384.910156 45.117188 L 385.121094 45.375 L 385.535156 45.898438 L 385.742188 46.164062 L 385.953125 46.433594 L 386.160156 46.699219 L 386.367188 46.972656 L 386.578125 47.246094 L 386.785156 47.523438 L 386.992188 47.804688 L 387.203125 48.082031 L 387.410156 48.363281 L 387.824219 48.941406 L 388.035156 49.226562 L 388.242188 49.519531 L 388.449219 49.816406 L 388.660156 50.109375 L 389.074219 50.710938 L 389.285156 51.011719 L 389.492188 51.320312 L 389.699219 51.625 L 389.90625 51.933594 L 390.117188 52.246094 L 390.324219 52.5625 L 390.53125 52.875 L 390.742188 53.195312 L 391.15625 53.835938 L 391.367188 54.160156 L 391.78125 54.816406 L 391.988281 55.148438 L 392.199219 55.480469 L 392.40625 55.8125 L 392.613281 56.152344 L 392.824219 56.492188 L 393.03125 56.828125 L 393.238281 57.175781 L 393.449219 57.519531 L 393.863281 58.214844 L 394.070312 58.566406 L 394.28125 58.917969 L 394.488281 59.277344 L 394.695312 59.632812 L 394.90625 59.992188 L 395.320312 60.71875 L 395.53125 61.082031 L 395.738281 61.449219 L 395.945312 61.820312 L 396.152344 62.1875 L 396.363281 62.5625 L 396.777344 63.3125 L 396.988281 63.695312 L 397.402344 64.453125 L 397.613281 64.839844 L 398.027344 65.613281 L 398.234375 66.007812 L 398.445312 66.398438 L 398.652344 66.789062 L 398.859375 67.1875 L 399.070312 67.585938 L 399.277344 67.984375 L 399.484375 68.386719 L 399.695312 68.789062 L 399.902344 69.191406 L 400.109375 69.601562 L 400.316406 70.007812 L 400.527344 70.417969 L 400.941406 71.246094 L 401.152344 71.660156 L 401.566406 72.496094 L 401.777344 72.917969 L 401.984375 73.339844 L 402.398438 74.191406 L 402.609375 74.621094 L 402.816406 75.046875 L 403.023438 75.476562 L 403.234375 75.914062 L 403.648438 76.78125 L 403.859375 77.222656 L 404.066406 77.660156 L 404.480469 78.542969 L 404.691406 78.988281 L 404.898438 79.433594 L 405.105469 79.882812 L 405.316406 80.332031 L 405.523438 80.78125 L 405.730469 81.234375 L 405.941406 81.6875 L 406.148438 82.140625 L 406.355469 82.601562 L 406.5625 83.058594 L 406.773438 83.519531 L 406.980469 83.980469 L 407.1875 84.445312 L 407.398438 84.90625 L 407.8125 85.84375 L 408.023438 86.308594 L 408.644531 87.726562 L 408.855469 88.203125 L 409.269531 89.15625 L 409.480469 89.636719 L 409.894531 90.597656 L 410.101562 91.082031 L 410.3125 91.566406 L 410.519531 92.050781 L 410.726562 92.539062 L 410.9375 93.027344 L 411.351562 94.011719 L 411.5625 94.503906 L 411.769531 94.996094 L 411.976562 95.492188 L 412.183594 95.992188 L 412.394531 96.488281 L 412.808594 97.488281 L 413.019531 97.988281 L 413.226562 98.492188 L 413.433594 99 L 413.644531 99.503906 L 414.265625 101.027344 L 414.476562 101.539062 L 414.890625 102.5625 L 415.101562 103.078125 L 415.515625 104.109375 L 415.726562 104.625 L 416.347656 106.183594 L 416.558594 106.707031 L 416.972656 107.753906 L 417.183594 108.28125 L 417.390625 108.804688 L 417.597656 109.332031 L 417.808594 109.863281 L 418.015625 110.390625 L 418.429688 111.453125 L 418.640625 111.984375 L 419.054688 113.054688 L 419.265625 113.589844 L 419.472656 114.125 L 419.679688 114.664062 L 419.890625 115.199219 L 420.097656 115.738281 L 420.304688 116.28125 L 420.511719 116.820312 L 420.722656 117.363281 L 421.136719 118.449219 L 421.347656 118.996094 L 421.554688 119.539062 L 421.761719 120.085938 L 421.972656 120.632812 L 422.179688 121.183594 L 422.386719 121.730469 L 422.59375 122.28125 L 422.804688 122.832031 L 423.011719 123.382812 L 423.21875 123.9375 L 423.429688 124.488281 L 423.84375 125.597656 L 424.054688 126.152344 L 424.261719 126.707031 L 424.675781 127.824219 L 424.886719 128.378906 L 425.09375 128.941406 L 425.300781 129.5 L 425.511719 130.058594 L 425.925781 131.183594 L 426.136719 131.746094 L 426.550781 132.871094 L 426.757812 133.4375 L 426.96875 134.003906 L 427.175781 134.566406 L 427.382812 135.132812 L 427.59375 135.699219 L 427.800781 136.269531 L 428.007812 136.835938 L 428.21875 137.40625 L 428.425781 137.972656 L 428.839844 139.113281 L 429.050781 139.683594 L 429.257812 140.257812 L 429.464844 140.828125 L 429.675781 141.402344 L 429.882812 141.972656 L 430.089844 142.546875 L 430.300781 143.121094 L 430.921875 144.84375 L 431.132812 145.421875 L 431.339844 145.996094 L 431.546875 146.574219 L 431.757812 147.148438 L 432.171875 148.304688 L 432.382812 148.882812 L 432.796875 150.039062 L 433.003906 150.621094 L 433.214844 151.199219 L 433.421875 151.777344 L 433.628906 152.359375 L 433.839844 152.941406 L 434.046875 153.519531 L 434.253906 154.101562 L 434.464844 154.683594 L 435.085938 156.429688 L 435.296875 157.011719 L 435.503906 157.59375 L 435.710938 158.179688 L 435.921875 158.761719 L 436.128906 159.34375 L 436.335938 159.929688 L 436.546875 160.511719 L 436.753906 161.097656 L 436.960938 161.679688 L 437.167969 162.265625 L 437.378906 162.851562 L 437.585938 163.4375 L 437.792969 164.019531 L 438.003906 164.605469 L 438.417969 165.777344 L 438.628906 166.363281 L 439.25 168.121094 L 439.460938 168.707031 L 439.875 169.878906 L 440.085938 170.464844 L 440.5 171.636719 L 440.710938 172.222656 L 441.332031 173.980469 L 441.542969 174.566406 L 441.75 175.152344 L 441.957031 175.742188 L 442.167969 176.328125 L 442.582031 177.5 L 442.792969 178.085938 L 443.414062 179.84375 L 443.625 180.429688 L 444.039062 181.601562 L 444.25 182.1875 L 444.664062 183.359375 L 444.875 183.941406 L 445.496094 185.699219 L 445.707031 186.28125 L 445.914062 186.867188 L 446.121094 187.449219 L 446.332031 188.035156 L 446.539062 188.617188 L 446.746094 189.203125 L 446.953125 189.785156 L 447.164062 190.371094 L 447.578125 191.535156 L 447.789062 192.117188 L 448.203125 193.28125 L 448.414062 193.863281 L 449.035156 195.609375 L 449.246094 196.1875 L 449.453125 196.769531 L 449.660156 197.347656 L 449.871094 197.929688 L 450.285156 199.085938 L 450.496094 199.667969 L 451.117188 201.402344 L 451.328125 201.976562 L 451.742188 203.132812 L 451.953125 203.707031 L 452.160156 204.285156 L 452.367188 204.859375 L 452.578125 205.433594 L 452.785156 206.007812 L 452.992188 206.585938 L 453.199219 207.15625 L 453.410156 207.730469 L 453.617188 208.304688 L 453.824219 208.875 L 454.035156 209.449219 L 454.449219 210.589844 L 454.660156 211.160156 L 455.28125 212.871094 L 455.492188 213.441406 L 455.90625 214.574219 L 456.117188 215.144531 L 456.324219 215.707031 L 456.53125 216.273438 L 456.742188 216.839844 L 456.949219 217.40625 L 457.15625 217.96875 L 457.363281 218.535156 L 457.574219 219.097656 L 457.988281 220.222656 L 458.199219 220.785156 L 458.40625 221.34375 L 458.613281 221.90625 L 458.824219 222.464844 L 459.445312 224.140625 L 459.65625 224.699219 L 460.070312 225.808594 L 460.28125 226.367188 L 460.488281 226.921875 L 460.695312 227.472656 L 460.90625 228.027344 L 461.113281 228.582031 L 461.527344 229.683594 L 461.738281 230.234375 L 462.152344 231.335938 L 462.363281 231.882812 L 462.777344 232.976562 L 462.988281 233.523438 L 463.402344 234.617188 L 463.609375 235.160156 L 463.820312 235.703125 L 464.234375 236.789062 L 464.445312 237.328125 L 464.652344 237.871094 L 464.859375 238.410156 L 465.070312 238.949219 L 465.484375 240.027344 L 465.691406 240.5625 L 465.902344 241.097656 L 466.316406 242.167969 L 466.527344 242.699219 L 466.734375 243.234375 L 466.941406 243.765625 L 467.152344 244.296875 L 467.359375 244.828125 L 467.566406 245.355469 L 467.773438 245.886719 L 467.984375 246.414062 L 468.191406 246.941406 L 468.398438 247.464844 L 468.609375 247.992188 L 469.023438 249.039062 L 469.234375 249.5625 L 469.441406 250.085938 L 469.855469 251.125 L 470.066406 251.644531 L 470.273438 252.164062 L 470.480469 252.679688 L 470.691406 253.195312 L 471.105469 254.226562 L 471.316406 254.742188 L 471.9375 256.277344 L 472.148438 256.789062 L 472.5625 257.804688 L 472.773438 258.3125 L 472.980469 258.820312 L 473.1875 259.324219 L 473.398438 259.828125 L 473.605469 260.335938 L 473.8125 260.835938 L 474.019531 261.339844 L 474.230469 261.839844 L 474.4375 262.339844 L 474.644531 262.835938 L 474.855469 263.335938 L 475.269531 264.328125 L 475.480469 264.824219 L 475.6875 265.316406 L 475.894531 265.8125 L 476.101562 266.304688 L 476.3125 266.792969 L 476.519531 267.285156 L 476.726562 267.773438 L 476.9375 268.261719 L 477.144531 268.75 L 477.351562 269.234375 L 477.5625 269.71875 L 477.976562 270.6875 L 478.183594 271.167969 L 478.394531 271.648438 L 478.601562 272.132812 L 478.808594 272.609375 L 479.019531 273.085938 L 479.226562 273.566406 L 479.433594 274.039062 L 479.644531 274.515625 L 480.265625 275.933594 L 480.476562 276.40625 L 480.890625 277.34375 L 481.101562 277.8125 L 481.515625 278.742188 L 481.726562 279.207031 L 481.933594 279.667969 L 482.140625 280.132812 L 482.347656 280.59375 L 482.558594 281.054688 L 482.765625 281.511719 L 482.972656 281.972656 L 483.183594 282.425781 L 483.597656 283.339844 L 483.808594 283.792969 L 484.015625 284.242188 L 484.222656 284.695312 L 484.429688 285.144531 L 484.640625 285.59375 L 485.054688 286.492188 L 485.265625 286.9375 L 485.472656 287.382812 L 485.679688 287.824219 L 485.886719 288.269531 L 486.097656 288.710938 L 486.304688 289.148438 L 486.511719 289.589844 L 486.722656 290.027344 L 487.136719 290.902344 L 487.347656 291.335938 L 487.96875 292.636719 L 488.179688 293.066406 L 488.386719 293.492188 L 488.59375 293.921875 L 488.804688 294.347656 L 489.011719 294.777344 L 489.21875 295.203125 L 489.429688 295.625 L 490.050781 296.890625 L 490.261719 297.308594 L 490.675781 298.144531 L 490.886719 298.558594 L 491.09375 298.976562 L 491.300781 299.386719 L 491.511719 299.800781 L 492.132812 301.03125 L 492.34375 301.4375 L 492.757812 302.25 L 492.96875 302.65625 L 493.382812 303.460938 L 493.59375 303.863281 L 494.214844 305.058594 L 494.425781 305.453125 L 494.632812 305.851562 L 494.839844 306.246094 L 495.050781 306.636719 L 495.257812 307.027344 L 495.464844 307.421875 L 495.675781 307.808594 L 495.882812 308.199219 L 496.296875 308.972656 L 496.507812 309.355469 L 496.714844 309.742188 L 496.921875 310.121094 L 497.132812 310.503906 L 497.339844 310.886719 L 497.546875 311.261719 L 497.757812 311.640625 L 497.964844 312.019531 L 498.378906 312.769531 L 498.589844 313.144531 L 499.003906 313.886719 L 499.214844 314.257812 L 499.628906 314.992188 L 499.839844 315.359375 L 500.046875 315.722656 L 500.253906 316.089844 L 500.460938 316.453125 L 500.671875 316.8125 L 500.878906 317.175781 L 501.085938 317.535156 L 501.296875 317.894531 L 501.710938 318.605469 L 501.921875 318.960938 L 502.128906 319.316406 L 502.542969 320.019531 L 502.753906 320.371094 L 503.167969 321.066406 L 503.378906 321.414062 L 503.585938 321.761719 L 503.792969 322.105469 L 504.003906 322.449219 L 504.210938 322.792969 L 504.625 323.472656 L 504.835938 323.8125 L 505.042969 324.148438 L 505.25 324.488281 L 505.460938 324.824219 L 505.875 325.488281 L 506.085938 325.824219 L 506.292969 326.152344 L 506.5 326.484375 L 506.707031 326.8125 L 506.917969 327.140625 L 507.125 327.464844 L 507.332031 327.792969 L 507.542969 328.117188 L 507.75 328.4375 L 507.957031 328.761719 L 508.167969 329.082031 L 508.582031 329.722656 L 508.789062 330.039062 L 509 330.355469 L 509.207031 330.671875 L 509.414062 330.984375 L 509.625 331.296875 L 509.832031 331.609375 L 510.039062 331.917969 L 510.25 332.230469 L 510.457031 332.539062 L 510.664062 332.84375 L 510.871094 333.152344 L 511.082031 333.457031 L 511.289062 333.761719 L 511.496094 334.0625 L 511.707031 334.367188 L 511.914062 334.664062 L 512.121094 334.964844 L 512.332031 335.265625 L 512.746094 335.859375 L 512.953125 336.152344 L 513.164062 336.445312 L 513.371094 336.738281 L 513.578125 337.035156 L 513.789062 337.324219 L 514.203125 337.902344 L 514.414062 338.1875 L 514.621094 338.476562 L 515.035156 339.046875 L 515.246094 339.328125 L 515.453125 339.613281 L 515.660156 339.890625 L 515.871094 340.171875 L 516.078125 340.453125 L 516.285156 393.71875 L 210.4375 393.71875 Z M 210.648438 340.453125 "/>
</svg>
