<?xml version="1.0" encoding="UTF-8"?>
<svg xmlns="http://www.w3.org/2000/svg" xmlns:xlink="http://www.w3.org/1999/xlink" width="648" height="360" viewBox="0 0 648 360">
<defs>
<clipPath id="clip-0">
<path clip-rule="nonzero" d="M 37.527344 13.449219 L 634.546875 13.449219 L 634.546875 312.195312 L 37.527344 312.195312 Z M 37.527344 13.449219 "/>
</clipPath>
<clipPath id="clip-1">
<path clip-rule="nonzero" d="M 37.527344 297 L 634.546875 297 L 634.546875 300 L 37.527344 300 Z M 37.527344 297 "/>
</clipPath>
<clipPath id="clip-2">
<path clip-rule="nonzero" d="M 96 13.449219 L 100 13.449219 L 100 312.195312 L 96 312.195312 Z M 96 13.449219 "/>
</clipPath>
<clipPath id="clip-3">
<path clip-rule="nonzero" d="M 287 13.449219 L 290 13.449219 L 290 312.195312 L 287 312.195312 Z M 287 13.449219 "/>
</clipPath>
<clipPath id="clip-4">
<path clip-rule="nonzero" d="M 477 13.449219 L 481 13.449219 L 481 312.195312 L 477 312.195312 Z M 477 13.449219 "/>
</clipPath>
</defs>
<rect x="-64.8" y="-36" width="777.6" height="432" fill="rgb(100%, 100%, 100%)" fill-opacity="1"/>
<rect x="-64.8" y="-36" width="777.6" height="432" fill="rgb(95.294118%, 95.294118%, 95.294118%)" fill-opacity="1"/>
<path fill="none" stroke-width="2.618947" stroke-linecap="round" stroke-linejoin="round" stroke="rgb(95.294118%, 95.294118%, 95.294118%)" stroke-opacity="1" stroke-miterlimit="10" d="M 0 360 L 648 360 L 648 0 L 0 0 Z M 0 360 "/>
<g clip-path="url(#clip-0)">
<path fill-rule="nonzero" fill="rgb(95.294118%, 95.294118%, 95.294118%)" fill-opacity="1" stroke-width="2.618947" stroke-linecap="round" stroke-linejoin="round" stroke="rgb(95.294118%, 95.294118%, 95.294118%)" stroke-opacity="1" stroke-miterlimit="10" d="M 37.527344 312.195312 L 634.546875 312.195312 L 634.546875 13.449219 L 37.527344 13.449219 Z M 37.527344 312.195312 "/>
</g>
<g clip-path="url(#clip-1)">
<path fill="none" stroke-width="2.618947" stroke-linecap="butt" stroke-linejoin="round" stroke="rgb(92.156863%, 92.156863%, 92.156863%)" stroke-opacity="1" stroke-miterlimit="10" d="M 37.527344 298.617188 L 634.550781 298.617188 "/>
</g>
<g clip-path="url(#clip-2)">
<path fill="none" stroke-width="2.618947" stroke-linecap="butt" stroke-linejoin="round" stroke="rgb(92.156863%, 92.156863%, 92.156863%)" stroke-opacity="1" stroke-miterlimit="10" d="M 97.992188 312.195312 L 97.992188 13.449219 "/>
</g>
<g clip-path="url(#clip-3)">
<path fill="none" stroke-width="2.618947" stroke-linecap="butt" stroke-linejoin="round" stroke="rgb(92.156863%, 92.156863%, 92.156863%)" stroke-opacity="1" stroke-miterlimit="10" d="M 288.429688 312.195312 L 288.429688 13.449219 "/>
</g>
<g clip-path="url(#clip-4)">
<path fill="none" stroke-width="2.618947" stroke-linecap="butt" stroke-linejoin="round" stroke="rgb(92.156863%, 92.156863%, 92.156863%)" stroke-opacity="1" stroke-miterlimit="10" d="M 478.867188 312.195312 L 478.867188 13.449219 "/>
</g>
<path fill-rule="nonzero" fill="rgb(56.078431%, 16.470588%, 26.27451%)" fill-opacity="1" d="M 64.667969 298.617188 L 131.320312 298.617188 L 131.320312 171.875 L 64.667969 171.875 Z M 64.667969 298.617188 "/>
<path fill-rule="nonzero" fill="rgb(56.078431%, 16.470588%, 26.27451%)" fill-opacity="1" d="M 159.886719 298.617188 L 226.539062 298.617188 L 226.539062 27.03125 L 159.886719 27.03125 Z M 159.886719 298.617188 "/>
<path fill-rule="nonzero" fill="rgb(56.078431%, 16.470588%, 26.27451%)" fill-opacity="1" d="M 255.105469 298.617188 L 321.757812 298.617188 L 321.757812 65.828125 L 255.105469 65.828125 Z M 255.105469 298.617188 "/>
<path fill-rule="nonzero" fill="rgb(56.078431%, 16.470588%, 26.27451%)" fill-opacity="1" d="M 350.324219 298.617188 L 416.976562 298.617188 L 416.976562 198.851562 L 350.324219 198.851562 Z M 350.324219 298.617188 "/>
<path fill-rule="nonzero" fill="rgb(56.078431%, 16.470588%, 26.27451%)" fill-opacity="1" d="M 445.542969 298.617188 L 512.195312 298.617188 L 512.195312 277.238281 L 445.542969 277.238281 Z M 445.542969 298.617188 "/>
<path fill-rule="nonzero" fill="rgb(56.078431%, 16.470588%, 26.27451%)" fill-opacity="1" d="M 540.761719 298.617188 L 607.414062 298.617188 L 607.414062 296.785156 L 540.761719 296.785156 Z M 540.761719 298.617188 "/>
<path fill-rule="nonzero" fill="rgb(10.196078%, 10.196078%, 10.196078%)" fill-opacity="1" d="M 19.425781 307.152344 L 18.980469 307.132812 L 18.554688 307.066406 L 18.152344 306.957031 L 17.769531 306.804688 L 17.40625 306.609375 L 17.0625 306.371094 L 16.742188 306.089844 L 16.441406 305.761719 L 16.160156 305.390625 L 15.898438 304.980469 L 15.660156 304.527344 L 15.449219 304.035156 L 15.261719 303.507812 L 15.097656 302.945312 L 14.960938 302.347656 L 14.847656 301.710938 L 14.761719 301.039062 L 14.699219 300.332031 L 14.660156 299.585938 L 14.648438 298.804688 L 14.660156 298.027344 L 14.699219 297.289062 L 14.761719 296.585938 L 14.847656 295.921875 L 14.960938 295.292969 L 15.097656 294.699219 L 15.261719 294.144531 L 15.449219 293.628906 L 15.660156 293.148438 L 15.898438 292.703125 L 16.160156 292.300781 L 16.441406 291.9375 L 16.742188 291.621094 L 17.0625 291.34375 L 17.40625 291.109375 L 17.769531 290.917969 L 18.152344 290.769531 L 18.554688 290.664062 L 18.980469 290.601562 L 19.425781 290.578125 L 19.875 290.601562 L 20.300781 290.664062 L 20.707031 290.769531 L 21.09375 290.917969 L 21.457031 291.109375 L 21.796875 291.34375 L 22.117188 291.621094 L 22.417969 291.9375 L 22.695312 292.300781 L 22.949219 292.703125 L 23.1875 293.148438 L 23.398438 293.628906 L 23.585938 294.144531 L 23.75 294.699219 L 23.886719 295.292969 L 24 295.921875 L 24.085938 296.585938 L 24.148438 297.289062 L 24.1875 298.027344 L 24.199219 298.804688 L 24.1875 299.585938 L 24.148438 300.332031 L 24.085938 301.039062 L 24 301.710938 L 23.886719 302.347656 L 23.75 302.945312 L 23.585938 303.507812 L 23.398438 304.035156 L 23.1875 304.527344 L 22.949219 304.980469 L 22.695312 305.390625 L 22.417969 305.761719 L 22.117188 306.089844 L 21.796875 306.371094 L 21.457031 306.609375 L 21.09375 306.804688 L 20.707031 306.957031 L 20.300781 307.066406 L 19.875 307.132812 Z M 19.425781 306.203125 L 19.753906 306.183594 L 20.066406 306.128906 L 20.367188 306.035156 L 20.652344 305.902344 L 20.925781 305.734375 L 21.183594 305.527344 L 21.425781 305.285156 L 21.65625 305.003906 L 21.871094 304.683594 L 22.074219 304.328125 L 22.265625 303.9375 L 22.433594 303.507812 L 22.585938 303.042969 L 22.714844 302.546875 L 22.824219 302.011719 L 22.914062 301.441406 L 22.984375 300.835938 L 23.035156 300.191406 L 23.066406 299.515625 L 23.074219 298.804688 L 23.066406 298.09375 L 23.035156 297.417969 L 22.984375 296.78125 L 22.914062 296.179688 L 22.824219 295.617188 L 22.714844 295.089844 L 22.585938 294.601562 L 22.433594 294.148438 L 22.265625 293.734375 L 22.074219 293.355469 L 21.871094 293.007812 L 21.65625 292.695312 L 21.425781 292.421875 L 21.183594 292.1875 L 20.925781 291.984375 L 20.652344 291.820312 L 20.367188 291.691406 L 20.066406 291.601562 L 19.753906 291.546875 L 19.425781 291.527344 L 19.101562 291.546875 L 18.789062 291.601562 L 18.492188 291.691406 L 18.207031 291.820312 L 17.9375 291.984375 L 17.679688 292.1875 L 17.433594 292.421875 L 17.199219 292.695312 L 16.980469 293.007812 L 16.773438 293.355469 L 16.585938 293.734375 L 16.414062 294.148438 L 16.265625 294.601562 L 16.132812 295.089844 L 16.023438 295.617188 L 15.933594 296.179688 L 15.863281 296.78125 L 15.816406 297.417969 L 15.785156 298.09375 L 15.773438 298.804688 L 15.785156 299.515625 L 15.816406 300.191406 L 15.863281 300.835938 L 15.933594 301.441406 L 16.023438 302.011719 L 16.132812 302.546875 L 16.265625 303.042969 L 16.414062 303.507812 L 16.585938 303.9375 L 16.773438 304.328125 L 16.980469 304.683594 L 17.199219 305.003906 L 17.433594 305.285156 L 17.679688 305.527344 L 17.9375 305.734375 L 18.207031 305.902344 L 18.492188 306.035156 L 18.789062 306.128906 L 19.101562 306.183594 Z M 19.425781 306.203125 "/>
<path fill-rule="nonzero" fill="rgb(10.196078%, 10.196078%, 10.196078%)" fill-opacity="1" d="M 97.980469 341.074219 L 97.535156 341.054688 L 97.113281 340.988281 L 96.707031 340.878906 L 96.324219 340.726562 L 95.960938 340.53125 L 95.621094 340.292969 L 95.296875 340.007812 L 94.996094 339.683594 L 94.714844 339.3125 L 94.457031 338.902344 L 94.21875 338.445312 L 94.003906 337.957031 L 93.816406 337.429688 L 93.65625 336.867188 L 93.519531 336.269531 L 93.40625 335.632812 L 93.316406 334.960938 L 93.253906 334.253906 L 93.21875 333.507812 L 93.207031 332.726562 L 93.21875 331.949219 L 93.253906 331.210938 L 93.316406 330.507812 L 93.40625 329.839844 L 93.519531 329.214844 L 93.65625 328.621094 L 93.816406 328.066406 L 94.003906 327.550781 L 94.21875 327.070312 L 94.457031 326.625 L 94.714844 326.222656 L 94.996094 325.859375 L 95.296875 325.542969 L 95.621094 325.265625 L 95.960938 325.03125 L 96.324219 324.839844 L 96.707031 324.691406 L 97.113281 324.585938 L 97.535156 324.523438 L 97.980469 324.5 L 98.429688 324.523438 L 98.859375 324.585938 L 99.265625 324.691406 L 99.648438 324.839844 L 100.011719 325.03125 L 100.355469 325.265625 L 100.671875 325.542969 L 100.972656 325.859375 L 101.25 326.222656 L 101.503906 326.625 L 101.742188 327.070312 L 101.957031 327.550781 L 102.144531 328.066406 L 102.304688 328.621094 L 102.441406 329.214844 L 102.554688 329.839844 L 102.644531 330.507812 L 102.707031 331.210938 L 102.742188 331.949219 L 102.753906 332.726562 L 102.742188 333.507812 L 102.707031 334.253906 L 102.644531 334.960938 L 102.554688 335.632812 L 102.441406 336.269531 L 102.304688 336.867188 L 102.144531 337.429688 L 101.957031 337.957031 L 101.742188 338.445312 L 101.503906 338.902344 L 101.25 339.3125 L 100.972656 339.683594 L 100.671875 340.007812 L 100.355469 340.292969 L 100.011719 340.53125 L 99.648438 340.726562 L 99.265625 340.878906 L 98.859375 340.988281 L 98.429688 341.054688 Z M 97.980469 340.125 L 98.308594 340.105469 L 98.621094 340.050781 L 98.921875 339.957031 L 99.207031 339.824219 L 99.480469 339.65625 L 99.738281 339.449219 L 99.984375 339.207031 L 100.210938 338.925781 L 100.429688 338.605469 L 100.628906 338.25 L 100.820312 337.859375 L 100.992188 337.429688 L 101.140625 336.964844 L 101.269531 336.464844 L 101.378906 335.933594 L 101.46875 335.363281 L 101.539062 334.753906 L 101.589844 334.113281 L 101.621094 333.4375 L 101.628906 332.726562 L 101.621094 332.015625 L 101.589844 331.339844 L 101.539062 330.703125 L 101.46875 330.101562 L 101.378906 329.539062 L 101.269531 329.011719 L 101.140625 328.523438 L 100.992188 328.070312 L 100.820312 327.652344 L 100.628906 327.277344 L 100.429688 326.929688 L 100.210938 326.617188 L 99.984375 326.34375 L 99.738281 326.109375 L 99.480469 325.90625 L 99.207031 325.742188 L 98.921875 325.613281 L 98.621094 325.523438 L 98.308594 325.46875 L 97.980469 325.449219 L 97.65625 325.46875 L 97.347656 325.523438 L 97.050781 325.613281 L 96.765625 325.742188 L 96.492188 325.90625 L 96.234375 326.109375 L 95.988281 326.34375 L 95.757812 326.617188 L 95.535156 326.929688 L 95.332031 327.277344 L 95.140625 327.652344 L 94.96875 328.070312 L 94.820312 328.523438 L 94.691406 329.011719 L 94.582031 329.539062 L 94.492188 330.101562 L 94.421875 330.703125 L 94.371094 331.339844 L 94.339844 332.015625 L 94.332031 332.726562 L 94.339844 333.4375 L 94.371094 334.113281 L 94.421875 334.753906 L 94.492188 335.363281 L 94.582031 335.933594 L 94.691406 336.464844 L 94.820312 336.964844 L 94.96875 337.429688 L 95.140625 337.859375 L 95.332031 338.25 L 95.535156 338.605469 L 95.757812 338.925781 L 95.988281 339.207031 L 96.234375 339.449219 L 96.492188 339.65625 L 96.765625 339.824219 L 97.050781 339.957031 L 97.347656 340.050781 L 97.65625 340.105469 Z M 97.980469 340.125 "/>
<path fill-rule="nonzero" fill="rgb(10.196078%, 10.196078%, 10.196078%)" fill-opacity="1" d="M 283.46875 340.777344 L 283.46875 340.074219 L 283.984375 339.546875 L 284.484375 339.035156 L 284.964844 338.535156 L 285.429688 338.050781 L 285.875 337.582031 L 286.304688 337.125 L 286.714844 336.6875 L 287.109375 336.257812 L 287.484375 335.847656 L 287.84375 335.449219 L 288.183594 335.058594 L 288.507812 334.675781 L 288.8125 334.304688 L 289.101562 333.9375 L 289.375 333.582031 L 289.628906 333.234375 L 289.863281 332.894531 L 290.082031 332.5625 L 290.285156 332.238281 L 290.46875 331.925781 L 290.632812 331.617188 L 290.78125 331.3125 L 290.914062 331.011719 L 291.027344 330.714844 L 291.125 330.417969 L 291.203125 330.128906 L 291.265625 329.839844 L 291.308594 329.558594 L 291.335938 329.277344 L 291.34375 329 L 291.335938 328.707031 L 291.308594 328.417969 L 291.265625 328.144531 L 291.207031 327.875 L 291.128906 327.621094 L 291.035156 327.371094 L 290.925781 327.132812 L 290.800781 326.90625 L 290.65625 326.683594 L 290.492188 326.476562 L 290.316406 326.28125 L 290.125 326.105469 L 289.910156 325.953125 L 289.675781 325.820312 L 289.425781 325.707031 L 289.152344 325.613281 L 288.859375 325.542969 L 288.550781 325.492188 L 288.21875 325.460938 L 287.867188 325.449219 L 287.652344 325.457031 L 287.441406 325.472656 L 287.230469 325.503906 L 287.023438 325.546875 L 286.816406 325.601562 L 286.613281 325.667969 L 286.410156 325.746094 L 286.210938 325.835938 L 286.015625 325.9375 L 285.816406 326.050781 L 285.628906 326.171875 L 285.445312 326.300781 L 285.269531 326.4375 L 285.09375 326.578125 L 284.925781 326.726562 L 284.757812 326.878906 L 284.597656 327.039062 L 284.441406 327.203125 L 284.289062 327.375 L 284.144531 327.550781 L 283.417969 326.851562 L 283.601562 326.652344 L 283.785156 326.464844 L 283.976562 326.28125 L 284.171875 326.101562 L 284.367188 325.933594 L 284.570312 325.765625 L 284.777344 325.609375 L 284.984375 325.457031 L 285.199219 325.3125 L 285.417969 325.175781 L 285.640625 325.046875 L 285.871094 324.933594 L 286.109375 324.832031 L 286.355469 324.742188 L 286.605469 324.667969 L 286.863281 324.609375 L 287.128906 324.5625 L 287.402344 324.527344 L 287.679688 324.507812 L 287.96875 324.5 L 288.386719 324.511719 L 288.789062 324.550781 L 289.171875 324.609375 L 289.53125 324.695312 L 289.875 324.808594 L 290.195312 324.941406 L 290.5 325.101562 L 290.785156 325.285156 L 291.046875 325.492188 L 291.292969 325.726562 L 291.515625 325.976562 L 291.714844 326.246094 L 291.890625 326.53125 L 292.046875 326.832031 L 292.175781 327.152344 L 292.28125 327.484375 L 292.363281 327.832031 L 292.421875 328.199219 L 292.457031 328.578125 L 292.46875 328.976562 L 292.457031 329.289062 L 292.429688 329.609375 L 292.382812 329.925781 L 292.320312 330.242188 L 292.238281 330.5625 L 292.136719 330.882812 L 292.015625 331.203125 L 291.875 331.527344 L 291.71875 331.851562 L 291.542969 332.175781 L 291.355469 332.503906 L 291.152344 332.835938 L 290.933594 333.171875 L 290.703125 333.515625 L 290.457031 333.863281 L 290.191406 334.214844 L 289.914062 334.574219 L 289.621094 334.933594 L 289.316406 335.304688 L 288.992188 335.675781 L 288.660156 336.054688 L 288.320312 336.445312 L 287.964844 336.84375 L 287.597656 337.25 L 287.21875 337.667969 L 286.828125 338.097656 L 286.425781 338.53125 L 286.007812 338.980469 L 285.582031 339.433594 L 285.144531 339.902344 L 285.273438 339.890625 L 285.402344 339.882812 L 285.535156 339.871094 L 285.933594 339.847656 L 286.066406 339.84375 L 286.199219 339.835938 L 286.332031 339.832031 L 286.46875 339.824219 L 286.609375 339.816406 L 287.019531 339.792969 L 287.15625 339.789062 L 287.554688 339.777344 L 293.269531 339.777344 L 293.269531 340.777344 Z M 283.46875 340.777344 "/>
<path fill-rule="nonzero" fill="rgb(10.196078%, 10.196078%, 10.196078%)" fill-opacity="1" d="M 474.628906 335.050781 L 480.628906 335.050781 L 480.628906 329.085938 L 480.632812 328.96875 L 480.632812 328.714844 L 480.636719 328.582031 L 480.640625 328.441406 L 480.644531 328.296875 L 480.644531 328.144531 L 480.652344 327.988281 L 480.65625 327.824219 L 480.664062 327.664062 L 480.675781 327.507812 L 480.683594 327.355469 L 480.691406 327.210938 L 480.699219 327.070312 L 480.707031 326.933594 L 480.714844 326.804688 L 480.71875 326.679688 L 480.726562 326.5625 L 480.730469 326.449219 L 480.628906 326.449219 L 480.570312 326.550781 L 480.507812 326.648438 L 480.449219 326.75 L 480.261719 327.042969 L 480.199219 327.136719 L 480.132812 327.234375 L 480.070312 327.332031 L 480.003906 327.425781 L 479.941406 327.519531 L 479.875 327.617188 L 479.808594 327.71875 L 479.742188 327.816406 L 479.675781 327.917969 L 479.605469 328.023438 L 479.539062 328.128906 L 479.398438 328.339844 L 479.332031 328.449219 Z M 480.628906 340.777344 L 480.628906 336 L 473.28125 336 L 473.28125 335.351562 L 480.707031 324.800781 L 481.707031 324.800781 L 481.707031 335.050781 L 484.082031 335.050781 L 484.082031 336 L 481.707031 336 L 481.707031 340.777344 Z M 480.628906 340.777344 "/>
</svg>
