<?xml version="1.0" encoding="UTF-8"?>
<!DOCTYPE svg PUBLIC "-//W3C//DTD SVG 1.1//EN" "http://www.w3.org/Graphics/SVG/1.1/DTD/svg11.dtd">
<svg xmlns="http://www.w3.org/2000/svg" version="1.1" width="201px" height="207px" style="shape-rendering:geometricPrecision; text-rendering:geometricPrecision; image-rendering:optimizeQuality; fill-rule:evenodd; clip-rule:evenodd" xmlns:xlink="http://www.w3.org/1999/xlink">
<g><path style="opacity:0.977" fill="#2a9c8e" d="M 98.5,22.5 C 99.552,22.3505 100.552,22.5172 101.5,23C 103.257,25.8456 105.257,28.5122 107.5,31C 110.232,31.413 112.899,32.0797 115.5,33C 118.112,37.7235 120.612,42.5569 123,47.5C 124.264,49.607 126.097,50.607 128.5,50.5C 128.64,54.8629 126.474,57.1962 122,57.5C 116.756,54.1262 111.256,51.1262 105.5,48.5C 104.506,53.456 104.173,58.456 104.5,63.5C 116.5,63.5 128.5,63.5 140.5,63.5C 140.08,75.4524 140.747,87.2858 142.5,99C 147.179,98.6711 151.846,98.5044 156.5,98.5C 153.354,93.369 150.688,88.0357 148.5,82.5C 148.906,80.0158 150.073,78.0158 152,76.5C 154.784,78.2799 157.284,80.4465 159.5,83C 167.73,84.5634 172.564,89.3967 174,97.5C 183.779,101.542 183.945,105.875 174.5,110.5C 173.633,113.935 172.466,117.268 171,120.5C 167.389,122.703 163.556,124.536 159.5,126C 157.011,128.323 154.678,130.823 152.5,133.5C 149.973,131.623 148.306,129.123 147.5,126C 150.05,120.441 153.05,115.107 156.5,110C 151.355,108.554 146.021,108.054 140.5,108.5C 140.5,120.5 140.5,132.5 140.5,144.5C 129.107,144.582 117.773,145.249 106.5,146.5C 106.296,151.111 106.296,155.778 106.5,160.5C 111.561,157.601 116.727,154.934 122,152.5C 123.888,152.796 125.722,153.296 127.5,154C 128.059,154.725 128.392,155.558 128.5,156.5C 126.611,158.913 124.444,161.246 122,163.5C 120.333,167.167 118.667,170.833 117,174.5C 114.443,176.189 111.609,177.356 108.5,178C 106.257,180.488 104.257,183.154 102.5,186C 101.5,186.667 100.5,186.667 99.5,186C 97.7093,183.586 96.0426,181.086 94.5,178.5C 89.9718,178.337 86.1385,176.671 83,173.5C 81.4834,166.012 77.65,160.179 71.5,156C 77.6698,151.078 83.3364,151.745 88.5,158C 90.8713,158.735 93.2046,159.568 95.5,160.5C 95.5107,155.853 95.844,151.186 96.5,146.5C 84.1889,145.37 71.8555,144.536 59.5,144C 58.5126,132.915 58.1793,121.748 58.5,110.5C 53.7024,110.294 49.0357,110.294 44.5,110.5C 46.4125,114.66 48.5791,118.66 51,122.5C 52.1866,134.44 49.02,135.607 41.5,126C 33.3638,124.363 28.3638,119.53 26.5,111.5C 16.2021,107.356 16.0355,103.022 26,98.5C 26.5711,94.0156 28.4044,90.1822 31.5,87C 38.9428,85.6246 44.6094,81.7912 48.5,75.5C 51.048,77.2802 52.3813,79.7802 52.5,83C 49.2177,88.4807 46.551,94.314 44.5,100.5C 49.1667,100.5 53.8333,100.5 58.5,100.5C 58.3335,88.4954 58.5001,76.4954 59,64.5C 71.091,63.6772 83.2577,63.1772 95.5,63C 94.6096,58.0789 94.2762,53.2456 94.5,48.5C 89.3241,51.838 83.8241,54.5046 78,56.5C 75.1058,56.3049 72.9392,54.9716 71.5,52.5C 77.2983,48.2588 81.1317,42.5921 83,35.5C 86.153,33.1678 89.653,31.5011 93.5,30.5C 95.1776,27.8053 96.8442,25.1386 98.5,22.5 Z M 72.5,76.5 C 80.5,76.5 88.5,76.5 96.5,76.5C 96.0463,79.8651 95.3797,83.1985 94.5,86.5C 94.4858,88.5925 95.1524,90.4259 96.5,92C 94.0632,93.3747 91.3965,93.8747 88.5,93.5C 88.6633,95.8568 88.4966,98.1902 88,100.5C 86.2927,99.5415 84.4594,98.8748 82.5,98.5C 79.3462,100.026 76.0128,100.693 72.5,100.5C 72.5,92.5 72.5,84.5 72.5,76.5 Z M 104.5,76.5 C 112.167,76.5 119.833,76.5 127.5,76.5C 127.5,84.5 127.5,92.5 127.5,100.5C 122.476,99.3619 117.476,99.3619 112.5,100.5C 111.526,98.2573 111.192,95.924 111.5,93.5C 109.076,93.8076 106.743,93.4742 104.5,92.5C 105.471,87.2025 105.471,81.8692 104.5,76.5 Z M 111.5,107.5 C 113.322,109.16 115.489,110.16 118,110.5C 121.112,109.517 124.278,108.85 127.5,108.5C 127.5,116.5 127.5,124.5 127.5,132.5C 119.833,132.5 112.167,132.5 104.5,132.5C 105.545,127.273 105.545,122.106 104.5,117C 106.81,116.503 109.143,116.337 111.5,116.5C 111.5,113.5 111.5,110.5 111.5,107.5 Z M 72.5,108.5 C 76.2998,108.411 79.9664,109.078 83.5,110.5C 85.1347,109.954 86.8014,109.62 88.5,109.5C 87.1945,115.362 89.5279,117.862 95.5,117C 94.8922,118.231 94.5589,119.564 94.5,121C 95.45,124.488 95.95,127.988 96,131.5C 88.253,132.482 80.4197,132.815 72.5,132.5C 72.5,124.5 72.5,116.5 72.5,108.5 Z"/></g>
</svg>
