<?xml version="1.0" encoding="UTF-8"?>
<svg xmlns="http://www.w3.org/2000/svg" xmlns:xlink="http://www.w3.org/1999/xlink" width="720pt" height="360pt" viewBox="0 0 720 360">
<defs>
<clipPath id="clip-0">
<path clip-rule="nonzero" d="M 43.902344 11.957031 L 708.046875 11.957031 L 708.046875 317.707031 L 43.902344 317.707031 Z M 43.902344 11.957031 "/>
</clipPath>
<clipPath id="clip-1">
<path clip-rule="nonzero" d="M 43.902344 302 L 708.046875 302 L 708.046875 305 L 43.902344 305 Z M 43.902344 302 "/>
</clipPath>
<clipPath id="clip-2">
<path clip-rule="nonzero" d="M 43.902344 209 L 708.046875 209 L 708.046875 213 L 43.902344 213 Z M 43.902344 209 "/>
</clipPath>
<clipPath id="clip-3">
<path clip-rule="nonzero" d="M 43.902344 117 L 708.046875 117 L 708.046875 120 L 43.902344 120 Z M 43.902344 117 "/>
</clipPath>
<clipPath id="clip-4">
<path clip-rule="nonzero" d="M 43.902344 24 L 708.046875 24 L 708.046875 28 L 43.902344 28 Z M 43.902344 24 "/>
</clipPath>
<clipPath id="clip-5">
<path clip-rule="nonzero" d="M 72 11.957031 L 76 11.957031 L 76 317.707031 L 72 317.707031 Z M 72 11.957031 "/>
</clipPath>
<clipPath id="clip-6">
<path clip-rule="nonzero" d="M 229 11.957031 L 232 11.957031 L 232 317.707031 L 229 317.707031 Z M 229 11.957031 "/>
</clipPath>
<clipPath id="clip-7">
<path clip-rule="nonzero" d="M 388 11.957031 L 391 11.957031 L 391 317.707031 L 388 317.707031 Z M 388 11.957031 "/>
</clipPath>
<clipPath id="clip-8">
<path clip-rule="nonzero" d="M 544 11.957031 L 547 11.957031 L 547 317.707031 L 544 317.707031 Z M 544 11.957031 "/>
</clipPath>
<clipPath id="clip-9">
<path clip-rule="nonzero" d="M 703 11.957031 L 706 11.957031 L 706 317.707031 L 703 317.707031 Z M 703 11.957031 "/>
</clipPath>
<clipPath id="clip-10">
<path clip-rule="nonzero" d="M 599 11.957031 L 601 11.957031 L 601 317.707031 L 599 317.707031 Z M 599 11.957031 "/>
</clipPath>
</defs>
<rect x="-72" y="-36" width="864" height="432" fill="rgb(100%, 100%, 100%)" fill-opacity="1"/>
<rect x="-72" y="-36" width="864" height="432" fill="rgb(95.294118%, 95.294118%, 95.294118%)" fill-opacity="1"/>
<path fill="none" stroke-width="2.327953" stroke-linecap="round" stroke-linejoin="round" stroke="rgb(95.294118%, 95.294118%, 95.294118%)" stroke-opacity="1" stroke-miterlimit="10" d="M 0 360 L 720 360 L 720 0 L 0 0 Z M 0 360 "/>
<g clip-path="url(#clip-0)">
<path fill-rule="nonzero" fill="rgb(95.294118%, 95.294118%, 95.294118%)" fill-opacity="1" stroke-width="2.327953" stroke-linecap="round" stroke-linejoin="round" stroke="rgb(95.294118%, 95.294118%, 95.294118%)" stroke-opacity="1" stroke-miterlimit="10" d="M 43.902344 317.707031 L 708.046875 317.707031 L 708.046875 11.957031 L 43.902344 11.957031 Z M 43.902344 317.707031 "/>
</g>
<g clip-path="url(#clip-1)">
<path fill="none" stroke-width="2.327953" stroke-linecap="butt" stroke-linejoin="round" stroke="rgb(92.156863%, 92.156863%, 92.156863%)" stroke-opacity="1" stroke-miterlimit="10" d="M 43.902344 303.808594 L 708.042969 303.808594 "/>
</g>
<g clip-path="url(#clip-2)">
<path fill="none" stroke-width="2.327953" stroke-linecap="butt" stroke-linejoin="round" stroke="rgb(92.156863%, 92.156863%, 92.156863%)" stroke-opacity="1" stroke-miterlimit="10" d="M 43.902344 211.15625 L 708.042969 211.15625 "/>
</g>
<g clip-path="url(#clip-3)">
<path fill="none" stroke-width="2.327953" stroke-linecap="butt" stroke-linejoin="round" stroke="rgb(92.156863%, 92.156863%, 92.156863%)" stroke-opacity="1" stroke-miterlimit="10" d="M 43.902344 118.503906 L 708.042969 118.503906 "/>
</g>
<g clip-path="url(#clip-4)">
<path fill="none" stroke-width="2.327953" stroke-linecap="butt" stroke-linejoin="round" stroke="rgb(92.156863%, 92.156863%, 92.156863%)" stroke-opacity="1" stroke-miterlimit="10" d="M 43.902344 25.851562 L 708.042969 25.851562 "/>
</g>
<g clip-path="url(#clip-5)">
<path fill="none" stroke-width="2.327953" stroke-linecap="butt" stroke-linejoin="round" stroke="rgb(92.156863%, 92.156863%, 92.156863%)" stroke-opacity="1" stroke-miterlimit="10" d="M 74.089844 317.707031 L 74.089844 11.957031 "/>
</g>
<g clip-path="url(#clip-6)">
<path fill="none" stroke-width="2.327953" stroke-linecap="butt" stroke-linejoin="round" stroke="rgb(92.156863%, 92.156863%, 92.156863%)" stroke-opacity="1" stroke-miterlimit="10" d="M 230.429688 317.707031 L 230.429688 11.957031 "/>
</g>
<g clip-path="url(#clip-7)">
<path fill="none" stroke-width="2.327953" stroke-linecap="butt" stroke-linejoin="round" stroke="rgb(92.156863%, 92.156863%, 92.156863%)" stroke-opacity="1" stroke-miterlimit="10" d="M 389.359375 317.707031 L 389.359375 11.957031 "/>
</g>
<g clip-path="url(#clip-8)">
<path fill="none" stroke-width="2.327953" stroke-linecap="butt" stroke-linejoin="round" stroke="rgb(92.156863%, 92.156863%, 92.156863%)" stroke-opacity="1" stroke-miterlimit="10" d="M 545.703125 317.707031 L 545.703125 11.957031 "/>
</g>
<g clip-path="url(#clip-9)">
<path fill="none" stroke-width="2.327953" stroke-linecap="butt" stroke-linejoin="round" stroke="rgb(92.156863%, 92.156863%, 92.156863%)" stroke-opacity="1" stroke-miterlimit="10" d="M 704.632812 317.707031 L 704.632812 11.957031 "/>
</g>
<g clip-path="url(#clip-10)">
<path fill="none" stroke-width="1.066978" stroke-linecap="butt" stroke-linejoin="round" stroke="rgb(0%, 0%, 0%)" stroke-opacity="1" stroke-miterlimit="10" d="M 600.117188 317.707031 L 600.117188 11.957031 "/>
</g>
<path fill="none" stroke-width="2.347352" stroke-linecap="butt" stroke-linejoin="round" stroke="rgb(56.078431%, 16.470588%, 26.27451%)" stroke-opacity="1" stroke-miterlimit="10" d="M 336.671875 239.316406 L 362.585938 239.921875 L 389.359375 231.625 L 416.136719 230.074219 L 440.324219 228.828125 L 467.097656 230.101562 L 493.011719 232.265625 L 519.789062 233.457031 L 545.703125 168.652344 L 572.476562 77.988281 L 599.253906 71.015625 L 625.167969 63.949219 L 651.945312 61.441406 L 677.855469 62.597656 "/>
<path fill="none" stroke-width="2.347352" stroke-linecap="butt" stroke-linejoin="round" stroke="rgb(0%, 0%, 0%)" stroke-opacity="1" stroke-miterlimit="10" d="M 74.089844 245.648438 L 100.867188 246.804688 L 125.050781 246.371094 L 151.828125 278.886719 L 177.738281 278.585938 L 204.515625 278.421875 L 230.429688 278.285156 L 257.207031 278.328125 L 283.984375 278.140625 L 309.894531 278.089844 "/>
<path fill-rule="nonzero" fill="rgb(10.196078%, 10.196078%, 10.196078%)" fill-opacity="1" d="M 27.089844 296.46875 L 27.535156 296.488281 L 27.953125 296.546875 L 28.351562 296.644531 L 28.726562 296.78125 L 29.082031 296.953125 L 29.414062 297.167969 L 29.722656 297.417969 L 30.011719 297.710938 L 30.277344 298.039062 L 30.523438 298.40625 L 30.746094 298.808594 L 30.941406 299.246094 L 31.117188 299.71875 L 31.269531 300.226562 L 31.398438 300.769531 L 31.503906 301.351562 L 31.585938 301.96875 L 31.640625 302.625 L 31.675781 303.3125 L 31.6875 304.039062 L 31.675781 304.761719 L 31.640625 305.445312 L 31.582031 306.097656 L 31.5 306.714844 L 31.390625 307.292969 L 31.261719 307.839844 L 31.105469 308.351562 L 30.929688 308.824219 L 30.726562 309.265625 L 30.5 309.671875 L 30.257812 310.035156 L 29.992188 310.359375 L 29.703125 310.648438 L 29.394531 310.894531 L 29.066406 311.105469 L 28.714844 311.277344 L 28.339844 311.414062 L 27.945312 311.507812 L 27.527344 311.566406 L 27.089844 311.585938 L 26.648438 311.566406 L 26.230469 311.507812 L 25.832031 311.414062 L 25.453125 311.277344 L 25.101562 311.105469 L 24.769531 310.894531 L 24.457031 310.648438 L 24.167969 310.359375 L 23.902344 310.035156 L 23.660156 309.671875 L 23.4375 309.265625 L 23.238281 308.824219 L 23.066406 308.347656 L 22.914062 307.835938 L 22.785156 307.289062 L 22.679688 306.707031 L 22.597656 306.085938 L 22.539062 305.433594 L 22.503906 304.742188 L 22.492188 304.015625 L 22.503906 303.289062 L 22.539062 302.601562 L 22.597656 301.949219 L 22.679688 301.332031 L 22.785156 300.75 L 22.914062 300.203125 L 23.066406 299.695312 L 23.238281 299.222656 L 23.4375 298.785156 L 23.660156 298.382812 L 23.902344 298.019531 L 24.167969 297.695312 L 24.457031 297.410156 L 24.769531 297.160156 L 25.101562 296.949219 L 25.453125 296.777344 L 25.832031 296.644531 L 26.230469 296.546875 L 26.648438 296.488281 Z M 27.089844 297.527344 L 26.46875 297.589844 L 25.910156 297.785156 L 25.417969 298.109375 L 24.992188 298.566406 L 24.632812 299.148438 L 24.335938 299.863281 L 24.109375 300.707031 L 23.945312 301.679688 L 23.847656 302.785156 L 23.8125 304.015625 L 23.847656 305.253906 L 23.945312 306.359375 L 24.109375 307.335938 L 24.335938 308.183594 L 24.632812 308.902344 L 24.992188 309.488281 L 25.417969 309.941406 L 25.910156 310.269531 L 26.46875 310.464844 L 27.089844 310.527344 L 27.40625 310.511719 L 27.703125 310.464844 L 27.984375 310.386719 L 28.25 310.273438 L 28.5 310.132812 L 28.734375 309.957031 L 28.953125 309.753906 L 29.152344 309.515625 L 29.339844 309.246094 L 29.511719 308.945312 L 29.671875 308.609375 L 29.8125 308.242188 L 29.9375 307.835938 L 30.046875 307.398438 L 30.136719 306.925781 L 30.214844 306.417969 L 30.273438 305.875 L 30.3125 305.296875 L 30.339844 304.683594 L 30.347656 304.039062 L 30.339844 303.390625 L 30.3125 302.777344 L 30.273438 302.203125 L 30.214844 301.660156 L 30.136719 301.152344 L 30.046875 300.675781 L 29.9375 300.238281 L 29.8125 299.835938 L 29.671875 299.464844 L 29.511719 299.132812 L 29.339844 298.828125 L 29.152344 298.554688 L 28.953125 298.3125 L 28.734375 298.105469 L 28.5 297.929688 L 28.25 297.785156 L 27.984375 297.671875 L 27.703125 297.589844 L 27.40625 297.542969 Z M 27.089844 297.527344 "/>
<path fill-rule="nonzero" fill="rgb(10.196078%, 10.196078%, 10.196078%)" fill-opacity="1" d="M 31.335938 205.117188 L 25.398438 205.117188 L 25.398438 210.109375 L 25.640625 209.980469 L 25.882812 209.867188 L 26.132812 209.761719 L 26.378906 209.675781 L 26.628906 209.597656 L 26.878906 209.539062 L 27.132812 209.492188 L 27.390625 209.457031 L 27.644531 209.4375 L 27.90625 209.429688 L 28.277344 209.441406 L 28.628906 209.476562 L 28.96875 209.539062 L 29.292969 209.625 L 29.597656 209.738281 L 29.890625 209.871094 L 30.164062 210.03125 L 30.425781 210.21875 L 30.667969 210.425781 L 30.898438 210.660156 L 31.109375 210.910156 L 31.300781 211.179688 L 31.46875 211.46875 L 31.617188 211.773438 L 31.738281 212.097656 L 31.839844 212.4375 L 31.917969 212.796875 L 31.972656 213.175781 L 32.007812 213.570312 L 32.019531 213.984375 L 32.011719 214.265625 L 31.996094 214.542969 L 31.964844 214.816406 L 31.925781 215.082031 L 31.871094 215.339844 L 31.804688 215.597656 L 31.726562 215.84375 L 31.640625 216.089844 L 31.539062 216.324219 L 31.425781 216.558594 L 31.304688 216.777344 L 31.175781 216.988281 L 31.035156 217.1875 L 30.886719 217.378906 L 30.726562 217.558594 L 30.554688 217.730469 L 30.375 217.890625 L 30.1875 218.042969 L 29.984375 218.183594 L 29.773438 218.316406 L 29.558594 218.433594 L 29.339844 218.539062 L 29.109375 218.632812 L 28.875 218.710938 L 28.632812 218.777344 L 28.382812 218.835938 L 28.125 218.878906 L 27.859375 218.910156 L 27.589844 218.925781 L 27.3125 218.933594 L 26.832031 218.914062 L 26.363281 218.863281 L 25.914062 218.773438 L 25.476562 218.652344 L 25.054688 218.492188 L 24.648438 218.300781 L 24.257812 218.070312 L 23.882812 217.804688 L 23.519531 217.507812 L 23.175781 217.171875 L 23.96875 216.402344 L 24.109375 216.546875 L 24.253906 216.6875 L 24.398438 216.816406 L 24.542969 216.9375 L 24.691406 217.050781 L 24.84375 217.15625 L 24.996094 217.257812 L 25.148438 217.347656 L 25.304688 217.429688 L 25.464844 217.503906 L 25.625 217.570312 L 25.789062 217.628906 L 25.960938 217.683594 L 26.140625 217.726562 L 26.320312 217.765625 L 26.507812 217.796875 L 26.703125 217.824219 L 26.898438 217.839844 L 27.101562 217.851562 L 27.3125 217.855469 L 27.617188 217.84375 L 27.910156 217.8125 L 28.1875 217.761719 L 28.457031 217.691406 L 28.707031 217.597656 L 28.949219 217.484375 L 29.175781 217.347656 L 29.386719 217.191406 L 29.589844 217.015625 L 29.773438 216.820312 L 29.945312 216.601562 L 30.101562 216.367188 L 30.234375 216.121094 L 30.351562 215.855469 L 30.453125 215.578125 L 30.53125 215.285156 L 30.597656 214.976562 L 30.640625 214.652344 L 30.667969 214.3125 L 30.675781 213.960938 L 30.667969 213.617188 L 30.644531 213.292969 L 30.601562 212.984375 L 30.542969 212.695312 L 30.46875 212.425781 L 30.375 212.171875 L 30.265625 211.9375 L 30.140625 211.722656 L 30 211.523438 L 29.839844 211.34375 L 29.671875 211.175781 L 29.492188 211.027344 L 29.300781 210.894531 L 29.09375 210.78125 L 28.878906 210.683594 L 28.652344 210.605469 L 28.410156 210.542969 L 28.160156 210.5 L 27.894531 210.472656 L 27.621094 210.464844 L 27.480469 210.464844 L 27.34375 210.46875 L 27.210938 210.480469 L 27.082031 210.492188 L 26.953125 210.507812 L 26.828125 210.527344 L 26.710938 210.550781 L 26.589844 210.574219 L 26.476562 210.605469 L 26.363281 210.640625 L 26.257812 210.671875 L 26.148438 210.710938 L 26.035156 210.75 L 25.921875 210.796875 L 25.804688 210.847656 L 25.683594 210.902344 L 25.5625 210.960938 L 25.4375 211.027344 L 25.308594 211.09375 L 25.175781 211.167969 L 24.164062 211.167969 L 24.164062 204.0625 L 31.535156 204.0625 Z M 31.335938 205.117188 "/>
<path fill-rule="nonzero" fill="rgb(10.196078%, 10.196078%, 10.196078%)" fill-opacity="1" d="M 18.378906 111.410156 L 18.378906 126.039062 L 17.101562 126.039062 L 17.101562 112.816406 L 13.496094 115.0625 L 12.902344 114.117188 L 17.277344 111.410156 Z M 18.378906 111.410156 "/>
<path fill-rule="nonzero" fill="rgb(10.196078%, 10.196078%, 10.196078%)" fill-opacity="1" d="M 27.089844 111.167969 L 27.535156 111.1875 L 27.953125 111.246094 L 28.351562 111.339844 L 28.726562 111.476562 L 29.082031 111.652344 L 29.414062 111.863281 L 29.722656 112.117188 L 30.011719 112.40625 L 30.277344 112.734375 L 30.523438 113.101562 L 30.746094 113.503906 L 30.941406 113.941406 L 31.117188 114.414062 L 31.269531 114.921875 L 31.398438 115.46875 L 31.503906 116.050781 L 31.585938 116.667969 L 31.640625 117.320312 L 31.675781 118.011719 L 31.6875 118.734375 L 31.675781 119.457031 L 31.640625 120.144531 L 31.582031 120.792969 L 31.5 121.410156 L 31.390625 121.992188 L 31.261719 122.535156 L 31.105469 123.046875 L 30.929688 123.523438 L 30.726562 123.960938 L 30.5 124.367188 L 30.257812 124.730469 L 29.992188 125.054688 L 29.703125 125.34375 L 29.394531 125.59375 L 29.066406 125.804688 L 28.714844 125.976562 L 28.339844 126.109375 L 27.945312 126.203125 L 27.527344 126.261719 L 27.089844 126.28125 L 26.648438 126.261719 L 26.230469 126.203125 L 25.832031 126.109375 L 25.453125 125.976562 L 25.101562 125.804688 L 24.769531 125.59375 L 24.457031 125.34375 L 24.167969 125.054688 L 23.902344 124.730469 L 23.660156 124.367188 L 23.4375 123.960938 L 23.238281 123.523438 L 23.066406 123.046875 L 22.914062 122.535156 L 22.785156 121.984375 L 22.679688 121.402344 L 22.597656 120.785156 L 22.539062 120.128906 L 22.503906 119.4375 L 22.492188 118.714844 L 22.503906 117.988281 L 22.539062 117.296875 L 22.597656 116.644531 L 22.679688 116.027344 L 22.785156 115.445312 L 22.914062 114.902344 L 23.066406 114.390625 L 23.238281 113.917969 L 23.4375 113.480469 L 23.660156 113.082031 L 23.902344 112.71875 L 24.167969 112.390625 L 24.457031 112.105469 L 24.769531 111.855469 L 25.101562 111.644531 L 25.453125 111.472656 L 25.832031 111.339844 L 26.230469 111.242188 L 26.648438 111.1875 Z M 27.089844 112.222656 L 26.46875 112.289062 L 25.910156 112.484375 L 25.417969 112.808594 L 24.992188 113.261719 L 24.632812 113.847656 L 24.335938 114.558594 L 24.109375 115.402344 L 23.945312 116.378906 L 23.847656 117.480469 L 23.8125 118.714844 L 23.847656 119.949219 L 23.945312 121.058594 L 24.109375 122.035156 L 24.335938 122.882812 L 24.632812 123.597656 L 24.992188 124.183594 L 25.417969 124.640625 L 25.910156 124.964844 L 26.46875 125.160156 L 27.089844 125.226562 L 27.40625 125.210938 L 27.703125 125.160156 L 27.984375 125.082031 L 28.25 124.972656 L 28.5 124.828125 L 28.734375 124.65625 L 28.953125 124.449219 L 29.152344 124.210938 L 29.339844 123.941406 L 29.511719 123.640625 L 29.671875 123.308594 L 29.8125 122.9375 L 29.9375 122.535156 L 30.046875 122.097656 L 30.136719 121.621094 L 30.214844 121.113281 L 30.273438 120.570312 L 30.3125 119.996094 L 30.339844 119.382812 L 30.347656 118.734375 L 30.339844 118.089844 L 30.3125 117.476562 L 30.273438 116.898438 L 30.214844 116.355469 L 30.136719 115.847656 L 30.046875 115.375 L 29.9375 114.9375 L 29.8125 114.53125 L 29.671875 114.164062 L 29.511719 113.828125 L 29.339844 113.523438 L 29.152344 113.25 L 28.953125 113.011719 L 28.734375 112.800781 L 28.5 112.625 L 28.25 112.480469 L 27.984375 112.367188 L 27.703125 112.289062 L 27.40625 112.238281 Z M 27.089844 112.222656 "/>
<path fill-rule="nonzero" fill="rgb(10.196078%, 10.196078%, 10.196078%)" fill-opacity="1" d="M 19.765625 18.757812 L 19.765625 33.386719 L 18.488281 33.386719 L 18.488281 20.164062 L 14.882812 22.410156 L 14.289062 21.464844 L 18.664062 18.757812 Z M 19.765625 18.757812 "/>
<path fill-rule="nonzero" fill="rgb(10.196078%, 10.196078%, 10.196078%)" fill-opacity="1" d="M 31.335938 19.8125 L 25.398438 19.8125 L 25.398438 24.808594 L 25.640625 24.679688 L 25.882812 24.5625 L 26.132812 24.460938 L 26.378906 24.371094 L 26.628906 24.296875 L 26.878906 24.234375 L 27.132812 24.1875 L 27.390625 24.152344 L 27.644531 24.132812 L 27.90625 24.125 L 28.277344 24.136719 L 28.628906 24.175781 L 28.96875 24.238281 L 29.292969 24.324219 L 29.597656 24.433594 L 29.890625 24.570312 L 30.164062 24.730469 L 30.425781 24.914062 L 30.667969 25.125 L 30.898438 25.359375 L 31.109375 25.609375 L 31.300781 25.878906 L 31.46875 26.164062 L 31.617188 26.46875 L 31.738281 26.792969 L 31.839844 27.132812 L 31.917969 27.492188 L 31.972656 27.871094 L 32.007812 28.265625 L 32.019531 28.679688 L 32.011719 28.964844 L 31.996094 29.242188 L 31.964844 29.511719 L 31.925781 29.777344 L 31.871094 30.039062 L 31.804688 30.292969 L 31.726562 30.542969 L 31.640625 30.785156 L 31.539062 31.023438 L 31.425781 31.253906 L 31.304688 31.472656 L 31.175781 31.683594 L 31.035156 31.882812 L 30.886719 32.074219 L 30.726562 32.253906 L 30.554688 32.425781 L 30.375 32.585938 L 30.1875 32.738281 L 29.984375 32.882812 L 29.773438 33.015625 L 29.558594 33.132812 L 29.339844 33.234375 L 29.109375 33.328125 L 28.875 33.40625 L 28.632812 33.476562 L 28.382812 33.53125 L 28.125 33.574219 L 27.859375 33.605469 L 27.589844 33.625 L 27.3125 33.628906 L 26.832031 33.613281 L 26.363281 33.558594 L 25.914062 33.472656 L 25.476562 33.347656 L 25.054688 33.191406 L 24.648438 32.996094 L 24.257812 32.765625 L 23.882812 32.503906 L 23.519531 32.203125 L 23.175781 31.871094 L 23.96875 31.101562 L 24.109375 31.246094 L 24.253906 31.382812 L 24.398438 31.511719 L 24.542969 31.636719 L 24.691406 31.75 L 24.84375 31.855469 L 24.996094 31.953125 L 25.148438 32.042969 L 25.304688 32.125 L 25.464844 32.199219 L 25.625 32.265625 L 25.789062 32.328125 L 25.960938 32.378906 L 26.140625 32.425781 L 26.320312 32.464844 L 26.507812 32.496094 L 26.703125 32.519531 L 26.898438 32.539062 L 27.101562 32.546875 L 27.3125 32.550781 L 27.617188 32.542969 L 27.910156 32.511719 L 28.1875 32.457031 L 28.457031 32.386719 L 28.707031 32.292969 L 28.949219 32.179688 L 29.175781 32.046875 L 29.386719 31.890625 L 29.589844 31.714844 L 29.773438 31.519531 L 29.945312 31.300781 L 30.101562 31.066406 L 30.234375 30.816406 L 30.351562 30.554688 L 30.453125 30.273438 L 30.53125 29.980469 L 30.597656 29.671875 L 30.640625 29.347656 L 30.667969 29.011719 L 30.675781 28.65625 L 30.667969 28.316406 L 30.644531 27.988281 L 30.601562 27.683594 L 30.542969 27.394531 L 30.46875 27.125 L 30.375 26.871094 L 30.265625 26.636719 L 30.140625 26.417969 L 30 26.21875 L 29.839844 26.039062 L 29.671875 25.871094 L 29.492188 25.722656 L 29.300781 25.589844 L 29.09375 25.476562 L 28.878906 25.378906 L 28.652344 25.300781 L 28.410156 25.238281 L 28.160156 25.195312 L 27.894531 25.167969 L 27.621094 25.160156 L 27.480469 25.160156 L 27.34375 25.167969 L 27.210938 25.175781 L 27.082031 25.1875 L 26.953125 25.203125 L 26.828125 25.222656 L 26.710938 25.246094 L 26.589844 25.273438 L 26.476562 25.300781 L 26.363281 25.335938 L 26.257812 25.367188 L 26.148438 25.40625 L 26.035156 25.449219 L 25.921875 25.496094 L 25.804688 25.542969 L 25.5625 25.660156 L 25.4375 25.722656 L 25.308594 25.792969 L 25.175781 25.863281 L 24.164062 25.863281 L 24.164062 18.757812 L 31.535156 18.757812 Z M 31.335938 19.8125 "/>
<path fill-rule="nonzero" fill="rgb(10.196078%, 10.196078%, 10.196078%)" fill-opacity="1" d="M 42.695312 328.664062 L 43.136719 328.683594 L 43.558594 328.742188 L 43.957031 328.835938 L 44.332031 328.972656 L 44.6875 329.148438 L 45.019531 329.359375 L 45.328125 329.613281 L 45.617188 329.902344 L 45.882812 330.230469 L 46.128906 330.597656 L 46.347656 331 L 46.546875 331.4375 L 46.722656 331.910156 L 46.875 332.417969 L 47 332.964844 L 47.105469 333.546875 L 47.1875 334.164062 L 47.246094 334.816406 L 47.28125 335.503906 L 47.292969 336.230469 L 47.28125 336.953125 L 47.246094 337.640625 L 47.1875 338.289062 L 47.101562 338.90625 L 46.996094 339.488281 L 46.867188 340.03125 L 46.710938 340.542969 L 46.53125 341.019531 L 46.332031 341.457031 L 46.105469 341.863281 L 45.859375 342.226562 L 45.59375 342.550781 L 45.308594 342.839844 L 45 343.085938 L 44.667969 343.296875 L 44.316406 343.46875 L 43.945312 343.605469 L 43.550781 343.699219 L 43.132812 343.757812 L 42.695312 343.777344 L 42.253906 343.757812 L 41.832031 343.699219 L 41.433594 343.605469 L 41.058594 343.46875 L 40.703125 343.296875 L 40.371094 343.085938 L 40.0625 342.839844 L 39.773438 342.550781 L 39.507812 342.226562 L 39.261719 341.863281 L 39.042969 341.457031 L 38.84375 341.015625 L 38.667969 340.539062 L 38.515625 340.027344 L 38.390625 339.480469 L 38.285156 338.898438 L 38.203125 338.277344 L 38.144531 337.625 L 38.109375 336.933594 L 38.097656 336.207031 L 38.109375 335.484375 L 38.144531 334.792969 L 38.203125 334.140625 L 38.285156 333.523438 L 38.390625 332.941406 L 38.515625 332.398438 L 38.667969 331.886719 L 38.84375 331.414062 L 39.042969 330.976562 L 39.261719 330.578125 L 39.507812 330.214844 L 39.773438 329.886719 L 40.0625 329.601562 L 40.371094 329.351562 L 40.703125 329.140625 L 41.058594 328.96875 L 41.433594 328.835938 L 41.832031 328.738281 L 42.253906 328.683594 Z M 42.695312 329.71875 L 42.074219 329.785156 L 41.515625 329.976562 L 41.023438 330.304688 L 40.597656 330.757812 L 40.238281 331.339844 L 39.941406 332.054688 L 39.710938 332.898438 L 39.546875 333.871094 L 39.449219 334.976562 L 39.417969 336.207031 L 39.449219 337.445312 L 39.546875 338.554688 L 39.710938 339.53125 L 39.941406 340.375 L 40.238281 341.09375 L 40.597656 341.679688 L 41.023438 342.132812 L 41.515625 342.460938 L 42.074219 342.65625 L 42.695312 342.722656 L 43.007812 342.703125 L 43.304688 342.65625 L 43.585938 342.578125 L 43.851562 342.46875 L 44.101562 342.324219 L 44.335938 342.152344 L 44.554688 341.945312 L 44.757812 341.707031 L 44.945312 341.4375 L 45.113281 341.136719 L 45.273438 340.800781 L 45.417969 340.433594 L 45.542969 340.03125 L 45.648438 339.589844 L 45.742188 339.117188 L 45.816406 338.609375 L 45.875 338.066406 L 45.917969 337.488281 L 45.941406 336.878906 L 45.953125 336.230469 L 45.941406 335.582031 L 45.917969 334.972656 L 45.875 334.394531 L 45.816406 333.851562 L 45.742188 333.34375 L 45.648438 332.871094 L 45.542969 332.433594 L 45.417969 332.027344 L 45.273438 331.660156 L 45.113281 331.324219 L 44.945312 331.019531 L 44.757812 330.746094 L 44.554688 330.503906 L 44.335938 330.296875 L 44.101562 330.121094 L 43.851562 329.976562 L 43.585938 329.863281 L 43.304688 329.78125 L 43.007812 329.734375 Z M 42.695312 329.71875 "/>
<path fill-rule="nonzero" fill="rgb(10.196078%, 10.196078%, 10.196078%)" fill-opacity="1" d="M 55.167969 328.90625 L 55.167969 343.535156 L 53.894531 343.535156 L 53.894531 330.3125 L 50.285156 332.558594 L 49.691406 331.609375 L 54.070312 328.90625 Z M 55.167969 328.90625 "/>
<path fill-rule="nonzero" fill="rgb(10.196078%, 10.196078%, 10.196078%)" fill-opacity="1" d="M 65.554688 325.867188 L 66.652344 326.15625 L 61.550781 345.734375 L 60.449219 345.449219 Z M 65.554688 325.867188 "/>
<path fill-rule="nonzero" fill="rgb(10.196078%, 10.196078%, 10.196078%)" fill-opacity="1" d="M 74.222656 328.664062 L 74.582031 328.671875 L 74.929688 328.707031 L 75.261719 328.761719 L 75.578125 328.835938 L 75.875 328.933594 L 76.160156 329.050781 L 76.429688 329.191406 L 76.683594 329.351562 L 76.925781 329.535156 L 77.148438 329.742188 L 77.355469 329.960938 L 77.542969 330.195312 L 77.707031 330.441406 L 77.851562 330.703125 L 77.972656 330.972656 L 78.070312 331.257812 L 78.148438 331.550781 L 78.203125 331.859375 L 78.234375 332.179688 L 78.246094 332.511719 L 78.242188 332.796875 L 78.222656 333.078125 L 78.195312 333.355469 L 78.152344 333.628906 L 78.097656 333.898438 L 78.035156 334.164062 L 77.957031 334.429688 L 77.867188 334.6875 L 77.765625 334.945312 L 77.652344 335.195312 L 77.527344 335.449219 L 77.386719 335.707031 L 77.234375 335.972656 L 77.070312 336.238281 L 76.890625 336.511719 L 76.695312 336.789062 L 76.488281 337.070312 L 76.265625 337.359375 L 76.03125 337.648438 L 75.78125 337.945312 L 75.515625 338.261719 L 75.21875 338.605469 L 74.890625 338.976562 L 74.53125 339.378906 L 74.140625 339.8125 L 73.714844 340.273438 L 73.261719 340.761719 L 72.777344 341.285156 L 72.261719 341.832031 L 71.714844 342.414062 L 78.644531 342.414062 L 78.46875 343.535156 L 70.21875 343.535156 L 70.21875 342.457031 L 70.804688 341.832031 L 71.355469 341.238281 L 71.871094 340.679688 L 72.355469 340.15625 L 72.800781 339.664062 L 73.214844 339.203125 L 73.597656 338.78125 L 73.941406 338.386719 L 74.253906 338.03125 L 74.527344 337.703125 L 74.785156 337.398438 L 75.027344 337.097656 L 75.25 336.808594 L 75.457031 336.527344 L 75.652344 336.253906 L 75.828125 335.988281 L 75.988281 335.734375 L 76.132812 335.488281 L 76.261719 335.25 L 76.378906 335.019531 L 76.480469 334.789062 L 76.574219 334.558594 L 76.65625 334.320312 L 76.730469 334.082031 L 76.789062 333.839844 L 76.839844 333.59375 L 76.878906 333.34375 L 76.90625 333.09375 L 76.921875 332.835938 L 76.925781 332.578125 L 76.917969 332.324219 L 76.894531 332.082031 L 76.859375 331.847656 L 76.804688 331.625 L 76.734375 331.414062 L 76.648438 331.210938 L 76.550781 331.019531 L 76.433594 330.839844 L 76.304688 330.671875 L 76.15625 330.511719 L 76.003906 330.363281 L 75.835938 330.234375 L 75.664062 330.117188 L 75.476562 330.019531 L 75.28125 329.933594 L 75.078125 329.863281 L 74.863281 329.808594 L 74.636719 329.773438 L 74.402344 329.75 L 74.15625 329.742188 L 73.953125 329.746094 L 73.757812 329.757812 L 73.566406 329.777344 L 73.378906 329.808594 L 73.199219 329.84375 L 73.019531 329.890625 L 72.847656 329.945312 L 72.675781 330.007812 L 72.511719 330.078125 L 72.351562 330.160156 L 72.199219 330.246094 L 72.046875 330.34375 L 71.894531 330.445312 L 71.746094 330.558594 L 71.597656 330.679688 L 71.449219 330.8125 L 71.304688 330.949219 L 71.160156 331.09375 L 71.019531 331.25 L 70.878906 331.414062 L 69.996094 330.753906 L 70.175781 330.542969 L 70.355469 330.34375 L 70.535156 330.15625 L 70.722656 329.980469 L 70.910156 329.816406 L 71.101562 329.664062 L 71.292969 329.523438 L 71.488281 329.394531 L 71.6875 329.277344 L 71.890625 329.167969 L 72.097656 329.074219 L 72.3125 328.988281 L 72.535156 328.910156 L 72.757812 328.84375 L 72.988281 328.789062 L 73.226562 328.742188 L 73.464844 328.707031 L 73.710938 328.683594 L 73.964844 328.667969 Z M 74.222656 328.664062 "/>
<path fill-rule="nonzero" fill="rgb(10.196078%, 10.196078%, 10.196078%)" fill-opacity="1" d="M 85.859375 328.664062 L 86.300781 328.683594 L 86.722656 328.742188 L 87.121094 328.835938 L 87.496094 328.972656 L 87.851562 329.148438 L 88.183594 329.359375 L 88.492188 329.613281 L 88.78125 329.902344 L 89.046875 330.230469 L 89.292969 330.597656 L 89.511719 331 L 89.710938 331.4375 L 89.886719 331.910156 L 90.039062 332.417969 L 90.164062 332.964844 L 90.269531 333.546875 L 90.351562 334.164062 L 90.410156 334.816406 L 90.445312 335.503906 L 90.457031 336.230469 L 90.445312 336.953125 L 90.410156 337.640625 L 90.351562 338.289062 L 90.265625 338.90625 L 90.160156 339.488281 L 90.03125 340.03125 L 89.875 340.542969 L 89.695312 341.019531 L 89.496094 341.457031 L 89.269531 341.863281 L 89.023438 342.226562 L 88.757812 342.550781 L 88.472656 342.839844 L 88.164062 343.085938 L 87.832031 343.296875 L 87.480469 343.46875 L 87.109375 343.605469 L 86.714844 343.699219 L 86.296875 343.757812 L 85.859375 343.777344 L 85.417969 343.757812 L 84.996094 343.699219 L 84.597656 343.605469 L 84.222656 343.46875 L 83.867188 343.296875 L 83.535156 343.085938 L 83.226562 342.839844 L 82.9375 342.550781 L 82.671875 342.226562 L 82.425781 341.863281 L 82.207031 341.457031 L 82.007812 341.015625 L 81.832031 340.539062 L 81.679688 340.027344 L 81.550781 339.480469 L 81.449219 338.898438 L 81.367188 338.277344 L 81.308594 337.625 L 81.273438 336.933594 L 81.261719 336.207031 L 81.273438 335.484375 L 81.308594 334.792969 L 81.367188 334.140625 L 81.449219 333.523438 L 81.550781 332.941406 L 81.679688 332.398438 L 81.832031 331.886719 L 82.007812 331.414062 L 82.207031 330.976562 L 82.425781 330.578125 L 82.671875 330.214844 L 82.9375 329.886719 L 83.226562 329.601562 L 83.535156 329.351562 L 83.867188 329.140625 L 84.222656 328.96875 L 84.597656 328.835938 L 84.996094 328.738281 L 85.417969 328.683594 Z M 85.859375 329.71875 L 85.238281 329.785156 L 84.679688 329.976562 L 84.1875 330.304688 L 83.761719 330.757812 L 83.402344 331.339844 L 83.105469 332.054688 L 82.875 332.898438 L 82.710938 333.871094 L 82.613281 334.976562 L 82.582031 336.207031 L 82.613281 337.445312 L 82.710938 338.554688 L 82.875 339.53125 L 83.105469 340.375 L 83.402344 341.09375 L 83.761719 341.679688 L 84.1875 342.132812 L 84.679688 342.460938 L 85.238281 342.65625 L 85.859375 342.722656 L 86.171875 342.703125 L 86.46875 342.65625 L 86.75 342.578125 L 87.015625 342.46875 L 87.265625 342.324219 L 87.5 342.152344 L 87.71875 341.945312 L 87.921875 341.707031 L 88.109375 341.4375 L 88.277344 341.136719 L 88.4375 340.800781 L 88.582031 340.433594 L 88.707031 340.03125 L 88.8125 339.589844 L 88.90625 339.117188 L 88.980469 338.609375 L 89.039062 338.066406 L 89.082031 337.488281 L 89.105469 336.878906 L 89.113281 336.230469 L 89.105469 335.582031 L 89.082031 334.972656 L 89.039062 334.394531 L 88.980469 333.851562 L 88.90625 333.34375 L 88.8125 332.871094 L 88.707031 332.433594 L 88.582031 332.027344 L 88.4375 331.660156 L 88.277344 331.324219 L 88.109375 331.019531 L 87.921875 330.746094 L 87.71875 330.503906 L 87.5 330.296875 L 87.265625 330.121094 L 87.015625 329.976562 L 86.75 329.863281 L 86.46875 329.78125 L 86.171875 329.734375 Z M 85.859375 329.71875 "/>
<path fill-rule="nonzero" fill="rgb(10.196078%, 10.196078%, 10.196078%)" fill-opacity="1" d="M 96.859375 328.664062 L 97.222656 328.671875 L 97.566406 328.707031 L 97.898438 328.761719 L 98.214844 328.835938 L 98.515625 328.933594 L 98.800781 329.050781 L 99.070312 329.191406 L 99.324219 329.351562 L 99.5625 329.535156 L 99.785156 329.742188 L 99.996094 329.960938 L 100.179688 330.195312 L 100.347656 330.441406 L 100.488281 330.703125 L 100.609375 330.972656 L 100.710938 331.257812 L 100.785156 331.550781 L 100.839844 331.859375 L 100.875 332.179688 L 100.886719 332.511719 L 100.878906 332.796875 L 100.863281 333.078125 L 100.832031 333.355469 L 100.789062 333.628906 L 100.738281 333.898438 L 100.671875 334.164062 L 100.59375 334.429688 L 100.503906 334.6875 L 100.402344 334.945312 L 100.292969 335.195312 L 100.164062 335.449219 L 100.027344 335.707031 L 99.875 335.972656 L 99.707031 336.238281 L 99.527344 336.511719 L 99.332031 336.789062 L 99.125 337.070312 L 98.90625 337.359375 L 98.667969 337.648438 L 98.421875 337.945312 L 98.15625 338.261719 L 97.855469 338.605469 L 97.527344 338.976562 L 97.167969 339.378906 L 96.777344 339.8125 L 96.355469 340.273438 L 95.898438 340.761719 L 95.414062 341.285156 L 94.898438 341.832031 L 94.351562 342.414062 L 101.28125 342.414062 L 101.105469 343.535156 L 92.855469 343.535156 L 92.855469 342.457031 L 93.441406 341.832031 L 93.992188 341.238281 L 94.507812 340.679688 L 94.992188 340.15625 L 95.441406 339.664062 L 95.855469 339.203125 L 96.234375 338.78125 L 96.578125 338.386719 L 96.890625 338.03125 L 97.167969 337.703125 L 97.421875 337.398438 L 97.664062 337.097656 L 97.886719 336.808594 L 98.097656 336.527344 L 98.289062 336.253906 L 98.464844 335.988281 L 98.628906 335.734375 L 98.773438 335.488281 L 98.902344 335.25 L 99.015625 335.019531 L 99.121094 334.789062 L 99.214844 334.558594 L 99.296875 334.320312 L 99.367188 334.082031 L 99.425781 333.839844 L 99.476562 333.59375 L 99.515625 333.34375 L 99.542969 333.09375 L 99.558594 332.835938 L 99.566406 332.578125 L 99.558594 332.324219 L 99.535156 332.082031 L 99.496094 331.847656 L 99.441406 331.625 L 99.371094 331.414062 L 99.289062 331.210938 L 99.1875 331.019531 L 99.074219 330.839844 L 98.941406 330.671875 L 98.796875 330.511719 L 98.640625 330.363281 L 98.476562 330.234375 L 98.300781 330.117188 L 98.117188 330.019531 L 97.921875 329.933594 L 97.714844 329.863281 L 97.5 329.808594 L 97.273438 329.773438 L 97.039062 329.75 L 96.792969 329.742188 L 96.59375 329.746094 L 96.398438 329.757812 L 96.207031 329.777344 L 96.019531 329.808594 L 95.835938 329.84375 L 95.65625 329.890625 L 95.484375 329.945312 L 95.316406 330.007812 L 95.148438 330.078125 L 94.988281 330.160156 L 94.835938 330.246094 L 94.683594 330.34375 L 94.53125 330.445312 L 94.382812 330.558594 L 94.234375 330.679688 L 94.089844 330.8125 L 93.945312 330.949219 L 93.800781 331.09375 L 93.65625 331.25 L 93.515625 331.414062 L 92.636719 330.753906 L 92.8125 330.542969 L 92.992188 330.34375 L 93.175781 330.15625 L 93.359375 329.980469 L 93.546875 329.816406 L 93.738281 329.664062 L 93.933594 329.523438 L 94.128906 329.394531 L 94.324219 329.277344 L 94.527344 329.167969 L 94.738281 329.074219 L 94.953125 328.988281 L 95.171875 328.910156 L 95.398438 328.84375 L 95.628906 328.789062 L 95.863281 328.742188 L 96.105469 328.707031 L 96.351562 328.683594 L 96.601562 328.667969 Z M 96.859375 328.664062 "/>
<path fill-rule="nonzero" fill="rgb(10.196078%, 10.196078%, 10.196078%)" fill-opacity="1" d="M 108.871094 328.90625 L 108.871094 343.535156 L 107.59375 343.535156 L 107.59375 330.3125 L 103.988281 332.558594 L 103.394531 331.609375 L 107.769531 328.90625 Z M 108.871094 328.90625 "/>
<path fill-rule="nonzero" fill="rgb(10.196078%, 10.196078%, 10.196078%)" fill-opacity="1" d="M 198.773438 328.664062 L 199.214844 328.683594 L 199.632812 328.742188 L 200.03125 328.835938 L 200.410156 328.972656 L 200.761719 329.148438 L 201.09375 329.359375 L 201.40625 329.613281 L 201.691406 329.902344 L 201.960938 330.230469 L 202.203125 330.597656 L 202.425781 331 L 202.625 331.4375 L 202.796875 331.910156 L 202.949219 332.417969 L 203.078125 332.964844 L 203.183594 333.546875 L 203.265625 334.164062 L 203.324219 334.816406 L 203.359375 335.503906 L 203.371094 336.230469 L 203.359375 336.953125 L 203.320312 337.640625 L 203.261719 338.289062 L 203.179688 338.90625 L 203.074219 339.488281 L 202.941406 340.03125 L 202.789062 340.542969 L 202.609375 341.019531 L 202.40625 341.457031 L 202.179688 341.863281 L 201.9375 342.226562 L 201.671875 342.550781 L 201.386719 342.839844 L 201.078125 343.085938 L 200.746094 343.296875 L 200.394531 343.46875 L 200.019531 343.605469 L 199.625 343.699219 L 199.210938 343.757812 L 198.773438 343.777344 L 198.328125 343.757812 L 197.910156 343.699219 L 197.511719 343.605469 L 197.132812 343.46875 L 196.78125 343.296875 L 196.449219 343.085938 L 196.136719 342.839844 L 195.851562 342.550781 L 195.582031 342.226562 L 195.339844 341.863281 L 195.117188 341.457031 L 194.917969 341.015625 L 194.746094 340.539062 L 194.59375 340.027344 L 194.464844 339.480469 L 194.359375 338.898438 L 194.277344 338.277344 L 194.21875 337.625 L 194.183594 336.933594 L 194.171875 336.207031 L 194.183594 335.484375 L 194.21875 334.792969 L 194.277344 334.140625 L 194.359375 333.523438 L 194.464844 332.941406 L 194.59375 332.398438 L 194.746094 331.886719 L 194.917969 331.414062 L 195.117188 330.976562 L 195.339844 330.578125 L 195.582031 330.214844 L 195.851562 329.886719 L 196.136719 329.601562 L 196.449219 329.351562 L 196.78125 329.140625 L 197.132812 328.96875 L 197.511719 328.835938 L 197.910156 328.738281 L 198.328125 328.683594 Z M 198.773438 329.71875 L 198.148438 329.785156 L 197.589844 329.976562 L 197.101562 330.304688 L 196.671875 330.757812 L 196.3125 331.339844 L 196.019531 332.054688 L 195.789062 332.898438 L 195.625 333.871094 L 195.527344 334.976562 L 195.492188 336.207031 L 195.527344 337.445312 L 195.625 338.554688 L 195.789062 339.53125 L 196.019531 340.375 L 196.3125 341.09375 L 196.671875 341.679688 L 197.101562 342.132812 L 197.589844 342.460938 L 198.148438 342.65625 L 198.773438 342.722656 L 199.085938 342.703125 L 199.382812 342.65625 L 199.664062 342.578125 L 199.929688 342.46875 L 200.179688 342.324219 L 200.414062 342.152344 L 200.632812 341.945312 L 200.835938 341.707031 L 201.019531 341.4375 L 201.191406 341.136719 L 201.351562 340.800781 L 201.492188 340.433594 L 201.617188 340.03125 L 201.726562 339.589844 L 201.820312 339.117188 L 201.894531 338.609375 L 201.953125 338.066406 L 201.992188 337.488281 L 202.019531 336.878906 L 202.027344 336.230469 L 202.019531 335.582031 L 201.992188 334.972656 L 201.953125 334.394531 L 201.894531 333.851562 L 201.820312 333.34375 L 201.726562 332.871094 L 201.617188 332.433594 L 201.492188 332.027344 L 201.351562 331.660156 L 201.191406 331.324219 L 201.019531 331.019531 L 200.835938 330.746094 L 200.632812 330.503906 L 200.414062 330.296875 L 200.179688 330.121094 L 199.929688 329.976562 L 199.664062 329.863281 L 199.382812 329.78125 L 199.085938 329.734375 Z M 198.773438 329.71875 "/>
<path fill-rule="nonzero" fill="rgb(10.196078%, 10.196078%, 10.196078%)" fill-opacity="1" d="M 213.644531 328.90625 L 213.644531 329.894531 L 207.878906 343.710938 L 206.691406 343.316406 L 212.324219 329.984375 L 205.480469 329.984375 L 205.480469 328.90625 Z M 213.644531 328.90625 "/>
<path fill-rule="nonzero" fill="rgb(10.196078%, 10.196078%, 10.196078%)" fill-opacity="1" d="M 222.15625 325.867188 L 223.257812 326.15625 L 218.152344 345.734375 L 217.054688 345.449219 Z M 222.15625 325.867188 "/>
<path fill-rule="nonzero" fill="rgb(10.196078%, 10.196078%, 10.196078%)" fill-opacity="1" d="M 230.824219 328.664062 L 231.1875 328.671875 L 231.535156 328.707031 L 231.863281 328.761719 L 232.179688 328.835938 L 232.480469 328.933594 L 232.765625 329.050781 L 233.035156 329.191406 L 233.289062 329.351562 L 233.527344 329.535156 L 233.75 329.742188 L 233.960938 329.960938 L 234.148438 330.195312 L 234.3125 330.441406 L 234.457031 330.703125 L 234.578125 330.972656 L 234.675781 331.257812 L 234.753906 331.550781 L 234.808594 331.859375 L 234.839844 332.179688 L 234.851562 332.511719 L 234.84375 332.796875 L 234.828125 333.078125 L 234.796875 333.355469 L 234.757812 333.628906 L 234.703125 333.898438 L 234.636719 334.164062 L 234.558594 334.429688 L 234.472656 334.6875 L 234.371094 334.945312 L 234.257812 335.195312 L 234.132812 335.449219 L 233.992188 335.707031 L 233.839844 335.972656 L 233.671875 336.238281 L 233.492188 336.511719 L 233.300781 336.789062 L 233.089844 337.070312 L 232.871094 337.359375 L 232.636719 337.648438 L 232.386719 337.945312 L 232.121094 338.261719 L 231.824219 338.605469 L 231.496094 338.976562 L 231.132812 339.378906 L 230.742188 339.8125 L 230.320312 340.273438 L 229.867188 340.761719 L 229.382812 341.285156 L 228.863281 341.832031 L 228.316406 342.414062 L 235.246094 342.414062 L 235.070312 343.535156 L 226.820312 343.535156 L 226.820312 342.457031 L 227.40625 341.832031 L 227.957031 341.238281 L 228.476562 340.679688 L 228.957031 340.15625 L 229.40625 339.664062 L 229.820312 339.203125 L 230.199219 338.78125 L 230.546875 338.386719 L 230.855469 338.03125 L 231.132812 337.703125 L 231.390625 337.398438 L 231.628906 337.097656 L 231.855469 336.808594 L 232.0625 336.527344 L 232.253906 336.253906 L 232.433594 335.988281 L 232.59375 335.734375 L 232.738281 335.488281 L 232.867188 335.25 L 232.980469 335.019531 L 233.085938 334.789062 L 233.179688 334.558594 L 233.261719 334.320312 L 233.332031 334.082031 L 233.394531 333.839844 L 233.445312 333.59375 L 233.480469 333.34375 L 233.507812 333.09375 L 233.527344 332.835938 L 233.53125 332.578125 L 233.523438 332.324219 L 233.5 332.082031 L 233.460938 331.847656 L 233.410156 331.625 L 233.339844 331.414062 L 233.253906 331.210938 L 233.152344 331.019531 L 233.039062 330.839844 L 232.90625 330.671875 L 232.761719 330.511719 L 232.605469 330.363281 L 232.441406 330.234375 L 232.265625 330.117188 L 232.082031 330.019531 L 231.886719 329.933594 L 231.683594 329.863281 L 231.464844 329.808594 L 231.242188 329.773438 L 231.003906 329.75 L 230.757812 329.742188 L 230.558594 329.746094 L 230.363281 329.757812 L 230.171875 329.777344 L 229.984375 329.808594 L 229.800781 329.84375 L 229.625 329.890625 L 229.449219 329.945312 L 229.28125 330.007812 L 229.117188 330.078125 L 228.957031 330.160156 L 228.800781 330.246094 L 228.648438 330.34375 L 228.5 330.445312 L 228.351562 330.558594 L 228.203125 330.679688 L 228.054688 330.8125 L 227.910156 330.949219 L 227.765625 331.09375 L 227.621094 331.25 L 227.480469 331.414062 L 226.601562 330.753906 L 226.777344 330.542969 L 226.957031 330.34375 L 227.140625 330.15625 L 227.328125 329.980469 L 227.515625 329.816406 L 227.703125 329.664062 L 227.898438 329.523438 L 228.09375 329.394531 L 228.292969 329.277344 L 228.492188 329.167969 L 228.703125 329.074219 L 228.917969 328.988281 L 229.136719 328.910156 L 229.363281 328.84375 L 229.59375 328.789062 L 229.828125 328.742188 L 230.070312 328.707031 L 230.316406 328.683594 L 230.570312 328.667969 Z M 230.824219 328.664062 "/>
<path fill-rule="nonzero" fill="rgb(10.196078%, 10.196078%, 10.196078%)" fill-opacity="1" d="M 242.464844 328.664062 L 242.90625 328.683594 L 243.324219 328.742188 L 243.722656 328.835938 L 244.101562 328.972656 L 244.453125 329.148438 L 244.785156 329.359375 L 245.097656 329.613281 L 245.386719 329.902344 L 245.652344 330.230469 L 245.894531 330.597656 L 246.117188 331 L 246.316406 331.4375 L 246.488281 331.910156 L 246.640625 332.417969 L 246.769531 332.964844 L 246.875 333.546875 L 246.957031 334.164062 L 247.015625 334.816406 L 247.050781 335.503906 L 247.0625 336.230469 L 247.050781 336.953125 L 247.015625 337.640625 L 246.953125 338.289062 L 246.871094 338.90625 L 246.765625 339.488281 L 246.632812 340.03125 L 246.480469 340.542969 L 246.300781 341.019531 L 246.097656 341.457031 L 245.875 341.863281 L 245.628906 342.226562 L 245.363281 342.550781 L 245.078125 342.839844 L 244.769531 343.085938 L 244.4375 343.296875 L 244.085938 343.46875 L 243.710938 343.605469 L 243.316406 343.699219 L 242.902344 343.757812 L 242.464844 343.777344 L 242.019531 343.757812 L 241.601562 343.699219 L 241.203125 343.605469 L 240.828125 343.46875 L 240.472656 343.296875 L 240.140625 343.085938 L 239.832031 342.839844 L 239.542969 342.550781 L 239.277344 342.226562 L 239.03125 341.863281 L 238.808594 341.457031 L 238.613281 341.015625 L 238.4375 340.539062 L 238.285156 340.027344 L 238.15625 339.480469 L 238.050781 338.898438 L 237.96875 338.277344 L 237.914062 337.625 L 237.878906 336.933594 L 237.867188 336.207031 L 237.878906 335.484375 L 237.914062 334.792969 L 237.96875 334.140625 L 238.050781 333.523438 L 238.15625 332.941406 L 238.285156 332.398438 L 238.4375 331.886719 L 238.613281 331.414062 L 238.808594 330.976562 L 239.03125 330.578125 L 239.277344 330.214844 L 239.542969 329.886719 L 239.832031 329.601562 L 240.140625 329.351562 L 240.472656 329.140625 L 240.828125 328.96875 L 241.203125 328.835938 L 241.601562 328.738281 L 242.019531 328.683594 Z M 242.464844 329.71875 L 241.839844 329.785156 L 241.285156 329.976562 L 240.792969 330.304688 L 240.367188 330.757812 L 240.003906 331.339844 L 239.710938 332.054688 L 239.480469 332.898438 L 239.316406 333.871094 L 239.21875 334.976562 L 239.183594 336.207031 L 239.21875 337.445312 L 239.316406 338.554688 L 239.480469 339.53125 L 239.710938 340.375 L 240.003906 341.09375 L 240.367188 341.679688 L 240.792969 342.132812 L 241.285156 342.460938 L 241.839844 342.65625 L 242.464844 342.722656 L 242.777344 342.703125 L 243.074219 342.65625 L 243.355469 342.578125 L 243.621094 342.46875 L 243.871094 342.324219 L 244.105469 342.152344 L 244.324219 341.945312 L 244.527344 341.707031 L 244.710938 341.4375 L 244.882812 341.136719 L 245.042969 340.800781 L 245.183594 340.433594 L 245.308594 340.03125 L 245.417969 339.589844 L 245.511719 339.117188 L 245.585938 338.609375 L 245.644531 338.066406 L 245.6875 337.488281 L 245.710938 336.878906 L 245.71875 336.230469 L 245.710938 335.582031 L 245.6875 334.972656 L 245.644531 334.394531 L 245.585938 333.851562 L 245.511719 333.34375 L 245.417969 332.871094 L 245.308594 332.433594 L 245.183594 332.027344 L 245.042969 331.660156 L 244.882812 331.324219 L 244.710938 331.019531 L 244.527344 330.746094 L 244.324219 330.503906 L 244.105469 330.296875 L 243.871094 330.121094 L 243.621094 329.976562 L 243.355469 329.863281 L 243.074219 329.78125 L 242.777344 329.734375 Z M 242.464844 329.71875 "/>
<path fill-rule="nonzero" fill="rgb(10.196078%, 10.196078%, 10.196078%)" fill-opacity="1" d="M 253.464844 328.664062 L 253.824219 328.671875 L 254.171875 328.707031 L 254.503906 328.761719 L 254.820312 328.835938 L 255.117188 328.933594 L 255.402344 329.050781 L 255.671875 329.191406 L 255.925781 329.351562 L 256.167969 329.535156 L 256.390625 329.742188 L 256.597656 329.960938 L 256.785156 330.195312 L 256.949219 330.441406 L 257.09375 330.703125 L 257.214844 330.972656 L 257.3125 331.257812 L 257.390625 331.550781 L 257.445312 331.859375 L 257.476562 332.179688 L 257.488281 332.511719 L 257.484375 332.796875 L 257.464844 333.078125 L 257.4375 333.355469 L 257.394531 333.628906 L 257.339844 333.898438 L 257.277344 334.164062 L 257.199219 334.429688 L 257.109375 334.6875 L 257.007812 334.945312 L 256.894531 335.195312 L 256.769531 335.449219 L 256.628906 335.707031 L 256.476562 335.972656 L 256.3125 336.238281 L 256.132812 336.511719 L 255.9375 336.789062 L 255.730469 337.070312 L 255.507812 337.359375 L 255.273438 337.648438 L 255.027344 337.945312 L 254.757812 338.261719 L 254.460938 338.605469 L 254.132812 338.976562 L 253.773438 339.378906 L 253.382812 339.8125 L 252.957031 340.273438 L 252.503906 340.761719 L 252.019531 341.285156 L 251.503906 341.832031 L 250.957031 342.414062 L 257.886719 342.414062 L 257.710938 343.535156 L 249.460938 343.535156 L 249.460938 342.457031 L 250.046875 341.832031 L 250.597656 341.238281 L 251.113281 340.679688 L 251.597656 340.15625 L 252.042969 339.664062 L 252.457031 339.203125 L 252.839844 338.78125 L 253.183594 338.386719 L 253.496094 338.03125 L 253.773438 337.703125 L 254.027344 337.398438 L 254.269531 337.097656 L 254.492188 336.808594 L 254.699219 336.527344 L 254.894531 336.253906 L 255.070312 335.988281 L 255.230469 335.734375 L 255.375 335.488281 L 255.507812 335.25 L 255.621094 335.019531 L 255.722656 334.789062 L 255.816406 334.558594 L 255.898438 334.320312 L 255.972656 334.082031 L 256.03125 333.839844 L 256.082031 333.59375 L 256.121094 333.34375 L 256.148438 333.09375 L 256.164062 332.835938 L 256.167969 332.578125 L 256.160156 332.324219 L 256.140625 332.082031 L 256.101562 331.847656 L 256.046875 331.625 L 255.976562 331.414062 L 255.890625 331.210938 L 255.792969 331.019531 L 255.675781 330.839844 L 255.546875 330.671875 L 255.398438 330.511719 L 255.246094 330.363281 L 255.078125 330.234375 L 254.90625 330.117188 L 254.71875 330.019531 L 254.523438 329.933594 L 254.320312 329.863281 L 254.105469 329.808594 L 253.878906 329.773438 L 253.644531 329.75 L 253.398438 329.742188 L 253.199219 329.746094 L 253 329.757812 L 252.808594 329.777344 L 252.625 329.808594 L 252.441406 329.84375 L 252.261719 329.890625 L 252.089844 329.945312 L 251.917969 330.007812 L 251.753906 330.078125 L 251.59375 330.160156 L 251.441406 330.246094 L 251.289062 330.34375 L 251.136719 330.445312 L 250.988281 330.558594 L 250.839844 330.679688 L 250.691406 330.8125 L 250.546875 330.949219 L 250.402344 331.09375 L 250.261719 331.25 L 250.121094 331.414062 L 249.238281 330.753906 L 249.417969 330.542969 L 249.597656 330.34375 L 249.78125 330.15625 L 249.964844 329.980469 L 250.152344 329.816406 L 250.34375 329.664062 L 250.535156 329.523438 L 250.730469 329.394531 L 250.929688 329.277344 L 251.132812 329.167969 L 251.339844 329.074219 L 251.554688 328.988281 L 251.777344 328.910156 L 252 328.84375 L 252.230469 328.789062 L 252.46875 328.742188 L 252.707031 328.707031 L 252.953125 328.683594 L 253.207031 328.667969 Z M 253.464844 328.664062 "/>
<path fill-rule="nonzero" fill="rgb(10.196078%, 10.196078%, 10.196078%)" fill-opacity="1" d="M 265.476562 328.90625 L 265.476562 343.535156 L 264.199219 343.535156 L 264.199219 330.3125 L 260.589844 332.558594 L 259.996094 331.609375 L 264.375 328.90625 Z M 265.476562 328.90625 "/>
<path fill-rule="nonzero" fill="rgb(10.196078%, 10.196078%, 10.196078%)" fill-opacity="1" d="M 357.242188 328.664062 L 357.683594 328.683594 L 358.101562 328.742188 L 358.5 328.835938 L 358.878906 328.972656 L 359.230469 329.148438 L 359.5625 329.359375 L 359.875 329.613281 L 360.164062 329.902344 L 360.429688 330.230469 L 360.671875 330.597656 L 360.894531 331 L 361.09375 331.4375 L 361.269531 331.910156 L 361.417969 332.417969 L 361.546875 332.964844 L 361.652344 333.546875 L 361.734375 334.164062 L 361.792969 334.816406 L 361.828125 335.503906 L 361.839844 336.230469 L 361.828125 336.953125 L 361.792969 337.640625 L 361.730469 338.289062 L 361.648438 338.90625 L 361.542969 339.488281 L 361.410156 340.03125 L 361.257812 340.542969 L 361.078125 341.019531 L 360.875 341.457031 L 360.652344 341.863281 L 360.40625 342.226562 L 360.140625 342.550781 L 359.855469 342.839844 L 359.546875 343.085938 L 359.214844 343.296875 L 358.863281 343.46875 L 358.492188 343.605469 L 358.09375 343.699219 L 357.679688 343.757812 L 357.242188 343.777344 L 356.800781 343.757812 L 356.378906 343.699219 L 355.980469 343.605469 L 355.605469 343.46875 L 355.25 343.296875 L 354.917969 343.085938 L 354.609375 342.839844 L 354.320312 342.550781 L 354.054688 342.226562 L 353.808594 341.863281 L 353.585938 341.457031 L 353.390625 341.015625 L 353.214844 340.539062 L 353.0625 340.027344 L 352.933594 339.480469 L 352.828125 338.898438 L 352.746094 338.277344 L 352.691406 337.625 L 352.65625 336.933594 L 352.644531 336.207031 L 352.65625 335.484375 L 352.691406 334.792969 L 352.746094 334.140625 L 352.828125 333.523438 L 352.933594 332.941406 L 353.0625 332.398438 L 353.214844 331.886719 L 353.390625 331.414062 L 353.585938 330.976562 L 353.808594 330.578125 L 354.054688 330.214844 L 354.320312 329.886719 L 354.609375 329.601562 L 354.917969 329.351562 L 355.25 329.140625 L 355.605469 328.96875 L 355.980469 328.835938 L 356.378906 328.738281 L 356.800781 328.683594 Z M 357.242188 329.71875 L 356.617188 329.785156 L 356.0625 329.976562 L 355.570312 330.304688 L 355.144531 330.757812 L 354.78125 331.339844 L 354.488281 332.054688 L 354.257812 332.898438 L 354.09375 333.871094 L 353.996094 334.976562 L 353.964844 336.207031 L 353.996094 337.445312 L 354.09375 338.554688 L 354.257812 339.53125 L 354.488281 340.375 L 354.78125 341.09375 L 355.144531 341.679688 L 355.570312 342.132812 L 356.0625 342.460938 L 356.617188 342.65625 L 357.242188 342.722656 L 357.554688 342.703125 L 357.851562 342.65625 L 358.132812 342.578125 L 358.398438 342.46875 L 358.648438 342.324219 L 358.882812 342.152344 L 359.101562 341.945312 L 359.304688 341.707031 L 359.492188 341.4375 L 359.660156 341.136719 L 359.820312 340.800781 L 359.960938 340.433594 L 360.085938 340.03125 L 360.195312 339.589844 L 360.289062 339.117188 L 360.363281 338.609375 L 360.421875 338.066406 L 360.464844 337.488281 L 360.488281 336.878906 L 360.496094 336.230469 L 360.488281 335.582031 L 360.464844 334.972656 L 360.421875 334.394531 L 360.363281 333.851562 L 360.289062 333.34375 L 360.195312 332.871094 L 360.085938 332.433594 L 359.960938 332.027344 L 359.820312 331.660156 L 359.660156 331.324219 L 359.492188 331.019531 L 359.304688 330.746094 L 359.101562 330.503906 L 358.882812 330.296875 L 358.648438 330.121094 L 358.398438 329.976562 L 358.132812 329.863281 L 357.851562 329.78125 L 357.554688 329.734375 Z M 357.242188 329.71875 "/>
<path fill-rule="nonzero" fill="rgb(10.196078%, 10.196078%, 10.196078%)" fill-opacity="1" d="M 369.714844 328.90625 L 369.714844 343.535156 L 368.4375 343.535156 L 368.4375 330.3125 L 364.832031 332.558594 L 364.238281 331.609375 L 368.613281 328.90625 Z M 369.714844 328.90625 "/>
<path fill-rule="nonzero" fill="rgb(10.196078%, 10.196078%, 10.196078%)" fill-opacity="1" d="M 380.097656 325.867188 L 381.199219 326.15625 L 376.09375 345.734375 L 374.996094 345.449219 Z M 380.097656 325.867188 "/>
<path fill-rule="nonzero" fill="rgb(10.196078%, 10.196078%, 10.196078%)" fill-opacity="1" d="M 388.765625 328.664062 L 389.128906 328.671875 L 389.476562 328.707031 L 389.804688 328.761719 L 390.121094 328.835938 L 390.421875 328.933594 L 390.707031 329.050781 L 390.976562 329.191406 L 391.230469 329.351562 L 391.46875 329.535156 L 391.691406 329.742188 L 391.902344 329.960938 L 392.089844 330.195312 L 392.253906 330.441406 L 392.398438 330.703125 L 392.519531 330.972656 L 392.617188 331.257812 L 392.695312 331.550781 L 392.75 331.859375 L 392.78125 332.179688 L 392.792969 332.511719 L 392.789062 332.796875 L 392.769531 333.078125 L 392.738281 333.355469 L 392.699219 333.628906 L 392.644531 333.898438 L 392.578125 334.164062 L 392.503906 334.429688 L 392.414062 334.6875 L 392.3125 334.945312 L 392.199219 335.195312 L 392.074219 335.449219 L 391.933594 335.707031 L 391.78125 335.972656 L 391.613281 336.238281 L 391.433594 336.511719 L 391.242188 336.789062 L 391.035156 337.070312 L 390.8125 337.359375 L 390.578125 337.648438 L 390.328125 337.945312 L 390.0625 338.261719 L 389.765625 338.605469 L 389.4375 338.976562 L 389.074219 339.378906 L 388.683594 339.8125 L 388.261719 340.273438 L 387.808594 340.761719 L 387.324219 341.285156 L 386.808594 341.832031 L 386.257812 342.414062 L 393.1875 342.414062 L 393.011719 343.535156 L 384.761719 343.535156 L 384.761719 342.457031 L 385.347656 341.832031 L 385.898438 341.238281 L 386.417969 340.679688 L 386.898438 340.15625 L 387.347656 339.664062 L 387.761719 339.203125 L 388.140625 338.78125 L 388.488281 338.386719 L 388.796875 338.03125 L 389.074219 337.703125 L 389.332031 337.398438 L 389.570312 337.097656 L 389.796875 336.808594 L 390.003906 336.527344 L 390.195312 336.253906 L 390.375 335.988281 L 390.535156 335.734375 L 390.679688 335.488281 L 390.808594 335.25 L 390.921875 335.019531 L 391.027344 334.789062 L 391.121094 334.558594 L 391.203125 334.320312 L 391.273438 334.082031 L 391.335938 333.839844 L 391.386719 333.59375 L 391.421875 333.34375 L 391.449219 333.09375 L 391.46875 332.835938 L 391.472656 332.578125 L 391.464844 332.324219 L 391.441406 332.082031 L 391.402344 331.847656 L 391.351562 331.625 L 391.28125 331.414062 L 391.195312 331.210938 L 391.097656 331.019531 L 390.980469 330.839844 L 390.847656 330.671875 L 390.703125 330.511719 L 390.546875 330.363281 L 390.382812 330.234375 L 390.207031 330.117188 L 390.023438 330.019531 L 389.828125 329.933594 L 389.625 329.863281 L 389.40625 329.808594 L 389.183594 329.773438 L 388.945312 329.75 L 388.699219 329.742188 L 388.5 329.746094 L 388.304688 329.757812 L 388.113281 329.777344 L 387.925781 329.808594 L 387.742188 329.84375 L 387.566406 329.890625 L 387.390625 329.945312 L 387.222656 330.007812 L 387.058594 330.078125 L 386.898438 330.160156 L 386.742188 330.246094 L 386.589844 330.34375 L 386.441406 330.445312 L 386.292969 330.558594 L 386.144531 330.679688 L 385.996094 330.8125 L 385.851562 330.949219 L 385.707031 331.09375 L 385.566406 331.25 L 385.421875 331.414062 L 384.542969 330.753906 L 384.71875 330.542969 L 384.898438 330.34375 L 385.082031 330.15625 L 385.269531 329.980469 L 385.457031 329.816406 L 385.648438 329.664062 L 385.839844 329.523438 L 386.035156 329.394531 L 386.234375 329.277344 L 386.433594 329.167969 L 386.644531 329.074219 L 386.859375 328.988281 L 387.078125 328.910156 L 387.304688 328.84375 L 387.535156 328.789062 L 387.769531 328.742188 L 388.011719 328.707031 L 388.257812 328.683594 L 388.511719 328.667969 Z M 388.765625 328.664062 "/>
<path fill-rule="nonzero" fill="rgb(10.196078%, 10.196078%, 10.196078%)" fill-opacity="1" d="M 400.40625 328.664062 L 400.847656 328.683594 L 401.265625 328.742188 L 401.664062 328.835938 L 402.042969 328.972656 L 402.394531 329.148438 L 402.726562 329.359375 L 403.039062 329.613281 L 403.328125 329.902344 L 403.59375 330.230469 L 403.835938 330.597656 L 404.058594 331 L 404.257812 331.4375 L 404.433594 331.910156 L 404.582031 332.417969 L 404.710938 332.964844 L 404.816406 333.546875 L 404.898438 334.164062 L 404.957031 334.816406 L 404.992188 335.503906 L 405.003906 336.230469 L 404.992188 336.953125 L 404.957031 337.640625 L 404.894531 338.289062 L 404.8125 338.90625 L 404.707031 339.488281 L 404.574219 340.03125 L 404.421875 340.542969 L 404.242188 341.019531 L 404.039062 341.457031 L 403.816406 341.863281 L 403.570312 342.226562 L 403.304688 342.550781 L 403.019531 342.839844 L 402.710938 343.085938 L 402.378906 343.296875 L 402.027344 343.46875 L 401.65625 343.605469 L 401.257812 343.699219 L 400.84375 343.757812 L 400.40625 343.777344 L 399.960938 343.757812 L 399.542969 343.699219 L 399.144531 343.605469 L 398.769531 343.46875 L 398.414062 343.296875 L 398.082031 343.085938 L 397.773438 342.839844 L 397.484375 342.550781 L 397.21875 342.226562 L 396.972656 341.863281 L 396.75 341.457031 L 396.554688 341.015625 L 396.378906 340.539062 L 396.226562 340.027344 L 396.097656 339.480469 L 395.992188 338.898438 L 395.910156 338.277344 L 395.855469 337.625 L 395.820312 336.933594 L 395.808594 336.207031 L 395.820312 335.484375 L 395.855469 334.792969 L 395.910156 334.140625 L 395.992188 333.523438 L 396.097656 332.941406 L 396.226562 332.398438 L 396.378906 331.886719 L 396.554688 331.414062 L 396.75 330.976562 L 396.972656 330.578125 L 397.21875 330.214844 L 397.484375 329.886719 L 397.773438 329.601562 L 398.082031 329.351562 L 398.414062 329.140625 L 398.769531 328.96875 L 399.144531 328.835938 L 399.542969 328.738281 L 399.960938 328.683594 Z M 400.40625 329.71875 L 399.78125 329.785156 L 399.226562 329.976562 L 398.734375 330.304688 L 398.308594 330.757812 L 397.945312 331.339844 L 397.652344 332.054688 L 397.421875 332.898438 L 397.257812 333.871094 L 397.160156 334.976562 L 397.128906 336.207031 L 397.160156 337.445312 L 397.257812 338.554688 L 397.421875 339.53125 L 397.652344 340.375 L 397.945312 341.09375 L 398.308594 341.679688 L 398.734375 342.132812 L 399.226562 342.460938 L 399.78125 342.65625 L 400.40625 342.722656 L 400.71875 342.703125 L 401.015625 342.65625 L 401.296875 342.578125 L 401.5625 342.46875 L 401.8125 342.324219 L 402.046875 342.152344 L 402.265625 341.945312 L 402.46875 341.707031 L 402.65625 341.4375 L 402.824219 341.136719 L 402.984375 340.800781 L 403.125 340.433594 L 403.25 340.03125 L 403.359375 339.589844 L 403.453125 339.117188 L 403.527344 338.609375 L 403.585938 338.066406 L 403.628906 337.488281 L 403.652344 336.878906 L 403.660156 336.230469 L 403.652344 335.582031 L 403.628906 334.972656 L 403.585938 334.394531 L 403.527344 333.851562 L 403.453125 333.34375 L 403.359375 332.871094 L 403.25 332.433594 L 403.125 332.027344 L 402.984375 331.660156 L 402.824219 331.324219 L 402.65625 331.019531 L 402.46875 330.746094 L 402.265625 330.503906 L 402.046875 330.296875 L 401.8125 330.121094 L 401.5625 329.976562 L 401.296875 329.863281 L 401.015625 329.78125 L 400.71875 329.734375 Z M 400.40625 329.71875 "/>
<path fill-rule="nonzero" fill="rgb(10.196078%, 10.196078%, 10.196078%)" fill-opacity="1" d="M 411.40625 328.664062 L 411.765625 328.671875 L 412.113281 328.707031 L 412.445312 328.761719 L 412.761719 328.835938 L 413.0625 328.933594 L 413.34375 329.050781 L 413.613281 329.191406 L 413.867188 329.351562 L 414.109375 329.535156 L 414.332031 329.742188 L 414.539062 329.960938 L 414.726562 330.195312 L 414.890625 330.441406 L 415.035156 330.703125 L 415.15625 330.972656 L 415.253906 331.257812 L 415.332031 331.550781 L 415.386719 331.859375 L 415.421875 332.179688 L 415.429688 332.511719 L 415.425781 332.796875 L 415.40625 333.078125 L 415.378906 333.355469 L 415.335938 333.628906 L 415.28125 333.898438 L 415.21875 334.164062 L 415.140625 334.429688 L 415.050781 334.6875 L 414.949219 334.945312 L 414.835938 335.195312 L 414.710938 335.449219 L 414.570312 335.707031 L 414.417969 335.972656 L 414.253906 336.238281 L 414.074219 336.511719 L 413.878906 336.789062 L 413.671875 337.070312 L 413.449219 337.359375 L 413.214844 337.648438 L 412.96875 337.945312 L 412.699219 338.261719 L 412.402344 338.605469 L 412.074219 338.976562 L 411.714844 339.378906 L 411.324219 339.8125 L 410.898438 340.273438 L 410.445312 340.761719 L 409.960938 341.285156 L 409.445312 341.832031 L 408.898438 342.414062 L 415.828125 342.414062 L 415.652344 343.535156 L 407.402344 343.535156 L 407.402344 342.457031 L 407.988281 341.832031 L 408.539062 341.238281 L 409.054688 340.679688 L 409.539062 340.15625 L 409.984375 339.664062 L 410.398438 339.203125 L 410.78125 338.78125 L 411.125 338.386719 L 411.4375 338.03125 L 411.714844 337.703125 L 411.96875 337.398438 L 412.210938 337.097656 L 412.433594 336.808594 L 412.640625 336.527344 L 412.835938 336.253906 L 413.011719 335.988281 L 413.171875 335.734375 L 413.316406 335.488281 L 413.449219 335.25 L 413.5625 335.019531 L 413.664062 334.789062 L 413.757812 334.558594 L 413.839844 334.320312 L 413.914062 334.082031 L 413.972656 333.839844 L 414.023438 333.59375 L 414.0625 333.34375 L 414.089844 333.09375 L 414.105469 332.835938 L 414.109375 332.578125 L 414.101562 332.324219 L 414.082031 332.082031 L 414.042969 331.847656 L 413.988281 331.625 L 413.917969 331.414062 L 413.832031 331.210938 L 413.734375 331.019531 L 413.617188 330.839844 L 413.488281 330.671875 L 413.339844 330.511719 L 413.1875 330.363281 L 413.023438 330.234375 L 412.847656 330.117188 L 412.660156 330.019531 L 412.464844 329.933594 L 412.261719 329.863281 L 412.046875 329.808594 L 411.820312 329.773438 L 411.585938 329.75 L 411.339844 329.742188 L 411.140625 329.746094 L 410.941406 329.757812 L 410.75 329.777344 L 410.566406 329.808594 L 410.382812 329.84375 L 410.203125 329.890625 L 410.03125 329.945312 L 409.859375 330.007812 L 409.695312 330.078125 L 409.535156 330.160156 L 409.382812 330.246094 L 409.230469 330.34375 L 409.078125 330.445312 L 408.929688 330.558594 L 408.78125 330.679688 L 408.636719 330.8125 L 408.488281 330.949219 L 408.34375 331.09375 L 408.203125 331.25 L 408.0625 331.414062 L 407.179688 330.753906 L 407.359375 330.542969 L 407.539062 330.34375 L 407.722656 330.15625 L 407.90625 329.980469 L 408.09375 329.816406 L 408.285156 329.664062 L 408.476562 329.523438 L 408.671875 329.394531 L 408.871094 329.277344 L 409.074219 329.167969 L 409.28125 329.074219 L 409.496094 328.988281 L 409.71875 328.910156 L 409.941406 328.84375 L 410.171875 328.789062 L 410.410156 328.742188 L 410.648438 328.707031 L 410.894531 328.683594 L 411.148438 328.667969 Z M 411.40625 328.664062 "/>
<path fill-rule="nonzero" fill="rgb(10.196078%, 10.196078%, 10.196078%)" fill-opacity="1" d="M 421.941406 328.664062 L 422.304688 328.671875 L 422.652344 328.707031 L 422.984375 328.761719 L 423.296875 328.835938 L 423.597656 328.933594 L 423.882812 329.050781 L 424.152344 329.191406 L 424.40625 329.351562 L 424.644531 329.535156 L 424.867188 329.742188 L 425.078125 329.960938 L 425.265625 330.195312 L 425.429688 330.441406 L 425.574219 330.703125 L 425.695312 330.972656 L 425.792969 331.257812 L 425.871094 331.550781 L 425.925781 331.859375 L 425.957031 332.179688 L 425.96875 332.511719 L 425.964844 332.796875 L 425.945312 333.078125 L 425.914062 333.355469 L 425.875 333.628906 L 425.820312 333.898438 L 425.753906 334.164062 L 425.679688 334.429688 L 425.589844 334.6875 L 425.488281 334.945312 L 425.375 335.195312 L 425.25 335.449219 L 425.109375 335.707031 L 424.957031 335.972656 L 424.789062 336.238281 L 424.609375 336.511719 L 424.417969 336.789062 L 424.210938 337.070312 L 423.988281 337.359375 L 423.753906 337.648438 L 423.503906 337.945312 L 423.238281 338.261719 L 422.941406 338.605469 L 422.613281 338.976562 L 422.253906 339.378906 L 421.859375 339.8125 L 421.4375 340.273438 L 420.984375 340.761719 L 420.5 341.285156 L 419.984375 341.832031 L 419.433594 342.414062 L 426.363281 342.414062 L 426.1875 343.535156 L 417.9375 343.535156 L 417.9375 342.457031 L 418.523438 341.832031 L 419.074219 341.238281 L 419.59375 340.679688 L 420.074219 340.15625 L 420.523438 339.664062 L 420.9375 339.203125 L 421.316406 338.78125 L 421.664062 338.386719 L 421.972656 338.03125 L 422.25 337.703125 L 422.507812 337.398438 L 422.746094 337.097656 L 422.972656 336.808594 L 423.179688 336.527344 L 423.375 336.253906 L 423.550781 335.988281 L 423.710938 335.734375 L 423.855469 335.488281 L 423.984375 335.25 L 424.097656 335.019531 L 424.203125 334.789062 L 424.296875 334.558594 L 424.378906 334.320312 L 424.449219 334.082031 L 424.511719 333.839844 L 424.5625 333.59375 L 424.597656 333.34375 L 424.628906 333.09375 L 424.644531 332.835938 L 424.648438 332.578125 L 424.640625 332.324219 L 424.617188 332.082031 L 424.578125 331.847656 L 424.527344 331.625 L 424.457031 331.414062 L 424.371094 331.210938 L 424.273438 331.019531 L 424.15625 330.839844 L 424.023438 330.671875 L 423.878906 330.511719 L 423.722656 330.363281 L 423.558594 330.234375 L 423.382812 330.117188 L 423.199219 330.019531 L 423.003906 329.933594 L 422.800781 329.863281 L 422.582031 329.808594 L 422.359375 329.773438 L 422.121094 329.75 L 421.878906 329.742188 L 421.675781 329.746094 L 421.480469 329.757812 L 421.289062 329.777344 L 421.101562 329.808594 L 420.921875 329.84375 L 420.742188 329.890625 L 420.566406 329.945312 L 420.398438 330.007812 L 420.234375 330.078125 L 420.074219 330.160156 L 419.917969 330.246094 L 419.769531 330.34375 L 419.617188 330.445312 L 419.46875 330.558594 L 419.320312 330.679688 L 419.171875 330.8125 L 419.027344 330.949219 L 418.882812 331.09375 L 418.742188 331.25 L 418.597656 331.414062 L 417.71875 330.753906 L 417.894531 330.542969 L 418.078125 330.34375 L 418.257812 330.15625 L 418.445312 329.980469 L 418.632812 329.816406 L 418.824219 329.664062 L 419.015625 329.523438 L 419.210938 329.394531 L 419.410156 329.277344 L 419.609375 329.167969 L 419.820312 329.074219 L 420.035156 328.988281 L 420.253906 328.910156 L 420.480469 328.84375 L 420.710938 328.789062 L 420.945312 328.742188 L 421.1875 328.707031 L 421.433594 328.683594 L 421.6875 328.667969 Z M 421.941406 328.664062 "/>
<path fill-rule="nonzero" fill="rgb(10.196078%, 10.196078%, 10.196078%)" fill-opacity="1" d="M 513.316406 328.664062 L 513.757812 328.683594 L 514.179688 328.742188 L 514.578125 328.835938 L 514.953125 328.972656 L 515.308594 329.148438 L 515.640625 329.359375 L 515.949219 329.613281 L 516.238281 329.902344 L 516.503906 330.230469 L 516.75 330.597656 L 516.972656 331 L 517.167969 331.4375 L 517.34375 331.910156 L 517.496094 332.417969 L 517.625 332.964844 L 517.730469 333.546875 L 517.808594 334.164062 L 517.867188 334.816406 L 517.902344 335.503906 L 517.914062 336.230469 L 517.902344 336.953125 L 517.867188 337.640625 L 517.808594 338.289062 L 517.726562 338.90625 L 517.617188 339.488281 L 517.488281 340.03125 L 517.332031 340.542969 L 517.15625 341.019531 L 516.953125 341.457031 L 516.726562 341.863281 L 516.484375 342.226562 L 516.21875 342.550781 L 515.929688 342.839844 L 515.621094 343.085938 L 515.292969 343.296875 L 514.941406 343.46875 L 514.566406 343.605469 L 514.171875 343.699219 L 513.753906 343.757812 L 513.316406 343.777344 L 512.875 343.757812 L 512.453125 343.699219 L 512.058594 343.605469 L 511.679688 343.46875 L 511.328125 343.296875 L 510.996094 343.085938 L 510.683594 342.839844 L 510.394531 342.550781 L 510.128906 342.226562 L 509.886719 341.863281 L 509.664062 341.457031 L 509.464844 341.015625 L 509.289062 340.539062 L 509.140625 340.027344 L 509.011719 339.480469 L 508.90625 338.898438 L 508.824219 338.277344 L 508.765625 337.625 L 508.730469 336.933594 L 508.71875 336.207031 L 508.730469 335.484375 L 508.765625 334.792969 L 508.824219 334.140625 L 508.90625 333.523438 L 509.011719 332.941406 L 509.140625 332.398438 L 509.289062 331.886719 L 509.464844 331.414062 L 509.664062 330.976562 L 509.886719 330.578125 L 510.128906 330.214844 L 510.394531 329.886719 L 510.683594 329.601562 L 510.996094 329.351562 L 511.328125 329.140625 L 511.679688 328.96875 L 512.058594 328.835938 L 512.453125 328.738281 L 512.875 328.683594 Z M 513.316406 329.71875 L 512.695312 329.785156 L 512.136719 329.976562 L 511.644531 330.304688 L 511.21875 330.757812 L 510.859375 331.339844 L 510.5625 332.054688 L 510.335938 332.898438 L 510.171875 333.871094 L 510.070312 334.976562 L 510.039062 336.207031 L 510.070312 337.445312 L 510.171875 338.554688 L 510.335938 339.53125 L 510.5625 340.375 L 510.859375 341.09375 L 511.21875 341.679688 L 511.644531 342.132812 L 512.136719 342.460938 L 512.695312 342.65625 L 513.316406 342.722656 L 513.628906 342.703125 L 513.929688 342.65625 L 514.210938 342.578125 L 514.476562 342.46875 L 514.726562 342.324219 L 514.960938 342.152344 L 515.175781 341.945312 L 515.378906 341.707031 L 515.566406 341.4375 L 515.738281 341.136719 L 515.894531 340.800781 L 516.039062 340.433594 L 516.164062 340.03125 L 516.273438 339.589844 L 516.363281 339.117188 L 516.441406 338.609375 L 516.5 338.066406 L 516.539062 337.488281 L 516.566406 336.878906 L 516.574219 336.230469 L 516.566406 335.582031 L 516.539062 334.972656 L 516.5 334.394531 L 516.441406 333.851562 L 516.363281 333.34375 L 516.273438 332.871094 L 516.164062 332.433594 L 516.039062 332.027344 L 515.894531 331.660156 L 515.738281 331.324219 L 515.566406 331.019531 L 515.378906 330.746094 L 515.175781 330.503906 L 514.960938 330.296875 L 514.726562 330.121094 L 514.476562 329.976562 L 514.210938 329.863281 L 513.929688 329.78125 L 513.628906 329.734375 Z M 513.316406 329.71875 "/>
<path fill-rule="nonzero" fill="rgb(10.196078%, 10.196078%, 10.196078%)" fill-opacity="1" d="M 528.1875 328.90625 L 528.1875 329.894531 L 522.425781 343.710938 L 521.238281 343.316406 L 526.871094 329.984375 L 520.027344 329.984375 L 520.027344 328.90625 Z M 528.1875 328.90625 "/>
<path fill-rule="nonzero" fill="rgb(10.196078%, 10.196078%, 10.196078%)" fill-opacity="1" d="M 536.703125 325.867188 L 537.804688 326.15625 L 532.699219 345.734375 L 531.597656 345.449219 Z M 536.703125 325.867188 "/>
<path fill-rule="nonzero" fill="rgb(10.196078%, 10.196078%, 10.196078%)" fill-opacity="1" d="M 545.371094 328.664062 L 545.734375 328.671875 L 546.078125 328.707031 L 546.410156 328.761719 L 546.726562 328.835938 L 547.027344 328.933594 L 547.3125 329.050781 L 547.582031 329.191406 L 547.835938 329.351562 L 548.074219 329.535156 L 548.296875 329.742188 L 548.507812 329.960938 L 548.695312 330.195312 L 548.859375 330.441406 L 549 330.703125 L 549.121094 330.972656 L 549.222656 331.257812 L 549.296875 331.550781 L 549.351562 331.859375 L 549.386719 332.179688 L 549.398438 332.511719 L 549.390625 332.796875 L 549.375 333.078125 L 549.34375 333.355469 L 549.300781 333.628906 L 549.25 333.898438 L 549.183594 334.164062 L 549.105469 334.429688 L 549.015625 334.6875 L 548.917969 334.945312 L 548.804688 335.195312 L 548.679688 335.449219 L 548.539062 335.707031 L 548.386719 335.972656 L 548.21875 336.238281 L 548.039062 336.511719 L 547.84375 336.789062 L 547.636719 337.070312 L 547.417969 337.359375 L 547.183594 337.648438 L 546.933594 337.945312 L 546.667969 338.261719 L 546.371094 338.605469 L 546.039062 338.976562 L 545.679688 339.378906 L 545.289062 339.8125 L 544.867188 340.273438 L 544.414062 340.761719 L 543.925781 341.285156 L 543.410156 341.832031 L 542.863281 342.414062 L 549.792969 342.414062 L 549.617188 343.535156 L 541.367188 343.535156 L 541.367188 342.457031 L 541.953125 341.832031 L 542.503906 341.238281 L 543.019531 340.679688 L 543.503906 340.15625 L 543.953125 339.664062 L 544.367188 339.203125 L 544.746094 338.78125 L 545.089844 338.386719 L 545.402344 338.03125 L 545.679688 337.703125 L 545.933594 337.398438 L 546.175781 337.097656 L 546.398438 336.808594 L 546.609375 336.527344 L 546.800781 336.253906 L 546.976562 335.988281 L 547.140625 335.734375 L 547.285156 335.488281 L 547.414062 335.25 L 547.527344 335.019531 L 547.632812 334.789062 L 547.726562 334.558594 L 547.808594 334.320312 L 547.878906 334.082031 L 547.941406 333.839844 L 547.988281 333.59375 L 548.027344 333.34375 L 548.054688 333.09375 L 548.070312 332.835938 L 548.078125 332.578125 L 548.070312 332.324219 L 548.046875 332.082031 L 548.007812 331.847656 L 547.953125 331.625 L 547.886719 331.414062 L 547.800781 331.210938 L 547.699219 331.019531 L 547.585938 330.839844 L 547.453125 330.671875 L 547.308594 330.511719 L 547.152344 330.363281 L 546.988281 330.234375 L 546.8125 330.117188 L 546.628906 330.019531 L 546.433594 329.933594 L 546.226562 329.863281 L 546.011719 329.808594 L 545.785156 329.773438 L 545.550781 329.75 L 545.304688 329.742188 L 545.105469 329.746094 L 544.910156 329.757812 L 544.71875 329.777344 L 544.53125 329.808594 L 544.347656 329.84375 L 544.171875 329.890625 L 543.996094 329.945312 L 543.828125 330.007812 L 543.660156 330.078125 L 543.5 330.160156 L 543.347656 330.246094 L 543.195312 330.34375 L 543.046875 330.445312 L 542.894531 330.558594 L 542.746094 330.679688 L 542.601562 330.8125 L 542.457031 330.949219 L 542.3125 331.09375 L 542.167969 331.25 L 542.027344 331.414062 L 541.148438 330.753906 L 541.324219 330.542969 L 541.503906 330.34375 L 541.6875 330.15625 L 541.871094 329.980469 L 542.058594 329.816406 L 542.25 329.664062 L 542.445312 329.523438 L 542.640625 329.394531 L 542.839844 329.277344 L 543.039062 329.167969 L 543.25 329.074219 L 543.464844 328.988281 L 543.683594 328.910156 L 543.910156 328.84375 L 544.140625 328.789062 L 544.375 328.742188 L 544.617188 328.707031 L 544.863281 328.683594 L 545.113281 328.667969 Z M 545.371094 328.664062 "/>
<path fill-rule="nonzero" fill="rgb(10.196078%, 10.196078%, 10.196078%)" fill-opacity="1" d="M 557.007812 328.664062 L 557.453125 328.683594 L 557.871094 328.742188 L 558.269531 328.835938 L 558.644531 328.972656 L 559 329.148438 L 559.332031 329.359375 L 559.644531 329.613281 L 559.929688 329.902344 L 560.195312 330.230469 L 560.441406 330.597656 L 560.664062 331 L 560.859375 331.4375 L 561.035156 331.910156 L 561.1875 332.417969 L 561.316406 332.964844 L 561.421875 333.546875 L 561.503906 334.164062 L 561.5625 334.816406 L 561.597656 335.503906 L 561.605469 336.230469 L 561.59375 336.953125 L 561.558594 337.640625 L 561.5 338.289062 L 561.417969 338.90625 L 561.308594 339.488281 L 561.179688 340.03125 L 561.023438 340.542969 L 560.847656 341.019531 L 560.644531 341.457031 L 560.417969 341.863281 L 560.175781 342.226562 L 559.910156 342.550781 L 559.621094 342.839844 L 559.3125 343.085938 L 558.984375 343.296875 L 558.632812 343.46875 L 558.257812 343.605469 L 557.863281 343.699219 L 557.449219 343.757812 L 557.007812 343.777344 L 556.566406 343.757812 L 556.148438 343.699219 L 555.75 343.605469 L 555.371094 343.46875 L 555.019531 343.296875 L 554.6875 343.085938 L 554.375 342.839844 L 554.085938 342.550781 L 553.820312 342.226562 L 553.578125 341.863281 L 553.355469 341.457031 L 553.15625 341.015625 L 552.984375 340.539062 L 552.832031 340.027344 L 552.703125 339.480469 L 552.597656 338.898438 L 552.515625 338.277344 L 552.457031 337.625 L 552.421875 336.933594 L 552.410156 336.207031 L 552.421875 335.484375 L 552.457031 334.792969 L 552.515625 334.140625 L 552.597656 333.523438 L 552.703125 332.941406 L 552.832031 332.398438 L 552.984375 331.886719 L 553.15625 331.414062 L 553.355469 330.976562 L 553.578125 330.578125 L 553.820312 330.214844 L 554.085938 329.886719 L 554.375 329.601562 L 554.6875 329.351562 L 555.019531 329.140625 L 555.371094 328.96875 L 555.75 328.835938 L 556.148438 328.738281 L 556.566406 328.683594 Z M 557.007812 329.71875 L 556.386719 329.785156 L 555.828125 329.976562 L 555.335938 330.304688 L 554.910156 330.757812 L 554.550781 331.339844 L 554.257812 332.054688 L 554.027344 332.898438 L 553.863281 333.871094 L 553.765625 334.976562 L 553.730469 336.207031 L 553.765625 337.445312 L 553.863281 338.554688 L 554.027344 339.53125 L 554.257812 340.375 L 554.550781 341.09375 L 554.910156 341.679688 L 555.335938 342.132812 L 555.828125 342.460938 L 556.386719 342.65625 L 557.007812 342.722656 L 557.324219 342.703125 L 557.621094 342.65625 L 557.902344 342.578125 L 558.167969 342.46875 L 558.417969 342.324219 L 558.652344 342.152344 L 558.871094 341.945312 L 559.070312 341.707031 L 559.257812 341.4375 L 559.429688 341.136719 L 559.589844 340.800781 L 559.730469 340.433594 L 559.855469 340.03125 L 559.964844 339.589844 L 560.054688 339.117188 L 560.132812 338.609375 L 560.191406 338.066406 L 560.230469 337.488281 L 560.257812 336.878906 L 560.265625 336.230469 L 560.257812 335.582031 L 560.230469 334.972656 L 560.191406 334.394531 L 560.132812 333.851562 L 560.054688 333.34375 L 559.964844 332.871094 L 559.855469 332.433594 L 559.730469 332.027344 L 559.589844 331.660156 L 559.429688 331.324219 L 559.257812 331.019531 L 559.070312 330.746094 L 558.871094 330.503906 L 558.652344 330.296875 L 558.417969 330.121094 L 558.167969 329.976562 L 557.902344 329.863281 L 557.621094 329.78125 L 557.324219 329.734375 Z M 557.007812 329.71875 "/>
<path fill-rule="nonzero" fill="rgb(10.196078%, 10.196078%, 10.196078%)" fill-opacity="1" d="M 568.007812 328.664062 L 568.371094 328.671875 L 568.71875 328.707031 L 569.050781 328.761719 L 569.363281 328.835938 L 569.664062 328.933594 L 569.949219 329.050781 L 570.21875 329.191406 L 570.472656 329.351562 L 570.710938 329.535156 L 570.933594 329.742188 L 571.144531 329.960938 L 571.332031 330.195312 L 571.496094 330.441406 L 571.640625 330.703125 L 571.761719 330.972656 L 571.859375 331.257812 L 571.9375 331.550781 L 571.992188 331.859375 L 572.023438 332.179688 L 572.035156 332.511719 L 572.03125 332.796875 L 572.011719 333.078125 L 571.980469 333.355469 L 571.941406 333.628906 L 571.886719 333.898438 L 571.820312 334.164062 L 571.746094 334.429688 L 571.65625 334.6875 L 571.554688 334.945312 L 571.441406 335.195312 L 571.316406 335.449219 L 571.175781 335.707031 L 571.023438 335.972656 L 570.855469 336.238281 L 570.675781 336.511719 L 570.484375 336.789062 L 570.277344 337.070312 L 570.054688 337.359375 L 569.820312 337.648438 L 569.570312 337.945312 L 569.304688 338.261719 L 569.007812 338.605469 L 568.679688 338.976562 L 568.316406 339.378906 L 567.925781 339.8125 L 567.503906 340.273438 L 567.050781 340.761719 L 566.566406 341.285156 L 566.050781 341.832031 L 565.5 342.414062 L 572.429688 342.414062 L 572.253906 343.535156 L 564.003906 343.535156 L 564.003906 342.457031 L 564.589844 341.832031 L 565.140625 341.238281 L 565.660156 340.679688 L 566.140625 340.15625 L 566.589844 339.664062 L 567.003906 339.203125 L 567.382812 338.78125 L 567.730469 338.386719 L 568.039062 338.03125 L 568.316406 337.703125 L 568.574219 337.398438 L 568.8125 337.097656 L 569.039062 336.808594 L 569.246094 336.527344 L 569.4375 336.253906 L 569.617188 335.988281 L 569.777344 335.734375 L 569.921875 335.488281 L 570.050781 335.25 L 570.164062 335.019531 L 570.269531 334.789062 L 570.363281 334.558594 L 570.445312 334.320312 L 570.515625 334.082031 L 570.578125 333.839844 L 570.628906 333.59375 L 570.664062 333.34375 L 570.695312 333.09375 L 570.710938 332.835938 L 570.714844 332.578125 L 570.707031 332.324219 L 570.683594 332.082031 L 570.644531 331.847656 L 570.59375 331.625 L 570.523438 331.414062 L 570.4375 331.210938 L 570.339844 331.019531 L 570.222656 330.839844 L 570.089844 330.671875 L 569.945312 330.511719 L 569.789062 330.363281 L 569.625 330.234375 L 569.449219 330.117188 L 569.265625 330.019531 L 569.070312 329.933594 L 568.867188 329.863281 L 568.648438 329.808594 L 568.425781 329.773438 L 568.1875 329.75 L 567.945312 329.742188 L 567.742188 329.746094 L 567.546875 329.757812 L 567.355469 329.777344 L 567.167969 329.808594 L 566.988281 329.84375 L 566.808594 329.890625 L 566.632812 329.945312 L 566.464844 330.007812 L 566.300781 330.078125 L 566.140625 330.160156 L 565.984375 330.246094 L 565.835938 330.34375 L 565.683594 330.445312 L 565.535156 330.558594 L 565.386719 330.679688 L 565.238281 330.8125 L 565.09375 330.949219 L 564.949219 331.09375 L 564.808594 331.25 L 564.664062 331.414062 L 563.785156 330.753906 L 563.960938 330.542969 L 564.144531 330.34375 L 564.324219 330.15625 L 564.511719 329.980469 L 564.699219 329.816406 L 564.890625 329.664062 L 565.082031 329.523438 L 565.277344 329.394531 L 565.476562 329.277344 L 565.675781 329.167969 L 565.886719 329.074219 L 566.101562 328.988281 L 566.320312 328.910156 L 566.546875 328.84375 L 566.777344 328.789062 L 567.011719 328.742188 L 567.253906 328.707031 L 567.5 328.683594 L 567.753906 328.667969 Z M 568.007812 328.664062 "/>
<path fill-rule="nonzero" fill="rgb(10.196078%, 10.196078%, 10.196078%)" fill-opacity="1" d="M 578.546875 328.664062 L 578.910156 328.671875 L 579.253906 328.707031 L 579.585938 328.761719 L 579.902344 328.835938 L 580.203125 328.933594 L 580.488281 329.050781 L 580.757812 329.191406 L 581.011719 329.351562 L 581.25 329.535156 L 581.472656 329.742188 L 581.683594 329.960938 L 581.871094 330.195312 L 582.035156 330.441406 L 582.175781 330.703125 L 582.296875 330.972656 L 582.398438 331.257812 L 582.472656 331.550781 L 582.53125 331.859375 L 582.5625 332.179688 L 582.574219 332.511719 L 582.566406 332.796875 L 582.550781 333.078125 L 582.519531 333.355469 L 582.476562 333.628906 L 582.425781 333.898438 L 582.359375 334.164062 L 582.28125 334.429688 L 582.191406 334.6875 L 582.09375 334.945312 L 581.980469 335.195312 L 581.855469 335.449219 L 581.714844 335.707031 L 581.5625 335.972656 L 581.394531 336.238281 L 581.214844 336.511719 L 581.019531 336.789062 L 580.8125 337.070312 L 580.59375 337.359375 L 580.359375 337.648438 L 580.109375 337.945312 L 579.84375 338.261719 L 579.546875 338.605469 L 579.214844 338.976562 L 578.855469 339.378906 L 578.464844 339.8125 L 578.042969 340.273438 L 577.589844 340.761719 L 577.101562 341.285156 L 576.585938 341.832031 L 576.039062 342.414062 L 582.96875 342.414062 L 582.792969 343.535156 L 574.542969 343.535156 L 574.542969 342.457031 L 575.128906 341.832031 L 575.679688 341.238281 L 576.199219 340.679688 L 576.679688 340.15625 L 577.128906 339.664062 L 577.542969 339.203125 L 577.921875 338.78125 L 578.265625 338.386719 L 578.578125 338.03125 L 578.855469 337.703125 L 579.113281 337.398438 L 579.351562 337.097656 L 579.574219 336.808594 L 579.785156 336.527344 L 579.976562 336.253906 L 580.152344 335.988281 L 580.316406 335.734375 L 580.460938 335.488281 L 580.589844 335.25 L 580.703125 335.019531 L 580.808594 334.789062 L 580.902344 334.558594 L 580.984375 334.320312 L 581.054688 334.082031 L 581.117188 333.839844 L 581.164062 333.59375 L 581.203125 333.34375 L 581.230469 333.09375 L 581.246094 332.835938 L 581.253906 332.578125 L 581.246094 332.324219 L 581.222656 332.082031 L 581.183594 331.847656 L 581.128906 331.625 L 581.0625 331.414062 L 580.976562 331.210938 L 580.875 331.019531 L 580.761719 330.839844 L 580.628906 330.671875 L 580.484375 330.511719 L 580.328125 330.363281 L 580.164062 330.234375 L 579.988281 330.117188 L 579.804688 330.019531 L 579.609375 329.933594 L 579.402344 329.863281 L 579.1875 329.808594 L 578.960938 329.773438 L 578.726562 329.75 L 578.480469 329.742188 L 578.28125 329.746094 L 578.085938 329.757812 L 577.894531 329.777344 L 577.707031 329.808594 L 577.523438 329.84375 L 577.347656 329.890625 L 577.171875 329.945312 L 577.003906 330.007812 L 576.839844 330.078125 L 576.675781 330.160156 L 576.523438 330.246094 L 576.371094 330.34375 L 576.222656 330.445312 L 576.070312 330.558594 L 575.925781 330.679688 L 575.777344 330.8125 L 575.632812 330.949219 L 575.488281 331.09375 L 575.34375 331.25 L 575.203125 331.414062 L 574.324219 330.753906 L 574.5 330.542969 L 574.679688 330.34375 L 574.863281 330.15625 L 575.046875 329.980469 L 575.238281 329.816406 L 575.425781 329.664062 L 575.621094 329.523438 L 575.816406 329.394531 L 576.015625 329.277344 L 576.214844 329.167969 L 576.425781 329.074219 L 576.640625 328.988281 L 576.859375 328.910156 L 577.085938 328.84375 L 577.316406 328.789062 L 577.550781 328.742188 L 577.792969 328.707031 L 578.039062 328.683594 L 578.289062 328.667969 Z M 578.546875 328.664062 "/>
<path fill-rule="nonzero" fill="rgb(10.196078%, 10.196078%, 10.196078%)" fill-opacity="1" d="M 672.4375 328.664062 L 672.878906 328.683594 L 673.296875 328.742188 L 673.695312 328.835938 L 674.074219 328.972656 L 674.425781 329.148438 L 674.757812 329.359375 L 675.070312 329.613281 L 675.359375 329.902344 L 675.625 330.230469 L 675.867188 330.597656 L 676.089844 331 L 676.289062 331.4375 L 676.460938 331.910156 L 676.613281 332.417969 L 676.742188 332.964844 L 676.847656 333.546875 L 676.929688 334.164062 L 676.988281 334.816406 L 677.023438 335.503906 L 677.035156 336.230469 L 677.023438 336.953125 L 676.988281 337.640625 L 676.925781 338.289062 L 676.84375 338.90625 L 676.738281 339.488281 L 676.605469 340.03125 L 676.453125 340.542969 L 676.273438 341.019531 L 676.070312 341.457031 L 675.847656 341.863281 L 675.601562 342.226562 L 675.335938 342.550781 L 675.050781 342.839844 L 674.742188 343.085938 L 674.410156 343.296875 L 674.058594 343.46875 L 673.683594 343.605469 L 673.289062 343.699219 L 672.875 343.757812 L 672.4375 343.777344 L 671.992188 343.757812 L 671.574219 343.699219 L 671.175781 343.605469 L 670.800781 343.46875 L 670.445312 343.296875 L 670.113281 343.085938 L 669.800781 342.839844 L 669.515625 342.550781 L 669.25 342.226562 L 669.003906 341.863281 L 668.78125 341.457031 L 668.585938 341.015625 L 668.410156 340.539062 L 668.257812 340.027344 L 668.128906 339.480469 L 668.023438 338.898438 L 667.941406 338.277344 L 667.882812 337.625 L 667.851562 336.933594 L 667.839844 336.207031 L 667.851562 335.484375 L 667.882812 334.792969 L 667.941406 334.140625 L 668.023438 333.523438 L 668.128906 332.941406 L 668.257812 332.398438 L 668.410156 331.886719 L 668.585938 331.414062 L 668.78125 330.976562 L 669.003906 330.578125 L 669.25 330.214844 L 669.515625 329.886719 L 669.800781 329.601562 L 670.113281 329.351562 L 670.445312 329.140625 L 670.800781 328.96875 L 671.175781 328.835938 L 671.574219 328.738281 L 671.992188 328.683594 Z M 672.4375 329.71875 L 671.8125 329.785156 L 671.257812 329.976562 L 670.765625 330.304688 L 670.339844 330.757812 L 669.976562 331.339844 L 669.683594 332.054688 L 669.453125 332.898438 L 669.289062 333.871094 L 669.191406 334.976562 L 669.15625 336.207031 L 669.191406 337.445312 L 669.289062 338.554688 L 669.453125 339.53125 L 669.683594 340.375 L 669.976562 341.09375 L 670.339844 341.679688 L 670.765625 342.132812 L 671.257812 342.460938 L 671.8125 342.65625 L 672.4375 342.722656 L 672.75 342.703125 L 673.046875 342.65625 L 673.328125 342.578125 L 673.59375 342.46875 L 673.84375 342.324219 L 674.078125 342.152344 L 674.296875 341.945312 L 674.5 341.707031 L 674.683594 341.4375 L 674.855469 341.136719 L 675.015625 340.800781 L 675.15625 340.433594 L 675.28125 340.03125 L 675.390625 339.589844 L 675.484375 339.117188 L 675.558594 338.609375 L 675.617188 338.066406 L 675.660156 337.488281 L 675.683594 336.878906 L 675.691406 336.230469 L 675.683594 335.582031 L 675.660156 334.972656 L 675.617188 334.394531 L 675.558594 333.851562 L 675.484375 333.34375 L 675.390625 332.871094 L 675.28125 332.433594 L 675.15625 332.027344 L 675.015625 331.660156 L 674.855469 331.324219 L 674.683594 331.019531 L 674.5 330.746094 L 674.296875 330.503906 L 674.078125 330.296875 L 673.84375 330.121094 L 673.59375 329.976562 L 673.328125 329.863281 L 673.046875 329.78125 L 672.75 329.734375 Z M 672.4375 329.71875 "/>
<path fill-rule="nonzero" fill="rgb(10.196078%, 10.196078%, 10.196078%)" fill-opacity="1" d="M 684.910156 328.90625 L 684.910156 343.535156 L 683.632812 343.535156 L 683.632812 330.3125 L 680.027344 332.558594 L 679.433594 331.609375 L 683.808594 328.90625 Z M 684.910156 328.90625 "/>
<path fill-rule="nonzero" fill="rgb(10.196078%, 10.196078%, 10.196078%)" fill-opacity="1" d="M 695.292969 325.867188 L 696.394531 326.15625 L 691.289062 345.734375 L 690.191406 345.449219 Z M 695.292969 325.867188 "/>
<path fill-rule="nonzero" fill="rgb(10.196078%, 10.196078%, 10.196078%)" fill-opacity="1" d="M 703.960938 328.664062 L 704.324219 328.671875 L 704.671875 328.707031 L 705 328.761719 L 705.316406 328.835938 L 705.617188 328.933594 L 705.902344 329.050781 L 706.171875 329.191406 L 706.425781 329.351562 L 706.664062 329.535156 L 706.886719 329.742188 L 707.097656 329.960938 L 707.285156 330.195312 L 707.449219 330.441406 L 707.59375 330.703125 L 707.714844 330.972656 L 707.8125 331.257812 L 707.890625 331.550781 L 707.945312 331.859375 L 707.976562 332.179688 L 707.988281 332.511719 L 707.980469 332.796875 L 707.964844 333.078125 L 707.933594 333.355469 L 707.894531 333.628906 L 707.839844 333.898438 L 707.773438 334.164062 L 707.695312 334.429688 L 707.609375 334.6875 L 707.507812 334.945312 L 707.394531 335.195312 L 707.269531 335.449219 L 707.128906 335.707031 L 706.976562 335.972656 L 706.808594 336.238281 L 706.628906 336.511719 L 706.4375 336.789062 L 706.226562 337.070312 L 706.007812 337.359375 L 705.773438 337.648438 L 705.523438 337.945312 L 705.257812 338.261719 L 704.960938 338.605469 L 704.632812 338.976562 L 704.269531 339.378906 L 703.878906 339.8125 L 703.457031 340.273438 L 703.003906 340.761719 L 702.519531 341.285156 L 702 341.832031 L 701.453125 342.414062 L 708.382812 342.414062 L 708.207031 343.535156 L 699.957031 343.535156 L 699.957031 342.457031 L 700.542969 341.832031 L 701.09375 341.238281 L 701.613281 340.679688 L 702.09375 340.15625 L 702.542969 339.664062 L 702.957031 339.203125 L 703.335938 338.78125 L 703.683594 338.386719 L 703.992188 338.03125 L 704.269531 337.703125 L 704.527344 337.398438 L 704.765625 337.097656 L 704.992188 336.808594 L 705.199219 336.527344 L 705.390625 336.253906 L 705.570312 335.988281 L 705.730469 335.734375 L 705.875 335.488281 L 706.003906 335.25 L 706.117188 335.019531 L 706.222656 334.789062 L 706.316406 334.558594 L 706.398438 334.320312 L 706.46875 334.082031 L 706.53125 333.839844 L 706.578125 333.59375 L 706.617188 333.34375 L 706.644531 333.09375 L 706.664062 332.835938 L 706.667969 332.578125 L 706.660156 332.324219 L 706.636719 332.082031 L 706.597656 331.847656 L 706.542969 331.625 L 706.476562 331.414062 L 706.390625 331.210938 L 706.289062 331.019531 L 706.175781 330.839844 L 706.042969 330.671875 L 705.898438 330.511719 L 705.742188 330.363281 L 705.578125 330.234375 L 705.402344 330.117188 L 705.21875 330.019531 L 705.023438 329.933594 L 704.816406 329.863281 L 704.601562 329.808594 L 704.378906 329.773438 L 704.140625 329.75 L 703.894531 329.742188 L 703.695312 329.746094 L 703.5 329.757812 L 703.308594 329.777344 L 703.121094 329.808594 L 702.9375 329.84375 L 702.761719 329.890625 L 702.585938 329.945312 L 702.417969 330.007812 L 702.253906 330.078125 L 702.09375 330.160156 L 701.9375 330.246094 L 701.785156 330.34375 L 701.636719 330.445312 L 701.488281 330.558594 L 701.339844 330.679688 L 701.191406 330.8125 L 701.046875 330.949219 L 700.902344 331.09375 L 700.757812 331.25 L 700.617188 331.414062 L 699.738281 330.753906 L 699.914062 330.542969 L 700.09375 330.34375 L 700.277344 330.15625 L 700.464844 329.980469 L 700.652344 329.816406 L 700.839844 329.664062 L 701.035156 329.523438 L 701.230469 329.394531 L 701.429688 329.277344 L 701.628906 329.167969 L 701.839844 329.074219 L 702.054688 328.988281 L 702.273438 328.910156 L 702.5 328.84375 L 702.730469 328.789062 L 702.964844 328.742188 L 703.207031 328.707031 L 703.453125 328.683594 L 703.703125 328.667969 Z M 703.960938 328.664062 "/>
<path fill-rule="nonzero" fill="rgb(10.196078%, 10.196078%, 10.196078%)" fill-opacity="1" d="M 715.601562 328.664062 L 716.042969 328.683594 L 716.460938 328.742188 L 716.859375 328.835938 L 717.238281 328.972656 L 717.589844 329.148438 L 717.921875 329.359375 L 718.234375 329.613281 L 718.523438 329.902344 L 718.789062 330.230469 L 719.03125 330.597656 L 719.253906 331 L 719.453125 331.4375 L 719.625 331.910156 L 719.777344 332.417969 L 719.90625 332.964844 L 720.011719 333.546875 L 720.09375 334.164062 L 720.152344 334.816406 L 720.1875 335.503906 L 720.199219 336.230469 L 720.1875 336.953125 L 720.152344 337.640625 L 720.089844 338.289062 L 720.007812 338.90625 L 719.902344 339.488281 L 719.769531 340.03125 L 719.617188 340.542969 L 719.4375 341.019531 L 719.234375 341.457031 L 719.011719 341.863281 L 718.765625 342.226562 L 718.5 342.550781 L 718.214844 342.839844 L 717.90625 343.085938 L 717.574219 343.296875 L 717.222656 343.46875 L 716.847656 343.605469 L 716.453125 343.699219 L 716.039062 343.757812 L 715.601562 343.777344 L 715.15625 343.757812 L 714.738281 343.699219 L 714.339844 343.605469 L 713.964844 343.46875 L 713.609375 343.296875 L 713.277344 343.085938 L 712.964844 342.839844 L 712.679688 342.550781 L 712.414062 342.226562 L 712.167969 341.863281 L 711.945312 341.457031 L 711.75 341.015625 L 711.574219 340.539062 L 711.421875 340.027344 L 711.292969 339.480469 L 711.1875 338.898438 L 711.105469 338.277344 L 711.046875 337.625 L 711.011719 336.933594 L 711.003906 336.207031 L 711.011719 335.484375 L 711.046875 334.792969 L 711.105469 334.140625 L 711.1875 333.523438 L 711.292969 332.941406 L 711.421875 332.398438 L 711.574219 331.886719 L 711.75 331.414062 L 711.945312 330.976562 L 712.167969 330.578125 L 712.414062 330.214844 L 712.679688 329.886719 L 712.964844 329.601562 L 713.277344 329.351562 L 713.609375 329.140625 L 713.964844 328.96875 L 714.339844 328.835938 L 714.738281 328.738281 L 715.15625 328.683594 Z M 715.601562 329.71875 L 714.976562 329.785156 L 714.417969 329.976562 L 713.929688 330.304688 L 713.503906 330.757812 L 713.140625 331.339844 L 712.847656 332.054688 L 712.617188 332.898438 L 712.453125 333.871094 L 712.355469 334.976562 L 712.320312 336.207031 L 712.355469 337.445312 L 712.453125 338.554688 L 712.617188 339.53125 L 712.847656 340.375 L 713.140625 341.09375 L 713.503906 341.679688 L 713.929688 342.132812 L 714.417969 342.460938 L 714.976562 342.65625 L 715.601562 342.722656 L 715.914062 342.703125 L 716.210938 342.65625 L 716.492188 342.578125 L 716.757812 342.46875 L 717.007812 342.324219 L 717.242188 342.152344 L 717.460938 341.945312 L 717.664062 341.707031 L 717.847656 341.4375 L 718.019531 341.136719 L 718.179688 340.800781 L 718.320312 340.433594 L 718.445312 340.03125 L 718.554688 339.589844 L 718.648438 339.117188 L 718.722656 338.609375 L 718.78125 338.066406 L 718.824219 337.488281 L 718.847656 336.878906 L 718.855469 336.230469 L 718.847656 335.582031 L 718.824219 334.972656 L 718.78125 334.394531 L 718.722656 333.851562 L 718.648438 333.34375 L 718.554688 332.871094 L 718.445312 332.433594 L 718.320312 332.027344 L 718.179688 331.660156 L 718.019531 331.324219 L 717.847656 331.019531 L 717.664062 330.746094 L 717.460938 330.503906 L 717.242188 330.296875 L 717.007812 330.121094 L 716.757812 329.976562 L 716.492188 329.863281 L 716.210938 329.78125 L 715.914062 329.734375 Z M 715.601562 329.71875 "/>
</svg>
