<?xml version="1.0" encoding="UTF-8"?>
<svg xmlns="http://www.w3.org/2000/svg" xmlns:xlink="http://www.w3.org/1999/xlink" width="720pt" height="360pt" viewBox="0 0 720 360">
<defs>
<clipPath id="clip-0">
<path clip-rule="nonzero" d="M 43.902344 11.957031 L 708.046875 11.957031 L 708.046875 317.707031 L 43.902344 317.707031 Z M 43.902344 11.957031 "/>
</clipPath>
<clipPath id="clip-1">
<path clip-rule="nonzero" d="M 43.902344 302 L 708.046875 302 L 708.046875 305 L 43.902344 305 Z M 43.902344 302 "/>
</clipPath>
<clipPath id="clip-2">
<path clip-rule="nonzero" d="M 43.902344 209 L 708.046875 209 L 708.046875 213 L 43.902344 213 Z M 43.902344 209 "/>
</clipPath>
<clipPath id="clip-3">
<path clip-rule="nonzero" d="M 43.902344 117 L 708.046875 117 L 708.046875 120 L 43.902344 120 Z M 43.902344 117 "/>
</clipPath>
<clipPath id="clip-4">
<path clip-rule="nonzero" d="M 43.902344 24 L 708.046875 24 L 708.046875 28 L 43.902344 28 Z M 43.902344 24 "/>
</clipPath>
<clipPath id="clip-5">
<path clip-rule="nonzero" d="M 140 11.957031 L 143 11.957031 L 143 317.707031 L 140 317.707031 Z M 140 11.957031 "/>
</clipPath>
<clipPath id="clip-6">
<path clip-rule="nonzero" d="M 241 11.957031 L 244 11.957031 L 244 317.707031 L 241 317.707031 Z M 241 11.957031 "/>
</clipPath>
<clipPath id="clip-7">
<path clip-rule="nonzero" d="M 342 11.957031 L 345 11.957031 L 345 317.707031 L 342 317.707031 Z M 342 11.957031 "/>
</clipPath>
<clipPath id="clip-8">
<path clip-rule="nonzero" d="M 443 11.957031 L 446 11.957031 L 446 317.707031 L 443 317.707031 Z M 443 11.957031 "/>
</clipPath>
<clipPath id="clip-9">
<path clip-rule="nonzero" d="M 544 11.957031 L 548 11.957031 L 548 317.707031 L 544 317.707031 Z M 544 11.957031 "/>
</clipPath>
<clipPath id="clip-10">
<path clip-rule="nonzero" d="M 645 11.957031 L 649 11.957031 L 649 317.707031 L 645 317.707031 Z M 645 11.957031 "/>
</clipPath>
<clipPath id="clip-11">
<path clip-rule="nonzero" d="M 669 11.957031 L 671 11.957031 L 671 317.707031 L 669 317.707031 Z M 669 11.957031 "/>
</clipPath>
</defs>
<rect x="-72" y="-36" width="864" height="432" fill="rgb(100%, 100%, 100%)" fill-opacity="1"/>
<rect x="-72" y="-36" width="864" height="432" fill="rgb(95.294118%, 95.294118%, 95.294118%)" fill-opacity="1"/>
<path fill="none" stroke-width="2.327953" stroke-linecap="round" stroke-linejoin="round" stroke="rgb(95.294118%, 95.294118%, 95.294118%)" stroke-opacity="1" stroke-miterlimit="10" d="M 0 360 L 720 360 L 720 0 L 0 0 Z M 0 360 "/>
<g clip-path="url(#clip-0)">
<path fill-rule="nonzero" fill="rgb(95.294118%, 95.294118%, 95.294118%)" fill-opacity="1" stroke-width="2.327953" stroke-linecap="round" stroke-linejoin="round" stroke="rgb(95.294118%, 95.294118%, 95.294118%)" stroke-opacity="1" stroke-miterlimit="10" d="M 43.902344 317.707031 L 708.046875 317.707031 L 708.046875 11.957031 L 43.902344 11.957031 Z M 43.902344 317.707031 "/>
</g>
<g clip-path="url(#clip-1)">
<path fill="none" stroke-width="2.327953" stroke-linecap="butt" stroke-linejoin="round" stroke="rgb(92.156863%, 92.156863%, 92.156863%)" stroke-opacity="1" stroke-miterlimit="10" d="M 43.902344 303.808594 L 708.042969 303.808594 "/>
</g>
<g clip-path="url(#clip-2)">
<path fill="none" stroke-width="2.327953" stroke-linecap="butt" stroke-linejoin="round" stroke="rgb(92.156863%, 92.156863%, 92.156863%)" stroke-opacity="1" stroke-miterlimit="10" d="M 43.902344 211.15625 L 708.042969 211.15625 "/>
</g>
<g clip-path="url(#clip-3)">
<path fill="none" stroke-width="2.327953" stroke-linecap="butt" stroke-linejoin="round" stroke="rgb(92.156863%, 92.156863%, 92.156863%)" stroke-opacity="1" stroke-miterlimit="10" d="M 43.902344 118.503906 L 708.042969 118.503906 "/>
</g>
<g clip-path="url(#clip-4)">
<path fill="none" stroke-width="2.327953" stroke-linecap="butt" stroke-linejoin="round" stroke="rgb(92.156863%, 92.156863%, 92.156863%)" stroke-opacity="1" stroke-miterlimit="10" d="M 43.902344 25.851562 L 708.042969 25.851562 "/>
</g>
<g clip-path="url(#clip-5)">
<path fill="none" stroke-width="2.327953" stroke-linecap="butt" stroke-linejoin="round" stroke="rgb(92.156863%, 92.156863%, 92.156863%)" stroke-opacity="1" stroke-miterlimit="10" d="M 141.453125 317.707031 L 141.453125 11.957031 "/>
</g>
<g clip-path="url(#clip-6)">
<path fill="none" stroke-width="2.327953" stroke-linecap="butt" stroke-linejoin="round" stroke="rgb(92.156863%, 92.156863%, 92.156863%)" stroke-opacity="1" stroke-miterlimit="10" d="M 242.585938 317.707031 L 242.585938 11.957031 "/>
</g>
<g clip-path="url(#clip-7)">
<path fill="none" stroke-width="2.327953" stroke-linecap="butt" stroke-linejoin="round" stroke="rgb(92.156863%, 92.156863%, 92.156863%)" stroke-opacity="1" stroke-miterlimit="10" d="M 343.722656 317.707031 L 343.722656 11.957031 "/>
</g>
<g clip-path="url(#clip-8)">
<path fill="none" stroke-width="2.327953" stroke-linecap="butt" stroke-linejoin="round" stroke="rgb(92.156863%, 92.156863%, 92.156863%)" stroke-opacity="1" stroke-miterlimit="10" d="M 444.765625 317.707031 L 444.765625 11.957031 "/>
</g>
<g clip-path="url(#clip-9)">
<path fill="none" stroke-width="2.327953" stroke-linecap="butt" stroke-linejoin="round" stroke="rgb(92.156863%, 92.156863%, 92.156863%)" stroke-opacity="1" stroke-miterlimit="10" d="M 545.902344 317.707031 L 545.902344 11.957031 "/>
</g>
<g clip-path="url(#clip-10)">
<path fill="none" stroke-width="2.327953" stroke-linecap="butt" stroke-linejoin="round" stroke="rgb(92.156863%, 92.156863%, 92.156863%)" stroke-opacity="1" stroke-miterlimit="10" d="M 647.035156 317.707031 L 647.035156 11.957031 "/>
</g>
<g clip-path="url(#clip-11)">
<path fill="none" stroke-width="1.066978" stroke-linecap="butt" stroke-linejoin="round" stroke="rgb(0%, 0%, 0%)" stroke-opacity="1" stroke-miterlimit="10" d="M 669.550781 317.707031 L 669.550781 11.957031 "/>
</g>
<path fill="none" stroke-width="2.347352" stroke-linecap="butt" stroke-linejoin="round" stroke="rgb(56.078431%, 16.470588%, 26.27451%)" stroke-opacity="1" stroke-miterlimit="10" d="M 641.40625 239.316406 L 644.175781 239.921875 L 647.035156 231.625 L 649.898438 230.074219 L 652.480469 228.828125 L 655.339844 230.101562 L 658.109375 232.265625 L 660.96875 233.457031 L 663.738281 168.652344 L 666.597656 77.988281 L 669.460938 71.015625 L 672.226562 63.949219 L 675.089844 61.441406 L 677.855469 62.597656 "/>
<path fill="none" stroke-width="2.347352" stroke-linecap="butt" stroke-linejoin="round" stroke="rgb(0%, 0%, 0%)" stroke-opacity="1" stroke-miterlimit="10" d="M 74.089844 282.394531 L 76.949219 282.566406 L 79.535156 282.675781 L 82.394531 282.359375 L 85.164062 281.546875 L 88.023438 281.660156 L 90.792969 280.941406 L 93.652344 280.347656 L 96.511719 280.015625 L 99.28125 279.300781 L 102.140625 279.070312 L 104.910156 277.878906 L 107.769531 278.519531 L 110.628906 278.5625 L 113.214844 278.488281 L 116.074219 278.042969 L 118.84375 277.5625 L 121.703125 272.292969 L 124.472656 272.167969 L 127.332031 272.25 L 130.195312 272.476562 L 132.960938 272.453125 L 135.824219 272.214844 L 138.589844 272.347656 L 141.453125 272.648438 L 144.3125 272.371094 L 146.894531 272.375 L 149.757812 272.535156 L 152.523438 272.222656 L 155.386719 273.191406 L 158.152344 272.855469 L 161.015625 267.28125 L 163.875 267.464844 L 166.644531 267.210938 L 169.503906 267.488281 L 172.273438 267.261719 L 175.132812 267.574219 L 177.992188 267.386719 L 180.667969 266.914062 L 183.53125 267.257812 L 186.296875 266.855469 L 189.160156 267.074219 L 191.925781 264.519531 L 194.789062 264.777344 L 197.648438 265 L 200.417969 266.605469 L 203.277344 266.03125 L 206.046875 266.367188 L 208.90625 265.28125 L 211.765625 265.40625 L 214.351562 264.890625 L 217.210938 264.957031 L 219.980469 264.019531 L 222.839844 263.449219 L 225.609375 263.835938 L 228.46875 262.289062 L 231.328125 258.359375 L 234.097656 256.800781 L 236.957031 257.003906 L 239.726562 257.238281 L 242.585938 258.210938 L 245.445312 258.519531 L 248.03125 258.289062 L 250.890625 258.183594 L 253.660156 258.492188 L 256.519531 257.980469 L 259.289062 258.09375 L 262.148438 257.351562 L 265.011719 256.765625 L 267.777344 256.335938 L 270.640625 257.402344 L 273.40625 257.292969 L 276.269531 258.65625 L 279.128906 258.492188 L 281.710938 258.867188 L 284.574219 250.214844 L 287.339844 250.761719 L 290.203125 250.898438 L 292.96875 251.132812 L 295.832031 250.65625 L 298.691406 247.582031 L 301.460938 247.949219 L 304.320312 247.382812 L 307.089844 247.269531 L 309.949219 249.101562 L 312.808594 248.886719 L 315.484375 248.859375 L 318.347656 247.597656 L 321.113281 247.496094 L 323.976562 241.894531 L 326.742188 241.238281 L 329.605469 240.042969 L 332.464844 240.152344 L 335.234375 240.136719 L 338.09375 240.304688 L 340.863281 236.667969 L 343.722656 238.578125 L 346.582031 239.355469 L 349.167969 236.066406 L 352.027344 237.207031 L 354.796875 236.617188 L 357.65625 237.105469 L 360.425781 236.410156 L 363.285156 236.363281 L 366.144531 236.328125 L 368.914062 236.480469 L 371.773438 236.917969 L 374.542969 236.339844 L 377.402344 237.851562 L 380.265625 237.886719 L 382.847656 238.597656 L 385.707031 239.148438 L 388.476562 240.378906 L 391.335938 232.199219 L 394.105469 231.324219 L 396.964844 232.355469 L 399.828125 232.347656 L 402.59375 232.941406 L 405.457031 233.113281 L 408.222656 233.753906 L 411.085938 235.011719 L 413.945312 235.667969 L 416.527344 236.609375 L 419.390625 238.527344 L 422.15625 239.03125 L 425.019531 239.644531 L 427.785156 239.875 L 430.648438 240.714844 L 433.507812 241.039062 L 436.277344 241.460938 L 439.136719 242.996094 L 441.90625 242.972656 L 444.765625 244.03125 L 447.625 244.976562 L 450.300781 246.070312 L 453.164062 245.941406 L 455.929688 246.386719 L 458.792969 246.75 L 461.558594 239.449219 L 464.421875 239.871094 L 467.28125 240.195312 L 470.050781 239.96875 L 472.910156 241.335938 L 475.679688 242.253906 L 478.539062 243.222656 L 481.398438 242.78125 L 483.984375 243.613281 L 486.84375 244.0625 L 489.613281 244.472656 L 492.472656 244.785156 L 495.242188 246.785156 L 498.101562 244.105469 L 500.960938 244.59375 L 503.730469 244.140625 L 506.589844 243.714844 L 509.359375 243.378906 L 512.21875 243.214844 L 515.082031 243.410156 L 517.664062 243.351562 L 520.523438 244.863281 L 523.292969 244.117188 L 526.152344 245.273438 L 528.921875 242.480469 L 531.78125 241.964844 L 534.644531 242.65625 L 537.410156 242.238281 L 540.273438 241.550781 L 543.039062 241.964844 L 545.902344 243.363281 L 548.761719 242.996094 L 551.34375 242.628906 L 554.207031 243.191406 L 556.972656 242.5 L 559.835938 243.714844 L 562.601562 244.144531 L 565.464844 244.28125 L 568.324219 245.414062 L 571.09375 245.328125 L 573.953125 246.386719 L 576.722656 246.554688 L 579.582031 247.1875 L 582.441406 247.425781 L 585.117188 247.917969 L 587.980469 301.285156 L 590.746094 301.429688 L 593.609375 301.464844 L 596.375 301.285156 L 599.238281 301.386719 L 602.097656 295.847656 L 604.867188 295.320312 L 607.726562 294.957031 L 610.496094 294.582031 L 613.355469 245.648438 L 616.214844 246.804688 L 618.800781 246.371094 L 621.660156 278.886719 L 624.429688 278.585938 L 627.289062 278.421875 L 630.058594 278.285156 L 632.917969 278.328125 L 635.777344 278.140625 L 638.546875 278.089844 "/>
<path fill-rule="nonzero" fill="rgb(10.196078%, 10.196078%, 10.196078%)" fill-opacity="1" d="M 27.089844 296.46875 L 27.535156 296.488281 L 27.953125 296.546875 L 28.351562 296.644531 L 28.726562 296.78125 L 29.082031 296.953125 L 29.414062 297.167969 L 29.722656 297.417969 L 30.011719 297.710938 L 30.277344 298.039062 L 30.523438 298.40625 L 30.746094 298.808594 L 30.941406 299.246094 L 31.117188 299.71875 L 31.269531 300.226562 L 31.398438 300.769531 L 31.503906 301.351562 L 31.585938 301.96875 L 31.640625 302.625 L 31.675781 303.3125 L 31.6875 304.039062 L 31.675781 304.761719 L 31.640625 305.445312 L 31.582031 306.097656 L 31.5 306.714844 L 31.390625 307.292969 L 31.261719 307.839844 L 31.105469 308.351562 L 30.929688 308.824219 L 30.726562 309.265625 L 30.5 309.671875 L 30.257812 310.035156 L 29.992188 310.359375 L 29.703125 310.648438 L 29.394531 310.894531 L 29.066406 311.105469 L 28.714844 311.277344 L 28.339844 311.414062 L 27.945312 311.507812 L 27.527344 311.566406 L 27.089844 311.585938 L 26.648438 311.566406 L 26.230469 311.507812 L 25.832031 311.414062 L 25.453125 311.277344 L 25.101562 311.105469 L 24.769531 310.894531 L 24.457031 310.648438 L 24.167969 310.359375 L 23.902344 310.035156 L 23.660156 309.671875 L 23.4375 309.265625 L 23.238281 308.824219 L 23.066406 308.347656 L 22.914062 307.835938 L 22.785156 307.289062 L 22.679688 306.707031 L 22.597656 306.085938 L 22.539062 305.433594 L 22.503906 304.742188 L 22.492188 304.015625 L 22.503906 303.289062 L 22.539062 302.601562 L 22.597656 301.949219 L 22.679688 301.332031 L 22.785156 300.75 L 22.914062 300.203125 L 23.066406 299.695312 L 23.238281 299.222656 L 23.4375 298.785156 L 23.660156 298.382812 L 23.902344 298.019531 L 24.167969 297.695312 L 24.457031 297.410156 L 24.769531 297.160156 L 25.101562 296.949219 L 25.453125 296.777344 L 25.832031 296.644531 L 26.230469 296.546875 L 26.648438 296.488281 Z M 27.089844 297.527344 L 26.46875 297.589844 L 25.910156 297.785156 L 25.417969 298.109375 L 24.992188 298.566406 L 24.632812 299.148438 L 24.335938 299.863281 L 24.109375 300.707031 L 23.945312 301.679688 L 23.847656 302.785156 L 23.8125 304.015625 L 23.847656 305.253906 L 23.945312 306.359375 L 24.109375 307.335938 L 24.335938 308.183594 L 24.632812 308.902344 L 24.992188 309.488281 L 25.417969 309.941406 L 25.910156 310.269531 L 26.46875 310.464844 L 27.089844 310.527344 L 27.40625 310.511719 L 27.703125 310.464844 L 27.984375 310.386719 L 28.25 310.273438 L 28.5 310.132812 L 28.734375 309.957031 L 28.953125 309.753906 L 29.152344 309.515625 L 29.339844 309.246094 L 29.511719 308.945312 L 29.671875 308.609375 L 29.8125 308.242188 L 29.9375 307.835938 L 30.046875 307.398438 L 30.136719 306.925781 L 30.214844 306.417969 L 30.273438 305.875 L 30.3125 305.296875 L 30.339844 304.683594 L 30.347656 304.039062 L 30.339844 303.390625 L 30.3125 302.777344 L 30.273438 302.203125 L 30.214844 301.660156 L 30.136719 301.152344 L 30.046875 300.675781 L 29.9375 300.238281 L 29.8125 299.835938 L 29.671875 299.464844 L 29.511719 299.132812 L 29.339844 298.828125 L 29.152344 298.554688 L 28.953125 298.3125 L 28.734375 298.105469 L 28.5 297.929688 L 28.25 297.785156 L 27.984375 297.671875 L 27.703125 297.589844 L 27.40625 297.542969 Z M 27.089844 297.527344 "/>
<path fill-rule="nonzero" fill="rgb(10.196078%, 10.196078%, 10.196078%)" fill-opacity="1" d="M 31.335938 205.117188 L 25.398438 205.117188 L 25.398438 210.109375 L 25.640625 209.980469 L 25.882812 209.867188 L 26.132812 209.761719 L 26.378906 209.675781 L 26.628906 209.597656 L 26.878906 209.539062 L 27.132812 209.492188 L 27.390625 209.457031 L 27.644531 209.4375 L 27.90625 209.429688 L 28.277344 209.441406 L 28.628906 209.476562 L 28.96875 209.539062 L 29.292969 209.625 L 29.597656 209.738281 L 29.890625 209.871094 L 30.164062 210.03125 L 30.425781 210.21875 L 30.667969 210.425781 L 30.898438 210.660156 L 31.109375 210.910156 L 31.300781 211.179688 L 31.46875 211.46875 L 31.617188 211.773438 L 31.738281 212.097656 L 31.839844 212.4375 L 31.917969 212.796875 L 31.972656 213.175781 L 32.007812 213.570312 L 32.019531 213.984375 L 32.011719 214.265625 L 31.996094 214.542969 L 31.964844 214.816406 L 31.925781 215.082031 L 31.871094 215.339844 L 31.804688 215.597656 L 31.726562 215.84375 L 31.640625 216.089844 L 31.539062 216.324219 L 31.425781 216.558594 L 31.304688 216.777344 L 31.175781 216.988281 L 31.035156 217.1875 L 30.886719 217.378906 L 30.726562 217.558594 L 30.554688 217.730469 L 30.375 217.890625 L 30.1875 218.042969 L 29.984375 218.183594 L 29.773438 218.316406 L 29.558594 218.433594 L 29.339844 218.539062 L 29.109375 218.632812 L 28.875 218.710938 L 28.632812 218.777344 L 28.382812 218.835938 L 28.125 218.878906 L 27.859375 218.910156 L 27.589844 218.925781 L 27.3125 218.933594 L 26.832031 218.914062 L 26.363281 218.863281 L 25.914062 218.773438 L 25.476562 218.652344 L 25.054688 218.492188 L 24.648438 218.300781 L 24.257812 218.070312 L 23.882812 217.804688 L 23.519531 217.507812 L 23.175781 217.171875 L 23.96875 216.402344 L 24.109375 216.546875 L 24.253906 216.6875 L 24.398438 216.816406 L 24.542969 216.9375 L 24.691406 217.050781 L 24.84375 217.15625 L 24.996094 217.257812 L 25.148438 217.347656 L 25.304688 217.429688 L 25.464844 217.503906 L 25.625 217.570312 L 25.789062 217.628906 L 25.960938 217.683594 L 26.140625 217.726562 L 26.320312 217.765625 L 26.507812 217.796875 L 26.703125 217.824219 L 26.898438 217.839844 L 27.101562 217.851562 L 27.3125 217.855469 L 27.617188 217.84375 L 27.910156 217.8125 L 28.1875 217.761719 L 28.457031 217.691406 L 28.707031 217.597656 L 28.949219 217.484375 L 29.175781 217.347656 L 29.386719 217.191406 L 29.589844 217.015625 L 29.773438 216.820312 L 29.945312 216.601562 L 30.101562 216.367188 L 30.234375 216.121094 L 30.351562 215.855469 L 30.453125 215.578125 L 30.53125 215.285156 L 30.597656 214.976562 L 30.640625 214.652344 L 30.667969 214.3125 L 30.675781 213.960938 L 30.667969 213.617188 L 30.644531 213.292969 L 30.601562 212.984375 L 30.542969 212.695312 L 30.46875 212.425781 L 30.375 212.171875 L 30.265625 211.9375 L 30.140625 211.722656 L 30 211.523438 L 29.839844 211.34375 L 29.671875 211.175781 L 29.492188 211.027344 L 29.300781 210.894531 L 29.09375 210.78125 L 28.878906 210.683594 L 28.652344 210.605469 L 28.410156 210.542969 L 28.160156 210.5 L 27.894531 210.472656 L 27.621094 210.464844 L 27.480469 210.464844 L 27.34375 210.46875 L 27.210938 210.480469 L 27.082031 210.492188 L 26.953125 210.507812 L 26.828125 210.527344 L 26.710938 210.550781 L 26.589844 210.574219 L 26.476562 210.605469 L 26.363281 210.640625 L 26.257812 210.671875 L 26.148438 210.710938 L 26.035156 210.75 L 25.921875 210.796875 L 25.804688 210.847656 L 25.683594 210.902344 L 25.5625 210.960938 L 25.4375 211.027344 L 25.308594 211.09375 L 25.175781 211.167969 L 24.164062 211.167969 L 24.164062 204.0625 L 31.535156 204.0625 Z M 31.335938 205.117188 "/>
<path fill-rule="nonzero" fill="rgb(10.196078%, 10.196078%, 10.196078%)" fill-opacity="1" d="M 18.378906 111.410156 L 18.378906 126.039062 L 17.101562 126.039062 L 17.101562 112.816406 L 13.496094 115.0625 L 12.902344 114.117188 L 17.277344 111.410156 Z M 18.378906 111.410156 "/>
<path fill-rule="nonzero" fill="rgb(10.196078%, 10.196078%, 10.196078%)" fill-opacity="1" d="M 27.089844 111.167969 L 27.535156 111.1875 L 27.953125 111.246094 L 28.351562 111.339844 L 28.726562 111.476562 L 29.082031 111.652344 L 29.414062 111.863281 L 29.722656 112.117188 L 30.011719 112.40625 L 30.277344 112.734375 L 30.523438 113.101562 L 30.746094 113.503906 L 30.941406 113.941406 L 31.117188 114.414062 L 31.269531 114.921875 L 31.398438 115.46875 L 31.503906 116.050781 L 31.585938 116.667969 L 31.640625 117.320312 L 31.675781 118.011719 L 31.6875 118.734375 L 31.675781 119.457031 L 31.640625 120.144531 L 31.582031 120.792969 L 31.5 121.410156 L 31.390625 121.992188 L 31.261719 122.535156 L 31.105469 123.046875 L 30.929688 123.523438 L 30.726562 123.960938 L 30.5 124.367188 L 30.257812 124.730469 L 29.992188 125.054688 L 29.703125 125.34375 L 29.394531 125.59375 L 29.066406 125.804688 L 28.714844 125.976562 L 28.339844 126.109375 L 27.945312 126.203125 L 27.527344 126.261719 L 27.089844 126.28125 L 26.648438 126.261719 L 26.230469 126.203125 L 25.832031 126.109375 L 25.453125 125.976562 L 25.101562 125.804688 L 24.769531 125.59375 L 24.457031 125.34375 L 24.167969 125.054688 L 23.902344 124.730469 L 23.660156 124.367188 L 23.4375 123.960938 L 23.238281 123.523438 L 23.066406 123.046875 L 22.914062 122.535156 L 22.785156 121.984375 L 22.679688 121.402344 L 22.597656 120.785156 L 22.539062 120.128906 L 22.503906 119.4375 L 22.492188 118.714844 L 22.503906 117.988281 L 22.539062 117.296875 L 22.597656 116.644531 L 22.679688 116.027344 L 22.785156 115.445312 L 22.914062 114.902344 L 23.066406 114.390625 L 23.238281 113.917969 L 23.4375 113.480469 L 23.660156 113.082031 L 23.902344 112.71875 L 24.167969 112.390625 L 24.457031 112.105469 L 24.769531 111.855469 L 25.101562 111.644531 L 25.453125 111.472656 L 25.832031 111.339844 L 26.230469 111.242188 L 26.648438 111.1875 Z M 27.089844 112.222656 L 26.46875 112.289062 L 25.910156 112.484375 L 25.417969 112.808594 L 24.992188 113.261719 L 24.632812 113.847656 L 24.335938 114.558594 L 24.109375 115.402344 L 23.945312 116.378906 L 23.847656 117.480469 L 23.8125 118.714844 L 23.847656 119.949219 L 23.945312 121.058594 L 24.109375 122.035156 L 24.335938 122.882812 L 24.632812 123.597656 L 24.992188 124.183594 L 25.417969 124.640625 L 25.910156 124.964844 L 26.46875 125.160156 L 27.089844 125.226562 L 27.40625 125.210938 L 27.703125 125.160156 L 27.984375 125.082031 L 28.25 124.972656 L 28.5 124.828125 L 28.734375 124.65625 L 28.953125 124.449219 L 29.152344 124.210938 L 29.339844 123.941406 L 29.511719 123.640625 L 29.671875 123.308594 L 29.8125 122.9375 L 29.9375 122.535156 L 30.046875 122.097656 L 30.136719 121.621094 L 30.214844 121.113281 L 30.273438 120.570312 L 30.3125 119.996094 L 30.339844 119.382812 L 30.347656 118.734375 L 30.339844 118.089844 L 30.3125 117.476562 L 30.273438 116.898438 L 30.214844 116.355469 L 30.136719 115.847656 L 30.046875 115.375 L 29.9375 114.9375 L 29.8125 114.53125 L 29.671875 114.164062 L 29.511719 113.828125 L 29.339844 113.523438 L 29.152344 113.25 L 28.953125 113.011719 L 28.734375 112.800781 L 28.5 112.625 L 28.25 112.480469 L 27.984375 112.367188 L 27.703125 112.289062 L 27.40625 112.238281 Z M 27.089844 112.222656 "/>
<path fill-rule="nonzero" fill="rgb(10.196078%, 10.196078%, 10.196078%)" fill-opacity="1" d="M 19.765625 18.757812 L 19.765625 33.386719 L 18.488281 33.386719 L 18.488281 20.164062 L 14.882812 22.410156 L 14.289062 21.464844 L 18.664062 18.757812 Z M 19.765625 18.757812 "/>
<path fill-rule="nonzero" fill="rgb(10.196078%, 10.196078%, 10.196078%)" fill-opacity="1" d="M 31.335938 19.8125 L 25.398438 19.8125 L 25.398438 24.808594 L 25.640625 24.679688 L 25.882812 24.5625 L 26.132812 24.460938 L 26.378906 24.371094 L 26.628906 24.296875 L 26.878906 24.234375 L 27.132812 24.1875 L 27.390625 24.152344 L 27.644531 24.132812 L 27.90625 24.125 L 28.277344 24.136719 L 28.628906 24.175781 L 28.96875 24.238281 L 29.292969 24.324219 L 29.597656 24.433594 L 29.890625 24.570312 L 30.164062 24.730469 L 30.425781 24.914062 L 30.667969 25.125 L 30.898438 25.359375 L 31.109375 25.609375 L 31.300781 25.878906 L 31.46875 26.164062 L 31.617188 26.46875 L 31.738281 26.792969 L 31.839844 27.132812 L 31.917969 27.492188 L 31.972656 27.871094 L 32.007812 28.265625 L 32.019531 28.679688 L 32.011719 28.964844 L 31.996094 29.242188 L 31.964844 29.511719 L 31.925781 29.777344 L 31.871094 30.039062 L 31.804688 30.292969 L 31.726562 30.542969 L 31.640625 30.785156 L 31.539062 31.023438 L 31.425781 31.253906 L 31.304688 31.472656 L 31.175781 31.683594 L 31.035156 31.882812 L 30.886719 32.074219 L 30.726562 32.253906 L 30.554688 32.425781 L 30.375 32.585938 L 30.1875 32.738281 L 29.984375 32.882812 L 29.773438 33.015625 L 29.558594 33.132812 L 29.339844 33.234375 L 29.109375 33.328125 L 28.875 33.40625 L 28.632812 33.476562 L 28.382812 33.53125 L 28.125 33.574219 L 27.859375 33.605469 L 27.589844 33.625 L 27.3125 33.628906 L 26.832031 33.613281 L 26.363281 33.558594 L 25.914062 33.472656 L 25.476562 33.347656 L 25.054688 33.191406 L 24.648438 32.996094 L 24.257812 32.765625 L 23.882812 32.503906 L 23.519531 32.203125 L 23.175781 31.871094 L 23.96875 31.101562 L 24.109375 31.246094 L 24.253906 31.382812 L 24.398438 31.511719 L 24.542969 31.636719 L 24.691406 31.75 L 24.84375 31.855469 L 24.996094 31.953125 L 25.148438 32.042969 L 25.304688 32.125 L 25.464844 32.199219 L 25.625 32.265625 L 25.789062 32.328125 L 25.960938 32.378906 L 26.140625 32.425781 L 26.320312 32.464844 L 26.507812 32.496094 L 26.703125 32.519531 L 26.898438 32.539062 L 27.101562 32.546875 L 27.3125 32.550781 L 27.617188 32.542969 L 27.910156 32.511719 L 28.1875 32.457031 L 28.457031 32.386719 L 28.707031 32.292969 L 28.949219 32.179688 L 29.175781 32.046875 L 29.386719 31.890625 L 29.589844 31.714844 L 29.773438 31.519531 L 29.945312 31.300781 L 30.101562 31.066406 L 30.234375 30.816406 L 30.351562 30.554688 L 30.453125 30.273438 L 30.53125 29.980469 L 30.597656 29.671875 L 30.640625 29.347656 L 30.667969 29.011719 L 30.675781 28.65625 L 30.667969 28.316406 L 30.644531 27.988281 L 30.601562 27.683594 L 30.542969 27.394531 L 30.46875 27.125 L 30.375 26.871094 L 30.265625 26.636719 L 30.140625 26.417969 L 30 26.21875 L 29.839844 26.039062 L 29.671875 25.871094 L 29.492188 25.722656 L 29.300781 25.589844 L 29.09375 25.476562 L 28.878906 25.378906 L 28.652344 25.300781 L 28.410156 25.238281 L 28.160156 25.195312 L 27.894531 25.167969 L 27.621094 25.160156 L 27.480469 25.160156 L 27.34375 25.167969 L 27.210938 25.175781 L 27.082031 25.1875 L 26.953125 25.203125 L 26.828125 25.222656 L 26.710938 25.246094 L 26.589844 25.273438 L 26.476562 25.300781 L 26.363281 25.335938 L 26.257812 25.367188 L 26.148438 25.40625 L 26.035156 25.449219 L 25.921875 25.496094 L 25.804688 25.542969 L 25.5625 25.660156 L 25.4375 25.722656 L 25.308594 25.792969 L 25.175781 25.863281 L 24.164062 25.863281 L 24.164062 18.757812 L 31.535156 18.757812 Z M 31.335938 19.8125 "/>
<path fill-rule="nonzero" fill="rgb(10.196078%, 10.196078%, 10.196078%)" fill-opacity="1" d="M 124.226562 328.664062 L 124.585938 328.671875 L 124.933594 328.707031 L 125.265625 328.761719 L 125.582031 328.835938 L 125.878906 328.933594 L 126.164062 329.050781 L 126.433594 329.191406 L 126.6875 329.351562 L 126.929688 329.535156 L 127.152344 329.742188 L 127.359375 329.960938 L 127.546875 330.195312 L 127.710938 330.441406 L 127.855469 330.703125 L 127.976562 330.972656 L 128.074219 331.257812 L 128.152344 331.550781 L 128.207031 331.859375 L 128.242188 332.179688 L 128.25 332.511719 L 128.246094 332.796875 L 128.226562 333.078125 L 128.199219 333.355469 L 128.15625 333.628906 L 128.101562 333.898438 L 128.039062 334.164062 L 127.960938 334.429688 L 127.871094 334.6875 L 127.769531 334.945312 L 127.65625 335.195312 L 127.53125 335.449219 L 127.390625 335.707031 L 127.238281 335.972656 L 127.074219 336.238281 L 126.894531 336.511719 L 126.699219 336.789062 L 126.492188 337.070312 L 126.269531 337.359375 L 126.035156 337.648438 L 125.789062 337.945312 L 125.519531 338.261719 L 125.222656 338.605469 L 124.894531 338.976562 L 124.535156 339.378906 L 124.144531 339.8125 L 123.71875 340.273438 L 123.265625 340.761719 L 122.78125 341.285156 L 122.265625 341.832031 L 121.71875 342.414062 L 128.648438 342.414062 L 128.472656 343.535156 L 120.222656 343.535156 L 120.222656 342.457031 L 120.808594 341.832031 L 121.359375 341.238281 L 121.875 340.679688 L 122.359375 340.15625 L 122.804688 339.664062 L 123.21875 339.203125 L 123.601562 338.78125 L 123.945312 338.386719 L 124.257812 338.03125 L 124.535156 337.703125 L 124.789062 337.398438 L 125.03125 337.097656 L 125.253906 336.808594 L 125.460938 336.527344 L 125.65625 336.253906 L 125.832031 335.988281 L 125.992188 335.734375 L 126.136719 335.488281 L 126.269531 335.25 L 126.382812 335.019531 L 126.484375 334.789062 L 126.578125 334.558594 L 126.660156 334.320312 L 126.734375 334.082031 L 126.792969 333.839844 L 126.84375 333.59375 L 126.882812 333.34375 L 126.910156 333.09375 L 126.925781 332.835938 L 126.929688 332.578125 L 126.921875 332.324219 L 126.902344 332.082031 L 126.863281 331.847656 L 126.808594 331.625 L 126.738281 331.414062 L 126.652344 331.210938 L 126.554688 331.019531 L 126.4375 330.839844 L 126.308594 330.671875 L 126.160156 330.511719 L 126.007812 330.363281 L 125.84375 330.234375 L 125.667969 330.117188 L 125.480469 330.019531 L 125.285156 329.933594 L 125.082031 329.863281 L 124.867188 329.808594 L 124.640625 329.773438 L 124.40625 329.75 L 124.160156 329.742188 L 123.960938 329.746094 L 123.761719 329.757812 L 123.570312 329.777344 L 123.386719 329.808594 L 123.203125 329.84375 L 123.023438 329.890625 L 122.851562 329.945312 L 122.679688 330.007812 L 122.515625 330.078125 L 122.355469 330.160156 L 122.203125 330.246094 L 122.050781 330.34375 L 121.898438 330.445312 L 121.75 330.558594 L 121.601562 330.679688 L 121.453125 330.8125 L 121.308594 330.949219 L 121.164062 331.09375 L 121.023438 331.25 L 120.882812 331.414062 L 120 330.753906 L 120.179688 330.542969 L 120.359375 330.34375 L 120.542969 330.15625 L 120.726562 329.980469 L 120.914062 329.816406 L 121.105469 329.664062 L 121.296875 329.523438 L 121.492188 329.394531 L 121.691406 329.277344 L 121.894531 329.167969 L 122.101562 329.074219 L 122.316406 328.988281 L 122.539062 328.910156 L 122.761719 328.84375 L 122.992188 328.789062 L 123.230469 328.742188 L 123.46875 328.707031 L 123.714844 328.683594 L 123.96875 328.667969 Z M 124.226562 328.664062 "/>
<path fill-rule="nonzero" fill="rgb(10.196078%, 10.196078%, 10.196078%)" fill-opacity="1" d="M 135.863281 328.664062 L 136.304688 328.683594 L 136.726562 328.742188 L 137.125 328.835938 L 137.5 328.972656 L 137.855469 329.148438 L 138.1875 329.359375 L 138.496094 329.613281 L 138.785156 329.902344 L 139.050781 330.230469 L 139.296875 330.597656 L 139.515625 331 L 139.714844 331.4375 L 139.890625 331.910156 L 140.042969 332.417969 L 140.167969 332.964844 L 140.273438 333.546875 L 140.355469 334.164062 L 140.414062 334.816406 L 140.449219 335.503906 L 140.460938 336.230469 L 140.449219 336.953125 L 140.414062 337.640625 L 140.355469 338.289062 L 140.269531 338.90625 L 140.164062 339.488281 L 140.035156 340.03125 L 139.878906 340.542969 L 139.699219 341.019531 L 139.5 341.457031 L 139.273438 341.863281 L 139.027344 342.226562 L 138.765625 342.550781 L 138.476562 342.839844 L 138.167969 343.085938 L 137.835938 343.296875 L 137.484375 343.46875 L 137.113281 343.605469 L 136.71875 343.699219 L 136.300781 343.757812 L 135.863281 343.777344 L 135.421875 343.757812 L 135 343.699219 L 134.601562 343.605469 L 134.226562 343.46875 L 133.871094 343.296875 L 133.539062 343.085938 L 133.230469 342.839844 L 132.941406 342.550781 L 132.675781 342.226562 L 132.429688 341.863281 L 132.210938 341.457031 L 132.011719 341.015625 L 131.835938 340.539062 L 131.683594 340.027344 L 131.558594 339.480469 L 131.453125 338.898438 L 131.371094 338.277344 L 131.3125 337.625 L 131.277344 336.933594 L 131.265625 336.207031 L 131.277344 335.484375 L 131.3125 334.792969 L 131.371094 334.140625 L 131.453125 333.523438 L 131.558594 332.941406 L 131.683594 332.398438 L 131.835938 331.886719 L 132.011719 331.414062 L 132.210938 330.976562 L 132.429688 330.578125 L 132.675781 330.214844 L 132.941406 329.886719 L 133.230469 329.601562 L 133.539062 329.351562 L 133.871094 329.140625 L 134.226562 328.96875 L 134.601562 328.835938 L 135 328.738281 L 135.421875 328.683594 Z M 135.863281 329.71875 L 135.242188 329.785156 L 134.683594 329.976562 L 134.191406 330.304688 L 133.765625 330.757812 L 133.40625 331.339844 L 133.109375 332.054688 L 132.878906 332.898438 L 132.714844 333.871094 L 132.617188 334.976562 L 132.585938 336.207031 L 132.617188 337.445312 L 132.714844 338.554688 L 132.878906 339.53125 L 133.109375 340.375 L 133.40625 341.09375 L 133.765625 341.679688 L 134.191406 342.132812 L 134.683594 342.460938 L 135.242188 342.65625 L 135.863281 342.722656 L 136.175781 342.703125 L 136.472656 342.65625 L 136.753906 342.578125 L 137.019531 342.46875 L 137.269531 342.324219 L 137.503906 342.152344 L 137.722656 341.945312 L 137.925781 341.707031 L 138.113281 341.4375 L 138.285156 341.136719 L 138.441406 340.800781 L 138.585938 340.433594 L 138.710938 340.03125 L 138.816406 339.589844 L 138.910156 339.117188 L 138.984375 338.609375 L 139.042969 338.066406 L 139.085938 337.488281 L 139.109375 336.878906 L 139.121094 336.230469 L 139.109375 335.582031 L 139.085938 334.972656 L 139.042969 334.394531 L 138.984375 333.851562 L 138.910156 333.34375 L 138.816406 332.871094 L 138.710938 332.433594 L 138.585938 332.027344 L 138.441406 331.660156 L 138.285156 331.324219 L 138.113281 331.019531 L 137.925781 330.746094 L 137.722656 330.503906 L 137.503906 330.296875 L 137.269531 330.121094 L 137.019531 329.976562 L 136.753906 329.863281 L 136.472656 329.78125 L 136.175781 329.734375 Z M 135.863281 329.71875 "/>
<path fill-rule="nonzero" fill="rgb(10.196078%, 10.196078%, 10.196078%)" fill-opacity="1" d="M 147.964844 328.664062 L 148.40625 328.683594 L 148.824219 328.742188 L 149.222656 328.835938 L 149.601562 328.972656 L 149.953125 329.148438 L 150.285156 329.359375 L 150.597656 329.613281 L 150.886719 329.902344 L 151.152344 330.230469 L 151.394531 330.597656 L 151.617188 331 L 151.816406 331.4375 L 151.988281 331.910156 L 152.140625 332.417969 L 152.269531 332.964844 L 152.375 333.546875 L 152.457031 334.164062 L 152.515625 334.816406 L 152.550781 335.503906 L 152.5625 336.230469 L 152.550781 336.953125 L 152.515625 337.640625 L 152.453125 338.289062 L 152.371094 338.90625 L 152.265625 339.488281 L 152.132812 340.03125 L 151.980469 340.542969 L 151.800781 341.019531 L 151.597656 341.457031 L 151.375 341.863281 L 151.128906 342.226562 L 150.863281 342.550781 L 150.578125 342.839844 L 150.269531 343.085938 L 149.9375 343.296875 L 149.585938 343.46875 L 149.210938 343.605469 L 148.816406 343.699219 L 148.402344 343.757812 L 147.964844 343.777344 L 147.519531 343.757812 L 147.101562 343.699219 L 146.703125 343.605469 L 146.328125 343.46875 L 145.972656 343.296875 L 145.640625 343.085938 L 145.328125 342.839844 L 145.042969 342.550781 L 144.777344 342.226562 L 144.53125 341.863281 L 144.308594 341.457031 L 144.113281 341.015625 L 143.9375 340.539062 L 143.785156 340.027344 L 143.65625 339.480469 L 143.550781 338.898438 L 143.46875 338.277344 L 143.410156 337.625 L 143.375 336.933594 L 143.367188 336.207031 L 143.375 335.484375 L 143.410156 334.792969 L 143.46875 334.140625 L 143.550781 333.523438 L 143.65625 332.941406 L 143.785156 332.398438 L 143.9375 331.886719 L 144.113281 331.414062 L 144.308594 330.976562 L 144.53125 330.578125 L 144.777344 330.214844 L 145.042969 329.886719 L 145.328125 329.601562 L 145.640625 329.351562 L 145.972656 329.140625 L 146.328125 328.96875 L 146.703125 328.835938 L 147.101562 328.738281 L 147.519531 328.683594 Z M 147.964844 329.71875 L 147.339844 329.785156 L 146.78125 329.976562 L 146.292969 330.304688 L 145.867188 330.757812 L 145.503906 331.339844 L 145.210938 332.054688 L 144.980469 332.898438 L 144.816406 333.871094 L 144.71875 334.976562 L 144.683594 336.207031 L 144.71875 337.445312 L 144.816406 338.554688 L 144.980469 339.53125 L 145.210938 340.375 L 145.503906 341.09375 L 145.867188 341.679688 L 146.292969 342.132812 L 146.78125 342.460938 L 147.339844 342.65625 L 147.964844 342.722656 L 148.277344 342.703125 L 148.574219 342.65625 L 148.855469 342.578125 L 149.121094 342.46875 L 149.371094 342.324219 L 149.605469 342.152344 L 149.824219 341.945312 L 150.027344 341.707031 L 150.210938 341.4375 L 150.382812 341.136719 L 150.542969 340.800781 L 150.683594 340.433594 L 150.808594 340.03125 L 150.917969 339.589844 L 151.011719 339.117188 L 151.085938 338.609375 L 151.144531 338.066406 L 151.1875 337.488281 L 151.210938 336.878906 L 151.21875 336.230469 L 151.210938 335.582031 L 151.1875 334.972656 L 151.144531 334.394531 L 151.085938 333.851562 L 151.011719 333.34375 L 150.917969 332.871094 L 150.808594 332.433594 L 150.683594 332.027344 L 150.542969 331.660156 L 150.382812 331.324219 L 150.210938 331.019531 L 150.027344 330.746094 L 149.824219 330.503906 L 149.605469 330.296875 L 149.371094 330.121094 L 149.121094 329.976562 L 148.855469 329.863281 L 148.574219 329.78125 L 148.277344 329.734375 Z M 147.964844 329.71875 "/>
<path fill-rule="nonzero" fill="rgb(10.196078%, 10.196078%, 10.196078%)" fill-opacity="1" d="M 162.835938 328.90625 L 162.835938 329.894531 L 157.070312 343.710938 L 155.882812 343.316406 L 161.515625 329.984375 L 154.671875 329.984375 L 154.671875 328.90625 Z M 162.835938 328.90625 "/>
<path fill-rule="nonzero" fill="rgb(10.196078%, 10.196078%, 10.196078%)" fill-opacity="1" d="M 225.625 328.664062 L 225.988281 328.671875 L 226.332031 328.707031 L 226.664062 328.761719 L 226.980469 328.835938 L 227.28125 328.933594 L 227.566406 329.050781 L 227.835938 329.191406 L 228.089844 329.351562 L 228.328125 329.535156 L 228.550781 329.742188 L 228.757812 329.960938 L 228.945312 330.195312 L 229.113281 330.441406 L 229.253906 330.703125 L 229.375 330.972656 L 229.476562 331.257812 L 229.550781 331.550781 L 229.605469 331.859375 L 229.640625 332.179688 L 229.652344 332.511719 L 229.644531 332.796875 L 229.625 333.078125 L 229.597656 333.355469 L 229.554688 333.628906 L 229.503906 333.898438 L 229.4375 334.164062 L 229.359375 334.429688 L 229.269531 334.6875 L 229.167969 334.945312 L 229.058594 335.195312 L 228.929688 335.449219 L 228.792969 335.707031 L 228.640625 335.972656 L 228.472656 336.238281 L 228.292969 336.511719 L 228.097656 336.789062 L 227.890625 337.070312 L 227.667969 337.359375 L 227.433594 337.648438 L 227.1875 337.945312 L 226.921875 338.261719 L 226.621094 338.605469 L 226.292969 338.976562 L 225.933594 339.378906 L 225.542969 339.8125 L 225.121094 340.273438 L 224.664062 340.761719 L 224.179688 341.285156 L 223.664062 341.832031 L 223.117188 342.414062 L 230.046875 342.414062 L 229.871094 343.535156 L 221.621094 343.535156 L 221.621094 342.457031 L 222.207031 341.832031 L 222.757812 341.238281 L 223.273438 340.679688 L 223.757812 340.15625 L 224.207031 339.664062 L 224.621094 339.203125 L 225 338.78125 L 225.34375 338.386719 L 225.65625 338.03125 L 225.933594 337.703125 L 226.1875 337.398438 L 226.429688 337.097656 L 226.652344 336.808594 L 226.863281 336.527344 L 227.054688 336.253906 L 227.230469 335.988281 L 227.394531 335.734375 L 227.539062 335.488281 L 227.667969 335.25 L 227.78125 335.019531 L 227.886719 334.789062 L 227.980469 334.558594 L 228.0625 334.320312 L 228.132812 334.082031 L 228.191406 333.839844 L 228.242188 333.59375 L 228.28125 333.34375 L 228.308594 333.09375 L 228.324219 332.835938 L 228.332031 332.578125 L 228.324219 332.324219 L 228.300781 332.082031 L 228.261719 331.847656 L 228.207031 331.625 L 228.136719 331.414062 L 228.054688 331.210938 L 227.953125 331.019531 L 227.835938 330.839844 L 227.707031 330.671875 L 227.5625 330.511719 L 227.40625 330.363281 L 227.242188 330.234375 L 227.066406 330.117188 L 226.882812 330.019531 L 226.6875 329.933594 L 226.480469 329.863281 L 226.265625 329.808594 L 226.039062 329.773438 L 225.804688 329.75 L 225.558594 329.742188 L 225.359375 329.746094 L 225.164062 329.757812 L 224.972656 329.777344 L 224.785156 329.808594 L 224.601562 329.84375 L 224.421875 329.890625 L 224.25 329.945312 L 224.082031 330.007812 L 223.914062 330.078125 L 223.753906 330.160156 L 223.601562 330.246094 L 223.449219 330.34375 L 223.296875 330.445312 L 223.148438 330.558594 L 223 330.679688 L 222.855469 330.8125 L 222.710938 330.949219 L 222.566406 331.09375 L 222.421875 331.25 L 222.28125 331.414062 L 221.402344 330.753906 L 221.578125 330.542969 L 221.757812 330.34375 L 221.941406 330.15625 L 222.125 329.980469 L 222.3125 329.816406 L 222.503906 329.664062 L 222.699219 329.523438 L 222.894531 329.394531 L 223.089844 329.277344 L 223.292969 329.167969 L 223.503906 329.074219 L 223.71875 328.988281 L 223.9375 328.910156 L 224.164062 328.84375 L 224.394531 328.789062 L 224.628906 328.742188 L 224.871094 328.707031 L 225.117188 328.683594 L 225.367188 328.667969 Z M 225.625 328.664062 "/>
<path fill-rule="nonzero" fill="rgb(10.196078%, 10.196078%, 10.196078%)" fill-opacity="1" d="M 237.261719 328.664062 L 237.703125 328.683594 L 238.125 328.742188 L 238.523438 328.835938 L 238.898438 328.972656 L 239.253906 329.148438 L 239.585938 329.359375 L 239.894531 329.613281 L 240.183594 329.902344 L 240.449219 330.230469 L 240.695312 330.597656 L 240.917969 331 L 241.113281 331.4375 L 241.289062 331.910156 L 241.441406 332.417969 L 241.570312 332.964844 L 241.675781 333.546875 L 241.753906 334.164062 L 241.8125 334.816406 L 241.847656 335.503906 L 241.859375 336.230469 L 241.847656 336.953125 L 241.8125 337.640625 L 241.753906 338.289062 L 241.671875 338.90625 L 241.5625 339.488281 L 241.433594 340.03125 L 241.277344 340.542969 L 241.101562 341.019531 L 240.898438 341.457031 L 240.671875 341.863281 L 240.429688 342.226562 L 240.164062 342.550781 L 239.875 342.839844 L 239.566406 343.085938 L 239.238281 343.296875 L 238.886719 343.46875 L 238.511719 343.605469 L 238.117188 343.699219 L 237.699219 343.757812 L 237.261719 343.777344 L 236.820312 343.757812 L 236.398438 343.699219 L 236.003906 343.605469 L 235.625 343.46875 L 235.273438 343.296875 L 234.941406 343.085938 L 234.628906 342.839844 L 234.339844 342.550781 L 234.074219 342.226562 L 233.832031 341.863281 L 233.609375 341.457031 L 233.410156 341.015625 L 233.234375 340.539062 L 233.085938 340.027344 L 232.957031 339.480469 L 232.851562 338.898438 L 232.769531 338.277344 L 232.710938 337.625 L 232.675781 336.933594 L 232.664062 336.207031 L 232.675781 335.484375 L 232.710938 334.792969 L 232.769531 334.140625 L 232.851562 333.523438 L 232.957031 332.941406 L 233.085938 332.398438 L 233.234375 331.886719 L 233.410156 331.414062 L 233.609375 330.976562 L 233.832031 330.578125 L 234.074219 330.214844 L 234.339844 329.886719 L 234.628906 329.601562 L 234.941406 329.351562 L 235.273438 329.140625 L 235.625 328.96875 L 236.003906 328.835938 L 236.398438 328.738281 L 236.820312 328.683594 Z M 237.261719 329.71875 L 236.640625 329.785156 L 236.082031 329.976562 L 235.589844 330.304688 L 235.164062 330.757812 L 234.804688 331.339844 L 234.507812 332.054688 L 234.28125 332.898438 L 234.117188 333.871094 L 234.015625 334.976562 L 233.984375 336.207031 L 234.015625 337.445312 L 234.117188 338.554688 L 234.28125 339.53125 L 234.507812 340.375 L 234.804688 341.09375 L 235.164062 341.679688 L 235.589844 342.132812 L 236.082031 342.460938 L 236.640625 342.65625 L 237.261719 342.722656 L 237.574219 342.703125 L 237.875 342.65625 L 238.15625 342.578125 L 238.421875 342.46875 L 238.671875 342.324219 L 238.90625 342.152344 L 239.121094 341.945312 L 239.324219 341.707031 L 239.511719 341.4375 L 239.683594 341.136719 L 239.839844 340.800781 L 239.984375 340.433594 L 240.109375 340.03125 L 240.21875 339.589844 L 240.308594 339.117188 L 240.386719 338.609375 L 240.445312 338.066406 L 240.484375 337.488281 L 240.511719 336.878906 L 240.519531 336.230469 L 240.511719 335.582031 L 240.484375 334.972656 L 240.445312 334.394531 L 240.386719 333.851562 L 240.308594 333.34375 L 240.21875 332.871094 L 240.109375 332.433594 L 239.984375 332.027344 L 239.839844 331.660156 L 239.683594 331.324219 L 239.511719 331.019531 L 239.324219 330.746094 L 239.121094 330.503906 L 238.90625 330.296875 L 238.671875 330.121094 L 238.421875 329.976562 L 238.15625 329.863281 L 237.875 329.78125 L 237.574219 329.734375 Z M 237.261719 329.71875 "/>
<path fill-rule="nonzero" fill="rgb(10.196078%, 10.196078%, 10.196078%)" fill-opacity="1" d="M 249.738281 328.90625 L 249.738281 343.535156 L 248.460938 343.535156 L 248.460938 330.3125 L 244.851562 332.558594 L 244.257812 331.609375 L 248.636719 328.90625 Z M 249.738281 328.90625 "/>
<path fill-rule="nonzero" fill="rgb(10.196078%, 10.196078%, 10.196078%)" fill-opacity="1" d="M 258.449219 328.664062 L 258.890625 328.683594 L 259.3125 328.742188 L 259.710938 328.835938 L 260.085938 328.972656 L 260.441406 329.148438 L 260.773438 329.359375 L 261.082031 329.613281 L 261.371094 329.902344 L 261.636719 330.230469 L 261.878906 330.597656 L 262.101562 331 L 262.300781 331.4375 L 262.476562 331.910156 L 262.625 332.417969 L 262.753906 332.964844 L 262.859375 333.546875 L 262.941406 334.164062 L 263 334.816406 L 263.035156 335.503906 L 263.046875 336.230469 L 263.035156 336.953125 L 263 337.640625 L 262.941406 338.289062 L 262.855469 338.90625 L 262.75 339.488281 L 262.617188 340.03125 L 262.464844 340.542969 L 262.285156 341.019531 L 262.085938 341.457031 L 261.859375 341.863281 L 261.613281 342.226562 L 261.347656 342.550781 L 261.0625 342.839844 L 260.753906 343.085938 L 260.421875 343.296875 L 260.070312 343.46875 L 259.699219 343.605469 L 259.304688 343.699219 L 258.886719 343.757812 L 258.449219 343.777344 L 258.007812 343.757812 L 257.585938 343.699219 L 257.1875 343.605469 L 256.8125 343.46875 L 256.457031 343.296875 L 256.125 343.085938 L 255.816406 342.839844 L 255.527344 342.550781 L 255.261719 342.226562 L 255.015625 341.863281 L 254.796875 341.457031 L 254.597656 341.015625 L 254.421875 340.539062 L 254.269531 340.027344 L 254.140625 339.480469 L 254.039062 338.898438 L 253.957031 338.277344 L 253.898438 337.625 L 253.863281 336.933594 L 253.851562 336.207031 L 253.863281 335.484375 L 253.898438 334.792969 L 253.957031 334.140625 L 254.039062 333.523438 L 254.140625 332.941406 L 254.269531 332.398438 L 254.421875 331.886719 L 254.597656 331.414062 L 254.796875 330.976562 L 255.015625 330.578125 L 255.261719 330.214844 L 255.527344 329.886719 L 255.816406 329.601562 L 256.125 329.351562 L 256.457031 329.140625 L 256.8125 328.96875 L 257.1875 328.835938 L 257.585938 328.738281 L 258.007812 328.683594 Z M 258.449219 329.71875 L 257.824219 329.785156 L 257.269531 329.976562 L 256.777344 330.304688 L 256.351562 330.757812 L 255.988281 331.339844 L 255.695312 332.054688 L 255.464844 332.898438 L 255.300781 333.871094 L 255.203125 334.976562 L 255.171875 336.207031 L 255.203125 337.445312 L 255.300781 338.554688 L 255.464844 339.53125 L 255.695312 340.375 L 255.988281 341.09375 L 256.351562 341.679688 L 256.777344 342.132812 L 257.269531 342.460938 L 257.824219 342.65625 L 258.449219 342.722656 L 258.761719 342.703125 L 259.058594 342.65625 L 259.339844 342.578125 L 259.605469 342.46875 L 259.855469 342.324219 L 260.089844 342.152344 L 260.308594 341.945312 L 260.511719 341.707031 L 260.699219 341.4375 L 260.867188 341.136719 L 261.027344 340.800781 L 261.167969 340.433594 L 261.296875 340.03125 L 261.402344 339.589844 L 261.496094 339.117188 L 261.570312 338.609375 L 261.628906 338.066406 L 261.671875 337.488281 L 261.695312 336.878906 L 261.703125 336.230469 L 261.695312 335.582031 L 261.671875 334.972656 L 261.628906 334.394531 L 261.570312 333.851562 L 261.496094 333.34375 L 261.402344 332.871094 L 261.296875 332.433594 L 261.167969 332.027344 L 261.027344 331.660156 L 260.867188 331.324219 L 260.699219 331.019531 L 260.511719 330.746094 L 260.308594 330.503906 L 260.089844 330.296875 L 259.855469 330.121094 L 259.605469 329.976562 L 259.339844 329.863281 L 259.058594 329.78125 L 258.761719 329.734375 Z M 258.449219 329.71875 "/>
<path fill-rule="nonzero" fill="rgb(10.196078%, 10.196078%, 10.196078%)" fill-opacity="1" d="M 327.464844 328.664062 L 327.824219 328.671875 L 328.171875 328.707031 L 328.503906 328.761719 L 328.820312 328.835938 L 329.121094 328.933594 L 329.40625 329.050781 L 329.675781 329.191406 L 329.929688 329.351562 L 330.167969 329.535156 L 330.390625 329.742188 L 330.597656 329.960938 L 330.785156 330.195312 L 330.949219 330.441406 L 331.09375 330.703125 L 331.214844 330.972656 L 331.3125 331.257812 L 331.390625 331.550781 L 331.445312 331.859375 L 331.480469 332.179688 L 331.488281 332.511719 L 331.484375 332.796875 L 331.464844 333.078125 L 331.4375 333.355469 L 331.394531 333.628906 L 331.339844 333.898438 L 331.277344 334.164062 L 331.199219 334.429688 L 331.109375 334.6875 L 331.007812 334.945312 L 330.894531 335.195312 L 330.769531 335.449219 L 330.632812 335.707031 L 330.476562 335.972656 L 330.3125 336.238281 L 330.132812 336.511719 L 329.9375 336.789062 L 329.730469 337.070312 L 329.507812 337.359375 L 329.273438 337.648438 L 329.027344 337.945312 L 328.757812 338.261719 L 328.460938 338.605469 L 328.132812 338.976562 L 327.773438 339.378906 L 327.382812 339.8125 L 326.957031 340.273438 L 326.503906 340.761719 L 326.019531 341.285156 L 325.503906 341.832031 L 324.957031 342.414062 L 331.886719 342.414062 L 331.710938 343.535156 L 323.460938 343.535156 L 323.460938 342.457031 L 324.046875 341.832031 L 324.597656 341.238281 L 325.113281 340.679688 L 325.597656 340.15625 L 326.046875 339.664062 L 326.460938 339.203125 L 326.839844 338.78125 L 327.183594 338.386719 L 327.496094 338.03125 L 327.773438 337.703125 L 328.027344 337.398438 L 328.269531 337.097656 L 328.492188 336.808594 L 328.703125 336.527344 L 328.894531 336.253906 L 329.070312 335.988281 L 329.230469 335.734375 L 329.378906 335.488281 L 329.507812 335.25 L 329.621094 335.019531 L 329.722656 334.789062 L 329.816406 334.558594 L 329.902344 334.320312 L 329.972656 334.082031 L 330.03125 333.839844 L 330.082031 333.59375 L 330.121094 333.34375 L 330.148438 333.09375 L 330.164062 332.835938 L 330.171875 332.578125 L 330.164062 332.324219 L 330.140625 332.082031 L 330.101562 331.847656 L 330.046875 331.625 L 329.976562 331.414062 L 329.894531 331.210938 L 329.792969 331.019531 L 329.675781 330.839844 L 329.546875 330.671875 L 329.398438 330.511719 L 329.246094 330.363281 L 329.082031 330.234375 L 328.90625 330.117188 L 328.722656 330.019531 L 328.527344 329.933594 L 328.320312 329.863281 L 328.105469 329.808594 L 327.878906 329.773438 L 327.644531 329.75 L 327.398438 329.742188 L 327.199219 329.746094 L 327.003906 329.757812 L 326.8125 329.777344 L 326.625 329.808594 L 326.441406 329.84375 L 326.261719 329.890625 L 326.089844 329.945312 L 325.917969 330.007812 L 325.753906 330.078125 L 325.59375 330.160156 L 325.441406 330.246094 L 325.289062 330.34375 L 325.136719 330.445312 L 324.988281 330.558594 L 324.839844 330.679688 L 324.695312 330.8125 L 324.546875 330.949219 L 324.40625 331.09375 L 324.261719 331.25 L 324.121094 331.414062 L 323.238281 330.753906 L 323.417969 330.542969 L 323.597656 330.34375 L 323.78125 330.15625 L 323.964844 329.980469 L 324.152344 329.816406 L 324.34375 329.664062 L 324.535156 329.523438 L 324.734375 329.394531 L 324.929688 329.277344 L 325.132812 329.167969 L 325.339844 329.074219 L 325.554688 328.988281 L 325.777344 328.910156 L 326 328.84375 L 326.230469 328.789062 L 326.46875 328.742188 L 326.710938 328.707031 L 326.957031 328.683594 L 327.207031 328.667969 Z M 327.464844 328.664062 "/>
<path fill-rule="nonzero" fill="rgb(10.196078%, 10.196078%, 10.196078%)" fill-opacity="1" d="M 339.101562 328.664062 L 339.542969 328.683594 L 339.964844 328.742188 L 340.363281 328.835938 L 340.738281 328.972656 L 341.09375 329.148438 L 341.425781 329.359375 L 341.734375 329.613281 L 342.023438 329.902344 L 342.289062 330.230469 L 342.535156 330.597656 L 342.753906 331 L 342.953125 331.4375 L 343.128906 331.910156 L 343.28125 332.417969 L 343.410156 332.964844 L 343.511719 333.546875 L 343.59375 334.164062 L 343.652344 334.816406 L 343.6875 335.503906 L 343.699219 336.230469 L 343.6875 336.953125 L 343.652344 337.640625 L 343.59375 338.289062 L 343.511719 338.90625 L 343.402344 339.488281 L 343.273438 340.03125 L 343.117188 340.542969 L 342.941406 341.019531 L 342.738281 341.457031 L 342.511719 341.863281 L 342.269531 342.226562 L 342.003906 342.550781 L 341.714844 342.839844 L 341.40625 343.085938 L 341.078125 343.296875 L 340.726562 343.46875 L 340.351562 343.605469 L 339.957031 343.699219 L 339.539062 343.757812 L 339.101562 343.777344 L 338.660156 343.757812 L 338.238281 343.699219 L 337.839844 343.605469 L 337.464844 343.46875 L 337.109375 343.296875 L 336.777344 343.085938 L 336.46875 342.839844 L 336.179688 342.550781 L 335.914062 342.226562 L 335.671875 341.863281 L 335.449219 341.457031 L 335.25 341.015625 L 335.074219 340.539062 L 334.925781 340.027344 L 334.796875 339.480469 L 334.691406 338.898438 L 334.609375 338.277344 L 334.550781 337.625 L 334.515625 336.933594 L 334.503906 336.207031 L 334.515625 335.484375 L 334.550781 334.792969 L 334.609375 334.140625 L 334.691406 333.523438 L 334.796875 332.941406 L 334.925781 332.398438 L 335.074219 331.886719 L 335.25 331.414062 L 335.449219 330.976562 L 335.671875 330.578125 L 335.914062 330.214844 L 336.179688 329.886719 L 336.46875 329.601562 L 336.777344 329.351562 L 337.109375 329.140625 L 337.464844 328.96875 L 337.839844 328.835938 L 338.238281 328.738281 L 338.660156 328.683594 Z M 339.101562 329.71875 L 338.480469 329.785156 L 337.921875 329.976562 L 337.429688 330.304688 L 337.003906 330.757812 L 336.644531 331.339844 L 336.347656 332.054688 L 336.117188 332.898438 L 335.957031 333.871094 L 335.855469 334.976562 L 335.824219 336.207031 L 335.855469 337.445312 L 335.957031 338.554688 L 336.117188 339.53125 L 336.347656 340.375 L 336.644531 341.09375 L 337.003906 341.679688 L 337.429688 342.132812 L 337.921875 342.460938 L 338.480469 342.65625 L 339.101562 342.722656 L 339.414062 342.703125 L 339.710938 342.65625 L 339.996094 342.578125 L 340.261719 342.46875 L 340.511719 342.324219 L 340.746094 342.152344 L 340.960938 341.945312 L 341.164062 341.707031 L 341.351562 341.4375 L 341.523438 341.136719 L 341.679688 340.800781 L 341.824219 340.433594 L 341.949219 340.03125 L 342.058594 339.589844 L 342.148438 339.117188 L 342.222656 338.609375 L 342.28125 338.066406 L 342.324219 337.488281 L 342.351562 336.878906 L 342.359375 336.230469 L 342.351562 335.582031 L 342.324219 334.972656 L 342.28125 334.394531 L 342.222656 333.851562 L 342.148438 333.34375 L 342.058594 332.871094 L 341.949219 332.433594 L 341.824219 332.027344 L 341.679688 331.660156 L 341.523438 331.324219 L 341.351562 331.019531 L 341.164062 330.746094 L 340.960938 330.503906 L 340.746094 330.296875 L 340.511719 330.121094 L 340.261719 329.976562 L 339.996094 329.863281 L 339.710938 329.78125 L 339.414062 329.734375 Z M 339.101562 329.71875 "/>
<path fill-rule="nonzero" fill="rgb(10.196078%, 10.196078%, 10.196078%)" fill-opacity="1" d="M 351.574219 328.90625 L 351.574219 343.535156 L 350.300781 343.535156 L 350.300781 330.3125 L 346.691406 332.558594 L 346.097656 331.609375 L 350.476562 328.90625 Z M 351.574219 328.90625 "/>
<path fill-rule="nonzero" fill="rgb(10.196078%, 10.196078%, 10.196078%)" fill-opacity="1" d="M 359.101562 328.664062 L 359.34375 328.667969 L 359.578125 328.683594 L 359.808594 328.707031 L 360.03125 328.742188 L 360.25 328.785156 L 360.460938 328.835938 L 360.664062 328.898438 L 360.859375 328.972656 L 361.050781 329.054688 L 361.234375 329.148438 L 361.414062 329.246094 L 361.585938 329.355469 L 361.75 329.46875 L 361.902344 329.589844 L 362.046875 329.71875 L 362.183594 329.855469 L 362.3125 329.996094 L 362.429688 330.148438 L 362.539062 330.304688 L 362.640625 330.46875 L 362.734375 330.632812 L 362.816406 330.800781 L 362.890625 330.976562 L 362.953125 331.152344 L 363.003906 331.335938 L 363.046875 331.523438 L 363.082031 331.714844 L 363.105469 331.910156 L 363.121094 332.109375 L 363.125 332.316406 L 363.117188 332.59375 L 363.09375 332.867188 L 363.054688 333.125 L 362.996094 333.375 L 362.921875 333.613281 L 362.832031 333.839844 L 362.726562 334.058594 L 362.605469 334.265625 L 362.464844 334.460938 L 362.3125 334.648438 L 362.148438 334.816406 L 361.976562 334.972656 L 361.792969 335.117188 L 361.601562 335.246094 L 361.398438 335.363281 L 361.1875 335.464844 L 360.964844 335.554688 L 360.734375 335.632812 L 360.496094 335.695312 L 360.242188 335.746094 L 360.523438 335.769531 L 360.796875 335.808594 L 361.054688 335.867188 L 361.308594 335.945312 L 361.546875 336.039062 L 361.777344 336.152344 L 362 336.28125 L 362.207031 336.429688 L 362.410156 336.597656 L 362.597656 336.78125 L 362.777344 336.976562 L 362.9375 337.1875 L 363.082031 337.414062 L 363.203125 337.652344 L 363.308594 337.910156 L 363.394531 338.175781 L 363.457031 338.460938 L 363.507812 338.757812 L 363.535156 339.070312 L 363.542969 339.398438 L 363.539062 339.652344 L 363.519531 339.898438 L 363.492188 340.140625 L 363.453125 340.375 L 363.402344 340.601562 L 363.339844 340.828125 L 363.265625 341.046875 L 363.179688 341.257812 L 363.082031 341.464844 L 362.972656 341.664062 L 362.851562 341.859375 L 362.722656 342.042969 L 362.582031 342.222656 L 362.433594 342.390625 L 362.273438 342.550781 L 362.101562 342.703125 L 361.921875 342.847656 L 361.734375 342.980469 L 361.53125 343.109375 L 361.320312 343.226562 L 361.109375 343.332031 L 360.886719 343.425781 L 360.660156 343.507812 L 360.425781 343.578125 L 360.183594 343.640625 L 359.9375 343.6875 L 359.683594 343.726562 L 359.421875 343.753906 L 359.152344 343.769531 L 358.878906 343.777344 L 358.378906 343.757812 L 357.894531 343.699219 L 357.429688 343.605469 L 356.984375 343.472656 L 356.554688 343.304688 L 356.140625 343.097656 L 355.75 342.851562 L 355.375 342.566406 L 355.015625 342.246094 L 354.679688 341.886719 L 355.492188 341.160156 L 355.640625 341.316406 L 355.792969 341.46875 L 355.945312 341.609375 L 356.097656 341.738281 L 356.25 341.863281 L 356.40625 341.976562 L 356.5625 342.082031 L 356.71875 342.179688 L 356.875 342.269531 L 357.03125 342.347656 L 357.195312 342.414062 L 357.363281 342.472656 L 357.535156 342.527344 L 357.710938 342.570312 L 357.890625 342.609375 L 358.070312 342.640625 L 358.257812 342.667969 L 358.445312 342.683594 L 358.640625 342.695312 L 358.835938 342.699219 L 359.144531 342.691406 L 359.441406 342.664062 L 359.726562 342.617188 L 359.996094 342.554688 L 360.25 342.472656 L 360.492188 342.375 L 360.71875 342.257812 L 360.933594 342.121094 L 361.136719 341.96875 L 361.320312 341.796875 L 361.492188 341.609375 L 361.648438 341.414062 L 361.78125 341.203125 L 361.898438 340.984375 L 362 340.75 L 362.078125 340.507812 L 362.144531 340.253906 L 362.1875 339.988281 L 362.214844 339.710938 L 362.222656 339.421875 L 362.191406 338.835938 L 362.09375 338.3125 L 361.925781 337.851562 L 361.695312 337.449219 L 361.398438 337.109375 L 361.035156 336.832031 L 360.605469 336.617188 L 360.113281 336.464844 L 359.550781 336.371094 L 358.925781 336.339844 L 357.957031 336.339844 L 358.132812 335.308594 L 358.835938 335.308594 L 359.082031 335.300781 L 359.324219 335.277344 L 359.554688 335.238281 L 359.78125 335.1875 L 359.996094 335.121094 L 360.207031 335.039062 L 360.410156 334.941406 L 360.601562 334.828125 L 360.789062 334.699219 L 360.96875 334.558594 L 361.136719 334.398438 L 361.285156 334.226562 L 361.417969 334.039062 L 361.535156 333.839844 L 361.628906 333.628906 L 361.710938 333.40625 L 361.769531 333.167969 L 361.816406 332.917969 L 361.839844 332.65625 L 361.851562 332.378906 L 361.84375 332.144531 L 361.820312 331.917969 L 361.78125 331.699219 L 361.726562 331.492188 L 361.65625 331.296875 L 361.574219 331.109375 L 361.472656 330.933594 L 361.355469 330.769531 L 361.226562 330.613281 L 361.078125 330.46875 L 360.921875 330.328125 L 360.75 330.207031 L 360.574219 330.097656 L 360.382812 330.003906 L 360.183594 329.921875 L 359.972656 329.855469 L 359.753906 329.804688 L 359.523438 329.769531 L 359.285156 329.75 L 359.035156 329.742188 L 358.851562 329.742188 L 358.671875 329.753906 L 358.492188 329.769531 L 358.320312 329.792969 L 358.148438 329.824219 L 357.980469 329.859375 L 357.816406 329.902344 L 357.652344 329.953125 L 357.496094 330.007812 L 357.339844 330.070312 L 357.1875 330.136719 L 357.03125 330.210938 L 356.875 330.292969 L 356.71875 330.382812 L 356.566406 330.484375 L 356.40625 330.589844 L 356.25 330.707031 L 356.09375 330.832031 L 355.9375 330.964844 L 355.777344 331.105469 L 355.097656 330.3125 L 355.273438 330.148438 L 355.453125 329.996094 L 355.632812 329.851562 L 355.8125 329.714844 L 356 329.585938 L 356.183594 329.46875 L 356.371094 329.359375 L 356.558594 329.257812 L 356.75 329.164062 L 357.140625 329 L 357.339844 328.929688 L 357.542969 328.867188 L 357.753906 328.8125 L 357.96875 328.765625 L 358.183594 328.730469 L 358.40625 328.699219 L 358.632812 328.679688 L 358.863281 328.667969 Z M 359.101562 328.664062 "/>
<path fill-rule="nonzero" fill="rgb(10.196078%, 10.196078%, 10.196078%)" fill-opacity="1" d="M 428.089844 328.664062 L 428.449219 328.671875 L 428.796875 328.707031 L 429.128906 328.761719 L 429.445312 328.835938 L 429.746094 328.933594 L 430.03125 329.050781 L 430.300781 329.191406 L 430.554688 329.351562 L 430.792969 329.535156 L 431.015625 329.742188 L 431.222656 329.960938 L 431.410156 330.195312 L 431.578125 330.441406 L 431.71875 330.703125 L 431.839844 330.972656 L 431.9375 331.257812 L 432.015625 331.550781 L 432.070312 331.859375 L 432.105469 332.179688 L 432.113281 332.511719 L 432.109375 332.796875 L 432.089844 333.078125 L 432.0625 333.355469 L 432.019531 333.628906 L 431.964844 333.898438 L 431.902344 334.164062 L 431.824219 334.429688 L 431.734375 334.6875 L 431.632812 334.945312 L 431.519531 335.195312 L 431.394531 335.449219 L 431.257812 335.707031 L 431.101562 335.972656 L 430.9375 336.238281 L 430.757812 336.511719 L 430.5625 336.789062 L 430.355469 337.070312 L 430.132812 337.359375 L 429.898438 337.648438 L 429.652344 337.945312 L 429.386719 338.261719 L 429.085938 338.605469 L 428.757812 338.976562 L 428.398438 339.378906 L 428.007812 339.8125 L 427.585938 340.273438 L 427.128906 340.761719 L 426.644531 341.285156 L 426.128906 341.832031 L 425.582031 342.414062 L 432.511719 342.414062 L 432.335938 343.535156 L 424.085938 343.535156 L 424.085938 342.457031 L 424.671875 341.832031 L 425.222656 341.238281 L 425.738281 340.679688 L 426.222656 340.15625 L 426.671875 339.664062 L 427.085938 339.203125 L 427.464844 338.78125 L 427.808594 338.386719 L 428.121094 338.03125 L 428.398438 337.703125 L 428.652344 337.398438 L 428.894531 337.097656 L 429.117188 336.808594 L 429.328125 336.527344 L 429.519531 336.253906 L 429.695312 335.988281 L 429.855469 335.734375 L 430.003906 335.488281 L 430.132812 335.25 L 430.246094 335.019531 L 430.351562 334.789062 L 430.441406 334.558594 L 430.527344 334.320312 L 430.597656 334.082031 L 430.65625 333.839844 L 430.707031 333.59375 L 430.746094 333.34375 L 430.773438 333.09375 L 430.789062 332.835938 L 430.796875 332.578125 L 430.789062 332.324219 L 430.765625 332.082031 L 430.726562 331.847656 L 430.671875 331.625 L 430.601562 331.414062 L 430.519531 331.210938 L 430.417969 331.019531 L 430.300781 330.839844 L 430.171875 330.671875 L 430.023438 330.511719 L 429.871094 330.363281 L 429.707031 330.234375 L 429.53125 330.117188 L 429.347656 330.019531 L 429.152344 329.933594 L 428.945312 329.863281 L 428.730469 329.808594 L 428.503906 329.773438 L 428.269531 329.75 L 428.023438 329.742188 L 427.824219 329.746094 L 427.628906 329.757812 L 427.4375 329.777344 L 427.25 329.808594 L 427.066406 329.84375 L 426.886719 329.890625 L 426.714844 329.945312 L 426.542969 330.007812 L 426.378906 330.078125 L 426.21875 330.160156 L 426.066406 330.246094 L 425.914062 330.34375 L 425.761719 330.445312 L 425.613281 330.558594 L 425.464844 330.679688 L 425.320312 330.8125 L 425.171875 330.949219 L 425.03125 331.09375 L 424.886719 331.25 L 424.746094 331.414062 L 423.863281 330.753906 L 424.042969 330.542969 L 424.222656 330.34375 L 424.40625 330.15625 L 424.589844 329.980469 L 424.777344 329.816406 L 424.96875 329.664062 L 425.160156 329.523438 L 425.359375 329.394531 L 425.554688 329.277344 L 425.757812 329.167969 L 425.964844 329.074219 L 426.179688 328.988281 L 426.402344 328.910156 L 426.625 328.84375 L 426.855469 328.789062 L 427.09375 328.742188 L 427.335938 328.707031 L 427.582031 328.683594 L 427.832031 328.667969 Z M 428.089844 328.664062 "/>
<path fill-rule="nonzero" fill="rgb(10.196078%, 10.196078%, 10.196078%)" fill-opacity="1" d="M 439.726562 328.664062 L 440.167969 328.683594 L 440.589844 328.742188 L 440.988281 328.835938 L 441.363281 328.972656 L 441.71875 329.148438 L 442.050781 329.359375 L 442.359375 329.613281 L 442.648438 329.902344 L 442.914062 330.230469 L 443.160156 330.597656 L 443.378906 331 L 443.578125 331.4375 L 443.753906 331.910156 L 443.90625 332.417969 L 444.035156 332.964844 L 444.136719 333.546875 L 444.21875 334.164062 L 444.277344 334.816406 L 444.3125 335.503906 L 444.324219 336.230469 L 444.3125 336.953125 L 444.277344 337.640625 L 444.21875 338.289062 L 444.136719 338.90625 L 444.027344 339.488281 L 443.898438 340.03125 L 443.742188 340.542969 L 443.566406 341.019531 L 443.363281 341.457031 L 443.136719 341.863281 L 442.894531 342.226562 L 442.628906 342.550781 L 442.339844 342.839844 L 442.03125 343.085938 L 441.703125 343.296875 L 441.351562 343.46875 L 440.976562 343.605469 L 440.582031 343.699219 L 440.164062 343.757812 L 439.726562 343.777344 L 439.285156 343.757812 L 438.863281 343.699219 L 438.464844 343.605469 L 438.089844 343.46875 L 437.734375 343.296875 L 437.402344 343.085938 L 437.09375 342.839844 L 436.804688 342.550781 L 436.539062 342.226562 L 436.296875 341.863281 L 436.074219 341.457031 L 435.875 341.015625 L 435.699219 340.539062 L 435.550781 340.027344 L 435.421875 339.480469 L 435.316406 338.898438 L 435.234375 338.277344 L 435.175781 337.625 L 435.140625 336.933594 L 435.128906 336.207031 L 435.140625 335.484375 L 435.175781 334.792969 L 435.234375 334.140625 L 435.316406 333.523438 L 435.421875 332.941406 L 435.550781 332.398438 L 435.699219 331.886719 L 435.875 331.414062 L 436.074219 330.976562 L 436.296875 330.578125 L 436.539062 330.214844 L 436.804688 329.886719 L 437.09375 329.601562 L 437.402344 329.351562 L 437.734375 329.140625 L 438.089844 328.96875 L 438.464844 328.835938 L 438.863281 328.738281 L 439.285156 328.683594 Z M 439.726562 329.71875 L 439.105469 329.785156 L 438.546875 329.976562 L 438.054688 330.304688 L 437.628906 330.757812 L 437.269531 331.339844 L 436.972656 332.054688 L 436.746094 332.898438 L 436.582031 333.871094 L 436.480469 334.976562 L 436.449219 336.207031 L 436.480469 337.445312 L 436.582031 338.554688 L 436.746094 339.53125 L 436.972656 340.375 L 437.269531 341.09375 L 437.628906 341.679688 L 438.054688 342.132812 L 438.546875 342.460938 L 439.105469 342.65625 L 439.726562 342.722656 L 440.039062 342.703125 L 440.339844 342.65625 L 440.621094 342.578125 L 440.886719 342.46875 L 441.136719 342.324219 L 441.371094 342.152344 L 441.585938 341.945312 L 441.789062 341.707031 L 441.976562 341.4375 L 442.148438 341.136719 L 442.304688 340.800781 L 442.449219 340.433594 L 442.574219 340.03125 L 442.683594 339.589844 L 442.773438 339.117188 L 442.847656 338.609375 L 442.90625 338.066406 L 442.949219 337.488281 L 442.976562 336.878906 L 442.984375 336.230469 L 442.976562 335.582031 L 442.949219 334.972656 L 442.90625 334.394531 L 442.847656 333.851562 L 442.773438 333.34375 L 442.683594 332.871094 L 442.574219 332.433594 L 442.449219 332.027344 L 442.304688 331.660156 L 442.148438 331.324219 L 441.976562 331.019531 L 441.789062 330.746094 L 441.585938 330.503906 L 441.371094 330.296875 L 441.136719 330.121094 L 440.886719 329.976562 L 440.621094 329.863281 L 440.339844 329.78125 L 440.039062 329.734375 Z M 439.726562 329.71875 "/>
<path fill-rule="nonzero" fill="rgb(10.196078%, 10.196078%, 10.196078%)" fill-opacity="1" d="M 452.203125 328.90625 L 452.203125 343.535156 L 450.925781 343.535156 L 450.925781 330.3125 L 447.316406 332.558594 L 446.722656 331.609375 L 451.101562 328.90625 Z M 452.203125 328.90625 "/>
<path fill-rule="nonzero" fill="rgb(10.196078%, 10.196078%, 10.196078%)" fill-opacity="1" d="M 461.375 334.007812 L 461.707031 334.019531 L 462.027344 334.054688 L 462.339844 334.117188 L 462.636719 334.199219 L 462.921875 334.304688 L 463.195312 334.4375 L 463.457031 334.589844 L 463.707031 334.769531 L 463.941406 334.972656 L 464.167969 335.195312 L 464.378906 335.441406 L 464.566406 335.707031 L 464.730469 335.992188 L 464.875 336.300781 L 464.996094 336.632812 L 465.09375 336.984375 L 465.171875 337.359375 L 465.226562 337.753906 L 465.257812 338.167969 L 465.269531 338.605469 L 465.261719 338.914062 L 465.246094 339.214844 L 465.21875 339.511719 L 465.175781 339.796875 L 465.125 340.074219 L 465.0625 340.347656 L 464.988281 340.609375 L 464.902344 340.867188 L 464.804688 341.117188 L 464.695312 341.355469 L 464.582031 341.585938 L 464.460938 341.800781 L 464.328125 342.007812 L 464.1875 342.207031 L 464.039062 342.390625 L 463.878906 342.566406 L 463.710938 342.730469 L 463.535156 342.882812 L 463.351562 343.027344 L 463.15625 343.160156 L 462.960938 343.277344 L 462.757812 343.382812 L 462.550781 343.476562 L 462.339844 343.554688 L 462.125 343.621094 L 461.902344 343.679688 L 461.671875 343.722656 L 461.4375 343.753906 L 461.199219 343.769531 L 460.957031 343.777344 L 460.484375 343.757812 L 460.042969 343.703125 L 459.621094 343.609375 L 459.230469 343.480469 L 458.863281 343.316406 L 458.519531 343.113281 L 458.207031 342.871094 L 457.914062 342.59375 L 457.652344 342.28125 L 457.414062 341.929688 L 457.207031 341.542969 L 457.019531 341.128906 L 456.855469 340.695312 L 456.710938 340.230469 L 456.589844 339.746094 L 456.492188 339.234375 L 456.414062 338.695312 L 456.359375 338.132812 L 456.328125 337.546875 L 456.316406 336.933594 L 456.320312 336.433594 L 456.339844 335.949219 L 456.371094 335.476562 L 456.417969 335.015625 L 456.476562 334.570312 L 456.542969 334.136719 L 456.628906 333.714844 L 456.722656 333.308594 L 456.832031 332.914062 L 456.953125 332.535156 L 457.085938 332.167969 L 457.230469 331.820312 L 457.386719 331.492188 L 457.550781 331.179688 L 457.730469 330.886719 L 457.917969 330.609375 L 458.117188 330.347656 L 458.324219 330.105469 L 458.546875 329.882812 L 458.777344 329.675781 L 459.019531 329.484375 L 459.273438 329.308594 L 459.53125 329.160156 L 459.800781 329.027344 L 460.078125 328.914062 L 460.363281 328.824219 L 460.65625 328.753906 L 460.960938 328.703125 L 461.273438 328.671875 L 461.59375 328.664062 L 461.886719 328.671875 L 462.175781 328.695312 L 462.460938 328.738281 L 462.738281 328.800781 L 463.015625 328.878906 L 463.285156 328.972656 L 463.550781 329.082031 L 463.8125 329.210938 L 464.070312 329.359375 L 464.324219 329.519531 L 463.773438 330.402344 L 463.5625 330.269531 L 463.347656 330.15625 L 463.132812 330.054688 L 462.914062 329.964844 L 462.695312 329.890625 L 462.472656 329.828125 L 462.25 329.78125 L 462.027344 329.746094 L 461.800781 329.726562 L 461.574219 329.71875 L 461.222656 329.738281 L 460.890625 329.789062 L 460.570312 329.878906 L 460.265625 330.003906 L 459.972656 330.164062 L 459.695312 330.359375 L 459.433594 330.59375 L 459.1875 330.859375 L 458.953125 331.164062 L 458.734375 331.5 L 458.535156 331.867188 L 458.351562 332.257812 L 458.191406 332.667969 L 458.046875 333.101562 L 457.925781 333.558594 L 457.824219 334.035156 L 457.742188 334.535156 L 457.679688 335.054688 L 457.636719 335.597656 L 457.613281 336.164062 L 457.917969 335.753906 L 458.234375 335.390625 L 458.570312 335.066406 L 458.921875 334.785156 L 459.289062 334.546875 L 459.675781 334.355469 L 460.074219 334.203125 L 460.492188 334.09375 L 460.925781 334.03125 Z M 460.957031 342.722656 L 461.242188 342.710938 L 461.511719 342.675781 L 461.765625 342.621094 L 462.007812 342.542969 L 462.238281 342.445312 L 462.453125 342.324219 L 462.65625 342.183594 L 462.84375 342.015625 L 463.019531 341.828125 L 463.179688 341.621094 L 463.328125 341.390625 L 463.464844 341.144531 L 463.582031 340.882812 L 463.6875 340.605469 L 463.773438 340.316406 L 463.84375 340.011719 L 463.898438 339.695312 L 463.941406 339.359375 L 463.964844 339.011719 L 463.972656 338.652344 L 463.964844 338.296875 L 463.941406 337.957031 L 463.902344 337.640625 L 463.847656 337.339844 L 463.777344 337.0625 L 463.695312 336.800781 L 463.59375 336.558594 L 463.476562 336.335938 L 463.347656 336.128906 L 463.203125 335.945312 L 463.046875 335.777344 L 462.882812 335.628906 L 462.707031 335.496094 L 462.523438 335.382812 L 462.328125 335.285156 L 462.121094 335.207031 L 461.90625 335.144531 L 461.679688 335.101562 L 461.445312 335.074219 L 461.199219 335.066406 L 460.980469 335.070312 L 460.765625 335.089844 L 460.554688 335.125 L 460.347656 335.171875 L 460.144531 335.230469 L 459.941406 335.300781 L 459.746094 335.386719 L 459.550781 335.488281 L 459.363281 335.597656 L 459.175781 335.726562 L 458.996094 335.855469 L 458.824219 336 L 458.65625 336.152344 L 458.492188 336.3125 L 458.332031 336.484375 L 458.179688 336.664062 L 458.03125 336.855469 L 457.886719 337.054688 L 457.746094 337.265625 L 457.613281 337.484375 L 457.632812 337.984375 L 457.667969 338.457031 L 457.71875 338.90625 L 457.78125 339.332031 L 457.859375 339.734375 L 457.953125 340.113281 L 458.0625 340.464844 L 458.183594 340.792969 L 458.320312 341.097656 L 458.472656 341.378906 L 458.636719 341.632812 L 458.824219 341.863281 L 459.027344 342.0625 L 459.25 342.238281 L 459.488281 342.386719 L 459.746094 342.507812 L 460.023438 342.601562 L 460.316406 342.667969 L 460.628906 342.707031 Z M 460.957031 342.722656 "/>
<path fill-rule="nonzero" fill="rgb(10.196078%, 10.196078%, 10.196078%)" fill-opacity="1" d="M 529.289062 328.664062 L 529.652344 328.671875 L 530 328.707031 L 530.332031 328.761719 L 530.644531 328.835938 L 530.945312 328.933594 L 531.230469 329.050781 L 531.5 329.191406 L 531.753906 329.351562 L 531.992188 329.535156 L 532.214844 329.742188 L 532.425781 329.960938 L 532.613281 330.195312 L 532.777344 330.441406 L 532.921875 330.703125 L 533.042969 330.972656 L 533.140625 331.257812 L 533.21875 331.550781 L 533.273438 331.859375 L 533.304688 332.179688 L 533.316406 332.511719 L 533.3125 332.796875 L 533.292969 333.078125 L 533.261719 333.355469 L 533.222656 333.628906 L 533.167969 333.898438 L 533.101562 334.164062 L 533.027344 334.429688 L 532.9375 334.6875 L 532.835938 334.945312 L 532.722656 335.195312 L 532.597656 335.449219 L 532.457031 335.707031 L 532.304688 335.972656 L 532.136719 336.238281 L 531.957031 336.511719 L 531.765625 336.789062 L 531.558594 337.070312 L 531.335938 337.359375 L 531.101562 337.648438 L 530.851562 337.945312 L 530.585938 338.261719 L 530.289062 338.605469 L 529.960938 338.976562 L 529.597656 339.378906 L 529.207031 339.8125 L 528.785156 340.273438 L 528.332031 340.761719 L 527.847656 341.285156 L 527.332031 341.832031 L 526.78125 342.414062 L 533.710938 342.414062 L 533.535156 343.535156 L 525.285156 343.535156 L 525.285156 342.457031 L 525.871094 341.832031 L 526.421875 341.238281 L 526.941406 340.679688 L 527.421875 340.15625 L 527.871094 339.664062 L 528.285156 339.203125 L 528.664062 338.78125 L 529.011719 338.386719 L 529.320312 338.03125 L 529.597656 337.703125 L 529.855469 337.398438 L 530.09375 337.097656 L 530.320312 336.808594 L 530.527344 336.527344 L 530.71875 336.253906 L 530.898438 335.988281 L 531.058594 335.734375 L 531.203125 335.488281 L 531.332031 335.25 L 531.445312 335.019531 L 531.550781 334.789062 L 531.644531 334.558594 L 531.726562 334.320312 L 531.796875 334.082031 L 531.859375 333.839844 L 531.910156 333.59375 L 531.945312 333.34375 L 531.972656 333.09375 L 531.992188 332.835938 L 531.996094 332.578125 L 531.988281 332.324219 L 531.964844 332.082031 L 531.925781 331.847656 L 531.875 331.625 L 531.804688 331.414062 L 531.71875 331.210938 L 531.621094 331.019531 L 531.503906 330.839844 L 531.371094 330.671875 L 531.226562 330.511719 L 531.070312 330.363281 L 530.90625 330.234375 L 530.730469 330.117188 L 530.546875 330.019531 L 530.351562 329.933594 L 530.148438 329.863281 L 529.929688 329.808594 L 529.707031 329.773438 L 529.46875 329.75 L 529.222656 329.742188 L 529.023438 329.746094 L 528.828125 329.757812 L 528.636719 329.777344 L 528.449219 329.808594 L 528.269531 329.84375 L 528.089844 329.890625 L 527.914062 329.945312 L 527.746094 330.007812 L 527.582031 330.078125 L 527.421875 330.160156 L 527.265625 330.246094 L 527.117188 330.34375 L 526.964844 330.445312 L 526.816406 330.558594 L 526.667969 330.679688 L 526.519531 330.8125 L 526.375 330.949219 L 526.230469 331.09375 L 526.089844 331.25 L 525.945312 331.414062 L 525.066406 330.753906 L 525.242188 330.542969 L 525.425781 330.34375 L 525.605469 330.15625 L 525.792969 329.980469 L 525.980469 329.816406 L 526.171875 329.664062 L 526.363281 329.523438 L 526.558594 329.394531 L 526.757812 329.277344 L 526.957031 329.167969 L 527.167969 329.074219 L 527.382812 328.988281 L 527.601562 328.910156 L 527.828125 328.84375 L 528.058594 328.789062 L 528.292969 328.742188 L 528.535156 328.707031 L 528.78125 328.683594 L 529.035156 328.667969 Z M 529.289062 328.664062 "/>
<path fill-rule="nonzero" fill="rgb(10.196078%, 10.196078%, 10.196078%)" fill-opacity="1" d="M 540.929688 328.664062 L 541.371094 328.683594 L 541.789062 328.742188 L 542.1875 328.835938 L 542.566406 328.972656 L 542.917969 329.148438 L 543.25 329.359375 L 543.5625 329.613281 L 543.851562 329.902344 L 544.117188 330.230469 L 544.359375 330.597656 L 544.582031 331 L 544.78125 331.4375 L 544.957031 331.910156 L 545.105469 332.417969 L 545.234375 332.964844 L 545.339844 333.546875 L 545.421875 334.164062 L 545.480469 334.816406 L 545.515625 335.503906 L 545.527344 336.230469 L 545.515625 336.953125 L 545.480469 337.640625 L 545.417969 338.289062 L 545.335938 338.90625 L 545.230469 339.488281 L 545.097656 340.03125 L 544.945312 340.542969 L 544.765625 341.019531 L 544.5625 341.457031 L 544.339844 341.863281 L 544.09375 342.226562 L 543.828125 342.550781 L 543.542969 342.839844 L 543.234375 343.085938 L 542.902344 343.296875 L 542.550781 343.46875 L 542.179688 343.605469 L 541.78125 343.699219 L 541.367188 343.757812 L 540.929688 343.777344 L 540.488281 343.757812 L 540.066406 343.699219 L 539.667969 343.605469 L 539.292969 343.46875 L 538.9375 343.296875 L 538.605469 343.085938 L 538.296875 342.839844 L 538.007812 342.550781 L 537.742188 342.226562 L 537.496094 341.863281 L 537.273438 341.457031 L 537.078125 341.015625 L 536.902344 340.539062 L 536.75 340.027344 L 536.621094 339.480469 L 536.515625 338.898438 L 536.433594 338.277344 L 536.378906 337.625 L 536.34375 336.933594 L 536.332031 336.207031 L 536.34375 335.484375 L 536.378906 334.792969 L 536.433594 334.140625 L 536.515625 333.523438 L 536.621094 332.941406 L 536.75 332.398438 L 536.902344 331.886719 L 537.078125 331.414062 L 537.273438 330.976562 L 537.496094 330.578125 L 537.742188 330.214844 L 538.007812 329.886719 L 538.296875 329.601562 L 538.605469 329.351562 L 538.9375 329.140625 L 539.292969 328.96875 L 539.667969 328.835938 L 540.066406 328.738281 L 540.488281 328.683594 Z M 540.929688 329.71875 L 540.304688 329.785156 L 539.75 329.976562 L 539.257812 330.304688 L 538.832031 330.757812 L 538.46875 331.339844 L 538.175781 332.054688 L 537.945312 332.898438 L 537.78125 333.871094 L 537.683594 334.976562 L 537.652344 336.207031 L 537.683594 337.445312 L 537.78125 338.554688 L 537.945312 339.53125 L 538.175781 340.375 L 538.46875 341.09375 L 538.832031 341.679688 L 539.257812 342.132812 L 539.75 342.460938 L 540.304688 342.65625 L 540.929688 342.722656 L 541.242188 342.703125 L 541.539062 342.65625 L 541.820312 342.578125 L 542.085938 342.46875 L 542.335938 342.324219 L 542.570312 342.152344 L 542.789062 341.945312 L 542.992188 341.707031 L 543.179688 341.4375 L 543.347656 341.136719 L 543.507812 340.800781 L 543.648438 340.433594 L 543.773438 340.03125 L 543.882812 339.589844 L 543.976562 339.117188 L 544.050781 338.609375 L 544.109375 338.066406 L 544.152344 337.488281 L 544.175781 336.878906 L 544.183594 336.230469 L 544.175781 335.582031 L 544.152344 334.972656 L 544.109375 334.394531 L 544.050781 333.851562 L 543.976562 333.34375 L 543.882812 332.871094 L 543.773438 332.433594 L 543.648438 332.027344 L 543.507812 331.660156 L 543.347656 331.324219 L 543.179688 331.019531 L 542.992188 330.746094 L 542.789062 330.503906 L 542.570312 330.296875 L 542.335938 330.121094 L 542.085938 329.976562 L 541.820312 329.863281 L 541.539062 329.78125 L 541.242188 329.734375 Z M 540.929688 329.71875 "/>
<path fill-rule="nonzero" fill="rgb(10.196078%, 10.196078%, 10.196078%)" fill-opacity="1" d="M 553.402344 328.90625 L 553.402344 343.535156 L 552.125 343.535156 L 552.125 330.3125 L 548.519531 332.558594 L 547.925781 331.609375 L 552.300781 328.90625 Z M 553.402344 328.90625 "/>
<path fill-rule="nonzero" fill="rgb(10.196078%, 10.196078%, 10.196078%)" fill-opacity="1" d="M 561.675781 328.664062 L 562.109375 328.679688 L 562.519531 328.726562 L 562.90625 328.804688 L 563.273438 328.914062 L 563.617188 329.054688 L 563.9375 329.226562 L 564.234375 329.429688 L 564.511719 329.664062 L 564.765625 329.929688 L 564.996094 330.226562 L 565.210938 330.546875 L 565.402344 330.890625 L 565.570312 331.261719 L 565.714844 331.65625 L 565.839844 332.078125 L 565.9375 332.523438 L 566.019531 332.996094 L 566.074219 333.492188 L 566.105469 334.011719 L 566.117188 334.558594 L 566.109375 335.117188 L 566.085938 335.652344 L 566.046875 336.167969 L 565.988281 336.664062 L 565.914062 337.136719 L 565.824219 337.59375 L 565.71875 338.023438 L 565.597656 338.4375 L 565.460938 338.828125 L 565.304688 339.199219 L 565.132812 339.554688 L 564.949219 339.894531 L 564.746094 340.21875 L 564.53125 340.527344 L 564.296875 340.824219 L 564.050781 341.105469 L 563.789062 341.371094 L 563.507812 341.621094 L 563.214844 341.859375 L 562.90625 342.082031 L 562.585938 342.296875 L 562.242188 342.503906 L 561.878906 342.703125 L 561.496094 342.898438 L 561.089844 343.089844 L 560.667969 343.273438 L 560.222656 343.453125 L 559.757812 343.625 L 559.273438 343.792969 L 558.769531 343.953125 L 558.441406 342.960938 L 559.035156 342.769531 L 559.597656 342.566406 L 560.132812 342.347656 L 560.636719 342.113281 L 561.113281 341.867188 L 561.5625 341.609375 L 561.980469 341.335938 L 562.367188 341.046875 L 562.730469 340.746094 L 563.0625 340.433594 L 563.367188 340.101562 L 563.644531 339.742188 L 563.894531 339.363281 L 564.113281 338.957031 L 564.304688 338.53125 L 564.464844 338.078125 L 564.597656 337.601562 L 564.699219 337.101562 L 564.773438 336.578125 L 564.820312 336.03125 L 564.6875 336.222656 L 564.546875 336.402344 L 564.402344 336.574219 L 564.25 336.742188 L 564.09375 336.894531 L 563.933594 337.042969 L 563.765625 337.183594 L 563.59375 337.3125 L 563.417969 337.4375 L 563.238281 337.550781 L 563.050781 337.652344 L 562.859375 337.742188 L 562.667969 337.820312 L 562.46875 337.890625 L 562.269531 337.945312 L 562.0625 337.996094 L 561.855469 338.03125 L 561.644531 338.058594 L 561.429688 338.074219 L 561.210938 338.078125 L 560.984375 338.074219 L 560.765625 338.058594 L 560.546875 338.03125 L 560.335938 337.992188 L 560.128906 337.941406 L 559.925781 337.878906 L 559.730469 337.808594 L 559.535156 337.726562 L 559.347656 337.632812 L 559.167969 337.527344 L 558.988281 337.410156 L 558.820312 337.28125 L 558.660156 337.144531 L 558.503906 336.996094 L 558.359375 336.839844 L 558.21875 336.675781 L 558.085938 336.5 L 557.960938 336.316406 L 557.847656 336.125 L 557.738281 335.921875 L 557.640625 335.707031 L 557.554688 335.488281 L 557.480469 335.257812 L 557.414062 335.023438 L 557.355469 334.777344 L 557.3125 334.527344 L 557.277344 334.273438 L 557.25 334.007812 L 557.234375 333.738281 L 557.230469 333.457031 L 557.234375 333.171875 L 557.253906 332.894531 L 557.28125 332.621094 L 557.320312 332.355469 L 557.375 332.101562 L 557.4375 331.851562 L 557.511719 331.609375 L 557.597656 331.375 L 557.695312 331.148438 L 557.800781 330.929688 L 557.925781 330.714844 L 558.058594 330.511719 L 558.195312 330.316406 L 558.34375 330.132812 L 558.5 329.960938 L 558.664062 329.800781 L 558.839844 329.648438 L 559.019531 329.507812 L 559.210938 329.375 L 559.410156 329.257812 L 559.613281 329.144531 L 559.824219 329.042969 L 560.039062 328.953125 L 560.257812 328.875 L 560.480469 328.8125 L 560.710938 328.757812 L 560.945312 328.714844 L 561.183594 328.6875 L 561.425781 328.667969 Z M 561.433594 337.023438 L 561.636719 337.015625 L 561.835938 337 L 562.035156 336.972656 L 562.222656 336.933594 L 562.410156 336.886719 L 562.59375 336.824219 L 562.773438 336.753906 L 562.945312 336.671875 L 563.117188 336.578125 L 563.28125 336.472656 L 563.445312 336.351562 L 563.609375 336.222656 L 563.769531 336.085938 L 563.929688 335.933594 L 564.082031 335.773438 L 564.234375 335.605469 L 564.386719 335.425781 L 564.535156 335.234375 L 564.679688 335.035156 L 564.820312 334.824219 L 564.816406 334.3125 L 564.796875 333.832031 L 564.765625 333.375 L 564.714844 332.949219 L 564.648438 332.550781 L 564.570312 332.179688 L 564.472656 331.835938 L 564.363281 331.519531 L 564.238281 331.234375 L 564.09375 330.972656 L 563.9375 330.734375 L 563.761719 330.519531 L 563.566406 330.332031 L 563.355469 330.171875 L 563.125 330.03125 L 562.878906 329.917969 L 562.617188 329.832031 L 562.335938 329.769531 L 562.035156 329.730469 L 561.71875 329.71875 L 561.429688 329.730469 L 561.152344 329.757812 L 560.890625 329.808594 L 560.636719 329.878906 L 560.398438 329.964844 L 560.171875 330.074219 L 559.957031 330.203125 L 559.753906 330.351562 L 559.5625 330.519531 L 559.386719 330.707031 L 559.226562 330.910156 L 559.085938 331.128906 L 558.960938 331.363281 L 558.851562 331.617188 L 558.757812 331.886719 L 558.683594 332.171875 L 558.625 332.472656 L 558.585938 332.792969 L 558.558594 333.128906 L 558.550781 333.480469 L 558.558594 333.8125 L 558.582031 334.128906 L 558.621094 334.429688 L 558.671875 334.710938 L 558.742188 334.980469 L 558.828125 335.238281 L 558.929688 335.476562 L 559.042969 335.699219 L 559.175781 335.90625 L 559.320312 336.097656 L 559.484375 336.273438 L 559.660156 336.429688 L 559.84375 336.570312 L 560.039062 336.691406 L 560.246094 336.792969 L 560.460938 336.875 L 560.6875 336.941406 L 560.925781 336.984375 L 561.175781 337.011719 Z M 561.433594 337.023438 "/>
<path fill-rule="nonzero" fill="rgb(10.196078%, 10.196078%, 10.196078%)" fill-opacity="1" d="M 630.128906 328.664062 L 630.492188 328.671875 L 630.835938 328.707031 L 631.167969 328.761719 L 631.484375 328.835938 L 631.785156 328.933594 L 632.070312 329.050781 L 632.339844 329.191406 L 632.59375 329.351562 L 632.832031 329.535156 L 633.054688 329.742188 L 633.265625 329.960938 L 633.449219 330.195312 L 633.617188 330.441406 L 633.757812 330.703125 L 633.878906 330.972656 L 633.980469 331.257812 L 634.054688 331.550781 L 634.109375 331.859375 L 634.144531 332.179688 L 634.15625 332.511719 L 634.148438 332.796875 L 634.132812 333.078125 L 634.101562 333.355469 L 634.058594 333.628906 L 634.007812 333.898438 L 633.941406 334.164062 L 633.863281 334.429688 L 633.773438 334.6875 L 633.675781 334.945312 L 633.5625 335.195312 L 633.433594 335.449219 L 633.296875 335.707031 L 633.144531 335.972656 L 632.976562 336.238281 L 632.796875 336.511719 L 632.601562 336.789062 L 632.394531 337.070312 L 632.175781 337.359375 L 631.9375 337.648438 L 631.691406 337.945312 L 631.425781 338.261719 L 631.125 338.605469 L 630.796875 338.976562 L 630.4375 339.378906 L 630.046875 339.8125 L 629.625 340.273438 L 629.171875 340.761719 L 628.683594 341.285156 L 628.167969 341.832031 L 627.621094 342.414062 L 634.550781 342.414062 L 634.375 343.535156 L 626.125 343.535156 L 626.125 342.457031 L 626.710938 341.832031 L 627.261719 341.238281 L 627.777344 340.679688 L 628.261719 340.15625 L 628.710938 339.664062 L 629.125 339.203125 L 629.503906 338.78125 L 629.847656 338.386719 L 630.160156 338.03125 L 630.4375 337.703125 L 630.691406 337.398438 L 630.933594 337.097656 L 631.15625 336.808594 L 631.367188 336.527344 L 631.558594 336.253906 L 631.734375 335.988281 L 631.898438 335.734375 L 632.042969 335.488281 L 632.171875 335.25 L 632.285156 335.019531 L 632.390625 334.789062 L 632.484375 334.558594 L 632.566406 334.320312 L 632.636719 334.082031 L 632.699219 333.839844 L 632.746094 333.59375 L 632.785156 333.34375 L 632.8125 333.09375 L 632.828125 332.835938 L 632.835938 332.578125 L 632.828125 332.324219 L 632.804688 332.082031 L 632.765625 331.847656 L 632.710938 331.625 L 632.640625 331.414062 L 632.558594 331.210938 L 632.457031 331.019531 L 632.34375 330.839844 L 632.210938 330.671875 L 632.066406 330.511719 L 631.910156 330.363281 L 631.746094 330.234375 L 631.570312 330.117188 L 631.386719 330.019531 L 631.191406 329.933594 L 630.984375 329.863281 L 630.769531 329.808594 L 630.542969 329.773438 L 630.308594 329.75 L 630.0625 329.742188 L 629.863281 329.746094 L 629.667969 329.757812 L 629.476562 329.777344 L 629.289062 329.808594 L 629.105469 329.84375 L 628.929688 329.890625 L 628.753906 329.945312 L 628.585938 330.007812 L 628.417969 330.078125 L 628.257812 330.160156 L 628.105469 330.246094 L 627.953125 330.34375 L 627.804688 330.445312 L 627.652344 330.558594 L 627.503906 330.679688 L 627.359375 330.8125 L 627.214844 330.949219 L 627.070312 331.09375 L 626.925781 331.25 L 626.785156 331.414062 L 625.90625 330.753906 L 626.082031 330.542969 L 626.261719 330.34375 L 626.445312 330.15625 L 626.628906 329.980469 L 626.816406 329.816406 L 627.007812 329.664062 L 627.203125 329.523438 L 627.398438 329.394531 L 627.597656 329.277344 L 627.796875 329.167969 L 628.007812 329.074219 L 628.222656 328.988281 L 628.441406 328.910156 L 628.667969 328.84375 L 628.898438 328.789062 L 629.132812 328.742188 L 629.375 328.707031 L 629.621094 328.683594 L 629.871094 328.667969 Z M 630.128906 328.664062 "/>
<path fill-rule="nonzero" fill="rgb(10.196078%, 10.196078%, 10.196078%)" fill-opacity="1" d="M 641.765625 328.664062 L 642.210938 328.683594 L 642.628906 328.742188 L 643.027344 328.835938 L 643.402344 328.972656 L 643.757812 329.148438 L 644.089844 329.359375 L 644.402344 329.613281 L 644.6875 329.902344 L 644.953125 330.230469 L 645.199219 330.597656 L 645.421875 331 L 645.617188 331.4375 L 645.792969 331.910156 L 645.945312 332.417969 L 646.074219 332.964844 L 646.179688 333.546875 L 646.261719 334.164062 L 646.320312 334.816406 L 646.351562 335.503906 L 646.363281 336.230469 L 646.351562 336.953125 L 646.316406 337.640625 L 646.257812 338.289062 L 646.175781 338.90625 L 646.066406 339.488281 L 645.9375 340.03125 L 645.78125 340.542969 L 645.605469 341.019531 L 645.402344 341.457031 L 645.175781 341.863281 L 644.933594 342.226562 L 644.667969 342.550781 L 644.378906 342.839844 L 644.070312 343.085938 L 643.742188 343.296875 L 643.390625 343.46875 L 643.015625 343.605469 L 642.621094 343.699219 L 642.203125 343.757812 L 641.765625 343.777344 L 641.324219 343.757812 L 640.90625 343.699219 L 640.507812 343.605469 L 640.128906 343.46875 L 639.777344 343.296875 L 639.445312 343.085938 L 639.132812 342.839844 L 638.84375 342.550781 L 638.578125 342.226562 L 638.335938 341.863281 L 638.113281 341.457031 L 637.914062 341.015625 L 637.742188 340.539062 L 637.589844 340.027344 L 637.460938 339.480469 L 637.355469 338.898438 L 637.273438 338.277344 L 637.214844 337.625 L 637.179688 336.933594 L 637.167969 336.207031 L 637.179688 335.484375 L 637.214844 334.792969 L 637.273438 334.140625 L 637.355469 333.523438 L 637.460938 332.941406 L 637.589844 332.398438 L 637.742188 331.886719 L 637.914062 331.414062 L 638.113281 330.976562 L 638.335938 330.578125 L 638.578125 330.214844 L 638.84375 329.886719 L 639.132812 329.601562 L 639.445312 329.351562 L 639.777344 329.140625 L 640.128906 328.96875 L 640.507812 328.835938 L 640.90625 328.738281 L 641.324219 328.683594 Z M 641.765625 329.71875 L 641.144531 329.785156 L 640.585938 329.976562 L 640.09375 330.304688 L 639.667969 330.757812 L 639.308594 331.339844 L 639.011719 332.054688 L 638.785156 332.898438 L 638.621094 333.871094 L 638.523438 334.976562 L 638.488281 336.207031 L 638.523438 337.445312 L 638.621094 338.554688 L 638.785156 339.53125 L 639.011719 340.375 L 639.308594 341.09375 L 639.667969 341.679688 L 640.09375 342.132812 L 640.585938 342.460938 L 641.144531 342.65625 L 641.765625 342.722656 L 642.082031 342.703125 L 642.378906 342.65625 L 642.660156 342.578125 L 642.925781 342.46875 L 643.175781 342.324219 L 643.410156 342.152344 L 643.628906 341.945312 L 643.828125 341.707031 L 644.015625 341.4375 L 644.1875 341.136719 L 644.347656 340.800781 L 644.488281 340.433594 L 644.613281 340.03125 L 644.722656 339.589844 L 644.8125 339.117188 L 644.890625 338.609375 L 644.949219 338.066406 L 644.988281 337.488281 L 645.015625 336.878906 L 645.023438 336.230469 L 645.015625 335.582031 L 644.988281 334.972656 L 644.949219 334.394531 L 644.890625 333.851562 L 644.8125 333.34375 L 644.722656 332.871094 L 644.613281 332.433594 L 644.488281 332.027344 L 644.347656 331.660156 L 644.1875 331.324219 L 644.015625 331.019531 L 643.828125 330.746094 L 643.628906 330.503906 L 643.410156 330.296875 L 643.175781 330.121094 L 642.925781 329.976562 L 642.660156 329.863281 L 642.378906 329.78125 L 642.082031 329.734375 Z M 641.765625 329.71875 "/>
<path fill-rule="nonzero" fill="rgb(10.196078%, 10.196078%, 10.196078%)" fill-opacity="1" d="M 652.765625 328.664062 L 653.128906 328.671875 L 653.476562 328.707031 L 653.804688 328.761719 L 654.121094 328.835938 L 654.421875 328.933594 L 654.707031 329.050781 L 654.976562 329.191406 L 655.230469 329.351562 L 655.46875 329.535156 L 655.691406 329.742188 L 655.902344 329.960938 L 656.089844 330.195312 L 656.253906 330.441406 L 656.398438 330.703125 L 656.519531 330.972656 L 656.617188 331.257812 L 656.695312 331.550781 L 656.75 331.859375 L 656.78125 332.179688 L 656.792969 332.511719 L 656.785156 332.796875 L 656.769531 333.078125 L 656.738281 333.355469 L 656.699219 333.628906 L 656.644531 333.898438 L 656.578125 334.164062 L 656.5 334.429688 L 656.414062 334.6875 L 656.3125 334.945312 L 656.199219 335.195312 L 656.074219 335.449219 L 655.933594 335.707031 L 655.78125 335.972656 L 655.613281 336.238281 L 655.433594 336.511719 L 655.242188 336.789062 L 655.035156 337.070312 L 654.8125 337.359375 L 654.578125 337.648438 L 654.328125 337.945312 L 654.0625 338.261719 L 653.765625 338.605469 L 653.4375 338.976562 L 653.074219 339.378906 L 652.683594 339.8125 L 652.261719 340.273438 L 651.808594 340.761719 L 651.324219 341.285156 L 650.804688 341.832031 L 650.257812 342.414062 L 657.1875 342.414062 L 657.011719 343.535156 L 648.761719 343.535156 L 648.761719 342.457031 L 649.347656 341.832031 L 649.898438 341.238281 L 650.417969 340.679688 L 650.898438 340.15625 L 651.347656 339.664062 L 651.761719 339.203125 L 652.140625 338.78125 L 652.488281 338.386719 L 652.796875 338.03125 L 653.074219 337.703125 L 653.332031 337.398438 L 653.570312 337.097656 L 653.796875 336.808594 L 654.003906 336.527344 L 654.195312 336.253906 L 654.375 335.988281 L 654.535156 335.734375 L 654.679688 335.488281 L 654.808594 335.25 L 654.921875 335.019531 L 655.027344 334.789062 L 655.121094 334.558594 L 655.203125 334.320312 L 655.273438 334.082031 L 655.335938 333.839844 L 655.386719 333.59375 L 655.421875 333.34375 L 655.449219 333.09375 L 655.46875 332.835938 L 655.472656 332.578125 L 655.464844 332.324219 L 655.441406 332.082031 L 655.402344 331.847656 L 655.351562 331.625 L 655.28125 331.414062 L 655.195312 331.210938 L 655.097656 331.019531 L 654.980469 330.839844 L 654.847656 330.671875 L 654.703125 330.511719 L 654.546875 330.363281 L 654.382812 330.234375 L 654.207031 330.117188 L 654.023438 330.019531 L 653.828125 329.933594 L 653.625 329.863281 L 653.40625 329.808594 L 653.183594 329.773438 L 652.945312 329.75 L 652.699219 329.742188 L 652.5 329.746094 L 652.304688 329.757812 L 652.113281 329.777344 L 651.925781 329.808594 L 651.742188 329.84375 L 651.566406 329.890625 L 651.390625 329.945312 L 651.222656 330.007812 L 651.058594 330.078125 L 650.898438 330.160156 L 650.742188 330.246094 L 650.589844 330.34375 L 650.441406 330.445312 L 650.292969 330.558594 L 650.144531 330.679688 L 649.996094 330.8125 L 649.851562 330.949219 L 649.707031 331.09375 L 649.566406 331.25 L 649.421875 331.414062 L 648.542969 330.753906 L 648.71875 330.542969 L 648.898438 330.34375 L 649.082031 330.15625 L 649.269531 329.980469 L 649.457031 329.816406 L 649.648438 329.664062 L 649.839844 329.523438 L 650.035156 329.394531 L 650.234375 329.277344 L 650.433594 329.167969 L 650.644531 329.074219 L 650.859375 328.988281 L 651.078125 328.910156 L 651.304688 328.84375 L 651.535156 328.789062 L 651.769531 328.742188 L 652.011719 328.707031 L 652.257812 328.683594 L 652.511719 328.667969 Z M 652.765625 328.664062 "/>
<path fill-rule="nonzero" fill="rgb(10.196078%, 10.196078%, 10.196078%)" fill-opacity="1" d="M 663.304688 328.664062 L 663.667969 328.671875 L 664.011719 328.707031 L 664.34375 328.761719 L 664.660156 328.835938 L 664.960938 328.933594 L 665.246094 329.050781 L 665.515625 329.191406 L 665.769531 329.351562 L 666.007812 329.535156 L 666.230469 329.742188 L 666.441406 329.960938 L 666.628906 330.195312 L 666.792969 330.441406 L 666.933594 330.703125 L 667.054688 330.972656 L 667.15625 331.257812 L 667.230469 331.550781 L 667.285156 331.859375 L 667.320312 332.179688 L 667.332031 332.511719 L 667.324219 332.796875 L 667.308594 333.078125 L 667.277344 333.355469 L 667.234375 333.628906 L 667.183594 333.898438 L 667.117188 334.164062 L 667.039062 334.429688 L 666.949219 334.6875 L 666.851562 334.945312 L 666.738281 335.195312 L 666.613281 335.449219 L 666.472656 335.707031 L 666.320312 335.972656 L 666.152344 336.238281 L 665.972656 336.511719 L 665.777344 336.789062 L 665.570312 337.070312 L 665.351562 337.359375 L 665.117188 337.648438 L 664.867188 337.945312 L 664.601562 338.261719 L 664.304688 338.605469 L 663.972656 338.976562 L 663.613281 339.378906 L 663.222656 339.8125 L 662.800781 340.273438 L 662.347656 340.761719 L 661.859375 341.285156 L 661.34375 341.832031 L 660.796875 342.414062 L 667.726562 342.414062 L 667.550781 343.535156 L 659.300781 343.535156 L 659.300781 342.457031 L 659.886719 341.832031 L 660.4375 341.238281 L 660.953125 340.679688 L 661.4375 340.15625 L 661.886719 339.664062 L 662.300781 339.203125 L 662.679688 338.78125 L 663.023438 338.386719 L 663.335938 338.03125 L 663.613281 337.703125 L 663.867188 337.398438 L 664.109375 337.097656 L 664.332031 336.808594 L 664.542969 336.527344 L 664.734375 336.253906 L 664.910156 335.988281 L 665.074219 335.734375 L 665.21875 335.488281 L 665.347656 335.25 L 665.460938 335.019531 L 665.566406 334.789062 L 665.660156 334.558594 L 665.742188 334.320312 L 665.8125 334.082031 L 665.875 333.839844 L 665.921875 333.59375 L 665.960938 333.34375 L 665.988281 333.09375 L 666.003906 332.835938 L 666.011719 332.578125 L 666.003906 332.324219 L 665.980469 332.082031 L 665.941406 331.847656 L 665.886719 331.625 L 665.820312 331.414062 L 665.734375 331.210938 L 665.632812 331.019531 L 665.519531 330.839844 L 665.386719 330.671875 L 665.242188 330.511719 L 665.085938 330.363281 L 664.921875 330.234375 L 664.746094 330.117188 L 664.5625 330.019531 L 664.367188 329.933594 L 664.160156 329.863281 L 663.945312 329.808594 L 663.71875 329.773438 L 663.484375 329.75 L 663.238281 329.742188 L 663.039062 329.746094 L 662.84375 329.757812 L 662.652344 329.777344 L 662.464844 329.808594 L 662.28125 329.84375 L 662.105469 329.890625 L 661.929688 329.945312 L 661.761719 330.007812 L 661.59375 330.078125 L 661.433594 330.160156 L 661.28125 330.246094 L 661.128906 330.34375 L 660.980469 330.445312 L 660.828125 330.558594 L 660.679688 330.679688 L 660.535156 330.8125 L 660.390625 330.949219 L 660.246094 331.09375 L 660.101562 331.25 L 659.960938 331.414062 L 659.082031 330.753906 L 659.257812 330.542969 L 659.4375 330.34375 L 659.621094 330.15625 L 659.804688 329.980469 L 659.992188 329.816406 L 660.183594 329.664062 L 660.378906 329.523438 L 660.574219 329.394531 L 660.773438 329.277344 L 660.972656 329.167969 L 661.183594 329.074219 L 661.398438 328.988281 L 661.617188 328.910156 L 661.84375 328.84375 L 662.074219 328.789062 L 662.308594 328.742188 L 662.550781 328.707031 L 662.796875 328.683594 L 663.046875 328.667969 Z M 663.304688 328.664062 "/>
</svg>
