<?xml version="1.0" encoding="UTF-8"?>
<svg xmlns="http://www.w3.org/2000/svg" xmlns:xlink="http://www.w3.org/1999/xlink" width="792" height="532" viewBox="0 0 792 532">
<defs>
<clipPath id="clip-0">
<path clip-rule="nonzero" d="M 156 13.449219 L 157 13.449219 L 157 453.800781 L 156 453.800781 Z M 156 13.449219 "/>
</clipPath>
<clipPath id="clip-1">
<path clip-rule="nonzero" d="M 343 13.449219 L 344 13.449219 L 344 453.800781 L 343 453.800781 Z M 343 13.449219 "/>
</clipPath>
<clipPath id="clip-2">
<path clip-rule="nonzero" d="M 530 13.449219 L 531 13.449219 L 531 453.800781 L 530 453.800781 Z M 530 13.449219 "/>
</clipPath>
<clipPath id="clip-3">
<path clip-rule="nonzero" d="M 717 13.449219 L 718 13.449219 L 718 453.800781 L 717 453.800781 Z M 717 13.449219 "/>
</clipPath>
<clipPath id="clip-4">
<path clip-rule="nonzero" d="M 249 13.449219 L 251 13.449219 L 251 453.800781 L 249 453.800781 Z M 249 13.449219 "/>
</clipPath>
<clipPath id="clip-5">
<path clip-rule="nonzero" d="M 436 13.449219 L 438 13.449219 L 438 453.800781 L 436 453.800781 Z M 436 13.449219 "/>
</clipPath>
<clipPath id="clip-6">
<path clip-rule="nonzero" d="M 623 13.449219 L 625 13.449219 L 625 453.800781 L 623 453.800781 Z M 623 13.449219 "/>
</clipPath>
<clipPath id="clip-7">
<path clip-rule="nonzero" d="M 436 13.449219 L 438 13.449219 L 438 453.800781 L 436 453.800781 Z M 436 13.449219 "/>
</clipPath>
<clipPath id="clip-8">
<path clip-rule="nonzero" d="M 436 13.449219 L 438 13.449219 L 438 453.800781 L 436 453.800781 Z M 436 13.449219 "/>
</clipPath>
</defs>
<rect x="-79.2" y="-53.2" width="950.4" height="638.4" fill="rgb(100%, 100%, 100%)" fill-opacity="1"/>
<g clip-path="url(#clip-0)">
<path fill="none" stroke-width="0.426791" stroke-linecap="butt" stroke-linejoin="round" stroke="rgb(74.509804%, 74.509804%, 74.509804%)" stroke-opacity="1" stroke-miterlimit="10" d="M 156.328125 453.800781 L 156.328125 13.449219 "/>
</g>
<g clip-path="url(#clip-1)">
<path fill="none" stroke-width="0.426791" stroke-linecap="butt" stroke-linejoin="round" stroke="rgb(74.509804%, 74.509804%, 74.509804%)" stroke-opacity="1" stroke-miterlimit="10" d="M 343.4375 453.800781 L 343.4375 13.449219 "/>
</g>
<g clip-path="url(#clip-2)">
<path fill="none" stroke-width="0.426791" stroke-linecap="butt" stroke-linejoin="round" stroke="rgb(74.509804%, 74.509804%, 74.509804%)" stroke-opacity="1" stroke-miterlimit="10" d="M 530.546875 453.800781 L 530.546875 13.449219 "/>
</g>
<g clip-path="url(#clip-3)">
<path fill="none" stroke-width="0.426791" stroke-linecap="butt" stroke-linejoin="round" stroke="rgb(74.509804%, 74.509804%, 74.509804%)" stroke-opacity="1" stroke-miterlimit="10" d="M 717.65625 453.800781 L 717.65625 13.449219 "/>
</g>
<g clip-path="url(#clip-4)">
<path fill="none" stroke-width="0.426791" stroke-linecap="butt" stroke-linejoin="round" stroke="rgb(74.509804%, 74.509804%, 74.509804%)" stroke-opacity="1" stroke-miterlimit="10" d="M 249.882812 453.800781 L 249.882812 13.449219 "/>
</g>
<g clip-path="url(#clip-5)">
<path fill="none" stroke-width="0.426791" stroke-linecap="butt" stroke-linejoin="round" stroke="rgb(74.509804%, 74.509804%, 74.509804%)" stroke-opacity="1" stroke-miterlimit="10" d="M 436.992188 453.800781 L 436.992188 13.449219 "/>
</g>
<g clip-path="url(#clip-6)">
<path fill="none" stroke-width="0.426791" stroke-linecap="butt" stroke-linejoin="round" stroke="rgb(74.509804%, 74.509804%, 74.509804%)" stroke-opacity="1" stroke-miterlimit="10" d="M 624.101562 453.800781 L 624.101562 13.449219 "/>
</g>
<g clip-path="url(#clip-7)">
<path fill="none" stroke-width="1.066978" stroke-linecap="butt" stroke-linejoin="round" stroke="rgb(74.509804%, 74.509804%, 74.509804%)" stroke-opacity="1" stroke-miterlimit="10" d="M 436.992188 453.800781 L 436.992188 13.449219 "/>
</g>
<path fill-rule="nonzero" fill="rgb(0%, 20.392157%, 34.901961%)" fill-opacity="1" stroke-width="0.708661" stroke-linecap="round" stroke-linejoin="round" stroke="rgb(0%, 20.392157%, 34.901961%)" stroke-opacity="1" stroke-miterlimit="10" d="M 443.105469 333.703125 C 443.105469 337.082031 440.367188 339.820312 436.992188 339.820312 C 433.613281 339.820312 430.875 337.082031 430.875 333.703125 C 430.875 330.328125 433.613281 327.589844 436.992188 327.589844 C 440.367188 327.589844 443.105469 330.328125 443.105469 333.703125 "/>
<path fill-rule="nonzero" fill="rgb(0%, 20.392157%, 34.901961%)" fill-opacity="1" stroke-width="0.708661" stroke-linecap="round" stroke-linejoin="round" stroke="rgb(0%, 20.392157%, 34.901961%)" stroke-opacity="1" stroke-miterlimit="10" d="M 634.660156 133.546875 C 634.660156 136.921875 631.921875 139.660156 628.542969 139.660156 C 625.164062 139.660156 622.425781 136.921875 622.425781 133.546875 C 622.425781 130.167969 625.164062 127.429688 628.542969 127.429688 C 631.921875 127.429688 634.660156 130.167969 634.660156 133.546875 "/>
<path fill="none" stroke-width="0.426791" stroke-linecap="butt" stroke-linejoin="round" stroke="rgb(0%, 20.392157%, 34.901961%)" stroke-opacity="1" stroke-miterlimit="10" d="M 735.558594 133.546875 L 735.558594 133.546875 "/>
<path fill="none" stroke-width="0.426791" stroke-linecap="butt" stroke-linejoin="round" stroke="rgb(0%, 20.392157%, 34.901961%)" stroke-opacity="1" stroke-miterlimit="10" d="M 735.558594 133.546875 L 521.53125 133.546875 "/>
<path fill="none" stroke-width="0.426791" stroke-linecap="butt" stroke-linejoin="round" stroke="rgb(0%, 20.392157%, 34.901961%)" stroke-opacity="1" stroke-miterlimit="10" d="M 521.53125 133.546875 L 521.53125 133.546875 "/>
<g clip-path="url(#clip-8)">
<path fill="none" stroke-width="1.066978" stroke-linecap="butt" stroke-linejoin="round" stroke="rgb(0%, 0%, 0%)" stroke-opacity="1" stroke-dasharray="1.066978 3.200935" stroke-miterlimit="10" d="M 436.992188 453.800781 L 436.992188 13.449219 "/>
</g>
<path fill-rule="nonzero" fill="rgb(30.196078%, 30.196078%, 30.196078%)" fill-opacity="1" d="M 27.082031 340.488281 L 26.128906 340.488281 L 26.128906 333.808594 L 18.203125 333.808594 L 18.203125 340.488281 L 17.25 340.488281 L 17.25 326.921875 L 18.203125 326.921875 L 18.203125 332.933594 L 26.128906 332.933594 L 26.128906 326.921875 L 27.082031 326.921875 Z M 27.082031 340.488281 "/>
<path fill-rule="nonzero" fill="rgb(30.196078%, 30.196078%, 30.196078%)" fill-opacity="1" d="M 42.324219 333.6875 L 42.320312 333.992188 L 42.308594 334.296875 L 42.292969 334.589844 L 42.265625 334.882812 L 42.230469 335.167969 L 42.1875 335.449219 L 42.140625 335.722656 L 42.082031 335.992188 L 42.015625 336.257812 L 41.945312 336.515625 L 41.863281 336.769531 L 41.777344 337.015625 L 41.683594 337.253906 L 41.578125 337.484375 L 41.46875 337.707031 L 41.351562 337.925781 L 41.226562 338.136719 L 41.09375 338.339844 L 40.953125 338.535156 L 40.804688 338.722656 L 40.648438 338.90625 L 40.484375 339.078125 L 40.3125 339.242188 L 40.132812 339.398438 L 39.949219 339.546875 L 39.753906 339.6875 L 39.550781 339.816406 L 39.34375 339.941406 L 39.125 340.054688 L 38.902344 340.160156 L 38.671875 340.257812 L 38.433594 340.34375 L 38.1875 340.421875 L 37.9375 340.488281 L 37.675781 340.542969 L 37.40625 340.589844 L 37.132812 340.625 L 36.847656 340.652344 L 36.554688 340.667969 L 36.257812 340.671875 L 35.957031 340.667969 L 35.664062 340.652344 L 35.378906 340.625 L 35.101562 340.589844 L 34.832031 340.542969 L 34.570312 340.488281 L 34.3125 340.421875 L 34.066406 340.34375 L 33.828125 340.257812 L 33.59375 340.160156 L 33.371094 340.054688 L 33.152344 339.941406 L 32.945312 339.816406 L 32.742188 339.6875 L 32.550781 339.546875 L 32.363281 339.398438 L 32.183594 339.242188 L 32.011719 339.078125 L 31.847656 338.90625 L 31.695312 338.722656 L 31.546875 338.53125 L 31.40625 338.335938 L 31.277344 338.128906 L 31.152344 337.917969 L 31.035156 337.699219 L 30.925781 337.476562 L 30.824219 337.242188 L 30.730469 337.003906 L 30.640625 336.757812 L 30.5625 336.507812 L 30.488281 336.246094 L 30.425781 335.980469 L 30.367188 335.710938 L 30.316406 335.433594 L 30.277344 335.152344 L 30.242188 334.867188 L 30.214844 334.574219 L 30.195312 334.277344 L 30.183594 333.976562 L 30.179688 333.667969 L 30.1875 333.261719 L 30.210938 332.863281 L 30.242188 332.476562 L 30.292969 332.097656 L 30.355469 331.730469 L 30.433594 331.375 L 30.523438 331.023438 L 30.625 330.6875 L 30.746094 330.359375 L 30.878906 330.039062 L 31.023438 329.734375 L 31.183594 329.441406 L 31.359375 329.160156 L 31.546875 328.894531 L 31.746094 328.644531 L 31.960938 328.40625 L 32.1875 328.179688 L 32.425781 327.972656 L 32.679688 327.773438 L 32.945312 327.589844 L 33.226562 327.421875 L 33.519531 327.273438 L 33.828125 327.140625 L 34.148438 327.027344 L 34.480469 326.929688 L 34.824219 326.851562 L 35.183594 326.789062 L 35.550781 326.746094 L 35.9375 326.71875 L 36.332031 326.710938 L 36.710938 326.71875 L 37.082031 326.742188 L 37.4375 326.785156 L 37.78125 326.84375 L 38.113281 326.921875 L 38.433594 327.011719 L 38.742188 327.125 L 39.039062 327.25 L 39.324219 327.394531 L 39.597656 327.554688 L 39.859375 327.726562 L 40.109375 327.917969 L 40.34375 328.121094 L 40.570312 328.339844 L 40.777344 328.570312 L 40.976562 328.820312 L 41.160156 329.082031 L 41.328125 329.359375 L 41.484375 329.652344 L 41.628906 329.957031 L 41.761719 330.273438 L 41.878906 330.605469 L 41.984375 330.945312 L 42.074219 331.300781 L 42.152344 331.667969 L 42.214844 332.046875 L 42.261719 332.4375 L 42.296875 332.84375 L 42.316406 333.257812 Z M 31.183594 333.675781 L 31.1875 334.035156 L 31.207031 334.386719 L 31.234375 334.730469 L 31.269531 335.0625 L 31.320312 335.386719 L 31.378906 335.707031 L 31.453125 336.011719 L 31.535156 336.3125 L 31.625 336.605469 L 31.730469 336.886719 L 31.847656 337.15625 L 31.972656 337.414062 L 32.113281 337.660156 L 32.261719 337.894531 L 32.425781 338.117188 L 32.597656 338.328125 L 32.785156 338.527344 L 32.980469 338.710938 L 33.1875 338.886719 L 33.410156 339.046875 L 33.640625 339.195312 L 33.886719 339.328125 L 34.140625 339.445312 L 34.410156 339.546875 L 34.691406 339.632812 L 34.980469 339.703125 L 35.285156 339.757812 L 35.601562 339.796875 L 35.929688 339.820312 L 36.265625 339.828125 L 36.609375 339.820312 L 36.941406 339.796875 L 37.257812 339.757812 L 37.5625 339.703125 L 37.855469 339.636719 L 38.136719 339.550781 L 38.40625 339.449219 L 38.660156 339.335938 L 38.902344 339.203125 L 39.132812 339.058594 L 39.351562 338.898438 L 39.558594 338.726562 L 39.753906 338.539062 L 39.9375 338.34375 L 40.109375 338.132812 L 40.269531 337.914062 L 40.417969 337.679688 L 40.554688 337.433594 L 40.679688 337.175781 L 40.792969 336.90625 L 40.898438 336.625 L 40.988281 336.335938 L 41.070312 336.035156 L 41.140625 335.726562 L 41.199219 335.410156 L 41.246094 335.082031 L 41.285156 334.746094 L 41.3125 334.402344 L 41.328125 334.050781 L 41.332031 333.6875 L 41.320312 333.117188 L 41.28125 332.578125 L 41.21875 332.0625 L 41.128906 331.570312 L 41.015625 331.105469 L 40.875 330.667969 L 40.710938 330.257812 L 40.519531 329.871094 L 40.304688 329.511719 L 40.0625 329.175781 L 39.796875 328.871094 L 39.507812 328.601562 L 39.195312 328.359375 L 38.859375 328.148438 L 38.5 327.972656 L 38.113281 327.828125 L 37.703125 327.71875 L 37.269531 327.636719 L 36.8125 327.589844 L 36.332031 327.574219 L 35.992188 327.582031 L 35.660156 327.601562 L 35.34375 327.640625 L 35.039062 327.695312 L 34.742188 327.765625 L 34.460938 327.851562 L 34.191406 327.949219 L 33.929688 328.066406 L 33.683594 328.195312 L 33.445312 328.34375 L 33.222656 328.503906 L 33.011719 328.675781 L 32.8125 328.859375 L 32.625 329.054688 L 32.449219 329.261719 L 32.285156 329.484375 L 32.132812 329.714844 L 31.988281 329.960938 L 31.859375 330.21875 L 31.738281 330.484375 L 31.632812 330.765625 L 31.539062 331.050781 L 31.457031 331.347656 L 31.382812 331.65625 L 31.324219 331.96875 L 31.273438 332.292969 L 31.234375 332.625 L 31.207031 332.96875 L 31.1875 333.316406 Z M 31.183594 333.675781 "/>
<path fill-rule="nonzero" fill="rgb(30.196078%, 30.196078%, 30.196078%)" fill-opacity="1" d="M 51.304688 340.488281 L 46.324219 327.960938 L 46.277344 327.960938 L 46.289062 328.171875 L 46.289062 328.242188 L 46.292969 328.316406 L 46.296875 328.386719 L 46.300781 328.460938 L 46.300781 328.535156 L 46.304688 328.609375 L 46.304688 328.6875 L 46.316406 328.910156 L 46.320312 328.988281 L 46.320312 329.066406 L 46.328125 329.222656 L 46.328125 329.304688 L 46.332031 329.382812 L 46.332031 329.464844 L 46.335938 329.546875 L 46.335938 329.714844 L 46.339844 329.796875 L 46.339844 330.054688 L 46.34375 330.140625 L 46.34375 340.488281 L 45.433594 340.488281 L 45.433594 326.921875 L 46.878906 326.921875 L 51.6875 339.003906 L 51.742188 339.003906 L 56.585938 326.921875 L 57.996094 326.921875 L 57.996094 340.488281 L 57.058594 340.488281 L 57.058594 329.839844 L 57.0625 329.765625 L 57.0625 329.617188 L 57.066406 329.539062 L 57.066406 329.464844 L 57.070312 329.390625 L 57.070312 329.3125 L 57.074219 329.238281 L 57.074219 329.164062 L 57.078125 329.085938 L 57.078125 328.9375 L 57.082031 328.863281 L 57.082031 328.789062 L 57.085938 328.714844 L 57.089844 328.636719 L 57.109375 328.265625 L 57.113281 328.195312 L 57.117188 328.121094 L 57.117188 328.050781 L 57.121094 327.980469 L 57.066406 327.980469 L 52.066406 340.488281 Z M 51.304688 340.488281 "/>
<path fill-rule="nonzero" fill="rgb(30.196078%, 30.196078%, 30.196078%)" fill-opacity="1" d="M 69.25 340.488281 L 61.835938 340.488281 L 61.835938 326.921875 L 69.25 326.921875 L 69.25 327.785156 L 62.792969 327.785156 L 62.792969 332.925781 L 68.886719 332.925781 L 68.886719 333.789062 L 62.792969 333.789062 L 62.792969 339.625 L 69.25 339.625 Z M 69.25 340.488281 "/>
<path fill-rule="nonzero" fill="rgb(30.196078%, 30.196078%, 30.196078%)" fill-opacity="1" d="M 78.199219 340.488281 L 73.21875 327.960938 L 73.171875 327.960938 L 73.1875 328.242188 L 73.1875 328.316406 L 73.191406 328.386719 L 73.195312 328.460938 L 73.195312 328.535156 L 73.199219 328.609375 L 73.199219 328.6875 L 73.210938 328.910156 L 73.214844 328.988281 L 73.214844 329.066406 L 73.222656 329.222656 L 73.222656 329.304688 L 73.226562 329.382812 L 73.226562 329.464844 L 73.230469 329.546875 L 73.230469 329.628906 L 73.234375 329.714844 L 73.234375 329.96875 L 73.238281 330.054688 L 73.238281 340.488281 L 72.328125 340.488281 L 72.328125 326.921875 L 73.777344 326.921875 L 78.582031 339.003906 L 78.636719 339.003906 L 83.480469 326.921875 L 84.890625 326.921875 L 84.890625 340.488281 L 83.953125 340.488281 L 83.953125 329.839844 L 83.957031 329.765625 L 83.957031 329.617188 L 83.960938 329.539062 L 83.960938 329.464844 L 83.964844 329.390625 L 83.964844 329.3125 L 83.96875 329.238281 L 83.96875 329.164062 L 83.972656 329.085938 L 83.972656 329.011719 L 83.976562 328.9375 L 83.976562 328.863281 L 83.980469 328.789062 L 83.980469 328.714844 L 83.984375 328.636719 L 84.003906 328.265625 L 84.007812 328.195312 L 84.011719 328.121094 L 84.019531 327.980469 L 83.960938 327.980469 L 78.960938 340.488281 Z M 78.199219 340.488281 "/>
<path fill-rule="nonzero" fill="rgb(30.196078%, 30.196078%, 30.196078%)" fill-opacity="1" d="M 21.234375 140.328125 L 16.25 127.800781 L 16.203125 127.800781 L 16.21875 128.082031 L 16.222656 128.15625 L 16.222656 128.226562 L 16.230469 128.375 L 16.230469 128.449219 L 16.234375 128.527344 L 16.238281 128.601562 L 16.238281 128.675781 L 16.242188 128.753906 L 16.246094 128.828125 L 16.25 128.90625 L 16.25 128.984375 L 16.253906 129.0625 L 16.257812 129.144531 L 16.257812 129.222656 L 16.261719 129.304688 L 16.261719 129.386719 L 16.265625 129.46875 L 16.265625 129.722656 L 16.269531 129.808594 L 16.269531 140.328125 L 15.359375 140.328125 L 15.359375 126.761719 L 16.808594 126.761719 L 21.613281 138.84375 L 21.667969 138.84375 L 26.511719 126.761719 L 27.921875 126.761719 L 27.921875 140.328125 L 26.984375 140.328125 L 26.984375 129.828125 L 26.988281 129.753906 L 26.988281 129.53125 L 26.992188 129.457031 L 26.992188 129.382812 L 26.996094 129.304688 L 26.996094 129.230469 L 27 129.152344 L 27 129.003906 L 27.003906 128.925781 L 27.003906 128.851562 L 27.007812 128.777344 L 27.007812 128.703125 L 27.011719 128.628906 L 27.011719 128.554688 L 27.015625 128.476562 L 27.03125 128.179688 L 27.035156 128.109375 L 27.039062 128.035156 L 27.042969 127.964844 L 27.046875 127.890625 L 27.050781 127.820312 L 26.996094 127.820312 L 21.992188 140.328125 Z M 21.234375 140.328125 "/>
<path fill-rule="nonzero" fill="rgb(30.196078%, 30.196078%, 30.196078%)" fill-opacity="1" d="M 41.753906 126.761719 L 41.753906 135.539062 L 41.75 135.851562 L 41.730469 136.15625 L 41.699219 136.449219 L 41.65625 136.734375 L 41.601562 137.007812 L 41.535156 137.273438 L 41.453125 137.527344 L 41.363281 137.773438 L 41.257812 138.011719 L 41.140625 138.238281 L 41.015625 138.457031 L 40.875 138.660156 L 40.726562 138.855469 L 40.566406 139.039062 L 40.394531 139.214844 L 40.214844 139.378906 L 40.023438 139.53125 L 39.820312 139.671875 L 39.605469 139.804688 L 39.378906 139.929688 L 39.148438 140.039062 L 38.90625 140.136719 L 38.652344 140.226562 L 38.394531 140.300781 L 38.125 140.367188 L 37.847656 140.417969 L 37.558594 140.460938 L 37.261719 140.488281 L 36.957031 140.507812 L 36.644531 140.511719 L 36.167969 140.5 L 35.71875 140.460938 L 35.292969 140.394531 L 34.886719 140.304688 L 34.503906 140.183594 L 34.140625 140.042969 L 33.804688 139.871094 L 33.488281 139.675781 L 33.195312 139.453125 L 32.921875 139.203125 L 32.675781 138.929688 L 32.457031 138.636719 L 32.261719 138.316406 L 32.089844 137.980469 L 31.949219 137.621094 L 31.832031 137.238281 L 31.742188 136.835938 L 31.675781 136.414062 L 31.636719 135.96875 L 31.625 135.503906 L 31.625 126.761719 L 32.570312 126.761719 L 32.570312 135.503906 L 32.582031 135.902344 L 32.613281 136.28125 L 32.664062 136.640625 L 32.738281 136.980469 L 32.835938 137.300781 L 32.949219 137.601562 L 33.089844 137.882812 L 33.246094 138.144531 L 33.425781 138.386719 L 33.628906 138.609375 L 33.851562 138.8125 L 34.089844 138.992188 L 34.351562 139.148438 L 34.628906 139.289062 L 34.925781 139.402344 L 35.242188 139.5 L 35.574219 139.574219 L 35.929688 139.625 L 36.300781 139.65625 L 36.6875 139.667969 L 36.945312 139.664062 L 37.195312 139.648438 L 37.4375 139.625 L 37.671875 139.59375 L 37.898438 139.550781 L 38.117188 139.5 L 38.328125 139.441406 L 38.53125 139.371094 L 38.726562 139.292969 L 38.914062 139.203125 L 39.09375 139.105469 L 39.265625 139 L 39.425781 138.882812 L 39.582031 138.757812 L 39.726562 138.625 L 39.859375 138.484375 L 39.988281 138.332031 L 40.105469 138.175781 L 40.214844 138.007812 L 40.316406 137.832031 L 40.410156 137.644531 L 40.492188 137.453125 L 40.5625 137.25 L 40.625 137.042969 L 40.679688 136.828125 L 40.722656 136.601562 L 40.753906 136.371094 L 40.78125 136.132812 L 40.792969 135.886719 L 40.800781 135.632812 L 40.800781 126.761719 Z M 41.753906 126.761719 "/>
<path fill-rule="nonzero" fill="rgb(30.196078%, 30.196078%, 30.196078%)" fill-opacity="1" d="M 45.429688 140.328125 L 45.429688 126.761719 L 46.382812 126.761719 L 46.382812 139.453125 L 52.839844 139.453125 L 52.839844 140.328125 Z M 45.429688 140.328125 "/>
<path fill-rule="nonzero" fill="rgb(30.196078%, 30.196078%, 30.196078%)" fill-opacity="1" d="M 65.003906 140.328125 L 64.046875 140.328125 L 64.046875 133.648438 L 56.125 133.648438 L 56.125 140.328125 L 55.167969 140.328125 L 55.167969 126.761719 L 56.125 126.761719 L 56.125 132.773438 L 64.046875 132.773438 L 64.046875 126.761719 L 65.003906 126.761719 Z M 65.003906 140.328125 "/>
<path fill-rule="nonzero" fill="rgb(30.196078%, 30.196078%, 30.196078%)" fill-opacity="1" d="M 76.246094 140.328125 L 68.835938 140.328125 L 68.835938 126.761719 L 76.246094 126.761719 L 76.246094 127.625 L 69.789062 127.625 L 69.789062 132.765625 L 75.886719 132.765625 L 75.886719 133.628906 L 69.789062 133.628906 L 69.789062 139.464844 L 76.246094 139.464844 Z M 76.246094 140.328125 "/>
<path fill-rule="nonzero" fill="rgb(30.196078%, 30.196078%, 30.196078%)" fill-opacity="1" d="M 82.621094 126.761719 L 82.9375 126.765625 L 83.246094 126.777344 L 83.542969 126.796875 L 83.828125 126.820312 L 84.101562 126.851562 L 84.363281 126.890625 L 84.617188 126.9375 L 84.859375 126.988281 L 85.089844 127.050781 L 85.3125 127.117188 L 85.523438 127.191406 L 85.722656 127.273438 L 85.914062 127.367188 L 86.09375 127.472656 L 86.261719 127.582031 L 86.421875 127.703125 L 86.566406 127.832031 L 86.703125 127.972656 L 86.828125 128.117188 L 86.945312 128.277344 L 87.046875 128.441406 L 87.140625 128.621094 L 87.222656 128.8125 L 87.296875 129.011719 L 87.355469 129.222656 L 87.40625 129.449219 L 87.441406 129.683594 L 87.46875 129.929688 L 87.488281 130.1875 L 87.492188 130.457031 L 87.488281 130.660156 L 87.476562 130.855469 L 87.457031 131.046875 L 87.429688 131.234375 L 87.398438 131.414062 L 87.355469 131.589844 L 87.304688 131.757812 L 87.25 131.917969 L 87.183594 132.078125 L 87.113281 132.226562 L 87.035156 132.371094 L 86.953125 132.511719 L 86.863281 132.644531 L 86.769531 132.773438 L 86.667969 132.894531 L 86.5625 133.015625 L 86.453125 133.125 L 86.332031 133.234375 L 86.210938 133.335938 L 86.082031 133.433594 L 85.949219 133.527344 L 85.667969 133.699219 L 85.523438 133.777344 L 85.371094 133.851562 L 85.21875 133.921875 L 85.058594 133.988281 L 84.898438 134.046875 L 84.730469 134.105469 L 84.558594 134.15625 L 88.28125 140.328125 L 87.148438 140.328125 L 83.652344 134.425781 L 80.285156 134.425781 L 80.285156 140.328125 L 79.328125 140.328125 L 79.328125 126.761719 Z M 82.527344 127.609375 L 80.285156 127.609375 L 80.285156 133.582031 L 82.984375 133.582031 L 83.308594 133.574219 L 83.617188 133.550781 L 83.914062 133.511719 L 84.195312 133.453125 L 84.460938 133.382812 L 84.710938 133.296875 L 84.949219 133.191406 L 85.171875 133.070312 L 85.378906 132.9375 L 85.570312 132.785156 L 85.75 132.617188 L 85.910156 132.4375 L 86.050781 132.242188 L 86.171875 132.035156 L 86.273438 131.8125 L 86.359375 131.578125 L 86.425781 131.328125 L 86.472656 131.0625 L 86.5 130.785156 L 86.507812 130.492188 L 86.5 130.175781 L 86.46875 129.878906 L 86.421875 129.601562 L 86.351562 129.34375 L 86.261719 129.105469 L 86.15625 128.890625 L 86.027344 128.695312 L 85.878906 128.519531 L 85.710938 128.363281 L 85.523438 128.230469 L 85.316406 128.109375 L 85.089844 128.003906 L 84.84375 127.914062 L 84.574219 127.832031 L 84.285156 127.761719 L 83.972656 127.707031 L 83.644531 127.664062 L 83.292969 127.632812 L 82.921875 127.613281 Z M 82.527344 127.609375 "/>
<path fill="none" stroke-width="1.280374" stroke-linecap="butt" stroke-linejoin="round" stroke="rgb(10.196078%, 10.196078%, 10.196078%)" stroke-opacity="1" stroke-miterlimit="10" d="M 95.433594 453.800781 L 778.550781 453.800781 "/>
<path fill-rule="nonzero" fill="rgb(30.196078%, 30.196078%, 30.196078%)" fill-opacity="1" d="M 226.203125 475.976562 L 226.203125 474.996094 L 231.433594 474.996094 L 231.433594 475.976562 Z M 226.203125 475.976562 "/>
<path fill-rule="nonzero" fill="rgb(30.196078%, 30.196078%, 30.196078%)" fill-opacity="1" d="M 243.363281 473.574219 L 243.359375 473.953125 L 243.351562 474.328125 L 243.335938 474.691406 L 243.316406 475.046875 L 243.289062 475.390625 L 243.257812 475.730469 L 243.21875 476.058594 L 243.175781 476.378906 L 243.125 476.6875 L 243.066406 476.988281 L 243.007812 477.28125 L 242.9375 477.566406 L 242.863281 477.839844 L 242.78125 478.105469 L 242.695312 478.359375 L 242.605469 478.605469 L 242.503906 478.839844 L 242.398438 479.066406 L 242.289062 479.28125 L 242.171875 479.488281 L 242.046875 479.6875 L 241.917969 479.875 L 241.78125 480.050781 L 241.636719 480.21875 L 241.488281 480.378906 L 241.332031 480.527344 L 241.167969 480.664062 L 241 480.792969 L 240.824219 480.910156 L 240.640625 481.019531 L 240.453125 481.117188 L 240.257812 481.203125 L 240.054688 481.28125 L 239.847656 481.347656 L 239.628906 481.40625 L 239.40625 481.453125 L 239.175781 481.488281 L 238.941406 481.515625 L 238.699219 481.53125 L 238.449219 481.535156 L 238.132812 481.527344 L 237.828125 481.5 L 237.53125 481.453125 L 237.246094 481.390625 L 236.972656 481.3125 L 236.707031 481.210938 L 236.453125 481.097656 L 236.207031 480.960938 L 235.972656 480.808594 L 235.75 480.640625 L 235.535156 480.449219 L 235.332031 480.246094 L 235.136719 480.023438 L 234.957031 479.78125 L 234.785156 479.523438 L 234.621094 479.25 L 234.472656 478.953125 L 234.332031 478.644531 L 234.203125 478.316406 L 234.082031 477.972656 L 233.976562 477.609375 L 233.882812 477.226562 L 233.796875 476.832031 L 233.722656 476.417969 L 233.664062 475.984375 L 233.613281 475.535156 L 233.574219 475.070312 L 233.546875 474.589844 L 233.527344 474.089844 L 233.523438 473.574219 L 233.527344 473.109375 L 233.542969 472.660156 L 233.566406 472.21875 L 233.597656 471.789062 L 233.640625 471.371094 L 233.695312 470.964844 L 233.753906 470.570312 L 233.828125 470.183594 L 233.90625 469.8125 L 233.996094 469.449219 L 234.101562 469.101562 L 234.214844 468.765625 L 234.34375 468.449219 L 234.480469 468.148438 L 234.632812 467.863281 L 234.796875 467.589844 L 234.972656 467.335938 L 235.160156 467.097656 L 235.359375 466.871094 L 235.570312 466.664062 L 235.792969 466.472656 L 236.03125 466.304688 L 236.285156 466.152344 L 236.554688 466.023438 L 236.835938 465.914062 L 237.132812 465.824219 L 237.441406 465.753906 L 237.765625 465.703125 L 238.105469 465.671875 L 238.460938 465.664062 L 238.8125 465.671875 L 239.148438 465.703125 L 239.46875 465.75 L 239.777344 465.820312 L 240.074219 465.90625 L 240.351562 466.015625 L 240.617188 466.144531 L 240.867188 466.289062 L 241.105469 466.457031 L 241.328125 466.644531 L 241.539062 466.847656 L 241.738281 467.066406 L 241.925781 467.304688 L 242.097656 467.554688 L 242.261719 467.824219 L 242.410156 468.109375 L 242.550781 468.410156 L 242.675781 468.726562 L 242.789062 469.058594 L 242.890625 469.40625 L 242.980469 469.765625 L 243.058594 470.140625 L 243.132812 470.527344 L 243.191406 470.921875 L 243.246094 471.335938 L 243.289062 471.757812 L 243.320312 472.191406 L 243.34375 472.640625 L 243.359375 473.101562 Z M 234.597656 473.574219 L 234.601562 474.039062 L 234.617188 474.488281 L 234.636719 474.921875 L 234.664062 475.339844 L 234.703125 475.742188 L 234.746094 476.128906 L 234.800781 476.496094 L 234.863281 476.851562 L 234.933594 477.1875 L 235.011719 477.507812 L 235.097656 477.808594 L 235.191406 478.09375 L 235.296875 478.367188 L 235.410156 478.621094 L 235.53125 478.863281 L 235.664062 479.085938 L 235.804688 479.292969 L 235.953125 479.488281 L 236.109375 479.664062 L 236.277344 479.828125 L 236.453125 479.972656 L 236.636719 480.105469 L 236.832031 480.21875 L 237.035156 480.320312 L 237.246094 480.40625 L 237.46875 480.472656 L 237.699219 480.527344 L 237.941406 480.566406 L 238.191406 480.589844 L 238.449219 480.597656 L 238.714844 480.589844 L 238.972656 480.566406 L 239.21875 480.527344 L 239.453125 480.472656 L 239.679688 480.40625 L 239.894531 480.320312 L 240.101562 480.21875 L 240.292969 480.105469 L 240.480469 479.972656 L 240.652344 479.828125 L 240.816406 479.664062 L 240.972656 479.488281 L 241.117188 479.292969 L 241.253906 479.085938 L 241.382812 478.859375 L 241.503906 478.617188 L 241.613281 478.363281 L 241.710938 478.089844 L 241.804688 477.800781 L 241.886719 477.496094 L 241.964844 477.175781 L 242.03125 476.839844 L 242.089844 476.488281 L 242.144531 476.117188 L 242.1875 475.734375 L 242.222656 475.335938 L 242.25 474.917969 L 242.273438 474.484375 L 242.285156 474.039062 L 242.289062 473.574219 L 242.285156 473.144531 L 242.273438 472.726562 L 242.257812 472.324219 L 242.230469 471.933594 L 242.199219 471.554688 L 242.164062 471.1875 L 242.117188 470.832031 L 242.066406 470.488281 L 242.003906 470.15625 L 241.941406 469.839844 L 241.867188 469.535156 L 241.785156 469.242188 L 241.691406 468.96875 L 241.589844 468.707031 L 241.476562 468.460938 L 241.355469 468.226562 L 241.222656 468.011719 L 241.082031 467.808594 L 240.929688 467.617188 L 240.769531 467.445312 L 240.597656 467.285156 L 240.410156 467.144531 L 240.210938 467.019531 L 240 466.910156 L 239.773438 466.820312 L 239.539062 466.746094 L 239.289062 466.6875 L 239.023438 466.644531 L 238.746094 466.621094 L 238.460938 466.613281 L 238.175781 466.621094 L 237.90625 466.644531 L 237.644531 466.6875 L 237.398438 466.75 L 237.164062 466.824219 L 236.941406 466.917969 L 236.730469 467.03125 L 236.53125 467.160156 L 236.34375 467.304688 L 236.171875 467.464844 L 236.007812 467.644531 L 235.851562 467.835938 L 235.707031 468.042969 L 235.570312 468.261719 L 235.445312 468.496094 L 235.328125 468.746094 L 235.222656 469.007812 L 235.125 469.285156 L 235.035156 469.574219 L 234.957031 469.882812 L 234.890625 470.199219 L 234.828125 470.527344 L 234.773438 470.867188 L 234.726562 471.222656 L 234.6875 471.585938 L 234.65625 471.960938 L 234.632812 472.34375 L 234.613281 472.742188 L 234.601562 473.152344 Z M 234.597656 473.574219 "/>
<path fill-rule="nonzero" fill="rgb(30.196078%, 30.196078%, 30.196078%)" fill-opacity="1" d="M 246.347656 480.574219 L 246.351562 480.484375 L 246.355469 480.398438 L 246.367188 480.316406 L 246.382812 480.238281 L 246.402344 480.167969 L 246.425781 480.097656 L 246.453125 480.035156 L 246.484375 479.976562 L 246.519531 479.917969 L 246.558594 479.871094 L 246.601562 479.820312 L 246.652344 479.777344 L 246.703125 479.738281 L 246.761719 479.707031 L 246.820312 479.679688 L 246.882812 479.65625 L 247.023438 479.625 L 247.101562 479.617188 L 247.269531 479.617188 L 247.351562 479.625 L 247.433594 479.640625 L 247.503906 479.65625 L 247.574219 479.679688 L 247.636719 479.707031 L 247.699219 479.738281 L 247.75 479.777344 L 247.800781 479.820312 L 247.847656 479.871094 L 247.886719 479.917969 L 247.921875 479.976562 L 247.953125 480.035156 L 247.980469 480.097656 L 248.003906 480.167969 L 248.023438 480.238281 L 248.039062 480.316406 L 248.046875 480.398438 L 248.054688 480.484375 L 248.058594 480.574219 L 248.054688 480.667969 L 248.046875 480.753906 L 248.039062 480.835938 L 248.023438 480.914062 L 248.003906 480.988281 L 247.980469 481.058594 L 247.953125 481.121094 L 247.921875 481.183594 L 247.886719 481.242188 L 247.847656 481.292969 L 247.800781 481.339844 L 247.75 481.382812 L 247.699219 481.421875 L 247.574219 481.484375 L 247.433594 481.523438 L 247.351562 481.535156 L 247.269531 481.542969 L 247.179688 481.546875 L 247.101562 481.542969 L 247.023438 481.535156 L 246.953125 481.523438 L 246.882812 481.503906 L 246.820312 481.484375 L 246.703125 481.421875 L 246.652344 481.382812 L 246.601562 481.339844 L 246.558594 481.292969 L 246.519531 481.242188 L 246.484375 481.183594 L 246.453125 481.121094 L 246.425781 481.058594 L 246.402344 480.988281 L 246.382812 480.914062 L 246.367188 480.835938 L 246.355469 480.753906 L 246.351562 480.667969 Z M 246.347656 480.574219 "/>
<path fill-rule="nonzero" fill="rgb(30.196078%, 30.196078%, 30.196078%)" fill-opacity="1" d="M 260.839844 473.574219 L 260.835938 473.953125 L 260.828125 474.328125 L 260.8125 474.691406 L 260.792969 475.046875 L 260.765625 475.390625 L 260.734375 475.730469 L 260.695312 476.058594 L 260.652344 476.378906 L 260.601562 476.6875 L 260.542969 476.988281 L 260.480469 477.28125 L 260.414062 477.566406 L 260.339844 477.839844 L 260.257812 478.105469 L 260.171875 478.359375 L 260.078125 478.605469 L 259.980469 478.839844 L 259.875 479.066406 L 259.765625 479.28125 L 259.648438 479.488281 L 259.523438 479.6875 L 259.394531 479.875 L 259.257812 480.050781 L 259.113281 480.21875 L 258.964844 480.378906 L 258.808594 480.527344 L 258.644531 480.664062 L 258.476562 480.792969 L 258.300781 480.910156 L 258.117188 481.019531 L 257.929688 481.117188 L 257.734375 481.203125 L 257.53125 481.28125 L 257.320312 481.347656 L 257.105469 481.40625 L 256.882812 481.453125 L 256.652344 481.488281 L 256.417969 481.515625 L 256.175781 481.53125 L 255.925781 481.535156 L 255.609375 481.527344 L 255.304688 481.5 L 255.007812 481.453125 L 254.722656 481.390625 L 254.449219 481.3125 L 254.183594 481.210938 L 253.929688 481.097656 L 253.683594 480.960938 L 253.449219 480.808594 L 253.226562 480.640625 L 253.011719 480.449219 L 252.808594 480.246094 L 252.613281 480.023438 L 252.433594 479.78125 L 252.257812 479.523438 L 252.097656 479.25 L 251.949219 478.953125 L 251.808594 478.644531 L 251.675781 478.316406 L 251.558594 477.972656 L 251.453125 477.609375 L 251.355469 477.226562 L 251.273438 476.832031 L 251.199219 476.417969 L 251.140625 475.984375 L 251.089844 475.535156 L 251.050781 475.070312 L 251.023438 474.589844 L 251.003906 474.089844 L 251 473.574219 L 251.003906 473.109375 L 251.019531 472.660156 L 251.042969 472.21875 L 251.074219 471.789062 L 251.117188 471.371094 L 251.171875 470.964844 L 251.230469 470.570312 L 251.304688 470.183594 L 251.382812 469.8125 L 251.472656 469.449219 L 251.578125 469.101562 L 251.691406 468.765625 L 251.820312 468.449219 L 251.957031 468.148438 L 252.109375 467.863281 L 252.273438 467.589844 L 252.449219 467.335938 L 252.636719 467.097656 L 252.835938 466.871094 L 253.046875 466.664062 L 253.269531 466.472656 L 253.507812 466.304688 L 253.761719 466.152344 L 254.027344 466.023438 L 254.3125 465.914062 L 254.605469 465.824219 L 254.917969 465.753906 L 255.242188 465.703125 L 255.582031 465.671875 L 255.933594 465.664062 L 256.285156 465.671875 L 256.625 465.703125 L 256.945312 465.75 L 257.253906 465.820312 L 257.550781 465.90625 L 257.828125 466.015625 L 258.09375 466.144531 L 258.34375 466.289062 L 258.582031 466.457031 L 258.804688 466.644531 L 259.015625 466.847656 L 259.214844 467.066406 L 259.402344 467.304688 L 259.574219 467.554688 L 259.738281 467.824219 L 259.886719 468.109375 L 260.023438 468.410156 L 260.152344 468.726562 L 260.265625 469.058594 L 260.363281 469.40625 L 260.457031 469.765625 L 260.535156 470.140625 L 260.605469 470.527344 L 260.667969 470.921875 L 260.722656 471.335938 L 260.765625 471.757812 L 260.796875 472.191406 L 260.820312 472.640625 L 260.835938 473.101562 Z M 252.074219 473.574219 L 252.078125 474.039062 L 252.089844 474.488281 L 252.113281 474.921875 L 252.140625 475.339844 L 252.179688 475.742188 L 252.222656 476.128906 L 252.277344 476.496094 L 252.339844 476.851562 L 252.410156 477.1875 L 252.488281 477.507812 L 252.574219 477.808594 L 252.667969 478.09375 L 252.773438 478.367188 L 252.886719 478.621094 L 253.007812 478.863281 L 253.140625 479.085938 L 253.28125 479.292969 L 253.429688 479.488281 L 253.585938 479.664062 L 253.753906 479.828125 L 253.925781 479.972656 L 254.113281 480.105469 L 254.304688 480.21875 L 254.511719 480.320312 L 254.722656 480.40625 L 254.945312 480.472656 L 255.175781 480.527344 L 255.414062 480.566406 L 255.664062 480.589844 L 255.925781 480.597656 L 256.191406 480.589844 L 256.449219 480.566406 L 256.695312 480.527344 L 256.929688 480.472656 L 257.15625 480.40625 L 257.371094 480.320312 L 257.578125 480.21875 L 257.769531 480.105469 L 257.957031 479.972656 L 258.128906 479.828125 L 258.292969 479.664062 L 258.449219 479.488281 L 258.59375 479.292969 L 258.730469 479.085938 L 258.859375 478.859375 L 258.976562 478.617188 L 259.089844 478.363281 L 259.1875 478.089844 L 259.28125 477.800781 L 259.363281 477.496094 L 259.4375 477.175781 L 259.507812 476.839844 L 259.566406 476.488281 L 259.621094 476.117188 L 259.664062 475.734375 L 259.699219 475.335938 L 259.726562 474.917969 L 259.746094 474.484375 L 259.761719 474.039062 L 259.765625 473.574219 L 259.761719 473.144531 L 259.75 472.726562 L 259.734375 472.324219 L 259.707031 471.933594 L 259.675781 471.554688 L 259.636719 471.1875 L 259.59375 470.832031 L 259.542969 470.488281 L 259.480469 470.15625 L 259.414062 469.839844 L 259.34375 469.535156 L 259.261719 469.242188 L 259.167969 468.96875 L 259.066406 468.707031 L 258.953125 468.460938 L 258.832031 468.226562 L 258.699219 468.011719 L 258.558594 467.808594 L 258.40625 467.617188 L 258.246094 467.445312 L 258.070312 467.285156 L 257.886719 467.144531 L 257.6875 467.019531 L 257.476562 466.910156 L 257.25 466.820312 L 257.011719 466.746094 L 256.761719 466.6875 L 256.5 466.644531 L 256.222656 466.621094 L 255.933594 466.613281 L 255.652344 466.621094 L 255.382812 466.644531 L 255.121094 466.6875 L 254.875 466.75 L 254.640625 466.824219 L 254.417969 466.917969 L 254.207031 467.03125 L 254.007812 467.160156 L 253.820312 467.304688 L 253.648438 467.464844 L 253.484375 467.644531 L 253.328125 467.835938 L 253.183594 468.042969 L 253.046875 468.261719 L 252.921875 468.496094 L 252.804688 468.746094 L 252.699219 469.007812 L 252.601562 469.285156 L 252.511719 469.574219 L 252.433594 469.882812 L 252.367188 470.199219 L 252.304688 470.527344 L 252.25 470.867188 L 252.203125 471.222656 L 252.164062 471.585938 L 252.132812 471.960938 L 252.109375 472.34375 L 252.089844 472.742188 L 252.078125 473.152344 Z M 252.074219 473.574219 "/>
<path fill-rule="nonzero" fill="rgb(30.196078%, 30.196078%, 30.196078%)" fill-opacity="1" d="M 274.128906 477.390625 L 271.472656 477.390625 L 271.472656 481.324219 L 270.425781 481.324219 L 270.425781 477.390625 L 262.601562 477.390625 L 262.601562 476.546875 L 270.351562 465.820312 L 271.472656 465.820312 L 271.472656 476.410156 L 274.128906 476.410156 Z M 270.425781 476.410156 L 270.425781 469.355469 L 270.429688 469.261719 L 270.429688 469.167969 L 270.433594 469.078125 L 270.433594 468.988281 L 270.4375 468.902344 L 270.4375 468.820312 L 270.441406 468.734375 L 270.445312 468.65625 L 270.445312 468.578125 L 270.449219 468.5 L 270.449219 468.421875 L 270.453125 468.34375 L 270.453125 468.269531 L 270.457031 468.191406 L 270.457031 468.117188 L 270.460938 468.042969 L 270.460938 467.96875 L 270.464844 467.894531 L 270.46875 467.824219 L 270.46875 467.75 L 270.472656 467.679688 L 270.472656 467.605469 L 270.476562 467.535156 L 270.476562 467.460938 L 270.480469 467.386719 L 270.480469 467.3125 L 270.484375 467.238281 L 270.484375 467.164062 L 270.488281 467.089844 L 270.488281 467.011719 L 270.425781 467.011719 L 270.367188 467.113281 L 270.308594 467.210938 L 270.253906 467.308594 L 270.195312 467.40625 L 270.140625 467.5 L 270.082031 467.59375 L 269.972656 467.773438 L 269.921875 467.863281 L 269.867188 467.953125 L 269.816406 468.035156 L 269.761719 468.125 L 269.703125 468.214844 L 269.578125 468.402344 L 269.511719 468.5 L 269.441406 468.597656 L 269.367188 468.699219 L 269.292969 468.804688 L 269.214844 468.910156 L 263.773438 476.410156 Z M 270.425781 476.410156 "/>
<path fill-rule="nonzero" fill="rgb(30.196078%, 30.196078%, 30.196078%)" fill-opacity="1" d="M 427 473.574219 L 426.996094 473.953125 L 426.984375 474.328125 L 426.972656 474.691406 L 426.949219 475.046875 L 426.925781 475.390625 L 426.890625 475.730469 L 426.851562 476.058594 L 426.808594 476.378906 L 426.757812 476.6875 L 426.703125 476.988281 L 426.640625 477.28125 L 426.574219 477.566406 L 426.5 477.839844 L 426.417969 478.105469 L 426.332031 478.359375 L 426.238281 478.605469 L 426.140625 478.839844 L 426.035156 479.066406 L 425.921875 479.28125 L 425.804688 479.488281 L 425.683594 479.6875 L 425.554688 479.875 L 425.417969 480.050781 L 425.273438 480.21875 L 425.125 480.378906 L 424.96875 480.527344 L 424.804688 480.664062 L 424.636719 480.792969 L 424.460938 480.910156 L 424.277344 481.019531 L 424.089844 481.117188 L 423.890625 481.203125 L 423.691406 481.28125 L 423.480469 481.347656 L 423.265625 481.40625 L 423.042969 481.453125 L 422.8125 481.488281 L 422.574219 481.515625 L 422.332031 481.53125 L 422.082031 481.535156 L 421.769531 481.527344 L 421.460938 481.5 L 421.167969 481.453125 L 420.882812 481.390625 L 420.605469 481.3125 L 420.339844 481.210938 L 420.085938 481.097656 L 419.84375 480.960938 L 419.609375 480.808594 L 419.382812 480.640625 L 419.167969 480.449219 L 418.964844 480.246094 L 418.773438 480.023438 L 418.589844 479.78125 L 418.417969 479.523438 L 418.257812 479.25 L 418.105469 478.953125 L 417.964844 478.644531 L 417.835938 478.316406 L 417.71875 477.972656 L 417.609375 477.609375 L 417.515625 477.226562 L 417.433594 476.832031 L 417.359375 476.417969 L 417.296875 475.984375 L 417.246094 475.535156 L 417.207031 475.070312 L 417.179688 474.589844 L 417.164062 474.089844 L 417.15625 473.574219 L 417.164062 473.109375 L 417.175781 472.660156 L 417.199219 472.21875 L 417.234375 471.789062 L 417.277344 471.371094 L 417.328125 470.964844 L 417.390625 470.570312 L 417.460938 470.183594 L 417.542969 469.8125 L 417.632812 469.449219 L 417.734375 469.101562 L 417.851562 468.765625 L 417.976562 468.449219 L 418.117188 468.148438 L 418.269531 467.863281 L 418.429688 467.589844 L 418.605469 467.335938 L 418.792969 467.097656 L 418.992188 466.871094 L 419.203125 466.664062 L 419.429688 466.472656 L 419.667969 466.304688 L 419.921875 466.152344 L 420.1875 466.023438 L 420.46875 465.914062 L 420.765625 465.824219 L 421.078125 465.753906 L 421.402344 465.703125 L 421.742188 465.671875 L 422.09375 465.664062 L 422.445312 465.671875 L 422.78125 465.703125 L 423.105469 465.75 L 423.414062 465.820312 L 423.707031 465.90625 L 423.988281 466.015625 L 424.253906 466.144531 L 424.503906 466.289062 L 424.742188 466.457031 L 424.960938 466.644531 L 425.171875 466.847656 L 425.371094 467.066406 L 425.558594 467.304688 L 425.734375 467.554688 L 425.894531 467.824219 L 426.046875 468.109375 L 426.183594 468.410156 L 426.308594 468.726562 L 426.421875 469.058594 L 426.523438 469.40625 L 426.613281 469.765625 L 426.695312 470.140625 L 426.765625 470.527344 L 426.828125 470.921875 L 426.878906 471.335938 L 426.921875 471.757812 L 426.957031 472.191406 L 426.980469 472.640625 L 426.992188 473.101562 Z M 418.234375 473.574219 L 418.238281 474.039062 L 418.25 474.488281 L 418.269531 474.921875 L 418.300781 475.339844 L 418.335938 475.742188 L 418.382812 476.128906 L 418.433594 476.496094 L 418.496094 476.851562 L 418.566406 477.1875 L 418.644531 477.507812 L 418.730469 477.808594 L 418.828125 478.09375 L 418.933594 478.367188 L 419.046875 478.621094 L 419.167969 478.863281 L 419.296875 479.085938 L 419.4375 479.292969 L 419.585938 479.488281 L 419.746094 479.664062 L 419.910156 479.828125 L 420.085938 479.972656 L 420.269531 480.105469 L 420.464844 480.21875 L 420.667969 480.320312 L 420.882812 480.40625 L 421.101562 480.472656 L 421.335938 480.527344 L 421.574219 480.566406 L 421.824219 480.589844 L 422.082031 480.597656 L 422.351562 480.589844 L 422.605469 480.566406 L 422.851562 480.527344 L 423.089844 480.472656 L 423.316406 480.40625 L 423.53125 480.320312 L 423.734375 480.21875 L 423.929688 480.105469 L 424.113281 479.972656 L 424.289062 479.828125 L 424.453125 479.664062 L 424.605469 479.488281 L 424.753906 479.292969 L 424.890625 479.085938 L 425.019531 478.859375 L 425.136719 478.617188 L 425.246094 478.363281 L 425.347656 478.089844 L 425.4375 477.800781 L 425.523438 477.496094 L 425.597656 477.175781 L 425.664062 476.839844 L 425.726562 476.488281 L 425.777344 476.117188 L 425.820312 475.734375 L 425.859375 475.335938 L 425.886719 474.917969 L 425.90625 474.484375 L 425.917969 474.039062 L 425.921875 473.574219 L 425.917969 473.144531 L 425.910156 472.726562 L 425.890625 472.324219 L 425.867188 471.933594 L 425.835938 471.554688 L 425.796875 471.1875 L 425.75 470.832031 L 425.699219 470.488281 L 425.640625 470.15625 L 425.574219 469.839844 L 425.5 469.535156 L 425.417969 469.242188 L 425.328125 468.96875 L 425.226562 468.707031 L 425.113281 468.460938 L 424.992188 468.226562 L 424.859375 468.011719 L 424.71875 467.808594 L 424.566406 467.617188 L 424.402344 467.445312 L 424.230469 467.285156 L 424.042969 467.144531 L 423.847656 467.019531 L 423.632812 466.910156 L 423.410156 466.820312 L 423.171875 466.746094 L 422.921875 466.6875 L 422.660156 466.644531 L 422.382812 466.621094 L 422.09375 466.613281 L 421.8125 466.621094 L 421.539062 466.644531 L 421.28125 466.6875 L 421.035156 466.75 L 420.800781 466.824219 L 420.578125 466.917969 L 420.367188 467.03125 L 420.167969 467.160156 L 419.980469 467.304688 L 419.804688 467.464844 L 419.640625 467.644531 L 419.488281 467.835938 L 419.339844 468.042969 L 419.207031 468.261719 L 419.078125 468.496094 L 418.964844 468.746094 L 418.855469 469.007812 L 418.757812 469.285156 L 418.671875 469.574219 L 418.59375 469.882812 L 418.523438 470.199219 L 418.464844 470.527344 L 418.410156 470.867188 L 418.363281 471.222656 L 418.324219 471.585938 L 418.292969 471.960938 L 418.265625 472.34375 L 418.246094 472.742188 L 418.238281 473.152344 Z M 418.234375 473.574219 "/>
<path fill-rule="nonzero" fill="rgb(30.196078%, 30.196078%, 30.196078%)" fill-opacity="1" d="M 429.984375 480.574219 L 429.984375 480.484375 L 429.992188 480.398438 L 430 480.316406 L 430.015625 480.238281 L 430.035156 480.167969 L 430.058594 480.097656 L 430.085938 480.035156 L 430.117188 479.976562 L 430.152344 479.917969 L 430.195312 479.871094 L 430.238281 479.820312 L 430.285156 479.777344 L 430.339844 479.738281 L 430.394531 479.707031 L 430.453125 479.679688 L 430.519531 479.65625 L 430.585938 479.640625 L 430.660156 479.625 L 430.734375 479.617188 L 430.90625 479.617188 L 430.988281 479.625 L 431.066406 479.640625 L 431.140625 479.65625 L 431.207031 479.679688 L 431.273438 479.707031 L 431.332031 479.738281 L 431.386719 479.777344 L 431.4375 479.820312 L 431.480469 479.871094 L 431.519531 479.917969 L 431.589844 480.035156 L 431.617188 480.097656 L 431.640625 480.167969 L 431.65625 480.238281 L 431.671875 480.316406 L 431.683594 480.398438 L 431.6875 480.484375 L 431.691406 480.574219 L 431.6875 480.667969 L 431.683594 480.753906 L 431.671875 480.835938 L 431.65625 480.914062 L 431.640625 480.988281 L 431.617188 481.058594 L 431.589844 481.121094 L 431.554688 481.183594 L 431.519531 481.242188 L 431.480469 481.292969 L 431.4375 481.339844 L 431.386719 481.382812 L 431.332031 481.421875 L 431.273438 481.453125 L 431.207031 481.484375 L 431.140625 481.503906 L 431.066406 481.523438 L 430.988281 481.535156 L 430.90625 481.542969 L 430.816406 481.546875 L 430.734375 481.542969 L 430.660156 481.535156 L 430.585938 481.523438 L 430.453125 481.484375 L 430.394531 481.453125 L 430.339844 481.421875 L 430.285156 481.382812 L 430.238281 481.339844 L 430.195312 481.292969 L 430.152344 481.242188 L 430.117188 481.183594 L 430.085938 481.121094 L 430.058594 481.058594 L 430.035156 480.988281 L 430.015625 480.914062 L 430 480.835938 L 429.992188 480.753906 L 429.984375 480.667969 Z M 429.984375 480.574219 "/>
<path fill-rule="nonzero" fill="rgb(30.196078%, 30.196078%, 30.196078%)" fill-opacity="1" d="M 444.472656 473.574219 L 444.472656 473.953125 L 444.460938 474.328125 L 444.449219 474.691406 L 444.425781 475.046875 L 444.402344 475.390625 L 444.367188 475.730469 L 444.328125 476.058594 L 444.285156 476.378906 L 444.234375 476.6875 L 444.179688 476.988281 L 444.117188 477.28125 L 444.046875 477.566406 L 443.972656 477.839844 L 443.894531 478.105469 L 443.808594 478.359375 L 443.714844 478.605469 L 443.617188 478.839844 L 443.511719 479.066406 L 443.398438 479.28125 L 443.28125 479.488281 L 443.160156 479.6875 L 443.027344 479.875 L 442.890625 480.050781 L 442.75 480.21875 L 442.597656 480.378906 L 442.445312 480.527344 L 442.28125 480.664062 L 442.113281 480.792969 L 441.9375 480.910156 L 441.753906 481.019531 L 441.5625 481.117188 L 441.367188 481.203125 L 441.164062 481.28125 L 440.957031 481.347656 L 440.742188 481.40625 L 440.519531 481.453125 L 440.289062 481.488281 L 440.050781 481.515625 L 439.808594 481.53125 L 439.558594 481.535156 L 439.242188 481.527344 L 438.9375 481.5 L 438.644531 481.453125 L 438.359375 481.390625 L 438.082031 481.3125 L 437.816406 481.210938 L 437.5625 481.097656 L 437.320312 480.960938 L 437.082031 480.808594 L 436.859375 480.640625 L 436.644531 480.449219 L 436.441406 480.246094 L 436.25 480.023438 L 436.066406 479.78125 L 435.894531 479.523438 L 435.734375 479.25 L 435.582031 478.953125 L 435.441406 478.644531 L 435.3125 478.316406 L 435.191406 477.972656 L 435.085938 477.609375 L 434.992188 477.226562 L 434.90625 476.832031 L 434.835938 476.417969 L 434.773438 475.984375 L 434.722656 475.535156 L 434.683594 475.070312 L 434.65625 474.589844 L 434.640625 474.089844 L 434.632812 473.574219 L 434.640625 473.109375 L 434.652344 472.660156 L 434.675781 472.21875 L 434.710938 471.789062 L 434.753906 471.371094 L 434.804688 470.964844 L 434.867188 470.570312 L 434.9375 470.183594 L 435.019531 469.8125 L 435.109375 469.449219 L 435.210938 469.101562 L 435.328125 468.765625 L 435.453125 468.449219 L 435.59375 468.148438 L 435.742188 467.863281 L 435.90625 467.589844 L 436.082031 467.335938 L 436.269531 467.097656 L 436.46875 466.871094 L 436.679688 466.664062 L 436.90625 466.472656 L 437.144531 466.304688 L 437.398438 466.152344 L 437.664062 466.023438 L 437.945312 465.914062 L 438.242188 465.824219 L 438.550781 465.753906 L 438.878906 465.703125 L 439.214844 465.671875 L 439.570312 465.664062 L 439.921875 465.671875 L 440.257812 465.703125 L 440.582031 465.75 L 440.890625 465.820312 L 441.183594 465.90625 L 441.464844 466.015625 L 441.730469 466.144531 L 441.980469 466.289062 L 442.214844 466.457031 L 442.4375 466.644531 L 442.648438 466.847656 L 442.847656 467.066406 L 443.035156 467.304688 L 443.210938 467.554688 L 443.371094 467.824219 L 443.523438 468.109375 L 443.660156 468.410156 L 443.785156 468.726562 L 443.898438 469.058594 L 444 469.40625 L 444.089844 469.765625 L 444.171875 470.140625 L 444.242188 470.527344 L 444.304688 470.921875 L 444.355469 471.335938 L 444.398438 471.757812 L 444.429688 472.191406 L 444.457031 472.640625 L 444.46875 473.101562 Z M 435.710938 473.574219 L 435.714844 474.039062 L 435.726562 474.488281 L 435.746094 474.921875 L 435.777344 475.339844 L 435.8125 475.742188 L 435.859375 476.128906 L 435.910156 476.496094 L 435.972656 476.851562 L 436.042969 477.1875 L 436.121094 477.507812 L 436.207031 477.808594 L 436.304688 478.09375 L 436.40625 478.367188 L 436.519531 478.621094 L 436.644531 478.863281 L 436.773438 479.085938 L 436.914062 479.292969 L 437.0625 479.488281 L 437.21875 479.664062 L 437.386719 479.828125 L 437.5625 479.972656 L 437.746094 480.105469 L 437.941406 480.21875 L 438.144531 480.320312 L 438.355469 480.40625 L 438.578125 480.472656 L 438.808594 480.527344 L 439.050781 480.566406 L 439.300781 480.589844 L 439.558594 480.597656 L 439.828125 480.589844 L 440.082031 480.566406 L 440.328125 480.527344 L 440.566406 480.472656 L 440.789062 480.40625 L 441.007812 480.320312 L 441.210938 480.21875 L 441.40625 480.105469 L 441.589844 479.972656 L 441.765625 479.828125 L 441.929688 479.664062 L 442.082031 479.488281 L 442.230469 479.292969 L 442.367188 479.085938 L 442.492188 478.859375 L 442.613281 478.617188 L 442.722656 478.363281 L 442.824219 478.089844 L 442.914062 477.800781 L 442.996094 477.496094 L 443.074219 477.175781 L 443.140625 476.839844 L 443.203125 476.488281 L 443.253906 476.117188 L 443.296875 475.734375 L 443.335938 475.335938 L 443.363281 474.917969 L 443.382812 474.484375 L 443.394531 474.039062 L 443.398438 473.574219 L 443.394531 473.144531 L 443.382812 472.726562 L 443.367188 472.324219 L 443.34375 471.933594 L 443.3125 471.554688 L 443.273438 471.1875 L 443.226562 470.832031 L 443.175781 470.488281 L 443.117188 470.15625 L 443.050781 469.839844 L 442.976562 469.535156 L 442.894531 469.242188 L 442.804688 468.96875 L 442.699219 468.707031 L 442.589844 468.460938 L 442.46875 468.226562 L 442.335938 468.011719 L 442.191406 467.808594 L 442.042969 467.617188 L 441.878906 467.445312 L 441.707031 467.285156 L 441.519531 467.144531 L 441.320312 467.019531 L 441.109375 466.910156 L 440.886719 466.820312 L 440.648438 466.746094 L 440.398438 466.6875 L 440.136719 466.644531 L 439.859375 466.621094 L 439.570312 466.613281 L 439.285156 466.621094 L 439.015625 466.644531 L 438.757812 466.6875 L 438.511719 466.75 L 438.273438 466.824219 L 438.050781 466.917969 L 437.839844 467.03125 L 437.644531 467.160156 L 437.457031 467.304688 L 437.28125 467.464844 L 437.117188 467.644531 L 436.960938 467.835938 L 436.816406 468.042969 L 436.683594 468.261719 L 436.554688 468.496094 L 436.441406 468.746094 L 436.332031 469.007812 L 436.234375 469.285156 L 436.148438 469.574219 L 436.070312 469.882812 L 436 470.199219 L 435.9375 470.527344 L 435.886719 470.867188 L 435.839844 471.222656 L 435.800781 471.585938 L 435.765625 471.960938 L 435.742188 472.34375 L 435.722656 472.742188 L 435.714844 473.152344 Z M 435.710938 473.574219 "/>
<path fill-rule="nonzero" fill="rgb(30.196078%, 30.196078%, 30.196078%)" fill-opacity="1" d="M 456.804688 473.574219 L 456.800781 473.953125 L 456.792969 474.328125 L 456.777344 474.691406 L 456.757812 475.046875 L 456.730469 475.390625 L 456.699219 475.730469 L 456.660156 476.058594 L 456.613281 476.378906 L 456.5625 476.6875 L 456.507812 476.988281 L 456.445312 477.28125 L 456.378906 477.566406 L 456.304688 477.839844 L 456.222656 478.105469 L 456.136719 478.359375 L 456.042969 478.605469 L 455.945312 478.839844 L 455.839844 479.066406 L 455.730469 479.28125 L 455.613281 479.488281 L 455.488281 479.6875 L 455.359375 479.875 L 455.222656 480.050781 L 455.078125 480.21875 L 454.929688 480.378906 L 454.773438 480.527344 L 454.609375 480.664062 L 454.441406 480.792969 L 454.265625 480.910156 L 454.082031 481.019531 L 453.894531 481.117188 L 453.699219 481.203125 L 453.496094 481.28125 L 453.285156 481.347656 L 453.070312 481.40625 L 452.847656 481.453125 L 452.617188 481.488281 L 452.382812 481.515625 L 452.136719 481.53125 L 451.890625 481.535156 L 451.574219 481.527344 L 451.269531 481.5 L 450.972656 481.453125 L 450.6875 481.390625 L 450.414062 481.3125 L 450.148438 481.210938 L 449.890625 481.097656 L 449.648438 480.960938 L 449.414062 480.808594 L 449.1875 480.640625 L 448.976562 480.449219 L 448.769531 480.246094 L 448.578125 480.023438 L 448.394531 479.78125 L 448.222656 479.523438 L 448.0625 479.25 L 447.910156 478.953125 L 447.769531 478.644531 L 447.640625 478.316406 L 447.523438 477.972656 L 447.417969 477.609375 L 447.320312 477.226562 L 447.238281 476.832031 L 447.164062 476.417969 L 447.101562 475.984375 L 447.054688 475.535156 L 447.015625 475.070312 L 446.984375 474.589844 L 446.96875 474.089844 L 446.964844 473.574219 L 446.96875 473.109375 L 446.980469 472.660156 L 447.007812 472.21875 L 447.039062 471.789062 L 447.082031 471.371094 L 447.132812 470.964844 L 447.195312 470.570312 L 447.265625 470.183594 L 447.347656 469.8125 L 447.4375 469.449219 L 447.542969 469.101562 L 447.65625 468.765625 L 447.78125 468.449219 L 447.921875 468.148438 L 448.074219 467.863281 L 448.238281 467.589844 L 448.410156 467.335938 L 448.597656 467.097656 L 448.796875 466.871094 L 449.007812 466.664062 L 449.234375 466.472656 L 449.472656 466.304688 L 449.726562 466.152344 L 449.992188 466.023438 L 450.273438 465.914062 L 450.570312 465.824219 L 450.882812 465.753906 L 451.207031 465.703125 L 451.546875 465.671875 L 451.898438 465.664062 L 452.25 465.671875 L 452.585938 465.703125 L 452.910156 465.75 L 453.21875 465.820312 L 453.511719 465.90625 L 453.792969 466.015625 L 454.058594 466.144531 L 454.308594 466.289062 L 454.546875 466.457031 L 454.769531 466.644531 L 454.980469 466.847656 L 455.179688 467.066406 L 455.363281 467.304688 L 455.539062 467.554688 L 455.703125 467.824219 L 455.851562 468.109375 L 455.988281 468.410156 L 456.113281 468.726562 L 456.226562 469.058594 L 456.328125 469.40625 L 456.417969 469.765625 L 456.5 470.140625 L 456.570312 470.527344 L 456.632812 470.921875 L 456.683594 471.335938 L 456.726562 471.757812 L 456.761719 472.191406 L 456.785156 472.640625 L 456.800781 473.101562 Z M 448.039062 473.574219 L 448.042969 474.039062 L 448.054688 474.488281 L 448.074219 474.921875 L 448.105469 475.339844 L 448.140625 475.742188 L 448.1875 476.128906 L 448.242188 476.496094 L 448.300781 476.851562 L 448.371094 477.1875 L 448.449219 477.507812 L 448.539062 477.808594 L 448.632812 478.09375 L 448.738281 478.367188 L 448.851562 478.621094 L 448.972656 478.863281 L 449.105469 479.085938 L 449.242188 479.292969 L 449.390625 479.488281 L 449.550781 479.664062 L 449.714844 479.828125 L 449.890625 479.972656 L 450.078125 480.105469 L 450.269531 480.21875 L 450.472656 480.320312 L 450.6875 480.40625 L 450.910156 480.472656 L 451.140625 480.527344 L 451.378906 480.566406 L 451.628906 480.589844 L 451.890625 480.597656 L 452.15625 480.589844 L 452.414062 480.566406 L 452.660156 480.527344 L 452.894531 480.472656 L 453.121094 480.40625 L 453.335938 480.320312 L 453.539062 480.21875 L 453.734375 480.105469 L 453.917969 479.972656 L 454.09375 479.828125 L 454.257812 479.664062 L 454.414062 479.488281 L 454.558594 479.292969 L 454.695312 479.085938 L 454.824219 478.859375 L 454.941406 478.617188 L 455.050781 478.363281 L 455.152344 478.089844 L 455.246094 477.800781 L 455.328125 477.496094 L 455.402344 477.175781 L 455.472656 476.839844 L 455.53125 476.488281 L 455.582031 476.117188 L 455.628906 475.734375 L 455.664062 475.335938 L 455.691406 474.917969 L 455.710938 474.484375 L 455.722656 474.039062 L 455.726562 473.574219 L 455.722656 473.144531 L 455.714844 472.726562 L 455.695312 472.324219 L 455.671875 471.933594 L 455.640625 471.554688 L 455.601562 471.1875 L 455.558594 470.832031 L 455.503906 470.488281 L 455.445312 470.15625 L 455.378906 469.839844 L 455.308594 469.535156 L 455.226562 469.242188 L 455.132812 468.96875 L 455.03125 468.707031 L 454.917969 468.460938 L 454.796875 468.226562 L 454.664062 468.011719 L 454.523438 467.808594 L 454.371094 467.617188 L 454.210938 467.445312 L 454.035156 467.285156 L 453.851562 467.144531 L 453.652344 467.019531 L 453.441406 466.910156 L 453.214844 466.820312 L 452.976562 466.746094 L 452.726562 466.6875 L 452.464844 466.644531 L 452.1875 466.621094 L 451.898438 466.613281 L 451.617188 466.621094 L 451.34375 466.644531 L 451.085938 466.6875 L 450.839844 466.75 L 450.605469 466.824219 L 450.382812 466.917969 L 450.171875 467.03125 L 449.972656 467.160156 L 449.785156 467.304688 L 449.609375 467.464844 L 449.445312 467.644531 L 449.292969 467.835938 L 449.148438 468.042969 L 449.011719 468.261719 L 448.886719 468.496094 L 448.769531 468.746094 L 448.660156 469.007812 L 448.5625 469.285156 L 448.476562 469.574219 L 448.398438 469.882812 L 448.328125 470.199219 L 448.269531 470.527344 L 448.214844 470.867188 L 448.167969 471.222656 L 448.128906 471.585938 L 448.097656 471.960938 L 448.070312 472.34375 L 448.054688 472.742188 L 448.042969 473.152344 Z M 448.039062 473.574219 "/>
<path fill-rule="nonzero" fill="rgb(30.196078%, 30.196078%, 30.196078%)" fill-opacity="1" d="M 614.109375 473.574219 L 614.105469 473.953125 L 614.097656 474.328125 L 614.082031 474.691406 L 614.0625 475.046875 L 614.035156 475.390625 L 614 475.730469 L 613.964844 476.058594 L 613.917969 476.378906 L 613.867188 476.6875 L 613.8125 476.988281 L 613.75 477.28125 L 613.683594 477.566406 L 613.609375 477.839844 L 613.527344 478.105469 L 613.441406 478.359375 L 613.347656 478.605469 L 613.25 478.839844 L 613.144531 479.066406 L 613.035156 479.28125 L 612.917969 479.488281 L 612.792969 479.6875 L 612.664062 479.875 L 612.527344 480.050781 L 612.382812 480.21875 L 612.234375 480.378906 L 612.078125 480.527344 L 611.914062 480.664062 L 611.746094 480.792969 L 611.570312 480.910156 L 611.386719 481.019531 L 611.199219 481.117188 L 611.003906 481.203125 L 610.800781 481.28125 L 610.589844 481.347656 L 610.375 481.40625 L 610.152344 481.453125 L 609.921875 481.488281 L 609.6875 481.515625 L 609.441406 481.53125 L 609.191406 481.535156 L 608.878906 481.527344 L 608.570312 481.5 L 608.277344 481.453125 L 607.992188 481.390625 L 607.714844 481.3125 L 607.453125 481.210938 L 607.195312 481.097656 L 606.953125 480.960938 L 606.71875 480.808594 L 606.492188 480.640625 L 606.277344 480.449219 L 606.074219 480.246094 L 605.882812 480.023438 L 605.699219 479.78125 L 605.527344 479.523438 L 605.367188 479.25 L 605.214844 478.953125 L 605.074219 478.644531 L 604.945312 478.316406 L 604.828125 477.972656 L 604.71875 477.609375 L 604.625 477.226562 L 604.542969 476.832031 L 604.46875 476.417969 L 604.40625 475.984375 L 604.355469 475.535156 L 604.316406 475.070312 L 604.289062 474.589844 L 604.273438 474.089844 L 604.269531 473.574219 L 604.273438 473.109375 L 604.285156 472.660156 L 604.308594 472.21875 L 604.34375 471.789062 L 604.386719 471.371094 L 604.4375 470.964844 L 604.5 470.570312 L 604.570312 470.183594 L 604.652344 469.8125 L 604.742188 469.449219 L 604.84375 469.101562 L 604.960938 468.765625 L 605.085938 468.449219 L 605.226562 468.148438 L 605.378906 467.863281 L 605.539062 467.589844 L 605.714844 467.335938 L 605.902344 467.097656 L 606.101562 466.871094 L 606.3125 466.664062 L 606.539062 466.472656 L 606.777344 466.304688 L 607.03125 466.152344 L 607.296875 466.023438 L 607.578125 465.914062 L 607.875 465.824219 L 608.1875 465.753906 L 608.511719 465.703125 L 608.851562 465.671875 L 609.203125 465.664062 L 609.554688 465.671875 L 609.890625 465.703125 L 610.214844 465.75 L 610.523438 465.820312 L 610.816406 465.90625 L 611.097656 466.015625 L 611.363281 466.144531 L 611.613281 466.289062 L 611.851562 466.457031 L 612.074219 466.644531 L 612.285156 466.847656 L 612.484375 467.066406 L 612.667969 467.304688 L 612.84375 467.554688 L 613.007812 467.824219 L 613.15625 468.109375 L 613.292969 468.410156 L 613.417969 468.726562 L 613.53125 469.058594 L 613.632812 469.40625 L 613.722656 469.765625 L 613.804688 470.140625 L 613.875 470.527344 L 613.9375 470.921875 L 613.988281 471.335938 L 614.03125 471.757812 L 614.066406 472.191406 L 614.089844 472.640625 L 614.101562 473.101562 Z M 605.34375 473.574219 L 605.347656 474.039062 L 605.359375 474.488281 L 605.378906 474.921875 L 605.410156 475.339844 L 605.445312 475.742188 L 605.492188 476.128906 L 605.546875 476.496094 L 605.605469 476.851562 L 605.675781 477.1875 L 605.753906 477.507812 L 605.839844 477.808594 L 605.9375 478.09375 L 606.042969 478.367188 L 606.15625 478.621094 L 606.277344 478.863281 L 606.40625 479.085938 L 606.546875 479.292969 L 606.695312 479.488281 L 606.855469 479.664062 L 607.019531 479.828125 L 607.195312 479.972656 L 607.378906 480.105469 L 607.574219 480.21875 L 607.777344 480.320312 L 607.992188 480.40625 L 608.210938 480.472656 L 608.445312 480.527344 L 608.683594 480.566406 L 608.933594 480.589844 L 609.191406 480.597656 L 609.460938 480.589844 L 609.714844 480.566406 L 609.964844 480.527344 L 610.199219 480.472656 L 610.425781 480.40625 L 610.640625 480.320312 L 610.84375 480.21875 L 611.039062 480.105469 L 611.222656 479.972656 L 611.398438 479.828125 L 611.5625 479.664062 L 611.71875 479.488281 L 611.863281 479.292969 L 612 479.085938 L 612.128906 478.859375 L 612.246094 478.617188 L 612.355469 478.363281 L 612.457031 478.089844 L 612.550781 477.800781 L 612.632812 477.496094 L 612.707031 477.175781 L 612.777344 476.839844 L 612.835938 476.488281 L 612.886719 476.117188 L 612.933594 475.734375 L 612.96875 475.335938 L 612.996094 474.917969 L 613.015625 474.484375 L 613.027344 474.039062 L 613.03125 473.574219 L 613.027344 473.144531 L 613.019531 472.726562 L 613 472.324219 L 612.976562 471.933594 L 612.945312 471.554688 L 612.90625 471.1875 L 612.863281 470.832031 L 612.808594 470.488281 L 612.75 470.15625 L 612.683594 469.839844 L 612.613281 469.535156 L 612.53125 469.242188 L 612.4375 468.96875 L 612.335938 468.707031 L 612.222656 468.460938 L 612.101562 468.226562 L 611.96875 468.011719 L 611.828125 467.808594 L 611.675781 467.617188 L 611.511719 467.445312 L 611.339844 467.285156 L 611.15625 467.144531 L 610.957031 467.019531 L 610.742188 466.910156 L 610.519531 466.820312 L 610.28125 466.746094 L 610.03125 466.6875 L 609.769531 466.644531 L 609.492188 466.621094 L 609.203125 466.613281 L 608.921875 466.621094 L 608.648438 466.644531 L 608.390625 466.6875 L 608.144531 466.75 L 607.910156 466.824219 L 607.6875 466.917969 L 607.476562 467.03125 L 607.277344 467.160156 L 607.089844 467.304688 L 606.914062 467.464844 L 606.75 467.644531 L 606.597656 467.835938 L 606.453125 468.042969 L 606.316406 468.261719 L 606.191406 468.496094 L 606.074219 468.746094 L 605.964844 469.007812 L 605.867188 469.285156 L 605.78125 469.574219 L 605.703125 469.882812 L 605.632812 470.199219 L 605.574219 470.527344 L 605.519531 470.867188 L 605.472656 471.222656 L 605.433594 471.585938 L 605.402344 471.960938 L 605.375 472.34375 L 605.359375 472.742188 L 605.347656 473.152344 Z M 605.34375 473.574219 "/>
<path fill-rule="nonzero" fill="rgb(30.196078%, 30.196078%, 30.196078%)" fill-opacity="1" d="M 617.09375 480.574219 L 617.09375 480.484375 L 617.101562 480.398438 L 617.113281 480.316406 L 617.125 480.238281 L 617.144531 480.167969 L 617.167969 480.097656 L 617.195312 480.035156 L 617.226562 479.976562 L 617.261719 479.917969 L 617.304688 479.871094 L 617.347656 479.820312 L 617.394531 479.777344 L 617.449219 479.738281 L 617.503906 479.707031 L 617.566406 479.679688 L 617.628906 479.65625 L 617.695312 479.640625 L 617.769531 479.625 L 617.847656 479.617188 L 618.015625 479.617188 L 618.097656 479.625 L 618.175781 479.640625 L 618.25 479.65625 L 618.320312 479.679688 L 618.382812 479.707031 L 618.441406 479.738281 L 618.496094 479.777344 L 618.546875 479.820312 L 618.589844 479.871094 L 618.628906 479.917969 L 618.667969 479.976562 L 618.699219 480.035156 L 618.726562 480.097656 L 618.75 480.167969 L 618.769531 480.238281 L 618.78125 480.316406 L 618.792969 480.398438 L 618.800781 480.484375 L 618.800781 480.667969 L 618.792969 480.753906 L 618.78125 480.835938 L 618.769531 480.914062 L 618.75 480.988281 L 618.726562 481.058594 L 618.699219 481.121094 L 618.667969 481.183594 L 618.628906 481.242188 L 618.589844 481.292969 L 618.546875 481.339844 L 618.496094 481.382812 L 618.441406 481.421875 L 618.382812 481.453125 L 618.320312 481.484375 L 618.25 481.503906 L 618.175781 481.523438 L 618.097656 481.535156 L 618.015625 481.542969 L 617.925781 481.546875 L 617.847656 481.542969 L 617.769531 481.535156 L 617.695312 481.523438 L 617.628906 481.503906 L 617.566406 481.484375 L 617.503906 481.453125 L 617.449219 481.421875 L 617.394531 481.382812 L 617.347656 481.339844 L 617.304688 481.292969 L 617.261719 481.242188 L 617.226562 481.183594 L 617.195312 481.121094 L 617.167969 481.058594 L 617.144531 480.988281 L 617.125 480.914062 L 617.113281 480.835938 L 617.101562 480.753906 L 617.09375 480.667969 Z M 617.09375 480.574219 "/>
<path fill-rule="nonzero" fill="rgb(30.196078%, 30.196078%, 30.196078%)" fill-opacity="1" d="M 631.585938 473.574219 L 631.582031 473.953125 L 631.574219 474.328125 L 631.558594 474.691406 L 631.535156 475.046875 L 631.511719 475.390625 L 631.476562 475.730469 L 631.441406 476.058594 L 631.394531 476.378906 L 631.34375 476.6875 L 631.289062 476.988281 L 631.226562 477.28125 L 631.160156 477.566406 L 631.085938 477.839844 L 631.003906 478.105469 L 630.917969 478.359375 L 630.824219 478.605469 L 630.726562 478.839844 L 630.621094 479.066406 L 630.507812 479.28125 L 630.390625 479.488281 L 630.269531 479.6875 L 630.140625 479.875 L 630.003906 480.050781 L 629.859375 480.21875 L 629.710938 480.378906 L 629.554688 480.527344 L 629.390625 480.664062 L 629.222656 480.792969 L 629.046875 480.910156 L 628.863281 481.019531 L 628.675781 481.117188 L 628.476562 481.203125 L 628.277344 481.28125 L 628.066406 481.347656 L 627.851562 481.40625 L 627.628906 481.453125 L 627.398438 481.488281 L 627.160156 481.515625 L 626.917969 481.53125 L 626.667969 481.535156 L 626.355469 481.527344 L 626.046875 481.5 L 625.753906 481.453125 L 625.46875 481.390625 L 625.191406 481.3125 L 624.929688 481.210938 L 624.671875 481.097656 L 624.429688 480.960938 L 624.195312 480.808594 L 623.96875 480.640625 L 623.753906 480.449219 L 623.550781 480.246094 L 623.359375 480.023438 L 623.175781 479.78125 L 623.003906 479.523438 L 622.84375 479.25 L 622.691406 478.953125 L 622.550781 478.644531 L 622.421875 478.316406 L 622.304688 477.972656 L 622.195312 477.609375 L 622.101562 477.226562 L 622.019531 476.832031 L 621.945312 476.417969 L 621.882812 475.984375 L 621.832031 475.535156 L 621.792969 475.070312 L 621.765625 474.589844 L 621.75 474.089844 L 621.742188 473.574219 L 621.75 473.109375 L 621.761719 472.660156 L 621.785156 472.21875 L 621.820312 471.789062 L 621.863281 471.371094 L 621.914062 470.964844 L 621.976562 470.570312 L 622.046875 470.183594 L 622.128906 469.8125 L 622.21875 469.449219 L 622.320312 469.101562 L 622.4375 468.765625 L 622.5625 468.449219 L 622.703125 468.148438 L 622.855469 467.863281 L 623.015625 467.589844 L 623.191406 467.335938 L 623.378906 467.097656 L 623.578125 466.871094 L 623.789062 466.664062 L 624.015625 466.472656 L 624.253906 466.304688 L 624.507812 466.152344 L 624.773438 466.023438 L 625.054688 465.914062 L 625.351562 465.824219 L 625.664062 465.753906 L 625.988281 465.703125 L 626.328125 465.671875 L 626.679688 465.664062 L 627.03125 465.671875 L 627.367188 465.703125 L 627.691406 465.75 L 628 465.820312 L 628.292969 465.90625 L 628.574219 466.015625 L 628.839844 466.144531 L 629.089844 466.289062 L 629.328125 466.457031 L 629.546875 466.644531 L 629.761719 466.847656 L 629.957031 467.066406 L 630.144531 467.304688 L 630.320312 467.554688 L 630.480469 467.824219 L 630.632812 468.109375 L 630.769531 468.410156 L 630.894531 468.726562 L 631.007812 469.058594 L 631.109375 469.40625 L 631.199219 469.765625 L 631.28125 470.140625 L 631.351562 470.527344 L 631.414062 470.921875 L 631.464844 471.335938 L 631.507812 471.757812 L 631.542969 472.191406 L 631.566406 472.640625 L 631.578125 473.101562 Z M 622.820312 473.574219 L 622.824219 474.039062 L 622.835938 474.488281 L 622.855469 474.921875 L 622.886719 475.339844 L 622.921875 475.742188 L 622.96875 476.128906 L 623.019531 476.496094 L 623.082031 476.851562 L 623.152344 477.1875 L 623.230469 477.507812 L 623.316406 477.808594 L 623.414062 478.09375 L 623.519531 478.367188 L 623.632812 478.621094 L 623.753906 478.863281 L 623.882812 479.085938 L 624.023438 479.292969 L 624.171875 479.488281 L 624.332031 479.664062 L 624.496094 479.828125 L 624.671875 479.972656 L 624.855469 480.105469 L 625.050781 480.21875 L 625.253906 480.320312 L 625.46875 480.40625 L 625.6875 480.472656 L 625.921875 480.527344 L 626.160156 480.566406 L 626.410156 480.589844 L 626.667969 480.597656 L 626.9375 480.589844 L 627.191406 480.566406 L 627.4375 480.527344 L 627.675781 480.472656 L 627.902344 480.40625 L 628.117188 480.320312 L 628.320312 480.21875 L 628.515625 480.105469 L 628.699219 479.972656 L 628.875 479.828125 L 629.039062 479.664062 L 629.191406 479.488281 L 629.339844 479.292969 L 629.476562 479.085938 L 629.605469 478.859375 L 629.722656 478.617188 L 629.832031 478.363281 L 629.933594 478.089844 L 630.023438 477.800781 L 630.109375 477.496094 L 630.183594 477.175781 L 630.25 476.839844 L 630.3125 476.488281 L 630.363281 476.117188 L 630.410156 475.734375 L 630.445312 475.335938 L 630.472656 474.917969 L 630.492188 474.484375 L 630.503906 474.039062 L 630.507812 473.574219 L 630.503906 473.144531 L 630.496094 472.726562 L 630.476562 472.324219 L 630.453125 471.933594 L 630.421875 471.554688 L 630.382812 471.1875 L 630.335938 470.832031 L 630.285156 470.488281 L 630.226562 470.15625 L 630.160156 469.839844 L 630.089844 469.535156 L 630.003906 469.242188 L 629.914062 468.96875 L 629.8125 468.707031 L 629.699219 468.460938 L 629.578125 468.226562 L 629.445312 468.011719 L 629.304688 467.808594 L 629.152344 467.617188 L 628.988281 467.445312 L 628.816406 467.285156 L 628.628906 467.144531 L 628.433594 467.019531 L 628.21875 466.910156 L 627.996094 466.820312 L 627.757812 466.746094 L 627.507812 466.6875 L 627.246094 466.644531 L 626.96875 466.621094 L 626.679688 466.613281 L 626.398438 466.621094 L 626.125 466.644531 L 625.867188 466.6875 L 625.621094 466.75 L 625.386719 466.824219 L 625.164062 466.917969 L 624.953125 467.03125 L 624.753906 467.160156 L 624.566406 467.304688 L 624.390625 467.464844 L 624.226562 467.644531 L 624.074219 467.835938 L 623.925781 468.042969 L 623.792969 468.261719 L 623.667969 468.496094 L 623.550781 468.746094 L 623.441406 469.007812 L 623.34375 469.285156 L 623.257812 469.574219 L 623.179688 469.882812 L 623.109375 470.199219 L 623.050781 470.527344 L 622.996094 470.867188 L 622.949219 471.222656 L 622.910156 471.585938 L 622.878906 471.960938 L 622.851562 472.34375 L 622.835938 472.742188 L 622.824219 473.152344 Z M 622.820312 473.574219 "/>
<path fill-rule="nonzero" fill="rgb(30.196078%, 30.196078%, 30.196078%)" fill-opacity="1" d="M 644.875 477.390625 L 642.214844 477.390625 L 642.214844 481.324219 L 641.171875 481.324219 L 641.171875 477.390625 L 633.34375 477.390625 L 633.34375 476.546875 L 641.097656 465.820312 L 642.214844 465.820312 L 642.214844 476.410156 L 644.875 476.410156 Z M 641.171875 476.410156 L 641.171875 469.261719 L 641.175781 469.167969 L 641.175781 469.078125 L 641.179688 468.988281 L 641.183594 468.902344 L 641.183594 468.820312 L 641.1875 468.734375 L 641.1875 468.65625 L 641.191406 468.578125 L 641.191406 468.5 L 641.195312 468.421875 L 641.195312 468.34375 L 641.199219 468.269531 L 641.199219 468.191406 L 641.203125 468.117188 L 641.203125 468.042969 L 641.210938 467.894531 L 641.210938 467.824219 L 641.214844 467.75 L 641.214844 467.679688 L 641.21875 467.605469 L 641.21875 467.535156 L 641.222656 467.460938 L 641.222656 467.386719 L 641.226562 467.3125 L 641.226562 467.238281 L 641.234375 467.089844 L 641.234375 467.011719 L 641.171875 467.011719 L 641.113281 467.113281 L 640.996094 467.308594 L 640.941406 467.40625 L 640.882812 467.5 L 640.828125 467.59375 L 640.664062 467.863281 L 640.613281 467.953125 L 640.558594 468.035156 L 640.503906 468.125 L 640.445312 468.214844 L 640.386719 468.308594 L 640.324219 468.402344 L 640.253906 468.5 L 640.1875 468.597656 L 640.113281 468.699219 L 639.957031 468.910156 L 634.515625 476.410156 Z M 641.171875 476.410156 "/>
<path fill-rule="nonzero" fill="rgb(0%, 0%, 0%)" fill-opacity="1" d="M 416.175781 512.3125 L 413.550781 505.496094 L 405.457031 505.496094 L 402.78125 512.3125 L 401.394531 512.3125 L 408.976562 492.972656 L 410.214844 492.972656 L 417.597656 512.3125 Z M 413.117188 504.269531 L 410.453125 497.046875 L 410.429688 496.988281 L 410.410156 496.929688 L 410.382812 496.867188 L 410.359375 496.800781 L 410.335938 496.730469 L 410.308594 496.65625 L 410.277344 496.582031 L 410.25 496.503906 L 410.21875 496.421875 L 410.1875 496.335938 L 410.160156 496.246094 L 410.128906 496.160156 L 410.101562 496.070312 L 410.070312 495.976562 L 410.039062 495.886719 L 410.003906 495.792969 L 409.941406 495.605469 L 409.871094 495.410156 L 409.839844 495.316406 L 409.808594 495.21875 L 409.683594 494.84375 L 409.621094 494.664062 L 409.585938 494.578125 L 409.554688 494.488281 L 409.53125 494.582031 L 409.503906 494.671875 L 409.476562 494.765625 L 409.445312 494.859375 L 409.417969 494.949219 L 409.386719 495.042969 L 409.359375 495.136719 L 409.328125 495.226562 L 409.296875 495.320312 L 409.265625 495.410156 L 409.234375 495.503906 L 409.203125 495.59375 L 409.171875 495.6875 L 409.109375 495.867188 L 409.082031 495.957031 L 409.050781 496.046875 L 409.023438 496.132812 L 408.992188 496.222656 L 408.964844 496.308594 L 408.933594 496.390625 L 408.878906 496.554688 L 408.847656 496.632812 L 408.820312 496.710938 L 408.738281 496.933594 L 408.710938 497.003906 L 408.6875 497.074219 L 405.917969 504.269531 Z M 413.117188 504.269531 "/>
<path fill-rule="nonzero" fill="rgb(0%, 0%, 0%)" fill-opacity="1" d="M 428.671875 512.3125 L 421.59375 494.515625 L 421.527344 494.515625 L 421.535156 494.710938 L 421.542969 494.8125 L 421.550781 495.015625 L 421.554688 495.121094 L 421.558594 495.222656 L 421.5625 495.328125 L 421.5625 495.4375 L 421.570312 495.648438 L 421.578125 495.757812 L 421.582031 495.863281 L 421.585938 495.972656 L 421.589844 496.085938 L 421.59375 496.195312 L 421.601562 496.421875 L 421.601562 496.535156 L 421.609375 496.769531 L 421.609375 496.886719 L 421.613281 497.003906 L 421.613281 497.125 L 421.617188 497.246094 L 421.617188 497.738281 L 421.621094 497.863281 L 421.621094 512.3125 L 420.328125 512.3125 L 420.328125 493.039062 L 422.382812 493.039062 L 429.214844 510.203125 L 429.292969 510.203125 L 436.175781 493.039062 L 438.179688 493.039062 L 438.179688 512.3125 L 436.847656 512.3125 L 436.847656 497.183594 L 436.851562 497.078125 L 436.851562 496.972656 L 436.855469 496.867188 L 436.855469 496.757812 L 436.859375 496.652344 L 436.863281 496.542969 L 436.863281 496.4375 L 436.867188 496.328125 L 436.871094 496.222656 L 436.871094 496.113281 L 436.878906 495.902344 L 436.878906 495.792969 L 436.890625 495.476562 L 436.894531 495.367188 L 436.902344 495.261719 L 436.90625 495.15625 L 436.914062 495.054688 L 436.917969 494.949219 L 436.921875 494.847656 L 436.929688 494.742188 L 436.933594 494.640625 L 436.9375 494.542969 L 436.859375 494.542969 L 429.753906 512.3125 Z M 428.671875 512.3125 "/>
<path fill-rule="nonzero" fill="rgb(0%, 0%, 0%)" fill-opacity="1" d="M 451.824219 493.988281 L 451.457031 493.996094 L 451.101562 494.011719 L 450.75 494.046875 L 450.410156 494.089844 L 450.074219 494.144531 L 449.75 494.214844 L 449.433594 494.296875 L 449.121094 494.394531 L 448.820312 494.5 L 448.527344 494.621094 L 448.242188 494.75 L 447.964844 494.890625 L 447.695312 495.039062 L 447.4375 495.199219 L 447.1875 495.371094 L 446.949219 495.554688 L 446.714844 495.746094 L 446.492188 495.949219 L 446.28125 496.164062 L 446.074219 496.386719 L 445.878906 496.621094 L 445.691406 496.863281 L 445.515625 497.117188 L 445.347656 497.375 L 445.191406 497.648438 L 445.042969 497.925781 L 444.90625 498.214844 L 444.777344 498.507812 L 444.65625 498.816406 L 444.546875 499.128906 L 444.445312 499.449219 L 444.355469 499.777344 L 444.277344 500.109375 L 444.207031 500.449219 L 444.148438 500.792969 L 444.101562 501.148438 L 444.066406 501.507812 L 444.039062 501.871094 L 444.023438 502.246094 L 444.019531 502.625 L 444.027344 503.144531 L 444.050781 503.652344 L 444.09375 504.144531 L 444.152344 504.628906 L 444.226562 505.09375 L 444.316406 505.550781 L 444.425781 505.992188 L 444.550781 506.421875 L 444.691406 506.835938 L 444.847656 507.238281 L 445.023438 507.621094 L 445.214844 507.988281 L 445.421875 508.335938 L 445.644531 508.667969 L 445.886719 508.980469 L 446.144531 509.277344 L 446.417969 509.554688 L 446.710938 509.816406 L 447.015625 510.058594 L 447.339844 510.28125 L 447.683594 510.488281 L 448.042969 510.671875 L 448.417969 510.835938 L 448.8125 510.976562 L 449.21875 511.09375 L 449.644531 511.191406 L 450.085938 511.265625 L 450.542969 511.320312 L 451.015625 511.351562 L 451.507812 511.363281 L 451.792969 511.363281 L 452.074219 511.355469 L 452.351562 511.34375 L 452.625 511.332031 L 452.890625 511.3125 L 453.152344 511.289062 L 453.40625 511.261719 L 453.65625 511.230469 L 453.902344 511.191406 L 454.144531 511.152344 L 454.378906 511.105469 L 454.609375 511.058594 L 454.839844 511.007812 L 455.066406 510.953125 L 455.285156 510.898438 L 455.503906 510.839844 L 455.71875 510.78125 L 455.933594 510.71875 L 456.140625 510.652344 L 456.34375 510.585938 L 456.34375 511.773438 L 456.148438 511.84375 L 455.949219 511.910156 L 455.746094 511.976562 L 455.535156 512.035156 L 455.320312 512.097656 L 455.101562 512.152344 L 454.875 512.207031 L 454.644531 512.257812 L 454.410156 512.308594 L 453.925781 512.394531 L 453.671875 512.433594 L 453.414062 512.46875 L 453.144531 512.496094 L 452.871094 512.519531 L 452.585938 512.542969 L 452.296875 512.558594 L 451.996094 512.566406 L 451.691406 512.574219 L 451.375 512.578125 L 450.804688 512.566406 L 450.257812 512.527344 L 449.726562 512.464844 L 449.210938 512.378906 L 448.71875 512.265625 L 448.242188 512.132812 L 447.785156 511.96875 L 447.34375 511.785156 L 446.925781 511.574219 L 446.523438 511.335938 L 446.140625 511.078125 L 445.78125 510.800781 L 445.4375 510.503906 L 445.117188 510.1875 L 444.8125 509.847656 L 444.527344 509.488281 L 444.261719 509.113281 L 444.015625 508.714844 L 443.789062 508.296875 L 443.582031 507.855469 L 443.394531 507.402344 L 443.226562 506.929688 L 443.078125 506.445312 L 442.949219 505.945312 L 442.839844 505.429688 L 442.753906 504.898438 L 442.683594 504.351562 L 442.632812 503.789062 L 442.605469 503.214844 L 442.59375 502.625 L 442.601562 502.199219 L 442.617188 501.777344 L 442.648438 501.367188 L 442.695312 500.960938 L 442.75 500.5625 L 442.816406 500.171875 L 442.898438 499.789062 L 442.992188 499.414062 L 443.097656 499.042969 L 443.214844 498.679688 L 443.34375 498.324219 L 443.484375 497.980469 L 443.636719 497.640625 L 443.800781 497.316406 L 443.976562 496.996094 L 444.160156 496.691406 L 444.359375 496.390625 L 444.566406 496.105469 L 444.789062 495.824219 L 445.019531 495.558594 L 445.265625 495.296875 L 445.519531 495.046875 L 445.785156 494.8125 L 446.0625 494.589844 L 446.347656 494.378906 L 446.644531 494.175781 L 446.953125 493.988281 L 447.269531 493.816406 L 447.597656 493.652344 L 447.933594 493.5 L 448.28125 493.359375 L 448.636719 493.234375 L 449.003906 493.125 L 449.378906 493.027344 L 449.765625 492.945312 L 450.160156 492.878906 L 450.566406 492.828125 L 450.980469 492.792969 L 451.402344 492.769531 L 451.835938 492.761719 L 452.113281 492.765625 L 452.382812 492.773438 L 452.65625 492.785156 L 452.921875 492.804688 L 453.1875 492.832031 L 453.449219 492.863281 L 453.710938 492.898438 L 453.964844 492.9375 L 454.222656 492.988281 L 454.472656 493.039062 L 454.722656 493.09375 L 454.972656 493.15625 L 455.21875 493.21875 L 455.460938 493.289062 L 455.699219 493.367188 L 455.933594 493.445312 L 456.167969 493.53125 L 456.398438 493.621094 L 456.621094 493.714844 L 456.847656 493.816406 L 456.320312 495.003906 L 456.105469 494.902344 L 455.890625 494.804688 L 455.671875 494.714844 L 455.457031 494.628906 L 455.238281 494.546875 L 455.019531 494.476562 L 454.796875 494.40625 L 454.574219 494.34375 L 454.355469 494.289062 L 454.128906 494.238281 L 453.90625 494.191406 L 453.679688 494.148438 L 453.453125 494.109375 L 453.222656 494.078125 L 452.992188 494.050781 L 452.761719 494.027344 L 452.527344 494.011719 L 452.292969 494 L 452.058594 493.992188 Z M 451.824219 493.988281 "/>
<path fill-rule="nonzero" fill="rgb(0%, 0%, 0%)" fill-opacity="1" d="M 470.925781 512.3125 L 460.390625 512.3125 L 460.390625 493.039062 L 470.925781 493.039062 L 470.925781 494.265625 L 461.75 494.265625 L 461.75 501.570312 L 470.410156 501.570312 L 470.410156 502.792969 L 461.75 502.792969 L 461.75 511.085938 L 470.925781 511.085938 Z M 470.925781 512.3125 "/>
</svg>
